M48
; DRILL file {KiCad (5.1.4)-1} date 9/21/2019 2:34:16 PM
; FORMAT={-:-/ absolute / inch / decimal}
; #@! TF.CreationDate,2019-09-21T14:34:16-05:00
; #@! TF.GenerationSoftware,Kicad,Pcbnew,(5.1.4)-1
FMAT,2
INCH
T1C0.0236
T2C0.0394
T3C0.0402
T4C0.0630
T5C0.1063
T6C0.1181
%
G90
G05
T1
X8.104Y-4.5705
X8.104Y-4.7005
X8.159Y-4.8505
X8.249Y-4.4855
X8.2838Y-4.3357
X8.329Y-4.6855
X8.3743Y-4.4405
X8.424Y-4.0455
X8.429Y-4.4105
X8.524Y-4.3205
X8.534Y-4.5505
X8.574Y-4.1005
X8.5948Y-4.1997
X8.5951Y-4.7016
X8.649Y-4.8055
X8.7006Y-4.5771
X8.704Y-3.9505
X8.784Y-4.2405
X8.809Y-4.1911
X8.854Y-3.9324
X8.8751Y-4.5694
X8.879Y-4.3255
X8.904Y-4.0305
X8.9234Y-4.2611
X8.954Y-4.2305
X8.984Y-4.1911
X9.009Y-3.9655
X9.009Y-4.0305
X9.009Y-4.5355
X9.019Y-4.1605
X9.024Y-4.3805
X9.034Y-4.8055
X9.119Y-4.6755
X9.154Y-3.9905
X9.204Y-3.9955
X9.244Y-4.5255
X9.304Y-3.9955
X9.304Y-4.1911
X9.3181Y-4.2611
X9.354Y-4.0274
X9.3583Y-5.2028
X9.399Y-4.2305
X9.409Y-3.9555
X9.439Y-3.9955
X9.4484Y-4.5499
X9.494Y-4.5955
X9.5138Y-5.2382
X9.549Y-4.7355
X9.5886Y-5.4154
X9.609Y-4.2605
X9.609Y-4.3455
X9.609Y-4.7155
X9.624Y-4.1286
X9.669Y-4.527
X9.7481Y-4.1664
X9.784Y-4.4405
X9.889Y-4.4055
X9.904Y-4.0205
X9.944Y-4.1655
X9.949Y-5.0055
X10.069Y-4.4655
X10.409Y-4.9905
X10.579Y-4.0455
T2
X9.209Y-5.3005
X9.209Y-5.4005
X8.034Y-4.1155
X8.034Y-4.2155
X8.034Y-4.3155
X8.034Y-4.4155
X10.914Y-5.2305
X10.914Y-5.3305
X10.914Y-5.4305
X10.914Y-5.5305
X8.2035Y-3.7886
X8.2035Y-3.8886
X8.3035Y-3.7886
X8.3035Y-3.8886
X8.4035Y-3.7886
X8.4035Y-3.8886
X8.5035Y-3.7886
X8.5035Y-3.8886
X8.6035Y-3.7886
X8.6035Y-3.8886
X8.7035Y-3.7886
X8.7035Y-3.8886
X8.8035Y-3.7886
X8.8035Y-3.8886
X8.9035Y-3.7886
X8.9035Y-3.8886
X9.0035Y-3.7886
X9.0035Y-3.8886
X9.1035Y-3.7886
X9.1035Y-3.8886
X9.2035Y-3.7886
X9.2035Y-3.8886
X9.3035Y-3.7886
X9.3035Y-3.8886
X9.4035Y-3.7886
X9.4035Y-3.8886
X9.5035Y-3.7886
X9.5035Y-3.8886
X9.6035Y-3.7886
X9.6035Y-3.8886
X9.7035Y-3.7886
X9.7035Y-3.8886
X9.8035Y-3.7886
X9.8035Y-3.8886
X9.9035Y-3.7886
X9.9035Y-3.8886
X10.0035Y-3.7886
X10.0035Y-3.8886
X10.1035Y-3.7886
X10.1035Y-3.8886
X9.704Y-4.2455
X9.704Y-4.3455
X9.804Y-4.2455
X9.804Y-4.3455
X9.904Y-4.2455
X9.904Y-4.3455
X10.004Y-4.2455
X10.004Y-4.3455
X10.104Y-4.2455
X10.104Y-4.3455
X10.204Y-4.2455
X10.204Y-4.3455
T3
X10.1559Y-5.5505
X10.274Y-5.5505
X9.3697Y-5.5505
X9.4878Y-5.5505
X9.6059Y-5.5505
X9.724Y-5.5505
X8.8059Y-5.5505
X8.924Y-5.5505
T4
X9.024Y-5.0455
X9.024Y-5.2605
X10.769Y-5.7805
X10.239Y-5.3905
X10.799Y-4.8105
X11.074Y-5.0555
T5
X8.0118Y-5.7677
X10.2953Y-3.8386
X8.0118Y-3.8386
T6
X10.215Y-5.7206
X11.104Y-4.0945
X9.4543Y-5.7206
X9.6394Y-5.7206
X8.865Y-5.7206
X11.104Y-5.5118
T0
M30
