G04 #@! TF.GenerationSoftware,KiCad,Pcbnew,5.1.4-e60b266~84~ubuntu18.04.1*
G04 #@! TF.CreationDate,2019-09-21T13:12:49-05:00*
G04 #@! TF.ProjectId,BPSDisplay,42505344-6973-4706-9c61-792e6b696361,rev?*
G04 #@! TF.SameCoordinates,Original*
G04 #@! TF.FileFunction,Legend,Bot*
G04 #@! TF.FilePolarity,Positive*
%FSLAX46Y46*%
G04 Gerber Fmt 4.6, Leading zero omitted, Abs format (unit mm)*
G04 Created by KiCad (PCBNEW 5.1.4-e60b266~84~ubuntu18.04.1) date 2019-09-21 13:12:49*
%MOMM*%
%LPD*%
G04 APERTURE LIST*
%ADD10C,0.150000*%
%ADD11C,0.120000*%
G04 APERTURE END LIST*
D10*
X273080380Y-103589380D02*
X273413714Y-103113190D01*
X273651809Y-103589380D02*
X273651809Y-102589380D01*
X273270857Y-102589380D01*
X273175619Y-102637000D01*
X273128000Y-102684619D01*
X273080380Y-102779857D01*
X273080380Y-102922714D01*
X273128000Y-103017952D01*
X273175619Y-103065571D01*
X273270857Y-103113190D01*
X273651809Y-103113190D01*
X272651809Y-103065571D02*
X272318476Y-103065571D01*
X272175619Y-103589380D02*
X272651809Y-103589380D01*
X272651809Y-102589380D01*
X272175619Y-102589380D01*
X271794666Y-103541761D02*
X271651809Y-103589380D01*
X271413714Y-103589380D01*
X271318476Y-103541761D01*
X271270857Y-103494142D01*
X271223238Y-103398904D01*
X271223238Y-103303666D01*
X271270857Y-103208428D01*
X271318476Y-103160809D01*
X271413714Y-103113190D01*
X271604190Y-103065571D01*
X271699428Y-103017952D01*
X271747047Y-102970333D01*
X271794666Y-102875095D01*
X271794666Y-102779857D01*
X271747047Y-102684619D01*
X271699428Y-102637000D01*
X271604190Y-102589380D01*
X271366095Y-102589380D01*
X271223238Y-102637000D01*
X270794666Y-103065571D02*
X270461333Y-103065571D01*
X270318476Y-103589380D02*
X270794666Y-103589380D01*
X270794666Y-102589380D01*
X270318476Y-102589380D01*
X270032761Y-102589380D02*
X269461333Y-102589380D01*
X269747047Y-103589380D02*
X269747047Y-102589380D01*
X260562904Y-123274428D02*
X259801000Y-123274428D01*
X260181952Y-123655380D02*
X260181952Y-122893476D01*
X258801000Y-123655380D02*
X259372428Y-123655380D01*
X259086714Y-123655380D02*
X259086714Y-122655380D01*
X259181952Y-122798238D01*
X259277190Y-122893476D01*
X259372428Y-122941095D01*
X258420047Y-122750619D02*
X258372428Y-122703000D01*
X258277190Y-122655380D01*
X258039095Y-122655380D01*
X257943857Y-122703000D01*
X257896238Y-122750619D01*
X257848619Y-122845857D01*
X257848619Y-122941095D01*
X257896238Y-123083952D01*
X258467666Y-123655380D01*
X257848619Y-123655380D01*
X257562904Y-122655380D02*
X257229571Y-123655380D01*
X256896238Y-122655380D01*
D11*
X207040000Y-94900000D02*
X207040000Y-97500000D01*
X207040000Y-94900000D02*
X257960000Y-94900000D01*
X257960000Y-94900000D02*
X257960000Y-100100000D01*
X209640000Y-100100000D02*
X257960000Y-100100000D01*
X209640000Y-97500000D02*
X209640000Y-100100000D01*
X207040000Y-97500000D02*
X209640000Y-97500000D01*
X207040000Y-100100000D02*
X208370000Y-100100000D01*
X207040000Y-98770000D02*
X207040000Y-100100000D01*
X224957204Y-110326112D02*
X225322888Y-110691796D01*
X223953112Y-111330204D02*
X224318796Y-111695888D01*
X217448888Y-119327796D02*
X217083204Y-118962112D01*
X216444796Y-120331888D02*
X216079112Y-119966204D01*
X219127112Y-106758204D02*
X219492796Y-107123888D01*
X220131204Y-105754112D02*
X220496888Y-106119796D01*
X212003204Y-112076888D02*
X212368888Y-111711204D01*
X210999112Y-111072796D02*
X211364796Y-110707112D01*
X219099888Y-117676796D02*
X218734204Y-117311112D01*
X218095796Y-118680888D02*
X217730112Y-118315204D01*
X224433888Y-116029204D02*
X224068204Y-116394888D01*
X223429796Y-115025112D02*
X223064112Y-115390796D01*
X221778796Y-113374112D02*
X221413112Y-113739796D01*
X222782888Y-114378204D02*
X222417204Y-114743888D01*
X277137400Y-98634978D02*
X277137400Y-98117822D01*
X278557400Y-98634978D02*
X278557400Y-98117822D01*
X247065000Y-121547422D02*
X247065000Y-122064578D01*
X245645000Y-121547422D02*
X245645000Y-122064578D01*
X243359000Y-121547422D02*
X243359000Y-122064578D01*
X244779000Y-121547422D02*
X244779000Y-122064578D01*
X241731000Y-121547422D02*
X241731000Y-122064578D01*
X240311000Y-121547422D02*
X240311000Y-122064578D01*
X238025000Y-121547422D02*
X238025000Y-122064578D01*
X239445000Y-121547422D02*
X239445000Y-122064578D01*
X205465578Y-120080000D02*
X204948422Y-120080000D01*
X205465578Y-121500000D02*
X204948422Y-121500000D01*
X205465578Y-123913000D02*
X204948422Y-123913000D01*
X205465578Y-122493000D02*
X204948422Y-122493000D01*
X260512000Y-106506000D02*
X260512000Y-111706000D01*
X247752000Y-106506000D02*
X260512000Y-106506000D01*
X245152000Y-111706000D02*
X260512000Y-111706000D01*
X247752000Y-106506000D02*
X247752000Y-109106000D01*
X247752000Y-109106000D02*
X245152000Y-109106000D01*
X245152000Y-109106000D02*
X245152000Y-111706000D01*
X246482000Y-106506000D02*
X245152000Y-106506000D01*
X245152000Y-106506000D02*
X245152000Y-107836000D01*
X232579000Y-133303000D02*
X235239000Y-133303000D01*
X232579000Y-135903000D02*
X232579000Y-133303000D01*
X235239000Y-135903000D02*
X235239000Y-133303000D01*
X232579000Y-135903000D02*
X235239000Y-135903000D01*
X232579000Y-137173000D02*
X232579000Y-138503000D01*
X232579000Y-138503000D02*
X233909000Y-138503000D01*
X274897400Y-95626400D02*
X274897400Y-94976400D01*
X274897400Y-94976400D02*
X268397400Y-94976400D01*
X268397400Y-94976400D02*
X268397400Y-95626400D01*
X274897400Y-101126400D02*
X274897400Y-101776400D01*
X274897400Y-101776400D02*
X268397400Y-101776400D01*
X268397400Y-101776400D02*
X268397400Y-101126400D01*
X274897400Y-99626400D02*
X274897400Y-97126400D01*
X268397400Y-99626400D02*
X268397400Y-97126400D01*
X241234000Y-136225000D02*
X240324000Y-136225000D01*
X238924000Y-136225000D02*
X238014000Y-136225000D01*
X241234000Y-138800000D02*
X241234000Y-136225000D01*
X238014000Y-138375000D02*
X238014000Y-136225000D01*
D10*
X230960000Y-133617000D02*
G75*
G03X230960000Y-133617000I-1750000J0D01*
G01*
X230960000Y-128156000D02*
G75*
G03X230960000Y-128156000I-1750000J0D01*
G01*
X207596095Y-101430380D02*
X207596095Y-100430380D01*
X207215142Y-100430380D01*
X207119904Y-100478000D01*
X207072285Y-100525619D01*
X207024666Y-100620857D01*
X207024666Y-100763714D01*
X207072285Y-100858952D01*
X207119904Y-100906571D01*
X207215142Y-100954190D01*
X207596095Y-100954190D01*
X206072285Y-101430380D02*
X206643714Y-101430380D01*
X206358000Y-101430380D02*
X206358000Y-100430380D01*
X206453238Y-100573238D01*
X206548476Y-100668476D01*
X206643714Y-100716095D01*
X226659389Y-112796687D02*
X226726732Y-112796687D01*
X226861419Y-112729343D01*
X226928763Y-112662000D01*
X226996106Y-112527312D01*
X226996106Y-112392625D01*
X226962435Y-112291610D01*
X226861419Y-112123251D01*
X226760404Y-112022236D01*
X226592045Y-111921221D01*
X226491030Y-111887549D01*
X226356343Y-111887549D01*
X226221656Y-111954893D01*
X226154312Y-112022236D01*
X226086969Y-112156923D01*
X226086969Y-112224267D01*
X226053297Y-113537465D02*
X226457358Y-113133404D01*
X226255328Y-113335435D02*
X225548221Y-112628328D01*
X225716580Y-112662000D01*
X225851267Y-112662000D01*
X225952282Y-112628328D01*
X215483389Y-118130687D02*
X215550732Y-118130687D01*
X215685419Y-118063343D01*
X215752763Y-117996000D01*
X215820106Y-117861312D01*
X215820106Y-117726625D01*
X215786435Y-117625610D01*
X215685419Y-117457251D01*
X215584404Y-117356236D01*
X215416045Y-117255221D01*
X215315030Y-117221549D01*
X215180343Y-117221549D01*
X215045656Y-117288893D01*
X214978312Y-117356236D01*
X214910969Y-117490923D01*
X214910969Y-117558267D01*
X214641595Y-117827641D02*
X214574251Y-117827641D01*
X214473236Y-117861312D01*
X214304877Y-118029671D01*
X214271206Y-118130687D01*
X214271206Y-118198030D01*
X214304877Y-118299045D01*
X214372221Y-118366389D01*
X214506908Y-118433732D01*
X215315030Y-118433732D01*
X214877297Y-118871465D01*
X218531389Y-104922687D02*
X218598732Y-104922687D01*
X218733419Y-104855343D01*
X218800763Y-104788000D01*
X218868106Y-104653312D01*
X218868106Y-104518625D01*
X218834435Y-104417610D01*
X218733419Y-104249251D01*
X218632404Y-104148236D01*
X218464045Y-104047221D01*
X218363030Y-104013549D01*
X218228343Y-104013549D01*
X218093656Y-104080893D01*
X218026312Y-104148236D01*
X217958969Y-104282923D01*
X217958969Y-104350267D01*
X217655923Y-104518625D02*
X217218190Y-104956358D01*
X217723267Y-104990030D01*
X217622251Y-105091045D01*
X217588580Y-105192061D01*
X217588580Y-105259404D01*
X217622251Y-105360419D01*
X217790610Y-105528778D01*
X217891625Y-105562450D01*
X217958969Y-105562450D01*
X218059984Y-105528778D01*
X218262015Y-105326748D01*
X218295687Y-105225732D01*
X218295687Y-105158389D01*
X209898312Y-113413389D02*
X209898312Y-113480732D01*
X209965656Y-113615419D01*
X210033000Y-113682763D01*
X210167687Y-113750106D01*
X210302374Y-113750106D01*
X210403389Y-113716435D01*
X210571748Y-113615419D01*
X210672763Y-113514404D01*
X210773778Y-113346045D01*
X210807450Y-113245030D01*
X210807450Y-113110343D01*
X210740106Y-112975656D01*
X210672763Y-112908312D01*
X210538076Y-112840969D01*
X210470732Y-112840969D01*
X209696282Y-112403236D02*
X209224877Y-112874641D01*
X210134015Y-112302221D02*
X209797297Y-112975656D01*
X209359564Y-112537923D01*
X217261389Y-116479687D02*
X217328732Y-116479687D01*
X217463419Y-116412343D01*
X217530763Y-116345000D01*
X217598106Y-116210312D01*
X217598106Y-116075625D01*
X217564435Y-115974610D01*
X217463419Y-115806251D01*
X217362404Y-115705236D01*
X217194045Y-115604221D01*
X217093030Y-115570549D01*
X216958343Y-115570549D01*
X216823656Y-115637893D01*
X216756312Y-115705236D01*
X216688969Y-115839923D01*
X216688969Y-115907267D01*
X215981862Y-116479687D02*
X216318580Y-116142969D01*
X216688969Y-116446015D01*
X216621625Y-116446015D01*
X216520610Y-116479687D01*
X216352251Y-116648045D01*
X216318580Y-116749061D01*
X216318580Y-116816404D01*
X216352251Y-116917419D01*
X216520610Y-117085778D01*
X216621625Y-117119450D01*
X216688969Y-117119450D01*
X216789984Y-117085778D01*
X216958343Y-116917419D01*
X216992015Y-116816404D01*
X216992015Y-116749061D01*
X221963312Y-117731389D02*
X221963312Y-117798732D01*
X222030656Y-117933419D01*
X222098000Y-118000763D01*
X222232687Y-118068106D01*
X222367374Y-118068106D01*
X222468389Y-118034435D01*
X222636748Y-117933419D01*
X222737763Y-117832404D01*
X222838778Y-117664045D01*
X222872450Y-117563030D01*
X222872450Y-117428343D01*
X222805106Y-117293656D01*
X222737763Y-117226312D01*
X222603076Y-117158969D01*
X222535732Y-117158969D01*
X221996984Y-116485534D02*
X222131671Y-116620221D01*
X222165343Y-116721236D01*
X222165343Y-116788580D01*
X222131671Y-116956938D01*
X222030656Y-117125297D01*
X221761282Y-117394671D01*
X221660267Y-117428343D01*
X221592923Y-117428343D01*
X221491908Y-117394671D01*
X221357221Y-117259984D01*
X221323549Y-117158969D01*
X221323549Y-117091625D01*
X221357221Y-116990610D01*
X221525580Y-116822251D01*
X221626595Y-116788580D01*
X221693938Y-116788580D01*
X221794954Y-116822251D01*
X221929641Y-116956938D01*
X221963312Y-117057954D01*
X221963312Y-117125297D01*
X221929641Y-117226312D01*
X220312312Y-116080389D02*
X220312312Y-116147732D01*
X220379656Y-116282419D01*
X220447000Y-116349763D01*
X220581687Y-116417106D01*
X220716374Y-116417106D01*
X220817389Y-116383435D01*
X220985748Y-116282419D01*
X221086763Y-116181404D01*
X221187778Y-116013045D01*
X221221450Y-115912030D01*
X221221450Y-115777343D01*
X221154106Y-115642656D01*
X221086763Y-115575312D01*
X220952076Y-115507969D01*
X220884732Y-115507969D01*
X220716374Y-115204923D02*
X220244969Y-114733519D01*
X219840908Y-115743671D01*
X279704542Y-98209733D02*
X279752161Y-98162114D01*
X279799780Y-98019257D01*
X279799780Y-97924019D01*
X279752161Y-97781161D01*
X279656923Y-97685923D01*
X279561685Y-97638304D01*
X279371209Y-97590685D01*
X279228352Y-97590685D01*
X279037876Y-97638304D01*
X278942638Y-97685923D01*
X278847400Y-97781161D01*
X278799780Y-97924019D01*
X278799780Y-98019257D01*
X278847400Y-98162114D01*
X278895019Y-98209733D01*
X279228352Y-98781161D02*
X279180733Y-98685923D01*
X279133114Y-98638304D01*
X279037876Y-98590685D01*
X278990257Y-98590685D01*
X278895019Y-98638304D01*
X278847400Y-98685923D01*
X278799780Y-98781161D01*
X278799780Y-98971638D01*
X278847400Y-99066876D01*
X278895019Y-99114495D01*
X278990257Y-99162114D01*
X279037876Y-99162114D01*
X279133114Y-99114495D01*
X279180733Y-99066876D01*
X279228352Y-98971638D01*
X279228352Y-98781161D01*
X279275971Y-98685923D01*
X279323590Y-98638304D01*
X279418828Y-98590685D01*
X279609304Y-98590685D01*
X279704542Y-98638304D01*
X279752161Y-98685923D01*
X279799780Y-98781161D01*
X279799780Y-98971638D01*
X279752161Y-99066876D01*
X279704542Y-99114495D01*
X279609304Y-99162114D01*
X279418828Y-99162114D01*
X279323590Y-99114495D01*
X279275971Y-99066876D01*
X279228352Y-98971638D01*
X246712142Y-124163142D02*
X246759761Y-124115523D01*
X246807380Y-123972666D01*
X246807380Y-123877428D01*
X246759761Y-123734571D01*
X246664523Y-123639333D01*
X246569285Y-123591714D01*
X246378809Y-123544095D01*
X246235952Y-123544095D01*
X246045476Y-123591714D01*
X245950238Y-123639333D01*
X245855000Y-123734571D01*
X245807380Y-123877428D01*
X245807380Y-123972666D01*
X245855000Y-124115523D01*
X245902619Y-124163142D01*
X246807380Y-125115523D02*
X246807380Y-124544095D01*
X246807380Y-124829809D02*
X245807380Y-124829809D01*
X245950238Y-124734571D01*
X246045476Y-124639333D01*
X246093095Y-124544095D01*
X245807380Y-125972666D02*
X245807380Y-125782190D01*
X245855000Y-125686952D01*
X245902619Y-125639333D01*
X246045476Y-125544095D01*
X246235952Y-125496476D01*
X246616904Y-125496476D01*
X246712142Y-125544095D01*
X246759761Y-125591714D01*
X246807380Y-125686952D01*
X246807380Y-125877428D01*
X246759761Y-125972666D01*
X246712142Y-126020285D01*
X246616904Y-126067904D01*
X246378809Y-126067904D01*
X246283571Y-126020285D01*
X246235952Y-125972666D01*
X246188333Y-125877428D01*
X246188333Y-125686952D01*
X246235952Y-125591714D01*
X246283571Y-125544095D01*
X246378809Y-125496476D01*
X244426142Y-124263142D02*
X244473761Y-124215523D01*
X244521380Y-124072666D01*
X244521380Y-123977428D01*
X244473761Y-123834571D01*
X244378523Y-123739333D01*
X244283285Y-123691714D01*
X244092809Y-123644095D01*
X243949952Y-123644095D01*
X243759476Y-123691714D01*
X243664238Y-123739333D01*
X243569000Y-123834571D01*
X243521380Y-123977428D01*
X243521380Y-124072666D01*
X243569000Y-124215523D01*
X243616619Y-124263142D01*
X244521380Y-125215523D02*
X244521380Y-124644095D01*
X244521380Y-124929809D02*
X243521380Y-124929809D01*
X243664238Y-124834571D01*
X243759476Y-124739333D01*
X243807095Y-124644095D01*
X243521380Y-125548857D02*
X243521380Y-126215523D01*
X244521380Y-125786952D01*
X241378142Y-124225642D02*
X241425761Y-124178023D01*
X241473380Y-124035166D01*
X241473380Y-123939928D01*
X241425761Y-123797071D01*
X241330523Y-123701833D01*
X241235285Y-123654214D01*
X241044809Y-123606595D01*
X240901952Y-123606595D01*
X240711476Y-123654214D01*
X240616238Y-123701833D01*
X240521000Y-123797071D01*
X240473380Y-123939928D01*
X240473380Y-124035166D01*
X240521000Y-124178023D01*
X240568619Y-124225642D01*
X241473380Y-125178023D02*
X241473380Y-124606595D01*
X241473380Y-124892309D02*
X240473380Y-124892309D01*
X240616238Y-124797071D01*
X240711476Y-124701833D01*
X240759095Y-124606595D01*
X240901952Y-125749452D02*
X240854333Y-125654214D01*
X240806714Y-125606595D01*
X240711476Y-125558976D01*
X240663857Y-125558976D01*
X240568619Y-125606595D01*
X240521000Y-125654214D01*
X240473380Y-125749452D01*
X240473380Y-125939928D01*
X240521000Y-126035166D01*
X240568619Y-126082785D01*
X240663857Y-126130404D01*
X240711476Y-126130404D01*
X240806714Y-126082785D01*
X240854333Y-126035166D01*
X240901952Y-125939928D01*
X240901952Y-125749452D01*
X240949571Y-125654214D01*
X240997190Y-125606595D01*
X241092428Y-125558976D01*
X241282904Y-125558976D01*
X241378142Y-125606595D01*
X241425761Y-125654214D01*
X241473380Y-125749452D01*
X241473380Y-125939928D01*
X241425761Y-126035166D01*
X241378142Y-126082785D01*
X241282904Y-126130404D01*
X241092428Y-126130404D01*
X240997190Y-126082785D01*
X240949571Y-126035166D01*
X240901952Y-125939928D01*
X239192142Y-124163142D02*
X239239761Y-124115523D01*
X239287380Y-123972666D01*
X239287380Y-123877428D01*
X239239761Y-123734571D01*
X239144523Y-123639333D01*
X239049285Y-123591714D01*
X238858809Y-123544095D01*
X238715952Y-123544095D01*
X238525476Y-123591714D01*
X238430238Y-123639333D01*
X238335000Y-123734571D01*
X238287380Y-123877428D01*
X238287380Y-123972666D01*
X238335000Y-124115523D01*
X238382619Y-124163142D01*
X239287380Y-125115523D02*
X239287380Y-124544095D01*
X239287380Y-124829809D02*
X238287380Y-124829809D01*
X238430238Y-124734571D01*
X238525476Y-124639333D01*
X238573095Y-124544095D01*
X239287380Y-125591714D02*
X239287380Y-125782190D01*
X239239761Y-125877428D01*
X239192142Y-125925047D01*
X239049285Y-126020285D01*
X238858809Y-126067904D01*
X238477857Y-126067904D01*
X238382619Y-126020285D01*
X238335000Y-125972666D01*
X238287380Y-125877428D01*
X238287380Y-125686952D01*
X238335000Y-125591714D01*
X238382619Y-125544095D01*
X238477857Y-125496476D01*
X238715952Y-125496476D01*
X238811190Y-125544095D01*
X238858809Y-125591714D01*
X238906428Y-125686952D01*
X238906428Y-125877428D01*
X238858809Y-125972666D01*
X238811190Y-126020285D01*
X238715952Y-126067904D01*
X208987357Y-121147142D02*
X209034976Y-121194761D01*
X209177833Y-121242380D01*
X209273071Y-121242380D01*
X209415928Y-121194761D01*
X209511166Y-121099523D01*
X209558785Y-121004285D01*
X209606404Y-120813809D01*
X209606404Y-120670952D01*
X209558785Y-120480476D01*
X209511166Y-120385238D01*
X209415928Y-120290000D01*
X209273071Y-120242380D01*
X209177833Y-120242380D01*
X209034976Y-120290000D01*
X208987357Y-120337619D01*
X208606404Y-120337619D02*
X208558785Y-120290000D01*
X208463547Y-120242380D01*
X208225452Y-120242380D01*
X208130214Y-120290000D01*
X208082595Y-120337619D01*
X208034976Y-120432857D01*
X208034976Y-120528095D01*
X208082595Y-120670952D01*
X208654023Y-121242380D01*
X208034976Y-121242380D01*
X207415928Y-120242380D02*
X207320690Y-120242380D01*
X207225452Y-120290000D01*
X207177833Y-120337619D01*
X207130214Y-120432857D01*
X207082595Y-120623333D01*
X207082595Y-120861428D01*
X207130214Y-121051904D01*
X207177833Y-121147142D01*
X207225452Y-121194761D01*
X207320690Y-121242380D01*
X207415928Y-121242380D01*
X207511166Y-121194761D01*
X207558785Y-121147142D01*
X207606404Y-121051904D01*
X207654023Y-120861428D01*
X207654023Y-120623333D01*
X207606404Y-120432857D01*
X207558785Y-120337619D01*
X207511166Y-120290000D01*
X207415928Y-120242380D01*
X202849857Y-123560142D02*
X202897476Y-123607761D01*
X203040333Y-123655380D01*
X203135571Y-123655380D01*
X203278428Y-123607761D01*
X203373666Y-123512523D01*
X203421285Y-123417285D01*
X203468904Y-123226809D01*
X203468904Y-123083952D01*
X203421285Y-122893476D01*
X203373666Y-122798238D01*
X203278428Y-122703000D01*
X203135571Y-122655380D01*
X203040333Y-122655380D01*
X202897476Y-122703000D01*
X202849857Y-122750619D01*
X202468904Y-122750619D02*
X202421285Y-122703000D01*
X202326047Y-122655380D01*
X202087952Y-122655380D01*
X201992714Y-122703000D01*
X201945095Y-122750619D01*
X201897476Y-122845857D01*
X201897476Y-122941095D01*
X201945095Y-123083952D01*
X202516523Y-123655380D01*
X201897476Y-123655380D01*
X200945095Y-123655380D02*
X201516523Y-123655380D01*
X201230809Y-123655380D02*
X201230809Y-122655380D01*
X201326047Y-122798238D01*
X201421285Y-122893476D01*
X201516523Y-122941095D01*
X243604380Y-108772666D02*
X244318666Y-108772666D01*
X244461523Y-108725047D01*
X244556761Y-108629809D01*
X244604380Y-108486952D01*
X244604380Y-108391714D01*
X243699619Y-109201238D02*
X243652000Y-109248857D01*
X243604380Y-109344095D01*
X243604380Y-109582190D01*
X243652000Y-109677428D01*
X243699619Y-109725047D01*
X243794857Y-109772666D01*
X243890095Y-109772666D01*
X244032952Y-109725047D01*
X244604380Y-109153619D01*
X244604380Y-109772666D01*
X234742333Y-131926380D02*
X234742333Y-132640666D01*
X234789952Y-132783523D01*
X234885190Y-132878761D01*
X235028047Y-132926380D01*
X235123285Y-132926380D01*
X234266142Y-132926380D02*
X234266142Y-131926380D01*
X233885190Y-131926380D01*
X233789952Y-131974000D01*
X233742333Y-132021619D01*
X233694714Y-132116857D01*
X233694714Y-132259714D01*
X233742333Y-132354952D01*
X233789952Y-132402571D01*
X233885190Y-132450190D01*
X234266142Y-132450190D01*
X232742333Y-132926380D02*
X233313761Y-132926380D01*
X233028047Y-132926380D02*
X233028047Y-131926380D01*
X233123285Y-132069238D01*
X233218523Y-132164476D01*
X233313761Y-132212095D01*
X272252161Y-97043066D02*
X272299780Y-97185923D01*
X272299780Y-97424019D01*
X272252161Y-97519257D01*
X272204542Y-97566876D01*
X272109304Y-97614495D01*
X272014066Y-97614495D01*
X271918828Y-97566876D01*
X271871209Y-97519257D01*
X271823590Y-97424019D01*
X271775971Y-97233542D01*
X271728352Y-97138304D01*
X271680733Y-97090685D01*
X271585495Y-97043066D01*
X271490257Y-97043066D01*
X271395019Y-97090685D01*
X271347400Y-97138304D01*
X271299780Y-97233542D01*
X271299780Y-97471638D01*
X271347400Y-97614495D01*
X271299780Y-97947828D02*
X272299780Y-98185923D01*
X271585495Y-98376400D01*
X272299780Y-98566876D01*
X271299780Y-98804971D01*
X272299780Y-99709733D02*
X272299780Y-99138304D01*
X272299780Y-99424019D02*
X271299780Y-99424019D01*
X271442638Y-99328780D01*
X271537876Y-99233542D01*
X271585495Y-99138304D01*
X241576380Y-136538095D02*
X242385904Y-136538095D01*
X242481142Y-136585714D01*
X242528761Y-136633333D01*
X242576380Y-136728571D01*
X242576380Y-136919047D01*
X242528761Y-137014285D01*
X242481142Y-137061904D01*
X242385904Y-137109523D01*
X241576380Y-137109523D01*
X241671619Y-137538095D02*
X241624000Y-137585714D01*
X241576380Y-137680952D01*
X241576380Y-137919047D01*
X241624000Y-138014285D01*
X241671619Y-138061904D01*
X241766857Y-138109523D01*
X241862095Y-138109523D01*
X242004952Y-138061904D01*
X242576380Y-137490476D01*
X242576380Y-138109523D01*
M02*
