M48
; DRILL file {KiCad (5.1.5)-3} date 2/29/2020 4:55:40 PM
; FORMAT={-:-/ absolute / inch / decimal}
; #@! TF.CreationDate,2020-02-29T16:55:40-06:00
; #@! TF.GenerationSoftware,Kicad,Pcbnew,(5.1.5)-3
FMAT,2
INCH
T1C0.0157
T2C0.0197
T3C0.0394
T4C0.0402
T5C0.0402
T6C0.0630
T7C0.0500
T8C0.1181
%
G90
G05
T1
X4.3142Y-2.7262
X4.3524Y-2.9022
X4.7264Y-3.9258
X5.6516Y-2.9022
X6.5768Y-3.1974
X6.7343Y-3.3549
X6.7343Y-3.5715
X6.7343Y-3.7093
X6.7343Y-4.0242
X6.9508Y-3.9258
X6.9902Y-3.3549
X7.3051Y-3.6305
X7.4035Y-3.3352
X7.6398Y-3.3549
X7.6398Y-3.5518
X8.0728Y-3.2762
T2
X4.7473Y-2.7262
X4.7854Y-2.9022
X5.1804Y-2.7262
X5.2185Y-2.9022
X5.6122Y-2.725
X6.0453Y-2.7299
X6.0846Y-2.9022
X6.4783Y-2.7275
X6.4783Y-3.1187
X6.5177Y-2.9022
X6.7539Y-3.1187
X6.8891Y-3.3181
X6.9114Y-2.7275
X6.9311Y-3.1187
X6.9508Y-2.9022
X7.3445Y-2.7275
X7.3839Y-2.9022
T3
X8.15Y-2.2919
X8.25Y-2.2919
X4.478Y-4.0242
X4.578Y-4.0242
X4.678Y-4.0242
X4.778Y-4.0242
T4
X7.5217Y-2.3313
X7.6398Y-2.3313
X7.8957Y-3.5715
X8.0138Y-3.5715
X8.1319Y-3.5715
X8.25Y-3.5715
X7.0886Y-2.3313
X7.2067Y-2.3313
X4.9232Y-2.3313
X5.0413Y-2.3313
X6.2224Y-2.3313
X6.3406Y-2.3313
X6.6555Y-2.3313
X6.7736Y-2.3313
X5.0978Y-4.123
X5.2159Y-4.123
X4.4902Y-2.3313
X4.6083Y-2.3313
X7.9154Y-2.8037
X8.0335Y-2.8037
X8.1516Y-2.8037
X8.2697Y-2.8037
X5.7894Y-2.3313
X5.9075Y-2.3313
X5.3563Y-2.3313
X5.4744Y-2.3313
T5
X5.0835Y-3.1939
X5.0835Y-3.7939
X5.1835Y-3.1939
X5.1835Y-3.7939
X5.2835Y-3.1939
X5.2835Y-3.7939
X5.3835Y-3.1939
X5.3835Y-3.7939
X5.4835Y-3.1939
X5.4835Y-3.7939
X5.5835Y-3.1939
X5.5835Y-3.7939
X5.6835Y-3.1939
X5.6835Y-3.7939
X5.7835Y-3.1939
X5.7835Y-3.7939
X5.8835Y-3.1939
X5.8835Y-3.7939
X5.9835Y-3.1939
X5.9835Y-3.7939
X6.0835Y-3.1939
X6.0835Y-3.7939
X6.1835Y-3.1939
X6.1835Y-3.7939
X6.2835Y-3.1939
X6.2835Y-3.7939
X6.3835Y-3.1939
X6.3835Y-3.7939
X6.4835Y-3.1939
X6.4835Y-3.7939
T6
X6.1634Y-4.0636
X7.9744Y-3.8864
X7.2461Y-2.9612
X7.3642Y-3.1974
X7.6004Y-3.1974
X5.5138Y-2.9612
X6.3799Y-2.9612
X5.4941Y-4.0636
X7.7776Y-3.8864
X4.6476Y-2.9612
X6.813Y-2.9612
X5.0807Y-2.9612
X8.1713Y-3.8864
X7.6791Y-2.9612
X6.3602Y-4.0636
X8.3681Y-3.8864
X5.9469Y-2.9612
T7
X7.7776Y-3.4943
X8.3681Y-3.4943
X4.9797Y-4.0459
X5.3341Y-4.0459
X7.7972Y-2.7266
X8.3878Y-2.7266
T8
X8.4075Y-4.2014
X5.8484Y-2.1612
X5.4154Y-2.1612
X7.5807Y-2.1612
X4.1752Y-4.2014
X8.4075Y-2.1148
X4.9823Y-2.1612
X4.5492Y-2.1612
X4.1752Y-2.1148
X7.1476Y-2.1612
X6.2815Y-2.1612
X6.7146Y-2.1612
T0
M30
