M48
;DRILL file {KiCad (5.0.0)} date 06/08/19 16:18:43
;FORMAT={-:-/ absolute / inch / decimal}
FMAT,2
INCH,TZ
T1C0.0150
T2C0.0394
T3C0.0402
T4C0.0630
T5C0.0394
T6C0.1181
%
G90
G05
M72
T1
X2.626Y-4.35
X2.626Y-4.5748
X2.6626Y-4.4244
X2.7094Y-4.2602
X2.7374Y-4.4366
X2.7465Y-4.5689
X2.7823Y-3.7295
X2.7835Y-4.674
X2.8063Y-3.8622
X2.8134Y-4.7686
X2.8374Y-3.5953
X2.8878Y-4.3787
X3.21Y-4.6375
X3.295Y-3.6775
X3.2975Y-3.56
X3.2975Y-4.3175
X3.3Y-3.825
X3.3Y-4.2175
X3.3025Y-3.4275
X3.3025Y-4.075
X3.3025Y-4.4425
X3.305Y-3.9425
X3.5025Y-3.5725
X3.5725Y-4.3425
X3.65Y-3.495
X3.6625Y-4.445
X3.6875Y-4.7175
X3.73Y-3.3725
X3.7402Y-4.06
X3.805Y-4.2975
X3.815Y-4.1398
X3.8233Y-3.9161
X3.8425Y-3.275
X3.85Y-4.6325
X3.8681Y-4.3228
X3.915Y-4.1375
X3.95Y-4.7375
X3.9525Y-3.175
X4.0827Y-3.9626
X4.115Y-3.755
X4.1375Y-4.3
X4.1581Y-4.6417
X4.16Y-4.065
X4.1988Y-4.6181
X4.1988Y-4.7618
X4.2382Y-4.6417
X4.2579Y-4.7618
X4.3051Y-4.6732
X4.3583Y-4.8031
X4.6122Y-4.4606
X4.7002Y-3.6766
X4.758Y-3.8525
X4.7638Y-3.9764
X4.7638Y-4.3497
X4.8031Y-4.1339
X4.8031Y-4.2126
X4.8819Y-4.9606
X5.2756Y-4.6457
T2
X5.0394Y-3.189
X5.0394Y-3.3071
X5.0394Y-3.4252
X5.0394Y-3.5433
X5.0394Y-3.6614
X5.0394Y-3.7795
X5.1575Y-3.189
X5.1575Y-3.3071
X5.1575Y-3.4252
X5.1575Y-3.5433
X5.1575Y-3.6614
X5.1575Y-3.7795
X5.0575Y-4.3819
X5.0575Y-4.4819
X5.0575Y-4.5819
X5.0575Y-4.6819
X5.0575Y-4.7819
X5.0575Y-4.8819
X5.1575Y-4.3819
X5.1575Y-4.4819
X5.1575Y-4.5819
X5.1575Y-4.6819
X5.1575Y-4.7819
X5.1575Y-4.8819
X4.0581Y-5.145
X4.1581Y-5.145
X4.2581Y-5.145
X4.3581Y-5.145
X4.4581Y-5.145
T3
X4.4226Y-3.1138
X4.5407Y-3.1138
X2.4441Y-3.4829
X2.4441Y-3.6018
X2.4441Y-3.7199
X2.4441Y-3.838
X2.4441Y-3.9561
X2.4441Y-4.0742
X2.4441Y-4.1923
X2.4441Y-4.3104
X2.4441Y-4.4285
X2.4441Y-4.5467
X2.5622Y-3.4829
X2.5622Y-3.6018
X2.5622Y-3.7199
X2.5622Y-3.838
X2.5622Y-3.9561
X2.5622Y-4.0742
X2.5622Y-4.1923
X2.5622Y-4.3104
X2.5622Y-4.4285
X2.5622Y-4.5467
T4
X4.4134Y-4.5827
X4.6693Y-5.1339
T5
X5.0024Y-3.0709
X5.0024Y-3.8976
T6
X5.1969Y-2.874
X4.4817Y-2.9437
X2.2047Y-5.1969
X2.2047Y-2.874
X5.1969Y-5.1969
X2.274Y-3.5679
X2.274Y-4.4616
T0
M30
