%TF.GenerationSoftware,KiCad,Pcbnew,(5.0.0)*%
%TF.CreationDate,2019-02-24T20:53:01-06:00*%
%TF.ProjectId,BPSTemperature,42505354656D70657261747572652E6B,rev?*%
%TF.SameCoordinates,Original*%
%TF.FileFunction,Legend,Top*%
%TF.FilePolarity,Positive*%
%FSLAX46Y46*%
G04 Gerber Fmt 4.6, Leading zero omitted, Abs format (unit mm)*
G04 Created by KiCad (PCBNEW (5.0.0)) date 02/24/19 20:53:01*
%MOMM*%
%LPD*%
G01*
G04 APERTURE LIST*
%ADD10C,0.150000*%
%ADD11C,0.200000*%
%ADD12C,0.248000*%
%ADD13C,0.300000*%
%ADD14C,0.120000*%
%ADD15C,0.010000*%
G04 APERTURE END LIST*
D10*
X134342142Y-84264476D02*
X134389761Y-84312095D01*
X134437380Y-84454952D01*
X134437380Y-84550190D01*
X134389761Y-84693047D01*
X134294523Y-84788285D01*
X134199285Y-84835904D01*
X134008809Y-84883523D01*
X133865952Y-84883523D01*
X133675476Y-84835904D01*
X133580238Y-84788285D01*
X133485000Y-84693047D01*
X133437380Y-84550190D01*
X133437380Y-84454952D01*
X133485000Y-84312095D01*
X133532619Y-84264476D01*
X134437380Y-83835904D02*
X133437380Y-83835904D01*
X134437380Y-83264476D02*
X133865952Y-83693047D01*
X133437380Y-83264476D02*
X134008809Y-83835904D01*
X133612000Y-95249904D02*
X133564380Y-95345142D01*
X133564380Y-95488000D01*
X133612000Y-95630857D01*
X133707238Y-95726095D01*
X133802476Y-95773714D01*
X133992952Y-95821333D01*
X134135809Y-95821333D01*
X134326285Y-95773714D01*
X134421523Y-95726095D01*
X134516761Y-95630857D01*
X134564380Y-95488000D01*
X134564380Y-95392761D01*
X134516761Y-95249904D01*
X134469142Y-95202285D01*
X134135809Y-95202285D01*
X134135809Y-95392761D01*
X134564380Y-94773714D02*
X133564380Y-94773714D01*
X134564380Y-94202285D01*
X133564380Y-94202285D01*
X134564380Y-93726095D02*
X133564380Y-93726095D01*
X133564380Y-93488000D01*
X133612000Y-93345142D01*
X133707238Y-93249904D01*
X133802476Y-93202285D01*
X133992952Y-93154666D01*
X134135809Y-93154666D01*
X134326285Y-93202285D01*
X134421523Y-93249904D01*
X134516761Y-93345142D01*
X134564380Y-93488000D01*
X134564380Y-93726095D01*
X134056428Y-82311714D02*
X134056428Y-81549809D01*
X134437380Y-81930761D02*
X133675476Y-81930761D01*
X133437380Y-80597428D02*
X133437380Y-81073619D01*
X133913571Y-81121238D01*
X133865952Y-81073619D01*
X133818333Y-80978380D01*
X133818333Y-80740285D01*
X133865952Y-80645047D01*
X133913571Y-80597428D01*
X134008809Y-80549809D01*
X134246904Y-80549809D01*
X134342142Y-80597428D01*
X134389761Y-80645047D01*
X134437380Y-80740285D01*
X134437380Y-80978380D01*
X134389761Y-81073619D01*
X134342142Y-81121238D01*
X133437380Y-80264095D02*
X134437380Y-79930761D01*
X133437380Y-79597428D01*
X134437380Y-87725142D02*
X133437380Y-87725142D01*
X134151666Y-87391809D01*
X133437380Y-87058476D01*
X134437380Y-87058476D01*
X133437380Y-86391809D02*
X133437380Y-86201333D01*
X133485000Y-86106095D01*
X133580238Y-86010857D01*
X133770714Y-85963238D01*
X134104047Y-85963238D01*
X134294523Y-86010857D01*
X134389761Y-86106095D01*
X134437380Y-86201333D01*
X134437380Y-86391809D01*
X134389761Y-86487047D01*
X134294523Y-86582285D01*
X134104047Y-86629904D01*
X133770714Y-86629904D01*
X133580238Y-86582285D01*
X133485000Y-86487047D01*
X133437380Y-86391809D01*
X134437380Y-90487428D02*
X133437380Y-90487428D01*
X134151666Y-90154095D01*
X133437380Y-89820761D01*
X134437380Y-89820761D01*
X134437380Y-89344571D02*
X133437380Y-89344571D01*
X125546714Y-96464380D02*
X124975285Y-96464380D01*
X125261000Y-96464380D02*
X125261000Y-95464380D01*
X125165761Y-95607238D01*
X125070523Y-95702476D01*
X124975285Y-95750095D01*
X125351476Y-86780714D02*
X125351476Y-87447380D01*
X125113380Y-86399761D02*
X124875285Y-87114047D01*
X125494333Y-87114047D01*
X125460095Y-83526380D02*
X124983904Y-83526380D01*
X124936285Y-84002571D01*
X124983904Y-83954952D01*
X125079142Y-83907333D01*
X125317238Y-83907333D01*
X125412476Y-83954952D01*
X125460095Y-84002571D01*
X125507714Y-84097809D01*
X125507714Y-84335904D01*
X125460095Y-84431142D01*
X125412476Y-84478761D01*
X125317238Y-84526380D01*
X125079142Y-84526380D01*
X124983904Y-84478761D01*
X124936285Y-84431142D01*
X125351476Y-80401380D02*
X125161000Y-80401380D01*
X125065761Y-80449000D01*
X125018142Y-80496619D01*
X124922904Y-80639476D01*
X124875285Y-80829952D01*
X124875285Y-81210904D01*
X124922904Y-81306142D01*
X124970523Y-81353761D01*
X125065761Y-81401380D01*
X125256238Y-81401380D01*
X125351476Y-81353761D01*
X125399095Y-81306142D01*
X125446714Y-81210904D01*
X125446714Y-80972809D01*
X125399095Y-80877571D01*
X125351476Y-80829952D01*
X125256238Y-80782333D01*
X125065761Y-80782333D01*
X124970523Y-80829952D01*
X124922904Y-80877571D01*
X124875285Y-80972809D01*
X124888666Y-89368380D02*
X125507714Y-89368380D01*
X125174380Y-89749333D01*
X125317238Y-89749333D01*
X125412476Y-89796952D01*
X125460095Y-89844571D01*
X125507714Y-89939809D01*
X125507714Y-90177904D01*
X125460095Y-90273142D01*
X125412476Y-90320761D01*
X125317238Y-90368380D01*
X125031523Y-90368380D01*
X124936285Y-90320761D01*
X124888666Y-90273142D01*
X124925285Y-92511619D02*
X124972904Y-92464000D01*
X125068142Y-92416380D01*
X125306238Y-92416380D01*
X125401476Y-92464000D01*
X125449095Y-92511619D01*
X125496714Y-92606857D01*
X125496714Y-92702095D01*
X125449095Y-92844952D01*
X124877666Y-93416380D01*
X125496714Y-93416380D01*
X117838095Y-132450000D02*
X117742857Y-132402380D01*
X117600000Y-132402380D01*
X117457142Y-132450000D01*
X117361904Y-132545238D01*
X117314285Y-132640476D01*
X117266666Y-132830952D01*
X117266666Y-132973809D01*
X117314285Y-133164285D01*
X117361904Y-133259523D01*
X117457142Y-133354761D01*
X117600000Y-133402380D01*
X117695238Y-133402380D01*
X117838095Y-133354761D01*
X117885714Y-133307142D01*
X117885714Y-132973809D01*
X117695238Y-132973809D01*
X118314285Y-133402380D02*
X118314285Y-132402380D01*
X118885714Y-133402380D01*
X118885714Y-132402380D01*
X119361904Y-133402380D02*
X119361904Y-132402380D01*
X119600000Y-132402380D01*
X119742857Y-132450000D01*
X119838095Y-132545238D01*
X119885714Y-132640476D01*
X119933333Y-132830952D01*
X119933333Y-132973809D01*
X119885714Y-133164285D01*
X119838095Y-133259523D01*
X119742857Y-133354761D01*
X119600000Y-133402380D01*
X119361904Y-133402380D01*
X110764285Y-119071428D02*
X111526190Y-119071428D01*
X111145238Y-119452380D02*
X111145238Y-118690476D01*
X112478571Y-118452380D02*
X112002380Y-118452380D01*
X111954761Y-118928571D01*
X112002380Y-118880952D01*
X112097619Y-118833333D01*
X112335714Y-118833333D01*
X112430952Y-118880952D01*
X112478571Y-118928571D01*
X112526190Y-119023809D01*
X112526190Y-119261904D01*
X112478571Y-119357142D01*
X112430952Y-119404761D01*
X112335714Y-119452380D01*
X112097619Y-119452380D01*
X112002380Y-119404761D01*
X111954761Y-119357142D01*
X112811904Y-118452380D02*
X113145238Y-119452380D01*
X113478571Y-118452380D01*
X132996000Y-113590904D02*
X132948380Y-113686142D01*
X132948380Y-113829000D01*
X132996000Y-113971857D01*
X133091238Y-114067095D01*
X133186476Y-114114714D01*
X133376952Y-114162333D01*
X133519809Y-114162333D01*
X133710285Y-114114714D01*
X133805523Y-114067095D01*
X133900761Y-113971857D01*
X133948380Y-113829000D01*
X133948380Y-113733761D01*
X133900761Y-113590904D01*
X133853142Y-113543285D01*
X133519809Y-113543285D01*
X133519809Y-113733761D01*
X133948380Y-113114714D02*
X132948380Y-113114714D01*
X133948380Y-112543285D01*
X132948380Y-112543285D01*
X133948380Y-112067095D02*
X132948380Y-112067095D01*
X132948380Y-111829000D01*
X132996000Y-111686142D01*
X133091238Y-111590904D01*
X133186476Y-111543285D01*
X133376952Y-111495666D01*
X133519809Y-111495666D01*
X133710285Y-111543285D01*
X133805523Y-111590904D01*
X133900761Y-111686142D01*
X133948380Y-111829000D01*
X133948380Y-112067095D01*
X132924571Y-116981380D02*
X132924571Y-115981380D01*
X133257904Y-116695666D01*
X133591238Y-115981380D01*
X133591238Y-116981380D01*
X134067428Y-116981380D02*
X134067428Y-115981380D01*
X132738857Y-119531380D02*
X132738857Y-118531380D01*
X133072190Y-119245666D01*
X133405523Y-118531380D01*
X133405523Y-119531380D01*
X134072190Y-118531380D02*
X134262666Y-118531380D01*
X134357904Y-118579000D01*
X134453142Y-118674238D01*
X134500761Y-118864714D01*
X134500761Y-119198047D01*
X134453142Y-119388523D01*
X134357904Y-119483761D01*
X134262666Y-119531380D01*
X134072190Y-119531380D01*
X133976952Y-119483761D01*
X133881714Y-119388523D01*
X133834095Y-119198047D01*
X133834095Y-118864714D01*
X133881714Y-118674238D01*
X133976952Y-118579000D01*
X134072190Y-118531380D01*
X133405523Y-121986142D02*
X133357904Y-122033761D01*
X133215047Y-122081380D01*
X133119809Y-122081380D01*
X132976952Y-122033761D01*
X132881714Y-121938523D01*
X132834095Y-121843285D01*
X132786476Y-121652809D01*
X132786476Y-121509952D01*
X132834095Y-121319476D01*
X132881714Y-121224238D01*
X132976952Y-121129000D01*
X133119809Y-121081380D01*
X133215047Y-121081380D01*
X133357904Y-121129000D01*
X133405523Y-121176619D01*
X133834095Y-122081380D02*
X133834095Y-121081380D01*
X134405523Y-122081380D02*
X133976952Y-121509952D01*
X134405523Y-121081380D02*
X133834095Y-121652809D01*
X133517428Y-125614714D02*
X133517428Y-124852809D01*
X133898380Y-125233761D02*
X133136476Y-125233761D01*
X132898380Y-123900428D02*
X132898380Y-124376619D01*
X133374571Y-124424238D01*
X133326952Y-124376619D01*
X133279333Y-124281380D01*
X133279333Y-124043285D01*
X133326952Y-123948047D01*
X133374571Y-123900428D01*
X133469809Y-123852809D01*
X133707904Y-123852809D01*
X133803142Y-123900428D01*
X133850761Y-123948047D01*
X133898380Y-124043285D01*
X133898380Y-124281380D01*
X133850761Y-124376619D01*
X133803142Y-124424238D01*
X132898380Y-123567095D02*
X133898380Y-123233761D01*
X132898380Y-122900428D01*
X126367476Y-116287714D02*
X126367476Y-116954380D01*
X126129380Y-115906761D02*
X125891285Y-116621047D01*
X126510333Y-116621047D01*
X126562714Y-124454380D02*
X125991285Y-124454380D01*
X126277000Y-124454380D02*
X126277000Y-123454380D01*
X126181761Y-123597238D01*
X126086523Y-123692476D01*
X125991285Y-123740095D01*
X125893666Y-118454380D02*
X126512714Y-118454380D01*
X126179380Y-118835333D01*
X126322238Y-118835333D01*
X126417476Y-118882952D01*
X126465095Y-118930571D01*
X126512714Y-119025809D01*
X126512714Y-119263904D01*
X126465095Y-119359142D01*
X126417476Y-119406761D01*
X126322238Y-119454380D01*
X126036523Y-119454380D01*
X125941285Y-119406761D01*
X125893666Y-119359142D01*
X126367476Y-110754380D02*
X126177000Y-110754380D01*
X126081761Y-110802000D01*
X126034142Y-110849619D01*
X125938904Y-110992476D01*
X125891285Y-111182952D01*
X125891285Y-111563904D01*
X125938904Y-111659142D01*
X125986523Y-111706761D01*
X126081761Y-111754380D01*
X126272238Y-111754380D01*
X126367476Y-111706761D01*
X126415095Y-111659142D01*
X126462714Y-111563904D01*
X126462714Y-111325809D01*
X126415095Y-111230571D01*
X126367476Y-111182952D01*
X126272238Y-111135333D01*
X126081761Y-111135333D01*
X125986523Y-111182952D01*
X125938904Y-111230571D01*
X125891285Y-111325809D01*
X125941285Y-120999619D02*
X125988904Y-120952000D01*
X126084142Y-120904380D01*
X126322238Y-120904380D01*
X126417476Y-120952000D01*
X126465095Y-120999619D01*
X126512714Y-121094857D01*
X126512714Y-121190095D01*
X126465095Y-121332952D01*
X125893666Y-121904380D01*
X126512714Y-121904380D01*
X126465095Y-113304380D02*
X125988904Y-113304380D01*
X125941285Y-113780571D01*
X125988904Y-113732952D01*
X126084142Y-113685333D01*
X126322238Y-113685333D01*
X126417476Y-113732952D01*
X126465095Y-113780571D01*
X126512714Y-113875809D01*
X126512714Y-114113904D01*
X126465095Y-114209142D01*
X126417476Y-114256761D01*
X126322238Y-114304380D01*
X126084142Y-114304380D01*
X125988904Y-114256761D01*
X125941285Y-114209142D01*
X114900000Y-82536904D02*
X114852380Y-82632142D01*
X114852380Y-82775000D01*
X114900000Y-82917857D01*
X114995238Y-83013095D01*
X115090476Y-83060714D01*
X115280952Y-83108333D01*
X115423809Y-83108333D01*
X115614285Y-83060714D01*
X115709523Y-83013095D01*
X115804761Y-82917857D01*
X115852380Y-82775000D01*
X115852380Y-82679761D01*
X115804761Y-82536904D01*
X115757142Y-82489285D01*
X115423809Y-82489285D01*
X115423809Y-82679761D01*
X115852380Y-82060714D02*
X114852380Y-82060714D01*
X115852380Y-81489285D01*
X114852380Y-81489285D01*
X115852380Y-81013095D02*
X114852380Y-81013095D01*
X114852380Y-80775000D01*
X114900000Y-80632142D01*
X114995238Y-80536904D01*
X115090476Y-80489285D01*
X115280952Y-80441666D01*
X115423809Y-80441666D01*
X115614285Y-80489285D01*
X115709523Y-80536904D01*
X115804761Y-80632142D01*
X115852380Y-80775000D01*
X115852380Y-81013095D01*
X112396428Y-83135714D02*
X112396428Y-82373809D01*
X112777380Y-82754761D02*
X112015476Y-82754761D01*
X111777380Y-81421428D02*
X111777380Y-81897619D01*
X112253571Y-81945238D01*
X112205952Y-81897619D01*
X112158333Y-81802380D01*
X112158333Y-81564285D01*
X112205952Y-81469047D01*
X112253571Y-81421428D01*
X112348809Y-81373809D01*
X112586904Y-81373809D01*
X112682142Y-81421428D01*
X112729761Y-81469047D01*
X112777380Y-81564285D01*
X112777380Y-81802380D01*
X112729761Y-81897619D01*
X112682142Y-81945238D01*
X111777380Y-81088095D02*
X112777380Y-80754761D01*
X111777380Y-80421428D01*
X113632142Y-128341666D02*
X113679761Y-128389285D01*
X113727380Y-128532142D01*
X113727380Y-128627380D01*
X113679761Y-128770238D01*
X113584523Y-128865476D01*
X113489285Y-128913095D01*
X113298809Y-128960714D01*
X113155952Y-128960714D01*
X112965476Y-128913095D01*
X112870238Y-128865476D01*
X112775000Y-128770238D01*
X112727380Y-128627380D01*
X112727380Y-128532142D01*
X112775000Y-128389285D01*
X112822619Y-128341666D01*
X113679761Y-127960714D02*
X113727380Y-127817857D01*
X113727380Y-127579761D01*
X113679761Y-127484523D01*
X113632142Y-127436904D01*
X113536904Y-127389285D01*
X113441666Y-127389285D01*
X113346428Y-127436904D01*
X113298809Y-127484523D01*
X113251190Y-127579761D01*
X113203571Y-127770238D01*
X113155952Y-127865476D01*
X113108333Y-127913095D01*
X113013095Y-127960714D01*
X112917857Y-127960714D01*
X112822619Y-127913095D01*
X112775000Y-127865476D01*
X112727380Y-127770238D01*
X112727380Y-127532142D01*
X112775000Y-127389285D01*
X111127380Y-128921428D02*
X110127380Y-128921428D01*
X110841666Y-128588095D01*
X110127380Y-128254761D01*
X111127380Y-128254761D01*
X111127380Y-127778571D02*
X110127380Y-127778571D01*
X111079761Y-127350000D02*
X111127380Y-127207142D01*
X111127380Y-126969047D01*
X111079761Y-126873809D01*
X111032142Y-126826190D01*
X110936904Y-126778571D01*
X110841666Y-126778571D01*
X110746428Y-126826190D01*
X110698809Y-126873809D01*
X110651190Y-126969047D01*
X110603571Y-127159523D01*
X110555952Y-127254761D01*
X110508333Y-127302380D01*
X110413095Y-127350000D01*
X110317857Y-127350000D01*
X110222619Y-127302380D01*
X110175000Y-127254761D01*
X110127380Y-127159523D01*
X110127380Y-126921428D01*
X110175000Y-126778571D01*
X110127380Y-126159523D02*
X110127380Y-125969047D01*
X110175000Y-125873809D01*
X110270238Y-125778571D01*
X110460714Y-125730952D01*
X110794047Y-125730952D01*
X110984523Y-125778571D01*
X111079761Y-125873809D01*
X111127380Y-125969047D01*
X111127380Y-126159523D01*
X111079761Y-126254761D01*
X110984523Y-126350000D01*
X110794047Y-126397619D01*
X110460714Y-126397619D01*
X110270238Y-126350000D01*
X110175000Y-126254761D01*
X110127380Y-126159523D01*
X108602380Y-128921428D02*
X107602380Y-128921428D01*
X108316666Y-128588095D01*
X107602380Y-128254761D01*
X108602380Y-128254761D01*
X107602380Y-127588095D02*
X107602380Y-127397619D01*
X107650000Y-127302380D01*
X107745238Y-127207142D01*
X107935714Y-127159523D01*
X108269047Y-127159523D01*
X108459523Y-127207142D01*
X108554761Y-127302380D01*
X108602380Y-127397619D01*
X108602380Y-127588095D01*
X108554761Y-127683333D01*
X108459523Y-127778571D01*
X108269047Y-127826190D01*
X107935714Y-127826190D01*
X107745238Y-127778571D01*
X107650000Y-127683333D01*
X107602380Y-127588095D01*
X108554761Y-126778571D02*
X108602380Y-126635714D01*
X108602380Y-126397619D01*
X108554761Y-126302380D01*
X108507142Y-126254761D01*
X108411904Y-126207142D01*
X108316666Y-126207142D01*
X108221428Y-126254761D01*
X108173809Y-126302380D01*
X108126190Y-126397619D01*
X108078571Y-126588095D01*
X108030952Y-126683333D01*
X107983333Y-126730952D01*
X107888095Y-126778571D01*
X107792857Y-126778571D01*
X107697619Y-126730952D01*
X107650000Y-126683333D01*
X107602380Y-126588095D01*
X107602380Y-126350000D01*
X107650000Y-126207142D01*
X108602380Y-125778571D02*
X107602380Y-125778571D01*
X105929761Y-128910714D02*
X105977380Y-128767857D01*
X105977380Y-128529761D01*
X105929761Y-128434523D01*
X105882142Y-128386904D01*
X105786904Y-128339285D01*
X105691666Y-128339285D01*
X105596428Y-128386904D01*
X105548809Y-128434523D01*
X105501190Y-128529761D01*
X105453571Y-128720238D01*
X105405952Y-128815476D01*
X105358333Y-128863095D01*
X105263095Y-128910714D01*
X105167857Y-128910714D01*
X105072619Y-128863095D01*
X105025000Y-128815476D01*
X104977380Y-128720238D01*
X104977380Y-128482142D01*
X105025000Y-128339285D01*
X105882142Y-127339285D02*
X105929761Y-127386904D01*
X105977380Y-127529761D01*
X105977380Y-127625000D01*
X105929761Y-127767857D01*
X105834523Y-127863095D01*
X105739285Y-127910714D01*
X105548809Y-127958333D01*
X105405952Y-127958333D01*
X105215476Y-127910714D01*
X105120238Y-127863095D01*
X105025000Y-127767857D01*
X104977380Y-127625000D01*
X104977380Y-127529761D01*
X105025000Y-127386904D01*
X105072619Y-127339285D01*
X105977380Y-126910714D02*
X104977380Y-126910714D01*
X105977380Y-126339285D02*
X105405952Y-126767857D01*
X104977380Y-126339285D02*
X105548809Y-126910714D01*
X102600000Y-128361904D02*
X102552380Y-128457142D01*
X102552380Y-128600000D01*
X102600000Y-128742857D01*
X102695238Y-128838095D01*
X102790476Y-128885714D01*
X102980952Y-128933333D01*
X103123809Y-128933333D01*
X103314285Y-128885714D01*
X103409523Y-128838095D01*
X103504761Y-128742857D01*
X103552380Y-128600000D01*
X103552380Y-128504761D01*
X103504761Y-128361904D01*
X103457142Y-128314285D01*
X103123809Y-128314285D01*
X103123809Y-128504761D01*
X103552380Y-127885714D02*
X102552380Y-127885714D01*
X103552380Y-127314285D01*
X102552380Y-127314285D01*
X103552380Y-126838095D02*
X102552380Y-126838095D01*
X102552380Y-126600000D01*
X102600000Y-126457142D01*
X102695238Y-126361904D01*
X102790476Y-126314285D01*
X102980952Y-126266666D01*
X103123809Y-126266666D01*
X103314285Y-126314285D01*
X103409523Y-126361904D01*
X103504761Y-126457142D01*
X103552380Y-126600000D01*
X103552380Y-126838095D01*
X108370476Y-94822380D02*
X108180000Y-94822380D01*
X108084761Y-94870000D01*
X108037142Y-94917619D01*
X107941904Y-95060476D01*
X107894285Y-95250952D01*
X107894285Y-95631904D01*
X107941904Y-95727142D01*
X107989523Y-95774761D01*
X108084761Y-95822380D01*
X108275238Y-95822380D01*
X108370476Y-95774761D01*
X108418095Y-95727142D01*
X108465714Y-95631904D01*
X108465714Y-95393809D01*
X108418095Y-95298571D01*
X108370476Y-95250952D01*
X108275238Y-95203333D01*
X108084761Y-95203333D01*
X107989523Y-95250952D01*
X107941904Y-95298571D01*
X107894285Y-95393809D01*
X108418095Y-97382380D02*
X107941904Y-97382380D01*
X107894285Y-97858571D01*
X107941904Y-97810952D01*
X108037142Y-97763333D01*
X108275238Y-97763333D01*
X108370476Y-97810952D01*
X108418095Y-97858571D01*
X108465714Y-97953809D01*
X108465714Y-98191904D01*
X108418095Y-98287142D01*
X108370476Y-98334761D01*
X108275238Y-98382380D01*
X108037142Y-98382380D01*
X107941904Y-98334761D01*
X107894285Y-98287142D01*
X108370476Y-100255714D02*
X108370476Y-100922380D01*
X108132380Y-99874761D02*
X107894285Y-100589047D01*
X108513333Y-100589047D01*
X107846666Y-102392380D02*
X108465714Y-102392380D01*
X108132380Y-102773333D01*
X108275238Y-102773333D01*
X108370476Y-102820952D01*
X108418095Y-102868571D01*
X108465714Y-102963809D01*
X108465714Y-103201904D01*
X108418095Y-103297142D01*
X108370476Y-103344761D01*
X108275238Y-103392380D01*
X107989523Y-103392380D01*
X107894285Y-103344761D01*
X107846666Y-103297142D01*
X107894285Y-105087619D02*
X107941904Y-105040000D01*
X108037142Y-104992380D01*
X108275238Y-104992380D01*
X108370476Y-105040000D01*
X108418095Y-105087619D01*
X108465714Y-105182857D01*
X108465714Y-105278095D01*
X108418095Y-105420952D01*
X107846666Y-105992380D01*
X108465714Y-105992380D01*
X108415714Y-108442380D02*
X107844285Y-108442380D01*
X108130000Y-108442380D02*
X108130000Y-107442380D01*
X108034761Y-107585238D01*
X107939523Y-107680476D01*
X107844285Y-107728095D01*
X100839047Y-88534761D02*
X100981904Y-88582380D01*
X101220000Y-88582380D01*
X101315238Y-88534761D01*
X101362857Y-88487142D01*
X101410476Y-88391904D01*
X101410476Y-88296666D01*
X101362857Y-88201428D01*
X101315238Y-88153809D01*
X101220000Y-88106190D01*
X101029523Y-88058571D01*
X100934285Y-88010952D01*
X100886666Y-87963333D01*
X100839047Y-87868095D01*
X100839047Y-87772857D01*
X100886666Y-87677619D01*
X100934285Y-87630000D01*
X101029523Y-87582380D01*
X101267619Y-87582380D01*
X101410476Y-87630000D01*
X101839047Y-88582380D02*
X101839047Y-87582380D01*
X102220000Y-87582380D01*
X102315238Y-87630000D01*
X102362857Y-87677619D01*
X102410476Y-87772857D01*
X102410476Y-87915714D01*
X102362857Y-88010952D01*
X102315238Y-88058571D01*
X102220000Y-88106190D01*
X101839047Y-88106190D01*
X102839047Y-88582380D02*
X102839047Y-87582380D01*
X104648571Y-88487142D02*
X104600952Y-88534761D01*
X104458095Y-88582380D01*
X104362857Y-88582380D01*
X104220000Y-88534761D01*
X104124761Y-88439523D01*
X104077142Y-88344285D01*
X104029523Y-88153809D01*
X104029523Y-88010952D01*
X104077142Y-87820476D01*
X104124761Y-87725238D01*
X104220000Y-87630000D01*
X104362857Y-87582380D01*
X104458095Y-87582380D01*
X104600952Y-87630000D01*
X104648571Y-87677619D01*
X105029523Y-88534761D02*
X105172380Y-88582380D01*
X105410476Y-88582380D01*
X105505714Y-88534761D01*
X105553333Y-88487142D01*
X105600952Y-88391904D01*
X105600952Y-88296666D01*
X105553333Y-88201428D01*
X105505714Y-88153809D01*
X105410476Y-88106190D01*
X105220000Y-88058571D01*
X105124761Y-88010952D01*
X105077142Y-87963333D01*
X105029523Y-87868095D01*
X105029523Y-87772857D01*
X105077142Y-87677619D01*
X105124761Y-87630000D01*
X105220000Y-87582380D01*
X105458095Y-87582380D01*
X105600952Y-87630000D01*
X106791428Y-87915714D02*
X106791428Y-88915714D01*
X106791428Y-87963333D02*
X106886666Y-87915714D01*
X107077142Y-87915714D01*
X107172380Y-87963333D01*
X107220000Y-88010952D01*
X107267619Y-88106190D01*
X107267619Y-88391904D01*
X107220000Y-88487142D01*
X107172380Y-88534761D01*
X107077142Y-88582380D01*
X106886666Y-88582380D01*
X106791428Y-88534761D01*
X107696190Y-88582380D02*
X107696190Y-87915714D01*
X107696190Y-87582380D02*
X107648571Y-87630000D01*
X107696190Y-87677619D01*
X107743809Y-87630000D01*
X107696190Y-87582380D01*
X107696190Y-87677619D01*
X108172380Y-87915714D02*
X108172380Y-88582380D01*
X108172380Y-88010952D02*
X108220000Y-87963333D01*
X108315238Y-87915714D01*
X108458095Y-87915714D01*
X108553333Y-87963333D01*
X108600952Y-88058571D01*
X108600952Y-88582380D01*
X109791428Y-88534761D02*
X109886666Y-88582380D01*
X110077142Y-88582380D01*
X110172380Y-88534761D01*
X110220000Y-88439523D01*
X110220000Y-88391904D01*
X110172380Y-88296666D01*
X110077142Y-88249047D01*
X109934285Y-88249047D01*
X109839047Y-88201428D01*
X109791428Y-88106190D01*
X109791428Y-88058571D01*
X109839047Y-87963333D01*
X109934285Y-87915714D01*
X110077142Y-87915714D01*
X110172380Y-87963333D01*
X111029523Y-88534761D02*
X110934285Y-88582380D01*
X110743809Y-88582380D01*
X110648571Y-88534761D01*
X110600952Y-88439523D01*
X110600952Y-88058571D01*
X110648571Y-87963333D01*
X110743809Y-87915714D01*
X110934285Y-87915714D01*
X111029523Y-87963333D01*
X111077142Y-88058571D01*
X111077142Y-88153809D01*
X110600952Y-88249047D01*
X111648571Y-88582380D02*
X111553333Y-88534761D01*
X111505714Y-88439523D01*
X111505714Y-87582380D01*
X112410476Y-88534761D02*
X112315238Y-88582380D01*
X112124761Y-88582380D01*
X112029523Y-88534761D01*
X111981904Y-88439523D01*
X111981904Y-88058571D01*
X112029523Y-87963333D01*
X112124761Y-87915714D01*
X112315238Y-87915714D01*
X112410476Y-87963333D01*
X112458095Y-88058571D01*
X112458095Y-88153809D01*
X111981904Y-88249047D01*
X113315238Y-88534761D02*
X113220000Y-88582380D01*
X113029523Y-88582380D01*
X112934285Y-88534761D01*
X112886666Y-88487142D01*
X112839047Y-88391904D01*
X112839047Y-88106190D01*
X112886666Y-88010952D01*
X112934285Y-87963333D01*
X113029523Y-87915714D01*
X113220000Y-87915714D01*
X113315238Y-87963333D01*
X113600952Y-87915714D02*
X113981904Y-87915714D01*
X113743809Y-87582380D02*
X113743809Y-88439523D01*
X113791428Y-88534761D01*
X113886666Y-88582380D01*
X113981904Y-88582380D01*
X114315238Y-88487142D02*
X114362857Y-88534761D01*
X114315238Y-88582380D01*
X114267619Y-88534761D01*
X114315238Y-88487142D01*
X114315238Y-88582380D01*
X115553333Y-88058571D02*
X115886666Y-88058571D01*
X116029523Y-88582380D02*
X115553333Y-88582380D01*
X115553333Y-87582380D01*
X116029523Y-87582380D01*
X116886666Y-88582380D02*
X116886666Y-88058571D01*
X116839047Y-87963333D01*
X116743809Y-87915714D01*
X116553333Y-87915714D01*
X116458095Y-87963333D01*
X116886666Y-88534761D02*
X116791428Y-88582380D01*
X116553333Y-88582380D01*
X116458095Y-88534761D01*
X116410476Y-88439523D01*
X116410476Y-88344285D01*
X116458095Y-88249047D01*
X116553333Y-88201428D01*
X116791428Y-88201428D01*
X116886666Y-88153809D01*
X117791428Y-88534761D02*
X117696190Y-88582380D01*
X117505714Y-88582380D01*
X117410476Y-88534761D01*
X117362857Y-88487142D01*
X117315238Y-88391904D01*
X117315238Y-88106190D01*
X117362857Y-88010952D01*
X117410476Y-87963333D01*
X117505714Y-87915714D01*
X117696190Y-87915714D01*
X117791428Y-87963333D01*
X118220000Y-88582380D02*
X118220000Y-87582380D01*
X118648571Y-88582380D02*
X118648571Y-88058571D01*
X118600952Y-87963333D01*
X118505714Y-87915714D01*
X118362857Y-87915714D01*
X118267619Y-87963333D01*
X118220000Y-88010952D01*
X119743809Y-87915714D02*
X120124761Y-87915714D01*
X119886666Y-87582380D02*
X119886666Y-88439523D01*
X119934285Y-88534761D01*
X120029523Y-88582380D01*
X120124761Y-88582380D01*
X120839047Y-88534761D02*
X120743809Y-88582380D01*
X120553333Y-88582380D01*
X120458095Y-88534761D01*
X120410476Y-88439523D01*
X120410476Y-88058571D01*
X120458095Y-87963333D01*
X120553333Y-87915714D01*
X120743809Y-87915714D01*
X120839047Y-87963333D01*
X120886666Y-88058571D01*
X120886666Y-88153809D01*
X120410476Y-88249047D01*
X121315238Y-88582380D02*
X121315238Y-87915714D01*
X121315238Y-88010952D02*
X121362857Y-87963333D01*
X121458095Y-87915714D01*
X121600952Y-87915714D01*
X121696190Y-87963333D01*
X121743809Y-88058571D01*
X121743809Y-88582380D01*
X121743809Y-88058571D02*
X121791428Y-87963333D01*
X121886666Y-87915714D01*
X122029523Y-87915714D01*
X122124761Y-87963333D01*
X122172380Y-88058571D01*
X122172380Y-88582380D01*
X122648571Y-87915714D02*
X122648571Y-88915714D01*
X122648571Y-87963333D02*
X122743809Y-87915714D01*
X122934285Y-87915714D01*
X123029523Y-87963333D01*
X123077142Y-88010952D01*
X123124761Y-88106190D01*
X123124761Y-88391904D01*
X123077142Y-88487142D01*
X123029523Y-88534761D01*
X122934285Y-88582380D01*
X122743809Y-88582380D01*
X122648571Y-88534761D01*
X123553333Y-88487142D02*
X123600952Y-88534761D01*
X123553333Y-88582380D01*
X123505714Y-88534761D01*
X123553333Y-88487142D01*
X123553333Y-88582380D01*
X101005714Y-90232380D02*
X101005714Y-89232380D01*
X101005714Y-89613333D02*
X101100952Y-89565714D01*
X101291428Y-89565714D01*
X101386666Y-89613333D01*
X101434285Y-89660952D01*
X101481904Y-89756190D01*
X101481904Y-90041904D01*
X101434285Y-90137142D01*
X101386666Y-90184761D01*
X101291428Y-90232380D01*
X101100952Y-90232380D01*
X101005714Y-90184761D01*
X102053333Y-90232380D02*
X101958095Y-90184761D01*
X101910476Y-90137142D01*
X101862857Y-90041904D01*
X101862857Y-89756190D01*
X101910476Y-89660952D01*
X101958095Y-89613333D01*
X102053333Y-89565714D01*
X102196190Y-89565714D01*
X102291428Y-89613333D01*
X102339047Y-89660952D01*
X102386666Y-89756190D01*
X102386666Y-90041904D01*
X102339047Y-90137142D01*
X102291428Y-90184761D01*
X102196190Y-90232380D01*
X102053333Y-90232380D01*
X103243809Y-90232380D02*
X103243809Y-89708571D01*
X103196190Y-89613333D01*
X103100952Y-89565714D01*
X102910476Y-89565714D01*
X102815238Y-89613333D01*
X103243809Y-90184761D02*
X103148571Y-90232380D01*
X102910476Y-90232380D01*
X102815238Y-90184761D01*
X102767619Y-90089523D01*
X102767619Y-89994285D01*
X102815238Y-89899047D01*
X102910476Y-89851428D01*
X103148571Y-89851428D01*
X103243809Y-89803809D01*
X103720000Y-90232380D02*
X103720000Y-89565714D01*
X103720000Y-89756190D02*
X103767619Y-89660952D01*
X103815238Y-89613333D01*
X103910476Y-89565714D01*
X104005714Y-89565714D01*
X104767619Y-90232380D02*
X104767619Y-89232380D01*
X104767619Y-90184761D02*
X104672380Y-90232380D01*
X104481904Y-90232380D01*
X104386666Y-90184761D01*
X104339047Y-90137142D01*
X104291428Y-90041904D01*
X104291428Y-89756190D01*
X104339047Y-89660952D01*
X104386666Y-89613333D01*
X104481904Y-89565714D01*
X104672380Y-89565714D01*
X104767619Y-89613333D01*
X105958095Y-90184761D02*
X106053333Y-90232380D01*
X106243809Y-90232380D01*
X106339047Y-90184761D01*
X106386666Y-90089523D01*
X106386666Y-90041904D01*
X106339047Y-89946666D01*
X106243809Y-89899047D01*
X106100952Y-89899047D01*
X106005714Y-89851428D01*
X105958095Y-89756190D01*
X105958095Y-89708571D01*
X106005714Y-89613333D01*
X106100952Y-89565714D01*
X106243809Y-89565714D01*
X106339047Y-89613333D01*
X106815238Y-90232380D02*
X106815238Y-89232380D01*
X107243809Y-90232380D02*
X107243809Y-89708571D01*
X107196190Y-89613333D01*
X107100952Y-89565714D01*
X106958095Y-89565714D01*
X106862857Y-89613333D01*
X106815238Y-89660952D01*
X107862857Y-90232380D02*
X107767619Y-90184761D01*
X107720000Y-90137142D01*
X107672380Y-90041904D01*
X107672380Y-89756190D01*
X107720000Y-89660952D01*
X107767619Y-89613333D01*
X107862857Y-89565714D01*
X108005714Y-89565714D01*
X108100952Y-89613333D01*
X108148571Y-89660952D01*
X108196190Y-89756190D01*
X108196190Y-90041904D01*
X108148571Y-90137142D01*
X108100952Y-90184761D01*
X108005714Y-90232380D01*
X107862857Y-90232380D01*
X109053333Y-89565714D02*
X109053333Y-90232380D01*
X108624761Y-89565714D02*
X108624761Y-90089523D01*
X108672380Y-90184761D01*
X108767619Y-90232380D01*
X108910476Y-90232380D01*
X109005714Y-90184761D01*
X109053333Y-90137142D01*
X109672380Y-90232380D02*
X109577142Y-90184761D01*
X109529523Y-90089523D01*
X109529523Y-89232380D01*
X110481904Y-90232380D02*
X110481904Y-89232380D01*
X110481904Y-90184761D02*
X110386666Y-90232380D01*
X110196190Y-90232380D01*
X110100952Y-90184761D01*
X110053333Y-90137142D01*
X110005714Y-90041904D01*
X110005714Y-89756190D01*
X110053333Y-89660952D01*
X110100952Y-89613333D01*
X110196190Y-89565714D01*
X110386666Y-89565714D01*
X110481904Y-89613333D01*
X111720000Y-90232380D02*
X111720000Y-89232380D01*
X112148571Y-90232380D02*
X112148571Y-89708571D01*
X112100952Y-89613333D01*
X112005714Y-89565714D01*
X111862857Y-89565714D01*
X111767619Y-89613333D01*
X111720000Y-89660952D01*
X113053333Y-90232380D02*
X113053333Y-89708571D01*
X113005714Y-89613333D01*
X112910476Y-89565714D01*
X112720000Y-89565714D01*
X112624761Y-89613333D01*
X113053333Y-90184761D02*
X112958095Y-90232380D01*
X112720000Y-90232380D01*
X112624761Y-90184761D01*
X112577142Y-90089523D01*
X112577142Y-89994285D01*
X112624761Y-89899047D01*
X112720000Y-89851428D01*
X112958095Y-89851428D01*
X113053333Y-89803809D01*
X113434285Y-89565714D02*
X113672380Y-90232380D01*
X113910476Y-89565714D01*
X114672380Y-90184761D02*
X114577142Y-90232380D01*
X114386666Y-90232380D01*
X114291428Y-90184761D01*
X114243809Y-90089523D01*
X114243809Y-89708571D01*
X114291428Y-89613333D01*
X114386666Y-89565714D01*
X114577142Y-89565714D01*
X114672380Y-89613333D01*
X114720000Y-89708571D01*
X114720000Y-89803809D01*
X114243809Y-89899047D01*
X116339047Y-90232380D02*
X116339047Y-89708571D01*
X116291428Y-89613333D01*
X116196190Y-89565714D01*
X116005714Y-89565714D01*
X115910476Y-89613333D01*
X116339047Y-90184761D02*
X116243809Y-90232380D01*
X116005714Y-90232380D01*
X115910476Y-90184761D01*
X115862857Y-90089523D01*
X115862857Y-89994285D01*
X115910476Y-89899047D01*
X116005714Y-89851428D01*
X116243809Y-89851428D01*
X116339047Y-89803809D01*
X118005714Y-90232380D02*
X118005714Y-89232380D01*
X118005714Y-90184761D02*
X117910476Y-90232380D01*
X117720000Y-90232380D01*
X117624761Y-90184761D01*
X117577142Y-90137142D01*
X117529523Y-90041904D01*
X117529523Y-89756190D01*
X117577142Y-89660952D01*
X117624761Y-89613333D01*
X117720000Y-89565714D01*
X117910476Y-89565714D01*
X118005714Y-89613333D01*
X118481904Y-90232380D02*
X118481904Y-89565714D01*
X118481904Y-89232380D02*
X118434285Y-89280000D01*
X118481904Y-89327619D01*
X118529523Y-89280000D01*
X118481904Y-89232380D01*
X118481904Y-89327619D01*
X118815238Y-89565714D02*
X119196190Y-89565714D01*
X118958095Y-90232380D02*
X118958095Y-89375238D01*
X119005714Y-89280000D01*
X119100952Y-89232380D01*
X119196190Y-89232380D01*
X119386666Y-89565714D02*
X119767619Y-89565714D01*
X119529523Y-90232380D02*
X119529523Y-89375238D01*
X119577142Y-89280000D01*
X119672380Y-89232380D01*
X119767619Y-89232380D01*
X120481904Y-90184761D02*
X120386666Y-90232380D01*
X120196190Y-90232380D01*
X120100952Y-90184761D01*
X120053333Y-90089523D01*
X120053333Y-89708571D01*
X120100952Y-89613333D01*
X120196190Y-89565714D01*
X120386666Y-89565714D01*
X120481904Y-89613333D01*
X120529523Y-89708571D01*
X120529523Y-89803809D01*
X120053333Y-89899047D01*
X120958095Y-90232380D02*
X120958095Y-89565714D01*
X120958095Y-89756190D02*
X121005714Y-89660952D01*
X121053333Y-89613333D01*
X121148571Y-89565714D01*
X121243809Y-89565714D01*
X121958095Y-90184761D02*
X121862857Y-90232380D01*
X121672380Y-90232380D01*
X121577142Y-90184761D01*
X121529523Y-90089523D01*
X121529523Y-89708571D01*
X121577142Y-89613333D01*
X121672380Y-89565714D01*
X121862857Y-89565714D01*
X121958095Y-89613333D01*
X122005714Y-89708571D01*
X122005714Y-89803809D01*
X121529523Y-89899047D01*
X122434285Y-89565714D02*
X122434285Y-90232380D01*
X122434285Y-89660952D02*
X122481904Y-89613333D01*
X122577142Y-89565714D01*
X122720000Y-89565714D01*
X122815238Y-89613333D01*
X122862857Y-89708571D01*
X122862857Y-90232380D01*
X123196190Y-89565714D02*
X123577142Y-89565714D01*
X123339047Y-89232380D02*
X123339047Y-90089523D01*
X123386666Y-90184761D01*
X123481904Y-90232380D01*
X123577142Y-90232380D01*
X109005714Y-91787142D02*
X108958095Y-91834761D01*
X108815238Y-91882380D01*
X108720000Y-91882380D01*
X108577142Y-91834761D01*
X108481904Y-91739523D01*
X108434285Y-91644285D01*
X108386666Y-91453809D01*
X108386666Y-91310952D01*
X108434285Y-91120476D01*
X108481904Y-91025238D01*
X108577142Y-90930000D01*
X108720000Y-90882380D01*
X108815238Y-90882380D01*
X108958095Y-90930000D01*
X109005714Y-90977619D01*
X109386666Y-91834761D02*
X109529523Y-91882380D01*
X109767619Y-91882380D01*
X109862857Y-91834761D01*
X109910476Y-91787142D01*
X109958095Y-91691904D01*
X109958095Y-91596666D01*
X109910476Y-91501428D01*
X109862857Y-91453809D01*
X109767619Y-91406190D01*
X109577142Y-91358571D01*
X109481904Y-91310952D01*
X109434285Y-91263333D01*
X109386666Y-91168095D01*
X109386666Y-91072857D01*
X109434285Y-90977619D01*
X109481904Y-90930000D01*
X109577142Y-90882380D01*
X109815238Y-90882380D01*
X109958095Y-90930000D01*
X111148571Y-91215714D02*
X111148571Y-92215714D01*
X111148571Y-91263333D02*
X111243809Y-91215714D01*
X111434285Y-91215714D01*
X111529523Y-91263333D01*
X111577142Y-91310952D01*
X111624761Y-91406190D01*
X111624761Y-91691904D01*
X111577142Y-91787142D01*
X111529523Y-91834761D01*
X111434285Y-91882380D01*
X111243809Y-91882380D01*
X111148571Y-91834761D01*
X112053333Y-91882380D02*
X112053333Y-91215714D01*
X112053333Y-90882380D02*
X112005714Y-90930000D01*
X112053333Y-90977619D01*
X112100952Y-90930000D01*
X112053333Y-90882380D01*
X112053333Y-90977619D01*
X112529523Y-91215714D02*
X112529523Y-91882380D01*
X112529523Y-91310952D02*
X112577142Y-91263333D01*
X112672380Y-91215714D01*
X112815238Y-91215714D01*
X112910476Y-91263333D01*
X112958095Y-91358571D01*
X112958095Y-91882380D01*
X114339047Y-91882380D02*
X114243809Y-91834761D01*
X114196190Y-91787142D01*
X114148571Y-91691904D01*
X114148571Y-91406190D01*
X114196190Y-91310952D01*
X114243809Y-91263333D01*
X114339047Y-91215714D01*
X114481904Y-91215714D01*
X114577142Y-91263333D01*
X114624761Y-91310952D01*
X114672380Y-91406190D01*
X114672380Y-91691904D01*
X114624761Y-91787142D01*
X114577142Y-91834761D01*
X114481904Y-91882380D01*
X114339047Y-91882380D01*
X115100952Y-91215714D02*
X115100952Y-91882380D01*
X115100952Y-91310952D02*
X115148571Y-91263333D01*
X115243809Y-91215714D01*
X115386666Y-91215714D01*
X115481904Y-91263333D01*
X115529523Y-91358571D01*
X115529523Y-91882380D01*
X116005714Y-91787142D02*
X116053333Y-91834761D01*
X116005714Y-91882380D01*
X115958095Y-91834761D01*
X116005714Y-91787142D01*
X116005714Y-91882380D01*
D11*
X65538095Y-74052976D02*
X65538095Y-75064880D01*
X65597619Y-75183928D01*
X65657142Y-75243452D01*
X65776190Y-75302976D01*
X66014285Y-75302976D01*
X66133333Y-75243452D01*
X66192857Y-75183928D01*
X66252380Y-75064880D01*
X66252380Y-74052976D01*
X66669047Y-74052976D02*
X67383333Y-74052976D01*
X67026190Y-75302976D02*
X67026190Y-74052976D01*
X67740476Y-75243452D02*
X67919047Y-75302976D01*
X68216666Y-75302976D01*
X68335714Y-75243452D01*
X68395238Y-75183928D01*
X68454761Y-75064880D01*
X68454761Y-74945833D01*
X68395238Y-74826785D01*
X68335714Y-74767261D01*
X68216666Y-74707738D01*
X67978571Y-74648214D01*
X67859523Y-74588690D01*
X67800000Y-74529166D01*
X67740476Y-74410119D01*
X67740476Y-74291071D01*
X67800000Y-74172023D01*
X67859523Y-74112500D01*
X67978571Y-74052976D01*
X68276190Y-74052976D01*
X68454761Y-74112500D01*
X68811904Y-74052976D02*
X69228571Y-75302976D01*
X69645238Y-74052976D01*
X69883333Y-74052976D02*
X70597619Y-74052976D01*
X70240476Y-75302976D02*
X70240476Y-74052976D01*
X71966666Y-74826785D02*
X72919047Y-74826785D01*
X74883333Y-74648214D02*
X75061904Y-74707738D01*
X75121428Y-74767261D01*
X75180952Y-74886309D01*
X75180952Y-75064880D01*
X75121428Y-75183928D01*
X75061904Y-75243452D01*
X74942857Y-75302976D01*
X74466666Y-75302976D01*
X74466666Y-74052976D01*
X74883333Y-74052976D01*
X75002380Y-74112500D01*
X75061904Y-74172023D01*
X75121428Y-74291071D01*
X75121428Y-74410119D01*
X75061904Y-74529166D01*
X75002380Y-74588690D01*
X74883333Y-74648214D01*
X74466666Y-74648214D01*
X75716666Y-75302976D02*
X75716666Y-74052976D01*
X76192857Y-74052976D01*
X76311904Y-74112500D01*
X76371428Y-74172023D01*
X76430952Y-74291071D01*
X76430952Y-74469642D01*
X76371428Y-74588690D01*
X76311904Y-74648214D01*
X76192857Y-74707738D01*
X75716666Y-74707738D01*
X76907142Y-75243452D02*
X77085714Y-75302976D01*
X77383333Y-75302976D01*
X77502380Y-75243452D01*
X77561904Y-75183928D01*
X77621428Y-75064880D01*
X77621428Y-74945833D01*
X77561904Y-74826785D01*
X77502380Y-74767261D01*
X77383333Y-74707738D01*
X77145238Y-74648214D01*
X77026190Y-74588690D01*
X76966666Y-74529166D01*
X76907142Y-74410119D01*
X76907142Y-74291071D01*
X76966666Y-74172023D01*
X77026190Y-74112500D01*
X77145238Y-74052976D01*
X77442857Y-74052976D01*
X77621428Y-74112500D01*
X63484523Y-76127976D02*
X64198809Y-76127976D01*
X63841666Y-77377976D02*
X63841666Y-76127976D01*
X65091666Y-77318452D02*
X64972619Y-77377976D01*
X64734523Y-77377976D01*
X64615476Y-77318452D01*
X64555952Y-77199404D01*
X64555952Y-76723214D01*
X64615476Y-76604166D01*
X64734523Y-76544642D01*
X64972619Y-76544642D01*
X65091666Y-76604166D01*
X65151190Y-76723214D01*
X65151190Y-76842261D01*
X64555952Y-76961309D01*
X65686904Y-77377976D02*
X65686904Y-76544642D01*
X65686904Y-76663690D02*
X65746428Y-76604166D01*
X65865476Y-76544642D01*
X66044047Y-76544642D01*
X66163095Y-76604166D01*
X66222619Y-76723214D01*
X66222619Y-77377976D01*
X66222619Y-76723214D02*
X66282142Y-76604166D01*
X66401190Y-76544642D01*
X66579761Y-76544642D01*
X66698809Y-76604166D01*
X66758333Y-76723214D01*
X66758333Y-77377976D01*
X67353571Y-76544642D02*
X67353571Y-77794642D01*
X67353571Y-76604166D02*
X67472619Y-76544642D01*
X67710714Y-76544642D01*
X67829761Y-76604166D01*
X67889285Y-76663690D01*
X67948809Y-76782738D01*
X67948809Y-77139880D01*
X67889285Y-77258928D01*
X67829761Y-77318452D01*
X67710714Y-77377976D01*
X67472619Y-77377976D01*
X67353571Y-77318452D01*
X68960714Y-77318452D02*
X68841666Y-77377976D01*
X68603571Y-77377976D01*
X68484523Y-77318452D01*
X68425000Y-77199404D01*
X68425000Y-76723214D01*
X68484523Y-76604166D01*
X68603571Y-76544642D01*
X68841666Y-76544642D01*
X68960714Y-76604166D01*
X69020238Y-76723214D01*
X69020238Y-76842261D01*
X68425000Y-76961309D01*
X69555952Y-77377976D02*
X69555952Y-76544642D01*
X69555952Y-76782738D02*
X69615476Y-76663690D01*
X69675000Y-76604166D01*
X69794047Y-76544642D01*
X69913095Y-76544642D01*
X70865476Y-77377976D02*
X70865476Y-76723214D01*
X70805952Y-76604166D01*
X70686904Y-76544642D01*
X70448809Y-76544642D01*
X70329761Y-76604166D01*
X70865476Y-77318452D02*
X70746428Y-77377976D01*
X70448809Y-77377976D01*
X70329761Y-77318452D01*
X70270238Y-77199404D01*
X70270238Y-77080357D01*
X70329761Y-76961309D01*
X70448809Y-76901785D01*
X70746428Y-76901785D01*
X70865476Y-76842261D01*
X71282142Y-76544642D02*
X71758333Y-76544642D01*
X71460714Y-76127976D02*
X71460714Y-77199404D01*
X71520238Y-77318452D01*
X71639285Y-77377976D01*
X71758333Y-77377976D01*
X72710714Y-76544642D02*
X72710714Y-77377976D01*
X72175000Y-76544642D02*
X72175000Y-77199404D01*
X72234523Y-77318452D01*
X72353571Y-77377976D01*
X72532142Y-77377976D01*
X72651190Y-77318452D01*
X72710714Y-77258928D01*
X73305952Y-77377976D02*
X73305952Y-76544642D01*
X73305952Y-76782738D02*
X73365476Y-76663690D01*
X73425000Y-76604166D01*
X73544047Y-76544642D01*
X73663095Y-76544642D01*
X74555952Y-77318452D02*
X74436904Y-77377976D01*
X74198809Y-77377976D01*
X74079761Y-77318452D01*
X74020238Y-77199404D01*
X74020238Y-76723214D01*
X74079761Y-76604166D01*
X74198809Y-76544642D01*
X74436904Y-76544642D01*
X74555952Y-76604166D01*
X74615476Y-76723214D01*
X74615476Y-76842261D01*
X74020238Y-76961309D01*
X75984523Y-76544642D02*
X76282142Y-77377976D01*
X76579761Y-76544642D01*
X77710714Y-77377976D02*
X76996428Y-77377976D01*
X77353571Y-77377976D02*
X77353571Y-76127976D01*
X77234523Y-76306547D01*
X77115476Y-76425595D01*
X76996428Y-76485119D01*
X78246428Y-77258928D02*
X78305952Y-77318452D01*
X78246428Y-77377976D01*
X78186904Y-77318452D01*
X78246428Y-77258928D01*
X78246428Y-77377976D01*
X79079761Y-76127976D02*
X79198809Y-76127976D01*
X79317857Y-76187500D01*
X79377380Y-76247023D01*
X79436904Y-76366071D01*
X79496428Y-76604166D01*
X79496428Y-76901785D01*
X79436904Y-77139880D01*
X79377380Y-77258928D01*
X79317857Y-77318452D01*
X79198809Y-77377976D01*
X79079761Y-77377976D01*
X78960714Y-77318452D01*
X78901190Y-77258928D01*
X78841666Y-77139880D01*
X78782142Y-76901785D01*
X78782142Y-76604166D01*
X78841666Y-76366071D01*
X78901190Y-76247023D01*
X78960714Y-76187500D01*
X79079761Y-76127976D01*
X65954761Y-79393452D02*
X66133333Y-79452976D01*
X66430952Y-79452976D01*
X66550000Y-79393452D01*
X66609523Y-79333928D01*
X66669047Y-79214880D01*
X66669047Y-79095833D01*
X66609523Y-78976785D01*
X66550000Y-78917261D01*
X66430952Y-78857738D01*
X66192857Y-78798214D01*
X66073809Y-78738690D01*
X66014285Y-78679166D01*
X65954761Y-78560119D01*
X65954761Y-78441071D01*
X66014285Y-78322023D01*
X66073809Y-78262500D01*
X66192857Y-78202976D01*
X66490476Y-78202976D01*
X66669047Y-78262500D01*
X67204761Y-78619642D02*
X67204761Y-79869642D01*
X67204761Y-78679166D02*
X67323809Y-78619642D01*
X67561904Y-78619642D01*
X67680952Y-78679166D01*
X67740476Y-78738690D01*
X67800000Y-78857738D01*
X67800000Y-79214880D01*
X67740476Y-79333928D01*
X67680952Y-79393452D01*
X67561904Y-79452976D01*
X67323809Y-79452976D01*
X67204761Y-79393452D01*
X68335714Y-79452976D02*
X68335714Y-78619642D01*
X68335714Y-78857738D02*
X68395238Y-78738690D01*
X68454761Y-78679166D01*
X68573809Y-78619642D01*
X68692857Y-78619642D01*
X69109523Y-79452976D02*
X69109523Y-78619642D01*
X69109523Y-78202976D02*
X69050000Y-78262500D01*
X69109523Y-78322023D01*
X69169047Y-78262500D01*
X69109523Y-78202976D01*
X69109523Y-78322023D01*
X69704761Y-78619642D02*
X69704761Y-79452976D01*
X69704761Y-78738690D02*
X69764285Y-78679166D01*
X69883333Y-78619642D01*
X70061904Y-78619642D01*
X70180952Y-78679166D01*
X70240476Y-78798214D01*
X70240476Y-79452976D01*
X71371428Y-78619642D02*
X71371428Y-79631547D01*
X71311904Y-79750595D01*
X71252380Y-79810119D01*
X71133333Y-79869642D01*
X70954761Y-79869642D01*
X70835714Y-79810119D01*
X71371428Y-79393452D02*
X71252380Y-79452976D01*
X71014285Y-79452976D01*
X70895238Y-79393452D01*
X70835714Y-79333928D01*
X70776190Y-79214880D01*
X70776190Y-78857738D01*
X70835714Y-78738690D01*
X70895238Y-78679166D01*
X71014285Y-78619642D01*
X71252380Y-78619642D01*
X71371428Y-78679166D01*
X72859523Y-78322023D02*
X72919047Y-78262500D01*
X73038095Y-78202976D01*
X73335714Y-78202976D01*
X73454761Y-78262500D01*
X73514285Y-78322023D01*
X73573809Y-78441071D01*
X73573809Y-78560119D01*
X73514285Y-78738690D01*
X72800000Y-79452976D01*
X73573809Y-79452976D01*
X74347619Y-78202976D02*
X74466666Y-78202976D01*
X74585714Y-78262500D01*
X74645238Y-78322023D01*
X74704761Y-78441071D01*
X74764285Y-78679166D01*
X74764285Y-78976785D01*
X74704761Y-79214880D01*
X74645238Y-79333928D01*
X74585714Y-79393452D01*
X74466666Y-79452976D01*
X74347619Y-79452976D01*
X74228571Y-79393452D01*
X74169047Y-79333928D01*
X74109523Y-79214880D01*
X74050000Y-78976785D01*
X74050000Y-78679166D01*
X74109523Y-78441071D01*
X74169047Y-78322023D01*
X74228571Y-78262500D01*
X74347619Y-78202976D01*
X75954761Y-79452976D02*
X75240476Y-79452976D01*
X75597619Y-79452976D02*
X75597619Y-78202976D01*
X75478571Y-78381547D01*
X75359523Y-78500595D01*
X75240476Y-78560119D01*
X76550000Y-79452976D02*
X76788095Y-79452976D01*
X76907142Y-79393452D01*
X76966666Y-79333928D01*
X77085714Y-79155357D01*
X77145238Y-78917261D01*
X77145238Y-78441071D01*
X77085714Y-78322023D01*
X77026190Y-78262500D01*
X76907142Y-78202976D01*
X76669047Y-78202976D01*
X76550000Y-78262500D01*
X76490476Y-78322023D01*
X76430952Y-78441071D01*
X76430952Y-78738690D01*
X76490476Y-78857738D01*
X76550000Y-78917261D01*
X76669047Y-78976785D01*
X76907142Y-78976785D01*
X77026190Y-78917261D01*
X77085714Y-78857738D01*
X77145238Y-78738690D01*
X66758333Y-81408928D02*
X66698809Y-81468452D01*
X66520238Y-81527976D01*
X66401190Y-81527976D01*
X66222619Y-81468452D01*
X66103571Y-81349404D01*
X66044047Y-81230357D01*
X65984523Y-80992261D01*
X65984523Y-80813690D01*
X66044047Y-80575595D01*
X66103571Y-80456547D01*
X66222619Y-80337500D01*
X66401190Y-80277976D01*
X66520238Y-80277976D01*
X66698809Y-80337500D01*
X66758333Y-80397023D01*
X67472619Y-81527976D02*
X67353571Y-81468452D01*
X67294047Y-81408928D01*
X67234523Y-81289880D01*
X67234523Y-80932738D01*
X67294047Y-80813690D01*
X67353571Y-80754166D01*
X67472619Y-80694642D01*
X67651190Y-80694642D01*
X67770238Y-80754166D01*
X67829761Y-80813690D01*
X67889285Y-80932738D01*
X67889285Y-81289880D01*
X67829761Y-81408928D01*
X67770238Y-81468452D01*
X67651190Y-81527976D01*
X67472619Y-81527976D01*
X68425000Y-81527976D02*
X68425000Y-80694642D01*
X68425000Y-80932738D02*
X68484523Y-80813690D01*
X68544047Y-80754166D01*
X68663095Y-80694642D01*
X68782142Y-80694642D01*
X69198809Y-81527976D02*
X69198809Y-80277976D01*
X69198809Y-80754166D02*
X69317857Y-80694642D01*
X69555952Y-80694642D01*
X69675000Y-80754166D01*
X69734523Y-80813690D01*
X69794047Y-80932738D01*
X69794047Y-81289880D01*
X69734523Y-81408928D01*
X69675000Y-81468452D01*
X69555952Y-81527976D01*
X69317857Y-81527976D01*
X69198809Y-81468452D01*
X70329761Y-81527976D02*
X70329761Y-80694642D01*
X70329761Y-80277976D02*
X70270238Y-80337500D01*
X70329761Y-80397023D01*
X70389285Y-80337500D01*
X70329761Y-80277976D01*
X70329761Y-80397023D01*
X70925000Y-80694642D02*
X70925000Y-81527976D01*
X70925000Y-80813690D02*
X70984523Y-80754166D01*
X71103571Y-80694642D01*
X71282142Y-80694642D01*
X71401190Y-80754166D01*
X71460714Y-80873214D01*
X71460714Y-81527976D01*
X73722619Y-81408928D02*
X73663095Y-81468452D01*
X73484523Y-81527976D01*
X73365476Y-81527976D01*
X73186904Y-81468452D01*
X73067857Y-81349404D01*
X73008333Y-81230357D01*
X72948809Y-80992261D01*
X72948809Y-80813690D01*
X73008333Y-80575595D01*
X73067857Y-80456547D01*
X73186904Y-80337500D01*
X73365476Y-80277976D01*
X73484523Y-80277976D01*
X73663095Y-80337500D01*
X73722619Y-80397023D01*
X74794047Y-81527976D02*
X74794047Y-80873214D01*
X74734523Y-80754166D01*
X74615476Y-80694642D01*
X74377380Y-80694642D01*
X74258333Y-80754166D01*
X74794047Y-81468452D02*
X74675000Y-81527976D01*
X74377380Y-81527976D01*
X74258333Y-81468452D01*
X74198809Y-81349404D01*
X74198809Y-81230357D01*
X74258333Y-81111309D01*
X74377380Y-81051785D01*
X74675000Y-81051785D01*
X74794047Y-80992261D01*
X75389285Y-80694642D02*
X75389285Y-81944642D01*
X75389285Y-80754166D02*
X75508333Y-80694642D01*
X75746428Y-80694642D01*
X75865476Y-80754166D01*
X75925000Y-80813690D01*
X75984523Y-80932738D01*
X75984523Y-81289880D01*
X75925000Y-81408928D01*
X75865476Y-81468452D01*
X75746428Y-81527976D01*
X75508333Y-81527976D01*
X75389285Y-81468452D01*
X76698809Y-81527976D02*
X76579761Y-81468452D01*
X76520238Y-81408928D01*
X76460714Y-81289880D01*
X76460714Y-80932738D01*
X76520238Y-80813690D01*
X76579761Y-80754166D01*
X76698809Y-80694642D01*
X76877380Y-80694642D01*
X76996428Y-80754166D01*
X77055952Y-80813690D01*
X77115476Y-80932738D01*
X77115476Y-81289880D01*
X77055952Y-81408928D01*
X76996428Y-81468452D01*
X76877380Y-81527976D01*
X76698809Y-81527976D01*
D12*
X92739428Y-71822761D02*
X92172571Y-71822761D01*
X92456000Y-71822761D02*
X92456000Y-70830761D01*
X92361523Y-70972476D01*
X92267047Y-71066952D01*
X92172571Y-71114190D01*
X90874690Y-129535738D02*
X90921928Y-129488500D01*
X91016404Y-129441261D01*
X91252595Y-129441261D01*
X91347071Y-129488500D01*
X91394309Y-129535738D01*
X91441547Y-129630214D01*
X91441547Y-129724690D01*
X91394309Y-129866404D01*
X90827452Y-130433261D01*
X91441547Y-130433261D01*
X92055642Y-129441261D02*
X92150119Y-129441261D01*
X92244595Y-129488500D01*
X92291833Y-129535738D01*
X92339071Y-129630214D01*
X92386309Y-129819166D01*
X92386309Y-130055357D01*
X92339071Y-130244309D01*
X92291833Y-130338785D01*
X92244595Y-130386023D01*
X92150119Y-130433261D01*
X92055642Y-130433261D01*
X91961166Y-130386023D01*
X91913928Y-130338785D01*
X91866690Y-130244309D01*
X91819452Y-130055357D01*
X91819452Y-129819166D01*
X91866690Y-129630214D01*
X91913928Y-129535738D01*
X91961166Y-129488500D01*
X92055642Y-129441261D01*
D13*
X64262142Y-85681428D02*
X64333571Y-85610000D01*
X64476428Y-85538571D01*
X64833571Y-85538571D01*
X64976428Y-85610000D01*
X65047857Y-85681428D01*
X65119285Y-85824285D01*
X65119285Y-85967142D01*
X65047857Y-86181428D01*
X64190714Y-87038571D01*
X65119285Y-87038571D01*
X66047857Y-85538571D02*
X66190714Y-85538571D01*
X66333571Y-85610000D01*
X66405000Y-85681428D01*
X66476428Y-85824285D01*
X66547857Y-86110000D01*
X66547857Y-86467142D01*
X66476428Y-86752857D01*
X66405000Y-86895714D01*
X66333571Y-86967142D01*
X66190714Y-87038571D01*
X66047857Y-87038571D01*
X65905000Y-86967142D01*
X65833571Y-86895714D01*
X65762142Y-86752857D01*
X65690714Y-86467142D01*
X65690714Y-86110000D01*
X65762142Y-85824285D01*
X65833571Y-85681428D01*
X65905000Y-85610000D01*
X66047857Y-85538571D01*
X63230071Y-120693571D02*
X62372928Y-120693571D01*
X62801500Y-120693571D02*
X62801500Y-119193571D01*
X62658642Y-119407857D01*
X62515785Y-119550714D01*
X62372928Y-119622142D01*
D14*
X132330000Y-125330000D02*
X131000000Y-125330000D01*
X132330000Y-124000000D02*
X132330000Y-125330000D01*
X129730000Y-125330000D02*
X127130000Y-125330000D01*
X129730000Y-122730000D02*
X129730000Y-125330000D01*
X132330000Y-122730000D02*
X129730000Y-122730000D01*
X127130000Y-125330000D02*
X127130000Y-109970000D01*
X132330000Y-122730000D02*
X132330000Y-109970000D01*
X132330000Y-109970000D02*
X127130000Y-109970000D01*
X126300000Y-77565000D02*
X125990000Y-77565000D01*
X125990000Y-77565000D02*
X125990000Y-99435000D01*
X125990000Y-99435000D02*
X126300000Y-99435000D01*
X127820000Y-77565000D02*
X133580000Y-77565000D01*
X133580000Y-77565000D02*
X133580000Y-78985000D01*
X133580000Y-78985000D02*
X133080000Y-78985000D01*
X133080000Y-78985000D02*
X133080000Y-98015000D01*
X133080000Y-98015000D02*
X133580000Y-98015000D01*
X133580000Y-98015000D02*
X133580000Y-99435000D01*
X133580000Y-99435000D02*
X127820000Y-99435000D01*
D10*
X120350000Y-130400000D02*
G75*
G03X120350000Y-130400000I-1750000J0D01*
G01*
X113850000Y-116400000D02*
G75*
G03X113850000Y-116400000I-1750000J0D01*
G01*
D14*
X100533855Y-77563508D02*
X100899539Y-77929192D01*
X99529763Y-78567600D02*
X99895447Y-78933284D01*
X96888694Y-81256113D02*
X97254378Y-81621797D01*
X97892786Y-80252021D02*
X98258470Y-80617705D01*
X95259845Y-82923502D02*
X95625529Y-83289186D01*
X94255753Y-83927594D02*
X94621437Y-84293278D01*
X91583822Y-86509117D02*
X91949506Y-86874801D01*
X92587914Y-85505025D02*
X92953598Y-85870709D01*
X89927595Y-88187752D02*
X90293279Y-88553436D01*
X88923503Y-89191844D02*
X89289187Y-89557528D01*
X81253985Y-86837915D02*
X81771141Y-86837915D01*
X81253985Y-85417915D02*
X81771141Y-85417915D01*
X81216720Y-88802131D02*
X81733876Y-88802131D01*
X81216720Y-90222131D02*
X81733876Y-90222131D01*
X81218725Y-93519945D02*
X81735881Y-93519945D01*
X81218725Y-92099945D02*
X81735881Y-92099945D01*
X81254406Y-95337589D02*
X81771562Y-95337589D01*
X81254406Y-96757589D02*
X81771562Y-96757589D01*
X81229314Y-100060424D02*
X81746470Y-100060424D01*
X81229314Y-98640424D02*
X81746470Y-98640424D01*
X81133422Y-102033000D02*
X81650578Y-102033000D01*
X81133422Y-103453000D02*
X81650578Y-103453000D01*
X81108022Y-106843900D02*
X81625178Y-106843900D01*
X81108022Y-105423900D02*
X81625178Y-105423900D01*
X81108022Y-108751300D02*
X81625178Y-108751300D01*
X81108022Y-110171300D02*
X81625178Y-110171300D01*
X81072222Y-113447900D02*
X81589378Y-113447900D01*
X81072222Y-112027900D02*
X81589378Y-112027900D01*
X81158822Y-115380700D02*
X81675978Y-115380700D01*
X81158822Y-116800700D02*
X81675978Y-116800700D01*
X89906126Y-113032474D02*
X90271810Y-112666790D01*
X88902034Y-112028382D02*
X89267718Y-111662698D01*
X91073980Y-114589669D02*
X91439664Y-114223985D01*
X92078072Y-115593761D02*
X92443756Y-115228077D01*
X94388612Y-118015178D02*
X94754296Y-117649494D01*
X93384520Y-117011086D02*
X93750204Y-116645402D01*
X95716134Y-119367166D02*
X96081818Y-119001482D01*
X96720226Y-120371258D02*
X97085910Y-120005574D01*
X99126934Y-122777966D02*
X99492618Y-122412282D01*
X98122842Y-121773874D02*
X98488526Y-121408190D01*
X97741422Y-110890000D02*
X98258578Y-110890000D01*
X97741422Y-112310000D02*
X98258578Y-112310000D01*
X105199922Y-98182500D02*
X105717078Y-98182500D01*
X105199922Y-96762500D02*
X105717078Y-96762500D01*
X103896422Y-106668500D02*
X104413578Y-106668500D01*
X103896422Y-108088500D02*
X104413578Y-108088500D01*
X105199922Y-92889000D02*
X105717078Y-92889000D01*
X105199922Y-94309000D02*
X105717078Y-94309000D01*
X100722500Y-95269578D02*
X100722500Y-94752422D01*
X99302500Y-95269578D02*
X99302500Y-94752422D01*
X97992000Y-93999578D02*
X97992000Y-93482422D01*
X96572000Y-93999578D02*
X96572000Y-93482422D01*
X121610000Y-117150000D02*
X121610000Y-114465000D01*
X121610000Y-114465000D02*
X119690000Y-114465000D01*
X119690000Y-114465000D02*
X119690000Y-117150000D01*
X114564500Y-132013000D02*
X114564500Y-129353000D01*
X104344500Y-132013000D02*
X114564500Y-132013000D01*
X104344500Y-129353000D02*
X114564500Y-129353000D01*
X104344500Y-132013000D02*
X104344500Y-129353000D01*
X103074500Y-132013000D02*
X101744500Y-132013000D01*
X101744500Y-132013000D02*
X101744500Y-130683000D01*
X73337922Y-85459500D02*
X73855078Y-85459500D01*
X73337922Y-86879500D02*
X73855078Y-86879500D01*
X73337922Y-102033000D02*
X73855078Y-102033000D01*
X73337922Y-103453000D02*
X73855078Y-103453000D01*
X95363388Y-72451796D02*
X94997704Y-72086112D01*
X94359296Y-73455888D02*
X93993612Y-73090204D01*
X84202704Y-118731388D02*
X84568388Y-118365704D01*
X83198612Y-117727296D02*
X83564296Y-117361612D01*
X92759888Y-75118796D02*
X92394204Y-74753112D01*
X91755796Y-76122888D02*
X91390112Y-75757204D01*
X73210922Y-88825000D02*
X73728078Y-88825000D01*
X73210922Y-90245000D02*
X73728078Y-90245000D01*
X73210922Y-105398500D02*
X73728078Y-105398500D01*
X73210922Y-106818500D02*
X73728078Y-106818500D01*
X85484612Y-120140296D02*
X85850296Y-119774612D01*
X86488704Y-121144388D02*
X86854388Y-120778704D01*
X90092888Y-77785796D02*
X89727204Y-77420112D01*
X89088796Y-78789888D02*
X88723112Y-78424204D01*
X73210922Y-93547000D02*
X73728078Y-93547000D01*
X73210922Y-92127000D02*
X73728078Y-92127000D01*
X73147422Y-108827500D02*
X73664578Y-108827500D01*
X73147422Y-110247500D02*
X73664578Y-110247500D01*
X88838204Y-123557388D02*
X89203888Y-123191704D01*
X87834112Y-122553296D02*
X88199796Y-122187612D01*
X87362388Y-80325796D02*
X86996704Y-79960112D01*
X86358296Y-81329888D02*
X85992612Y-80964204D01*
X73210922Y-96785500D02*
X73728078Y-96785500D01*
X73210922Y-95365500D02*
X73728078Y-95365500D01*
X73083922Y-112066000D02*
X73601078Y-112066000D01*
X73083922Y-113486000D02*
X73601078Y-113486000D01*
X90183612Y-124966296D02*
X90549296Y-124600612D01*
X91187704Y-125970388D02*
X91553388Y-125604704D01*
X73728078Y-100087500D02*
X73210922Y-100087500D01*
X73728078Y-98667500D02*
X73210922Y-98667500D01*
X73147422Y-115368000D02*
X73664578Y-115368000D01*
X73147422Y-116788000D02*
X73664578Y-116788000D01*
X84730975Y-83028383D02*
X84365291Y-82662699D01*
X83726883Y-84032475D02*
X83361199Y-83666791D01*
X93628617Y-128291975D02*
X93994301Y-127926291D01*
X92624525Y-127287883D02*
X92990209Y-126922199D01*
X96801392Y-75839228D02*
X97167076Y-76204912D01*
X97805484Y-74835136D02*
X98171168Y-75200820D01*
X95164414Y-77523649D02*
X95530098Y-77889333D01*
X94160322Y-78527741D02*
X94526006Y-78893425D01*
X91527381Y-81199223D02*
X91893065Y-81564907D01*
X92531473Y-80195131D02*
X92897157Y-80560815D01*
X88866057Y-83791352D02*
X89231741Y-84157036D01*
X89870149Y-82787260D02*
X90235833Y-83152944D01*
X87188617Y-85448774D02*
X87554301Y-85814458D01*
X86184525Y-86452866D02*
X86550209Y-86818550D01*
X77365485Y-85417915D02*
X77882641Y-85417915D01*
X77365485Y-86837915D02*
X77882641Y-86837915D01*
X77343220Y-88802131D02*
X77860376Y-88802131D01*
X77343220Y-90222131D02*
X77860376Y-90222131D01*
X77360225Y-92099945D02*
X77877381Y-92099945D01*
X77360225Y-93519945D02*
X77877381Y-93519945D01*
X77380906Y-96757589D02*
X77898062Y-96757589D01*
X77380906Y-95337589D02*
X77898062Y-95337589D01*
X77340814Y-100060424D02*
X77857970Y-100060424D01*
X77340814Y-98640424D02*
X77857970Y-98640424D01*
X77274922Y-102033000D02*
X77792078Y-102033000D01*
X77274922Y-103453000D02*
X77792078Y-103453000D01*
X77226422Y-106818500D02*
X77743578Y-106818500D01*
X77226422Y-105398500D02*
X77743578Y-105398500D01*
X77201022Y-108751300D02*
X77718178Y-108751300D01*
X77201022Y-110171300D02*
X77718178Y-110171300D01*
X77188322Y-113447900D02*
X77705478Y-113447900D01*
X77188322Y-112027900D02*
X77705478Y-112027900D01*
X77099422Y-115380700D02*
X77616578Y-115380700D01*
X77099422Y-116800700D02*
X77616578Y-116800700D01*
X87025090Y-115913510D02*
X87390774Y-115547826D01*
X86020998Y-114909418D02*
X86386682Y-114543734D01*
X88248452Y-117433158D02*
X88614136Y-117067474D01*
X89252544Y-118437250D02*
X89618228Y-118071566D01*
X91603106Y-120818644D02*
X91968790Y-120452960D01*
X90599014Y-119814552D02*
X90964698Y-119448868D01*
X92924900Y-122176359D02*
X93290584Y-121810675D01*
X93928992Y-123180451D02*
X94294676Y-122814767D01*
X96328347Y-125558593D02*
X96694031Y-125192909D01*
X95324255Y-124554501D02*
X95689939Y-124188817D01*
X118095000Y-93513500D02*
X111775000Y-93513500D01*
X120135000Y-108864500D02*
X118095000Y-108864500D01*
X118095000Y-109813500D02*
X118095000Y-108864500D01*
X118095000Y-109813500D02*
X111775000Y-109813500D01*
X111775000Y-109813500D02*
X111775000Y-108074500D01*
X118095000Y-95253500D02*
X118095000Y-93513500D01*
X111775000Y-95253500D02*
X111775000Y-93513500D01*
X97218500Y-108285600D02*
X96921515Y-107988615D01*
X92183900Y-103251000D02*
X92480885Y-103547985D01*
X97218500Y-98216400D02*
X97515485Y-98513385D01*
X102253100Y-103251000D02*
X101956115Y-103547985D01*
X92183900Y-103251000D02*
X92480885Y-102954015D01*
X97218500Y-108285600D02*
X97515485Y-107988615D01*
X101956115Y-102954015D02*
X102931923Y-101978208D01*
X102253100Y-103251000D02*
X101956115Y-102954015D01*
X97218500Y-98216400D02*
X96921515Y-98513385D01*
X117860000Y-115878922D02*
X117860000Y-116396078D01*
X116440000Y-115878922D02*
X116440000Y-116396078D01*
D10*
X109010000Y-80070000D02*
X118660000Y-80070000D01*
X109010000Y-70170000D02*
X118660000Y-70170000D01*
X109010000Y-80070000D02*
X109010000Y-70170000D01*
X118660000Y-80070000D02*
X118660000Y-70170000D01*
X63070000Y-118800000D02*
X63070000Y-85150000D01*
X63070000Y-118800000D02*
X53160000Y-118800000D01*
X63070000Y-85150000D02*
X53160000Y-85150000D01*
X53160000Y-118800000D02*
X53160000Y-85150000D01*
D15*
G36*
X77824022Y-123109039D02*
X78131668Y-123191318D01*
X78758242Y-123465482D01*
X79362510Y-123885275D01*
X79911345Y-124427341D01*
X79950770Y-124473975D01*
X80163432Y-124739321D01*
X80333812Y-124971225D01*
X80441543Y-125139853D01*
X80466260Y-125215370D01*
X80457479Y-125216302D01*
X80386298Y-125162987D01*
X80217916Y-125026039D01*
X79984169Y-124831479D01*
X79898559Y-124759442D01*
X79186133Y-124230873D01*
X78468895Y-123850433D01*
X77732426Y-123616838D01*
X76962309Y-123528807D01*
X76144127Y-123585057D01*
X75263463Y-123784308D01*
X74305897Y-124125276D01*
X74039314Y-124238400D01*
X73670517Y-124393373D01*
X73445415Y-124474557D01*
X73357855Y-124487023D01*
X73401683Y-124435842D01*
X73570746Y-124326085D01*
X73858890Y-124162824D01*
X74259962Y-123951130D01*
X74591334Y-123783458D01*
X75370464Y-123426603D01*
X76056658Y-123185189D01*
X76676555Y-123054760D01*
X77256797Y-123030863D01*
X77824022Y-123109039D01*
X77824022Y-123109039D01*
G37*
X77824022Y-123109039D02*
X78131668Y-123191318D01*
X78758242Y-123465482D01*
X79362510Y-123885275D01*
X79911345Y-124427341D01*
X79950770Y-124473975D01*
X80163432Y-124739321D01*
X80333812Y-124971225D01*
X80441543Y-125139853D01*
X80466260Y-125215370D01*
X80457479Y-125216302D01*
X80386298Y-125162987D01*
X80217916Y-125026039D01*
X79984169Y-124831479D01*
X79898559Y-124759442D01*
X79186133Y-124230873D01*
X78468895Y-123850433D01*
X77732426Y-123616838D01*
X76962309Y-123528807D01*
X76144127Y-123585057D01*
X75263463Y-123784308D01*
X74305897Y-124125276D01*
X74039314Y-124238400D01*
X73670517Y-124393373D01*
X73445415Y-124474557D01*
X73357855Y-124487023D01*
X73401683Y-124435842D01*
X73570746Y-124326085D01*
X73858890Y-124162824D01*
X74259962Y-123951130D01*
X74591334Y-123783458D01*
X75370464Y-123426603D01*
X76056658Y-123185189D01*
X76676555Y-123054760D01*
X77256797Y-123030863D01*
X77824022Y-123109039D01*
G36*
X73937000Y-126500171D02*
X74127544Y-126527224D01*
X74191975Y-126576973D01*
X74189591Y-126597834D01*
X74086889Y-126693847D01*
X73970868Y-126730722D01*
X73827364Y-126802816D01*
X73785844Y-126984722D01*
X73756513Y-127299587D01*
X73680073Y-127513292D01*
X73568432Y-127592663D01*
X73567575Y-127592667D01*
X73507213Y-127567620D01*
X73485959Y-127472418D01*
X73504037Y-127276973D01*
X73561673Y-126951193D01*
X73572775Y-126894167D01*
X73540544Y-126769742D01*
X73447463Y-126746000D01*
X73301358Y-126700815D01*
X73261284Y-126650517D01*
X73210169Y-126670527D01*
X73105145Y-126812276D01*
X72967902Y-127045984D01*
X72952930Y-127073851D01*
X72799318Y-127332806D01*
X72659268Y-127518760D01*
X72562380Y-127592593D01*
X72560376Y-127592667D01*
X72470830Y-127515915D01*
X72370428Y-127311296D01*
X72311341Y-127135136D01*
X72222659Y-126812851D01*
X72187360Y-126619502D01*
X72205067Y-126523449D01*
X72275406Y-126493054D01*
X72303720Y-126492000D01*
X72410642Y-126564943D01*
X72480125Y-126724834D01*
X72546921Y-126994998D01*
X72606097Y-127106036D01*
X72677480Y-127065914D01*
X72780897Y-126882599D01*
X72796167Y-126851834D01*
X72973694Y-126492000D01*
X73599069Y-126492000D01*
X73937000Y-126500171D01*
X73937000Y-126500171D01*
G37*
X73937000Y-126500171D02*
X74127544Y-126527224D01*
X74191975Y-126576973D01*
X74189591Y-126597834D01*
X74086889Y-126693847D01*
X73970868Y-126730722D01*
X73827364Y-126802816D01*
X73785844Y-126984722D01*
X73756513Y-127299587D01*
X73680073Y-127513292D01*
X73568432Y-127592663D01*
X73567575Y-127592667D01*
X73507213Y-127567620D01*
X73485959Y-127472418D01*
X73504037Y-127276973D01*
X73561673Y-126951193D01*
X73572775Y-126894167D01*
X73540544Y-126769742D01*
X73447463Y-126746000D01*
X73301358Y-126700815D01*
X73261284Y-126650517D01*
X73210169Y-126670527D01*
X73105145Y-126812276D01*
X72967902Y-127045984D01*
X72952930Y-127073851D01*
X72799318Y-127332806D01*
X72659268Y-127518760D01*
X72562380Y-127592593D01*
X72560376Y-127592667D01*
X72470830Y-127515915D01*
X72370428Y-127311296D01*
X72311341Y-127135136D01*
X72222659Y-126812851D01*
X72187360Y-126619502D01*
X72205067Y-126523449D01*
X72275406Y-126493054D01*
X72303720Y-126492000D01*
X72410642Y-126564943D01*
X72480125Y-126724834D01*
X72546921Y-126994998D01*
X72606097Y-127106036D01*
X72677480Y-127065914D01*
X72780897Y-126882599D01*
X72796167Y-126851834D01*
X72973694Y-126492000D01*
X73599069Y-126492000D01*
X73937000Y-126500171D01*
G36*
X71005219Y-126505596D02*
X71135244Y-126552668D01*
X71162334Y-126619000D01*
X71092050Y-126722509D01*
X70995916Y-126746000D01*
X70890195Y-126777175D01*
X70823996Y-126896676D01*
X70776834Y-127143465D01*
X70773342Y-127169334D01*
X70713866Y-127455175D01*
X70630182Y-127583210D01*
X70593148Y-127592667D01*
X70522253Y-127560698D01*
X70501093Y-127440218D01*
X70523936Y-127194366D01*
X70527334Y-127169334D01*
X70553950Y-126915201D01*
X70538181Y-126787507D01*
X70472926Y-126747076D01*
X70450612Y-126746000D01*
X70333343Y-126681644D01*
X70315667Y-126619000D01*
X70360986Y-126539135D01*
X70517894Y-126500127D01*
X70739000Y-126492000D01*
X71005219Y-126505596D01*
X71005219Y-126505596D01*
G37*
X71005219Y-126505596D02*
X71135244Y-126552668D01*
X71162334Y-126619000D01*
X71092050Y-126722509D01*
X70995916Y-126746000D01*
X70890195Y-126777175D01*
X70823996Y-126896676D01*
X70776834Y-127143465D01*
X70773342Y-127169334D01*
X70713866Y-127455175D01*
X70630182Y-127583210D01*
X70593148Y-127592667D01*
X70522253Y-127560698D01*
X70501093Y-127440218D01*
X70523936Y-127194366D01*
X70527334Y-127169334D01*
X70553950Y-126915201D01*
X70538181Y-126787507D01*
X70472926Y-126747076D01*
X70450612Y-126746000D01*
X70333343Y-126681644D01*
X70315667Y-126619000D01*
X70360986Y-126539135D01*
X70517894Y-126500127D01*
X70739000Y-126492000D01*
X71005219Y-126505596D01*
G36*
X71966135Y-126535696D02*
X71987412Y-126597834D01*
X71884971Y-126680619D01*
X71755000Y-126703667D01*
X71572919Y-126743982D01*
X71538271Y-126840427D01*
X71656901Y-126956247D01*
X71710474Y-126983596D01*
X71884609Y-127131319D01*
X71909343Y-127320490D01*
X71782769Y-127509372D01*
X71736161Y-127545533D01*
X71525083Y-127659544D01*
X71353919Y-127651270D01*
X71257320Y-127600836D01*
X71176683Y-127499447D01*
X71231926Y-127419410D01*
X71389992Y-127393665D01*
X71456646Y-127402225D01*
X71624718Y-127392631D01*
X71670882Y-127307169D01*
X71591230Y-127191420D01*
X71480328Y-127125910D01*
X71304049Y-126976940D01*
X71261433Y-126776311D01*
X71335042Y-126614933D01*
X71463838Y-126536772D01*
X71650927Y-126496491D01*
X71837847Y-126495621D01*
X71966135Y-126535696D01*
X71966135Y-126535696D01*
G37*
X71966135Y-126535696D02*
X71987412Y-126597834D01*
X71884971Y-126680619D01*
X71755000Y-126703667D01*
X71572919Y-126743982D01*
X71538271Y-126840427D01*
X71656901Y-126956247D01*
X71710474Y-126983596D01*
X71884609Y-127131319D01*
X71909343Y-127320490D01*
X71782769Y-127509372D01*
X71736161Y-127545533D01*
X71525083Y-127659544D01*
X71353919Y-127651270D01*
X71257320Y-127600836D01*
X71176683Y-127499447D01*
X71231926Y-127419410D01*
X71389992Y-127393665D01*
X71456646Y-127402225D01*
X71624718Y-127392631D01*
X71670882Y-127307169D01*
X71591230Y-127191420D01*
X71480328Y-127125910D01*
X71304049Y-126976940D01*
X71261433Y-126776311D01*
X71335042Y-126614933D01*
X71463838Y-126536772D01*
X71650927Y-126496491D01*
X71837847Y-126495621D01*
X71966135Y-126535696D01*
G36*
X70127617Y-126561315D02*
X70144314Y-126640167D01*
X70120556Y-126854794D01*
X70065406Y-127114471D01*
X69996108Y-127352123D01*
X69929907Y-127500676D01*
X69920082Y-127512361D01*
X69730009Y-127607001D01*
X69481331Y-127635677D01*
X69278500Y-127587932D01*
X69179859Y-127452585D01*
X69129401Y-127228812D01*
X69124347Y-126968811D01*
X69161919Y-126724782D01*
X69239335Y-126548923D01*
X69336858Y-126492000D01*
X69396526Y-126550109D01*
X69413710Y-126738093D01*
X69401373Y-126965009D01*
X69383174Y-127232789D01*
X69395265Y-127370448D01*
X69451683Y-127416415D01*
X69563740Y-127409509D01*
X69687993Y-127367283D01*
X69766221Y-127255762D01*
X69823798Y-127031613D01*
X69840741Y-126936500D01*
X69910395Y-126650155D01*
X69994765Y-126505690D01*
X70031241Y-126492000D01*
X70127617Y-126561315D01*
X70127617Y-126561315D01*
G37*
X70127617Y-126561315D02*
X70144314Y-126640167D01*
X70120556Y-126854794D01*
X70065406Y-127114471D01*
X69996108Y-127352123D01*
X69929907Y-127500676D01*
X69920082Y-127512361D01*
X69730009Y-127607001D01*
X69481331Y-127635677D01*
X69278500Y-127587932D01*
X69179859Y-127452585D01*
X69129401Y-127228812D01*
X69124347Y-126968811D01*
X69161919Y-126724782D01*
X69239335Y-126548923D01*
X69336858Y-126492000D01*
X69396526Y-126550109D01*
X69413710Y-126738093D01*
X69401373Y-126965009D01*
X69383174Y-127232789D01*
X69395265Y-127370448D01*
X69451683Y-127416415D01*
X69563740Y-127409509D01*
X69687993Y-127367283D01*
X69766221Y-127255762D01*
X69823798Y-127031613D01*
X69840741Y-126936500D01*
X69910395Y-126650155D01*
X69994765Y-126505690D01*
X70031241Y-126492000D01*
X70127617Y-126561315D01*
G36*
X73552943Y-125247662D02*
X75167301Y-125301837D01*
X76935221Y-125387813D01*
X78855529Y-125505673D01*
X79121000Y-125523663D01*
X79773946Y-125569680D01*
X80464556Y-125620602D01*
X81142333Y-125672553D01*
X81756778Y-125721655D01*
X82257393Y-125764030D01*
X82296000Y-125767458D01*
X83566000Y-125880801D01*
X81661000Y-125826567D01*
X80844080Y-125806732D01*
X79958053Y-125791324D01*
X79022882Y-125780234D01*
X78058527Y-125773357D01*
X77084950Y-125770585D01*
X76122113Y-125771811D01*
X75189978Y-125776927D01*
X74308507Y-125785828D01*
X73497660Y-125798404D01*
X72777401Y-125814551D01*
X72167690Y-125834159D01*
X71688489Y-125857123D01*
X71374000Y-125881767D01*
X70399440Y-126001425D01*
X69586746Y-126134204D01*
X68928780Y-126282644D01*
X68418406Y-126449283D01*
X68048487Y-126636661D01*
X67811886Y-126847318D01*
X67701467Y-127083793D01*
X67691000Y-127192189D01*
X67740925Y-127434824D01*
X67861500Y-127678887D01*
X67866099Y-127685430D01*
X67964263Y-127837554D01*
X67974725Y-127905634D01*
X67884276Y-127887003D01*
X67679705Y-127778997D01*
X67352334Y-127581745D01*
X66923626Y-127291938D01*
X66559792Y-126997182D01*
X66287285Y-126721932D01*
X66132559Y-126490643D01*
X66113892Y-126436878D01*
X66127979Y-126177570D01*
X66307382Y-125949240D01*
X66650926Y-125751968D01*
X67157435Y-125585839D01*
X67825734Y-125450934D01*
X68654647Y-125347336D01*
X69643000Y-125275127D01*
X70789618Y-125234390D01*
X72093323Y-125225208D01*
X73552943Y-125247662D01*
X73552943Y-125247662D01*
G37*
X73552943Y-125247662D02*
X75167301Y-125301837D01*
X76935221Y-125387813D01*
X78855529Y-125505673D01*
X79121000Y-125523663D01*
X79773946Y-125569680D01*
X80464556Y-125620602D01*
X81142333Y-125672553D01*
X81756778Y-125721655D01*
X82257393Y-125764030D01*
X82296000Y-125767458D01*
X83566000Y-125880801D01*
X81661000Y-125826567D01*
X80844080Y-125806732D01*
X79958053Y-125791324D01*
X79022882Y-125780234D01*
X78058527Y-125773357D01*
X77084950Y-125770585D01*
X76122113Y-125771811D01*
X75189978Y-125776927D01*
X74308507Y-125785828D01*
X73497660Y-125798404D01*
X72777401Y-125814551D01*
X72167690Y-125834159D01*
X71688489Y-125857123D01*
X71374000Y-125881767D01*
X70399440Y-126001425D01*
X69586746Y-126134204D01*
X68928780Y-126282644D01*
X68418406Y-126449283D01*
X68048487Y-126636661D01*
X67811886Y-126847318D01*
X67701467Y-127083793D01*
X67691000Y-127192189D01*
X67740925Y-127434824D01*
X67861500Y-127678887D01*
X67866099Y-127685430D01*
X67964263Y-127837554D01*
X67974725Y-127905634D01*
X67884276Y-127887003D01*
X67679705Y-127778997D01*
X67352334Y-127581745D01*
X66923626Y-127291938D01*
X66559792Y-126997182D01*
X66287285Y-126721932D01*
X66132559Y-126490643D01*
X66113892Y-126436878D01*
X66127979Y-126177570D01*
X66307382Y-125949240D01*
X66650926Y-125751968D01*
X67157435Y-125585839D01*
X67825734Y-125450934D01*
X68654647Y-125347336D01*
X69643000Y-125275127D01*
X70789618Y-125234390D01*
X72093323Y-125225208D01*
X73552943Y-125247662D01*
G36*
X78775616Y-126086884D02*
X79542095Y-126168699D01*
X80213321Y-126313139D01*
X80348667Y-126354989D01*
X80985279Y-126611973D01*
X81480666Y-126909975D01*
X81830375Y-127240364D01*
X82029952Y-127594511D01*
X82074944Y-127963786D01*
X81960897Y-128339560D01*
X81683357Y-128713203D01*
X81605059Y-128789501D01*
X81145706Y-129111800D01*
X80563328Y-129353745D01*
X79887434Y-129508518D01*
X79147531Y-129569305D01*
X78392722Y-129531577D01*
X78000259Y-129467619D01*
X77594114Y-129372150D01*
X77322042Y-129286726D01*
X76953244Y-129122908D01*
X76551742Y-128903585D01*
X76168164Y-128660294D01*
X75853138Y-128424570D01*
X75692000Y-128271358D01*
X75522667Y-128077501D01*
X75776667Y-128206686D01*
X76431755Y-128469412D01*
X77175130Y-128649303D01*
X77964448Y-128744579D01*
X78757366Y-128753459D01*
X79511542Y-128674163D01*
X80184632Y-128504909D01*
X80441139Y-128402870D01*
X80867518Y-128160059D01*
X81129214Y-127900225D01*
X81229009Y-127631425D01*
X81169686Y-127361717D01*
X80954027Y-127099160D01*
X80584815Y-126851810D01*
X80064831Y-126627726D01*
X79798334Y-126541350D01*
X78982203Y-126367229D01*
X78079398Y-126294743D01*
X77137694Y-126322587D01*
X76204866Y-126449453D01*
X75363889Y-126662601D01*
X75031610Y-126765953D01*
X74766131Y-126841913D01*
X74603974Y-126880382D01*
X74571758Y-126881647D01*
X74614005Y-126827450D01*
X74787575Y-126740737D01*
X75060235Y-126632844D01*
X75399752Y-126515111D01*
X75773894Y-126398876D01*
X76150428Y-126295478D01*
X76415657Y-126233034D01*
X77161297Y-126117467D01*
X77964983Y-126069279D01*
X78775616Y-126086884D01*
X78775616Y-126086884D01*
G37*
X78775616Y-126086884D02*
X79542095Y-126168699D01*
X80213321Y-126313139D01*
X80348667Y-126354989D01*
X80985279Y-126611973D01*
X81480666Y-126909975D01*
X81830375Y-127240364D01*
X82029952Y-127594511D01*
X82074944Y-127963786D01*
X81960897Y-128339560D01*
X81683357Y-128713203D01*
X81605059Y-128789501D01*
X81145706Y-129111800D01*
X80563328Y-129353745D01*
X79887434Y-129508518D01*
X79147531Y-129569305D01*
X78392722Y-129531577D01*
X78000259Y-129467619D01*
X77594114Y-129372150D01*
X77322042Y-129286726D01*
X76953244Y-129122908D01*
X76551742Y-128903585D01*
X76168164Y-128660294D01*
X75853138Y-128424570D01*
X75692000Y-128271358D01*
X75522667Y-128077501D01*
X75776667Y-128206686D01*
X76431755Y-128469412D01*
X77175130Y-128649303D01*
X77964448Y-128744579D01*
X78757366Y-128753459D01*
X79511542Y-128674163D01*
X80184632Y-128504909D01*
X80441139Y-128402870D01*
X80867518Y-128160059D01*
X81129214Y-127900225D01*
X81229009Y-127631425D01*
X81169686Y-127361717D01*
X80954027Y-127099160D01*
X80584815Y-126851810D01*
X80064831Y-126627726D01*
X79798334Y-126541350D01*
X78982203Y-126367229D01*
X78079398Y-126294743D01*
X77137694Y-126322587D01*
X76204866Y-126449453D01*
X75363889Y-126662601D01*
X75031610Y-126765953D01*
X74766131Y-126841913D01*
X74603974Y-126880382D01*
X74571758Y-126881647D01*
X74614005Y-126827450D01*
X74787575Y-126740737D01*
X75060235Y-126632844D01*
X75399752Y-126515111D01*
X75773894Y-126398876D01*
X76150428Y-126295478D01*
X76415657Y-126233034D01*
X77161297Y-126117467D01*
X77964983Y-126069279D01*
X78775616Y-126086884D01*
G36*
X75497417Y-127451313D02*
X75313990Y-127585627D01*
X75043708Y-127770048D01*
X74715558Y-127985760D01*
X74358526Y-128213948D01*
X74001599Y-128435795D01*
X73673765Y-128632486D01*
X73436621Y-128767489D01*
X72689408Y-129134640D01*
X71959966Y-129413038D01*
X71271950Y-129597144D01*
X70649012Y-129681424D01*
X70114807Y-129660339D01*
X69869343Y-129602469D01*
X69385869Y-129356277D01*
X68984459Y-128964205D01*
X68698551Y-128492429D01*
X68583503Y-128225420D01*
X68500827Y-127989845D01*
X68454925Y-127810973D01*
X68450199Y-127714074D01*
X68491050Y-127724418D01*
X68581879Y-127867274D01*
X68593449Y-127889000D01*
X68926640Y-128352842D01*
X69375388Y-128726930D01*
X69511334Y-128806921D01*
X69684425Y-128888448D01*
X69869015Y-128941418D01*
X70106005Y-128971376D01*
X70436296Y-128983869D01*
X70823667Y-128984887D01*
X71285913Y-128977070D01*
X71641277Y-128952514D01*
X71952059Y-128901661D01*
X72280558Y-128814955D01*
X72601667Y-128712125D01*
X72994692Y-128566784D01*
X73476735Y-128366941D01*
X73987793Y-128138511D01*
X74467863Y-127907408D01*
X74485500Y-127898512D01*
X74869340Y-127706671D01*
X75193034Y-127549028D01*
X75429927Y-127438240D01*
X75553364Y-127386964D01*
X75565000Y-127385923D01*
X75497417Y-127451313D01*
X75497417Y-127451313D01*
G37*
X75497417Y-127451313D02*
X75313990Y-127585627D01*
X75043708Y-127770048D01*
X74715558Y-127985760D01*
X74358526Y-128213948D01*
X74001599Y-128435795D01*
X73673765Y-128632486D01*
X73436621Y-128767489D01*
X72689408Y-129134640D01*
X71959966Y-129413038D01*
X71271950Y-129597144D01*
X70649012Y-129681424D01*
X70114807Y-129660339D01*
X69869343Y-129602469D01*
X69385869Y-129356277D01*
X68984459Y-128964205D01*
X68698551Y-128492429D01*
X68583503Y-128225420D01*
X68500827Y-127989845D01*
X68454925Y-127810973D01*
X68450199Y-127714074D01*
X68491050Y-127724418D01*
X68581879Y-127867274D01*
X68593449Y-127889000D01*
X68926640Y-128352842D01*
X69375388Y-128726930D01*
X69511334Y-128806921D01*
X69684425Y-128888448D01*
X69869015Y-128941418D01*
X70106005Y-128971376D01*
X70436296Y-128983869D01*
X70823667Y-128984887D01*
X71285913Y-128977070D01*
X71641277Y-128952514D01*
X71952059Y-128901661D01*
X72280558Y-128814955D01*
X72601667Y-128712125D01*
X72994692Y-128566784D01*
X73476735Y-128366941D01*
X73987793Y-128138511D01*
X74467863Y-127907408D01*
X74485500Y-127898512D01*
X74869340Y-127706671D01*
X75193034Y-127549028D01*
X75429927Y-127438240D01*
X75553364Y-127386964D01*
X75565000Y-127385923D01*
X75497417Y-127451313D01*
D10*
X129396666Y-125782380D02*
X129396666Y-126496666D01*
X129349047Y-126639523D01*
X129253809Y-126734761D01*
X129110952Y-126782380D01*
X129015714Y-126782380D01*
X129777619Y-125782380D02*
X130396666Y-125782380D01*
X130063333Y-126163333D01*
X130206190Y-126163333D01*
X130301428Y-126210952D01*
X130349047Y-126258571D01*
X130396666Y-126353809D01*
X130396666Y-126591904D01*
X130349047Y-126687142D01*
X130301428Y-126734761D01*
X130206190Y-126782380D01*
X129920476Y-126782380D01*
X129825238Y-126734761D01*
X129777619Y-126687142D01*
X129460666Y-99909380D02*
X129460666Y-100623666D01*
X129413047Y-100766523D01*
X129317809Y-100861761D01*
X129174952Y-100909380D01*
X129079714Y-100909380D01*
X130365428Y-100242714D02*
X130365428Y-100909380D01*
X130127333Y-99861761D02*
X129889238Y-100576047D01*
X130508285Y-100576047D01*
X101010987Y-77216357D02*
X100943644Y-77216357D01*
X100808957Y-77149013D01*
X100741613Y-77081670D01*
X100674270Y-76946982D01*
X100674270Y-76812295D01*
X100707941Y-76711280D01*
X100808957Y-76542921D01*
X100909972Y-76441906D01*
X101078331Y-76340891D01*
X101179346Y-76307219D01*
X101314033Y-76307219D01*
X101448720Y-76374563D01*
X101516064Y-76441906D01*
X101583407Y-76576593D01*
X101583407Y-76643937D01*
X101617079Y-77957135D02*
X101213018Y-77553074D01*
X101415048Y-77755105D02*
X102122155Y-77047998D01*
X101953796Y-77081670D01*
X101819109Y-77081670D01*
X101718094Y-77047998D01*
X98369918Y-79904870D02*
X98302575Y-79904870D01*
X98167888Y-79837526D01*
X98100544Y-79770183D01*
X98033201Y-79635495D01*
X98033201Y-79500808D01*
X98066872Y-79399793D01*
X98167888Y-79231434D01*
X98268903Y-79130419D01*
X98437262Y-79029404D01*
X98538277Y-78995732D01*
X98672964Y-78995732D01*
X98807651Y-79063076D01*
X98874995Y-79130419D01*
X98942338Y-79265106D01*
X98942338Y-79332450D01*
X99211712Y-79601824D02*
X99279056Y-79601824D01*
X99380071Y-79635495D01*
X99548430Y-79803854D01*
X99582101Y-79904870D01*
X99582101Y-79972213D01*
X99548430Y-80073228D01*
X99481086Y-80140572D01*
X99346399Y-80207915D01*
X98538277Y-80207915D01*
X98976010Y-80645648D01*
X95736977Y-82576351D02*
X95669634Y-82576351D01*
X95534947Y-82509007D01*
X95467603Y-82441664D01*
X95400260Y-82306976D01*
X95400260Y-82172289D01*
X95433931Y-82071274D01*
X95534947Y-81902915D01*
X95635962Y-81801900D01*
X95804321Y-81700885D01*
X95905336Y-81667213D01*
X96040023Y-81667213D01*
X96174710Y-81734557D01*
X96242054Y-81801900D01*
X96309397Y-81936587D01*
X96309397Y-82003931D01*
X96612443Y-82172289D02*
X97050176Y-82610022D01*
X96545099Y-82643694D01*
X96646115Y-82744709D01*
X96679786Y-82845725D01*
X96679786Y-82913068D01*
X96646115Y-83014083D01*
X96477756Y-83182442D01*
X96376741Y-83216114D01*
X96309397Y-83216114D01*
X96208382Y-83182442D01*
X96006351Y-82980412D01*
X95972679Y-82879396D01*
X95972679Y-82812053D01*
X93065046Y-85157874D02*
X92997703Y-85157874D01*
X92863016Y-85090530D01*
X92795672Y-85023187D01*
X92728329Y-84888499D01*
X92728329Y-84753812D01*
X92762000Y-84652797D01*
X92863016Y-84484438D01*
X92964031Y-84383423D01*
X93132390Y-84282408D01*
X93233405Y-84248736D01*
X93368092Y-84248736D01*
X93502779Y-84316080D01*
X93570123Y-84383423D01*
X93637466Y-84518110D01*
X93637466Y-84585454D01*
X94075199Y-85359904D02*
X93603794Y-85831309D01*
X94176214Y-84922171D02*
X93502779Y-85258889D01*
X93940512Y-85696622D01*
X90404727Y-87840601D02*
X90337384Y-87840601D01*
X90202697Y-87773257D01*
X90135353Y-87705914D01*
X90068010Y-87571226D01*
X90068010Y-87436539D01*
X90101681Y-87335524D01*
X90202697Y-87167165D01*
X90303712Y-87066150D01*
X90472071Y-86965135D01*
X90573086Y-86931463D01*
X90707773Y-86931463D01*
X90842460Y-86998807D01*
X90909804Y-87066150D01*
X90977147Y-87200837D01*
X90977147Y-87268181D01*
X91684254Y-87840601D02*
X91347536Y-87503883D01*
X90977147Y-87806929D01*
X91044491Y-87806929D01*
X91145506Y-87840601D01*
X91313865Y-88008959D01*
X91347536Y-88109975D01*
X91347536Y-88177318D01*
X91313865Y-88278333D01*
X91145506Y-88446692D01*
X91044491Y-88480364D01*
X90977147Y-88480364D01*
X90876132Y-88446692D01*
X90707773Y-88278333D01*
X90674101Y-88177318D01*
X90674101Y-88109975D01*
X81345896Y-84835057D02*
X81298277Y-84882676D01*
X81155420Y-84930295D01*
X81060182Y-84930295D01*
X80917324Y-84882676D01*
X80822086Y-84787438D01*
X80774467Y-84692200D01*
X80726848Y-84501724D01*
X80726848Y-84358867D01*
X80774467Y-84168391D01*
X80822086Y-84073153D01*
X80917324Y-83977915D01*
X81060182Y-83930295D01*
X81155420Y-83930295D01*
X81298277Y-83977915D01*
X81345896Y-84025534D01*
X82203039Y-83930295D02*
X82012563Y-83930295D01*
X81917324Y-83977915D01*
X81869705Y-84025534D01*
X81774467Y-84168391D01*
X81726848Y-84358867D01*
X81726848Y-84739819D01*
X81774467Y-84835057D01*
X81822086Y-84882676D01*
X81917324Y-84930295D01*
X82107801Y-84930295D01*
X82203039Y-84882676D01*
X82250658Y-84835057D01*
X82298277Y-84739819D01*
X82298277Y-84501724D01*
X82250658Y-84406486D01*
X82203039Y-84358867D01*
X82107801Y-84311248D01*
X81917324Y-84311248D01*
X81822086Y-84358867D01*
X81774467Y-84406486D01*
X81726848Y-84501724D01*
X81308631Y-88219273D02*
X81261012Y-88266892D01*
X81118155Y-88314511D01*
X81022917Y-88314511D01*
X80880059Y-88266892D01*
X80784821Y-88171654D01*
X80737202Y-88076416D01*
X80689583Y-87885940D01*
X80689583Y-87743083D01*
X80737202Y-87552607D01*
X80784821Y-87457369D01*
X80880059Y-87362131D01*
X81022917Y-87314511D01*
X81118155Y-87314511D01*
X81261012Y-87362131D01*
X81308631Y-87409750D01*
X81641964Y-87314511D02*
X82308631Y-87314511D01*
X81880059Y-88314511D01*
X81310636Y-91517087D02*
X81263017Y-91564706D01*
X81120160Y-91612325D01*
X81024922Y-91612325D01*
X80882064Y-91564706D01*
X80786826Y-91469468D01*
X80739207Y-91374230D01*
X80691588Y-91183754D01*
X80691588Y-91040897D01*
X80739207Y-90850421D01*
X80786826Y-90755183D01*
X80882064Y-90659945D01*
X81024922Y-90612325D01*
X81120160Y-90612325D01*
X81263017Y-90659945D01*
X81310636Y-90707564D01*
X81882064Y-91040897D02*
X81786826Y-90993278D01*
X81739207Y-90945659D01*
X81691588Y-90850421D01*
X81691588Y-90802802D01*
X81739207Y-90707564D01*
X81786826Y-90659945D01*
X81882064Y-90612325D01*
X82072541Y-90612325D01*
X82167779Y-90659945D01*
X82215398Y-90707564D01*
X82263017Y-90802802D01*
X82263017Y-90850421D01*
X82215398Y-90945659D01*
X82167779Y-90993278D01*
X82072541Y-91040897D01*
X81882064Y-91040897D01*
X81786826Y-91088516D01*
X81739207Y-91136135D01*
X81691588Y-91231373D01*
X81691588Y-91421849D01*
X81739207Y-91517087D01*
X81786826Y-91564706D01*
X81882064Y-91612325D01*
X82072541Y-91612325D01*
X82167779Y-91564706D01*
X82215398Y-91517087D01*
X82263017Y-91421849D01*
X82263017Y-91231373D01*
X82215398Y-91136135D01*
X82167779Y-91088516D01*
X82072541Y-91040897D01*
X81303833Y-94845142D02*
X81256214Y-94892761D01*
X81113357Y-94940380D01*
X81018119Y-94940380D01*
X80875261Y-94892761D01*
X80780023Y-94797523D01*
X80732404Y-94702285D01*
X80684785Y-94511809D01*
X80684785Y-94368952D01*
X80732404Y-94178476D01*
X80780023Y-94083238D01*
X80875261Y-93988000D01*
X81018119Y-93940380D01*
X81113357Y-93940380D01*
X81256214Y-93988000D01*
X81303833Y-94035619D01*
X81780023Y-94940380D02*
X81970500Y-94940380D01*
X82065738Y-94892761D01*
X82113357Y-94845142D01*
X82208595Y-94702285D01*
X82256214Y-94511809D01*
X82256214Y-94130857D01*
X82208595Y-94035619D01*
X82160976Y-93988000D01*
X82065738Y-93940380D01*
X81875261Y-93940380D01*
X81780023Y-93988000D01*
X81732404Y-94035619D01*
X81684785Y-94130857D01*
X81684785Y-94368952D01*
X81732404Y-94464190D01*
X81780023Y-94511809D01*
X81875261Y-94559428D01*
X82065738Y-94559428D01*
X82160976Y-94511809D01*
X82208595Y-94464190D01*
X82256214Y-94368952D01*
X80845034Y-98057566D02*
X80797415Y-98105185D01*
X80654558Y-98152804D01*
X80559320Y-98152804D01*
X80416463Y-98105185D01*
X80321225Y-98009947D01*
X80273606Y-97914709D01*
X80225987Y-97724233D01*
X80225987Y-97581376D01*
X80273606Y-97390900D01*
X80321225Y-97295662D01*
X80416463Y-97200424D01*
X80559320Y-97152804D01*
X80654558Y-97152804D01*
X80797415Y-97200424D01*
X80845034Y-97248043D01*
X81797415Y-98152804D02*
X81225987Y-98152804D01*
X81511701Y-98152804D02*
X81511701Y-97152804D01*
X81416463Y-97295662D01*
X81321225Y-97390900D01*
X81225987Y-97438519D01*
X82416463Y-97152804D02*
X82511701Y-97152804D01*
X82606939Y-97200424D01*
X82654558Y-97248043D01*
X82702177Y-97343281D01*
X82749796Y-97533757D01*
X82749796Y-97771852D01*
X82702177Y-97962328D01*
X82654558Y-98057566D01*
X82606939Y-98105185D01*
X82511701Y-98152804D01*
X82416463Y-98152804D01*
X82321225Y-98105185D01*
X82273606Y-98057566D01*
X82225987Y-97962328D01*
X82178368Y-97771852D01*
X82178368Y-97533757D01*
X82225987Y-97343281D01*
X82273606Y-97248043D01*
X82321225Y-97200424D01*
X82416463Y-97152804D01*
X80749142Y-101450142D02*
X80701523Y-101497761D01*
X80558666Y-101545380D01*
X80463428Y-101545380D01*
X80320571Y-101497761D01*
X80225333Y-101402523D01*
X80177714Y-101307285D01*
X80130095Y-101116809D01*
X80130095Y-100973952D01*
X80177714Y-100783476D01*
X80225333Y-100688238D01*
X80320571Y-100593000D01*
X80463428Y-100545380D01*
X80558666Y-100545380D01*
X80701523Y-100593000D01*
X80749142Y-100640619D01*
X81701523Y-101545380D02*
X81130095Y-101545380D01*
X81415809Y-101545380D02*
X81415809Y-100545380D01*
X81320571Y-100688238D01*
X81225333Y-100783476D01*
X81130095Y-100831095D01*
X82653904Y-101545380D02*
X82082476Y-101545380D01*
X82368190Y-101545380D02*
X82368190Y-100545380D01*
X82272952Y-100688238D01*
X82177714Y-100783476D01*
X82082476Y-100831095D01*
X80723742Y-104841042D02*
X80676123Y-104888661D01*
X80533266Y-104936280D01*
X80438028Y-104936280D01*
X80295171Y-104888661D01*
X80199933Y-104793423D01*
X80152314Y-104698185D01*
X80104695Y-104507709D01*
X80104695Y-104364852D01*
X80152314Y-104174376D01*
X80199933Y-104079138D01*
X80295171Y-103983900D01*
X80438028Y-103936280D01*
X80533266Y-103936280D01*
X80676123Y-103983900D01*
X80723742Y-104031519D01*
X81676123Y-104936280D02*
X81104695Y-104936280D01*
X81390409Y-104936280D02*
X81390409Y-103936280D01*
X81295171Y-104079138D01*
X81199933Y-104174376D01*
X81104695Y-104221995D01*
X82057076Y-104031519D02*
X82104695Y-103983900D01*
X82199933Y-103936280D01*
X82438028Y-103936280D01*
X82533266Y-103983900D01*
X82580885Y-104031519D01*
X82628504Y-104126757D01*
X82628504Y-104221995D01*
X82580885Y-104364852D01*
X82009457Y-104936280D01*
X82628504Y-104936280D01*
X80723742Y-108168442D02*
X80676123Y-108216061D01*
X80533266Y-108263680D01*
X80438028Y-108263680D01*
X80295171Y-108216061D01*
X80199933Y-108120823D01*
X80152314Y-108025585D01*
X80104695Y-107835109D01*
X80104695Y-107692252D01*
X80152314Y-107501776D01*
X80199933Y-107406538D01*
X80295171Y-107311300D01*
X80438028Y-107263680D01*
X80533266Y-107263680D01*
X80676123Y-107311300D01*
X80723742Y-107358919D01*
X81676123Y-108263680D02*
X81104695Y-108263680D01*
X81390409Y-108263680D02*
X81390409Y-107263680D01*
X81295171Y-107406538D01*
X81199933Y-107501776D01*
X81104695Y-107549395D01*
X82009457Y-107263680D02*
X82628504Y-107263680D01*
X82295171Y-107644633D01*
X82438028Y-107644633D01*
X82533266Y-107692252D01*
X82580885Y-107739871D01*
X82628504Y-107835109D01*
X82628504Y-108073204D01*
X82580885Y-108168442D01*
X82533266Y-108216061D01*
X82438028Y-108263680D01*
X82152314Y-108263680D01*
X82057076Y-108216061D01*
X82009457Y-108168442D01*
X80687942Y-111445042D02*
X80640323Y-111492661D01*
X80497466Y-111540280D01*
X80402228Y-111540280D01*
X80259371Y-111492661D01*
X80164133Y-111397423D01*
X80116514Y-111302185D01*
X80068895Y-111111709D01*
X80068895Y-110968852D01*
X80116514Y-110778376D01*
X80164133Y-110683138D01*
X80259371Y-110587900D01*
X80402228Y-110540280D01*
X80497466Y-110540280D01*
X80640323Y-110587900D01*
X80687942Y-110635519D01*
X81640323Y-111540280D02*
X81068895Y-111540280D01*
X81354609Y-111540280D02*
X81354609Y-110540280D01*
X81259371Y-110683138D01*
X81164133Y-110778376D01*
X81068895Y-110825995D01*
X82497466Y-110873614D02*
X82497466Y-111540280D01*
X82259371Y-110492661D02*
X82021276Y-111206947D01*
X82640323Y-111206947D01*
X80774542Y-114797842D02*
X80726923Y-114845461D01*
X80584066Y-114893080D01*
X80488828Y-114893080D01*
X80345971Y-114845461D01*
X80250733Y-114750223D01*
X80203114Y-114654985D01*
X80155495Y-114464509D01*
X80155495Y-114321652D01*
X80203114Y-114131176D01*
X80250733Y-114035938D01*
X80345971Y-113940700D01*
X80488828Y-113893080D01*
X80584066Y-113893080D01*
X80726923Y-113940700D01*
X80774542Y-113988319D01*
X81726923Y-114893080D02*
X81155495Y-114893080D01*
X81441209Y-114893080D02*
X81441209Y-113893080D01*
X81345971Y-114035938D01*
X81250733Y-114131176D01*
X81155495Y-114178795D01*
X82631685Y-113893080D02*
X82155495Y-113893080D01*
X82107876Y-114369271D01*
X82155495Y-114321652D01*
X82250733Y-114274033D01*
X82488828Y-114274033D01*
X82584066Y-114321652D01*
X82631685Y-114369271D01*
X82679304Y-114464509D01*
X82679304Y-114702604D01*
X82631685Y-114797842D01*
X82584066Y-114845461D01*
X82488828Y-114893080D01*
X82250733Y-114893080D01*
X82155495Y-114845461D01*
X82107876Y-114797842D01*
X90475969Y-114308606D02*
X90475969Y-114375950D01*
X90408625Y-114510637D01*
X90341282Y-114577980D01*
X90206595Y-114645324D01*
X90071908Y-114645324D01*
X89970893Y-114611652D01*
X89802534Y-114510637D01*
X89701519Y-114409622D01*
X89600503Y-114241263D01*
X89566832Y-114140248D01*
X89566832Y-114005561D01*
X89634175Y-113870874D01*
X89701519Y-113803530D01*
X89836206Y-113736187D01*
X89903549Y-113736187D01*
X91216748Y-113702515D02*
X90812687Y-114106576D01*
X91014717Y-113904545D02*
X90307610Y-113197438D01*
X90341282Y-113365797D01*
X90341282Y-113500484D01*
X90307610Y-113601500D01*
X91115732Y-112389316D02*
X90981045Y-112524003D01*
X90947374Y-112625019D01*
X90947374Y-112692362D01*
X90981045Y-112860721D01*
X91082061Y-113029080D01*
X91351435Y-113298454D01*
X91452450Y-113332125D01*
X91519793Y-113332125D01*
X91620809Y-113298454D01*
X91755496Y-113163767D01*
X91789167Y-113062751D01*
X91789167Y-112995408D01*
X91755496Y-112894393D01*
X91587137Y-112726034D01*
X91486122Y-112692362D01*
X91418778Y-112692362D01*
X91317763Y-112726034D01*
X91183076Y-112860721D01*
X91149404Y-112961736D01*
X91149404Y-113029080D01*
X91183076Y-113130095D01*
X92761969Y-116848606D02*
X92761969Y-116915950D01*
X92694625Y-117050637D01*
X92627282Y-117117980D01*
X92492595Y-117185324D01*
X92357908Y-117185324D01*
X92256893Y-117151652D01*
X92088534Y-117050637D01*
X91987519Y-116949622D01*
X91886503Y-116781263D01*
X91852832Y-116680248D01*
X91852832Y-116545561D01*
X91920175Y-116410874D01*
X91987519Y-116343530D01*
X92122206Y-116276187D01*
X92189549Y-116276187D01*
X93502748Y-116242515D02*
X93098687Y-116646576D01*
X93300717Y-116444545D02*
X92593610Y-115737438D01*
X92627282Y-115905797D01*
X92627282Y-116040484D01*
X92593610Y-116141500D01*
X93031343Y-115299706D02*
X93502748Y-114828301D01*
X93906809Y-115838454D01*
X94920970Y-119325106D02*
X94920970Y-119392450D01*
X94853626Y-119527137D01*
X94786283Y-119594480D01*
X94651596Y-119661824D01*
X94516909Y-119661824D01*
X94415894Y-119628152D01*
X94247535Y-119527137D01*
X94146520Y-119426122D01*
X94045504Y-119257763D01*
X94011833Y-119156748D01*
X94011833Y-119022061D01*
X94079176Y-118887374D01*
X94146520Y-118820030D01*
X94281207Y-118752687D01*
X94348550Y-118752687D01*
X95661749Y-118719015D02*
X95257688Y-119123076D01*
X95459718Y-118921045D02*
X94752611Y-118213938D01*
X94786283Y-118382297D01*
X94786283Y-118516984D01*
X94752611Y-118618000D01*
X95661749Y-117910893D02*
X95560733Y-117944564D01*
X95493390Y-117944564D01*
X95392375Y-117910893D01*
X95358703Y-117877221D01*
X95325031Y-117776206D01*
X95325031Y-117708862D01*
X95358703Y-117607847D01*
X95493390Y-117473160D01*
X95594405Y-117439488D01*
X95661749Y-117439488D01*
X95762764Y-117473160D01*
X95796436Y-117506832D01*
X95830107Y-117607847D01*
X95830107Y-117675190D01*
X95796436Y-117776206D01*
X95661749Y-117910893D01*
X95628077Y-118011908D01*
X95628077Y-118079251D01*
X95661749Y-118180267D01*
X95796436Y-118314954D01*
X95897451Y-118348625D01*
X95964794Y-118348625D01*
X96065810Y-118314954D01*
X96200497Y-118180267D01*
X96234168Y-118079251D01*
X96234168Y-118011908D01*
X96200497Y-117910893D01*
X96065810Y-117776206D01*
X95964794Y-117742534D01*
X95897451Y-117742534D01*
X95796436Y-117776206D01*
X97333969Y-121611106D02*
X97333969Y-121678450D01*
X97266625Y-121813137D01*
X97199282Y-121880480D01*
X97064595Y-121947824D01*
X96929908Y-121947824D01*
X96828893Y-121914152D01*
X96660534Y-121813137D01*
X96559519Y-121712122D01*
X96458503Y-121543763D01*
X96424832Y-121442748D01*
X96424832Y-121308061D01*
X96492175Y-121173374D01*
X96559519Y-121106030D01*
X96694206Y-121038687D01*
X96761549Y-121038687D01*
X98074748Y-121005015D02*
X97670687Y-121409076D01*
X97872717Y-121207045D02*
X97165610Y-120499938D01*
X97199282Y-120668297D01*
X97199282Y-120802984D01*
X97165610Y-120904000D01*
X98411465Y-120668297D02*
X98546152Y-120533610D01*
X98579824Y-120432595D01*
X98579824Y-120365251D01*
X98546152Y-120196893D01*
X98445137Y-120028534D01*
X98175763Y-119759160D01*
X98074748Y-119725488D01*
X98007404Y-119725488D01*
X97906389Y-119759160D01*
X97771702Y-119893847D01*
X97738030Y-119994862D01*
X97738030Y-120062206D01*
X97771702Y-120163221D01*
X97940061Y-120331580D01*
X98041076Y-120365251D01*
X98108419Y-120365251D01*
X98209435Y-120331580D01*
X98344122Y-120196893D01*
X98377793Y-120095877D01*
X98377793Y-120028534D01*
X98344122Y-119927519D01*
X99873969Y-123960606D02*
X99873969Y-124027950D01*
X99806625Y-124162637D01*
X99739282Y-124229980D01*
X99604595Y-124297324D01*
X99469908Y-124297324D01*
X99368893Y-124263652D01*
X99200534Y-124162637D01*
X99099519Y-124061622D01*
X98998503Y-123893263D01*
X98964832Y-123792248D01*
X98964832Y-123657561D01*
X99032175Y-123522874D01*
X99099519Y-123455530D01*
X99234206Y-123388187D01*
X99301549Y-123388187D01*
X99570923Y-123118812D02*
X99570923Y-123051469D01*
X99604595Y-122950454D01*
X99772954Y-122782095D01*
X99873969Y-122748423D01*
X99941312Y-122748423D01*
X100042328Y-122782095D01*
X100109671Y-122849438D01*
X100177015Y-122984125D01*
X100177015Y-123792248D01*
X100614748Y-123354515D01*
X100345374Y-122209675D02*
X100412717Y-122142332D01*
X100513732Y-122108660D01*
X100581076Y-122108660D01*
X100682091Y-122142332D01*
X100850450Y-122243347D01*
X101018809Y-122411706D01*
X101119824Y-122580064D01*
X101153496Y-122681080D01*
X101153496Y-122748423D01*
X101119824Y-122849438D01*
X101052480Y-122916782D01*
X100951465Y-122950454D01*
X100884122Y-122950454D01*
X100783106Y-122916782D01*
X100614748Y-122815767D01*
X100446389Y-122647408D01*
X100345374Y-122479049D01*
X100311702Y-122378034D01*
X100311702Y-122310690D01*
X100345374Y-122209675D01*
X95929142Y-112242857D02*
X95976761Y-112290476D01*
X96024380Y-112433333D01*
X96024380Y-112528571D01*
X95976761Y-112671428D01*
X95881523Y-112766666D01*
X95786285Y-112814285D01*
X95595809Y-112861904D01*
X95452952Y-112861904D01*
X95262476Y-112814285D01*
X95167238Y-112766666D01*
X95072000Y-112671428D01*
X95024380Y-112528571D01*
X95024380Y-112433333D01*
X95072000Y-112290476D01*
X95119619Y-112242857D01*
X95119619Y-111861904D02*
X95072000Y-111814285D01*
X95024380Y-111719047D01*
X95024380Y-111480952D01*
X95072000Y-111385714D01*
X95119619Y-111338095D01*
X95214857Y-111290476D01*
X95310095Y-111290476D01*
X95452952Y-111338095D01*
X96024380Y-111909523D01*
X96024380Y-111290476D01*
X96024380Y-110338095D02*
X96024380Y-110909523D01*
X96024380Y-110623809D02*
X95024380Y-110623809D01*
X95167238Y-110719047D01*
X95262476Y-110814285D01*
X95310095Y-110909523D01*
X104815642Y-99671142D02*
X104768023Y-99718761D01*
X104625166Y-99766380D01*
X104529928Y-99766380D01*
X104387071Y-99718761D01*
X104291833Y-99623523D01*
X104244214Y-99528285D01*
X104196595Y-99337809D01*
X104196595Y-99194952D01*
X104244214Y-99004476D01*
X104291833Y-98909238D01*
X104387071Y-98814000D01*
X104529928Y-98766380D01*
X104625166Y-98766380D01*
X104768023Y-98814000D01*
X104815642Y-98861619D01*
X105196595Y-98861619D02*
X105244214Y-98814000D01*
X105339452Y-98766380D01*
X105577547Y-98766380D01*
X105672785Y-98814000D01*
X105720404Y-98861619D01*
X105768023Y-98956857D01*
X105768023Y-99052095D01*
X105720404Y-99194952D01*
X105148976Y-99766380D01*
X105768023Y-99766380D01*
X106148976Y-98861619D02*
X106196595Y-98814000D01*
X106291833Y-98766380D01*
X106529928Y-98766380D01*
X106625166Y-98814000D01*
X106672785Y-98861619D01*
X106720404Y-98956857D01*
X106720404Y-99052095D01*
X106672785Y-99194952D01*
X106101357Y-99766380D01*
X106720404Y-99766380D01*
X104020142Y-109450142D02*
X103972523Y-109497761D01*
X103829666Y-109545380D01*
X103734428Y-109545380D01*
X103591571Y-109497761D01*
X103496333Y-109402523D01*
X103448714Y-109307285D01*
X103401095Y-109116809D01*
X103401095Y-108973952D01*
X103448714Y-108783476D01*
X103496333Y-108688238D01*
X103591571Y-108593000D01*
X103734428Y-108545380D01*
X103829666Y-108545380D01*
X103972523Y-108593000D01*
X104020142Y-108640619D01*
X104401095Y-108640619D02*
X104448714Y-108593000D01*
X104543952Y-108545380D01*
X104782047Y-108545380D01*
X104877285Y-108593000D01*
X104924904Y-108640619D01*
X104972523Y-108735857D01*
X104972523Y-108831095D01*
X104924904Y-108973952D01*
X104353476Y-109545380D01*
X104972523Y-109545380D01*
X105305857Y-108545380D02*
X105924904Y-108545380D01*
X105591571Y-108926333D01*
X105734428Y-108926333D01*
X105829666Y-108973952D01*
X105877285Y-109021571D01*
X105924904Y-109116809D01*
X105924904Y-109354904D01*
X105877285Y-109450142D01*
X105829666Y-109497761D01*
X105734428Y-109545380D01*
X105448714Y-109545380D01*
X105353476Y-109497761D01*
X105305857Y-109450142D01*
X104815642Y-95670642D02*
X104768023Y-95718261D01*
X104625166Y-95765880D01*
X104529928Y-95765880D01*
X104387071Y-95718261D01*
X104291833Y-95623023D01*
X104244214Y-95527785D01*
X104196595Y-95337309D01*
X104196595Y-95194452D01*
X104244214Y-95003976D01*
X104291833Y-94908738D01*
X104387071Y-94813500D01*
X104529928Y-94765880D01*
X104625166Y-94765880D01*
X104768023Y-94813500D01*
X104815642Y-94861119D01*
X105196595Y-94861119D02*
X105244214Y-94813500D01*
X105339452Y-94765880D01*
X105577547Y-94765880D01*
X105672785Y-94813500D01*
X105720404Y-94861119D01*
X105768023Y-94956357D01*
X105768023Y-95051595D01*
X105720404Y-95194452D01*
X105148976Y-95765880D01*
X105768023Y-95765880D01*
X106625166Y-95099214D02*
X106625166Y-95765880D01*
X106387071Y-94718261D02*
X106148976Y-95432547D01*
X106768023Y-95432547D01*
X101782642Y-96496142D02*
X101735023Y-96543761D01*
X101592166Y-96591380D01*
X101496928Y-96591380D01*
X101354071Y-96543761D01*
X101258833Y-96448523D01*
X101211214Y-96353285D01*
X101163595Y-96162809D01*
X101163595Y-96019952D01*
X101211214Y-95829476D01*
X101258833Y-95734238D01*
X101354071Y-95639000D01*
X101496928Y-95591380D01*
X101592166Y-95591380D01*
X101735023Y-95639000D01*
X101782642Y-95686619D01*
X102163595Y-95686619D02*
X102211214Y-95639000D01*
X102306452Y-95591380D01*
X102544547Y-95591380D01*
X102639785Y-95639000D01*
X102687404Y-95686619D01*
X102735023Y-95781857D01*
X102735023Y-95877095D01*
X102687404Y-96019952D01*
X102115976Y-96591380D01*
X102735023Y-96591380D01*
X103639785Y-95591380D02*
X103163595Y-95591380D01*
X103115976Y-96067571D01*
X103163595Y-96019952D01*
X103258833Y-95972333D01*
X103496928Y-95972333D01*
X103592166Y-96019952D01*
X103639785Y-96067571D01*
X103687404Y-96162809D01*
X103687404Y-96400904D01*
X103639785Y-96496142D01*
X103592166Y-96543761D01*
X103496928Y-96591380D01*
X103258833Y-96591380D01*
X103163595Y-96543761D01*
X103115976Y-96496142D01*
X96829642Y-96496142D02*
X96782023Y-96543761D01*
X96639166Y-96591380D01*
X96543928Y-96591380D01*
X96401071Y-96543761D01*
X96305833Y-96448523D01*
X96258214Y-96353285D01*
X96210595Y-96162809D01*
X96210595Y-96019952D01*
X96258214Y-95829476D01*
X96305833Y-95734238D01*
X96401071Y-95639000D01*
X96543928Y-95591380D01*
X96639166Y-95591380D01*
X96782023Y-95639000D01*
X96829642Y-95686619D01*
X97210595Y-95686619D02*
X97258214Y-95639000D01*
X97353452Y-95591380D01*
X97591547Y-95591380D01*
X97686785Y-95639000D01*
X97734404Y-95686619D01*
X97782023Y-95781857D01*
X97782023Y-95877095D01*
X97734404Y-96019952D01*
X97162976Y-96591380D01*
X97782023Y-96591380D01*
X98639166Y-95591380D02*
X98448690Y-95591380D01*
X98353452Y-95639000D01*
X98305833Y-95686619D01*
X98210595Y-95829476D01*
X98162976Y-96019952D01*
X98162976Y-96400904D01*
X98210595Y-96496142D01*
X98258214Y-96543761D01*
X98353452Y-96591380D01*
X98543928Y-96591380D01*
X98639166Y-96543761D01*
X98686785Y-96496142D01*
X98734404Y-96400904D01*
X98734404Y-96162809D01*
X98686785Y-96067571D01*
X98639166Y-96019952D01*
X98543928Y-95972333D01*
X98353452Y-95972333D01*
X98258214Y-96019952D01*
X98210595Y-96067571D01*
X98162976Y-96162809D01*
X122752380Y-116888095D02*
X121752380Y-116888095D01*
X121752380Y-116650000D01*
X121800000Y-116507142D01*
X121895238Y-116411904D01*
X121990476Y-116364285D01*
X122180952Y-116316666D01*
X122323809Y-116316666D01*
X122514285Y-116364285D01*
X122609523Y-116411904D01*
X122704761Y-116507142D01*
X122752380Y-116650000D01*
X122752380Y-116888095D01*
X122752380Y-115364285D02*
X122752380Y-115935714D01*
X122752380Y-115650000D02*
X121752380Y-115650000D01*
X121895238Y-115745238D01*
X121990476Y-115840476D01*
X122038095Y-115935714D01*
X100196880Y-131016333D02*
X100911166Y-131016333D01*
X101054023Y-131063952D01*
X101149261Y-131159190D01*
X101196880Y-131302047D01*
X101196880Y-131397285D01*
X100292119Y-130587761D02*
X100244500Y-130540142D01*
X100196880Y-130444904D01*
X100196880Y-130206809D01*
X100244500Y-130111571D01*
X100292119Y-130063952D01*
X100387357Y-130016333D01*
X100482595Y-130016333D01*
X100625452Y-130063952D01*
X101196880Y-130635380D01*
X101196880Y-130016333D01*
X73402770Y-85012465D02*
X72926579Y-85012465D01*
X72926579Y-84012465D01*
X74259913Y-85012465D02*
X73688484Y-85012465D01*
X73974198Y-85012465D02*
X73974198Y-84012465D01*
X73878960Y-84155323D01*
X73783722Y-84250561D01*
X73688484Y-84298180D01*
X74318833Y-101544380D02*
X73842642Y-101544380D01*
X73842642Y-100544380D01*
X74604547Y-100639619D02*
X74652166Y-100592000D01*
X74747404Y-100544380D01*
X74985500Y-100544380D01*
X75080738Y-100592000D01*
X75128357Y-100639619D01*
X75175976Y-100734857D01*
X75175976Y-100830095D01*
X75128357Y-100972952D01*
X74556928Y-101544380D01*
X75175976Y-101544380D01*
X95363299Y-71850498D02*
X95026581Y-71513780D01*
X95733688Y-70806674D01*
X96238764Y-71311750D02*
X96676497Y-71749483D01*
X96171421Y-71783155D01*
X96272436Y-71884170D01*
X96306108Y-71985185D01*
X96306108Y-72052529D01*
X96272436Y-72153544D01*
X96104077Y-72321903D01*
X96003062Y-72355574D01*
X95935719Y-72355574D01*
X95834703Y-72321903D01*
X95632673Y-72119872D01*
X95599001Y-72018857D01*
X95599001Y-71951513D01*
X85292030Y-119690732D02*
X84955312Y-120027450D01*
X84248206Y-119320343D01*
X85359374Y-118680580D02*
X85830778Y-119151984D01*
X84921641Y-118579564D02*
X85258358Y-119253000D01*
X85696091Y-118815267D01*
X92759799Y-74517498D02*
X92423081Y-74180780D01*
X93130188Y-73473674D01*
X94039325Y-74382811D02*
X93702608Y-74046093D01*
X93332219Y-74349139D01*
X93399562Y-74349139D01*
X93500577Y-74382811D01*
X93668936Y-74551170D01*
X93702608Y-74652185D01*
X93702608Y-74719529D01*
X93668936Y-74820544D01*
X93500577Y-74988903D01*
X93399562Y-75022574D01*
X93332219Y-75022574D01*
X93231203Y-74988903D01*
X93062844Y-74820544D01*
X93029173Y-74719529D01*
X93029173Y-74652185D01*
X73302833Y-88359249D02*
X72826642Y-88359249D01*
X72826642Y-87359249D01*
X74064738Y-87359249D02*
X73874261Y-87359249D01*
X73779023Y-87406869D01*
X73731404Y-87454488D01*
X73636166Y-87597345D01*
X73588547Y-87787821D01*
X73588547Y-88168773D01*
X73636166Y-88264011D01*
X73683785Y-88311630D01*
X73779023Y-88359249D01*
X73969500Y-88359249D01*
X74064738Y-88311630D01*
X74112357Y-88264011D01*
X74159976Y-88168773D01*
X74159976Y-87930678D01*
X74112357Y-87835440D01*
X74064738Y-87787821D01*
X73969500Y-87740202D01*
X73779023Y-87740202D01*
X73683785Y-87787821D01*
X73636166Y-87835440D01*
X73588547Y-87930678D01*
X73302833Y-104973380D02*
X72826642Y-104973380D01*
X72826642Y-103973380D01*
X73540928Y-103973380D02*
X74207595Y-103973380D01*
X73779023Y-104973380D01*
X87578030Y-122040232D02*
X87241312Y-122376950D01*
X86534206Y-121669843D01*
X87510687Y-121299454D02*
X87409671Y-121333125D01*
X87342328Y-121333125D01*
X87241312Y-121299454D01*
X87207641Y-121265782D01*
X87173969Y-121164767D01*
X87173969Y-121097423D01*
X87207641Y-120996408D01*
X87342328Y-120861721D01*
X87443343Y-120828049D01*
X87510687Y-120828049D01*
X87611702Y-120861721D01*
X87645374Y-120895393D01*
X87679045Y-120996408D01*
X87679045Y-121063751D01*
X87645374Y-121164767D01*
X87510687Y-121299454D01*
X87477015Y-121400469D01*
X87477015Y-121467812D01*
X87510687Y-121568828D01*
X87645374Y-121703515D01*
X87746389Y-121737187D01*
X87813732Y-121737187D01*
X87914748Y-121703515D01*
X88049435Y-121568828D01*
X88083106Y-121467812D01*
X88083106Y-121400469D01*
X88049435Y-121299454D01*
X87914748Y-121164767D01*
X87813732Y-121131095D01*
X87746389Y-121131095D01*
X87645374Y-121164767D01*
X90082192Y-77173891D02*
X89745474Y-76837173D01*
X90452581Y-76130067D01*
X90351566Y-77443265D02*
X90486253Y-77577952D01*
X90587268Y-77611624D01*
X90654612Y-77611624D01*
X90822970Y-77577952D01*
X90991329Y-77476937D01*
X91260703Y-77207563D01*
X91294375Y-77106548D01*
X91294375Y-77039204D01*
X91260703Y-76938189D01*
X91126016Y-76803502D01*
X91025001Y-76769830D01*
X90957657Y-76769830D01*
X90856642Y-76803502D01*
X90688283Y-76971861D01*
X90654612Y-77072876D01*
X90654612Y-77140219D01*
X90688283Y-77241235D01*
X90822970Y-77375922D01*
X90923986Y-77409593D01*
X90991329Y-77409593D01*
X91092344Y-77375922D01*
X72826642Y-91665435D02*
X72350452Y-91665435D01*
X72350452Y-90665435D01*
X73683785Y-91665435D02*
X73112357Y-91665435D01*
X73398071Y-91665435D02*
X73398071Y-90665435D01*
X73302833Y-90808293D01*
X73207595Y-90903531D01*
X73112357Y-90951150D01*
X74302833Y-90665435D02*
X74398071Y-90665435D01*
X74493309Y-90713055D01*
X74540928Y-90760674D01*
X74588547Y-90855912D01*
X74636166Y-91046388D01*
X74636166Y-91284483D01*
X74588547Y-91474959D01*
X74540928Y-91570197D01*
X74493309Y-91617816D01*
X74398071Y-91665435D01*
X74302833Y-91665435D01*
X74207595Y-91617816D01*
X74159976Y-91570197D01*
X74112357Y-91474959D01*
X74064738Y-91284483D01*
X74064738Y-91046388D01*
X74112357Y-90855912D01*
X74159976Y-90760674D01*
X74207595Y-90713055D01*
X74302833Y-90665435D01*
X72763142Y-108338880D02*
X72286952Y-108338880D01*
X72286952Y-107338880D01*
X73620285Y-108338880D02*
X73048857Y-108338880D01*
X73334571Y-108338880D02*
X73334571Y-107338880D01*
X73239333Y-107481738D01*
X73144095Y-107576976D01*
X73048857Y-107624595D01*
X74572666Y-108338880D02*
X74001238Y-108338880D01*
X74286952Y-108338880D02*
X74286952Y-107338880D01*
X74191714Y-107481738D01*
X74096476Y-107576976D01*
X74001238Y-107624595D01*
X89590812Y-124853450D02*
X89254095Y-125190167D01*
X88546988Y-124483061D01*
X90196904Y-124247358D02*
X89792843Y-124651419D01*
X89994874Y-124449389D02*
X89287767Y-123742282D01*
X89321438Y-123910641D01*
X89321438Y-124045328D01*
X89287767Y-124146343D01*
X89826515Y-123338221D02*
X89826515Y-123270877D01*
X89860187Y-123169862D01*
X90028545Y-123001503D01*
X90129561Y-122967832D01*
X90196904Y-122967832D01*
X90297919Y-123001503D01*
X90365263Y-123068847D01*
X90432606Y-123203534D01*
X90432606Y-124011656D01*
X90870339Y-123573923D01*
X87070482Y-79342879D02*
X86733765Y-79006162D01*
X87440871Y-78299055D01*
X87676574Y-79948971D02*
X87272513Y-79544910D01*
X87474543Y-79746941D02*
X88181650Y-79039834D01*
X88013291Y-79073505D01*
X87878604Y-79073505D01*
X87777589Y-79039834D01*
X88619383Y-79477567D02*
X89057116Y-79915299D01*
X88552039Y-79948971D01*
X88653055Y-80049986D01*
X88686726Y-80151002D01*
X88686726Y-80218345D01*
X88653055Y-80319360D01*
X88484696Y-80487719D01*
X88383681Y-80521391D01*
X88316337Y-80521391D01*
X88215322Y-80487719D01*
X88013291Y-80285689D01*
X87979620Y-80184673D01*
X87979620Y-80117330D01*
X72826642Y-94968291D02*
X72350452Y-94968291D01*
X72350452Y-93968291D01*
X73683785Y-94968291D02*
X73112357Y-94968291D01*
X73398071Y-94968291D02*
X73398071Y-93968291D01*
X73302833Y-94111149D01*
X73207595Y-94206387D01*
X73112357Y-94254006D01*
X74540928Y-94301625D02*
X74540928Y-94968291D01*
X74302833Y-93920672D02*
X74064738Y-94634958D01*
X74683785Y-94634958D01*
X72763142Y-111640880D02*
X72286952Y-111640880D01*
X72286952Y-110640880D01*
X73620285Y-111640880D02*
X73048857Y-111640880D01*
X73334571Y-111640880D02*
X73334571Y-110640880D01*
X73239333Y-110783738D01*
X73144095Y-110878976D01*
X73048857Y-110926595D01*
X74525047Y-110640880D02*
X74048857Y-110640880D01*
X74001238Y-111117071D01*
X74048857Y-111069452D01*
X74144095Y-111021833D01*
X74382190Y-111021833D01*
X74477428Y-111069452D01*
X74525047Y-111117071D01*
X74572666Y-111212309D01*
X74572666Y-111450404D01*
X74525047Y-111545642D01*
X74477428Y-111593261D01*
X74382190Y-111640880D01*
X74144095Y-111640880D01*
X74048857Y-111593261D01*
X74001238Y-111545642D01*
X91940312Y-127202950D02*
X91603595Y-127539667D01*
X90896488Y-126832561D01*
X92546404Y-126596858D02*
X92142343Y-127000919D01*
X92344374Y-126798889D02*
X91637267Y-126091782D01*
X91670938Y-126260141D01*
X91670938Y-126394828D01*
X91637267Y-126495843D01*
X92445389Y-125283660D02*
X92310702Y-125418347D01*
X92277030Y-125519362D01*
X92277030Y-125586706D01*
X92310702Y-125755064D01*
X92411717Y-125923423D01*
X92681091Y-126192797D01*
X92782106Y-126226469D01*
X92849450Y-126226469D01*
X92950465Y-126192797D01*
X93085152Y-126058110D01*
X93118824Y-125957095D01*
X93118824Y-125889751D01*
X93085152Y-125788736D01*
X92916793Y-125620377D01*
X92815778Y-125586706D01*
X92748435Y-125586706D01*
X92647419Y-125620377D01*
X92512732Y-125755064D01*
X92479061Y-125856080D01*
X92479061Y-125923423D01*
X92512732Y-126024438D01*
X72826642Y-98242380D02*
X72350452Y-98242380D01*
X72350452Y-97242380D01*
X73683785Y-98242380D02*
X73112357Y-98242380D01*
X73398071Y-98242380D02*
X73398071Y-97242380D01*
X73302833Y-97385238D01*
X73207595Y-97480476D01*
X73112357Y-97528095D01*
X74017119Y-97242380D02*
X74683785Y-97242380D01*
X74255214Y-98242380D01*
X72763142Y-114942880D02*
X72286952Y-114942880D01*
X72286952Y-113942880D01*
X73620285Y-114942880D02*
X73048857Y-114942880D01*
X73334571Y-114942880D02*
X73334571Y-113942880D01*
X73239333Y-114085738D01*
X73144095Y-114180976D01*
X73048857Y-114228595D01*
X74191714Y-114371452D02*
X74096476Y-114323833D01*
X74048857Y-114276214D01*
X74001238Y-114180976D01*
X74001238Y-114133357D01*
X74048857Y-114038119D01*
X74096476Y-113990500D01*
X74191714Y-113942880D01*
X74382190Y-113942880D01*
X74477428Y-113990500D01*
X74525047Y-114038119D01*
X74572666Y-114133357D01*
X74572666Y-114180976D01*
X74525047Y-114276214D01*
X74477428Y-114323833D01*
X74382190Y-114371452D01*
X74191714Y-114371452D01*
X74096476Y-114419071D01*
X74048857Y-114466690D01*
X74001238Y-114561928D01*
X74001238Y-114752404D01*
X74048857Y-114847642D01*
X74096476Y-114895261D01*
X74191714Y-114942880D01*
X74382190Y-114942880D01*
X74477428Y-114895261D01*
X74525047Y-114847642D01*
X74572666Y-114752404D01*
X74572666Y-114561928D01*
X74525047Y-114466690D01*
X74477428Y-114419071D01*
X74382190Y-114371452D01*
X84349267Y-82135268D02*
X84012550Y-81798551D01*
X84719656Y-81091444D01*
X84955359Y-82741360D02*
X84551298Y-82337299D01*
X84753328Y-82539330D02*
X85460435Y-81832223D01*
X85292076Y-81865894D01*
X85157389Y-81865894D01*
X85056374Y-81832223D01*
X85292076Y-83078078D02*
X85426763Y-83212765D01*
X85527779Y-83246436D01*
X85595122Y-83246436D01*
X85763481Y-83212765D01*
X85931840Y-83111749D01*
X86201214Y-82842375D01*
X86234885Y-82741360D01*
X86234885Y-82674017D01*
X86201214Y-82573001D01*
X86066527Y-82438314D01*
X85965511Y-82404643D01*
X85898168Y-82404643D01*
X85797153Y-82438314D01*
X85628794Y-82606673D01*
X85595122Y-82707688D01*
X85595122Y-82775032D01*
X85628794Y-82876047D01*
X85763481Y-83010734D01*
X85864496Y-83044406D01*
X85931840Y-83044406D01*
X86032855Y-83010734D01*
X94416813Y-129552450D02*
X94080096Y-129889167D01*
X93372989Y-129182061D01*
X93979081Y-128710656D02*
X93979081Y-128643312D01*
X94012752Y-128542297D01*
X94181111Y-128373938D01*
X94282126Y-128340267D01*
X94349470Y-128340267D01*
X94450485Y-128373938D01*
X94517829Y-128441282D01*
X94585172Y-128575969D01*
X94585172Y-129384091D01*
X95022905Y-128946358D01*
X94753531Y-127801519D02*
X94820875Y-127734175D01*
X94921890Y-127700503D01*
X94989233Y-127700503D01*
X95090249Y-127734175D01*
X95258607Y-127835190D01*
X95426966Y-128003549D01*
X95527981Y-128171908D01*
X95561653Y-128272923D01*
X95561653Y-128340267D01*
X95527981Y-128441282D01*
X95460638Y-128508625D01*
X95359623Y-128542297D01*
X95292279Y-128542297D01*
X95191264Y-128508625D01*
X95022905Y-128407610D01*
X94854546Y-128239251D01*
X94753531Y-128070893D01*
X94719859Y-127969877D01*
X94719859Y-127902534D01*
X94753531Y-127801519D01*
X99036058Y-74654446D02*
X98463638Y-74553431D01*
X98631997Y-75058507D02*
X97924890Y-74351401D01*
X98194264Y-74082026D01*
X98295279Y-74048355D01*
X98362623Y-74048355D01*
X98463638Y-74082026D01*
X98564653Y-74183042D01*
X98598325Y-74284057D01*
X98598325Y-74351401D01*
X98564653Y-74452416D01*
X98295279Y-74721790D01*
X99709493Y-73981011D02*
X99305432Y-74385072D01*
X99507463Y-74183042D02*
X98800356Y-73475935D01*
X98834028Y-73644294D01*
X98834028Y-73778981D01*
X98800356Y-73879996D01*
X96341980Y-77348522D02*
X95769560Y-77247507D01*
X95937919Y-77752583D02*
X95230812Y-77045477D01*
X95500186Y-76776102D01*
X95601201Y-76742431D01*
X95668545Y-76742431D01*
X95769560Y-76776102D01*
X95870575Y-76877118D01*
X95904247Y-76978133D01*
X95904247Y-77045477D01*
X95870575Y-77146492D01*
X95601201Y-77415866D01*
X95971591Y-76439385D02*
X95971591Y-76372041D01*
X96005262Y-76271026D01*
X96173621Y-76102667D01*
X96274637Y-76068996D01*
X96341980Y-76068996D01*
X96442995Y-76102667D01*
X96510339Y-76170011D01*
X96577682Y-76304698D01*
X96577682Y-77112820D01*
X97015415Y-76675087D01*
X93737706Y-80042600D02*
X93165286Y-79941585D01*
X93333645Y-80446661D02*
X92626538Y-79739555D01*
X92895912Y-79470180D01*
X92996927Y-79436509D01*
X93064271Y-79436509D01*
X93165286Y-79470180D01*
X93266301Y-79571196D01*
X93299973Y-79672211D01*
X93299973Y-79739555D01*
X93266301Y-79840570D01*
X92996927Y-80109944D01*
X93266301Y-79099791D02*
X93704034Y-78662058D01*
X93737706Y-79167135D01*
X93838721Y-79066119D01*
X93939737Y-79032448D01*
X94007080Y-79032448D01*
X94108095Y-79066119D01*
X94276454Y-79234478D01*
X94310126Y-79335493D01*
X94310126Y-79402837D01*
X94276454Y-79503852D01*
X94074424Y-79705883D01*
X93973408Y-79739555D01*
X93906065Y-79739555D01*
X91043629Y-82609677D02*
X90471209Y-82508662D01*
X90639568Y-83013738D02*
X89932461Y-82306632D01*
X90201835Y-82037257D01*
X90302850Y-82003586D01*
X90370194Y-82003586D01*
X90471209Y-82037257D01*
X90572224Y-82138273D01*
X90605896Y-82239288D01*
X90605896Y-82306632D01*
X90572224Y-82407647D01*
X90302850Y-82677021D01*
X91178316Y-81532181D02*
X91649721Y-82003586D01*
X90740583Y-81431166D02*
X91077301Y-82104601D01*
X91515034Y-81666868D01*
X88375855Y-85240253D02*
X87803435Y-85139238D01*
X87971794Y-85644314D02*
X87264687Y-84937208D01*
X87534061Y-84667833D01*
X87635076Y-84634162D01*
X87702420Y-84634162D01*
X87803435Y-84667833D01*
X87904450Y-84768849D01*
X87938122Y-84869864D01*
X87938122Y-84937208D01*
X87904450Y-85038223D01*
X87635076Y-85307597D01*
X88308512Y-83893383D02*
X87971794Y-84230101D01*
X88274840Y-84600490D01*
X88274840Y-84533146D01*
X88308512Y-84432131D01*
X88476870Y-84263772D01*
X88577886Y-84230101D01*
X88645229Y-84230101D01*
X88746244Y-84263772D01*
X88914603Y-84432131D01*
X88948275Y-84533146D01*
X88948275Y-84600490D01*
X88914603Y-84701505D01*
X88746244Y-84869864D01*
X88645229Y-84903536D01*
X88577886Y-84903536D01*
X77430333Y-85034380D02*
X77097000Y-84558190D01*
X76858904Y-85034380D02*
X76858904Y-84034380D01*
X77239857Y-84034380D01*
X77335095Y-84082000D01*
X77382714Y-84129619D01*
X77430333Y-84224857D01*
X77430333Y-84367714D01*
X77382714Y-84462952D01*
X77335095Y-84510571D01*
X77239857Y-84558190D01*
X76858904Y-84558190D01*
X78287476Y-84034380D02*
X78097000Y-84034380D01*
X78001761Y-84082000D01*
X77954142Y-84129619D01*
X77858904Y-84272476D01*
X77811285Y-84462952D01*
X77811285Y-84843904D01*
X77858904Y-84939142D01*
X77906523Y-84986761D01*
X78001761Y-85034380D01*
X78192238Y-85034380D01*
X78287476Y-84986761D01*
X78335095Y-84939142D01*
X78382714Y-84843904D01*
X78382714Y-84605809D01*
X78335095Y-84510571D01*
X78287476Y-84462952D01*
X78192238Y-84415333D01*
X78001761Y-84415333D01*
X77906523Y-84462952D01*
X77858904Y-84510571D01*
X77811285Y-84605809D01*
X77430333Y-88336380D02*
X77097000Y-87860190D01*
X76858904Y-88336380D02*
X76858904Y-87336380D01*
X77239857Y-87336380D01*
X77335095Y-87384000D01*
X77382714Y-87431619D01*
X77430333Y-87526857D01*
X77430333Y-87669714D01*
X77382714Y-87764952D01*
X77335095Y-87812571D01*
X77239857Y-87860190D01*
X76858904Y-87860190D01*
X77763666Y-87336380D02*
X78430333Y-87336380D01*
X78001761Y-88336380D01*
X77432725Y-91638380D02*
X77099392Y-91162190D01*
X76861296Y-91638380D02*
X76861296Y-90638380D01*
X77242249Y-90638380D01*
X77337487Y-90686000D01*
X77385106Y-90733619D01*
X77432725Y-90828857D01*
X77432725Y-90971714D01*
X77385106Y-91066952D01*
X77337487Y-91114571D01*
X77242249Y-91162190D01*
X76861296Y-91162190D01*
X78004153Y-91066952D02*
X77908915Y-91019333D01*
X77861296Y-90971714D01*
X77813677Y-90876476D01*
X77813677Y-90828857D01*
X77861296Y-90733619D01*
X77908915Y-90686000D01*
X78004153Y-90638380D01*
X78194630Y-90638380D01*
X78289868Y-90686000D01*
X78337487Y-90733619D01*
X78385106Y-90828857D01*
X78385106Y-90876476D01*
X78337487Y-90971714D01*
X78289868Y-91019333D01*
X78194630Y-91066952D01*
X78004153Y-91066952D01*
X77908915Y-91114571D01*
X77861296Y-91162190D01*
X77813677Y-91257428D01*
X77813677Y-91447904D01*
X77861296Y-91543142D01*
X77908915Y-91590761D01*
X78004153Y-91638380D01*
X78194630Y-91638380D01*
X78289868Y-91590761D01*
X78337487Y-91543142D01*
X78385106Y-91447904D01*
X78385106Y-91257428D01*
X78337487Y-91162190D01*
X78289868Y-91114571D01*
X78194630Y-91066952D01*
X77493833Y-94940380D02*
X77160500Y-94464190D01*
X76922404Y-94940380D02*
X76922404Y-93940380D01*
X77303357Y-93940380D01*
X77398595Y-93988000D01*
X77446214Y-94035619D01*
X77493833Y-94130857D01*
X77493833Y-94273714D01*
X77446214Y-94368952D01*
X77398595Y-94416571D01*
X77303357Y-94464190D01*
X76922404Y-94464190D01*
X77970023Y-94940380D02*
X78160500Y-94940380D01*
X78255738Y-94892761D01*
X78303357Y-94845142D01*
X78398595Y-94702285D01*
X78446214Y-94511809D01*
X78446214Y-94130857D01*
X78398595Y-94035619D01*
X78350976Y-93988000D01*
X78255738Y-93940380D01*
X78065261Y-93940380D01*
X77970023Y-93988000D01*
X77922404Y-94035619D01*
X77874785Y-94130857D01*
X77874785Y-94368952D01*
X77922404Y-94464190D01*
X77970023Y-94511809D01*
X78065261Y-94559428D01*
X78255738Y-94559428D01*
X78350976Y-94511809D01*
X78398595Y-94464190D01*
X78446214Y-94368952D01*
X76954142Y-98242380D02*
X76620809Y-97766190D01*
X76382714Y-98242380D02*
X76382714Y-97242380D01*
X76763666Y-97242380D01*
X76858904Y-97290000D01*
X76906523Y-97337619D01*
X76954142Y-97432857D01*
X76954142Y-97575714D01*
X76906523Y-97670952D01*
X76858904Y-97718571D01*
X76763666Y-97766190D01*
X76382714Y-97766190D01*
X77906523Y-98242380D02*
X77335095Y-98242380D01*
X77620809Y-98242380D02*
X77620809Y-97242380D01*
X77525571Y-97385238D01*
X77430333Y-97480476D01*
X77335095Y-97528095D01*
X78525571Y-97242380D02*
X78620809Y-97242380D01*
X78716047Y-97290000D01*
X78763666Y-97337619D01*
X78811285Y-97432857D01*
X78858904Y-97623333D01*
X78858904Y-97861428D01*
X78811285Y-98051904D01*
X78763666Y-98147142D01*
X78716047Y-98194761D01*
X78620809Y-98242380D01*
X78525571Y-98242380D01*
X78430333Y-98194761D01*
X78382714Y-98147142D01*
X78335095Y-98051904D01*
X78287476Y-97861428D01*
X78287476Y-97623333D01*
X78335095Y-97432857D01*
X78382714Y-97337619D01*
X78430333Y-97290000D01*
X78525571Y-97242380D01*
X76890642Y-101545380D02*
X76557309Y-101069190D01*
X76319214Y-101545380D02*
X76319214Y-100545380D01*
X76700166Y-100545380D01*
X76795404Y-100593000D01*
X76843023Y-100640619D01*
X76890642Y-100735857D01*
X76890642Y-100878714D01*
X76843023Y-100973952D01*
X76795404Y-101021571D01*
X76700166Y-101069190D01*
X76319214Y-101069190D01*
X77843023Y-101545380D02*
X77271595Y-101545380D01*
X77557309Y-101545380D02*
X77557309Y-100545380D01*
X77462071Y-100688238D01*
X77366833Y-100783476D01*
X77271595Y-100831095D01*
X78795404Y-101545380D02*
X78223976Y-101545380D01*
X78509690Y-101545380D02*
X78509690Y-100545380D01*
X78414452Y-100688238D01*
X78319214Y-100783476D01*
X78223976Y-100831095D01*
X76842142Y-104910880D02*
X76508809Y-104434690D01*
X76270714Y-104910880D02*
X76270714Y-103910880D01*
X76651666Y-103910880D01*
X76746904Y-103958500D01*
X76794523Y-104006119D01*
X76842142Y-104101357D01*
X76842142Y-104244214D01*
X76794523Y-104339452D01*
X76746904Y-104387071D01*
X76651666Y-104434690D01*
X76270714Y-104434690D01*
X77794523Y-104910880D02*
X77223095Y-104910880D01*
X77508809Y-104910880D02*
X77508809Y-103910880D01*
X77413571Y-104053738D01*
X77318333Y-104148976D01*
X77223095Y-104196595D01*
X78175476Y-104006119D02*
X78223095Y-103958500D01*
X78318333Y-103910880D01*
X78556428Y-103910880D01*
X78651666Y-103958500D01*
X78699285Y-104006119D01*
X78746904Y-104101357D01*
X78746904Y-104196595D01*
X78699285Y-104339452D01*
X78127857Y-104910880D01*
X78746904Y-104910880D01*
X76816742Y-108263680D02*
X76483409Y-107787490D01*
X76245314Y-108263680D02*
X76245314Y-107263680D01*
X76626266Y-107263680D01*
X76721504Y-107311300D01*
X76769123Y-107358919D01*
X76816742Y-107454157D01*
X76816742Y-107597014D01*
X76769123Y-107692252D01*
X76721504Y-107739871D01*
X76626266Y-107787490D01*
X76245314Y-107787490D01*
X77769123Y-108263680D02*
X77197695Y-108263680D01*
X77483409Y-108263680D02*
X77483409Y-107263680D01*
X77388171Y-107406538D01*
X77292933Y-107501776D01*
X77197695Y-107549395D01*
X78102457Y-107263680D02*
X78721504Y-107263680D01*
X78388171Y-107644633D01*
X78531028Y-107644633D01*
X78626266Y-107692252D01*
X78673885Y-107739871D01*
X78721504Y-107835109D01*
X78721504Y-108073204D01*
X78673885Y-108168442D01*
X78626266Y-108216061D01*
X78531028Y-108263680D01*
X78245314Y-108263680D01*
X78150076Y-108216061D01*
X78102457Y-108168442D01*
X76804042Y-111540280D02*
X76470709Y-111064090D01*
X76232614Y-111540280D02*
X76232614Y-110540280D01*
X76613566Y-110540280D01*
X76708804Y-110587900D01*
X76756423Y-110635519D01*
X76804042Y-110730757D01*
X76804042Y-110873614D01*
X76756423Y-110968852D01*
X76708804Y-111016471D01*
X76613566Y-111064090D01*
X76232614Y-111064090D01*
X77756423Y-111540280D02*
X77184995Y-111540280D01*
X77470709Y-111540280D02*
X77470709Y-110540280D01*
X77375471Y-110683138D01*
X77280233Y-110778376D01*
X77184995Y-110825995D01*
X78613566Y-110873614D02*
X78613566Y-111540280D01*
X78375471Y-110492661D02*
X78137376Y-111206947D01*
X78756423Y-111206947D01*
X76715142Y-114893080D02*
X76381809Y-114416890D01*
X76143714Y-114893080D02*
X76143714Y-113893080D01*
X76524666Y-113893080D01*
X76619904Y-113940700D01*
X76667523Y-113988319D01*
X76715142Y-114083557D01*
X76715142Y-114226414D01*
X76667523Y-114321652D01*
X76619904Y-114369271D01*
X76524666Y-114416890D01*
X76143714Y-114416890D01*
X77667523Y-114893080D02*
X77096095Y-114893080D01*
X77381809Y-114893080D02*
X77381809Y-113893080D01*
X77286571Y-114035938D01*
X77191333Y-114131176D01*
X77096095Y-114178795D01*
X78572285Y-113893080D02*
X78096095Y-113893080D01*
X78048476Y-114369271D01*
X78096095Y-114321652D01*
X78191333Y-114274033D01*
X78429428Y-114274033D01*
X78524666Y-114321652D01*
X78572285Y-114369271D01*
X78619904Y-114464509D01*
X78619904Y-114702604D01*
X78572285Y-114797842D01*
X78524666Y-114845461D01*
X78429428Y-114893080D01*
X78191333Y-114893080D01*
X78096095Y-114845461D01*
X78048476Y-114797842D01*
X87749312Y-117169950D02*
X87176893Y-117068935D01*
X87345251Y-117574011D02*
X86638145Y-116866904D01*
X86907519Y-116597530D01*
X87008534Y-116563858D01*
X87075877Y-116563858D01*
X87176893Y-116597530D01*
X87277908Y-116698545D01*
X87311580Y-116799561D01*
X87311580Y-116866904D01*
X87277908Y-116967919D01*
X87008534Y-117237293D01*
X88422748Y-116496515D02*
X88018687Y-116900576D01*
X88220717Y-116698545D02*
X87513610Y-115991438D01*
X87547282Y-116159797D01*
X87547282Y-116294484D01*
X87513610Y-116395500D01*
X88321732Y-115183316D02*
X88187045Y-115318003D01*
X88153374Y-115419019D01*
X88153374Y-115486362D01*
X88187045Y-115654721D01*
X88288061Y-115823080D01*
X88557435Y-116092454D01*
X88658450Y-116126125D01*
X88725793Y-116126125D01*
X88826809Y-116092454D01*
X88961496Y-115957767D01*
X88995167Y-115856751D01*
X88995167Y-115789408D01*
X88961496Y-115688393D01*
X88793137Y-115520034D01*
X88692122Y-115486362D01*
X88624778Y-115486362D01*
X88523763Y-115520034D01*
X88389076Y-115654721D01*
X88355404Y-115755736D01*
X88355404Y-115823080D01*
X88389076Y-115924095D01*
X89971811Y-119709950D02*
X89399392Y-119608935D01*
X89567750Y-120114011D02*
X88860644Y-119406904D01*
X89130018Y-119137530D01*
X89231033Y-119103858D01*
X89298376Y-119103858D01*
X89399392Y-119137530D01*
X89500407Y-119238545D01*
X89534079Y-119339561D01*
X89534079Y-119406904D01*
X89500407Y-119507919D01*
X89231033Y-119777293D01*
X90645247Y-119036515D02*
X90241186Y-119440576D01*
X90443216Y-119238545D02*
X89736109Y-118531438D01*
X89769781Y-118699797D01*
X89769781Y-118834484D01*
X89736109Y-118935500D01*
X90173842Y-118093706D02*
X90645247Y-117622301D01*
X91049308Y-118632454D01*
X92321312Y-122059450D02*
X91748893Y-121958435D01*
X91917251Y-122463511D02*
X91210145Y-121756404D01*
X91479519Y-121487030D01*
X91580534Y-121453358D01*
X91647877Y-121453358D01*
X91748893Y-121487030D01*
X91849908Y-121588045D01*
X91883580Y-121689061D01*
X91883580Y-121756404D01*
X91849908Y-121857419D01*
X91580534Y-122126793D01*
X92994748Y-121386015D02*
X92590687Y-121790076D01*
X92792717Y-121588045D02*
X92085610Y-120880938D01*
X92119282Y-121049297D01*
X92119282Y-121183984D01*
X92085610Y-121285000D01*
X92994748Y-120577893D02*
X92893732Y-120611564D01*
X92826389Y-120611564D01*
X92725374Y-120577893D01*
X92691702Y-120544221D01*
X92658030Y-120443206D01*
X92658030Y-120375862D01*
X92691702Y-120274847D01*
X92826389Y-120140160D01*
X92927404Y-120106488D01*
X92994748Y-120106488D01*
X93095763Y-120140160D01*
X93129435Y-120173832D01*
X93163106Y-120274847D01*
X93163106Y-120342190D01*
X93129435Y-120443206D01*
X92994748Y-120577893D01*
X92961076Y-120678908D01*
X92961076Y-120746251D01*
X92994748Y-120847267D01*
X93129435Y-120981954D01*
X93230450Y-121015625D01*
X93297793Y-121015625D01*
X93398809Y-120981954D01*
X93533496Y-120847267D01*
X93567167Y-120746251D01*
X93567167Y-120678908D01*
X93533496Y-120577893D01*
X93398809Y-120443206D01*
X93297793Y-120409534D01*
X93230450Y-120409534D01*
X93129435Y-120443206D01*
X94670812Y-124472449D02*
X94098393Y-124371434D01*
X94266751Y-124876510D02*
X93559645Y-124169403D01*
X93829019Y-123900029D01*
X93930034Y-123866357D01*
X93997377Y-123866357D01*
X94098393Y-123900029D01*
X94199408Y-124001044D01*
X94233080Y-124102060D01*
X94233080Y-124169403D01*
X94199408Y-124270418D01*
X93930034Y-124539792D01*
X95344248Y-123799014D02*
X94940187Y-124203075D01*
X95142217Y-124001044D02*
X94435110Y-123293937D01*
X94468782Y-123462296D01*
X94468782Y-123596983D01*
X94435110Y-123697999D01*
X95680965Y-123462296D02*
X95815652Y-123327609D01*
X95849324Y-123226594D01*
X95849324Y-123159250D01*
X95815652Y-122990892D01*
X95714637Y-122822533D01*
X95445263Y-122553159D01*
X95344248Y-122519487D01*
X95276904Y-122519487D01*
X95175889Y-122553159D01*
X95041202Y-122687846D01*
X95007530Y-122788861D01*
X95007530Y-122856205D01*
X95041202Y-122957220D01*
X95209561Y-123125579D01*
X95310576Y-123159250D01*
X95377919Y-123159250D01*
X95478935Y-123125579D01*
X95613622Y-122990892D01*
X95647293Y-122889876D01*
X95647293Y-122822533D01*
X95613622Y-122721518D01*
X97147312Y-126758450D02*
X96574893Y-126657435D01*
X96743251Y-127162511D02*
X96036145Y-126455404D01*
X96305519Y-126186030D01*
X96406534Y-126152358D01*
X96473877Y-126152358D01*
X96574893Y-126186030D01*
X96675908Y-126287045D01*
X96709580Y-126388061D01*
X96709580Y-126455404D01*
X96675908Y-126556419D01*
X96406534Y-126825793D01*
X96776923Y-125849312D02*
X96776923Y-125781969D01*
X96810595Y-125680954D01*
X96978954Y-125512595D01*
X97079969Y-125478923D01*
X97147312Y-125478923D01*
X97248328Y-125512595D01*
X97315671Y-125579938D01*
X97383015Y-125714625D01*
X97383015Y-126522748D01*
X97820748Y-126085015D01*
X97551374Y-124940175D02*
X97618717Y-124872832D01*
X97719732Y-124839160D01*
X97787076Y-124839160D01*
X97888091Y-124872832D01*
X98056450Y-124973847D01*
X98224809Y-125142206D01*
X98325824Y-125310564D01*
X98359496Y-125411580D01*
X98359496Y-125478923D01*
X98325824Y-125579938D01*
X98258480Y-125647282D01*
X98157465Y-125680954D01*
X98090122Y-125680954D01*
X97989106Y-125647282D01*
X97820748Y-125546267D01*
X97652389Y-125377908D01*
X97551374Y-125209549D01*
X97517702Y-125108534D01*
X97517702Y-125041190D01*
X97551374Y-124940175D01*
X113601666Y-111218261D02*
X113744523Y-111265880D01*
X113982619Y-111265880D01*
X114077857Y-111218261D01*
X114125476Y-111170642D01*
X114173095Y-111075404D01*
X114173095Y-110980166D01*
X114125476Y-110884928D01*
X114077857Y-110837309D01*
X113982619Y-110789690D01*
X113792142Y-110742071D01*
X113696904Y-110694452D01*
X113649285Y-110646833D01*
X113601666Y-110551595D01*
X113601666Y-110456357D01*
X113649285Y-110361119D01*
X113696904Y-110313500D01*
X113792142Y-110265880D01*
X114030238Y-110265880D01*
X114173095Y-110313500D01*
X114506428Y-110265880D02*
X114744523Y-111265880D01*
X114935000Y-110551595D01*
X115125476Y-111265880D01*
X115363571Y-110265880D01*
X116268333Y-111265880D02*
X115696904Y-111265880D01*
X115982619Y-111265880D02*
X115982619Y-110265880D01*
X115887380Y-110408738D01*
X115792142Y-110503976D01*
X115696904Y-110551595D01*
X100535167Y-107645163D02*
X101107587Y-108217583D01*
X101208602Y-108251255D01*
X101275946Y-108251255D01*
X101376961Y-108217583D01*
X101511648Y-108082896D01*
X101545320Y-107981881D01*
X101545320Y-107914537D01*
X101511648Y-107813522D01*
X100939228Y-107241102D01*
X102353442Y-107241102D02*
X101949381Y-107645163D01*
X102151411Y-107443133D02*
X101444305Y-106736026D01*
X101477976Y-106904385D01*
X101477976Y-107039072D01*
X101444305Y-107140087D01*
X119252380Y-116780357D02*
X118776190Y-117113690D01*
X119252380Y-117351785D02*
X118252380Y-117351785D01*
X118252380Y-116970833D01*
X118300000Y-116875595D01*
X118347619Y-116827976D01*
X118442857Y-116780357D01*
X118585714Y-116780357D01*
X118680952Y-116827976D01*
X118728571Y-116875595D01*
X118776190Y-116970833D01*
X118776190Y-117351785D01*
X118347619Y-116399404D02*
X118300000Y-116351785D01*
X118252380Y-116256547D01*
X118252380Y-116018452D01*
X118300000Y-115923214D01*
X118347619Y-115875595D01*
X118442857Y-115827976D01*
X118538095Y-115827976D01*
X118680952Y-115875595D01*
X119252380Y-116447023D01*
X119252380Y-115827976D01*
X119252380Y-114875595D02*
X119252380Y-115447023D01*
X119252380Y-115161309D02*
X118252380Y-115161309D01*
X118395238Y-115256547D01*
X118490476Y-115351785D01*
X118538095Y-115447023D01*
X109351666Y-80447380D02*
X109351666Y-81161666D01*
X109304047Y-81304523D01*
X109208809Y-81399761D01*
X109065952Y-81447380D01*
X108970714Y-81447380D01*
X110304047Y-80447380D02*
X109827857Y-80447380D01*
X109780238Y-80923571D01*
X109827857Y-80875952D01*
X109923095Y-80828333D01*
X110161190Y-80828333D01*
X110256428Y-80875952D01*
X110304047Y-80923571D01*
X110351666Y-81018809D01*
X110351666Y-81256904D01*
X110304047Y-81352142D01*
X110256428Y-81399761D01*
X110161190Y-81447380D01*
X109923095Y-81447380D01*
X109827857Y-81399761D01*
X109780238Y-81352142D01*
X57573666Y-83644880D02*
X57573666Y-84359166D01*
X57526047Y-84502023D01*
X57430809Y-84597261D01*
X57287952Y-84644880D01*
X57192714Y-84644880D01*
X58573666Y-84644880D02*
X58002238Y-84644880D01*
X58287952Y-84644880D02*
X58287952Y-83644880D01*
X58192714Y-83787738D01*
X58097476Y-83882976D01*
X58002238Y-83930595D01*
M02*
