M48
; DRILL file {KiCad (6.0.1)} date Wed Feb  2 09:53:10 2022
; FORMAT={-:-/ absolute / inch / decimal}
; #@! TF.CreationDate,2022-02-02T09:53:10-06:00
; #@! TF.GenerationSoftware,Kicad,Pcbnew,(6.0.1)
; #@! TF.FileFunction,Plated,1,2,PTH
FMAT,2
INCH
; #@! TA.AperFunction,Plated,PTH,ViaDrill
T1C0.0118
; #@! TA.AperFunction,Plated,PTH,ViaDrill
T2C0.0197
; #@! TA.AperFunction,Plated,PTH,ComponentDrill
T3C0.0394
; #@! TA.AperFunction,Plated,PTH,ComponentDrill
T4C0.0402
; #@! TA.AperFunction,Plated,PTH,ComponentDrill
T5C0.0433
; #@! TA.AperFunction,Plated,PTH,ComponentDrill
T6C0.0512
; #@! TA.AperFunction,Plated,PTH,ComponentDrill
T7C0.0551
; #@! TA.AperFunction,Plated,PTH,ComponentDrill
T8C0.0591
; #@! TA.AperFunction,Plated,PTH,ComponentDrill
T9C0.0984
; #@! TA.AperFunction,Plated,PTH,ComponentDrill
T10C0.1260
%
G90
G05
T1
X1.9898Y-4.0646
X1.9902Y-4.1792
X2.3026Y-3.9408
X2.3906Y-4.0676
X2.4776Y-3.0991
X2.4848Y-3.3594
X2.5917Y-3.0985
X2.7364Y-3.4209
X2.774Y-3.1554
X2.8328Y-4.7829
X2.8334Y-4.5162
X2.8728Y-3.3582
X2.8728Y-3.8707
X2.8728Y-4.027
X2.8728Y-4.1144
X2.8734Y-3.978
X2.9495Y-4.5158
X2.9721Y-5.49
X3.0094Y-4.2539
X3.0102Y-4.0681
X3.103Y-5.4605
X3.1061Y-4.0681
X3.1075Y-4.3512
X3.1318Y-4.5796
X3.1322Y-4.7837
X3.1979Y-5.4612
X3.1985Y-5.4175
X3.2167Y-5.1181
X3.4656Y-5.0136
X3.5155Y-3.0711
X3.5156Y-3.1892
X3.5737Y-4.9055
X3.8903Y-3.1999
X3.8979Y-3.1059
X4.0017Y-3.4567
X4.0749Y-3.2829
X4.3502Y-5.8179
X4.4074Y-3.4372
X4.4076Y-3.2004
X4.4076Y-3.2793
X4.4076Y-3.3583
X4.4246Y-4.115
X4.4837Y-5.8177
X4.5897Y-3.4077
X4.5903Y-3.4581
X4.601Y-5.1748
X4.601Y-5.2563
X4.6181Y-5.8182
X4.6628Y-5.1746
X4.6628Y-5.2555
X4.6848Y-5.0148
X4.7207Y-5.1748
X4.7207Y-5.2579
X4.7522Y-5.8186
X4.7551Y-5.0148
X4.7637Y-3.0085
X4.7906Y-3.4577
X4.7912Y-3.1118
X4.7922Y-3.2081
X4.8882Y-5.8186
X4.9086Y-3.4577
X4.9092Y-3.2081
X4.9094Y-3.1114
T2
X2.3906Y-4.1848
X2.4306Y-4.6754
X2.6992Y-3.036
X2.6992Y-3.1554
X2.7099Y-4.6465
X3.0567Y-4.4681
X3.057Y-4.5796
X3.3258Y-3.8431
X3.4144Y-4.8634
X3.6484Y-3.8417
X3.6498Y-3.7004
X3.6898Y-4.7325
X3.6902Y-4.9043
X3.7346Y-4.2923
X3.7638Y-3.7002
X4.0343Y-4.1156
X4.1358Y-3.7073
X4.1945Y-5.513
X4.4248Y-5.1156
X4.4364Y-5.3394
X4.4364Y-5.4142
X4.4547Y-3.8443
X4.5719Y-3.8478
X4.8091Y-5.1152
T3
X3.9326Y-2.9057
X4.0326Y-2.9057
T4
X3.3271Y-3.0709
X3.3271Y-3.189
X3.3271Y-3.3071
X3.3271Y-3.4252
X3.6721Y-3.0713
X3.6721Y-3.1894
X3.6721Y-3.3075
X3.6721Y-3.4256
X3.9031Y-5.4266
X4.0213Y-5.4266
X4.3171Y-4.0152
X4.3171Y-4.1152
X4.3171Y-4.2152
X4.3171Y-4.3152
X4.3171Y-4.4152
X4.3171Y-4.5152
X4.3171Y-4.6152
X4.3171Y-4.7152
X4.3171Y-4.8152
X4.3171Y-4.9152
X4.3171Y-5.0152
X4.3171Y-5.1152
X4.3171Y-5.2152
X4.3171Y-5.3152
X4.3171Y-5.4152
X4.9171Y-4.0152
X4.9171Y-4.1152
X4.9171Y-4.2152
X4.9171Y-4.3152
X4.9171Y-4.4152
X4.9171Y-4.5152
X4.9171Y-4.6152
X4.9171Y-4.7152
X4.9171Y-4.8152
X4.9171Y-4.9152
X4.9171Y-5.0152
X4.9171Y-5.1152
X4.9171Y-5.2152
X4.9171Y-5.3152
X4.9171Y-5.4152
T5
X1.4254Y-3.1457
X1.4256Y-3.526
X1.5254Y-3.1457
X1.5256Y-3.526
X1.6254Y-3.1457
X1.6256Y-3.526
X3.8565Y-5.7154
X3.8565Y-5.8925
X4.1124Y-5.7154
X4.1124Y-5.8925
T6
X1.161Y-4.4754
X1.161Y-4.6754
X1.161Y-4.7754
X1.461Y-4.4754
X1.461Y-4.6754
X1.461Y-4.7754
X1.761Y-4.4754
X1.761Y-4.6754
X1.761Y-4.7754
X2.061Y-4.4754
X2.061Y-4.6754
X2.061Y-4.7754
T7
X0.8175Y-4.1189
X1.7663Y-4.1189
T8
X2.7289Y-5.3193
X2.7289Y-5.5455
X2.842Y-5.1234
X2.842Y-5.7414
X3.0379Y-5.0103
X3.0379Y-5.8545
X3.0501Y-5.3193
X3.0501Y-5.5455
X3.252Y-5.3193
X3.252Y-5.5455
X3.2642Y-5.0103
X3.2642Y-5.8545
X3.4601Y-5.1234
X3.4601Y-5.7414
X3.5732Y-5.3193
X3.5732Y-5.5455
T9
X1.0256Y-3.3367
X2.0256Y-3.3367
T10
X0.8437Y-4.8825
X2.3783Y-4.8825
T0
M30
