%TF.GenerationSoftware,KiCad,Pcbnew,(6.0.1)*%
%TF.CreationDate,2022-02-11T00:18:45-06:00*%
%TF.ProjectId,IV Curve Tracer,49562043-7572-4766-9520-547261636572,1.2.0*%
%TF.SameCoordinates,Original*%
%TF.FileFunction,Legend,Top*%
%TF.FilePolarity,Positive*%
%FSLAX46Y46*%
G04 Gerber Fmt 4.6, Leading zero omitted, Abs format (unit mm)*
G04 Created by KiCad (PCBNEW (6.0.1)) date 2022-02-11 00:18:45*
%MOMM*%
%LPD*%
G01*
G04 APERTURE LIST*
%ADD10C,0.120000*%
%ADD11C,0.200000*%
%ADD12C,0.150000*%
%ADD13C,0.300000*%
%ADD14C,0.015000*%
%ADD15C,0.254000*%
%ADD16C,0.127000*%
%ADD17C,0.100000*%
%ADD18C,0.152400*%
G04 APERTURE END LIST*
D10*
X47664989Y-97792654D02*
X47664989Y-105802654D01*
X62414989Y-97762654D02*
X62414989Y-105772654D01*
X55369989Y-97792654D02*
X55369989Y-105802654D01*
D11*
X83108560Y-50866225D02*
X82394274Y-50866225D01*
X82394274Y-49366225D01*
X83608560Y-50866225D02*
X83608560Y-49366225D01*
X83608560Y-50080511D02*
X84465703Y-50080511D01*
X84465703Y-50866225D02*
X84465703Y-49366225D01*
X86037131Y-50866225D02*
X85537131Y-50151939D01*
X85179989Y-50866225D02*
X85179989Y-49366225D01*
X85751417Y-49366225D01*
X85894274Y-49437654D01*
X85965703Y-49509082D01*
X86037131Y-49651939D01*
X86037131Y-49866225D01*
X85965703Y-50009082D01*
X85894274Y-50080511D01*
X85751417Y-50151939D01*
X85179989Y-50151939D01*
X87751417Y-50794796D02*
X87965703Y-50866225D01*
X88322846Y-50866225D01*
X88465703Y-50794796D01*
X88537131Y-50723368D01*
X88608560Y-50580511D01*
X88608560Y-50437654D01*
X88537131Y-50294796D01*
X88465703Y-50223368D01*
X88322846Y-50151939D01*
X88037131Y-50080511D01*
X87894274Y-50009082D01*
X87822846Y-49937654D01*
X87751417Y-49794796D01*
X87751417Y-49651939D01*
X87822846Y-49509082D01*
X87894274Y-49437654D01*
X88037131Y-49366225D01*
X88394274Y-49366225D01*
X88608560Y-49437654D01*
X89465703Y-50866225D02*
X89322846Y-50794796D01*
X89251417Y-50723368D01*
X89179989Y-50580511D01*
X89179989Y-50151939D01*
X89251417Y-50009082D01*
X89322846Y-49937654D01*
X89465703Y-49866225D01*
X89679989Y-49866225D01*
X89822846Y-49937654D01*
X89894274Y-50009082D01*
X89965703Y-50151939D01*
X89965703Y-50580511D01*
X89894274Y-50723368D01*
X89822846Y-50794796D01*
X89679989Y-50866225D01*
X89465703Y-50866225D01*
X90822846Y-50866225D02*
X90679989Y-50794796D01*
X90608560Y-50651939D01*
X90608560Y-49366225D01*
X92037131Y-50866225D02*
X92037131Y-50080511D01*
X91965703Y-49937654D01*
X91822846Y-49866225D01*
X91537131Y-49866225D01*
X91394274Y-49937654D01*
X92037131Y-50794796D02*
X91894274Y-50866225D01*
X91537131Y-50866225D01*
X91394274Y-50794796D01*
X91322846Y-50651939D01*
X91322846Y-50509082D01*
X91394274Y-50366225D01*
X91537131Y-50294796D01*
X91894274Y-50294796D01*
X92037131Y-50223368D01*
X92751417Y-50866225D02*
X92751417Y-49866225D01*
X92751417Y-50151939D02*
X92822846Y-50009082D01*
X92894274Y-49937654D01*
X93037131Y-49866225D01*
X93179989Y-49866225D01*
X78929989Y-53281225D02*
X78929989Y-51781225D01*
X79501417Y-51781225D01*
X79644274Y-51852654D01*
X79715703Y-51924082D01*
X79787131Y-52066939D01*
X79787131Y-52281225D01*
X79715703Y-52424082D01*
X79644274Y-52495511D01*
X79501417Y-52566939D01*
X78929989Y-52566939D01*
X80215703Y-51781225D02*
X80715703Y-53281225D01*
X81215703Y-51781225D01*
X83715703Y-53138368D02*
X83644274Y-53209796D01*
X83429989Y-53281225D01*
X83287131Y-53281225D01*
X83072846Y-53209796D01*
X82929989Y-53066939D01*
X82858560Y-52924082D01*
X82787131Y-52638368D01*
X82787131Y-52424082D01*
X82858560Y-52138368D01*
X82929989Y-51995511D01*
X83072846Y-51852654D01*
X83287131Y-51781225D01*
X83429989Y-51781225D01*
X83644274Y-51852654D01*
X83715703Y-51924082D01*
X85001417Y-52281225D02*
X85001417Y-53281225D01*
X84358560Y-52281225D02*
X84358560Y-53066939D01*
X84429989Y-53209796D01*
X84572846Y-53281225D01*
X84787131Y-53281225D01*
X84929989Y-53209796D01*
X85001417Y-53138368D01*
X85715703Y-53281225D02*
X85715703Y-52281225D01*
X85715703Y-52566939D02*
X85787131Y-52424082D01*
X85858560Y-52352654D01*
X86001417Y-52281225D01*
X86144274Y-52281225D01*
X86501417Y-52281225D02*
X86858560Y-53281225D01*
X87215703Y-52281225D01*
X88358560Y-53209796D02*
X88215703Y-53281225D01*
X87929989Y-53281225D01*
X87787131Y-53209796D01*
X87715703Y-53066939D01*
X87715703Y-52495511D01*
X87787131Y-52352654D01*
X87929989Y-52281225D01*
X88215703Y-52281225D01*
X88358560Y-52352654D01*
X88429989Y-52495511D01*
X88429989Y-52638368D01*
X87715703Y-52781225D01*
X90001417Y-51781225D02*
X90858560Y-51781225D01*
X90429989Y-53281225D02*
X90429989Y-51781225D01*
X91358560Y-53281225D02*
X91358560Y-52281225D01*
X91358560Y-52566939D02*
X91429989Y-52424082D01*
X91501417Y-52352654D01*
X91644274Y-52281225D01*
X91787131Y-52281225D01*
X92929989Y-53281225D02*
X92929989Y-52495511D01*
X92858560Y-52352654D01*
X92715703Y-52281225D01*
X92429989Y-52281225D01*
X92287131Y-52352654D01*
X92929989Y-53209796D02*
X92787131Y-53281225D01*
X92429989Y-53281225D01*
X92287131Y-53209796D01*
X92215703Y-53066939D01*
X92215703Y-52924082D01*
X92287131Y-52781225D01*
X92429989Y-52709796D01*
X92787131Y-52709796D01*
X92929989Y-52638368D01*
X94287131Y-53209796D02*
X94144274Y-53281225D01*
X93858560Y-53281225D01*
X93715703Y-53209796D01*
X93644274Y-53138368D01*
X93572846Y-52995511D01*
X93572846Y-52566939D01*
X93644274Y-52424082D01*
X93715703Y-52352654D01*
X93858560Y-52281225D01*
X94144274Y-52281225D01*
X94287131Y-52352654D01*
X95501417Y-53209796D02*
X95358560Y-53281225D01*
X95072846Y-53281225D01*
X94929989Y-53209796D01*
X94858560Y-53066939D01*
X94858560Y-52495511D01*
X94929989Y-52352654D01*
X95072846Y-52281225D01*
X95358560Y-52281225D01*
X95501417Y-52352654D01*
X95572846Y-52495511D01*
X95572846Y-52638368D01*
X94858560Y-52781225D01*
X96215703Y-53281225D02*
X96215703Y-52281225D01*
X96215703Y-52566939D02*
X96287131Y-52424082D01*
X96358560Y-52352654D01*
X96501417Y-52281225D01*
X96644274Y-52281225D01*
X84465703Y-54696225D02*
X84822846Y-55696225D01*
X85179989Y-54696225D01*
X86537131Y-55696225D02*
X85679989Y-55696225D01*
X86108560Y-55696225D02*
X86108560Y-54196225D01*
X85965703Y-54410511D01*
X85822846Y-54553368D01*
X85679989Y-54624796D01*
X87179989Y-55553368D02*
X87251417Y-55624796D01*
X87179989Y-55696225D01*
X87108560Y-55624796D01*
X87179989Y-55553368D01*
X87179989Y-55696225D01*
X87822846Y-54339082D02*
X87894274Y-54267654D01*
X88037131Y-54196225D01*
X88394274Y-54196225D01*
X88537131Y-54267654D01*
X88608560Y-54339082D01*
X88679989Y-54481939D01*
X88679989Y-54624796D01*
X88608560Y-54839082D01*
X87751417Y-55696225D01*
X88679989Y-55696225D01*
X89322846Y-55553368D02*
X89394274Y-55624796D01*
X89322846Y-55696225D01*
X89251417Y-55624796D01*
X89322846Y-55553368D01*
X89322846Y-55696225D01*
X90322846Y-54196225D02*
X90465703Y-54196225D01*
X90608560Y-54267654D01*
X90679989Y-54339082D01*
X90751417Y-54481939D01*
X90822846Y-54767654D01*
X90822846Y-55124796D01*
X90751417Y-55410511D01*
X90679989Y-55553368D01*
X90608560Y-55624796D01*
X90465703Y-55696225D01*
X90322846Y-55696225D01*
X90179989Y-55624796D01*
X90108560Y-55553368D01*
X90037131Y-55410511D01*
X89965703Y-55124796D01*
X89965703Y-54767654D01*
X90037131Y-54481939D01*
X90108560Y-54339082D01*
X90179989Y-54267654D01*
X90322846Y-54196225D01*
X80965703Y-58039796D02*
X81179989Y-58111225D01*
X81537131Y-58111225D01*
X81679989Y-58039796D01*
X81751417Y-57968368D01*
X81822846Y-57825511D01*
X81822846Y-57682654D01*
X81751417Y-57539796D01*
X81679989Y-57468368D01*
X81537131Y-57396939D01*
X81251417Y-57325511D01*
X81108560Y-57254082D01*
X81037131Y-57182654D01*
X80965703Y-57039796D01*
X80965703Y-56896939D01*
X81037131Y-56754082D01*
X81108560Y-56682654D01*
X81251417Y-56611225D01*
X81608560Y-56611225D01*
X81822846Y-56682654D01*
X82465703Y-57111225D02*
X82465703Y-58611225D01*
X82465703Y-57182654D02*
X82608560Y-57111225D01*
X82894274Y-57111225D01*
X83037131Y-57182654D01*
X83108560Y-57254082D01*
X83179989Y-57396939D01*
X83179989Y-57825511D01*
X83108560Y-57968368D01*
X83037131Y-58039796D01*
X82894274Y-58111225D01*
X82608560Y-58111225D01*
X82465703Y-58039796D01*
X83822846Y-58111225D02*
X83822846Y-57111225D01*
X83822846Y-57396939D02*
X83894274Y-57254082D01*
X83965703Y-57182654D01*
X84108560Y-57111225D01*
X84251417Y-57111225D01*
X84751417Y-58111225D02*
X84751417Y-57111225D01*
X84751417Y-56611225D02*
X84679989Y-56682654D01*
X84751417Y-56754082D01*
X84822846Y-56682654D01*
X84751417Y-56611225D01*
X84751417Y-56754082D01*
X85465703Y-57111225D02*
X85465703Y-58111225D01*
X85465703Y-57254082D02*
X85537131Y-57182654D01*
X85679989Y-57111225D01*
X85894274Y-57111225D01*
X86037131Y-57182654D01*
X86108560Y-57325511D01*
X86108560Y-58111225D01*
X87465703Y-57111225D02*
X87465703Y-58325511D01*
X87394274Y-58468368D01*
X87322846Y-58539796D01*
X87179989Y-58611225D01*
X86965703Y-58611225D01*
X86822846Y-58539796D01*
X87465703Y-58039796D02*
X87322846Y-58111225D01*
X87037131Y-58111225D01*
X86894274Y-58039796D01*
X86822846Y-57968368D01*
X86751417Y-57825511D01*
X86751417Y-57396939D01*
X86822846Y-57254082D01*
X86894274Y-57182654D01*
X87037131Y-57111225D01*
X87322846Y-57111225D01*
X87465703Y-57182654D01*
X89251417Y-56754082D02*
X89322846Y-56682654D01*
X89465703Y-56611225D01*
X89822846Y-56611225D01*
X89965703Y-56682654D01*
X90037131Y-56754082D01*
X90108560Y-56896939D01*
X90108560Y-57039796D01*
X90037131Y-57254082D01*
X89179989Y-58111225D01*
X90108560Y-58111225D01*
X91037131Y-56611225D02*
X91179989Y-56611225D01*
X91322846Y-56682654D01*
X91394274Y-56754082D01*
X91465703Y-56896939D01*
X91537131Y-57182654D01*
X91537131Y-57539796D01*
X91465703Y-57825511D01*
X91394274Y-57968368D01*
X91322846Y-58039796D01*
X91179989Y-58111225D01*
X91037131Y-58111225D01*
X90894274Y-58039796D01*
X90822846Y-57968368D01*
X90751417Y-57825511D01*
X90679989Y-57539796D01*
X90679989Y-57182654D01*
X90751417Y-56896939D01*
X90822846Y-56754082D01*
X90894274Y-56682654D01*
X91037131Y-56611225D01*
X92108560Y-56754082D02*
X92179989Y-56682654D01*
X92322846Y-56611225D01*
X92679989Y-56611225D01*
X92822846Y-56682654D01*
X92894274Y-56754082D01*
X92965703Y-56896939D01*
X92965703Y-57039796D01*
X92894274Y-57254082D01*
X92037131Y-58111225D01*
X92965703Y-58111225D01*
X93537131Y-56754082D02*
X93608560Y-56682654D01*
X93751417Y-56611225D01*
X94108560Y-56611225D01*
X94251417Y-56682654D01*
X94322846Y-56754082D01*
X94394274Y-56896939D01*
X94394274Y-57039796D01*
X94322846Y-57254082D01*
X93465703Y-58111225D01*
X94394274Y-58111225D01*
X79215703Y-59811939D02*
X79215703Y-60526225D01*
X78715703Y-59026225D02*
X79215703Y-59811939D01*
X79715703Y-59026225D01*
X80429989Y-60526225D02*
X80287131Y-60454796D01*
X80215703Y-60383368D01*
X80144274Y-60240511D01*
X80144274Y-59811939D01*
X80215703Y-59669082D01*
X80287131Y-59597654D01*
X80429989Y-59526225D01*
X80644274Y-59526225D01*
X80787131Y-59597654D01*
X80858560Y-59669082D01*
X80929989Y-59811939D01*
X80929989Y-60240511D01*
X80858560Y-60383368D01*
X80787131Y-60454796D01*
X80644274Y-60526225D01*
X80429989Y-60526225D01*
X82215703Y-59526225D02*
X82215703Y-60526225D01*
X81572846Y-59526225D02*
X81572846Y-60311939D01*
X81644274Y-60454796D01*
X81787131Y-60526225D01*
X82001417Y-60526225D01*
X82144274Y-60454796D01*
X82215703Y-60383368D01*
X82858560Y-60454796D02*
X83001417Y-60526225D01*
X83287131Y-60526225D01*
X83429989Y-60454796D01*
X83501417Y-60311939D01*
X83501417Y-60240511D01*
X83429989Y-60097654D01*
X83287131Y-60026225D01*
X83072846Y-60026225D01*
X82929989Y-59954796D01*
X82858560Y-59811939D01*
X82858560Y-59740511D01*
X82929989Y-59597654D01*
X83072846Y-59526225D01*
X83287131Y-59526225D01*
X83429989Y-59597654D01*
X84072846Y-60454796D02*
X84215703Y-60526225D01*
X84501417Y-60526225D01*
X84644274Y-60454796D01*
X84715703Y-60311939D01*
X84715703Y-60240511D01*
X84644274Y-60097654D01*
X84501417Y-60026225D01*
X84287131Y-60026225D01*
X84144274Y-59954796D01*
X84072846Y-59811939D01*
X84072846Y-59740511D01*
X84144274Y-59597654D01*
X84287131Y-59526225D01*
X84501417Y-59526225D01*
X84644274Y-59597654D01*
X85929989Y-60454796D02*
X85787131Y-60526225D01*
X85501417Y-60526225D01*
X85358560Y-60454796D01*
X85287131Y-60311939D01*
X85287131Y-59740511D01*
X85358560Y-59597654D01*
X85501417Y-59526225D01*
X85787131Y-59526225D01*
X85929989Y-59597654D01*
X86001417Y-59740511D01*
X86001417Y-59883368D01*
X85287131Y-60026225D01*
X86429989Y-59526225D02*
X87001417Y-59526225D01*
X86644274Y-60526225D02*
X86644274Y-59240511D01*
X86715703Y-59097654D01*
X86858560Y-59026225D01*
X87001417Y-59026225D01*
X88644274Y-59740511D02*
X89144274Y-59740511D01*
X89358560Y-60526225D02*
X88644274Y-60526225D01*
X88644274Y-59026225D01*
X89358560Y-59026225D01*
X90215703Y-60526225D02*
X90072846Y-60454796D01*
X90001417Y-60311939D01*
X90001417Y-59026225D01*
X90715703Y-60454796D02*
X90858560Y-60526225D01*
X91144274Y-60526225D01*
X91287131Y-60454796D01*
X91358560Y-60311939D01*
X91358560Y-60240511D01*
X91287131Y-60097654D01*
X91144274Y-60026225D01*
X90929989Y-60026225D01*
X90787131Y-59954796D01*
X90715703Y-59811939D01*
X90715703Y-59740511D01*
X90787131Y-59597654D01*
X90929989Y-59526225D01*
X91144274Y-59526225D01*
X91287131Y-59597654D01*
X92001417Y-60526225D02*
X92001417Y-59026225D01*
X92644274Y-60526225D02*
X92644274Y-59740511D01*
X92572846Y-59597654D01*
X92429989Y-59526225D01*
X92215703Y-59526225D01*
X92072846Y-59597654D01*
X92001417Y-59669082D01*
X93929989Y-60454796D02*
X93787131Y-60526225D01*
X93501417Y-60526225D01*
X93358560Y-60454796D01*
X93287131Y-60311939D01*
X93287131Y-59740511D01*
X93358560Y-59597654D01*
X93501417Y-59526225D01*
X93787131Y-59526225D01*
X93929989Y-59597654D01*
X94001417Y-59740511D01*
X94001417Y-59883368D01*
X93287131Y-60026225D01*
X94644274Y-60526225D02*
X94644274Y-59526225D01*
X94644274Y-59811939D02*
X94715703Y-59669082D01*
X94787131Y-59597654D01*
X94929989Y-59526225D01*
X95072846Y-59526225D01*
X95572846Y-60526225D02*
X95572846Y-59526225D01*
X95572846Y-59026225D02*
X95501417Y-59097654D01*
X95572846Y-59169082D01*
X95644274Y-59097654D01*
X95572846Y-59026225D01*
X95572846Y-59169082D01*
X96072846Y-59526225D02*
X96644274Y-59526225D01*
X96287131Y-60526225D02*
X96287131Y-59240511D01*
X96358560Y-59097654D01*
X96501417Y-59026225D01*
X96644274Y-59026225D01*
X81608560Y-61512654D02*
X81465703Y-61441225D01*
X81251417Y-61441225D01*
X81037131Y-61512654D01*
X80894274Y-61655511D01*
X80822846Y-61798368D01*
X80751417Y-62084082D01*
X80751417Y-62298368D01*
X80822846Y-62584082D01*
X80894274Y-62726939D01*
X81037131Y-62869796D01*
X81251417Y-62941225D01*
X81394274Y-62941225D01*
X81608560Y-62869796D01*
X81679989Y-62798368D01*
X81679989Y-62298368D01*
X81394274Y-62298368D01*
X82965703Y-62941225D02*
X82965703Y-62155511D01*
X82894274Y-62012654D01*
X82751417Y-61941225D01*
X82465703Y-61941225D01*
X82322846Y-62012654D01*
X82965703Y-62869796D02*
X82822846Y-62941225D01*
X82465703Y-62941225D01*
X82322846Y-62869796D01*
X82251417Y-62726939D01*
X82251417Y-62584082D01*
X82322846Y-62441225D01*
X82465703Y-62369796D01*
X82822846Y-62369796D01*
X82965703Y-62298368D01*
X83679989Y-62941225D02*
X83679989Y-61941225D01*
X83679989Y-62226939D02*
X83751417Y-62084082D01*
X83822846Y-62012654D01*
X83965703Y-61941225D01*
X84108560Y-61941225D01*
X84465703Y-61941225D02*
X84822846Y-62941225D01*
X85179989Y-61941225D02*
X84822846Y-62941225D01*
X84679989Y-63298368D01*
X84608560Y-63369796D01*
X84465703Y-63441225D01*
X86894274Y-62941225D02*
X86894274Y-61441225D01*
X86894274Y-62155511D02*
X87751417Y-62155511D01*
X87751417Y-62941225D02*
X87751417Y-61441225D01*
X89108560Y-62941225D02*
X89108560Y-62155511D01*
X89037131Y-62012654D01*
X88894274Y-61941225D01*
X88608560Y-61941225D01*
X88465703Y-62012654D01*
X89108560Y-62869796D02*
X88965703Y-62941225D01*
X88608560Y-62941225D01*
X88465703Y-62869796D01*
X88394274Y-62726939D01*
X88394274Y-62584082D01*
X88465703Y-62441225D01*
X88608560Y-62369796D01*
X88965703Y-62369796D01*
X89108560Y-62298368D01*
X90037131Y-62941225D02*
X89894274Y-62869796D01*
X89822846Y-62726939D01*
X89822846Y-61441225D01*
X90822846Y-62941225D02*
X90679989Y-62869796D01*
X90608560Y-62726939D01*
X90608560Y-61441225D01*
X91608560Y-62941225D02*
X91465703Y-62869796D01*
X91394274Y-62798368D01*
X91322846Y-62655511D01*
X91322846Y-62226939D01*
X91394274Y-62084082D01*
X91465703Y-62012654D01*
X91608560Y-61941225D01*
X91822846Y-61941225D01*
X91965703Y-62012654D01*
X92037131Y-62084082D01*
X92108560Y-62226939D01*
X92108560Y-62655511D01*
X92037131Y-62798368D01*
X91965703Y-62869796D01*
X91822846Y-62941225D01*
X91608560Y-62941225D01*
X93394274Y-62869796D02*
X93251417Y-62941225D01*
X92965703Y-62941225D01*
X92822846Y-62869796D01*
X92751417Y-62798368D01*
X92679989Y-62655511D01*
X92679989Y-62226939D01*
X92751417Y-62084082D01*
X92822846Y-62012654D01*
X92965703Y-61941225D01*
X93251417Y-61941225D01*
X93394274Y-62012654D01*
X94037131Y-62941225D02*
X94037131Y-61441225D01*
X94179989Y-62369796D02*
X94608560Y-62941225D01*
X94608560Y-61941225D02*
X94037131Y-62512654D01*
X81644274Y-65356225D02*
X81644274Y-63856225D01*
X82144274Y-64927654D01*
X82644274Y-63856225D01*
X82644274Y-65356225D01*
X84001417Y-65356225D02*
X84001417Y-64570511D01*
X83929989Y-64427654D01*
X83787131Y-64356225D01*
X83501417Y-64356225D01*
X83358560Y-64427654D01*
X84001417Y-65284796D02*
X83858560Y-65356225D01*
X83501417Y-65356225D01*
X83358560Y-65284796D01*
X83287131Y-65141939D01*
X83287131Y-64999082D01*
X83358560Y-64856225D01*
X83501417Y-64784796D01*
X83858560Y-64784796D01*
X84001417Y-64713368D01*
X84501417Y-64356225D02*
X85072846Y-64356225D01*
X84715703Y-63856225D02*
X84715703Y-65141939D01*
X84787131Y-65284796D01*
X84929989Y-65356225D01*
X85072846Y-65356225D01*
X85358560Y-64356225D02*
X85929989Y-64356225D01*
X85572846Y-63856225D02*
X85572846Y-65141939D01*
X85644274Y-65284796D01*
X85787131Y-65356225D01*
X85929989Y-65356225D01*
X86429989Y-65356225D02*
X86429989Y-63856225D01*
X87072846Y-65356225D02*
X87072846Y-64570511D01*
X87001417Y-64427654D01*
X86858560Y-64356225D01*
X86644274Y-64356225D01*
X86501417Y-64427654D01*
X86429989Y-64499082D01*
X88358560Y-65284796D02*
X88215703Y-65356225D01*
X87929989Y-65356225D01*
X87787131Y-65284796D01*
X87715703Y-65141939D01*
X87715703Y-64570511D01*
X87787131Y-64427654D01*
X87929989Y-64356225D01*
X88215703Y-64356225D01*
X88358560Y-64427654D01*
X88429989Y-64570511D01*
X88429989Y-64713368D01*
X87715703Y-64856225D01*
X88929989Y-64356225D02*
X89215703Y-65356225D01*
X89501417Y-64641939D01*
X89787131Y-65356225D01*
X90072846Y-64356225D01*
X92072846Y-64641939D02*
X92072846Y-65356225D01*
X91572846Y-63856225D02*
X92072846Y-64641939D01*
X92572846Y-63856225D01*
X93715703Y-64356225D02*
X93715703Y-65356225D01*
X93072846Y-64356225D02*
X93072846Y-65141939D01*
X93144274Y-65284796D01*
X93287131Y-65356225D01*
X93501417Y-65356225D01*
X93644274Y-65284796D01*
X93715703Y-65213368D01*
D12*
X78874750Y-101799320D02*
X79350941Y-101799320D01*
X78779512Y-102085034D02*
X79112846Y-101085034D01*
X79446179Y-102085034D01*
X80350941Y-102085034D02*
X80017608Y-101608844D01*
X79779512Y-102085034D02*
X79779512Y-101085034D01*
X80160465Y-101085034D01*
X80255703Y-101132654D01*
X80303322Y-101180273D01*
X80350941Y-101275511D01*
X80350941Y-101418368D01*
X80303322Y-101513606D01*
X80255703Y-101561225D01*
X80160465Y-101608844D01*
X79779512Y-101608844D01*
X81350941Y-102085034D02*
X81017608Y-101608844D01*
X80779512Y-102085034D02*
X80779512Y-101085034D01*
X81160465Y-101085034D01*
X81255703Y-101132654D01*
X81303322Y-101180273D01*
X81350941Y-101275511D01*
X81350941Y-101418368D01*
X81303322Y-101513606D01*
X81255703Y-101561225D01*
X81160465Y-101608844D01*
X80779512Y-101608844D01*
X81731893Y-101799320D02*
X82208084Y-101799320D01*
X81636655Y-102085034D02*
X81969989Y-101085034D01*
X82303322Y-102085034D01*
X82827131Y-101608844D02*
X82827131Y-102085034D01*
X82493798Y-101085034D02*
X82827131Y-101608844D01*
X83160465Y-101085034D01*
X125327131Y-65485034D02*
X125327131Y-64485034D01*
X125898560Y-65485034D01*
X125898560Y-64485034D01*
X126374750Y-64485034D02*
X126374750Y-65294558D01*
X126422369Y-65389796D01*
X126469989Y-65437415D01*
X126565227Y-65485034D01*
X126755703Y-65485034D01*
X126850941Y-65437415D01*
X126898560Y-65389796D01*
X126946179Y-65294558D01*
X126946179Y-64485034D01*
X127993798Y-65389796D02*
X127946179Y-65437415D01*
X127803322Y-65485034D01*
X127708084Y-65485034D01*
X127565227Y-65437415D01*
X127469989Y-65342177D01*
X127422369Y-65246939D01*
X127374750Y-65056463D01*
X127374750Y-64913606D01*
X127422369Y-64723130D01*
X127469989Y-64627892D01*
X127565227Y-64532654D01*
X127708084Y-64485034D01*
X127803322Y-64485034D01*
X127946179Y-64532654D01*
X127993798Y-64580273D01*
X128898560Y-65485034D02*
X128422369Y-65485034D01*
X128422369Y-64485034D01*
X129231893Y-64961225D02*
X129565227Y-64961225D01*
X129708084Y-65485034D02*
X129231893Y-65485034D01*
X129231893Y-64485034D01*
X129708084Y-64485034D01*
X130327131Y-64485034D02*
X130517608Y-64485034D01*
X130612846Y-64532654D01*
X130708084Y-64627892D01*
X130755703Y-64818368D01*
X130755703Y-65151701D01*
X130708084Y-65342177D01*
X130612846Y-65437415D01*
X130517608Y-65485034D01*
X130327131Y-65485034D01*
X130231893Y-65437415D01*
X130136655Y-65342177D01*
X130089036Y-65151701D01*
X130089036Y-64818368D01*
X130136655Y-64627892D01*
X130231893Y-64532654D01*
X130327131Y-64485034D01*
X131184274Y-65104082D02*
X131946179Y-65104082D01*
X132898560Y-65485034D02*
X132422369Y-65485034D01*
X132422369Y-64485034D01*
X133660465Y-64818368D02*
X133660465Y-65485034D01*
X133422369Y-64437415D02*
X133184274Y-65151701D01*
X133803322Y-65151701D01*
X134089036Y-64485034D02*
X134708084Y-64485034D01*
X134374750Y-64865987D01*
X134517608Y-64865987D01*
X134612846Y-64913606D01*
X134660465Y-64961225D01*
X134708084Y-65056463D01*
X134708084Y-65294558D01*
X134660465Y-65389796D01*
X134612846Y-65437415D01*
X134517608Y-65485034D01*
X134231893Y-65485034D01*
X134136655Y-65437415D01*
X134089036Y-65389796D01*
X135089036Y-64580273D02*
X135136655Y-64532654D01*
X135231893Y-64485034D01*
X135469989Y-64485034D01*
X135565227Y-64532654D01*
X135612846Y-64580273D01*
X135660465Y-64675511D01*
X135660465Y-64770749D01*
X135612846Y-64913606D01*
X135041417Y-65485034D01*
X135660465Y-65485034D01*
X136089036Y-65485034D02*
X136089036Y-64485034D01*
X136660465Y-65485034D02*
X136231893Y-64913606D01*
X136660465Y-64485034D02*
X136089036Y-65056463D01*
X137660465Y-65389796D02*
X137612846Y-65437415D01*
X137469989Y-65485034D01*
X137374750Y-65485034D01*
X137231893Y-65437415D01*
X137136655Y-65342177D01*
X137089036Y-65246939D01*
X137041417Y-65056463D01*
X137041417Y-64913606D01*
X137089036Y-64723130D01*
X137136655Y-64627892D01*
X137231893Y-64532654D01*
X137374750Y-64485034D01*
X137469989Y-64485034D01*
X137612846Y-64532654D01*
X137660465Y-64580273D01*
X91699989Y-78069796D02*
X91747608Y-78117415D01*
X91699989Y-78165034D01*
X91652369Y-78117415D01*
X91699989Y-78069796D01*
X91699989Y-78165034D01*
X110794989Y-106064796D02*
X110842608Y-106112415D01*
X110794989Y-106160034D01*
X110747369Y-106112415D01*
X110794989Y-106064796D01*
X110794989Y-106160034D01*
X82709989Y-41949796D02*
X82757608Y-41997415D01*
X82709989Y-42045034D01*
X82662369Y-41997415D01*
X82709989Y-41949796D01*
X82709989Y-42045034D01*
X68318084Y-40490034D02*
X68318084Y-39490034D01*
X68318084Y-39966225D02*
X68889512Y-39966225D01*
X68889512Y-40490034D02*
X68889512Y-39490034D01*
X69556179Y-39490034D02*
X69746655Y-39490034D01*
X69841893Y-39537654D01*
X69937131Y-39632892D01*
X69984750Y-39823368D01*
X69984750Y-40156701D01*
X69937131Y-40347177D01*
X69841893Y-40442415D01*
X69746655Y-40490034D01*
X69556179Y-40490034D01*
X69460941Y-40442415D01*
X69365703Y-40347177D01*
X69318084Y-40156701D01*
X69318084Y-39823368D01*
X69365703Y-39632892D01*
X69460941Y-39537654D01*
X69556179Y-39490034D01*
X70270465Y-39490034D02*
X70841893Y-39490034D01*
X70556179Y-40490034D02*
X70556179Y-39490034D01*
X72222846Y-40870987D02*
X72175227Y-40823368D01*
X72079989Y-40680511D01*
X72032369Y-40585273D01*
X71984750Y-40442415D01*
X71937131Y-40204320D01*
X71937131Y-40013844D01*
X71984750Y-39775749D01*
X72032369Y-39632892D01*
X72079989Y-39537654D01*
X72175227Y-39394796D01*
X72222846Y-39347177D01*
X72603798Y-40490034D02*
X72603798Y-39490034D01*
X72841893Y-39490034D01*
X72984750Y-39537654D01*
X73079989Y-39632892D01*
X73127608Y-39728130D01*
X73175227Y-39918606D01*
X73175227Y-40061463D01*
X73127608Y-40251939D01*
X73079989Y-40347177D01*
X72984750Y-40442415D01*
X72841893Y-40490034D01*
X72603798Y-40490034D01*
X73794274Y-39490034D02*
X73984750Y-39490034D01*
X74079989Y-39537654D01*
X74175227Y-39632892D01*
X74222846Y-39823368D01*
X74222846Y-40156701D01*
X74175227Y-40347177D01*
X74079989Y-40442415D01*
X73984750Y-40490034D01*
X73794274Y-40490034D01*
X73699036Y-40442415D01*
X73603798Y-40347177D01*
X73556179Y-40156701D01*
X73556179Y-39823368D01*
X73603798Y-39632892D01*
X73699036Y-39537654D01*
X73794274Y-39490034D01*
X75175227Y-39537654D02*
X75079989Y-39490034D01*
X74937131Y-39490034D01*
X74794274Y-39537654D01*
X74699036Y-39632892D01*
X74651417Y-39728130D01*
X74603798Y-39918606D01*
X74603798Y-40061463D01*
X74651417Y-40251939D01*
X74699036Y-40347177D01*
X74794274Y-40442415D01*
X74937131Y-40490034D01*
X75032369Y-40490034D01*
X75175227Y-40442415D01*
X75222846Y-40394796D01*
X75222846Y-40061463D01*
X75032369Y-40061463D01*
X75556179Y-40870987D02*
X75603798Y-40823368D01*
X75699036Y-40680511D01*
X75746655Y-40585273D01*
X75794274Y-40442415D01*
X75841893Y-40204320D01*
X75841893Y-40013844D01*
X75794274Y-39775749D01*
X75746655Y-39632892D01*
X75699036Y-39537654D01*
X75603798Y-39394796D01*
X75556179Y-39347177D01*
X138792369Y-108465273D02*
X137792369Y-108465273D01*
X138268560Y-108465273D02*
X138268560Y-107893844D01*
X138792369Y-107893844D02*
X137792369Y-107893844D01*
X138792369Y-106846225D02*
X138316179Y-107179558D01*
X138792369Y-107417654D02*
X137792369Y-107417654D01*
X137792369Y-107036701D01*
X137839989Y-106941463D01*
X137887608Y-106893844D01*
X137982846Y-106846225D01*
X138125703Y-106846225D01*
X138220941Y-106893844D01*
X138268560Y-106941463D01*
X138316179Y-107036701D01*
X138316179Y-107417654D01*
X137792369Y-106560511D02*
X137792369Y-105989082D01*
X138792369Y-106274796D02*
X137792369Y-106274796D01*
X138268560Y-105322415D02*
X138316179Y-105179558D01*
X138363798Y-105131939D01*
X138459036Y-105084320D01*
X138601893Y-105084320D01*
X138697131Y-105131939D01*
X138744750Y-105179558D01*
X138792369Y-105274796D01*
X138792369Y-105655749D01*
X137792369Y-105655749D01*
X137792369Y-105322415D01*
X137839989Y-105227177D01*
X137887608Y-105179558D01*
X137982846Y-105131939D01*
X138078084Y-105131939D01*
X138173322Y-105179558D01*
X138220941Y-105227177D01*
X138268560Y-105322415D01*
X138268560Y-105655749D01*
X137792369Y-104798606D02*
X137792369Y-104227177D01*
X138792369Y-104512892D02*
X137792369Y-104512892D01*
D11*
X65903560Y-99227296D02*
X67046417Y-99227296D01*
X64010703Y-100713725D02*
X64510703Y-102213725D01*
X65010703Y-100713725D01*
X65796417Y-100713725D02*
X66082131Y-100713725D01*
X66224989Y-100785154D01*
X66367846Y-100928011D01*
X66439274Y-101213725D01*
X66439274Y-101713725D01*
X66367846Y-101999439D01*
X66224989Y-102142296D01*
X66082131Y-102213725D01*
X65796417Y-102213725D01*
X65653560Y-102142296D01*
X65510703Y-101999439D01*
X65439274Y-101713725D01*
X65439274Y-101213725D01*
X65510703Y-100928011D01*
X65653560Y-100785154D01*
X65796417Y-100713725D01*
X67796417Y-102213725D02*
X67082131Y-102213725D01*
X67082131Y-100713725D01*
X68082131Y-100713725D02*
X68939274Y-100713725D01*
X68510703Y-102213725D02*
X68510703Y-100713725D01*
D12*
X74257846Y-61067654D02*
X74210227Y-61115273D01*
X74162608Y-61067654D01*
X74210227Y-61020034D01*
X74257846Y-61067654D01*
X74162608Y-61067654D01*
D11*
X42983560Y-99167296D02*
X44126417Y-99167296D01*
X43554989Y-99738725D02*
X43554989Y-98595868D01*
X41090703Y-100653725D02*
X41590703Y-102153725D01*
X42090703Y-100653725D01*
X42876417Y-100653725D02*
X43162131Y-100653725D01*
X43304989Y-100725154D01*
X43447846Y-100868011D01*
X43519274Y-101153725D01*
X43519274Y-101653725D01*
X43447846Y-101939439D01*
X43304989Y-102082296D01*
X43162131Y-102153725D01*
X42876417Y-102153725D01*
X42733560Y-102082296D01*
X42590703Y-101939439D01*
X42519274Y-101653725D01*
X42519274Y-101153725D01*
X42590703Y-100868011D01*
X42733560Y-100725154D01*
X42876417Y-100653725D01*
X44876417Y-102153725D02*
X44162131Y-102153725D01*
X44162131Y-100653725D01*
X45162131Y-100653725D02*
X46019274Y-100653725D01*
X45590703Y-102153725D02*
X45590703Y-100653725D01*
D12*
X99035703Y-54874082D02*
X99797608Y-54874082D01*
X99416655Y-55255034D02*
X99416655Y-54493130D01*
X100321417Y-55255034D02*
X100511893Y-55255034D01*
X100607131Y-55207415D01*
X100654750Y-55159796D01*
X100749989Y-55016939D01*
X100797608Y-54826463D01*
X100797608Y-54445511D01*
X100749989Y-54350273D01*
X100702369Y-54302654D01*
X100607131Y-54255034D01*
X100416655Y-54255034D01*
X100321417Y-54302654D01*
X100273798Y-54350273D01*
X100226179Y-54445511D01*
X100226179Y-54683606D01*
X100273798Y-54778844D01*
X100321417Y-54826463D01*
X100416655Y-54874082D01*
X100607131Y-54874082D01*
X100702369Y-54826463D01*
X100749989Y-54778844D01*
X100797608Y-54683606D01*
X101083322Y-54255034D02*
X101416655Y-55255034D01*
X101749989Y-54255034D01*
X102035703Y-54969320D02*
X102511893Y-54969320D01*
X101940465Y-55255034D02*
X102273798Y-54255034D01*
X102607131Y-55255034D01*
X91914989Y-107349796D02*
X91962608Y-107397415D01*
X91914989Y-107445034D01*
X91867369Y-107397415D01*
X91914989Y-107349796D01*
X91914989Y-107445034D01*
X31487369Y-63435034D02*
X30487369Y-63435034D01*
X30487369Y-63054082D01*
X30534989Y-62958844D01*
X30582608Y-62911225D01*
X30677846Y-62863606D01*
X30820703Y-62863606D01*
X30915941Y-62911225D01*
X30963560Y-62958844D01*
X31011179Y-63054082D01*
X31011179Y-63435034D01*
X31392131Y-61863606D02*
X31439750Y-61911225D01*
X31487369Y-62054082D01*
X31487369Y-62149320D01*
X31439750Y-62292177D01*
X31344512Y-62387415D01*
X31249274Y-62435034D01*
X31058798Y-62482654D01*
X30915941Y-62482654D01*
X30725465Y-62435034D01*
X30630227Y-62387415D01*
X30534989Y-62292177D01*
X30487369Y-62149320D01*
X30487369Y-62054082D01*
X30534989Y-61911225D01*
X30582608Y-61863606D01*
X30963560Y-61101701D02*
X31011179Y-60958844D01*
X31058798Y-60911225D01*
X31154036Y-60863606D01*
X31296893Y-60863606D01*
X31392131Y-60911225D01*
X31439750Y-60958844D01*
X31487369Y-61054082D01*
X31487369Y-61435034D01*
X30487369Y-61435034D01*
X30487369Y-61101701D01*
X30534989Y-61006463D01*
X30582608Y-60958844D01*
X30677846Y-60911225D01*
X30773084Y-60911225D01*
X30868322Y-60958844D01*
X30915941Y-61006463D01*
X30963560Y-61101701D01*
X30963560Y-61435034D01*
X31487369Y-59673130D02*
X30820703Y-59673130D01*
X31011179Y-59673130D02*
X30915941Y-59625511D01*
X30868322Y-59577892D01*
X30820703Y-59482654D01*
X30820703Y-59387415D01*
X31487369Y-58625511D02*
X30963560Y-58625511D01*
X30868322Y-58673130D01*
X30820703Y-58768368D01*
X30820703Y-58958844D01*
X30868322Y-59054082D01*
X31439750Y-58625511D02*
X31487369Y-58720749D01*
X31487369Y-58958844D01*
X31439750Y-59054082D01*
X31344512Y-59101701D01*
X31249274Y-59101701D01*
X31154036Y-59054082D01*
X31106417Y-58958844D01*
X31106417Y-58720749D01*
X31058798Y-58625511D01*
X30820703Y-58292177D02*
X30820703Y-57911225D01*
X30487369Y-58149320D02*
X31344512Y-58149320D01*
X31439750Y-58101701D01*
X31487369Y-58006463D01*
X31487369Y-57911225D01*
X31439750Y-57196939D02*
X31487369Y-57292177D01*
X31487369Y-57482654D01*
X31439750Y-57577892D01*
X31344512Y-57625511D01*
X30963560Y-57625511D01*
X30868322Y-57577892D01*
X30820703Y-57482654D01*
X30820703Y-57292177D01*
X30868322Y-57196939D01*
X30963560Y-57149320D01*
X31058798Y-57149320D01*
X31154036Y-57625511D01*
X31487369Y-56292177D02*
X30487369Y-56292177D01*
X31439750Y-56292177D02*
X31487369Y-56387415D01*
X31487369Y-56577892D01*
X31439750Y-56673130D01*
X31392131Y-56720749D01*
X31296893Y-56768368D01*
X31011179Y-56768368D01*
X30915941Y-56720749D01*
X30868322Y-56673130D01*
X30820703Y-56577892D01*
X30820703Y-56387415D01*
X30868322Y-56292177D01*
X32430703Y-61720749D02*
X32430703Y-61339796D01*
X33097369Y-61577892D02*
X32240227Y-61577892D01*
X32144989Y-61530273D01*
X32097369Y-61435034D01*
X32097369Y-61339796D01*
X33097369Y-60863606D02*
X33049750Y-60958844D01*
X33002131Y-61006463D01*
X32906893Y-61054082D01*
X32621179Y-61054082D01*
X32525941Y-61006463D01*
X32478322Y-60958844D01*
X32430703Y-60863606D01*
X32430703Y-60720749D01*
X32478322Y-60625511D01*
X32525941Y-60577892D01*
X32621179Y-60530273D01*
X32906893Y-60530273D01*
X33002131Y-60577892D01*
X33049750Y-60625511D01*
X33097369Y-60720749D01*
X33097369Y-60863606D01*
X33097369Y-60101701D02*
X32430703Y-60101701D01*
X32621179Y-60101701D02*
X32525941Y-60054082D01*
X32478322Y-60006463D01*
X32430703Y-59911225D01*
X32430703Y-59815987D01*
X32525941Y-58577892D02*
X32478322Y-58673130D01*
X32430703Y-58720749D01*
X32335465Y-58768368D01*
X32287846Y-58768368D01*
X32192608Y-58720749D01*
X32144989Y-58673130D01*
X32097369Y-58577892D01*
X32097369Y-58387415D01*
X32144989Y-58292177D01*
X32192608Y-58244558D01*
X32287846Y-58196939D01*
X32335465Y-58196939D01*
X32430703Y-58244558D01*
X32478322Y-58292177D01*
X32525941Y-58387415D01*
X32525941Y-58577892D01*
X32573560Y-58673130D01*
X32621179Y-58720749D01*
X32716417Y-58768368D01*
X32906893Y-58768368D01*
X33002131Y-58720749D01*
X33049750Y-58673130D01*
X33097369Y-58577892D01*
X33097369Y-58387415D01*
X33049750Y-58292177D01*
X33002131Y-58244558D01*
X32906893Y-58196939D01*
X32716417Y-58196939D01*
X32621179Y-58244558D01*
X32573560Y-58292177D01*
X32525941Y-58387415D01*
X32811655Y-57815987D02*
X32811655Y-57339796D01*
X33097369Y-57911225D02*
X32097369Y-57577892D01*
X33097369Y-57244558D01*
X88167608Y-107679796D02*
X88119989Y-107727415D01*
X87977131Y-107775034D01*
X87881893Y-107775034D01*
X87739036Y-107727415D01*
X87643798Y-107632177D01*
X87596179Y-107536939D01*
X87548560Y-107346463D01*
X87548560Y-107203606D01*
X87596179Y-107013130D01*
X87643798Y-106917892D01*
X87739036Y-106822654D01*
X87881893Y-106775034D01*
X87977131Y-106775034D01*
X88119989Y-106822654D01*
X88167608Y-106870273D01*
X88596179Y-107251225D02*
X88929512Y-107251225D01*
X89072369Y-107775034D02*
X88596179Y-107775034D01*
X88596179Y-106775034D01*
X89072369Y-106775034D01*
X89977131Y-107775034D02*
X89500941Y-107775034D01*
X89500941Y-106775034D01*
X90786655Y-107775034D02*
X90310465Y-107775034D01*
X90310465Y-106775034D01*
X50064989Y-47074796D02*
X50112608Y-47122415D01*
X50064989Y-47170034D01*
X50017369Y-47122415D01*
X50064989Y-47074796D01*
X50064989Y-47170034D01*
X135274750Y-108210749D02*
X135322369Y-108067892D01*
X135322369Y-107829796D01*
X135274750Y-107734558D01*
X135227131Y-107686939D01*
X135131893Y-107639320D01*
X135036655Y-107639320D01*
X134941417Y-107686939D01*
X134893798Y-107734558D01*
X134846179Y-107829796D01*
X134798560Y-108020273D01*
X134750941Y-108115511D01*
X134703322Y-108163130D01*
X134608084Y-108210749D01*
X134512846Y-108210749D01*
X134417608Y-108163130D01*
X134369989Y-108115511D01*
X134322369Y-108020273D01*
X134322369Y-107782177D01*
X134369989Y-107639320D01*
X135227131Y-106639320D02*
X135274750Y-106686939D01*
X135322369Y-106829796D01*
X135322369Y-106925034D01*
X135274750Y-107067892D01*
X135179512Y-107163130D01*
X135084274Y-107210749D01*
X134893798Y-107258368D01*
X134750941Y-107258368D01*
X134560465Y-107210749D01*
X134465227Y-107163130D01*
X134369989Y-107067892D01*
X134322369Y-106925034D01*
X134322369Y-106829796D01*
X134369989Y-106686939D01*
X134417608Y-106639320D01*
X135036655Y-106258368D02*
X135036655Y-105782177D01*
X135322369Y-106353606D02*
X134322369Y-106020273D01*
X135322369Y-105686939D01*
X135322369Y-105353606D02*
X134322369Y-105353606D01*
X135322369Y-104782177D01*
X134322369Y-104782177D01*
X131298560Y-107736939D02*
X131298560Y-107403606D01*
X131822369Y-107260749D02*
X131822369Y-107736939D01*
X130822369Y-107736939D01*
X130822369Y-107260749D01*
X131822369Y-106260749D02*
X131346179Y-106594082D01*
X131822369Y-106832177D02*
X130822369Y-106832177D01*
X130822369Y-106451225D01*
X130869989Y-106355987D01*
X130917608Y-106308368D01*
X131012846Y-106260749D01*
X131155703Y-106260749D01*
X131250941Y-106308368D01*
X131298560Y-106355987D01*
X131346179Y-106451225D01*
X131346179Y-106832177D01*
X131822369Y-105260749D02*
X131346179Y-105594082D01*
X131822369Y-105832177D02*
X130822369Y-105832177D01*
X130822369Y-105451225D01*
X130869989Y-105355987D01*
X130917608Y-105308368D01*
X131012846Y-105260749D01*
X131155703Y-105260749D01*
X131250941Y-105308368D01*
X131298560Y-105355987D01*
X131346179Y-105451225D01*
X131346179Y-105832177D01*
X114032608Y-108080034D02*
X113699274Y-107603844D01*
X113461179Y-108080034D02*
X113461179Y-107080034D01*
X113842131Y-107080034D01*
X113937369Y-107127654D01*
X113984989Y-107175273D01*
X114032608Y-107270511D01*
X114032608Y-107413368D01*
X113984989Y-107508606D01*
X113937369Y-107556225D01*
X113842131Y-107603844D01*
X113461179Y-107603844D01*
X114461179Y-107556225D02*
X114794512Y-107556225D01*
X114937369Y-108080034D02*
X114461179Y-108080034D01*
X114461179Y-107080034D01*
X114937369Y-107080034D01*
X115318322Y-108032415D02*
X115461179Y-108080034D01*
X115699274Y-108080034D01*
X115794512Y-108032415D01*
X115842131Y-107984796D01*
X115889750Y-107889558D01*
X115889750Y-107794320D01*
X115842131Y-107699082D01*
X115794512Y-107651463D01*
X115699274Y-107603844D01*
X115508798Y-107556225D01*
X115413560Y-107508606D01*
X115365941Y-107460987D01*
X115318322Y-107365749D01*
X115318322Y-107270511D01*
X115365941Y-107175273D01*
X115413560Y-107127654D01*
X115508798Y-107080034D01*
X115746893Y-107080034D01*
X115889750Y-107127654D01*
X116318322Y-107556225D02*
X116651655Y-107556225D01*
X116794512Y-108080034D02*
X116318322Y-108080034D01*
X116318322Y-107080034D01*
X116794512Y-107080034D01*
X117080227Y-107080034D02*
X117651655Y-107080034D01*
X117365941Y-108080034D02*
X117365941Y-107080034D01*
X118160941Y-96660034D02*
X118351417Y-96660034D01*
X118446655Y-96612415D01*
X118494274Y-96564796D01*
X118589512Y-96421939D01*
X118637131Y-96231463D01*
X118637131Y-95850511D01*
X118589512Y-95755273D01*
X118541893Y-95707654D01*
X118446655Y-95660034D01*
X118256179Y-95660034D01*
X118160941Y-95707654D01*
X118113322Y-95755273D01*
X118065703Y-95850511D01*
X118065703Y-96088606D01*
X118113322Y-96183844D01*
X118160941Y-96231463D01*
X118256179Y-96279082D01*
X118446655Y-96279082D01*
X118541893Y-96231463D01*
X118589512Y-96183844D01*
X118637131Y-96088606D01*
X118922846Y-95660034D02*
X119256179Y-96660034D01*
X119589512Y-95660034D01*
X115969989Y-36604796D02*
X116017608Y-36652415D01*
X115969989Y-36700034D01*
X115922369Y-36652415D01*
X115969989Y-36604796D01*
X115969989Y-36700034D01*
X132904989Y-44184796D02*
X132952608Y-44232415D01*
X132904989Y-44280034D01*
X132857369Y-44232415D01*
X132904989Y-44184796D01*
X132904989Y-44280034D01*
X80661893Y-105405034D02*
X80661893Y-104405034D01*
X80995227Y-105119320D01*
X81328560Y-104405034D01*
X81328560Y-105405034D01*
X81995227Y-104405034D02*
X82185703Y-104405034D01*
X82280941Y-104452654D01*
X82376179Y-104547892D01*
X82423798Y-104738368D01*
X82423798Y-105071701D01*
X82376179Y-105262177D01*
X82280941Y-105357415D01*
X82185703Y-105405034D01*
X81995227Y-105405034D01*
X81899989Y-105357415D01*
X81804750Y-105262177D01*
X81757131Y-105071701D01*
X81757131Y-104738368D01*
X81804750Y-104547892D01*
X81899989Y-104452654D01*
X81995227Y-104405034D01*
X82852369Y-105405034D02*
X82852369Y-104405034D01*
X83090465Y-104405034D01*
X83233322Y-104452654D01*
X83328560Y-104547892D01*
X83376179Y-104643130D01*
X83423798Y-104833606D01*
X83423798Y-104976463D01*
X83376179Y-105166939D01*
X83328560Y-105262177D01*
X83233322Y-105357415D01*
X83090465Y-105405034D01*
X82852369Y-105405034D01*
X83852369Y-104405034D02*
X83852369Y-105214558D01*
X83899989Y-105309796D01*
X83947608Y-105357415D01*
X84042846Y-105405034D01*
X84233322Y-105405034D01*
X84328560Y-105357415D01*
X84376179Y-105309796D01*
X84423798Y-105214558D01*
X84423798Y-104405034D01*
X85376179Y-105405034D02*
X84899989Y-105405034D01*
X84899989Y-104405034D01*
X85709512Y-104881225D02*
X86042846Y-104881225D01*
X86185703Y-105405034D02*
X85709512Y-105405034D01*
X85709512Y-104405034D01*
X86185703Y-104405034D01*
X55499989Y-33159796D02*
X55547608Y-33207415D01*
X55499989Y-33255034D01*
X55452369Y-33207415D01*
X55499989Y-33159796D01*
X55499989Y-33255034D01*
X128357131Y-108072654D02*
X128404750Y-108120273D01*
X128452369Y-108263130D01*
X128452369Y-108358368D01*
X128404750Y-108501225D01*
X128309512Y-108596463D01*
X128214274Y-108644082D01*
X128023798Y-108691701D01*
X127880941Y-108691701D01*
X127690465Y-108644082D01*
X127595227Y-108596463D01*
X127499989Y-108501225D01*
X127452369Y-108358368D01*
X127452369Y-108263130D01*
X127499989Y-108120273D01*
X127547608Y-108072654D01*
X128166655Y-107691701D02*
X128166655Y-107215511D01*
X128452369Y-107786939D02*
X127452369Y-107453606D01*
X128452369Y-107120273D01*
X128452369Y-106786939D02*
X127452369Y-106786939D01*
X128452369Y-106215511D01*
X127452369Y-106215511D01*
X127452369Y-105882177D02*
X127452369Y-105310749D01*
X128452369Y-105596463D02*
X127452369Y-105596463D01*
X127452369Y-105072654D02*
X128452369Y-104405987D01*
X127452369Y-104405987D02*
X128452369Y-105072654D01*
X110054989Y-42269796D02*
X110102608Y-42317415D01*
X110054989Y-42365034D01*
X110007369Y-42317415D01*
X110054989Y-42269796D01*
X110054989Y-42365034D01*
X117979989Y-56989796D02*
X118027608Y-57037415D01*
X117979989Y-57085034D01*
X117932369Y-57037415D01*
X117979989Y-56989796D01*
X117979989Y-57085034D01*
X124887131Y-108216701D02*
X124934750Y-108264320D01*
X124982369Y-108407177D01*
X124982369Y-108502415D01*
X124934750Y-108645273D01*
X124839512Y-108740511D01*
X124744274Y-108788130D01*
X124553798Y-108835749D01*
X124410941Y-108835749D01*
X124220465Y-108788130D01*
X124125227Y-108740511D01*
X124029989Y-108645273D01*
X123982369Y-108502415D01*
X123982369Y-108407177D01*
X124029989Y-108264320D01*
X124077608Y-108216701D01*
X124696655Y-107835749D02*
X124696655Y-107359558D01*
X124982369Y-107930987D02*
X123982369Y-107597654D01*
X124982369Y-107264320D01*
X124982369Y-106930987D02*
X123982369Y-106930987D01*
X124982369Y-106359558D01*
X123982369Y-106359558D01*
X124982369Y-105311939D02*
X124506179Y-105645273D01*
X124982369Y-105883368D02*
X123982369Y-105883368D01*
X123982369Y-105502415D01*
X124029989Y-105407177D01*
X124077608Y-105359558D01*
X124172846Y-105311939D01*
X124315703Y-105311939D01*
X124410941Y-105359558D01*
X124458560Y-105407177D01*
X124506179Y-105502415D01*
X124506179Y-105883368D01*
X123982369Y-104978606D02*
X124982369Y-104311939D01*
X123982369Y-104311939D02*
X124982369Y-104978606D01*
X60826655Y-55875034D02*
X60826655Y-54875034D01*
X61064750Y-54875034D01*
X61207608Y-54922654D01*
X61302846Y-55017892D01*
X61350465Y-55113130D01*
X61398084Y-55303606D01*
X61398084Y-55446463D01*
X61350465Y-55636939D01*
X61302846Y-55732177D01*
X61207608Y-55827415D01*
X61064750Y-55875034D01*
X60826655Y-55875034D01*
X61779036Y-55589320D02*
X62255227Y-55589320D01*
X61683798Y-55875034D02*
X62017131Y-54875034D01*
X62350465Y-55875034D01*
X62683798Y-55875034D02*
X62683798Y-54875034D01*
X63255227Y-55875034D01*
X63255227Y-54875034D01*
X64255227Y-54922654D02*
X64159989Y-54875034D01*
X64017131Y-54875034D01*
X63874274Y-54922654D01*
X63779036Y-55017892D01*
X63731417Y-55113130D01*
X63683798Y-55303606D01*
X63683798Y-55446463D01*
X63731417Y-55636939D01*
X63779036Y-55732177D01*
X63874274Y-55827415D01*
X64017131Y-55875034D01*
X64112369Y-55875034D01*
X64255227Y-55827415D01*
X64302846Y-55779796D01*
X64302846Y-55446463D01*
X64112369Y-55446463D01*
X64731417Y-55351225D02*
X65064750Y-55351225D01*
X65207608Y-55875034D02*
X64731417Y-55875034D01*
X64731417Y-54875034D01*
X65207608Y-54875034D01*
X66207608Y-55875034D02*
X65874274Y-55398844D01*
X65636179Y-55875034D02*
X65636179Y-54875034D01*
X66017131Y-54875034D01*
X66112369Y-54922654D01*
X66159989Y-54970273D01*
X66207608Y-55065511D01*
X66207608Y-55208368D01*
X66159989Y-55303606D01*
X66112369Y-55351225D01*
X66017131Y-55398844D01*
X65636179Y-55398844D01*
X66636179Y-55779796D02*
X66683798Y-55827415D01*
X66636179Y-55875034D01*
X66588560Y-55827415D01*
X66636179Y-55779796D01*
X66636179Y-55875034D01*
X66636179Y-55255987D02*
X66683798Y-55303606D01*
X66636179Y-55351225D01*
X66588560Y-55303606D01*
X66636179Y-55255987D01*
X66636179Y-55351225D01*
X67874274Y-55875034D02*
X67874274Y-54875034D01*
X67874274Y-55351225D02*
X68445703Y-55351225D01*
X68445703Y-55875034D02*
X68445703Y-54875034D01*
X68921893Y-55875034D02*
X68921893Y-54875034D01*
X69921893Y-54922654D02*
X69826655Y-54875034D01*
X69683798Y-54875034D01*
X69540941Y-54922654D01*
X69445703Y-55017892D01*
X69398084Y-55113130D01*
X69350465Y-55303606D01*
X69350465Y-55446463D01*
X69398084Y-55636939D01*
X69445703Y-55732177D01*
X69540941Y-55827415D01*
X69683798Y-55875034D01*
X69779036Y-55875034D01*
X69921893Y-55827415D01*
X69969512Y-55779796D01*
X69969512Y-55446463D01*
X69779036Y-55446463D01*
X70398084Y-55875034D02*
X70398084Y-54875034D01*
X70398084Y-55351225D02*
X70969512Y-55351225D01*
X70969512Y-55875034D02*
X70969512Y-54875034D01*
X72779036Y-55779796D02*
X72731417Y-55827415D01*
X72588560Y-55875034D01*
X72493322Y-55875034D01*
X72350465Y-55827415D01*
X72255227Y-55732177D01*
X72207608Y-55636939D01*
X72159989Y-55446463D01*
X72159989Y-55303606D01*
X72207608Y-55113130D01*
X72255227Y-55017892D01*
X72350465Y-54922654D01*
X72493322Y-54875034D01*
X72588560Y-54875034D01*
X72731417Y-54922654D01*
X72779036Y-54970273D01*
X73207608Y-54875034D02*
X73207608Y-55684558D01*
X73255227Y-55779796D01*
X73302846Y-55827415D01*
X73398084Y-55875034D01*
X73588560Y-55875034D01*
X73683798Y-55827415D01*
X73731417Y-55779796D01*
X73779036Y-55684558D01*
X73779036Y-54875034D01*
X74826655Y-55875034D02*
X74493322Y-55398844D01*
X74255227Y-55875034D02*
X74255227Y-54875034D01*
X74636179Y-54875034D01*
X74731417Y-54922654D01*
X74779036Y-54970273D01*
X74826655Y-55065511D01*
X74826655Y-55208368D01*
X74779036Y-55303606D01*
X74731417Y-55351225D01*
X74636179Y-55398844D01*
X74255227Y-55398844D01*
X75826655Y-55875034D02*
X75493322Y-55398844D01*
X75255227Y-55875034D02*
X75255227Y-54875034D01*
X75636179Y-54875034D01*
X75731417Y-54922654D01*
X75779036Y-54970273D01*
X75826655Y-55065511D01*
X75826655Y-55208368D01*
X75779036Y-55303606D01*
X75731417Y-55351225D01*
X75636179Y-55398844D01*
X75255227Y-55398844D01*
X76255227Y-55351225D02*
X76588560Y-55351225D01*
X76731417Y-55875034D02*
X76255227Y-55875034D01*
X76255227Y-54875034D01*
X76731417Y-54875034D01*
X77159989Y-55875034D02*
X77159989Y-54875034D01*
X77731417Y-55875034D01*
X77731417Y-54875034D01*
X78064750Y-54875034D02*
X78636179Y-54875034D01*
X78350465Y-55875034D02*
X78350465Y-54875034D01*
X101364989Y-42269796D02*
X101412608Y-42317415D01*
X101364989Y-42365034D01*
X101317369Y-42317415D01*
X101364989Y-42269796D01*
X101364989Y-42365034D01*
X96162846Y-27125987D02*
X96115227Y-27078368D01*
X96019989Y-26935511D01*
X95972369Y-26840273D01*
X95924750Y-26697415D01*
X95877131Y-26459320D01*
X95877131Y-26268844D01*
X95924750Y-26030749D01*
X95972369Y-25887892D01*
X96019989Y-25792654D01*
X96115227Y-25649796D01*
X96162846Y-25602177D01*
X96448560Y-26078368D02*
X96686655Y-26745034D01*
X96924750Y-26078368D02*
X96686655Y-26745034D01*
X96591417Y-26983130D01*
X96543798Y-27030749D01*
X96448560Y-27078368D01*
X97448560Y-26745034D02*
X97353322Y-26697415D01*
X97305703Y-26649796D01*
X97258084Y-26554558D01*
X97258084Y-26268844D01*
X97305703Y-26173606D01*
X97353322Y-26125987D01*
X97448560Y-26078368D01*
X97591417Y-26078368D01*
X97686655Y-26125987D01*
X97734274Y-26173606D01*
X97781893Y-26268844D01*
X97781893Y-26554558D01*
X97734274Y-26649796D01*
X97686655Y-26697415D01*
X97591417Y-26745034D01*
X97448560Y-26745034D01*
X98639036Y-26078368D02*
X98639036Y-26745034D01*
X98210465Y-26078368D02*
X98210465Y-26602177D01*
X98258084Y-26697415D01*
X98353322Y-26745034D01*
X98496179Y-26745034D01*
X98591417Y-26697415D01*
X98639036Y-26649796D01*
X99019989Y-27125987D02*
X99067608Y-27078368D01*
X99162846Y-26935511D01*
X99210465Y-26840273D01*
X99258084Y-26697415D01*
X99305703Y-26459320D01*
X99305703Y-26268844D01*
X99258084Y-26030749D01*
X99210465Y-25887892D01*
X99162846Y-25792654D01*
X99067608Y-25649796D01*
X99019989Y-25602177D01*
X101115227Y-26649796D02*
X101067608Y-26697415D01*
X100924750Y-26745034D01*
X100829512Y-26745034D01*
X100686655Y-26697415D01*
X100591417Y-26602177D01*
X100543798Y-26506939D01*
X100496179Y-26316463D01*
X100496179Y-26173606D01*
X100543798Y-25983130D01*
X100591417Y-25887892D01*
X100686655Y-25792654D01*
X100829512Y-25745034D01*
X100924750Y-25745034D01*
X101067608Y-25792654D01*
X101115227Y-25840273D01*
X101496179Y-26459320D02*
X101972369Y-26459320D01*
X101400941Y-26745034D02*
X101734274Y-25745034D01*
X102067608Y-26745034D01*
X102400941Y-26745034D02*
X102400941Y-25745034D01*
X102972369Y-26745034D01*
X102972369Y-25745034D01*
X104496179Y-27125987D02*
X104448560Y-27078368D01*
X104353322Y-26935511D01*
X104305703Y-26840273D01*
X104258084Y-26697415D01*
X104210465Y-26459320D01*
X104210465Y-26268844D01*
X104258084Y-26030749D01*
X104305703Y-25887892D01*
X104353322Y-25792654D01*
X104448560Y-25649796D01*
X104496179Y-25602177D01*
X105305703Y-26745034D02*
X105305703Y-25745034D01*
X105305703Y-26697415D02*
X105210465Y-26745034D01*
X105019989Y-26745034D01*
X104924750Y-26697415D01*
X104877131Y-26649796D01*
X104829512Y-26554558D01*
X104829512Y-26268844D01*
X104877131Y-26173606D01*
X104924750Y-26125987D01*
X105019989Y-26078368D01*
X105210465Y-26078368D01*
X105305703Y-26125987D01*
X105924750Y-26745034D02*
X105829512Y-26697415D01*
X105781893Y-26649796D01*
X105734274Y-26554558D01*
X105734274Y-26268844D01*
X105781893Y-26173606D01*
X105829512Y-26125987D01*
X105924750Y-26078368D01*
X106067608Y-26078368D01*
X106162846Y-26125987D01*
X106210465Y-26173606D01*
X106258084Y-26268844D01*
X106258084Y-26554558D01*
X106210465Y-26649796D01*
X106162846Y-26697415D01*
X106067608Y-26745034D01*
X105924750Y-26745034D01*
X107448560Y-26745034D02*
X107448560Y-26078368D01*
X107448560Y-25745034D02*
X107400941Y-25792654D01*
X107448560Y-25840273D01*
X107496179Y-25792654D01*
X107448560Y-25745034D01*
X107448560Y-25840273D01*
X107781893Y-26078368D02*
X108162846Y-26078368D01*
X107924750Y-25745034D02*
X107924750Y-26602177D01*
X107972369Y-26697415D01*
X108067608Y-26745034D01*
X108162846Y-26745034D01*
X108496179Y-26649796D02*
X108543798Y-26697415D01*
X108496179Y-26745034D01*
X108448560Y-26697415D01*
X108496179Y-26649796D01*
X108496179Y-26745034D01*
X108496179Y-26364082D02*
X108448560Y-25792654D01*
X108496179Y-25745034D01*
X108543798Y-25792654D01*
X108496179Y-26364082D01*
X108496179Y-25745034D01*
X108877131Y-27125987D02*
X108924750Y-27078368D01*
X109019989Y-26935511D01*
X109067608Y-26840273D01*
X109115227Y-26697415D01*
X109162846Y-26459320D01*
X109162846Y-26268844D01*
X109115227Y-26030749D01*
X109067608Y-25887892D01*
X109019989Y-25792654D01*
X108924750Y-25649796D01*
X108877131Y-25602177D01*
D13*
X133537846Y-93901582D02*
X133537846Y-92687296D01*
X133466417Y-92544439D01*
X133394989Y-92473011D01*
X133252131Y-92401582D01*
X132966417Y-92401582D01*
X132823560Y-92473011D01*
X132752131Y-92544439D01*
X132680703Y-92687296D01*
X132680703Y-93901582D01*
X132037846Y-92473011D02*
X131823560Y-92401582D01*
X131466417Y-92401582D01*
X131323560Y-92473011D01*
X131252131Y-92544439D01*
X131180703Y-92687296D01*
X131180703Y-92830154D01*
X131252131Y-92973011D01*
X131323560Y-93044439D01*
X131466417Y-93115868D01*
X131752131Y-93187296D01*
X131894989Y-93258725D01*
X131966417Y-93330154D01*
X132037846Y-93473011D01*
X132037846Y-93615868D01*
X131966417Y-93758725D01*
X131894989Y-93830154D01*
X131752131Y-93901582D01*
X131394989Y-93901582D01*
X131180703Y-93830154D01*
X130037846Y-93187296D02*
X129823560Y-93115868D01*
X129752131Y-93044439D01*
X129680703Y-92901582D01*
X129680703Y-92687296D01*
X129752131Y-92544439D01*
X129823560Y-92473011D01*
X129966417Y-92401582D01*
X130537846Y-92401582D01*
X130537846Y-93901582D01*
X130037846Y-93901582D01*
X129894989Y-93830154D01*
X129823560Y-93758725D01*
X129752131Y-93615868D01*
X129752131Y-93473011D01*
X129823560Y-93330154D01*
X129894989Y-93258725D01*
X130037846Y-93187296D01*
X130537846Y-93187296D01*
X132787846Y-91343725D02*
X132502131Y-91558011D01*
X132216417Y-91343725D01*
X131930703Y-91343725D02*
X131644989Y-91558011D01*
X131359274Y-91343725D01*
X131073560Y-91343725D02*
X130787846Y-91558011D01*
X130502131Y-91343725D01*
D11*
X50687846Y-99247296D02*
X51830703Y-99247296D01*
X51259274Y-99818725D02*
X51259274Y-98675868D01*
X58259274Y-99247296D02*
X59402131Y-99247296D01*
X50544989Y-102090868D02*
X50473560Y-102162296D01*
X50259274Y-102233725D01*
X50116417Y-102233725D01*
X49902131Y-102162296D01*
X49759274Y-102019439D01*
X49687846Y-101876582D01*
X49616417Y-101590868D01*
X49616417Y-101376582D01*
X49687846Y-101090868D01*
X49759274Y-100948011D01*
X49902131Y-100805154D01*
X50116417Y-100733725D01*
X50259274Y-100733725D01*
X50473560Y-100805154D01*
X50544989Y-100876582D01*
X51187846Y-100733725D02*
X51187846Y-101948011D01*
X51259274Y-102090868D01*
X51330703Y-102162296D01*
X51473560Y-102233725D01*
X51759274Y-102233725D01*
X51902131Y-102162296D01*
X51973560Y-102090868D01*
X52044989Y-101948011D01*
X52044989Y-100733725D01*
X53616417Y-102233725D02*
X53116417Y-101519439D01*
X52759274Y-102233725D02*
X52759274Y-100733725D01*
X53330703Y-100733725D01*
X53473560Y-100805154D01*
X53544989Y-100876582D01*
X53616417Y-101019439D01*
X53616417Y-101233725D01*
X53544989Y-101376582D01*
X53473560Y-101448011D01*
X53330703Y-101519439D01*
X52759274Y-101519439D01*
X57402131Y-102090868D02*
X57330703Y-102162296D01*
X57116417Y-102233725D01*
X56973560Y-102233725D01*
X56759274Y-102162296D01*
X56616417Y-102019439D01*
X56544989Y-101876582D01*
X56473560Y-101590868D01*
X56473560Y-101376582D01*
X56544989Y-101090868D01*
X56616417Y-100948011D01*
X56759274Y-100805154D01*
X56973560Y-100733725D01*
X57116417Y-100733725D01*
X57330703Y-100805154D01*
X57402131Y-100876582D01*
X58044989Y-100733725D02*
X58044989Y-101948011D01*
X58116417Y-102090868D01*
X58187846Y-102162296D01*
X58330703Y-102233725D01*
X58616417Y-102233725D01*
X58759274Y-102162296D01*
X58830703Y-102090868D01*
X58902131Y-101948011D01*
X58902131Y-100733725D01*
X60473560Y-102233725D02*
X59973560Y-101519439D01*
X59616417Y-102233725D02*
X59616417Y-100733725D01*
X60187846Y-100733725D01*
X60330703Y-100805154D01*
X60402131Y-100876582D01*
X60473560Y-101019439D01*
X60473560Y-101233725D01*
X60402131Y-101376582D01*
X60330703Y-101448011D01*
X60187846Y-101519439D01*
X59616417Y-101519439D01*
D12*
%TO.C,R9*%
X107716655Y-74709558D02*
X107449989Y-74328606D01*
X107259512Y-74709558D02*
X107259512Y-73909558D01*
X107564274Y-73909558D01*
X107640465Y-73947654D01*
X107678560Y-73985749D01*
X107716655Y-74061939D01*
X107716655Y-74176225D01*
X107678560Y-74252415D01*
X107640465Y-74290511D01*
X107564274Y-74328606D01*
X107259512Y-74328606D01*
X108097608Y-74709558D02*
X108249989Y-74709558D01*
X108326179Y-74671463D01*
X108364274Y-74633368D01*
X108440465Y-74519082D01*
X108478560Y-74366701D01*
X108478560Y-74061939D01*
X108440465Y-73985749D01*
X108402369Y-73947654D01*
X108326179Y-73909558D01*
X108173798Y-73909558D01*
X108097608Y-73947654D01*
X108059512Y-73985749D01*
X108021417Y-74061939D01*
X108021417Y-74252415D01*
X108059512Y-74328606D01*
X108097608Y-74366701D01*
X108173798Y-74404796D01*
X108326179Y-74404796D01*
X108402369Y-74366701D01*
X108440465Y-74328606D01*
X108478560Y-74252415D01*
%TO.C,L1*%
X112111655Y-47919558D02*
X111730703Y-47919558D01*
X111730703Y-47119558D01*
X112797369Y-47919558D02*
X112340227Y-47919558D01*
X112568798Y-47919558D02*
X112568798Y-47119558D01*
X112492608Y-47233844D01*
X112416417Y-47310034D01*
X112340227Y-47348130D01*
%TO.C,Q1*%
X48263798Y-33430749D02*
X48187608Y-33392654D01*
X48111417Y-33316463D01*
X47997131Y-33202177D01*
X47920941Y-33164082D01*
X47844750Y-33164082D01*
X47882846Y-33354558D02*
X47806655Y-33316463D01*
X47730465Y-33240273D01*
X47692369Y-33087892D01*
X47692369Y-32821225D01*
X47730465Y-32668844D01*
X47806655Y-32592654D01*
X47882846Y-32554558D01*
X48035227Y-32554558D01*
X48111417Y-32592654D01*
X48187608Y-32668844D01*
X48225703Y-32821225D01*
X48225703Y-33087892D01*
X48187608Y-33240273D01*
X48111417Y-33316463D01*
X48035227Y-33354558D01*
X47882846Y-33354558D01*
X48987608Y-33354558D02*
X48530465Y-33354558D01*
X48759036Y-33354558D02*
X48759036Y-32554558D01*
X48682846Y-32668844D01*
X48606655Y-32745034D01*
X48530465Y-32783130D01*
%TO.C,R21*%
X110570703Y-32579558D02*
X110304036Y-32198606D01*
X110113560Y-32579558D02*
X110113560Y-31779558D01*
X110418322Y-31779558D01*
X110494512Y-31817654D01*
X110532608Y-31855749D01*
X110570703Y-31931939D01*
X110570703Y-32046225D01*
X110532608Y-32122415D01*
X110494512Y-32160511D01*
X110418322Y-32198606D01*
X110113560Y-32198606D01*
X110875465Y-31855749D02*
X110913560Y-31817654D01*
X110989750Y-31779558D01*
X111180227Y-31779558D01*
X111256417Y-31817654D01*
X111294512Y-31855749D01*
X111332608Y-31931939D01*
X111332608Y-32008130D01*
X111294512Y-32122415D01*
X110837369Y-32579558D01*
X111332608Y-32579558D01*
X112094512Y-32579558D02*
X111637369Y-32579558D01*
X111865941Y-32579558D02*
X111865941Y-31779558D01*
X111789750Y-31893844D01*
X111713560Y-31970034D01*
X111637369Y-32008130D01*
%TO.C,R20*%
X117630703Y-34489558D02*
X117364036Y-34108606D01*
X117173560Y-34489558D02*
X117173560Y-33689558D01*
X117478322Y-33689558D01*
X117554512Y-33727654D01*
X117592608Y-33765749D01*
X117630703Y-33841939D01*
X117630703Y-33956225D01*
X117592608Y-34032415D01*
X117554512Y-34070511D01*
X117478322Y-34108606D01*
X117173560Y-34108606D01*
X117935465Y-33765749D02*
X117973560Y-33727654D01*
X118049750Y-33689558D01*
X118240227Y-33689558D01*
X118316417Y-33727654D01*
X118354512Y-33765749D01*
X118392608Y-33841939D01*
X118392608Y-33918130D01*
X118354512Y-34032415D01*
X117897369Y-34489558D01*
X118392608Y-34489558D01*
X118887846Y-33689558D02*
X118964036Y-33689558D01*
X119040227Y-33727654D01*
X119078322Y-33765749D01*
X119116417Y-33841939D01*
X119154512Y-33994320D01*
X119154512Y-34184796D01*
X119116417Y-34337177D01*
X119078322Y-34413368D01*
X119040227Y-34451463D01*
X118964036Y-34489558D01*
X118887846Y-34489558D01*
X118811655Y-34451463D01*
X118773560Y-34413368D01*
X118735465Y-34337177D01*
X118697369Y-34184796D01*
X118697369Y-33994320D01*
X118735465Y-33841939D01*
X118773560Y-33765749D01*
X118811655Y-33727654D01*
X118887846Y-33689558D01*
%TO.C,L2*%
X115596655Y-44964558D02*
X115215703Y-44964558D01*
X115215703Y-44164558D01*
X115825227Y-44240749D02*
X115863322Y-44202654D01*
X115939512Y-44164558D01*
X116129989Y-44164558D01*
X116206179Y-44202654D01*
X116244274Y-44240749D01*
X116282369Y-44316939D01*
X116282369Y-44393130D01*
X116244274Y-44507415D01*
X115787131Y-44964558D01*
X116282369Y-44964558D01*
%TO.C,L3*%
X115606655Y-40274558D02*
X115225703Y-40274558D01*
X115225703Y-39474558D01*
X115797131Y-39474558D02*
X116292369Y-39474558D01*
X116025703Y-39779320D01*
X116139989Y-39779320D01*
X116216179Y-39817415D01*
X116254274Y-39855511D01*
X116292369Y-39931701D01*
X116292369Y-40122177D01*
X116254274Y-40198368D01*
X116216179Y-40236463D01*
X116139989Y-40274558D01*
X115911417Y-40274558D01*
X115835227Y-40236463D01*
X115797131Y-40198368D01*
%TO.C,R19*%
X120105703Y-30159558D02*
X119839036Y-29778606D01*
X119648560Y-30159558D02*
X119648560Y-29359558D01*
X119953322Y-29359558D01*
X120029512Y-29397654D01*
X120067608Y-29435749D01*
X120105703Y-29511939D01*
X120105703Y-29626225D01*
X120067608Y-29702415D01*
X120029512Y-29740511D01*
X119953322Y-29778606D01*
X119648560Y-29778606D01*
X120867608Y-30159558D02*
X120410465Y-30159558D01*
X120639036Y-30159558D02*
X120639036Y-29359558D01*
X120562846Y-29473844D01*
X120486655Y-29550034D01*
X120410465Y-29588130D01*
X121248560Y-30159558D02*
X121400941Y-30159558D01*
X121477131Y-30121463D01*
X121515227Y-30083368D01*
X121591417Y-29969082D01*
X121629512Y-29816701D01*
X121629512Y-29511939D01*
X121591417Y-29435749D01*
X121553322Y-29397654D01*
X121477131Y-29359558D01*
X121324750Y-29359558D01*
X121248560Y-29397654D01*
X121210465Y-29435749D01*
X121172369Y-29511939D01*
X121172369Y-29702415D01*
X121210465Y-29778606D01*
X121248560Y-29816701D01*
X121324750Y-29854796D01*
X121477131Y-29854796D01*
X121553322Y-29816701D01*
X121591417Y-29778606D01*
X121629512Y-29702415D01*
%TO.C,LED1*%
X137001893Y-103077892D02*
X137001893Y-103458844D01*
X136201893Y-103458844D01*
X136582846Y-102811225D02*
X136582846Y-102544558D01*
X137001893Y-102430273D02*
X137001893Y-102811225D01*
X136201893Y-102811225D01*
X136201893Y-102430273D01*
X137001893Y-102087415D02*
X136201893Y-102087415D01*
X136201893Y-101896939D01*
X136239989Y-101782654D01*
X136316179Y-101706463D01*
X136392369Y-101668368D01*
X136544750Y-101630273D01*
X136659036Y-101630273D01*
X136811417Y-101668368D01*
X136887608Y-101706463D01*
X136963798Y-101782654D01*
X137001893Y-101896939D01*
X137001893Y-102087415D01*
X137001893Y-100868368D02*
X137001893Y-101325511D01*
X137001893Y-101096939D02*
X136201893Y-101096939D01*
X136316179Y-101173130D01*
X136392369Y-101249320D01*
X136430465Y-101325511D01*
%TO.C,J1*%
X109923322Y-89029558D02*
X109923322Y-89600987D01*
X109885227Y-89715273D01*
X109809036Y-89791463D01*
X109694750Y-89829558D01*
X109618560Y-89829558D01*
X110723322Y-89829558D02*
X110266179Y-89829558D01*
X110494750Y-89829558D02*
X110494750Y-89029558D01*
X110418560Y-89143844D01*
X110342369Y-89220034D01*
X110266179Y-89258130D01*
D14*
%TO.C,U1*%
X136358084Y-102145034D02*
X136358084Y-102954558D01*
X136405703Y-103049796D01*
X136453322Y-103097415D01*
X136548560Y-103145034D01*
X136739036Y-103145034D01*
X136834274Y-103097415D01*
X136881893Y-103049796D01*
X136929512Y-102954558D01*
X136929512Y-102145034D01*
X137929512Y-103145034D02*
X137358084Y-103145034D01*
X137643798Y-103145034D02*
X137643798Y-102145034D01*
X137548560Y-102287892D01*
X137453322Y-102383130D01*
X137358084Y-102430749D01*
D12*
%TO.C,C11*%
X135295703Y-35723368D02*
X135257608Y-35761463D01*
X135143322Y-35799558D01*
X135067131Y-35799558D01*
X134952846Y-35761463D01*
X134876655Y-35685273D01*
X134838560Y-35609082D01*
X134800465Y-35456701D01*
X134800465Y-35342415D01*
X134838560Y-35190034D01*
X134876655Y-35113844D01*
X134952846Y-35037654D01*
X135067131Y-34999558D01*
X135143322Y-34999558D01*
X135257608Y-35037654D01*
X135295703Y-35075749D01*
X136057608Y-35799558D02*
X135600465Y-35799558D01*
X135829036Y-35799558D02*
X135829036Y-34999558D01*
X135752846Y-35113844D01*
X135676655Y-35190034D01*
X135600465Y-35228130D01*
X136819512Y-35799558D02*
X136362369Y-35799558D01*
X136590941Y-35799558D02*
X136590941Y-34999558D01*
X136514750Y-35113844D01*
X136438560Y-35190034D01*
X136362369Y-35228130D01*
%TO.C,C8*%
X138676655Y-40298368D02*
X138638560Y-40336463D01*
X138524274Y-40374558D01*
X138448084Y-40374558D01*
X138333798Y-40336463D01*
X138257608Y-40260273D01*
X138219512Y-40184082D01*
X138181417Y-40031701D01*
X138181417Y-39917415D01*
X138219512Y-39765034D01*
X138257608Y-39688844D01*
X138333798Y-39612654D01*
X138448084Y-39574558D01*
X138524274Y-39574558D01*
X138638560Y-39612654D01*
X138676655Y-39650749D01*
X139133798Y-39917415D02*
X139057608Y-39879320D01*
X139019512Y-39841225D01*
X138981417Y-39765034D01*
X138981417Y-39726939D01*
X139019512Y-39650749D01*
X139057608Y-39612654D01*
X139133798Y-39574558D01*
X139286179Y-39574558D01*
X139362369Y-39612654D01*
X139400465Y-39650749D01*
X139438560Y-39726939D01*
X139438560Y-39765034D01*
X139400465Y-39841225D01*
X139362369Y-39879320D01*
X139286179Y-39917415D01*
X139133798Y-39917415D01*
X139057608Y-39955511D01*
X139019512Y-39993606D01*
X138981417Y-40069796D01*
X138981417Y-40222177D01*
X139019512Y-40298368D01*
X139057608Y-40336463D01*
X139133798Y-40374558D01*
X139286179Y-40374558D01*
X139362369Y-40336463D01*
X139400465Y-40298368D01*
X139438560Y-40222177D01*
X139438560Y-40069796D01*
X139400465Y-39993606D01*
X139362369Y-39955511D01*
X139286179Y-39917415D01*
%TO.C,J4*%
X96133322Y-28429558D02*
X96133322Y-29000987D01*
X96095227Y-29115273D01*
X96019036Y-29191463D01*
X95904750Y-29229558D01*
X95828560Y-29229558D01*
X96857131Y-28696225D02*
X96857131Y-29229558D01*
X96666655Y-28391463D02*
X96476179Y-28962892D01*
X96971417Y-28962892D01*
%TO.C,R16*%
X79460703Y-33119558D02*
X79194036Y-32738606D01*
X79003560Y-33119558D02*
X79003560Y-32319558D01*
X79308322Y-32319558D01*
X79384512Y-32357654D01*
X79422608Y-32395749D01*
X79460703Y-32471939D01*
X79460703Y-32586225D01*
X79422608Y-32662415D01*
X79384512Y-32700511D01*
X79308322Y-32738606D01*
X79003560Y-32738606D01*
X80222608Y-33119558D02*
X79765465Y-33119558D01*
X79994036Y-33119558D02*
X79994036Y-32319558D01*
X79917846Y-32433844D01*
X79841655Y-32510034D01*
X79765465Y-32548130D01*
X80908322Y-32319558D02*
X80755941Y-32319558D01*
X80679750Y-32357654D01*
X80641655Y-32395749D01*
X80565465Y-32510034D01*
X80527369Y-32662415D01*
X80527369Y-32967177D01*
X80565465Y-33043368D01*
X80603560Y-33081463D01*
X80679750Y-33119558D01*
X80832131Y-33119558D01*
X80908322Y-33081463D01*
X80946417Y-33043368D01*
X80984512Y-32967177D01*
X80984512Y-32776701D01*
X80946417Y-32700511D01*
X80908322Y-32662415D01*
X80832131Y-32624320D01*
X80679750Y-32624320D01*
X80603560Y-32662415D01*
X80565465Y-32700511D01*
X80527369Y-32776701D01*
%TO.C,JP1*%
X110408322Y-27524558D02*
X110408322Y-28095987D01*
X110370227Y-28210273D01*
X110294036Y-28286463D01*
X110179750Y-28324558D01*
X110103560Y-28324558D01*
X110789274Y-28324558D02*
X110789274Y-27524558D01*
X111094036Y-27524558D01*
X111170227Y-27562654D01*
X111208322Y-27600749D01*
X111246417Y-27676939D01*
X111246417Y-27791225D01*
X111208322Y-27867415D01*
X111170227Y-27905511D01*
X111094036Y-27943606D01*
X110789274Y-27943606D01*
X112008322Y-28324558D02*
X111551179Y-28324558D01*
X111779750Y-28324558D02*
X111779750Y-27524558D01*
X111703560Y-27638844D01*
X111627369Y-27715034D01*
X111551179Y-27753130D01*
%TO.C,C15*%
X120095703Y-35858368D02*
X120057608Y-35896463D01*
X119943322Y-35934558D01*
X119867131Y-35934558D01*
X119752846Y-35896463D01*
X119676655Y-35820273D01*
X119638560Y-35744082D01*
X119600465Y-35591701D01*
X119600465Y-35477415D01*
X119638560Y-35325034D01*
X119676655Y-35248844D01*
X119752846Y-35172654D01*
X119867131Y-35134558D01*
X119943322Y-35134558D01*
X120057608Y-35172654D01*
X120095703Y-35210749D01*
X120857608Y-35934558D02*
X120400465Y-35934558D01*
X120629036Y-35934558D02*
X120629036Y-35134558D01*
X120552846Y-35248844D01*
X120476655Y-35325034D01*
X120400465Y-35363130D01*
X121581417Y-35134558D02*
X121200465Y-35134558D01*
X121162369Y-35515511D01*
X121200465Y-35477415D01*
X121276655Y-35439320D01*
X121467131Y-35439320D01*
X121543322Y-35477415D01*
X121581417Y-35515511D01*
X121619512Y-35591701D01*
X121619512Y-35782177D01*
X121581417Y-35858368D01*
X121543322Y-35896463D01*
X121467131Y-35934558D01*
X121276655Y-35934558D01*
X121200465Y-35896463D01*
X121162369Y-35858368D01*
%TO.C,Q2*%
X46428798Y-42575749D02*
X46352608Y-42537654D01*
X46276417Y-42461463D01*
X46162131Y-42347177D01*
X46085941Y-42309082D01*
X46009750Y-42309082D01*
X46047846Y-42499558D02*
X45971655Y-42461463D01*
X45895465Y-42385273D01*
X45857369Y-42232892D01*
X45857369Y-41966225D01*
X45895465Y-41813844D01*
X45971655Y-41737654D01*
X46047846Y-41699558D01*
X46200227Y-41699558D01*
X46276417Y-41737654D01*
X46352608Y-41813844D01*
X46390703Y-41966225D01*
X46390703Y-42232892D01*
X46352608Y-42385273D01*
X46276417Y-42461463D01*
X46200227Y-42499558D01*
X46047846Y-42499558D01*
X46695465Y-41775749D02*
X46733560Y-41737654D01*
X46809750Y-41699558D01*
X47000227Y-41699558D01*
X47076417Y-41737654D01*
X47114512Y-41775749D01*
X47152608Y-41851939D01*
X47152608Y-41928130D01*
X47114512Y-42042415D01*
X46657369Y-42499558D01*
X47152608Y-42499558D01*
%TO.C,C9*%
X135706655Y-40273368D02*
X135668560Y-40311463D01*
X135554274Y-40349558D01*
X135478084Y-40349558D01*
X135363798Y-40311463D01*
X135287608Y-40235273D01*
X135249512Y-40159082D01*
X135211417Y-40006701D01*
X135211417Y-39892415D01*
X135249512Y-39740034D01*
X135287608Y-39663844D01*
X135363798Y-39587654D01*
X135478084Y-39549558D01*
X135554274Y-39549558D01*
X135668560Y-39587654D01*
X135706655Y-39625749D01*
X136087608Y-40349558D02*
X136239989Y-40349558D01*
X136316179Y-40311463D01*
X136354274Y-40273368D01*
X136430465Y-40159082D01*
X136468560Y-40006701D01*
X136468560Y-39701939D01*
X136430465Y-39625749D01*
X136392369Y-39587654D01*
X136316179Y-39549558D01*
X136163798Y-39549558D01*
X136087608Y-39587654D01*
X136049512Y-39625749D01*
X136011417Y-39701939D01*
X136011417Y-39892415D01*
X136049512Y-39968606D01*
X136087608Y-40006701D01*
X136163798Y-40044796D01*
X136316179Y-40044796D01*
X136392369Y-40006701D01*
X136430465Y-39968606D01*
X136468560Y-39892415D01*
%TO.C,R6*%
X103491655Y-49969558D02*
X103224989Y-49588606D01*
X103034512Y-49969558D02*
X103034512Y-49169558D01*
X103339274Y-49169558D01*
X103415465Y-49207654D01*
X103453560Y-49245749D01*
X103491655Y-49321939D01*
X103491655Y-49436225D01*
X103453560Y-49512415D01*
X103415465Y-49550511D01*
X103339274Y-49588606D01*
X103034512Y-49588606D01*
X104177369Y-49169558D02*
X104024989Y-49169558D01*
X103948798Y-49207654D01*
X103910703Y-49245749D01*
X103834512Y-49360034D01*
X103796417Y-49512415D01*
X103796417Y-49817177D01*
X103834512Y-49893368D01*
X103872608Y-49931463D01*
X103948798Y-49969558D01*
X104101179Y-49969558D01*
X104177369Y-49931463D01*
X104215465Y-49893368D01*
X104253560Y-49817177D01*
X104253560Y-49626701D01*
X104215465Y-49550511D01*
X104177369Y-49512415D01*
X104101179Y-49474320D01*
X103948798Y-49474320D01*
X103872608Y-49512415D01*
X103834512Y-49550511D01*
X103796417Y-49626701D01*
%TO.C,D1*%
X72139512Y-62249558D02*
X72139512Y-61449558D01*
X72329989Y-61449558D01*
X72444274Y-61487654D01*
X72520465Y-61563844D01*
X72558560Y-61640034D01*
X72596655Y-61792415D01*
X72596655Y-61906701D01*
X72558560Y-62059082D01*
X72520465Y-62135273D01*
X72444274Y-62211463D01*
X72329989Y-62249558D01*
X72139512Y-62249558D01*
X73358560Y-62249558D02*
X72901417Y-62249558D01*
X73129989Y-62249558D02*
X73129989Y-61449558D01*
X73053798Y-61563844D01*
X72977608Y-61640034D01*
X72901417Y-61678130D01*
%TO.C,C13*%
X112580703Y-40278368D02*
X112542608Y-40316463D01*
X112428322Y-40354558D01*
X112352131Y-40354558D01*
X112237846Y-40316463D01*
X112161655Y-40240273D01*
X112123560Y-40164082D01*
X112085465Y-40011701D01*
X112085465Y-39897415D01*
X112123560Y-39745034D01*
X112161655Y-39668844D01*
X112237846Y-39592654D01*
X112352131Y-39554558D01*
X112428322Y-39554558D01*
X112542608Y-39592654D01*
X112580703Y-39630749D01*
X113342608Y-40354558D02*
X112885465Y-40354558D01*
X113114036Y-40354558D02*
X113114036Y-39554558D01*
X113037846Y-39668844D01*
X112961655Y-39745034D01*
X112885465Y-39783130D01*
X113609274Y-39554558D02*
X114104512Y-39554558D01*
X113837846Y-39859320D01*
X113952131Y-39859320D01*
X114028322Y-39897415D01*
X114066417Y-39935511D01*
X114104512Y-40011701D01*
X114104512Y-40202177D01*
X114066417Y-40278368D01*
X114028322Y-40316463D01*
X113952131Y-40354558D01*
X113723560Y-40354558D01*
X113647369Y-40316463D01*
X113609274Y-40278368D01*
%TO.C,R13*%
X88565703Y-69169558D02*
X88299036Y-68788606D01*
X88108560Y-69169558D02*
X88108560Y-68369558D01*
X88413322Y-68369558D01*
X88489512Y-68407654D01*
X88527608Y-68445749D01*
X88565703Y-68521939D01*
X88565703Y-68636225D01*
X88527608Y-68712415D01*
X88489512Y-68750511D01*
X88413322Y-68788606D01*
X88108560Y-68788606D01*
X89327608Y-69169558D02*
X88870465Y-69169558D01*
X89099036Y-69169558D02*
X89099036Y-68369558D01*
X89022846Y-68483844D01*
X88946655Y-68560034D01*
X88870465Y-68598130D01*
X89594274Y-68369558D02*
X90089512Y-68369558D01*
X89822846Y-68674320D01*
X89937131Y-68674320D01*
X90013322Y-68712415D01*
X90051417Y-68750511D01*
X90089512Y-68826701D01*
X90089512Y-69017177D01*
X90051417Y-69093368D01*
X90013322Y-69131463D01*
X89937131Y-69169558D01*
X89708560Y-69169558D01*
X89632369Y-69131463D01*
X89594274Y-69093368D01*
%TO.C,C4*%
X105331655Y-49808368D02*
X105293560Y-49846463D01*
X105179274Y-49884558D01*
X105103084Y-49884558D01*
X104988798Y-49846463D01*
X104912608Y-49770273D01*
X104874512Y-49694082D01*
X104836417Y-49541701D01*
X104836417Y-49427415D01*
X104874512Y-49275034D01*
X104912608Y-49198844D01*
X104988798Y-49122654D01*
X105103084Y-49084558D01*
X105179274Y-49084558D01*
X105293560Y-49122654D01*
X105331655Y-49160749D01*
X106017369Y-49351225D02*
X106017369Y-49884558D01*
X105826893Y-49046463D02*
X105636417Y-49617892D01*
X106131655Y-49617892D01*
%TO.C,R18*%
X76535703Y-33174558D02*
X76269036Y-32793606D01*
X76078560Y-33174558D02*
X76078560Y-32374558D01*
X76383322Y-32374558D01*
X76459512Y-32412654D01*
X76497608Y-32450749D01*
X76535703Y-32526939D01*
X76535703Y-32641225D01*
X76497608Y-32717415D01*
X76459512Y-32755511D01*
X76383322Y-32793606D01*
X76078560Y-32793606D01*
X77297608Y-33174558D02*
X76840465Y-33174558D01*
X77069036Y-33174558D02*
X77069036Y-32374558D01*
X76992846Y-32488844D01*
X76916655Y-32565034D01*
X76840465Y-32603130D01*
X77754750Y-32717415D02*
X77678560Y-32679320D01*
X77640465Y-32641225D01*
X77602369Y-32565034D01*
X77602369Y-32526939D01*
X77640465Y-32450749D01*
X77678560Y-32412654D01*
X77754750Y-32374558D01*
X77907131Y-32374558D01*
X77983322Y-32412654D01*
X78021417Y-32450749D01*
X78059512Y-32526939D01*
X78059512Y-32565034D01*
X78021417Y-32641225D01*
X77983322Y-32679320D01*
X77907131Y-32717415D01*
X77754750Y-32717415D01*
X77678560Y-32755511D01*
X77640465Y-32793606D01*
X77602369Y-32869796D01*
X77602369Y-33022177D01*
X77640465Y-33098368D01*
X77678560Y-33136463D01*
X77754750Y-33174558D01*
X77907131Y-33174558D01*
X77983322Y-33136463D01*
X78021417Y-33098368D01*
X78059512Y-33022177D01*
X78059512Y-32869796D01*
X78021417Y-32793606D01*
X77983322Y-32755511D01*
X77907131Y-32717415D01*
%TO.C,U7*%
X110665465Y-35789558D02*
X110665465Y-36437177D01*
X110703560Y-36513368D01*
X110741655Y-36551463D01*
X110817846Y-36589558D01*
X110970227Y-36589558D01*
X111046417Y-36551463D01*
X111084512Y-36513368D01*
X111122608Y-36437177D01*
X111122608Y-35789558D01*
X111427369Y-35789558D02*
X111960703Y-35789558D01*
X111617846Y-36589558D01*
D15*
%TO.C,J2*%
X54626655Y-81023403D02*
X54626655Y-81930546D01*
X54566179Y-82111975D01*
X54445227Y-82232927D01*
X54263798Y-82293403D01*
X54142846Y-82293403D01*
X55170941Y-81144356D02*
X55231417Y-81083880D01*
X55352369Y-81023403D01*
X55654750Y-81023403D01*
X55775703Y-81083880D01*
X55836179Y-81144356D01*
X55896655Y-81265308D01*
X55896655Y-81386260D01*
X55836179Y-81567689D01*
X55110465Y-82293403D01*
X55896655Y-82293403D01*
D12*
%TO.C,R2*%
X133041655Y-98174558D02*
X132774989Y-97793606D01*
X132584512Y-98174558D02*
X132584512Y-97374558D01*
X132889274Y-97374558D01*
X132965465Y-97412654D01*
X133003560Y-97450749D01*
X133041655Y-97526939D01*
X133041655Y-97641225D01*
X133003560Y-97717415D01*
X132965465Y-97755511D01*
X132889274Y-97793606D01*
X132584512Y-97793606D01*
X133346417Y-97450749D02*
X133384512Y-97412654D01*
X133460703Y-97374558D01*
X133651179Y-97374558D01*
X133727369Y-97412654D01*
X133765465Y-97450749D01*
X133803560Y-97526939D01*
X133803560Y-97603130D01*
X133765465Y-97717415D01*
X133308322Y-98174558D01*
X133803560Y-98174558D01*
%TO.C,R5*%
X129636655Y-98164558D02*
X129369989Y-97783606D01*
X129179512Y-98164558D02*
X129179512Y-97364558D01*
X129484274Y-97364558D01*
X129560465Y-97402654D01*
X129598560Y-97440749D01*
X129636655Y-97516939D01*
X129636655Y-97631225D01*
X129598560Y-97707415D01*
X129560465Y-97745511D01*
X129484274Y-97783606D01*
X129179512Y-97783606D01*
X130360465Y-97364558D02*
X129979512Y-97364558D01*
X129941417Y-97745511D01*
X129979512Y-97707415D01*
X130055703Y-97669320D01*
X130246179Y-97669320D01*
X130322369Y-97707415D01*
X130360465Y-97745511D01*
X130398560Y-97821701D01*
X130398560Y-98012177D01*
X130360465Y-98088368D01*
X130322369Y-98126463D01*
X130246179Y-98164558D01*
X130055703Y-98164558D01*
X129979512Y-98126463D01*
X129941417Y-98088368D01*
%TO.C,J3*%
X104798322Y-28459558D02*
X104798322Y-29030987D01*
X104760227Y-29145273D01*
X104684036Y-29221463D01*
X104569750Y-29259558D01*
X104493560Y-29259558D01*
X105103084Y-28459558D02*
X105598322Y-28459558D01*
X105331655Y-28764320D01*
X105445941Y-28764320D01*
X105522131Y-28802415D01*
X105560227Y-28840511D01*
X105598322Y-28916701D01*
X105598322Y-29107177D01*
X105560227Y-29183368D01*
X105522131Y-29221463D01*
X105445941Y-29259558D01*
X105217369Y-29259558D01*
X105141179Y-29221463D01*
X105103084Y-29183368D01*
%TO.C,HS1*%
X39669512Y-28939558D02*
X39669512Y-28139558D01*
X39669512Y-28520511D02*
X40126655Y-28520511D01*
X40126655Y-28939558D02*
X40126655Y-28139558D01*
X40469512Y-28901463D02*
X40583798Y-28939558D01*
X40774274Y-28939558D01*
X40850465Y-28901463D01*
X40888560Y-28863368D01*
X40926655Y-28787177D01*
X40926655Y-28710987D01*
X40888560Y-28634796D01*
X40850465Y-28596701D01*
X40774274Y-28558606D01*
X40621893Y-28520511D01*
X40545703Y-28482415D01*
X40507608Y-28444320D01*
X40469512Y-28368130D01*
X40469512Y-28291939D01*
X40507608Y-28215749D01*
X40545703Y-28177654D01*
X40621893Y-28139558D01*
X40812369Y-28139558D01*
X40926655Y-28177654D01*
X41688560Y-28939558D02*
X41231417Y-28939558D01*
X41459989Y-28939558D02*
X41459989Y-28139558D01*
X41383798Y-28253844D01*
X41307608Y-28330034D01*
X41231417Y-28368130D01*
%TO.C,C12*%
X120100703Y-40278368D02*
X120062608Y-40316463D01*
X119948322Y-40354558D01*
X119872131Y-40354558D01*
X119757846Y-40316463D01*
X119681655Y-40240273D01*
X119643560Y-40164082D01*
X119605465Y-40011701D01*
X119605465Y-39897415D01*
X119643560Y-39745034D01*
X119681655Y-39668844D01*
X119757846Y-39592654D01*
X119872131Y-39554558D01*
X119948322Y-39554558D01*
X120062608Y-39592654D01*
X120100703Y-39630749D01*
X120862608Y-40354558D02*
X120405465Y-40354558D01*
X120634036Y-40354558D02*
X120634036Y-39554558D01*
X120557846Y-39668844D01*
X120481655Y-39745034D01*
X120405465Y-39783130D01*
X121167369Y-39630749D02*
X121205465Y-39592654D01*
X121281655Y-39554558D01*
X121472131Y-39554558D01*
X121548322Y-39592654D01*
X121586417Y-39630749D01*
X121624512Y-39706939D01*
X121624512Y-39783130D01*
X121586417Y-39897415D01*
X121129274Y-40354558D01*
X121624512Y-40354558D01*
%TO.C,C14*%
X117115703Y-35873368D02*
X117077608Y-35911463D01*
X116963322Y-35949558D01*
X116887131Y-35949558D01*
X116772846Y-35911463D01*
X116696655Y-35835273D01*
X116658560Y-35759082D01*
X116620465Y-35606701D01*
X116620465Y-35492415D01*
X116658560Y-35340034D01*
X116696655Y-35263844D01*
X116772846Y-35187654D01*
X116887131Y-35149558D01*
X116963322Y-35149558D01*
X117077608Y-35187654D01*
X117115703Y-35225749D01*
X117877608Y-35949558D02*
X117420465Y-35949558D01*
X117649036Y-35949558D02*
X117649036Y-35149558D01*
X117572846Y-35263844D01*
X117496655Y-35340034D01*
X117420465Y-35378130D01*
X118563322Y-35416225D02*
X118563322Y-35949558D01*
X118372846Y-35111463D02*
X118182369Y-35682892D01*
X118677608Y-35682892D01*
D14*
%TO.C,U6*%
X127415584Y-45795034D02*
X127415584Y-46604558D01*
X127463203Y-46699796D01*
X127510822Y-46747415D01*
X127606060Y-46795034D01*
X127796536Y-46795034D01*
X127891774Y-46747415D01*
X127939393Y-46699796D01*
X127987012Y-46604558D01*
X127987012Y-45795034D01*
X128891774Y-45795034D02*
X128701298Y-45795034D01*
X128606060Y-45842654D01*
X128558441Y-45890273D01*
X128463203Y-46033130D01*
X128415584Y-46223606D01*
X128415584Y-46604558D01*
X128463203Y-46699796D01*
X128510822Y-46747415D01*
X128606060Y-46795034D01*
X128796536Y-46795034D01*
X128891774Y-46747415D01*
X128939393Y-46699796D01*
X128987012Y-46604558D01*
X128987012Y-46366463D01*
X128939393Y-46271225D01*
X128891774Y-46223606D01*
X128796536Y-46175987D01*
X128606060Y-46175987D01*
X128510822Y-46223606D01*
X128463203Y-46271225D01*
X128415584Y-46366463D01*
D12*
%TO.C,LED3*%
X123321893Y-103055392D02*
X123321893Y-103436344D01*
X122521893Y-103436344D01*
X122902846Y-102788725D02*
X122902846Y-102522058D01*
X123321893Y-102407773D02*
X123321893Y-102788725D01*
X122521893Y-102788725D01*
X122521893Y-102407773D01*
X123321893Y-102064915D02*
X122521893Y-102064915D01*
X122521893Y-101874439D01*
X122559989Y-101760154D01*
X122636179Y-101683963D01*
X122712369Y-101645868D01*
X122864750Y-101607773D01*
X122979036Y-101607773D01*
X123131417Y-101645868D01*
X123207608Y-101683963D01*
X123283798Y-101760154D01*
X123321893Y-101874439D01*
X123321893Y-102064915D01*
X122521893Y-101341106D02*
X122521893Y-100845868D01*
X122826655Y-101112534D01*
X122826655Y-100998249D01*
X122864750Y-100922058D01*
X122902846Y-100883963D01*
X122979036Y-100845868D01*
X123169512Y-100845868D01*
X123245703Y-100883963D01*
X123283798Y-100922058D01*
X123321893Y-100998249D01*
X123321893Y-101226820D01*
X123283798Y-101303011D01*
X123245703Y-101341106D01*
%TO.C,U4*%
X92200465Y-72719558D02*
X92200465Y-73367177D01*
X92238560Y-73443368D01*
X92276655Y-73481463D01*
X92352846Y-73519558D01*
X92505227Y-73519558D01*
X92581417Y-73481463D01*
X92619512Y-73443368D01*
X92657608Y-73367177D01*
X92657608Y-72719558D01*
X93381417Y-72986225D02*
X93381417Y-73519558D01*
X93190941Y-72681463D02*
X93000465Y-73252892D01*
X93495703Y-73252892D01*
%TO.C,R8*%
X104811655Y-74649558D02*
X104544989Y-74268606D01*
X104354512Y-74649558D02*
X104354512Y-73849558D01*
X104659274Y-73849558D01*
X104735465Y-73887654D01*
X104773560Y-73925749D01*
X104811655Y-74001939D01*
X104811655Y-74116225D01*
X104773560Y-74192415D01*
X104735465Y-74230511D01*
X104659274Y-74268606D01*
X104354512Y-74268606D01*
X105268798Y-74192415D02*
X105192608Y-74154320D01*
X105154512Y-74116225D01*
X105116417Y-74040034D01*
X105116417Y-74001939D01*
X105154512Y-73925749D01*
X105192608Y-73887654D01*
X105268798Y-73849558D01*
X105421179Y-73849558D01*
X105497369Y-73887654D01*
X105535465Y-73925749D01*
X105573560Y-74001939D01*
X105573560Y-74040034D01*
X105535465Y-74116225D01*
X105497369Y-74154320D01*
X105421179Y-74192415D01*
X105268798Y-74192415D01*
X105192608Y-74230511D01*
X105154512Y-74268606D01*
X105116417Y-74344796D01*
X105116417Y-74497177D01*
X105154512Y-74573368D01*
X105192608Y-74611463D01*
X105268798Y-74649558D01*
X105421179Y-74649558D01*
X105497369Y-74611463D01*
X105535465Y-74573368D01*
X105573560Y-74497177D01*
X105573560Y-74344796D01*
X105535465Y-74268606D01*
X105497369Y-74230511D01*
X105421179Y-74192415D01*
%TO.C,C3*%
X108321655Y-49788368D02*
X108283560Y-49826463D01*
X108169274Y-49864558D01*
X108093084Y-49864558D01*
X107978798Y-49826463D01*
X107902608Y-49750273D01*
X107864512Y-49674082D01*
X107826417Y-49521701D01*
X107826417Y-49407415D01*
X107864512Y-49255034D01*
X107902608Y-49178844D01*
X107978798Y-49102654D01*
X108093084Y-49064558D01*
X108169274Y-49064558D01*
X108283560Y-49102654D01*
X108321655Y-49140749D01*
X108588322Y-49064558D02*
X109083560Y-49064558D01*
X108816893Y-49369320D01*
X108931179Y-49369320D01*
X109007369Y-49407415D01*
X109045465Y-49445511D01*
X109083560Y-49521701D01*
X109083560Y-49712177D01*
X109045465Y-49788368D01*
X109007369Y-49826463D01*
X108931179Y-49864558D01*
X108702608Y-49864558D01*
X108626417Y-49826463D01*
X108588322Y-49788368D01*
%TO.C,LED2*%
X133546893Y-103077892D02*
X133546893Y-103458844D01*
X132746893Y-103458844D01*
X133127846Y-102811225D02*
X133127846Y-102544558D01*
X133546893Y-102430273D02*
X133546893Y-102811225D01*
X132746893Y-102811225D01*
X132746893Y-102430273D01*
X133546893Y-102087415D02*
X132746893Y-102087415D01*
X132746893Y-101896939D01*
X132784989Y-101782654D01*
X132861179Y-101706463D01*
X132937369Y-101668368D01*
X133089750Y-101630273D01*
X133204036Y-101630273D01*
X133356417Y-101668368D01*
X133432608Y-101706463D01*
X133508798Y-101782654D01*
X133546893Y-101896939D01*
X133546893Y-102087415D01*
X132823084Y-101325511D02*
X132784989Y-101287415D01*
X132746893Y-101211225D01*
X132746893Y-101020749D01*
X132784989Y-100944558D01*
X132823084Y-100906463D01*
X132899274Y-100868368D01*
X132975465Y-100868368D01*
X133089750Y-100906463D01*
X133546893Y-101363606D01*
X133546893Y-100868368D01*
%TO.C,D2*%
X82394512Y-72319558D02*
X82394512Y-71519558D01*
X82584989Y-71519558D01*
X82699274Y-71557654D01*
X82775465Y-71633844D01*
X82813560Y-71710034D01*
X82851655Y-71862415D01*
X82851655Y-71976701D01*
X82813560Y-72129082D01*
X82775465Y-72205273D01*
X82699274Y-72281463D01*
X82584989Y-72319558D01*
X82394512Y-72319558D01*
X83156417Y-71595749D02*
X83194512Y-71557654D01*
X83270703Y-71519558D01*
X83461179Y-71519558D01*
X83537369Y-71557654D01*
X83575465Y-71595749D01*
X83613560Y-71671939D01*
X83613560Y-71748130D01*
X83575465Y-71862415D01*
X83118322Y-72319558D01*
X83613560Y-72319558D01*
%TO.C,C10*%
X138345703Y-35748368D02*
X138307608Y-35786463D01*
X138193322Y-35824558D01*
X138117131Y-35824558D01*
X138002846Y-35786463D01*
X137926655Y-35710273D01*
X137888560Y-35634082D01*
X137850465Y-35481701D01*
X137850465Y-35367415D01*
X137888560Y-35215034D01*
X137926655Y-35138844D01*
X138002846Y-35062654D01*
X138117131Y-35024558D01*
X138193322Y-35024558D01*
X138307608Y-35062654D01*
X138345703Y-35100749D01*
X139107608Y-35824558D02*
X138650465Y-35824558D01*
X138879036Y-35824558D02*
X138879036Y-35024558D01*
X138802846Y-35138844D01*
X138726655Y-35215034D01*
X138650465Y-35253130D01*
X139602846Y-35024558D02*
X139679036Y-35024558D01*
X139755227Y-35062654D01*
X139793322Y-35100749D01*
X139831417Y-35176939D01*
X139869512Y-35329320D01*
X139869512Y-35519796D01*
X139831417Y-35672177D01*
X139793322Y-35748368D01*
X139755227Y-35786463D01*
X139679036Y-35824558D01*
X139602846Y-35824558D01*
X139526655Y-35786463D01*
X139488560Y-35748368D01*
X139450465Y-35672177D01*
X139412369Y-35519796D01*
X139412369Y-35329320D01*
X139450465Y-35176939D01*
X139488560Y-35100749D01*
X139526655Y-35062654D01*
X139602846Y-35024558D01*
%TO.C,R15*%
X85560703Y-69169558D02*
X85294036Y-68788606D01*
X85103560Y-69169558D02*
X85103560Y-68369558D01*
X85408322Y-68369558D01*
X85484512Y-68407654D01*
X85522608Y-68445749D01*
X85560703Y-68521939D01*
X85560703Y-68636225D01*
X85522608Y-68712415D01*
X85484512Y-68750511D01*
X85408322Y-68788606D01*
X85103560Y-68788606D01*
X86322608Y-69169558D02*
X85865465Y-69169558D01*
X86094036Y-69169558D02*
X86094036Y-68369558D01*
X86017846Y-68483844D01*
X85941655Y-68560034D01*
X85865465Y-68598130D01*
X87046417Y-68369558D02*
X86665465Y-68369558D01*
X86627369Y-68750511D01*
X86665465Y-68712415D01*
X86741655Y-68674320D01*
X86932131Y-68674320D01*
X87008322Y-68712415D01*
X87046417Y-68750511D01*
X87084512Y-68826701D01*
X87084512Y-69017177D01*
X87046417Y-69093368D01*
X87008322Y-69131463D01*
X86932131Y-69169558D01*
X86741655Y-69169558D01*
X86665465Y-69131463D01*
X86627369Y-69093368D01*
%TO.C,C7*%
X83536655Y-34288368D02*
X83498560Y-34326463D01*
X83384274Y-34364558D01*
X83308084Y-34364558D01*
X83193798Y-34326463D01*
X83117608Y-34250273D01*
X83079512Y-34174082D01*
X83041417Y-34021701D01*
X83041417Y-33907415D01*
X83079512Y-33755034D01*
X83117608Y-33678844D01*
X83193798Y-33602654D01*
X83308084Y-33564558D01*
X83384274Y-33564558D01*
X83498560Y-33602654D01*
X83536655Y-33640749D01*
X83803322Y-33564558D02*
X84336655Y-33564558D01*
X83993798Y-34364558D01*
%TO.C,U3*%
X72020465Y-57504558D02*
X72020465Y-58152177D01*
X72058560Y-58228368D01*
X72096655Y-58266463D01*
X72172846Y-58304558D01*
X72325227Y-58304558D01*
X72401417Y-58266463D01*
X72439512Y-58228368D01*
X72477608Y-58152177D01*
X72477608Y-57504558D01*
X72782369Y-57504558D02*
X73277608Y-57504558D01*
X73010941Y-57809320D01*
X73125227Y-57809320D01*
X73201417Y-57847415D01*
X73239512Y-57885511D01*
X73277608Y-57961701D01*
X73277608Y-58152177D01*
X73239512Y-58228368D01*
X73201417Y-58266463D01*
X73125227Y-58304558D01*
X72896655Y-58304558D01*
X72820465Y-58266463D01*
X72782369Y-58228368D01*
%TO.C,R4*%
X126221655Y-98152058D02*
X125954989Y-97771106D01*
X125764512Y-98152058D02*
X125764512Y-97352058D01*
X126069274Y-97352058D01*
X126145465Y-97390154D01*
X126183560Y-97428249D01*
X126221655Y-97504439D01*
X126221655Y-97618725D01*
X126183560Y-97694915D01*
X126145465Y-97733011D01*
X126069274Y-97771106D01*
X125764512Y-97771106D01*
X126907369Y-97618725D02*
X126907369Y-98152058D01*
X126716893Y-97313963D02*
X126526417Y-97885392D01*
X127021655Y-97885392D01*
%TO.C,R7*%
X101901655Y-74669558D02*
X101634989Y-74288606D01*
X101444512Y-74669558D02*
X101444512Y-73869558D01*
X101749274Y-73869558D01*
X101825465Y-73907654D01*
X101863560Y-73945749D01*
X101901655Y-74021939D01*
X101901655Y-74136225D01*
X101863560Y-74212415D01*
X101825465Y-74250511D01*
X101749274Y-74288606D01*
X101444512Y-74288606D01*
X102168322Y-73869558D02*
X102701655Y-73869558D01*
X102358798Y-74669558D01*
%TO.C,U5*%
X83050465Y-36579558D02*
X83050465Y-37227177D01*
X83088560Y-37303368D01*
X83126655Y-37341463D01*
X83202846Y-37379558D01*
X83355227Y-37379558D01*
X83431417Y-37341463D01*
X83469512Y-37303368D01*
X83507608Y-37227177D01*
X83507608Y-36579558D01*
X84269512Y-36579558D02*
X83888560Y-36579558D01*
X83850465Y-36960511D01*
X83888560Y-36922415D01*
X83964750Y-36884320D01*
X84155227Y-36884320D01*
X84231417Y-36922415D01*
X84269512Y-36960511D01*
X84307608Y-37036701D01*
X84307608Y-37227177D01*
X84269512Y-37303368D01*
X84231417Y-37341463D01*
X84155227Y-37379558D01*
X83964750Y-37379558D01*
X83888560Y-37341463D01*
X83850465Y-37303368D01*
%TO.C,R22*%
X76600703Y-37869558D02*
X76334036Y-37488606D01*
X76143560Y-37869558D02*
X76143560Y-37069558D01*
X76448322Y-37069558D01*
X76524512Y-37107654D01*
X76562608Y-37145749D01*
X76600703Y-37221939D01*
X76600703Y-37336225D01*
X76562608Y-37412415D01*
X76524512Y-37450511D01*
X76448322Y-37488606D01*
X76143560Y-37488606D01*
X76905465Y-37145749D02*
X76943560Y-37107654D01*
X77019750Y-37069558D01*
X77210227Y-37069558D01*
X77286417Y-37107654D01*
X77324512Y-37145749D01*
X77362608Y-37221939D01*
X77362608Y-37298130D01*
X77324512Y-37412415D01*
X76867369Y-37869558D01*
X77362608Y-37869558D01*
X77667369Y-37145749D02*
X77705465Y-37107654D01*
X77781655Y-37069558D01*
X77972131Y-37069558D01*
X78048322Y-37107654D01*
X78086417Y-37145749D01*
X78124512Y-37221939D01*
X78124512Y-37298130D01*
X78086417Y-37412415D01*
X77629274Y-37869558D01*
X78124512Y-37869558D01*
%TO.C,F1*%
X46061655Y-62477451D02*
X45728322Y-62477451D01*
X45728322Y-63001260D02*
X45728322Y-62001260D01*
X46204512Y-62001260D01*
X47109274Y-63001260D02*
X46537846Y-63001260D01*
X46823560Y-63001260D02*
X46823560Y-62001260D01*
X46728322Y-62144118D01*
X46633084Y-62239356D01*
X46537846Y-62286975D01*
%TO.C,R12*%
X66085703Y-57499558D02*
X65819036Y-57118606D01*
X65628560Y-57499558D02*
X65628560Y-56699558D01*
X65933322Y-56699558D01*
X66009512Y-56737654D01*
X66047608Y-56775749D01*
X66085703Y-56851939D01*
X66085703Y-56966225D01*
X66047608Y-57042415D01*
X66009512Y-57080511D01*
X65933322Y-57118606D01*
X65628560Y-57118606D01*
X66847608Y-57499558D02*
X66390465Y-57499558D01*
X66619036Y-57499558D02*
X66619036Y-56699558D01*
X66542846Y-56813844D01*
X66466655Y-56890034D01*
X66390465Y-56928130D01*
X67152369Y-56775749D02*
X67190465Y-56737654D01*
X67266655Y-56699558D01*
X67457131Y-56699558D01*
X67533322Y-56737654D01*
X67571417Y-56775749D01*
X67609512Y-56851939D01*
X67609512Y-56928130D01*
X67571417Y-57042415D01*
X67114274Y-57499558D01*
X67609512Y-57499558D01*
%TO.C,LED5*%
X130141893Y-103067892D02*
X130141893Y-103448844D01*
X129341893Y-103448844D01*
X129722846Y-102801225D02*
X129722846Y-102534558D01*
X130141893Y-102420273D02*
X130141893Y-102801225D01*
X129341893Y-102801225D01*
X129341893Y-102420273D01*
X130141893Y-102077415D02*
X129341893Y-102077415D01*
X129341893Y-101886939D01*
X129379989Y-101772654D01*
X129456179Y-101696463D01*
X129532369Y-101658368D01*
X129684750Y-101620273D01*
X129799036Y-101620273D01*
X129951417Y-101658368D01*
X130027608Y-101696463D01*
X130103798Y-101772654D01*
X130141893Y-101886939D01*
X130141893Y-102077415D01*
X129341893Y-100896463D02*
X129341893Y-101277415D01*
X129722846Y-101315511D01*
X129684750Y-101277415D01*
X129646655Y-101201225D01*
X129646655Y-101010749D01*
X129684750Y-100934558D01*
X129722846Y-100896463D01*
X129799036Y-100858368D01*
X129989512Y-100858368D01*
X130065703Y-100896463D01*
X130103798Y-100934558D01*
X130141893Y-101010749D01*
X130141893Y-101201225D01*
X130103798Y-101277415D01*
X130065703Y-101315511D01*
%TO.C,R3*%
X122791655Y-98144558D02*
X122524989Y-97763606D01*
X122334512Y-98144558D02*
X122334512Y-97344558D01*
X122639274Y-97344558D01*
X122715465Y-97382654D01*
X122753560Y-97420749D01*
X122791655Y-97496939D01*
X122791655Y-97611225D01*
X122753560Y-97687415D01*
X122715465Y-97725511D01*
X122639274Y-97763606D01*
X122334512Y-97763606D01*
X123058322Y-97344558D02*
X123553560Y-97344558D01*
X123286893Y-97649320D01*
X123401179Y-97649320D01*
X123477369Y-97687415D01*
X123515465Y-97725511D01*
X123553560Y-97801701D01*
X123553560Y-97992177D01*
X123515465Y-98068368D01*
X123477369Y-98106463D01*
X123401179Y-98144558D01*
X123172608Y-98144558D01*
X123096417Y-98106463D01*
X123058322Y-98068368D01*
%TO.C,C6*%
X92636655Y-70433368D02*
X92598560Y-70471463D01*
X92484274Y-70509558D01*
X92408084Y-70509558D01*
X92293798Y-70471463D01*
X92217608Y-70395273D01*
X92179512Y-70319082D01*
X92141417Y-70166701D01*
X92141417Y-70052415D01*
X92179512Y-69900034D01*
X92217608Y-69823844D01*
X92293798Y-69747654D01*
X92408084Y-69709558D01*
X92484274Y-69709558D01*
X92598560Y-69747654D01*
X92636655Y-69785749D01*
X93322369Y-69709558D02*
X93169989Y-69709558D01*
X93093798Y-69747654D01*
X93055703Y-69785749D01*
X92979512Y-69900034D01*
X92941417Y-70052415D01*
X92941417Y-70357177D01*
X92979512Y-70433368D01*
X93017608Y-70471463D01*
X93093798Y-70509558D01*
X93246179Y-70509558D01*
X93322369Y-70471463D01*
X93360465Y-70433368D01*
X93398560Y-70357177D01*
X93398560Y-70166701D01*
X93360465Y-70090511D01*
X93322369Y-70052415D01*
X93246179Y-70014320D01*
X93093798Y-70014320D01*
X93017608Y-70052415D01*
X92979512Y-70090511D01*
X92941417Y-70166701D01*
%TO.C,LED6*%
X100004750Y-49994558D02*
X99623798Y-49994558D01*
X99623798Y-49194558D01*
X100271417Y-49575511D02*
X100538084Y-49575511D01*
X100652369Y-49994558D02*
X100271417Y-49994558D01*
X100271417Y-49194558D01*
X100652369Y-49194558D01*
X100995227Y-49994558D02*
X100995227Y-49194558D01*
X101185703Y-49194558D01*
X101299989Y-49232654D01*
X101376179Y-49308844D01*
X101414274Y-49385034D01*
X101452369Y-49537415D01*
X101452369Y-49651701D01*
X101414274Y-49804082D01*
X101376179Y-49880273D01*
X101299989Y-49956463D01*
X101185703Y-49994558D01*
X100995227Y-49994558D01*
X102138084Y-49194558D02*
X101985703Y-49194558D01*
X101909512Y-49232654D01*
X101871417Y-49270749D01*
X101795227Y-49385034D01*
X101757131Y-49537415D01*
X101757131Y-49842177D01*
X101795227Y-49918368D01*
X101833322Y-49956463D01*
X101909512Y-49994558D01*
X102061893Y-49994558D01*
X102138084Y-49956463D01*
X102176179Y-49918368D01*
X102214274Y-49842177D01*
X102214274Y-49651701D01*
X102176179Y-49575511D01*
X102138084Y-49537415D01*
X102061893Y-49499320D01*
X101909512Y-49499320D01*
X101833322Y-49537415D01*
X101795227Y-49575511D01*
X101757131Y-49651701D01*
%TO.C,R17*%
X79515703Y-37894558D02*
X79249036Y-37513606D01*
X79058560Y-37894558D02*
X79058560Y-37094558D01*
X79363322Y-37094558D01*
X79439512Y-37132654D01*
X79477608Y-37170749D01*
X79515703Y-37246939D01*
X79515703Y-37361225D01*
X79477608Y-37437415D01*
X79439512Y-37475511D01*
X79363322Y-37513606D01*
X79058560Y-37513606D01*
X80277608Y-37894558D02*
X79820465Y-37894558D01*
X80049036Y-37894558D02*
X80049036Y-37094558D01*
X79972846Y-37208844D01*
X79896655Y-37285034D01*
X79820465Y-37323130D01*
X80544274Y-37094558D02*
X81077608Y-37094558D01*
X80734750Y-37894558D01*
%TO.C,R10*%
X104450703Y-79039558D02*
X104184036Y-78658606D01*
X103993560Y-79039558D02*
X103993560Y-78239558D01*
X104298322Y-78239558D01*
X104374512Y-78277654D01*
X104412608Y-78315749D01*
X104450703Y-78391939D01*
X104450703Y-78506225D01*
X104412608Y-78582415D01*
X104374512Y-78620511D01*
X104298322Y-78658606D01*
X103993560Y-78658606D01*
X105212608Y-79039558D02*
X104755465Y-79039558D01*
X104984036Y-79039558D02*
X104984036Y-78239558D01*
X104907846Y-78353844D01*
X104831655Y-78430034D01*
X104755465Y-78468130D01*
X105707846Y-78239558D02*
X105784036Y-78239558D01*
X105860227Y-78277654D01*
X105898322Y-78315749D01*
X105936417Y-78391939D01*
X105974512Y-78544320D01*
X105974512Y-78734796D01*
X105936417Y-78887177D01*
X105898322Y-78963368D01*
X105860227Y-79001463D01*
X105784036Y-79039558D01*
X105707846Y-79039558D01*
X105631655Y-79001463D01*
X105593560Y-78963368D01*
X105555465Y-78887177D01*
X105517369Y-78734796D01*
X105517369Y-78544320D01*
X105555465Y-78391939D01*
X105593560Y-78315749D01*
X105631655Y-78277654D01*
X105707846Y-78239558D01*
%TO.C,R14*%
X88630703Y-74159558D02*
X88364036Y-73778606D01*
X88173560Y-74159558D02*
X88173560Y-73359558D01*
X88478322Y-73359558D01*
X88554512Y-73397654D01*
X88592608Y-73435749D01*
X88630703Y-73511939D01*
X88630703Y-73626225D01*
X88592608Y-73702415D01*
X88554512Y-73740511D01*
X88478322Y-73778606D01*
X88173560Y-73778606D01*
X89392608Y-74159558D02*
X88935465Y-74159558D01*
X89164036Y-74159558D02*
X89164036Y-73359558D01*
X89087846Y-73473844D01*
X89011655Y-73550034D01*
X88935465Y-73588130D01*
X90078322Y-73626225D02*
X90078322Y-74159558D01*
X89887846Y-73321463D02*
X89697369Y-73892892D01*
X90192608Y-73892892D01*
%TO.C,C1*%
X125420703Y-92030987D02*
X125458798Y-92069082D01*
X125496893Y-92183368D01*
X125496893Y-92259558D01*
X125458798Y-92373844D01*
X125382608Y-92450034D01*
X125306417Y-92488130D01*
X125154036Y-92526225D01*
X125039750Y-92526225D01*
X124887369Y-92488130D01*
X124811179Y-92450034D01*
X124734989Y-92373844D01*
X124696893Y-92259558D01*
X124696893Y-92183368D01*
X124734989Y-92069082D01*
X124773084Y-92030987D01*
X125496893Y-91269082D02*
X125496893Y-91726225D01*
X125496893Y-91497654D02*
X124696893Y-91497654D01*
X124811179Y-91573844D01*
X124887369Y-91650034D01*
X124925465Y-91726225D01*
%TO.C,C2*%
X117866655Y-49868368D02*
X117828560Y-49906463D01*
X117714274Y-49944558D01*
X117638084Y-49944558D01*
X117523798Y-49906463D01*
X117447608Y-49830273D01*
X117409512Y-49754082D01*
X117371417Y-49601701D01*
X117371417Y-49487415D01*
X117409512Y-49335034D01*
X117447608Y-49258844D01*
X117523798Y-49182654D01*
X117638084Y-49144558D01*
X117714274Y-49144558D01*
X117828560Y-49182654D01*
X117866655Y-49220749D01*
X118171417Y-49220749D02*
X118209512Y-49182654D01*
X118285703Y-49144558D01*
X118476179Y-49144558D01*
X118552369Y-49182654D01*
X118590465Y-49220749D01*
X118628560Y-49296939D01*
X118628560Y-49373130D01*
X118590465Y-49487415D01*
X118133322Y-49944558D01*
X118628560Y-49944558D01*
%TO.C,SW2*%
X80400360Y-94430854D02*
X80436074Y-94323711D01*
X80436074Y-94145139D01*
X80400360Y-94073711D01*
X80364646Y-94037996D01*
X80293217Y-94002282D01*
X80221789Y-94002282D01*
X80150360Y-94037996D01*
X80114646Y-94073711D01*
X80078931Y-94145139D01*
X80043217Y-94287996D01*
X80007503Y-94359425D01*
X79971789Y-94395139D01*
X79900360Y-94430854D01*
X79828931Y-94430854D01*
X79757503Y-94395139D01*
X79721789Y-94359425D01*
X79686074Y-94287996D01*
X79686074Y-94109425D01*
X79721789Y-94002282D01*
X79686074Y-93752282D02*
X80436074Y-93573711D01*
X79900360Y-93430854D01*
X80436074Y-93287996D01*
X79686074Y-93109425D01*
X79757503Y-92859425D02*
X79721789Y-92823711D01*
X79686074Y-92752282D01*
X79686074Y-92573711D01*
X79721789Y-92502282D01*
X79757503Y-92466568D01*
X79828931Y-92430854D01*
X79900360Y-92430854D01*
X80007503Y-92466568D01*
X80436074Y-92895139D01*
X80436074Y-92430854D01*
X98934646Y-90208711D02*
X98970360Y-90244425D01*
X99006074Y-90351568D01*
X99006074Y-90422996D01*
X98970360Y-90530139D01*
X98898931Y-90601568D01*
X98827503Y-90637282D01*
X98684646Y-90672996D01*
X98577503Y-90672996D01*
X98434646Y-90637282D01*
X98363217Y-90601568D01*
X98291789Y-90530139D01*
X98256074Y-90422996D01*
X98256074Y-90351568D01*
X98291789Y-90244425D01*
X98327503Y-90208711D01*
X89443217Y-90427282D02*
X89478931Y-90320139D01*
X89514646Y-90284425D01*
X89586074Y-90248711D01*
X89693217Y-90248711D01*
X89764646Y-90284425D01*
X89800360Y-90320139D01*
X89836074Y-90391568D01*
X89836074Y-90677282D01*
X89086074Y-90677282D01*
X89086074Y-90427282D01*
X89121789Y-90355854D01*
X89157503Y-90320139D01*
X89228931Y-90284425D01*
X89300360Y-90284425D01*
X89371789Y-90320139D01*
X89407503Y-90355854D01*
X89443217Y-90427282D01*
X89443217Y-90677282D01*
X89731789Y-96419425D02*
X89731789Y-96062282D01*
X89946074Y-96490854D02*
X89196074Y-96240854D01*
X89946074Y-95990854D01*
X99006074Y-96437282D02*
X98256074Y-96437282D01*
X98256074Y-96258711D01*
X98291789Y-96151568D01*
X98363217Y-96080139D01*
X98434646Y-96044425D01*
X98577503Y-96008711D01*
X98684646Y-96008711D01*
X98827503Y-96044425D01*
X98898931Y-96080139D01*
X98970360Y-96151568D01*
X99006074Y-96258711D01*
X99006074Y-96437282D01*
%TO.C,R1*%
X136496655Y-98174558D02*
X136229989Y-97793606D01*
X136039512Y-98174558D02*
X136039512Y-97374558D01*
X136344274Y-97374558D01*
X136420465Y-97412654D01*
X136458560Y-97450749D01*
X136496655Y-97526939D01*
X136496655Y-97641225D01*
X136458560Y-97717415D01*
X136420465Y-97755511D01*
X136344274Y-97793606D01*
X136039512Y-97793606D01*
X137258560Y-98174558D02*
X136801417Y-98174558D01*
X137029989Y-98174558D02*
X137029989Y-97374558D01*
X136953798Y-97488844D01*
X136877608Y-97565034D01*
X136801417Y-97603130D01*
%TO.C,U2*%
X120732608Y-61590749D02*
X119923084Y-61590749D01*
X119827846Y-61638368D01*
X119780227Y-61685987D01*
X119732608Y-61781225D01*
X119732608Y-61971701D01*
X119780227Y-62066939D01*
X119827846Y-62114558D01*
X119923084Y-62162177D01*
X120732608Y-62162177D01*
X120637369Y-62590749D02*
X120684989Y-62638368D01*
X120732608Y-62733606D01*
X120732608Y-62971701D01*
X120684989Y-63066939D01*
X120637369Y-63114558D01*
X120542131Y-63162177D01*
X120446893Y-63162177D01*
X120304036Y-63114558D01*
X119732608Y-62543130D01*
X119732608Y-63162177D01*
%TO.C,R11*%
X107335703Y-79019558D02*
X107069036Y-78638606D01*
X106878560Y-79019558D02*
X106878560Y-78219558D01*
X107183322Y-78219558D01*
X107259512Y-78257654D01*
X107297608Y-78295749D01*
X107335703Y-78371939D01*
X107335703Y-78486225D01*
X107297608Y-78562415D01*
X107259512Y-78600511D01*
X107183322Y-78638606D01*
X106878560Y-78638606D01*
X108097608Y-79019558D02*
X107640465Y-79019558D01*
X107869036Y-79019558D02*
X107869036Y-78219558D01*
X107792846Y-78333844D01*
X107716655Y-78410034D01*
X107640465Y-78448130D01*
X108859512Y-79019558D02*
X108402369Y-79019558D01*
X108630941Y-79019558D02*
X108630941Y-78219558D01*
X108554750Y-78333844D01*
X108478560Y-78410034D01*
X108402369Y-78448130D01*
%TO.C,SW1*%
X110758322Y-98666463D02*
X110872608Y-98704558D01*
X111063084Y-98704558D01*
X111139274Y-98666463D01*
X111177369Y-98628368D01*
X111215465Y-98552177D01*
X111215465Y-98475987D01*
X111177369Y-98399796D01*
X111139274Y-98361701D01*
X111063084Y-98323606D01*
X110910703Y-98285511D01*
X110834512Y-98247415D01*
X110796417Y-98209320D01*
X110758322Y-98133130D01*
X110758322Y-98056939D01*
X110796417Y-97980749D01*
X110834512Y-97942654D01*
X110910703Y-97904558D01*
X111101179Y-97904558D01*
X111215465Y-97942654D01*
X111482131Y-97904558D02*
X111672608Y-98704558D01*
X111824989Y-98133130D01*
X111977369Y-98704558D01*
X112167846Y-97904558D01*
X112891655Y-98704558D02*
X112434512Y-98704558D01*
X112663084Y-98704558D02*
X112663084Y-97904558D01*
X112586893Y-98018844D01*
X112510703Y-98095034D01*
X112434512Y-98133130D01*
%TO.C,LED4*%
X126726893Y-103055392D02*
X126726893Y-103436344D01*
X125926893Y-103436344D01*
X126307846Y-102788725D02*
X126307846Y-102522058D01*
X126726893Y-102407773D02*
X126726893Y-102788725D01*
X125926893Y-102788725D01*
X125926893Y-102407773D01*
X126726893Y-102064915D02*
X125926893Y-102064915D01*
X125926893Y-101874439D01*
X125964989Y-101760154D01*
X126041179Y-101683963D01*
X126117369Y-101645868D01*
X126269750Y-101607773D01*
X126384036Y-101607773D01*
X126536417Y-101645868D01*
X126612608Y-101683963D01*
X126688798Y-101760154D01*
X126726893Y-101874439D01*
X126726893Y-102064915D01*
X126193560Y-100922058D02*
X126726893Y-100922058D01*
X125888798Y-101112534D02*
X126460227Y-101303011D01*
X126460227Y-100807773D01*
%TO.C,C5*%
X76846655Y-57678368D02*
X76808560Y-57716463D01*
X76694274Y-57754558D01*
X76618084Y-57754558D01*
X76503798Y-57716463D01*
X76427608Y-57640273D01*
X76389512Y-57564082D01*
X76351417Y-57411701D01*
X76351417Y-57297415D01*
X76389512Y-57145034D01*
X76427608Y-57068844D01*
X76503798Y-56992654D01*
X76618084Y-56954558D01*
X76694274Y-56954558D01*
X76808560Y-56992654D01*
X76846655Y-57030749D01*
X77570465Y-56954558D02*
X77189512Y-56954558D01*
X77151417Y-57335511D01*
X77189512Y-57297415D01*
X77265703Y-57259320D01*
X77456179Y-57259320D01*
X77532369Y-57297415D01*
X77570465Y-57335511D01*
X77608560Y-57411701D01*
X77608560Y-57602177D01*
X77570465Y-57678368D01*
X77532369Y-57716463D01*
X77456179Y-57754558D01*
X77265703Y-57754558D01*
X77189512Y-57716463D01*
X77151417Y-57678368D01*
D10*
%TO.C,R9*%
X108556789Y-76680418D02*
X108556789Y-76226290D01*
X107086789Y-76680418D02*
X107086789Y-76226290D01*
%TO.C,L1*%
X116999989Y-48402654D02*
X111899989Y-48402654D01*
X116999989Y-53502654D02*
X111899989Y-53502654D01*
%TO.C,Q1*%
X47754989Y-38498880D02*
X47754989Y-33857880D01*
X51023989Y-38498880D02*
X51023989Y-36988880D01*
X57994989Y-38498880D02*
X57994989Y-33857880D01*
X54724989Y-38498880D02*
X54724989Y-36988880D01*
X57994989Y-33857880D02*
X47754989Y-33857880D01*
X57994989Y-38498880D02*
X47754989Y-38498880D01*
X57994989Y-36988880D02*
X47754989Y-36988880D01*
%TO.C,R21*%
X113872489Y-33078090D02*
X113872489Y-33532218D01*
X112402489Y-33078090D02*
X112402489Y-33532218D01*
%TO.C,R20*%
X115302489Y-33537218D02*
X115302489Y-33083090D01*
X116772489Y-33537218D02*
X116772489Y-33083090D01*
%TO.C,L2*%
X116435367Y-42567654D02*
X117234611Y-42567654D01*
X116435367Y-43687654D02*
X117234611Y-43687654D01*
%TO.C,L3*%
X116420367Y-40657654D02*
X117219611Y-40657654D01*
X116420367Y-41777654D02*
X117219611Y-41777654D01*
%TO.C,R19*%
X119857489Y-32334718D02*
X119857489Y-31880590D01*
X121327489Y-32334718D02*
X121327489Y-31880590D01*
%TO.C,LED1*%
X137329989Y-103867654D02*
X139249989Y-103867654D01*
X139249989Y-103867654D02*
X139249989Y-101182654D01*
X137329989Y-101182654D02*
X137329989Y-103867654D01*
%TO.C,J1*%
X111254989Y-90582654D02*
X111254989Y-91082654D01*
X118284989Y-91082654D02*
X118284989Y-90582654D01*
X119704989Y-95172654D02*
X119704989Y-92097654D01*
X111274989Y-90582654D02*
X111254989Y-90582654D01*
X109834989Y-95172654D02*
X119704989Y-95172654D01*
X111254989Y-91082654D02*
X118284989Y-91082654D01*
X118284989Y-90582654D02*
X118264989Y-90582654D01*
X109834989Y-92097654D02*
X109834989Y-95172654D01*
D16*
%TO.C,U1*%
X122134989Y-101802654D02*
X122134989Y-51512654D01*
X140674989Y-101802654D02*
X122134989Y-101802654D01*
X140674989Y-51512654D02*
X140674989Y-101802654D01*
X122134989Y-51512654D02*
X140674989Y-51512654D01*
D11*
X141504989Y-93157654D02*
G75*
G03*
X141504989Y-93157654I-100000J0D01*
G01*
D10*
%TO.C,C11*%
X135082489Y-38018906D02*
X135082489Y-37496402D01*
X136552489Y-38018906D02*
X136552489Y-37496402D01*
%TO.C,C8*%
X138062489Y-41916402D02*
X138062489Y-42438906D01*
X139532489Y-41916402D02*
X139532489Y-42438906D01*
%TO.C,J4*%
X97572489Y-45762654D02*
X100647489Y-45762654D01*
X100647489Y-45762654D02*
X100647489Y-29892654D01*
X100647489Y-29892654D02*
X97572489Y-29892654D01*
X96057489Y-44322654D02*
X96057489Y-44342654D01*
X96057489Y-44342654D02*
X96557489Y-44342654D01*
X96057489Y-31312654D02*
X96057489Y-31332654D01*
X96557489Y-31312654D02*
X96057489Y-31312654D01*
X96557489Y-44342654D02*
X96557489Y-31312654D01*
%TO.C,R16*%
X79199989Y-35164718D02*
X79199989Y-34710590D01*
X80669989Y-35164718D02*
X80669989Y-34710590D01*
%TO.C,JP1*%
X112687489Y-27802654D02*
X112687489Y-30462654D01*
X117887489Y-27802654D02*
X117887489Y-29132654D01*
X116557489Y-27802654D02*
X117887489Y-27802654D01*
X115287489Y-30462654D02*
X112687489Y-30462654D01*
X115287489Y-27802654D02*
X112687489Y-27802654D01*
X115287489Y-27802654D02*
X115287489Y-30462654D01*
%TO.C,C15*%
X119852489Y-38023906D02*
X119852489Y-37501402D01*
X121322489Y-38023906D02*
X121322489Y-37501402D01*
%TO.C,Q2*%
X47759989Y-43128880D02*
X57999989Y-43128880D01*
X51029989Y-41618880D02*
X51029989Y-43128880D01*
X57999989Y-41618880D02*
X57999989Y-46259880D01*
X54730989Y-41618880D02*
X54730989Y-43128880D01*
X47759989Y-41618880D02*
X47759989Y-46259880D01*
X47759989Y-41618880D02*
X57999989Y-41618880D01*
X47759989Y-46259880D02*
X57999989Y-46259880D01*
%TO.C,C9*%
X135092489Y-42443906D02*
X135092489Y-41921402D01*
X136562489Y-42443906D02*
X136562489Y-41921402D01*
%TO.C,R6*%
X104574989Y-52222218D02*
X104574989Y-51768090D01*
X103104989Y-52222218D02*
X103104989Y-51768090D01*
%TO.C,D1*%
X75384989Y-64402654D02*
X75384989Y-62402654D01*
X75384989Y-62402654D02*
X71084989Y-62402654D01*
X71084989Y-64402654D02*
X75384989Y-64402654D01*
%TO.C,C13*%
X112352489Y-42428906D02*
X112352489Y-41906402D01*
X113822489Y-42428906D02*
X113822489Y-41906402D01*
%TO.C,R13*%
X88317489Y-71143308D02*
X88317489Y-70689180D01*
X89787489Y-71143308D02*
X89787489Y-70689180D01*
%TO.C,C4*%
X106064989Y-52218906D02*
X106064989Y-51696402D01*
X107534989Y-52218906D02*
X107534989Y-51696402D01*
%TO.C,R18*%
X77784989Y-35179718D02*
X77784989Y-34725590D01*
X76314989Y-35179718D02*
X76314989Y-34725590D01*
%TO.C,U7*%
X115452489Y-37542654D02*
X115452489Y-35867654D01*
X115452489Y-37542654D02*
X115452489Y-38192654D01*
X112332489Y-37542654D02*
X112332489Y-36892654D01*
X112332489Y-37542654D02*
X112332489Y-38192654D01*
D11*
%TO.C,J2*%
X31219989Y-76523880D02*
X31219989Y-76523880D01*
D17*
X78339989Y-96343880D02*
X31759989Y-96343880D01*
X31759989Y-96343880D02*
X31759989Y-67093880D01*
X31759989Y-67093880D02*
X78339989Y-67093880D01*
D11*
X31219989Y-76723880D02*
X31219989Y-76723880D01*
D17*
X78339989Y-67093880D02*
X78339989Y-96343880D01*
D11*
X31219989Y-76723880D02*
G75*
G03*
X31219989Y-76523880I0J100000D01*
G01*
X31219989Y-76523880D02*
G75*
G03*
X31219989Y-76723880I0J-100000D01*
G01*
D10*
%TO.C,R2*%
X134089989Y-98039718D02*
X134089989Y-97585590D01*
X135559989Y-98039718D02*
X135559989Y-97585590D01*
%TO.C,R5*%
X132154989Y-98029718D02*
X132154989Y-97575590D01*
X130684989Y-98029718D02*
X130684989Y-97575590D01*
%TO.C,J3*%
X104822489Y-44332654D02*
X104822489Y-44352654D01*
X104822489Y-44352654D02*
X105322489Y-44352654D01*
X104822489Y-31322654D02*
X104822489Y-31342654D01*
X105322489Y-31322654D02*
X104822489Y-31322654D01*
X105322489Y-44352654D02*
X105322489Y-31322654D01*
X109412489Y-29902654D02*
X106337489Y-29902654D01*
X106337489Y-45772654D02*
X109412489Y-45772654D01*
X109412489Y-45772654D02*
X109412489Y-29902654D01*
%TO.C,HS1*%
X44469989Y-52148880D02*
X44479989Y-41188880D01*
X31989989Y-46608880D02*
X38499989Y-41598880D01*
X36069989Y-33708880D02*
X32509989Y-32488880D01*
X68989989Y-31178880D02*
X73019989Y-27588880D01*
X61289989Y-28008880D02*
X61279989Y-38968880D01*
X65309989Y-46878880D02*
X68399989Y-52448880D01*
X44479989Y-41188880D02*
X52879989Y-41188880D01*
X36269989Y-52118880D02*
X37019989Y-49128880D01*
X43299989Y-27918880D02*
X42489989Y-32878880D01*
X61279989Y-41188880D02*
X52879989Y-41188880D01*
X69689989Y-33708880D02*
X73249989Y-32488880D01*
X40449989Y-33278880D02*
X37359989Y-27708880D01*
X65309989Y-33278880D02*
X68399989Y-27708880D01*
X36769989Y-31178880D02*
X32739989Y-27588880D01*
X61289989Y-52148880D02*
X61279989Y-41188880D01*
X40449989Y-46878880D02*
X37359989Y-52448880D01*
X73769989Y-33548880D02*
X67259989Y-38558880D01*
X73769989Y-28508880D02*
X69519989Y-33488880D01*
X62459989Y-27918880D02*
X63269989Y-32878880D01*
X44479989Y-38968880D02*
X52879989Y-38968880D01*
X43299989Y-52238880D02*
X42489989Y-47278880D01*
X73769989Y-51648880D02*
X69519989Y-46668880D01*
X31989989Y-28508880D02*
X36239989Y-33488880D01*
X44469989Y-28008880D02*
X44479989Y-38968880D01*
X73769989Y-46608880D02*
X67259989Y-41598880D01*
X69489989Y-28038880D02*
X68739989Y-31028880D01*
X36769989Y-48978880D02*
X32739989Y-52568880D01*
X31989989Y-51648880D02*
X36239989Y-46668880D01*
X31989989Y-33548880D02*
X38499989Y-38558880D01*
X36069989Y-46448880D02*
X32509989Y-47668880D01*
X62459989Y-52238880D02*
X63269989Y-47278880D01*
X36269989Y-28038880D02*
X37019989Y-31028880D01*
X69689989Y-46448880D02*
X73249989Y-47668880D01*
X61279989Y-38968880D02*
X52879989Y-38968880D01*
X69489989Y-52118880D02*
X68739989Y-49128880D01*
X68989989Y-48978880D02*
X73019989Y-52568880D01*
X37369989Y-27718880D02*
G75*
G03*
X36272736Y-28048166I-489999J-360002D01*
G01*
X63258478Y-32839542D02*
G75*
G03*
X65309989Y-33268880I1131511J290662D01*
G01*
X31996628Y-51648690D02*
G75*
G03*
X32759989Y-52548880I393361J-440190D01*
G01*
X69520995Y-33486034D02*
G75*
G03*
X69689989Y-33708880I108994J-92846D01*
G01*
X44469989Y-28038880D02*
G75*
G03*
X43301622Y-27940595I-590000J-20000D01*
G01*
X73761235Y-33550421D02*
G75*
G03*
X73239989Y-32488880I-381245J471542D01*
G01*
X69689989Y-46448880D02*
G75*
G03*
X69520994Y-46671724I-60000J-130000D01*
G01*
X36272693Y-52108746D02*
G75*
G03*
X37369989Y-52438880I607296J29867D01*
G01*
X36069989Y-33708880D02*
G75*
G03*
X36238984Y-33486036I60000J130000D01*
G01*
X73239989Y-47668880D02*
G75*
G03*
X73761999Y-46607957I140000J590000D01*
G01*
X32519989Y-32488880D02*
G75*
G03*
X31997979Y-33549803I-140000J-590000D01*
G01*
X68389989Y-52438880D02*
G75*
G03*
X69487242Y-52109594I489999J360002D01*
G01*
X40449989Y-33268880D02*
G75*
G03*
X42501264Y-32840457I920000J720000D01*
G01*
X36769989Y-31188880D02*
G75*
G03*
X37017343Y-31005847I110000J110000D01*
G01*
X72999990Y-52548879D02*
G75*
G03*
X73763556Y-51648875I369999J459999D01*
G01*
X37017251Y-49152086D02*
G75*
G03*
X36769989Y-48968880I-137262J73206D01*
G01*
X36238983Y-46671726D02*
G75*
G03*
X36069989Y-46448880I-108994J92846D01*
G01*
X69487285Y-28049014D02*
G75*
G03*
X68389989Y-27718880I-607296J-29867D01*
G01*
X32759988Y-27608881D02*
G75*
G03*
X31996422Y-28508885I-369999J-459999D01*
G01*
X65309989Y-46888880D02*
G75*
G03*
X63258714Y-47317303I-920000J-720000D01*
G01*
X68742727Y-31005674D02*
G75*
G03*
X68989989Y-31188880I137262J-73206D01*
G01*
X61289989Y-52118880D02*
G75*
G03*
X62458356Y-52217165I590000J20000D01*
G01*
X43301494Y-52216539D02*
G75*
G03*
X44469989Y-52118880I578495J117659D01*
G01*
X31998743Y-46607339D02*
G75*
G03*
X32519989Y-47668880I381245J-471542D01*
G01*
X62458484Y-27941221D02*
G75*
G03*
X61289989Y-28038880I-578495J-117659D01*
G01*
X73763350Y-28509070D02*
G75*
G03*
X72999989Y-27608880I-393361J440190D01*
G01*
X68989989Y-48968880D02*
G75*
G03*
X68742635Y-49151913I-110000J-110000D01*
G01*
X42501500Y-47318218D02*
G75*
G03*
X40449989Y-46888880I-1131511J-290662D01*
G01*
%TO.C,C12*%
X121322489Y-42428906D02*
X121322489Y-41906402D01*
X119852489Y-42428906D02*
X119852489Y-41906402D01*
%TO.C,C14*%
X116892489Y-37496402D02*
X116892489Y-38018906D01*
X118362489Y-37496402D02*
X118362489Y-38018906D01*
%TO.C,U6*%
X124477489Y-45052654D02*
X124477489Y-29752654D01*
X131977489Y-29752654D02*
X124477489Y-29752654D01*
X131977489Y-29752654D02*
X131977489Y-45052654D01*
X131977489Y-45052654D02*
X124477489Y-45052654D01*
D18*
X131563180Y-44152654D02*
G75*
G03*
X131563180Y-44152654I-385691J0D01*
G01*
D10*
%TO.C,LED3*%
X123649989Y-103845154D02*
X125569989Y-103845154D01*
X125569989Y-103845154D02*
X125569989Y-101160154D01*
X123649989Y-101160154D02*
X123649989Y-103845154D01*
%TO.C,U4*%
X94297489Y-75696244D02*
X94297489Y-74896244D01*
X91177489Y-75696244D02*
X91177489Y-77496244D01*
X94297489Y-75696244D02*
X94297489Y-76496244D01*
X91177489Y-75696244D02*
X91177489Y-74896244D01*
%TO.C,R8*%
X104196789Y-76226290D02*
X104196789Y-76680418D01*
X105666789Y-76226290D02*
X105666789Y-76680418D01*
%TO.C,C3*%
X110474989Y-52238906D02*
X110474989Y-51716402D01*
X109004989Y-52238906D02*
X109004989Y-51716402D01*
%TO.C,LED2*%
X135794989Y-103867654D02*
X135794989Y-101182654D01*
X133874989Y-101182654D02*
X133874989Y-103867654D01*
X133874989Y-103867654D02*
X135794989Y-103867654D01*
%TO.C,D2*%
X83982489Y-77628744D02*
X83982489Y-73328744D01*
X81982489Y-77628744D02*
X83982489Y-77628744D01*
X81982489Y-73328744D02*
X81982489Y-77628744D01*
%TO.C,C10*%
X138087489Y-37491402D02*
X138087489Y-38013906D01*
X139557489Y-37491402D02*
X139557489Y-38013906D01*
%TO.C,R15*%
X85359989Y-71170808D02*
X85359989Y-70716680D01*
X86829989Y-71170808D02*
X86829989Y-70716680D01*
%TO.C,C7*%
X83901241Y-36210154D02*
X83378737Y-36210154D01*
X83901241Y-34740154D02*
X83378737Y-34740154D01*
%TO.C,U3*%
X73299989Y-58802654D02*
X71899989Y-58802654D01*
X71899989Y-61122654D02*
X73799989Y-61122654D01*
%TO.C,R4*%
X128739989Y-98017218D02*
X128739989Y-97563090D01*
X127269989Y-98017218D02*
X127269989Y-97563090D01*
%TO.C,R7*%
X101296789Y-76680418D02*
X101296789Y-76226290D01*
X102766789Y-76680418D02*
X102766789Y-76226290D01*
%TO.C,U5*%
X82079989Y-39500154D02*
X82079989Y-38700154D01*
X85199989Y-39500154D02*
X85199989Y-38700154D01*
X82079989Y-39500154D02*
X82079989Y-41300154D01*
X85199989Y-39500154D02*
X85199989Y-40300154D01*
%TO.C,R22*%
X77814989Y-39969718D02*
X77814989Y-39515590D01*
X76344989Y-39969718D02*
X76344989Y-39515590D01*
%TO.C,F1*%
X33794989Y-65048880D02*
X33794989Y-54848880D01*
X59994989Y-54848880D02*
X59994989Y-65048880D01*
X33794989Y-54848880D02*
X59994989Y-54848880D01*
X59994989Y-65048880D02*
X33794989Y-65048880D01*
%TO.C,R12*%
X65674989Y-60710944D02*
X65674989Y-59256816D01*
X67494989Y-60710944D02*
X67494989Y-59256816D01*
%TO.C,LED5*%
X130469989Y-103857654D02*
X132389989Y-103857654D01*
X130469989Y-101172654D02*
X130469989Y-103857654D01*
X132389989Y-103857654D02*
X132389989Y-101172654D01*
%TO.C,R3*%
X123859989Y-98017218D02*
X123859989Y-97563090D01*
X125329989Y-98017218D02*
X125329989Y-97563090D01*
%TO.C,C6*%
X92988741Y-72383744D02*
X92466237Y-72383744D01*
X92988741Y-70913744D02*
X92466237Y-70913744D01*
%TO.C,LED6*%
X99969989Y-53695154D02*
X101889989Y-53695154D01*
X101889989Y-53695154D02*
X101889989Y-51010154D01*
X99969989Y-51010154D02*
X99969989Y-53695154D01*
%TO.C,R17*%
X80689989Y-39974718D02*
X80689989Y-39520590D01*
X79219989Y-39974718D02*
X79219989Y-39520590D01*
%TO.C,R10*%
X104181789Y-80598790D02*
X104181789Y-81052918D01*
X105651789Y-80598790D02*
X105651789Y-81052918D01*
%TO.C,R14*%
X88349989Y-76145808D02*
X88349989Y-75691680D01*
X89819989Y-76145808D02*
X89819989Y-75691680D01*
%TO.C,C1*%
X127549989Y-92158906D02*
X127549989Y-91636402D01*
X126079989Y-92158906D02*
X126079989Y-91636402D01*
%TO.C,C2*%
X119924989Y-52278906D02*
X119924989Y-51756402D01*
X118454989Y-52278906D02*
X118454989Y-51756402D01*
D15*
%TO.C,SW2*%
X107296789Y-93270854D02*
G75*
G03*
X107296789Y-93270854I-13100000J0D01*
G01*
X92041789Y-107380854D02*
G75*
G03*
X92041789Y-107380854I-125000J0D01*
G01*
D10*
%TO.C,R1*%
X139014989Y-98039718D02*
X139014989Y-97585590D01*
X137544989Y-98039718D02*
X137544989Y-97585590D01*
%TO.C,U2*%
X119144989Y-58297654D02*
X106444989Y-58297654D01*
X106444989Y-58297654D02*
X106444989Y-65917654D01*
X106444989Y-65917654D02*
X119144989Y-65917654D01*
X119144989Y-65917654D02*
X119144989Y-58297654D01*
%TO.C,R11*%
X107101789Y-81052918D02*
X107101789Y-80598790D01*
X108571789Y-81052918D02*
X108571789Y-80598790D01*
%TO.C,SW1*%
X117584989Y-99497654D02*
X113084989Y-99497654D01*
X111834989Y-101997654D02*
X111834989Y-103497654D01*
X113084989Y-105997654D02*
X117584989Y-105997654D01*
X118834989Y-103497654D02*
X118834989Y-101997654D01*
%TO.C,LED4*%
X127054989Y-101160154D02*
X127054989Y-103845154D01*
X127054989Y-103845154D02*
X128974989Y-103845154D01*
X128974989Y-103845154D02*
X128974989Y-101160154D01*
%TO.C,C5*%
X77699989Y-59908906D02*
X77699989Y-59386402D01*
X76229989Y-59908906D02*
X76229989Y-59386402D01*
%TD*%
M02*
