M48
; DRILL file {KiCad 5.1.7-a382d34a8~88~ubuntu18.04.1} date Wed Dec 16 11:34:55 2020
; FORMAT={-:-/ absolute / metric / decimal}
; #@! TF.CreationDate,2020-12-16T11:34:55-06:00
; #@! TF.GenerationSoftware,Kicad,Pcbnew,5.1.7-a382d34a8~88~ubuntu18.04.1
; #@! TF.FileFunction,Plated,1,2,PTH
FMAT,2
METRIC
T1C0.400
T2C1.000
T3C1.020
T4C1.100
T5C1.321
T6C1.400
T7C1.500
T8C1.600
T9C2.500
%
G90
G05
T1
X29.54Y-39.62
X33.3Y-39.13
X34.68Y-37.41
X37.33Y-25.42
X37.72Y-39.09
X50.11Y-30.84
X50.57Y-34.93
X51.54Y-25.38
X51.89Y-27.93
X51.89Y-30.78
X53.46Y-50.06
X54.45Y-40.45
X55.56Y-45.18
X56.64Y-45.85
X62.41Y-51.43
X62.46Y-49.45
X65.56Y-85.91
X65.93Y-45.87
X67.54Y-45.9
X69.44Y-56.81
X69.77Y-29.32
X69.83Y-33.72
X69.83Y-38.33
X69.86Y-52.6
X69.98Y-49.45
X72.2Y-30.51
X72.4Y-99.62
X72.45Y-98.36
X74.68Y-62.8
X74.68Y-76.21
X74.71Y-37.49
X74.72Y-59.84
X74.72Y-68.83
X76.28Y-99.62
X76.3Y-98.45
X76.42Y-97.15
X76.64Y-62.88
X77.21Y-22.1
X78.7Y-32.9
X78.79Y-29.62
X78.82Y-35.44
X78.83Y-27.06
X78.83Y-28.34
X80.2Y-98.45
X80.27Y-99.69
X80.29Y-97.16
X82.77Y-25.76
X82.79Y-24.53
X84.11Y-98.53
X84.11Y-99.69
X84.28Y-97.26
X88.04Y-98.47
X88.05Y-99.68
X88.17Y-34.67
X88.17Y-35.95
X88.18Y-97.27
X88.29Y-24.52
X89.62Y-74.02
X89.62Y-80.01
X89.62Y-83.2
X90.22Y-95.85
X90.96Y-84.18
X91.97Y-76.56
X91.97Y-80.08
X91.97Y-83.22
X91.98Y-50.01
X91.99Y-45.36
X93.27Y-80.1
X93.27Y-83.18
X93.29Y-50.03
X93.33Y-45.38
X95.15Y-34.05
X95.17Y-29.67
X95.19Y-31.57
X95.19Y-35.95
X98.68Y-37.31
T2
X71.66Y-24.95
X71.66Y-27.49
T3
X68.58Y-90.14
X71.58Y-90.14
X66.06Y-26.33
X66.06Y-29.33
X66.06Y-32.33
X66.06Y-35.33
X80.42Y-51.155
X80.42Y-53.695
X80.42Y-56.235
X80.42Y-58.775
X80.42Y-61.315
X80.42Y-63.855
X80.42Y-66.395
X80.42Y-68.935
X80.42Y-71.475
X80.42Y-74.015
X80.42Y-76.555
X80.42Y-79.095
X80.42Y-81.635
X80.42Y-84.175
X80.42Y-86.715
X95.66Y-51.155
X95.66Y-53.695
X95.66Y-56.235
X95.66Y-58.775
X95.66Y-61.315
X95.66Y-63.855
X95.66Y-66.395
X95.66Y-68.935
X95.66Y-71.475
X95.66Y-74.015
X95.66Y-76.555
X95.66Y-79.095
X95.66Y-81.635
X95.66Y-84.175
X95.66Y-86.715
X59.28Y-26.34
X59.28Y-29.34
X59.28Y-32.34
X59.28Y-35.34
T4
X64.25Y-96.53
X64.25Y-101.03
X70.75Y-96.53
X70.75Y-101.03
T5
X42.28Y-86.23
X42.28Y-91.31
X42.28Y-93.85
X49.9Y-86.23
X49.9Y-91.31
X49.9Y-93.85
T6
X27.57Y-55.5
X27.57Y-79.6
T7
X24.738Y-36.237
X24.738Y-41.983
X27.611Y-31.261
X27.611Y-46.959
X32.587Y-28.388
X32.587Y-36.547
X32.587Y-41.673
X32.587Y-49.832
X38.333Y-28.388
X38.333Y-36.547
X38.333Y-41.673
X38.333Y-49.832
X43.309Y-31.261
X43.309Y-46.959
X46.182Y-36.237
X46.182Y-41.983
X50.1Y-64.07
X55.55Y-64.07
X61.0Y-64.07
X50.04Y-71.93
X55.49Y-71.93
X60.94Y-71.93
T8
X64.0Y-42.07
X69.04Y-42.1
X69.93Y-83.74
X75.4Y-83.79
X79.39Y-41.21
X74.36Y-47.83
X84.4Y-41.24
X89.43Y-41.22
X26.34Y-89.09
X59.08Y-51.6
X60.07Y-58.36
X74.4Y-41.14
X44.18Y-24.46
X94.43Y-41.09
T9
X50.24Y-79.11
X60.44Y-79.09
X42.73Y-67.98
X68.13Y-67.98
T0
M30
