%TF.GenerationSoftware,KiCad,Pcbnew,(6.0.1)*%
%TF.CreationDate,2022-02-02T09:53:03-06:00*%
%TF.ProjectId,IV Curve Tracer,49562043-7572-4766-9520-547261636572,1.2.0*%
%TF.SameCoordinates,Original*%
%TF.FileFunction,Legend,Top*%
%TF.FilePolarity,Positive*%
%FSLAX46Y46*%
G04 Gerber Fmt 4.6, Leading zero omitted, Abs format (unit mm)*
G04 Created by KiCad (PCBNEW (6.0.1)) date 2022-02-02 09:53:03*
%MOMM*%
%LPD*%
G01*
G04 APERTURE LIST*
%ADD10C,0.120000*%
%ADD11C,0.200000*%
%ADD12C,0.150000*%
%ADD13C,0.254000*%
%ADD14C,0.127000*%
%ADD15C,0.100000*%
%ADD16C,0.152400*%
G04 APERTURE END LIST*
D10*
X33535000Y-142465000D02*
X33535000Y-150475000D01*
X48285000Y-142435000D02*
X48285000Y-150445000D01*
X41240000Y-142465000D02*
X41240000Y-150475000D01*
D11*
X68978571Y-95538571D02*
X68264285Y-95538571D01*
X68264285Y-94038571D01*
X69478571Y-95538571D02*
X69478571Y-94038571D01*
X69478571Y-94752857D02*
X70335714Y-94752857D01*
X70335714Y-95538571D02*
X70335714Y-94038571D01*
X71907142Y-95538571D02*
X71407142Y-94824285D01*
X71050000Y-95538571D02*
X71050000Y-94038571D01*
X71621428Y-94038571D01*
X71764285Y-94110000D01*
X71835714Y-94181428D01*
X71907142Y-94324285D01*
X71907142Y-94538571D01*
X71835714Y-94681428D01*
X71764285Y-94752857D01*
X71621428Y-94824285D01*
X71050000Y-94824285D01*
X73621428Y-95467142D02*
X73835714Y-95538571D01*
X74192857Y-95538571D01*
X74335714Y-95467142D01*
X74407142Y-95395714D01*
X74478571Y-95252857D01*
X74478571Y-95110000D01*
X74407142Y-94967142D01*
X74335714Y-94895714D01*
X74192857Y-94824285D01*
X73907142Y-94752857D01*
X73764285Y-94681428D01*
X73692857Y-94610000D01*
X73621428Y-94467142D01*
X73621428Y-94324285D01*
X73692857Y-94181428D01*
X73764285Y-94110000D01*
X73907142Y-94038571D01*
X74264285Y-94038571D01*
X74478571Y-94110000D01*
X75335714Y-95538571D02*
X75192857Y-95467142D01*
X75121428Y-95395714D01*
X75050000Y-95252857D01*
X75050000Y-94824285D01*
X75121428Y-94681428D01*
X75192857Y-94610000D01*
X75335714Y-94538571D01*
X75550000Y-94538571D01*
X75692857Y-94610000D01*
X75764285Y-94681428D01*
X75835714Y-94824285D01*
X75835714Y-95252857D01*
X75764285Y-95395714D01*
X75692857Y-95467142D01*
X75550000Y-95538571D01*
X75335714Y-95538571D01*
X76692857Y-95538571D02*
X76550000Y-95467142D01*
X76478571Y-95324285D01*
X76478571Y-94038571D01*
X77907142Y-95538571D02*
X77907142Y-94752857D01*
X77835714Y-94610000D01*
X77692857Y-94538571D01*
X77407142Y-94538571D01*
X77264285Y-94610000D01*
X77907142Y-95467142D02*
X77764285Y-95538571D01*
X77407142Y-95538571D01*
X77264285Y-95467142D01*
X77192857Y-95324285D01*
X77192857Y-95181428D01*
X77264285Y-95038571D01*
X77407142Y-94967142D01*
X77764285Y-94967142D01*
X77907142Y-94895714D01*
X78621428Y-95538571D02*
X78621428Y-94538571D01*
X78621428Y-94824285D02*
X78692857Y-94681428D01*
X78764285Y-94610000D01*
X78907142Y-94538571D01*
X79050000Y-94538571D01*
X64800000Y-97953571D02*
X64800000Y-96453571D01*
X65371428Y-96453571D01*
X65514285Y-96525000D01*
X65585714Y-96596428D01*
X65657142Y-96739285D01*
X65657142Y-96953571D01*
X65585714Y-97096428D01*
X65514285Y-97167857D01*
X65371428Y-97239285D01*
X64800000Y-97239285D01*
X66085714Y-96453571D02*
X66585714Y-97953571D01*
X67085714Y-96453571D01*
X69585714Y-97810714D02*
X69514285Y-97882142D01*
X69300000Y-97953571D01*
X69157142Y-97953571D01*
X68942857Y-97882142D01*
X68800000Y-97739285D01*
X68728571Y-97596428D01*
X68657142Y-97310714D01*
X68657142Y-97096428D01*
X68728571Y-96810714D01*
X68800000Y-96667857D01*
X68942857Y-96525000D01*
X69157142Y-96453571D01*
X69300000Y-96453571D01*
X69514285Y-96525000D01*
X69585714Y-96596428D01*
X70871428Y-96953571D02*
X70871428Y-97953571D01*
X70228571Y-96953571D02*
X70228571Y-97739285D01*
X70300000Y-97882142D01*
X70442857Y-97953571D01*
X70657142Y-97953571D01*
X70800000Y-97882142D01*
X70871428Y-97810714D01*
X71585714Y-97953571D02*
X71585714Y-96953571D01*
X71585714Y-97239285D02*
X71657142Y-97096428D01*
X71728571Y-97025000D01*
X71871428Y-96953571D01*
X72014285Y-96953571D01*
X72371428Y-96953571D02*
X72728571Y-97953571D01*
X73085714Y-96953571D01*
X74228571Y-97882142D02*
X74085714Y-97953571D01*
X73800000Y-97953571D01*
X73657142Y-97882142D01*
X73585714Y-97739285D01*
X73585714Y-97167857D01*
X73657142Y-97025000D01*
X73800000Y-96953571D01*
X74085714Y-96953571D01*
X74228571Y-97025000D01*
X74300000Y-97167857D01*
X74300000Y-97310714D01*
X73585714Y-97453571D01*
X75871428Y-96453571D02*
X76728571Y-96453571D01*
X76300000Y-97953571D02*
X76300000Y-96453571D01*
X77228571Y-97953571D02*
X77228571Y-96953571D01*
X77228571Y-97239285D02*
X77300000Y-97096428D01*
X77371428Y-97025000D01*
X77514285Y-96953571D01*
X77657142Y-96953571D01*
X78800000Y-97953571D02*
X78800000Y-97167857D01*
X78728571Y-97025000D01*
X78585714Y-96953571D01*
X78300000Y-96953571D01*
X78157142Y-97025000D01*
X78800000Y-97882142D02*
X78657142Y-97953571D01*
X78300000Y-97953571D01*
X78157142Y-97882142D01*
X78085714Y-97739285D01*
X78085714Y-97596428D01*
X78157142Y-97453571D01*
X78300000Y-97382142D01*
X78657142Y-97382142D01*
X78800000Y-97310714D01*
X80157142Y-97882142D02*
X80014285Y-97953571D01*
X79728571Y-97953571D01*
X79585714Y-97882142D01*
X79514285Y-97810714D01*
X79442857Y-97667857D01*
X79442857Y-97239285D01*
X79514285Y-97096428D01*
X79585714Y-97025000D01*
X79728571Y-96953571D01*
X80014285Y-96953571D01*
X80157142Y-97025000D01*
X81371428Y-97882142D02*
X81228571Y-97953571D01*
X80942857Y-97953571D01*
X80800000Y-97882142D01*
X80728571Y-97739285D01*
X80728571Y-97167857D01*
X80800000Y-97025000D01*
X80942857Y-96953571D01*
X81228571Y-96953571D01*
X81371428Y-97025000D01*
X81442857Y-97167857D01*
X81442857Y-97310714D01*
X80728571Y-97453571D01*
X82085714Y-97953571D02*
X82085714Y-96953571D01*
X82085714Y-97239285D02*
X82157142Y-97096428D01*
X82228571Y-97025000D01*
X82371428Y-96953571D01*
X82514285Y-96953571D01*
X70335714Y-99368571D02*
X70692857Y-100368571D01*
X71050000Y-99368571D01*
X72407142Y-100368571D02*
X71550000Y-100368571D01*
X71978571Y-100368571D02*
X71978571Y-98868571D01*
X71835714Y-99082857D01*
X71692857Y-99225714D01*
X71550000Y-99297142D01*
X73050000Y-100225714D02*
X73121428Y-100297142D01*
X73050000Y-100368571D01*
X72978571Y-100297142D01*
X73050000Y-100225714D01*
X73050000Y-100368571D01*
X73692857Y-99011428D02*
X73764285Y-98940000D01*
X73907142Y-98868571D01*
X74264285Y-98868571D01*
X74407142Y-98940000D01*
X74478571Y-99011428D01*
X74550000Y-99154285D01*
X74550000Y-99297142D01*
X74478571Y-99511428D01*
X73621428Y-100368571D01*
X74550000Y-100368571D01*
X75192857Y-100225714D02*
X75264285Y-100297142D01*
X75192857Y-100368571D01*
X75121428Y-100297142D01*
X75192857Y-100225714D01*
X75192857Y-100368571D01*
X76192857Y-98868571D02*
X76335714Y-98868571D01*
X76478571Y-98940000D01*
X76550000Y-99011428D01*
X76621428Y-99154285D01*
X76692857Y-99440000D01*
X76692857Y-99797142D01*
X76621428Y-100082857D01*
X76550000Y-100225714D01*
X76478571Y-100297142D01*
X76335714Y-100368571D01*
X76192857Y-100368571D01*
X76050000Y-100297142D01*
X75978571Y-100225714D01*
X75907142Y-100082857D01*
X75835714Y-99797142D01*
X75835714Y-99440000D01*
X75907142Y-99154285D01*
X75978571Y-99011428D01*
X76050000Y-98940000D01*
X76192857Y-98868571D01*
X66835714Y-102712142D02*
X67050000Y-102783571D01*
X67407142Y-102783571D01*
X67550000Y-102712142D01*
X67621428Y-102640714D01*
X67692857Y-102497857D01*
X67692857Y-102355000D01*
X67621428Y-102212142D01*
X67550000Y-102140714D01*
X67407142Y-102069285D01*
X67121428Y-101997857D01*
X66978571Y-101926428D01*
X66907142Y-101855000D01*
X66835714Y-101712142D01*
X66835714Y-101569285D01*
X66907142Y-101426428D01*
X66978571Y-101355000D01*
X67121428Y-101283571D01*
X67478571Y-101283571D01*
X67692857Y-101355000D01*
X68335714Y-101783571D02*
X68335714Y-103283571D01*
X68335714Y-101855000D02*
X68478571Y-101783571D01*
X68764285Y-101783571D01*
X68907142Y-101855000D01*
X68978571Y-101926428D01*
X69050000Y-102069285D01*
X69050000Y-102497857D01*
X68978571Y-102640714D01*
X68907142Y-102712142D01*
X68764285Y-102783571D01*
X68478571Y-102783571D01*
X68335714Y-102712142D01*
X69692857Y-102783571D02*
X69692857Y-101783571D01*
X69692857Y-102069285D02*
X69764285Y-101926428D01*
X69835714Y-101855000D01*
X69978571Y-101783571D01*
X70121428Y-101783571D01*
X70621428Y-102783571D02*
X70621428Y-101783571D01*
X70621428Y-101283571D02*
X70550000Y-101355000D01*
X70621428Y-101426428D01*
X70692857Y-101355000D01*
X70621428Y-101283571D01*
X70621428Y-101426428D01*
X71335714Y-101783571D02*
X71335714Y-102783571D01*
X71335714Y-101926428D02*
X71407142Y-101855000D01*
X71550000Y-101783571D01*
X71764285Y-101783571D01*
X71907142Y-101855000D01*
X71978571Y-101997857D01*
X71978571Y-102783571D01*
X73335714Y-101783571D02*
X73335714Y-102997857D01*
X73264285Y-103140714D01*
X73192857Y-103212142D01*
X73050000Y-103283571D01*
X72835714Y-103283571D01*
X72692857Y-103212142D01*
X73335714Y-102712142D02*
X73192857Y-102783571D01*
X72907142Y-102783571D01*
X72764285Y-102712142D01*
X72692857Y-102640714D01*
X72621428Y-102497857D01*
X72621428Y-102069285D01*
X72692857Y-101926428D01*
X72764285Y-101855000D01*
X72907142Y-101783571D01*
X73192857Y-101783571D01*
X73335714Y-101855000D01*
X75121428Y-101426428D02*
X75192857Y-101355000D01*
X75335714Y-101283571D01*
X75692857Y-101283571D01*
X75835714Y-101355000D01*
X75907142Y-101426428D01*
X75978571Y-101569285D01*
X75978571Y-101712142D01*
X75907142Y-101926428D01*
X75050000Y-102783571D01*
X75978571Y-102783571D01*
X76907142Y-101283571D02*
X77050000Y-101283571D01*
X77192857Y-101355000D01*
X77264285Y-101426428D01*
X77335714Y-101569285D01*
X77407142Y-101855000D01*
X77407142Y-102212142D01*
X77335714Y-102497857D01*
X77264285Y-102640714D01*
X77192857Y-102712142D01*
X77050000Y-102783571D01*
X76907142Y-102783571D01*
X76764285Y-102712142D01*
X76692857Y-102640714D01*
X76621428Y-102497857D01*
X76550000Y-102212142D01*
X76550000Y-101855000D01*
X76621428Y-101569285D01*
X76692857Y-101426428D01*
X76764285Y-101355000D01*
X76907142Y-101283571D01*
X77978571Y-101426428D02*
X78050000Y-101355000D01*
X78192857Y-101283571D01*
X78550000Y-101283571D01*
X78692857Y-101355000D01*
X78764285Y-101426428D01*
X78835714Y-101569285D01*
X78835714Y-101712142D01*
X78764285Y-101926428D01*
X77907142Y-102783571D01*
X78835714Y-102783571D01*
X79407142Y-101426428D02*
X79478571Y-101355000D01*
X79621428Y-101283571D01*
X79978571Y-101283571D01*
X80121428Y-101355000D01*
X80192857Y-101426428D01*
X80264285Y-101569285D01*
X80264285Y-101712142D01*
X80192857Y-101926428D01*
X79335714Y-102783571D01*
X80264285Y-102783571D01*
X65085714Y-104484285D02*
X65085714Y-105198571D01*
X64585714Y-103698571D02*
X65085714Y-104484285D01*
X65585714Y-103698571D01*
X66300000Y-105198571D02*
X66157142Y-105127142D01*
X66085714Y-105055714D01*
X66014285Y-104912857D01*
X66014285Y-104484285D01*
X66085714Y-104341428D01*
X66157142Y-104270000D01*
X66300000Y-104198571D01*
X66514285Y-104198571D01*
X66657142Y-104270000D01*
X66728571Y-104341428D01*
X66800000Y-104484285D01*
X66800000Y-104912857D01*
X66728571Y-105055714D01*
X66657142Y-105127142D01*
X66514285Y-105198571D01*
X66300000Y-105198571D01*
X68085714Y-104198571D02*
X68085714Y-105198571D01*
X67442857Y-104198571D02*
X67442857Y-104984285D01*
X67514285Y-105127142D01*
X67657142Y-105198571D01*
X67871428Y-105198571D01*
X68014285Y-105127142D01*
X68085714Y-105055714D01*
X68728571Y-105127142D02*
X68871428Y-105198571D01*
X69157142Y-105198571D01*
X69300000Y-105127142D01*
X69371428Y-104984285D01*
X69371428Y-104912857D01*
X69300000Y-104770000D01*
X69157142Y-104698571D01*
X68942857Y-104698571D01*
X68800000Y-104627142D01*
X68728571Y-104484285D01*
X68728571Y-104412857D01*
X68800000Y-104270000D01*
X68942857Y-104198571D01*
X69157142Y-104198571D01*
X69300000Y-104270000D01*
X69942857Y-105127142D02*
X70085714Y-105198571D01*
X70371428Y-105198571D01*
X70514285Y-105127142D01*
X70585714Y-104984285D01*
X70585714Y-104912857D01*
X70514285Y-104770000D01*
X70371428Y-104698571D01*
X70157142Y-104698571D01*
X70014285Y-104627142D01*
X69942857Y-104484285D01*
X69942857Y-104412857D01*
X70014285Y-104270000D01*
X70157142Y-104198571D01*
X70371428Y-104198571D01*
X70514285Y-104270000D01*
X71800000Y-105127142D02*
X71657142Y-105198571D01*
X71371428Y-105198571D01*
X71228571Y-105127142D01*
X71157142Y-104984285D01*
X71157142Y-104412857D01*
X71228571Y-104270000D01*
X71371428Y-104198571D01*
X71657142Y-104198571D01*
X71800000Y-104270000D01*
X71871428Y-104412857D01*
X71871428Y-104555714D01*
X71157142Y-104698571D01*
X72300000Y-104198571D02*
X72871428Y-104198571D01*
X72514285Y-105198571D02*
X72514285Y-103912857D01*
X72585714Y-103770000D01*
X72728571Y-103698571D01*
X72871428Y-103698571D01*
X74514285Y-104412857D02*
X75014285Y-104412857D01*
X75228571Y-105198571D02*
X74514285Y-105198571D01*
X74514285Y-103698571D01*
X75228571Y-103698571D01*
X76085714Y-105198571D02*
X75942857Y-105127142D01*
X75871428Y-104984285D01*
X75871428Y-103698571D01*
X76585714Y-105127142D02*
X76728571Y-105198571D01*
X77014285Y-105198571D01*
X77157142Y-105127142D01*
X77228571Y-104984285D01*
X77228571Y-104912857D01*
X77157142Y-104770000D01*
X77014285Y-104698571D01*
X76800000Y-104698571D01*
X76657142Y-104627142D01*
X76585714Y-104484285D01*
X76585714Y-104412857D01*
X76657142Y-104270000D01*
X76800000Y-104198571D01*
X77014285Y-104198571D01*
X77157142Y-104270000D01*
X77871428Y-105198571D02*
X77871428Y-103698571D01*
X78514285Y-105198571D02*
X78514285Y-104412857D01*
X78442857Y-104270000D01*
X78300000Y-104198571D01*
X78085714Y-104198571D01*
X77942857Y-104270000D01*
X77871428Y-104341428D01*
X79800000Y-105127142D02*
X79657142Y-105198571D01*
X79371428Y-105198571D01*
X79228571Y-105127142D01*
X79157142Y-104984285D01*
X79157142Y-104412857D01*
X79228571Y-104270000D01*
X79371428Y-104198571D01*
X79657142Y-104198571D01*
X79800000Y-104270000D01*
X79871428Y-104412857D01*
X79871428Y-104555714D01*
X79157142Y-104698571D01*
X80514285Y-105198571D02*
X80514285Y-104198571D01*
X80514285Y-104484285D02*
X80585714Y-104341428D01*
X80657142Y-104270000D01*
X80800000Y-104198571D01*
X80942857Y-104198571D01*
X81442857Y-105198571D02*
X81442857Y-104198571D01*
X81442857Y-103698571D02*
X81371428Y-103770000D01*
X81442857Y-103841428D01*
X81514285Y-103770000D01*
X81442857Y-103698571D01*
X81442857Y-103841428D01*
X81942857Y-104198571D02*
X82514285Y-104198571D01*
X82157142Y-105198571D02*
X82157142Y-103912857D01*
X82228571Y-103770000D01*
X82371428Y-103698571D01*
X82514285Y-103698571D01*
X67478571Y-106185000D02*
X67335714Y-106113571D01*
X67121428Y-106113571D01*
X66907142Y-106185000D01*
X66764285Y-106327857D01*
X66692857Y-106470714D01*
X66621428Y-106756428D01*
X66621428Y-106970714D01*
X66692857Y-107256428D01*
X66764285Y-107399285D01*
X66907142Y-107542142D01*
X67121428Y-107613571D01*
X67264285Y-107613571D01*
X67478571Y-107542142D01*
X67550000Y-107470714D01*
X67550000Y-106970714D01*
X67264285Y-106970714D01*
X68835714Y-107613571D02*
X68835714Y-106827857D01*
X68764285Y-106685000D01*
X68621428Y-106613571D01*
X68335714Y-106613571D01*
X68192857Y-106685000D01*
X68835714Y-107542142D02*
X68692857Y-107613571D01*
X68335714Y-107613571D01*
X68192857Y-107542142D01*
X68121428Y-107399285D01*
X68121428Y-107256428D01*
X68192857Y-107113571D01*
X68335714Y-107042142D01*
X68692857Y-107042142D01*
X68835714Y-106970714D01*
X69550000Y-107613571D02*
X69550000Y-106613571D01*
X69550000Y-106899285D02*
X69621428Y-106756428D01*
X69692857Y-106685000D01*
X69835714Y-106613571D01*
X69978571Y-106613571D01*
X70335714Y-106613571D02*
X70692857Y-107613571D01*
X71050000Y-106613571D02*
X70692857Y-107613571D01*
X70550000Y-107970714D01*
X70478571Y-108042142D01*
X70335714Y-108113571D01*
X72764285Y-107613571D02*
X72764285Y-106113571D01*
X72764285Y-106827857D02*
X73621428Y-106827857D01*
X73621428Y-107613571D02*
X73621428Y-106113571D01*
X74978571Y-107613571D02*
X74978571Y-106827857D01*
X74907142Y-106685000D01*
X74764285Y-106613571D01*
X74478571Y-106613571D01*
X74335714Y-106685000D01*
X74978571Y-107542142D02*
X74835714Y-107613571D01*
X74478571Y-107613571D01*
X74335714Y-107542142D01*
X74264285Y-107399285D01*
X74264285Y-107256428D01*
X74335714Y-107113571D01*
X74478571Y-107042142D01*
X74835714Y-107042142D01*
X74978571Y-106970714D01*
X75907142Y-107613571D02*
X75764285Y-107542142D01*
X75692857Y-107399285D01*
X75692857Y-106113571D01*
X76692857Y-107613571D02*
X76550000Y-107542142D01*
X76478571Y-107399285D01*
X76478571Y-106113571D01*
X77478571Y-107613571D02*
X77335714Y-107542142D01*
X77264285Y-107470714D01*
X77192857Y-107327857D01*
X77192857Y-106899285D01*
X77264285Y-106756428D01*
X77335714Y-106685000D01*
X77478571Y-106613571D01*
X77692857Y-106613571D01*
X77835714Y-106685000D01*
X77907142Y-106756428D01*
X77978571Y-106899285D01*
X77978571Y-107327857D01*
X77907142Y-107470714D01*
X77835714Y-107542142D01*
X77692857Y-107613571D01*
X77478571Y-107613571D01*
X79264285Y-107542142D02*
X79121428Y-107613571D01*
X78835714Y-107613571D01*
X78692857Y-107542142D01*
X78621428Y-107470714D01*
X78550000Y-107327857D01*
X78550000Y-106899285D01*
X78621428Y-106756428D01*
X78692857Y-106685000D01*
X78835714Y-106613571D01*
X79121428Y-106613571D01*
X79264285Y-106685000D01*
X79907142Y-107613571D02*
X79907142Y-106113571D01*
X80050000Y-107042142D02*
X80478571Y-107613571D01*
X80478571Y-106613571D02*
X79907142Y-107185000D01*
X67514285Y-110028571D02*
X67514285Y-108528571D01*
X68014285Y-109600000D01*
X68514285Y-108528571D01*
X68514285Y-110028571D01*
X69871428Y-110028571D02*
X69871428Y-109242857D01*
X69800000Y-109100000D01*
X69657142Y-109028571D01*
X69371428Y-109028571D01*
X69228571Y-109100000D01*
X69871428Y-109957142D02*
X69728571Y-110028571D01*
X69371428Y-110028571D01*
X69228571Y-109957142D01*
X69157142Y-109814285D01*
X69157142Y-109671428D01*
X69228571Y-109528571D01*
X69371428Y-109457142D01*
X69728571Y-109457142D01*
X69871428Y-109385714D01*
X70371428Y-109028571D02*
X70942857Y-109028571D01*
X70585714Y-108528571D02*
X70585714Y-109814285D01*
X70657142Y-109957142D01*
X70800000Y-110028571D01*
X70942857Y-110028571D01*
X71228571Y-109028571D02*
X71800000Y-109028571D01*
X71442857Y-108528571D02*
X71442857Y-109814285D01*
X71514285Y-109957142D01*
X71657142Y-110028571D01*
X71800000Y-110028571D01*
X72300000Y-110028571D02*
X72300000Y-108528571D01*
X72942857Y-110028571D02*
X72942857Y-109242857D01*
X72871428Y-109100000D01*
X72728571Y-109028571D01*
X72514285Y-109028571D01*
X72371428Y-109100000D01*
X72300000Y-109171428D01*
X74228571Y-109957142D02*
X74085714Y-110028571D01*
X73800000Y-110028571D01*
X73657142Y-109957142D01*
X73585714Y-109814285D01*
X73585714Y-109242857D01*
X73657142Y-109100000D01*
X73800000Y-109028571D01*
X74085714Y-109028571D01*
X74228571Y-109100000D01*
X74300000Y-109242857D01*
X74300000Y-109385714D01*
X73585714Y-109528571D01*
X74800000Y-109028571D02*
X75085714Y-110028571D01*
X75371428Y-109314285D01*
X75657142Y-110028571D01*
X75942857Y-109028571D01*
X77942857Y-109314285D02*
X77942857Y-110028571D01*
X77442857Y-108528571D02*
X77942857Y-109314285D01*
X78442857Y-108528571D01*
X79585714Y-109028571D02*
X79585714Y-110028571D01*
X78942857Y-109028571D02*
X78942857Y-109814285D01*
X79014285Y-109957142D01*
X79157142Y-110028571D01*
X79371428Y-110028571D01*
X79514285Y-109957142D01*
X79585714Y-109885714D01*
D12*
X64744761Y-146471666D02*
X65220952Y-146471666D01*
X64649523Y-146757380D02*
X64982857Y-145757380D01*
X65316190Y-146757380D01*
X66220952Y-146757380D02*
X65887619Y-146281190D01*
X65649523Y-146757380D02*
X65649523Y-145757380D01*
X66030476Y-145757380D01*
X66125714Y-145805000D01*
X66173333Y-145852619D01*
X66220952Y-145947857D01*
X66220952Y-146090714D01*
X66173333Y-146185952D01*
X66125714Y-146233571D01*
X66030476Y-146281190D01*
X65649523Y-146281190D01*
X67220952Y-146757380D02*
X66887619Y-146281190D01*
X66649523Y-146757380D02*
X66649523Y-145757380D01*
X67030476Y-145757380D01*
X67125714Y-145805000D01*
X67173333Y-145852619D01*
X67220952Y-145947857D01*
X67220952Y-146090714D01*
X67173333Y-146185952D01*
X67125714Y-146233571D01*
X67030476Y-146281190D01*
X66649523Y-146281190D01*
X67601904Y-146471666D02*
X68078095Y-146471666D01*
X67506666Y-146757380D02*
X67840000Y-145757380D01*
X68173333Y-146757380D01*
X68697142Y-146281190D02*
X68697142Y-146757380D01*
X68363809Y-145757380D02*
X68697142Y-146281190D01*
X69030476Y-145757380D01*
X111197142Y-110157380D02*
X111197142Y-109157380D01*
X111768571Y-110157380D01*
X111768571Y-109157380D01*
X112244761Y-109157380D02*
X112244761Y-109966904D01*
X112292380Y-110062142D01*
X112340000Y-110109761D01*
X112435238Y-110157380D01*
X112625714Y-110157380D01*
X112720952Y-110109761D01*
X112768571Y-110062142D01*
X112816190Y-109966904D01*
X112816190Y-109157380D01*
X113863809Y-110062142D02*
X113816190Y-110109761D01*
X113673333Y-110157380D01*
X113578095Y-110157380D01*
X113435238Y-110109761D01*
X113340000Y-110014523D01*
X113292380Y-109919285D01*
X113244761Y-109728809D01*
X113244761Y-109585952D01*
X113292380Y-109395476D01*
X113340000Y-109300238D01*
X113435238Y-109205000D01*
X113578095Y-109157380D01*
X113673333Y-109157380D01*
X113816190Y-109205000D01*
X113863809Y-109252619D01*
X114768571Y-110157380D02*
X114292380Y-110157380D01*
X114292380Y-109157380D01*
X115101904Y-109633571D02*
X115435238Y-109633571D01*
X115578095Y-110157380D02*
X115101904Y-110157380D01*
X115101904Y-109157380D01*
X115578095Y-109157380D01*
X116197142Y-109157380D02*
X116387619Y-109157380D01*
X116482857Y-109205000D01*
X116578095Y-109300238D01*
X116625714Y-109490714D01*
X116625714Y-109824047D01*
X116578095Y-110014523D01*
X116482857Y-110109761D01*
X116387619Y-110157380D01*
X116197142Y-110157380D01*
X116101904Y-110109761D01*
X116006666Y-110014523D01*
X115959047Y-109824047D01*
X115959047Y-109490714D01*
X116006666Y-109300238D01*
X116101904Y-109205000D01*
X116197142Y-109157380D01*
X117054285Y-109776428D02*
X117816190Y-109776428D01*
X118768571Y-110157380D02*
X118292380Y-110157380D01*
X118292380Y-109157380D01*
X119530476Y-109490714D02*
X119530476Y-110157380D01*
X119292380Y-109109761D02*
X119054285Y-109824047D01*
X119673333Y-109824047D01*
X119959047Y-109157380D02*
X120578095Y-109157380D01*
X120244761Y-109538333D01*
X120387619Y-109538333D01*
X120482857Y-109585952D01*
X120530476Y-109633571D01*
X120578095Y-109728809D01*
X120578095Y-109966904D01*
X120530476Y-110062142D01*
X120482857Y-110109761D01*
X120387619Y-110157380D01*
X120101904Y-110157380D01*
X120006666Y-110109761D01*
X119959047Y-110062142D01*
X120959047Y-109252619D02*
X121006666Y-109205000D01*
X121101904Y-109157380D01*
X121339999Y-109157380D01*
X121435238Y-109205000D01*
X121482857Y-109252619D01*
X121530476Y-109347857D01*
X121530476Y-109443095D01*
X121482857Y-109585952D01*
X120911428Y-110157380D01*
X121530476Y-110157380D01*
X121959047Y-110157380D02*
X121959047Y-109157380D01*
X122530476Y-110157380D02*
X122101904Y-109585952D01*
X122530476Y-109157380D02*
X121959047Y-109728809D01*
X123530476Y-110062142D02*
X123482857Y-110109761D01*
X123339999Y-110157380D01*
X123244761Y-110157380D01*
X123101904Y-110109761D01*
X123006666Y-110014523D01*
X122959047Y-109919285D01*
X122911428Y-109728809D01*
X122911428Y-109585952D01*
X122959047Y-109395476D01*
X123006666Y-109300238D01*
X123101904Y-109205000D01*
X123244761Y-109157380D01*
X123339999Y-109157380D01*
X123482857Y-109205000D01*
X123530476Y-109252619D01*
X77570000Y-122742142D02*
X77617619Y-122789761D01*
X77570000Y-122837380D01*
X77522380Y-122789761D01*
X77570000Y-122742142D01*
X77570000Y-122837380D01*
X96665000Y-150737142D02*
X96712619Y-150784761D01*
X96665000Y-150832380D01*
X96617380Y-150784761D01*
X96665000Y-150737142D01*
X96665000Y-150832380D01*
X68580000Y-86622142D02*
X68627619Y-86669761D01*
X68580000Y-86717380D01*
X68532380Y-86669761D01*
X68580000Y-86622142D01*
X68580000Y-86717380D01*
X54788095Y-85137380D02*
X54788095Y-84137380D01*
X54788095Y-84613571D02*
X55359523Y-84613571D01*
X55359523Y-85137380D02*
X55359523Y-84137380D01*
X56026190Y-84137380D02*
X56216666Y-84137380D01*
X56311904Y-84185000D01*
X56407142Y-84280238D01*
X56454761Y-84470714D01*
X56454761Y-84804047D01*
X56407142Y-84994523D01*
X56311904Y-85089761D01*
X56216666Y-85137380D01*
X56026190Y-85137380D01*
X55930952Y-85089761D01*
X55835714Y-84994523D01*
X55788095Y-84804047D01*
X55788095Y-84470714D01*
X55835714Y-84280238D01*
X55930952Y-84185000D01*
X56026190Y-84137380D01*
X56740476Y-84137380D02*
X57311904Y-84137380D01*
X57026190Y-85137380D02*
X57026190Y-84137380D01*
X58692857Y-85518333D02*
X58645238Y-85470714D01*
X58550000Y-85327857D01*
X58502380Y-85232619D01*
X58454761Y-85089761D01*
X58407142Y-84851666D01*
X58407142Y-84661190D01*
X58454761Y-84423095D01*
X58502380Y-84280238D01*
X58550000Y-84185000D01*
X58645238Y-84042142D01*
X58692857Y-83994523D01*
X59073809Y-85137380D02*
X59073809Y-84137380D01*
X59311904Y-84137380D01*
X59454761Y-84185000D01*
X59550000Y-84280238D01*
X59597619Y-84375476D01*
X59645238Y-84565952D01*
X59645238Y-84708809D01*
X59597619Y-84899285D01*
X59550000Y-84994523D01*
X59454761Y-85089761D01*
X59311904Y-85137380D01*
X59073809Y-85137380D01*
X60264285Y-84137380D02*
X60454761Y-84137380D01*
X60550000Y-84185000D01*
X60645238Y-84280238D01*
X60692857Y-84470714D01*
X60692857Y-84804047D01*
X60645238Y-84994523D01*
X60550000Y-85089761D01*
X60454761Y-85137380D01*
X60264285Y-85137380D01*
X60169047Y-85089761D01*
X60073809Y-84994523D01*
X60026190Y-84804047D01*
X60026190Y-84470714D01*
X60073809Y-84280238D01*
X60169047Y-84185000D01*
X60264285Y-84137380D01*
X61645238Y-84185000D02*
X61550000Y-84137380D01*
X61407142Y-84137380D01*
X61264285Y-84185000D01*
X61169047Y-84280238D01*
X61121428Y-84375476D01*
X61073809Y-84565952D01*
X61073809Y-84708809D01*
X61121428Y-84899285D01*
X61169047Y-84994523D01*
X61264285Y-85089761D01*
X61407142Y-85137380D01*
X61502380Y-85137380D01*
X61645238Y-85089761D01*
X61692857Y-85042142D01*
X61692857Y-84708809D01*
X61502380Y-84708809D01*
X62026190Y-85518333D02*
X62073809Y-85470714D01*
X62169047Y-85327857D01*
X62216666Y-85232619D01*
X62264285Y-85089761D01*
X62311904Y-84851666D01*
X62311904Y-84661190D01*
X62264285Y-84423095D01*
X62216666Y-84280238D01*
X62169047Y-84185000D01*
X62073809Y-84042142D01*
X62026190Y-83994523D01*
X124662380Y-153137619D02*
X123662380Y-153137619D01*
X124138571Y-153137619D02*
X124138571Y-152566190D01*
X124662380Y-152566190D02*
X123662380Y-152566190D01*
X124662380Y-151518571D02*
X124186190Y-151851904D01*
X124662380Y-152090000D02*
X123662380Y-152090000D01*
X123662380Y-151709047D01*
X123710000Y-151613809D01*
X123757619Y-151566190D01*
X123852857Y-151518571D01*
X123995714Y-151518571D01*
X124090952Y-151566190D01*
X124138571Y-151613809D01*
X124186190Y-151709047D01*
X124186190Y-152090000D01*
X123662380Y-151232857D02*
X123662380Y-150661428D01*
X124662380Y-150947142D02*
X123662380Y-150947142D01*
X124138571Y-149994761D02*
X124186190Y-149851904D01*
X124233809Y-149804285D01*
X124329047Y-149756666D01*
X124471904Y-149756666D01*
X124567142Y-149804285D01*
X124614761Y-149851904D01*
X124662380Y-149947142D01*
X124662380Y-150328095D01*
X123662380Y-150328095D01*
X123662380Y-149994761D01*
X123710000Y-149899523D01*
X123757619Y-149851904D01*
X123852857Y-149804285D01*
X123948095Y-149804285D01*
X124043333Y-149851904D01*
X124090952Y-149899523D01*
X124138571Y-149994761D01*
X124138571Y-150328095D01*
X123662380Y-149470952D02*
X123662380Y-148899523D01*
X124662380Y-149185238D02*
X123662380Y-149185238D01*
D11*
X51773571Y-143899642D02*
X52916428Y-143899642D01*
X49880714Y-145386071D02*
X50380714Y-146886071D01*
X50880714Y-145386071D01*
X51666428Y-145386071D02*
X51952142Y-145386071D01*
X52095000Y-145457500D01*
X52237857Y-145600357D01*
X52309285Y-145886071D01*
X52309285Y-146386071D01*
X52237857Y-146671785D01*
X52095000Y-146814642D01*
X51952142Y-146886071D01*
X51666428Y-146886071D01*
X51523571Y-146814642D01*
X51380714Y-146671785D01*
X51309285Y-146386071D01*
X51309285Y-145886071D01*
X51380714Y-145600357D01*
X51523571Y-145457500D01*
X51666428Y-145386071D01*
X53666428Y-146886071D02*
X52952142Y-146886071D01*
X52952142Y-145386071D01*
X53952142Y-145386071D02*
X54809285Y-145386071D01*
X54380714Y-146886071D02*
X54380714Y-145386071D01*
D12*
X57735000Y-101762142D02*
X57782619Y-101809761D01*
X57735000Y-101857380D01*
X57687380Y-101809761D01*
X57735000Y-101762142D01*
X57735000Y-101857380D01*
D11*
X28853571Y-143839642D02*
X29996428Y-143839642D01*
X29425000Y-144411071D02*
X29425000Y-143268214D01*
X26960714Y-145326071D02*
X27460714Y-146826071D01*
X27960714Y-145326071D01*
X28746428Y-145326071D02*
X29032142Y-145326071D01*
X29175000Y-145397500D01*
X29317857Y-145540357D01*
X29389285Y-145826071D01*
X29389285Y-146326071D01*
X29317857Y-146611785D01*
X29175000Y-146754642D01*
X29032142Y-146826071D01*
X28746428Y-146826071D01*
X28603571Y-146754642D01*
X28460714Y-146611785D01*
X28389285Y-146326071D01*
X28389285Y-145826071D01*
X28460714Y-145540357D01*
X28603571Y-145397500D01*
X28746428Y-145326071D01*
X30746428Y-146826071D02*
X30032142Y-146826071D01*
X30032142Y-145326071D01*
X31032142Y-145326071D02*
X31889285Y-145326071D01*
X31460714Y-146826071D02*
X31460714Y-145326071D01*
D12*
X84905714Y-99546428D02*
X85667619Y-99546428D01*
X85286666Y-99927380D02*
X85286666Y-99165476D01*
X86191428Y-99927380D02*
X86381904Y-99927380D01*
X86477142Y-99879761D01*
X86524761Y-99832142D01*
X86620000Y-99689285D01*
X86667619Y-99498809D01*
X86667619Y-99117857D01*
X86620000Y-99022619D01*
X86572380Y-98975000D01*
X86477142Y-98927380D01*
X86286666Y-98927380D01*
X86191428Y-98975000D01*
X86143809Y-99022619D01*
X86096190Y-99117857D01*
X86096190Y-99355952D01*
X86143809Y-99451190D01*
X86191428Y-99498809D01*
X86286666Y-99546428D01*
X86477142Y-99546428D01*
X86572380Y-99498809D01*
X86620000Y-99451190D01*
X86667619Y-99355952D01*
X86953333Y-98927380D02*
X87286666Y-99927380D01*
X87620000Y-98927380D01*
X87905714Y-99641666D02*
X88381904Y-99641666D01*
X87810476Y-99927380D02*
X88143809Y-98927380D01*
X88477142Y-99927380D01*
X77785000Y-152022142D02*
X77832619Y-152069761D01*
X77785000Y-152117380D01*
X77737380Y-152069761D01*
X77785000Y-152022142D01*
X77785000Y-152117380D01*
X17357380Y-108107380D02*
X16357380Y-108107380D01*
X16357380Y-107726428D01*
X16405000Y-107631190D01*
X16452619Y-107583571D01*
X16547857Y-107535952D01*
X16690714Y-107535952D01*
X16785952Y-107583571D01*
X16833571Y-107631190D01*
X16881190Y-107726428D01*
X16881190Y-108107380D01*
X17262142Y-106535952D02*
X17309761Y-106583571D01*
X17357380Y-106726428D01*
X17357380Y-106821666D01*
X17309761Y-106964523D01*
X17214523Y-107059761D01*
X17119285Y-107107380D01*
X16928809Y-107155000D01*
X16785952Y-107155000D01*
X16595476Y-107107380D01*
X16500238Y-107059761D01*
X16405000Y-106964523D01*
X16357380Y-106821666D01*
X16357380Y-106726428D01*
X16405000Y-106583571D01*
X16452619Y-106535952D01*
X16833571Y-105774047D02*
X16881190Y-105631190D01*
X16928809Y-105583571D01*
X17024047Y-105535952D01*
X17166904Y-105535952D01*
X17262142Y-105583571D01*
X17309761Y-105631190D01*
X17357380Y-105726428D01*
X17357380Y-106107380D01*
X16357380Y-106107380D01*
X16357380Y-105774047D01*
X16405000Y-105678809D01*
X16452619Y-105631190D01*
X16547857Y-105583571D01*
X16643095Y-105583571D01*
X16738333Y-105631190D01*
X16785952Y-105678809D01*
X16833571Y-105774047D01*
X16833571Y-106107380D01*
X17357380Y-104345476D02*
X16690714Y-104345476D01*
X16881190Y-104345476D02*
X16785952Y-104297857D01*
X16738333Y-104250238D01*
X16690714Y-104155000D01*
X16690714Y-104059761D01*
X17357380Y-103297857D02*
X16833571Y-103297857D01*
X16738333Y-103345476D01*
X16690714Y-103440714D01*
X16690714Y-103631190D01*
X16738333Y-103726428D01*
X17309761Y-103297857D02*
X17357380Y-103393095D01*
X17357380Y-103631190D01*
X17309761Y-103726428D01*
X17214523Y-103774047D01*
X17119285Y-103774047D01*
X17024047Y-103726428D01*
X16976428Y-103631190D01*
X16976428Y-103393095D01*
X16928809Y-103297857D01*
X16690714Y-102964523D02*
X16690714Y-102583571D01*
X16357380Y-102821666D02*
X17214523Y-102821666D01*
X17309761Y-102774047D01*
X17357380Y-102678809D01*
X17357380Y-102583571D01*
X17309761Y-101869285D02*
X17357380Y-101964523D01*
X17357380Y-102155000D01*
X17309761Y-102250238D01*
X17214523Y-102297857D01*
X16833571Y-102297857D01*
X16738333Y-102250238D01*
X16690714Y-102155000D01*
X16690714Y-101964523D01*
X16738333Y-101869285D01*
X16833571Y-101821666D01*
X16928809Y-101821666D01*
X17024047Y-102297857D01*
X17357380Y-100964523D02*
X16357380Y-100964523D01*
X17309761Y-100964523D02*
X17357380Y-101059761D01*
X17357380Y-101250238D01*
X17309761Y-101345476D01*
X17262142Y-101393095D01*
X17166904Y-101440714D01*
X16881190Y-101440714D01*
X16785952Y-101393095D01*
X16738333Y-101345476D01*
X16690714Y-101250238D01*
X16690714Y-101059761D01*
X16738333Y-100964523D01*
X18300714Y-106393095D02*
X18300714Y-106012142D01*
X18967380Y-106250238D02*
X18110238Y-106250238D01*
X18015000Y-106202619D01*
X17967380Y-106107380D01*
X17967380Y-106012142D01*
X18967380Y-105535952D02*
X18919761Y-105631190D01*
X18872142Y-105678809D01*
X18776904Y-105726428D01*
X18491190Y-105726428D01*
X18395952Y-105678809D01*
X18348333Y-105631190D01*
X18300714Y-105535952D01*
X18300714Y-105393095D01*
X18348333Y-105297857D01*
X18395952Y-105250238D01*
X18491190Y-105202619D01*
X18776904Y-105202619D01*
X18872142Y-105250238D01*
X18919761Y-105297857D01*
X18967380Y-105393095D01*
X18967380Y-105535952D01*
X18967380Y-104774047D02*
X18300714Y-104774047D01*
X18491190Y-104774047D02*
X18395952Y-104726428D01*
X18348333Y-104678809D01*
X18300714Y-104583571D01*
X18300714Y-104488333D01*
X18395952Y-103250238D02*
X18348333Y-103345476D01*
X18300714Y-103393095D01*
X18205476Y-103440714D01*
X18157857Y-103440714D01*
X18062619Y-103393095D01*
X18015000Y-103345476D01*
X17967380Y-103250238D01*
X17967380Y-103059761D01*
X18015000Y-102964523D01*
X18062619Y-102916904D01*
X18157857Y-102869285D01*
X18205476Y-102869285D01*
X18300714Y-102916904D01*
X18348333Y-102964523D01*
X18395952Y-103059761D01*
X18395952Y-103250238D01*
X18443571Y-103345476D01*
X18491190Y-103393095D01*
X18586428Y-103440714D01*
X18776904Y-103440714D01*
X18872142Y-103393095D01*
X18919761Y-103345476D01*
X18967380Y-103250238D01*
X18967380Y-103059761D01*
X18919761Y-102964523D01*
X18872142Y-102916904D01*
X18776904Y-102869285D01*
X18586428Y-102869285D01*
X18491190Y-102916904D01*
X18443571Y-102964523D01*
X18395952Y-103059761D01*
X18681666Y-102488333D02*
X18681666Y-102012142D01*
X18967380Y-102583571D02*
X17967380Y-102250238D01*
X18967380Y-101916904D01*
X74037619Y-152352142D02*
X73990000Y-152399761D01*
X73847142Y-152447380D01*
X73751904Y-152447380D01*
X73609047Y-152399761D01*
X73513809Y-152304523D01*
X73466190Y-152209285D01*
X73418571Y-152018809D01*
X73418571Y-151875952D01*
X73466190Y-151685476D01*
X73513809Y-151590238D01*
X73609047Y-151495000D01*
X73751904Y-151447380D01*
X73847142Y-151447380D01*
X73990000Y-151495000D01*
X74037619Y-151542619D01*
X74466190Y-151923571D02*
X74799523Y-151923571D01*
X74942380Y-152447380D02*
X74466190Y-152447380D01*
X74466190Y-151447380D01*
X74942380Y-151447380D01*
X75847142Y-152447380D02*
X75370952Y-152447380D01*
X75370952Y-151447380D01*
X76656666Y-152447380D02*
X76180476Y-152447380D01*
X76180476Y-151447380D01*
X35935000Y-91747142D02*
X35982619Y-91794761D01*
X35935000Y-91842380D01*
X35887380Y-91794761D01*
X35935000Y-91747142D01*
X35935000Y-91842380D01*
X121144761Y-152883095D02*
X121192380Y-152740238D01*
X121192380Y-152502142D01*
X121144761Y-152406904D01*
X121097142Y-152359285D01*
X121001904Y-152311666D01*
X120906666Y-152311666D01*
X120811428Y-152359285D01*
X120763809Y-152406904D01*
X120716190Y-152502142D01*
X120668571Y-152692619D01*
X120620952Y-152787857D01*
X120573333Y-152835476D01*
X120478095Y-152883095D01*
X120382857Y-152883095D01*
X120287619Y-152835476D01*
X120240000Y-152787857D01*
X120192380Y-152692619D01*
X120192380Y-152454523D01*
X120240000Y-152311666D01*
X121097142Y-151311666D02*
X121144761Y-151359285D01*
X121192380Y-151502142D01*
X121192380Y-151597380D01*
X121144761Y-151740238D01*
X121049523Y-151835476D01*
X120954285Y-151883095D01*
X120763809Y-151930714D01*
X120620952Y-151930714D01*
X120430476Y-151883095D01*
X120335238Y-151835476D01*
X120240000Y-151740238D01*
X120192380Y-151597380D01*
X120192380Y-151502142D01*
X120240000Y-151359285D01*
X120287619Y-151311666D01*
X120906666Y-150930714D02*
X120906666Y-150454523D01*
X121192380Y-151025952D02*
X120192380Y-150692619D01*
X121192380Y-150359285D01*
X121192380Y-150025952D02*
X120192380Y-150025952D01*
X121192380Y-149454523D01*
X120192380Y-149454523D01*
X117168571Y-152409285D02*
X117168571Y-152075952D01*
X117692380Y-151933095D02*
X117692380Y-152409285D01*
X116692380Y-152409285D01*
X116692380Y-151933095D01*
X117692380Y-150933095D02*
X117216190Y-151266428D01*
X117692380Y-151504523D02*
X116692380Y-151504523D01*
X116692380Y-151123571D01*
X116740000Y-151028333D01*
X116787619Y-150980714D01*
X116882857Y-150933095D01*
X117025714Y-150933095D01*
X117120952Y-150980714D01*
X117168571Y-151028333D01*
X117216190Y-151123571D01*
X117216190Y-151504523D01*
X117692380Y-149933095D02*
X117216190Y-150266428D01*
X117692380Y-150504523D02*
X116692380Y-150504523D01*
X116692380Y-150123571D01*
X116740000Y-150028333D01*
X116787619Y-149980714D01*
X116882857Y-149933095D01*
X117025714Y-149933095D01*
X117120952Y-149980714D01*
X117168571Y-150028333D01*
X117216190Y-150123571D01*
X117216190Y-150504523D01*
X99902619Y-152752380D02*
X99569285Y-152276190D01*
X99331190Y-152752380D02*
X99331190Y-151752380D01*
X99712142Y-151752380D01*
X99807380Y-151800000D01*
X99855000Y-151847619D01*
X99902619Y-151942857D01*
X99902619Y-152085714D01*
X99855000Y-152180952D01*
X99807380Y-152228571D01*
X99712142Y-152276190D01*
X99331190Y-152276190D01*
X100331190Y-152228571D02*
X100664523Y-152228571D01*
X100807380Y-152752380D02*
X100331190Y-152752380D01*
X100331190Y-151752380D01*
X100807380Y-151752380D01*
X101188333Y-152704761D02*
X101331190Y-152752380D01*
X101569285Y-152752380D01*
X101664523Y-152704761D01*
X101712142Y-152657142D01*
X101759761Y-152561904D01*
X101759761Y-152466666D01*
X101712142Y-152371428D01*
X101664523Y-152323809D01*
X101569285Y-152276190D01*
X101378809Y-152228571D01*
X101283571Y-152180952D01*
X101235952Y-152133333D01*
X101188333Y-152038095D01*
X101188333Y-151942857D01*
X101235952Y-151847619D01*
X101283571Y-151800000D01*
X101378809Y-151752380D01*
X101616904Y-151752380D01*
X101759761Y-151800000D01*
X102188333Y-152228571D02*
X102521666Y-152228571D01*
X102664523Y-152752380D02*
X102188333Y-152752380D01*
X102188333Y-151752380D01*
X102664523Y-151752380D01*
X102950238Y-151752380D02*
X103521666Y-151752380D01*
X103235952Y-152752380D02*
X103235952Y-151752380D01*
X104030952Y-141332380D02*
X104221428Y-141332380D01*
X104316666Y-141284761D01*
X104364285Y-141237142D01*
X104459523Y-141094285D01*
X104507142Y-140903809D01*
X104507142Y-140522857D01*
X104459523Y-140427619D01*
X104411904Y-140380000D01*
X104316666Y-140332380D01*
X104126190Y-140332380D01*
X104030952Y-140380000D01*
X103983333Y-140427619D01*
X103935714Y-140522857D01*
X103935714Y-140760952D01*
X103983333Y-140856190D01*
X104030952Y-140903809D01*
X104126190Y-140951428D01*
X104316666Y-140951428D01*
X104411904Y-140903809D01*
X104459523Y-140856190D01*
X104507142Y-140760952D01*
X104792857Y-140332380D02*
X105126190Y-141332380D01*
X105459523Y-140332380D01*
X101840000Y-81277142D02*
X101887619Y-81324761D01*
X101840000Y-81372380D01*
X101792380Y-81324761D01*
X101840000Y-81277142D01*
X101840000Y-81372380D01*
X118775000Y-88857142D02*
X118822619Y-88904761D01*
X118775000Y-88952380D01*
X118727380Y-88904761D01*
X118775000Y-88857142D01*
X118775000Y-88952380D01*
X66531904Y-150077380D02*
X66531904Y-149077380D01*
X66865238Y-149791666D01*
X67198571Y-149077380D01*
X67198571Y-150077380D01*
X67865238Y-149077380D02*
X68055714Y-149077380D01*
X68150952Y-149125000D01*
X68246190Y-149220238D01*
X68293809Y-149410714D01*
X68293809Y-149744047D01*
X68246190Y-149934523D01*
X68150952Y-150029761D01*
X68055714Y-150077380D01*
X67865238Y-150077380D01*
X67770000Y-150029761D01*
X67674761Y-149934523D01*
X67627142Y-149744047D01*
X67627142Y-149410714D01*
X67674761Y-149220238D01*
X67770000Y-149125000D01*
X67865238Y-149077380D01*
X68722380Y-150077380D02*
X68722380Y-149077380D01*
X68960476Y-149077380D01*
X69103333Y-149125000D01*
X69198571Y-149220238D01*
X69246190Y-149315476D01*
X69293809Y-149505952D01*
X69293809Y-149648809D01*
X69246190Y-149839285D01*
X69198571Y-149934523D01*
X69103333Y-150029761D01*
X68960476Y-150077380D01*
X68722380Y-150077380D01*
X69722380Y-149077380D02*
X69722380Y-149886904D01*
X69770000Y-149982142D01*
X69817619Y-150029761D01*
X69912857Y-150077380D01*
X70103333Y-150077380D01*
X70198571Y-150029761D01*
X70246190Y-149982142D01*
X70293809Y-149886904D01*
X70293809Y-149077380D01*
X71246190Y-150077380D02*
X70770000Y-150077380D01*
X70770000Y-149077380D01*
X71579523Y-149553571D02*
X71912857Y-149553571D01*
X72055714Y-150077380D02*
X71579523Y-150077380D01*
X71579523Y-149077380D01*
X72055714Y-149077380D01*
X41370000Y-77832142D02*
X41417619Y-77879761D01*
X41370000Y-77927380D01*
X41322380Y-77879761D01*
X41370000Y-77832142D01*
X41370000Y-77927380D01*
X114227142Y-152745000D02*
X114274761Y-152792619D01*
X114322380Y-152935476D01*
X114322380Y-153030714D01*
X114274761Y-153173571D01*
X114179523Y-153268809D01*
X114084285Y-153316428D01*
X113893809Y-153364047D01*
X113750952Y-153364047D01*
X113560476Y-153316428D01*
X113465238Y-153268809D01*
X113370000Y-153173571D01*
X113322380Y-153030714D01*
X113322380Y-152935476D01*
X113370000Y-152792619D01*
X113417619Y-152745000D01*
X114036666Y-152364047D02*
X114036666Y-151887857D01*
X114322380Y-152459285D02*
X113322380Y-152125952D01*
X114322380Y-151792619D01*
X114322380Y-151459285D02*
X113322380Y-151459285D01*
X114322380Y-150887857D01*
X113322380Y-150887857D01*
X113322380Y-150554523D02*
X113322380Y-149983095D01*
X114322380Y-150268809D02*
X113322380Y-150268809D01*
X113322380Y-149745000D02*
X114322380Y-149078333D01*
X113322380Y-149078333D02*
X114322380Y-149745000D01*
X95925000Y-86942142D02*
X95972619Y-86989761D01*
X95925000Y-87037380D01*
X95877380Y-86989761D01*
X95925000Y-86942142D01*
X95925000Y-87037380D01*
X103850000Y-101662142D02*
X103897619Y-101709761D01*
X103850000Y-101757380D01*
X103802380Y-101709761D01*
X103850000Y-101662142D01*
X103850000Y-101757380D01*
X110757142Y-152889047D02*
X110804761Y-152936666D01*
X110852380Y-153079523D01*
X110852380Y-153174761D01*
X110804761Y-153317619D01*
X110709523Y-153412857D01*
X110614285Y-153460476D01*
X110423809Y-153508095D01*
X110280952Y-153508095D01*
X110090476Y-153460476D01*
X109995238Y-153412857D01*
X109900000Y-153317619D01*
X109852380Y-153174761D01*
X109852380Y-153079523D01*
X109900000Y-152936666D01*
X109947619Y-152889047D01*
X110566666Y-152508095D02*
X110566666Y-152031904D01*
X110852380Y-152603333D02*
X109852380Y-152270000D01*
X110852380Y-151936666D01*
X110852380Y-151603333D02*
X109852380Y-151603333D01*
X110852380Y-151031904D01*
X109852380Y-151031904D01*
X110852380Y-149984285D02*
X110376190Y-150317619D01*
X110852380Y-150555714D02*
X109852380Y-150555714D01*
X109852380Y-150174761D01*
X109900000Y-150079523D01*
X109947619Y-150031904D01*
X110042857Y-149984285D01*
X110185714Y-149984285D01*
X110280952Y-150031904D01*
X110328571Y-150079523D01*
X110376190Y-150174761D01*
X110376190Y-150555714D01*
X109852380Y-149650952D02*
X110852380Y-148984285D01*
X109852380Y-148984285D02*
X110852380Y-149650952D01*
X46671666Y-109817380D02*
X46671666Y-108817380D01*
X46909761Y-108817380D01*
X47052619Y-108865000D01*
X47147857Y-108960238D01*
X47195476Y-109055476D01*
X47243095Y-109245952D01*
X47243095Y-109388809D01*
X47195476Y-109579285D01*
X47147857Y-109674523D01*
X47052619Y-109769761D01*
X46909761Y-109817380D01*
X46671666Y-109817380D01*
X47624047Y-109531666D02*
X48100238Y-109531666D01*
X47528809Y-109817380D02*
X47862142Y-108817380D01*
X48195476Y-109817380D01*
X48528809Y-109817380D02*
X48528809Y-108817380D01*
X49100238Y-109817380D01*
X49100238Y-108817380D01*
X50100238Y-108865000D02*
X50005000Y-108817380D01*
X49862142Y-108817380D01*
X49719285Y-108865000D01*
X49624047Y-108960238D01*
X49576428Y-109055476D01*
X49528809Y-109245952D01*
X49528809Y-109388809D01*
X49576428Y-109579285D01*
X49624047Y-109674523D01*
X49719285Y-109769761D01*
X49862142Y-109817380D01*
X49957380Y-109817380D01*
X50100238Y-109769761D01*
X50147857Y-109722142D01*
X50147857Y-109388809D01*
X49957380Y-109388809D01*
X50576428Y-109293571D02*
X50909761Y-109293571D01*
X51052619Y-109817380D02*
X50576428Y-109817380D01*
X50576428Y-108817380D01*
X51052619Y-108817380D01*
X52052619Y-109817380D02*
X51719285Y-109341190D01*
X51481190Y-109817380D02*
X51481190Y-108817380D01*
X51862142Y-108817380D01*
X51957380Y-108865000D01*
X52005000Y-108912619D01*
X52052619Y-109007857D01*
X52052619Y-109150714D01*
X52005000Y-109245952D01*
X51957380Y-109293571D01*
X51862142Y-109341190D01*
X51481190Y-109341190D01*
X52481190Y-109722142D02*
X52528809Y-109769761D01*
X52481190Y-109817380D01*
X52433571Y-109769761D01*
X52481190Y-109722142D01*
X52481190Y-109817380D01*
X52481190Y-109198333D02*
X52528809Y-109245952D01*
X52481190Y-109293571D01*
X52433571Y-109245952D01*
X52481190Y-109198333D01*
X52481190Y-109293571D01*
X53719285Y-109817380D02*
X53719285Y-108817380D01*
X53719285Y-109293571D02*
X54290714Y-109293571D01*
X54290714Y-109817380D02*
X54290714Y-108817380D01*
X54766904Y-109817380D02*
X54766904Y-108817380D01*
X55766904Y-108865000D02*
X55671666Y-108817380D01*
X55528809Y-108817380D01*
X55385952Y-108865000D01*
X55290714Y-108960238D01*
X55243095Y-109055476D01*
X55195476Y-109245952D01*
X55195476Y-109388809D01*
X55243095Y-109579285D01*
X55290714Y-109674523D01*
X55385952Y-109769761D01*
X55528809Y-109817380D01*
X55624047Y-109817380D01*
X55766904Y-109769761D01*
X55814523Y-109722142D01*
X55814523Y-109388809D01*
X55624047Y-109388809D01*
X56243095Y-109817380D02*
X56243095Y-108817380D01*
X56243095Y-109293571D02*
X56814523Y-109293571D01*
X56814523Y-109817380D02*
X56814523Y-108817380D01*
X58624047Y-109722142D02*
X58576428Y-109769761D01*
X58433571Y-109817380D01*
X58338333Y-109817380D01*
X58195476Y-109769761D01*
X58100238Y-109674523D01*
X58052619Y-109579285D01*
X58005000Y-109388809D01*
X58005000Y-109245952D01*
X58052619Y-109055476D01*
X58100238Y-108960238D01*
X58195476Y-108865000D01*
X58338333Y-108817380D01*
X58433571Y-108817380D01*
X58576428Y-108865000D01*
X58624047Y-108912619D01*
X59052619Y-108817380D02*
X59052619Y-109626904D01*
X59100238Y-109722142D01*
X59147857Y-109769761D01*
X59243095Y-109817380D01*
X59433571Y-109817380D01*
X59528809Y-109769761D01*
X59576428Y-109722142D01*
X59624047Y-109626904D01*
X59624047Y-108817380D01*
X60671666Y-109817380D02*
X60338333Y-109341190D01*
X60100238Y-109817380D02*
X60100238Y-108817380D01*
X60481190Y-108817380D01*
X60576428Y-108865000D01*
X60624047Y-108912619D01*
X60671666Y-109007857D01*
X60671666Y-109150714D01*
X60624047Y-109245952D01*
X60576428Y-109293571D01*
X60481190Y-109341190D01*
X60100238Y-109341190D01*
X61671666Y-109817380D02*
X61338333Y-109341190D01*
X61100238Y-109817380D02*
X61100238Y-108817380D01*
X61481190Y-108817380D01*
X61576428Y-108865000D01*
X61624047Y-108912619D01*
X61671666Y-109007857D01*
X61671666Y-109150714D01*
X61624047Y-109245952D01*
X61576428Y-109293571D01*
X61481190Y-109341190D01*
X61100238Y-109341190D01*
X62100238Y-109293571D02*
X62433571Y-109293571D01*
X62576428Y-109817380D02*
X62100238Y-109817380D01*
X62100238Y-108817380D01*
X62576428Y-108817380D01*
X63005000Y-109817380D02*
X63005000Y-108817380D01*
X63576428Y-109817380D01*
X63576428Y-108817380D01*
X63909761Y-108817380D02*
X64481190Y-108817380D01*
X64195476Y-109817380D02*
X64195476Y-108817380D01*
X87235000Y-86942142D02*
X87282619Y-86989761D01*
X87235000Y-87037380D01*
X87187380Y-86989761D01*
X87235000Y-86942142D01*
X87235000Y-87037380D01*
X82032857Y-71798333D02*
X81985238Y-71750714D01*
X81890000Y-71607857D01*
X81842380Y-71512619D01*
X81794761Y-71369761D01*
X81747142Y-71131666D01*
X81747142Y-70941190D01*
X81794761Y-70703095D01*
X81842380Y-70560238D01*
X81890000Y-70465000D01*
X81985238Y-70322142D01*
X82032857Y-70274523D01*
X82318571Y-70750714D02*
X82556666Y-71417380D01*
X82794761Y-70750714D02*
X82556666Y-71417380D01*
X82461428Y-71655476D01*
X82413809Y-71703095D01*
X82318571Y-71750714D01*
X83318571Y-71417380D02*
X83223333Y-71369761D01*
X83175714Y-71322142D01*
X83128095Y-71226904D01*
X83128095Y-70941190D01*
X83175714Y-70845952D01*
X83223333Y-70798333D01*
X83318571Y-70750714D01*
X83461428Y-70750714D01*
X83556666Y-70798333D01*
X83604285Y-70845952D01*
X83651904Y-70941190D01*
X83651904Y-71226904D01*
X83604285Y-71322142D01*
X83556666Y-71369761D01*
X83461428Y-71417380D01*
X83318571Y-71417380D01*
X84509047Y-70750714D02*
X84509047Y-71417380D01*
X84080476Y-70750714D02*
X84080476Y-71274523D01*
X84128095Y-71369761D01*
X84223333Y-71417380D01*
X84366190Y-71417380D01*
X84461428Y-71369761D01*
X84509047Y-71322142D01*
X84890000Y-71798333D02*
X84937619Y-71750714D01*
X85032857Y-71607857D01*
X85080476Y-71512619D01*
X85128095Y-71369761D01*
X85175714Y-71131666D01*
X85175714Y-70941190D01*
X85128095Y-70703095D01*
X85080476Y-70560238D01*
X85032857Y-70465000D01*
X84937619Y-70322142D01*
X84890000Y-70274523D01*
X86985238Y-71322142D02*
X86937619Y-71369761D01*
X86794761Y-71417380D01*
X86699523Y-71417380D01*
X86556666Y-71369761D01*
X86461428Y-71274523D01*
X86413809Y-71179285D01*
X86366190Y-70988809D01*
X86366190Y-70845952D01*
X86413809Y-70655476D01*
X86461428Y-70560238D01*
X86556666Y-70465000D01*
X86699523Y-70417380D01*
X86794761Y-70417380D01*
X86937619Y-70465000D01*
X86985238Y-70512619D01*
X87366190Y-71131666D02*
X87842380Y-71131666D01*
X87270952Y-71417380D02*
X87604285Y-70417380D01*
X87937619Y-71417380D01*
X88270952Y-71417380D02*
X88270952Y-70417380D01*
X88842380Y-71417380D01*
X88842380Y-70417380D01*
X90366190Y-71798333D02*
X90318571Y-71750714D01*
X90223333Y-71607857D01*
X90175714Y-71512619D01*
X90128095Y-71369761D01*
X90080476Y-71131666D01*
X90080476Y-70941190D01*
X90128095Y-70703095D01*
X90175714Y-70560238D01*
X90223333Y-70465000D01*
X90318571Y-70322142D01*
X90366190Y-70274523D01*
X91175714Y-71417380D02*
X91175714Y-70417380D01*
X91175714Y-71369761D02*
X91080476Y-71417380D01*
X90890000Y-71417380D01*
X90794761Y-71369761D01*
X90747142Y-71322142D01*
X90699523Y-71226904D01*
X90699523Y-70941190D01*
X90747142Y-70845952D01*
X90794761Y-70798333D01*
X90890000Y-70750714D01*
X91080476Y-70750714D01*
X91175714Y-70798333D01*
X91794761Y-71417380D02*
X91699523Y-71369761D01*
X91651904Y-71322142D01*
X91604285Y-71226904D01*
X91604285Y-70941190D01*
X91651904Y-70845952D01*
X91699523Y-70798333D01*
X91794761Y-70750714D01*
X91937619Y-70750714D01*
X92032857Y-70798333D01*
X92080476Y-70845952D01*
X92128095Y-70941190D01*
X92128095Y-71226904D01*
X92080476Y-71322142D01*
X92032857Y-71369761D01*
X91937619Y-71417380D01*
X91794761Y-71417380D01*
X93318571Y-71417380D02*
X93318571Y-70750714D01*
X93318571Y-70417380D02*
X93270952Y-70465000D01*
X93318571Y-70512619D01*
X93366190Y-70465000D01*
X93318571Y-70417380D01*
X93318571Y-70512619D01*
X93651904Y-70750714D02*
X94032857Y-70750714D01*
X93794761Y-70417380D02*
X93794761Y-71274523D01*
X93842380Y-71369761D01*
X93937619Y-71417380D01*
X94032857Y-71417380D01*
X94366190Y-71322142D02*
X94413809Y-71369761D01*
X94366190Y-71417380D01*
X94318571Y-71369761D01*
X94366190Y-71322142D01*
X94366190Y-71417380D01*
X94366190Y-71036428D02*
X94318571Y-70465000D01*
X94366190Y-70417380D01*
X94413809Y-70465000D01*
X94366190Y-71036428D01*
X94366190Y-70417380D01*
X94747142Y-71798333D02*
X94794761Y-71750714D01*
X94890000Y-71607857D01*
X94937619Y-71512619D01*
X94985238Y-71369761D01*
X95032857Y-71131666D01*
X95032857Y-70941190D01*
X94985238Y-70703095D01*
X94937619Y-70560238D01*
X94890000Y-70465000D01*
X94794761Y-70322142D01*
X94747142Y-70274523D01*
D11*
X36557857Y-143919642D02*
X37700714Y-143919642D01*
X37129285Y-144491071D02*
X37129285Y-143348214D01*
X44129285Y-143919642D02*
X45272142Y-143919642D01*
X36415000Y-146763214D02*
X36343571Y-146834642D01*
X36129285Y-146906071D01*
X35986428Y-146906071D01*
X35772142Y-146834642D01*
X35629285Y-146691785D01*
X35557857Y-146548928D01*
X35486428Y-146263214D01*
X35486428Y-146048928D01*
X35557857Y-145763214D01*
X35629285Y-145620357D01*
X35772142Y-145477500D01*
X35986428Y-145406071D01*
X36129285Y-145406071D01*
X36343571Y-145477500D01*
X36415000Y-145548928D01*
X37057857Y-145406071D02*
X37057857Y-146620357D01*
X37129285Y-146763214D01*
X37200714Y-146834642D01*
X37343571Y-146906071D01*
X37629285Y-146906071D01*
X37772142Y-146834642D01*
X37843571Y-146763214D01*
X37915000Y-146620357D01*
X37915000Y-145406071D01*
X39486428Y-146906071D02*
X38986428Y-146191785D01*
X38629285Y-146906071D02*
X38629285Y-145406071D01*
X39200714Y-145406071D01*
X39343571Y-145477500D01*
X39415000Y-145548928D01*
X39486428Y-145691785D01*
X39486428Y-145906071D01*
X39415000Y-146048928D01*
X39343571Y-146120357D01*
X39200714Y-146191785D01*
X38629285Y-146191785D01*
X43272142Y-146763214D02*
X43200714Y-146834642D01*
X42986428Y-146906071D01*
X42843571Y-146906071D01*
X42629285Y-146834642D01*
X42486428Y-146691785D01*
X42415000Y-146548928D01*
X42343571Y-146263214D01*
X42343571Y-146048928D01*
X42415000Y-145763214D01*
X42486428Y-145620357D01*
X42629285Y-145477500D01*
X42843571Y-145406071D01*
X42986428Y-145406071D01*
X43200714Y-145477500D01*
X43272142Y-145548928D01*
X43915000Y-145406071D02*
X43915000Y-146620357D01*
X43986428Y-146763214D01*
X44057857Y-146834642D01*
X44200714Y-146906071D01*
X44486428Y-146906071D01*
X44629285Y-146834642D01*
X44700714Y-146763214D01*
X44772142Y-146620357D01*
X44772142Y-145406071D01*
X46343571Y-146906071D02*
X45843571Y-146191785D01*
X45486428Y-146906071D02*
X45486428Y-145406071D01*
X46057857Y-145406071D01*
X46200714Y-145477500D01*
X46272142Y-145548928D01*
X46343571Y-145691785D01*
X46343571Y-145906071D01*
X46272142Y-146048928D01*
X46200714Y-146120357D01*
X46057857Y-146191785D01*
X45486428Y-146191785D01*
D12*
%TO.C,R9*%
X93586666Y-119381904D02*
X93320000Y-119000952D01*
X93129523Y-119381904D02*
X93129523Y-118581904D01*
X93434285Y-118581904D01*
X93510476Y-118620000D01*
X93548571Y-118658095D01*
X93586666Y-118734285D01*
X93586666Y-118848571D01*
X93548571Y-118924761D01*
X93510476Y-118962857D01*
X93434285Y-119000952D01*
X93129523Y-119000952D01*
X93967619Y-119381904D02*
X94120000Y-119381904D01*
X94196190Y-119343809D01*
X94234285Y-119305714D01*
X94310476Y-119191428D01*
X94348571Y-119039047D01*
X94348571Y-118734285D01*
X94310476Y-118658095D01*
X94272380Y-118620000D01*
X94196190Y-118581904D01*
X94043809Y-118581904D01*
X93967619Y-118620000D01*
X93929523Y-118658095D01*
X93891428Y-118734285D01*
X93891428Y-118924761D01*
X93929523Y-119000952D01*
X93967619Y-119039047D01*
X94043809Y-119077142D01*
X94196190Y-119077142D01*
X94272380Y-119039047D01*
X94310476Y-119000952D01*
X94348571Y-118924761D01*
%TO.C,L1*%
X97981666Y-92591904D02*
X97600714Y-92591904D01*
X97600714Y-91791904D01*
X98667380Y-92591904D02*
X98210238Y-92591904D01*
X98438809Y-92591904D02*
X98438809Y-91791904D01*
X98362619Y-91906190D01*
X98286428Y-91982380D01*
X98210238Y-92020476D01*
%TO.C,Q1*%
X34133809Y-78103095D02*
X34057619Y-78065000D01*
X33981428Y-77988809D01*
X33867142Y-77874523D01*
X33790952Y-77836428D01*
X33714761Y-77836428D01*
X33752857Y-78026904D02*
X33676666Y-77988809D01*
X33600476Y-77912619D01*
X33562380Y-77760238D01*
X33562380Y-77493571D01*
X33600476Y-77341190D01*
X33676666Y-77265000D01*
X33752857Y-77226904D01*
X33905238Y-77226904D01*
X33981428Y-77265000D01*
X34057619Y-77341190D01*
X34095714Y-77493571D01*
X34095714Y-77760238D01*
X34057619Y-77912619D01*
X33981428Y-77988809D01*
X33905238Y-78026904D01*
X33752857Y-78026904D01*
X34857619Y-78026904D02*
X34400476Y-78026904D01*
X34629047Y-78026904D02*
X34629047Y-77226904D01*
X34552857Y-77341190D01*
X34476666Y-77417380D01*
X34400476Y-77455476D01*
%TO.C,R21*%
X96440714Y-77251904D02*
X96174047Y-76870952D01*
X95983571Y-77251904D02*
X95983571Y-76451904D01*
X96288333Y-76451904D01*
X96364523Y-76490000D01*
X96402619Y-76528095D01*
X96440714Y-76604285D01*
X96440714Y-76718571D01*
X96402619Y-76794761D01*
X96364523Y-76832857D01*
X96288333Y-76870952D01*
X95983571Y-76870952D01*
X96745476Y-76528095D02*
X96783571Y-76490000D01*
X96859761Y-76451904D01*
X97050238Y-76451904D01*
X97126428Y-76490000D01*
X97164523Y-76528095D01*
X97202619Y-76604285D01*
X97202619Y-76680476D01*
X97164523Y-76794761D01*
X96707380Y-77251904D01*
X97202619Y-77251904D01*
X97964523Y-77251904D02*
X97507380Y-77251904D01*
X97735952Y-77251904D02*
X97735952Y-76451904D01*
X97659761Y-76566190D01*
X97583571Y-76642380D01*
X97507380Y-76680476D01*
%TO.C,R20*%
X103500714Y-79161904D02*
X103234047Y-78780952D01*
X103043571Y-79161904D02*
X103043571Y-78361904D01*
X103348333Y-78361904D01*
X103424523Y-78400000D01*
X103462619Y-78438095D01*
X103500714Y-78514285D01*
X103500714Y-78628571D01*
X103462619Y-78704761D01*
X103424523Y-78742857D01*
X103348333Y-78780952D01*
X103043571Y-78780952D01*
X103805476Y-78438095D02*
X103843571Y-78400000D01*
X103919761Y-78361904D01*
X104110238Y-78361904D01*
X104186428Y-78400000D01*
X104224523Y-78438095D01*
X104262619Y-78514285D01*
X104262619Y-78590476D01*
X104224523Y-78704761D01*
X103767380Y-79161904D01*
X104262619Y-79161904D01*
X104757857Y-78361904D02*
X104834047Y-78361904D01*
X104910238Y-78400000D01*
X104948333Y-78438095D01*
X104986428Y-78514285D01*
X105024523Y-78666666D01*
X105024523Y-78857142D01*
X104986428Y-79009523D01*
X104948333Y-79085714D01*
X104910238Y-79123809D01*
X104834047Y-79161904D01*
X104757857Y-79161904D01*
X104681666Y-79123809D01*
X104643571Y-79085714D01*
X104605476Y-79009523D01*
X104567380Y-78857142D01*
X104567380Y-78666666D01*
X104605476Y-78514285D01*
X104643571Y-78438095D01*
X104681666Y-78400000D01*
X104757857Y-78361904D01*
%TO.C,L2*%
X101466666Y-89636904D02*
X101085714Y-89636904D01*
X101085714Y-88836904D01*
X101695238Y-88913095D02*
X101733333Y-88875000D01*
X101809523Y-88836904D01*
X102000000Y-88836904D01*
X102076190Y-88875000D01*
X102114285Y-88913095D01*
X102152380Y-88989285D01*
X102152380Y-89065476D01*
X102114285Y-89179761D01*
X101657142Y-89636904D01*
X102152380Y-89636904D01*
%TO.C,L3*%
X101476666Y-84946904D02*
X101095714Y-84946904D01*
X101095714Y-84146904D01*
X101667142Y-84146904D02*
X102162380Y-84146904D01*
X101895714Y-84451666D01*
X102010000Y-84451666D01*
X102086190Y-84489761D01*
X102124285Y-84527857D01*
X102162380Y-84604047D01*
X102162380Y-84794523D01*
X102124285Y-84870714D01*
X102086190Y-84908809D01*
X102010000Y-84946904D01*
X101781428Y-84946904D01*
X101705238Y-84908809D01*
X101667142Y-84870714D01*
%TO.C,R19*%
X105975714Y-74831904D02*
X105709047Y-74450952D01*
X105518571Y-74831904D02*
X105518571Y-74031904D01*
X105823333Y-74031904D01*
X105899523Y-74070000D01*
X105937619Y-74108095D01*
X105975714Y-74184285D01*
X105975714Y-74298571D01*
X105937619Y-74374761D01*
X105899523Y-74412857D01*
X105823333Y-74450952D01*
X105518571Y-74450952D01*
X106737619Y-74831904D02*
X106280476Y-74831904D01*
X106509047Y-74831904D02*
X106509047Y-74031904D01*
X106432857Y-74146190D01*
X106356666Y-74222380D01*
X106280476Y-74260476D01*
X107118571Y-74831904D02*
X107270952Y-74831904D01*
X107347142Y-74793809D01*
X107385238Y-74755714D01*
X107461428Y-74641428D01*
X107499523Y-74489047D01*
X107499523Y-74184285D01*
X107461428Y-74108095D01*
X107423333Y-74070000D01*
X107347142Y-74031904D01*
X107194761Y-74031904D01*
X107118571Y-74070000D01*
X107080476Y-74108095D01*
X107042380Y-74184285D01*
X107042380Y-74374761D01*
X107080476Y-74450952D01*
X107118571Y-74489047D01*
X107194761Y-74527142D01*
X107347142Y-74527142D01*
X107423333Y-74489047D01*
X107461428Y-74450952D01*
X107499523Y-74374761D01*
%TO.C,LED1*%
X122871904Y-147750238D02*
X122871904Y-148131190D01*
X122071904Y-148131190D01*
X122452857Y-147483571D02*
X122452857Y-147216904D01*
X122871904Y-147102619D02*
X122871904Y-147483571D01*
X122071904Y-147483571D01*
X122071904Y-147102619D01*
X122871904Y-146759761D02*
X122071904Y-146759761D01*
X122071904Y-146569285D01*
X122110000Y-146455000D01*
X122186190Y-146378809D01*
X122262380Y-146340714D01*
X122414761Y-146302619D01*
X122529047Y-146302619D01*
X122681428Y-146340714D01*
X122757619Y-146378809D01*
X122833809Y-146455000D01*
X122871904Y-146569285D01*
X122871904Y-146759761D01*
X122871904Y-145540714D02*
X122871904Y-145997857D01*
X122871904Y-145769285D02*
X122071904Y-145769285D01*
X122186190Y-145845476D01*
X122262380Y-145921666D01*
X122300476Y-145997857D01*
%TO.C,J1*%
X95793333Y-133701904D02*
X95793333Y-134273333D01*
X95755238Y-134387619D01*
X95679047Y-134463809D01*
X95564761Y-134501904D01*
X95488571Y-134501904D01*
X96593333Y-134501904D02*
X96136190Y-134501904D01*
X96364761Y-134501904D02*
X96364761Y-133701904D01*
X96288571Y-133816190D01*
X96212380Y-133892380D01*
X96136190Y-133930476D01*
%TO.C,U1*%
X124485476Y-139686904D02*
X124485476Y-140334523D01*
X124523571Y-140410714D01*
X124561666Y-140448809D01*
X124637857Y-140486904D01*
X124790238Y-140486904D01*
X124866428Y-140448809D01*
X124904523Y-140410714D01*
X124942619Y-140334523D01*
X124942619Y-139686904D01*
X125742619Y-140486904D02*
X125285476Y-140486904D01*
X125514047Y-140486904D02*
X125514047Y-139686904D01*
X125437857Y-139801190D01*
X125361666Y-139877380D01*
X125285476Y-139915476D01*
%TO.C,C11*%
X121165714Y-80395714D02*
X121127619Y-80433809D01*
X121013333Y-80471904D01*
X120937142Y-80471904D01*
X120822857Y-80433809D01*
X120746666Y-80357619D01*
X120708571Y-80281428D01*
X120670476Y-80129047D01*
X120670476Y-80014761D01*
X120708571Y-79862380D01*
X120746666Y-79786190D01*
X120822857Y-79710000D01*
X120937142Y-79671904D01*
X121013333Y-79671904D01*
X121127619Y-79710000D01*
X121165714Y-79748095D01*
X121927619Y-80471904D02*
X121470476Y-80471904D01*
X121699047Y-80471904D02*
X121699047Y-79671904D01*
X121622857Y-79786190D01*
X121546666Y-79862380D01*
X121470476Y-79900476D01*
X122689523Y-80471904D02*
X122232380Y-80471904D01*
X122460952Y-80471904D02*
X122460952Y-79671904D01*
X122384761Y-79786190D01*
X122308571Y-79862380D01*
X122232380Y-79900476D01*
%TO.C,C8*%
X124546666Y-84970714D02*
X124508571Y-85008809D01*
X124394285Y-85046904D01*
X124318095Y-85046904D01*
X124203809Y-85008809D01*
X124127619Y-84932619D01*
X124089523Y-84856428D01*
X124051428Y-84704047D01*
X124051428Y-84589761D01*
X124089523Y-84437380D01*
X124127619Y-84361190D01*
X124203809Y-84285000D01*
X124318095Y-84246904D01*
X124394285Y-84246904D01*
X124508571Y-84285000D01*
X124546666Y-84323095D01*
X125003809Y-84589761D02*
X124927619Y-84551666D01*
X124889523Y-84513571D01*
X124851428Y-84437380D01*
X124851428Y-84399285D01*
X124889523Y-84323095D01*
X124927619Y-84285000D01*
X125003809Y-84246904D01*
X125156190Y-84246904D01*
X125232380Y-84285000D01*
X125270476Y-84323095D01*
X125308571Y-84399285D01*
X125308571Y-84437380D01*
X125270476Y-84513571D01*
X125232380Y-84551666D01*
X125156190Y-84589761D01*
X125003809Y-84589761D01*
X124927619Y-84627857D01*
X124889523Y-84665952D01*
X124851428Y-84742142D01*
X124851428Y-84894523D01*
X124889523Y-84970714D01*
X124927619Y-85008809D01*
X125003809Y-85046904D01*
X125156190Y-85046904D01*
X125232380Y-85008809D01*
X125270476Y-84970714D01*
X125308571Y-84894523D01*
X125308571Y-84742142D01*
X125270476Y-84665952D01*
X125232380Y-84627857D01*
X125156190Y-84589761D01*
%TO.C,J4*%
X82003333Y-73101904D02*
X82003333Y-73673333D01*
X81965238Y-73787619D01*
X81889047Y-73863809D01*
X81774761Y-73901904D01*
X81698571Y-73901904D01*
X82727142Y-73368571D02*
X82727142Y-73901904D01*
X82536666Y-73063809D02*
X82346190Y-73635238D01*
X82841428Y-73635238D01*
%TO.C,R16*%
X65330714Y-77791904D02*
X65064047Y-77410952D01*
X64873571Y-77791904D02*
X64873571Y-76991904D01*
X65178333Y-76991904D01*
X65254523Y-77030000D01*
X65292619Y-77068095D01*
X65330714Y-77144285D01*
X65330714Y-77258571D01*
X65292619Y-77334761D01*
X65254523Y-77372857D01*
X65178333Y-77410952D01*
X64873571Y-77410952D01*
X66092619Y-77791904D02*
X65635476Y-77791904D01*
X65864047Y-77791904D02*
X65864047Y-76991904D01*
X65787857Y-77106190D01*
X65711666Y-77182380D01*
X65635476Y-77220476D01*
X66778333Y-76991904D02*
X66625952Y-76991904D01*
X66549761Y-77030000D01*
X66511666Y-77068095D01*
X66435476Y-77182380D01*
X66397380Y-77334761D01*
X66397380Y-77639523D01*
X66435476Y-77715714D01*
X66473571Y-77753809D01*
X66549761Y-77791904D01*
X66702142Y-77791904D01*
X66778333Y-77753809D01*
X66816428Y-77715714D01*
X66854523Y-77639523D01*
X66854523Y-77449047D01*
X66816428Y-77372857D01*
X66778333Y-77334761D01*
X66702142Y-77296666D01*
X66549761Y-77296666D01*
X66473571Y-77334761D01*
X66435476Y-77372857D01*
X66397380Y-77449047D01*
%TO.C,JP1*%
X96278333Y-72196904D02*
X96278333Y-72768333D01*
X96240238Y-72882619D01*
X96164047Y-72958809D01*
X96049761Y-72996904D01*
X95973571Y-72996904D01*
X96659285Y-72996904D02*
X96659285Y-72196904D01*
X96964047Y-72196904D01*
X97040238Y-72235000D01*
X97078333Y-72273095D01*
X97116428Y-72349285D01*
X97116428Y-72463571D01*
X97078333Y-72539761D01*
X97040238Y-72577857D01*
X96964047Y-72615952D01*
X96659285Y-72615952D01*
X97878333Y-72996904D02*
X97421190Y-72996904D01*
X97649761Y-72996904D02*
X97649761Y-72196904D01*
X97573571Y-72311190D01*
X97497380Y-72387380D01*
X97421190Y-72425476D01*
%TO.C,C15*%
X105965714Y-80530714D02*
X105927619Y-80568809D01*
X105813333Y-80606904D01*
X105737142Y-80606904D01*
X105622857Y-80568809D01*
X105546666Y-80492619D01*
X105508571Y-80416428D01*
X105470476Y-80264047D01*
X105470476Y-80149761D01*
X105508571Y-79997380D01*
X105546666Y-79921190D01*
X105622857Y-79845000D01*
X105737142Y-79806904D01*
X105813333Y-79806904D01*
X105927619Y-79845000D01*
X105965714Y-79883095D01*
X106727619Y-80606904D02*
X106270476Y-80606904D01*
X106499047Y-80606904D02*
X106499047Y-79806904D01*
X106422857Y-79921190D01*
X106346666Y-79997380D01*
X106270476Y-80035476D01*
X107451428Y-79806904D02*
X107070476Y-79806904D01*
X107032380Y-80187857D01*
X107070476Y-80149761D01*
X107146666Y-80111666D01*
X107337142Y-80111666D01*
X107413333Y-80149761D01*
X107451428Y-80187857D01*
X107489523Y-80264047D01*
X107489523Y-80454523D01*
X107451428Y-80530714D01*
X107413333Y-80568809D01*
X107337142Y-80606904D01*
X107146666Y-80606904D01*
X107070476Y-80568809D01*
X107032380Y-80530714D01*
%TO.C,Q2*%
X32298809Y-87248095D02*
X32222619Y-87210000D01*
X32146428Y-87133809D01*
X32032142Y-87019523D01*
X31955952Y-86981428D01*
X31879761Y-86981428D01*
X31917857Y-87171904D02*
X31841666Y-87133809D01*
X31765476Y-87057619D01*
X31727380Y-86905238D01*
X31727380Y-86638571D01*
X31765476Y-86486190D01*
X31841666Y-86410000D01*
X31917857Y-86371904D01*
X32070238Y-86371904D01*
X32146428Y-86410000D01*
X32222619Y-86486190D01*
X32260714Y-86638571D01*
X32260714Y-86905238D01*
X32222619Y-87057619D01*
X32146428Y-87133809D01*
X32070238Y-87171904D01*
X31917857Y-87171904D01*
X32565476Y-86448095D02*
X32603571Y-86410000D01*
X32679761Y-86371904D01*
X32870238Y-86371904D01*
X32946428Y-86410000D01*
X32984523Y-86448095D01*
X33022619Y-86524285D01*
X33022619Y-86600476D01*
X32984523Y-86714761D01*
X32527380Y-87171904D01*
X33022619Y-87171904D01*
%TO.C,C9*%
X121576666Y-84945714D02*
X121538571Y-84983809D01*
X121424285Y-85021904D01*
X121348095Y-85021904D01*
X121233809Y-84983809D01*
X121157619Y-84907619D01*
X121119523Y-84831428D01*
X121081428Y-84679047D01*
X121081428Y-84564761D01*
X121119523Y-84412380D01*
X121157619Y-84336190D01*
X121233809Y-84260000D01*
X121348095Y-84221904D01*
X121424285Y-84221904D01*
X121538571Y-84260000D01*
X121576666Y-84298095D01*
X121957619Y-85021904D02*
X122110000Y-85021904D01*
X122186190Y-84983809D01*
X122224285Y-84945714D01*
X122300476Y-84831428D01*
X122338571Y-84679047D01*
X122338571Y-84374285D01*
X122300476Y-84298095D01*
X122262380Y-84260000D01*
X122186190Y-84221904D01*
X122033809Y-84221904D01*
X121957619Y-84260000D01*
X121919523Y-84298095D01*
X121881428Y-84374285D01*
X121881428Y-84564761D01*
X121919523Y-84640952D01*
X121957619Y-84679047D01*
X122033809Y-84717142D01*
X122186190Y-84717142D01*
X122262380Y-84679047D01*
X122300476Y-84640952D01*
X122338571Y-84564761D01*
%TO.C,R6*%
X89361666Y-94641904D02*
X89095000Y-94260952D01*
X88904523Y-94641904D02*
X88904523Y-93841904D01*
X89209285Y-93841904D01*
X89285476Y-93880000D01*
X89323571Y-93918095D01*
X89361666Y-93994285D01*
X89361666Y-94108571D01*
X89323571Y-94184761D01*
X89285476Y-94222857D01*
X89209285Y-94260952D01*
X88904523Y-94260952D01*
X90047380Y-93841904D02*
X89895000Y-93841904D01*
X89818809Y-93880000D01*
X89780714Y-93918095D01*
X89704523Y-94032380D01*
X89666428Y-94184761D01*
X89666428Y-94489523D01*
X89704523Y-94565714D01*
X89742619Y-94603809D01*
X89818809Y-94641904D01*
X89971190Y-94641904D01*
X90047380Y-94603809D01*
X90085476Y-94565714D01*
X90123571Y-94489523D01*
X90123571Y-94299047D01*
X90085476Y-94222857D01*
X90047380Y-94184761D01*
X89971190Y-94146666D01*
X89818809Y-94146666D01*
X89742619Y-94184761D01*
X89704523Y-94222857D01*
X89666428Y-94299047D01*
%TO.C,D1*%
X56334523Y-105101904D02*
X56334523Y-104301904D01*
X56525000Y-104301904D01*
X56639285Y-104340000D01*
X56715476Y-104416190D01*
X56753571Y-104492380D01*
X56791666Y-104644761D01*
X56791666Y-104759047D01*
X56753571Y-104911428D01*
X56715476Y-104987619D01*
X56639285Y-105063809D01*
X56525000Y-105101904D01*
X56334523Y-105101904D01*
X57553571Y-105101904D02*
X57096428Y-105101904D01*
X57325000Y-105101904D02*
X57325000Y-104301904D01*
X57248809Y-104416190D01*
X57172619Y-104492380D01*
X57096428Y-104530476D01*
%TO.C,C13*%
X98450714Y-84950714D02*
X98412619Y-84988809D01*
X98298333Y-85026904D01*
X98222142Y-85026904D01*
X98107857Y-84988809D01*
X98031666Y-84912619D01*
X97993571Y-84836428D01*
X97955476Y-84684047D01*
X97955476Y-84569761D01*
X97993571Y-84417380D01*
X98031666Y-84341190D01*
X98107857Y-84265000D01*
X98222142Y-84226904D01*
X98298333Y-84226904D01*
X98412619Y-84265000D01*
X98450714Y-84303095D01*
X99212619Y-85026904D02*
X98755476Y-85026904D01*
X98984047Y-85026904D02*
X98984047Y-84226904D01*
X98907857Y-84341190D01*
X98831666Y-84417380D01*
X98755476Y-84455476D01*
X99479285Y-84226904D02*
X99974523Y-84226904D01*
X99707857Y-84531666D01*
X99822142Y-84531666D01*
X99898333Y-84569761D01*
X99936428Y-84607857D01*
X99974523Y-84684047D01*
X99974523Y-84874523D01*
X99936428Y-84950714D01*
X99898333Y-84988809D01*
X99822142Y-85026904D01*
X99593571Y-85026904D01*
X99517380Y-84988809D01*
X99479285Y-84950714D01*
%TO.C,R13*%
X74435714Y-113841904D02*
X74169047Y-113460952D01*
X73978571Y-113841904D02*
X73978571Y-113041904D01*
X74283333Y-113041904D01*
X74359523Y-113080000D01*
X74397619Y-113118095D01*
X74435714Y-113194285D01*
X74435714Y-113308571D01*
X74397619Y-113384761D01*
X74359523Y-113422857D01*
X74283333Y-113460952D01*
X73978571Y-113460952D01*
X75197619Y-113841904D02*
X74740476Y-113841904D01*
X74969047Y-113841904D02*
X74969047Y-113041904D01*
X74892857Y-113156190D01*
X74816666Y-113232380D01*
X74740476Y-113270476D01*
X75464285Y-113041904D02*
X75959523Y-113041904D01*
X75692857Y-113346666D01*
X75807142Y-113346666D01*
X75883333Y-113384761D01*
X75921428Y-113422857D01*
X75959523Y-113499047D01*
X75959523Y-113689523D01*
X75921428Y-113765714D01*
X75883333Y-113803809D01*
X75807142Y-113841904D01*
X75578571Y-113841904D01*
X75502380Y-113803809D01*
X75464285Y-113765714D01*
%TO.C,C4*%
X91201666Y-94480714D02*
X91163571Y-94518809D01*
X91049285Y-94556904D01*
X90973095Y-94556904D01*
X90858809Y-94518809D01*
X90782619Y-94442619D01*
X90744523Y-94366428D01*
X90706428Y-94214047D01*
X90706428Y-94099761D01*
X90744523Y-93947380D01*
X90782619Y-93871190D01*
X90858809Y-93795000D01*
X90973095Y-93756904D01*
X91049285Y-93756904D01*
X91163571Y-93795000D01*
X91201666Y-93833095D01*
X91887380Y-94023571D02*
X91887380Y-94556904D01*
X91696904Y-93718809D02*
X91506428Y-94290238D01*
X92001666Y-94290238D01*
%TO.C,R18*%
X62405714Y-77846904D02*
X62139047Y-77465952D01*
X61948571Y-77846904D02*
X61948571Y-77046904D01*
X62253333Y-77046904D01*
X62329523Y-77085000D01*
X62367619Y-77123095D01*
X62405714Y-77199285D01*
X62405714Y-77313571D01*
X62367619Y-77389761D01*
X62329523Y-77427857D01*
X62253333Y-77465952D01*
X61948571Y-77465952D01*
X63167619Y-77846904D02*
X62710476Y-77846904D01*
X62939047Y-77846904D02*
X62939047Y-77046904D01*
X62862857Y-77161190D01*
X62786666Y-77237380D01*
X62710476Y-77275476D01*
X63624761Y-77389761D02*
X63548571Y-77351666D01*
X63510476Y-77313571D01*
X63472380Y-77237380D01*
X63472380Y-77199285D01*
X63510476Y-77123095D01*
X63548571Y-77085000D01*
X63624761Y-77046904D01*
X63777142Y-77046904D01*
X63853333Y-77085000D01*
X63891428Y-77123095D01*
X63929523Y-77199285D01*
X63929523Y-77237380D01*
X63891428Y-77313571D01*
X63853333Y-77351666D01*
X63777142Y-77389761D01*
X63624761Y-77389761D01*
X63548571Y-77427857D01*
X63510476Y-77465952D01*
X63472380Y-77542142D01*
X63472380Y-77694523D01*
X63510476Y-77770714D01*
X63548571Y-77808809D01*
X63624761Y-77846904D01*
X63777142Y-77846904D01*
X63853333Y-77808809D01*
X63891428Y-77770714D01*
X63929523Y-77694523D01*
X63929523Y-77542142D01*
X63891428Y-77465952D01*
X63853333Y-77427857D01*
X63777142Y-77389761D01*
%TO.C,U7*%
X96535476Y-80461904D02*
X96535476Y-81109523D01*
X96573571Y-81185714D01*
X96611666Y-81223809D01*
X96687857Y-81261904D01*
X96840238Y-81261904D01*
X96916428Y-81223809D01*
X96954523Y-81185714D01*
X96992619Y-81109523D01*
X96992619Y-80461904D01*
X97297380Y-80461904D02*
X97830714Y-80461904D01*
X97487857Y-81261904D01*
D13*
%TO.C,J2*%
X40496666Y-125695749D02*
X40496666Y-126602892D01*
X40436190Y-126784321D01*
X40315238Y-126905273D01*
X40133809Y-126965749D01*
X40012857Y-126965749D01*
X41040952Y-125816702D02*
X41101428Y-125756226D01*
X41222380Y-125695749D01*
X41524761Y-125695749D01*
X41645714Y-125756226D01*
X41706190Y-125816702D01*
X41766666Y-125937654D01*
X41766666Y-126058606D01*
X41706190Y-126240035D01*
X40980476Y-126965749D01*
X41766666Y-126965749D01*
D12*
%TO.C,R2*%
X118911666Y-142846904D02*
X118645000Y-142465952D01*
X118454523Y-142846904D02*
X118454523Y-142046904D01*
X118759285Y-142046904D01*
X118835476Y-142085000D01*
X118873571Y-142123095D01*
X118911666Y-142199285D01*
X118911666Y-142313571D01*
X118873571Y-142389761D01*
X118835476Y-142427857D01*
X118759285Y-142465952D01*
X118454523Y-142465952D01*
X119216428Y-142123095D02*
X119254523Y-142085000D01*
X119330714Y-142046904D01*
X119521190Y-142046904D01*
X119597380Y-142085000D01*
X119635476Y-142123095D01*
X119673571Y-142199285D01*
X119673571Y-142275476D01*
X119635476Y-142389761D01*
X119178333Y-142846904D01*
X119673571Y-142846904D01*
%TO.C,R5*%
X115506666Y-142836904D02*
X115240000Y-142455952D01*
X115049523Y-142836904D02*
X115049523Y-142036904D01*
X115354285Y-142036904D01*
X115430476Y-142075000D01*
X115468571Y-142113095D01*
X115506666Y-142189285D01*
X115506666Y-142303571D01*
X115468571Y-142379761D01*
X115430476Y-142417857D01*
X115354285Y-142455952D01*
X115049523Y-142455952D01*
X116230476Y-142036904D02*
X115849523Y-142036904D01*
X115811428Y-142417857D01*
X115849523Y-142379761D01*
X115925714Y-142341666D01*
X116116190Y-142341666D01*
X116192380Y-142379761D01*
X116230476Y-142417857D01*
X116268571Y-142494047D01*
X116268571Y-142684523D01*
X116230476Y-142760714D01*
X116192380Y-142798809D01*
X116116190Y-142836904D01*
X115925714Y-142836904D01*
X115849523Y-142798809D01*
X115811428Y-142760714D01*
%TO.C,J3*%
X90668333Y-73131904D02*
X90668333Y-73703333D01*
X90630238Y-73817619D01*
X90554047Y-73893809D01*
X90439761Y-73931904D01*
X90363571Y-73931904D01*
X90973095Y-73131904D02*
X91468333Y-73131904D01*
X91201666Y-73436666D01*
X91315952Y-73436666D01*
X91392142Y-73474761D01*
X91430238Y-73512857D01*
X91468333Y-73589047D01*
X91468333Y-73779523D01*
X91430238Y-73855714D01*
X91392142Y-73893809D01*
X91315952Y-73931904D01*
X91087380Y-73931904D01*
X91011190Y-73893809D01*
X90973095Y-73855714D01*
%TO.C,HS1*%
X25539523Y-73611904D02*
X25539523Y-72811904D01*
X25539523Y-73192857D02*
X25996666Y-73192857D01*
X25996666Y-73611904D02*
X25996666Y-72811904D01*
X26339523Y-73573809D02*
X26453809Y-73611904D01*
X26644285Y-73611904D01*
X26720476Y-73573809D01*
X26758571Y-73535714D01*
X26796666Y-73459523D01*
X26796666Y-73383333D01*
X26758571Y-73307142D01*
X26720476Y-73269047D01*
X26644285Y-73230952D01*
X26491904Y-73192857D01*
X26415714Y-73154761D01*
X26377619Y-73116666D01*
X26339523Y-73040476D01*
X26339523Y-72964285D01*
X26377619Y-72888095D01*
X26415714Y-72850000D01*
X26491904Y-72811904D01*
X26682380Y-72811904D01*
X26796666Y-72850000D01*
X27558571Y-73611904D02*
X27101428Y-73611904D01*
X27330000Y-73611904D02*
X27330000Y-72811904D01*
X27253809Y-72926190D01*
X27177619Y-73002380D01*
X27101428Y-73040476D01*
%TO.C,C12*%
X105970714Y-84950714D02*
X105932619Y-84988809D01*
X105818333Y-85026904D01*
X105742142Y-85026904D01*
X105627857Y-84988809D01*
X105551666Y-84912619D01*
X105513571Y-84836428D01*
X105475476Y-84684047D01*
X105475476Y-84569761D01*
X105513571Y-84417380D01*
X105551666Y-84341190D01*
X105627857Y-84265000D01*
X105742142Y-84226904D01*
X105818333Y-84226904D01*
X105932619Y-84265000D01*
X105970714Y-84303095D01*
X106732619Y-85026904D02*
X106275476Y-85026904D01*
X106504047Y-85026904D02*
X106504047Y-84226904D01*
X106427857Y-84341190D01*
X106351666Y-84417380D01*
X106275476Y-84455476D01*
X107037380Y-84303095D02*
X107075476Y-84265000D01*
X107151666Y-84226904D01*
X107342142Y-84226904D01*
X107418333Y-84265000D01*
X107456428Y-84303095D01*
X107494523Y-84379285D01*
X107494523Y-84455476D01*
X107456428Y-84569761D01*
X106999285Y-85026904D01*
X107494523Y-85026904D01*
%TO.C,C14*%
X102985714Y-80545714D02*
X102947619Y-80583809D01*
X102833333Y-80621904D01*
X102757142Y-80621904D01*
X102642857Y-80583809D01*
X102566666Y-80507619D01*
X102528571Y-80431428D01*
X102490476Y-80279047D01*
X102490476Y-80164761D01*
X102528571Y-80012380D01*
X102566666Y-79936190D01*
X102642857Y-79860000D01*
X102757142Y-79821904D01*
X102833333Y-79821904D01*
X102947619Y-79860000D01*
X102985714Y-79898095D01*
X103747619Y-80621904D02*
X103290476Y-80621904D01*
X103519047Y-80621904D02*
X103519047Y-79821904D01*
X103442857Y-79936190D01*
X103366666Y-80012380D01*
X103290476Y-80050476D01*
X104433333Y-80088571D02*
X104433333Y-80621904D01*
X104242857Y-79783809D02*
X104052380Y-80355238D01*
X104547619Y-80355238D01*
%TO.C,U6*%
X110385476Y-73336904D02*
X110385476Y-73984523D01*
X110423571Y-74060714D01*
X110461666Y-74098809D01*
X110537857Y-74136904D01*
X110690238Y-74136904D01*
X110766428Y-74098809D01*
X110804523Y-74060714D01*
X110842619Y-73984523D01*
X110842619Y-73336904D01*
X111566428Y-73336904D02*
X111414047Y-73336904D01*
X111337857Y-73375000D01*
X111299761Y-73413095D01*
X111223571Y-73527380D01*
X111185476Y-73679761D01*
X111185476Y-73984523D01*
X111223571Y-74060714D01*
X111261666Y-74098809D01*
X111337857Y-74136904D01*
X111490238Y-74136904D01*
X111566428Y-74098809D01*
X111604523Y-74060714D01*
X111642619Y-73984523D01*
X111642619Y-73794047D01*
X111604523Y-73717857D01*
X111566428Y-73679761D01*
X111490238Y-73641666D01*
X111337857Y-73641666D01*
X111261666Y-73679761D01*
X111223571Y-73717857D01*
X111185476Y-73794047D01*
%TO.C,LED3*%
X109191904Y-147727738D02*
X109191904Y-148108690D01*
X108391904Y-148108690D01*
X108772857Y-147461071D02*
X108772857Y-147194404D01*
X109191904Y-147080119D02*
X109191904Y-147461071D01*
X108391904Y-147461071D01*
X108391904Y-147080119D01*
X109191904Y-146737261D02*
X108391904Y-146737261D01*
X108391904Y-146546785D01*
X108430000Y-146432500D01*
X108506190Y-146356309D01*
X108582380Y-146318214D01*
X108734761Y-146280119D01*
X108849047Y-146280119D01*
X109001428Y-146318214D01*
X109077619Y-146356309D01*
X109153809Y-146432500D01*
X109191904Y-146546785D01*
X109191904Y-146737261D01*
X108391904Y-146013452D02*
X108391904Y-145518214D01*
X108696666Y-145784880D01*
X108696666Y-145670595D01*
X108734761Y-145594404D01*
X108772857Y-145556309D01*
X108849047Y-145518214D01*
X109039523Y-145518214D01*
X109115714Y-145556309D01*
X109153809Y-145594404D01*
X109191904Y-145670595D01*
X109191904Y-145899166D01*
X109153809Y-145975357D01*
X109115714Y-146013452D01*
%TO.C,U4*%
X78070476Y-117391904D02*
X78070476Y-118039523D01*
X78108571Y-118115714D01*
X78146666Y-118153809D01*
X78222857Y-118191904D01*
X78375238Y-118191904D01*
X78451428Y-118153809D01*
X78489523Y-118115714D01*
X78527619Y-118039523D01*
X78527619Y-117391904D01*
X79251428Y-117658571D02*
X79251428Y-118191904D01*
X79060952Y-117353809D02*
X78870476Y-117925238D01*
X79365714Y-117925238D01*
%TO.C,R8*%
X90681666Y-119321904D02*
X90415000Y-118940952D01*
X90224523Y-119321904D02*
X90224523Y-118521904D01*
X90529285Y-118521904D01*
X90605476Y-118560000D01*
X90643571Y-118598095D01*
X90681666Y-118674285D01*
X90681666Y-118788571D01*
X90643571Y-118864761D01*
X90605476Y-118902857D01*
X90529285Y-118940952D01*
X90224523Y-118940952D01*
X91138809Y-118864761D02*
X91062619Y-118826666D01*
X91024523Y-118788571D01*
X90986428Y-118712380D01*
X90986428Y-118674285D01*
X91024523Y-118598095D01*
X91062619Y-118560000D01*
X91138809Y-118521904D01*
X91291190Y-118521904D01*
X91367380Y-118560000D01*
X91405476Y-118598095D01*
X91443571Y-118674285D01*
X91443571Y-118712380D01*
X91405476Y-118788571D01*
X91367380Y-118826666D01*
X91291190Y-118864761D01*
X91138809Y-118864761D01*
X91062619Y-118902857D01*
X91024523Y-118940952D01*
X90986428Y-119017142D01*
X90986428Y-119169523D01*
X91024523Y-119245714D01*
X91062619Y-119283809D01*
X91138809Y-119321904D01*
X91291190Y-119321904D01*
X91367380Y-119283809D01*
X91405476Y-119245714D01*
X91443571Y-119169523D01*
X91443571Y-119017142D01*
X91405476Y-118940952D01*
X91367380Y-118902857D01*
X91291190Y-118864761D01*
%TO.C,C3*%
X94191666Y-94460714D02*
X94153571Y-94498809D01*
X94039285Y-94536904D01*
X93963095Y-94536904D01*
X93848809Y-94498809D01*
X93772619Y-94422619D01*
X93734523Y-94346428D01*
X93696428Y-94194047D01*
X93696428Y-94079761D01*
X93734523Y-93927380D01*
X93772619Y-93851190D01*
X93848809Y-93775000D01*
X93963095Y-93736904D01*
X94039285Y-93736904D01*
X94153571Y-93775000D01*
X94191666Y-93813095D01*
X94458333Y-93736904D02*
X94953571Y-93736904D01*
X94686904Y-94041666D01*
X94801190Y-94041666D01*
X94877380Y-94079761D01*
X94915476Y-94117857D01*
X94953571Y-94194047D01*
X94953571Y-94384523D01*
X94915476Y-94460714D01*
X94877380Y-94498809D01*
X94801190Y-94536904D01*
X94572619Y-94536904D01*
X94496428Y-94498809D01*
X94458333Y-94460714D01*
%TO.C,LED2*%
X119416904Y-147750238D02*
X119416904Y-148131190D01*
X118616904Y-148131190D01*
X118997857Y-147483571D02*
X118997857Y-147216904D01*
X119416904Y-147102619D02*
X119416904Y-147483571D01*
X118616904Y-147483571D01*
X118616904Y-147102619D01*
X119416904Y-146759761D02*
X118616904Y-146759761D01*
X118616904Y-146569285D01*
X118655000Y-146455000D01*
X118731190Y-146378809D01*
X118807380Y-146340714D01*
X118959761Y-146302619D01*
X119074047Y-146302619D01*
X119226428Y-146340714D01*
X119302619Y-146378809D01*
X119378809Y-146455000D01*
X119416904Y-146569285D01*
X119416904Y-146759761D01*
X118693095Y-145997857D02*
X118655000Y-145959761D01*
X118616904Y-145883571D01*
X118616904Y-145693095D01*
X118655000Y-145616904D01*
X118693095Y-145578809D01*
X118769285Y-145540714D01*
X118845476Y-145540714D01*
X118959761Y-145578809D01*
X119416904Y-146035952D01*
X119416904Y-145540714D01*
%TO.C,D2*%
X68264523Y-116991904D02*
X68264523Y-116191904D01*
X68455000Y-116191904D01*
X68569285Y-116230000D01*
X68645476Y-116306190D01*
X68683571Y-116382380D01*
X68721666Y-116534761D01*
X68721666Y-116649047D01*
X68683571Y-116801428D01*
X68645476Y-116877619D01*
X68569285Y-116953809D01*
X68455000Y-116991904D01*
X68264523Y-116991904D01*
X69026428Y-116268095D02*
X69064523Y-116230000D01*
X69140714Y-116191904D01*
X69331190Y-116191904D01*
X69407380Y-116230000D01*
X69445476Y-116268095D01*
X69483571Y-116344285D01*
X69483571Y-116420476D01*
X69445476Y-116534761D01*
X68988333Y-116991904D01*
X69483571Y-116991904D01*
%TO.C,C10*%
X124215714Y-80420714D02*
X124177619Y-80458809D01*
X124063333Y-80496904D01*
X123987142Y-80496904D01*
X123872857Y-80458809D01*
X123796666Y-80382619D01*
X123758571Y-80306428D01*
X123720476Y-80154047D01*
X123720476Y-80039761D01*
X123758571Y-79887380D01*
X123796666Y-79811190D01*
X123872857Y-79735000D01*
X123987142Y-79696904D01*
X124063333Y-79696904D01*
X124177619Y-79735000D01*
X124215714Y-79773095D01*
X124977619Y-80496904D02*
X124520476Y-80496904D01*
X124749047Y-80496904D02*
X124749047Y-79696904D01*
X124672857Y-79811190D01*
X124596666Y-79887380D01*
X124520476Y-79925476D01*
X125472857Y-79696904D02*
X125549047Y-79696904D01*
X125625238Y-79735000D01*
X125663333Y-79773095D01*
X125701428Y-79849285D01*
X125739523Y-80001666D01*
X125739523Y-80192142D01*
X125701428Y-80344523D01*
X125663333Y-80420714D01*
X125625238Y-80458809D01*
X125549047Y-80496904D01*
X125472857Y-80496904D01*
X125396666Y-80458809D01*
X125358571Y-80420714D01*
X125320476Y-80344523D01*
X125282380Y-80192142D01*
X125282380Y-80001666D01*
X125320476Y-79849285D01*
X125358571Y-79773095D01*
X125396666Y-79735000D01*
X125472857Y-79696904D01*
%TO.C,R15*%
X71430714Y-113841904D02*
X71164047Y-113460952D01*
X70973571Y-113841904D02*
X70973571Y-113041904D01*
X71278333Y-113041904D01*
X71354523Y-113080000D01*
X71392619Y-113118095D01*
X71430714Y-113194285D01*
X71430714Y-113308571D01*
X71392619Y-113384761D01*
X71354523Y-113422857D01*
X71278333Y-113460952D01*
X70973571Y-113460952D01*
X72192619Y-113841904D02*
X71735476Y-113841904D01*
X71964047Y-113841904D02*
X71964047Y-113041904D01*
X71887857Y-113156190D01*
X71811666Y-113232380D01*
X71735476Y-113270476D01*
X72916428Y-113041904D02*
X72535476Y-113041904D01*
X72497380Y-113422857D01*
X72535476Y-113384761D01*
X72611666Y-113346666D01*
X72802142Y-113346666D01*
X72878333Y-113384761D01*
X72916428Y-113422857D01*
X72954523Y-113499047D01*
X72954523Y-113689523D01*
X72916428Y-113765714D01*
X72878333Y-113803809D01*
X72802142Y-113841904D01*
X72611666Y-113841904D01*
X72535476Y-113803809D01*
X72497380Y-113765714D01*
%TO.C,C7*%
X69406666Y-78960714D02*
X69368571Y-78998809D01*
X69254285Y-79036904D01*
X69178095Y-79036904D01*
X69063809Y-78998809D01*
X68987619Y-78922619D01*
X68949523Y-78846428D01*
X68911428Y-78694047D01*
X68911428Y-78579761D01*
X68949523Y-78427380D01*
X68987619Y-78351190D01*
X69063809Y-78275000D01*
X69178095Y-78236904D01*
X69254285Y-78236904D01*
X69368571Y-78275000D01*
X69406666Y-78313095D01*
X69673333Y-78236904D02*
X70206666Y-78236904D01*
X69863809Y-79036904D01*
%TO.C,U3*%
X56090476Y-101226904D02*
X56090476Y-101874523D01*
X56128571Y-101950714D01*
X56166666Y-101988809D01*
X56242857Y-102026904D01*
X56395238Y-102026904D01*
X56471428Y-101988809D01*
X56509523Y-101950714D01*
X56547619Y-101874523D01*
X56547619Y-101226904D01*
X56852380Y-101226904D02*
X57347619Y-101226904D01*
X57080952Y-101531666D01*
X57195238Y-101531666D01*
X57271428Y-101569761D01*
X57309523Y-101607857D01*
X57347619Y-101684047D01*
X57347619Y-101874523D01*
X57309523Y-101950714D01*
X57271428Y-101988809D01*
X57195238Y-102026904D01*
X56966666Y-102026904D01*
X56890476Y-101988809D01*
X56852380Y-101950714D01*
%TO.C,R4*%
X112091666Y-142824404D02*
X111825000Y-142443452D01*
X111634523Y-142824404D02*
X111634523Y-142024404D01*
X111939285Y-142024404D01*
X112015476Y-142062500D01*
X112053571Y-142100595D01*
X112091666Y-142176785D01*
X112091666Y-142291071D01*
X112053571Y-142367261D01*
X112015476Y-142405357D01*
X111939285Y-142443452D01*
X111634523Y-142443452D01*
X112777380Y-142291071D02*
X112777380Y-142824404D01*
X112586904Y-141986309D02*
X112396428Y-142557738D01*
X112891666Y-142557738D01*
%TO.C,R7*%
X87771666Y-119341904D02*
X87505000Y-118960952D01*
X87314523Y-119341904D02*
X87314523Y-118541904D01*
X87619285Y-118541904D01*
X87695476Y-118580000D01*
X87733571Y-118618095D01*
X87771666Y-118694285D01*
X87771666Y-118808571D01*
X87733571Y-118884761D01*
X87695476Y-118922857D01*
X87619285Y-118960952D01*
X87314523Y-118960952D01*
X88038333Y-118541904D02*
X88571666Y-118541904D01*
X88228809Y-119341904D01*
%TO.C,U5*%
X67910476Y-81271904D02*
X67910476Y-81919523D01*
X67948571Y-81995714D01*
X67986666Y-82033809D01*
X68062857Y-82071904D01*
X68215238Y-82071904D01*
X68291428Y-82033809D01*
X68329523Y-81995714D01*
X68367619Y-81919523D01*
X68367619Y-81271904D01*
X69129523Y-81271904D02*
X68748571Y-81271904D01*
X68710476Y-81652857D01*
X68748571Y-81614761D01*
X68824761Y-81576666D01*
X69015238Y-81576666D01*
X69091428Y-81614761D01*
X69129523Y-81652857D01*
X69167619Y-81729047D01*
X69167619Y-81919523D01*
X69129523Y-81995714D01*
X69091428Y-82033809D01*
X69015238Y-82071904D01*
X68824761Y-82071904D01*
X68748571Y-82033809D01*
X68710476Y-81995714D01*
%TO.C,F1*%
X20223333Y-98927857D02*
X19956666Y-98927857D01*
X19956666Y-99346904D02*
X19956666Y-98546904D01*
X20337619Y-98546904D01*
X21061428Y-99346904D02*
X20604285Y-99346904D01*
X20832857Y-99346904D02*
X20832857Y-98546904D01*
X20756666Y-98661190D01*
X20680476Y-98737380D01*
X20604285Y-98775476D01*
%TO.C,R12*%
X51955714Y-102171904D02*
X51689047Y-101790952D01*
X51498571Y-102171904D02*
X51498571Y-101371904D01*
X51803333Y-101371904D01*
X51879523Y-101410000D01*
X51917619Y-101448095D01*
X51955714Y-101524285D01*
X51955714Y-101638571D01*
X51917619Y-101714761D01*
X51879523Y-101752857D01*
X51803333Y-101790952D01*
X51498571Y-101790952D01*
X52717619Y-102171904D02*
X52260476Y-102171904D01*
X52489047Y-102171904D02*
X52489047Y-101371904D01*
X52412857Y-101486190D01*
X52336666Y-101562380D01*
X52260476Y-101600476D01*
X53022380Y-101448095D02*
X53060476Y-101410000D01*
X53136666Y-101371904D01*
X53327142Y-101371904D01*
X53403333Y-101410000D01*
X53441428Y-101448095D01*
X53479523Y-101524285D01*
X53479523Y-101600476D01*
X53441428Y-101714761D01*
X52984285Y-102171904D01*
X53479523Y-102171904D01*
%TO.C,LED5*%
X116011904Y-147740238D02*
X116011904Y-148121190D01*
X115211904Y-148121190D01*
X115592857Y-147473571D02*
X115592857Y-147206904D01*
X116011904Y-147092619D02*
X116011904Y-147473571D01*
X115211904Y-147473571D01*
X115211904Y-147092619D01*
X116011904Y-146749761D02*
X115211904Y-146749761D01*
X115211904Y-146559285D01*
X115250000Y-146445000D01*
X115326190Y-146368809D01*
X115402380Y-146330714D01*
X115554761Y-146292619D01*
X115669047Y-146292619D01*
X115821428Y-146330714D01*
X115897619Y-146368809D01*
X115973809Y-146445000D01*
X116011904Y-146559285D01*
X116011904Y-146749761D01*
X115211904Y-145568809D02*
X115211904Y-145949761D01*
X115592857Y-145987857D01*
X115554761Y-145949761D01*
X115516666Y-145873571D01*
X115516666Y-145683095D01*
X115554761Y-145606904D01*
X115592857Y-145568809D01*
X115669047Y-145530714D01*
X115859523Y-145530714D01*
X115935714Y-145568809D01*
X115973809Y-145606904D01*
X116011904Y-145683095D01*
X116011904Y-145873571D01*
X115973809Y-145949761D01*
X115935714Y-145987857D01*
%TO.C,R3*%
X108661666Y-142816904D02*
X108395000Y-142435952D01*
X108204523Y-142816904D02*
X108204523Y-142016904D01*
X108509285Y-142016904D01*
X108585476Y-142055000D01*
X108623571Y-142093095D01*
X108661666Y-142169285D01*
X108661666Y-142283571D01*
X108623571Y-142359761D01*
X108585476Y-142397857D01*
X108509285Y-142435952D01*
X108204523Y-142435952D01*
X108928333Y-142016904D02*
X109423571Y-142016904D01*
X109156904Y-142321666D01*
X109271190Y-142321666D01*
X109347380Y-142359761D01*
X109385476Y-142397857D01*
X109423571Y-142474047D01*
X109423571Y-142664523D01*
X109385476Y-142740714D01*
X109347380Y-142778809D01*
X109271190Y-142816904D01*
X109042619Y-142816904D01*
X108966428Y-142778809D01*
X108928333Y-142740714D01*
%TO.C,C6*%
X78506666Y-115105714D02*
X78468571Y-115143809D01*
X78354285Y-115181904D01*
X78278095Y-115181904D01*
X78163809Y-115143809D01*
X78087619Y-115067619D01*
X78049523Y-114991428D01*
X78011428Y-114839047D01*
X78011428Y-114724761D01*
X78049523Y-114572380D01*
X78087619Y-114496190D01*
X78163809Y-114420000D01*
X78278095Y-114381904D01*
X78354285Y-114381904D01*
X78468571Y-114420000D01*
X78506666Y-114458095D01*
X79192380Y-114381904D02*
X79040000Y-114381904D01*
X78963809Y-114420000D01*
X78925714Y-114458095D01*
X78849523Y-114572380D01*
X78811428Y-114724761D01*
X78811428Y-115029523D01*
X78849523Y-115105714D01*
X78887619Y-115143809D01*
X78963809Y-115181904D01*
X79116190Y-115181904D01*
X79192380Y-115143809D01*
X79230476Y-115105714D01*
X79268571Y-115029523D01*
X79268571Y-114839047D01*
X79230476Y-114762857D01*
X79192380Y-114724761D01*
X79116190Y-114686666D01*
X78963809Y-114686666D01*
X78887619Y-114724761D01*
X78849523Y-114762857D01*
X78811428Y-114839047D01*
%TO.C,LED6*%
X85874761Y-94666904D02*
X85493809Y-94666904D01*
X85493809Y-93866904D01*
X86141428Y-94247857D02*
X86408095Y-94247857D01*
X86522380Y-94666904D02*
X86141428Y-94666904D01*
X86141428Y-93866904D01*
X86522380Y-93866904D01*
X86865238Y-94666904D02*
X86865238Y-93866904D01*
X87055714Y-93866904D01*
X87170000Y-93905000D01*
X87246190Y-93981190D01*
X87284285Y-94057380D01*
X87322380Y-94209761D01*
X87322380Y-94324047D01*
X87284285Y-94476428D01*
X87246190Y-94552619D01*
X87170000Y-94628809D01*
X87055714Y-94666904D01*
X86865238Y-94666904D01*
X88008095Y-93866904D02*
X87855714Y-93866904D01*
X87779523Y-93905000D01*
X87741428Y-93943095D01*
X87665238Y-94057380D01*
X87627142Y-94209761D01*
X87627142Y-94514523D01*
X87665238Y-94590714D01*
X87703333Y-94628809D01*
X87779523Y-94666904D01*
X87931904Y-94666904D01*
X88008095Y-94628809D01*
X88046190Y-94590714D01*
X88084285Y-94514523D01*
X88084285Y-94324047D01*
X88046190Y-94247857D01*
X88008095Y-94209761D01*
X87931904Y-94171666D01*
X87779523Y-94171666D01*
X87703333Y-94209761D01*
X87665238Y-94247857D01*
X87627142Y-94324047D01*
%TO.C,R17*%
X65385714Y-82566904D02*
X65119047Y-82185952D01*
X64928571Y-82566904D02*
X64928571Y-81766904D01*
X65233333Y-81766904D01*
X65309523Y-81805000D01*
X65347619Y-81843095D01*
X65385714Y-81919285D01*
X65385714Y-82033571D01*
X65347619Y-82109761D01*
X65309523Y-82147857D01*
X65233333Y-82185952D01*
X64928571Y-82185952D01*
X66147619Y-82566904D02*
X65690476Y-82566904D01*
X65919047Y-82566904D02*
X65919047Y-81766904D01*
X65842857Y-81881190D01*
X65766666Y-81957380D01*
X65690476Y-81995476D01*
X66414285Y-81766904D02*
X66947619Y-81766904D01*
X66604761Y-82566904D01*
%TO.C,R10*%
X90320714Y-123711904D02*
X90054047Y-123330952D01*
X89863571Y-123711904D02*
X89863571Y-122911904D01*
X90168333Y-122911904D01*
X90244523Y-122950000D01*
X90282619Y-122988095D01*
X90320714Y-123064285D01*
X90320714Y-123178571D01*
X90282619Y-123254761D01*
X90244523Y-123292857D01*
X90168333Y-123330952D01*
X89863571Y-123330952D01*
X91082619Y-123711904D02*
X90625476Y-123711904D01*
X90854047Y-123711904D02*
X90854047Y-122911904D01*
X90777857Y-123026190D01*
X90701666Y-123102380D01*
X90625476Y-123140476D01*
X91577857Y-122911904D02*
X91654047Y-122911904D01*
X91730238Y-122950000D01*
X91768333Y-122988095D01*
X91806428Y-123064285D01*
X91844523Y-123216666D01*
X91844523Y-123407142D01*
X91806428Y-123559523D01*
X91768333Y-123635714D01*
X91730238Y-123673809D01*
X91654047Y-123711904D01*
X91577857Y-123711904D01*
X91501666Y-123673809D01*
X91463571Y-123635714D01*
X91425476Y-123559523D01*
X91387380Y-123407142D01*
X91387380Y-123216666D01*
X91425476Y-123064285D01*
X91463571Y-122988095D01*
X91501666Y-122950000D01*
X91577857Y-122911904D01*
%TO.C,R14*%
X74500714Y-118831904D02*
X74234047Y-118450952D01*
X74043571Y-118831904D02*
X74043571Y-118031904D01*
X74348333Y-118031904D01*
X74424523Y-118070000D01*
X74462619Y-118108095D01*
X74500714Y-118184285D01*
X74500714Y-118298571D01*
X74462619Y-118374761D01*
X74424523Y-118412857D01*
X74348333Y-118450952D01*
X74043571Y-118450952D01*
X75262619Y-118831904D02*
X74805476Y-118831904D01*
X75034047Y-118831904D02*
X75034047Y-118031904D01*
X74957857Y-118146190D01*
X74881666Y-118222380D01*
X74805476Y-118260476D01*
X75948333Y-118298571D02*
X75948333Y-118831904D01*
X75757857Y-117993809D02*
X75567380Y-118565238D01*
X76062619Y-118565238D01*
%TO.C,C1*%
X111290714Y-136703333D02*
X111328809Y-136741428D01*
X111366904Y-136855714D01*
X111366904Y-136931904D01*
X111328809Y-137046190D01*
X111252619Y-137122380D01*
X111176428Y-137160476D01*
X111024047Y-137198571D01*
X110909761Y-137198571D01*
X110757380Y-137160476D01*
X110681190Y-137122380D01*
X110605000Y-137046190D01*
X110566904Y-136931904D01*
X110566904Y-136855714D01*
X110605000Y-136741428D01*
X110643095Y-136703333D01*
X111366904Y-135941428D02*
X111366904Y-136398571D01*
X111366904Y-136170000D02*
X110566904Y-136170000D01*
X110681190Y-136246190D01*
X110757380Y-136322380D01*
X110795476Y-136398571D01*
%TO.C,C2*%
X103736666Y-94540714D02*
X103698571Y-94578809D01*
X103584285Y-94616904D01*
X103508095Y-94616904D01*
X103393809Y-94578809D01*
X103317619Y-94502619D01*
X103279523Y-94426428D01*
X103241428Y-94274047D01*
X103241428Y-94159761D01*
X103279523Y-94007380D01*
X103317619Y-93931190D01*
X103393809Y-93855000D01*
X103508095Y-93816904D01*
X103584285Y-93816904D01*
X103698571Y-93855000D01*
X103736666Y-93893095D01*
X104041428Y-93893095D02*
X104079523Y-93855000D01*
X104155714Y-93816904D01*
X104346190Y-93816904D01*
X104422380Y-93855000D01*
X104460476Y-93893095D01*
X104498571Y-93969285D01*
X104498571Y-94045476D01*
X104460476Y-94159761D01*
X104003333Y-94616904D01*
X104498571Y-94616904D01*
%TO.C,SW2*%
X67578333Y-129168809D02*
X67692619Y-129206904D01*
X67883095Y-129206904D01*
X67959285Y-129168809D01*
X67997380Y-129130714D01*
X68035476Y-129054523D01*
X68035476Y-128978333D01*
X67997380Y-128902142D01*
X67959285Y-128864047D01*
X67883095Y-128825952D01*
X67730714Y-128787857D01*
X67654523Y-128749761D01*
X67616428Y-128711666D01*
X67578333Y-128635476D01*
X67578333Y-128559285D01*
X67616428Y-128483095D01*
X67654523Y-128445000D01*
X67730714Y-128406904D01*
X67921190Y-128406904D01*
X68035476Y-128445000D01*
X68302142Y-128406904D02*
X68492619Y-129206904D01*
X68645000Y-128635476D01*
X68797380Y-129206904D01*
X68987857Y-128406904D01*
X69254523Y-128483095D02*
X69292619Y-128445000D01*
X69368809Y-128406904D01*
X69559285Y-128406904D01*
X69635476Y-128445000D01*
X69673571Y-128483095D01*
X69711666Y-128559285D01*
X69711666Y-128635476D01*
X69673571Y-128749761D01*
X69216428Y-129206904D01*
X69711666Y-129206904D01*
X75610133Y-141103676D02*
X75610133Y-140722723D01*
X75838704Y-141179866D02*
X75038704Y-140913200D01*
X75838704Y-140646533D01*
X84898704Y-141122723D02*
X84098704Y-141122723D01*
X84098704Y-140932247D01*
X84136800Y-140817961D01*
X84212990Y-140741771D01*
X84289180Y-140703676D01*
X84441561Y-140665580D01*
X84555847Y-140665580D01*
X84708228Y-140703676D01*
X84784419Y-140741771D01*
X84860609Y-140817961D01*
X84898704Y-140932247D01*
X84898704Y-141122723D01*
X75309657Y-135096057D02*
X75347752Y-134981771D01*
X75385847Y-134943676D01*
X75462038Y-134905580D01*
X75576323Y-134905580D01*
X75652514Y-134943676D01*
X75690609Y-134981771D01*
X75728704Y-135057961D01*
X75728704Y-135362723D01*
X74928704Y-135362723D01*
X74928704Y-135096057D01*
X74966800Y-135019866D01*
X75004895Y-134981771D01*
X75081085Y-134943676D01*
X75157276Y-134943676D01*
X75233466Y-134981771D01*
X75271561Y-135019866D01*
X75309657Y-135096057D01*
X75309657Y-135362723D01*
X84822514Y-134865580D02*
X84860609Y-134903676D01*
X84898704Y-135017961D01*
X84898704Y-135094152D01*
X84860609Y-135208438D01*
X84784419Y-135284628D01*
X84708228Y-135322723D01*
X84555847Y-135360819D01*
X84441561Y-135360819D01*
X84289180Y-135322723D01*
X84212990Y-135284628D01*
X84136800Y-135208438D01*
X84098704Y-135094152D01*
X84098704Y-135017961D01*
X84136800Y-134903676D01*
X84174895Y-134865580D01*
%TO.C,R1*%
X122366666Y-142846904D02*
X122100000Y-142465952D01*
X121909523Y-142846904D02*
X121909523Y-142046904D01*
X122214285Y-142046904D01*
X122290476Y-142085000D01*
X122328571Y-142123095D01*
X122366666Y-142199285D01*
X122366666Y-142313571D01*
X122328571Y-142389761D01*
X122290476Y-142427857D01*
X122214285Y-142465952D01*
X121909523Y-142465952D01*
X123128571Y-142846904D02*
X122671428Y-142846904D01*
X122900000Y-142846904D02*
X122900000Y-142046904D01*
X122823809Y-142161190D01*
X122747619Y-142237380D01*
X122671428Y-142275476D01*
%TO.C,U2*%
X92450476Y-101821904D02*
X92450476Y-102469523D01*
X92488571Y-102545714D01*
X92526666Y-102583809D01*
X92602857Y-102621904D01*
X92755238Y-102621904D01*
X92831428Y-102583809D01*
X92869523Y-102545714D01*
X92907619Y-102469523D01*
X92907619Y-101821904D01*
X93250476Y-101898095D02*
X93288571Y-101860000D01*
X93364761Y-101821904D01*
X93555238Y-101821904D01*
X93631428Y-101860000D01*
X93669523Y-101898095D01*
X93707619Y-101974285D01*
X93707619Y-102050476D01*
X93669523Y-102164761D01*
X93212380Y-102621904D01*
X93707619Y-102621904D01*
%TO.C,R11*%
X93205714Y-123691904D02*
X92939047Y-123310952D01*
X92748571Y-123691904D02*
X92748571Y-122891904D01*
X93053333Y-122891904D01*
X93129523Y-122930000D01*
X93167619Y-122968095D01*
X93205714Y-123044285D01*
X93205714Y-123158571D01*
X93167619Y-123234761D01*
X93129523Y-123272857D01*
X93053333Y-123310952D01*
X92748571Y-123310952D01*
X93967619Y-123691904D02*
X93510476Y-123691904D01*
X93739047Y-123691904D02*
X93739047Y-122891904D01*
X93662857Y-123006190D01*
X93586666Y-123082380D01*
X93510476Y-123120476D01*
X94729523Y-123691904D02*
X94272380Y-123691904D01*
X94500952Y-123691904D02*
X94500952Y-122891904D01*
X94424761Y-123006190D01*
X94348571Y-123082380D01*
X94272380Y-123120476D01*
%TO.C,SW1*%
X96628333Y-143338809D02*
X96742619Y-143376904D01*
X96933095Y-143376904D01*
X97009285Y-143338809D01*
X97047380Y-143300714D01*
X97085476Y-143224523D01*
X97085476Y-143148333D01*
X97047380Y-143072142D01*
X97009285Y-143034047D01*
X96933095Y-142995952D01*
X96780714Y-142957857D01*
X96704523Y-142919761D01*
X96666428Y-142881666D01*
X96628333Y-142805476D01*
X96628333Y-142729285D01*
X96666428Y-142653095D01*
X96704523Y-142615000D01*
X96780714Y-142576904D01*
X96971190Y-142576904D01*
X97085476Y-142615000D01*
X97352142Y-142576904D02*
X97542619Y-143376904D01*
X97695000Y-142805476D01*
X97847380Y-143376904D01*
X98037857Y-142576904D01*
X98761666Y-143376904D02*
X98304523Y-143376904D01*
X98533095Y-143376904D02*
X98533095Y-142576904D01*
X98456904Y-142691190D01*
X98380714Y-142767380D01*
X98304523Y-142805476D01*
%TO.C,LED4*%
X112596904Y-147727738D02*
X112596904Y-148108690D01*
X111796904Y-148108690D01*
X112177857Y-147461071D02*
X112177857Y-147194404D01*
X112596904Y-147080119D02*
X112596904Y-147461071D01*
X111796904Y-147461071D01*
X111796904Y-147080119D01*
X112596904Y-146737261D02*
X111796904Y-146737261D01*
X111796904Y-146546785D01*
X111835000Y-146432500D01*
X111911190Y-146356309D01*
X111987380Y-146318214D01*
X112139761Y-146280119D01*
X112254047Y-146280119D01*
X112406428Y-146318214D01*
X112482619Y-146356309D01*
X112558809Y-146432500D01*
X112596904Y-146546785D01*
X112596904Y-146737261D01*
X112063571Y-145594404D02*
X112596904Y-145594404D01*
X111758809Y-145784880D02*
X112330238Y-145975357D01*
X112330238Y-145480119D01*
%TO.C,C5*%
X57446666Y-98925714D02*
X57408571Y-98963809D01*
X57294285Y-99001904D01*
X57218095Y-99001904D01*
X57103809Y-98963809D01*
X57027619Y-98887619D01*
X56989523Y-98811428D01*
X56951428Y-98659047D01*
X56951428Y-98544761D01*
X56989523Y-98392380D01*
X57027619Y-98316190D01*
X57103809Y-98240000D01*
X57218095Y-98201904D01*
X57294285Y-98201904D01*
X57408571Y-98240000D01*
X57446666Y-98278095D01*
X58170476Y-98201904D02*
X57789523Y-98201904D01*
X57751428Y-98582857D01*
X57789523Y-98544761D01*
X57865714Y-98506666D01*
X58056190Y-98506666D01*
X58132380Y-98544761D01*
X58170476Y-98582857D01*
X58208571Y-98659047D01*
X58208571Y-98849523D01*
X58170476Y-98925714D01*
X58132380Y-98963809D01*
X58056190Y-99001904D01*
X57865714Y-99001904D01*
X57789523Y-98963809D01*
X57751428Y-98925714D01*
D10*
%TO.C,R9*%
X94426800Y-121352764D02*
X94426800Y-120898636D01*
X92956800Y-121352764D02*
X92956800Y-120898636D01*
%TO.C,L1*%
X102870000Y-93075000D02*
X97770000Y-93075000D01*
X102870000Y-98175000D02*
X97770000Y-98175000D01*
%TO.C,Q1*%
X33625000Y-83171226D02*
X33625000Y-78530226D01*
X36894000Y-83171226D02*
X36894000Y-81661226D01*
X43865000Y-83171226D02*
X43865000Y-78530226D01*
X40595000Y-83171226D02*
X40595000Y-81661226D01*
X43865000Y-78530226D02*
X33625000Y-78530226D01*
X43865000Y-83171226D02*
X33625000Y-83171226D01*
X43865000Y-81661226D02*
X33625000Y-81661226D01*
%TO.C,R21*%
X99742500Y-77750436D02*
X99742500Y-78204564D01*
X98272500Y-77750436D02*
X98272500Y-78204564D01*
%TO.C,R20*%
X101172500Y-78209564D02*
X101172500Y-77755436D01*
X102642500Y-78209564D02*
X102642500Y-77755436D01*
%TO.C,L2*%
X102305378Y-87240000D02*
X103104622Y-87240000D01*
X102305378Y-88360000D02*
X103104622Y-88360000D01*
%TO.C,L3*%
X102290378Y-85330000D02*
X103089622Y-85330000D01*
X102290378Y-86450000D02*
X103089622Y-86450000D01*
%TO.C,R19*%
X105727500Y-77007064D02*
X105727500Y-76552936D01*
X107197500Y-77007064D02*
X107197500Y-76552936D01*
%TO.C,LED1*%
X123200000Y-148540000D02*
X125120000Y-148540000D01*
X125120000Y-148540000D02*
X125120000Y-145855000D01*
X123200000Y-145855000D02*
X123200000Y-148540000D01*
%TO.C,J1*%
X97125000Y-135255000D02*
X97125000Y-135755000D01*
X104155000Y-135755000D02*
X104155000Y-135255000D01*
X105575000Y-139845000D02*
X105575000Y-136770000D01*
X97145000Y-135255000D02*
X97125000Y-135255000D01*
X95705000Y-139845000D02*
X105575000Y-139845000D01*
X97125000Y-135755000D02*
X104155000Y-135755000D01*
X104155000Y-135255000D02*
X104135000Y-135255000D01*
X95705000Y-136770000D02*
X95705000Y-139845000D01*
D14*
%TO.C,U1*%
X108005000Y-96185000D02*
X126545000Y-96185000D01*
X108005000Y-146475000D02*
X108005000Y-96185000D01*
X126545000Y-96185000D02*
X126545000Y-146475000D01*
D11*
X127375000Y-137830000D02*
G75*
G03*
X127375000Y-137830000I-100000J0D01*
G01*
D10*
%TO.C,C11*%
X120952500Y-82691252D02*
X120952500Y-82168748D01*
X122422500Y-82691252D02*
X122422500Y-82168748D01*
%TO.C,C8*%
X123932500Y-86588748D02*
X123932500Y-87111252D01*
X125402500Y-86588748D02*
X125402500Y-87111252D01*
%TO.C,J4*%
X83442500Y-90435000D02*
X86517500Y-90435000D01*
X86517500Y-90435000D02*
X86517500Y-74565000D01*
X86517500Y-74565000D02*
X83442500Y-74565000D01*
X81927500Y-88995000D02*
X81927500Y-89015000D01*
X81927500Y-89015000D02*
X82427500Y-89015000D01*
X81927500Y-75985000D02*
X81927500Y-76005000D01*
X82427500Y-75985000D02*
X81927500Y-75985000D01*
X82427500Y-89015000D02*
X82427500Y-75985000D01*
%TO.C,R16*%
X65070000Y-79837064D02*
X65070000Y-79382936D01*
X66540000Y-79837064D02*
X66540000Y-79382936D01*
%TO.C,JP1*%
X98557500Y-72475000D02*
X98557500Y-75135000D01*
X103757500Y-72475000D02*
X103757500Y-73805000D01*
X102427500Y-72475000D02*
X103757500Y-72475000D01*
X101157500Y-75135000D02*
X98557500Y-75135000D01*
X101157500Y-72475000D02*
X98557500Y-72475000D01*
X101157500Y-72475000D02*
X101157500Y-75135000D01*
%TO.C,C15*%
X105722500Y-82696252D02*
X105722500Y-82173748D01*
X107192500Y-82696252D02*
X107192500Y-82173748D01*
%TO.C,Q2*%
X33630000Y-87801226D02*
X43870000Y-87801226D01*
X36900000Y-86291226D02*
X36900000Y-87801226D01*
X43870000Y-86291226D02*
X43870000Y-90932226D01*
X40601000Y-86291226D02*
X40601000Y-87801226D01*
X33630000Y-86291226D02*
X33630000Y-90932226D01*
X33630000Y-86291226D02*
X43870000Y-86291226D01*
X33630000Y-90932226D02*
X43870000Y-90932226D01*
%TO.C,C9*%
X120962500Y-87116252D02*
X120962500Y-86593748D01*
X122432500Y-87116252D02*
X122432500Y-86593748D01*
%TO.C,R6*%
X90445000Y-96894564D02*
X90445000Y-96440436D01*
X88975000Y-96894564D02*
X88975000Y-96440436D01*
%TO.C,D1*%
X56385000Y-105281226D02*
X56385000Y-107281226D01*
X56385000Y-107281226D02*
X60685000Y-107281226D01*
X60685000Y-105281226D02*
X56385000Y-105281226D01*
%TO.C,C13*%
X98222500Y-87101252D02*
X98222500Y-86578748D01*
X99692500Y-87101252D02*
X99692500Y-86578748D01*
%TO.C,R13*%
X74187500Y-115815654D02*
X74187500Y-115361526D01*
X75657500Y-115815654D02*
X75657500Y-115361526D01*
%TO.C,C4*%
X91935000Y-96891252D02*
X91935000Y-96368748D01*
X93405000Y-96891252D02*
X93405000Y-96368748D01*
%TO.C,R18*%
X63655000Y-79852064D02*
X63655000Y-79397936D01*
X62185000Y-79852064D02*
X62185000Y-79397936D01*
%TO.C,U7*%
X101322500Y-82215000D02*
X101322500Y-80540000D01*
X101322500Y-82215000D02*
X101322500Y-82865000D01*
X98202500Y-82215000D02*
X98202500Y-81565000D01*
X98202500Y-82215000D02*
X98202500Y-82865000D01*
D11*
%TO.C,J2*%
X17090000Y-121396226D02*
X17090000Y-121396226D01*
D15*
X17630000Y-111766226D02*
X64210000Y-111766226D01*
X64210000Y-111766226D02*
X64210000Y-141016226D01*
X17630000Y-141016226D02*
X17630000Y-111766226D01*
D11*
X17090000Y-121196226D02*
X17090000Y-121196226D01*
D15*
X64210000Y-141016226D02*
X17630000Y-141016226D01*
D11*
X17090000Y-121196226D02*
G75*
G03*
X17090000Y-121396226I0J-100000D01*
G01*
X17090000Y-121396226D02*
G75*
G03*
X17090000Y-121196226I0J100000D01*
G01*
D10*
%TO.C,R2*%
X119960000Y-142712064D02*
X119960000Y-142257936D01*
X121430000Y-142712064D02*
X121430000Y-142257936D01*
%TO.C,R5*%
X118025000Y-142702064D02*
X118025000Y-142247936D01*
X116555000Y-142702064D02*
X116555000Y-142247936D01*
%TO.C,J3*%
X90692500Y-89005000D02*
X90692500Y-89025000D01*
X90692500Y-89025000D02*
X91192500Y-89025000D01*
X90692500Y-75995000D02*
X90692500Y-76015000D01*
X91192500Y-75995000D02*
X90692500Y-75995000D01*
X91192500Y-89025000D02*
X91192500Y-75995000D01*
X95282500Y-74575000D02*
X92207500Y-74575000D01*
X92207500Y-90445000D02*
X95282500Y-90445000D01*
X95282500Y-90445000D02*
X95282500Y-74575000D01*
%TO.C,HS1*%
X30340000Y-96821226D02*
X30350000Y-85861226D01*
X17860000Y-91281226D02*
X24370000Y-86271226D01*
X21940000Y-78381226D02*
X18380000Y-77161226D01*
X54860000Y-75851226D02*
X58890000Y-72261226D01*
X47160000Y-72681226D02*
X47150000Y-83641226D01*
X51180000Y-91551226D02*
X54270000Y-97121226D01*
X30350000Y-85861226D02*
X38750000Y-85861226D01*
X22140000Y-96791226D02*
X22890000Y-93801226D01*
X29170000Y-72591226D02*
X28360000Y-77551226D01*
X47150000Y-85861226D02*
X38750000Y-85861226D01*
X55560000Y-78381226D02*
X59120000Y-77161226D01*
X26320000Y-77951226D02*
X23230000Y-72381226D01*
X51180000Y-77951226D02*
X54270000Y-72381226D01*
X22640000Y-75851226D02*
X18610000Y-72261226D01*
X47160000Y-96821226D02*
X47150000Y-85861226D01*
X26320000Y-91551226D02*
X23230000Y-97121226D01*
X59640000Y-78221226D02*
X53130000Y-83231226D01*
X59640000Y-73181226D02*
X55390000Y-78161226D01*
X48330000Y-72591226D02*
X49140000Y-77551226D01*
X30350000Y-83641226D02*
X38750000Y-83641226D01*
X29170000Y-96911226D02*
X28360000Y-91951226D01*
X59640000Y-96321226D02*
X55390000Y-91341226D01*
X17860000Y-73181226D02*
X22110000Y-78161226D01*
X30340000Y-72681226D02*
X30350000Y-83641226D01*
X59640000Y-91281226D02*
X53130000Y-86271226D01*
X55360000Y-72711226D02*
X54610000Y-75701226D01*
X22640000Y-93651226D02*
X18610000Y-97241226D01*
X17860000Y-96321226D02*
X22110000Y-91341226D01*
X17860000Y-78221226D02*
X24370000Y-83231226D01*
X21940000Y-91121226D02*
X18380000Y-92341226D01*
X48330000Y-96911226D02*
X49140000Y-91951226D01*
X22140000Y-72711226D02*
X22890000Y-75701226D01*
X55560000Y-91121226D02*
X59120000Y-92341226D01*
X47150000Y-83641226D02*
X38750000Y-83641226D01*
X55360000Y-96791226D02*
X54610000Y-93801226D01*
X54860000Y-93651226D02*
X58890000Y-97241226D01*
X23240000Y-72391226D02*
G75*
G03*
X22142747Y-72720512I-489999J-360002D01*
G01*
X49128489Y-77511888D02*
G75*
G03*
X51180000Y-77941226I1131511J290662D01*
G01*
X17866639Y-96321036D02*
G75*
G03*
X18630000Y-97221226I393361J-440190D01*
G01*
X55391006Y-78158380D02*
G75*
G03*
X55560000Y-78381226I108994J-92846D01*
G01*
X30340000Y-72711226D02*
G75*
G03*
X29171633Y-72612941I-590000J-20000D01*
G01*
X59631246Y-78222767D02*
G75*
G03*
X59110000Y-77161226I-381245J471542D01*
G01*
X55560000Y-91121226D02*
G75*
G03*
X55391005Y-91344070I-60000J-130000D01*
G01*
X22142704Y-96781092D02*
G75*
G03*
X23240000Y-97111226I607296J29867D01*
G01*
X21940000Y-78381226D02*
G75*
G03*
X22108995Y-78158382I60000J130000D01*
G01*
X59110000Y-92341226D02*
G75*
G03*
X59632010Y-91280303I140000J590000D01*
G01*
X18390000Y-77161226D02*
G75*
G03*
X17867990Y-78222149I-140000J-590000D01*
G01*
X54260000Y-97111226D02*
G75*
G03*
X55357253Y-96781940I489999J360002D01*
G01*
X26320000Y-77941226D02*
G75*
G03*
X28371275Y-77512803I920000J720000D01*
G01*
X22640000Y-75861226D02*
G75*
G03*
X22887354Y-75678193I110000J110000D01*
G01*
X58870001Y-97221225D02*
G75*
G03*
X59633567Y-96321221I369999J459999D01*
G01*
X22887262Y-93824432D02*
G75*
G03*
X22640000Y-93641226I-137262J73206D01*
G01*
X22108994Y-91344072D02*
G75*
G03*
X21940000Y-91121226I-108994J92846D01*
G01*
X55357296Y-72721360D02*
G75*
G03*
X54260000Y-72391226I-607296J-29867D01*
G01*
X18629999Y-72281227D02*
G75*
G03*
X17866433Y-73181231I-369999J-459999D01*
G01*
X51180000Y-91561226D02*
G75*
G03*
X49128725Y-91989649I-920000J-720000D01*
G01*
X54612738Y-75678020D02*
G75*
G03*
X54860000Y-75861226I137262J-73206D01*
G01*
X47160000Y-96791226D02*
G75*
G03*
X48328367Y-96889511I590000J20000D01*
G01*
X29171505Y-96888885D02*
G75*
G03*
X30340000Y-96791226I578495J117659D01*
G01*
X17868754Y-91279685D02*
G75*
G03*
X18390000Y-92341226I381245J-471542D01*
G01*
X48328495Y-72613567D02*
G75*
G03*
X47160000Y-72711226I-578495J-117659D01*
G01*
X59633361Y-73181416D02*
G75*
G03*
X58870000Y-72281226I-393361J440190D01*
G01*
X54860000Y-93641226D02*
G75*
G03*
X54612646Y-93824259I-110000J-110000D01*
G01*
X28371511Y-91990564D02*
G75*
G03*
X26320000Y-91561226I-1131511J-290662D01*
G01*
%TO.C,C12*%
X107192500Y-87101252D02*
X107192500Y-86578748D01*
X105722500Y-87101252D02*
X105722500Y-86578748D01*
%TO.C,C14*%
X102762500Y-82168748D02*
X102762500Y-82691252D01*
X104232500Y-82168748D02*
X104232500Y-82691252D01*
%TO.C,U6*%
X117847500Y-89725000D02*
X110347500Y-89725000D01*
X117847500Y-74425000D02*
X110347500Y-74425000D01*
X117847500Y-74425000D02*
X117847500Y-89725000D01*
X110347500Y-89725000D02*
X110347500Y-74425000D01*
D16*
X117433191Y-88825000D02*
G75*
G03*
X117433191Y-88825000I-385691J0D01*
G01*
D10*
%TO.C,LED3*%
X109520000Y-148517500D02*
X111440000Y-148517500D01*
X111440000Y-148517500D02*
X111440000Y-145832500D01*
X109520000Y-145832500D02*
X109520000Y-148517500D01*
%TO.C,U4*%
X80167500Y-120368590D02*
X80167500Y-119568590D01*
X77047500Y-120368590D02*
X77047500Y-122168590D01*
X80167500Y-120368590D02*
X80167500Y-121168590D01*
X77047500Y-120368590D02*
X77047500Y-119568590D01*
%TO.C,R8*%
X90066800Y-120898636D02*
X90066800Y-121352764D01*
X91536800Y-120898636D02*
X91536800Y-121352764D01*
%TO.C,C3*%
X96345000Y-96911252D02*
X96345000Y-96388748D01*
X94875000Y-96911252D02*
X94875000Y-96388748D01*
%TO.C,LED2*%
X121665000Y-148540000D02*
X121665000Y-145855000D01*
X119745000Y-145855000D02*
X119745000Y-148540000D01*
X119745000Y-148540000D02*
X121665000Y-148540000D01*
%TO.C,D2*%
X69852500Y-122301090D02*
X69852500Y-118001090D01*
X67852500Y-122301090D02*
X69852500Y-122301090D01*
X67852500Y-118001090D02*
X67852500Y-122301090D01*
%TO.C,C10*%
X123957500Y-82163748D02*
X123957500Y-82686252D01*
X125427500Y-82163748D02*
X125427500Y-82686252D01*
%TO.C,R15*%
X71230000Y-115843154D02*
X71230000Y-115389026D01*
X72700000Y-115843154D02*
X72700000Y-115389026D01*
%TO.C,C7*%
X69771252Y-80882500D02*
X69248748Y-80882500D01*
X69771252Y-79412500D02*
X69248748Y-79412500D01*
%TO.C,U3*%
X56395000Y-102431226D02*
X56930000Y-102431226D01*
X56395000Y-102566226D02*
X56395000Y-102431226D01*
X56395000Y-103951226D02*
X56395000Y-103816226D01*
X56395000Y-103951226D02*
X56930000Y-103951226D01*
X58315000Y-103951226D02*
X58315000Y-103816226D01*
X57780000Y-103951226D02*
X58315000Y-103951226D01*
%TO.C,R4*%
X114610000Y-142689564D02*
X114610000Y-142235436D01*
X113140000Y-142689564D02*
X113140000Y-142235436D01*
%TO.C,R7*%
X87166800Y-121352764D02*
X87166800Y-120898636D01*
X88636800Y-121352764D02*
X88636800Y-120898636D01*
%TO.C,U5*%
X67950000Y-84172500D02*
X67950000Y-83372500D01*
X71070000Y-84172500D02*
X71070000Y-83372500D01*
X67950000Y-84172500D02*
X67950000Y-85972500D01*
X71070000Y-84172500D02*
X71070000Y-84972500D01*
%TO.C,F1*%
X45865000Y-99521226D02*
X45865000Y-109721226D01*
X19665000Y-109721226D02*
X19665000Y-99521226D01*
X45865000Y-109721226D02*
X19665000Y-109721226D01*
X19665000Y-99521226D02*
X45865000Y-99521226D01*
%TO.C,R12*%
X51545000Y-105383290D02*
X51545000Y-103929162D01*
X53365000Y-105383290D02*
X53365000Y-103929162D01*
%TO.C,LED5*%
X116340000Y-148530000D02*
X118260000Y-148530000D01*
X116340000Y-145845000D02*
X116340000Y-148530000D01*
X118260000Y-148530000D02*
X118260000Y-145845000D01*
%TO.C,R3*%
X109730000Y-142689564D02*
X109730000Y-142235436D01*
X111200000Y-142689564D02*
X111200000Y-142235436D01*
%TO.C,C6*%
X78858752Y-117056090D02*
X78336248Y-117056090D01*
X78858752Y-115586090D02*
X78336248Y-115586090D01*
%TO.C,LED6*%
X85840000Y-98367500D02*
X87760000Y-98367500D01*
X87760000Y-98367500D02*
X87760000Y-95682500D01*
X85840000Y-95682500D02*
X85840000Y-98367500D01*
%TO.C,R17*%
X66560000Y-84647064D02*
X66560000Y-84192936D01*
X65090000Y-84647064D02*
X65090000Y-84192936D01*
%TO.C,R10*%
X90051800Y-125271136D02*
X90051800Y-125725264D01*
X91521800Y-125271136D02*
X91521800Y-125725264D01*
%TO.C,R14*%
X74220000Y-120818154D02*
X74220000Y-120364026D01*
X75690000Y-120818154D02*
X75690000Y-120364026D01*
%TO.C,C1*%
X113420000Y-136831252D02*
X113420000Y-136308748D01*
X111950000Y-136831252D02*
X111950000Y-136308748D01*
%TO.C,C2*%
X105795000Y-96951252D02*
X105795000Y-96428748D01*
X104325000Y-96951252D02*
X104325000Y-96428748D01*
D13*
%TO.C,SW2*%
X77911800Y-152053200D02*
G75*
G03*
X77911800Y-152053200I-125000J0D01*
G01*
X93166800Y-137943200D02*
G75*
G03*
X93166800Y-137943200I-13100000J0D01*
G01*
D10*
%TO.C,R1*%
X124885000Y-142712064D02*
X124885000Y-142257936D01*
X123415000Y-142712064D02*
X123415000Y-142257936D01*
%TO.C,U2*%
X105015000Y-102970000D02*
X92315000Y-102970000D01*
X92315000Y-102970000D02*
X92315000Y-110590000D01*
X92315000Y-110590000D02*
X105015000Y-110590000D01*
X105015000Y-110590000D02*
X105015000Y-102970000D01*
%TO.C,R11*%
X92971800Y-125725264D02*
X92971800Y-125271136D01*
X94441800Y-125725264D02*
X94441800Y-125271136D01*
%TO.C,SW1*%
X103455000Y-144170000D02*
X98955000Y-144170000D01*
X97705000Y-146670000D02*
X97705000Y-148170000D01*
X98955000Y-150670000D02*
X103455000Y-150670000D01*
X104705000Y-148170000D02*
X104705000Y-146670000D01*
%TO.C,LED4*%
X112925000Y-145832500D02*
X112925000Y-148517500D01*
X112925000Y-148517500D02*
X114845000Y-148517500D01*
X114845000Y-148517500D02*
X114845000Y-145832500D01*
%TO.C,C5*%
X57796252Y-99361226D02*
X57273748Y-99361226D01*
X57796252Y-100831226D02*
X57273748Y-100831226D01*
%TD*%
M02*
