%TF.GenerationSoftware,KiCad,Pcbnew,(6.0.1)*%
%TF.CreationDate,2022-02-17T12:45:48-06:00*%
%TF.ProjectId,IV Curve Tracer,49562043-7572-4766-9520-547261636572,1.2.0*%
%TF.SameCoordinates,PX1b50300PY6843e50*%
%TF.FileFunction,Soldermask,Top*%
%TF.FilePolarity,Negative*%
%FSLAX46Y46*%
G04 Gerber Fmt 4.6, Leading zero omitted, Abs format (unit mm)*
G04 Created by KiCad (PCBNEW (6.0.1)) date 2022-02-17 12:45:48*
%MOMM*%
%LPD*%
G01*
G04 APERTURE LIST*
G04 Aperture macros list*
%AMRoundRect*
0 Rectangle with rounded corners*
0 $1 Rounding radius*
0 $2 $3 $4 $5 $6 $7 $8 $9 X,Y pos of 4 corners*
0 Add a 4 corners polygon primitive as box body*
4,1,4,$2,$3,$4,$5,$6,$7,$8,$9,$2,$3,0*
0 Add four circle primitives for the rounded corners*
1,1,$1+$1,$2,$3*
1,1,$1+$1,$4,$5*
1,1,$1+$1,$6,$7*
1,1,$1+$1,$8,$9*
0 Add four rect primitives between the rounded corners*
20,1,$1+$1,$2,$3,$4,$5,0*
20,1,$1+$1,$4,$5,$6,$7,0*
20,1,$1+$1,$6,$7,$8,$9,0*
20,1,$1+$1,$8,$9,$2,$3,0*%
G04 Aperture macros list end*
%ADD10RoundRect,0.250000X0.450000X-0.262500X0.450000X0.262500X-0.450000X0.262500X-0.450000X-0.262500X0*%
%ADD11R,1.500000X4.000000*%
%ADD12R,1.905000X2.000000*%
%ADD13O,1.905000X2.000000*%
%ADD14RoundRect,0.250000X-0.450000X0.262500X-0.450000X-0.262500X0.450000X-0.262500X0.450000X0.262500X0*%
%ADD15C,2.200000*%
%ADD16RoundRect,0.218750X-0.218750X-0.381250X0.218750X-0.381250X0.218750X0.381250X-0.218750X0.381250X0*%
%ADD17RoundRect,0.243750X0.456250X-0.243750X0.456250X0.243750X-0.456250X0.243750X-0.456250X-0.243750X0*%
%ADD18C,1.270000*%
%ADD19RoundRect,0.250001X-0.499999X-0.759999X0.499999X-0.759999X0.499999X0.759999X-0.499999X0.759999X0*%
%ADD20O,1.500000X2.020000*%
%ADD21R,1.530000X1.530000*%
%ADD22C,1.530000*%
%ADD23RoundRect,0.250000X0.475000X-0.250000X0.475000X0.250000X-0.475000X0.250000X-0.475000X-0.250000X0*%
%ADD24RoundRect,0.250000X-0.475000X0.250000X-0.475000X-0.250000X0.475000X-0.250000X0.475000X0.250000X0*%
%ADD25RoundRect,0.250001X0.759999X-0.499999X0.759999X0.499999X-0.759999X0.499999X-0.759999X-0.499999X0*%
%ADD26O,2.020000X1.500000*%
%ADD27R,1.700000X1.700000*%
%ADD28O,1.700000X1.700000*%
%ADD29R,1.300000X1.700000*%
%ADD30RoundRect,0.150000X-0.150000X0.587500X-0.150000X-0.587500X0.150000X-0.587500X0.150000X0.587500X0*%
%ADD31C,4.800000*%
%ADD32C,1.950000*%
%ADD33C,4.000000*%
%ADD34R,1.800000X0.650000*%
%ADD35RoundRect,0.150000X0.150000X-0.512500X0.150000X0.512500X-0.150000X0.512500X-0.150000X-0.512500X0*%
%ADD36R,1.700000X1.300000*%
%ADD37RoundRect,0.250000X0.250000X0.475000X-0.250000X0.475000X-0.250000X-0.475000X0.250000X-0.475000X0*%
%ADD38R,1.500000X0.400000*%
%ADD39C,2.500000*%
%ADD40RoundRect,0.250000X0.625000X-0.312500X0.625000X0.312500X-0.625000X0.312500X-0.625000X-0.312500X0*%
%ADD41C,2.250000*%
%ADD42RoundRect,0.250000X-0.250000X-1.020000X0.250000X-1.020000X0.250000X1.020000X-0.250000X1.020000X0*%
%ADD43C,2.000000*%
G04 APERTURE END LIST*
D10*
%TO.C,R9*%
X79181789Y31964146D03*
X79181789Y33789146D03*
%TD*%
D11*
%TO.C,L1*%
X87609989Y58377346D03*
X84009989Y58377346D03*
%TD*%
D12*
%TO.C,Q1*%
X26774989Y74101120D03*
D13*
X24234989Y74101120D03*
X21694989Y74101120D03*
%TD*%
D14*
%TO.C,R21*%
X84497489Y76937346D03*
X84497489Y75112346D03*
%TD*%
D10*
%TO.C,R20*%
X87397489Y75107346D03*
X87397489Y76932346D03*
%TD*%
D15*
%TO.C,H3*%
X85034989Y25057346D03*
%TD*%
D16*
%TO.C,L2*%
X87132489Y66202346D03*
X89257489Y66202346D03*
%TD*%
%TO.C,L3*%
X87117489Y68112346D03*
X89242489Y68112346D03*
%TD*%
D10*
%TO.C,R19*%
X91952489Y76309846D03*
X91952489Y78134846D03*
%TD*%
D17*
%TO.C,LED1*%
X109649989Y6209846D03*
X109649989Y8084846D03*
%TD*%
D18*
%TO.C,J1*%
X90629989Y18127346D03*
X81629989Y18127346D03*
D19*
X84629989Y16167346D03*
D20*
X87629989Y16167346D03*
%TD*%
D21*
%TO.C,U1*%
X110384989Y16457346D03*
D22*
X110384989Y18997346D03*
X110384989Y21537346D03*
X110384989Y24077346D03*
X110384989Y26617346D03*
X110384989Y29157346D03*
X110384989Y31697346D03*
X110384989Y34237346D03*
X110384989Y36777346D03*
X110384989Y39317346D03*
X110384989Y41857346D03*
X110384989Y44397346D03*
X110384989Y46937346D03*
X110384989Y49477346D03*
X110384989Y52017346D03*
X95144989Y52017346D03*
X95144989Y49477346D03*
X95144989Y46937346D03*
X95144989Y44397346D03*
X95144989Y41857346D03*
X95144989Y39317346D03*
X95144989Y36777346D03*
X95144989Y34237346D03*
X95144989Y31697346D03*
X95144989Y29157346D03*
X95144989Y26617346D03*
X95144989Y24077346D03*
X95144989Y21537346D03*
X95144989Y18997346D03*
D21*
X95144989Y16457346D03*
%TD*%
D23*
%TO.C,C11*%
X107177489Y70622346D03*
X107177489Y72522346D03*
%TD*%
D24*
%TO.C,C8*%
X110157489Y68102346D03*
X110157489Y66202346D03*
%TD*%
D18*
%TO.C,J4*%
X68037489Y79002346D03*
X68037489Y64002346D03*
D25*
X69997489Y67002346D03*
D26*
X69997489Y70002346D03*
X69997489Y73002346D03*
X69997489Y76002346D03*
%TD*%
D10*
%TO.C,R16*%
X51294989Y73479846D03*
X51294989Y75304846D03*
%TD*%
D27*
%TO.C,JP1*%
X87917489Y80197346D03*
D28*
X85377489Y80197346D03*
%TD*%
D23*
%TO.C,C15*%
X91947489Y70617346D03*
X91947489Y72517346D03*
%TD*%
D12*
%TO.C,Q2*%
X21699989Y64441120D03*
D13*
X24239989Y64441120D03*
X26779989Y64441120D03*
%TD*%
D23*
%TO.C,C9*%
X107187489Y66197346D03*
X107187489Y68097346D03*
%TD*%
D10*
%TO.C,R6*%
X75199989Y56422346D03*
X75199989Y58247346D03*
%TD*%
D29*
%TO.C,D1*%
X45944989Y45927346D03*
X42444989Y45927346D03*
%TD*%
D23*
%TO.C,C13*%
X84447489Y66212346D03*
X84447489Y68112346D03*
%TD*%
D10*
%TO.C,R13*%
X60412489Y37501256D03*
X60412489Y39326256D03*
%TD*%
D15*
%TO.C,H1*%
X5024989Y68992346D03*
%TD*%
D23*
%TO.C,C4*%
X78159989Y56422346D03*
X78159989Y58322346D03*
%TD*%
D10*
%TO.C,R18*%
X48409989Y73464846D03*
X48409989Y75289846D03*
%TD*%
D30*
%TO.C,U7*%
X86202489Y72724846D03*
X84302489Y72724846D03*
X85252489Y70849846D03*
%TD*%
D31*
%TO.C,J2*%
X6919989Y29986120D03*
X45899989Y29986120D03*
D32*
X14979989Y32706120D03*
X14979989Y35246120D03*
X14979989Y40326120D03*
X22599989Y32706120D03*
X22599989Y35246120D03*
X22599989Y40326120D03*
X30219989Y32706120D03*
X30219989Y35246120D03*
X30219989Y40326120D03*
X37839989Y32706120D03*
X37839989Y35246120D03*
X37839989Y40326120D03*
%TD*%
D10*
%TO.C,R2*%
X106184989Y10604846D03*
X106184989Y12429846D03*
%TD*%
%TO.C,R5*%
X102779989Y10614846D03*
X102779989Y12439846D03*
%TD*%
D18*
%TO.C,J3*%
X76802489Y78992346D03*
X76802489Y63992346D03*
D25*
X78762489Y66992346D03*
D26*
X78762489Y69992346D03*
X78762489Y72992346D03*
X78762489Y75992346D03*
%TD*%
D33*
%TO.C,HS1*%
X36939989Y69251120D03*
X11539989Y69251120D03*
%TD*%
D23*
%TO.C,C12*%
X91947489Y66212346D03*
X91947489Y68112346D03*
%TD*%
D24*
%TO.C,C14*%
X88987489Y72522346D03*
X88987489Y70622346D03*
%TD*%
D34*
%TO.C,U6*%
X104262489Y66162346D03*
X104262489Y67432346D03*
X104262489Y68702346D03*
X104262489Y69972346D03*
X104262489Y71242346D03*
X104262489Y72512346D03*
X104262489Y73782346D03*
X104262489Y75052346D03*
X104262489Y76322346D03*
X104262489Y77592346D03*
X94812489Y77592346D03*
X94812489Y76322346D03*
X94812489Y75052346D03*
X94812489Y73782346D03*
X94812489Y72512346D03*
X94812489Y71242346D03*
X94812489Y69972346D03*
X94812489Y68702346D03*
X94812489Y67432346D03*
X94812489Y66162346D03*
%TD*%
D17*
%TO.C,LED3*%
X95969989Y6232346D03*
X95969989Y8107346D03*
%TD*%
D35*
%TO.C,U4*%
X63147489Y32496256D03*
X64097489Y32496256D03*
X65047489Y32496256D03*
X65047489Y34771256D03*
X64097489Y34771256D03*
X63147489Y34771256D03*
%TD*%
D14*
%TO.C,R8*%
X76291789Y33789146D03*
X76291789Y31964146D03*
%TD*%
D23*
%TO.C,C3*%
X81099989Y56402346D03*
X81099989Y58302346D03*
%TD*%
D17*
%TO.C,LED2*%
X106194989Y6209846D03*
X106194989Y8084846D03*
%TD*%
D36*
%TO.C,D2*%
X54342489Y32501256D03*
X54342489Y36001256D03*
%TD*%
D24*
%TO.C,C10*%
X110182489Y72527346D03*
X110182489Y70627346D03*
%TD*%
D10*
%TO.C,R15*%
X57454989Y37473756D03*
X57454989Y39298756D03*
%TD*%
D37*
%TO.C,C7*%
X55949989Y73854846D03*
X54049989Y73854846D03*
%TD*%
D38*
%TO.C,U3*%
X45289989Y48717346D03*
X45289989Y49367346D03*
X45289989Y50017346D03*
X42629989Y50017346D03*
X42629989Y49367346D03*
X42629989Y48717346D03*
%TD*%
D10*
%TO.C,R4*%
X99364989Y10627346D03*
X99364989Y12452346D03*
%TD*%
%TO.C,R7*%
X73391789Y31964146D03*
X73391789Y33789146D03*
%TD*%
D35*
%TO.C,U5*%
X54049989Y68692346D03*
X54999989Y68692346D03*
X55949989Y68692346D03*
X55949989Y70967346D03*
X54999989Y70967346D03*
X54049989Y70967346D03*
%TD*%
D10*
%TO.C,R22*%
X48439989Y68674846D03*
X48439989Y70499846D03*
%TD*%
D39*
%TO.C,F1*%
X30354989Y49381120D03*
X6254989Y49381120D03*
%TD*%
D40*
%TO.C,R12*%
X37944989Y47883620D03*
X37944989Y50808620D03*
%TD*%
D17*
%TO.C,LED5*%
X102789989Y6219846D03*
X102789989Y8094846D03*
%TD*%
D10*
%TO.C,R3*%
X95954989Y10627346D03*
X95954989Y12452346D03*
%TD*%
D37*
%TO.C,C6*%
X65037489Y37681256D03*
X63137489Y37681256D03*
%TD*%
D15*
%TO.C,H2*%
X110994989Y80967346D03*
%TD*%
D17*
%TO.C,LED6*%
X72289989Y56382346D03*
X72289989Y58257346D03*
%TD*%
D10*
%TO.C,R17*%
X51314989Y68669846D03*
X51314989Y70494846D03*
%TD*%
D14*
%TO.C,R10*%
X76276789Y29416646D03*
X76276789Y27591646D03*
%TD*%
D10*
%TO.C,R14*%
X60444989Y32498756D03*
X60444989Y34323756D03*
%TD*%
D18*
%TO.C,J5*%
X59305000Y72975000D03*
X59305000Y63975000D03*
D25*
X61265000Y66975000D03*
D26*
X61265000Y69975000D03*
%TD*%
D23*
%TO.C,C1*%
X98174989Y16482346D03*
X98174989Y18382346D03*
%TD*%
%TO.C,C2*%
X90549989Y56362346D03*
X90549989Y58262346D03*
%TD*%
D41*
%TO.C,SW2*%
X62653899Y5297346D03*
X57677899Y8170256D03*
X54804989Y13146256D03*
X54804989Y18892036D03*
X57677899Y23868036D03*
X62653899Y26740946D03*
X68399679Y26740946D03*
X73375679Y23868036D03*
X76248589Y18892036D03*
X76248589Y13146256D03*
X73375679Y8170256D03*
X68399679Y5297346D03*
X62963789Y13146256D03*
X62963779Y18892036D03*
X68089799Y18892036D03*
X68089799Y13146256D03*
%TD*%
D10*
%TO.C,R1*%
X109639989Y10604846D03*
X109639989Y12429846D03*
%TD*%
D42*
%TO.C,U2*%
X87964989Y52302346D03*
X85424989Y52302346D03*
X80344989Y52302346D03*
X80344989Y42142346D03*
X87964989Y42142346D03*
%TD*%
D10*
%TO.C,R11*%
X79196789Y27591646D03*
X79196789Y29416646D03*
%TD*%
D43*
%TO.C,SW1*%
X83444989Y4332346D03*
X89944989Y4332346D03*
X89944989Y8832346D03*
X83444989Y8832346D03*
%TD*%
D17*
%TO.C,LED4*%
X99374989Y6232346D03*
X99374989Y8107346D03*
%TD*%
D23*
%TO.C,C5*%
X48324989Y48732346D03*
X48324989Y50632346D03*
%TD*%
M02*
