%TF.GenerationSoftware,KiCad,Pcbnew,(6.0.1)*%
%TF.CreationDate,2022-02-02T09:53:03-06:00*%
%TF.ProjectId,IV Curve Tracer,49562043-7572-4766-9520-547261636572,1.2.0*%
%TF.SameCoordinates,Original*%
%TF.FileFunction,Soldermask,Bot*%
%TF.FilePolarity,Negative*%
%FSLAX46Y46*%
G04 Gerber Fmt 4.6, Leading zero omitted, Abs format (unit mm)*
G04 Created by KiCad (PCBNEW (6.0.1)) date 2022-02-02 09:53:03*
%MOMM*%
%LPD*%
G01*
G04 APERTURE LIST*
G04 Aperture macros list*
%AMRoundRect*
0 Rectangle with rounded corners*
0 $1 Rounding radius*
0 $2 $3 $4 $5 $6 $7 $8 $9 X,Y pos of 4 corners*
0 Add a 4 corners polygon primitive as box body*
4,1,4,$2,$3,$4,$5,$6,$7,$8,$9,$2,$3,0*
0 Add four circle primitives for the rounded corners*
1,1,$1+$1,$2,$3*
1,1,$1+$1,$4,$5*
1,1,$1+$1,$6,$7*
1,1,$1+$1,$8,$9*
0 Add four rect primitives between the rounded corners*
20,1,$1+$1,$2,$3,$4,$5,0*
20,1,$1+$1,$4,$5,$6,$7,0*
20,1,$1+$1,$6,$7,$8,$9,0*
20,1,$1+$1,$8,$9,$2,$3,0*%
G04 Aperture macros list end*
%ADD10R,1.905000X2.000000*%
%ADD11O,1.905000X2.000000*%
%ADD12C,2.200000*%
%ADD13C,1.270000*%
%ADD14RoundRect,0.250001X-0.499999X-0.759999X0.499999X-0.759999X0.499999X0.759999X-0.499999X0.759999X0*%
%ADD15O,1.500000X2.020000*%
%ADD16R,1.530000X1.530000*%
%ADD17C,1.530000*%
%ADD18RoundRect,0.250001X0.759999X-0.499999X0.759999X0.499999X-0.759999X0.499999X-0.759999X-0.499999X0*%
%ADD19O,2.020000X1.500000*%
%ADD20R,1.700000X1.700000*%
%ADD21O,1.700000X1.700000*%
%ADD22C,4.800000*%
%ADD23C,1.950000*%
%ADD24C,4.000000*%
%ADD25C,2.500000*%
%ADD26C,2.250000*%
%ADD27C,2.000000*%
%ADD28R,1.000000X1.000000*%
G04 APERTURE END LIST*
D10*
%TO.C,Q1*%
X41285000Y-79901226D03*
D11*
X38745000Y-79901226D03*
X36205000Y-79901226D03*
%TD*%
D12*
%TO.C,H3*%
X99545000Y-128945000D03*
%TD*%
D13*
%TO.C,J1*%
X105140000Y-135875000D03*
X96140000Y-135875000D03*
D14*
X99140000Y-137835000D03*
D15*
X102140000Y-137835000D03*
%TD*%
D16*
%TO.C,U1*%
X124895000Y-137545000D03*
D17*
X124895000Y-135005000D03*
X124895000Y-132465000D03*
X124895000Y-129925000D03*
X124895000Y-127385000D03*
X124895000Y-124845000D03*
X124895000Y-122305000D03*
X124895000Y-119765000D03*
X124895000Y-117225000D03*
X124895000Y-114685000D03*
X124895000Y-112145000D03*
X124895000Y-109605000D03*
X124895000Y-107065000D03*
X124895000Y-104525000D03*
X124895000Y-101985000D03*
X109655000Y-101985000D03*
X109655000Y-104525000D03*
X109655000Y-107065000D03*
X109655000Y-109605000D03*
X109655000Y-112145000D03*
X109655000Y-114685000D03*
X109655000Y-117225000D03*
X109655000Y-119765000D03*
X109655000Y-122305000D03*
X109655000Y-124845000D03*
X109655000Y-127385000D03*
X109655000Y-129925000D03*
X109655000Y-132465000D03*
X109655000Y-135005000D03*
D16*
X109655000Y-137545000D03*
%TD*%
D13*
%TO.C,J4*%
X82547500Y-75000000D03*
X82547500Y-90000000D03*
D18*
X84507500Y-87000000D03*
D19*
X84507500Y-84000000D03*
X84507500Y-81000000D03*
X84507500Y-78000000D03*
%TD*%
D20*
%TO.C,JP1*%
X102427500Y-73805000D03*
D21*
X99887500Y-73805000D03*
%TD*%
D10*
%TO.C,Q2*%
X36210000Y-89561226D03*
D11*
X38750000Y-89561226D03*
X41290000Y-89561226D03*
%TD*%
D12*
%TO.C,H1*%
X19535000Y-85010000D03*
%TD*%
D22*
%TO.C,J2*%
X21430000Y-124016226D03*
X60410000Y-124016226D03*
D23*
X29490000Y-121296226D03*
X29490000Y-118756226D03*
X29490000Y-113676226D03*
X37110000Y-121296226D03*
X37110000Y-118756226D03*
X37110000Y-113676226D03*
X44730000Y-121296226D03*
X44730000Y-118756226D03*
X44730000Y-113676226D03*
X52350000Y-121296226D03*
X52350000Y-118756226D03*
X52350000Y-113676226D03*
%TD*%
D13*
%TO.C,J3*%
X91312500Y-75010000D03*
X91312500Y-90010000D03*
D18*
X93272500Y-87010000D03*
D19*
X93272500Y-84010000D03*
X93272500Y-81010000D03*
X93272500Y-78010000D03*
%TD*%
D24*
%TO.C,HS1*%
X51450000Y-84751226D03*
X26050000Y-84751226D03*
%TD*%
D25*
%TO.C,F1*%
X44865000Y-104621226D03*
X20765000Y-104621226D03*
%TD*%
D12*
%TO.C,H2*%
X125505000Y-73035000D03*
%TD*%
D26*
%TO.C,SW2*%
X77163910Y-148705000D03*
X72187910Y-145832090D03*
X69315000Y-140856090D03*
X69315000Y-135110310D03*
X72187910Y-130134310D03*
X77163910Y-127261400D03*
X82909690Y-127261400D03*
X87885690Y-130134310D03*
X90758600Y-135110310D03*
X90758600Y-140856090D03*
X87885690Y-145832090D03*
X82909690Y-148705000D03*
X77473800Y-140856090D03*
X77473790Y-135110310D03*
X82599810Y-135110310D03*
X82599810Y-140856090D03*
%TD*%
D27*
%TO.C,SW1*%
X97955000Y-149670000D03*
X104455000Y-149670000D03*
X104455000Y-145170000D03*
X97955000Y-145170000D03*
%TD*%
D28*
%TO.C,TP12*%
X63115000Y-85327500D03*
%TD*%
%TO.C,TP17*%
X111952500Y-81290000D03*
%TD*%
%TO.C,TP14*%
X124697500Y-79030000D03*
%TD*%
%TO.C,TP3*%
X112385000Y-104520000D03*
%TD*%
%TO.C,TP15*%
X111947500Y-87305000D03*
%TD*%
%TO.C,TP13*%
X121697500Y-79040000D03*
%TD*%
%TO.C,TP18*%
X111952500Y-85300000D03*
%TD*%
%TO.C,TP4*%
X122150000Y-129925000D03*
%TD*%
%TO.C,TP5*%
X92690000Y-97595000D03*
%TD*%
%TO.C,TP7*%
X50540000Y-106126226D03*
%TD*%
%TO.C,TP2*%
X112390000Y-129935000D03*
%TD*%
%TO.C,TP16*%
X111952500Y-83295000D03*
%TD*%
%TO.C,TP19*%
X89297500Y-81005000D03*
%TD*%
%TO.C,TP10*%
X71952500Y-121486090D03*
%TD*%
%TO.C,TP9*%
X80025000Y-127740000D03*
%TD*%
%TO.C,TP1*%
X112695000Y-137545000D03*
%TD*%
%TO.C,TP6*%
X50545000Y-103201226D03*
%TD*%
%TO.C,TP20*%
X89292500Y-78005000D03*
%TD*%
%TO.C,TP11*%
X72970000Y-85297500D03*
%TD*%
%TO.C,TP8*%
X60720000Y-103316226D03*
%TD*%
M02*
