%TF.GenerationSoftware,KiCad,Pcbnew,(6.0.1)*%
%TF.CreationDate,2022-02-17T12:45:48-06:00*%
%TF.ProjectId,IV Curve Tracer,49562043-7572-4766-9520-547261636572,1.2.0*%
%TF.SameCoordinates,PX1b50300PY6843e50*%
%TF.FileFunction,Legend,Top*%
%TF.FilePolarity,Positive*%
%FSLAX46Y46*%
G04 Gerber Fmt 4.6, Leading zero omitted, Abs format (unit mm)*
G04 Created by KiCad (PCBNEW (6.0.1)) date 2022-02-17 12:45:48*
%MOMM*%
%LPD*%
G01*
G04 APERTURE LIST*
G04 Aperture macros list*
%AMRoundRect*
0 Rectangle with rounded corners*
0 $1 Rounding radius*
0 $2 $3 $4 $5 $6 $7 $8 $9 X,Y pos of 4 corners*
0 Add a 4 corners polygon primitive as box body*
4,1,4,$2,$3,$4,$5,$6,$7,$8,$9,$2,$3,0*
0 Add four circle primitives for the rounded corners*
1,1,$1+$1,$2,$3*
1,1,$1+$1,$4,$5*
1,1,$1+$1,$6,$7*
1,1,$1+$1,$8,$9*
0 Add four rect primitives between the rounded corners*
20,1,$1+$1,$2,$3,$4,$5,0*
20,1,$1+$1,$4,$5,$6,$7,0*
20,1,$1+$1,$6,$7,$8,$9,0*
20,1,$1+$1,$8,$9,$2,$3,0*%
G04 Aperture macros list end*
%ADD10C,0.120000*%
%ADD11C,0.200000*%
%ADD12C,0.150000*%
%ADD13C,0.300000*%
%ADD14C,0.015000*%
%ADD15C,0.254000*%
%ADD16C,0.127000*%
%ADD17C,0.100000*%
%ADD18C,0.152400*%
%ADD19RoundRect,0.250000X0.450000X-0.262500X0.450000X0.262500X-0.450000X0.262500X-0.450000X-0.262500X0*%
%ADD20R,1.500000X4.000000*%
%ADD21R,1.905000X2.000000*%
%ADD22O,1.905000X2.000000*%
%ADD23RoundRect,0.250000X-0.450000X0.262500X-0.450000X-0.262500X0.450000X-0.262500X0.450000X0.262500X0*%
%ADD24C,2.200000*%
%ADD25RoundRect,0.218750X-0.218750X-0.381250X0.218750X-0.381250X0.218750X0.381250X-0.218750X0.381250X0*%
%ADD26RoundRect,0.243750X0.456250X-0.243750X0.456250X0.243750X-0.456250X0.243750X-0.456250X-0.243750X0*%
%ADD27C,1.270000*%
%ADD28RoundRect,0.250001X-0.499999X-0.759999X0.499999X-0.759999X0.499999X0.759999X-0.499999X0.759999X0*%
%ADD29O,1.500000X2.020000*%
%ADD30R,1.530000X1.530000*%
%ADD31C,1.530000*%
%ADD32RoundRect,0.250000X0.475000X-0.250000X0.475000X0.250000X-0.475000X0.250000X-0.475000X-0.250000X0*%
%ADD33RoundRect,0.250000X-0.475000X0.250000X-0.475000X-0.250000X0.475000X-0.250000X0.475000X0.250000X0*%
%ADD34RoundRect,0.250001X0.759999X-0.499999X0.759999X0.499999X-0.759999X0.499999X-0.759999X-0.499999X0*%
%ADD35O,2.020000X1.500000*%
%ADD36R,1.700000X1.700000*%
%ADD37O,1.700000X1.700000*%
%ADD38R,1.300000X1.700000*%
%ADD39RoundRect,0.150000X-0.150000X0.587500X-0.150000X-0.587500X0.150000X-0.587500X0.150000X0.587500X0*%
%ADD40C,4.800000*%
%ADD41C,1.950000*%
%ADD42C,4.000000*%
%ADD43R,1.800000X0.650000*%
%ADD44RoundRect,0.150000X0.150000X-0.512500X0.150000X0.512500X-0.150000X0.512500X-0.150000X-0.512500X0*%
%ADD45R,1.700000X1.300000*%
%ADD46RoundRect,0.250000X0.250000X0.475000X-0.250000X0.475000X-0.250000X-0.475000X0.250000X-0.475000X0*%
%ADD47R,1.500000X0.400000*%
%ADD48C,2.500000*%
%ADD49RoundRect,0.250000X0.625000X-0.312500X0.625000X0.312500X-0.625000X0.312500X-0.625000X-0.312500X0*%
%ADD50C,2.250000*%
%ADD51RoundRect,0.250000X-0.250000X-1.020000X0.250000X-1.020000X0.250000X1.020000X-0.250000X1.020000X0*%
%ADD52C,2.000000*%
G04 APERTURE END LIST*
D10*
X19024989Y11537346D02*
X19024989Y3527346D01*
X33774989Y11567346D02*
X33774989Y3557346D01*
X26729989Y11537346D02*
X26729989Y3527346D01*
D11*
X54468560Y58463775D02*
X53754274Y58463775D01*
X53754274Y59963775D01*
X54968560Y58463775D02*
X54968560Y59963775D01*
X54968560Y59249489D02*
X55825703Y59249489D01*
X55825703Y58463775D02*
X55825703Y59963775D01*
X57397131Y58463775D02*
X56897131Y59178061D01*
X56539989Y58463775D02*
X56539989Y59963775D01*
X57111417Y59963775D01*
X57254274Y59892346D01*
X57325703Y59820918D01*
X57397131Y59678061D01*
X57397131Y59463775D01*
X57325703Y59320918D01*
X57254274Y59249489D01*
X57111417Y59178061D01*
X56539989Y59178061D01*
X59111417Y58535204D02*
X59325703Y58463775D01*
X59682846Y58463775D01*
X59825703Y58535204D01*
X59897131Y58606632D01*
X59968560Y58749489D01*
X59968560Y58892346D01*
X59897131Y59035204D01*
X59825703Y59106632D01*
X59682846Y59178061D01*
X59397131Y59249489D01*
X59254274Y59320918D01*
X59182846Y59392346D01*
X59111417Y59535204D01*
X59111417Y59678061D01*
X59182846Y59820918D01*
X59254274Y59892346D01*
X59397131Y59963775D01*
X59754274Y59963775D01*
X59968560Y59892346D01*
X60825703Y58463775D02*
X60682846Y58535204D01*
X60611417Y58606632D01*
X60539989Y58749489D01*
X60539989Y59178061D01*
X60611417Y59320918D01*
X60682846Y59392346D01*
X60825703Y59463775D01*
X61039989Y59463775D01*
X61182846Y59392346D01*
X61254274Y59320918D01*
X61325703Y59178061D01*
X61325703Y58749489D01*
X61254274Y58606632D01*
X61182846Y58535204D01*
X61039989Y58463775D01*
X60825703Y58463775D01*
X62182846Y58463775D02*
X62039989Y58535204D01*
X61968560Y58678061D01*
X61968560Y59963775D01*
X63397131Y58463775D02*
X63397131Y59249489D01*
X63325703Y59392346D01*
X63182846Y59463775D01*
X62897131Y59463775D01*
X62754274Y59392346D01*
X63397131Y58535204D02*
X63254274Y58463775D01*
X62897131Y58463775D01*
X62754274Y58535204D01*
X62682846Y58678061D01*
X62682846Y58820918D01*
X62754274Y58963775D01*
X62897131Y59035204D01*
X63254274Y59035204D01*
X63397131Y59106632D01*
X64111417Y58463775D02*
X64111417Y59463775D01*
X64111417Y59178061D02*
X64182846Y59320918D01*
X64254274Y59392346D01*
X64397131Y59463775D01*
X64539989Y59463775D01*
X50289989Y56048775D02*
X50289989Y57548775D01*
X50861417Y57548775D01*
X51004274Y57477346D01*
X51075703Y57405918D01*
X51147131Y57263061D01*
X51147131Y57048775D01*
X51075703Y56905918D01*
X51004274Y56834489D01*
X50861417Y56763061D01*
X50289989Y56763061D01*
X51575703Y57548775D02*
X52075703Y56048775D01*
X52575703Y57548775D01*
X55075703Y56191632D02*
X55004274Y56120204D01*
X54789989Y56048775D01*
X54647131Y56048775D01*
X54432846Y56120204D01*
X54289989Y56263061D01*
X54218560Y56405918D01*
X54147131Y56691632D01*
X54147131Y56905918D01*
X54218560Y57191632D01*
X54289989Y57334489D01*
X54432846Y57477346D01*
X54647131Y57548775D01*
X54789989Y57548775D01*
X55004274Y57477346D01*
X55075703Y57405918D01*
X56361417Y57048775D02*
X56361417Y56048775D01*
X55718560Y57048775D02*
X55718560Y56263061D01*
X55789989Y56120204D01*
X55932846Y56048775D01*
X56147131Y56048775D01*
X56289989Y56120204D01*
X56361417Y56191632D01*
X57075703Y56048775D02*
X57075703Y57048775D01*
X57075703Y56763061D02*
X57147131Y56905918D01*
X57218560Y56977346D01*
X57361417Y57048775D01*
X57504274Y57048775D01*
X57861417Y57048775D02*
X58218560Y56048775D01*
X58575703Y57048775D01*
X59718560Y56120204D02*
X59575703Y56048775D01*
X59289989Y56048775D01*
X59147131Y56120204D01*
X59075703Y56263061D01*
X59075703Y56834489D01*
X59147131Y56977346D01*
X59289989Y57048775D01*
X59575703Y57048775D01*
X59718560Y56977346D01*
X59789989Y56834489D01*
X59789989Y56691632D01*
X59075703Y56548775D01*
X61361417Y57548775D02*
X62218560Y57548775D01*
X61789989Y56048775D02*
X61789989Y57548775D01*
X62718560Y56048775D02*
X62718560Y57048775D01*
X62718560Y56763061D02*
X62789989Y56905918D01*
X62861417Y56977346D01*
X63004274Y57048775D01*
X63147131Y57048775D01*
X64289989Y56048775D02*
X64289989Y56834489D01*
X64218560Y56977346D01*
X64075703Y57048775D01*
X63789989Y57048775D01*
X63647131Y56977346D01*
X64289989Y56120204D02*
X64147131Y56048775D01*
X63789989Y56048775D01*
X63647131Y56120204D01*
X63575703Y56263061D01*
X63575703Y56405918D01*
X63647131Y56548775D01*
X63789989Y56620204D01*
X64147131Y56620204D01*
X64289989Y56691632D01*
X65647131Y56120204D02*
X65504274Y56048775D01*
X65218560Y56048775D01*
X65075703Y56120204D01*
X65004274Y56191632D01*
X64932846Y56334489D01*
X64932846Y56763061D01*
X65004274Y56905918D01*
X65075703Y56977346D01*
X65218560Y57048775D01*
X65504274Y57048775D01*
X65647131Y56977346D01*
X66861417Y56120204D02*
X66718560Y56048775D01*
X66432846Y56048775D01*
X66289989Y56120204D01*
X66218560Y56263061D01*
X66218560Y56834489D01*
X66289989Y56977346D01*
X66432846Y57048775D01*
X66718560Y57048775D01*
X66861417Y56977346D01*
X66932846Y56834489D01*
X66932846Y56691632D01*
X66218560Y56548775D01*
X67575703Y56048775D02*
X67575703Y57048775D01*
X67575703Y56763061D02*
X67647131Y56905918D01*
X67718560Y56977346D01*
X67861417Y57048775D01*
X68004274Y57048775D01*
X55825703Y54633775D02*
X56182846Y53633775D01*
X56539989Y54633775D01*
X57897131Y53633775D02*
X57039989Y53633775D01*
X57468560Y53633775D02*
X57468560Y55133775D01*
X57325703Y54919489D01*
X57182846Y54776632D01*
X57039989Y54705204D01*
X58539989Y53776632D02*
X58611417Y53705204D01*
X58539989Y53633775D01*
X58468560Y53705204D01*
X58539989Y53776632D01*
X58539989Y53633775D01*
X59182846Y54990918D02*
X59254274Y55062346D01*
X59397131Y55133775D01*
X59754274Y55133775D01*
X59897131Y55062346D01*
X59968560Y54990918D01*
X60039989Y54848061D01*
X60039989Y54705204D01*
X59968560Y54490918D01*
X59111417Y53633775D01*
X60039989Y53633775D01*
X60682846Y53776632D02*
X60754274Y53705204D01*
X60682846Y53633775D01*
X60611417Y53705204D01*
X60682846Y53776632D01*
X60682846Y53633775D01*
X61682846Y55133775D02*
X61825703Y55133775D01*
X61968560Y55062346D01*
X62039989Y54990918D01*
X62111417Y54848061D01*
X62182846Y54562346D01*
X62182846Y54205204D01*
X62111417Y53919489D01*
X62039989Y53776632D01*
X61968560Y53705204D01*
X61825703Y53633775D01*
X61682846Y53633775D01*
X61539989Y53705204D01*
X61468560Y53776632D01*
X61397131Y53919489D01*
X61325703Y54205204D01*
X61325703Y54562346D01*
X61397131Y54848061D01*
X61468560Y54990918D01*
X61539989Y55062346D01*
X61682846Y55133775D01*
X52325703Y51290204D02*
X52539989Y51218775D01*
X52897131Y51218775D01*
X53039989Y51290204D01*
X53111417Y51361632D01*
X53182846Y51504489D01*
X53182846Y51647346D01*
X53111417Y51790204D01*
X53039989Y51861632D01*
X52897131Y51933061D01*
X52611417Y52004489D01*
X52468560Y52075918D01*
X52397131Y52147346D01*
X52325703Y52290204D01*
X52325703Y52433061D01*
X52397131Y52575918D01*
X52468560Y52647346D01*
X52611417Y52718775D01*
X52968560Y52718775D01*
X53182846Y52647346D01*
X53825703Y52218775D02*
X53825703Y50718775D01*
X53825703Y52147346D02*
X53968560Y52218775D01*
X54254274Y52218775D01*
X54397131Y52147346D01*
X54468560Y52075918D01*
X54539989Y51933061D01*
X54539989Y51504489D01*
X54468560Y51361632D01*
X54397131Y51290204D01*
X54254274Y51218775D01*
X53968560Y51218775D01*
X53825703Y51290204D01*
X55182846Y51218775D02*
X55182846Y52218775D01*
X55182846Y51933061D02*
X55254274Y52075918D01*
X55325703Y52147346D01*
X55468560Y52218775D01*
X55611417Y52218775D01*
X56111417Y51218775D02*
X56111417Y52218775D01*
X56111417Y52718775D02*
X56039989Y52647346D01*
X56111417Y52575918D01*
X56182846Y52647346D01*
X56111417Y52718775D01*
X56111417Y52575918D01*
X56825703Y52218775D02*
X56825703Y51218775D01*
X56825703Y52075918D02*
X56897131Y52147346D01*
X57039989Y52218775D01*
X57254274Y52218775D01*
X57397131Y52147346D01*
X57468560Y52004489D01*
X57468560Y51218775D01*
X58825703Y52218775D02*
X58825703Y51004489D01*
X58754274Y50861632D01*
X58682846Y50790204D01*
X58539989Y50718775D01*
X58325703Y50718775D01*
X58182846Y50790204D01*
X58825703Y51290204D02*
X58682846Y51218775D01*
X58397131Y51218775D01*
X58254274Y51290204D01*
X58182846Y51361632D01*
X58111417Y51504489D01*
X58111417Y51933061D01*
X58182846Y52075918D01*
X58254274Y52147346D01*
X58397131Y52218775D01*
X58682846Y52218775D01*
X58825703Y52147346D01*
X60611417Y52575918D02*
X60682846Y52647346D01*
X60825703Y52718775D01*
X61182846Y52718775D01*
X61325703Y52647346D01*
X61397131Y52575918D01*
X61468560Y52433061D01*
X61468560Y52290204D01*
X61397131Y52075918D01*
X60539989Y51218775D01*
X61468560Y51218775D01*
X62397131Y52718775D02*
X62539989Y52718775D01*
X62682846Y52647346D01*
X62754274Y52575918D01*
X62825703Y52433061D01*
X62897131Y52147346D01*
X62897131Y51790204D01*
X62825703Y51504489D01*
X62754274Y51361632D01*
X62682846Y51290204D01*
X62539989Y51218775D01*
X62397131Y51218775D01*
X62254274Y51290204D01*
X62182846Y51361632D01*
X62111417Y51504489D01*
X62039989Y51790204D01*
X62039989Y52147346D01*
X62111417Y52433061D01*
X62182846Y52575918D01*
X62254274Y52647346D01*
X62397131Y52718775D01*
X63468560Y52575918D02*
X63539989Y52647346D01*
X63682846Y52718775D01*
X64039989Y52718775D01*
X64182846Y52647346D01*
X64254274Y52575918D01*
X64325703Y52433061D01*
X64325703Y52290204D01*
X64254274Y52075918D01*
X63397131Y51218775D01*
X64325703Y51218775D01*
X64897131Y52575918D02*
X64968560Y52647346D01*
X65111417Y52718775D01*
X65468560Y52718775D01*
X65611417Y52647346D01*
X65682846Y52575918D01*
X65754274Y52433061D01*
X65754274Y52290204D01*
X65682846Y52075918D01*
X64825703Y51218775D01*
X65754274Y51218775D01*
X50575703Y49518061D02*
X50575703Y48803775D01*
X50075703Y50303775D02*
X50575703Y49518061D01*
X51075703Y50303775D01*
X51789989Y48803775D02*
X51647131Y48875204D01*
X51575703Y48946632D01*
X51504274Y49089489D01*
X51504274Y49518061D01*
X51575703Y49660918D01*
X51647131Y49732346D01*
X51789989Y49803775D01*
X52004274Y49803775D01*
X52147131Y49732346D01*
X52218560Y49660918D01*
X52289989Y49518061D01*
X52289989Y49089489D01*
X52218560Y48946632D01*
X52147131Y48875204D01*
X52004274Y48803775D01*
X51789989Y48803775D01*
X53575703Y49803775D02*
X53575703Y48803775D01*
X52932846Y49803775D02*
X52932846Y49018061D01*
X53004274Y48875204D01*
X53147131Y48803775D01*
X53361417Y48803775D01*
X53504274Y48875204D01*
X53575703Y48946632D01*
X54218560Y48875204D02*
X54361417Y48803775D01*
X54647131Y48803775D01*
X54789989Y48875204D01*
X54861417Y49018061D01*
X54861417Y49089489D01*
X54789989Y49232346D01*
X54647131Y49303775D01*
X54432846Y49303775D01*
X54289989Y49375204D01*
X54218560Y49518061D01*
X54218560Y49589489D01*
X54289989Y49732346D01*
X54432846Y49803775D01*
X54647131Y49803775D01*
X54789989Y49732346D01*
X55432846Y48875204D02*
X55575703Y48803775D01*
X55861417Y48803775D01*
X56004274Y48875204D01*
X56075703Y49018061D01*
X56075703Y49089489D01*
X56004274Y49232346D01*
X55861417Y49303775D01*
X55647131Y49303775D01*
X55504274Y49375204D01*
X55432846Y49518061D01*
X55432846Y49589489D01*
X55504274Y49732346D01*
X55647131Y49803775D01*
X55861417Y49803775D01*
X56004274Y49732346D01*
X57289989Y48875204D02*
X57147131Y48803775D01*
X56861417Y48803775D01*
X56718560Y48875204D01*
X56647131Y49018061D01*
X56647131Y49589489D01*
X56718560Y49732346D01*
X56861417Y49803775D01*
X57147131Y49803775D01*
X57289989Y49732346D01*
X57361417Y49589489D01*
X57361417Y49446632D01*
X56647131Y49303775D01*
X57789989Y49803775D02*
X58361417Y49803775D01*
X58004274Y48803775D02*
X58004274Y50089489D01*
X58075703Y50232346D01*
X58218560Y50303775D01*
X58361417Y50303775D01*
X60004274Y49589489D02*
X60504274Y49589489D01*
X60718560Y48803775D02*
X60004274Y48803775D01*
X60004274Y50303775D01*
X60718560Y50303775D01*
X61575703Y48803775D02*
X61432846Y48875204D01*
X61361417Y49018061D01*
X61361417Y50303775D01*
X62075703Y48875204D02*
X62218560Y48803775D01*
X62504274Y48803775D01*
X62647131Y48875204D01*
X62718560Y49018061D01*
X62718560Y49089489D01*
X62647131Y49232346D01*
X62504274Y49303775D01*
X62289989Y49303775D01*
X62147131Y49375204D01*
X62075703Y49518061D01*
X62075703Y49589489D01*
X62147131Y49732346D01*
X62289989Y49803775D01*
X62504274Y49803775D01*
X62647131Y49732346D01*
X63361417Y48803775D02*
X63361417Y50303775D01*
X64004274Y48803775D02*
X64004274Y49589489D01*
X63932846Y49732346D01*
X63789989Y49803775D01*
X63575703Y49803775D01*
X63432846Y49732346D01*
X63361417Y49660918D01*
X65289989Y48875204D02*
X65147131Y48803775D01*
X64861417Y48803775D01*
X64718560Y48875204D01*
X64647131Y49018061D01*
X64647131Y49589489D01*
X64718560Y49732346D01*
X64861417Y49803775D01*
X65147131Y49803775D01*
X65289989Y49732346D01*
X65361417Y49589489D01*
X65361417Y49446632D01*
X64647131Y49303775D01*
X66004274Y48803775D02*
X66004274Y49803775D01*
X66004274Y49518061D02*
X66075703Y49660918D01*
X66147131Y49732346D01*
X66289989Y49803775D01*
X66432846Y49803775D01*
X66932846Y48803775D02*
X66932846Y49803775D01*
X66932846Y50303775D02*
X66861417Y50232346D01*
X66932846Y50160918D01*
X67004274Y50232346D01*
X66932846Y50303775D01*
X66932846Y50160918D01*
X67432846Y49803775D02*
X68004274Y49803775D01*
X67647131Y48803775D02*
X67647131Y50089489D01*
X67718560Y50232346D01*
X67861417Y50303775D01*
X68004274Y50303775D01*
X52968560Y47817346D02*
X52825703Y47888775D01*
X52611417Y47888775D01*
X52397131Y47817346D01*
X52254274Y47674489D01*
X52182846Y47531632D01*
X52111417Y47245918D01*
X52111417Y47031632D01*
X52182846Y46745918D01*
X52254274Y46603061D01*
X52397131Y46460204D01*
X52611417Y46388775D01*
X52754274Y46388775D01*
X52968560Y46460204D01*
X53039989Y46531632D01*
X53039989Y47031632D01*
X52754274Y47031632D01*
X54325703Y46388775D02*
X54325703Y47174489D01*
X54254274Y47317346D01*
X54111417Y47388775D01*
X53825703Y47388775D01*
X53682846Y47317346D01*
X54325703Y46460204D02*
X54182846Y46388775D01*
X53825703Y46388775D01*
X53682846Y46460204D01*
X53611417Y46603061D01*
X53611417Y46745918D01*
X53682846Y46888775D01*
X53825703Y46960204D01*
X54182846Y46960204D01*
X54325703Y47031632D01*
X55039989Y46388775D02*
X55039989Y47388775D01*
X55039989Y47103061D02*
X55111417Y47245918D01*
X55182846Y47317346D01*
X55325703Y47388775D01*
X55468560Y47388775D01*
X55825703Y47388775D02*
X56182846Y46388775D01*
X56539989Y47388775D02*
X56182846Y46388775D01*
X56039989Y46031632D01*
X55968560Y45960204D01*
X55825703Y45888775D01*
X58254274Y46388775D02*
X58254274Y47888775D01*
X58254274Y47174489D02*
X59111417Y47174489D01*
X59111417Y46388775D02*
X59111417Y47888775D01*
X60468560Y46388775D02*
X60468560Y47174489D01*
X60397131Y47317346D01*
X60254274Y47388775D01*
X59968560Y47388775D01*
X59825703Y47317346D01*
X60468560Y46460204D02*
X60325703Y46388775D01*
X59968560Y46388775D01*
X59825703Y46460204D01*
X59754274Y46603061D01*
X59754274Y46745918D01*
X59825703Y46888775D01*
X59968560Y46960204D01*
X60325703Y46960204D01*
X60468560Y47031632D01*
X61397131Y46388775D02*
X61254274Y46460204D01*
X61182846Y46603061D01*
X61182846Y47888775D01*
X62182846Y46388775D02*
X62039989Y46460204D01*
X61968560Y46603061D01*
X61968560Y47888775D01*
X62968560Y46388775D02*
X62825703Y46460204D01*
X62754274Y46531632D01*
X62682846Y46674489D01*
X62682846Y47103061D01*
X62754274Y47245918D01*
X62825703Y47317346D01*
X62968560Y47388775D01*
X63182846Y47388775D01*
X63325703Y47317346D01*
X63397131Y47245918D01*
X63468560Y47103061D01*
X63468560Y46674489D01*
X63397131Y46531632D01*
X63325703Y46460204D01*
X63182846Y46388775D01*
X62968560Y46388775D01*
X64754274Y46460204D02*
X64611417Y46388775D01*
X64325703Y46388775D01*
X64182846Y46460204D01*
X64111417Y46531632D01*
X64039989Y46674489D01*
X64039989Y47103061D01*
X64111417Y47245918D01*
X64182846Y47317346D01*
X64325703Y47388775D01*
X64611417Y47388775D01*
X64754274Y47317346D01*
X65397131Y46388775D02*
X65397131Y47888775D01*
X65539989Y46960204D02*
X65968560Y46388775D01*
X65968560Y47388775D02*
X65397131Y46817346D01*
X53004274Y43973775D02*
X53004274Y45473775D01*
X53504274Y44402346D01*
X54004274Y45473775D01*
X54004274Y43973775D01*
X55361417Y43973775D02*
X55361417Y44759489D01*
X55289989Y44902346D01*
X55147131Y44973775D01*
X54861417Y44973775D01*
X54718560Y44902346D01*
X55361417Y44045204D02*
X55218560Y43973775D01*
X54861417Y43973775D01*
X54718560Y44045204D01*
X54647131Y44188061D01*
X54647131Y44330918D01*
X54718560Y44473775D01*
X54861417Y44545204D01*
X55218560Y44545204D01*
X55361417Y44616632D01*
X55861417Y44973775D02*
X56432846Y44973775D01*
X56075703Y45473775D02*
X56075703Y44188061D01*
X56147131Y44045204D01*
X56289989Y43973775D01*
X56432846Y43973775D01*
X56718560Y44973775D02*
X57289989Y44973775D01*
X56932846Y45473775D02*
X56932846Y44188061D01*
X57004274Y44045204D01*
X57147131Y43973775D01*
X57289989Y43973775D01*
X57789989Y43973775D02*
X57789989Y45473775D01*
X58432846Y43973775D02*
X58432846Y44759489D01*
X58361417Y44902346D01*
X58218560Y44973775D01*
X58004274Y44973775D01*
X57861417Y44902346D01*
X57789989Y44830918D01*
X59718560Y44045204D02*
X59575703Y43973775D01*
X59289989Y43973775D01*
X59147131Y44045204D01*
X59075703Y44188061D01*
X59075703Y44759489D01*
X59147131Y44902346D01*
X59289989Y44973775D01*
X59575703Y44973775D01*
X59718560Y44902346D01*
X59789989Y44759489D01*
X59789989Y44616632D01*
X59075703Y44473775D01*
X60289989Y44973775D02*
X60575703Y43973775D01*
X60861417Y44688061D01*
X61147131Y43973775D01*
X61432846Y44973775D01*
X63432846Y44688061D02*
X63432846Y43973775D01*
X62932846Y45473775D02*
X63432846Y44688061D01*
X63932846Y45473775D01*
X65075703Y44973775D02*
X65075703Y43973775D01*
X64432846Y44973775D02*
X64432846Y44188061D01*
X64504274Y44045204D01*
X64647131Y43973775D01*
X64861417Y43973775D01*
X65004274Y44045204D01*
X65075703Y44116632D01*
D12*
X50234750Y7530680D02*
X50710941Y7530680D01*
X50139512Y7244966D02*
X50472846Y8244966D01*
X50806179Y7244966D01*
X51710941Y7244966D02*
X51377608Y7721156D01*
X51139512Y7244966D02*
X51139512Y8244966D01*
X51520465Y8244966D01*
X51615703Y8197346D01*
X51663322Y8149727D01*
X51710941Y8054489D01*
X51710941Y7911632D01*
X51663322Y7816394D01*
X51615703Y7768775D01*
X51520465Y7721156D01*
X51139512Y7721156D01*
X52710941Y7244966D02*
X52377608Y7721156D01*
X52139512Y7244966D02*
X52139512Y8244966D01*
X52520465Y8244966D01*
X52615703Y8197346D01*
X52663322Y8149727D01*
X52710941Y8054489D01*
X52710941Y7911632D01*
X52663322Y7816394D01*
X52615703Y7768775D01*
X52520465Y7721156D01*
X52139512Y7721156D01*
X53091893Y7530680D02*
X53568084Y7530680D01*
X52996655Y7244966D02*
X53329989Y8244966D01*
X53663322Y7244966D01*
X54187131Y7721156D02*
X54187131Y7244966D01*
X53853798Y8244966D02*
X54187131Y7721156D01*
X54520465Y8244966D01*
X96687131Y43844966D02*
X96687131Y44844966D01*
X97258560Y43844966D01*
X97258560Y44844966D01*
X97734750Y44844966D02*
X97734750Y44035442D01*
X97782369Y43940204D01*
X97829989Y43892585D01*
X97925227Y43844966D01*
X98115703Y43844966D01*
X98210941Y43892585D01*
X98258560Y43940204D01*
X98306179Y44035442D01*
X98306179Y44844966D01*
X99353798Y43940204D02*
X99306179Y43892585D01*
X99163322Y43844966D01*
X99068084Y43844966D01*
X98925227Y43892585D01*
X98829989Y43987823D01*
X98782369Y44083061D01*
X98734750Y44273537D01*
X98734750Y44416394D01*
X98782369Y44606870D01*
X98829989Y44702108D01*
X98925227Y44797346D01*
X99068084Y44844966D01*
X99163322Y44844966D01*
X99306179Y44797346D01*
X99353798Y44749727D01*
X100258560Y43844966D02*
X99782369Y43844966D01*
X99782369Y44844966D01*
X100591893Y44368775D02*
X100925227Y44368775D01*
X101068084Y43844966D02*
X100591893Y43844966D01*
X100591893Y44844966D01*
X101068084Y44844966D01*
X101687131Y44844966D02*
X101877608Y44844966D01*
X101972846Y44797346D01*
X102068084Y44702108D01*
X102115703Y44511632D01*
X102115703Y44178299D01*
X102068084Y43987823D01*
X101972846Y43892585D01*
X101877608Y43844966D01*
X101687131Y43844966D01*
X101591893Y43892585D01*
X101496655Y43987823D01*
X101449036Y44178299D01*
X101449036Y44511632D01*
X101496655Y44702108D01*
X101591893Y44797346D01*
X101687131Y44844966D01*
X102544274Y44225918D02*
X103306179Y44225918D01*
X104258560Y43844966D02*
X103782369Y43844966D01*
X103782369Y44844966D01*
X105020465Y44511632D02*
X105020465Y43844966D01*
X104782369Y44892585D02*
X104544274Y44178299D01*
X105163322Y44178299D01*
X105449036Y44844966D02*
X106068084Y44844966D01*
X105734750Y44464013D01*
X105877608Y44464013D01*
X105972846Y44416394D01*
X106020465Y44368775D01*
X106068084Y44273537D01*
X106068084Y44035442D01*
X106020465Y43940204D01*
X105972846Y43892585D01*
X105877608Y43844966D01*
X105591893Y43844966D01*
X105496655Y43892585D01*
X105449036Y43940204D01*
X106449036Y44749727D02*
X106496655Y44797346D01*
X106591893Y44844966D01*
X106829989Y44844966D01*
X106925227Y44797346D01*
X106972846Y44749727D01*
X107020465Y44654489D01*
X107020465Y44559251D01*
X106972846Y44416394D01*
X106401417Y43844966D01*
X107020465Y43844966D01*
X107449036Y43844966D02*
X107449036Y44844966D01*
X108020465Y43844966D02*
X107591893Y44416394D01*
X108020465Y44844966D02*
X107449036Y44273537D01*
X109020465Y43940204D02*
X108972846Y43892585D01*
X108829989Y43844966D01*
X108734750Y43844966D01*
X108591893Y43892585D01*
X108496655Y43987823D01*
X108449036Y44083061D01*
X108401417Y44273537D01*
X108401417Y44416394D01*
X108449036Y44606870D01*
X108496655Y44702108D01*
X108591893Y44797346D01*
X108734750Y44844966D01*
X108829989Y44844966D01*
X108972846Y44797346D01*
X109020465Y44749727D01*
X63059989Y31260204D02*
X63107608Y31212585D01*
X63059989Y31164966D01*
X63012369Y31212585D01*
X63059989Y31260204D01*
X63059989Y31164966D01*
X82154989Y3265204D02*
X82202608Y3217585D01*
X82154989Y3169966D01*
X82107369Y3217585D01*
X82154989Y3265204D01*
X82154989Y3169966D01*
X54069989Y67380204D02*
X54117608Y67332585D01*
X54069989Y67284966D01*
X54022369Y67332585D01*
X54069989Y67380204D01*
X54069989Y67284966D01*
X39678084Y68839966D02*
X39678084Y69839966D01*
X39678084Y69363775D02*
X40249512Y69363775D01*
X40249512Y68839966D02*
X40249512Y69839966D01*
X40916179Y69839966D02*
X41106655Y69839966D01*
X41201893Y69792346D01*
X41297131Y69697108D01*
X41344750Y69506632D01*
X41344750Y69173299D01*
X41297131Y68982823D01*
X41201893Y68887585D01*
X41106655Y68839966D01*
X40916179Y68839966D01*
X40820941Y68887585D01*
X40725703Y68982823D01*
X40678084Y69173299D01*
X40678084Y69506632D01*
X40725703Y69697108D01*
X40820941Y69792346D01*
X40916179Y69839966D01*
X41630465Y69839966D02*
X42201893Y69839966D01*
X41916179Y68839966D02*
X41916179Y69839966D01*
X43582846Y68459013D02*
X43535227Y68506632D01*
X43439989Y68649489D01*
X43392369Y68744727D01*
X43344750Y68887585D01*
X43297131Y69125680D01*
X43297131Y69316156D01*
X43344750Y69554251D01*
X43392369Y69697108D01*
X43439989Y69792346D01*
X43535227Y69935204D01*
X43582846Y69982823D01*
X43963798Y68839966D02*
X43963798Y69839966D01*
X44201893Y69839966D01*
X44344750Y69792346D01*
X44439989Y69697108D01*
X44487608Y69601870D01*
X44535227Y69411394D01*
X44535227Y69268537D01*
X44487608Y69078061D01*
X44439989Y68982823D01*
X44344750Y68887585D01*
X44201893Y68839966D01*
X43963798Y68839966D01*
X45154274Y69839966D02*
X45344750Y69839966D01*
X45439989Y69792346D01*
X45535227Y69697108D01*
X45582846Y69506632D01*
X45582846Y69173299D01*
X45535227Y68982823D01*
X45439989Y68887585D01*
X45344750Y68839966D01*
X45154274Y68839966D01*
X45059036Y68887585D01*
X44963798Y68982823D01*
X44916179Y69173299D01*
X44916179Y69506632D01*
X44963798Y69697108D01*
X45059036Y69792346D01*
X45154274Y69839966D01*
X46535227Y69792346D02*
X46439989Y69839966D01*
X46297131Y69839966D01*
X46154274Y69792346D01*
X46059036Y69697108D01*
X46011417Y69601870D01*
X45963798Y69411394D01*
X45963798Y69268537D01*
X46011417Y69078061D01*
X46059036Y68982823D01*
X46154274Y68887585D01*
X46297131Y68839966D01*
X46392369Y68839966D01*
X46535227Y68887585D01*
X46582846Y68935204D01*
X46582846Y69268537D01*
X46392369Y69268537D01*
X46916179Y68459013D02*
X46963798Y68506632D01*
X47059036Y68649489D01*
X47106655Y68744727D01*
X47154274Y68887585D01*
X47201893Y69125680D01*
X47201893Y69316156D01*
X47154274Y69554251D01*
X47106655Y69697108D01*
X47059036Y69792346D01*
X46963798Y69935204D01*
X46916179Y69982823D01*
X110152369Y864727D02*
X109152369Y864727D01*
X109628560Y864727D02*
X109628560Y1436156D01*
X110152369Y1436156D02*
X109152369Y1436156D01*
X110152369Y2483775D02*
X109676179Y2150442D01*
X110152369Y1912346D02*
X109152369Y1912346D01*
X109152369Y2293299D01*
X109199989Y2388537D01*
X109247608Y2436156D01*
X109342846Y2483775D01*
X109485703Y2483775D01*
X109580941Y2436156D01*
X109628560Y2388537D01*
X109676179Y2293299D01*
X109676179Y1912346D01*
X109152369Y2769489D02*
X109152369Y3340918D01*
X110152369Y3055204D02*
X109152369Y3055204D01*
X109628560Y4007585D02*
X109676179Y4150442D01*
X109723798Y4198061D01*
X109819036Y4245680D01*
X109961893Y4245680D01*
X110057131Y4198061D01*
X110104750Y4150442D01*
X110152369Y4055204D01*
X110152369Y3674251D01*
X109152369Y3674251D01*
X109152369Y4007585D01*
X109199989Y4102823D01*
X109247608Y4150442D01*
X109342846Y4198061D01*
X109438084Y4198061D01*
X109533322Y4150442D01*
X109580941Y4102823D01*
X109628560Y4007585D01*
X109628560Y3674251D01*
X109152369Y4531394D02*
X109152369Y5102823D01*
X110152369Y4817108D02*
X109152369Y4817108D01*
D11*
X37263560Y10102704D02*
X38406417Y10102704D01*
X35370703Y8616275D02*
X35870703Y7116275D01*
X36370703Y8616275D01*
X37156417Y8616275D02*
X37442131Y8616275D01*
X37584989Y8544846D01*
X37727846Y8401989D01*
X37799274Y8116275D01*
X37799274Y7616275D01*
X37727846Y7330561D01*
X37584989Y7187704D01*
X37442131Y7116275D01*
X37156417Y7116275D01*
X37013560Y7187704D01*
X36870703Y7330561D01*
X36799274Y7616275D01*
X36799274Y8116275D01*
X36870703Y8401989D01*
X37013560Y8544846D01*
X37156417Y8616275D01*
X39156417Y7116275D02*
X38442131Y7116275D01*
X38442131Y8616275D01*
X39442131Y8616275D02*
X40299274Y8616275D01*
X39870703Y7116275D02*
X39870703Y8616275D01*
D12*
X45617846Y48262346D02*
X45570227Y48214727D01*
X45522608Y48262346D01*
X45570227Y48309966D01*
X45617846Y48262346D01*
X45522608Y48262346D01*
D11*
X14343560Y10162704D02*
X15486417Y10162704D01*
X14914989Y9591275D02*
X14914989Y10734132D01*
X12450703Y8676275D02*
X12950703Y7176275D01*
X13450703Y8676275D01*
X14236417Y8676275D02*
X14522131Y8676275D01*
X14664989Y8604846D01*
X14807846Y8461989D01*
X14879274Y8176275D01*
X14879274Y7676275D01*
X14807846Y7390561D01*
X14664989Y7247704D01*
X14522131Y7176275D01*
X14236417Y7176275D01*
X14093560Y7247704D01*
X13950703Y7390561D01*
X13879274Y7676275D01*
X13879274Y8176275D01*
X13950703Y8461989D01*
X14093560Y8604846D01*
X14236417Y8676275D01*
X16236417Y7176275D02*
X15522131Y7176275D01*
X15522131Y8676275D01*
X16522131Y8676275D02*
X17379274Y8676275D01*
X16950703Y7176275D02*
X16950703Y8676275D01*
D12*
X70395703Y54455918D02*
X71157608Y54455918D01*
X70776655Y54074966D02*
X70776655Y54836870D01*
X71681417Y54074966D02*
X71871893Y54074966D01*
X71967131Y54122585D01*
X72014750Y54170204D01*
X72109989Y54313061D01*
X72157608Y54503537D01*
X72157608Y54884489D01*
X72109989Y54979727D01*
X72062369Y55027346D01*
X71967131Y55074966D01*
X71776655Y55074966D01*
X71681417Y55027346D01*
X71633798Y54979727D01*
X71586179Y54884489D01*
X71586179Y54646394D01*
X71633798Y54551156D01*
X71681417Y54503537D01*
X71776655Y54455918D01*
X71967131Y54455918D01*
X72062369Y54503537D01*
X72109989Y54551156D01*
X72157608Y54646394D01*
X72443322Y55074966D02*
X72776655Y54074966D01*
X73109989Y55074966D01*
X73395703Y54360680D02*
X73871893Y54360680D01*
X73300465Y54074966D02*
X73633798Y55074966D01*
X73967131Y54074966D01*
X63274989Y1980204D02*
X63322608Y1932585D01*
X63274989Y1884966D01*
X63227369Y1932585D01*
X63274989Y1980204D01*
X63274989Y1884966D01*
X2847369Y45894966D02*
X1847369Y45894966D01*
X1847369Y46275918D01*
X1894989Y46371156D01*
X1942608Y46418775D01*
X2037846Y46466394D01*
X2180703Y46466394D01*
X2275941Y46418775D01*
X2323560Y46371156D01*
X2371179Y46275918D01*
X2371179Y45894966D01*
X2752131Y47466394D02*
X2799750Y47418775D01*
X2847369Y47275918D01*
X2847369Y47180680D01*
X2799750Y47037823D01*
X2704512Y46942585D01*
X2609274Y46894966D01*
X2418798Y46847346D01*
X2275941Y46847346D01*
X2085465Y46894966D01*
X1990227Y46942585D01*
X1894989Y47037823D01*
X1847369Y47180680D01*
X1847369Y47275918D01*
X1894989Y47418775D01*
X1942608Y47466394D01*
X2323560Y48228299D02*
X2371179Y48371156D01*
X2418798Y48418775D01*
X2514036Y48466394D01*
X2656893Y48466394D01*
X2752131Y48418775D01*
X2799750Y48371156D01*
X2847369Y48275918D01*
X2847369Y47894966D01*
X1847369Y47894966D01*
X1847369Y48228299D01*
X1894989Y48323537D01*
X1942608Y48371156D01*
X2037846Y48418775D01*
X2133084Y48418775D01*
X2228322Y48371156D01*
X2275941Y48323537D01*
X2323560Y48228299D01*
X2323560Y47894966D01*
X2847369Y49656870D02*
X2180703Y49656870D01*
X2371179Y49656870D02*
X2275941Y49704489D01*
X2228322Y49752108D01*
X2180703Y49847346D01*
X2180703Y49942585D01*
X2847369Y50704489D02*
X2323560Y50704489D01*
X2228322Y50656870D01*
X2180703Y50561632D01*
X2180703Y50371156D01*
X2228322Y50275918D01*
X2799750Y50704489D02*
X2847369Y50609251D01*
X2847369Y50371156D01*
X2799750Y50275918D01*
X2704512Y50228299D01*
X2609274Y50228299D01*
X2514036Y50275918D01*
X2466417Y50371156D01*
X2466417Y50609251D01*
X2418798Y50704489D01*
X2180703Y51037823D02*
X2180703Y51418775D01*
X1847369Y51180680D02*
X2704512Y51180680D01*
X2799750Y51228299D01*
X2847369Y51323537D01*
X2847369Y51418775D01*
X2799750Y52133061D02*
X2847369Y52037823D01*
X2847369Y51847346D01*
X2799750Y51752108D01*
X2704512Y51704489D01*
X2323560Y51704489D01*
X2228322Y51752108D01*
X2180703Y51847346D01*
X2180703Y52037823D01*
X2228322Y52133061D01*
X2323560Y52180680D01*
X2418798Y52180680D01*
X2514036Y51704489D01*
X2847369Y53037823D02*
X1847369Y53037823D01*
X2799750Y53037823D02*
X2847369Y52942585D01*
X2847369Y52752108D01*
X2799750Y52656870D01*
X2752131Y52609251D01*
X2656893Y52561632D01*
X2371179Y52561632D01*
X2275941Y52609251D01*
X2228322Y52656870D01*
X2180703Y52752108D01*
X2180703Y52942585D01*
X2228322Y53037823D01*
X3790703Y47609251D02*
X3790703Y47990204D01*
X4457369Y47752108D02*
X3600227Y47752108D01*
X3504989Y47799727D01*
X3457369Y47894966D01*
X3457369Y47990204D01*
X4457369Y48466394D02*
X4409750Y48371156D01*
X4362131Y48323537D01*
X4266893Y48275918D01*
X3981179Y48275918D01*
X3885941Y48323537D01*
X3838322Y48371156D01*
X3790703Y48466394D01*
X3790703Y48609251D01*
X3838322Y48704489D01*
X3885941Y48752108D01*
X3981179Y48799727D01*
X4266893Y48799727D01*
X4362131Y48752108D01*
X4409750Y48704489D01*
X4457369Y48609251D01*
X4457369Y48466394D01*
X4457369Y49228299D02*
X3790703Y49228299D01*
X3981179Y49228299D02*
X3885941Y49275918D01*
X3838322Y49323537D01*
X3790703Y49418775D01*
X3790703Y49514013D01*
X3885941Y50752108D02*
X3838322Y50656870D01*
X3790703Y50609251D01*
X3695465Y50561632D01*
X3647846Y50561632D01*
X3552608Y50609251D01*
X3504989Y50656870D01*
X3457369Y50752108D01*
X3457369Y50942585D01*
X3504989Y51037823D01*
X3552608Y51085442D01*
X3647846Y51133061D01*
X3695465Y51133061D01*
X3790703Y51085442D01*
X3838322Y51037823D01*
X3885941Y50942585D01*
X3885941Y50752108D01*
X3933560Y50656870D01*
X3981179Y50609251D01*
X4076417Y50561632D01*
X4266893Y50561632D01*
X4362131Y50609251D01*
X4409750Y50656870D01*
X4457369Y50752108D01*
X4457369Y50942585D01*
X4409750Y51037823D01*
X4362131Y51085442D01*
X4266893Y51133061D01*
X4076417Y51133061D01*
X3981179Y51085442D01*
X3933560Y51037823D01*
X3885941Y50942585D01*
X4171655Y51514013D02*
X4171655Y51990204D01*
X4457369Y51418775D02*
X3457369Y51752108D01*
X4457369Y52085442D01*
X59527608Y1650204D02*
X59479989Y1602585D01*
X59337131Y1554966D01*
X59241893Y1554966D01*
X59099036Y1602585D01*
X59003798Y1697823D01*
X58956179Y1793061D01*
X58908560Y1983537D01*
X58908560Y2126394D01*
X58956179Y2316870D01*
X59003798Y2412108D01*
X59099036Y2507346D01*
X59241893Y2554966D01*
X59337131Y2554966D01*
X59479989Y2507346D01*
X59527608Y2459727D01*
X59956179Y2078775D02*
X60289512Y2078775D01*
X60432369Y1554966D02*
X59956179Y1554966D01*
X59956179Y2554966D01*
X60432369Y2554966D01*
X61337131Y1554966D02*
X60860941Y1554966D01*
X60860941Y2554966D01*
X62146655Y1554966D02*
X61670465Y1554966D01*
X61670465Y2554966D01*
X21424989Y62255204D02*
X21472608Y62207585D01*
X21424989Y62159966D01*
X21377369Y62207585D01*
X21424989Y62255204D01*
X21424989Y62159966D01*
X106634750Y1119251D02*
X106682369Y1262108D01*
X106682369Y1500204D01*
X106634750Y1595442D01*
X106587131Y1643061D01*
X106491893Y1690680D01*
X106396655Y1690680D01*
X106301417Y1643061D01*
X106253798Y1595442D01*
X106206179Y1500204D01*
X106158560Y1309727D01*
X106110941Y1214489D01*
X106063322Y1166870D01*
X105968084Y1119251D01*
X105872846Y1119251D01*
X105777608Y1166870D01*
X105729989Y1214489D01*
X105682369Y1309727D01*
X105682369Y1547823D01*
X105729989Y1690680D01*
X106587131Y2690680D02*
X106634750Y2643061D01*
X106682369Y2500204D01*
X106682369Y2404966D01*
X106634750Y2262108D01*
X106539512Y2166870D01*
X106444274Y2119251D01*
X106253798Y2071632D01*
X106110941Y2071632D01*
X105920465Y2119251D01*
X105825227Y2166870D01*
X105729989Y2262108D01*
X105682369Y2404966D01*
X105682369Y2500204D01*
X105729989Y2643061D01*
X105777608Y2690680D01*
X106396655Y3071632D02*
X106396655Y3547823D01*
X106682369Y2976394D02*
X105682369Y3309727D01*
X106682369Y3643061D01*
X106682369Y3976394D02*
X105682369Y3976394D01*
X106682369Y4547823D01*
X105682369Y4547823D01*
X102658560Y1593061D02*
X102658560Y1926394D01*
X103182369Y2069251D02*
X103182369Y1593061D01*
X102182369Y1593061D01*
X102182369Y2069251D01*
X103182369Y3069251D02*
X102706179Y2735918D01*
X103182369Y2497823D02*
X102182369Y2497823D01*
X102182369Y2878775D01*
X102229989Y2974013D01*
X102277608Y3021632D01*
X102372846Y3069251D01*
X102515703Y3069251D01*
X102610941Y3021632D01*
X102658560Y2974013D01*
X102706179Y2878775D01*
X102706179Y2497823D01*
X103182369Y4069251D02*
X102706179Y3735918D01*
X103182369Y3497823D02*
X102182369Y3497823D01*
X102182369Y3878775D01*
X102229989Y3974013D01*
X102277608Y4021632D01*
X102372846Y4069251D01*
X102515703Y4069251D01*
X102610941Y4021632D01*
X102658560Y3974013D01*
X102706179Y3878775D01*
X102706179Y3497823D01*
X85392608Y1249966D02*
X85059274Y1726156D01*
X84821179Y1249966D02*
X84821179Y2249966D01*
X85202131Y2249966D01*
X85297369Y2202346D01*
X85344989Y2154727D01*
X85392608Y2059489D01*
X85392608Y1916632D01*
X85344989Y1821394D01*
X85297369Y1773775D01*
X85202131Y1726156D01*
X84821179Y1726156D01*
X85821179Y1773775D02*
X86154512Y1773775D01*
X86297369Y1249966D02*
X85821179Y1249966D01*
X85821179Y2249966D01*
X86297369Y2249966D01*
X86678322Y1297585D02*
X86821179Y1249966D01*
X87059274Y1249966D01*
X87154512Y1297585D01*
X87202131Y1345204D01*
X87249750Y1440442D01*
X87249750Y1535680D01*
X87202131Y1630918D01*
X87154512Y1678537D01*
X87059274Y1726156D01*
X86868798Y1773775D01*
X86773560Y1821394D01*
X86725941Y1869013D01*
X86678322Y1964251D01*
X86678322Y2059489D01*
X86725941Y2154727D01*
X86773560Y2202346D01*
X86868798Y2249966D01*
X87106893Y2249966D01*
X87249750Y2202346D01*
X87678322Y1773775D02*
X88011655Y1773775D01*
X88154512Y1249966D02*
X87678322Y1249966D01*
X87678322Y2249966D01*
X88154512Y2249966D01*
X88440227Y2249966D02*
X89011655Y2249966D01*
X88725941Y1249966D02*
X88725941Y2249966D01*
X89520941Y12669966D02*
X89711417Y12669966D01*
X89806655Y12717585D01*
X89854274Y12765204D01*
X89949512Y12908061D01*
X89997131Y13098537D01*
X89997131Y13479489D01*
X89949512Y13574727D01*
X89901893Y13622346D01*
X89806655Y13669966D01*
X89616179Y13669966D01*
X89520941Y13622346D01*
X89473322Y13574727D01*
X89425703Y13479489D01*
X89425703Y13241394D01*
X89473322Y13146156D01*
X89520941Y13098537D01*
X89616179Y13050918D01*
X89806655Y13050918D01*
X89901893Y13098537D01*
X89949512Y13146156D01*
X89997131Y13241394D01*
X90282846Y13669966D02*
X90616179Y12669966D01*
X90949512Y13669966D01*
X58081190Y75953572D02*
X58843095Y75953572D01*
X58462142Y75572620D02*
X58462142Y76334524D01*
X59366904Y75572620D02*
X59557380Y75572620D01*
X59652619Y75620239D01*
X59700238Y75667858D01*
X59795476Y75810715D01*
X59843095Y76001191D01*
X59843095Y76382143D01*
X59795476Y76477381D01*
X59747857Y76525000D01*
X59652619Y76572620D01*
X59462142Y76572620D01*
X59366904Y76525000D01*
X59319285Y76477381D01*
X59271666Y76382143D01*
X59271666Y76144048D01*
X59319285Y76048810D01*
X59366904Y76001191D01*
X59462142Y75953572D01*
X59652619Y75953572D01*
X59747857Y76001191D01*
X59795476Y76048810D01*
X59843095Y76144048D01*
X60128809Y76572620D02*
X60462142Y75572620D01*
X60795476Y76572620D01*
X61081190Y75858334D02*
X61557380Y75858334D01*
X60985952Y75572620D02*
X61319285Y76572620D01*
X61652619Y75572620D01*
X62938333Y76572620D02*
X63128809Y76572620D01*
X63224047Y76525000D01*
X63319285Y76429762D01*
X63366904Y76239286D01*
X63366904Y75905953D01*
X63319285Y75715477D01*
X63224047Y75620239D01*
X63128809Y75572620D01*
X62938333Y75572620D01*
X62843095Y75620239D01*
X62747857Y75715477D01*
X62700238Y75905953D01*
X62700238Y76239286D01*
X62747857Y76429762D01*
X62843095Y76525000D01*
X62938333Y76572620D01*
X63795476Y76572620D02*
X63795476Y75763096D01*
X63843095Y75667858D01*
X63890714Y75620239D01*
X63985952Y75572620D01*
X64176428Y75572620D01*
X64271666Y75620239D01*
X64319285Y75667858D01*
X64366904Y75763096D01*
X64366904Y76572620D01*
X64700238Y76572620D02*
X65271666Y76572620D01*
X64985952Y75572620D02*
X64985952Y76572620D01*
X87329989Y72725204D02*
X87377608Y72677585D01*
X87329989Y72629966D01*
X87282369Y72677585D01*
X87329989Y72725204D01*
X87329989Y72629966D01*
X104264989Y65145204D02*
X104312608Y65097585D01*
X104264989Y65049966D01*
X104217369Y65097585D01*
X104264989Y65145204D01*
X104264989Y65049966D01*
X52021893Y3924966D02*
X52021893Y4924966D01*
X52355227Y4210680D01*
X52688560Y4924966D01*
X52688560Y3924966D01*
X53355227Y4924966D02*
X53545703Y4924966D01*
X53640941Y4877346D01*
X53736179Y4782108D01*
X53783798Y4591632D01*
X53783798Y4258299D01*
X53736179Y4067823D01*
X53640941Y3972585D01*
X53545703Y3924966D01*
X53355227Y3924966D01*
X53259989Y3972585D01*
X53164750Y4067823D01*
X53117131Y4258299D01*
X53117131Y4591632D01*
X53164750Y4782108D01*
X53259989Y4877346D01*
X53355227Y4924966D01*
X54212369Y3924966D02*
X54212369Y4924966D01*
X54450465Y4924966D01*
X54593322Y4877346D01*
X54688560Y4782108D01*
X54736179Y4686870D01*
X54783798Y4496394D01*
X54783798Y4353537D01*
X54736179Y4163061D01*
X54688560Y4067823D01*
X54593322Y3972585D01*
X54450465Y3924966D01*
X54212369Y3924966D01*
X55212369Y4924966D02*
X55212369Y4115442D01*
X55259989Y4020204D01*
X55307608Y3972585D01*
X55402846Y3924966D01*
X55593322Y3924966D01*
X55688560Y3972585D01*
X55736179Y4020204D01*
X55783798Y4115442D01*
X55783798Y4924966D01*
X56736179Y3924966D02*
X56259989Y3924966D01*
X56259989Y4924966D01*
X57069512Y4448775D02*
X57402846Y4448775D01*
X57545703Y3924966D02*
X57069512Y3924966D01*
X57069512Y4924966D01*
X57545703Y4924966D01*
X26859989Y76170204D02*
X26907608Y76122585D01*
X26859989Y76074966D01*
X26812369Y76122585D01*
X26859989Y76170204D01*
X26859989Y76074966D01*
X99717131Y1257346D02*
X99764750Y1209727D01*
X99812369Y1066870D01*
X99812369Y971632D01*
X99764750Y828775D01*
X99669512Y733537D01*
X99574274Y685918D01*
X99383798Y638299D01*
X99240941Y638299D01*
X99050465Y685918D01*
X98955227Y733537D01*
X98859989Y828775D01*
X98812369Y971632D01*
X98812369Y1066870D01*
X98859989Y1209727D01*
X98907608Y1257346D01*
X99526655Y1638299D02*
X99526655Y2114489D01*
X99812369Y1543061D02*
X98812369Y1876394D01*
X99812369Y2209727D01*
X99812369Y2543061D02*
X98812369Y2543061D01*
X99812369Y3114489D01*
X98812369Y3114489D01*
X98812369Y3447823D02*
X98812369Y4019251D01*
X99812369Y3733537D02*
X98812369Y3733537D01*
X98812369Y4257346D02*
X99812369Y4924013D01*
X98812369Y4924013D02*
X99812369Y4257346D01*
X81414989Y67060204D02*
X81462608Y67012585D01*
X81414989Y66964966D01*
X81367369Y67012585D01*
X81414989Y67060204D01*
X81414989Y66964966D01*
X89339989Y52340204D02*
X89387608Y52292585D01*
X89339989Y52244966D01*
X89292369Y52292585D01*
X89339989Y52340204D01*
X89339989Y52244966D01*
X96247131Y1113299D02*
X96294750Y1065680D01*
X96342369Y922823D01*
X96342369Y827585D01*
X96294750Y684727D01*
X96199512Y589489D01*
X96104274Y541870D01*
X95913798Y494251D01*
X95770941Y494251D01*
X95580465Y541870D01*
X95485227Y589489D01*
X95389989Y684727D01*
X95342369Y827585D01*
X95342369Y922823D01*
X95389989Y1065680D01*
X95437608Y1113299D01*
X96056655Y1494251D02*
X96056655Y1970442D01*
X96342369Y1399013D02*
X95342369Y1732346D01*
X96342369Y2065680D01*
X96342369Y2399013D02*
X95342369Y2399013D01*
X96342369Y2970442D01*
X95342369Y2970442D01*
X96342369Y4018061D02*
X95866179Y3684727D01*
X96342369Y3446632D02*
X95342369Y3446632D01*
X95342369Y3827585D01*
X95389989Y3922823D01*
X95437608Y3970442D01*
X95532846Y4018061D01*
X95675703Y4018061D01*
X95770941Y3970442D01*
X95818560Y3922823D01*
X95866179Y3827585D01*
X95866179Y3446632D01*
X95342369Y4351394D02*
X96342369Y5018061D01*
X95342369Y5018061D02*
X96342369Y4351394D01*
X32186655Y53454966D02*
X32186655Y54454966D01*
X32424750Y54454966D01*
X32567608Y54407346D01*
X32662846Y54312108D01*
X32710465Y54216870D01*
X32758084Y54026394D01*
X32758084Y53883537D01*
X32710465Y53693061D01*
X32662846Y53597823D01*
X32567608Y53502585D01*
X32424750Y53454966D01*
X32186655Y53454966D01*
X33139036Y53740680D02*
X33615227Y53740680D01*
X33043798Y53454966D02*
X33377131Y54454966D01*
X33710465Y53454966D01*
X34043798Y53454966D02*
X34043798Y54454966D01*
X34615227Y53454966D01*
X34615227Y54454966D01*
X35615227Y54407346D02*
X35519989Y54454966D01*
X35377131Y54454966D01*
X35234274Y54407346D01*
X35139036Y54312108D01*
X35091417Y54216870D01*
X35043798Y54026394D01*
X35043798Y53883537D01*
X35091417Y53693061D01*
X35139036Y53597823D01*
X35234274Y53502585D01*
X35377131Y53454966D01*
X35472369Y53454966D01*
X35615227Y53502585D01*
X35662846Y53550204D01*
X35662846Y53883537D01*
X35472369Y53883537D01*
X36091417Y53978775D02*
X36424750Y53978775D01*
X36567608Y53454966D02*
X36091417Y53454966D01*
X36091417Y54454966D01*
X36567608Y54454966D01*
X37567608Y53454966D02*
X37234274Y53931156D01*
X36996179Y53454966D02*
X36996179Y54454966D01*
X37377131Y54454966D01*
X37472369Y54407346D01*
X37519989Y54359727D01*
X37567608Y54264489D01*
X37567608Y54121632D01*
X37519989Y54026394D01*
X37472369Y53978775D01*
X37377131Y53931156D01*
X36996179Y53931156D01*
X37996179Y53550204D02*
X38043798Y53502585D01*
X37996179Y53454966D01*
X37948560Y53502585D01*
X37996179Y53550204D01*
X37996179Y53454966D01*
X37996179Y54074013D02*
X38043798Y54026394D01*
X37996179Y53978775D01*
X37948560Y54026394D01*
X37996179Y54074013D01*
X37996179Y53978775D01*
X39234274Y53454966D02*
X39234274Y54454966D01*
X39234274Y53978775D02*
X39805703Y53978775D01*
X39805703Y53454966D02*
X39805703Y54454966D01*
X40281893Y53454966D02*
X40281893Y54454966D01*
X41281893Y54407346D02*
X41186655Y54454966D01*
X41043798Y54454966D01*
X40900941Y54407346D01*
X40805703Y54312108D01*
X40758084Y54216870D01*
X40710465Y54026394D01*
X40710465Y53883537D01*
X40758084Y53693061D01*
X40805703Y53597823D01*
X40900941Y53502585D01*
X41043798Y53454966D01*
X41139036Y53454966D01*
X41281893Y53502585D01*
X41329512Y53550204D01*
X41329512Y53883537D01*
X41139036Y53883537D01*
X41758084Y53454966D02*
X41758084Y54454966D01*
X41758084Y53978775D02*
X42329512Y53978775D01*
X42329512Y53454966D02*
X42329512Y54454966D01*
X44139036Y53550204D02*
X44091417Y53502585D01*
X43948560Y53454966D01*
X43853322Y53454966D01*
X43710465Y53502585D01*
X43615227Y53597823D01*
X43567608Y53693061D01*
X43519989Y53883537D01*
X43519989Y54026394D01*
X43567608Y54216870D01*
X43615227Y54312108D01*
X43710465Y54407346D01*
X43853322Y54454966D01*
X43948560Y54454966D01*
X44091417Y54407346D01*
X44139036Y54359727D01*
X44567608Y54454966D02*
X44567608Y53645442D01*
X44615227Y53550204D01*
X44662846Y53502585D01*
X44758084Y53454966D01*
X44948560Y53454966D01*
X45043798Y53502585D01*
X45091417Y53550204D01*
X45139036Y53645442D01*
X45139036Y54454966D01*
X46186655Y53454966D02*
X45853322Y53931156D01*
X45615227Y53454966D02*
X45615227Y54454966D01*
X45996179Y54454966D01*
X46091417Y54407346D01*
X46139036Y54359727D01*
X46186655Y54264489D01*
X46186655Y54121632D01*
X46139036Y54026394D01*
X46091417Y53978775D01*
X45996179Y53931156D01*
X45615227Y53931156D01*
X47186655Y53454966D02*
X46853322Y53931156D01*
X46615227Y53454966D02*
X46615227Y54454966D01*
X46996179Y54454966D01*
X47091417Y54407346D01*
X47139036Y54359727D01*
X47186655Y54264489D01*
X47186655Y54121632D01*
X47139036Y54026394D01*
X47091417Y53978775D01*
X46996179Y53931156D01*
X46615227Y53931156D01*
X47615227Y53978775D02*
X47948560Y53978775D01*
X48091417Y53454966D02*
X47615227Y53454966D01*
X47615227Y54454966D01*
X48091417Y54454966D01*
X48519989Y53454966D02*
X48519989Y54454966D01*
X49091417Y53454966D01*
X49091417Y54454966D01*
X49424750Y54454966D02*
X49996179Y54454966D01*
X49710465Y53454966D02*
X49710465Y54454966D01*
X72724989Y67060204D02*
X72772608Y67012585D01*
X72724989Y66964966D01*
X72677369Y67012585D01*
X72724989Y67060204D01*
X72724989Y66964966D01*
X67522846Y82204013D02*
X67475227Y82251632D01*
X67379989Y82394489D01*
X67332369Y82489727D01*
X67284750Y82632585D01*
X67237131Y82870680D01*
X67237131Y83061156D01*
X67284750Y83299251D01*
X67332369Y83442108D01*
X67379989Y83537346D01*
X67475227Y83680204D01*
X67522846Y83727823D01*
X67808560Y83251632D02*
X68046655Y82584966D01*
X68284750Y83251632D02*
X68046655Y82584966D01*
X67951417Y82346870D01*
X67903798Y82299251D01*
X67808560Y82251632D01*
X68808560Y82584966D02*
X68713322Y82632585D01*
X68665703Y82680204D01*
X68618084Y82775442D01*
X68618084Y83061156D01*
X68665703Y83156394D01*
X68713322Y83204013D01*
X68808560Y83251632D01*
X68951417Y83251632D01*
X69046655Y83204013D01*
X69094274Y83156394D01*
X69141893Y83061156D01*
X69141893Y82775442D01*
X69094274Y82680204D01*
X69046655Y82632585D01*
X68951417Y82584966D01*
X68808560Y82584966D01*
X69999036Y83251632D02*
X69999036Y82584966D01*
X69570465Y83251632D02*
X69570465Y82727823D01*
X69618084Y82632585D01*
X69713322Y82584966D01*
X69856179Y82584966D01*
X69951417Y82632585D01*
X69999036Y82680204D01*
X70379989Y82204013D02*
X70427608Y82251632D01*
X70522846Y82394489D01*
X70570465Y82489727D01*
X70618084Y82632585D01*
X70665703Y82870680D01*
X70665703Y83061156D01*
X70618084Y83299251D01*
X70570465Y83442108D01*
X70522846Y83537346D01*
X70427608Y83680204D01*
X70379989Y83727823D01*
X72475227Y82680204D02*
X72427608Y82632585D01*
X72284750Y82584966D01*
X72189512Y82584966D01*
X72046655Y82632585D01*
X71951417Y82727823D01*
X71903798Y82823061D01*
X71856179Y83013537D01*
X71856179Y83156394D01*
X71903798Y83346870D01*
X71951417Y83442108D01*
X72046655Y83537346D01*
X72189512Y83584966D01*
X72284750Y83584966D01*
X72427608Y83537346D01*
X72475227Y83489727D01*
X72856179Y82870680D02*
X73332369Y82870680D01*
X72760941Y82584966D02*
X73094274Y83584966D01*
X73427608Y82584966D01*
X73760941Y82584966D02*
X73760941Y83584966D01*
X74332369Y82584966D01*
X74332369Y83584966D01*
X75856179Y82204013D02*
X75808560Y82251632D01*
X75713322Y82394489D01*
X75665703Y82489727D01*
X75618084Y82632585D01*
X75570465Y82870680D01*
X75570465Y83061156D01*
X75618084Y83299251D01*
X75665703Y83442108D01*
X75713322Y83537346D01*
X75808560Y83680204D01*
X75856179Y83727823D01*
X76665703Y82584966D02*
X76665703Y83584966D01*
X76665703Y82632585D02*
X76570465Y82584966D01*
X76379989Y82584966D01*
X76284750Y82632585D01*
X76237131Y82680204D01*
X76189512Y82775442D01*
X76189512Y83061156D01*
X76237131Y83156394D01*
X76284750Y83204013D01*
X76379989Y83251632D01*
X76570465Y83251632D01*
X76665703Y83204013D01*
X77284750Y82584966D02*
X77189512Y82632585D01*
X77141893Y82680204D01*
X77094274Y82775442D01*
X77094274Y83061156D01*
X77141893Y83156394D01*
X77189512Y83204013D01*
X77284750Y83251632D01*
X77427608Y83251632D01*
X77522846Y83204013D01*
X77570465Y83156394D01*
X77618084Y83061156D01*
X77618084Y82775442D01*
X77570465Y82680204D01*
X77522846Y82632585D01*
X77427608Y82584966D01*
X77284750Y82584966D01*
X78808560Y82584966D02*
X78808560Y83251632D01*
X78808560Y83584966D02*
X78760941Y83537346D01*
X78808560Y83489727D01*
X78856179Y83537346D01*
X78808560Y83584966D01*
X78808560Y83489727D01*
X79141893Y83251632D02*
X79522846Y83251632D01*
X79284750Y83584966D02*
X79284750Y82727823D01*
X79332369Y82632585D01*
X79427608Y82584966D01*
X79522846Y82584966D01*
X79856179Y82680204D02*
X79903798Y82632585D01*
X79856179Y82584966D01*
X79808560Y82632585D01*
X79856179Y82680204D01*
X79856179Y82584966D01*
X79856179Y82965918D02*
X79808560Y83537346D01*
X79856179Y83584966D01*
X79903798Y83537346D01*
X79856179Y82965918D01*
X79856179Y83584966D01*
X80237131Y82204013D02*
X80284750Y82251632D01*
X80379989Y82394489D01*
X80427608Y82489727D01*
X80475227Y82632585D01*
X80522846Y82870680D01*
X80522846Y83061156D01*
X80475227Y83299251D01*
X80427608Y83442108D01*
X80379989Y83537346D01*
X80284750Y83680204D01*
X80237131Y83727823D01*
D13*
X104897846Y15428418D02*
X104897846Y16642704D01*
X104826417Y16785561D01*
X104754989Y16856989D01*
X104612131Y16928418D01*
X104326417Y16928418D01*
X104183560Y16856989D01*
X104112131Y16785561D01*
X104040703Y16642704D01*
X104040703Y15428418D01*
X103397846Y16856989D02*
X103183560Y16928418D01*
X102826417Y16928418D01*
X102683560Y16856989D01*
X102612131Y16785561D01*
X102540703Y16642704D01*
X102540703Y16499846D01*
X102612131Y16356989D01*
X102683560Y16285561D01*
X102826417Y16214132D01*
X103112131Y16142704D01*
X103254989Y16071275D01*
X103326417Y15999846D01*
X103397846Y15856989D01*
X103397846Y15714132D01*
X103326417Y15571275D01*
X103254989Y15499846D01*
X103112131Y15428418D01*
X102754989Y15428418D01*
X102540703Y15499846D01*
X101397846Y16142704D02*
X101183560Y16214132D01*
X101112131Y16285561D01*
X101040703Y16428418D01*
X101040703Y16642704D01*
X101112131Y16785561D01*
X101183560Y16856989D01*
X101326417Y16928418D01*
X101897846Y16928418D01*
X101897846Y15428418D01*
X101397846Y15428418D01*
X101254989Y15499846D01*
X101183560Y15571275D01*
X101112131Y15714132D01*
X101112131Y15856989D01*
X101183560Y15999846D01*
X101254989Y16071275D01*
X101397846Y16142704D01*
X101897846Y16142704D01*
X104147846Y17986275D02*
X103862131Y17771989D01*
X103576417Y17986275D01*
X103290703Y17986275D02*
X103004989Y17771989D01*
X102719274Y17986275D01*
X102433560Y17986275D02*
X102147846Y17771989D01*
X101862131Y17986275D01*
D11*
X22047846Y10082704D02*
X23190703Y10082704D01*
X22619274Y9511275D02*
X22619274Y10654132D01*
X29619274Y10082704D02*
X30762131Y10082704D01*
X21904989Y7239132D02*
X21833560Y7167704D01*
X21619274Y7096275D01*
X21476417Y7096275D01*
X21262131Y7167704D01*
X21119274Y7310561D01*
X21047846Y7453418D01*
X20976417Y7739132D01*
X20976417Y7953418D01*
X21047846Y8239132D01*
X21119274Y8381989D01*
X21262131Y8524846D01*
X21476417Y8596275D01*
X21619274Y8596275D01*
X21833560Y8524846D01*
X21904989Y8453418D01*
X22547846Y8596275D02*
X22547846Y7381989D01*
X22619274Y7239132D01*
X22690703Y7167704D01*
X22833560Y7096275D01*
X23119274Y7096275D01*
X23262131Y7167704D01*
X23333560Y7239132D01*
X23404989Y7381989D01*
X23404989Y8596275D01*
X24976417Y7096275D02*
X24476417Y7810561D01*
X24119274Y7096275D02*
X24119274Y8596275D01*
X24690703Y8596275D01*
X24833560Y8524846D01*
X24904989Y8453418D01*
X24976417Y8310561D01*
X24976417Y8096275D01*
X24904989Y7953418D01*
X24833560Y7881989D01*
X24690703Y7810561D01*
X24119274Y7810561D01*
X28762131Y7239132D02*
X28690703Y7167704D01*
X28476417Y7096275D01*
X28333560Y7096275D01*
X28119274Y7167704D01*
X27976417Y7310561D01*
X27904989Y7453418D01*
X27833560Y7739132D01*
X27833560Y7953418D01*
X27904989Y8239132D01*
X27976417Y8381989D01*
X28119274Y8524846D01*
X28333560Y8596275D01*
X28476417Y8596275D01*
X28690703Y8524846D01*
X28762131Y8453418D01*
X29404989Y8596275D02*
X29404989Y7381989D01*
X29476417Y7239132D01*
X29547846Y7167704D01*
X29690703Y7096275D01*
X29976417Y7096275D01*
X30119274Y7167704D01*
X30190703Y7239132D01*
X30262131Y7381989D01*
X30262131Y8596275D01*
X31833560Y7096275D02*
X31333560Y7810561D01*
X30976417Y7096275D02*
X30976417Y8596275D01*
X31547846Y8596275D01*
X31690703Y8524846D01*
X31762131Y8453418D01*
X31833560Y8310561D01*
X31833560Y8096275D01*
X31762131Y7953418D01*
X31690703Y7881989D01*
X31547846Y7810561D01*
X30976417Y7810561D01*
D12*
%TO.C,R9*%
X79076655Y34620442D02*
X78809989Y35001394D01*
X78619512Y34620442D02*
X78619512Y35420442D01*
X78924274Y35420442D01*
X79000465Y35382346D01*
X79038560Y35344251D01*
X79076655Y35268061D01*
X79076655Y35153775D01*
X79038560Y35077585D01*
X79000465Y35039489D01*
X78924274Y35001394D01*
X78619512Y35001394D01*
X79457608Y34620442D02*
X79609989Y34620442D01*
X79686179Y34658537D01*
X79724274Y34696632D01*
X79800465Y34810918D01*
X79838560Y34963299D01*
X79838560Y35268061D01*
X79800465Y35344251D01*
X79762369Y35382346D01*
X79686179Y35420442D01*
X79533798Y35420442D01*
X79457608Y35382346D01*
X79419512Y35344251D01*
X79381417Y35268061D01*
X79381417Y35077585D01*
X79419512Y35001394D01*
X79457608Y34963299D01*
X79533798Y34925204D01*
X79686179Y34925204D01*
X79762369Y34963299D01*
X79800465Y35001394D01*
X79838560Y35077585D01*
%TO.C,L1*%
X83471655Y61410442D02*
X83090703Y61410442D01*
X83090703Y62210442D01*
X84157369Y61410442D02*
X83700227Y61410442D01*
X83928798Y61410442D02*
X83928798Y62210442D01*
X83852608Y62096156D01*
X83776417Y62019966D01*
X83700227Y61981870D01*
%TO.C,Q1*%
X19623798Y75899251D02*
X19547608Y75937346D01*
X19471417Y76013537D01*
X19357131Y76127823D01*
X19280941Y76165918D01*
X19204750Y76165918D01*
X19242846Y75975442D02*
X19166655Y76013537D01*
X19090465Y76089727D01*
X19052369Y76242108D01*
X19052369Y76508775D01*
X19090465Y76661156D01*
X19166655Y76737346D01*
X19242846Y76775442D01*
X19395227Y76775442D01*
X19471417Y76737346D01*
X19547608Y76661156D01*
X19585703Y76508775D01*
X19585703Y76242108D01*
X19547608Y76089727D01*
X19471417Y76013537D01*
X19395227Y75975442D01*
X19242846Y75975442D01*
X20347608Y75975442D02*
X19890465Y75975442D01*
X20119036Y75975442D02*
X20119036Y76775442D01*
X20042846Y76661156D01*
X19966655Y76584966D01*
X19890465Y76546870D01*
%TO.C,R21*%
X81930703Y76750442D02*
X81664036Y77131394D01*
X81473560Y76750442D02*
X81473560Y77550442D01*
X81778322Y77550442D01*
X81854512Y77512346D01*
X81892608Y77474251D01*
X81930703Y77398061D01*
X81930703Y77283775D01*
X81892608Y77207585D01*
X81854512Y77169489D01*
X81778322Y77131394D01*
X81473560Y77131394D01*
X82235465Y77474251D02*
X82273560Y77512346D01*
X82349750Y77550442D01*
X82540227Y77550442D01*
X82616417Y77512346D01*
X82654512Y77474251D01*
X82692608Y77398061D01*
X82692608Y77321870D01*
X82654512Y77207585D01*
X82197369Y76750442D01*
X82692608Y76750442D01*
X83454512Y76750442D02*
X82997369Y76750442D01*
X83225941Y76750442D02*
X83225941Y77550442D01*
X83149750Y77436156D01*
X83073560Y77359966D01*
X82997369Y77321870D01*
%TO.C,R20*%
X88990703Y74840442D02*
X88724036Y75221394D01*
X88533560Y74840442D02*
X88533560Y75640442D01*
X88838322Y75640442D01*
X88914512Y75602346D01*
X88952608Y75564251D01*
X88990703Y75488061D01*
X88990703Y75373775D01*
X88952608Y75297585D01*
X88914512Y75259489D01*
X88838322Y75221394D01*
X88533560Y75221394D01*
X89295465Y75564251D02*
X89333560Y75602346D01*
X89409750Y75640442D01*
X89600227Y75640442D01*
X89676417Y75602346D01*
X89714512Y75564251D01*
X89752608Y75488061D01*
X89752608Y75411870D01*
X89714512Y75297585D01*
X89257369Y74840442D01*
X89752608Y74840442D01*
X90247846Y75640442D02*
X90324036Y75640442D01*
X90400227Y75602346D01*
X90438322Y75564251D01*
X90476417Y75488061D01*
X90514512Y75335680D01*
X90514512Y75145204D01*
X90476417Y74992823D01*
X90438322Y74916632D01*
X90400227Y74878537D01*
X90324036Y74840442D01*
X90247846Y74840442D01*
X90171655Y74878537D01*
X90133560Y74916632D01*
X90095465Y74992823D01*
X90057369Y75145204D01*
X90057369Y75335680D01*
X90095465Y75488061D01*
X90133560Y75564251D01*
X90171655Y75602346D01*
X90247846Y75640442D01*
%TO.C,L2*%
X86956655Y64365442D02*
X86575703Y64365442D01*
X86575703Y65165442D01*
X87185227Y65089251D02*
X87223322Y65127346D01*
X87299512Y65165442D01*
X87489989Y65165442D01*
X87566179Y65127346D01*
X87604274Y65089251D01*
X87642369Y65013061D01*
X87642369Y64936870D01*
X87604274Y64822585D01*
X87147131Y64365442D01*
X87642369Y64365442D01*
%TO.C,L3*%
X86966655Y69055442D02*
X86585703Y69055442D01*
X86585703Y69855442D01*
X87157131Y69855442D02*
X87652369Y69855442D01*
X87385703Y69550680D01*
X87499989Y69550680D01*
X87576179Y69512585D01*
X87614274Y69474489D01*
X87652369Y69398299D01*
X87652369Y69207823D01*
X87614274Y69131632D01*
X87576179Y69093537D01*
X87499989Y69055442D01*
X87271417Y69055442D01*
X87195227Y69093537D01*
X87157131Y69131632D01*
%TO.C,R19*%
X91465703Y79170442D02*
X91199036Y79551394D01*
X91008560Y79170442D02*
X91008560Y79970442D01*
X91313322Y79970442D01*
X91389512Y79932346D01*
X91427608Y79894251D01*
X91465703Y79818061D01*
X91465703Y79703775D01*
X91427608Y79627585D01*
X91389512Y79589489D01*
X91313322Y79551394D01*
X91008560Y79551394D01*
X92227608Y79170442D02*
X91770465Y79170442D01*
X91999036Y79170442D02*
X91999036Y79970442D01*
X91922846Y79856156D01*
X91846655Y79779966D01*
X91770465Y79741870D01*
X92608560Y79170442D02*
X92760941Y79170442D01*
X92837131Y79208537D01*
X92875227Y79246632D01*
X92951417Y79360918D01*
X92989512Y79513299D01*
X92989512Y79818061D01*
X92951417Y79894251D01*
X92913322Y79932346D01*
X92837131Y79970442D01*
X92684750Y79970442D01*
X92608560Y79932346D01*
X92570465Y79894251D01*
X92532369Y79818061D01*
X92532369Y79627585D01*
X92570465Y79551394D01*
X92608560Y79513299D01*
X92684750Y79475204D01*
X92837131Y79475204D01*
X92913322Y79513299D01*
X92951417Y79551394D01*
X92989512Y79627585D01*
%TO.C,LED1*%
X108361893Y6252108D02*
X108361893Y5871156D01*
X107561893Y5871156D01*
X107942846Y6518775D02*
X107942846Y6785442D01*
X108361893Y6899727D02*
X108361893Y6518775D01*
X107561893Y6518775D01*
X107561893Y6899727D01*
X108361893Y7242585D02*
X107561893Y7242585D01*
X107561893Y7433061D01*
X107599989Y7547346D01*
X107676179Y7623537D01*
X107752369Y7661632D01*
X107904750Y7699727D01*
X108019036Y7699727D01*
X108171417Y7661632D01*
X108247608Y7623537D01*
X108323798Y7547346D01*
X108361893Y7433061D01*
X108361893Y7242585D01*
X108361893Y8461632D02*
X108361893Y8004489D01*
X108361893Y8233061D02*
X107561893Y8233061D01*
X107676179Y8156870D01*
X107752369Y8080680D01*
X107790465Y8004489D01*
%TO.C,J1*%
X81283322Y20300442D02*
X81283322Y19729013D01*
X81245227Y19614727D01*
X81169036Y19538537D01*
X81054750Y19500442D01*
X80978560Y19500442D01*
X82083322Y19500442D02*
X81626179Y19500442D01*
X81854750Y19500442D02*
X81854750Y20300442D01*
X81778560Y20186156D01*
X81702369Y20109966D01*
X81626179Y20071870D01*
D14*
%TO.C,U1*%
X107718084Y7184966D02*
X107718084Y6375442D01*
X107765703Y6280204D01*
X107813322Y6232585D01*
X107908560Y6184966D01*
X108099036Y6184966D01*
X108194274Y6232585D01*
X108241893Y6280204D01*
X108289512Y6375442D01*
X108289512Y7184966D01*
X109289512Y6184966D02*
X108718084Y6184966D01*
X109003798Y6184966D02*
X109003798Y7184966D01*
X108908560Y7042108D01*
X108813322Y6946870D01*
X108718084Y6899251D01*
D12*
%TO.C,C11*%
X106655703Y73606632D02*
X106617608Y73568537D01*
X106503322Y73530442D01*
X106427131Y73530442D01*
X106312846Y73568537D01*
X106236655Y73644727D01*
X106198560Y73720918D01*
X106160465Y73873299D01*
X106160465Y73987585D01*
X106198560Y74139966D01*
X106236655Y74216156D01*
X106312846Y74292346D01*
X106427131Y74330442D01*
X106503322Y74330442D01*
X106617608Y74292346D01*
X106655703Y74254251D01*
X107417608Y73530442D02*
X106960465Y73530442D01*
X107189036Y73530442D02*
X107189036Y74330442D01*
X107112846Y74216156D01*
X107036655Y74139966D01*
X106960465Y74101870D01*
X108179512Y73530442D02*
X107722369Y73530442D01*
X107950941Y73530442D02*
X107950941Y74330442D01*
X107874750Y74216156D01*
X107798560Y74139966D01*
X107722369Y74101870D01*
%TO.C,C8*%
X110036655Y69031632D02*
X109998560Y68993537D01*
X109884274Y68955442D01*
X109808084Y68955442D01*
X109693798Y68993537D01*
X109617608Y69069727D01*
X109579512Y69145918D01*
X109541417Y69298299D01*
X109541417Y69412585D01*
X109579512Y69564966D01*
X109617608Y69641156D01*
X109693798Y69717346D01*
X109808084Y69755442D01*
X109884274Y69755442D01*
X109998560Y69717346D01*
X110036655Y69679251D01*
X110493798Y69412585D02*
X110417608Y69450680D01*
X110379512Y69488775D01*
X110341417Y69564966D01*
X110341417Y69603061D01*
X110379512Y69679251D01*
X110417608Y69717346D01*
X110493798Y69755442D01*
X110646179Y69755442D01*
X110722369Y69717346D01*
X110760465Y69679251D01*
X110798560Y69603061D01*
X110798560Y69564966D01*
X110760465Y69488775D01*
X110722369Y69450680D01*
X110646179Y69412585D01*
X110493798Y69412585D01*
X110417608Y69374489D01*
X110379512Y69336394D01*
X110341417Y69260204D01*
X110341417Y69107823D01*
X110379512Y69031632D01*
X110417608Y68993537D01*
X110493798Y68955442D01*
X110646179Y68955442D01*
X110722369Y68993537D01*
X110760465Y69031632D01*
X110798560Y69107823D01*
X110798560Y69260204D01*
X110760465Y69336394D01*
X110722369Y69374489D01*
X110646179Y69412585D01*
%TO.C,J4*%
X67493322Y80900442D02*
X67493322Y80329013D01*
X67455227Y80214727D01*
X67379036Y80138537D01*
X67264750Y80100442D01*
X67188560Y80100442D01*
X68217131Y80633775D02*
X68217131Y80100442D01*
X68026655Y80938537D02*
X67836179Y80367108D01*
X68331417Y80367108D01*
%TO.C,R16*%
X50820703Y76210442D02*
X50554036Y76591394D01*
X50363560Y76210442D02*
X50363560Y77010442D01*
X50668322Y77010442D01*
X50744512Y76972346D01*
X50782608Y76934251D01*
X50820703Y76858061D01*
X50820703Y76743775D01*
X50782608Y76667585D01*
X50744512Y76629489D01*
X50668322Y76591394D01*
X50363560Y76591394D01*
X51582608Y76210442D02*
X51125465Y76210442D01*
X51354036Y76210442D02*
X51354036Y77010442D01*
X51277846Y76896156D01*
X51201655Y76819966D01*
X51125465Y76781870D01*
X52268322Y77010442D02*
X52115941Y77010442D01*
X52039750Y76972346D01*
X52001655Y76934251D01*
X51925465Y76819966D01*
X51887369Y76667585D01*
X51887369Y76362823D01*
X51925465Y76286632D01*
X51963560Y76248537D01*
X52039750Y76210442D01*
X52192131Y76210442D01*
X52268322Y76248537D01*
X52306417Y76286632D01*
X52344512Y76362823D01*
X52344512Y76553299D01*
X52306417Y76629489D01*
X52268322Y76667585D01*
X52192131Y76705680D01*
X52039750Y76705680D01*
X51963560Y76667585D01*
X51925465Y76629489D01*
X51887369Y76553299D01*
%TO.C,JP1*%
X81768322Y81805442D02*
X81768322Y81234013D01*
X81730227Y81119727D01*
X81654036Y81043537D01*
X81539750Y81005442D01*
X81463560Y81005442D01*
X82149274Y81005442D02*
X82149274Y81805442D01*
X82454036Y81805442D01*
X82530227Y81767346D01*
X82568322Y81729251D01*
X82606417Y81653061D01*
X82606417Y81538775D01*
X82568322Y81462585D01*
X82530227Y81424489D01*
X82454036Y81386394D01*
X82149274Y81386394D01*
X83368322Y81005442D02*
X82911179Y81005442D01*
X83139750Y81005442D02*
X83139750Y81805442D01*
X83063560Y81691156D01*
X82987369Y81614966D01*
X82911179Y81576870D01*
%TO.C,C15*%
X91455703Y73471632D02*
X91417608Y73433537D01*
X91303322Y73395442D01*
X91227131Y73395442D01*
X91112846Y73433537D01*
X91036655Y73509727D01*
X90998560Y73585918D01*
X90960465Y73738299D01*
X90960465Y73852585D01*
X90998560Y74004966D01*
X91036655Y74081156D01*
X91112846Y74157346D01*
X91227131Y74195442D01*
X91303322Y74195442D01*
X91417608Y74157346D01*
X91455703Y74119251D01*
X92217608Y73395442D02*
X91760465Y73395442D01*
X91989036Y73395442D02*
X91989036Y74195442D01*
X91912846Y74081156D01*
X91836655Y74004966D01*
X91760465Y73966870D01*
X92941417Y74195442D02*
X92560465Y74195442D01*
X92522369Y73814489D01*
X92560465Y73852585D01*
X92636655Y73890680D01*
X92827131Y73890680D01*
X92903322Y73852585D01*
X92941417Y73814489D01*
X92979512Y73738299D01*
X92979512Y73547823D01*
X92941417Y73471632D01*
X92903322Y73433537D01*
X92827131Y73395442D01*
X92636655Y73395442D01*
X92560465Y73433537D01*
X92522369Y73471632D01*
%TO.C,Q2*%
X17788798Y66754251D02*
X17712608Y66792346D01*
X17636417Y66868537D01*
X17522131Y66982823D01*
X17445941Y67020918D01*
X17369750Y67020918D01*
X17407846Y66830442D02*
X17331655Y66868537D01*
X17255465Y66944727D01*
X17217369Y67097108D01*
X17217369Y67363775D01*
X17255465Y67516156D01*
X17331655Y67592346D01*
X17407846Y67630442D01*
X17560227Y67630442D01*
X17636417Y67592346D01*
X17712608Y67516156D01*
X17750703Y67363775D01*
X17750703Y67097108D01*
X17712608Y66944727D01*
X17636417Y66868537D01*
X17560227Y66830442D01*
X17407846Y66830442D01*
X18055465Y67554251D02*
X18093560Y67592346D01*
X18169750Y67630442D01*
X18360227Y67630442D01*
X18436417Y67592346D01*
X18474512Y67554251D01*
X18512608Y67478061D01*
X18512608Y67401870D01*
X18474512Y67287585D01*
X18017369Y66830442D01*
X18512608Y66830442D01*
%TO.C,C9*%
X107066655Y69056632D02*
X107028560Y69018537D01*
X106914274Y68980442D01*
X106838084Y68980442D01*
X106723798Y69018537D01*
X106647608Y69094727D01*
X106609512Y69170918D01*
X106571417Y69323299D01*
X106571417Y69437585D01*
X106609512Y69589966D01*
X106647608Y69666156D01*
X106723798Y69742346D01*
X106838084Y69780442D01*
X106914274Y69780442D01*
X107028560Y69742346D01*
X107066655Y69704251D01*
X107447608Y68980442D02*
X107599989Y68980442D01*
X107676179Y69018537D01*
X107714274Y69056632D01*
X107790465Y69170918D01*
X107828560Y69323299D01*
X107828560Y69628061D01*
X107790465Y69704251D01*
X107752369Y69742346D01*
X107676179Y69780442D01*
X107523798Y69780442D01*
X107447608Y69742346D01*
X107409512Y69704251D01*
X107371417Y69628061D01*
X107371417Y69437585D01*
X107409512Y69361394D01*
X107447608Y69323299D01*
X107523798Y69285204D01*
X107676179Y69285204D01*
X107752369Y69323299D01*
X107790465Y69361394D01*
X107828560Y69437585D01*
%TO.C,R6*%
X74851655Y59360442D02*
X74584989Y59741394D01*
X74394512Y59360442D02*
X74394512Y60160442D01*
X74699274Y60160442D01*
X74775465Y60122346D01*
X74813560Y60084251D01*
X74851655Y60008061D01*
X74851655Y59893775D01*
X74813560Y59817585D01*
X74775465Y59779489D01*
X74699274Y59741394D01*
X74394512Y59741394D01*
X75537369Y60160442D02*
X75384989Y60160442D01*
X75308798Y60122346D01*
X75270703Y60084251D01*
X75194512Y59969966D01*
X75156417Y59817585D01*
X75156417Y59512823D01*
X75194512Y59436632D01*
X75232608Y59398537D01*
X75308798Y59360442D01*
X75461179Y59360442D01*
X75537369Y59398537D01*
X75575465Y59436632D01*
X75613560Y59512823D01*
X75613560Y59703299D01*
X75575465Y59779489D01*
X75537369Y59817585D01*
X75461179Y59855680D01*
X75308798Y59855680D01*
X75232608Y59817585D01*
X75194512Y59779489D01*
X75156417Y59703299D01*
%TO.C,D1*%
X43499512Y47080442D02*
X43499512Y47880442D01*
X43689989Y47880442D01*
X43804274Y47842346D01*
X43880465Y47766156D01*
X43918560Y47689966D01*
X43956655Y47537585D01*
X43956655Y47423299D01*
X43918560Y47270918D01*
X43880465Y47194727D01*
X43804274Y47118537D01*
X43689989Y47080442D01*
X43499512Y47080442D01*
X44718560Y47080442D02*
X44261417Y47080442D01*
X44489989Y47080442D02*
X44489989Y47880442D01*
X44413798Y47766156D01*
X44337608Y47689966D01*
X44261417Y47651870D01*
%TO.C,C13*%
X83940703Y69051632D02*
X83902608Y69013537D01*
X83788322Y68975442D01*
X83712131Y68975442D01*
X83597846Y69013537D01*
X83521655Y69089727D01*
X83483560Y69165918D01*
X83445465Y69318299D01*
X83445465Y69432585D01*
X83483560Y69584966D01*
X83521655Y69661156D01*
X83597846Y69737346D01*
X83712131Y69775442D01*
X83788322Y69775442D01*
X83902608Y69737346D01*
X83940703Y69699251D01*
X84702608Y68975442D02*
X84245465Y68975442D01*
X84474036Y68975442D02*
X84474036Y69775442D01*
X84397846Y69661156D01*
X84321655Y69584966D01*
X84245465Y69546870D01*
X84969274Y69775442D02*
X85464512Y69775442D01*
X85197846Y69470680D01*
X85312131Y69470680D01*
X85388322Y69432585D01*
X85426417Y69394489D01*
X85464512Y69318299D01*
X85464512Y69127823D01*
X85426417Y69051632D01*
X85388322Y69013537D01*
X85312131Y68975442D01*
X85083560Y68975442D01*
X85007369Y69013537D01*
X84969274Y69051632D01*
%TO.C,R13*%
X59925703Y40160442D02*
X59659036Y40541394D01*
X59468560Y40160442D02*
X59468560Y40960442D01*
X59773322Y40960442D01*
X59849512Y40922346D01*
X59887608Y40884251D01*
X59925703Y40808061D01*
X59925703Y40693775D01*
X59887608Y40617585D01*
X59849512Y40579489D01*
X59773322Y40541394D01*
X59468560Y40541394D01*
X60687608Y40160442D02*
X60230465Y40160442D01*
X60459036Y40160442D02*
X60459036Y40960442D01*
X60382846Y40846156D01*
X60306655Y40769966D01*
X60230465Y40731870D01*
X60954274Y40960442D02*
X61449512Y40960442D01*
X61182846Y40655680D01*
X61297131Y40655680D01*
X61373322Y40617585D01*
X61411417Y40579489D01*
X61449512Y40503299D01*
X61449512Y40312823D01*
X61411417Y40236632D01*
X61373322Y40198537D01*
X61297131Y40160442D01*
X61068560Y40160442D01*
X60992369Y40198537D01*
X60954274Y40236632D01*
%TO.C,C4*%
X76691655Y59521632D02*
X76653560Y59483537D01*
X76539274Y59445442D01*
X76463084Y59445442D01*
X76348798Y59483537D01*
X76272608Y59559727D01*
X76234512Y59635918D01*
X76196417Y59788299D01*
X76196417Y59902585D01*
X76234512Y60054966D01*
X76272608Y60131156D01*
X76348798Y60207346D01*
X76463084Y60245442D01*
X76539274Y60245442D01*
X76653560Y60207346D01*
X76691655Y60169251D01*
X77377369Y59978775D02*
X77377369Y59445442D01*
X77186893Y60283537D02*
X76996417Y59712108D01*
X77491655Y59712108D01*
%TO.C,R18*%
X47895703Y76155442D02*
X47629036Y76536394D01*
X47438560Y76155442D02*
X47438560Y76955442D01*
X47743322Y76955442D01*
X47819512Y76917346D01*
X47857608Y76879251D01*
X47895703Y76803061D01*
X47895703Y76688775D01*
X47857608Y76612585D01*
X47819512Y76574489D01*
X47743322Y76536394D01*
X47438560Y76536394D01*
X48657608Y76155442D02*
X48200465Y76155442D01*
X48429036Y76155442D02*
X48429036Y76955442D01*
X48352846Y76841156D01*
X48276655Y76764966D01*
X48200465Y76726870D01*
X49114750Y76612585D02*
X49038560Y76650680D01*
X49000465Y76688775D01*
X48962369Y76764966D01*
X48962369Y76803061D01*
X49000465Y76879251D01*
X49038560Y76917346D01*
X49114750Y76955442D01*
X49267131Y76955442D01*
X49343322Y76917346D01*
X49381417Y76879251D01*
X49419512Y76803061D01*
X49419512Y76764966D01*
X49381417Y76688775D01*
X49343322Y76650680D01*
X49267131Y76612585D01*
X49114750Y76612585D01*
X49038560Y76574489D01*
X49000465Y76536394D01*
X48962369Y76460204D01*
X48962369Y76307823D01*
X49000465Y76231632D01*
X49038560Y76193537D01*
X49114750Y76155442D01*
X49267131Y76155442D01*
X49343322Y76193537D01*
X49381417Y76231632D01*
X49419512Y76307823D01*
X49419512Y76460204D01*
X49381417Y76536394D01*
X49343322Y76574489D01*
X49267131Y76612585D01*
%TO.C,U7*%
X82025465Y73540442D02*
X82025465Y72892823D01*
X82063560Y72816632D01*
X82101655Y72778537D01*
X82177846Y72740442D01*
X82330227Y72740442D01*
X82406417Y72778537D01*
X82444512Y72816632D01*
X82482608Y72892823D01*
X82482608Y73540442D01*
X82787369Y73540442D02*
X83320703Y73540442D01*
X82977846Y72740442D01*
D15*
%TO.C,J2*%
X25986655Y28306597D02*
X25986655Y27399454D01*
X25926179Y27218025D01*
X25805227Y27097073D01*
X25623798Y27036597D01*
X25502846Y27036597D01*
X26530941Y28185644D02*
X26591417Y28246120D01*
X26712369Y28306597D01*
X27014750Y28306597D01*
X27135703Y28246120D01*
X27196179Y28185644D01*
X27256655Y28064692D01*
X27256655Y27943740D01*
X27196179Y27762311D01*
X26470465Y27036597D01*
X27256655Y27036597D01*
D12*
%TO.C,R2*%
X104401655Y11155442D02*
X104134989Y11536394D01*
X103944512Y11155442D02*
X103944512Y11955442D01*
X104249274Y11955442D01*
X104325465Y11917346D01*
X104363560Y11879251D01*
X104401655Y11803061D01*
X104401655Y11688775D01*
X104363560Y11612585D01*
X104325465Y11574489D01*
X104249274Y11536394D01*
X103944512Y11536394D01*
X104706417Y11879251D02*
X104744512Y11917346D01*
X104820703Y11955442D01*
X105011179Y11955442D01*
X105087369Y11917346D01*
X105125465Y11879251D01*
X105163560Y11803061D01*
X105163560Y11726870D01*
X105125465Y11612585D01*
X104668322Y11155442D01*
X105163560Y11155442D01*
%TO.C,R5*%
X100996655Y11165442D02*
X100729989Y11546394D01*
X100539512Y11165442D02*
X100539512Y11965442D01*
X100844274Y11965442D01*
X100920465Y11927346D01*
X100958560Y11889251D01*
X100996655Y11813061D01*
X100996655Y11698775D01*
X100958560Y11622585D01*
X100920465Y11584489D01*
X100844274Y11546394D01*
X100539512Y11546394D01*
X101720465Y11965442D02*
X101339512Y11965442D01*
X101301417Y11584489D01*
X101339512Y11622585D01*
X101415703Y11660680D01*
X101606179Y11660680D01*
X101682369Y11622585D01*
X101720465Y11584489D01*
X101758560Y11508299D01*
X101758560Y11317823D01*
X101720465Y11241632D01*
X101682369Y11203537D01*
X101606179Y11165442D01*
X101415703Y11165442D01*
X101339512Y11203537D01*
X101301417Y11241632D01*
%TO.C,J3*%
X76158322Y80870442D02*
X76158322Y80299013D01*
X76120227Y80184727D01*
X76044036Y80108537D01*
X75929750Y80070442D01*
X75853560Y80070442D01*
X76463084Y80870442D02*
X76958322Y80870442D01*
X76691655Y80565680D01*
X76805941Y80565680D01*
X76882131Y80527585D01*
X76920227Y80489489D01*
X76958322Y80413299D01*
X76958322Y80222823D01*
X76920227Y80146632D01*
X76882131Y80108537D01*
X76805941Y80070442D01*
X76577369Y80070442D01*
X76501179Y80108537D01*
X76463084Y80146632D01*
%TO.C,HS1*%
X11029512Y80390442D02*
X11029512Y81190442D01*
X11029512Y80809489D02*
X11486655Y80809489D01*
X11486655Y80390442D02*
X11486655Y81190442D01*
X11829512Y80428537D02*
X11943798Y80390442D01*
X12134274Y80390442D01*
X12210465Y80428537D01*
X12248560Y80466632D01*
X12286655Y80542823D01*
X12286655Y80619013D01*
X12248560Y80695204D01*
X12210465Y80733299D01*
X12134274Y80771394D01*
X11981893Y80809489D01*
X11905703Y80847585D01*
X11867608Y80885680D01*
X11829512Y80961870D01*
X11829512Y81038061D01*
X11867608Y81114251D01*
X11905703Y81152346D01*
X11981893Y81190442D01*
X12172369Y81190442D01*
X12286655Y81152346D01*
X13048560Y80390442D02*
X12591417Y80390442D01*
X12819989Y80390442D02*
X12819989Y81190442D01*
X12743798Y81076156D01*
X12667608Y80999966D01*
X12591417Y80961870D01*
%TO.C,C12*%
X91460703Y69051632D02*
X91422608Y69013537D01*
X91308322Y68975442D01*
X91232131Y68975442D01*
X91117846Y69013537D01*
X91041655Y69089727D01*
X91003560Y69165918D01*
X90965465Y69318299D01*
X90965465Y69432585D01*
X91003560Y69584966D01*
X91041655Y69661156D01*
X91117846Y69737346D01*
X91232131Y69775442D01*
X91308322Y69775442D01*
X91422608Y69737346D01*
X91460703Y69699251D01*
X92222608Y68975442D02*
X91765465Y68975442D01*
X91994036Y68975442D02*
X91994036Y69775442D01*
X91917846Y69661156D01*
X91841655Y69584966D01*
X91765465Y69546870D01*
X92527369Y69699251D02*
X92565465Y69737346D01*
X92641655Y69775442D01*
X92832131Y69775442D01*
X92908322Y69737346D01*
X92946417Y69699251D01*
X92984512Y69623061D01*
X92984512Y69546870D01*
X92946417Y69432585D01*
X92489274Y68975442D01*
X92984512Y68975442D01*
%TO.C,C14*%
X88475703Y73456632D02*
X88437608Y73418537D01*
X88323322Y73380442D01*
X88247131Y73380442D01*
X88132846Y73418537D01*
X88056655Y73494727D01*
X88018560Y73570918D01*
X87980465Y73723299D01*
X87980465Y73837585D01*
X88018560Y73989966D01*
X88056655Y74066156D01*
X88132846Y74142346D01*
X88247131Y74180442D01*
X88323322Y74180442D01*
X88437608Y74142346D01*
X88475703Y74104251D01*
X89237608Y73380442D02*
X88780465Y73380442D01*
X89009036Y73380442D02*
X89009036Y74180442D01*
X88932846Y74066156D01*
X88856655Y73989966D01*
X88780465Y73951870D01*
X89923322Y73913775D02*
X89923322Y73380442D01*
X89732846Y74218537D02*
X89542369Y73647108D01*
X90037608Y73647108D01*
D14*
%TO.C,U6*%
X98775584Y63534966D02*
X98775584Y62725442D01*
X98823203Y62630204D01*
X98870822Y62582585D01*
X98966060Y62534966D01*
X99156536Y62534966D01*
X99251774Y62582585D01*
X99299393Y62630204D01*
X99347012Y62725442D01*
X99347012Y63534966D01*
X100251774Y63534966D02*
X100061298Y63534966D01*
X99966060Y63487346D01*
X99918441Y63439727D01*
X99823203Y63296870D01*
X99775584Y63106394D01*
X99775584Y62725442D01*
X99823203Y62630204D01*
X99870822Y62582585D01*
X99966060Y62534966D01*
X100156536Y62534966D01*
X100251774Y62582585D01*
X100299393Y62630204D01*
X100347012Y62725442D01*
X100347012Y62963537D01*
X100299393Y63058775D01*
X100251774Y63106394D01*
X100156536Y63154013D01*
X99966060Y63154013D01*
X99870822Y63106394D01*
X99823203Y63058775D01*
X99775584Y62963537D01*
D12*
%TO.C,LED3*%
X94681893Y6274608D02*
X94681893Y5893656D01*
X93881893Y5893656D01*
X94262846Y6541275D02*
X94262846Y6807942D01*
X94681893Y6922227D02*
X94681893Y6541275D01*
X93881893Y6541275D01*
X93881893Y6922227D01*
X94681893Y7265085D02*
X93881893Y7265085D01*
X93881893Y7455561D01*
X93919989Y7569846D01*
X93996179Y7646037D01*
X94072369Y7684132D01*
X94224750Y7722227D01*
X94339036Y7722227D01*
X94491417Y7684132D01*
X94567608Y7646037D01*
X94643798Y7569846D01*
X94681893Y7455561D01*
X94681893Y7265085D01*
X93881893Y7988894D02*
X93881893Y8484132D01*
X94186655Y8217466D01*
X94186655Y8331751D01*
X94224750Y8407942D01*
X94262846Y8446037D01*
X94339036Y8484132D01*
X94529512Y8484132D01*
X94605703Y8446037D01*
X94643798Y8407942D01*
X94681893Y8331751D01*
X94681893Y8103180D01*
X94643798Y8026989D01*
X94605703Y7988894D01*
%TO.C,U4*%
X63560465Y36610442D02*
X63560465Y35962823D01*
X63598560Y35886632D01*
X63636655Y35848537D01*
X63712846Y35810442D01*
X63865227Y35810442D01*
X63941417Y35848537D01*
X63979512Y35886632D01*
X64017608Y35962823D01*
X64017608Y36610442D01*
X64741417Y36343775D02*
X64741417Y35810442D01*
X64550941Y36648537D02*
X64360465Y36077108D01*
X64855703Y36077108D01*
%TO.C,R8*%
X76171655Y34680442D02*
X75904989Y35061394D01*
X75714512Y34680442D02*
X75714512Y35480442D01*
X76019274Y35480442D01*
X76095465Y35442346D01*
X76133560Y35404251D01*
X76171655Y35328061D01*
X76171655Y35213775D01*
X76133560Y35137585D01*
X76095465Y35099489D01*
X76019274Y35061394D01*
X75714512Y35061394D01*
X76628798Y35137585D02*
X76552608Y35175680D01*
X76514512Y35213775D01*
X76476417Y35289966D01*
X76476417Y35328061D01*
X76514512Y35404251D01*
X76552608Y35442346D01*
X76628798Y35480442D01*
X76781179Y35480442D01*
X76857369Y35442346D01*
X76895465Y35404251D01*
X76933560Y35328061D01*
X76933560Y35289966D01*
X76895465Y35213775D01*
X76857369Y35175680D01*
X76781179Y35137585D01*
X76628798Y35137585D01*
X76552608Y35099489D01*
X76514512Y35061394D01*
X76476417Y34985204D01*
X76476417Y34832823D01*
X76514512Y34756632D01*
X76552608Y34718537D01*
X76628798Y34680442D01*
X76781179Y34680442D01*
X76857369Y34718537D01*
X76895465Y34756632D01*
X76933560Y34832823D01*
X76933560Y34985204D01*
X76895465Y35061394D01*
X76857369Y35099489D01*
X76781179Y35137585D01*
%TO.C,C3*%
X79681655Y59541632D02*
X79643560Y59503537D01*
X79529274Y59465442D01*
X79453084Y59465442D01*
X79338798Y59503537D01*
X79262608Y59579727D01*
X79224512Y59655918D01*
X79186417Y59808299D01*
X79186417Y59922585D01*
X79224512Y60074966D01*
X79262608Y60151156D01*
X79338798Y60227346D01*
X79453084Y60265442D01*
X79529274Y60265442D01*
X79643560Y60227346D01*
X79681655Y60189251D01*
X79948322Y60265442D02*
X80443560Y60265442D01*
X80176893Y59960680D01*
X80291179Y59960680D01*
X80367369Y59922585D01*
X80405465Y59884489D01*
X80443560Y59808299D01*
X80443560Y59617823D01*
X80405465Y59541632D01*
X80367369Y59503537D01*
X80291179Y59465442D01*
X80062608Y59465442D01*
X79986417Y59503537D01*
X79948322Y59541632D01*
%TO.C,LED2*%
X104906893Y6252108D02*
X104906893Y5871156D01*
X104106893Y5871156D01*
X104487846Y6518775D02*
X104487846Y6785442D01*
X104906893Y6899727D02*
X104906893Y6518775D01*
X104106893Y6518775D01*
X104106893Y6899727D01*
X104906893Y7242585D02*
X104106893Y7242585D01*
X104106893Y7433061D01*
X104144989Y7547346D01*
X104221179Y7623537D01*
X104297369Y7661632D01*
X104449750Y7699727D01*
X104564036Y7699727D01*
X104716417Y7661632D01*
X104792608Y7623537D01*
X104868798Y7547346D01*
X104906893Y7433061D01*
X104906893Y7242585D01*
X104183084Y8004489D02*
X104144989Y8042585D01*
X104106893Y8118775D01*
X104106893Y8309251D01*
X104144989Y8385442D01*
X104183084Y8423537D01*
X104259274Y8461632D01*
X104335465Y8461632D01*
X104449750Y8423537D01*
X104906893Y7966394D01*
X104906893Y8461632D01*
%TO.C,D2*%
X53754512Y37010442D02*
X53754512Y37810442D01*
X53944989Y37810442D01*
X54059274Y37772346D01*
X54135465Y37696156D01*
X54173560Y37619966D01*
X54211655Y37467585D01*
X54211655Y37353299D01*
X54173560Y37200918D01*
X54135465Y37124727D01*
X54059274Y37048537D01*
X53944989Y37010442D01*
X53754512Y37010442D01*
X54516417Y37734251D02*
X54554512Y37772346D01*
X54630703Y37810442D01*
X54821179Y37810442D01*
X54897369Y37772346D01*
X54935465Y37734251D01*
X54973560Y37658061D01*
X54973560Y37581870D01*
X54935465Y37467585D01*
X54478322Y37010442D01*
X54973560Y37010442D01*
%TO.C,C10*%
X109705703Y73581632D02*
X109667608Y73543537D01*
X109553322Y73505442D01*
X109477131Y73505442D01*
X109362846Y73543537D01*
X109286655Y73619727D01*
X109248560Y73695918D01*
X109210465Y73848299D01*
X109210465Y73962585D01*
X109248560Y74114966D01*
X109286655Y74191156D01*
X109362846Y74267346D01*
X109477131Y74305442D01*
X109553322Y74305442D01*
X109667608Y74267346D01*
X109705703Y74229251D01*
X110467608Y73505442D02*
X110010465Y73505442D01*
X110239036Y73505442D02*
X110239036Y74305442D01*
X110162846Y74191156D01*
X110086655Y74114966D01*
X110010465Y74076870D01*
X110962846Y74305442D02*
X111039036Y74305442D01*
X111115227Y74267346D01*
X111153322Y74229251D01*
X111191417Y74153061D01*
X111229512Y74000680D01*
X111229512Y73810204D01*
X111191417Y73657823D01*
X111153322Y73581632D01*
X111115227Y73543537D01*
X111039036Y73505442D01*
X110962846Y73505442D01*
X110886655Y73543537D01*
X110848560Y73581632D01*
X110810465Y73657823D01*
X110772369Y73810204D01*
X110772369Y74000680D01*
X110810465Y74153061D01*
X110848560Y74229251D01*
X110886655Y74267346D01*
X110962846Y74305442D01*
%TO.C,R15*%
X56920703Y40160442D02*
X56654036Y40541394D01*
X56463560Y40160442D02*
X56463560Y40960442D01*
X56768322Y40960442D01*
X56844512Y40922346D01*
X56882608Y40884251D01*
X56920703Y40808061D01*
X56920703Y40693775D01*
X56882608Y40617585D01*
X56844512Y40579489D01*
X56768322Y40541394D01*
X56463560Y40541394D01*
X57682608Y40160442D02*
X57225465Y40160442D01*
X57454036Y40160442D02*
X57454036Y40960442D01*
X57377846Y40846156D01*
X57301655Y40769966D01*
X57225465Y40731870D01*
X58406417Y40960442D02*
X58025465Y40960442D01*
X57987369Y40579489D01*
X58025465Y40617585D01*
X58101655Y40655680D01*
X58292131Y40655680D01*
X58368322Y40617585D01*
X58406417Y40579489D01*
X58444512Y40503299D01*
X58444512Y40312823D01*
X58406417Y40236632D01*
X58368322Y40198537D01*
X58292131Y40160442D01*
X58101655Y40160442D01*
X58025465Y40198537D01*
X57987369Y40236632D01*
%TO.C,C7*%
X54896655Y75041632D02*
X54858560Y75003537D01*
X54744274Y74965442D01*
X54668084Y74965442D01*
X54553798Y75003537D01*
X54477608Y75079727D01*
X54439512Y75155918D01*
X54401417Y75308299D01*
X54401417Y75422585D01*
X54439512Y75574966D01*
X54477608Y75651156D01*
X54553798Y75727346D01*
X54668084Y75765442D01*
X54744274Y75765442D01*
X54858560Y75727346D01*
X54896655Y75689251D01*
X55163322Y75765442D02*
X55696655Y75765442D01*
X55353798Y74965442D01*
%TO.C,U3*%
X43380465Y51825442D02*
X43380465Y51177823D01*
X43418560Y51101632D01*
X43456655Y51063537D01*
X43532846Y51025442D01*
X43685227Y51025442D01*
X43761417Y51063537D01*
X43799512Y51101632D01*
X43837608Y51177823D01*
X43837608Y51825442D01*
X44142369Y51825442D02*
X44637608Y51825442D01*
X44370941Y51520680D01*
X44485227Y51520680D01*
X44561417Y51482585D01*
X44599512Y51444489D01*
X44637608Y51368299D01*
X44637608Y51177823D01*
X44599512Y51101632D01*
X44561417Y51063537D01*
X44485227Y51025442D01*
X44256655Y51025442D01*
X44180465Y51063537D01*
X44142369Y51101632D01*
%TO.C,R4*%
X97581655Y11177942D02*
X97314989Y11558894D01*
X97124512Y11177942D02*
X97124512Y11977942D01*
X97429274Y11977942D01*
X97505465Y11939846D01*
X97543560Y11901751D01*
X97581655Y11825561D01*
X97581655Y11711275D01*
X97543560Y11635085D01*
X97505465Y11596989D01*
X97429274Y11558894D01*
X97124512Y11558894D01*
X98267369Y11711275D02*
X98267369Y11177942D01*
X98076893Y12016037D02*
X97886417Y11444608D01*
X98381655Y11444608D01*
%TO.C,R7*%
X73261655Y34660442D02*
X72994989Y35041394D01*
X72804512Y34660442D02*
X72804512Y35460442D01*
X73109274Y35460442D01*
X73185465Y35422346D01*
X73223560Y35384251D01*
X73261655Y35308061D01*
X73261655Y35193775D01*
X73223560Y35117585D01*
X73185465Y35079489D01*
X73109274Y35041394D01*
X72804512Y35041394D01*
X73528322Y35460442D02*
X74061655Y35460442D01*
X73718798Y34660442D01*
%TO.C,U5*%
X54410465Y72750442D02*
X54410465Y72102823D01*
X54448560Y72026632D01*
X54486655Y71988537D01*
X54562846Y71950442D01*
X54715227Y71950442D01*
X54791417Y71988537D01*
X54829512Y72026632D01*
X54867608Y72102823D01*
X54867608Y72750442D01*
X55629512Y72750442D02*
X55248560Y72750442D01*
X55210465Y72369489D01*
X55248560Y72407585D01*
X55324750Y72445680D01*
X55515227Y72445680D01*
X55591417Y72407585D01*
X55629512Y72369489D01*
X55667608Y72293299D01*
X55667608Y72102823D01*
X55629512Y72026632D01*
X55591417Y71988537D01*
X55515227Y71950442D01*
X55324750Y71950442D01*
X55248560Y71988537D01*
X55210465Y72026632D01*
%TO.C,R22*%
X47960703Y71460442D02*
X47694036Y71841394D01*
X47503560Y71460442D02*
X47503560Y72260442D01*
X47808322Y72260442D01*
X47884512Y72222346D01*
X47922608Y72184251D01*
X47960703Y72108061D01*
X47960703Y71993775D01*
X47922608Y71917585D01*
X47884512Y71879489D01*
X47808322Y71841394D01*
X47503560Y71841394D01*
X48265465Y72184251D02*
X48303560Y72222346D01*
X48379750Y72260442D01*
X48570227Y72260442D01*
X48646417Y72222346D01*
X48684512Y72184251D01*
X48722608Y72108061D01*
X48722608Y72031870D01*
X48684512Y71917585D01*
X48227369Y71460442D01*
X48722608Y71460442D01*
X49027369Y72184251D02*
X49065465Y72222346D01*
X49141655Y72260442D01*
X49332131Y72260442D01*
X49408322Y72222346D01*
X49446417Y72184251D01*
X49484512Y72108061D01*
X49484512Y72031870D01*
X49446417Y71917585D01*
X48989274Y71460442D01*
X49484512Y71460442D01*
%TO.C,F1*%
X17421655Y46852549D02*
X17088322Y46852549D01*
X17088322Y46328740D02*
X17088322Y47328740D01*
X17564512Y47328740D01*
X18469274Y46328740D02*
X17897846Y46328740D01*
X18183560Y46328740D02*
X18183560Y47328740D01*
X18088322Y47185882D01*
X17993084Y47090644D01*
X17897846Y47043025D01*
%TO.C,R12*%
X37445703Y51830442D02*
X37179036Y52211394D01*
X36988560Y51830442D02*
X36988560Y52630442D01*
X37293322Y52630442D01*
X37369512Y52592346D01*
X37407608Y52554251D01*
X37445703Y52478061D01*
X37445703Y52363775D01*
X37407608Y52287585D01*
X37369512Y52249489D01*
X37293322Y52211394D01*
X36988560Y52211394D01*
X38207608Y51830442D02*
X37750465Y51830442D01*
X37979036Y51830442D02*
X37979036Y52630442D01*
X37902846Y52516156D01*
X37826655Y52439966D01*
X37750465Y52401870D01*
X38512369Y52554251D02*
X38550465Y52592346D01*
X38626655Y52630442D01*
X38817131Y52630442D01*
X38893322Y52592346D01*
X38931417Y52554251D01*
X38969512Y52478061D01*
X38969512Y52401870D01*
X38931417Y52287585D01*
X38474274Y51830442D01*
X38969512Y51830442D01*
%TO.C,LED5*%
X101501893Y6262108D02*
X101501893Y5881156D01*
X100701893Y5881156D01*
X101082846Y6528775D02*
X101082846Y6795442D01*
X101501893Y6909727D02*
X101501893Y6528775D01*
X100701893Y6528775D01*
X100701893Y6909727D01*
X101501893Y7252585D02*
X100701893Y7252585D01*
X100701893Y7443061D01*
X100739989Y7557346D01*
X100816179Y7633537D01*
X100892369Y7671632D01*
X101044750Y7709727D01*
X101159036Y7709727D01*
X101311417Y7671632D01*
X101387608Y7633537D01*
X101463798Y7557346D01*
X101501893Y7443061D01*
X101501893Y7252585D01*
X100701893Y8433537D02*
X100701893Y8052585D01*
X101082846Y8014489D01*
X101044750Y8052585D01*
X101006655Y8128775D01*
X101006655Y8319251D01*
X101044750Y8395442D01*
X101082846Y8433537D01*
X101159036Y8471632D01*
X101349512Y8471632D01*
X101425703Y8433537D01*
X101463798Y8395442D01*
X101501893Y8319251D01*
X101501893Y8128775D01*
X101463798Y8052585D01*
X101425703Y8014489D01*
%TO.C,R3*%
X94151655Y11185442D02*
X93884989Y11566394D01*
X93694512Y11185442D02*
X93694512Y11985442D01*
X93999274Y11985442D01*
X94075465Y11947346D01*
X94113560Y11909251D01*
X94151655Y11833061D01*
X94151655Y11718775D01*
X94113560Y11642585D01*
X94075465Y11604489D01*
X93999274Y11566394D01*
X93694512Y11566394D01*
X94418322Y11985442D02*
X94913560Y11985442D01*
X94646893Y11680680D01*
X94761179Y11680680D01*
X94837369Y11642585D01*
X94875465Y11604489D01*
X94913560Y11528299D01*
X94913560Y11337823D01*
X94875465Y11261632D01*
X94837369Y11223537D01*
X94761179Y11185442D01*
X94532608Y11185442D01*
X94456417Y11223537D01*
X94418322Y11261632D01*
%TO.C,C6*%
X63996655Y38896632D02*
X63958560Y38858537D01*
X63844274Y38820442D01*
X63768084Y38820442D01*
X63653798Y38858537D01*
X63577608Y38934727D01*
X63539512Y39010918D01*
X63501417Y39163299D01*
X63501417Y39277585D01*
X63539512Y39429966D01*
X63577608Y39506156D01*
X63653798Y39582346D01*
X63768084Y39620442D01*
X63844274Y39620442D01*
X63958560Y39582346D01*
X63996655Y39544251D01*
X64682369Y39620442D02*
X64529989Y39620442D01*
X64453798Y39582346D01*
X64415703Y39544251D01*
X64339512Y39429966D01*
X64301417Y39277585D01*
X64301417Y38972823D01*
X64339512Y38896632D01*
X64377608Y38858537D01*
X64453798Y38820442D01*
X64606179Y38820442D01*
X64682369Y38858537D01*
X64720465Y38896632D01*
X64758560Y38972823D01*
X64758560Y39163299D01*
X64720465Y39239489D01*
X64682369Y39277585D01*
X64606179Y39315680D01*
X64453798Y39315680D01*
X64377608Y39277585D01*
X64339512Y39239489D01*
X64301417Y39163299D01*
%TO.C,LED6*%
X71364750Y59335442D02*
X70983798Y59335442D01*
X70983798Y60135442D01*
X71631417Y59754489D02*
X71898084Y59754489D01*
X72012369Y59335442D02*
X71631417Y59335442D01*
X71631417Y60135442D01*
X72012369Y60135442D01*
X72355227Y59335442D02*
X72355227Y60135442D01*
X72545703Y60135442D01*
X72659989Y60097346D01*
X72736179Y60021156D01*
X72774274Y59944966D01*
X72812369Y59792585D01*
X72812369Y59678299D01*
X72774274Y59525918D01*
X72736179Y59449727D01*
X72659989Y59373537D01*
X72545703Y59335442D01*
X72355227Y59335442D01*
X73498084Y60135442D02*
X73345703Y60135442D01*
X73269512Y60097346D01*
X73231417Y60059251D01*
X73155227Y59944966D01*
X73117131Y59792585D01*
X73117131Y59487823D01*
X73155227Y59411632D01*
X73193322Y59373537D01*
X73269512Y59335442D01*
X73421893Y59335442D01*
X73498084Y59373537D01*
X73536179Y59411632D01*
X73574274Y59487823D01*
X73574274Y59678299D01*
X73536179Y59754489D01*
X73498084Y59792585D01*
X73421893Y59830680D01*
X73269512Y59830680D01*
X73193322Y59792585D01*
X73155227Y59754489D01*
X73117131Y59678299D01*
%TO.C,R17*%
X50875703Y71435442D02*
X50609036Y71816394D01*
X50418560Y71435442D02*
X50418560Y72235442D01*
X50723322Y72235442D01*
X50799512Y72197346D01*
X50837608Y72159251D01*
X50875703Y72083061D01*
X50875703Y71968775D01*
X50837608Y71892585D01*
X50799512Y71854489D01*
X50723322Y71816394D01*
X50418560Y71816394D01*
X51637608Y71435442D02*
X51180465Y71435442D01*
X51409036Y71435442D02*
X51409036Y72235442D01*
X51332846Y72121156D01*
X51256655Y72044966D01*
X51180465Y72006870D01*
X51904274Y72235442D02*
X52437608Y72235442D01*
X52094750Y71435442D01*
%TO.C,R10*%
X75810703Y30290442D02*
X75544036Y30671394D01*
X75353560Y30290442D02*
X75353560Y31090442D01*
X75658322Y31090442D01*
X75734512Y31052346D01*
X75772608Y31014251D01*
X75810703Y30938061D01*
X75810703Y30823775D01*
X75772608Y30747585D01*
X75734512Y30709489D01*
X75658322Y30671394D01*
X75353560Y30671394D01*
X76572608Y30290442D02*
X76115465Y30290442D01*
X76344036Y30290442D02*
X76344036Y31090442D01*
X76267846Y30976156D01*
X76191655Y30899966D01*
X76115465Y30861870D01*
X77067846Y31090442D02*
X77144036Y31090442D01*
X77220227Y31052346D01*
X77258322Y31014251D01*
X77296417Y30938061D01*
X77334512Y30785680D01*
X77334512Y30595204D01*
X77296417Y30442823D01*
X77258322Y30366632D01*
X77220227Y30328537D01*
X77144036Y30290442D01*
X77067846Y30290442D01*
X76991655Y30328537D01*
X76953560Y30366632D01*
X76915465Y30442823D01*
X76877369Y30595204D01*
X76877369Y30785680D01*
X76915465Y30938061D01*
X76953560Y31014251D01*
X76991655Y31052346D01*
X77067846Y31090442D01*
%TO.C,R14*%
X59990703Y35170442D02*
X59724036Y35551394D01*
X59533560Y35170442D02*
X59533560Y35970442D01*
X59838322Y35970442D01*
X59914512Y35932346D01*
X59952608Y35894251D01*
X59990703Y35818061D01*
X59990703Y35703775D01*
X59952608Y35627585D01*
X59914512Y35589489D01*
X59838322Y35551394D01*
X59533560Y35551394D01*
X60752608Y35170442D02*
X60295465Y35170442D01*
X60524036Y35170442D02*
X60524036Y35970442D01*
X60447846Y35856156D01*
X60371655Y35779966D01*
X60295465Y35741870D01*
X61438322Y35703775D02*
X61438322Y35170442D01*
X61247846Y36008537D02*
X61057369Y35437108D01*
X61552608Y35437108D01*
%TO.C,J5*%
X58778333Y75023096D02*
X58778333Y74451667D01*
X58740238Y74337381D01*
X58664047Y74261191D01*
X58549761Y74223096D01*
X58473571Y74223096D01*
X59540238Y75023096D02*
X59159285Y75023096D01*
X59121190Y74642143D01*
X59159285Y74680239D01*
X59235476Y74718334D01*
X59425952Y74718334D01*
X59502142Y74680239D01*
X59540238Y74642143D01*
X59578333Y74565953D01*
X59578333Y74375477D01*
X59540238Y74299286D01*
X59502142Y74261191D01*
X59425952Y74223096D01*
X59235476Y74223096D01*
X59159285Y74261191D01*
X59121190Y74299286D01*
%TO.C,C1*%
X96780703Y17299013D02*
X96818798Y17260918D01*
X96856893Y17146632D01*
X96856893Y17070442D01*
X96818798Y16956156D01*
X96742608Y16879966D01*
X96666417Y16841870D01*
X96514036Y16803775D01*
X96399750Y16803775D01*
X96247369Y16841870D01*
X96171179Y16879966D01*
X96094989Y16956156D01*
X96056893Y17070442D01*
X96056893Y17146632D01*
X96094989Y17260918D01*
X96133084Y17299013D01*
X96856893Y18060918D02*
X96856893Y17603775D01*
X96856893Y17832346D02*
X96056893Y17832346D01*
X96171179Y17756156D01*
X96247369Y17679966D01*
X96285465Y17603775D01*
%TO.C,C2*%
X89226655Y59461632D02*
X89188560Y59423537D01*
X89074274Y59385442D01*
X88998084Y59385442D01*
X88883798Y59423537D01*
X88807608Y59499727D01*
X88769512Y59575918D01*
X88731417Y59728299D01*
X88731417Y59842585D01*
X88769512Y59994966D01*
X88807608Y60071156D01*
X88883798Y60147346D01*
X88998084Y60185442D01*
X89074274Y60185442D01*
X89188560Y60147346D01*
X89226655Y60109251D01*
X89531417Y60109251D02*
X89569512Y60147346D01*
X89645703Y60185442D01*
X89836179Y60185442D01*
X89912369Y60147346D01*
X89950465Y60109251D01*
X89988560Y60033061D01*
X89988560Y59956870D01*
X89950465Y59842585D01*
X89493322Y59385442D01*
X89988560Y59385442D01*
%TO.C,SW2*%
X51760360Y14899146D02*
X51796074Y15006289D01*
X51796074Y15184861D01*
X51760360Y15256289D01*
X51724646Y15292004D01*
X51653217Y15327718D01*
X51581789Y15327718D01*
X51510360Y15292004D01*
X51474646Y15256289D01*
X51438931Y15184861D01*
X51403217Y15042004D01*
X51367503Y14970575D01*
X51331789Y14934861D01*
X51260360Y14899146D01*
X51188931Y14899146D01*
X51117503Y14934861D01*
X51081789Y14970575D01*
X51046074Y15042004D01*
X51046074Y15220575D01*
X51081789Y15327718D01*
X51046074Y15577718D02*
X51796074Y15756289D01*
X51260360Y15899146D01*
X51796074Y16042004D01*
X51046074Y16220575D01*
X51117503Y16470575D02*
X51081789Y16506289D01*
X51046074Y16577718D01*
X51046074Y16756289D01*
X51081789Y16827718D01*
X51117503Y16863432D01*
X51188931Y16899146D01*
X51260360Y16899146D01*
X51367503Y16863432D01*
X51796074Y16434861D01*
X51796074Y16899146D01*
X70294646Y19121289D02*
X70330360Y19085575D01*
X70366074Y18978432D01*
X70366074Y18907004D01*
X70330360Y18799861D01*
X70258931Y18728432D01*
X70187503Y18692718D01*
X70044646Y18657004D01*
X69937503Y18657004D01*
X69794646Y18692718D01*
X69723217Y18728432D01*
X69651789Y18799861D01*
X69616074Y18907004D01*
X69616074Y18978432D01*
X69651789Y19085575D01*
X69687503Y19121289D01*
X60803217Y18902718D02*
X60838931Y19009861D01*
X60874646Y19045575D01*
X60946074Y19081289D01*
X61053217Y19081289D01*
X61124646Y19045575D01*
X61160360Y19009861D01*
X61196074Y18938432D01*
X61196074Y18652718D01*
X60446074Y18652718D01*
X60446074Y18902718D01*
X60481789Y18974146D01*
X60517503Y19009861D01*
X60588931Y19045575D01*
X60660360Y19045575D01*
X60731789Y19009861D01*
X60767503Y18974146D01*
X60803217Y18902718D01*
X60803217Y18652718D01*
X61091789Y12910575D02*
X61091789Y13267718D01*
X61306074Y12839146D02*
X60556074Y13089146D01*
X61306074Y13339146D01*
X70366074Y12892718D02*
X69616074Y12892718D01*
X69616074Y13071289D01*
X69651789Y13178432D01*
X69723217Y13249861D01*
X69794646Y13285575D01*
X69937503Y13321289D01*
X70044646Y13321289D01*
X70187503Y13285575D01*
X70258931Y13249861D01*
X70330360Y13178432D01*
X70366074Y13071289D01*
X70366074Y12892718D01*
%TO.C,R1*%
X107856655Y11155442D02*
X107589989Y11536394D01*
X107399512Y11155442D02*
X107399512Y11955442D01*
X107704274Y11955442D01*
X107780465Y11917346D01*
X107818560Y11879251D01*
X107856655Y11803061D01*
X107856655Y11688775D01*
X107818560Y11612585D01*
X107780465Y11574489D01*
X107704274Y11536394D01*
X107399512Y11536394D01*
X108618560Y11155442D02*
X108161417Y11155442D01*
X108389989Y11155442D02*
X108389989Y11955442D01*
X108313798Y11841156D01*
X108237608Y11764966D01*
X108161417Y11726870D01*
%TO.C,U2*%
X92092608Y47739251D02*
X91283084Y47739251D01*
X91187846Y47691632D01*
X91140227Y47644013D01*
X91092608Y47548775D01*
X91092608Y47358299D01*
X91140227Y47263061D01*
X91187846Y47215442D01*
X91283084Y47167823D01*
X92092608Y47167823D01*
X91997369Y46739251D02*
X92044989Y46691632D01*
X92092608Y46596394D01*
X92092608Y46358299D01*
X92044989Y46263061D01*
X91997369Y46215442D01*
X91902131Y46167823D01*
X91806893Y46167823D01*
X91664036Y46215442D01*
X91092608Y46786870D01*
X91092608Y46167823D01*
%TO.C,R11*%
X78695703Y30310442D02*
X78429036Y30691394D01*
X78238560Y30310442D02*
X78238560Y31110442D01*
X78543322Y31110442D01*
X78619512Y31072346D01*
X78657608Y31034251D01*
X78695703Y30958061D01*
X78695703Y30843775D01*
X78657608Y30767585D01*
X78619512Y30729489D01*
X78543322Y30691394D01*
X78238560Y30691394D01*
X79457608Y30310442D02*
X79000465Y30310442D01*
X79229036Y30310442D02*
X79229036Y31110442D01*
X79152846Y30996156D01*
X79076655Y30919966D01*
X79000465Y30881870D01*
X80219512Y30310442D02*
X79762369Y30310442D01*
X79990941Y30310442D02*
X79990941Y31110442D01*
X79914750Y30996156D01*
X79838560Y30919966D01*
X79762369Y30881870D01*
%TO.C,SW1*%
X82118322Y10663537D02*
X82232608Y10625442D01*
X82423084Y10625442D01*
X82499274Y10663537D01*
X82537369Y10701632D01*
X82575465Y10777823D01*
X82575465Y10854013D01*
X82537369Y10930204D01*
X82499274Y10968299D01*
X82423084Y11006394D01*
X82270703Y11044489D01*
X82194512Y11082585D01*
X82156417Y11120680D01*
X82118322Y11196870D01*
X82118322Y11273061D01*
X82156417Y11349251D01*
X82194512Y11387346D01*
X82270703Y11425442D01*
X82461179Y11425442D01*
X82575465Y11387346D01*
X82842131Y11425442D02*
X83032608Y10625442D01*
X83184989Y11196870D01*
X83337369Y10625442D01*
X83527846Y11425442D01*
X84251655Y10625442D02*
X83794512Y10625442D01*
X84023084Y10625442D02*
X84023084Y11425442D01*
X83946893Y11311156D01*
X83870703Y11234966D01*
X83794512Y11196870D01*
%TO.C,LED4*%
X98086893Y6274608D02*
X98086893Y5893656D01*
X97286893Y5893656D01*
X97667846Y6541275D02*
X97667846Y6807942D01*
X98086893Y6922227D02*
X98086893Y6541275D01*
X97286893Y6541275D01*
X97286893Y6922227D01*
X98086893Y7265085D02*
X97286893Y7265085D01*
X97286893Y7455561D01*
X97324989Y7569846D01*
X97401179Y7646037D01*
X97477369Y7684132D01*
X97629750Y7722227D01*
X97744036Y7722227D01*
X97896417Y7684132D01*
X97972608Y7646037D01*
X98048798Y7569846D01*
X98086893Y7455561D01*
X98086893Y7265085D01*
X97553560Y8407942D02*
X98086893Y8407942D01*
X97248798Y8217466D02*
X97820227Y8026989D01*
X97820227Y8522227D01*
%TO.C,C5*%
X48206655Y51651632D02*
X48168560Y51613537D01*
X48054274Y51575442D01*
X47978084Y51575442D01*
X47863798Y51613537D01*
X47787608Y51689727D01*
X47749512Y51765918D01*
X47711417Y51918299D01*
X47711417Y52032585D01*
X47749512Y52184966D01*
X47787608Y52261156D01*
X47863798Y52337346D01*
X47978084Y52375442D01*
X48054274Y52375442D01*
X48168560Y52337346D01*
X48206655Y52299251D01*
X48930465Y52375442D02*
X48549512Y52375442D01*
X48511417Y51994489D01*
X48549512Y52032585D01*
X48625703Y52070680D01*
X48816179Y52070680D01*
X48892369Y52032585D01*
X48930465Y51994489D01*
X48968560Y51918299D01*
X48968560Y51727823D01*
X48930465Y51651632D01*
X48892369Y51613537D01*
X48816179Y51575442D01*
X48625703Y51575442D01*
X48549512Y51613537D01*
X48511417Y51651632D01*
D10*
%TO.C,R9*%
X79916789Y32649582D02*
X79916789Y33103710D01*
X78446789Y32649582D02*
X78446789Y33103710D01*
%TO.C,L1*%
X88359989Y60927346D02*
X83259989Y60927346D01*
X88359989Y55827346D02*
X83259989Y55827346D01*
%TO.C,Q1*%
X19114989Y70831120D02*
X19114989Y75472120D01*
X22383989Y70831120D02*
X22383989Y72341120D01*
X29354989Y70831120D02*
X29354989Y75472120D01*
X26084989Y70831120D02*
X26084989Y72341120D01*
X29354989Y75472120D02*
X19114989Y75472120D01*
X29354989Y70831120D02*
X19114989Y70831120D01*
X29354989Y72341120D02*
X19114989Y72341120D01*
%TO.C,R21*%
X85232489Y76251910D02*
X85232489Y75797782D01*
X83762489Y76251910D02*
X83762489Y75797782D01*
%TO.C,R20*%
X86662489Y75792782D02*
X86662489Y76246910D01*
X88132489Y75792782D02*
X88132489Y76246910D01*
%TO.C,L2*%
X87795367Y66762346D02*
X88594611Y66762346D01*
X87795367Y65642346D02*
X88594611Y65642346D01*
%TO.C,L3*%
X87780367Y68672346D02*
X88579611Y68672346D01*
X87780367Y67552346D02*
X88579611Y67552346D01*
%TO.C,R19*%
X91217489Y76995282D02*
X91217489Y77449410D01*
X92687489Y76995282D02*
X92687489Y77449410D01*
%TO.C,LED1*%
X108689989Y5462346D02*
X110609989Y5462346D01*
X110609989Y5462346D02*
X110609989Y8147346D01*
X108689989Y8147346D02*
X108689989Y5462346D01*
%TO.C,J1*%
X82614989Y18747346D02*
X82614989Y18247346D01*
X89644989Y18247346D02*
X89644989Y18747346D01*
X91064989Y14157346D02*
X91064989Y17232346D01*
X82634989Y18747346D02*
X82614989Y18747346D01*
X81194989Y14157346D02*
X91064989Y14157346D01*
X82614989Y18247346D02*
X89644989Y18247346D01*
X89644989Y18747346D02*
X89624989Y18747346D01*
X81194989Y17232346D02*
X81194989Y14157346D01*
D16*
%TO.C,U1*%
X93494989Y7527346D02*
X93494989Y57817346D01*
X112034989Y7527346D02*
X93494989Y7527346D01*
X112034989Y57817346D02*
X112034989Y7527346D01*
X93494989Y57817346D02*
X112034989Y57817346D01*
D11*
X112864989Y16172346D02*
G75*
G03*
X112864989Y16172346I-100000J0D01*
G01*
D10*
%TO.C,C11*%
X106442489Y71311094D02*
X106442489Y71833598D01*
X107912489Y71311094D02*
X107912489Y71833598D01*
%TO.C,C8*%
X109422489Y67413598D02*
X109422489Y66891094D01*
X110892489Y67413598D02*
X110892489Y66891094D01*
%TO.C,J4*%
X68932489Y63567346D02*
X72007489Y63567346D01*
X72007489Y63567346D02*
X72007489Y79437346D01*
X72007489Y79437346D02*
X68932489Y79437346D01*
X67417489Y65007346D02*
X67417489Y64987346D01*
X67417489Y64987346D02*
X67917489Y64987346D01*
X67417489Y78017346D02*
X67417489Y77997346D01*
X67917489Y78017346D02*
X67417489Y78017346D01*
X67917489Y64987346D02*
X67917489Y78017346D01*
%TO.C,R16*%
X50559989Y74165282D02*
X50559989Y74619410D01*
X52029989Y74165282D02*
X52029989Y74619410D01*
%TO.C,JP1*%
X84047489Y81527346D02*
X84047489Y78867346D01*
X89247489Y81527346D02*
X89247489Y80197346D01*
X87917489Y81527346D02*
X89247489Y81527346D01*
X86647489Y78867346D02*
X84047489Y78867346D01*
X86647489Y81527346D02*
X84047489Y81527346D01*
X86647489Y81527346D02*
X86647489Y78867346D01*
%TO.C,C15*%
X91212489Y71306094D02*
X91212489Y71828598D01*
X92682489Y71306094D02*
X92682489Y71828598D01*
%TO.C,Q2*%
X19119989Y66201120D02*
X29359989Y66201120D01*
X22389989Y67711120D02*
X22389989Y66201120D01*
X29359989Y67711120D02*
X29359989Y63070120D01*
X26090989Y67711120D02*
X26090989Y66201120D01*
X19119989Y67711120D02*
X19119989Y63070120D01*
X19119989Y67711120D02*
X29359989Y67711120D01*
X19119989Y63070120D02*
X29359989Y63070120D01*
%TO.C,C9*%
X106452489Y66886094D02*
X106452489Y67408598D01*
X107922489Y66886094D02*
X107922489Y67408598D01*
%TO.C,R6*%
X75934989Y57107782D02*
X75934989Y57561910D01*
X74464989Y57107782D02*
X74464989Y57561910D01*
%TO.C,D1*%
X46744989Y44927346D02*
X46744989Y46927346D01*
X46744989Y46927346D02*
X42444989Y46927346D01*
X42444989Y44927346D02*
X46744989Y44927346D01*
%TO.C,C13*%
X83712489Y66901094D02*
X83712489Y67423598D01*
X85182489Y66901094D02*
X85182489Y67423598D01*
%TO.C,R13*%
X59677489Y38186692D02*
X59677489Y38640820D01*
X61147489Y38186692D02*
X61147489Y38640820D01*
%TO.C,C4*%
X77424989Y57111094D02*
X77424989Y57633598D01*
X78894989Y57111094D02*
X78894989Y57633598D01*
%TO.C,R18*%
X49144989Y74150282D02*
X49144989Y74604410D01*
X47674989Y74150282D02*
X47674989Y74604410D01*
%TO.C,U7*%
X86812489Y71787346D02*
X86812489Y73462346D01*
X86812489Y71787346D02*
X86812489Y71137346D01*
X83692489Y71787346D02*
X83692489Y72437346D01*
X83692489Y71787346D02*
X83692489Y71137346D01*
D11*
%TO.C,J2*%
X2579989Y32806120D02*
X2579989Y32806120D01*
D17*
X49699989Y12986120D02*
X3119989Y12986120D01*
X3119989Y12986120D02*
X3119989Y42236120D01*
X3119989Y42236120D02*
X49699989Y42236120D01*
D11*
X2579989Y32606120D02*
X2579989Y32606120D01*
D17*
X49699989Y42236120D02*
X49699989Y12986120D01*
D11*
X2579989Y32606120D02*
G75*
G03*
X2579989Y32806120I0J100000D01*
G01*
X2579989Y32806120D02*
G75*
G03*
X2579989Y32606120I0J-100000D01*
G01*
D10*
%TO.C,R2*%
X105449989Y11290282D02*
X105449989Y11744410D01*
X106919989Y11290282D02*
X106919989Y11744410D01*
%TO.C,R5*%
X103514989Y11300282D02*
X103514989Y11754410D01*
X102044989Y11300282D02*
X102044989Y11754410D01*
%TO.C,J3*%
X76182489Y64997346D02*
X76182489Y64977346D01*
X76182489Y64977346D02*
X76682489Y64977346D01*
X76182489Y78007346D02*
X76182489Y77987346D01*
X76682489Y78007346D02*
X76182489Y78007346D01*
X76682489Y64977346D02*
X76682489Y78007346D01*
X80772489Y79427346D02*
X77697489Y79427346D01*
X77697489Y63557346D02*
X80772489Y63557346D01*
X80772489Y63557346D02*
X80772489Y79427346D01*
%TO.C,HS1*%
X15829989Y57181120D02*
X15839989Y68141120D01*
X3349989Y62721120D02*
X9859989Y67731120D01*
X7429989Y75621120D02*
X3869989Y76841120D01*
X40349989Y78151120D02*
X44379989Y81741120D01*
X32649989Y81321120D02*
X32639989Y70361120D01*
X36669989Y62451120D02*
X39759989Y56881120D01*
X15839989Y68141120D02*
X24239989Y68141120D01*
X7629989Y57211120D02*
X8379989Y60201120D01*
X14659989Y81411120D02*
X13849989Y76451120D01*
X32639989Y68141120D02*
X24239989Y68141120D01*
X41049989Y75621120D02*
X44609989Y76841120D01*
X11809989Y76051120D02*
X8719989Y81621120D01*
X36669989Y76051120D02*
X39759989Y81621120D01*
X8129989Y78151120D02*
X4099989Y81741120D01*
X32649989Y57181120D02*
X32639989Y68141120D01*
X11809989Y62451120D02*
X8719989Y56881120D01*
X45129989Y75781120D02*
X38619989Y70771120D01*
X45129989Y80821120D02*
X40879989Y75841120D01*
X33819989Y81411120D02*
X34629989Y76451120D01*
X15839989Y70361120D02*
X24239989Y70361120D01*
X14659989Y57091120D02*
X13849989Y62051120D01*
X45129989Y57681120D02*
X40879989Y62661120D01*
X3349989Y80821120D02*
X7599989Y75841120D01*
X15829989Y81321120D02*
X15839989Y70361120D01*
X45129989Y62721120D02*
X38619989Y67731120D01*
X40849989Y81291120D02*
X40099989Y78301120D01*
X8129989Y60351120D02*
X4099989Y56761120D01*
X3349989Y57681120D02*
X7599989Y62661120D01*
X3349989Y75781120D02*
X9859989Y70771120D01*
X7429989Y62881120D02*
X3869989Y61661120D01*
X33819989Y57091120D02*
X34629989Y62051120D01*
X7629989Y81291120D02*
X8379989Y78301120D01*
X41049989Y62881120D02*
X44609989Y61661120D01*
X32639989Y70361120D02*
X24239989Y70361120D01*
X40849989Y57211120D02*
X40099989Y60201120D01*
X40349989Y60351120D02*
X44379989Y56761120D01*
X8729989Y81611120D02*
G75*
G03*
X7632736Y81281834I-489999J-360002D01*
G01*
X34618478Y76490458D02*
G75*
G03*
X36669989Y76061120I1131511J290662D01*
G01*
X3356628Y57681310D02*
G75*
G03*
X4119989Y56781120I393361J-440190D01*
G01*
X40880995Y75843966D02*
G75*
G03*
X41049989Y75621120I108994J-92846D01*
G01*
X15829989Y81291120D02*
G75*
G03*
X14661622Y81389405I-590000J-20000D01*
G01*
X45121235Y75779579D02*
G75*
G03*
X44599989Y76841120I-381245J471542D01*
G01*
X41049989Y62881120D02*
G75*
G03*
X40880994Y62658276I-60000J-130000D01*
G01*
X7632693Y57221254D02*
G75*
G03*
X8729989Y56891120I607296J29867D01*
G01*
X7429989Y75621120D02*
G75*
G03*
X7598984Y75843964I60000J130000D01*
G01*
X44599989Y61661120D02*
G75*
G03*
X45121999Y62722043I140000J590000D01*
G01*
X3879989Y76841120D02*
G75*
G03*
X3357979Y75780197I-140000J-590000D01*
G01*
X39749989Y56891120D02*
G75*
G03*
X40847242Y57220406I489999J360002D01*
G01*
X11809989Y76061120D02*
G75*
G03*
X13861264Y76489543I920000J720000D01*
G01*
X8129989Y78141120D02*
G75*
G03*
X8377343Y78324153I110000J110000D01*
G01*
X44359990Y56781121D02*
G75*
G03*
X45123556Y57681125I369999J459999D01*
G01*
X8377251Y60177914D02*
G75*
G03*
X8129989Y60361120I-137262J73206D01*
G01*
X7598983Y62658274D02*
G75*
G03*
X7429989Y62881120I-108994J92846D01*
G01*
X40847285Y81280986D02*
G75*
G03*
X39749989Y81611120I-607296J-29867D01*
G01*
X4119988Y81721119D02*
G75*
G03*
X3356422Y80821115I-369999J-459999D01*
G01*
X36669989Y62441120D02*
G75*
G03*
X34618714Y62012697I-920000J-720000D01*
G01*
X40102727Y78324326D02*
G75*
G03*
X40349989Y78141120I137262J-73206D01*
G01*
X32649989Y57211120D02*
G75*
G03*
X33818356Y57112835I590000J20000D01*
G01*
X14661494Y57113461D02*
G75*
G03*
X15829989Y57211120I578495J117659D01*
G01*
X3358743Y62722661D02*
G75*
G03*
X3879989Y61661120I381245J-471542D01*
G01*
X33818484Y81388779D02*
G75*
G03*
X32649989Y81291120I-578495J-117659D01*
G01*
X45123350Y80820930D02*
G75*
G03*
X44359989Y81721120I-393361J440190D01*
G01*
X40349989Y60361120D02*
G75*
G03*
X40102635Y60178087I-110000J-110000D01*
G01*
X13861500Y62011782D02*
G75*
G03*
X11809989Y62441120I-1131511J-290662D01*
G01*
%TO.C,C12*%
X92682489Y66901094D02*
X92682489Y67423598D01*
X91212489Y66901094D02*
X91212489Y67423598D01*
%TO.C,C14*%
X88252489Y71833598D02*
X88252489Y71311094D01*
X89722489Y71833598D02*
X89722489Y71311094D01*
%TO.C,U6*%
X95837489Y64277346D02*
X95837489Y79577346D01*
X103337489Y79577346D02*
X95837489Y79577346D01*
X103337489Y79577346D02*
X103337489Y64277346D01*
X103337489Y64277346D02*
X95837489Y64277346D01*
D18*
X102923180Y65177346D02*
G75*
G03*
X102923180Y65177346I-385691J0D01*
G01*
D10*
%TO.C,LED3*%
X95009989Y5484846D02*
X96929989Y5484846D01*
X96929989Y5484846D02*
X96929989Y8169846D01*
X95009989Y8169846D02*
X95009989Y5484846D01*
%TO.C,U4*%
X65657489Y33633756D02*
X65657489Y34433756D01*
X62537489Y33633756D02*
X62537489Y31833756D01*
X65657489Y33633756D02*
X65657489Y32833756D01*
X62537489Y33633756D02*
X62537489Y34433756D01*
%TO.C,R8*%
X75556789Y33103710D02*
X75556789Y32649582D01*
X77026789Y33103710D02*
X77026789Y32649582D01*
%TO.C,C3*%
X81834989Y57091094D02*
X81834989Y57613598D01*
X80364989Y57091094D02*
X80364989Y57613598D01*
%TO.C,LED2*%
X107154989Y5462346D02*
X107154989Y8147346D01*
X105234989Y8147346D02*
X105234989Y5462346D01*
X105234989Y5462346D02*
X107154989Y5462346D01*
%TO.C,D2*%
X55342489Y31701256D02*
X55342489Y36001256D01*
X53342489Y31701256D02*
X55342489Y31701256D01*
X53342489Y36001256D02*
X53342489Y31701256D01*
%TO.C,C10*%
X109447489Y71838598D02*
X109447489Y71316094D01*
X110917489Y71838598D02*
X110917489Y71316094D01*
%TO.C,R15*%
X56719989Y38159192D02*
X56719989Y38613320D01*
X58189989Y38159192D02*
X58189989Y38613320D01*
%TO.C,C7*%
X55261241Y73119846D02*
X54738737Y73119846D01*
X55261241Y74589846D02*
X54738737Y74589846D01*
%TO.C,U3*%
X44659989Y50527346D02*
X43259989Y50527346D01*
X43259989Y48207346D02*
X45159989Y48207346D01*
%TO.C,R4*%
X100099989Y11312782D02*
X100099989Y11766910D01*
X98629989Y11312782D02*
X98629989Y11766910D01*
%TO.C,R7*%
X72656789Y32649582D02*
X72656789Y33103710D01*
X74126789Y32649582D02*
X74126789Y33103710D01*
%TO.C,U5*%
X53439989Y69829846D02*
X53439989Y70629846D01*
X56559989Y69829846D02*
X56559989Y70629846D01*
X53439989Y69829846D02*
X53439989Y68029846D01*
X56559989Y69829846D02*
X56559989Y69029846D01*
%TO.C,R22*%
X49174989Y69360282D02*
X49174989Y69814410D01*
X47704989Y69360282D02*
X47704989Y69814410D01*
%TO.C,F1*%
X5154989Y44281120D02*
X5154989Y54481120D01*
X31354989Y54481120D02*
X31354989Y44281120D01*
X5154989Y54481120D02*
X31354989Y54481120D01*
X31354989Y44281120D02*
X5154989Y44281120D01*
%TO.C,R12*%
X37034989Y48619056D02*
X37034989Y50073184D01*
X38854989Y48619056D02*
X38854989Y50073184D01*
%TO.C,LED5*%
X101829989Y5472346D02*
X103749989Y5472346D01*
X101829989Y8157346D02*
X101829989Y5472346D01*
X103749989Y5472346D02*
X103749989Y8157346D01*
%TO.C,R3*%
X95219989Y11312782D02*
X95219989Y11766910D01*
X96689989Y11312782D02*
X96689989Y11766910D01*
%TO.C,C6*%
X64348741Y36946256D02*
X63826237Y36946256D01*
X64348741Y38416256D02*
X63826237Y38416256D01*
%TO.C,LED6*%
X71329989Y55634846D02*
X73249989Y55634846D01*
X73249989Y55634846D02*
X73249989Y58319846D01*
X71329989Y58319846D02*
X71329989Y55634846D01*
%TO.C,R17*%
X52049989Y69355282D02*
X52049989Y69809410D01*
X50579989Y69355282D02*
X50579989Y69809410D01*
%TO.C,R10*%
X75541789Y28731210D02*
X75541789Y28277082D01*
X77011789Y28731210D02*
X77011789Y28277082D01*
%TO.C,R14*%
X59709989Y33184192D02*
X59709989Y33638320D01*
X61179989Y33184192D02*
X61179989Y33638320D01*
%TO.C,J5*%
X63275000Y73410000D02*
X60200000Y73410000D01*
X58685000Y71990000D02*
X58685000Y71970000D01*
X63275000Y63540000D02*
X63275000Y73410000D01*
X58685000Y64980000D02*
X58685000Y64960000D01*
X58685000Y64960000D02*
X59185000Y64960000D01*
X59185000Y64960000D02*
X59185000Y71990000D01*
X60200000Y63540000D02*
X63275000Y63540000D01*
X59185000Y71990000D02*
X58685000Y71990000D01*
%TO.C,C1*%
X98909989Y17171094D02*
X98909989Y17693598D01*
X97439989Y17171094D02*
X97439989Y17693598D01*
%TO.C,C2*%
X91284989Y57051094D02*
X91284989Y57573598D01*
X89814989Y57051094D02*
X89814989Y57573598D01*
D15*
%TO.C,SW2*%
X78656789Y16059146D02*
G75*
G03*
X78656789Y16059146I-13100000J0D01*
G01*
X63401789Y1949146D02*
G75*
G03*
X63401789Y1949146I-125000J0D01*
G01*
D10*
%TO.C,R1*%
X110374989Y11290282D02*
X110374989Y11744410D01*
X108904989Y11290282D02*
X108904989Y11744410D01*
%TO.C,U2*%
X90504989Y51032346D02*
X77804989Y51032346D01*
X77804989Y51032346D02*
X77804989Y43412346D01*
X77804989Y43412346D02*
X90504989Y43412346D01*
X90504989Y43412346D02*
X90504989Y51032346D01*
%TO.C,R11*%
X78461789Y28277082D02*
X78461789Y28731210D01*
X79931789Y28277082D02*
X79931789Y28731210D01*
%TO.C,SW1*%
X88944989Y9832346D02*
X84444989Y9832346D01*
X83194989Y7332346D02*
X83194989Y5832346D01*
X84444989Y3332346D02*
X88944989Y3332346D01*
X90194989Y5832346D02*
X90194989Y7332346D01*
%TO.C,LED4*%
X98414989Y8169846D02*
X98414989Y5484846D01*
X98414989Y5484846D02*
X100334989Y5484846D01*
X100334989Y5484846D02*
X100334989Y8169846D01*
%TO.C,C5*%
X49059989Y49421094D02*
X49059989Y49943598D01*
X47589989Y49421094D02*
X47589989Y49943598D01*
%TD*%
%LPC*%
D19*
%TO.C,R9*%
X79181789Y31964146D03*
X79181789Y33789146D03*
%TD*%
D20*
%TO.C,L1*%
X87609989Y58377346D03*
X84009989Y58377346D03*
%TD*%
D21*
%TO.C,Q1*%
X26774989Y74101120D03*
D22*
X24234989Y74101120D03*
X21694989Y74101120D03*
%TD*%
D23*
%TO.C,R21*%
X84497489Y76937346D03*
X84497489Y75112346D03*
%TD*%
D19*
%TO.C,R20*%
X87397489Y75107346D03*
X87397489Y76932346D03*
%TD*%
D24*
%TO.C,H3*%
X85034989Y25057346D03*
%TD*%
D25*
%TO.C,L2*%
X87132489Y66202346D03*
X89257489Y66202346D03*
%TD*%
%TO.C,L3*%
X87117489Y68112346D03*
X89242489Y68112346D03*
%TD*%
D19*
%TO.C,R19*%
X91952489Y76309846D03*
X91952489Y78134846D03*
%TD*%
D26*
%TO.C,LED1*%
X109649989Y6209846D03*
X109649989Y8084846D03*
%TD*%
D27*
%TO.C,J1*%
X90629989Y18127346D03*
X81629989Y18127346D03*
D28*
X84629989Y16167346D03*
D29*
X87629989Y16167346D03*
%TD*%
D30*
%TO.C,U1*%
X110384989Y16457346D03*
D31*
X110384989Y18997346D03*
X110384989Y21537346D03*
X110384989Y24077346D03*
X110384989Y26617346D03*
X110384989Y29157346D03*
X110384989Y31697346D03*
X110384989Y34237346D03*
X110384989Y36777346D03*
X110384989Y39317346D03*
X110384989Y41857346D03*
X110384989Y44397346D03*
X110384989Y46937346D03*
X110384989Y49477346D03*
X110384989Y52017346D03*
X95144989Y52017346D03*
X95144989Y49477346D03*
X95144989Y46937346D03*
X95144989Y44397346D03*
X95144989Y41857346D03*
X95144989Y39317346D03*
X95144989Y36777346D03*
X95144989Y34237346D03*
X95144989Y31697346D03*
X95144989Y29157346D03*
X95144989Y26617346D03*
X95144989Y24077346D03*
X95144989Y21537346D03*
X95144989Y18997346D03*
D30*
X95144989Y16457346D03*
%TD*%
D32*
%TO.C,C11*%
X107177489Y70622346D03*
X107177489Y72522346D03*
%TD*%
D33*
%TO.C,C8*%
X110157489Y68102346D03*
X110157489Y66202346D03*
%TD*%
D27*
%TO.C,J4*%
X68037489Y79002346D03*
X68037489Y64002346D03*
D34*
X69997489Y67002346D03*
D35*
X69997489Y70002346D03*
X69997489Y73002346D03*
X69997489Y76002346D03*
%TD*%
D19*
%TO.C,R16*%
X51294989Y73479846D03*
X51294989Y75304846D03*
%TD*%
D36*
%TO.C,JP1*%
X87917489Y80197346D03*
D37*
X85377489Y80197346D03*
%TD*%
D32*
%TO.C,C15*%
X91947489Y70617346D03*
X91947489Y72517346D03*
%TD*%
D21*
%TO.C,Q2*%
X21699989Y64441120D03*
D22*
X24239989Y64441120D03*
X26779989Y64441120D03*
%TD*%
D32*
%TO.C,C9*%
X107187489Y66197346D03*
X107187489Y68097346D03*
%TD*%
D19*
%TO.C,R6*%
X75199989Y56422346D03*
X75199989Y58247346D03*
%TD*%
D38*
%TO.C,D1*%
X45944989Y45927346D03*
X42444989Y45927346D03*
%TD*%
D32*
%TO.C,C13*%
X84447489Y66212346D03*
X84447489Y68112346D03*
%TD*%
D19*
%TO.C,R13*%
X60412489Y37501256D03*
X60412489Y39326256D03*
%TD*%
D24*
%TO.C,H1*%
X5024989Y68992346D03*
%TD*%
D32*
%TO.C,C4*%
X78159989Y56422346D03*
X78159989Y58322346D03*
%TD*%
D19*
%TO.C,R18*%
X48409989Y73464846D03*
X48409989Y75289846D03*
%TD*%
D39*
%TO.C,U7*%
X86202489Y72724846D03*
X84302489Y72724846D03*
X85252489Y70849846D03*
%TD*%
D40*
%TO.C,J2*%
X6919989Y29986120D03*
X45899989Y29986120D03*
D41*
X14979989Y32706120D03*
X14979989Y35246120D03*
X14979989Y40326120D03*
X22599989Y32706120D03*
X22599989Y35246120D03*
X22599989Y40326120D03*
X30219989Y32706120D03*
X30219989Y35246120D03*
X30219989Y40326120D03*
X37839989Y32706120D03*
X37839989Y35246120D03*
X37839989Y40326120D03*
%TD*%
D19*
%TO.C,R2*%
X106184989Y10604846D03*
X106184989Y12429846D03*
%TD*%
%TO.C,R5*%
X102779989Y10614846D03*
X102779989Y12439846D03*
%TD*%
D27*
%TO.C,J3*%
X76802489Y78992346D03*
X76802489Y63992346D03*
D34*
X78762489Y66992346D03*
D35*
X78762489Y69992346D03*
X78762489Y72992346D03*
X78762489Y75992346D03*
%TD*%
D42*
%TO.C,HS1*%
X36939989Y69251120D03*
X11539989Y69251120D03*
%TD*%
D32*
%TO.C,C12*%
X91947489Y66212346D03*
X91947489Y68112346D03*
%TD*%
D33*
%TO.C,C14*%
X88987489Y72522346D03*
X88987489Y70622346D03*
%TD*%
D43*
%TO.C,U6*%
X104262489Y66162346D03*
X104262489Y67432346D03*
X104262489Y68702346D03*
X104262489Y69972346D03*
X104262489Y71242346D03*
X104262489Y72512346D03*
X104262489Y73782346D03*
X104262489Y75052346D03*
X104262489Y76322346D03*
X104262489Y77592346D03*
X94812489Y77592346D03*
X94812489Y76322346D03*
X94812489Y75052346D03*
X94812489Y73782346D03*
X94812489Y72512346D03*
X94812489Y71242346D03*
X94812489Y69972346D03*
X94812489Y68702346D03*
X94812489Y67432346D03*
X94812489Y66162346D03*
%TD*%
D26*
%TO.C,LED3*%
X95969989Y6232346D03*
X95969989Y8107346D03*
%TD*%
D44*
%TO.C,U4*%
X63147489Y32496256D03*
X64097489Y32496256D03*
X65047489Y32496256D03*
X65047489Y34771256D03*
X64097489Y34771256D03*
X63147489Y34771256D03*
%TD*%
D23*
%TO.C,R8*%
X76291789Y33789146D03*
X76291789Y31964146D03*
%TD*%
D32*
%TO.C,C3*%
X81099989Y56402346D03*
X81099989Y58302346D03*
%TD*%
D26*
%TO.C,LED2*%
X106194989Y6209846D03*
X106194989Y8084846D03*
%TD*%
D45*
%TO.C,D2*%
X54342489Y32501256D03*
X54342489Y36001256D03*
%TD*%
D33*
%TO.C,C10*%
X110182489Y72527346D03*
X110182489Y70627346D03*
%TD*%
D19*
%TO.C,R15*%
X57454989Y37473756D03*
X57454989Y39298756D03*
%TD*%
D46*
%TO.C,C7*%
X55949989Y73854846D03*
X54049989Y73854846D03*
%TD*%
D47*
%TO.C,U3*%
X45289989Y48717346D03*
X45289989Y49367346D03*
X45289989Y50017346D03*
X42629989Y50017346D03*
X42629989Y49367346D03*
X42629989Y48717346D03*
%TD*%
D19*
%TO.C,R4*%
X99364989Y10627346D03*
X99364989Y12452346D03*
%TD*%
%TO.C,R7*%
X73391789Y31964146D03*
X73391789Y33789146D03*
%TD*%
D44*
%TO.C,U5*%
X54049989Y68692346D03*
X54999989Y68692346D03*
X55949989Y68692346D03*
X55949989Y70967346D03*
X54999989Y70967346D03*
X54049989Y70967346D03*
%TD*%
D19*
%TO.C,R22*%
X48439989Y68674846D03*
X48439989Y70499846D03*
%TD*%
D48*
%TO.C,F1*%
X30354989Y49381120D03*
X6254989Y49381120D03*
%TD*%
D49*
%TO.C,R12*%
X37944989Y47883620D03*
X37944989Y50808620D03*
%TD*%
D26*
%TO.C,LED5*%
X102789989Y6219846D03*
X102789989Y8094846D03*
%TD*%
D19*
%TO.C,R3*%
X95954989Y10627346D03*
X95954989Y12452346D03*
%TD*%
D46*
%TO.C,C6*%
X65037489Y37681256D03*
X63137489Y37681256D03*
%TD*%
D24*
%TO.C,H2*%
X110994989Y80967346D03*
%TD*%
D26*
%TO.C,LED6*%
X72289989Y56382346D03*
X72289989Y58257346D03*
%TD*%
D19*
%TO.C,R17*%
X51314989Y68669846D03*
X51314989Y70494846D03*
%TD*%
D23*
%TO.C,R10*%
X76276789Y29416646D03*
X76276789Y27591646D03*
%TD*%
D19*
%TO.C,R14*%
X60444989Y32498756D03*
X60444989Y34323756D03*
%TD*%
D27*
%TO.C,J5*%
X59305000Y72975000D03*
X59305000Y63975000D03*
D34*
X61265000Y66975000D03*
D35*
X61265000Y69975000D03*
%TD*%
D32*
%TO.C,C1*%
X98174989Y16482346D03*
X98174989Y18382346D03*
%TD*%
%TO.C,C2*%
X90549989Y56362346D03*
X90549989Y58262346D03*
%TD*%
D50*
%TO.C,SW2*%
X62653899Y5297346D03*
X57677899Y8170256D03*
X54804989Y13146256D03*
X54804989Y18892036D03*
X57677899Y23868036D03*
X62653899Y26740946D03*
X68399679Y26740946D03*
X73375679Y23868036D03*
X76248589Y18892036D03*
X76248589Y13146256D03*
X73375679Y8170256D03*
X68399679Y5297346D03*
X62963789Y13146256D03*
X62963779Y18892036D03*
X68089799Y18892036D03*
X68089799Y13146256D03*
%TD*%
D19*
%TO.C,R1*%
X109639989Y10604846D03*
X109639989Y12429846D03*
%TD*%
D51*
%TO.C,U2*%
X87964989Y52302346D03*
X85424989Y52302346D03*
X80344989Y52302346D03*
X80344989Y42142346D03*
X87964989Y42142346D03*
%TD*%
D19*
%TO.C,R11*%
X79196789Y27591646D03*
X79196789Y29416646D03*
%TD*%
D52*
%TO.C,SW1*%
X83444989Y4332346D03*
X89944989Y4332346D03*
X89944989Y8832346D03*
X83444989Y8832346D03*
%TD*%
D26*
%TO.C,LED4*%
X99374989Y6232346D03*
X99374989Y8107346D03*
%TD*%
D32*
%TO.C,C5*%
X48324989Y48732346D03*
X48324989Y50632346D03*
%TD*%
M02*
