%TF.GenerationSoftware,KiCad,Pcbnew,5.1.6-c6e7f7d~87~ubuntu18.04.1*%
%TF.CreationDate,2020-08-21T18:24:12-05:00*%
%TF.ProjectId,IV Curve Tracer,49562043-7572-4766-9520-547261636572,rev?*%
%TF.SameCoordinates,Original*%
%TF.FileFunction,Copper,L1,Top*%
%TF.FilePolarity,Positive*%
%FSLAX46Y46*%
G04 Gerber Fmt 4.6, Leading zero omitted, Abs format (unit mm)*
G04 Created by KiCad (PCBNEW 5.1.6-c6e7f7d~87~ubuntu18.04.1) date 2020-08-21 18:24:12*
%MOMM*%
%LPD*%
G01*
G04 APERTURE LIST*
%TA.AperFunction,ComponentPad*%
%ADD10O,2.020000X1.500000*%
%TD*%
%TA.AperFunction,ComponentPad*%
%ADD11O,1.700000X1.700000*%
%TD*%
%TA.AperFunction,ComponentPad*%
%ADD12R,1.700000X1.700000*%
%TD*%
%TA.AperFunction,ComponentPad*%
%ADD13C,2.800000*%
%TD*%
%TA.AperFunction,SMDPad,CuDef*%
%ADD14R,1.700000X0.650000*%
%TD*%
%TA.AperFunction,SMDPad,CuDef*%
%ADD15R,2.000000X0.700000*%
%TD*%
%TA.AperFunction,ComponentPad*%
%ADD16R,1.800000X1.800000*%
%TD*%
%TA.AperFunction,ComponentPad*%
%ADD17C,1.800000*%
%TD*%
%TA.AperFunction,ComponentPad*%
%ADD18C,1.400000*%
%TD*%
%TA.AperFunction,ComponentPad*%
%ADD19O,1.400000X1.400000*%
%TD*%
%TA.AperFunction,ComponentPad*%
%ADD20C,3.000000*%
%TD*%
%TA.AperFunction,ComponentPad*%
%ADD21R,2.400000X1.600000*%
%TD*%
%TA.AperFunction,ComponentPad*%
%ADD22O,2.400000X1.600000*%
%TD*%
%TA.AperFunction,ComponentPad*%
%ADD23R,3.000000X3.000000*%
%TD*%
%TA.AperFunction,ComponentPad*%
%ADD24R,1.600000X1.600000*%
%TD*%
%TA.AperFunction,ComponentPad*%
%ADD25O,1.600000X1.600000*%
%TD*%
%TA.AperFunction,ComponentPad*%
%ADD26R,4.500000X2.500000*%
%TD*%
%TA.AperFunction,ComponentPad*%
%ADD27O,4.500000X2.500000*%
%TD*%
%TA.AperFunction,SMDPad,CuDef*%
%ADD28R,3.400000X1.800000*%
%TD*%
%TA.AperFunction,ComponentPad*%
%ADD29C,4.000000*%
%TD*%
%TA.AperFunction,SMDPad,CuDef*%
%ADD30R,1.500000X0.400000*%
%TD*%
%TA.AperFunction,ComponentPad*%
%ADD31C,2.250000*%
%TD*%
%TA.AperFunction,ViaPad*%
%ADD32C,0.600000*%
%TD*%
%TA.AperFunction,ViaPad*%
%ADD33C,0.800000*%
%TD*%
%TA.AperFunction,Conductor*%
%ADD34C,0.500000*%
%TD*%
%TA.AperFunction,Conductor*%
%ADD35C,0.250000*%
%TD*%
%TA.AperFunction,Conductor*%
%ADD36C,0.450000*%
%TD*%
%TA.AperFunction,Conductor*%
%ADD37C,0.254000*%
%TD*%
G04 APERTURE END LIST*
%TO.P,J7,1*%
%TO.N,Net-(C11-Pad1)*%
%TA.AperFunction,ComponentPad*%
G36*
G01*
X209290000Y-136050000D02*
X210810000Y-136050000D01*
G75*
G02*
X211060000Y-136300000I0J-250000D01*
G01*
X211060000Y-137300000D01*
G75*
G02*
X210810000Y-137550000I-250000J0D01*
G01*
X209290000Y-137550000D01*
G75*
G02*
X209040000Y-137300000I0J250000D01*
G01*
X209040000Y-136300000D01*
G75*
G02*
X209290000Y-136050000I250000J0D01*
G01*
G37*
%TD.AperFunction*%
D10*
%TO.P,J7,2*%
%TO.N,Net-(C11-Pad2)*%
X210050000Y-139800000D03*
%TO.P,J7,3*%
%TO.N,/CAN_H*%
X210050000Y-142800000D03*
%TO.P,J7,4*%
%TO.N,/CAN_L*%
X210050000Y-145800000D03*
%TD*%
%TO.P,J1,1*%
%TO.N,Net-(C11-Pad1)*%
%TA.AperFunction,ComponentPad*%
G36*
G01*
X217290000Y-136000000D02*
X218810000Y-136000000D01*
G75*
G02*
X219060000Y-136250000I0J-250000D01*
G01*
X219060000Y-137250000D01*
G75*
G02*
X218810000Y-137500000I-250000J0D01*
G01*
X217290000Y-137500000D01*
G75*
G02*
X217040000Y-137250000I0J250000D01*
G01*
X217040000Y-136250000D01*
G75*
G02*
X217290000Y-136000000I250000J0D01*
G01*
G37*
%TD.AperFunction*%
%TO.P,J1,2*%
%TO.N,Net-(C11-Pad2)*%
X218050000Y-139750000D03*
%TO.P,J1,3*%
%TO.N,/CAN_H*%
X218050000Y-142750000D03*
%TO.P,J1,4*%
%TO.N,/CAN_L*%
X218050000Y-145750000D03*
%TD*%
%TO.P,C18,2*%
%TO.N,GND*%
%TA.AperFunction,SMDPad,CuDef*%
G36*
G01*
X170227500Y-129640000D02*
X170572500Y-129640000D01*
G75*
G02*
X170720000Y-129787500I0J-147500D01*
G01*
X170720000Y-130082500D01*
G75*
G02*
X170572500Y-130230000I-147500J0D01*
G01*
X170227500Y-130230000D01*
G75*
G02*
X170080000Y-130082500I0J147500D01*
G01*
X170080000Y-129787500D01*
G75*
G02*
X170227500Y-129640000I147500J0D01*
G01*
G37*
%TD.AperFunction*%
%TO.P,C18,1*%
%TO.N,+3V3*%
%TA.AperFunction,SMDPad,CuDef*%
G36*
G01*
X170227500Y-128670000D02*
X170572500Y-128670000D01*
G75*
G02*
X170720000Y-128817500I0J-147500D01*
G01*
X170720000Y-129112500D01*
G75*
G02*
X170572500Y-129260000I-147500J0D01*
G01*
X170227500Y-129260000D01*
G75*
G02*
X170080000Y-129112500I0J147500D01*
G01*
X170080000Y-128817500D01*
G75*
G02*
X170227500Y-128670000I147500J0D01*
G01*
G37*
%TD.AperFunction*%
%TD*%
%TO.P,C2,2*%
%TO.N,+10V*%
%TA.AperFunction,SMDPad,CuDef*%
G36*
G01*
X149602400Y-86198400D02*
X149602400Y-85853400D01*
G75*
G02*
X149749900Y-85705900I147500J0D01*
G01*
X150044900Y-85705900D01*
G75*
G02*
X150192400Y-85853400I0J-147500D01*
G01*
X150192400Y-86198400D01*
G75*
G02*
X150044900Y-86345900I-147500J0D01*
G01*
X149749900Y-86345900D01*
G75*
G02*
X149602400Y-86198400I0J147500D01*
G01*
G37*
%TD.AperFunction*%
%TO.P,C2,1*%
%TO.N,GND*%
%TA.AperFunction,SMDPad,CuDef*%
G36*
G01*
X148632400Y-86198400D02*
X148632400Y-85853400D01*
G75*
G02*
X148779900Y-85705900I147500J0D01*
G01*
X149074900Y-85705900D01*
G75*
G02*
X149222400Y-85853400I0J-147500D01*
G01*
X149222400Y-86198400D01*
G75*
G02*
X149074900Y-86345900I-147500J0D01*
G01*
X148779900Y-86345900D01*
G75*
G02*
X148632400Y-86198400I0J147500D01*
G01*
G37*
%TD.AperFunction*%
%TD*%
%TO.P,C4,2*%
%TO.N,+3V3*%
%TA.AperFunction,SMDPad,CuDef*%
G36*
G01*
X155274500Y-115846000D02*
X154929500Y-115846000D01*
G75*
G02*
X154782000Y-115698500I0J147500D01*
G01*
X154782000Y-115403500D01*
G75*
G02*
X154929500Y-115256000I147500J0D01*
G01*
X155274500Y-115256000D01*
G75*
G02*
X155422000Y-115403500I0J-147500D01*
G01*
X155422000Y-115698500D01*
G75*
G02*
X155274500Y-115846000I-147500J0D01*
G01*
G37*
%TD.AperFunction*%
%TO.P,C4,1*%
%TO.N,GND*%
%TA.AperFunction,SMDPad,CuDef*%
G36*
G01*
X155274500Y-116816000D02*
X154929500Y-116816000D01*
G75*
G02*
X154782000Y-116668500I0J147500D01*
G01*
X154782000Y-116373500D01*
G75*
G02*
X154929500Y-116226000I147500J0D01*
G01*
X155274500Y-116226000D01*
G75*
G02*
X155422000Y-116373500I0J-147500D01*
G01*
X155422000Y-116668500D01*
G75*
G02*
X155274500Y-116816000I-147500J0D01*
G01*
G37*
%TD.AperFunction*%
%TD*%
%TO.P,C5,2*%
%TO.N,+3V3*%
%TA.AperFunction,SMDPad,CuDef*%
G36*
G01*
X160855600Y-134557900D02*
X160855600Y-134902900D01*
G75*
G02*
X160708100Y-135050400I-147500J0D01*
G01*
X160413100Y-135050400D01*
G75*
G02*
X160265600Y-134902900I0J147500D01*
G01*
X160265600Y-134557900D01*
G75*
G02*
X160413100Y-134410400I147500J0D01*
G01*
X160708100Y-134410400D01*
G75*
G02*
X160855600Y-134557900I0J-147500D01*
G01*
G37*
%TD.AperFunction*%
%TO.P,C5,1*%
%TO.N,GND*%
%TA.AperFunction,SMDPad,CuDef*%
G36*
G01*
X161825600Y-134557900D02*
X161825600Y-134902900D01*
G75*
G02*
X161678100Y-135050400I-147500J0D01*
G01*
X161383100Y-135050400D01*
G75*
G02*
X161235600Y-134902900I0J147500D01*
G01*
X161235600Y-134557900D01*
G75*
G02*
X161383100Y-134410400I147500J0D01*
G01*
X161678100Y-134410400D01*
G75*
G02*
X161825600Y-134557900I0J-147500D01*
G01*
G37*
%TD.AperFunction*%
%TD*%
%TO.P,C3,2*%
%TO.N,GND*%
%TA.AperFunction,SMDPad,CuDef*%
G36*
G01*
X195627500Y-129640000D02*
X195972500Y-129640000D01*
G75*
G02*
X196120000Y-129787500I0J-147500D01*
G01*
X196120000Y-130082500D01*
G75*
G02*
X195972500Y-130230000I-147500J0D01*
G01*
X195627500Y-130230000D01*
G75*
G02*
X195480000Y-130082500I0J147500D01*
G01*
X195480000Y-129787500D01*
G75*
G02*
X195627500Y-129640000I147500J0D01*
G01*
G37*
%TD.AperFunction*%
%TO.P,C3,1*%
%TO.N,+5V*%
%TA.AperFunction,SMDPad,CuDef*%
G36*
G01*
X195627500Y-128670000D02*
X195972500Y-128670000D01*
G75*
G02*
X196120000Y-128817500I0J-147500D01*
G01*
X196120000Y-129112500D01*
G75*
G02*
X195972500Y-129260000I-147500J0D01*
G01*
X195627500Y-129260000D01*
G75*
G02*
X195480000Y-129112500I0J147500D01*
G01*
X195480000Y-128817500D01*
G75*
G02*
X195627500Y-128670000I147500J0D01*
G01*
G37*
%TD.AperFunction*%
%TD*%
D11*
%TO.P,J5,15*%
%TO.N,Net-(J5-Pad15)*%
X167860000Y-111350000D03*
%TO.P,J5,14*%
%TO.N,Net-(J5-Pad14)*%
X170400000Y-111350000D03*
%TO.P,J5,13*%
%TO.N,CAN_RX*%
X172940000Y-111350000D03*
%TO.P,J5,12*%
%TO.N,Net-(J5-Pad12)*%
X175480000Y-111350000D03*
%TO.P,J5,11*%
%TO.N,Net-(J5-Pad11)*%
X178020000Y-111350000D03*
%TO.P,J5,10*%
%TO.N,Net-(J5-Pad10)*%
X180560000Y-111350000D03*
%TO.P,J5,9*%
%TO.N,Net-(J5-Pad9)*%
X183100000Y-111350000D03*
%TO.P,J5,8*%
%TO.N,Net-(J5-Pad8)*%
X185640000Y-111350000D03*
%TO.P,J5,7*%
%TO.N,Net-(J5-Pad7)*%
X188180000Y-111350000D03*
%TO.P,J5,6*%
%TO.N,Net-(J5-Pad6)*%
X190720000Y-111350000D03*
%TO.P,J5,5*%
%TO.N,CAN_TX*%
X193260000Y-111350000D03*
%TO.P,J5,4*%
%TO.N,GND*%
X195800000Y-111350000D03*
%TO.P,J5,3*%
%TO.N,Net-(J5-Pad3)*%
X198340000Y-111350000D03*
%TO.P,J5,2*%
%TO.N,Net-(J5-Pad2)*%
X200880000Y-111350000D03*
D12*
%TO.P,J5,1*%
%TO.N,Net-(J5-Pad1)*%
X203420000Y-111350000D03*
%TD*%
D11*
%TO.P,J6,15*%
%TO.N,Net-(J6-Pad15)*%
X167860000Y-126550000D03*
%TO.P,J6,14*%
%TO.N,+3V3*%
X170400000Y-126550000D03*
%TO.P,J6,13*%
%TO.N,Net-(J6-Pad13)*%
X172940000Y-126550000D03*
%TO.P,J6,12*%
%TO.N,Net-(J6-Pad12)*%
X175480000Y-126550000D03*
%TO.P,J6,11*%
%TO.N,Net-(J6-Pad11)*%
X178020000Y-126550000D03*
%TO.P,J6,10*%
%TO.N,Net-(J6-Pad10)*%
X180560000Y-126550000D03*
%TO.P,J6,9*%
%TO.N,Net-(J6-Pad9)*%
X183100000Y-126550000D03*
%TO.P,J6,8*%
%TO.N,DAC_Control*%
X185640000Y-126550000D03*
%TO.P,J6,7*%
%TO.N,Net-(J6-Pad7)*%
X188180000Y-126550000D03*
%TO.P,J6,6*%
%TO.N,ADC_C*%
X190720000Y-126550000D03*
%TO.P,J6,5*%
%TO.N,ADC_V*%
X193260000Y-126550000D03*
%TO.P,J6,4*%
%TO.N,+5V*%
X195800000Y-126550000D03*
%TO.P,J6,3*%
%TO.N,Net-(J6-Pad3)*%
X198340000Y-126550000D03*
%TO.P,J6,2*%
%TO.N,GND*%
X200880000Y-126550000D03*
D12*
%TO.P,J6,1*%
%TO.N,Net-(J6-Pad1)*%
X203420000Y-126550000D03*
%TD*%
%TO.P,R15,1*%
%TO.N,/TERM_L*%
%TA.AperFunction,SMDPad,CuDef*%
G36*
G01*
X195643750Y-140425000D02*
X196556250Y-140425000D01*
G75*
G02*
X196800000Y-140668750I0J-243750D01*
G01*
X196800000Y-141156250D01*
G75*
G02*
X196556250Y-141400000I-243750J0D01*
G01*
X195643750Y-141400000D01*
G75*
G02*
X195400000Y-141156250I0J243750D01*
G01*
X195400000Y-140668750D01*
G75*
G02*
X195643750Y-140425000I243750J0D01*
G01*
G37*
%TD.AperFunction*%
%TO.P,R15,2*%
%TO.N,/CAN_L*%
%TA.AperFunction,SMDPad,CuDef*%
G36*
G01*
X195643750Y-142300000D02*
X196556250Y-142300000D01*
G75*
G02*
X196800000Y-142543750I0J-243750D01*
G01*
X196800000Y-143031250D01*
G75*
G02*
X196556250Y-143275000I-243750J0D01*
G01*
X195643750Y-143275000D01*
G75*
G02*
X195400000Y-143031250I0J243750D01*
G01*
X195400000Y-142543750D01*
G75*
G02*
X195643750Y-142300000I243750J0D01*
G01*
G37*
%TD.AperFunction*%
%TD*%
D13*
%TO.P,TP7,1*%
%TO.N,Net-(C11-Pad1)*%
X180000000Y-154000000D03*
%TD*%
%TO.P,TP9,1*%
%TO.N,Net-(C11-Pad2)*%
X186700000Y-154050000D03*
%TD*%
D14*
%TO.P,U4,1*%
%TO.N,GND*%
X174625000Y-137835000D03*
%TO.P,U4,2*%
X174625000Y-139105000D03*
%TO.P,U4,3*%
%TO.N,+5V*%
X174625000Y-140375000D03*
%TO.P,U4,4*%
%TO.N,+3V3*%
X174625000Y-141645000D03*
%TO.P,U4,5*%
%TO.N,CAN_RX*%
X174625000Y-142915000D03*
%TO.P,U4,6*%
%TO.N,Net-(U4-Pad6)*%
X174625000Y-144185000D03*
%TO.P,U4,7*%
%TO.N,CAN_TX*%
X174625000Y-145455000D03*
%TO.P,U4,8*%
%TO.N,Net-(U4-Pad8)*%
X174625000Y-146725000D03*
%TO.P,U4,9*%
%TO.N,Net-(U4-Pad9)*%
X174625000Y-147995000D03*
%TO.P,U4,10*%
%TO.N,GND*%
X174625000Y-149265000D03*
%TO.P,U4,11*%
%TO.N,Net-(C11-Pad2)*%
X184175000Y-149265000D03*
%TO.P,U4,12*%
%TO.N,/RSlope*%
X184175000Y-147995000D03*
%TO.P,U4,13*%
%TO.N,/CAN_L*%
X184175000Y-146725000D03*
%TO.P,U4,14*%
%TO.N,/CAN_H*%
X184175000Y-145455000D03*
%TO.P,U4,15*%
%TO.N,Net-(C11-Pad2)*%
X184175000Y-144185000D03*
%TO.P,U4,16*%
%TO.N,Net-(C11-Pad1)*%
X184175000Y-142915000D03*
%TO.P,U4,17*%
%TO.N,Net-(U4-Pad17)*%
X184175000Y-141645000D03*
%TO.P,U4,18*%
%TO.N,Net-(C10-Pad2)*%
X184175000Y-140375000D03*
%TO.P,U4,19*%
%TO.N,Net-(C10-Pad1)*%
X184175000Y-139105000D03*
%TO.P,U4,20*%
%TO.N,Net-(C10-Pad2)*%
X184175000Y-137835000D03*
%TD*%
D13*
%TO.P,TP10,1*%
%TO.N,CAN_RX*%
X174000000Y-132000000D03*
%TD*%
%TO.P,C8,1*%
%TO.N,+3V3*%
%TA.AperFunction,SMDPad,CuDef*%
G36*
G01*
X172835000Y-143203750D02*
X172835000Y-144116250D01*
G75*
G02*
X172591250Y-144360000I-243750J0D01*
G01*
X172103750Y-144360000D01*
G75*
G02*
X171860000Y-144116250I0J243750D01*
G01*
X171860000Y-143203750D01*
G75*
G02*
X172103750Y-142960000I243750J0D01*
G01*
X172591250Y-142960000D01*
G75*
G02*
X172835000Y-143203750I0J-243750D01*
G01*
G37*
%TD.AperFunction*%
%TO.P,C8,2*%
%TO.N,GND*%
%TA.AperFunction,SMDPad,CuDef*%
G36*
G01*
X170960000Y-143203750D02*
X170960000Y-144116250D01*
G75*
G02*
X170716250Y-144360000I-243750J0D01*
G01*
X170228750Y-144360000D01*
G75*
G02*
X169985000Y-144116250I0J243750D01*
G01*
X169985000Y-143203750D01*
G75*
G02*
X170228750Y-142960000I243750J0D01*
G01*
X170716250Y-142960000D01*
G75*
G02*
X170960000Y-143203750I0J-243750D01*
G01*
G37*
%TD.AperFunction*%
%TD*%
%TO.P,C13,1*%
%TO.N,Net-(C11-Pad1)*%
%TA.AperFunction,SMDPad,CuDef*%
G36*
G01*
X188243750Y-142125000D02*
X189156250Y-142125000D01*
G75*
G02*
X189400000Y-142368750I0J-243750D01*
G01*
X189400000Y-142856250D01*
G75*
G02*
X189156250Y-143100000I-243750J0D01*
G01*
X188243750Y-143100000D01*
G75*
G02*
X188000000Y-142856250I0J243750D01*
G01*
X188000000Y-142368750D01*
G75*
G02*
X188243750Y-142125000I243750J0D01*
G01*
G37*
%TD.AperFunction*%
%TO.P,C13,2*%
%TO.N,Net-(C11-Pad2)*%
%TA.AperFunction,SMDPad,CuDef*%
G36*
G01*
X188243750Y-144000000D02*
X189156250Y-144000000D01*
G75*
G02*
X189400000Y-144243750I0J-243750D01*
G01*
X189400000Y-144731250D01*
G75*
G02*
X189156250Y-144975000I-243750J0D01*
G01*
X188243750Y-144975000D01*
G75*
G02*
X188000000Y-144731250I0J243750D01*
G01*
X188000000Y-144243750D01*
G75*
G02*
X188243750Y-144000000I243750J0D01*
G01*
G37*
%TD.AperFunction*%
%TD*%
%TO.P,C9,1*%
%TO.N,+3V3*%
%TA.AperFunction,SMDPad,CuDef*%
G36*
G01*
X172825000Y-141093750D02*
X172825000Y-142006250D01*
G75*
G02*
X172581250Y-142250000I-243750J0D01*
G01*
X172093750Y-142250000D01*
G75*
G02*
X171850000Y-142006250I0J243750D01*
G01*
X171850000Y-141093750D01*
G75*
G02*
X172093750Y-140850000I243750J0D01*
G01*
X172581250Y-140850000D01*
G75*
G02*
X172825000Y-141093750I0J-243750D01*
G01*
G37*
%TD.AperFunction*%
%TO.P,C9,2*%
%TO.N,GND*%
%TA.AperFunction,SMDPad,CuDef*%
G36*
G01*
X170950000Y-141093750D02*
X170950000Y-142006250D01*
G75*
G02*
X170706250Y-142250000I-243750J0D01*
G01*
X170218750Y-142250000D01*
G75*
G02*
X169975000Y-142006250I0J243750D01*
G01*
X169975000Y-141093750D01*
G75*
G02*
X170218750Y-140850000I243750J0D01*
G01*
X170706250Y-140850000D01*
G75*
G02*
X170950000Y-141093750I0J-243750D01*
G01*
G37*
%TD.AperFunction*%
%TD*%
%TO.P,C10,1*%
%TO.N,Net-(C10-Pad1)*%
%TA.AperFunction,SMDPad,CuDef*%
G36*
G01*
X187156250Y-139575000D02*
X186243750Y-139575000D01*
G75*
G02*
X186000000Y-139331250I0J243750D01*
G01*
X186000000Y-138843750D01*
G75*
G02*
X186243750Y-138600000I243750J0D01*
G01*
X187156250Y-138600000D01*
G75*
G02*
X187400000Y-138843750I0J-243750D01*
G01*
X187400000Y-139331250D01*
G75*
G02*
X187156250Y-139575000I-243750J0D01*
G01*
G37*
%TD.AperFunction*%
%TO.P,C10,2*%
%TO.N,Net-(C10-Pad2)*%
%TA.AperFunction,SMDPad,CuDef*%
G36*
G01*
X187156250Y-137700000D02*
X186243750Y-137700000D01*
G75*
G02*
X186000000Y-137456250I0J243750D01*
G01*
X186000000Y-136968750D01*
G75*
G02*
X186243750Y-136725000I243750J0D01*
G01*
X187156250Y-136725000D01*
G75*
G02*
X187400000Y-136968750I0J-243750D01*
G01*
X187400000Y-137456250D01*
G75*
G02*
X187156250Y-137700000I-243750J0D01*
G01*
G37*
%TD.AperFunction*%
%TD*%
%TO.P,TP4,1*%
%TO.N,/CAN_H*%
X195000000Y-151050000D03*
%TD*%
%TO.P,C11,1*%
%TO.N,Net-(C11-Pad1)*%
%TA.AperFunction,SMDPad,CuDef*%
G36*
G01*
X192756250Y-139575000D02*
X191843750Y-139575000D01*
G75*
G02*
X191600000Y-139331250I0J243750D01*
G01*
X191600000Y-138843750D01*
G75*
G02*
X191843750Y-138600000I243750J0D01*
G01*
X192756250Y-138600000D01*
G75*
G02*
X193000000Y-138843750I0J-243750D01*
G01*
X193000000Y-139331250D01*
G75*
G02*
X192756250Y-139575000I-243750J0D01*
G01*
G37*
%TD.AperFunction*%
%TO.P,C11,2*%
%TO.N,Net-(C11-Pad2)*%
%TA.AperFunction,SMDPad,CuDef*%
G36*
G01*
X192756250Y-137700000D02*
X191843750Y-137700000D01*
G75*
G02*
X191600000Y-137456250I0J243750D01*
G01*
X191600000Y-136968750D01*
G75*
G02*
X191843750Y-136725000I243750J0D01*
G01*
X192756250Y-136725000D01*
G75*
G02*
X193000000Y-136968750I0J-243750D01*
G01*
X193000000Y-137456250D01*
G75*
G02*
X192756250Y-137700000I-243750J0D01*
G01*
G37*
%TD.AperFunction*%
%TD*%
%TO.P,C12,1*%
%TO.N,Net-(C11-Pad1)*%
%TA.AperFunction,SMDPad,CuDef*%
G36*
G01*
X186243750Y-142125000D02*
X187156250Y-142125000D01*
G75*
G02*
X187400000Y-142368750I0J-243750D01*
G01*
X187400000Y-142856250D01*
G75*
G02*
X187156250Y-143100000I-243750J0D01*
G01*
X186243750Y-143100000D01*
G75*
G02*
X186000000Y-142856250I0J243750D01*
G01*
X186000000Y-142368750D01*
G75*
G02*
X186243750Y-142125000I243750J0D01*
G01*
G37*
%TD.AperFunction*%
%TO.P,C12,2*%
%TO.N,Net-(C11-Pad2)*%
%TA.AperFunction,SMDPad,CuDef*%
G36*
G01*
X186243750Y-144000000D02*
X187156250Y-144000000D01*
G75*
G02*
X187400000Y-144243750I0J-243750D01*
G01*
X187400000Y-144731250D01*
G75*
G02*
X187156250Y-144975000I-243750J0D01*
G01*
X186243750Y-144975000D01*
G75*
G02*
X186000000Y-144731250I0J243750D01*
G01*
X186000000Y-144243750D01*
G75*
G02*
X186243750Y-144000000I243750J0D01*
G01*
G37*
%TD.AperFunction*%
%TD*%
%TO.P,TP8,1*%
%TO.N,Net-(C10-Pad2)*%
X188500000Y-132000000D03*
%TD*%
%TO.P,L1,1*%
%TO.N,Net-(C11-Pad1)*%
%TA.AperFunction,SMDPad,CuDef*%
G36*
G01*
X190925000Y-138793750D02*
X190925000Y-139706250D01*
G75*
G02*
X190681250Y-139950000I-243750J0D01*
G01*
X190193750Y-139950000D01*
G75*
G02*
X189950000Y-139706250I0J243750D01*
G01*
X189950000Y-138793750D01*
G75*
G02*
X190193750Y-138550000I243750J0D01*
G01*
X190681250Y-138550000D01*
G75*
G02*
X190925000Y-138793750I0J-243750D01*
G01*
G37*
%TD.AperFunction*%
%TO.P,L1,2*%
%TO.N,Net-(C10-Pad1)*%
%TA.AperFunction,SMDPad,CuDef*%
G36*
G01*
X189050000Y-138793750D02*
X189050000Y-139706250D01*
G75*
G02*
X188806250Y-139950000I-243750J0D01*
G01*
X188318750Y-139950000D01*
G75*
G02*
X188075000Y-139706250I0J243750D01*
G01*
X188075000Y-138793750D01*
G75*
G02*
X188318750Y-138550000I243750J0D01*
G01*
X188806250Y-138550000D01*
G75*
G02*
X189050000Y-138793750I0J-243750D01*
G01*
G37*
%TD.AperFunction*%
%TD*%
%TO.P,R12,1*%
%TO.N,/RSlope*%
%TA.AperFunction,SMDPad,CuDef*%
G36*
G01*
X186243750Y-147625000D02*
X187156250Y-147625000D01*
G75*
G02*
X187400000Y-147868750I0J-243750D01*
G01*
X187400000Y-148356250D01*
G75*
G02*
X187156250Y-148600000I-243750J0D01*
G01*
X186243750Y-148600000D01*
G75*
G02*
X186000000Y-148356250I0J243750D01*
G01*
X186000000Y-147868750D01*
G75*
G02*
X186243750Y-147625000I243750J0D01*
G01*
G37*
%TD.AperFunction*%
%TO.P,R12,2*%
%TO.N,Net-(C11-Pad2)*%
%TA.AperFunction,SMDPad,CuDef*%
G36*
G01*
X186243750Y-149500000D02*
X187156250Y-149500000D01*
G75*
G02*
X187400000Y-149743750I0J-243750D01*
G01*
X187400000Y-150231250D01*
G75*
G02*
X187156250Y-150475000I-243750J0D01*
G01*
X186243750Y-150475000D01*
G75*
G02*
X186000000Y-150231250I0J243750D01*
G01*
X186000000Y-149743750D01*
G75*
G02*
X186243750Y-149500000I243750J0D01*
G01*
G37*
%TD.AperFunction*%
%TD*%
%TO.P,TP6,1*%
%TO.N,Net-(C10-Pad1)*%
X182000000Y-132000000D03*
%TD*%
%TO.P,TP5,1*%
%TO.N,/CAN_L*%
X202000000Y-151050000D03*
%TD*%
D15*
%TO.P,U5,1*%
%TO.N,/CAN_H*%
X198800000Y-144800000D03*
%TO.P,U5,2*%
%TO.N,/CAN_L*%
X198800000Y-146700000D03*
%TO.P,U5,3*%
%TO.N,Net-(C11-Pad2)*%
X202200000Y-145750000D03*
%TD*%
D13*
%TO.P,TP11,1*%
%TO.N,CAN_TX*%
X172800000Y-154050000D03*
%TD*%
D12*
%TO.P,JP1,1*%
%TO.N,/TERM_L*%
X196100000Y-138150000D03*
D11*
%TO.P,JP1,2*%
%TO.N,/TERM_H*%
X198640000Y-138150000D03*
%TD*%
%TO.P,L2,1*%
%TO.N,Net-(C11-Pad2)*%
%TA.AperFunction,SMDPad,CuDef*%
G36*
G01*
X190925000Y-136693750D02*
X190925000Y-137606250D01*
G75*
G02*
X190681250Y-137850000I-243750J0D01*
G01*
X190193750Y-137850000D01*
G75*
G02*
X189950000Y-137606250I0J243750D01*
G01*
X189950000Y-136693750D01*
G75*
G02*
X190193750Y-136450000I243750J0D01*
G01*
X190681250Y-136450000D01*
G75*
G02*
X190925000Y-136693750I0J-243750D01*
G01*
G37*
%TD.AperFunction*%
%TO.P,L2,2*%
%TO.N,Net-(C10-Pad2)*%
%TA.AperFunction,SMDPad,CuDef*%
G36*
G01*
X189050000Y-136693750D02*
X189050000Y-137606250D01*
G75*
G02*
X188806250Y-137850000I-243750J0D01*
G01*
X188318750Y-137850000D01*
G75*
G02*
X188075000Y-137606250I0J243750D01*
G01*
X188075000Y-136693750D01*
G75*
G02*
X188318750Y-136450000I243750J0D01*
G01*
X188806250Y-136450000D01*
G75*
G02*
X189050000Y-136693750I0J-243750D01*
G01*
G37*
%TD.AperFunction*%
%TD*%
%TO.P,R14,1*%
%TO.N,/TERM_H*%
%TA.AperFunction,SMDPad,CuDef*%
G36*
G01*
X198243750Y-140425000D02*
X199156250Y-140425000D01*
G75*
G02*
X199400000Y-140668750I0J-243750D01*
G01*
X199400000Y-141156250D01*
G75*
G02*
X199156250Y-141400000I-243750J0D01*
G01*
X198243750Y-141400000D01*
G75*
G02*
X198000000Y-141156250I0J243750D01*
G01*
X198000000Y-140668750D01*
G75*
G02*
X198243750Y-140425000I243750J0D01*
G01*
G37*
%TD.AperFunction*%
%TO.P,R14,2*%
%TO.N,/CAN_H*%
%TA.AperFunction,SMDPad,CuDef*%
G36*
G01*
X198243750Y-142300000D02*
X199156250Y-142300000D01*
G75*
G02*
X199400000Y-142543750I0J-243750D01*
G01*
X199400000Y-143031250D01*
G75*
G02*
X199156250Y-143275000I-243750J0D01*
G01*
X198243750Y-143275000D01*
G75*
G02*
X198000000Y-143031250I0J243750D01*
G01*
X198000000Y-142543750D01*
G75*
G02*
X198243750Y-142300000I243750J0D01*
G01*
G37*
%TD.AperFunction*%
%TD*%
D16*
%TO.P,LED4,1*%
%TO.N,Net-(LED4-Pad1)*%
X161896500Y-95563600D03*
D17*
%TO.P,LED4,2*%
%TO.N,GND*%
X161896500Y-98103600D03*
%TD*%
%TO.P,C6,1*%
%TO.N,+5V*%
%TA.AperFunction,SMDPad,CuDef*%
G36*
G01*
X170556250Y-140275000D02*
X169643750Y-140275000D01*
G75*
G02*
X169400000Y-140031250I0J243750D01*
G01*
X169400000Y-139543750D01*
G75*
G02*
X169643750Y-139300000I243750J0D01*
G01*
X170556250Y-139300000D01*
G75*
G02*
X170800000Y-139543750I0J-243750D01*
G01*
X170800000Y-140031250D01*
G75*
G02*
X170556250Y-140275000I-243750J0D01*
G01*
G37*
%TD.AperFunction*%
%TO.P,C6,2*%
%TO.N,GND*%
%TA.AperFunction,SMDPad,CuDef*%
G36*
G01*
X170556250Y-138400000D02*
X169643750Y-138400000D01*
G75*
G02*
X169400000Y-138156250I0J243750D01*
G01*
X169400000Y-137668750D01*
G75*
G02*
X169643750Y-137425000I243750J0D01*
G01*
X170556250Y-137425000D01*
G75*
G02*
X170800000Y-137668750I0J-243750D01*
G01*
X170800000Y-138156250D01*
G75*
G02*
X170556250Y-138400000I-243750J0D01*
G01*
G37*
%TD.AperFunction*%
%TD*%
%TO.P,C7,1*%
%TO.N,+5V*%
%TA.AperFunction,SMDPad,CuDef*%
G36*
G01*
X172656250Y-140275000D02*
X171743750Y-140275000D01*
G75*
G02*
X171500000Y-140031250I0J243750D01*
G01*
X171500000Y-139543750D01*
G75*
G02*
X171743750Y-139300000I243750J0D01*
G01*
X172656250Y-139300000D01*
G75*
G02*
X172900000Y-139543750I0J-243750D01*
G01*
X172900000Y-140031250D01*
G75*
G02*
X172656250Y-140275000I-243750J0D01*
G01*
G37*
%TD.AperFunction*%
%TO.P,C7,2*%
%TO.N,GND*%
%TA.AperFunction,SMDPad,CuDef*%
G36*
G01*
X172656250Y-138400000D02*
X171743750Y-138400000D01*
G75*
G02*
X171500000Y-138156250I0J243750D01*
G01*
X171500000Y-137668750D01*
G75*
G02*
X171743750Y-137425000I243750J0D01*
G01*
X172656250Y-137425000D01*
G75*
G02*
X172900000Y-137668750I0J-243750D01*
G01*
X172900000Y-138156250D01*
G75*
G02*
X172656250Y-138400000I-243750J0D01*
G01*
G37*
%TD.AperFunction*%
%TD*%
D18*
%TO.P,R11,1*%
%TO.N,+10V*%
X161896500Y-86064000D03*
D19*
%TO.P,R11,2*%
%TO.N,Net-(LED4-Pad1)*%
X161896500Y-91144000D03*
%TD*%
D20*
%TO.P,TP2,1*%
%TO.N,+10V*%
X153070000Y-86076700D03*
%TD*%
D21*
%TO.P,IC1,1*%
%TO.N,Net-(C16-Pad1)*%
X173250300Y-93137900D03*
D22*
%TO.P,IC1,5*%
%TO.N,GND*%
X180870300Y-100757900D03*
%TO.P,IC1,2*%
%TO.N,Net-(C15-Pad2)*%
X173250300Y-95677900D03*
%TO.P,IC1,6*%
%TO.N,+5V*%
X180870300Y-98217900D03*
%TO.P,IC1,3*%
%TO.N,Net-(C15-Pad1)*%
X173250300Y-98217900D03*
%TO.P,IC1,7*%
%TO.N,Net-(C16-Pad2)*%
X180870300Y-95677900D03*
%TO.P,IC1,4*%
%TO.N,-10V*%
X173250300Y-100757900D03*
%TO.P,IC1,8*%
%TO.N,+10V*%
X180870300Y-93137900D03*
%TD*%
%TO.P,C16,1*%
%TO.N,Net-(C16-Pad1)*%
%TA.AperFunction,SMDPad,CuDef*%
G36*
G01*
X172673100Y-90364800D02*
X172673100Y-88214800D01*
G75*
G02*
X172923100Y-87964800I250000J0D01*
G01*
X173673100Y-87964800D01*
G75*
G02*
X173923100Y-88214800I0J-250000D01*
G01*
X173923100Y-90364800D01*
G75*
G02*
X173673100Y-90614800I-250000J0D01*
G01*
X172923100Y-90614800D01*
G75*
G02*
X172673100Y-90364800I0J250000D01*
G01*
G37*
%TD.AperFunction*%
%TO.P,C16,2*%
%TO.N,Net-(C16-Pad2)*%
%TA.AperFunction,SMDPad,CuDef*%
G36*
G01*
X175473100Y-90364800D02*
X175473100Y-88214800D01*
G75*
G02*
X175723100Y-87964800I250000J0D01*
G01*
X176473100Y-87964800D01*
G75*
G02*
X176723100Y-88214800I0J-250000D01*
G01*
X176723100Y-90364800D01*
G75*
G02*
X176473100Y-90614800I-250000J0D01*
G01*
X175723100Y-90614800D01*
G75*
G02*
X175473100Y-90364800I0J250000D01*
G01*
G37*
%TD.AperFunction*%
%TD*%
%TO.P,C17,1*%
%TO.N,+5V*%
%TA.AperFunction,SMDPad,CuDef*%
G36*
G01*
X185834800Y-98807800D02*
X183684800Y-98807800D01*
G75*
G02*
X183434800Y-98557800I0J250000D01*
G01*
X183434800Y-97807800D01*
G75*
G02*
X183684800Y-97557800I250000J0D01*
G01*
X185834800Y-97557800D01*
G75*
G02*
X186084800Y-97807800I0J-250000D01*
G01*
X186084800Y-98557800D01*
G75*
G02*
X185834800Y-98807800I-250000J0D01*
G01*
G37*
%TD.AperFunction*%
%TO.P,C17,2*%
%TO.N,+10V*%
%TA.AperFunction,SMDPad,CuDef*%
G36*
G01*
X185834800Y-96007800D02*
X183684800Y-96007800D01*
G75*
G02*
X183434800Y-95757800I0J250000D01*
G01*
X183434800Y-95007800D01*
G75*
G02*
X183684800Y-94757800I250000J0D01*
G01*
X185834800Y-94757800D01*
G75*
G02*
X186084800Y-95007800I0J-250000D01*
G01*
X186084800Y-95757800D01*
G75*
G02*
X185834800Y-96007800I-250000J0D01*
G01*
G37*
%TD.AperFunction*%
%TD*%
D19*
%TO.P,R4,2*%
%TO.N,Net-(LED1-Pad1)*%
X203000000Y-100724000D03*
D18*
%TO.P,R4,1*%
%TO.N,Net-(J5-Pad1)*%
X203000000Y-105804000D03*
%TD*%
D16*
%TO.P,LED1,1*%
%TO.N,Net-(LED1-Pad1)*%
X203000000Y-96152000D03*
D17*
%TO.P,LED1,2*%
%TO.N,GND*%
X203000000Y-93612000D03*
%TD*%
D20*
%TO.P,TP3,1*%
%TO.N,GATE*%
X143799000Y-98129000D03*
%TD*%
%TO.P,C15,1*%
%TO.N,Net-(C15-Pad1)*%
%TA.AperFunction,SMDPad,CuDef*%
G36*
G01*
X170275000Y-98947500D02*
X168125000Y-98947500D01*
G75*
G02*
X167875000Y-98697500I0J250000D01*
G01*
X167875000Y-97947500D01*
G75*
G02*
X168125000Y-97697500I250000J0D01*
G01*
X170275000Y-97697500D01*
G75*
G02*
X170525000Y-97947500I0J-250000D01*
G01*
X170525000Y-98697500D01*
G75*
G02*
X170275000Y-98947500I-250000J0D01*
G01*
G37*
%TD.AperFunction*%
%TO.P,C15,2*%
%TO.N,Net-(C15-Pad2)*%
%TA.AperFunction,SMDPad,CuDef*%
G36*
G01*
X170275000Y-96147500D02*
X168125000Y-96147500D01*
G75*
G02*
X167875000Y-95897500I0J250000D01*
G01*
X167875000Y-95147500D01*
G75*
G02*
X168125000Y-94897500I250000J0D01*
G01*
X170275000Y-94897500D01*
G75*
G02*
X170525000Y-95147500I0J-250000D01*
G01*
X170525000Y-95897500D01*
G75*
G02*
X170275000Y-96147500I-250000J0D01*
G01*
G37*
%TD.AperFunction*%
%TD*%
D19*
%TO.P,Rf2,2*%
%TO.N,Net-(R2-Pad1)*%
X148879000Y-103844000D03*
D18*
%TO.P,Rf2,1*%
%TO.N,GATE*%
X143799000Y-103844000D03*
%TD*%
%TO.P,C14,1*%
%TO.N,-10V*%
%TA.AperFunction,SMDPad,CuDef*%
G36*
G01*
X175187700Y-105439700D02*
X175187700Y-103289700D01*
G75*
G02*
X175437700Y-103039700I250000J0D01*
G01*
X176187700Y-103039700D01*
G75*
G02*
X176437700Y-103289700I0J-250000D01*
G01*
X176437700Y-105439700D01*
G75*
G02*
X176187700Y-105689700I-250000J0D01*
G01*
X175437700Y-105689700D01*
G75*
G02*
X175187700Y-105439700I0J250000D01*
G01*
G37*
%TD.AperFunction*%
%TO.P,C14,2*%
%TO.N,GND*%
%TA.AperFunction,SMDPad,CuDef*%
G36*
G01*
X177987700Y-105439700D02*
X177987700Y-103289700D01*
G75*
G02*
X178237700Y-103039700I250000J0D01*
G01*
X178987700Y-103039700D01*
G75*
G02*
X179237700Y-103289700I0J-250000D01*
G01*
X179237700Y-105439700D01*
G75*
G02*
X178987700Y-105689700I-250000J0D01*
G01*
X178237700Y-105689700D01*
G75*
G02*
X177987700Y-105439700I0J250000D01*
G01*
G37*
%TD.AperFunction*%
%TD*%
D23*
%TO.P,J0,1*%
%TO.N,Net-(J0-Pad1)*%
X102397000Y-103717000D03*
D20*
%TO.P,J0,2*%
%TO.N,GND*%
X102397000Y-109987000D03*
%TD*%
%TO.P,U2,1*%
%TO.N,ADC_V*%
%TA.AperFunction,SMDPad,CuDef*%
G36*
G01*
X150398000Y-134855000D02*
X150398000Y-134555000D01*
G75*
G02*
X150548000Y-134405000I150000J0D01*
G01*
X152148000Y-134405000D01*
G75*
G02*
X152298000Y-134555000I0J-150000D01*
G01*
X152298000Y-134855000D01*
G75*
G02*
X152148000Y-135005000I-150000J0D01*
G01*
X150548000Y-135005000D01*
G75*
G02*
X150398000Y-134855000I0J150000D01*
G01*
G37*
%TD.AperFunction*%
%TO.P,U2,2*%
%TO.N,Net-(R1-Pad1)*%
%TA.AperFunction,SMDPad,CuDef*%
G36*
G01*
X150398000Y-136125000D02*
X150398000Y-135825000D01*
G75*
G02*
X150548000Y-135675000I150000J0D01*
G01*
X152148000Y-135675000D01*
G75*
G02*
X152298000Y-135825000I0J-150000D01*
G01*
X152298000Y-136125000D01*
G75*
G02*
X152148000Y-136275000I-150000J0D01*
G01*
X150548000Y-136275000D01*
G75*
G02*
X150398000Y-136125000I0J150000D01*
G01*
G37*
%TD.AperFunction*%
%TO.P,U2,3*%
%TO.N,Net-(C1-Pad2)*%
%TA.AperFunction,SMDPad,CuDef*%
G36*
G01*
X150398000Y-137395000D02*
X150398000Y-137095000D01*
G75*
G02*
X150548000Y-136945000I150000J0D01*
G01*
X152148000Y-136945000D01*
G75*
G02*
X152298000Y-137095000I0J-150000D01*
G01*
X152298000Y-137395000D01*
G75*
G02*
X152148000Y-137545000I-150000J0D01*
G01*
X150548000Y-137545000D01*
G75*
G02*
X150398000Y-137395000I0J150000D01*
G01*
G37*
%TD.AperFunction*%
%TO.P,U2,4*%
%TO.N,GND*%
%TA.AperFunction,SMDPad,CuDef*%
G36*
G01*
X150398000Y-138665000D02*
X150398000Y-138365000D01*
G75*
G02*
X150548000Y-138215000I150000J0D01*
G01*
X152148000Y-138215000D01*
G75*
G02*
X152298000Y-138365000I0J-150000D01*
G01*
X152298000Y-138665000D01*
G75*
G02*
X152148000Y-138815000I-150000J0D01*
G01*
X150548000Y-138815000D01*
G75*
G02*
X150398000Y-138665000I0J150000D01*
G01*
G37*
%TD.AperFunction*%
%TO.P,U2,5*%
%TO.N,Net-(U2-Pad5)*%
%TA.AperFunction,SMDPad,CuDef*%
G36*
G01*
X157398000Y-138665000D02*
X157398000Y-138365000D01*
G75*
G02*
X157548000Y-138215000I150000J0D01*
G01*
X159148000Y-138215000D01*
G75*
G02*
X159298000Y-138365000I0J-150000D01*
G01*
X159298000Y-138665000D01*
G75*
G02*
X159148000Y-138815000I-150000J0D01*
G01*
X157548000Y-138815000D01*
G75*
G02*
X157398000Y-138665000I0J150000D01*
G01*
G37*
%TD.AperFunction*%
%TO.P,U2,6*%
%TO.N,Net-(U2-Pad6)*%
%TA.AperFunction,SMDPad,CuDef*%
G36*
G01*
X157398000Y-137395000D02*
X157398000Y-137095000D01*
G75*
G02*
X157548000Y-136945000I150000J0D01*
G01*
X159148000Y-136945000D01*
G75*
G02*
X159298000Y-137095000I0J-150000D01*
G01*
X159298000Y-137395000D01*
G75*
G02*
X159148000Y-137545000I-150000J0D01*
G01*
X157548000Y-137545000D01*
G75*
G02*
X157398000Y-137395000I0J150000D01*
G01*
G37*
%TD.AperFunction*%
%TO.P,U2,7*%
%TO.N,Net-(U2-Pad7)*%
%TA.AperFunction,SMDPad,CuDef*%
G36*
G01*
X157398000Y-136125000D02*
X157398000Y-135825000D01*
G75*
G02*
X157548000Y-135675000I150000J0D01*
G01*
X159148000Y-135675000D01*
G75*
G02*
X159298000Y-135825000I0J-150000D01*
G01*
X159298000Y-136125000D01*
G75*
G02*
X159148000Y-136275000I-150000J0D01*
G01*
X157548000Y-136275000D01*
G75*
G02*
X157398000Y-136125000I0J150000D01*
G01*
G37*
%TD.AperFunction*%
%TO.P,U2,8*%
%TO.N,+3V3*%
%TA.AperFunction,SMDPad,CuDef*%
G36*
G01*
X157398000Y-134855000D02*
X157398000Y-134555000D01*
G75*
G02*
X157548000Y-134405000I150000J0D01*
G01*
X159148000Y-134405000D01*
G75*
G02*
X159298000Y-134555000I0J-150000D01*
G01*
X159298000Y-134855000D01*
G75*
G02*
X159148000Y-135005000I-150000J0D01*
G01*
X157548000Y-135005000D01*
G75*
G02*
X157398000Y-134855000I0J150000D01*
G01*
G37*
%TD.AperFunction*%
%TD*%
D24*
%TO.P,D1,1*%
%TO.N,Net-(C1-Pad2)*%
X146300000Y-141350000D03*
D25*
%TO.P,D1,2*%
%TO.N,GND*%
X146300000Y-148970000D03*
%TD*%
D19*
%TO.P,R8,2*%
%TO.N,GND*%
X130750000Y-146415000D03*
D18*
%TO.P,R8,1*%
%TO.N,Net-(R7-Pad2)*%
X130750000Y-141335000D03*
%TD*%
D26*
%TO.P,Q1,1*%
%TO.N,GATE*%
X131600000Y-109200000D03*
D27*
%TO.P,Q1,2*%
%TO.N,Net-(J0-Pad1)*%
X131600000Y-103750000D03*
%TO.P,Q1,3*%
%TO.N,Net-(Q1-Pad3)*%
X131600000Y-98300000D03*
%TD*%
D19*
%TO.P,R10,2*%
%TO.N,Net-(LED3-Pad1)*%
X191500000Y-100470000D03*
D18*
%TO.P,R10,1*%
%TO.N,Net-(J5-Pad7)*%
X191500000Y-105550000D03*
%TD*%
D28*
%TO.P,R3,1*%
%TO.N,GND*%
X144624000Y-123703000D03*
%TO.P,R3,2*%
%TO.N,Net-(Q1-Pad3)*%
X144624000Y-115603000D03*
%TD*%
D20*
%TO.P,TP0,1*%
%TO.N,ADC_C*%
X151063400Y-121903400D03*
%TD*%
%TO.P,U3,1*%
%TO.N,GATE*%
%TA.AperFunction,SMDPad,CuDef*%
G36*
G01*
X150045000Y-99023000D02*
X149745000Y-99023000D01*
G75*
G02*
X149595000Y-98873000I0J150000D01*
G01*
X149595000Y-97273000D01*
G75*
G02*
X149745000Y-97123000I150000J0D01*
G01*
X150045000Y-97123000D01*
G75*
G02*
X150195000Y-97273000I0J-150000D01*
G01*
X150195000Y-98873000D01*
G75*
G02*
X150045000Y-99023000I-150000J0D01*
G01*
G37*
%TD.AperFunction*%
%TO.P,U3,2*%
%TO.N,Net-(R2-Pad1)*%
%TA.AperFunction,SMDPad,CuDef*%
G36*
G01*
X151315000Y-99023000D02*
X151015000Y-99023000D01*
G75*
G02*
X150865000Y-98873000I0J150000D01*
G01*
X150865000Y-97273000D01*
G75*
G02*
X151015000Y-97123000I150000J0D01*
G01*
X151315000Y-97123000D01*
G75*
G02*
X151465000Y-97273000I0J-150000D01*
G01*
X151465000Y-98873000D01*
G75*
G02*
X151315000Y-99023000I-150000J0D01*
G01*
G37*
%TD.AperFunction*%
%TO.P,U3,3*%
%TO.N,DAC_Control*%
%TA.AperFunction,SMDPad,CuDef*%
G36*
G01*
X152585000Y-99023000D02*
X152285000Y-99023000D01*
G75*
G02*
X152135000Y-98873000I0J150000D01*
G01*
X152135000Y-97273000D01*
G75*
G02*
X152285000Y-97123000I150000J0D01*
G01*
X152585000Y-97123000D01*
G75*
G02*
X152735000Y-97273000I0J-150000D01*
G01*
X152735000Y-98873000D01*
G75*
G02*
X152585000Y-99023000I-150000J0D01*
G01*
G37*
%TD.AperFunction*%
%TO.P,U3,4*%
%TO.N,GND*%
%TA.AperFunction,SMDPad,CuDef*%
G36*
G01*
X153855000Y-99023000D02*
X153555000Y-99023000D01*
G75*
G02*
X153405000Y-98873000I0J150000D01*
G01*
X153405000Y-97273000D01*
G75*
G02*
X153555000Y-97123000I150000J0D01*
G01*
X153855000Y-97123000D01*
G75*
G02*
X154005000Y-97273000I0J-150000D01*
G01*
X154005000Y-98873000D01*
G75*
G02*
X153855000Y-99023000I-150000J0D01*
G01*
G37*
%TD.AperFunction*%
%TO.P,U3,5*%
%TO.N,Net-(U3-Pad5)*%
%TA.AperFunction,SMDPad,CuDef*%
G36*
G01*
X153855000Y-92023000D02*
X153555000Y-92023000D01*
G75*
G02*
X153405000Y-91873000I0J150000D01*
G01*
X153405000Y-90273000D01*
G75*
G02*
X153555000Y-90123000I150000J0D01*
G01*
X153855000Y-90123000D01*
G75*
G02*
X154005000Y-90273000I0J-150000D01*
G01*
X154005000Y-91873000D01*
G75*
G02*
X153855000Y-92023000I-150000J0D01*
G01*
G37*
%TD.AperFunction*%
%TO.P,U3,6*%
%TO.N,Net-(U3-Pad6)*%
%TA.AperFunction,SMDPad,CuDef*%
G36*
G01*
X152585000Y-92023000D02*
X152285000Y-92023000D01*
G75*
G02*
X152135000Y-91873000I0J150000D01*
G01*
X152135000Y-90273000D01*
G75*
G02*
X152285000Y-90123000I150000J0D01*
G01*
X152585000Y-90123000D01*
G75*
G02*
X152735000Y-90273000I0J-150000D01*
G01*
X152735000Y-91873000D01*
G75*
G02*
X152585000Y-92023000I-150000J0D01*
G01*
G37*
%TD.AperFunction*%
%TO.P,U3,7*%
%TO.N,Net-(U3-Pad7)*%
%TA.AperFunction,SMDPad,CuDef*%
G36*
G01*
X151315000Y-92023000D02*
X151015000Y-92023000D01*
G75*
G02*
X150865000Y-91873000I0J150000D01*
G01*
X150865000Y-90273000D01*
G75*
G02*
X151015000Y-90123000I150000J0D01*
G01*
X151315000Y-90123000D01*
G75*
G02*
X151465000Y-90273000I0J-150000D01*
G01*
X151465000Y-91873000D01*
G75*
G02*
X151315000Y-92023000I-150000J0D01*
G01*
G37*
%TD.AperFunction*%
%TO.P,U3,8*%
%TO.N,+10V*%
%TA.AperFunction,SMDPad,CuDef*%
G36*
G01*
X150045000Y-92023000D02*
X149745000Y-92023000D01*
G75*
G02*
X149595000Y-91873000I0J150000D01*
G01*
X149595000Y-90273000D01*
G75*
G02*
X149745000Y-90123000I150000J0D01*
G01*
X150045000Y-90123000D01*
G75*
G02*
X150195000Y-90273000I0J-150000D01*
G01*
X150195000Y-91873000D01*
G75*
G02*
X150045000Y-92023000I-150000J0D01*
G01*
G37*
%TD.AperFunction*%
%TD*%
D29*
%TO.P,HS1,1*%
%TO.N,N/C*%
X127797000Y-116417000D03*
X127797000Y-91017000D03*
%TD*%
D19*
%TO.P,R9,2*%
%TO.N,Net-(LED2-Pad1)*%
X197304000Y-100724000D03*
D18*
%TO.P,R9,1*%
%TO.N,Net-(J5-Pad2)*%
X197304000Y-105804000D03*
%TD*%
D30*
%TO.P,U1,6*%
%TO.N,ADC_C*%
X150343000Y-116940000D03*
%TO.P,U1,5*%
%TO.N,GND*%
X150343000Y-116290000D03*
%TO.P,U1,4*%
%TO.N,Net-(Q1-Pad3)*%
X150343000Y-115640000D03*
%TO.P,U1,3*%
%TO.N,+3V3*%
X153003000Y-115640000D03*
%TO.P,U1,2*%
%TO.N,GND*%
X153003000Y-116290000D03*
%TO.P,U1,1*%
X153003000Y-116940000D03*
%TD*%
D19*
%TO.P,Rf1,2*%
%TO.N,Net-(R1-Pad1)*%
X156620000Y-143750000D03*
D18*
%TO.P,Rf1,1*%
%TO.N,ADC_V*%
X161700000Y-143750000D03*
%TD*%
D20*
%TO.P,TP1,1*%
%TO.N,ADC_V*%
X162500000Y-150580000D03*
%TD*%
D16*
%TO.P,LED2,1*%
%TO.N,Net-(LED2-Pad1)*%
X197304000Y-96152000D03*
D17*
%TO.P,LED2,2*%
%TO.N,GND*%
X197304000Y-93612000D03*
%TD*%
D16*
%TO.P,LED3,1*%
%TO.N,Net-(LED3-Pad1)*%
X191500000Y-96152000D03*
D17*
%TO.P,LED3,2*%
%TO.N,GND*%
X191500000Y-93612000D03*
%TD*%
D31*
%TO.P,SW0,16*%
%TO.N,N/C*%
X110982110Y-139422000D03*
%TO.P,SW0,15*%
X110982110Y-144548010D03*
%TO.P,SW0,14*%
%TO.N,Net-(Ri1-Pad1)*%
X116727890Y-144548010D03*
%TO.P,SW0,13*%
%TO.N,Net-(J0-Pad1)*%
X116727890Y-139421990D03*
%TO.P,SW0,12*%
%TO.N,N/C*%
X110982110Y-131263200D03*
%TO.P,SW0,11*%
X106006110Y-134136110D03*
%TO.P,SW0,10*%
X103133200Y-139112110D03*
%TO.P,SW0,9*%
X103133200Y-144857890D03*
%TO.P,SW0,8*%
X106006110Y-149833890D03*
%TO.P,SW0,7*%
X110982110Y-152706800D03*
%TO.P,SW0,6*%
%TO.N,Net-(R7-Pad2)*%
X116727890Y-152706800D03*
%TO.P,SW0,5*%
%TO.N,Net-(R5-Pad2)*%
X121703890Y-149833890D03*
%TO.P,SW0,4*%
%TO.N,Net-(SW0-Pad1)*%
X124576800Y-144857890D03*
%TO.P,SW0,3*%
%TO.N,Net-(R7-Pad1)*%
X124576800Y-139112110D03*
%TO.P,SW0,2*%
%TO.N,Net-(R5-Pad1)*%
X121703890Y-134136110D03*
%TO.P,SW0,1*%
%TO.N,Net-(SW0-Pad1)*%
X116727890Y-131263200D03*
%TD*%
%TO.P,R7,1*%
%TO.N,Net-(R7-Pad1)*%
%TA.AperFunction,SMDPad,CuDef*%
G36*
G01*
X130125000Y-131475000D02*
X131375000Y-131475000D01*
G75*
G02*
X131625000Y-131725000I0J-250000D01*
G01*
X131625000Y-132475000D01*
G75*
G02*
X131375000Y-132725000I-250000J0D01*
G01*
X130125000Y-132725000D01*
G75*
G02*
X129875000Y-132475000I0J250000D01*
G01*
X129875000Y-131725000D01*
G75*
G02*
X130125000Y-131475000I250000J0D01*
G01*
G37*
%TD.AperFunction*%
%TO.P,R7,2*%
%TO.N,Net-(R7-Pad2)*%
%TA.AperFunction,SMDPad,CuDef*%
G36*
G01*
X130125000Y-134275000D02*
X131375000Y-134275000D01*
G75*
G02*
X131625000Y-134525000I0J-250000D01*
G01*
X131625000Y-135275000D01*
G75*
G02*
X131375000Y-135525000I-250000J0D01*
G01*
X130125000Y-135525000D01*
G75*
G02*
X129875000Y-135275000I0J250000D01*
G01*
X129875000Y-134525000D01*
G75*
G02*
X130125000Y-134275000I250000J0D01*
G01*
G37*
%TD.AperFunction*%
%TD*%
%TO.P,R5,1*%
%TO.N,Net-(R5-Pad1)*%
%TA.AperFunction,SMDPad,CuDef*%
G36*
G01*
X134230000Y-136335000D02*
X135480000Y-136335000D01*
G75*
G02*
X135730000Y-136585000I0J-250000D01*
G01*
X135730000Y-137510000D01*
G75*
G02*
X135480000Y-137760000I-250000J0D01*
G01*
X134230000Y-137760000D01*
G75*
G02*
X133980000Y-137510000I0J250000D01*
G01*
X133980000Y-136585000D01*
G75*
G02*
X134230000Y-136335000I250000J0D01*
G01*
G37*
%TD.AperFunction*%
%TO.P,R5,2*%
%TO.N,Net-(R5-Pad2)*%
%TA.AperFunction,SMDPad,CuDef*%
G36*
G01*
X134230000Y-139310000D02*
X135480000Y-139310000D01*
G75*
G02*
X135730000Y-139560000I0J-250000D01*
G01*
X135730000Y-140485000D01*
G75*
G02*
X135480000Y-140735000I-250000J0D01*
G01*
X134230000Y-140735000D01*
G75*
G02*
X133980000Y-140485000I0J250000D01*
G01*
X133980000Y-139560000D01*
G75*
G02*
X134230000Y-139310000I250000J0D01*
G01*
G37*
%TD.AperFunction*%
%TD*%
D26*
%TO.P,Q2,1*%
%TO.N,GATE*%
X124000000Y-98250000D03*
D27*
%TO.P,Q2,2*%
%TO.N,Net-(J0-Pad1)*%
X124000000Y-103700000D03*
%TO.P,Q2,3*%
%TO.N,Net-(Q1-Pad3)*%
X124000000Y-109150000D03*
%TD*%
%TO.P,C1,2*%
%TO.N,Net-(C1-Pad2)*%
%TA.AperFunction,SMDPad,CuDef*%
G36*
G01*
X143156250Y-147600000D02*
X142243750Y-147600000D01*
G75*
G02*
X142000000Y-147356250I0J243750D01*
G01*
X142000000Y-146868750D01*
G75*
G02*
X142243750Y-146625000I243750J0D01*
G01*
X143156250Y-146625000D01*
G75*
G02*
X143400000Y-146868750I0J-243750D01*
G01*
X143400000Y-147356250D01*
G75*
G02*
X143156250Y-147600000I-243750J0D01*
G01*
G37*
%TD.AperFunction*%
%TO.P,C1,1*%
%TO.N,GND*%
%TA.AperFunction,SMDPad,CuDef*%
G36*
G01*
X143156250Y-149475000D02*
X142243750Y-149475000D01*
G75*
G02*
X142000000Y-149231250I0J243750D01*
G01*
X142000000Y-148743750D01*
G75*
G02*
X142243750Y-148500000I243750J0D01*
G01*
X143156250Y-148500000D01*
G75*
G02*
X143400000Y-148743750I0J-243750D01*
G01*
X143400000Y-149231250D01*
G75*
G02*
X143156250Y-149475000I-243750J0D01*
G01*
G37*
%TD.AperFunction*%
%TD*%
D19*
%TO.P,R6,2*%
%TO.N,GND*%
X134893000Y-151342000D03*
D18*
%TO.P,R6,1*%
%TO.N,Net-(R5-Pad2)*%
X134893000Y-146262000D03*
%TD*%
D19*
%TO.P,R1,2*%
%TO.N,GND*%
X154340000Y-148802000D03*
D18*
%TO.P,R1,1*%
%TO.N,Net-(R1-Pad1)*%
X154340000Y-143722000D03*
%TD*%
D19*
%TO.P,R2,2*%
%TO.N,GND*%
X151165000Y-108924000D03*
D18*
%TO.P,R2,1*%
%TO.N,Net-(R2-Pad1)*%
X151165000Y-103844000D03*
%TD*%
D19*
%TO.P,Ri1,2*%
%TO.N,Net-(C1-Pad2)*%
X146280000Y-137150000D03*
D18*
%TO.P,Ri1,1*%
%TO.N,Net-(Ri1-Pad1)*%
X141200000Y-137150000D03*
%TD*%
D13*
%TO.P,TP12,1*%
%TO.N,GND*%
X197250000Y-83500000D03*
%TD*%
D32*
%TO.N,GND*%
X144600000Y-125650000D03*
X157900000Y-98050000D03*
X162300000Y-134750000D03*
X148900000Y-86850000D03*
X174600000Y-136650000D03*
X170500000Y-144750000D03*
X173200000Y-149250000D03*
X155800000Y-117350000D03*
D33*
X169300000Y-129950000D03*
X196800000Y-129950000D03*
D32*
%TO.N,+3V3*%
X166700000Y-146550000D03*
X162500000Y-138250000D03*
%TO.N,+5V*%
X205600000Y-104250000D03*
X184600000Y-99950000D03*
%TO.N,Net-(C10-Pad1)*%
X182700000Y-138950000D03*
%TO.N,Net-(C10-Pad2)*%
X185500000Y-140350000D03*
X185485000Y-137835000D03*
%TO.N,Net-(C11-Pad1)*%
X182500000Y-143250000D03*
X201700000Y-140450000D03*
X194425000Y-140550000D03*
%TO.N,Net-(C11-Pad2)*%
X191300000Y-144350000D03*
X193800000Y-137250000D03*
X205300000Y-143850000D03*
X191300000Y-148950000D03*
%TO.N,/CAN_H*%
X194695000Y-145455000D03*
%TO.N,/CAN_L*%
X196200000Y-143950000D03*
X195925000Y-146725000D03*
%TO.N,CAN_RX*%
X178400000Y-133250000D03*
%TO.N,CAN_TX*%
X179500000Y-133350000D03*
%TO.N,ADC_C*%
X177800000Y-122250000D03*
%TD*%
D34*
%TO.N,GND*%
X151348000Y-145810000D02*
X154340000Y-148802000D01*
D35*
X170472500Y-141560000D02*
X170462500Y-141550000D01*
X146419000Y-123703000D02*
X144624000Y-123703000D01*
X154871000Y-116290000D02*
X155102000Y-116521000D01*
X148625000Y-117052000D02*
X148625000Y-121497000D01*
X150343000Y-116290000D02*
X149387000Y-116290000D01*
X148625000Y-121497000D02*
X146419000Y-123703000D01*
D34*
X142700000Y-148987500D02*
X146282500Y-148987500D01*
D35*
X173300000Y-137950000D02*
X172237500Y-137950000D01*
X149387000Y-116290000D02*
X148625000Y-117052000D01*
X153003000Y-116290000D02*
X154871000Y-116290000D01*
D34*
X178612700Y-103015500D02*
X180870300Y-100757900D01*
D35*
X174625000Y-139105000D02*
X174355000Y-139105000D01*
X172237500Y-137950000D02*
X172200000Y-137912500D01*
X153003000Y-116940000D02*
X154683000Y-116940000D01*
D34*
X151348000Y-138515000D02*
X151348000Y-145810000D01*
X146282500Y-148987500D02*
X146300000Y-148970000D01*
D35*
X175285000Y-149265000D02*
X174625000Y-149265000D01*
X154683000Y-116940000D02*
X155102000Y-116521000D01*
X174625000Y-139105000D02*
X174455000Y-139105000D01*
D34*
X178612700Y-104364700D02*
X178612700Y-103015500D01*
X144624000Y-123703000D02*
X144624000Y-125626000D01*
D35*
X170472500Y-143660000D02*
X170472500Y-141560000D01*
X170100000Y-137912500D02*
X172200000Y-137912500D01*
X174455000Y-139105000D02*
X173300000Y-137950000D01*
X173415000Y-137835000D02*
X173300000Y-137950000D01*
D34*
X144624000Y-125626000D02*
X144600000Y-125650000D01*
D35*
X174625000Y-139105000D02*
X174555000Y-139105000D01*
X174625000Y-137835000D02*
X173415000Y-137835000D01*
X170472500Y-144722500D02*
X170500000Y-144750000D01*
X173215000Y-149265000D02*
X173200000Y-149250000D01*
D34*
X155102000Y-116652000D02*
X155800000Y-117350000D01*
D35*
X170472500Y-143660000D02*
X170472500Y-144722500D01*
D34*
X161865900Y-98073000D02*
X161896500Y-98103600D01*
X157923000Y-98073000D02*
X157900000Y-98050000D01*
X148927400Y-86025900D02*
X148927400Y-86822600D01*
X162280400Y-134730400D02*
X162300000Y-134750000D01*
X155102000Y-116521000D02*
X155102000Y-116652000D01*
X148927400Y-86822600D02*
X148900000Y-86850000D01*
D35*
X174625000Y-136675000D02*
X174600000Y-136650000D01*
X174625000Y-149265000D02*
X173215000Y-149265000D01*
D34*
X153705000Y-98073000D02*
X157923000Y-98073000D01*
X157923000Y-98073000D02*
X161865900Y-98073000D01*
X161530600Y-134730400D02*
X162280400Y-134730400D01*
D35*
X174625000Y-137835000D02*
X174625000Y-136675000D01*
X170400000Y-129935000D02*
X169315000Y-129935000D01*
X169315000Y-129935000D02*
X169300000Y-129950000D01*
X195800000Y-129935000D02*
X196785000Y-129935000D01*
X196785000Y-129935000D02*
X196800000Y-129950000D01*
D36*
%TO.N,+3V3*%
X162500000Y-138250000D02*
X160560600Y-136310600D01*
D34*
X158348000Y-134705000D02*
X160535200Y-134705000D01*
X159401000Y-115551000D02*
X170400000Y-126550000D01*
X153003000Y-115640000D02*
X155013000Y-115640000D01*
D35*
X172337500Y-141550000D02*
X174530000Y-141550000D01*
D34*
X155013000Y-115640000D02*
X155102000Y-115551000D01*
X160560600Y-134730400D02*
X160560600Y-133889400D01*
D35*
X172347500Y-143660000D02*
X172347500Y-141560000D01*
D34*
X160535200Y-134705000D02*
X160560600Y-134730400D01*
D35*
X174530000Y-141550000D02*
X174625000Y-141645000D01*
X172347500Y-141560000D02*
X172337500Y-141550000D01*
D34*
X160560600Y-133889400D02*
X164200000Y-130250000D01*
X164200000Y-130250000D02*
X166700000Y-130250000D01*
D36*
X172347500Y-143660000D02*
X172347500Y-144802500D01*
X172347500Y-144802500D02*
X170600000Y-146550000D01*
D34*
X155102000Y-115551000D02*
X159401000Y-115551000D01*
D36*
X170600000Y-146550000D02*
X166700000Y-146550000D01*
D34*
X166700000Y-130250000D02*
X170400000Y-126550000D01*
D36*
X160560600Y-136310600D02*
X160560600Y-134730400D01*
D35*
X170400000Y-128965000D02*
X170400000Y-126550000D01*
D36*
%TO.N,+5V*%
X176800000Y-132350000D02*
X180400000Y-128750000D01*
X175295002Y-140375000D02*
X176800000Y-138870002D01*
D35*
X170100000Y-139787500D02*
X172200000Y-139787500D01*
D36*
X176800000Y-138870002D02*
X176800000Y-132350000D01*
X193600000Y-128750000D02*
X195800000Y-126550000D01*
X174625000Y-140375000D02*
X175295002Y-140375000D01*
X195800000Y-126550000D02*
X195800000Y-123950000D01*
X195800000Y-123950000D02*
X205600000Y-114150000D01*
D34*
X184724700Y-98217900D02*
X184759800Y-98182800D01*
D35*
X172787500Y-140375000D02*
X172200000Y-139787500D01*
X174625000Y-140375000D02*
X172787500Y-140375000D01*
D36*
X180400000Y-128750000D02*
X193600000Y-128750000D01*
X205600000Y-114150000D02*
X205600000Y-104250000D01*
D34*
X184759800Y-98182800D02*
X180905400Y-98182800D01*
X180905400Y-98182800D02*
X180870300Y-98217900D01*
D36*
X184600000Y-98342600D02*
X184759800Y-98182800D01*
X184600000Y-99950000D02*
X184600000Y-98342600D01*
D35*
X195800000Y-126550000D02*
X195800000Y-128965000D01*
D34*
%TO.N,Net-(C1-Pad2)*%
X142700000Y-147112500D02*
X142700000Y-144950000D01*
X151253000Y-137150000D02*
X151348000Y-137245000D01*
X146280000Y-137150000D02*
X151253000Y-137150000D01*
X146280000Y-141330000D02*
X146300000Y-141350000D01*
X146280000Y-137150000D02*
X146280000Y-141330000D01*
X142700000Y-144950000D02*
X146300000Y-141350000D01*
%TO.N,+10V*%
X179778100Y-86064000D02*
X161896500Y-86064000D01*
X180870300Y-87156200D02*
X179778100Y-86064000D01*
X161896500Y-86064000D02*
X153082700Y-86064000D01*
X149897400Y-86025900D02*
X149897400Y-90562200D01*
X180870300Y-93137900D02*
X182514900Y-93137900D01*
X180870300Y-93137900D02*
X180870300Y-87156200D01*
X153070000Y-86076700D02*
X149948200Y-86076700D01*
X153082700Y-86064000D02*
X153070000Y-86076700D01*
X149948200Y-86076700D02*
X149897400Y-86025900D01*
X182514900Y-93137900D02*
X184759800Y-95382800D01*
X149897400Y-90562200D02*
X149895000Y-90564600D01*
X149895000Y-90564600D02*
X149895000Y-91073000D01*
X181073500Y-92934700D02*
X180870300Y-93137900D01*
D35*
%TO.N,Net-(C10-Pad1)*%
X182855000Y-139105000D02*
X182700000Y-138950000D01*
X186700000Y-139087500D02*
X184192500Y-139087500D01*
X188562500Y-139250000D02*
X186862500Y-139250000D01*
X186862500Y-139250000D02*
X186700000Y-139087500D01*
X184192500Y-139087500D02*
X184175000Y-139105000D01*
X184175000Y-139105000D02*
X182855000Y-139105000D01*
%TO.N,Net-(C10-Pad2)*%
X188500000Y-137212500D02*
X188562500Y-137150000D01*
X185475000Y-140375000D02*
X185500000Y-140350000D01*
X186077500Y-137835000D02*
X186700000Y-137212500D01*
X184175000Y-137835000D02*
X185485000Y-137835000D01*
X186700000Y-137212500D02*
X188500000Y-137212500D01*
X188562500Y-133312500D02*
X188500000Y-133250000D01*
X185485000Y-137835000D02*
X186077500Y-137835000D01*
X184175000Y-140375000D02*
X185475000Y-140375000D01*
X188562500Y-132712500D02*
X188500000Y-132650000D01*
X188562500Y-132062500D02*
X188500000Y-132000000D01*
X188562500Y-137150000D02*
X188562500Y-132062500D01*
%TO.N,Net-(C11-Pad1)*%
X188700000Y-142612500D02*
X192225000Y-139087500D01*
X192225000Y-139087500D02*
X192300000Y-139087500D01*
X186700000Y-142612500D02*
X188700000Y-142612500D01*
X192300000Y-139087500D02*
X193762500Y-140550000D01*
X184175000Y-142915000D02*
X182835000Y-142915000D01*
X182835000Y-142915000D02*
X182500000Y-143250000D01*
X192300000Y-139087500D02*
X190600000Y-139087500D01*
X193762500Y-140550000D02*
X194425000Y-140550000D01*
X184175000Y-142915000D02*
X186397500Y-142915000D01*
X190600000Y-139087500D02*
X190437500Y-139250000D01*
X186397500Y-142915000D02*
X186700000Y-142612500D01*
X210100000Y-136750000D02*
X210050000Y-136800000D01*
X218050000Y-136750000D02*
X210100000Y-136750000D01*
X205350000Y-136800000D02*
X201700000Y-140450000D01*
X210050000Y-136800000D02*
X205350000Y-136800000D01*
%TO.N,Net-(C11-Pad2)*%
X184175000Y-149265000D02*
X185977500Y-149265000D01*
X192237500Y-137150000D02*
X192300000Y-137212500D01*
X190437500Y-137150000D02*
X192237500Y-137150000D01*
X186397500Y-144185000D02*
X186700000Y-144487500D01*
X184175000Y-144185000D02*
X186397500Y-144185000D01*
X186700000Y-144487500D02*
X188700000Y-144487500D01*
X193762500Y-137212500D02*
X193800000Y-137250000D01*
X192300000Y-137212500D02*
X193762500Y-137212500D01*
X188700000Y-144487500D02*
X191162500Y-144487500D01*
X185977500Y-149265000D02*
X186700000Y-149987500D01*
X191162500Y-144487500D02*
X191300000Y-144350000D01*
X186700000Y-149987500D02*
X190262500Y-149987500D01*
X190262500Y-149987500D02*
X191300000Y-148950000D01*
X186700000Y-149987500D02*
X186700000Y-154050000D01*
X202300000Y-145850000D02*
X202200000Y-145750000D01*
X204100000Y-143850000D02*
X202200000Y-145750000D01*
X205300000Y-143850000D02*
X204100000Y-143850000D01*
D34*
%TO.N,-10V*%
X173250300Y-100757900D02*
X173250300Y-101802300D01*
X173250300Y-101802300D02*
X175812700Y-104364700D01*
%TO.N,Net-(C15-Pad1)*%
X173145700Y-98322500D02*
X173250300Y-98217900D01*
X169200000Y-98322500D02*
X173145700Y-98322500D01*
%TO.N,Net-(C15-Pad2)*%
X173094900Y-95522500D02*
X173250300Y-95677900D01*
X169355400Y-95677900D02*
X169200000Y-95522500D01*
X173250300Y-95677900D02*
X169355400Y-95677900D01*
%TO.N,Net-(C16-Pad1)*%
X173298100Y-93090100D02*
X173250300Y-93137900D01*
X173298100Y-89289800D02*
X173298100Y-93090100D01*
%TO.N,Net-(C16-Pad2)*%
X179016100Y-95677900D02*
X180870300Y-95677900D01*
X176098100Y-89289800D02*
X176098100Y-92759900D01*
X176098100Y-92759900D02*
X179016100Y-95677900D01*
D35*
%TO.N,/CAN_H*%
X198145000Y-145455000D02*
X198800000Y-144800000D01*
X184175000Y-145455000D02*
X194695000Y-145455000D01*
X194695000Y-145455000D02*
X198145000Y-145455000D01*
X198700000Y-144700000D02*
X198800000Y-144800000D01*
X198700000Y-142787500D02*
X198700000Y-144700000D01*
X218000000Y-142800000D02*
X218050000Y-142750000D01*
X210050000Y-142800000D02*
X218000000Y-142800000D01*
X198712500Y-142800000D02*
X198700000Y-142787500D01*
X210050000Y-142800000D02*
X198712500Y-142800000D01*
%TO.N,/CAN_L*%
X195925000Y-146725000D02*
X198775000Y-146725000D01*
X198775000Y-146725000D02*
X198800000Y-146700000D01*
X196100000Y-143850000D02*
X196200000Y-143950000D01*
X199500000Y-147400000D02*
X198800000Y-146700000D01*
X196100000Y-142787500D02*
X196100000Y-143850000D01*
X184175000Y-146725000D02*
X195925000Y-146725000D01*
X209650000Y-145400000D02*
X210050000Y-145800000D01*
X218000000Y-145800000D02*
X218050000Y-145750000D01*
X210050000Y-145800000D02*
X218000000Y-145800000D01*
X202100000Y-150950000D02*
X202000000Y-151050000D01*
X202100000Y-147400000D02*
X202100000Y-150950000D01*
X199500000Y-147400000D02*
X202100000Y-147400000D01*
X208450000Y-147400000D02*
X202100000Y-147400000D01*
X210050000Y-145800000D02*
X208450000Y-147400000D01*
%TO.N,CAN_RX*%
X178400000Y-140240000D02*
X178400000Y-133250000D01*
X175725000Y-142915000D02*
X178400000Y-140240000D01*
X174625000Y-142915000D02*
X175725000Y-142915000D01*
D34*
%TO.N,Net-(J5-Pad7)*%
X188180000Y-108870000D02*
X191500000Y-105550000D01*
X188180000Y-111350000D02*
X188180000Y-108870000D01*
D35*
%TO.N,CAN_TX*%
X174625000Y-145455000D02*
X175725000Y-145455000D01*
X174625000Y-145455000D02*
X173525000Y-145455000D01*
X179500000Y-141680000D02*
X179500000Y-133350000D01*
X172574999Y-153824999D02*
X172800000Y-154050000D01*
X172574999Y-146405001D02*
X172574999Y-153824999D01*
X175725000Y-145455000D02*
X179500000Y-141680000D01*
X173525000Y-145455000D02*
X172574999Y-146405001D01*
D34*
%TO.N,Net-(J5-Pad2)*%
X200880000Y-109380000D02*
X197304000Y-105804000D01*
X200880000Y-111350000D02*
X200880000Y-109380000D01*
%TO.N,Net-(J5-Pad1)*%
X203420000Y-105824000D02*
X203400000Y-105804000D01*
X203000000Y-110930000D02*
X203420000Y-111350000D01*
X203000000Y-105804000D02*
X203000000Y-110930000D01*
D36*
%TO.N,DAC_Control*%
X152435000Y-99023000D02*
X176762000Y-123350000D01*
X152435000Y-98073000D02*
X152435000Y-99023000D01*
X176762000Y-123350000D02*
X182440000Y-123350000D01*
X182440000Y-123350000D02*
X185640000Y-126550000D01*
D34*
%TO.N,ADC_C*%
X186420000Y-122250000D02*
X190720000Y-126550000D01*
X177800000Y-122250000D02*
X186420000Y-122250000D01*
X150343000Y-121183000D02*
X151063400Y-121903400D01*
X150343000Y-116940000D02*
X150343000Y-121183000D01*
D36*
%TO.N,ADC_V*%
X191710010Y-128099990D02*
X173914010Y-128099990D01*
D34*
X161700000Y-141557000D02*
X161325000Y-141182000D01*
D36*
X173914010Y-128099990D02*
X160832000Y-141182000D01*
D34*
X155610000Y-137575544D02*
X152739456Y-134705000D01*
D36*
X193260000Y-126550000D02*
X191710010Y-128099990D01*
D34*
X161700000Y-150574000D02*
X161706000Y-150580000D01*
X161700000Y-143750000D02*
X161700000Y-141557000D01*
X158150000Y-141182000D02*
X155610000Y-138642000D01*
X152739456Y-134705000D02*
X151348000Y-134705000D01*
X160832000Y-141182000D02*
X158150000Y-141182000D01*
X155610000Y-138642000D02*
X155610000Y-137575544D01*
X161325000Y-141182000D02*
X160832000Y-141182000D01*
X161700000Y-149780000D02*
X162500000Y-150580000D01*
X161700000Y-143750000D02*
X161700000Y-149780000D01*
%TO.N,Net-(J6-Pad1)*%
X203720000Y-126250000D02*
X203420000Y-126550000D01*
D35*
%TO.N,/TERM_L*%
X196100000Y-140912500D02*
X196100000Y-138150000D01*
%TO.N,/TERM_H*%
X198640000Y-138150000D02*
X198640000Y-140852500D01*
X198640000Y-140852500D02*
X198700000Y-140912500D01*
D34*
%TO.N,Net-(LED1-Pad1)*%
X203000000Y-96152000D02*
X203000000Y-100724000D01*
%TO.N,Net-(LED2-Pad1)*%
X197304000Y-96152000D02*
X197304000Y-100724000D01*
%TO.N,Net-(LED3-Pad1)*%
X191500000Y-100470000D02*
X191500000Y-96152000D01*
%TO.N,Net-(LED4-Pad1)*%
X161896500Y-91144000D02*
X161896500Y-95563600D01*
%TO.N,GATE*%
X143799000Y-98129000D02*
X143799000Y-103844000D01*
X149839000Y-98129000D02*
X149895000Y-98073000D01*
X143799000Y-98129000D02*
X149839000Y-98129000D01*
D35*
X123750000Y-98250000D02*
X124550000Y-98250000D01*
X124000000Y-98250000D02*
X124350000Y-98250000D01*
X131600000Y-109200000D02*
X131400000Y-109200000D01*
X124000000Y-98250000D02*
X124000000Y-97600000D01*
X124000000Y-97600000D02*
X127000000Y-94600000D01*
X140270000Y-94600000D02*
X143799000Y-98129000D01*
X127000000Y-94600000D02*
X140270000Y-94600000D01*
X125450000Y-98250000D02*
X124000000Y-98250000D01*
X131600000Y-109200000D02*
X132200000Y-109200000D01*
X132200000Y-109200000D02*
X135200000Y-106200000D01*
X135200000Y-101200000D02*
X134800000Y-100800000D01*
X135200000Y-106200000D02*
X135200000Y-101200000D01*
X134800000Y-100800000D02*
X128000000Y-100800000D01*
X128000000Y-100800000D02*
X125450000Y-98250000D01*
D34*
%TO.N,Net-(Q1-Pad3)*%
X132371000Y-98129000D02*
X132250000Y-98250000D01*
X150343000Y-115640000D02*
X144661000Y-115640000D01*
X144661000Y-115640000D02*
X144624000Y-115603000D01*
%TO.N,Net-(R1-Pad1)*%
X154368000Y-143750000D02*
X154340000Y-143722000D01*
X152298000Y-135975000D02*
X154086000Y-137763000D01*
X151348000Y-135975000D02*
X152298000Y-135975000D01*
X154086000Y-143468000D02*
X154340000Y-143722000D01*
X154086000Y-137763000D02*
X154086000Y-143468000D01*
X156620000Y-143750000D02*
X154368000Y-143750000D01*
%TO.N,Net-(R2-Pad1)*%
X151165000Y-98073000D02*
X151165000Y-103844000D01*
X148879000Y-103844000D02*
X151165000Y-103844000D01*
%TO.N,Net-(R5-Pad1)*%
X134855000Y-130855000D02*
X134855000Y-137047500D01*
X133250000Y-129250000D02*
X134855000Y-130855000D01*
X121703890Y-134136110D02*
X126590000Y-129250000D01*
X126590000Y-129250000D02*
X133250000Y-129250000D01*
%TO.N,Net-(R5-Pad2)*%
X134855000Y-140022500D02*
X134855000Y-146224000D01*
X134855000Y-146224000D02*
X134893000Y-146262000D01*
X134893000Y-146262000D02*
X132655000Y-148500000D01*
X123037780Y-148500000D02*
X121703890Y-149833890D01*
X132655000Y-148500000D02*
X123037780Y-148500000D01*
%TO.N,Net-(R7-Pad1)*%
X124576800Y-139112110D02*
X124576800Y-136923200D01*
X129400000Y-132100000D02*
X130750000Y-132100000D01*
X124576800Y-136923200D02*
X129400000Y-132100000D01*
%TO.N,Net-(R7-Pad2)*%
X120034000Y-147393000D02*
X116727890Y-150699110D01*
X116727890Y-150699110D02*
X116727890Y-152706800D01*
X130750000Y-134900000D02*
X130750000Y-141335000D01*
X130750000Y-141335000D02*
X130750000Y-142750000D01*
X126107000Y-147393000D02*
X120034000Y-147393000D01*
X130750000Y-142750000D02*
X126107000Y-147393000D01*
D35*
%TO.N,/RSlope*%
X184175000Y-147995000D02*
X186582500Y-147995000D01*
X186582500Y-147995000D02*
X186700000Y-148112500D01*
D34*
%TO.N,Net-(Ri1-Pad1)*%
X116727890Y-144548010D02*
X113557000Y-147718900D01*
X115114000Y-155250000D02*
X113557000Y-153693000D01*
X113557000Y-147718900D02*
X113557000Y-153693000D01*
X137449000Y-140901000D02*
X137449000Y-154051000D01*
X141200000Y-137150000D02*
X137449000Y-140901000D01*
X137449000Y-154051000D02*
X136250000Y-155250000D01*
X136250000Y-155250000D02*
X115114000Y-155250000D01*
%TO.N,Net-(SW0-Pad1)*%
X121558000Y-141839090D02*
X124576800Y-144857890D01*
X116727890Y-131263200D02*
X116727890Y-133672890D01*
X121558000Y-138503000D02*
X121558000Y-141839090D01*
X116727890Y-133672890D02*
X121558000Y-138503000D01*
%TD*%
D37*
%TO.N,GND*%
G36*
X119116381Y-122188396D02*
G01*
X119135379Y-122204487D01*
X119157150Y-122216563D01*
X119180859Y-122224160D01*
X119208651Y-122226995D01*
X147103939Y-121989345D01*
X147042003Y-125311379D01*
X118352622Y-125223162D01*
X105338876Y-112260023D01*
X105319601Y-112244266D01*
X105297621Y-112232573D01*
X105273783Y-112225392D01*
X105249250Y-112223000D01*
X100127000Y-112222969D01*
X100127000Y-107777017D01*
X105146234Y-107776983D01*
X119116381Y-122188396D01*
G37*
X119116381Y-122188396D02*
X119135379Y-122204487D01*
X119157150Y-122216563D01*
X119180859Y-122224160D01*
X119208651Y-122226995D01*
X147103939Y-121989345D01*
X147042003Y-125311379D01*
X118352622Y-125223162D01*
X105338876Y-112260023D01*
X105319601Y-112244266D01*
X105297621Y-112232573D01*
X105273783Y-112225392D01*
X105249250Y-112223000D01*
X100127000Y-112222969D01*
X100127000Y-107777017D01*
X105146234Y-107776983D01*
X119116381Y-122188396D01*
%TO.N,Net-(Q1-Pad3)*%
G36*
X140273000Y-111600000D02*
G01*
X140275440Y-111624776D01*
X140282667Y-111648601D01*
X140294403Y-111670557D01*
X140310197Y-111689803D01*
X140329443Y-111705597D01*
X140358715Y-111720102D01*
X146673000Y-113890637D01*
X146673000Y-116873000D01*
X132844090Y-116873000D01*
X129078695Y-113900320D01*
X129057736Y-113886883D01*
X129034559Y-113877792D01*
X129000000Y-113873000D01*
X128514015Y-113873000D01*
X128056525Y-113782000D01*
X127537475Y-113782000D01*
X127079985Y-113873000D01*
X121127000Y-113873000D01*
X121127000Y-106927000D01*
X126547394Y-106927000D01*
X127673000Y-108052606D01*
X127673000Y-110000000D01*
X127675440Y-110024776D01*
X127682667Y-110048601D01*
X127694403Y-110070557D01*
X127703574Y-110082651D01*
X128903574Y-111482651D01*
X128921552Y-111499874D01*
X128942543Y-111513260D01*
X128965743Y-111522293D01*
X129000000Y-111527000D01*
X136200000Y-111527000D01*
X136224776Y-111524560D01*
X136248601Y-111517333D01*
X136270557Y-111505597D01*
X136289803Y-111489803D01*
X136305597Y-111470557D01*
X136317333Y-111448601D01*
X136324560Y-111424776D01*
X136327000Y-111400279D01*
X136352000Y-100000279D01*
X136349614Y-99975497D01*
X136342439Y-99951657D01*
X136330751Y-99929674D01*
X136314999Y-99910395D01*
X136295789Y-99894558D01*
X136273858Y-99882774D01*
X136250050Y-99875495D01*
X136225000Y-99873000D01*
X129224012Y-99873000D01*
X129130060Y-95927000D01*
X140273000Y-95927000D01*
X140273000Y-111600000D01*
G37*
X140273000Y-111600000D02*
X140275440Y-111624776D01*
X140282667Y-111648601D01*
X140294403Y-111670557D01*
X140310197Y-111689803D01*
X140329443Y-111705597D01*
X140358715Y-111720102D01*
X146673000Y-113890637D01*
X146673000Y-116873000D01*
X132844090Y-116873000D01*
X129078695Y-113900320D01*
X129057736Y-113886883D01*
X129034559Y-113877792D01*
X129000000Y-113873000D01*
X128514015Y-113873000D01*
X128056525Y-113782000D01*
X127537475Y-113782000D01*
X127079985Y-113873000D01*
X121127000Y-113873000D01*
X121127000Y-106927000D01*
X126547394Y-106927000D01*
X127673000Y-108052606D01*
X127673000Y-110000000D01*
X127675440Y-110024776D01*
X127682667Y-110048601D01*
X127694403Y-110070557D01*
X127703574Y-110082651D01*
X128903574Y-111482651D01*
X128921552Y-111499874D01*
X128942543Y-111513260D01*
X128965743Y-111522293D01*
X129000000Y-111527000D01*
X136200000Y-111527000D01*
X136224776Y-111524560D01*
X136248601Y-111517333D01*
X136270557Y-111505597D01*
X136289803Y-111489803D01*
X136305597Y-111470557D01*
X136317333Y-111448601D01*
X136324560Y-111424776D01*
X136327000Y-111400279D01*
X136352000Y-100000279D01*
X136349614Y-99975497D01*
X136342439Y-99951657D01*
X136330751Y-99929674D01*
X136314999Y-99910395D01*
X136295789Y-99894558D01*
X136273858Y-99882774D01*
X136250050Y-99875495D01*
X136225000Y-99873000D01*
X129224012Y-99873000D01*
X129130060Y-95927000D01*
X140273000Y-95927000D01*
X140273000Y-111600000D01*
%TD*%
M02*
