%TF.GenerationSoftware,KiCad,Pcbnew,(5.1.4)-1*%
%TF.CreationDate,2019-10-25T23:27:36-05:00*%
%TF.ProjectId,BPSMinion,4250534d-696e-4696-9f6e-2e6b69636164,rev?*%
%TF.SameCoordinates,Original*%
%TF.FileFunction,Paste,Bot*%
%TF.FilePolarity,Positive*%
%FSLAX46Y46*%
G04 Gerber Fmt 4.6, Leading zero omitted, Abs format (unit mm)*
G04 Created by KiCad (PCBNEW (5.1.4)-1) date 2019-10-25 23:27:36*
%MOMM*%
%LPD*%
G04 APERTURE LIST*
%ADD10R,0.533400X1.981200*%
%ADD11R,1.219200X0.508000*%
%ADD12C,0.100000*%
%ADD13C,1.350000*%
%ADD14C,0.975000*%
%ADD15R,0.900000X0.800000*%
G04 APERTURE END LIST*
D10*
X149055000Y-72463800D03*
X150325000Y-72463800D03*
X151595000Y-72463800D03*
X152865000Y-72463800D03*
X154135000Y-72463800D03*
X155405000Y-72463800D03*
X156675000Y-72463800D03*
X157945000Y-72463800D03*
X157945000Y-67536200D03*
X156675000Y-67536200D03*
X155405000Y-67536200D03*
X154135000Y-67536200D03*
X152865000Y-67536200D03*
X151595000Y-67536200D03*
X150325000Y-67536200D03*
X149055000Y-67536200D03*
D11*
X157543000Y-82049999D03*
X157543000Y-83000000D03*
X157543000Y-83950001D03*
X155257000Y-83950001D03*
X155257000Y-83000000D03*
X155257000Y-82049999D03*
D10*
X157945000Y-93536200D03*
X156675000Y-93536200D03*
X155405000Y-93536200D03*
X154135000Y-93536200D03*
X152865000Y-93536200D03*
X151595000Y-93536200D03*
X150325000Y-93536200D03*
X149055000Y-93536200D03*
X149055000Y-98463800D03*
X150325000Y-98463800D03*
X151595000Y-98463800D03*
X152865000Y-98463800D03*
X154135000Y-98463800D03*
X155405000Y-98463800D03*
X156675000Y-98463800D03*
X157945000Y-98463800D03*
D12*
G36*
X112549505Y-110826204D02*
G01*
X112573773Y-110829804D01*
X112597572Y-110835765D01*
X112620671Y-110844030D01*
X112642850Y-110854520D01*
X112663893Y-110867132D01*
X112683599Y-110881747D01*
X112701777Y-110898223D01*
X112718253Y-110916401D01*
X112732868Y-110936107D01*
X112745480Y-110957150D01*
X112755970Y-110979329D01*
X112764235Y-111002428D01*
X112770196Y-111026227D01*
X112773796Y-111050495D01*
X112775000Y-111074999D01*
X112775000Y-113925001D01*
X112773796Y-113949505D01*
X112770196Y-113973773D01*
X112764235Y-113997572D01*
X112755970Y-114020671D01*
X112745480Y-114042850D01*
X112732868Y-114063893D01*
X112718253Y-114083599D01*
X112701777Y-114101777D01*
X112683599Y-114118253D01*
X112663893Y-114132868D01*
X112642850Y-114145480D01*
X112620671Y-114155970D01*
X112597572Y-114164235D01*
X112573773Y-114170196D01*
X112549505Y-114173796D01*
X112525001Y-114175000D01*
X111674999Y-114175000D01*
X111650495Y-114173796D01*
X111626227Y-114170196D01*
X111602428Y-114164235D01*
X111579329Y-114155970D01*
X111557150Y-114145480D01*
X111536107Y-114132868D01*
X111516401Y-114118253D01*
X111498223Y-114101777D01*
X111481747Y-114083599D01*
X111467132Y-114063893D01*
X111454520Y-114042850D01*
X111444030Y-114020671D01*
X111435765Y-113997572D01*
X111429804Y-113973773D01*
X111426204Y-113949505D01*
X111425000Y-113925001D01*
X111425000Y-111074999D01*
X111426204Y-111050495D01*
X111429804Y-111026227D01*
X111435765Y-111002428D01*
X111444030Y-110979329D01*
X111454520Y-110957150D01*
X111467132Y-110936107D01*
X111481747Y-110916401D01*
X111498223Y-110898223D01*
X111516401Y-110881747D01*
X111536107Y-110867132D01*
X111557150Y-110854520D01*
X111579329Y-110844030D01*
X111602428Y-110835765D01*
X111626227Y-110829804D01*
X111650495Y-110826204D01*
X111674999Y-110825000D01*
X112525001Y-110825000D01*
X112549505Y-110826204D01*
X112549505Y-110826204D01*
G37*
D13*
X112100000Y-112500000D03*
D12*
G36*
X118349505Y-110826204D02*
G01*
X118373773Y-110829804D01*
X118397572Y-110835765D01*
X118420671Y-110844030D01*
X118442850Y-110854520D01*
X118463893Y-110867132D01*
X118483599Y-110881747D01*
X118501777Y-110898223D01*
X118518253Y-110916401D01*
X118532868Y-110936107D01*
X118545480Y-110957150D01*
X118555970Y-110979329D01*
X118564235Y-111002428D01*
X118570196Y-111026227D01*
X118573796Y-111050495D01*
X118575000Y-111074999D01*
X118575000Y-113925001D01*
X118573796Y-113949505D01*
X118570196Y-113973773D01*
X118564235Y-113997572D01*
X118555970Y-114020671D01*
X118545480Y-114042850D01*
X118532868Y-114063893D01*
X118518253Y-114083599D01*
X118501777Y-114101777D01*
X118483599Y-114118253D01*
X118463893Y-114132868D01*
X118442850Y-114145480D01*
X118420671Y-114155970D01*
X118397572Y-114164235D01*
X118373773Y-114170196D01*
X118349505Y-114173796D01*
X118325001Y-114175000D01*
X117474999Y-114175000D01*
X117450495Y-114173796D01*
X117426227Y-114170196D01*
X117402428Y-114164235D01*
X117379329Y-114155970D01*
X117357150Y-114145480D01*
X117336107Y-114132868D01*
X117316401Y-114118253D01*
X117298223Y-114101777D01*
X117281747Y-114083599D01*
X117267132Y-114063893D01*
X117254520Y-114042850D01*
X117244030Y-114020671D01*
X117235765Y-113997572D01*
X117229804Y-113973773D01*
X117226204Y-113949505D01*
X117225000Y-113925001D01*
X117225000Y-111074999D01*
X117226204Y-111050495D01*
X117229804Y-111026227D01*
X117235765Y-111002428D01*
X117244030Y-110979329D01*
X117254520Y-110957150D01*
X117267132Y-110936107D01*
X117281747Y-110916401D01*
X117298223Y-110898223D01*
X117316401Y-110881747D01*
X117336107Y-110867132D01*
X117357150Y-110854520D01*
X117379329Y-110844030D01*
X117402428Y-110835765D01*
X117426227Y-110829804D01*
X117450495Y-110826204D01*
X117474999Y-110825000D01*
X118325001Y-110825000D01*
X118349505Y-110826204D01*
X118349505Y-110826204D01*
G37*
D13*
X117900000Y-112500000D03*
D12*
G36*
X112549505Y-105826204D02*
G01*
X112573773Y-105829804D01*
X112597572Y-105835765D01*
X112620671Y-105844030D01*
X112642850Y-105854520D01*
X112663893Y-105867132D01*
X112683599Y-105881747D01*
X112701777Y-105898223D01*
X112718253Y-105916401D01*
X112732868Y-105936107D01*
X112745480Y-105957150D01*
X112755970Y-105979329D01*
X112764235Y-106002428D01*
X112770196Y-106026227D01*
X112773796Y-106050495D01*
X112775000Y-106074999D01*
X112775000Y-108925001D01*
X112773796Y-108949505D01*
X112770196Y-108973773D01*
X112764235Y-108997572D01*
X112755970Y-109020671D01*
X112745480Y-109042850D01*
X112732868Y-109063893D01*
X112718253Y-109083599D01*
X112701777Y-109101777D01*
X112683599Y-109118253D01*
X112663893Y-109132868D01*
X112642850Y-109145480D01*
X112620671Y-109155970D01*
X112597572Y-109164235D01*
X112573773Y-109170196D01*
X112549505Y-109173796D01*
X112525001Y-109175000D01*
X111674999Y-109175000D01*
X111650495Y-109173796D01*
X111626227Y-109170196D01*
X111602428Y-109164235D01*
X111579329Y-109155970D01*
X111557150Y-109145480D01*
X111536107Y-109132868D01*
X111516401Y-109118253D01*
X111498223Y-109101777D01*
X111481747Y-109083599D01*
X111467132Y-109063893D01*
X111454520Y-109042850D01*
X111444030Y-109020671D01*
X111435765Y-108997572D01*
X111429804Y-108973773D01*
X111426204Y-108949505D01*
X111425000Y-108925001D01*
X111425000Y-106074999D01*
X111426204Y-106050495D01*
X111429804Y-106026227D01*
X111435765Y-106002428D01*
X111444030Y-105979329D01*
X111454520Y-105957150D01*
X111467132Y-105936107D01*
X111481747Y-105916401D01*
X111498223Y-105898223D01*
X111516401Y-105881747D01*
X111536107Y-105867132D01*
X111557150Y-105854520D01*
X111579329Y-105844030D01*
X111602428Y-105835765D01*
X111626227Y-105829804D01*
X111650495Y-105826204D01*
X111674999Y-105825000D01*
X112525001Y-105825000D01*
X112549505Y-105826204D01*
X112549505Y-105826204D01*
G37*
D13*
X112100000Y-107500000D03*
D12*
G36*
X118349505Y-105826204D02*
G01*
X118373773Y-105829804D01*
X118397572Y-105835765D01*
X118420671Y-105844030D01*
X118442850Y-105854520D01*
X118463893Y-105867132D01*
X118483599Y-105881747D01*
X118501777Y-105898223D01*
X118518253Y-105916401D01*
X118532868Y-105936107D01*
X118545480Y-105957150D01*
X118555970Y-105979329D01*
X118564235Y-106002428D01*
X118570196Y-106026227D01*
X118573796Y-106050495D01*
X118575000Y-106074999D01*
X118575000Y-108925001D01*
X118573796Y-108949505D01*
X118570196Y-108973773D01*
X118564235Y-108997572D01*
X118555970Y-109020671D01*
X118545480Y-109042850D01*
X118532868Y-109063893D01*
X118518253Y-109083599D01*
X118501777Y-109101777D01*
X118483599Y-109118253D01*
X118463893Y-109132868D01*
X118442850Y-109145480D01*
X118420671Y-109155970D01*
X118397572Y-109164235D01*
X118373773Y-109170196D01*
X118349505Y-109173796D01*
X118325001Y-109175000D01*
X117474999Y-109175000D01*
X117450495Y-109173796D01*
X117426227Y-109170196D01*
X117402428Y-109164235D01*
X117379329Y-109155970D01*
X117357150Y-109145480D01*
X117336107Y-109132868D01*
X117316401Y-109118253D01*
X117298223Y-109101777D01*
X117281747Y-109083599D01*
X117267132Y-109063893D01*
X117254520Y-109042850D01*
X117244030Y-109020671D01*
X117235765Y-108997572D01*
X117229804Y-108973773D01*
X117226204Y-108949505D01*
X117225000Y-108925001D01*
X117225000Y-106074999D01*
X117226204Y-106050495D01*
X117229804Y-106026227D01*
X117235765Y-106002428D01*
X117244030Y-105979329D01*
X117254520Y-105957150D01*
X117267132Y-105936107D01*
X117281747Y-105916401D01*
X117298223Y-105898223D01*
X117316401Y-105881747D01*
X117336107Y-105867132D01*
X117357150Y-105854520D01*
X117379329Y-105844030D01*
X117402428Y-105835765D01*
X117426227Y-105829804D01*
X117450495Y-105826204D01*
X117474999Y-105825000D01*
X118325001Y-105825000D01*
X118349505Y-105826204D01*
X118349505Y-105826204D01*
G37*
D13*
X117900000Y-107500000D03*
D12*
G36*
X112549505Y-100826204D02*
G01*
X112573773Y-100829804D01*
X112597572Y-100835765D01*
X112620671Y-100844030D01*
X112642850Y-100854520D01*
X112663893Y-100867132D01*
X112683599Y-100881747D01*
X112701777Y-100898223D01*
X112718253Y-100916401D01*
X112732868Y-100936107D01*
X112745480Y-100957150D01*
X112755970Y-100979329D01*
X112764235Y-101002428D01*
X112770196Y-101026227D01*
X112773796Y-101050495D01*
X112775000Y-101074999D01*
X112775000Y-103925001D01*
X112773796Y-103949505D01*
X112770196Y-103973773D01*
X112764235Y-103997572D01*
X112755970Y-104020671D01*
X112745480Y-104042850D01*
X112732868Y-104063893D01*
X112718253Y-104083599D01*
X112701777Y-104101777D01*
X112683599Y-104118253D01*
X112663893Y-104132868D01*
X112642850Y-104145480D01*
X112620671Y-104155970D01*
X112597572Y-104164235D01*
X112573773Y-104170196D01*
X112549505Y-104173796D01*
X112525001Y-104175000D01*
X111674999Y-104175000D01*
X111650495Y-104173796D01*
X111626227Y-104170196D01*
X111602428Y-104164235D01*
X111579329Y-104155970D01*
X111557150Y-104145480D01*
X111536107Y-104132868D01*
X111516401Y-104118253D01*
X111498223Y-104101777D01*
X111481747Y-104083599D01*
X111467132Y-104063893D01*
X111454520Y-104042850D01*
X111444030Y-104020671D01*
X111435765Y-103997572D01*
X111429804Y-103973773D01*
X111426204Y-103949505D01*
X111425000Y-103925001D01*
X111425000Y-101074999D01*
X111426204Y-101050495D01*
X111429804Y-101026227D01*
X111435765Y-101002428D01*
X111444030Y-100979329D01*
X111454520Y-100957150D01*
X111467132Y-100936107D01*
X111481747Y-100916401D01*
X111498223Y-100898223D01*
X111516401Y-100881747D01*
X111536107Y-100867132D01*
X111557150Y-100854520D01*
X111579329Y-100844030D01*
X111602428Y-100835765D01*
X111626227Y-100829804D01*
X111650495Y-100826204D01*
X111674999Y-100825000D01*
X112525001Y-100825000D01*
X112549505Y-100826204D01*
X112549505Y-100826204D01*
G37*
D13*
X112100000Y-102500000D03*
D12*
G36*
X118349505Y-100826204D02*
G01*
X118373773Y-100829804D01*
X118397572Y-100835765D01*
X118420671Y-100844030D01*
X118442850Y-100854520D01*
X118463893Y-100867132D01*
X118483599Y-100881747D01*
X118501777Y-100898223D01*
X118518253Y-100916401D01*
X118532868Y-100936107D01*
X118545480Y-100957150D01*
X118555970Y-100979329D01*
X118564235Y-101002428D01*
X118570196Y-101026227D01*
X118573796Y-101050495D01*
X118575000Y-101074999D01*
X118575000Y-103925001D01*
X118573796Y-103949505D01*
X118570196Y-103973773D01*
X118564235Y-103997572D01*
X118555970Y-104020671D01*
X118545480Y-104042850D01*
X118532868Y-104063893D01*
X118518253Y-104083599D01*
X118501777Y-104101777D01*
X118483599Y-104118253D01*
X118463893Y-104132868D01*
X118442850Y-104145480D01*
X118420671Y-104155970D01*
X118397572Y-104164235D01*
X118373773Y-104170196D01*
X118349505Y-104173796D01*
X118325001Y-104175000D01*
X117474999Y-104175000D01*
X117450495Y-104173796D01*
X117426227Y-104170196D01*
X117402428Y-104164235D01*
X117379329Y-104155970D01*
X117357150Y-104145480D01*
X117336107Y-104132868D01*
X117316401Y-104118253D01*
X117298223Y-104101777D01*
X117281747Y-104083599D01*
X117267132Y-104063893D01*
X117254520Y-104042850D01*
X117244030Y-104020671D01*
X117235765Y-103997572D01*
X117229804Y-103973773D01*
X117226204Y-103949505D01*
X117225000Y-103925001D01*
X117225000Y-101074999D01*
X117226204Y-101050495D01*
X117229804Y-101026227D01*
X117235765Y-101002428D01*
X117244030Y-100979329D01*
X117254520Y-100957150D01*
X117267132Y-100936107D01*
X117281747Y-100916401D01*
X117298223Y-100898223D01*
X117316401Y-100881747D01*
X117336107Y-100867132D01*
X117357150Y-100854520D01*
X117379329Y-100844030D01*
X117402428Y-100835765D01*
X117426227Y-100829804D01*
X117450495Y-100826204D01*
X117474999Y-100825000D01*
X118325001Y-100825000D01*
X118349505Y-100826204D01*
X118349505Y-100826204D01*
G37*
D13*
X117900000Y-102500000D03*
D12*
G36*
X112549505Y-95826204D02*
G01*
X112573773Y-95829804D01*
X112597572Y-95835765D01*
X112620671Y-95844030D01*
X112642850Y-95854520D01*
X112663893Y-95867132D01*
X112683599Y-95881747D01*
X112701777Y-95898223D01*
X112718253Y-95916401D01*
X112732868Y-95936107D01*
X112745480Y-95957150D01*
X112755970Y-95979329D01*
X112764235Y-96002428D01*
X112770196Y-96026227D01*
X112773796Y-96050495D01*
X112775000Y-96074999D01*
X112775000Y-98925001D01*
X112773796Y-98949505D01*
X112770196Y-98973773D01*
X112764235Y-98997572D01*
X112755970Y-99020671D01*
X112745480Y-99042850D01*
X112732868Y-99063893D01*
X112718253Y-99083599D01*
X112701777Y-99101777D01*
X112683599Y-99118253D01*
X112663893Y-99132868D01*
X112642850Y-99145480D01*
X112620671Y-99155970D01*
X112597572Y-99164235D01*
X112573773Y-99170196D01*
X112549505Y-99173796D01*
X112525001Y-99175000D01*
X111674999Y-99175000D01*
X111650495Y-99173796D01*
X111626227Y-99170196D01*
X111602428Y-99164235D01*
X111579329Y-99155970D01*
X111557150Y-99145480D01*
X111536107Y-99132868D01*
X111516401Y-99118253D01*
X111498223Y-99101777D01*
X111481747Y-99083599D01*
X111467132Y-99063893D01*
X111454520Y-99042850D01*
X111444030Y-99020671D01*
X111435765Y-98997572D01*
X111429804Y-98973773D01*
X111426204Y-98949505D01*
X111425000Y-98925001D01*
X111425000Y-96074999D01*
X111426204Y-96050495D01*
X111429804Y-96026227D01*
X111435765Y-96002428D01*
X111444030Y-95979329D01*
X111454520Y-95957150D01*
X111467132Y-95936107D01*
X111481747Y-95916401D01*
X111498223Y-95898223D01*
X111516401Y-95881747D01*
X111536107Y-95867132D01*
X111557150Y-95854520D01*
X111579329Y-95844030D01*
X111602428Y-95835765D01*
X111626227Y-95829804D01*
X111650495Y-95826204D01*
X111674999Y-95825000D01*
X112525001Y-95825000D01*
X112549505Y-95826204D01*
X112549505Y-95826204D01*
G37*
D13*
X112100000Y-97500000D03*
D12*
G36*
X118349505Y-95826204D02*
G01*
X118373773Y-95829804D01*
X118397572Y-95835765D01*
X118420671Y-95844030D01*
X118442850Y-95854520D01*
X118463893Y-95867132D01*
X118483599Y-95881747D01*
X118501777Y-95898223D01*
X118518253Y-95916401D01*
X118532868Y-95936107D01*
X118545480Y-95957150D01*
X118555970Y-95979329D01*
X118564235Y-96002428D01*
X118570196Y-96026227D01*
X118573796Y-96050495D01*
X118575000Y-96074999D01*
X118575000Y-98925001D01*
X118573796Y-98949505D01*
X118570196Y-98973773D01*
X118564235Y-98997572D01*
X118555970Y-99020671D01*
X118545480Y-99042850D01*
X118532868Y-99063893D01*
X118518253Y-99083599D01*
X118501777Y-99101777D01*
X118483599Y-99118253D01*
X118463893Y-99132868D01*
X118442850Y-99145480D01*
X118420671Y-99155970D01*
X118397572Y-99164235D01*
X118373773Y-99170196D01*
X118349505Y-99173796D01*
X118325001Y-99175000D01*
X117474999Y-99175000D01*
X117450495Y-99173796D01*
X117426227Y-99170196D01*
X117402428Y-99164235D01*
X117379329Y-99155970D01*
X117357150Y-99145480D01*
X117336107Y-99132868D01*
X117316401Y-99118253D01*
X117298223Y-99101777D01*
X117281747Y-99083599D01*
X117267132Y-99063893D01*
X117254520Y-99042850D01*
X117244030Y-99020671D01*
X117235765Y-98997572D01*
X117229804Y-98973773D01*
X117226204Y-98949505D01*
X117225000Y-98925001D01*
X117225000Y-96074999D01*
X117226204Y-96050495D01*
X117229804Y-96026227D01*
X117235765Y-96002428D01*
X117244030Y-95979329D01*
X117254520Y-95957150D01*
X117267132Y-95936107D01*
X117281747Y-95916401D01*
X117298223Y-95898223D01*
X117316401Y-95881747D01*
X117336107Y-95867132D01*
X117357150Y-95854520D01*
X117379329Y-95844030D01*
X117402428Y-95835765D01*
X117426227Y-95829804D01*
X117450495Y-95826204D01*
X117474999Y-95825000D01*
X118325001Y-95825000D01*
X118349505Y-95826204D01*
X118349505Y-95826204D01*
G37*
D13*
X117900000Y-97500000D03*
D12*
G36*
X112549505Y-90826204D02*
G01*
X112573773Y-90829804D01*
X112597572Y-90835765D01*
X112620671Y-90844030D01*
X112642850Y-90854520D01*
X112663893Y-90867132D01*
X112683599Y-90881747D01*
X112701777Y-90898223D01*
X112718253Y-90916401D01*
X112732868Y-90936107D01*
X112745480Y-90957150D01*
X112755970Y-90979329D01*
X112764235Y-91002428D01*
X112770196Y-91026227D01*
X112773796Y-91050495D01*
X112775000Y-91074999D01*
X112775000Y-93925001D01*
X112773796Y-93949505D01*
X112770196Y-93973773D01*
X112764235Y-93997572D01*
X112755970Y-94020671D01*
X112745480Y-94042850D01*
X112732868Y-94063893D01*
X112718253Y-94083599D01*
X112701777Y-94101777D01*
X112683599Y-94118253D01*
X112663893Y-94132868D01*
X112642850Y-94145480D01*
X112620671Y-94155970D01*
X112597572Y-94164235D01*
X112573773Y-94170196D01*
X112549505Y-94173796D01*
X112525001Y-94175000D01*
X111674999Y-94175000D01*
X111650495Y-94173796D01*
X111626227Y-94170196D01*
X111602428Y-94164235D01*
X111579329Y-94155970D01*
X111557150Y-94145480D01*
X111536107Y-94132868D01*
X111516401Y-94118253D01*
X111498223Y-94101777D01*
X111481747Y-94083599D01*
X111467132Y-94063893D01*
X111454520Y-94042850D01*
X111444030Y-94020671D01*
X111435765Y-93997572D01*
X111429804Y-93973773D01*
X111426204Y-93949505D01*
X111425000Y-93925001D01*
X111425000Y-91074999D01*
X111426204Y-91050495D01*
X111429804Y-91026227D01*
X111435765Y-91002428D01*
X111444030Y-90979329D01*
X111454520Y-90957150D01*
X111467132Y-90936107D01*
X111481747Y-90916401D01*
X111498223Y-90898223D01*
X111516401Y-90881747D01*
X111536107Y-90867132D01*
X111557150Y-90854520D01*
X111579329Y-90844030D01*
X111602428Y-90835765D01*
X111626227Y-90829804D01*
X111650495Y-90826204D01*
X111674999Y-90825000D01*
X112525001Y-90825000D01*
X112549505Y-90826204D01*
X112549505Y-90826204D01*
G37*
D13*
X112100000Y-92500000D03*
D12*
G36*
X118349505Y-90826204D02*
G01*
X118373773Y-90829804D01*
X118397572Y-90835765D01*
X118420671Y-90844030D01*
X118442850Y-90854520D01*
X118463893Y-90867132D01*
X118483599Y-90881747D01*
X118501777Y-90898223D01*
X118518253Y-90916401D01*
X118532868Y-90936107D01*
X118545480Y-90957150D01*
X118555970Y-90979329D01*
X118564235Y-91002428D01*
X118570196Y-91026227D01*
X118573796Y-91050495D01*
X118575000Y-91074999D01*
X118575000Y-93925001D01*
X118573796Y-93949505D01*
X118570196Y-93973773D01*
X118564235Y-93997572D01*
X118555970Y-94020671D01*
X118545480Y-94042850D01*
X118532868Y-94063893D01*
X118518253Y-94083599D01*
X118501777Y-94101777D01*
X118483599Y-94118253D01*
X118463893Y-94132868D01*
X118442850Y-94145480D01*
X118420671Y-94155970D01*
X118397572Y-94164235D01*
X118373773Y-94170196D01*
X118349505Y-94173796D01*
X118325001Y-94175000D01*
X117474999Y-94175000D01*
X117450495Y-94173796D01*
X117426227Y-94170196D01*
X117402428Y-94164235D01*
X117379329Y-94155970D01*
X117357150Y-94145480D01*
X117336107Y-94132868D01*
X117316401Y-94118253D01*
X117298223Y-94101777D01*
X117281747Y-94083599D01*
X117267132Y-94063893D01*
X117254520Y-94042850D01*
X117244030Y-94020671D01*
X117235765Y-93997572D01*
X117229804Y-93973773D01*
X117226204Y-93949505D01*
X117225000Y-93925001D01*
X117225000Y-91074999D01*
X117226204Y-91050495D01*
X117229804Y-91026227D01*
X117235765Y-91002428D01*
X117244030Y-90979329D01*
X117254520Y-90957150D01*
X117267132Y-90936107D01*
X117281747Y-90916401D01*
X117298223Y-90898223D01*
X117316401Y-90881747D01*
X117336107Y-90867132D01*
X117357150Y-90854520D01*
X117379329Y-90844030D01*
X117402428Y-90835765D01*
X117426227Y-90829804D01*
X117450495Y-90826204D01*
X117474999Y-90825000D01*
X118325001Y-90825000D01*
X118349505Y-90826204D01*
X118349505Y-90826204D01*
G37*
D13*
X117900000Y-92500000D03*
D12*
G36*
X156280142Y-88451174D02*
G01*
X156303803Y-88454684D01*
X156327007Y-88460496D01*
X156349529Y-88468554D01*
X156371153Y-88478782D01*
X156391670Y-88491079D01*
X156410883Y-88505329D01*
X156428607Y-88521393D01*
X156444671Y-88539117D01*
X156458921Y-88558330D01*
X156471218Y-88578847D01*
X156481446Y-88600471D01*
X156489504Y-88622993D01*
X156495316Y-88646197D01*
X156498826Y-88669858D01*
X156500000Y-88693750D01*
X156500000Y-89181250D01*
X156498826Y-89205142D01*
X156495316Y-89228803D01*
X156489504Y-89252007D01*
X156481446Y-89274529D01*
X156471218Y-89296153D01*
X156458921Y-89316670D01*
X156444671Y-89335883D01*
X156428607Y-89353607D01*
X156410883Y-89369671D01*
X156391670Y-89383921D01*
X156371153Y-89396218D01*
X156349529Y-89406446D01*
X156327007Y-89414504D01*
X156303803Y-89420316D01*
X156280142Y-89423826D01*
X156256250Y-89425000D01*
X155343750Y-89425000D01*
X155319858Y-89423826D01*
X155296197Y-89420316D01*
X155272993Y-89414504D01*
X155250471Y-89406446D01*
X155228847Y-89396218D01*
X155208330Y-89383921D01*
X155189117Y-89369671D01*
X155171393Y-89353607D01*
X155155329Y-89335883D01*
X155141079Y-89316670D01*
X155128782Y-89296153D01*
X155118554Y-89274529D01*
X155110496Y-89252007D01*
X155104684Y-89228803D01*
X155101174Y-89205142D01*
X155100000Y-89181250D01*
X155100000Y-88693750D01*
X155101174Y-88669858D01*
X155104684Y-88646197D01*
X155110496Y-88622993D01*
X155118554Y-88600471D01*
X155128782Y-88578847D01*
X155141079Y-88558330D01*
X155155329Y-88539117D01*
X155171393Y-88521393D01*
X155189117Y-88505329D01*
X155208330Y-88491079D01*
X155228847Y-88478782D01*
X155250471Y-88468554D01*
X155272993Y-88460496D01*
X155296197Y-88454684D01*
X155319858Y-88451174D01*
X155343750Y-88450000D01*
X156256250Y-88450000D01*
X156280142Y-88451174D01*
X156280142Y-88451174D01*
G37*
D14*
X155800000Y-88937500D03*
D12*
G36*
X156280142Y-86576174D02*
G01*
X156303803Y-86579684D01*
X156327007Y-86585496D01*
X156349529Y-86593554D01*
X156371153Y-86603782D01*
X156391670Y-86616079D01*
X156410883Y-86630329D01*
X156428607Y-86646393D01*
X156444671Y-86664117D01*
X156458921Y-86683330D01*
X156471218Y-86703847D01*
X156481446Y-86725471D01*
X156489504Y-86747993D01*
X156495316Y-86771197D01*
X156498826Y-86794858D01*
X156500000Y-86818750D01*
X156500000Y-87306250D01*
X156498826Y-87330142D01*
X156495316Y-87353803D01*
X156489504Y-87377007D01*
X156481446Y-87399529D01*
X156471218Y-87421153D01*
X156458921Y-87441670D01*
X156444671Y-87460883D01*
X156428607Y-87478607D01*
X156410883Y-87494671D01*
X156391670Y-87508921D01*
X156371153Y-87521218D01*
X156349529Y-87531446D01*
X156327007Y-87539504D01*
X156303803Y-87545316D01*
X156280142Y-87548826D01*
X156256250Y-87550000D01*
X155343750Y-87550000D01*
X155319858Y-87548826D01*
X155296197Y-87545316D01*
X155272993Y-87539504D01*
X155250471Y-87531446D01*
X155228847Y-87521218D01*
X155208330Y-87508921D01*
X155189117Y-87494671D01*
X155171393Y-87478607D01*
X155155329Y-87460883D01*
X155141079Y-87441670D01*
X155128782Y-87421153D01*
X155118554Y-87399529D01*
X155110496Y-87377007D01*
X155104684Y-87353803D01*
X155101174Y-87330142D01*
X155100000Y-87306250D01*
X155100000Y-86818750D01*
X155101174Y-86794858D01*
X155104684Y-86771197D01*
X155110496Y-86747993D01*
X155118554Y-86725471D01*
X155128782Y-86703847D01*
X155141079Y-86683330D01*
X155155329Y-86664117D01*
X155171393Y-86646393D01*
X155189117Y-86630329D01*
X155208330Y-86616079D01*
X155228847Y-86603782D01*
X155250471Y-86593554D01*
X155272993Y-86585496D01*
X155296197Y-86579684D01*
X155319858Y-86576174D01*
X155343750Y-86575000D01*
X156256250Y-86575000D01*
X156280142Y-86576174D01*
X156280142Y-86576174D01*
G37*
D14*
X155800000Y-87062500D03*
D12*
G36*
X112549505Y-85826204D02*
G01*
X112573773Y-85829804D01*
X112597572Y-85835765D01*
X112620671Y-85844030D01*
X112642850Y-85854520D01*
X112663893Y-85867132D01*
X112683599Y-85881747D01*
X112701777Y-85898223D01*
X112718253Y-85916401D01*
X112732868Y-85936107D01*
X112745480Y-85957150D01*
X112755970Y-85979329D01*
X112764235Y-86002428D01*
X112770196Y-86026227D01*
X112773796Y-86050495D01*
X112775000Y-86074999D01*
X112775000Y-88925001D01*
X112773796Y-88949505D01*
X112770196Y-88973773D01*
X112764235Y-88997572D01*
X112755970Y-89020671D01*
X112745480Y-89042850D01*
X112732868Y-89063893D01*
X112718253Y-89083599D01*
X112701777Y-89101777D01*
X112683599Y-89118253D01*
X112663893Y-89132868D01*
X112642850Y-89145480D01*
X112620671Y-89155970D01*
X112597572Y-89164235D01*
X112573773Y-89170196D01*
X112549505Y-89173796D01*
X112525001Y-89175000D01*
X111674999Y-89175000D01*
X111650495Y-89173796D01*
X111626227Y-89170196D01*
X111602428Y-89164235D01*
X111579329Y-89155970D01*
X111557150Y-89145480D01*
X111536107Y-89132868D01*
X111516401Y-89118253D01*
X111498223Y-89101777D01*
X111481747Y-89083599D01*
X111467132Y-89063893D01*
X111454520Y-89042850D01*
X111444030Y-89020671D01*
X111435765Y-88997572D01*
X111429804Y-88973773D01*
X111426204Y-88949505D01*
X111425000Y-88925001D01*
X111425000Y-86074999D01*
X111426204Y-86050495D01*
X111429804Y-86026227D01*
X111435765Y-86002428D01*
X111444030Y-85979329D01*
X111454520Y-85957150D01*
X111467132Y-85936107D01*
X111481747Y-85916401D01*
X111498223Y-85898223D01*
X111516401Y-85881747D01*
X111536107Y-85867132D01*
X111557150Y-85854520D01*
X111579329Y-85844030D01*
X111602428Y-85835765D01*
X111626227Y-85829804D01*
X111650495Y-85826204D01*
X111674999Y-85825000D01*
X112525001Y-85825000D01*
X112549505Y-85826204D01*
X112549505Y-85826204D01*
G37*
D13*
X112100000Y-87500000D03*
D12*
G36*
X118349505Y-85826204D02*
G01*
X118373773Y-85829804D01*
X118397572Y-85835765D01*
X118420671Y-85844030D01*
X118442850Y-85854520D01*
X118463893Y-85867132D01*
X118483599Y-85881747D01*
X118501777Y-85898223D01*
X118518253Y-85916401D01*
X118532868Y-85936107D01*
X118545480Y-85957150D01*
X118555970Y-85979329D01*
X118564235Y-86002428D01*
X118570196Y-86026227D01*
X118573796Y-86050495D01*
X118575000Y-86074999D01*
X118575000Y-88925001D01*
X118573796Y-88949505D01*
X118570196Y-88973773D01*
X118564235Y-88997572D01*
X118555970Y-89020671D01*
X118545480Y-89042850D01*
X118532868Y-89063893D01*
X118518253Y-89083599D01*
X118501777Y-89101777D01*
X118483599Y-89118253D01*
X118463893Y-89132868D01*
X118442850Y-89145480D01*
X118420671Y-89155970D01*
X118397572Y-89164235D01*
X118373773Y-89170196D01*
X118349505Y-89173796D01*
X118325001Y-89175000D01*
X117474999Y-89175000D01*
X117450495Y-89173796D01*
X117426227Y-89170196D01*
X117402428Y-89164235D01*
X117379329Y-89155970D01*
X117357150Y-89145480D01*
X117336107Y-89132868D01*
X117316401Y-89118253D01*
X117298223Y-89101777D01*
X117281747Y-89083599D01*
X117267132Y-89063893D01*
X117254520Y-89042850D01*
X117244030Y-89020671D01*
X117235765Y-88997572D01*
X117229804Y-88973773D01*
X117226204Y-88949505D01*
X117225000Y-88925001D01*
X117225000Y-86074999D01*
X117226204Y-86050495D01*
X117229804Y-86026227D01*
X117235765Y-86002428D01*
X117244030Y-85979329D01*
X117254520Y-85957150D01*
X117267132Y-85936107D01*
X117281747Y-85916401D01*
X117298223Y-85898223D01*
X117316401Y-85881747D01*
X117336107Y-85867132D01*
X117357150Y-85854520D01*
X117379329Y-85844030D01*
X117402428Y-85835765D01*
X117426227Y-85829804D01*
X117450495Y-85826204D01*
X117474999Y-85825000D01*
X118325001Y-85825000D01*
X118349505Y-85826204D01*
X118349505Y-85826204D01*
G37*
D13*
X117900000Y-87500000D03*
D12*
G36*
X112549505Y-80826204D02*
G01*
X112573773Y-80829804D01*
X112597572Y-80835765D01*
X112620671Y-80844030D01*
X112642850Y-80854520D01*
X112663893Y-80867132D01*
X112683599Y-80881747D01*
X112701777Y-80898223D01*
X112718253Y-80916401D01*
X112732868Y-80936107D01*
X112745480Y-80957150D01*
X112755970Y-80979329D01*
X112764235Y-81002428D01*
X112770196Y-81026227D01*
X112773796Y-81050495D01*
X112775000Y-81074999D01*
X112775000Y-83925001D01*
X112773796Y-83949505D01*
X112770196Y-83973773D01*
X112764235Y-83997572D01*
X112755970Y-84020671D01*
X112745480Y-84042850D01*
X112732868Y-84063893D01*
X112718253Y-84083599D01*
X112701777Y-84101777D01*
X112683599Y-84118253D01*
X112663893Y-84132868D01*
X112642850Y-84145480D01*
X112620671Y-84155970D01*
X112597572Y-84164235D01*
X112573773Y-84170196D01*
X112549505Y-84173796D01*
X112525001Y-84175000D01*
X111674999Y-84175000D01*
X111650495Y-84173796D01*
X111626227Y-84170196D01*
X111602428Y-84164235D01*
X111579329Y-84155970D01*
X111557150Y-84145480D01*
X111536107Y-84132868D01*
X111516401Y-84118253D01*
X111498223Y-84101777D01*
X111481747Y-84083599D01*
X111467132Y-84063893D01*
X111454520Y-84042850D01*
X111444030Y-84020671D01*
X111435765Y-83997572D01*
X111429804Y-83973773D01*
X111426204Y-83949505D01*
X111425000Y-83925001D01*
X111425000Y-81074999D01*
X111426204Y-81050495D01*
X111429804Y-81026227D01*
X111435765Y-81002428D01*
X111444030Y-80979329D01*
X111454520Y-80957150D01*
X111467132Y-80936107D01*
X111481747Y-80916401D01*
X111498223Y-80898223D01*
X111516401Y-80881747D01*
X111536107Y-80867132D01*
X111557150Y-80854520D01*
X111579329Y-80844030D01*
X111602428Y-80835765D01*
X111626227Y-80829804D01*
X111650495Y-80826204D01*
X111674999Y-80825000D01*
X112525001Y-80825000D01*
X112549505Y-80826204D01*
X112549505Y-80826204D01*
G37*
D13*
X112100000Y-82500000D03*
D12*
G36*
X118349505Y-80826204D02*
G01*
X118373773Y-80829804D01*
X118397572Y-80835765D01*
X118420671Y-80844030D01*
X118442850Y-80854520D01*
X118463893Y-80867132D01*
X118483599Y-80881747D01*
X118501777Y-80898223D01*
X118518253Y-80916401D01*
X118532868Y-80936107D01*
X118545480Y-80957150D01*
X118555970Y-80979329D01*
X118564235Y-81002428D01*
X118570196Y-81026227D01*
X118573796Y-81050495D01*
X118575000Y-81074999D01*
X118575000Y-83925001D01*
X118573796Y-83949505D01*
X118570196Y-83973773D01*
X118564235Y-83997572D01*
X118555970Y-84020671D01*
X118545480Y-84042850D01*
X118532868Y-84063893D01*
X118518253Y-84083599D01*
X118501777Y-84101777D01*
X118483599Y-84118253D01*
X118463893Y-84132868D01*
X118442850Y-84145480D01*
X118420671Y-84155970D01*
X118397572Y-84164235D01*
X118373773Y-84170196D01*
X118349505Y-84173796D01*
X118325001Y-84175000D01*
X117474999Y-84175000D01*
X117450495Y-84173796D01*
X117426227Y-84170196D01*
X117402428Y-84164235D01*
X117379329Y-84155970D01*
X117357150Y-84145480D01*
X117336107Y-84132868D01*
X117316401Y-84118253D01*
X117298223Y-84101777D01*
X117281747Y-84083599D01*
X117267132Y-84063893D01*
X117254520Y-84042850D01*
X117244030Y-84020671D01*
X117235765Y-83997572D01*
X117229804Y-83973773D01*
X117226204Y-83949505D01*
X117225000Y-83925001D01*
X117225000Y-81074999D01*
X117226204Y-81050495D01*
X117229804Y-81026227D01*
X117235765Y-81002428D01*
X117244030Y-80979329D01*
X117254520Y-80957150D01*
X117267132Y-80936107D01*
X117281747Y-80916401D01*
X117298223Y-80898223D01*
X117316401Y-80881747D01*
X117336107Y-80867132D01*
X117357150Y-80854520D01*
X117379329Y-80844030D01*
X117402428Y-80835765D01*
X117426227Y-80829804D01*
X117450495Y-80826204D01*
X117474999Y-80825000D01*
X118325001Y-80825000D01*
X118349505Y-80826204D01*
X118349505Y-80826204D01*
G37*
D13*
X117900000Y-82500000D03*
D12*
G36*
X112549505Y-75826204D02*
G01*
X112573773Y-75829804D01*
X112597572Y-75835765D01*
X112620671Y-75844030D01*
X112642850Y-75854520D01*
X112663893Y-75867132D01*
X112683599Y-75881747D01*
X112701777Y-75898223D01*
X112718253Y-75916401D01*
X112732868Y-75936107D01*
X112745480Y-75957150D01*
X112755970Y-75979329D01*
X112764235Y-76002428D01*
X112770196Y-76026227D01*
X112773796Y-76050495D01*
X112775000Y-76074999D01*
X112775000Y-78925001D01*
X112773796Y-78949505D01*
X112770196Y-78973773D01*
X112764235Y-78997572D01*
X112755970Y-79020671D01*
X112745480Y-79042850D01*
X112732868Y-79063893D01*
X112718253Y-79083599D01*
X112701777Y-79101777D01*
X112683599Y-79118253D01*
X112663893Y-79132868D01*
X112642850Y-79145480D01*
X112620671Y-79155970D01*
X112597572Y-79164235D01*
X112573773Y-79170196D01*
X112549505Y-79173796D01*
X112525001Y-79175000D01*
X111674999Y-79175000D01*
X111650495Y-79173796D01*
X111626227Y-79170196D01*
X111602428Y-79164235D01*
X111579329Y-79155970D01*
X111557150Y-79145480D01*
X111536107Y-79132868D01*
X111516401Y-79118253D01*
X111498223Y-79101777D01*
X111481747Y-79083599D01*
X111467132Y-79063893D01*
X111454520Y-79042850D01*
X111444030Y-79020671D01*
X111435765Y-78997572D01*
X111429804Y-78973773D01*
X111426204Y-78949505D01*
X111425000Y-78925001D01*
X111425000Y-76074999D01*
X111426204Y-76050495D01*
X111429804Y-76026227D01*
X111435765Y-76002428D01*
X111444030Y-75979329D01*
X111454520Y-75957150D01*
X111467132Y-75936107D01*
X111481747Y-75916401D01*
X111498223Y-75898223D01*
X111516401Y-75881747D01*
X111536107Y-75867132D01*
X111557150Y-75854520D01*
X111579329Y-75844030D01*
X111602428Y-75835765D01*
X111626227Y-75829804D01*
X111650495Y-75826204D01*
X111674999Y-75825000D01*
X112525001Y-75825000D01*
X112549505Y-75826204D01*
X112549505Y-75826204D01*
G37*
D13*
X112100000Y-77500000D03*
D12*
G36*
X118349505Y-75826204D02*
G01*
X118373773Y-75829804D01*
X118397572Y-75835765D01*
X118420671Y-75844030D01*
X118442850Y-75854520D01*
X118463893Y-75867132D01*
X118483599Y-75881747D01*
X118501777Y-75898223D01*
X118518253Y-75916401D01*
X118532868Y-75936107D01*
X118545480Y-75957150D01*
X118555970Y-75979329D01*
X118564235Y-76002428D01*
X118570196Y-76026227D01*
X118573796Y-76050495D01*
X118575000Y-76074999D01*
X118575000Y-78925001D01*
X118573796Y-78949505D01*
X118570196Y-78973773D01*
X118564235Y-78997572D01*
X118555970Y-79020671D01*
X118545480Y-79042850D01*
X118532868Y-79063893D01*
X118518253Y-79083599D01*
X118501777Y-79101777D01*
X118483599Y-79118253D01*
X118463893Y-79132868D01*
X118442850Y-79145480D01*
X118420671Y-79155970D01*
X118397572Y-79164235D01*
X118373773Y-79170196D01*
X118349505Y-79173796D01*
X118325001Y-79175000D01*
X117474999Y-79175000D01*
X117450495Y-79173796D01*
X117426227Y-79170196D01*
X117402428Y-79164235D01*
X117379329Y-79155970D01*
X117357150Y-79145480D01*
X117336107Y-79132868D01*
X117316401Y-79118253D01*
X117298223Y-79101777D01*
X117281747Y-79083599D01*
X117267132Y-79063893D01*
X117254520Y-79042850D01*
X117244030Y-79020671D01*
X117235765Y-78997572D01*
X117229804Y-78973773D01*
X117226204Y-78949505D01*
X117225000Y-78925001D01*
X117225000Y-76074999D01*
X117226204Y-76050495D01*
X117229804Y-76026227D01*
X117235765Y-76002428D01*
X117244030Y-75979329D01*
X117254520Y-75957150D01*
X117267132Y-75936107D01*
X117281747Y-75916401D01*
X117298223Y-75898223D01*
X117316401Y-75881747D01*
X117336107Y-75867132D01*
X117357150Y-75854520D01*
X117379329Y-75844030D01*
X117402428Y-75835765D01*
X117426227Y-75829804D01*
X117450495Y-75826204D01*
X117474999Y-75825000D01*
X118325001Y-75825000D01*
X118349505Y-75826204D01*
X118349505Y-75826204D01*
G37*
D13*
X117900000Y-77500000D03*
D12*
G36*
X112549505Y-70826204D02*
G01*
X112573773Y-70829804D01*
X112597572Y-70835765D01*
X112620671Y-70844030D01*
X112642850Y-70854520D01*
X112663893Y-70867132D01*
X112683599Y-70881747D01*
X112701777Y-70898223D01*
X112718253Y-70916401D01*
X112732868Y-70936107D01*
X112745480Y-70957150D01*
X112755970Y-70979329D01*
X112764235Y-71002428D01*
X112770196Y-71026227D01*
X112773796Y-71050495D01*
X112775000Y-71074999D01*
X112775000Y-73925001D01*
X112773796Y-73949505D01*
X112770196Y-73973773D01*
X112764235Y-73997572D01*
X112755970Y-74020671D01*
X112745480Y-74042850D01*
X112732868Y-74063893D01*
X112718253Y-74083599D01*
X112701777Y-74101777D01*
X112683599Y-74118253D01*
X112663893Y-74132868D01*
X112642850Y-74145480D01*
X112620671Y-74155970D01*
X112597572Y-74164235D01*
X112573773Y-74170196D01*
X112549505Y-74173796D01*
X112525001Y-74175000D01*
X111674999Y-74175000D01*
X111650495Y-74173796D01*
X111626227Y-74170196D01*
X111602428Y-74164235D01*
X111579329Y-74155970D01*
X111557150Y-74145480D01*
X111536107Y-74132868D01*
X111516401Y-74118253D01*
X111498223Y-74101777D01*
X111481747Y-74083599D01*
X111467132Y-74063893D01*
X111454520Y-74042850D01*
X111444030Y-74020671D01*
X111435765Y-73997572D01*
X111429804Y-73973773D01*
X111426204Y-73949505D01*
X111425000Y-73925001D01*
X111425000Y-71074999D01*
X111426204Y-71050495D01*
X111429804Y-71026227D01*
X111435765Y-71002428D01*
X111444030Y-70979329D01*
X111454520Y-70957150D01*
X111467132Y-70936107D01*
X111481747Y-70916401D01*
X111498223Y-70898223D01*
X111516401Y-70881747D01*
X111536107Y-70867132D01*
X111557150Y-70854520D01*
X111579329Y-70844030D01*
X111602428Y-70835765D01*
X111626227Y-70829804D01*
X111650495Y-70826204D01*
X111674999Y-70825000D01*
X112525001Y-70825000D01*
X112549505Y-70826204D01*
X112549505Y-70826204D01*
G37*
D13*
X112100000Y-72500000D03*
D12*
G36*
X118349505Y-70826204D02*
G01*
X118373773Y-70829804D01*
X118397572Y-70835765D01*
X118420671Y-70844030D01*
X118442850Y-70854520D01*
X118463893Y-70867132D01*
X118483599Y-70881747D01*
X118501777Y-70898223D01*
X118518253Y-70916401D01*
X118532868Y-70936107D01*
X118545480Y-70957150D01*
X118555970Y-70979329D01*
X118564235Y-71002428D01*
X118570196Y-71026227D01*
X118573796Y-71050495D01*
X118575000Y-71074999D01*
X118575000Y-73925001D01*
X118573796Y-73949505D01*
X118570196Y-73973773D01*
X118564235Y-73997572D01*
X118555970Y-74020671D01*
X118545480Y-74042850D01*
X118532868Y-74063893D01*
X118518253Y-74083599D01*
X118501777Y-74101777D01*
X118483599Y-74118253D01*
X118463893Y-74132868D01*
X118442850Y-74145480D01*
X118420671Y-74155970D01*
X118397572Y-74164235D01*
X118373773Y-74170196D01*
X118349505Y-74173796D01*
X118325001Y-74175000D01*
X117474999Y-74175000D01*
X117450495Y-74173796D01*
X117426227Y-74170196D01*
X117402428Y-74164235D01*
X117379329Y-74155970D01*
X117357150Y-74145480D01*
X117336107Y-74132868D01*
X117316401Y-74118253D01*
X117298223Y-74101777D01*
X117281747Y-74083599D01*
X117267132Y-74063893D01*
X117254520Y-74042850D01*
X117244030Y-74020671D01*
X117235765Y-73997572D01*
X117229804Y-73973773D01*
X117226204Y-73949505D01*
X117225000Y-73925001D01*
X117225000Y-71074999D01*
X117226204Y-71050495D01*
X117229804Y-71026227D01*
X117235765Y-71002428D01*
X117244030Y-70979329D01*
X117254520Y-70957150D01*
X117267132Y-70936107D01*
X117281747Y-70916401D01*
X117298223Y-70898223D01*
X117316401Y-70881747D01*
X117336107Y-70867132D01*
X117357150Y-70854520D01*
X117379329Y-70844030D01*
X117402428Y-70835765D01*
X117426227Y-70829804D01*
X117450495Y-70826204D01*
X117474999Y-70825000D01*
X118325001Y-70825000D01*
X118349505Y-70826204D01*
X118349505Y-70826204D01*
G37*
D13*
X117900000Y-72500000D03*
D12*
G36*
X112549505Y-65826204D02*
G01*
X112573773Y-65829804D01*
X112597572Y-65835765D01*
X112620671Y-65844030D01*
X112642850Y-65854520D01*
X112663893Y-65867132D01*
X112683599Y-65881747D01*
X112701777Y-65898223D01*
X112718253Y-65916401D01*
X112732868Y-65936107D01*
X112745480Y-65957150D01*
X112755970Y-65979329D01*
X112764235Y-66002428D01*
X112770196Y-66026227D01*
X112773796Y-66050495D01*
X112775000Y-66074999D01*
X112775000Y-68925001D01*
X112773796Y-68949505D01*
X112770196Y-68973773D01*
X112764235Y-68997572D01*
X112755970Y-69020671D01*
X112745480Y-69042850D01*
X112732868Y-69063893D01*
X112718253Y-69083599D01*
X112701777Y-69101777D01*
X112683599Y-69118253D01*
X112663893Y-69132868D01*
X112642850Y-69145480D01*
X112620671Y-69155970D01*
X112597572Y-69164235D01*
X112573773Y-69170196D01*
X112549505Y-69173796D01*
X112525001Y-69175000D01*
X111674999Y-69175000D01*
X111650495Y-69173796D01*
X111626227Y-69170196D01*
X111602428Y-69164235D01*
X111579329Y-69155970D01*
X111557150Y-69145480D01*
X111536107Y-69132868D01*
X111516401Y-69118253D01*
X111498223Y-69101777D01*
X111481747Y-69083599D01*
X111467132Y-69063893D01*
X111454520Y-69042850D01*
X111444030Y-69020671D01*
X111435765Y-68997572D01*
X111429804Y-68973773D01*
X111426204Y-68949505D01*
X111425000Y-68925001D01*
X111425000Y-66074999D01*
X111426204Y-66050495D01*
X111429804Y-66026227D01*
X111435765Y-66002428D01*
X111444030Y-65979329D01*
X111454520Y-65957150D01*
X111467132Y-65936107D01*
X111481747Y-65916401D01*
X111498223Y-65898223D01*
X111516401Y-65881747D01*
X111536107Y-65867132D01*
X111557150Y-65854520D01*
X111579329Y-65844030D01*
X111602428Y-65835765D01*
X111626227Y-65829804D01*
X111650495Y-65826204D01*
X111674999Y-65825000D01*
X112525001Y-65825000D01*
X112549505Y-65826204D01*
X112549505Y-65826204D01*
G37*
D13*
X112100000Y-67500000D03*
D12*
G36*
X118349505Y-65826204D02*
G01*
X118373773Y-65829804D01*
X118397572Y-65835765D01*
X118420671Y-65844030D01*
X118442850Y-65854520D01*
X118463893Y-65867132D01*
X118483599Y-65881747D01*
X118501777Y-65898223D01*
X118518253Y-65916401D01*
X118532868Y-65936107D01*
X118545480Y-65957150D01*
X118555970Y-65979329D01*
X118564235Y-66002428D01*
X118570196Y-66026227D01*
X118573796Y-66050495D01*
X118575000Y-66074999D01*
X118575000Y-68925001D01*
X118573796Y-68949505D01*
X118570196Y-68973773D01*
X118564235Y-68997572D01*
X118555970Y-69020671D01*
X118545480Y-69042850D01*
X118532868Y-69063893D01*
X118518253Y-69083599D01*
X118501777Y-69101777D01*
X118483599Y-69118253D01*
X118463893Y-69132868D01*
X118442850Y-69145480D01*
X118420671Y-69155970D01*
X118397572Y-69164235D01*
X118373773Y-69170196D01*
X118349505Y-69173796D01*
X118325001Y-69175000D01*
X117474999Y-69175000D01*
X117450495Y-69173796D01*
X117426227Y-69170196D01*
X117402428Y-69164235D01*
X117379329Y-69155970D01*
X117357150Y-69145480D01*
X117336107Y-69132868D01*
X117316401Y-69118253D01*
X117298223Y-69101777D01*
X117281747Y-69083599D01*
X117267132Y-69063893D01*
X117254520Y-69042850D01*
X117244030Y-69020671D01*
X117235765Y-68997572D01*
X117229804Y-68973773D01*
X117226204Y-68949505D01*
X117225000Y-68925001D01*
X117225000Y-66074999D01*
X117226204Y-66050495D01*
X117229804Y-66026227D01*
X117235765Y-66002428D01*
X117244030Y-65979329D01*
X117254520Y-65957150D01*
X117267132Y-65936107D01*
X117281747Y-65916401D01*
X117298223Y-65898223D01*
X117316401Y-65881747D01*
X117336107Y-65867132D01*
X117357150Y-65854520D01*
X117379329Y-65844030D01*
X117402428Y-65835765D01*
X117426227Y-65829804D01*
X117450495Y-65826204D01*
X117474999Y-65825000D01*
X118325001Y-65825000D01*
X118349505Y-65826204D01*
X118349505Y-65826204D01*
G37*
D13*
X117900000Y-67500000D03*
D12*
G36*
X112549505Y-60826204D02*
G01*
X112573773Y-60829804D01*
X112597572Y-60835765D01*
X112620671Y-60844030D01*
X112642850Y-60854520D01*
X112663893Y-60867132D01*
X112683599Y-60881747D01*
X112701777Y-60898223D01*
X112718253Y-60916401D01*
X112732868Y-60936107D01*
X112745480Y-60957150D01*
X112755970Y-60979329D01*
X112764235Y-61002428D01*
X112770196Y-61026227D01*
X112773796Y-61050495D01*
X112775000Y-61074999D01*
X112775000Y-63925001D01*
X112773796Y-63949505D01*
X112770196Y-63973773D01*
X112764235Y-63997572D01*
X112755970Y-64020671D01*
X112745480Y-64042850D01*
X112732868Y-64063893D01*
X112718253Y-64083599D01*
X112701777Y-64101777D01*
X112683599Y-64118253D01*
X112663893Y-64132868D01*
X112642850Y-64145480D01*
X112620671Y-64155970D01*
X112597572Y-64164235D01*
X112573773Y-64170196D01*
X112549505Y-64173796D01*
X112525001Y-64175000D01*
X111674999Y-64175000D01*
X111650495Y-64173796D01*
X111626227Y-64170196D01*
X111602428Y-64164235D01*
X111579329Y-64155970D01*
X111557150Y-64145480D01*
X111536107Y-64132868D01*
X111516401Y-64118253D01*
X111498223Y-64101777D01*
X111481747Y-64083599D01*
X111467132Y-64063893D01*
X111454520Y-64042850D01*
X111444030Y-64020671D01*
X111435765Y-63997572D01*
X111429804Y-63973773D01*
X111426204Y-63949505D01*
X111425000Y-63925001D01*
X111425000Y-61074999D01*
X111426204Y-61050495D01*
X111429804Y-61026227D01*
X111435765Y-61002428D01*
X111444030Y-60979329D01*
X111454520Y-60957150D01*
X111467132Y-60936107D01*
X111481747Y-60916401D01*
X111498223Y-60898223D01*
X111516401Y-60881747D01*
X111536107Y-60867132D01*
X111557150Y-60854520D01*
X111579329Y-60844030D01*
X111602428Y-60835765D01*
X111626227Y-60829804D01*
X111650495Y-60826204D01*
X111674999Y-60825000D01*
X112525001Y-60825000D01*
X112549505Y-60826204D01*
X112549505Y-60826204D01*
G37*
D13*
X112100000Y-62500000D03*
D12*
G36*
X118349505Y-60826204D02*
G01*
X118373773Y-60829804D01*
X118397572Y-60835765D01*
X118420671Y-60844030D01*
X118442850Y-60854520D01*
X118463893Y-60867132D01*
X118483599Y-60881747D01*
X118501777Y-60898223D01*
X118518253Y-60916401D01*
X118532868Y-60936107D01*
X118545480Y-60957150D01*
X118555970Y-60979329D01*
X118564235Y-61002428D01*
X118570196Y-61026227D01*
X118573796Y-61050495D01*
X118575000Y-61074999D01*
X118575000Y-63925001D01*
X118573796Y-63949505D01*
X118570196Y-63973773D01*
X118564235Y-63997572D01*
X118555970Y-64020671D01*
X118545480Y-64042850D01*
X118532868Y-64063893D01*
X118518253Y-64083599D01*
X118501777Y-64101777D01*
X118483599Y-64118253D01*
X118463893Y-64132868D01*
X118442850Y-64145480D01*
X118420671Y-64155970D01*
X118397572Y-64164235D01*
X118373773Y-64170196D01*
X118349505Y-64173796D01*
X118325001Y-64175000D01*
X117474999Y-64175000D01*
X117450495Y-64173796D01*
X117426227Y-64170196D01*
X117402428Y-64164235D01*
X117379329Y-64155970D01*
X117357150Y-64145480D01*
X117336107Y-64132868D01*
X117316401Y-64118253D01*
X117298223Y-64101777D01*
X117281747Y-64083599D01*
X117267132Y-64063893D01*
X117254520Y-64042850D01*
X117244030Y-64020671D01*
X117235765Y-63997572D01*
X117229804Y-63973773D01*
X117226204Y-63949505D01*
X117225000Y-63925001D01*
X117225000Y-61074999D01*
X117226204Y-61050495D01*
X117229804Y-61026227D01*
X117235765Y-61002428D01*
X117244030Y-60979329D01*
X117254520Y-60957150D01*
X117267132Y-60936107D01*
X117281747Y-60916401D01*
X117298223Y-60898223D01*
X117316401Y-60881747D01*
X117336107Y-60867132D01*
X117357150Y-60854520D01*
X117379329Y-60844030D01*
X117402428Y-60835765D01*
X117426227Y-60829804D01*
X117450495Y-60826204D01*
X117474999Y-60825000D01*
X118325001Y-60825000D01*
X118349505Y-60826204D01*
X118349505Y-60826204D01*
G37*
D13*
X117900000Y-62500000D03*
D12*
G36*
X112549505Y-55826204D02*
G01*
X112573773Y-55829804D01*
X112597572Y-55835765D01*
X112620671Y-55844030D01*
X112642850Y-55854520D01*
X112663893Y-55867132D01*
X112683599Y-55881747D01*
X112701777Y-55898223D01*
X112718253Y-55916401D01*
X112732868Y-55936107D01*
X112745480Y-55957150D01*
X112755970Y-55979329D01*
X112764235Y-56002428D01*
X112770196Y-56026227D01*
X112773796Y-56050495D01*
X112775000Y-56074999D01*
X112775000Y-58925001D01*
X112773796Y-58949505D01*
X112770196Y-58973773D01*
X112764235Y-58997572D01*
X112755970Y-59020671D01*
X112745480Y-59042850D01*
X112732868Y-59063893D01*
X112718253Y-59083599D01*
X112701777Y-59101777D01*
X112683599Y-59118253D01*
X112663893Y-59132868D01*
X112642850Y-59145480D01*
X112620671Y-59155970D01*
X112597572Y-59164235D01*
X112573773Y-59170196D01*
X112549505Y-59173796D01*
X112525001Y-59175000D01*
X111674999Y-59175000D01*
X111650495Y-59173796D01*
X111626227Y-59170196D01*
X111602428Y-59164235D01*
X111579329Y-59155970D01*
X111557150Y-59145480D01*
X111536107Y-59132868D01*
X111516401Y-59118253D01*
X111498223Y-59101777D01*
X111481747Y-59083599D01*
X111467132Y-59063893D01*
X111454520Y-59042850D01*
X111444030Y-59020671D01*
X111435765Y-58997572D01*
X111429804Y-58973773D01*
X111426204Y-58949505D01*
X111425000Y-58925001D01*
X111425000Y-56074999D01*
X111426204Y-56050495D01*
X111429804Y-56026227D01*
X111435765Y-56002428D01*
X111444030Y-55979329D01*
X111454520Y-55957150D01*
X111467132Y-55936107D01*
X111481747Y-55916401D01*
X111498223Y-55898223D01*
X111516401Y-55881747D01*
X111536107Y-55867132D01*
X111557150Y-55854520D01*
X111579329Y-55844030D01*
X111602428Y-55835765D01*
X111626227Y-55829804D01*
X111650495Y-55826204D01*
X111674999Y-55825000D01*
X112525001Y-55825000D01*
X112549505Y-55826204D01*
X112549505Y-55826204D01*
G37*
D13*
X112100000Y-57500000D03*
D12*
G36*
X118349505Y-55826204D02*
G01*
X118373773Y-55829804D01*
X118397572Y-55835765D01*
X118420671Y-55844030D01*
X118442850Y-55854520D01*
X118463893Y-55867132D01*
X118483599Y-55881747D01*
X118501777Y-55898223D01*
X118518253Y-55916401D01*
X118532868Y-55936107D01*
X118545480Y-55957150D01*
X118555970Y-55979329D01*
X118564235Y-56002428D01*
X118570196Y-56026227D01*
X118573796Y-56050495D01*
X118575000Y-56074999D01*
X118575000Y-58925001D01*
X118573796Y-58949505D01*
X118570196Y-58973773D01*
X118564235Y-58997572D01*
X118555970Y-59020671D01*
X118545480Y-59042850D01*
X118532868Y-59063893D01*
X118518253Y-59083599D01*
X118501777Y-59101777D01*
X118483599Y-59118253D01*
X118463893Y-59132868D01*
X118442850Y-59145480D01*
X118420671Y-59155970D01*
X118397572Y-59164235D01*
X118373773Y-59170196D01*
X118349505Y-59173796D01*
X118325001Y-59175000D01*
X117474999Y-59175000D01*
X117450495Y-59173796D01*
X117426227Y-59170196D01*
X117402428Y-59164235D01*
X117379329Y-59155970D01*
X117357150Y-59145480D01*
X117336107Y-59132868D01*
X117316401Y-59118253D01*
X117298223Y-59101777D01*
X117281747Y-59083599D01*
X117267132Y-59063893D01*
X117254520Y-59042850D01*
X117244030Y-59020671D01*
X117235765Y-58997572D01*
X117229804Y-58973773D01*
X117226204Y-58949505D01*
X117225000Y-58925001D01*
X117225000Y-56074999D01*
X117226204Y-56050495D01*
X117229804Y-56026227D01*
X117235765Y-56002428D01*
X117244030Y-55979329D01*
X117254520Y-55957150D01*
X117267132Y-55936107D01*
X117281747Y-55916401D01*
X117298223Y-55898223D01*
X117316401Y-55881747D01*
X117336107Y-55867132D01*
X117357150Y-55854520D01*
X117379329Y-55844030D01*
X117402428Y-55835765D01*
X117426227Y-55829804D01*
X117450495Y-55826204D01*
X117474999Y-55825000D01*
X118325001Y-55825000D01*
X118349505Y-55826204D01*
X118349505Y-55826204D01*
G37*
D13*
X117900000Y-57500000D03*
D12*
G36*
X167080142Y-86651174D02*
G01*
X167103803Y-86654684D01*
X167127007Y-86660496D01*
X167149529Y-86668554D01*
X167171153Y-86678782D01*
X167191670Y-86691079D01*
X167210883Y-86705329D01*
X167228607Y-86721393D01*
X167244671Y-86739117D01*
X167258921Y-86758330D01*
X167271218Y-86778847D01*
X167281446Y-86800471D01*
X167289504Y-86822993D01*
X167295316Y-86846197D01*
X167298826Y-86869858D01*
X167300000Y-86893750D01*
X167300000Y-87381250D01*
X167298826Y-87405142D01*
X167295316Y-87428803D01*
X167289504Y-87452007D01*
X167281446Y-87474529D01*
X167271218Y-87496153D01*
X167258921Y-87516670D01*
X167244671Y-87535883D01*
X167228607Y-87553607D01*
X167210883Y-87569671D01*
X167191670Y-87583921D01*
X167171153Y-87596218D01*
X167149529Y-87606446D01*
X167127007Y-87614504D01*
X167103803Y-87620316D01*
X167080142Y-87623826D01*
X167056250Y-87625000D01*
X166143750Y-87625000D01*
X166119858Y-87623826D01*
X166096197Y-87620316D01*
X166072993Y-87614504D01*
X166050471Y-87606446D01*
X166028847Y-87596218D01*
X166008330Y-87583921D01*
X165989117Y-87569671D01*
X165971393Y-87553607D01*
X165955329Y-87535883D01*
X165941079Y-87516670D01*
X165928782Y-87496153D01*
X165918554Y-87474529D01*
X165910496Y-87452007D01*
X165904684Y-87428803D01*
X165901174Y-87405142D01*
X165900000Y-87381250D01*
X165900000Y-86893750D01*
X165901174Y-86869858D01*
X165904684Y-86846197D01*
X165910496Y-86822993D01*
X165918554Y-86800471D01*
X165928782Y-86778847D01*
X165941079Y-86758330D01*
X165955329Y-86739117D01*
X165971393Y-86721393D01*
X165989117Y-86705329D01*
X166008330Y-86691079D01*
X166028847Y-86678782D01*
X166050471Y-86668554D01*
X166072993Y-86660496D01*
X166096197Y-86654684D01*
X166119858Y-86651174D01*
X166143750Y-86650000D01*
X167056250Y-86650000D01*
X167080142Y-86651174D01*
X167080142Y-86651174D01*
G37*
D14*
X166600000Y-87137500D03*
D12*
G36*
X167080142Y-84776174D02*
G01*
X167103803Y-84779684D01*
X167127007Y-84785496D01*
X167149529Y-84793554D01*
X167171153Y-84803782D01*
X167191670Y-84816079D01*
X167210883Y-84830329D01*
X167228607Y-84846393D01*
X167244671Y-84864117D01*
X167258921Y-84883330D01*
X167271218Y-84903847D01*
X167281446Y-84925471D01*
X167289504Y-84947993D01*
X167295316Y-84971197D01*
X167298826Y-84994858D01*
X167300000Y-85018750D01*
X167300000Y-85506250D01*
X167298826Y-85530142D01*
X167295316Y-85553803D01*
X167289504Y-85577007D01*
X167281446Y-85599529D01*
X167271218Y-85621153D01*
X167258921Y-85641670D01*
X167244671Y-85660883D01*
X167228607Y-85678607D01*
X167210883Y-85694671D01*
X167191670Y-85708921D01*
X167171153Y-85721218D01*
X167149529Y-85731446D01*
X167127007Y-85739504D01*
X167103803Y-85745316D01*
X167080142Y-85748826D01*
X167056250Y-85750000D01*
X166143750Y-85750000D01*
X166119858Y-85748826D01*
X166096197Y-85745316D01*
X166072993Y-85739504D01*
X166050471Y-85731446D01*
X166028847Y-85721218D01*
X166008330Y-85708921D01*
X165989117Y-85694671D01*
X165971393Y-85678607D01*
X165955329Y-85660883D01*
X165941079Y-85641670D01*
X165928782Y-85621153D01*
X165918554Y-85599529D01*
X165910496Y-85577007D01*
X165904684Y-85553803D01*
X165901174Y-85530142D01*
X165900000Y-85506250D01*
X165900000Y-85018750D01*
X165901174Y-84994858D01*
X165904684Y-84971197D01*
X165910496Y-84947993D01*
X165918554Y-84925471D01*
X165928782Y-84903847D01*
X165941079Y-84883330D01*
X165955329Y-84864117D01*
X165971393Y-84846393D01*
X165989117Y-84830329D01*
X166008330Y-84816079D01*
X166028847Y-84803782D01*
X166050471Y-84793554D01*
X166072993Y-84785496D01*
X166096197Y-84779684D01*
X166119858Y-84776174D01*
X166143750Y-84775000D01*
X167056250Y-84775000D01*
X167080142Y-84776174D01*
X167080142Y-84776174D01*
G37*
D14*
X166600000Y-85262500D03*
D12*
G36*
X163205142Y-91301174D02*
G01*
X163228803Y-91304684D01*
X163252007Y-91310496D01*
X163274529Y-91318554D01*
X163296153Y-91328782D01*
X163316670Y-91341079D01*
X163335883Y-91355329D01*
X163353607Y-91371393D01*
X163369671Y-91389117D01*
X163383921Y-91408330D01*
X163396218Y-91428847D01*
X163406446Y-91450471D01*
X163414504Y-91472993D01*
X163420316Y-91496197D01*
X163423826Y-91519858D01*
X163425000Y-91543750D01*
X163425000Y-92456250D01*
X163423826Y-92480142D01*
X163420316Y-92503803D01*
X163414504Y-92527007D01*
X163406446Y-92549529D01*
X163396218Y-92571153D01*
X163383921Y-92591670D01*
X163369671Y-92610883D01*
X163353607Y-92628607D01*
X163335883Y-92644671D01*
X163316670Y-92658921D01*
X163296153Y-92671218D01*
X163274529Y-92681446D01*
X163252007Y-92689504D01*
X163228803Y-92695316D01*
X163205142Y-92698826D01*
X163181250Y-92700000D01*
X162693750Y-92700000D01*
X162669858Y-92698826D01*
X162646197Y-92695316D01*
X162622993Y-92689504D01*
X162600471Y-92681446D01*
X162578847Y-92671218D01*
X162558330Y-92658921D01*
X162539117Y-92644671D01*
X162521393Y-92628607D01*
X162505329Y-92610883D01*
X162491079Y-92591670D01*
X162478782Y-92571153D01*
X162468554Y-92549529D01*
X162460496Y-92527007D01*
X162454684Y-92503803D01*
X162451174Y-92480142D01*
X162450000Y-92456250D01*
X162450000Y-91543750D01*
X162451174Y-91519858D01*
X162454684Y-91496197D01*
X162460496Y-91472993D01*
X162468554Y-91450471D01*
X162478782Y-91428847D01*
X162491079Y-91408330D01*
X162505329Y-91389117D01*
X162521393Y-91371393D01*
X162539117Y-91355329D01*
X162558330Y-91341079D01*
X162578847Y-91328782D01*
X162600471Y-91318554D01*
X162622993Y-91310496D01*
X162646197Y-91304684D01*
X162669858Y-91301174D01*
X162693750Y-91300000D01*
X163181250Y-91300000D01*
X163205142Y-91301174D01*
X163205142Y-91301174D01*
G37*
D14*
X162937500Y-92000000D03*
D12*
G36*
X161330142Y-91301174D02*
G01*
X161353803Y-91304684D01*
X161377007Y-91310496D01*
X161399529Y-91318554D01*
X161421153Y-91328782D01*
X161441670Y-91341079D01*
X161460883Y-91355329D01*
X161478607Y-91371393D01*
X161494671Y-91389117D01*
X161508921Y-91408330D01*
X161521218Y-91428847D01*
X161531446Y-91450471D01*
X161539504Y-91472993D01*
X161545316Y-91496197D01*
X161548826Y-91519858D01*
X161550000Y-91543750D01*
X161550000Y-92456250D01*
X161548826Y-92480142D01*
X161545316Y-92503803D01*
X161539504Y-92527007D01*
X161531446Y-92549529D01*
X161521218Y-92571153D01*
X161508921Y-92591670D01*
X161494671Y-92610883D01*
X161478607Y-92628607D01*
X161460883Y-92644671D01*
X161441670Y-92658921D01*
X161421153Y-92671218D01*
X161399529Y-92681446D01*
X161377007Y-92689504D01*
X161353803Y-92695316D01*
X161330142Y-92698826D01*
X161306250Y-92700000D01*
X160818750Y-92700000D01*
X160794858Y-92698826D01*
X160771197Y-92695316D01*
X160747993Y-92689504D01*
X160725471Y-92681446D01*
X160703847Y-92671218D01*
X160683330Y-92658921D01*
X160664117Y-92644671D01*
X160646393Y-92628607D01*
X160630329Y-92610883D01*
X160616079Y-92591670D01*
X160603782Y-92571153D01*
X160593554Y-92549529D01*
X160585496Y-92527007D01*
X160579684Y-92503803D01*
X160576174Y-92480142D01*
X160575000Y-92456250D01*
X160575000Y-91543750D01*
X160576174Y-91519858D01*
X160579684Y-91496197D01*
X160585496Y-91472993D01*
X160593554Y-91450471D01*
X160603782Y-91428847D01*
X160616079Y-91408330D01*
X160630329Y-91389117D01*
X160646393Y-91371393D01*
X160664117Y-91355329D01*
X160683330Y-91341079D01*
X160703847Y-91328782D01*
X160725471Y-91318554D01*
X160747993Y-91310496D01*
X160771197Y-91304684D01*
X160794858Y-91301174D01*
X160818750Y-91300000D01*
X161306250Y-91300000D01*
X161330142Y-91301174D01*
X161330142Y-91301174D01*
G37*
D14*
X161062500Y-92000000D03*
D12*
G36*
X167080142Y-80251174D02*
G01*
X167103803Y-80254684D01*
X167127007Y-80260496D01*
X167149529Y-80268554D01*
X167171153Y-80278782D01*
X167191670Y-80291079D01*
X167210883Y-80305329D01*
X167228607Y-80321393D01*
X167244671Y-80339117D01*
X167258921Y-80358330D01*
X167271218Y-80378847D01*
X167281446Y-80400471D01*
X167289504Y-80422993D01*
X167295316Y-80446197D01*
X167298826Y-80469858D01*
X167300000Y-80493750D01*
X167300000Y-80981250D01*
X167298826Y-81005142D01*
X167295316Y-81028803D01*
X167289504Y-81052007D01*
X167281446Y-81074529D01*
X167271218Y-81096153D01*
X167258921Y-81116670D01*
X167244671Y-81135883D01*
X167228607Y-81153607D01*
X167210883Y-81169671D01*
X167191670Y-81183921D01*
X167171153Y-81196218D01*
X167149529Y-81206446D01*
X167127007Y-81214504D01*
X167103803Y-81220316D01*
X167080142Y-81223826D01*
X167056250Y-81225000D01*
X166143750Y-81225000D01*
X166119858Y-81223826D01*
X166096197Y-81220316D01*
X166072993Y-81214504D01*
X166050471Y-81206446D01*
X166028847Y-81196218D01*
X166008330Y-81183921D01*
X165989117Y-81169671D01*
X165971393Y-81153607D01*
X165955329Y-81135883D01*
X165941079Y-81116670D01*
X165928782Y-81096153D01*
X165918554Y-81074529D01*
X165910496Y-81052007D01*
X165904684Y-81028803D01*
X165901174Y-81005142D01*
X165900000Y-80981250D01*
X165900000Y-80493750D01*
X165901174Y-80469858D01*
X165904684Y-80446197D01*
X165910496Y-80422993D01*
X165918554Y-80400471D01*
X165928782Y-80378847D01*
X165941079Y-80358330D01*
X165955329Y-80339117D01*
X165971393Y-80321393D01*
X165989117Y-80305329D01*
X166008330Y-80291079D01*
X166028847Y-80278782D01*
X166050471Y-80268554D01*
X166072993Y-80260496D01*
X166096197Y-80254684D01*
X166119858Y-80251174D01*
X166143750Y-80250000D01*
X167056250Y-80250000D01*
X167080142Y-80251174D01*
X167080142Y-80251174D01*
G37*
D14*
X166600000Y-80737500D03*
D12*
G36*
X167080142Y-78376174D02*
G01*
X167103803Y-78379684D01*
X167127007Y-78385496D01*
X167149529Y-78393554D01*
X167171153Y-78403782D01*
X167191670Y-78416079D01*
X167210883Y-78430329D01*
X167228607Y-78446393D01*
X167244671Y-78464117D01*
X167258921Y-78483330D01*
X167271218Y-78503847D01*
X167281446Y-78525471D01*
X167289504Y-78547993D01*
X167295316Y-78571197D01*
X167298826Y-78594858D01*
X167300000Y-78618750D01*
X167300000Y-79106250D01*
X167298826Y-79130142D01*
X167295316Y-79153803D01*
X167289504Y-79177007D01*
X167281446Y-79199529D01*
X167271218Y-79221153D01*
X167258921Y-79241670D01*
X167244671Y-79260883D01*
X167228607Y-79278607D01*
X167210883Y-79294671D01*
X167191670Y-79308921D01*
X167171153Y-79321218D01*
X167149529Y-79331446D01*
X167127007Y-79339504D01*
X167103803Y-79345316D01*
X167080142Y-79348826D01*
X167056250Y-79350000D01*
X166143750Y-79350000D01*
X166119858Y-79348826D01*
X166096197Y-79345316D01*
X166072993Y-79339504D01*
X166050471Y-79331446D01*
X166028847Y-79321218D01*
X166008330Y-79308921D01*
X165989117Y-79294671D01*
X165971393Y-79278607D01*
X165955329Y-79260883D01*
X165941079Y-79241670D01*
X165928782Y-79221153D01*
X165918554Y-79199529D01*
X165910496Y-79177007D01*
X165904684Y-79153803D01*
X165901174Y-79130142D01*
X165900000Y-79106250D01*
X165900000Y-78618750D01*
X165901174Y-78594858D01*
X165904684Y-78571197D01*
X165910496Y-78547993D01*
X165918554Y-78525471D01*
X165928782Y-78503847D01*
X165941079Y-78483330D01*
X165955329Y-78464117D01*
X165971393Y-78446393D01*
X165989117Y-78430329D01*
X166008330Y-78416079D01*
X166028847Y-78403782D01*
X166050471Y-78393554D01*
X166072993Y-78385496D01*
X166096197Y-78379684D01*
X166119858Y-78376174D01*
X166143750Y-78375000D01*
X167056250Y-78375000D01*
X167080142Y-78376174D01*
X167080142Y-78376174D01*
G37*
D14*
X166600000Y-78862500D03*
D15*
X122500000Y-106000000D03*
X124500000Y-106950000D03*
X124500000Y-105050000D03*
X122500000Y-102000000D03*
X124500000Y-102950000D03*
X124500000Y-101050000D03*
X122500000Y-98000000D03*
X124500000Y-98950000D03*
X124500000Y-97050000D03*
X122500000Y-94000000D03*
X124500000Y-94950000D03*
X124500000Y-93050000D03*
X122500000Y-90000000D03*
X124500000Y-90950000D03*
X124500000Y-89050000D03*
X124500000Y-85050000D03*
X124500000Y-86950000D03*
X122500000Y-86000000D03*
X124500000Y-81050000D03*
X124500000Y-82950000D03*
X122500000Y-82000000D03*
X124500000Y-77050000D03*
X124500000Y-78950000D03*
X122500000Y-78000000D03*
X124500000Y-73050000D03*
X124500000Y-74950000D03*
X122500000Y-74000000D03*
X124500000Y-69050000D03*
X124500000Y-70950000D03*
X122500000Y-70000000D03*
X122500000Y-66000000D03*
X124500000Y-66950000D03*
X124500000Y-65050000D03*
X122500000Y-62000000D03*
X124500000Y-62950000D03*
X124500000Y-61050000D03*
D12*
G36*
X132205142Y-108301174D02*
G01*
X132228803Y-108304684D01*
X132252007Y-108310496D01*
X132274529Y-108318554D01*
X132296153Y-108328782D01*
X132316670Y-108341079D01*
X132335883Y-108355329D01*
X132353607Y-108371393D01*
X132369671Y-108389117D01*
X132383921Y-108408330D01*
X132396218Y-108428847D01*
X132406446Y-108450471D01*
X132414504Y-108472993D01*
X132420316Y-108496197D01*
X132423826Y-108519858D01*
X132425000Y-108543750D01*
X132425000Y-109456250D01*
X132423826Y-109480142D01*
X132420316Y-109503803D01*
X132414504Y-109527007D01*
X132406446Y-109549529D01*
X132396218Y-109571153D01*
X132383921Y-109591670D01*
X132369671Y-109610883D01*
X132353607Y-109628607D01*
X132335883Y-109644671D01*
X132316670Y-109658921D01*
X132296153Y-109671218D01*
X132274529Y-109681446D01*
X132252007Y-109689504D01*
X132228803Y-109695316D01*
X132205142Y-109698826D01*
X132181250Y-109700000D01*
X131693750Y-109700000D01*
X131669858Y-109698826D01*
X131646197Y-109695316D01*
X131622993Y-109689504D01*
X131600471Y-109681446D01*
X131578847Y-109671218D01*
X131558330Y-109658921D01*
X131539117Y-109644671D01*
X131521393Y-109628607D01*
X131505329Y-109610883D01*
X131491079Y-109591670D01*
X131478782Y-109571153D01*
X131468554Y-109549529D01*
X131460496Y-109527007D01*
X131454684Y-109503803D01*
X131451174Y-109480142D01*
X131450000Y-109456250D01*
X131450000Y-108543750D01*
X131451174Y-108519858D01*
X131454684Y-108496197D01*
X131460496Y-108472993D01*
X131468554Y-108450471D01*
X131478782Y-108428847D01*
X131491079Y-108408330D01*
X131505329Y-108389117D01*
X131521393Y-108371393D01*
X131539117Y-108355329D01*
X131558330Y-108341079D01*
X131578847Y-108328782D01*
X131600471Y-108318554D01*
X131622993Y-108310496D01*
X131646197Y-108304684D01*
X131669858Y-108301174D01*
X131693750Y-108300000D01*
X132181250Y-108300000D01*
X132205142Y-108301174D01*
X132205142Y-108301174D01*
G37*
D14*
X131937500Y-109000000D03*
D12*
G36*
X130330142Y-108301174D02*
G01*
X130353803Y-108304684D01*
X130377007Y-108310496D01*
X130399529Y-108318554D01*
X130421153Y-108328782D01*
X130441670Y-108341079D01*
X130460883Y-108355329D01*
X130478607Y-108371393D01*
X130494671Y-108389117D01*
X130508921Y-108408330D01*
X130521218Y-108428847D01*
X130531446Y-108450471D01*
X130539504Y-108472993D01*
X130545316Y-108496197D01*
X130548826Y-108519858D01*
X130550000Y-108543750D01*
X130550000Y-109456250D01*
X130548826Y-109480142D01*
X130545316Y-109503803D01*
X130539504Y-109527007D01*
X130531446Y-109549529D01*
X130521218Y-109571153D01*
X130508921Y-109591670D01*
X130494671Y-109610883D01*
X130478607Y-109628607D01*
X130460883Y-109644671D01*
X130441670Y-109658921D01*
X130421153Y-109671218D01*
X130399529Y-109681446D01*
X130377007Y-109689504D01*
X130353803Y-109695316D01*
X130330142Y-109698826D01*
X130306250Y-109700000D01*
X129818750Y-109700000D01*
X129794858Y-109698826D01*
X129771197Y-109695316D01*
X129747993Y-109689504D01*
X129725471Y-109681446D01*
X129703847Y-109671218D01*
X129683330Y-109658921D01*
X129664117Y-109644671D01*
X129646393Y-109628607D01*
X129630329Y-109610883D01*
X129616079Y-109591670D01*
X129603782Y-109571153D01*
X129593554Y-109549529D01*
X129585496Y-109527007D01*
X129579684Y-109503803D01*
X129576174Y-109480142D01*
X129575000Y-109456250D01*
X129575000Y-108543750D01*
X129576174Y-108519858D01*
X129579684Y-108496197D01*
X129585496Y-108472993D01*
X129593554Y-108450471D01*
X129603782Y-108428847D01*
X129616079Y-108408330D01*
X129630329Y-108389117D01*
X129646393Y-108371393D01*
X129664117Y-108355329D01*
X129683330Y-108341079D01*
X129703847Y-108328782D01*
X129725471Y-108318554D01*
X129747993Y-108310496D01*
X129771197Y-108304684D01*
X129794858Y-108301174D01*
X129818750Y-108300000D01*
X130306250Y-108300000D01*
X130330142Y-108301174D01*
X130330142Y-108301174D01*
G37*
D14*
X130062500Y-109000000D03*
D12*
G36*
X130330142Y-104301174D02*
G01*
X130353803Y-104304684D01*
X130377007Y-104310496D01*
X130399529Y-104318554D01*
X130421153Y-104328782D01*
X130441670Y-104341079D01*
X130460883Y-104355329D01*
X130478607Y-104371393D01*
X130494671Y-104389117D01*
X130508921Y-104408330D01*
X130521218Y-104428847D01*
X130531446Y-104450471D01*
X130539504Y-104472993D01*
X130545316Y-104496197D01*
X130548826Y-104519858D01*
X130550000Y-104543750D01*
X130550000Y-105456250D01*
X130548826Y-105480142D01*
X130545316Y-105503803D01*
X130539504Y-105527007D01*
X130531446Y-105549529D01*
X130521218Y-105571153D01*
X130508921Y-105591670D01*
X130494671Y-105610883D01*
X130478607Y-105628607D01*
X130460883Y-105644671D01*
X130441670Y-105658921D01*
X130421153Y-105671218D01*
X130399529Y-105681446D01*
X130377007Y-105689504D01*
X130353803Y-105695316D01*
X130330142Y-105698826D01*
X130306250Y-105700000D01*
X129818750Y-105700000D01*
X129794858Y-105698826D01*
X129771197Y-105695316D01*
X129747993Y-105689504D01*
X129725471Y-105681446D01*
X129703847Y-105671218D01*
X129683330Y-105658921D01*
X129664117Y-105644671D01*
X129646393Y-105628607D01*
X129630329Y-105610883D01*
X129616079Y-105591670D01*
X129603782Y-105571153D01*
X129593554Y-105549529D01*
X129585496Y-105527007D01*
X129579684Y-105503803D01*
X129576174Y-105480142D01*
X129575000Y-105456250D01*
X129575000Y-104543750D01*
X129576174Y-104519858D01*
X129579684Y-104496197D01*
X129585496Y-104472993D01*
X129593554Y-104450471D01*
X129603782Y-104428847D01*
X129616079Y-104408330D01*
X129630329Y-104389117D01*
X129646393Y-104371393D01*
X129664117Y-104355329D01*
X129683330Y-104341079D01*
X129703847Y-104328782D01*
X129725471Y-104318554D01*
X129747993Y-104310496D01*
X129771197Y-104304684D01*
X129794858Y-104301174D01*
X129818750Y-104300000D01*
X130306250Y-104300000D01*
X130330142Y-104301174D01*
X130330142Y-104301174D01*
G37*
D14*
X130062500Y-105000000D03*
D12*
G36*
X132205142Y-104301174D02*
G01*
X132228803Y-104304684D01*
X132252007Y-104310496D01*
X132274529Y-104318554D01*
X132296153Y-104328782D01*
X132316670Y-104341079D01*
X132335883Y-104355329D01*
X132353607Y-104371393D01*
X132369671Y-104389117D01*
X132383921Y-104408330D01*
X132396218Y-104428847D01*
X132406446Y-104450471D01*
X132414504Y-104472993D01*
X132420316Y-104496197D01*
X132423826Y-104519858D01*
X132425000Y-104543750D01*
X132425000Y-105456250D01*
X132423826Y-105480142D01*
X132420316Y-105503803D01*
X132414504Y-105527007D01*
X132406446Y-105549529D01*
X132396218Y-105571153D01*
X132383921Y-105591670D01*
X132369671Y-105610883D01*
X132353607Y-105628607D01*
X132335883Y-105644671D01*
X132316670Y-105658921D01*
X132296153Y-105671218D01*
X132274529Y-105681446D01*
X132252007Y-105689504D01*
X132228803Y-105695316D01*
X132205142Y-105698826D01*
X132181250Y-105700000D01*
X131693750Y-105700000D01*
X131669858Y-105698826D01*
X131646197Y-105695316D01*
X131622993Y-105689504D01*
X131600471Y-105681446D01*
X131578847Y-105671218D01*
X131558330Y-105658921D01*
X131539117Y-105644671D01*
X131521393Y-105628607D01*
X131505329Y-105610883D01*
X131491079Y-105591670D01*
X131478782Y-105571153D01*
X131468554Y-105549529D01*
X131460496Y-105527007D01*
X131454684Y-105503803D01*
X131451174Y-105480142D01*
X131450000Y-105456250D01*
X131450000Y-104543750D01*
X131451174Y-104519858D01*
X131454684Y-104496197D01*
X131460496Y-104472993D01*
X131468554Y-104450471D01*
X131478782Y-104428847D01*
X131491079Y-104408330D01*
X131505329Y-104389117D01*
X131521393Y-104371393D01*
X131539117Y-104355329D01*
X131558330Y-104341079D01*
X131578847Y-104328782D01*
X131600471Y-104318554D01*
X131622993Y-104310496D01*
X131646197Y-104304684D01*
X131669858Y-104301174D01*
X131693750Y-104300000D01*
X132181250Y-104300000D01*
X132205142Y-104301174D01*
X132205142Y-104301174D01*
G37*
D14*
X131937500Y-105000000D03*
D12*
G36*
X132205142Y-100301174D02*
G01*
X132228803Y-100304684D01*
X132252007Y-100310496D01*
X132274529Y-100318554D01*
X132296153Y-100328782D01*
X132316670Y-100341079D01*
X132335883Y-100355329D01*
X132353607Y-100371393D01*
X132369671Y-100389117D01*
X132383921Y-100408330D01*
X132396218Y-100428847D01*
X132406446Y-100450471D01*
X132414504Y-100472993D01*
X132420316Y-100496197D01*
X132423826Y-100519858D01*
X132425000Y-100543750D01*
X132425000Y-101456250D01*
X132423826Y-101480142D01*
X132420316Y-101503803D01*
X132414504Y-101527007D01*
X132406446Y-101549529D01*
X132396218Y-101571153D01*
X132383921Y-101591670D01*
X132369671Y-101610883D01*
X132353607Y-101628607D01*
X132335883Y-101644671D01*
X132316670Y-101658921D01*
X132296153Y-101671218D01*
X132274529Y-101681446D01*
X132252007Y-101689504D01*
X132228803Y-101695316D01*
X132205142Y-101698826D01*
X132181250Y-101700000D01*
X131693750Y-101700000D01*
X131669858Y-101698826D01*
X131646197Y-101695316D01*
X131622993Y-101689504D01*
X131600471Y-101681446D01*
X131578847Y-101671218D01*
X131558330Y-101658921D01*
X131539117Y-101644671D01*
X131521393Y-101628607D01*
X131505329Y-101610883D01*
X131491079Y-101591670D01*
X131478782Y-101571153D01*
X131468554Y-101549529D01*
X131460496Y-101527007D01*
X131454684Y-101503803D01*
X131451174Y-101480142D01*
X131450000Y-101456250D01*
X131450000Y-100543750D01*
X131451174Y-100519858D01*
X131454684Y-100496197D01*
X131460496Y-100472993D01*
X131468554Y-100450471D01*
X131478782Y-100428847D01*
X131491079Y-100408330D01*
X131505329Y-100389117D01*
X131521393Y-100371393D01*
X131539117Y-100355329D01*
X131558330Y-100341079D01*
X131578847Y-100328782D01*
X131600471Y-100318554D01*
X131622993Y-100310496D01*
X131646197Y-100304684D01*
X131669858Y-100301174D01*
X131693750Y-100300000D01*
X132181250Y-100300000D01*
X132205142Y-100301174D01*
X132205142Y-100301174D01*
G37*
D14*
X131937500Y-101000000D03*
D12*
G36*
X130330142Y-100301174D02*
G01*
X130353803Y-100304684D01*
X130377007Y-100310496D01*
X130399529Y-100318554D01*
X130421153Y-100328782D01*
X130441670Y-100341079D01*
X130460883Y-100355329D01*
X130478607Y-100371393D01*
X130494671Y-100389117D01*
X130508921Y-100408330D01*
X130521218Y-100428847D01*
X130531446Y-100450471D01*
X130539504Y-100472993D01*
X130545316Y-100496197D01*
X130548826Y-100519858D01*
X130550000Y-100543750D01*
X130550000Y-101456250D01*
X130548826Y-101480142D01*
X130545316Y-101503803D01*
X130539504Y-101527007D01*
X130531446Y-101549529D01*
X130521218Y-101571153D01*
X130508921Y-101591670D01*
X130494671Y-101610883D01*
X130478607Y-101628607D01*
X130460883Y-101644671D01*
X130441670Y-101658921D01*
X130421153Y-101671218D01*
X130399529Y-101681446D01*
X130377007Y-101689504D01*
X130353803Y-101695316D01*
X130330142Y-101698826D01*
X130306250Y-101700000D01*
X129818750Y-101700000D01*
X129794858Y-101698826D01*
X129771197Y-101695316D01*
X129747993Y-101689504D01*
X129725471Y-101681446D01*
X129703847Y-101671218D01*
X129683330Y-101658921D01*
X129664117Y-101644671D01*
X129646393Y-101628607D01*
X129630329Y-101610883D01*
X129616079Y-101591670D01*
X129603782Y-101571153D01*
X129593554Y-101549529D01*
X129585496Y-101527007D01*
X129579684Y-101503803D01*
X129576174Y-101480142D01*
X129575000Y-101456250D01*
X129575000Y-100543750D01*
X129576174Y-100519858D01*
X129579684Y-100496197D01*
X129585496Y-100472993D01*
X129593554Y-100450471D01*
X129603782Y-100428847D01*
X129616079Y-100408330D01*
X129630329Y-100389117D01*
X129646393Y-100371393D01*
X129664117Y-100355329D01*
X129683330Y-100341079D01*
X129703847Y-100328782D01*
X129725471Y-100318554D01*
X129747993Y-100310496D01*
X129771197Y-100304684D01*
X129794858Y-100301174D01*
X129818750Y-100300000D01*
X130306250Y-100300000D01*
X130330142Y-100301174D01*
X130330142Y-100301174D01*
G37*
D14*
X130062500Y-101000000D03*
D12*
G36*
X130330142Y-96301174D02*
G01*
X130353803Y-96304684D01*
X130377007Y-96310496D01*
X130399529Y-96318554D01*
X130421153Y-96328782D01*
X130441670Y-96341079D01*
X130460883Y-96355329D01*
X130478607Y-96371393D01*
X130494671Y-96389117D01*
X130508921Y-96408330D01*
X130521218Y-96428847D01*
X130531446Y-96450471D01*
X130539504Y-96472993D01*
X130545316Y-96496197D01*
X130548826Y-96519858D01*
X130550000Y-96543750D01*
X130550000Y-97456250D01*
X130548826Y-97480142D01*
X130545316Y-97503803D01*
X130539504Y-97527007D01*
X130531446Y-97549529D01*
X130521218Y-97571153D01*
X130508921Y-97591670D01*
X130494671Y-97610883D01*
X130478607Y-97628607D01*
X130460883Y-97644671D01*
X130441670Y-97658921D01*
X130421153Y-97671218D01*
X130399529Y-97681446D01*
X130377007Y-97689504D01*
X130353803Y-97695316D01*
X130330142Y-97698826D01*
X130306250Y-97700000D01*
X129818750Y-97700000D01*
X129794858Y-97698826D01*
X129771197Y-97695316D01*
X129747993Y-97689504D01*
X129725471Y-97681446D01*
X129703847Y-97671218D01*
X129683330Y-97658921D01*
X129664117Y-97644671D01*
X129646393Y-97628607D01*
X129630329Y-97610883D01*
X129616079Y-97591670D01*
X129603782Y-97571153D01*
X129593554Y-97549529D01*
X129585496Y-97527007D01*
X129579684Y-97503803D01*
X129576174Y-97480142D01*
X129575000Y-97456250D01*
X129575000Y-96543750D01*
X129576174Y-96519858D01*
X129579684Y-96496197D01*
X129585496Y-96472993D01*
X129593554Y-96450471D01*
X129603782Y-96428847D01*
X129616079Y-96408330D01*
X129630329Y-96389117D01*
X129646393Y-96371393D01*
X129664117Y-96355329D01*
X129683330Y-96341079D01*
X129703847Y-96328782D01*
X129725471Y-96318554D01*
X129747993Y-96310496D01*
X129771197Y-96304684D01*
X129794858Y-96301174D01*
X129818750Y-96300000D01*
X130306250Y-96300000D01*
X130330142Y-96301174D01*
X130330142Y-96301174D01*
G37*
D14*
X130062500Y-97000000D03*
D12*
G36*
X132205142Y-96301174D02*
G01*
X132228803Y-96304684D01*
X132252007Y-96310496D01*
X132274529Y-96318554D01*
X132296153Y-96328782D01*
X132316670Y-96341079D01*
X132335883Y-96355329D01*
X132353607Y-96371393D01*
X132369671Y-96389117D01*
X132383921Y-96408330D01*
X132396218Y-96428847D01*
X132406446Y-96450471D01*
X132414504Y-96472993D01*
X132420316Y-96496197D01*
X132423826Y-96519858D01*
X132425000Y-96543750D01*
X132425000Y-97456250D01*
X132423826Y-97480142D01*
X132420316Y-97503803D01*
X132414504Y-97527007D01*
X132406446Y-97549529D01*
X132396218Y-97571153D01*
X132383921Y-97591670D01*
X132369671Y-97610883D01*
X132353607Y-97628607D01*
X132335883Y-97644671D01*
X132316670Y-97658921D01*
X132296153Y-97671218D01*
X132274529Y-97681446D01*
X132252007Y-97689504D01*
X132228803Y-97695316D01*
X132205142Y-97698826D01*
X132181250Y-97700000D01*
X131693750Y-97700000D01*
X131669858Y-97698826D01*
X131646197Y-97695316D01*
X131622993Y-97689504D01*
X131600471Y-97681446D01*
X131578847Y-97671218D01*
X131558330Y-97658921D01*
X131539117Y-97644671D01*
X131521393Y-97628607D01*
X131505329Y-97610883D01*
X131491079Y-97591670D01*
X131478782Y-97571153D01*
X131468554Y-97549529D01*
X131460496Y-97527007D01*
X131454684Y-97503803D01*
X131451174Y-97480142D01*
X131450000Y-97456250D01*
X131450000Y-96543750D01*
X131451174Y-96519858D01*
X131454684Y-96496197D01*
X131460496Y-96472993D01*
X131468554Y-96450471D01*
X131478782Y-96428847D01*
X131491079Y-96408330D01*
X131505329Y-96389117D01*
X131521393Y-96371393D01*
X131539117Y-96355329D01*
X131558330Y-96341079D01*
X131578847Y-96328782D01*
X131600471Y-96318554D01*
X131622993Y-96310496D01*
X131646197Y-96304684D01*
X131669858Y-96301174D01*
X131693750Y-96300000D01*
X132181250Y-96300000D01*
X132205142Y-96301174D01*
X132205142Y-96301174D01*
G37*
D14*
X131937500Y-97000000D03*
D12*
G36*
X132205142Y-92301174D02*
G01*
X132228803Y-92304684D01*
X132252007Y-92310496D01*
X132274529Y-92318554D01*
X132296153Y-92328782D01*
X132316670Y-92341079D01*
X132335883Y-92355329D01*
X132353607Y-92371393D01*
X132369671Y-92389117D01*
X132383921Y-92408330D01*
X132396218Y-92428847D01*
X132406446Y-92450471D01*
X132414504Y-92472993D01*
X132420316Y-92496197D01*
X132423826Y-92519858D01*
X132425000Y-92543750D01*
X132425000Y-93456250D01*
X132423826Y-93480142D01*
X132420316Y-93503803D01*
X132414504Y-93527007D01*
X132406446Y-93549529D01*
X132396218Y-93571153D01*
X132383921Y-93591670D01*
X132369671Y-93610883D01*
X132353607Y-93628607D01*
X132335883Y-93644671D01*
X132316670Y-93658921D01*
X132296153Y-93671218D01*
X132274529Y-93681446D01*
X132252007Y-93689504D01*
X132228803Y-93695316D01*
X132205142Y-93698826D01*
X132181250Y-93700000D01*
X131693750Y-93700000D01*
X131669858Y-93698826D01*
X131646197Y-93695316D01*
X131622993Y-93689504D01*
X131600471Y-93681446D01*
X131578847Y-93671218D01*
X131558330Y-93658921D01*
X131539117Y-93644671D01*
X131521393Y-93628607D01*
X131505329Y-93610883D01*
X131491079Y-93591670D01*
X131478782Y-93571153D01*
X131468554Y-93549529D01*
X131460496Y-93527007D01*
X131454684Y-93503803D01*
X131451174Y-93480142D01*
X131450000Y-93456250D01*
X131450000Y-92543750D01*
X131451174Y-92519858D01*
X131454684Y-92496197D01*
X131460496Y-92472993D01*
X131468554Y-92450471D01*
X131478782Y-92428847D01*
X131491079Y-92408330D01*
X131505329Y-92389117D01*
X131521393Y-92371393D01*
X131539117Y-92355329D01*
X131558330Y-92341079D01*
X131578847Y-92328782D01*
X131600471Y-92318554D01*
X131622993Y-92310496D01*
X131646197Y-92304684D01*
X131669858Y-92301174D01*
X131693750Y-92300000D01*
X132181250Y-92300000D01*
X132205142Y-92301174D01*
X132205142Y-92301174D01*
G37*
D14*
X131937500Y-93000000D03*
D12*
G36*
X130330142Y-92301174D02*
G01*
X130353803Y-92304684D01*
X130377007Y-92310496D01*
X130399529Y-92318554D01*
X130421153Y-92328782D01*
X130441670Y-92341079D01*
X130460883Y-92355329D01*
X130478607Y-92371393D01*
X130494671Y-92389117D01*
X130508921Y-92408330D01*
X130521218Y-92428847D01*
X130531446Y-92450471D01*
X130539504Y-92472993D01*
X130545316Y-92496197D01*
X130548826Y-92519858D01*
X130550000Y-92543750D01*
X130550000Y-93456250D01*
X130548826Y-93480142D01*
X130545316Y-93503803D01*
X130539504Y-93527007D01*
X130531446Y-93549529D01*
X130521218Y-93571153D01*
X130508921Y-93591670D01*
X130494671Y-93610883D01*
X130478607Y-93628607D01*
X130460883Y-93644671D01*
X130441670Y-93658921D01*
X130421153Y-93671218D01*
X130399529Y-93681446D01*
X130377007Y-93689504D01*
X130353803Y-93695316D01*
X130330142Y-93698826D01*
X130306250Y-93700000D01*
X129818750Y-93700000D01*
X129794858Y-93698826D01*
X129771197Y-93695316D01*
X129747993Y-93689504D01*
X129725471Y-93681446D01*
X129703847Y-93671218D01*
X129683330Y-93658921D01*
X129664117Y-93644671D01*
X129646393Y-93628607D01*
X129630329Y-93610883D01*
X129616079Y-93591670D01*
X129603782Y-93571153D01*
X129593554Y-93549529D01*
X129585496Y-93527007D01*
X129579684Y-93503803D01*
X129576174Y-93480142D01*
X129575000Y-93456250D01*
X129575000Y-92543750D01*
X129576174Y-92519858D01*
X129579684Y-92496197D01*
X129585496Y-92472993D01*
X129593554Y-92450471D01*
X129603782Y-92428847D01*
X129616079Y-92408330D01*
X129630329Y-92389117D01*
X129646393Y-92371393D01*
X129664117Y-92355329D01*
X129683330Y-92341079D01*
X129703847Y-92328782D01*
X129725471Y-92318554D01*
X129747993Y-92310496D01*
X129771197Y-92304684D01*
X129794858Y-92301174D01*
X129818750Y-92300000D01*
X130306250Y-92300000D01*
X130330142Y-92301174D01*
X130330142Y-92301174D01*
G37*
D14*
X130062500Y-93000000D03*
D12*
G36*
X152730142Y-88451174D02*
G01*
X152753803Y-88454684D01*
X152777007Y-88460496D01*
X152799529Y-88468554D01*
X152821153Y-88478782D01*
X152841670Y-88491079D01*
X152860883Y-88505329D01*
X152878607Y-88521393D01*
X152894671Y-88539117D01*
X152908921Y-88558330D01*
X152921218Y-88578847D01*
X152931446Y-88600471D01*
X152939504Y-88622993D01*
X152945316Y-88646197D01*
X152948826Y-88669858D01*
X152950000Y-88693750D01*
X152950000Y-89181250D01*
X152948826Y-89205142D01*
X152945316Y-89228803D01*
X152939504Y-89252007D01*
X152931446Y-89274529D01*
X152921218Y-89296153D01*
X152908921Y-89316670D01*
X152894671Y-89335883D01*
X152878607Y-89353607D01*
X152860883Y-89369671D01*
X152841670Y-89383921D01*
X152821153Y-89396218D01*
X152799529Y-89406446D01*
X152777007Y-89414504D01*
X152753803Y-89420316D01*
X152730142Y-89423826D01*
X152706250Y-89425000D01*
X151793750Y-89425000D01*
X151769858Y-89423826D01*
X151746197Y-89420316D01*
X151722993Y-89414504D01*
X151700471Y-89406446D01*
X151678847Y-89396218D01*
X151658330Y-89383921D01*
X151639117Y-89369671D01*
X151621393Y-89353607D01*
X151605329Y-89335883D01*
X151591079Y-89316670D01*
X151578782Y-89296153D01*
X151568554Y-89274529D01*
X151560496Y-89252007D01*
X151554684Y-89228803D01*
X151551174Y-89205142D01*
X151550000Y-89181250D01*
X151550000Y-88693750D01*
X151551174Y-88669858D01*
X151554684Y-88646197D01*
X151560496Y-88622993D01*
X151568554Y-88600471D01*
X151578782Y-88578847D01*
X151591079Y-88558330D01*
X151605329Y-88539117D01*
X151621393Y-88521393D01*
X151639117Y-88505329D01*
X151658330Y-88491079D01*
X151678847Y-88478782D01*
X151700471Y-88468554D01*
X151722993Y-88460496D01*
X151746197Y-88454684D01*
X151769858Y-88451174D01*
X151793750Y-88450000D01*
X152706250Y-88450000D01*
X152730142Y-88451174D01*
X152730142Y-88451174D01*
G37*
D14*
X152250000Y-88937500D03*
D12*
G36*
X152730142Y-86576174D02*
G01*
X152753803Y-86579684D01*
X152777007Y-86585496D01*
X152799529Y-86593554D01*
X152821153Y-86603782D01*
X152841670Y-86616079D01*
X152860883Y-86630329D01*
X152878607Y-86646393D01*
X152894671Y-86664117D01*
X152908921Y-86683330D01*
X152921218Y-86703847D01*
X152931446Y-86725471D01*
X152939504Y-86747993D01*
X152945316Y-86771197D01*
X152948826Y-86794858D01*
X152950000Y-86818750D01*
X152950000Y-87306250D01*
X152948826Y-87330142D01*
X152945316Y-87353803D01*
X152939504Y-87377007D01*
X152931446Y-87399529D01*
X152921218Y-87421153D01*
X152908921Y-87441670D01*
X152894671Y-87460883D01*
X152878607Y-87478607D01*
X152860883Y-87494671D01*
X152841670Y-87508921D01*
X152821153Y-87521218D01*
X152799529Y-87531446D01*
X152777007Y-87539504D01*
X152753803Y-87545316D01*
X152730142Y-87548826D01*
X152706250Y-87550000D01*
X151793750Y-87550000D01*
X151769858Y-87548826D01*
X151746197Y-87545316D01*
X151722993Y-87539504D01*
X151700471Y-87531446D01*
X151678847Y-87521218D01*
X151658330Y-87508921D01*
X151639117Y-87494671D01*
X151621393Y-87478607D01*
X151605329Y-87460883D01*
X151591079Y-87441670D01*
X151578782Y-87421153D01*
X151568554Y-87399529D01*
X151560496Y-87377007D01*
X151554684Y-87353803D01*
X151551174Y-87330142D01*
X151550000Y-87306250D01*
X151550000Y-86818750D01*
X151551174Y-86794858D01*
X151554684Y-86771197D01*
X151560496Y-86747993D01*
X151568554Y-86725471D01*
X151578782Y-86703847D01*
X151591079Y-86683330D01*
X151605329Y-86664117D01*
X151621393Y-86646393D01*
X151639117Y-86630329D01*
X151658330Y-86616079D01*
X151678847Y-86603782D01*
X151700471Y-86593554D01*
X151722993Y-86585496D01*
X151746197Y-86579684D01*
X151769858Y-86576174D01*
X151793750Y-86575000D01*
X152706250Y-86575000D01*
X152730142Y-86576174D01*
X152730142Y-86576174D01*
G37*
D14*
X152250000Y-87062500D03*
D12*
G36*
X130330142Y-88301174D02*
G01*
X130353803Y-88304684D01*
X130377007Y-88310496D01*
X130399529Y-88318554D01*
X130421153Y-88328782D01*
X130441670Y-88341079D01*
X130460883Y-88355329D01*
X130478607Y-88371393D01*
X130494671Y-88389117D01*
X130508921Y-88408330D01*
X130521218Y-88428847D01*
X130531446Y-88450471D01*
X130539504Y-88472993D01*
X130545316Y-88496197D01*
X130548826Y-88519858D01*
X130550000Y-88543750D01*
X130550000Y-89456250D01*
X130548826Y-89480142D01*
X130545316Y-89503803D01*
X130539504Y-89527007D01*
X130531446Y-89549529D01*
X130521218Y-89571153D01*
X130508921Y-89591670D01*
X130494671Y-89610883D01*
X130478607Y-89628607D01*
X130460883Y-89644671D01*
X130441670Y-89658921D01*
X130421153Y-89671218D01*
X130399529Y-89681446D01*
X130377007Y-89689504D01*
X130353803Y-89695316D01*
X130330142Y-89698826D01*
X130306250Y-89700000D01*
X129818750Y-89700000D01*
X129794858Y-89698826D01*
X129771197Y-89695316D01*
X129747993Y-89689504D01*
X129725471Y-89681446D01*
X129703847Y-89671218D01*
X129683330Y-89658921D01*
X129664117Y-89644671D01*
X129646393Y-89628607D01*
X129630329Y-89610883D01*
X129616079Y-89591670D01*
X129603782Y-89571153D01*
X129593554Y-89549529D01*
X129585496Y-89527007D01*
X129579684Y-89503803D01*
X129576174Y-89480142D01*
X129575000Y-89456250D01*
X129575000Y-88543750D01*
X129576174Y-88519858D01*
X129579684Y-88496197D01*
X129585496Y-88472993D01*
X129593554Y-88450471D01*
X129603782Y-88428847D01*
X129616079Y-88408330D01*
X129630329Y-88389117D01*
X129646393Y-88371393D01*
X129664117Y-88355329D01*
X129683330Y-88341079D01*
X129703847Y-88328782D01*
X129725471Y-88318554D01*
X129747993Y-88310496D01*
X129771197Y-88304684D01*
X129794858Y-88301174D01*
X129818750Y-88300000D01*
X130306250Y-88300000D01*
X130330142Y-88301174D01*
X130330142Y-88301174D01*
G37*
D14*
X130062500Y-89000000D03*
D12*
G36*
X132205142Y-88301174D02*
G01*
X132228803Y-88304684D01*
X132252007Y-88310496D01*
X132274529Y-88318554D01*
X132296153Y-88328782D01*
X132316670Y-88341079D01*
X132335883Y-88355329D01*
X132353607Y-88371393D01*
X132369671Y-88389117D01*
X132383921Y-88408330D01*
X132396218Y-88428847D01*
X132406446Y-88450471D01*
X132414504Y-88472993D01*
X132420316Y-88496197D01*
X132423826Y-88519858D01*
X132425000Y-88543750D01*
X132425000Y-89456250D01*
X132423826Y-89480142D01*
X132420316Y-89503803D01*
X132414504Y-89527007D01*
X132406446Y-89549529D01*
X132396218Y-89571153D01*
X132383921Y-89591670D01*
X132369671Y-89610883D01*
X132353607Y-89628607D01*
X132335883Y-89644671D01*
X132316670Y-89658921D01*
X132296153Y-89671218D01*
X132274529Y-89681446D01*
X132252007Y-89689504D01*
X132228803Y-89695316D01*
X132205142Y-89698826D01*
X132181250Y-89700000D01*
X131693750Y-89700000D01*
X131669858Y-89698826D01*
X131646197Y-89695316D01*
X131622993Y-89689504D01*
X131600471Y-89681446D01*
X131578847Y-89671218D01*
X131558330Y-89658921D01*
X131539117Y-89644671D01*
X131521393Y-89628607D01*
X131505329Y-89610883D01*
X131491079Y-89591670D01*
X131478782Y-89571153D01*
X131468554Y-89549529D01*
X131460496Y-89527007D01*
X131454684Y-89503803D01*
X131451174Y-89480142D01*
X131450000Y-89456250D01*
X131450000Y-88543750D01*
X131451174Y-88519858D01*
X131454684Y-88496197D01*
X131460496Y-88472993D01*
X131468554Y-88450471D01*
X131478782Y-88428847D01*
X131491079Y-88408330D01*
X131505329Y-88389117D01*
X131521393Y-88371393D01*
X131539117Y-88355329D01*
X131558330Y-88341079D01*
X131578847Y-88328782D01*
X131600471Y-88318554D01*
X131622993Y-88310496D01*
X131646197Y-88304684D01*
X131669858Y-88301174D01*
X131693750Y-88300000D01*
X132181250Y-88300000D01*
X132205142Y-88301174D01*
X132205142Y-88301174D01*
G37*
D14*
X131937500Y-89000000D03*
D12*
G36*
X132205142Y-84301174D02*
G01*
X132228803Y-84304684D01*
X132252007Y-84310496D01*
X132274529Y-84318554D01*
X132296153Y-84328782D01*
X132316670Y-84341079D01*
X132335883Y-84355329D01*
X132353607Y-84371393D01*
X132369671Y-84389117D01*
X132383921Y-84408330D01*
X132396218Y-84428847D01*
X132406446Y-84450471D01*
X132414504Y-84472993D01*
X132420316Y-84496197D01*
X132423826Y-84519858D01*
X132425000Y-84543750D01*
X132425000Y-85456250D01*
X132423826Y-85480142D01*
X132420316Y-85503803D01*
X132414504Y-85527007D01*
X132406446Y-85549529D01*
X132396218Y-85571153D01*
X132383921Y-85591670D01*
X132369671Y-85610883D01*
X132353607Y-85628607D01*
X132335883Y-85644671D01*
X132316670Y-85658921D01*
X132296153Y-85671218D01*
X132274529Y-85681446D01*
X132252007Y-85689504D01*
X132228803Y-85695316D01*
X132205142Y-85698826D01*
X132181250Y-85700000D01*
X131693750Y-85700000D01*
X131669858Y-85698826D01*
X131646197Y-85695316D01*
X131622993Y-85689504D01*
X131600471Y-85681446D01*
X131578847Y-85671218D01*
X131558330Y-85658921D01*
X131539117Y-85644671D01*
X131521393Y-85628607D01*
X131505329Y-85610883D01*
X131491079Y-85591670D01*
X131478782Y-85571153D01*
X131468554Y-85549529D01*
X131460496Y-85527007D01*
X131454684Y-85503803D01*
X131451174Y-85480142D01*
X131450000Y-85456250D01*
X131450000Y-84543750D01*
X131451174Y-84519858D01*
X131454684Y-84496197D01*
X131460496Y-84472993D01*
X131468554Y-84450471D01*
X131478782Y-84428847D01*
X131491079Y-84408330D01*
X131505329Y-84389117D01*
X131521393Y-84371393D01*
X131539117Y-84355329D01*
X131558330Y-84341079D01*
X131578847Y-84328782D01*
X131600471Y-84318554D01*
X131622993Y-84310496D01*
X131646197Y-84304684D01*
X131669858Y-84301174D01*
X131693750Y-84300000D01*
X132181250Y-84300000D01*
X132205142Y-84301174D01*
X132205142Y-84301174D01*
G37*
D14*
X131937500Y-85000000D03*
D12*
G36*
X130330142Y-84301174D02*
G01*
X130353803Y-84304684D01*
X130377007Y-84310496D01*
X130399529Y-84318554D01*
X130421153Y-84328782D01*
X130441670Y-84341079D01*
X130460883Y-84355329D01*
X130478607Y-84371393D01*
X130494671Y-84389117D01*
X130508921Y-84408330D01*
X130521218Y-84428847D01*
X130531446Y-84450471D01*
X130539504Y-84472993D01*
X130545316Y-84496197D01*
X130548826Y-84519858D01*
X130550000Y-84543750D01*
X130550000Y-85456250D01*
X130548826Y-85480142D01*
X130545316Y-85503803D01*
X130539504Y-85527007D01*
X130531446Y-85549529D01*
X130521218Y-85571153D01*
X130508921Y-85591670D01*
X130494671Y-85610883D01*
X130478607Y-85628607D01*
X130460883Y-85644671D01*
X130441670Y-85658921D01*
X130421153Y-85671218D01*
X130399529Y-85681446D01*
X130377007Y-85689504D01*
X130353803Y-85695316D01*
X130330142Y-85698826D01*
X130306250Y-85700000D01*
X129818750Y-85700000D01*
X129794858Y-85698826D01*
X129771197Y-85695316D01*
X129747993Y-85689504D01*
X129725471Y-85681446D01*
X129703847Y-85671218D01*
X129683330Y-85658921D01*
X129664117Y-85644671D01*
X129646393Y-85628607D01*
X129630329Y-85610883D01*
X129616079Y-85591670D01*
X129603782Y-85571153D01*
X129593554Y-85549529D01*
X129585496Y-85527007D01*
X129579684Y-85503803D01*
X129576174Y-85480142D01*
X129575000Y-85456250D01*
X129575000Y-84543750D01*
X129576174Y-84519858D01*
X129579684Y-84496197D01*
X129585496Y-84472993D01*
X129593554Y-84450471D01*
X129603782Y-84428847D01*
X129616079Y-84408330D01*
X129630329Y-84389117D01*
X129646393Y-84371393D01*
X129664117Y-84355329D01*
X129683330Y-84341079D01*
X129703847Y-84328782D01*
X129725471Y-84318554D01*
X129747993Y-84310496D01*
X129771197Y-84304684D01*
X129794858Y-84301174D01*
X129818750Y-84300000D01*
X130306250Y-84300000D01*
X130330142Y-84301174D01*
X130330142Y-84301174D01*
G37*
D14*
X130062500Y-85000000D03*
D12*
G36*
X143480142Y-86951174D02*
G01*
X143503803Y-86954684D01*
X143527007Y-86960496D01*
X143549529Y-86968554D01*
X143571153Y-86978782D01*
X143591670Y-86991079D01*
X143610883Y-87005329D01*
X143628607Y-87021393D01*
X143644671Y-87039117D01*
X143658921Y-87058330D01*
X143671218Y-87078847D01*
X143681446Y-87100471D01*
X143689504Y-87122993D01*
X143695316Y-87146197D01*
X143698826Y-87169858D01*
X143700000Y-87193750D01*
X143700000Y-87681250D01*
X143698826Y-87705142D01*
X143695316Y-87728803D01*
X143689504Y-87752007D01*
X143681446Y-87774529D01*
X143671218Y-87796153D01*
X143658921Y-87816670D01*
X143644671Y-87835883D01*
X143628607Y-87853607D01*
X143610883Y-87869671D01*
X143591670Y-87883921D01*
X143571153Y-87896218D01*
X143549529Y-87906446D01*
X143527007Y-87914504D01*
X143503803Y-87920316D01*
X143480142Y-87923826D01*
X143456250Y-87925000D01*
X142543750Y-87925000D01*
X142519858Y-87923826D01*
X142496197Y-87920316D01*
X142472993Y-87914504D01*
X142450471Y-87906446D01*
X142428847Y-87896218D01*
X142408330Y-87883921D01*
X142389117Y-87869671D01*
X142371393Y-87853607D01*
X142355329Y-87835883D01*
X142341079Y-87816670D01*
X142328782Y-87796153D01*
X142318554Y-87774529D01*
X142310496Y-87752007D01*
X142304684Y-87728803D01*
X142301174Y-87705142D01*
X142300000Y-87681250D01*
X142300000Y-87193750D01*
X142301174Y-87169858D01*
X142304684Y-87146197D01*
X142310496Y-87122993D01*
X142318554Y-87100471D01*
X142328782Y-87078847D01*
X142341079Y-87058330D01*
X142355329Y-87039117D01*
X142371393Y-87021393D01*
X142389117Y-87005329D01*
X142408330Y-86991079D01*
X142428847Y-86978782D01*
X142450471Y-86968554D01*
X142472993Y-86960496D01*
X142496197Y-86954684D01*
X142519858Y-86951174D01*
X142543750Y-86950000D01*
X143456250Y-86950000D01*
X143480142Y-86951174D01*
X143480142Y-86951174D01*
G37*
D14*
X143000000Y-87437500D03*
D12*
G36*
X143480142Y-85076174D02*
G01*
X143503803Y-85079684D01*
X143527007Y-85085496D01*
X143549529Y-85093554D01*
X143571153Y-85103782D01*
X143591670Y-85116079D01*
X143610883Y-85130329D01*
X143628607Y-85146393D01*
X143644671Y-85164117D01*
X143658921Y-85183330D01*
X143671218Y-85203847D01*
X143681446Y-85225471D01*
X143689504Y-85247993D01*
X143695316Y-85271197D01*
X143698826Y-85294858D01*
X143700000Y-85318750D01*
X143700000Y-85806250D01*
X143698826Y-85830142D01*
X143695316Y-85853803D01*
X143689504Y-85877007D01*
X143681446Y-85899529D01*
X143671218Y-85921153D01*
X143658921Y-85941670D01*
X143644671Y-85960883D01*
X143628607Y-85978607D01*
X143610883Y-85994671D01*
X143591670Y-86008921D01*
X143571153Y-86021218D01*
X143549529Y-86031446D01*
X143527007Y-86039504D01*
X143503803Y-86045316D01*
X143480142Y-86048826D01*
X143456250Y-86050000D01*
X142543750Y-86050000D01*
X142519858Y-86048826D01*
X142496197Y-86045316D01*
X142472993Y-86039504D01*
X142450471Y-86031446D01*
X142428847Y-86021218D01*
X142408330Y-86008921D01*
X142389117Y-85994671D01*
X142371393Y-85978607D01*
X142355329Y-85960883D01*
X142341079Y-85941670D01*
X142328782Y-85921153D01*
X142318554Y-85899529D01*
X142310496Y-85877007D01*
X142304684Y-85853803D01*
X142301174Y-85830142D01*
X142300000Y-85806250D01*
X142300000Y-85318750D01*
X142301174Y-85294858D01*
X142304684Y-85271197D01*
X142310496Y-85247993D01*
X142318554Y-85225471D01*
X142328782Y-85203847D01*
X142341079Y-85183330D01*
X142355329Y-85164117D01*
X142371393Y-85146393D01*
X142389117Y-85130329D01*
X142408330Y-85116079D01*
X142428847Y-85103782D01*
X142450471Y-85093554D01*
X142472993Y-85085496D01*
X142496197Y-85079684D01*
X142519858Y-85076174D01*
X142543750Y-85075000D01*
X143456250Y-85075000D01*
X143480142Y-85076174D01*
X143480142Y-85076174D01*
G37*
D14*
X143000000Y-85562500D03*
D12*
G36*
X147480142Y-86951174D02*
G01*
X147503803Y-86954684D01*
X147527007Y-86960496D01*
X147549529Y-86968554D01*
X147571153Y-86978782D01*
X147591670Y-86991079D01*
X147610883Y-87005329D01*
X147628607Y-87021393D01*
X147644671Y-87039117D01*
X147658921Y-87058330D01*
X147671218Y-87078847D01*
X147681446Y-87100471D01*
X147689504Y-87122993D01*
X147695316Y-87146197D01*
X147698826Y-87169858D01*
X147700000Y-87193750D01*
X147700000Y-87681250D01*
X147698826Y-87705142D01*
X147695316Y-87728803D01*
X147689504Y-87752007D01*
X147681446Y-87774529D01*
X147671218Y-87796153D01*
X147658921Y-87816670D01*
X147644671Y-87835883D01*
X147628607Y-87853607D01*
X147610883Y-87869671D01*
X147591670Y-87883921D01*
X147571153Y-87896218D01*
X147549529Y-87906446D01*
X147527007Y-87914504D01*
X147503803Y-87920316D01*
X147480142Y-87923826D01*
X147456250Y-87925000D01*
X146543750Y-87925000D01*
X146519858Y-87923826D01*
X146496197Y-87920316D01*
X146472993Y-87914504D01*
X146450471Y-87906446D01*
X146428847Y-87896218D01*
X146408330Y-87883921D01*
X146389117Y-87869671D01*
X146371393Y-87853607D01*
X146355329Y-87835883D01*
X146341079Y-87816670D01*
X146328782Y-87796153D01*
X146318554Y-87774529D01*
X146310496Y-87752007D01*
X146304684Y-87728803D01*
X146301174Y-87705142D01*
X146300000Y-87681250D01*
X146300000Y-87193750D01*
X146301174Y-87169858D01*
X146304684Y-87146197D01*
X146310496Y-87122993D01*
X146318554Y-87100471D01*
X146328782Y-87078847D01*
X146341079Y-87058330D01*
X146355329Y-87039117D01*
X146371393Y-87021393D01*
X146389117Y-87005329D01*
X146408330Y-86991079D01*
X146428847Y-86978782D01*
X146450471Y-86968554D01*
X146472993Y-86960496D01*
X146496197Y-86954684D01*
X146519858Y-86951174D01*
X146543750Y-86950000D01*
X147456250Y-86950000D01*
X147480142Y-86951174D01*
X147480142Y-86951174D01*
G37*
D14*
X147000000Y-87437500D03*
D12*
G36*
X147480142Y-85076174D02*
G01*
X147503803Y-85079684D01*
X147527007Y-85085496D01*
X147549529Y-85093554D01*
X147571153Y-85103782D01*
X147591670Y-85116079D01*
X147610883Y-85130329D01*
X147628607Y-85146393D01*
X147644671Y-85164117D01*
X147658921Y-85183330D01*
X147671218Y-85203847D01*
X147681446Y-85225471D01*
X147689504Y-85247993D01*
X147695316Y-85271197D01*
X147698826Y-85294858D01*
X147700000Y-85318750D01*
X147700000Y-85806250D01*
X147698826Y-85830142D01*
X147695316Y-85853803D01*
X147689504Y-85877007D01*
X147681446Y-85899529D01*
X147671218Y-85921153D01*
X147658921Y-85941670D01*
X147644671Y-85960883D01*
X147628607Y-85978607D01*
X147610883Y-85994671D01*
X147591670Y-86008921D01*
X147571153Y-86021218D01*
X147549529Y-86031446D01*
X147527007Y-86039504D01*
X147503803Y-86045316D01*
X147480142Y-86048826D01*
X147456250Y-86050000D01*
X146543750Y-86050000D01*
X146519858Y-86048826D01*
X146496197Y-86045316D01*
X146472993Y-86039504D01*
X146450471Y-86031446D01*
X146428847Y-86021218D01*
X146408330Y-86008921D01*
X146389117Y-85994671D01*
X146371393Y-85978607D01*
X146355329Y-85960883D01*
X146341079Y-85941670D01*
X146328782Y-85921153D01*
X146318554Y-85899529D01*
X146310496Y-85877007D01*
X146304684Y-85853803D01*
X146301174Y-85830142D01*
X146300000Y-85806250D01*
X146300000Y-85318750D01*
X146301174Y-85294858D01*
X146304684Y-85271197D01*
X146310496Y-85247993D01*
X146318554Y-85225471D01*
X146328782Y-85203847D01*
X146341079Y-85183330D01*
X146355329Y-85164117D01*
X146371393Y-85146393D01*
X146389117Y-85130329D01*
X146408330Y-85116079D01*
X146428847Y-85103782D01*
X146450471Y-85093554D01*
X146472993Y-85085496D01*
X146496197Y-85079684D01*
X146519858Y-85076174D01*
X146543750Y-85075000D01*
X147456250Y-85075000D01*
X147480142Y-85076174D01*
X147480142Y-85076174D01*
G37*
D14*
X147000000Y-85562500D03*
D12*
G36*
X130330142Y-80301174D02*
G01*
X130353803Y-80304684D01*
X130377007Y-80310496D01*
X130399529Y-80318554D01*
X130421153Y-80328782D01*
X130441670Y-80341079D01*
X130460883Y-80355329D01*
X130478607Y-80371393D01*
X130494671Y-80389117D01*
X130508921Y-80408330D01*
X130521218Y-80428847D01*
X130531446Y-80450471D01*
X130539504Y-80472993D01*
X130545316Y-80496197D01*
X130548826Y-80519858D01*
X130550000Y-80543750D01*
X130550000Y-81456250D01*
X130548826Y-81480142D01*
X130545316Y-81503803D01*
X130539504Y-81527007D01*
X130531446Y-81549529D01*
X130521218Y-81571153D01*
X130508921Y-81591670D01*
X130494671Y-81610883D01*
X130478607Y-81628607D01*
X130460883Y-81644671D01*
X130441670Y-81658921D01*
X130421153Y-81671218D01*
X130399529Y-81681446D01*
X130377007Y-81689504D01*
X130353803Y-81695316D01*
X130330142Y-81698826D01*
X130306250Y-81700000D01*
X129818750Y-81700000D01*
X129794858Y-81698826D01*
X129771197Y-81695316D01*
X129747993Y-81689504D01*
X129725471Y-81681446D01*
X129703847Y-81671218D01*
X129683330Y-81658921D01*
X129664117Y-81644671D01*
X129646393Y-81628607D01*
X129630329Y-81610883D01*
X129616079Y-81591670D01*
X129603782Y-81571153D01*
X129593554Y-81549529D01*
X129585496Y-81527007D01*
X129579684Y-81503803D01*
X129576174Y-81480142D01*
X129575000Y-81456250D01*
X129575000Y-80543750D01*
X129576174Y-80519858D01*
X129579684Y-80496197D01*
X129585496Y-80472993D01*
X129593554Y-80450471D01*
X129603782Y-80428847D01*
X129616079Y-80408330D01*
X129630329Y-80389117D01*
X129646393Y-80371393D01*
X129664117Y-80355329D01*
X129683330Y-80341079D01*
X129703847Y-80328782D01*
X129725471Y-80318554D01*
X129747993Y-80310496D01*
X129771197Y-80304684D01*
X129794858Y-80301174D01*
X129818750Y-80300000D01*
X130306250Y-80300000D01*
X130330142Y-80301174D01*
X130330142Y-80301174D01*
G37*
D14*
X130062500Y-81000000D03*
D12*
G36*
X132205142Y-80301174D02*
G01*
X132228803Y-80304684D01*
X132252007Y-80310496D01*
X132274529Y-80318554D01*
X132296153Y-80328782D01*
X132316670Y-80341079D01*
X132335883Y-80355329D01*
X132353607Y-80371393D01*
X132369671Y-80389117D01*
X132383921Y-80408330D01*
X132396218Y-80428847D01*
X132406446Y-80450471D01*
X132414504Y-80472993D01*
X132420316Y-80496197D01*
X132423826Y-80519858D01*
X132425000Y-80543750D01*
X132425000Y-81456250D01*
X132423826Y-81480142D01*
X132420316Y-81503803D01*
X132414504Y-81527007D01*
X132406446Y-81549529D01*
X132396218Y-81571153D01*
X132383921Y-81591670D01*
X132369671Y-81610883D01*
X132353607Y-81628607D01*
X132335883Y-81644671D01*
X132316670Y-81658921D01*
X132296153Y-81671218D01*
X132274529Y-81681446D01*
X132252007Y-81689504D01*
X132228803Y-81695316D01*
X132205142Y-81698826D01*
X132181250Y-81700000D01*
X131693750Y-81700000D01*
X131669858Y-81698826D01*
X131646197Y-81695316D01*
X131622993Y-81689504D01*
X131600471Y-81681446D01*
X131578847Y-81671218D01*
X131558330Y-81658921D01*
X131539117Y-81644671D01*
X131521393Y-81628607D01*
X131505329Y-81610883D01*
X131491079Y-81591670D01*
X131478782Y-81571153D01*
X131468554Y-81549529D01*
X131460496Y-81527007D01*
X131454684Y-81503803D01*
X131451174Y-81480142D01*
X131450000Y-81456250D01*
X131450000Y-80543750D01*
X131451174Y-80519858D01*
X131454684Y-80496197D01*
X131460496Y-80472993D01*
X131468554Y-80450471D01*
X131478782Y-80428847D01*
X131491079Y-80408330D01*
X131505329Y-80389117D01*
X131521393Y-80371393D01*
X131539117Y-80355329D01*
X131558330Y-80341079D01*
X131578847Y-80328782D01*
X131600471Y-80318554D01*
X131622993Y-80310496D01*
X131646197Y-80304684D01*
X131669858Y-80301174D01*
X131693750Y-80300000D01*
X132181250Y-80300000D01*
X132205142Y-80301174D01*
X132205142Y-80301174D01*
G37*
D14*
X131937500Y-81000000D03*
D12*
G36*
X132205142Y-76301174D02*
G01*
X132228803Y-76304684D01*
X132252007Y-76310496D01*
X132274529Y-76318554D01*
X132296153Y-76328782D01*
X132316670Y-76341079D01*
X132335883Y-76355329D01*
X132353607Y-76371393D01*
X132369671Y-76389117D01*
X132383921Y-76408330D01*
X132396218Y-76428847D01*
X132406446Y-76450471D01*
X132414504Y-76472993D01*
X132420316Y-76496197D01*
X132423826Y-76519858D01*
X132425000Y-76543750D01*
X132425000Y-77456250D01*
X132423826Y-77480142D01*
X132420316Y-77503803D01*
X132414504Y-77527007D01*
X132406446Y-77549529D01*
X132396218Y-77571153D01*
X132383921Y-77591670D01*
X132369671Y-77610883D01*
X132353607Y-77628607D01*
X132335883Y-77644671D01*
X132316670Y-77658921D01*
X132296153Y-77671218D01*
X132274529Y-77681446D01*
X132252007Y-77689504D01*
X132228803Y-77695316D01*
X132205142Y-77698826D01*
X132181250Y-77700000D01*
X131693750Y-77700000D01*
X131669858Y-77698826D01*
X131646197Y-77695316D01*
X131622993Y-77689504D01*
X131600471Y-77681446D01*
X131578847Y-77671218D01*
X131558330Y-77658921D01*
X131539117Y-77644671D01*
X131521393Y-77628607D01*
X131505329Y-77610883D01*
X131491079Y-77591670D01*
X131478782Y-77571153D01*
X131468554Y-77549529D01*
X131460496Y-77527007D01*
X131454684Y-77503803D01*
X131451174Y-77480142D01*
X131450000Y-77456250D01*
X131450000Y-76543750D01*
X131451174Y-76519858D01*
X131454684Y-76496197D01*
X131460496Y-76472993D01*
X131468554Y-76450471D01*
X131478782Y-76428847D01*
X131491079Y-76408330D01*
X131505329Y-76389117D01*
X131521393Y-76371393D01*
X131539117Y-76355329D01*
X131558330Y-76341079D01*
X131578847Y-76328782D01*
X131600471Y-76318554D01*
X131622993Y-76310496D01*
X131646197Y-76304684D01*
X131669858Y-76301174D01*
X131693750Y-76300000D01*
X132181250Y-76300000D01*
X132205142Y-76301174D01*
X132205142Y-76301174D01*
G37*
D14*
X131937500Y-77000000D03*
D12*
G36*
X130330142Y-76301174D02*
G01*
X130353803Y-76304684D01*
X130377007Y-76310496D01*
X130399529Y-76318554D01*
X130421153Y-76328782D01*
X130441670Y-76341079D01*
X130460883Y-76355329D01*
X130478607Y-76371393D01*
X130494671Y-76389117D01*
X130508921Y-76408330D01*
X130521218Y-76428847D01*
X130531446Y-76450471D01*
X130539504Y-76472993D01*
X130545316Y-76496197D01*
X130548826Y-76519858D01*
X130550000Y-76543750D01*
X130550000Y-77456250D01*
X130548826Y-77480142D01*
X130545316Y-77503803D01*
X130539504Y-77527007D01*
X130531446Y-77549529D01*
X130521218Y-77571153D01*
X130508921Y-77591670D01*
X130494671Y-77610883D01*
X130478607Y-77628607D01*
X130460883Y-77644671D01*
X130441670Y-77658921D01*
X130421153Y-77671218D01*
X130399529Y-77681446D01*
X130377007Y-77689504D01*
X130353803Y-77695316D01*
X130330142Y-77698826D01*
X130306250Y-77700000D01*
X129818750Y-77700000D01*
X129794858Y-77698826D01*
X129771197Y-77695316D01*
X129747993Y-77689504D01*
X129725471Y-77681446D01*
X129703847Y-77671218D01*
X129683330Y-77658921D01*
X129664117Y-77644671D01*
X129646393Y-77628607D01*
X129630329Y-77610883D01*
X129616079Y-77591670D01*
X129603782Y-77571153D01*
X129593554Y-77549529D01*
X129585496Y-77527007D01*
X129579684Y-77503803D01*
X129576174Y-77480142D01*
X129575000Y-77456250D01*
X129575000Y-76543750D01*
X129576174Y-76519858D01*
X129579684Y-76496197D01*
X129585496Y-76472993D01*
X129593554Y-76450471D01*
X129603782Y-76428847D01*
X129616079Y-76408330D01*
X129630329Y-76389117D01*
X129646393Y-76371393D01*
X129664117Y-76355329D01*
X129683330Y-76341079D01*
X129703847Y-76328782D01*
X129725471Y-76318554D01*
X129747993Y-76310496D01*
X129771197Y-76304684D01*
X129794858Y-76301174D01*
X129818750Y-76300000D01*
X130306250Y-76300000D01*
X130330142Y-76301174D01*
X130330142Y-76301174D01*
G37*
D14*
X130062500Y-77000000D03*
D12*
G36*
X130330142Y-72301174D02*
G01*
X130353803Y-72304684D01*
X130377007Y-72310496D01*
X130399529Y-72318554D01*
X130421153Y-72328782D01*
X130441670Y-72341079D01*
X130460883Y-72355329D01*
X130478607Y-72371393D01*
X130494671Y-72389117D01*
X130508921Y-72408330D01*
X130521218Y-72428847D01*
X130531446Y-72450471D01*
X130539504Y-72472993D01*
X130545316Y-72496197D01*
X130548826Y-72519858D01*
X130550000Y-72543750D01*
X130550000Y-73456250D01*
X130548826Y-73480142D01*
X130545316Y-73503803D01*
X130539504Y-73527007D01*
X130531446Y-73549529D01*
X130521218Y-73571153D01*
X130508921Y-73591670D01*
X130494671Y-73610883D01*
X130478607Y-73628607D01*
X130460883Y-73644671D01*
X130441670Y-73658921D01*
X130421153Y-73671218D01*
X130399529Y-73681446D01*
X130377007Y-73689504D01*
X130353803Y-73695316D01*
X130330142Y-73698826D01*
X130306250Y-73700000D01*
X129818750Y-73700000D01*
X129794858Y-73698826D01*
X129771197Y-73695316D01*
X129747993Y-73689504D01*
X129725471Y-73681446D01*
X129703847Y-73671218D01*
X129683330Y-73658921D01*
X129664117Y-73644671D01*
X129646393Y-73628607D01*
X129630329Y-73610883D01*
X129616079Y-73591670D01*
X129603782Y-73571153D01*
X129593554Y-73549529D01*
X129585496Y-73527007D01*
X129579684Y-73503803D01*
X129576174Y-73480142D01*
X129575000Y-73456250D01*
X129575000Y-72543750D01*
X129576174Y-72519858D01*
X129579684Y-72496197D01*
X129585496Y-72472993D01*
X129593554Y-72450471D01*
X129603782Y-72428847D01*
X129616079Y-72408330D01*
X129630329Y-72389117D01*
X129646393Y-72371393D01*
X129664117Y-72355329D01*
X129683330Y-72341079D01*
X129703847Y-72328782D01*
X129725471Y-72318554D01*
X129747993Y-72310496D01*
X129771197Y-72304684D01*
X129794858Y-72301174D01*
X129818750Y-72300000D01*
X130306250Y-72300000D01*
X130330142Y-72301174D01*
X130330142Y-72301174D01*
G37*
D14*
X130062500Y-73000000D03*
D12*
G36*
X132205142Y-72301174D02*
G01*
X132228803Y-72304684D01*
X132252007Y-72310496D01*
X132274529Y-72318554D01*
X132296153Y-72328782D01*
X132316670Y-72341079D01*
X132335883Y-72355329D01*
X132353607Y-72371393D01*
X132369671Y-72389117D01*
X132383921Y-72408330D01*
X132396218Y-72428847D01*
X132406446Y-72450471D01*
X132414504Y-72472993D01*
X132420316Y-72496197D01*
X132423826Y-72519858D01*
X132425000Y-72543750D01*
X132425000Y-73456250D01*
X132423826Y-73480142D01*
X132420316Y-73503803D01*
X132414504Y-73527007D01*
X132406446Y-73549529D01*
X132396218Y-73571153D01*
X132383921Y-73591670D01*
X132369671Y-73610883D01*
X132353607Y-73628607D01*
X132335883Y-73644671D01*
X132316670Y-73658921D01*
X132296153Y-73671218D01*
X132274529Y-73681446D01*
X132252007Y-73689504D01*
X132228803Y-73695316D01*
X132205142Y-73698826D01*
X132181250Y-73700000D01*
X131693750Y-73700000D01*
X131669858Y-73698826D01*
X131646197Y-73695316D01*
X131622993Y-73689504D01*
X131600471Y-73681446D01*
X131578847Y-73671218D01*
X131558330Y-73658921D01*
X131539117Y-73644671D01*
X131521393Y-73628607D01*
X131505329Y-73610883D01*
X131491079Y-73591670D01*
X131478782Y-73571153D01*
X131468554Y-73549529D01*
X131460496Y-73527007D01*
X131454684Y-73503803D01*
X131451174Y-73480142D01*
X131450000Y-73456250D01*
X131450000Y-72543750D01*
X131451174Y-72519858D01*
X131454684Y-72496197D01*
X131460496Y-72472993D01*
X131468554Y-72450471D01*
X131478782Y-72428847D01*
X131491079Y-72408330D01*
X131505329Y-72389117D01*
X131521393Y-72371393D01*
X131539117Y-72355329D01*
X131558330Y-72341079D01*
X131578847Y-72328782D01*
X131600471Y-72318554D01*
X131622993Y-72310496D01*
X131646197Y-72304684D01*
X131669858Y-72301174D01*
X131693750Y-72300000D01*
X132181250Y-72300000D01*
X132205142Y-72301174D01*
X132205142Y-72301174D01*
G37*
D14*
X131937500Y-73000000D03*
D12*
G36*
X132205142Y-68301174D02*
G01*
X132228803Y-68304684D01*
X132252007Y-68310496D01*
X132274529Y-68318554D01*
X132296153Y-68328782D01*
X132316670Y-68341079D01*
X132335883Y-68355329D01*
X132353607Y-68371393D01*
X132369671Y-68389117D01*
X132383921Y-68408330D01*
X132396218Y-68428847D01*
X132406446Y-68450471D01*
X132414504Y-68472993D01*
X132420316Y-68496197D01*
X132423826Y-68519858D01*
X132425000Y-68543750D01*
X132425000Y-69456250D01*
X132423826Y-69480142D01*
X132420316Y-69503803D01*
X132414504Y-69527007D01*
X132406446Y-69549529D01*
X132396218Y-69571153D01*
X132383921Y-69591670D01*
X132369671Y-69610883D01*
X132353607Y-69628607D01*
X132335883Y-69644671D01*
X132316670Y-69658921D01*
X132296153Y-69671218D01*
X132274529Y-69681446D01*
X132252007Y-69689504D01*
X132228803Y-69695316D01*
X132205142Y-69698826D01*
X132181250Y-69700000D01*
X131693750Y-69700000D01*
X131669858Y-69698826D01*
X131646197Y-69695316D01*
X131622993Y-69689504D01*
X131600471Y-69681446D01*
X131578847Y-69671218D01*
X131558330Y-69658921D01*
X131539117Y-69644671D01*
X131521393Y-69628607D01*
X131505329Y-69610883D01*
X131491079Y-69591670D01*
X131478782Y-69571153D01*
X131468554Y-69549529D01*
X131460496Y-69527007D01*
X131454684Y-69503803D01*
X131451174Y-69480142D01*
X131450000Y-69456250D01*
X131450000Y-68543750D01*
X131451174Y-68519858D01*
X131454684Y-68496197D01*
X131460496Y-68472993D01*
X131468554Y-68450471D01*
X131478782Y-68428847D01*
X131491079Y-68408330D01*
X131505329Y-68389117D01*
X131521393Y-68371393D01*
X131539117Y-68355329D01*
X131558330Y-68341079D01*
X131578847Y-68328782D01*
X131600471Y-68318554D01*
X131622993Y-68310496D01*
X131646197Y-68304684D01*
X131669858Y-68301174D01*
X131693750Y-68300000D01*
X132181250Y-68300000D01*
X132205142Y-68301174D01*
X132205142Y-68301174D01*
G37*
D14*
X131937500Y-69000000D03*
D12*
G36*
X130330142Y-68301174D02*
G01*
X130353803Y-68304684D01*
X130377007Y-68310496D01*
X130399529Y-68318554D01*
X130421153Y-68328782D01*
X130441670Y-68341079D01*
X130460883Y-68355329D01*
X130478607Y-68371393D01*
X130494671Y-68389117D01*
X130508921Y-68408330D01*
X130521218Y-68428847D01*
X130531446Y-68450471D01*
X130539504Y-68472993D01*
X130545316Y-68496197D01*
X130548826Y-68519858D01*
X130550000Y-68543750D01*
X130550000Y-69456250D01*
X130548826Y-69480142D01*
X130545316Y-69503803D01*
X130539504Y-69527007D01*
X130531446Y-69549529D01*
X130521218Y-69571153D01*
X130508921Y-69591670D01*
X130494671Y-69610883D01*
X130478607Y-69628607D01*
X130460883Y-69644671D01*
X130441670Y-69658921D01*
X130421153Y-69671218D01*
X130399529Y-69681446D01*
X130377007Y-69689504D01*
X130353803Y-69695316D01*
X130330142Y-69698826D01*
X130306250Y-69700000D01*
X129818750Y-69700000D01*
X129794858Y-69698826D01*
X129771197Y-69695316D01*
X129747993Y-69689504D01*
X129725471Y-69681446D01*
X129703847Y-69671218D01*
X129683330Y-69658921D01*
X129664117Y-69644671D01*
X129646393Y-69628607D01*
X129630329Y-69610883D01*
X129616079Y-69591670D01*
X129603782Y-69571153D01*
X129593554Y-69549529D01*
X129585496Y-69527007D01*
X129579684Y-69503803D01*
X129576174Y-69480142D01*
X129575000Y-69456250D01*
X129575000Y-68543750D01*
X129576174Y-68519858D01*
X129579684Y-68496197D01*
X129585496Y-68472993D01*
X129593554Y-68450471D01*
X129603782Y-68428847D01*
X129616079Y-68408330D01*
X129630329Y-68389117D01*
X129646393Y-68371393D01*
X129664117Y-68355329D01*
X129683330Y-68341079D01*
X129703847Y-68328782D01*
X129725471Y-68318554D01*
X129747993Y-68310496D01*
X129771197Y-68304684D01*
X129794858Y-68301174D01*
X129818750Y-68300000D01*
X130306250Y-68300000D01*
X130330142Y-68301174D01*
X130330142Y-68301174D01*
G37*
D14*
X130062500Y-69000000D03*
D12*
G36*
X130330142Y-64301174D02*
G01*
X130353803Y-64304684D01*
X130377007Y-64310496D01*
X130399529Y-64318554D01*
X130421153Y-64328782D01*
X130441670Y-64341079D01*
X130460883Y-64355329D01*
X130478607Y-64371393D01*
X130494671Y-64389117D01*
X130508921Y-64408330D01*
X130521218Y-64428847D01*
X130531446Y-64450471D01*
X130539504Y-64472993D01*
X130545316Y-64496197D01*
X130548826Y-64519858D01*
X130550000Y-64543750D01*
X130550000Y-65456250D01*
X130548826Y-65480142D01*
X130545316Y-65503803D01*
X130539504Y-65527007D01*
X130531446Y-65549529D01*
X130521218Y-65571153D01*
X130508921Y-65591670D01*
X130494671Y-65610883D01*
X130478607Y-65628607D01*
X130460883Y-65644671D01*
X130441670Y-65658921D01*
X130421153Y-65671218D01*
X130399529Y-65681446D01*
X130377007Y-65689504D01*
X130353803Y-65695316D01*
X130330142Y-65698826D01*
X130306250Y-65700000D01*
X129818750Y-65700000D01*
X129794858Y-65698826D01*
X129771197Y-65695316D01*
X129747993Y-65689504D01*
X129725471Y-65681446D01*
X129703847Y-65671218D01*
X129683330Y-65658921D01*
X129664117Y-65644671D01*
X129646393Y-65628607D01*
X129630329Y-65610883D01*
X129616079Y-65591670D01*
X129603782Y-65571153D01*
X129593554Y-65549529D01*
X129585496Y-65527007D01*
X129579684Y-65503803D01*
X129576174Y-65480142D01*
X129575000Y-65456250D01*
X129575000Y-64543750D01*
X129576174Y-64519858D01*
X129579684Y-64496197D01*
X129585496Y-64472993D01*
X129593554Y-64450471D01*
X129603782Y-64428847D01*
X129616079Y-64408330D01*
X129630329Y-64389117D01*
X129646393Y-64371393D01*
X129664117Y-64355329D01*
X129683330Y-64341079D01*
X129703847Y-64328782D01*
X129725471Y-64318554D01*
X129747993Y-64310496D01*
X129771197Y-64304684D01*
X129794858Y-64301174D01*
X129818750Y-64300000D01*
X130306250Y-64300000D01*
X130330142Y-64301174D01*
X130330142Y-64301174D01*
G37*
D14*
X130062500Y-65000000D03*
D12*
G36*
X132205142Y-64301174D02*
G01*
X132228803Y-64304684D01*
X132252007Y-64310496D01*
X132274529Y-64318554D01*
X132296153Y-64328782D01*
X132316670Y-64341079D01*
X132335883Y-64355329D01*
X132353607Y-64371393D01*
X132369671Y-64389117D01*
X132383921Y-64408330D01*
X132396218Y-64428847D01*
X132406446Y-64450471D01*
X132414504Y-64472993D01*
X132420316Y-64496197D01*
X132423826Y-64519858D01*
X132425000Y-64543750D01*
X132425000Y-65456250D01*
X132423826Y-65480142D01*
X132420316Y-65503803D01*
X132414504Y-65527007D01*
X132406446Y-65549529D01*
X132396218Y-65571153D01*
X132383921Y-65591670D01*
X132369671Y-65610883D01*
X132353607Y-65628607D01*
X132335883Y-65644671D01*
X132316670Y-65658921D01*
X132296153Y-65671218D01*
X132274529Y-65681446D01*
X132252007Y-65689504D01*
X132228803Y-65695316D01*
X132205142Y-65698826D01*
X132181250Y-65700000D01*
X131693750Y-65700000D01*
X131669858Y-65698826D01*
X131646197Y-65695316D01*
X131622993Y-65689504D01*
X131600471Y-65681446D01*
X131578847Y-65671218D01*
X131558330Y-65658921D01*
X131539117Y-65644671D01*
X131521393Y-65628607D01*
X131505329Y-65610883D01*
X131491079Y-65591670D01*
X131478782Y-65571153D01*
X131468554Y-65549529D01*
X131460496Y-65527007D01*
X131454684Y-65503803D01*
X131451174Y-65480142D01*
X131450000Y-65456250D01*
X131450000Y-64543750D01*
X131451174Y-64519858D01*
X131454684Y-64496197D01*
X131460496Y-64472993D01*
X131468554Y-64450471D01*
X131478782Y-64428847D01*
X131491079Y-64408330D01*
X131505329Y-64389117D01*
X131521393Y-64371393D01*
X131539117Y-64355329D01*
X131558330Y-64341079D01*
X131578847Y-64328782D01*
X131600471Y-64318554D01*
X131622993Y-64310496D01*
X131646197Y-64304684D01*
X131669858Y-64301174D01*
X131693750Y-64300000D01*
X132181250Y-64300000D01*
X132205142Y-64301174D01*
X132205142Y-64301174D01*
G37*
D14*
X131937500Y-65000000D03*
D12*
G36*
X145480142Y-96451174D02*
G01*
X145503803Y-96454684D01*
X145527007Y-96460496D01*
X145549529Y-96468554D01*
X145571153Y-96478782D01*
X145591670Y-96491079D01*
X145610883Y-96505329D01*
X145628607Y-96521393D01*
X145644671Y-96539117D01*
X145658921Y-96558330D01*
X145671218Y-96578847D01*
X145681446Y-96600471D01*
X145689504Y-96622993D01*
X145695316Y-96646197D01*
X145698826Y-96669858D01*
X145700000Y-96693750D01*
X145700000Y-97181250D01*
X145698826Y-97205142D01*
X145695316Y-97228803D01*
X145689504Y-97252007D01*
X145681446Y-97274529D01*
X145671218Y-97296153D01*
X145658921Y-97316670D01*
X145644671Y-97335883D01*
X145628607Y-97353607D01*
X145610883Y-97369671D01*
X145591670Y-97383921D01*
X145571153Y-97396218D01*
X145549529Y-97406446D01*
X145527007Y-97414504D01*
X145503803Y-97420316D01*
X145480142Y-97423826D01*
X145456250Y-97425000D01*
X144543750Y-97425000D01*
X144519858Y-97423826D01*
X144496197Y-97420316D01*
X144472993Y-97414504D01*
X144450471Y-97406446D01*
X144428847Y-97396218D01*
X144408330Y-97383921D01*
X144389117Y-97369671D01*
X144371393Y-97353607D01*
X144355329Y-97335883D01*
X144341079Y-97316670D01*
X144328782Y-97296153D01*
X144318554Y-97274529D01*
X144310496Y-97252007D01*
X144304684Y-97228803D01*
X144301174Y-97205142D01*
X144300000Y-97181250D01*
X144300000Y-96693750D01*
X144301174Y-96669858D01*
X144304684Y-96646197D01*
X144310496Y-96622993D01*
X144318554Y-96600471D01*
X144328782Y-96578847D01*
X144341079Y-96558330D01*
X144355329Y-96539117D01*
X144371393Y-96521393D01*
X144389117Y-96505329D01*
X144408330Y-96491079D01*
X144428847Y-96478782D01*
X144450471Y-96468554D01*
X144472993Y-96460496D01*
X144496197Y-96454684D01*
X144519858Y-96451174D01*
X144543750Y-96450000D01*
X145456250Y-96450000D01*
X145480142Y-96451174D01*
X145480142Y-96451174D01*
G37*
D14*
X145000000Y-96937500D03*
D12*
G36*
X145480142Y-94576174D02*
G01*
X145503803Y-94579684D01*
X145527007Y-94585496D01*
X145549529Y-94593554D01*
X145571153Y-94603782D01*
X145591670Y-94616079D01*
X145610883Y-94630329D01*
X145628607Y-94646393D01*
X145644671Y-94664117D01*
X145658921Y-94683330D01*
X145671218Y-94703847D01*
X145681446Y-94725471D01*
X145689504Y-94747993D01*
X145695316Y-94771197D01*
X145698826Y-94794858D01*
X145700000Y-94818750D01*
X145700000Y-95306250D01*
X145698826Y-95330142D01*
X145695316Y-95353803D01*
X145689504Y-95377007D01*
X145681446Y-95399529D01*
X145671218Y-95421153D01*
X145658921Y-95441670D01*
X145644671Y-95460883D01*
X145628607Y-95478607D01*
X145610883Y-95494671D01*
X145591670Y-95508921D01*
X145571153Y-95521218D01*
X145549529Y-95531446D01*
X145527007Y-95539504D01*
X145503803Y-95545316D01*
X145480142Y-95548826D01*
X145456250Y-95550000D01*
X144543750Y-95550000D01*
X144519858Y-95548826D01*
X144496197Y-95545316D01*
X144472993Y-95539504D01*
X144450471Y-95531446D01*
X144428847Y-95521218D01*
X144408330Y-95508921D01*
X144389117Y-95494671D01*
X144371393Y-95478607D01*
X144355329Y-95460883D01*
X144341079Y-95441670D01*
X144328782Y-95421153D01*
X144318554Y-95399529D01*
X144310496Y-95377007D01*
X144304684Y-95353803D01*
X144301174Y-95330142D01*
X144300000Y-95306250D01*
X144300000Y-94818750D01*
X144301174Y-94794858D01*
X144304684Y-94771197D01*
X144310496Y-94747993D01*
X144318554Y-94725471D01*
X144328782Y-94703847D01*
X144341079Y-94683330D01*
X144355329Y-94664117D01*
X144371393Y-94646393D01*
X144389117Y-94630329D01*
X144408330Y-94616079D01*
X144428847Y-94603782D01*
X144450471Y-94593554D01*
X144472993Y-94585496D01*
X144496197Y-94579684D01*
X144519858Y-94576174D01*
X144543750Y-94575000D01*
X145456250Y-94575000D01*
X145480142Y-94576174D01*
X145480142Y-94576174D01*
G37*
D14*
X145000000Y-95062500D03*
D12*
G36*
X140480142Y-53576174D02*
G01*
X140503803Y-53579684D01*
X140527007Y-53585496D01*
X140549529Y-53593554D01*
X140571153Y-53603782D01*
X140591670Y-53616079D01*
X140610883Y-53630329D01*
X140628607Y-53646393D01*
X140644671Y-53664117D01*
X140658921Y-53683330D01*
X140671218Y-53703847D01*
X140681446Y-53725471D01*
X140689504Y-53747993D01*
X140695316Y-53771197D01*
X140698826Y-53794858D01*
X140700000Y-53818750D01*
X140700000Y-54306250D01*
X140698826Y-54330142D01*
X140695316Y-54353803D01*
X140689504Y-54377007D01*
X140681446Y-54399529D01*
X140671218Y-54421153D01*
X140658921Y-54441670D01*
X140644671Y-54460883D01*
X140628607Y-54478607D01*
X140610883Y-54494671D01*
X140591670Y-54508921D01*
X140571153Y-54521218D01*
X140549529Y-54531446D01*
X140527007Y-54539504D01*
X140503803Y-54545316D01*
X140480142Y-54548826D01*
X140456250Y-54550000D01*
X139543750Y-54550000D01*
X139519858Y-54548826D01*
X139496197Y-54545316D01*
X139472993Y-54539504D01*
X139450471Y-54531446D01*
X139428847Y-54521218D01*
X139408330Y-54508921D01*
X139389117Y-54494671D01*
X139371393Y-54478607D01*
X139355329Y-54460883D01*
X139341079Y-54441670D01*
X139328782Y-54421153D01*
X139318554Y-54399529D01*
X139310496Y-54377007D01*
X139304684Y-54353803D01*
X139301174Y-54330142D01*
X139300000Y-54306250D01*
X139300000Y-53818750D01*
X139301174Y-53794858D01*
X139304684Y-53771197D01*
X139310496Y-53747993D01*
X139318554Y-53725471D01*
X139328782Y-53703847D01*
X139341079Y-53683330D01*
X139355329Y-53664117D01*
X139371393Y-53646393D01*
X139389117Y-53630329D01*
X139408330Y-53616079D01*
X139428847Y-53603782D01*
X139450471Y-53593554D01*
X139472993Y-53585496D01*
X139496197Y-53579684D01*
X139519858Y-53576174D01*
X139543750Y-53575000D01*
X140456250Y-53575000D01*
X140480142Y-53576174D01*
X140480142Y-53576174D01*
G37*
D14*
X140000000Y-54062500D03*
D12*
G36*
X140480142Y-55451174D02*
G01*
X140503803Y-55454684D01*
X140527007Y-55460496D01*
X140549529Y-55468554D01*
X140571153Y-55478782D01*
X140591670Y-55491079D01*
X140610883Y-55505329D01*
X140628607Y-55521393D01*
X140644671Y-55539117D01*
X140658921Y-55558330D01*
X140671218Y-55578847D01*
X140681446Y-55600471D01*
X140689504Y-55622993D01*
X140695316Y-55646197D01*
X140698826Y-55669858D01*
X140700000Y-55693750D01*
X140700000Y-56181250D01*
X140698826Y-56205142D01*
X140695316Y-56228803D01*
X140689504Y-56252007D01*
X140681446Y-56274529D01*
X140671218Y-56296153D01*
X140658921Y-56316670D01*
X140644671Y-56335883D01*
X140628607Y-56353607D01*
X140610883Y-56369671D01*
X140591670Y-56383921D01*
X140571153Y-56396218D01*
X140549529Y-56406446D01*
X140527007Y-56414504D01*
X140503803Y-56420316D01*
X140480142Y-56423826D01*
X140456250Y-56425000D01*
X139543750Y-56425000D01*
X139519858Y-56423826D01*
X139496197Y-56420316D01*
X139472993Y-56414504D01*
X139450471Y-56406446D01*
X139428847Y-56396218D01*
X139408330Y-56383921D01*
X139389117Y-56369671D01*
X139371393Y-56353607D01*
X139355329Y-56335883D01*
X139341079Y-56316670D01*
X139328782Y-56296153D01*
X139318554Y-56274529D01*
X139310496Y-56252007D01*
X139304684Y-56228803D01*
X139301174Y-56205142D01*
X139300000Y-56181250D01*
X139300000Y-55693750D01*
X139301174Y-55669858D01*
X139304684Y-55646197D01*
X139310496Y-55622993D01*
X139318554Y-55600471D01*
X139328782Y-55578847D01*
X139341079Y-55558330D01*
X139355329Y-55539117D01*
X139371393Y-55521393D01*
X139389117Y-55505329D01*
X139408330Y-55491079D01*
X139428847Y-55478782D01*
X139450471Y-55468554D01*
X139472993Y-55460496D01*
X139496197Y-55454684D01*
X139519858Y-55451174D01*
X139543750Y-55450000D01*
X140456250Y-55450000D01*
X140480142Y-55451174D01*
X140480142Y-55451174D01*
G37*
D14*
X140000000Y-55937500D03*
D12*
G36*
X140480142Y-109576174D02*
G01*
X140503803Y-109579684D01*
X140527007Y-109585496D01*
X140549529Y-109593554D01*
X140571153Y-109603782D01*
X140591670Y-109616079D01*
X140610883Y-109630329D01*
X140628607Y-109646393D01*
X140644671Y-109664117D01*
X140658921Y-109683330D01*
X140671218Y-109703847D01*
X140681446Y-109725471D01*
X140689504Y-109747993D01*
X140695316Y-109771197D01*
X140698826Y-109794858D01*
X140700000Y-109818750D01*
X140700000Y-110306250D01*
X140698826Y-110330142D01*
X140695316Y-110353803D01*
X140689504Y-110377007D01*
X140681446Y-110399529D01*
X140671218Y-110421153D01*
X140658921Y-110441670D01*
X140644671Y-110460883D01*
X140628607Y-110478607D01*
X140610883Y-110494671D01*
X140591670Y-110508921D01*
X140571153Y-110521218D01*
X140549529Y-110531446D01*
X140527007Y-110539504D01*
X140503803Y-110545316D01*
X140480142Y-110548826D01*
X140456250Y-110550000D01*
X139543750Y-110550000D01*
X139519858Y-110548826D01*
X139496197Y-110545316D01*
X139472993Y-110539504D01*
X139450471Y-110531446D01*
X139428847Y-110521218D01*
X139408330Y-110508921D01*
X139389117Y-110494671D01*
X139371393Y-110478607D01*
X139355329Y-110460883D01*
X139341079Y-110441670D01*
X139328782Y-110421153D01*
X139318554Y-110399529D01*
X139310496Y-110377007D01*
X139304684Y-110353803D01*
X139301174Y-110330142D01*
X139300000Y-110306250D01*
X139300000Y-109818750D01*
X139301174Y-109794858D01*
X139304684Y-109771197D01*
X139310496Y-109747993D01*
X139318554Y-109725471D01*
X139328782Y-109703847D01*
X139341079Y-109683330D01*
X139355329Y-109664117D01*
X139371393Y-109646393D01*
X139389117Y-109630329D01*
X139408330Y-109616079D01*
X139428847Y-109603782D01*
X139450471Y-109593554D01*
X139472993Y-109585496D01*
X139496197Y-109579684D01*
X139519858Y-109576174D01*
X139543750Y-109575000D01*
X140456250Y-109575000D01*
X140480142Y-109576174D01*
X140480142Y-109576174D01*
G37*
D14*
X140000000Y-110062500D03*
D12*
G36*
X140480142Y-111451174D02*
G01*
X140503803Y-111454684D01*
X140527007Y-111460496D01*
X140549529Y-111468554D01*
X140571153Y-111478782D01*
X140591670Y-111491079D01*
X140610883Y-111505329D01*
X140628607Y-111521393D01*
X140644671Y-111539117D01*
X140658921Y-111558330D01*
X140671218Y-111578847D01*
X140681446Y-111600471D01*
X140689504Y-111622993D01*
X140695316Y-111646197D01*
X140698826Y-111669858D01*
X140700000Y-111693750D01*
X140700000Y-112181250D01*
X140698826Y-112205142D01*
X140695316Y-112228803D01*
X140689504Y-112252007D01*
X140681446Y-112274529D01*
X140671218Y-112296153D01*
X140658921Y-112316670D01*
X140644671Y-112335883D01*
X140628607Y-112353607D01*
X140610883Y-112369671D01*
X140591670Y-112383921D01*
X140571153Y-112396218D01*
X140549529Y-112406446D01*
X140527007Y-112414504D01*
X140503803Y-112420316D01*
X140480142Y-112423826D01*
X140456250Y-112425000D01*
X139543750Y-112425000D01*
X139519858Y-112423826D01*
X139496197Y-112420316D01*
X139472993Y-112414504D01*
X139450471Y-112406446D01*
X139428847Y-112396218D01*
X139408330Y-112383921D01*
X139389117Y-112369671D01*
X139371393Y-112353607D01*
X139355329Y-112335883D01*
X139341079Y-112316670D01*
X139328782Y-112296153D01*
X139318554Y-112274529D01*
X139310496Y-112252007D01*
X139304684Y-112228803D01*
X139301174Y-112205142D01*
X139300000Y-112181250D01*
X139300000Y-111693750D01*
X139301174Y-111669858D01*
X139304684Y-111646197D01*
X139310496Y-111622993D01*
X139318554Y-111600471D01*
X139328782Y-111578847D01*
X139341079Y-111558330D01*
X139355329Y-111539117D01*
X139371393Y-111521393D01*
X139389117Y-111505329D01*
X139408330Y-111491079D01*
X139428847Y-111478782D01*
X139450471Y-111468554D01*
X139472993Y-111460496D01*
X139496197Y-111454684D01*
X139519858Y-111451174D01*
X139543750Y-111450000D01*
X140456250Y-111450000D01*
X140480142Y-111451174D01*
X140480142Y-111451174D01*
G37*
D14*
X140000000Y-111937500D03*
D12*
G36*
X145730142Y-71701174D02*
G01*
X145753803Y-71704684D01*
X145777007Y-71710496D01*
X145799529Y-71718554D01*
X145821153Y-71728782D01*
X145841670Y-71741079D01*
X145860883Y-71755329D01*
X145878607Y-71771393D01*
X145894671Y-71789117D01*
X145908921Y-71808330D01*
X145921218Y-71828847D01*
X145931446Y-71850471D01*
X145939504Y-71872993D01*
X145945316Y-71896197D01*
X145948826Y-71919858D01*
X145950000Y-71943750D01*
X145950000Y-72431250D01*
X145948826Y-72455142D01*
X145945316Y-72478803D01*
X145939504Y-72502007D01*
X145931446Y-72524529D01*
X145921218Y-72546153D01*
X145908921Y-72566670D01*
X145894671Y-72585883D01*
X145878607Y-72603607D01*
X145860883Y-72619671D01*
X145841670Y-72633921D01*
X145821153Y-72646218D01*
X145799529Y-72656446D01*
X145777007Y-72664504D01*
X145753803Y-72670316D01*
X145730142Y-72673826D01*
X145706250Y-72675000D01*
X144793750Y-72675000D01*
X144769858Y-72673826D01*
X144746197Y-72670316D01*
X144722993Y-72664504D01*
X144700471Y-72656446D01*
X144678847Y-72646218D01*
X144658330Y-72633921D01*
X144639117Y-72619671D01*
X144621393Y-72603607D01*
X144605329Y-72585883D01*
X144591079Y-72566670D01*
X144578782Y-72546153D01*
X144568554Y-72524529D01*
X144560496Y-72502007D01*
X144554684Y-72478803D01*
X144551174Y-72455142D01*
X144550000Y-72431250D01*
X144550000Y-71943750D01*
X144551174Y-71919858D01*
X144554684Y-71896197D01*
X144560496Y-71872993D01*
X144568554Y-71850471D01*
X144578782Y-71828847D01*
X144591079Y-71808330D01*
X144605329Y-71789117D01*
X144621393Y-71771393D01*
X144639117Y-71755329D01*
X144658330Y-71741079D01*
X144678847Y-71728782D01*
X144700471Y-71718554D01*
X144722993Y-71710496D01*
X144746197Y-71704684D01*
X144769858Y-71701174D01*
X144793750Y-71700000D01*
X145706250Y-71700000D01*
X145730142Y-71701174D01*
X145730142Y-71701174D01*
G37*
D14*
X145250000Y-72187500D03*
D12*
G36*
X145730142Y-69826174D02*
G01*
X145753803Y-69829684D01*
X145777007Y-69835496D01*
X145799529Y-69843554D01*
X145821153Y-69853782D01*
X145841670Y-69866079D01*
X145860883Y-69880329D01*
X145878607Y-69896393D01*
X145894671Y-69914117D01*
X145908921Y-69933330D01*
X145921218Y-69953847D01*
X145931446Y-69975471D01*
X145939504Y-69997993D01*
X145945316Y-70021197D01*
X145948826Y-70044858D01*
X145950000Y-70068750D01*
X145950000Y-70556250D01*
X145948826Y-70580142D01*
X145945316Y-70603803D01*
X145939504Y-70627007D01*
X145931446Y-70649529D01*
X145921218Y-70671153D01*
X145908921Y-70691670D01*
X145894671Y-70710883D01*
X145878607Y-70728607D01*
X145860883Y-70744671D01*
X145841670Y-70758921D01*
X145821153Y-70771218D01*
X145799529Y-70781446D01*
X145777007Y-70789504D01*
X145753803Y-70795316D01*
X145730142Y-70798826D01*
X145706250Y-70800000D01*
X144793750Y-70800000D01*
X144769858Y-70798826D01*
X144746197Y-70795316D01*
X144722993Y-70789504D01*
X144700471Y-70781446D01*
X144678847Y-70771218D01*
X144658330Y-70758921D01*
X144639117Y-70744671D01*
X144621393Y-70728607D01*
X144605329Y-70710883D01*
X144591079Y-70691670D01*
X144578782Y-70671153D01*
X144568554Y-70649529D01*
X144560496Y-70627007D01*
X144554684Y-70603803D01*
X144551174Y-70580142D01*
X144550000Y-70556250D01*
X144550000Y-70068750D01*
X144551174Y-70044858D01*
X144554684Y-70021197D01*
X144560496Y-69997993D01*
X144568554Y-69975471D01*
X144578782Y-69953847D01*
X144591079Y-69933330D01*
X144605329Y-69914117D01*
X144621393Y-69896393D01*
X144639117Y-69880329D01*
X144658330Y-69866079D01*
X144678847Y-69853782D01*
X144700471Y-69843554D01*
X144722993Y-69835496D01*
X144746197Y-69829684D01*
X144769858Y-69826174D01*
X144793750Y-69825000D01*
X145706250Y-69825000D01*
X145730142Y-69826174D01*
X145730142Y-69826174D01*
G37*
D14*
X145250000Y-70312500D03*
M02*
