%TF.GenerationSoftware,KiCad,Pcbnew,(5.1.4)-1*%
%TF.CreationDate,2019-10-26T20:50:12-05:00*%
%TF.ProjectId,BPSMinion,4250534d-696e-4696-9f6e-2e6b69636164,rev?*%
%TF.SameCoordinates,Original*%
%TF.FileFunction,Soldermask,Top*%
%TF.FilePolarity,Negative*%
%FSLAX46Y46*%
G04 Gerber Fmt 4.6, Leading zero omitted, Abs format (unit mm)*
G04 Created by KiCad (PCBNEW (5.1.4)-1) date 2019-10-26 20:50:12*
%MOMM*%
%LPD*%
G04 APERTURE LIST*
%ADD10C,0.100000*%
G04 APERTURE END LIST*
D10*
G36*
X177331653Y-111332665D02*
G01*
X177495872Y-111365330D01*
X177805252Y-111493479D01*
X178083687Y-111679523D01*
X178320477Y-111916313D01*
X178506521Y-112194748D01*
X178634670Y-112504128D01*
X178700000Y-112832565D01*
X178700000Y-113167435D01*
X178634670Y-113495872D01*
X178506521Y-113805252D01*
X178320477Y-114083687D01*
X178083687Y-114320477D01*
X177805252Y-114506521D01*
X177495872Y-114634670D01*
X177331653Y-114667335D01*
X177167437Y-114700000D01*
X176832563Y-114700000D01*
X176668347Y-114667335D01*
X176504128Y-114634670D01*
X176194748Y-114506521D01*
X175916313Y-114320477D01*
X175679523Y-114083687D01*
X175493479Y-113805252D01*
X175365330Y-113495872D01*
X175300000Y-113167435D01*
X175300000Y-112832565D01*
X175365330Y-112504128D01*
X175493479Y-112194748D01*
X175679523Y-111916313D01*
X175916313Y-111679523D01*
X176194748Y-111493479D01*
X176504128Y-111365330D01*
X176668347Y-111332665D01*
X176832563Y-111300000D01*
X177167437Y-111300000D01*
X177331653Y-111332665D01*
X177331653Y-111332665D01*
G37*
G36*
X98331653Y-111332665D02*
G01*
X98495872Y-111365330D01*
X98805252Y-111493479D01*
X99083687Y-111679523D01*
X99320477Y-111916313D01*
X99506521Y-112194748D01*
X99634670Y-112504128D01*
X99700000Y-112832565D01*
X99700000Y-113167435D01*
X99634670Y-113495872D01*
X99506521Y-113805252D01*
X99320477Y-114083687D01*
X99083687Y-114320477D01*
X98805252Y-114506521D01*
X98495872Y-114634670D01*
X98331653Y-114667335D01*
X98167437Y-114700000D01*
X97832563Y-114700000D01*
X97668347Y-114667335D01*
X97504128Y-114634670D01*
X97194748Y-114506521D01*
X96916313Y-114320477D01*
X96679523Y-114083687D01*
X96493479Y-113805252D01*
X96365330Y-113495872D01*
X96300000Y-113167435D01*
X96300000Y-112832565D01*
X96365330Y-112504128D01*
X96493479Y-112194748D01*
X96679523Y-111916313D01*
X96916313Y-111679523D01*
X97194748Y-111493479D01*
X97504128Y-111365330D01*
X97668347Y-111332665D01*
X97832563Y-111300000D01*
X98167437Y-111300000D01*
X98331653Y-111332665D01*
X98331653Y-111332665D01*
G37*
G36*
X137466703Y-110461486D02*
G01*
X137757883Y-110582097D01*
X138019940Y-110757198D01*
X138242802Y-110980060D01*
X138417903Y-111242117D01*
X138538514Y-111533297D01*
X138600000Y-111842412D01*
X138600000Y-112157588D01*
X138538514Y-112466703D01*
X138417903Y-112757883D01*
X138242802Y-113019940D01*
X138019940Y-113242802D01*
X137757883Y-113417903D01*
X137466703Y-113538514D01*
X137157588Y-113600000D01*
X136842412Y-113600000D01*
X136533297Y-113538514D01*
X136242117Y-113417903D01*
X135980060Y-113242802D01*
X135757198Y-113019940D01*
X135582097Y-112757883D01*
X135461486Y-112466703D01*
X135400000Y-112157588D01*
X135400000Y-111842412D01*
X135461486Y-111533297D01*
X135582097Y-111242117D01*
X135757198Y-110980060D01*
X135980060Y-110757198D01*
X136242117Y-110582097D01*
X136533297Y-110461486D01*
X136842412Y-110400000D01*
X137157588Y-110400000D01*
X137466703Y-110461486D01*
X137466703Y-110461486D01*
G37*
G36*
X143128707Y-106957597D02*
G01*
X143205836Y-106965193D01*
X143403762Y-107025233D01*
X143403765Y-107025234D01*
X143586170Y-107122732D01*
X143746055Y-107253945D01*
X143877268Y-107413830D01*
X143974766Y-107596235D01*
X143974767Y-107596238D01*
X144034807Y-107794164D01*
X144055080Y-108000000D01*
X144034807Y-108205836D01*
X143974767Y-108403762D01*
X143974766Y-108403765D01*
X143877268Y-108586170D01*
X143746055Y-108746055D01*
X143586170Y-108877268D01*
X143403765Y-108974766D01*
X143403762Y-108974767D01*
X143205836Y-109034807D01*
X143128707Y-109042403D01*
X143051580Y-109050000D01*
X142948420Y-109050000D01*
X142871293Y-109042403D01*
X142794164Y-109034807D01*
X142596238Y-108974767D01*
X142596235Y-108974766D01*
X142413830Y-108877268D01*
X142253945Y-108746055D01*
X142122732Y-108586170D01*
X142025234Y-108403765D01*
X142025233Y-108403762D01*
X141965193Y-108205836D01*
X141944920Y-108000000D01*
X141965193Y-107794164D01*
X142025233Y-107596238D01*
X142025234Y-107596235D01*
X142122732Y-107413830D01*
X142253945Y-107253945D01*
X142413830Y-107122732D01*
X142596235Y-107025234D01*
X142596238Y-107025233D01*
X142794164Y-106965193D01*
X142871293Y-106957597D01*
X142948420Y-106950000D01*
X143051580Y-106950000D01*
X143128707Y-106957597D01*
X143128707Y-106957597D01*
G37*
G36*
X166910000Y-109050000D02*
G01*
X164810000Y-109050000D01*
X164810000Y-106950000D01*
X166910000Y-106950000D01*
X166910000Y-109050000D01*
X166910000Y-109050000D01*
G37*
G36*
X163448707Y-106957597D02*
G01*
X163525836Y-106965193D01*
X163723762Y-107025233D01*
X163723765Y-107025234D01*
X163906170Y-107122732D01*
X164066055Y-107253945D01*
X164197268Y-107413830D01*
X164294766Y-107596235D01*
X164294767Y-107596238D01*
X164354807Y-107794164D01*
X164375080Y-108000000D01*
X164354807Y-108205836D01*
X164294767Y-108403762D01*
X164294766Y-108403765D01*
X164197268Y-108586170D01*
X164066055Y-108746055D01*
X163906170Y-108877268D01*
X163723765Y-108974766D01*
X163723762Y-108974767D01*
X163525836Y-109034807D01*
X163448707Y-109042403D01*
X163371580Y-109050000D01*
X163268420Y-109050000D01*
X163191293Y-109042403D01*
X163114164Y-109034807D01*
X162916238Y-108974767D01*
X162916235Y-108974766D01*
X162733830Y-108877268D01*
X162573945Y-108746055D01*
X162442732Y-108586170D01*
X162345234Y-108403765D01*
X162345233Y-108403762D01*
X162285193Y-108205836D01*
X162264920Y-108000000D01*
X162285193Y-107794164D01*
X162345233Y-107596238D01*
X162345234Y-107596235D01*
X162442732Y-107413830D01*
X162573945Y-107253945D01*
X162733830Y-107122732D01*
X162916235Y-107025234D01*
X162916238Y-107025233D01*
X163114164Y-106965193D01*
X163191293Y-106957597D01*
X163268420Y-106950000D01*
X163371580Y-106950000D01*
X163448707Y-106957597D01*
X163448707Y-106957597D01*
G37*
G36*
X160908707Y-106957597D02*
G01*
X160985836Y-106965193D01*
X161183762Y-107025233D01*
X161183765Y-107025234D01*
X161366170Y-107122732D01*
X161526055Y-107253945D01*
X161657268Y-107413830D01*
X161754766Y-107596235D01*
X161754767Y-107596238D01*
X161814807Y-107794164D01*
X161835080Y-108000000D01*
X161814807Y-108205836D01*
X161754767Y-108403762D01*
X161754766Y-108403765D01*
X161657268Y-108586170D01*
X161526055Y-108746055D01*
X161366170Y-108877268D01*
X161183765Y-108974766D01*
X161183762Y-108974767D01*
X160985836Y-109034807D01*
X160908707Y-109042403D01*
X160831580Y-109050000D01*
X160728420Y-109050000D01*
X160651293Y-109042403D01*
X160574164Y-109034807D01*
X160376238Y-108974767D01*
X160376235Y-108974766D01*
X160193830Y-108877268D01*
X160033945Y-108746055D01*
X159902732Y-108586170D01*
X159805234Y-108403765D01*
X159805233Y-108403762D01*
X159745193Y-108205836D01*
X159724920Y-108000000D01*
X159745193Y-107794164D01*
X159805233Y-107596238D01*
X159805234Y-107596235D01*
X159902732Y-107413830D01*
X160033945Y-107253945D01*
X160193830Y-107122732D01*
X160376235Y-107025234D01*
X160376238Y-107025233D01*
X160574164Y-106965193D01*
X160651293Y-106957597D01*
X160728420Y-106950000D01*
X160831580Y-106950000D01*
X160908707Y-106957597D01*
X160908707Y-106957597D01*
G37*
G36*
X158368707Y-106957597D02*
G01*
X158445836Y-106965193D01*
X158643762Y-107025233D01*
X158643765Y-107025234D01*
X158826170Y-107122732D01*
X158986055Y-107253945D01*
X159117268Y-107413830D01*
X159214766Y-107596235D01*
X159214767Y-107596238D01*
X159274807Y-107794164D01*
X159295080Y-108000000D01*
X159274807Y-108205836D01*
X159214767Y-108403762D01*
X159214766Y-108403765D01*
X159117268Y-108586170D01*
X158986055Y-108746055D01*
X158826170Y-108877268D01*
X158643765Y-108974766D01*
X158643762Y-108974767D01*
X158445836Y-109034807D01*
X158368707Y-109042403D01*
X158291580Y-109050000D01*
X158188420Y-109050000D01*
X158111293Y-109042403D01*
X158034164Y-109034807D01*
X157836238Y-108974767D01*
X157836235Y-108974766D01*
X157653830Y-108877268D01*
X157493945Y-108746055D01*
X157362732Y-108586170D01*
X157265234Y-108403765D01*
X157265233Y-108403762D01*
X157205193Y-108205836D01*
X157184920Y-108000000D01*
X157205193Y-107794164D01*
X157265233Y-107596238D01*
X157265234Y-107596235D01*
X157362732Y-107413830D01*
X157493945Y-107253945D01*
X157653830Y-107122732D01*
X157836235Y-107025234D01*
X157836238Y-107025233D01*
X158034164Y-106965193D01*
X158111293Y-106957597D01*
X158188420Y-106950000D01*
X158291580Y-106950000D01*
X158368707Y-106957597D01*
X158368707Y-106957597D01*
G37*
G36*
X153288707Y-106957597D02*
G01*
X153365836Y-106965193D01*
X153563762Y-107025233D01*
X153563765Y-107025234D01*
X153746170Y-107122732D01*
X153906055Y-107253945D01*
X154037268Y-107413830D01*
X154134766Y-107596235D01*
X154134767Y-107596238D01*
X154194807Y-107794164D01*
X154215080Y-108000000D01*
X154194807Y-108205836D01*
X154134767Y-108403762D01*
X154134766Y-108403765D01*
X154037268Y-108586170D01*
X153906055Y-108746055D01*
X153746170Y-108877268D01*
X153563765Y-108974766D01*
X153563762Y-108974767D01*
X153365836Y-109034807D01*
X153288707Y-109042403D01*
X153211580Y-109050000D01*
X153108420Y-109050000D01*
X153031293Y-109042403D01*
X152954164Y-109034807D01*
X152756238Y-108974767D01*
X152756235Y-108974766D01*
X152573830Y-108877268D01*
X152413945Y-108746055D01*
X152282732Y-108586170D01*
X152185234Y-108403765D01*
X152185233Y-108403762D01*
X152125193Y-108205836D01*
X152104920Y-108000000D01*
X152125193Y-107794164D01*
X152185233Y-107596238D01*
X152185234Y-107596235D01*
X152282732Y-107413830D01*
X152413945Y-107253945D01*
X152573830Y-107122732D01*
X152756235Y-107025234D01*
X152756238Y-107025233D01*
X152954164Y-106965193D01*
X153031293Y-106957597D01*
X153108420Y-106950000D01*
X153211580Y-106950000D01*
X153288707Y-106957597D01*
X153288707Y-106957597D01*
G37*
G36*
X150748707Y-106957597D02*
G01*
X150825836Y-106965193D01*
X151023762Y-107025233D01*
X151023765Y-107025234D01*
X151206170Y-107122732D01*
X151366055Y-107253945D01*
X151497268Y-107413830D01*
X151594766Y-107596235D01*
X151594767Y-107596238D01*
X151654807Y-107794164D01*
X151675080Y-108000000D01*
X151654807Y-108205836D01*
X151594767Y-108403762D01*
X151594766Y-108403765D01*
X151497268Y-108586170D01*
X151366055Y-108746055D01*
X151206170Y-108877268D01*
X151023765Y-108974766D01*
X151023762Y-108974767D01*
X150825836Y-109034807D01*
X150748707Y-109042403D01*
X150671580Y-109050000D01*
X150568420Y-109050000D01*
X150491293Y-109042403D01*
X150414164Y-109034807D01*
X150216238Y-108974767D01*
X150216235Y-108974766D01*
X150033830Y-108877268D01*
X149873945Y-108746055D01*
X149742732Y-108586170D01*
X149645234Y-108403765D01*
X149645233Y-108403762D01*
X149585193Y-108205836D01*
X149564920Y-108000000D01*
X149585193Y-107794164D01*
X149645233Y-107596238D01*
X149645234Y-107596235D01*
X149742732Y-107413830D01*
X149873945Y-107253945D01*
X150033830Y-107122732D01*
X150216235Y-107025234D01*
X150216238Y-107025233D01*
X150414164Y-106965193D01*
X150491293Y-106957597D01*
X150568420Y-106950000D01*
X150671580Y-106950000D01*
X150748707Y-106957597D01*
X150748707Y-106957597D01*
G37*
G36*
X148208707Y-106957597D02*
G01*
X148285836Y-106965193D01*
X148483762Y-107025233D01*
X148483765Y-107025234D01*
X148666170Y-107122732D01*
X148826055Y-107253945D01*
X148957268Y-107413830D01*
X149054766Y-107596235D01*
X149054767Y-107596238D01*
X149114807Y-107794164D01*
X149135080Y-108000000D01*
X149114807Y-108205836D01*
X149054767Y-108403762D01*
X149054766Y-108403765D01*
X148957268Y-108586170D01*
X148826055Y-108746055D01*
X148666170Y-108877268D01*
X148483765Y-108974766D01*
X148483762Y-108974767D01*
X148285836Y-109034807D01*
X148208707Y-109042403D01*
X148131580Y-109050000D01*
X148028420Y-109050000D01*
X147951293Y-109042403D01*
X147874164Y-109034807D01*
X147676238Y-108974767D01*
X147676235Y-108974766D01*
X147493830Y-108877268D01*
X147333945Y-108746055D01*
X147202732Y-108586170D01*
X147105234Y-108403765D01*
X147105233Y-108403762D01*
X147045193Y-108205836D01*
X147024920Y-108000000D01*
X147045193Y-107794164D01*
X147105233Y-107596238D01*
X147105234Y-107596235D01*
X147202732Y-107413830D01*
X147333945Y-107253945D01*
X147493830Y-107122732D01*
X147676235Y-107025234D01*
X147676238Y-107025233D01*
X147874164Y-106965193D01*
X147951293Y-106957597D01*
X148028420Y-106950000D01*
X148131580Y-106950000D01*
X148208707Y-106957597D01*
X148208707Y-106957597D01*
G37*
G36*
X145668707Y-106957597D02*
G01*
X145745836Y-106965193D01*
X145943762Y-107025233D01*
X145943765Y-107025234D01*
X146126170Y-107122732D01*
X146286055Y-107253945D01*
X146417268Y-107413830D01*
X146514766Y-107596235D01*
X146514767Y-107596238D01*
X146574807Y-107794164D01*
X146595080Y-108000000D01*
X146574807Y-108205836D01*
X146514767Y-108403762D01*
X146514766Y-108403765D01*
X146417268Y-108586170D01*
X146286055Y-108746055D01*
X146126170Y-108877268D01*
X145943765Y-108974766D01*
X145943762Y-108974767D01*
X145745836Y-109034807D01*
X145668707Y-109042403D01*
X145591580Y-109050000D01*
X145488420Y-109050000D01*
X145411293Y-109042403D01*
X145334164Y-109034807D01*
X145136238Y-108974767D01*
X145136235Y-108974766D01*
X144953830Y-108877268D01*
X144793945Y-108746055D01*
X144662732Y-108586170D01*
X144565234Y-108403765D01*
X144565233Y-108403762D01*
X144505193Y-108205836D01*
X144484920Y-108000000D01*
X144505193Y-107794164D01*
X144565233Y-107596238D01*
X144565234Y-107596235D01*
X144662732Y-107413830D01*
X144793945Y-107253945D01*
X144953830Y-107122732D01*
X145136235Y-107025234D01*
X145136238Y-107025233D01*
X145334164Y-106965193D01*
X145411293Y-106957597D01*
X145488420Y-106950000D01*
X145591580Y-106950000D01*
X145668707Y-106957597D01*
X145668707Y-106957597D01*
G37*
G36*
X155828707Y-106957597D02*
G01*
X155905836Y-106965193D01*
X156103762Y-107025233D01*
X156103765Y-107025234D01*
X156286170Y-107122732D01*
X156446055Y-107253945D01*
X156577268Y-107413830D01*
X156674766Y-107596235D01*
X156674767Y-107596238D01*
X156734807Y-107794164D01*
X156755080Y-108000000D01*
X156734807Y-108205836D01*
X156674767Y-108403762D01*
X156674766Y-108403765D01*
X156577268Y-108586170D01*
X156446055Y-108746055D01*
X156286170Y-108877268D01*
X156103765Y-108974766D01*
X156103762Y-108974767D01*
X155905836Y-109034807D01*
X155828707Y-109042403D01*
X155751580Y-109050000D01*
X155648420Y-109050000D01*
X155571293Y-109042403D01*
X155494164Y-109034807D01*
X155296238Y-108974767D01*
X155296235Y-108974766D01*
X155113830Y-108877268D01*
X154953945Y-108746055D01*
X154822732Y-108586170D01*
X154725234Y-108403765D01*
X154725233Y-108403762D01*
X154665193Y-108205836D01*
X154644920Y-108000000D01*
X154665193Y-107794164D01*
X154725233Y-107596238D01*
X154725234Y-107596235D01*
X154822732Y-107413830D01*
X154953945Y-107253945D01*
X155113830Y-107122732D01*
X155296235Y-107025234D01*
X155296238Y-107025233D01*
X155494164Y-106965193D01*
X155571293Y-106957597D01*
X155648420Y-106950000D01*
X155751580Y-106950000D01*
X155828707Y-106957597D01*
X155828707Y-106957597D01*
G37*
G36*
X121398499Y-106105997D02*
G01*
X121451147Y-106121968D01*
X121499668Y-106147902D01*
X121542195Y-106182805D01*
X121577098Y-106225332D01*
X121603032Y-106273853D01*
X121619003Y-106326501D01*
X121625000Y-106387390D01*
X121625000Y-107612610D01*
X121619003Y-107673499D01*
X121603032Y-107726147D01*
X121577098Y-107774668D01*
X121542195Y-107817195D01*
X121499668Y-107852098D01*
X121451147Y-107878032D01*
X121398499Y-107894003D01*
X121337610Y-107900000D01*
X120537390Y-107900000D01*
X120476501Y-107894003D01*
X120423853Y-107878032D01*
X120375332Y-107852098D01*
X120332805Y-107817195D01*
X120297902Y-107774668D01*
X120271968Y-107726147D01*
X120255997Y-107673499D01*
X120250000Y-107612610D01*
X120250000Y-106387390D01*
X120255997Y-106326501D01*
X120271968Y-106273853D01*
X120297902Y-106225332D01*
X120332805Y-106182805D01*
X120375332Y-106147902D01*
X120423853Y-106121968D01*
X120476501Y-106105997D01*
X120537390Y-106100000D01*
X121337610Y-106100000D01*
X121398499Y-106105997D01*
X121398499Y-106105997D01*
G37*
G36*
X115898499Y-106105997D02*
G01*
X115951147Y-106121968D01*
X115999668Y-106147902D01*
X116042195Y-106182805D01*
X116077098Y-106225332D01*
X116103032Y-106273853D01*
X116119003Y-106326501D01*
X116125000Y-106387390D01*
X116125000Y-107612610D01*
X116119003Y-107673499D01*
X116103032Y-107726147D01*
X116077098Y-107774668D01*
X116042195Y-107817195D01*
X115999668Y-107852098D01*
X115951147Y-107878032D01*
X115898499Y-107894003D01*
X115837610Y-107900000D01*
X115037390Y-107900000D01*
X114976501Y-107894003D01*
X114923853Y-107878032D01*
X114875332Y-107852098D01*
X114832805Y-107817195D01*
X114797902Y-107774668D01*
X114771968Y-107726147D01*
X114755997Y-107673499D01*
X114750000Y-107612610D01*
X114750000Y-106387390D01*
X114755997Y-106326501D01*
X114771968Y-106273853D01*
X114797902Y-106225332D01*
X114832805Y-106182805D01*
X114875332Y-106147902D01*
X114923853Y-106121968D01*
X114976501Y-106105997D01*
X115037390Y-106100000D01*
X115837610Y-106100000D01*
X115898499Y-106105997D01*
X115898499Y-106105997D01*
G37*
G36*
X119523499Y-106105997D02*
G01*
X119576147Y-106121968D01*
X119624668Y-106147902D01*
X119667195Y-106182805D01*
X119702098Y-106225332D01*
X119728032Y-106273853D01*
X119744003Y-106326501D01*
X119750000Y-106387390D01*
X119750000Y-107612610D01*
X119744003Y-107673499D01*
X119728032Y-107726147D01*
X119702098Y-107774668D01*
X119667195Y-107817195D01*
X119624668Y-107852098D01*
X119576147Y-107878032D01*
X119523499Y-107894003D01*
X119462610Y-107900000D01*
X118662390Y-107900000D01*
X118601501Y-107894003D01*
X118548853Y-107878032D01*
X118500332Y-107852098D01*
X118457805Y-107817195D01*
X118422902Y-107774668D01*
X118396968Y-107726147D01*
X118380997Y-107673499D01*
X118375000Y-107612610D01*
X118375000Y-106387390D01*
X118380997Y-106326501D01*
X118396968Y-106273853D01*
X118422902Y-106225332D01*
X118457805Y-106182805D01*
X118500332Y-106147902D01*
X118548853Y-106121968D01*
X118601501Y-106105997D01*
X118662390Y-106100000D01*
X119462610Y-106100000D01*
X119523499Y-106105997D01*
X119523499Y-106105997D01*
G37*
G36*
X126898499Y-106105997D02*
G01*
X126951147Y-106121968D01*
X126999668Y-106147902D01*
X127042195Y-106182805D01*
X127077098Y-106225332D01*
X127103032Y-106273853D01*
X127119003Y-106326501D01*
X127125000Y-106387390D01*
X127125000Y-107612610D01*
X127119003Y-107673499D01*
X127103032Y-107726147D01*
X127077098Y-107774668D01*
X127042195Y-107817195D01*
X126999668Y-107852098D01*
X126951147Y-107878032D01*
X126898499Y-107894003D01*
X126837610Y-107900000D01*
X126037390Y-107900000D01*
X125976501Y-107894003D01*
X125923853Y-107878032D01*
X125875332Y-107852098D01*
X125832805Y-107817195D01*
X125797902Y-107774668D01*
X125771968Y-107726147D01*
X125755997Y-107673499D01*
X125750000Y-107612610D01*
X125750000Y-106387390D01*
X125755997Y-106326501D01*
X125771968Y-106273853D01*
X125797902Y-106225332D01*
X125832805Y-106182805D01*
X125875332Y-106147902D01*
X125923853Y-106121968D01*
X125976501Y-106105997D01*
X126037390Y-106100000D01*
X126837610Y-106100000D01*
X126898499Y-106105997D01*
X126898499Y-106105997D01*
G37*
G36*
X125023499Y-106105997D02*
G01*
X125076147Y-106121968D01*
X125124668Y-106147902D01*
X125167195Y-106182805D01*
X125202098Y-106225332D01*
X125228032Y-106273853D01*
X125244003Y-106326501D01*
X125250000Y-106387390D01*
X125250000Y-107612610D01*
X125244003Y-107673499D01*
X125228032Y-107726147D01*
X125202098Y-107774668D01*
X125167195Y-107817195D01*
X125124668Y-107852098D01*
X125076147Y-107878032D01*
X125023499Y-107894003D01*
X124962610Y-107900000D01*
X124162390Y-107900000D01*
X124101501Y-107894003D01*
X124048853Y-107878032D01*
X124000332Y-107852098D01*
X123957805Y-107817195D01*
X123922902Y-107774668D01*
X123896968Y-107726147D01*
X123880997Y-107673499D01*
X123875000Y-107612610D01*
X123875000Y-106387390D01*
X123880997Y-106326501D01*
X123896968Y-106273853D01*
X123922902Y-106225332D01*
X123957805Y-106182805D01*
X124000332Y-106147902D01*
X124048853Y-106121968D01*
X124101501Y-106105997D01*
X124162390Y-106100000D01*
X124962610Y-106100000D01*
X125023499Y-106105997D01*
X125023499Y-106105997D01*
G37*
G36*
X114023499Y-106105997D02*
G01*
X114076147Y-106121968D01*
X114124668Y-106147902D01*
X114167195Y-106182805D01*
X114202098Y-106225332D01*
X114228032Y-106273853D01*
X114244003Y-106326501D01*
X114250000Y-106387390D01*
X114250000Y-107612610D01*
X114244003Y-107673499D01*
X114228032Y-107726147D01*
X114202098Y-107774668D01*
X114167195Y-107817195D01*
X114124668Y-107852098D01*
X114076147Y-107878032D01*
X114023499Y-107894003D01*
X113962610Y-107900000D01*
X113162390Y-107900000D01*
X113101501Y-107894003D01*
X113048853Y-107878032D01*
X113000332Y-107852098D01*
X112957805Y-107817195D01*
X112922902Y-107774668D01*
X112896968Y-107726147D01*
X112880997Y-107673499D01*
X112875000Y-107612610D01*
X112875000Y-106387390D01*
X112880997Y-106326501D01*
X112896968Y-106273853D01*
X112922902Y-106225332D01*
X112957805Y-106182805D01*
X113000332Y-106147902D01*
X113048853Y-106121968D01*
X113101501Y-106105997D01*
X113162390Y-106100000D01*
X113962610Y-106100000D01*
X114023499Y-106105997D01*
X114023499Y-106105997D01*
G37*
G36*
X177668707Y-104957596D02*
G01*
X177745836Y-104965193D01*
X177943762Y-105025233D01*
X177943765Y-105025234D01*
X178126170Y-105122732D01*
X178286055Y-105253945D01*
X178417268Y-105413830D01*
X178514766Y-105596235D01*
X178514767Y-105596238D01*
X178574807Y-105794164D01*
X178595080Y-106000000D01*
X178574807Y-106205836D01*
X178554174Y-106273853D01*
X178514766Y-106403765D01*
X178417268Y-106586170D01*
X178286055Y-106746055D01*
X178126170Y-106877268D01*
X177943765Y-106974766D01*
X177943762Y-106974767D01*
X177745836Y-107034807D01*
X177668707Y-107042404D01*
X177591580Y-107050000D01*
X177488420Y-107050000D01*
X177411293Y-107042404D01*
X177334164Y-107034807D01*
X177136238Y-106974767D01*
X177136235Y-106974766D01*
X176953830Y-106877268D01*
X176793945Y-106746055D01*
X176662732Y-106586170D01*
X176565234Y-106403765D01*
X176525826Y-106273853D01*
X176505193Y-106205836D01*
X176484920Y-106000000D01*
X176505193Y-105794164D01*
X176565233Y-105596238D01*
X176565234Y-105596235D01*
X176662732Y-105413830D01*
X176793945Y-105253945D01*
X176953830Y-105122732D01*
X177136235Y-105025234D01*
X177136238Y-105025233D01*
X177334164Y-104965193D01*
X177411293Y-104957596D01*
X177488420Y-104950000D01*
X177591580Y-104950000D01*
X177668707Y-104957596D01*
X177668707Y-104957596D01*
G37*
G36*
X173510000Y-107050000D02*
G01*
X171410000Y-107050000D01*
X171410000Y-104950000D01*
X173510000Y-104950000D01*
X173510000Y-107050000D01*
X173510000Y-107050000D01*
G37*
G36*
X175128707Y-104957596D02*
G01*
X175205836Y-104965193D01*
X175403762Y-105025233D01*
X175403765Y-105025234D01*
X175586170Y-105122732D01*
X175746055Y-105253945D01*
X175877268Y-105413830D01*
X175974766Y-105596235D01*
X175974767Y-105596238D01*
X176034807Y-105794164D01*
X176055080Y-106000000D01*
X176034807Y-106205836D01*
X176014174Y-106273853D01*
X175974766Y-106403765D01*
X175877268Y-106586170D01*
X175746055Y-106746055D01*
X175586170Y-106877268D01*
X175403765Y-106974766D01*
X175403762Y-106974767D01*
X175205836Y-107034807D01*
X175128707Y-107042404D01*
X175051580Y-107050000D01*
X174948420Y-107050000D01*
X174871293Y-107042404D01*
X174794164Y-107034807D01*
X174596238Y-106974767D01*
X174596235Y-106974766D01*
X174413830Y-106877268D01*
X174253945Y-106746055D01*
X174122732Y-106586170D01*
X174025234Y-106403765D01*
X173985826Y-106273853D01*
X173965193Y-106205836D01*
X173944920Y-106000000D01*
X173965193Y-105794164D01*
X174025233Y-105596238D01*
X174025234Y-105596235D01*
X174122732Y-105413830D01*
X174253945Y-105253945D01*
X174413830Y-105122732D01*
X174596235Y-105025234D01*
X174596238Y-105025233D01*
X174794164Y-104965193D01*
X174871293Y-104957596D01*
X174948420Y-104950000D01*
X175051580Y-104950000D01*
X175128707Y-104957596D01*
X175128707Y-104957596D01*
G37*
G36*
X104022067Y-104055076D02*
G01*
X104065728Y-104068320D01*
X104105964Y-104089827D01*
X104141231Y-104118769D01*
X104170173Y-104154036D01*
X104191680Y-104194272D01*
X104204924Y-104237933D01*
X104210000Y-104289474D01*
X104210000Y-105710526D01*
X104204924Y-105762067D01*
X104191680Y-105805728D01*
X104170173Y-105845964D01*
X104141231Y-105881231D01*
X104105964Y-105910173D01*
X104065728Y-105931680D01*
X104022067Y-105944924D01*
X103970526Y-105950000D01*
X102029474Y-105950000D01*
X101977933Y-105944924D01*
X101934272Y-105931680D01*
X101894036Y-105910173D01*
X101858769Y-105881231D01*
X101829827Y-105845964D01*
X101808320Y-105805728D01*
X101795076Y-105762067D01*
X101790000Y-105710526D01*
X101790000Y-104289474D01*
X101795076Y-104237933D01*
X101808320Y-104194272D01*
X101829827Y-104154036D01*
X101858769Y-104118769D01*
X101894036Y-104089827D01*
X101934272Y-104068320D01*
X101977933Y-104055076D01*
X102029474Y-104050000D01*
X103970526Y-104050000D01*
X104022067Y-104055076D01*
X104022067Y-104055076D01*
G37*
G36*
X164523499Y-104105997D02*
G01*
X164576147Y-104121968D01*
X164624668Y-104147902D01*
X164667195Y-104182805D01*
X164702098Y-104225332D01*
X164728032Y-104273853D01*
X164744003Y-104326501D01*
X164750000Y-104387390D01*
X164750000Y-105612610D01*
X164744003Y-105673499D01*
X164728032Y-105726147D01*
X164702098Y-105774668D01*
X164667195Y-105817195D01*
X164624668Y-105852098D01*
X164576147Y-105878032D01*
X164523499Y-105894003D01*
X164462610Y-105900000D01*
X163662390Y-105900000D01*
X163601501Y-105894003D01*
X163548853Y-105878032D01*
X163500332Y-105852098D01*
X163457805Y-105817195D01*
X163422902Y-105774668D01*
X163396968Y-105726147D01*
X163380997Y-105673499D01*
X163375000Y-105612610D01*
X163375000Y-104387390D01*
X163380997Y-104326501D01*
X163396968Y-104273853D01*
X163422902Y-104225332D01*
X163457805Y-104182805D01*
X163500332Y-104147902D01*
X163548853Y-104121968D01*
X163601501Y-104105997D01*
X163662390Y-104100000D01*
X164462610Y-104100000D01*
X164523499Y-104105997D01*
X164523499Y-104105997D01*
G37*
G36*
X166398499Y-104105997D02*
G01*
X166451147Y-104121968D01*
X166499668Y-104147902D01*
X166542195Y-104182805D01*
X166577098Y-104225332D01*
X166603032Y-104273853D01*
X166619003Y-104326501D01*
X166625000Y-104387390D01*
X166625000Y-105612610D01*
X166619003Y-105673499D01*
X166603032Y-105726147D01*
X166577098Y-105774668D01*
X166542195Y-105817195D01*
X166499668Y-105852098D01*
X166451147Y-105878032D01*
X166398499Y-105894003D01*
X166337610Y-105900000D01*
X165537390Y-105900000D01*
X165476501Y-105894003D01*
X165423853Y-105878032D01*
X165375332Y-105852098D01*
X165332805Y-105817195D01*
X165297902Y-105774668D01*
X165271968Y-105726147D01*
X165255997Y-105673499D01*
X165250000Y-105612610D01*
X165250000Y-104387390D01*
X165255997Y-104326501D01*
X165271968Y-104273853D01*
X165297902Y-104225332D01*
X165332805Y-104182805D01*
X165375332Y-104147902D01*
X165423853Y-104121968D01*
X165476501Y-104105997D01*
X165537390Y-104100000D01*
X166337610Y-104100000D01*
X166398499Y-104105997D01*
X166398499Y-104105997D01*
G37*
G36*
X110398499Y-104105997D02*
G01*
X110451147Y-104121968D01*
X110499668Y-104147902D01*
X110542195Y-104182805D01*
X110577098Y-104225332D01*
X110603032Y-104273853D01*
X110619003Y-104326501D01*
X110625000Y-104387390D01*
X110625000Y-105612610D01*
X110619003Y-105673499D01*
X110603032Y-105726147D01*
X110577098Y-105774668D01*
X110542195Y-105817195D01*
X110499668Y-105852098D01*
X110451147Y-105878032D01*
X110398499Y-105894003D01*
X110337610Y-105900000D01*
X109537390Y-105900000D01*
X109476501Y-105894003D01*
X109423853Y-105878032D01*
X109375332Y-105852098D01*
X109332805Y-105817195D01*
X109297902Y-105774668D01*
X109271968Y-105726147D01*
X109255997Y-105673499D01*
X109250000Y-105612610D01*
X109250000Y-104387390D01*
X109255997Y-104326501D01*
X109271968Y-104273853D01*
X109297902Y-104225332D01*
X109332805Y-104182805D01*
X109375332Y-104147902D01*
X109423853Y-104121968D01*
X109476501Y-104105997D01*
X109537390Y-104100000D01*
X110337610Y-104100000D01*
X110398499Y-104105997D01*
X110398499Y-104105997D01*
G37*
G36*
X108523499Y-104105997D02*
G01*
X108576147Y-104121968D01*
X108624668Y-104147902D01*
X108667195Y-104182805D01*
X108702098Y-104225332D01*
X108728032Y-104273853D01*
X108744003Y-104326501D01*
X108750000Y-104387390D01*
X108750000Y-105612610D01*
X108744003Y-105673499D01*
X108728032Y-105726147D01*
X108702098Y-105774668D01*
X108667195Y-105817195D01*
X108624668Y-105852098D01*
X108576147Y-105878032D01*
X108523499Y-105894003D01*
X108462610Y-105900000D01*
X107662390Y-105900000D01*
X107601501Y-105894003D01*
X107548853Y-105878032D01*
X107500332Y-105852098D01*
X107457805Y-105817195D01*
X107422902Y-105774668D01*
X107396968Y-105726147D01*
X107380997Y-105673499D01*
X107375000Y-105612610D01*
X107375000Y-104387390D01*
X107380997Y-104326501D01*
X107396968Y-104273853D01*
X107422902Y-104225332D01*
X107457805Y-104182805D01*
X107500332Y-104147902D01*
X107548853Y-104121968D01*
X107601501Y-104105997D01*
X107662390Y-104100000D01*
X108462610Y-104100000D01*
X108523499Y-104105997D01*
X108523499Y-104105997D01*
G37*
G36*
X99011654Y-101182665D02*
G01*
X99175872Y-101215330D01*
X99485252Y-101343479D01*
X99763687Y-101529523D01*
X100000477Y-101766313D01*
X100186521Y-102044748D01*
X100314670Y-102354128D01*
X100316894Y-102365309D01*
X100378496Y-102675001D01*
X100380000Y-102682565D01*
X100380000Y-103017435D01*
X100314670Y-103345872D01*
X100186521Y-103655252D01*
X100000477Y-103933687D01*
X99763687Y-104170477D01*
X99485252Y-104356521D01*
X99175872Y-104484670D01*
X99011653Y-104517335D01*
X98847437Y-104550000D01*
X98512563Y-104550000D01*
X98348347Y-104517335D01*
X98184128Y-104484670D01*
X97874748Y-104356521D01*
X97596313Y-104170477D01*
X97359523Y-103933687D01*
X97173479Y-103655252D01*
X97045330Y-103345872D01*
X96980000Y-103017435D01*
X96980000Y-102682565D01*
X96981505Y-102675001D01*
X97043106Y-102365309D01*
X97045330Y-102354128D01*
X97173479Y-102044748D01*
X97359523Y-101766313D01*
X97596313Y-101529523D01*
X97874748Y-101343479D01*
X98184128Y-101215330D01*
X98348346Y-101182665D01*
X98512563Y-101150000D01*
X98847437Y-101150000D01*
X99011654Y-101182665D01*
X99011654Y-101182665D01*
G37*
G36*
X121398499Y-102105997D02*
G01*
X121451147Y-102121968D01*
X121499668Y-102147902D01*
X121542195Y-102182805D01*
X121577098Y-102225332D01*
X121603032Y-102273853D01*
X121619003Y-102326501D01*
X121625000Y-102387390D01*
X121625000Y-103612610D01*
X121619003Y-103673499D01*
X121603032Y-103726147D01*
X121577098Y-103774668D01*
X121542195Y-103817195D01*
X121499668Y-103852098D01*
X121451147Y-103878032D01*
X121398499Y-103894003D01*
X121337610Y-103900000D01*
X120537390Y-103900000D01*
X120476501Y-103894003D01*
X120423853Y-103878032D01*
X120375332Y-103852098D01*
X120332805Y-103817195D01*
X120297902Y-103774668D01*
X120271968Y-103726147D01*
X120255997Y-103673499D01*
X120250000Y-103612610D01*
X120250000Y-102387390D01*
X120255997Y-102326501D01*
X120271968Y-102273853D01*
X120297902Y-102225332D01*
X120332805Y-102182805D01*
X120375332Y-102147902D01*
X120423853Y-102121968D01*
X120476501Y-102105997D01*
X120537390Y-102100000D01*
X121337610Y-102100000D01*
X121398499Y-102105997D01*
X121398499Y-102105997D01*
G37*
G36*
X125023499Y-102105997D02*
G01*
X125076147Y-102121968D01*
X125124668Y-102147902D01*
X125167195Y-102182805D01*
X125202098Y-102225332D01*
X125228032Y-102273853D01*
X125244003Y-102326501D01*
X125250000Y-102387390D01*
X125250000Y-103612610D01*
X125244003Y-103673499D01*
X125228032Y-103726147D01*
X125202098Y-103774668D01*
X125167195Y-103817195D01*
X125124668Y-103852098D01*
X125076147Y-103878032D01*
X125023499Y-103894003D01*
X124962610Y-103900000D01*
X124162390Y-103900000D01*
X124101501Y-103894003D01*
X124048853Y-103878032D01*
X124000332Y-103852098D01*
X123957805Y-103817195D01*
X123922902Y-103774668D01*
X123896968Y-103726147D01*
X123880997Y-103673499D01*
X123875000Y-103612610D01*
X123875000Y-102387390D01*
X123880997Y-102326501D01*
X123896968Y-102273853D01*
X123922902Y-102225332D01*
X123957805Y-102182805D01*
X124000332Y-102147902D01*
X124048853Y-102121968D01*
X124101501Y-102105997D01*
X124162390Y-102100000D01*
X124962610Y-102100000D01*
X125023499Y-102105997D01*
X125023499Y-102105997D01*
G37*
G36*
X119523499Y-102105997D02*
G01*
X119576147Y-102121968D01*
X119624668Y-102147902D01*
X119667195Y-102182805D01*
X119702098Y-102225332D01*
X119728032Y-102273853D01*
X119744003Y-102326501D01*
X119750000Y-102387390D01*
X119750000Y-103612610D01*
X119744003Y-103673499D01*
X119728032Y-103726147D01*
X119702098Y-103774668D01*
X119667195Y-103817195D01*
X119624668Y-103852098D01*
X119576147Y-103878032D01*
X119523499Y-103894003D01*
X119462610Y-103900000D01*
X118662390Y-103900000D01*
X118601501Y-103894003D01*
X118548853Y-103878032D01*
X118500332Y-103852098D01*
X118457805Y-103817195D01*
X118422902Y-103774668D01*
X118396968Y-103726147D01*
X118380997Y-103673499D01*
X118375000Y-103612610D01*
X118375000Y-102387390D01*
X118380997Y-102326501D01*
X118396968Y-102273853D01*
X118422902Y-102225332D01*
X118457805Y-102182805D01*
X118500332Y-102147902D01*
X118548853Y-102121968D01*
X118601501Y-102105997D01*
X118662390Y-102100000D01*
X119462610Y-102100000D01*
X119523499Y-102105997D01*
X119523499Y-102105997D01*
G37*
G36*
X115898499Y-102105997D02*
G01*
X115951147Y-102121968D01*
X115999668Y-102147902D01*
X116042195Y-102182805D01*
X116077098Y-102225332D01*
X116103032Y-102273853D01*
X116119003Y-102326501D01*
X116125000Y-102387390D01*
X116125000Y-103612610D01*
X116119003Y-103673499D01*
X116103032Y-103726147D01*
X116077098Y-103774668D01*
X116042195Y-103817195D01*
X115999668Y-103852098D01*
X115951147Y-103878032D01*
X115898499Y-103894003D01*
X115837610Y-103900000D01*
X115037390Y-103900000D01*
X114976501Y-103894003D01*
X114923853Y-103878032D01*
X114875332Y-103852098D01*
X114832805Y-103817195D01*
X114797902Y-103774668D01*
X114771968Y-103726147D01*
X114755997Y-103673499D01*
X114750000Y-103612610D01*
X114750000Y-102387390D01*
X114755997Y-102326501D01*
X114771968Y-102273853D01*
X114797902Y-102225332D01*
X114832805Y-102182805D01*
X114875332Y-102147902D01*
X114923853Y-102121968D01*
X114976501Y-102105997D01*
X115037390Y-102100000D01*
X115837610Y-102100000D01*
X115898499Y-102105997D01*
X115898499Y-102105997D01*
G37*
G36*
X114023499Y-102105997D02*
G01*
X114076147Y-102121968D01*
X114124668Y-102147902D01*
X114167195Y-102182805D01*
X114202098Y-102225332D01*
X114228032Y-102273853D01*
X114244003Y-102326501D01*
X114250000Y-102387390D01*
X114250000Y-103612610D01*
X114244003Y-103673499D01*
X114228032Y-103726147D01*
X114202098Y-103774668D01*
X114167195Y-103817195D01*
X114124668Y-103852098D01*
X114076147Y-103878032D01*
X114023499Y-103894003D01*
X113962610Y-103900000D01*
X113162390Y-103900000D01*
X113101501Y-103894003D01*
X113048853Y-103878032D01*
X113000332Y-103852098D01*
X112957805Y-103817195D01*
X112922902Y-103774668D01*
X112896968Y-103726147D01*
X112880997Y-103673499D01*
X112875000Y-103612610D01*
X112875000Y-102387390D01*
X112880997Y-102326501D01*
X112896968Y-102273853D01*
X112922902Y-102225332D01*
X112957805Y-102182805D01*
X113000332Y-102147902D01*
X113048853Y-102121968D01*
X113101501Y-102105997D01*
X113162390Y-102100000D01*
X113962610Y-102100000D01*
X114023499Y-102105997D01*
X114023499Y-102105997D01*
G37*
G36*
X126898499Y-102105997D02*
G01*
X126951147Y-102121968D01*
X126999668Y-102147902D01*
X127042195Y-102182805D01*
X127077098Y-102225332D01*
X127103032Y-102273853D01*
X127119003Y-102326501D01*
X127125000Y-102387390D01*
X127125000Y-103612610D01*
X127119003Y-103673499D01*
X127103032Y-103726147D01*
X127077098Y-103774668D01*
X127042195Y-103817195D01*
X126999668Y-103852098D01*
X126951147Y-103878032D01*
X126898499Y-103894003D01*
X126837610Y-103900000D01*
X126037390Y-103900000D01*
X125976501Y-103894003D01*
X125923853Y-103878032D01*
X125875332Y-103852098D01*
X125832805Y-103817195D01*
X125797902Y-103774668D01*
X125771968Y-103726147D01*
X125755997Y-103673499D01*
X125750000Y-103612610D01*
X125750000Y-102387390D01*
X125755997Y-102326501D01*
X125771968Y-102273853D01*
X125797902Y-102225332D01*
X125832805Y-102182805D01*
X125875332Y-102147902D01*
X125923853Y-102121968D01*
X125976501Y-102105997D01*
X126037390Y-102100000D01*
X126837610Y-102100000D01*
X126898499Y-102105997D01*
X126898499Y-102105997D01*
G37*
G36*
X103446232Y-101063746D02*
G01*
X103535770Y-101090907D01*
X103625309Y-101118068D01*
X103685049Y-101150000D01*
X103790345Y-101206282D01*
X103790347Y-101206283D01*
X103790346Y-101206283D01*
X103935002Y-101324998D01*
X104053717Y-101469654D01*
X104141932Y-101634691D01*
X104141932Y-101634692D01*
X104196254Y-101813768D01*
X104214596Y-102000000D01*
X104196254Y-102186232D01*
X104184393Y-102225332D01*
X104141932Y-102365309D01*
X104053717Y-102530346D01*
X103935002Y-102675002D01*
X103803315Y-102783073D01*
X103790345Y-102793718D01*
X103713523Y-102834780D01*
X103625309Y-102881932D01*
X103535770Y-102909093D01*
X103446232Y-102936254D01*
X103376448Y-102943127D01*
X103306666Y-102950000D01*
X102693334Y-102950000D01*
X102623552Y-102943127D01*
X102553768Y-102936254D01*
X102464230Y-102909093D01*
X102374691Y-102881932D01*
X102286477Y-102834780D01*
X102209655Y-102793718D01*
X102196685Y-102783073D01*
X102064998Y-102675002D01*
X101946283Y-102530346D01*
X101858068Y-102365309D01*
X101815607Y-102225332D01*
X101803746Y-102186232D01*
X101785404Y-102000000D01*
X101803746Y-101813768D01*
X101858068Y-101634692D01*
X101858068Y-101634691D01*
X101946283Y-101469654D01*
X102064998Y-101324998D01*
X102209654Y-101206283D01*
X102209653Y-101206283D01*
X102209655Y-101206282D01*
X102314951Y-101150000D01*
X102374691Y-101118068D01*
X102464230Y-101090907D01*
X102553768Y-101063746D01*
X102693334Y-101050000D01*
X103306666Y-101050000D01*
X103446232Y-101063746D01*
X103446232Y-101063746D01*
G37*
G36*
X108523499Y-100105997D02*
G01*
X108576147Y-100121968D01*
X108624668Y-100147902D01*
X108667195Y-100182805D01*
X108702098Y-100225332D01*
X108728032Y-100273853D01*
X108744003Y-100326501D01*
X108750000Y-100387390D01*
X108750000Y-101612610D01*
X108744003Y-101673499D01*
X108728032Y-101726147D01*
X108702098Y-101774668D01*
X108667195Y-101817195D01*
X108624668Y-101852098D01*
X108576147Y-101878032D01*
X108523499Y-101894003D01*
X108462610Y-101900000D01*
X107662390Y-101900000D01*
X107601501Y-101894003D01*
X107548853Y-101878032D01*
X107500332Y-101852098D01*
X107457805Y-101817195D01*
X107422902Y-101774668D01*
X107396968Y-101726147D01*
X107380997Y-101673499D01*
X107375000Y-101612610D01*
X107375000Y-100387390D01*
X107380997Y-100326501D01*
X107396968Y-100273853D01*
X107422902Y-100225332D01*
X107457805Y-100182805D01*
X107500332Y-100147902D01*
X107548853Y-100121968D01*
X107601501Y-100105997D01*
X107662390Y-100100000D01*
X108462610Y-100100000D01*
X108523499Y-100105997D01*
X108523499Y-100105997D01*
G37*
G36*
X110398499Y-100105997D02*
G01*
X110451147Y-100121968D01*
X110499668Y-100147902D01*
X110542195Y-100182805D01*
X110577098Y-100225332D01*
X110603032Y-100273853D01*
X110619003Y-100326501D01*
X110625000Y-100387390D01*
X110625000Y-101612610D01*
X110619003Y-101673499D01*
X110603032Y-101726147D01*
X110577098Y-101774668D01*
X110542195Y-101817195D01*
X110499668Y-101852098D01*
X110451147Y-101878032D01*
X110398499Y-101894003D01*
X110337610Y-101900000D01*
X109537390Y-101900000D01*
X109476501Y-101894003D01*
X109423853Y-101878032D01*
X109375332Y-101852098D01*
X109332805Y-101817195D01*
X109297902Y-101774668D01*
X109271968Y-101726147D01*
X109255997Y-101673499D01*
X109250000Y-101612610D01*
X109250000Y-100387390D01*
X109255997Y-100326501D01*
X109271968Y-100273853D01*
X109297902Y-100225332D01*
X109332805Y-100182805D01*
X109375332Y-100147902D01*
X109423853Y-100121968D01*
X109476501Y-100105997D01*
X109537390Y-100100000D01*
X110337610Y-100100000D01*
X110398499Y-100105997D01*
X110398499Y-100105997D01*
G37*
G36*
X103446232Y-98063746D02*
G01*
X103535770Y-98090907D01*
X103625309Y-98118068D01*
X103713523Y-98165220D01*
X103790345Y-98206282D01*
X103790347Y-98206283D01*
X103790346Y-98206283D01*
X103935002Y-98324998D01*
X104053717Y-98469654D01*
X104141932Y-98634691D01*
X104141932Y-98634692D01*
X104190172Y-98793717D01*
X104196254Y-98813769D01*
X104214596Y-99000000D01*
X104196254Y-99186231D01*
X104141932Y-99365309D01*
X104053717Y-99530346D01*
X103935002Y-99675002D01*
X103813557Y-99774668D01*
X103790345Y-99793718D01*
X103713523Y-99834780D01*
X103625309Y-99881932D01*
X103565746Y-99900000D01*
X103446232Y-99936254D01*
X103306666Y-99950000D01*
X102693334Y-99950000D01*
X102553768Y-99936254D01*
X102434254Y-99900000D01*
X102374691Y-99881932D01*
X102286477Y-99834780D01*
X102209655Y-99793718D01*
X102186443Y-99774668D01*
X102064998Y-99675002D01*
X101946283Y-99530346D01*
X101858068Y-99365309D01*
X101803746Y-99186231D01*
X101785404Y-99000000D01*
X101803746Y-98813769D01*
X101809829Y-98793717D01*
X101858068Y-98634692D01*
X101858068Y-98634691D01*
X101946283Y-98469654D01*
X102064998Y-98324998D01*
X102209654Y-98206283D01*
X102209653Y-98206283D01*
X102209655Y-98206282D01*
X102286477Y-98165220D01*
X102374691Y-98118068D01*
X102464230Y-98090907D01*
X102553768Y-98063746D01*
X102693334Y-98050000D01*
X103306666Y-98050000D01*
X103446232Y-98063746D01*
X103446232Y-98063746D01*
G37*
G36*
X126898499Y-98105997D02*
G01*
X126951147Y-98121968D01*
X126999668Y-98147902D01*
X127042195Y-98182805D01*
X127077098Y-98225332D01*
X127103032Y-98273853D01*
X127119003Y-98326501D01*
X127125000Y-98387390D01*
X127125000Y-99612610D01*
X127119003Y-99673499D01*
X127103032Y-99726147D01*
X127077098Y-99774668D01*
X127042195Y-99817195D01*
X126999668Y-99852098D01*
X126951147Y-99878032D01*
X126898499Y-99894003D01*
X126837610Y-99900000D01*
X126037390Y-99900000D01*
X125976501Y-99894003D01*
X125923853Y-99878032D01*
X125875332Y-99852098D01*
X125832805Y-99817195D01*
X125797902Y-99774668D01*
X125771968Y-99726147D01*
X125755997Y-99673499D01*
X125750000Y-99612610D01*
X125750000Y-98387390D01*
X125755997Y-98326501D01*
X125771968Y-98273853D01*
X125797902Y-98225332D01*
X125832805Y-98182805D01*
X125875332Y-98147902D01*
X125923853Y-98121968D01*
X125976501Y-98105997D01*
X126037390Y-98100000D01*
X126837610Y-98100000D01*
X126898499Y-98105997D01*
X126898499Y-98105997D01*
G37*
G36*
X121398499Y-98105997D02*
G01*
X121451147Y-98121968D01*
X121499668Y-98147902D01*
X121542195Y-98182805D01*
X121577098Y-98225332D01*
X121603032Y-98273853D01*
X121619003Y-98326501D01*
X121625000Y-98387390D01*
X121625000Y-99612610D01*
X121619003Y-99673499D01*
X121603032Y-99726147D01*
X121577098Y-99774668D01*
X121542195Y-99817195D01*
X121499668Y-99852098D01*
X121451147Y-99878032D01*
X121398499Y-99894003D01*
X121337610Y-99900000D01*
X120537390Y-99900000D01*
X120476501Y-99894003D01*
X120423853Y-99878032D01*
X120375332Y-99852098D01*
X120332805Y-99817195D01*
X120297902Y-99774668D01*
X120271968Y-99726147D01*
X120255997Y-99673499D01*
X120250000Y-99612610D01*
X120250000Y-98387390D01*
X120255997Y-98326501D01*
X120271968Y-98273853D01*
X120297902Y-98225332D01*
X120332805Y-98182805D01*
X120375332Y-98147902D01*
X120423853Y-98121968D01*
X120476501Y-98105997D01*
X120537390Y-98100000D01*
X121337610Y-98100000D01*
X121398499Y-98105997D01*
X121398499Y-98105997D01*
G37*
G36*
X119523499Y-98105997D02*
G01*
X119576147Y-98121968D01*
X119624668Y-98147902D01*
X119667195Y-98182805D01*
X119702098Y-98225332D01*
X119728032Y-98273853D01*
X119744003Y-98326501D01*
X119750000Y-98387390D01*
X119750000Y-99612610D01*
X119744003Y-99673499D01*
X119728032Y-99726147D01*
X119702098Y-99774668D01*
X119667195Y-99817195D01*
X119624668Y-99852098D01*
X119576147Y-99878032D01*
X119523499Y-99894003D01*
X119462610Y-99900000D01*
X118662390Y-99900000D01*
X118601501Y-99894003D01*
X118548853Y-99878032D01*
X118500332Y-99852098D01*
X118457805Y-99817195D01*
X118422902Y-99774668D01*
X118396968Y-99726147D01*
X118380997Y-99673499D01*
X118375000Y-99612610D01*
X118375000Y-98387390D01*
X118380997Y-98326501D01*
X118396968Y-98273853D01*
X118422902Y-98225332D01*
X118457805Y-98182805D01*
X118500332Y-98147902D01*
X118548853Y-98121968D01*
X118601501Y-98105997D01*
X118662390Y-98100000D01*
X119462610Y-98100000D01*
X119523499Y-98105997D01*
X119523499Y-98105997D01*
G37*
G36*
X125023499Y-98105997D02*
G01*
X125076147Y-98121968D01*
X125124668Y-98147902D01*
X125167195Y-98182805D01*
X125202098Y-98225332D01*
X125228032Y-98273853D01*
X125244003Y-98326501D01*
X125250000Y-98387390D01*
X125250000Y-99612610D01*
X125244003Y-99673499D01*
X125228032Y-99726147D01*
X125202098Y-99774668D01*
X125167195Y-99817195D01*
X125124668Y-99852098D01*
X125076147Y-99878032D01*
X125023499Y-99894003D01*
X124962610Y-99900000D01*
X124162390Y-99900000D01*
X124101501Y-99894003D01*
X124048853Y-99878032D01*
X124000332Y-99852098D01*
X123957805Y-99817195D01*
X123922902Y-99774668D01*
X123896968Y-99726147D01*
X123880997Y-99673499D01*
X123875000Y-99612610D01*
X123875000Y-98387390D01*
X123880997Y-98326501D01*
X123896968Y-98273853D01*
X123922902Y-98225332D01*
X123957805Y-98182805D01*
X124000332Y-98147902D01*
X124048853Y-98121968D01*
X124101501Y-98105997D01*
X124162390Y-98100000D01*
X124962610Y-98100000D01*
X125023499Y-98105997D01*
X125023499Y-98105997D01*
G37*
G36*
X115898499Y-98105997D02*
G01*
X115951147Y-98121968D01*
X115999668Y-98147902D01*
X116042195Y-98182805D01*
X116077098Y-98225332D01*
X116103032Y-98273853D01*
X116119003Y-98326501D01*
X116125000Y-98387390D01*
X116125000Y-99612610D01*
X116119003Y-99673499D01*
X116103032Y-99726147D01*
X116077098Y-99774668D01*
X116042195Y-99817195D01*
X115999668Y-99852098D01*
X115951147Y-99878032D01*
X115898499Y-99894003D01*
X115837610Y-99900000D01*
X115037390Y-99900000D01*
X114976501Y-99894003D01*
X114923853Y-99878032D01*
X114875332Y-99852098D01*
X114832805Y-99817195D01*
X114797902Y-99774668D01*
X114771968Y-99726147D01*
X114755997Y-99673499D01*
X114750000Y-99612610D01*
X114750000Y-98387390D01*
X114755997Y-98326501D01*
X114771968Y-98273853D01*
X114797902Y-98225332D01*
X114832805Y-98182805D01*
X114875332Y-98147902D01*
X114923853Y-98121968D01*
X114976501Y-98105997D01*
X115037390Y-98100000D01*
X115837610Y-98100000D01*
X115898499Y-98105997D01*
X115898499Y-98105997D01*
G37*
G36*
X114023499Y-98105997D02*
G01*
X114076147Y-98121968D01*
X114124668Y-98147902D01*
X114167195Y-98182805D01*
X114202098Y-98225332D01*
X114228032Y-98273853D01*
X114244003Y-98326501D01*
X114250000Y-98387390D01*
X114250000Y-99612610D01*
X114244003Y-99673499D01*
X114228032Y-99726147D01*
X114202098Y-99774668D01*
X114167195Y-99817195D01*
X114124668Y-99852098D01*
X114076147Y-99878032D01*
X114023499Y-99894003D01*
X113962610Y-99900000D01*
X113162390Y-99900000D01*
X113101501Y-99894003D01*
X113048853Y-99878032D01*
X113000332Y-99852098D01*
X112957805Y-99817195D01*
X112922902Y-99774668D01*
X112896968Y-99726147D01*
X112880997Y-99673499D01*
X112875000Y-99612610D01*
X112875000Y-98387390D01*
X112880997Y-98326501D01*
X112896968Y-98273853D01*
X112922902Y-98225332D01*
X112957805Y-98182805D01*
X113000332Y-98147902D01*
X113048853Y-98121968D01*
X113101501Y-98105997D01*
X113162390Y-98100000D01*
X113962610Y-98100000D01*
X114023499Y-98105997D01*
X114023499Y-98105997D01*
G37*
G36*
X172446232Y-97063746D02*
G01*
X172535770Y-97090907D01*
X172625309Y-97118068D01*
X172713523Y-97165220D01*
X172790345Y-97206282D01*
X172790347Y-97206283D01*
X172790346Y-97206283D01*
X172935002Y-97324998D01*
X173053717Y-97469654D01*
X173141932Y-97634691D01*
X173141932Y-97634692D01*
X173196254Y-97813768D01*
X173214596Y-98000000D01*
X173196254Y-98186232D01*
X173184393Y-98225332D01*
X173141932Y-98365309D01*
X173053717Y-98530346D01*
X172935002Y-98675002D01*
X172803316Y-98783073D01*
X172790345Y-98793718D01*
X172752834Y-98813768D01*
X172625309Y-98881932D01*
X172535770Y-98909093D01*
X172446232Y-98936254D01*
X172306666Y-98950000D01*
X171693334Y-98950000D01*
X171553768Y-98936254D01*
X171464230Y-98909093D01*
X171374691Y-98881932D01*
X171247166Y-98813768D01*
X171209655Y-98793718D01*
X171196685Y-98783073D01*
X171064998Y-98675002D01*
X170946283Y-98530346D01*
X170858068Y-98365309D01*
X170815607Y-98225332D01*
X170803746Y-98186232D01*
X170785404Y-98000000D01*
X170803746Y-97813768D01*
X170858068Y-97634692D01*
X170858068Y-97634691D01*
X170946283Y-97469654D01*
X171064998Y-97324998D01*
X171209654Y-97206283D01*
X171209653Y-97206283D01*
X171209655Y-97206282D01*
X171286477Y-97165220D01*
X171374691Y-97118068D01*
X171464230Y-97090907D01*
X171553768Y-97063746D01*
X171693334Y-97050000D01*
X172306666Y-97050000D01*
X172446232Y-97063746D01*
X172446232Y-97063746D01*
G37*
G36*
X176651653Y-94832665D02*
G01*
X176815872Y-94865330D01*
X177125252Y-94993479D01*
X177403687Y-95179523D01*
X177640477Y-95416313D01*
X177826521Y-95694748D01*
X177954670Y-96004128D01*
X177954670Y-96004130D01*
X178020000Y-96332563D01*
X178020000Y-96667437D01*
X177998670Y-96774668D01*
X177954670Y-96995872D01*
X177826521Y-97305252D01*
X177640477Y-97583687D01*
X177403687Y-97820477D01*
X177125252Y-98006521D01*
X176815872Y-98134670D01*
X176651653Y-98167335D01*
X176487437Y-98200000D01*
X176152563Y-98200000D01*
X175988347Y-98167335D01*
X175824128Y-98134670D01*
X175514748Y-98006521D01*
X175236313Y-97820477D01*
X174999523Y-97583687D01*
X174813479Y-97305252D01*
X174685330Y-96995872D01*
X174641330Y-96774668D01*
X174620000Y-96667437D01*
X174620000Y-96332563D01*
X174685330Y-96004130D01*
X174685330Y-96004128D01*
X174813479Y-95694748D01*
X174999523Y-95416313D01*
X175236313Y-95179523D01*
X175514748Y-94993479D01*
X175824128Y-94865330D01*
X175988347Y-94832665D01*
X176152563Y-94800000D01*
X176487437Y-94800000D01*
X176651653Y-94832665D01*
X176651653Y-94832665D01*
G37*
G36*
X108523499Y-96105997D02*
G01*
X108576147Y-96121968D01*
X108624668Y-96147902D01*
X108667195Y-96182805D01*
X108702098Y-96225332D01*
X108728032Y-96273853D01*
X108744003Y-96326501D01*
X108750000Y-96387390D01*
X108750000Y-97612610D01*
X108744003Y-97673499D01*
X108728032Y-97726147D01*
X108702098Y-97774668D01*
X108667195Y-97817195D01*
X108624668Y-97852098D01*
X108576147Y-97878032D01*
X108523499Y-97894003D01*
X108462610Y-97900000D01*
X107662390Y-97900000D01*
X107601501Y-97894003D01*
X107548853Y-97878032D01*
X107500332Y-97852098D01*
X107457805Y-97817195D01*
X107422902Y-97774668D01*
X107396968Y-97726147D01*
X107380997Y-97673499D01*
X107375000Y-97612610D01*
X107375000Y-96387390D01*
X107380997Y-96326501D01*
X107396968Y-96273853D01*
X107422902Y-96225332D01*
X107457805Y-96182805D01*
X107500332Y-96147902D01*
X107548853Y-96121968D01*
X107601501Y-96105997D01*
X107662390Y-96100000D01*
X108462610Y-96100000D01*
X108523499Y-96105997D01*
X108523499Y-96105997D01*
G37*
G36*
X110398499Y-96105997D02*
G01*
X110451147Y-96121968D01*
X110499668Y-96147902D01*
X110542195Y-96182805D01*
X110577098Y-96225332D01*
X110603032Y-96273853D01*
X110619003Y-96326501D01*
X110625000Y-96387390D01*
X110625000Y-97612610D01*
X110619003Y-97673499D01*
X110603032Y-97726147D01*
X110577098Y-97774668D01*
X110542195Y-97817195D01*
X110499668Y-97852098D01*
X110451147Y-97878032D01*
X110398499Y-97894003D01*
X110337610Y-97900000D01*
X109537390Y-97900000D01*
X109476501Y-97894003D01*
X109423853Y-97878032D01*
X109375332Y-97852098D01*
X109332805Y-97817195D01*
X109297902Y-97774668D01*
X109271968Y-97726147D01*
X109255997Y-97673499D01*
X109250000Y-97612610D01*
X109250000Y-96387390D01*
X109255997Y-96326501D01*
X109271968Y-96273853D01*
X109297902Y-96225332D01*
X109332805Y-96182805D01*
X109375332Y-96147902D01*
X109423853Y-96121968D01*
X109476501Y-96105997D01*
X109537390Y-96100000D01*
X110337610Y-96100000D01*
X110398499Y-96105997D01*
X110398499Y-96105997D01*
G37*
G36*
X103376448Y-95056873D02*
G01*
X103446232Y-95063746D01*
X103535770Y-95090907D01*
X103625309Y-95118068D01*
X103713523Y-95165220D01*
X103790345Y-95206282D01*
X103790347Y-95206283D01*
X103790346Y-95206283D01*
X103935002Y-95324998D01*
X104053717Y-95469654D01*
X104141932Y-95634691D01*
X104141932Y-95634692D01*
X104196254Y-95813768D01*
X104214596Y-96000000D01*
X104196254Y-96186232D01*
X104184393Y-96225332D01*
X104141932Y-96365309D01*
X104053717Y-96530346D01*
X103935002Y-96675002D01*
X103813557Y-96774668D01*
X103790345Y-96793718D01*
X103713523Y-96834780D01*
X103625309Y-96881932D01*
X103565746Y-96900000D01*
X103446232Y-96936254D01*
X103376448Y-96943127D01*
X103306666Y-96950000D01*
X102693334Y-96950000D01*
X102623552Y-96943127D01*
X102553768Y-96936254D01*
X102434254Y-96900000D01*
X102374691Y-96881932D01*
X102286477Y-96834780D01*
X102209655Y-96793718D01*
X102186443Y-96774668D01*
X102064998Y-96675002D01*
X101946283Y-96530346D01*
X101858068Y-96365309D01*
X101815607Y-96225332D01*
X101803746Y-96186232D01*
X101785404Y-96000000D01*
X101803746Y-95813768D01*
X101858068Y-95634692D01*
X101858068Y-95634691D01*
X101946283Y-95469654D01*
X102064998Y-95324998D01*
X102209654Y-95206283D01*
X102209653Y-95206283D01*
X102209655Y-95206282D01*
X102286477Y-95165220D01*
X102374691Y-95118068D01*
X102464230Y-95090907D01*
X102553768Y-95063746D01*
X102623552Y-95056873D01*
X102693334Y-95050000D01*
X103306666Y-95050000D01*
X103376448Y-95056873D01*
X103376448Y-95056873D01*
G37*
G36*
X158023499Y-95105997D02*
G01*
X158076147Y-95121968D01*
X158124668Y-95147902D01*
X158167195Y-95182805D01*
X158202098Y-95225332D01*
X158228032Y-95273853D01*
X158244003Y-95326501D01*
X158250000Y-95387390D01*
X158250000Y-96612610D01*
X158244003Y-96673499D01*
X158228032Y-96726147D01*
X158202098Y-96774668D01*
X158167195Y-96817195D01*
X158124668Y-96852098D01*
X158076147Y-96878032D01*
X158023499Y-96894003D01*
X157962610Y-96900000D01*
X157162390Y-96900000D01*
X157101501Y-96894003D01*
X157048853Y-96878032D01*
X157000332Y-96852098D01*
X156957805Y-96817195D01*
X156922902Y-96774668D01*
X156896968Y-96726147D01*
X156880997Y-96673499D01*
X156875000Y-96612610D01*
X156875000Y-95387390D01*
X156880997Y-95326501D01*
X156896968Y-95273853D01*
X156922902Y-95225332D01*
X156957805Y-95182805D01*
X157000332Y-95147902D01*
X157048853Y-95121968D01*
X157101501Y-95105997D01*
X157162390Y-95100000D01*
X157962610Y-95100000D01*
X158023499Y-95105997D01*
X158023499Y-95105997D01*
G37*
G36*
X154898499Y-95105997D02*
G01*
X154951147Y-95121968D01*
X154999668Y-95147902D01*
X155042195Y-95182805D01*
X155077098Y-95225332D01*
X155103032Y-95273853D01*
X155119003Y-95326501D01*
X155125000Y-95387390D01*
X155125000Y-96612610D01*
X155119003Y-96673499D01*
X155103032Y-96726147D01*
X155077098Y-96774668D01*
X155042195Y-96817195D01*
X154999668Y-96852098D01*
X154951147Y-96878032D01*
X154898499Y-96894003D01*
X154837610Y-96900000D01*
X154037390Y-96900000D01*
X153976501Y-96894003D01*
X153923853Y-96878032D01*
X153875332Y-96852098D01*
X153832805Y-96817195D01*
X153797902Y-96774668D01*
X153771968Y-96726147D01*
X153755997Y-96673499D01*
X153750000Y-96612610D01*
X153750000Y-95387390D01*
X153755997Y-95326501D01*
X153771968Y-95273853D01*
X153797902Y-95225332D01*
X153832805Y-95182805D01*
X153875332Y-95147902D01*
X153923853Y-95121968D01*
X153976501Y-95105997D01*
X154037390Y-95100000D01*
X154837610Y-95100000D01*
X154898499Y-95105997D01*
X154898499Y-95105997D01*
G37*
G36*
X153023499Y-95105997D02*
G01*
X153076147Y-95121968D01*
X153124668Y-95147902D01*
X153167195Y-95182805D01*
X153202098Y-95225332D01*
X153228032Y-95273853D01*
X153244003Y-95326501D01*
X153250000Y-95387390D01*
X153250000Y-96612610D01*
X153244003Y-96673499D01*
X153228032Y-96726147D01*
X153202098Y-96774668D01*
X153167195Y-96817195D01*
X153124668Y-96852098D01*
X153076147Y-96878032D01*
X153023499Y-96894003D01*
X152962610Y-96900000D01*
X152162390Y-96900000D01*
X152101501Y-96894003D01*
X152048853Y-96878032D01*
X152000332Y-96852098D01*
X151957805Y-96817195D01*
X151922902Y-96774668D01*
X151896968Y-96726147D01*
X151880997Y-96673499D01*
X151875000Y-96612610D01*
X151875000Y-95387390D01*
X151880997Y-95326501D01*
X151896968Y-95273853D01*
X151922902Y-95225332D01*
X151957805Y-95182805D01*
X152000332Y-95147902D01*
X152048853Y-95121968D01*
X152101501Y-95105997D01*
X152162390Y-95100000D01*
X152962610Y-95100000D01*
X153023499Y-95105997D01*
X153023499Y-95105997D01*
G37*
G36*
X159898499Y-95105997D02*
G01*
X159951147Y-95121968D01*
X159999668Y-95147902D01*
X160042195Y-95182805D01*
X160077098Y-95225332D01*
X160103032Y-95273853D01*
X160119003Y-95326501D01*
X160125000Y-95387390D01*
X160125000Y-96612610D01*
X160119003Y-96673499D01*
X160103032Y-96726147D01*
X160077098Y-96774668D01*
X160042195Y-96817195D01*
X159999668Y-96852098D01*
X159951147Y-96878032D01*
X159898499Y-96894003D01*
X159837610Y-96900000D01*
X159037390Y-96900000D01*
X158976501Y-96894003D01*
X158923853Y-96878032D01*
X158875332Y-96852098D01*
X158832805Y-96817195D01*
X158797902Y-96774668D01*
X158771968Y-96726147D01*
X158755997Y-96673499D01*
X158750000Y-96612610D01*
X158750000Y-95387390D01*
X158755997Y-95326501D01*
X158771968Y-95273853D01*
X158797902Y-95225332D01*
X158832805Y-95182805D01*
X158875332Y-95147902D01*
X158923853Y-95121968D01*
X158976501Y-95105997D01*
X159037390Y-95100000D01*
X159837610Y-95100000D01*
X159898499Y-95105997D01*
X159898499Y-95105997D01*
G37*
G36*
X173022067Y-94055076D02*
G01*
X173065728Y-94068320D01*
X173105964Y-94089827D01*
X173141231Y-94118769D01*
X173170173Y-94154036D01*
X173191680Y-94194272D01*
X173204924Y-94237933D01*
X173210000Y-94289474D01*
X173210000Y-95710526D01*
X173204924Y-95762067D01*
X173191680Y-95805728D01*
X173170173Y-95845964D01*
X173141231Y-95881231D01*
X173105964Y-95910173D01*
X173065728Y-95931680D01*
X173022067Y-95944924D01*
X172970526Y-95950000D01*
X171029474Y-95950000D01*
X170977933Y-95944924D01*
X170934272Y-95931680D01*
X170894036Y-95910173D01*
X170858769Y-95881231D01*
X170829827Y-95845964D01*
X170808320Y-95805728D01*
X170795076Y-95762067D01*
X170790000Y-95710526D01*
X170790000Y-94289474D01*
X170795076Y-94237933D01*
X170808320Y-94194272D01*
X170829827Y-94154036D01*
X170858769Y-94118769D01*
X170894036Y-94089827D01*
X170934272Y-94068320D01*
X170977933Y-94055076D01*
X171029474Y-94050000D01*
X172970526Y-94050000D01*
X173022067Y-94055076D01*
X173022067Y-94055076D01*
G37*
G36*
X114023499Y-94105997D02*
G01*
X114076147Y-94121968D01*
X114124668Y-94147902D01*
X114167195Y-94182805D01*
X114202098Y-94225332D01*
X114228032Y-94273853D01*
X114244003Y-94326501D01*
X114250000Y-94387390D01*
X114250000Y-95612610D01*
X114244003Y-95673499D01*
X114228032Y-95726147D01*
X114202098Y-95774668D01*
X114167195Y-95817195D01*
X114124668Y-95852098D01*
X114076147Y-95878032D01*
X114023499Y-95894003D01*
X113962610Y-95900000D01*
X113162390Y-95900000D01*
X113101501Y-95894003D01*
X113048853Y-95878032D01*
X113000332Y-95852098D01*
X112957805Y-95817195D01*
X112922902Y-95774668D01*
X112896968Y-95726147D01*
X112880997Y-95673499D01*
X112875000Y-95612610D01*
X112875000Y-94387390D01*
X112880997Y-94326501D01*
X112896968Y-94273853D01*
X112922902Y-94225332D01*
X112957805Y-94182805D01*
X113000332Y-94147902D01*
X113048853Y-94121968D01*
X113101501Y-94105997D01*
X113162390Y-94100000D01*
X113962610Y-94100000D01*
X114023499Y-94105997D01*
X114023499Y-94105997D01*
G37*
G36*
X125023499Y-94105997D02*
G01*
X125076147Y-94121968D01*
X125124668Y-94147902D01*
X125167195Y-94182805D01*
X125202098Y-94225332D01*
X125228032Y-94273853D01*
X125244003Y-94326501D01*
X125250000Y-94387390D01*
X125250000Y-95612610D01*
X125244003Y-95673499D01*
X125228032Y-95726147D01*
X125202098Y-95774668D01*
X125167195Y-95817195D01*
X125124668Y-95852098D01*
X125076147Y-95878032D01*
X125023499Y-95894003D01*
X124962610Y-95900000D01*
X124162390Y-95900000D01*
X124101501Y-95894003D01*
X124048853Y-95878032D01*
X124000332Y-95852098D01*
X123957805Y-95817195D01*
X123922902Y-95774668D01*
X123896968Y-95726147D01*
X123880997Y-95673499D01*
X123875000Y-95612610D01*
X123875000Y-94387390D01*
X123880997Y-94326501D01*
X123896968Y-94273853D01*
X123922902Y-94225332D01*
X123957805Y-94182805D01*
X124000332Y-94147902D01*
X124048853Y-94121968D01*
X124101501Y-94105997D01*
X124162390Y-94100000D01*
X124962610Y-94100000D01*
X125023499Y-94105997D01*
X125023499Y-94105997D01*
G37*
G36*
X121398499Y-94105997D02*
G01*
X121451147Y-94121968D01*
X121499668Y-94147902D01*
X121542195Y-94182805D01*
X121577098Y-94225332D01*
X121603032Y-94273853D01*
X121619003Y-94326501D01*
X121625000Y-94387390D01*
X121625000Y-95612610D01*
X121619003Y-95673499D01*
X121603032Y-95726147D01*
X121577098Y-95774668D01*
X121542195Y-95817195D01*
X121499668Y-95852098D01*
X121451147Y-95878032D01*
X121398499Y-95894003D01*
X121337610Y-95900000D01*
X120537390Y-95900000D01*
X120476501Y-95894003D01*
X120423853Y-95878032D01*
X120375332Y-95852098D01*
X120332805Y-95817195D01*
X120297902Y-95774668D01*
X120271968Y-95726147D01*
X120255997Y-95673499D01*
X120250000Y-95612610D01*
X120250000Y-94387390D01*
X120255997Y-94326501D01*
X120271968Y-94273853D01*
X120297902Y-94225332D01*
X120332805Y-94182805D01*
X120375332Y-94147902D01*
X120423853Y-94121968D01*
X120476501Y-94105997D01*
X120537390Y-94100000D01*
X121337610Y-94100000D01*
X121398499Y-94105997D01*
X121398499Y-94105997D01*
G37*
G36*
X119523499Y-94105997D02*
G01*
X119576147Y-94121968D01*
X119624668Y-94147902D01*
X119667195Y-94182805D01*
X119702098Y-94225332D01*
X119728032Y-94273853D01*
X119744003Y-94326501D01*
X119750000Y-94387390D01*
X119750000Y-95612610D01*
X119744003Y-95673499D01*
X119728032Y-95726147D01*
X119702098Y-95774668D01*
X119667195Y-95817195D01*
X119624668Y-95852098D01*
X119576147Y-95878032D01*
X119523499Y-95894003D01*
X119462610Y-95900000D01*
X118662390Y-95900000D01*
X118601501Y-95894003D01*
X118548853Y-95878032D01*
X118500332Y-95852098D01*
X118457805Y-95817195D01*
X118422902Y-95774668D01*
X118396968Y-95726147D01*
X118380997Y-95673499D01*
X118375000Y-95612610D01*
X118375000Y-94387390D01*
X118380997Y-94326501D01*
X118396968Y-94273853D01*
X118422902Y-94225332D01*
X118457805Y-94182805D01*
X118500332Y-94147902D01*
X118548853Y-94121968D01*
X118601501Y-94105997D01*
X118662390Y-94100000D01*
X119462610Y-94100000D01*
X119523499Y-94105997D01*
X119523499Y-94105997D01*
G37*
G36*
X115898499Y-94105997D02*
G01*
X115951147Y-94121968D01*
X115999668Y-94147902D01*
X116042195Y-94182805D01*
X116077098Y-94225332D01*
X116103032Y-94273853D01*
X116119003Y-94326501D01*
X116125000Y-94387390D01*
X116125000Y-95612610D01*
X116119003Y-95673499D01*
X116103032Y-95726147D01*
X116077098Y-95774668D01*
X116042195Y-95817195D01*
X115999668Y-95852098D01*
X115951147Y-95878032D01*
X115898499Y-95894003D01*
X115837610Y-95900000D01*
X115037390Y-95900000D01*
X114976501Y-95894003D01*
X114923853Y-95878032D01*
X114875332Y-95852098D01*
X114832805Y-95817195D01*
X114797902Y-95774668D01*
X114771968Y-95726147D01*
X114755997Y-95673499D01*
X114750000Y-95612610D01*
X114750000Y-94387390D01*
X114755997Y-94326501D01*
X114771968Y-94273853D01*
X114797902Y-94225332D01*
X114832805Y-94182805D01*
X114875332Y-94147902D01*
X114923853Y-94121968D01*
X114976501Y-94105997D01*
X115037390Y-94100000D01*
X115837610Y-94100000D01*
X115898499Y-94105997D01*
X115898499Y-94105997D01*
G37*
G36*
X126898499Y-94105997D02*
G01*
X126951147Y-94121968D01*
X126999668Y-94147902D01*
X127042195Y-94182805D01*
X127077098Y-94225332D01*
X127103032Y-94273853D01*
X127119003Y-94326501D01*
X127125000Y-94387390D01*
X127125000Y-95612610D01*
X127119003Y-95673499D01*
X127103032Y-95726147D01*
X127077098Y-95774668D01*
X127042195Y-95817195D01*
X126999668Y-95852098D01*
X126951147Y-95878032D01*
X126898499Y-95894003D01*
X126837610Y-95900000D01*
X126037390Y-95900000D01*
X125976501Y-95894003D01*
X125923853Y-95878032D01*
X125875332Y-95852098D01*
X125832805Y-95817195D01*
X125797902Y-95774668D01*
X125771968Y-95726147D01*
X125755997Y-95673499D01*
X125750000Y-95612610D01*
X125750000Y-94387390D01*
X125755997Y-94326501D01*
X125771968Y-94273853D01*
X125797902Y-94225332D01*
X125832805Y-94182805D01*
X125875332Y-94147902D01*
X125923853Y-94121968D01*
X125976501Y-94105997D01*
X126037390Y-94100000D01*
X126837610Y-94100000D01*
X126898499Y-94105997D01*
X126898499Y-94105997D01*
G37*
G36*
X103376448Y-92056873D02*
G01*
X103446232Y-92063746D01*
X103535770Y-92090907D01*
X103625309Y-92118068D01*
X103713523Y-92165220D01*
X103790345Y-92206282D01*
X103790347Y-92206283D01*
X103790346Y-92206283D01*
X103935002Y-92324998D01*
X104053717Y-92469654D01*
X104141932Y-92634691D01*
X104196254Y-92813769D01*
X104214596Y-93000000D01*
X104196254Y-93186231D01*
X104141932Y-93365309D01*
X104053717Y-93530346D01*
X103935002Y-93675002D01*
X103813557Y-93774668D01*
X103790345Y-93793718D01*
X103713523Y-93834780D01*
X103625309Y-93881932D01*
X103565746Y-93900000D01*
X103446232Y-93936254D01*
X103376448Y-93943127D01*
X103306666Y-93950000D01*
X102693334Y-93950000D01*
X102623552Y-93943127D01*
X102553768Y-93936254D01*
X102434254Y-93900000D01*
X102374691Y-93881932D01*
X102286477Y-93834780D01*
X102209655Y-93793718D01*
X102186443Y-93774668D01*
X102064998Y-93675002D01*
X101946283Y-93530346D01*
X101858068Y-93365309D01*
X101803746Y-93186231D01*
X101785404Y-93000000D01*
X101803746Y-92813769D01*
X101858068Y-92634691D01*
X101946283Y-92469654D01*
X102064998Y-92324998D01*
X102209654Y-92206283D01*
X102209653Y-92206283D01*
X102209655Y-92206282D01*
X102286477Y-92165220D01*
X102374691Y-92118068D01*
X102464230Y-92090907D01*
X102553768Y-92063746D01*
X102623552Y-92056873D01*
X102693334Y-92050000D01*
X103306666Y-92050000D01*
X103376448Y-92056873D01*
X103376448Y-92056873D01*
G37*
G36*
X110398499Y-92105997D02*
G01*
X110451147Y-92121968D01*
X110499668Y-92147902D01*
X110542195Y-92182805D01*
X110577098Y-92225332D01*
X110603032Y-92273853D01*
X110619003Y-92326501D01*
X110625000Y-92387390D01*
X110625000Y-93612610D01*
X110619003Y-93673499D01*
X110603032Y-93726147D01*
X110577098Y-93774668D01*
X110542195Y-93817195D01*
X110499668Y-93852098D01*
X110451147Y-93878032D01*
X110398499Y-93894003D01*
X110337610Y-93900000D01*
X109537390Y-93900000D01*
X109476501Y-93894003D01*
X109423853Y-93878032D01*
X109375332Y-93852098D01*
X109332805Y-93817195D01*
X109297902Y-93774668D01*
X109271968Y-93726147D01*
X109255997Y-93673499D01*
X109250000Y-93612610D01*
X109250000Y-92387390D01*
X109255997Y-92326501D01*
X109271968Y-92273853D01*
X109297902Y-92225332D01*
X109332805Y-92182805D01*
X109375332Y-92147902D01*
X109423853Y-92121968D01*
X109476501Y-92105997D01*
X109537390Y-92100000D01*
X110337610Y-92100000D01*
X110398499Y-92105997D01*
X110398499Y-92105997D01*
G37*
G36*
X108523499Y-92105997D02*
G01*
X108576147Y-92121968D01*
X108624668Y-92147902D01*
X108667195Y-92182805D01*
X108702098Y-92225332D01*
X108728032Y-92273853D01*
X108744003Y-92326501D01*
X108750000Y-92387390D01*
X108750000Y-93612610D01*
X108744003Y-93673499D01*
X108728032Y-93726147D01*
X108702098Y-93774668D01*
X108667195Y-93817195D01*
X108624668Y-93852098D01*
X108576147Y-93878032D01*
X108523499Y-93894003D01*
X108462610Y-93900000D01*
X107662390Y-93900000D01*
X107601501Y-93894003D01*
X107548853Y-93878032D01*
X107500332Y-93852098D01*
X107457805Y-93817195D01*
X107422902Y-93774668D01*
X107396968Y-93726147D01*
X107380997Y-93673499D01*
X107375000Y-93612610D01*
X107375000Y-92387390D01*
X107380997Y-92326501D01*
X107396968Y-92273853D01*
X107422902Y-92225332D01*
X107457805Y-92182805D01*
X107500332Y-92147902D01*
X107548853Y-92121968D01*
X107601501Y-92105997D01*
X107662390Y-92100000D01*
X108462610Y-92100000D01*
X108523499Y-92105997D01*
X108523499Y-92105997D01*
G37*
G36*
X121398499Y-90105997D02*
G01*
X121451147Y-90121968D01*
X121499668Y-90147902D01*
X121542195Y-90182805D01*
X121577098Y-90225332D01*
X121603032Y-90273853D01*
X121619003Y-90326501D01*
X121625000Y-90387390D01*
X121625000Y-91612610D01*
X121619003Y-91673499D01*
X121603032Y-91726147D01*
X121577098Y-91774668D01*
X121542195Y-91817195D01*
X121499668Y-91852098D01*
X121451147Y-91878032D01*
X121398499Y-91894003D01*
X121337610Y-91900000D01*
X120537390Y-91900000D01*
X120476501Y-91894003D01*
X120423853Y-91878032D01*
X120375332Y-91852098D01*
X120332805Y-91817195D01*
X120297902Y-91774668D01*
X120271968Y-91726147D01*
X120255997Y-91673499D01*
X120250000Y-91612610D01*
X120250000Y-90387390D01*
X120255997Y-90326501D01*
X120271968Y-90273853D01*
X120297902Y-90225332D01*
X120332805Y-90182805D01*
X120375332Y-90147902D01*
X120423853Y-90121968D01*
X120476501Y-90105997D01*
X120537390Y-90100000D01*
X121337610Y-90100000D01*
X121398499Y-90105997D01*
X121398499Y-90105997D01*
G37*
G36*
X115898499Y-90105997D02*
G01*
X115951147Y-90121968D01*
X115999668Y-90147902D01*
X116042195Y-90182805D01*
X116077098Y-90225332D01*
X116103032Y-90273853D01*
X116119003Y-90326501D01*
X116125000Y-90387390D01*
X116125000Y-91612610D01*
X116119003Y-91673499D01*
X116103032Y-91726147D01*
X116077098Y-91774668D01*
X116042195Y-91817195D01*
X115999668Y-91852098D01*
X115951147Y-91878032D01*
X115898499Y-91894003D01*
X115837610Y-91900000D01*
X115037390Y-91900000D01*
X114976501Y-91894003D01*
X114923853Y-91878032D01*
X114875332Y-91852098D01*
X114832805Y-91817195D01*
X114797902Y-91774668D01*
X114771968Y-91726147D01*
X114755997Y-91673499D01*
X114750000Y-91612610D01*
X114750000Y-90387390D01*
X114755997Y-90326501D01*
X114771968Y-90273853D01*
X114797902Y-90225332D01*
X114832805Y-90182805D01*
X114875332Y-90147902D01*
X114923853Y-90121968D01*
X114976501Y-90105997D01*
X115037390Y-90100000D01*
X115837610Y-90100000D01*
X115898499Y-90105997D01*
X115898499Y-90105997D01*
G37*
G36*
X126898499Y-90105997D02*
G01*
X126951147Y-90121968D01*
X126999668Y-90147902D01*
X127042195Y-90182805D01*
X127077098Y-90225332D01*
X127103032Y-90273853D01*
X127119003Y-90326501D01*
X127125000Y-90387390D01*
X127125000Y-91612610D01*
X127119003Y-91673499D01*
X127103032Y-91726147D01*
X127077098Y-91774668D01*
X127042195Y-91817195D01*
X126999668Y-91852098D01*
X126951147Y-91878032D01*
X126898499Y-91894003D01*
X126837610Y-91900000D01*
X126037390Y-91900000D01*
X125976501Y-91894003D01*
X125923853Y-91878032D01*
X125875332Y-91852098D01*
X125832805Y-91817195D01*
X125797902Y-91774668D01*
X125771968Y-91726147D01*
X125755997Y-91673499D01*
X125750000Y-91612610D01*
X125750000Y-90387390D01*
X125755997Y-90326501D01*
X125771968Y-90273853D01*
X125797902Y-90225332D01*
X125832805Y-90182805D01*
X125875332Y-90147902D01*
X125923853Y-90121968D01*
X125976501Y-90105997D01*
X126037390Y-90100000D01*
X126837610Y-90100000D01*
X126898499Y-90105997D01*
X126898499Y-90105997D01*
G37*
G36*
X125023499Y-90105997D02*
G01*
X125076147Y-90121968D01*
X125124668Y-90147902D01*
X125167195Y-90182805D01*
X125202098Y-90225332D01*
X125228032Y-90273853D01*
X125244003Y-90326501D01*
X125250000Y-90387390D01*
X125250000Y-91612610D01*
X125244003Y-91673499D01*
X125228032Y-91726147D01*
X125202098Y-91774668D01*
X125167195Y-91817195D01*
X125124668Y-91852098D01*
X125076147Y-91878032D01*
X125023499Y-91894003D01*
X124962610Y-91900000D01*
X124162390Y-91900000D01*
X124101501Y-91894003D01*
X124048853Y-91878032D01*
X124000332Y-91852098D01*
X123957805Y-91817195D01*
X123922902Y-91774668D01*
X123896968Y-91726147D01*
X123880997Y-91673499D01*
X123875000Y-91612610D01*
X123875000Y-90387390D01*
X123880997Y-90326501D01*
X123896968Y-90273853D01*
X123922902Y-90225332D01*
X123957805Y-90182805D01*
X124000332Y-90147902D01*
X124048853Y-90121968D01*
X124101501Y-90105997D01*
X124162390Y-90100000D01*
X124962610Y-90100000D01*
X125023499Y-90105997D01*
X125023499Y-90105997D01*
G37*
G36*
X114023499Y-90105997D02*
G01*
X114076147Y-90121968D01*
X114124668Y-90147902D01*
X114167195Y-90182805D01*
X114202098Y-90225332D01*
X114228032Y-90273853D01*
X114244003Y-90326501D01*
X114250000Y-90387390D01*
X114250000Y-91612610D01*
X114244003Y-91673499D01*
X114228032Y-91726147D01*
X114202098Y-91774668D01*
X114167195Y-91817195D01*
X114124668Y-91852098D01*
X114076147Y-91878032D01*
X114023499Y-91894003D01*
X113962610Y-91900000D01*
X113162390Y-91900000D01*
X113101501Y-91894003D01*
X113048853Y-91878032D01*
X113000332Y-91852098D01*
X112957805Y-91817195D01*
X112922902Y-91774668D01*
X112896968Y-91726147D01*
X112880997Y-91673499D01*
X112875000Y-91612610D01*
X112875000Y-90387390D01*
X112880997Y-90326501D01*
X112896968Y-90273853D01*
X112922902Y-90225332D01*
X112957805Y-90182805D01*
X113000332Y-90147902D01*
X113048853Y-90121968D01*
X113101501Y-90105997D01*
X113162390Y-90100000D01*
X113962610Y-90100000D01*
X114023499Y-90105997D01*
X114023499Y-90105997D01*
G37*
G36*
X119523499Y-90105997D02*
G01*
X119576147Y-90121968D01*
X119624668Y-90147902D01*
X119667195Y-90182805D01*
X119702098Y-90225332D01*
X119728032Y-90273853D01*
X119744003Y-90326501D01*
X119750000Y-90387390D01*
X119750000Y-91612610D01*
X119744003Y-91673499D01*
X119728032Y-91726147D01*
X119702098Y-91774668D01*
X119667195Y-91817195D01*
X119624668Y-91852098D01*
X119576147Y-91878032D01*
X119523499Y-91894003D01*
X119462610Y-91900000D01*
X118662390Y-91900000D01*
X118601501Y-91894003D01*
X118548853Y-91878032D01*
X118500332Y-91852098D01*
X118457805Y-91817195D01*
X118422902Y-91774668D01*
X118396968Y-91726147D01*
X118380997Y-91673499D01*
X118375000Y-91612610D01*
X118375000Y-90387390D01*
X118380997Y-90326501D01*
X118396968Y-90273853D01*
X118422902Y-90225332D01*
X118457805Y-90182805D01*
X118500332Y-90147902D01*
X118548853Y-90121968D01*
X118601501Y-90105997D01*
X118662390Y-90100000D01*
X119462610Y-90100000D01*
X119523499Y-90105997D01*
X119523499Y-90105997D01*
G37*
G36*
X103446232Y-89063746D02*
G01*
X103535770Y-89090907D01*
X103625309Y-89118068D01*
X103656548Y-89134766D01*
X103790345Y-89206282D01*
X103790347Y-89206283D01*
X103790346Y-89206283D01*
X103935002Y-89324998D01*
X104053717Y-89469654D01*
X104141932Y-89634691D01*
X104153704Y-89673499D01*
X104196254Y-89813768D01*
X104214596Y-90000000D01*
X104196254Y-90186232D01*
X104184393Y-90225332D01*
X104141932Y-90365309D01*
X104053717Y-90530346D01*
X103935002Y-90675002D01*
X103803316Y-90783073D01*
X103790345Y-90793718D01*
X103713523Y-90834780D01*
X103625309Y-90881932D01*
X103535770Y-90909093D01*
X103446232Y-90936254D01*
X103306666Y-90950000D01*
X102693334Y-90950000D01*
X102553768Y-90936254D01*
X102464230Y-90909093D01*
X102374691Y-90881932D01*
X102286477Y-90834780D01*
X102209655Y-90793718D01*
X102196684Y-90783073D01*
X102064998Y-90675002D01*
X101946283Y-90530346D01*
X101858068Y-90365309D01*
X101815607Y-90225332D01*
X101803746Y-90186232D01*
X101785404Y-90000000D01*
X101803746Y-89813768D01*
X101846296Y-89673499D01*
X101858068Y-89634691D01*
X101946283Y-89469654D01*
X102064998Y-89324998D01*
X102209654Y-89206283D01*
X102209653Y-89206283D01*
X102209655Y-89206282D01*
X102343452Y-89134766D01*
X102374691Y-89118068D01*
X102464230Y-89090907D01*
X102553768Y-89063746D01*
X102693334Y-89050000D01*
X103306666Y-89050000D01*
X103446232Y-89063746D01*
X103446232Y-89063746D01*
G37*
G36*
X99011653Y-87482665D02*
G01*
X99175872Y-87515330D01*
X99485252Y-87643479D01*
X99763687Y-87829523D01*
X100000477Y-88066313D01*
X100186521Y-88344748D01*
X100314670Y-88654128D01*
X100314670Y-88654130D01*
X100380000Y-88982563D01*
X100380000Y-89317437D01*
X100349722Y-89469654D01*
X100314670Y-89645872D01*
X100186521Y-89955252D01*
X100000477Y-90233687D01*
X99763687Y-90470477D01*
X99485252Y-90656521D01*
X99175872Y-90784670D01*
X99011654Y-90817335D01*
X98847437Y-90850000D01*
X98512563Y-90850000D01*
X98348346Y-90817335D01*
X98184128Y-90784670D01*
X97874748Y-90656521D01*
X97596313Y-90470477D01*
X97359523Y-90233687D01*
X97173479Y-89955252D01*
X97045330Y-89645872D01*
X97010278Y-89469654D01*
X96980000Y-89317437D01*
X96980000Y-88982563D01*
X97045330Y-88654130D01*
X97045330Y-88654128D01*
X97173479Y-88344748D01*
X97359523Y-88066313D01*
X97596313Y-87829523D01*
X97874748Y-87643479D01*
X98184128Y-87515330D01*
X98348347Y-87482665D01*
X98512563Y-87450000D01*
X98847437Y-87450000D01*
X99011653Y-87482665D01*
X99011653Y-87482665D01*
G37*
G36*
X108523499Y-88105997D02*
G01*
X108576147Y-88121968D01*
X108624668Y-88147902D01*
X108667195Y-88182805D01*
X108702098Y-88225332D01*
X108728032Y-88273853D01*
X108744003Y-88326501D01*
X108750000Y-88387390D01*
X108750000Y-89612610D01*
X108744003Y-89673499D01*
X108728032Y-89726147D01*
X108702098Y-89774668D01*
X108667195Y-89817195D01*
X108624668Y-89852098D01*
X108576147Y-89878032D01*
X108523499Y-89894003D01*
X108462610Y-89900000D01*
X107662390Y-89900000D01*
X107601501Y-89894003D01*
X107548853Y-89878032D01*
X107500332Y-89852098D01*
X107457805Y-89817195D01*
X107422902Y-89774668D01*
X107396968Y-89726147D01*
X107380997Y-89673499D01*
X107375000Y-89612610D01*
X107375000Y-88387390D01*
X107380997Y-88326501D01*
X107396968Y-88273853D01*
X107422902Y-88225332D01*
X107457805Y-88182805D01*
X107500332Y-88147902D01*
X107548853Y-88121968D01*
X107601501Y-88105997D01*
X107662390Y-88100000D01*
X108462610Y-88100000D01*
X108523499Y-88105997D01*
X108523499Y-88105997D01*
G37*
G36*
X110398499Y-88105997D02*
G01*
X110451147Y-88121968D01*
X110499668Y-88147902D01*
X110542195Y-88182805D01*
X110577098Y-88225332D01*
X110603032Y-88273853D01*
X110619003Y-88326501D01*
X110625000Y-88387390D01*
X110625000Y-89612610D01*
X110619003Y-89673499D01*
X110603032Y-89726147D01*
X110577098Y-89774668D01*
X110542195Y-89817195D01*
X110499668Y-89852098D01*
X110451147Y-89878032D01*
X110398499Y-89894003D01*
X110337610Y-89900000D01*
X109537390Y-89900000D01*
X109476501Y-89894003D01*
X109423853Y-89878032D01*
X109375332Y-89852098D01*
X109332805Y-89817195D01*
X109297902Y-89774668D01*
X109271968Y-89726147D01*
X109255997Y-89673499D01*
X109250000Y-89612610D01*
X109250000Y-88387390D01*
X109255997Y-88326501D01*
X109271968Y-88273853D01*
X109297902Y-88225332D01*
X109332805Y-88182805D01*
X109375332Y-88147902D01*
X109423853Y-88121968D01*
X109476501Y-88105997D01*
X109537390Y-88100000D01*
X110337610Y-88100000D01*
X110398499Y-88105997D01*
X110398499Y-88105997D01*
G37*
G36*
X142596500Y-89327000D02*
G01*
X140545500Y-89327000D01*
X140545500Y-77173000D01*
X142596500Y-77173000D01*
X142596500Y-89327000D01*
X142596500Y-89327000D01*
G37*
G36*
X149454500Y-89326998D02*
G01*
X147403500Y-89326998D01*
X147403500Y-77172998D01*
X149454500Y-77172998D01*
X149454500Y-89326998D01*
X149454500Y-89326998D01*
G37*
G36*
X162128707Y-87117596D02*
G01*
X162205836Y-87125193D01*
X162363428Y-87172998D01*
X162403765Y-87185234D01*
X162586170Y-87282732D01*
X162746055Y-87413945D01*
X162877268Y-87573830D01*
X162974766Y-87756235D01*
X162974767Y-87756238D01*
X163034807Y-87954164D01*
X163055080Y-88160000D01*
X163034807Y-88365836D01*
X163011172Y-88443750D01*
X162974766Y-88563765D01*
X162877268Y-88746170D01*
X162746055Y-88906055D01*
X162586170Y-89037268D01*
X162403765Y-89134766D01*
X162403762Y-89134767D01*
X162205836Y-89194807D01*
X162128707Y-89202403D01*
X162051580Y-89210000D01*
X161948420Y-89210000D01*
X161871293Y-89202403D01*
X161794164Y-89194807D01*
X161596238Y-89134767D01*
X161596235Y-89134766D01*
X161413830Y-89037268D01*
X161253945Y-88906055D01*
X161122732Y-88746170D01*
X161025234Y-88563765D01*
X160988828Y-88443750D01*
X160965193Y-88365836D01*
X160944920Y-88160000D01*
X160965193Y-87954164D01*
X161025233Y-87756238D01*
X161025234Y-87756235D01*
X161122732Y-87573830D01*
X161253945Y-87413945D01*
X161413830Y-87282732D01*
X161596235Y-87185234D01*
X161636572Y-87172998D01*
X161794164Y-87125193D01*
X161871293Y-87117596D01*
X161948420Y-87110000D01*
X162051580Y-87110000D01*
X162128707Y-87117596D01*
X162128707Y-87117596D01*
G37*
G36*
X176427500Y-88025000D02*
G01*
X173827500Y-88025000D01*
X173827500Y-77975000D01*
X176427500Y-77975000D01*
X176427500Y-88025000D01*
X176427500Y-88025000D01*
G37*
G36*
X168172500Y-88025000D02*
G01*
X165572500Y-88025000D01*
X165572500Y-77975000D01*
X168172500Y-77975000D01*
X168172500Y-88025000D01*
X168172500Y-88025000D01*
G37*
G36*
X103376448Y-86056873D02*
G01*
X103446232Y-86063746D01*
X103535770Y-86090907D01*
X103625309Y-86118068D01*
X103713523Y-86165220D01*
X103790345Y-86206282D01*
X103790347Y-86206283D01*
X103790346Y-86206283D01*
X103935002Y-86324998D01*
X104053717Y-86469654D01*
X104141932Y-86634691D01*
X104196254Y-86813769D01*
X104214596Y-87000000D01*
X104196254Y-87186231D01*
X104141932Y-87365309D01*
X104096663Y-87450000D01*
X104061744Y-87515330D01*
X104053717Y-87530346D01*
X103935002Y-87675002D01*
X103813557Y-87774668D01*
X103790345Y-87793718D01*
X103713523Y-87834780D01*
X103625309Y-87881932D01*
X103565746Y-87900000D01*
X103446232Y-87936254D01*
X103376448Y-87943127D01*
X103306666Y-87950000D01*
X102693334Y-87950000D01*
X102623552Y-87943127D01*
X102553768Y-87936254D01*
X102434254Y-87900000D01*
X102374691Y-87881932D01*
X102286477Y-87834780D01*
X102209655Y-87793718D01*
X102186443Y-87774668D01*
X102064998Y-87675002D01*
X101946283Y-87530346D01*
X101938257Y-87515330D01*
X101903337Y-87450000D01*
X101858068Y-87365309D01*
X101803746Y-87186231D01*
X101785404Y-87000000D01*
X101803746Y-86813769D01*
X101858068Y-86634691D01*
X101946283Y-86469654D01*
X102064998Y-86324998D01*
X102209654Y-86206283D01*
X102209653Y-86206283D01*
X102209655Y-86206282D01*
X102286477Y-86165220D01*
X102374691Y-86118068D01*
X102464230Y-86090907D01*
X102553768Y-86063746D01*
X102623552Y-86056873D01*
X102693334Y-86050000D01*
X103306666Y-86050000D01*
X103376448Y-86056873D01*
X103376448Y-86056873D01*
G37*
G36*
X115898499Y-86105997D02*
G01*
X115951147Y-86121968D01*
X115999668Y-86147902D01*
X116042195Y-86182805D01*
X116077098Y-86225332D01*
X116103032Y-86273853D01*
X116119003Y-86326501D01*
X116125000Y-86387390D01*
X116125000Y-87612610D01*
X116119003Y-87673499D01*
X116103032Y-87726147D01*
X116077098Y-87774668D01*
X116042195Y-87817195D01*
X115999668Y-87852098D01*
X115951147Y-87878032D01*
X115898499Y-87894003D01*
X115837610Y-87900000D01*
X115037390Y-87900000D01*
X114976501Y-87894003D01*
X114923853Y-87878032D01*
X114875332Y-87852098D01*
X114832805Y-87817195D01*
X114797902Y-87774668D01*
X114771968Y-87726147D01*
X114755997Y-87673499D01*
X114750000Y-87612610D01*
X114750000Y-86387390D01*
X114755997Y-86326501D01*
X114771968Y-86273853D01*
X114797902Y-86225332D01*
X114832805Y-86182805D01*
X114875332Y-86147902D01*
X114923853Y-86121968D01*
X114976501Y-86105997D01*
X115037390Y-86100000D01*
X115837610Y-86100000D01*
X115898499Y-86105997D01*
X115898499Y-86105997D01*
G37*
G36*
X114023499Y-86105997D02*
G01*
X114076147Y-86121968D01*
X114124668Y-86147902D01*
X114167195Y-86182805D01*
X114202098Y-86225332D01*
X114228032Y-86273853D01*
X114244003Y-86326501D01*
X114250000Y-86387390D01*
X114250000Y-87612610D01*
X114244003Y-87673499D01*
X114228032Y-87726147D01*
X114202098Y-87774668D01*
X114167195Y-87817195D01*
X114124668Y-87852098D01*
X114076147Y-87878032D01*
X114023499Y-87894003D01*
X113962610Y-87900000D01*
X113162390Y-87900000D01*
X113101501Y-87894003D01*
X113048853Y-87878032D01*
X113000332Y-87852098D01*
X112957805Y-87817195D01*
X112922902Y-87774668D01*
X112896968Y-87726147D01*
X112880997Y-87673499D01*
X112875000Y-87612610D01*
X112875000Y-86387390D01*
X112880997Y-86326501D01*
X112896968Y-86273853D01*
X112922902Y-86225332D01*
X112957805Y-86182805D01*
X113000332Y-86147902D01*
X113048853Y-86121968D01*
X113101501Y-86105997D01*
X113162390Y-86100000D01*
X113962610Y-86100000D01*
X114023499Y-86105997D01*
X114023499Y-86105997D01*
G37*
G36*
X119585999Y-86105997D02*
G01*
X119638647Y-86121968D01*
X119687168Y-86147902D01*
X119729695Y-86182805D01*
X119764598Y-86225332D01*
X119790532Y-86273853D01*
X119806503Y-86326501D01*
X119812500Y-86387390D01*
X119812500Y-87612610D01*
X119806503Y-87673499D01*
X119790532Y-87726147D01*
X119764598Y-87774668D01*
X119729695Y-87817195D01*
X119687168Y-87852098D01*
X119638647Y-87878032D01*
X119585999Y-87894003D01*
X119525110Y-87900000D01*
X118724890Y-87900000D01*
X118664001Y-87894003D01*
X118611353Y-87878032D01*
X118562832Y-87852098D01*
X118520305Y-87817195D01*
X118485402Y-87774668D01*
X118459468Y-87726147D01*
X118443497Y-87673499D01*
X118437500Y-87612610D01*
X118437500Y-86387390D01*
X118443497Y-86326501D01*
X118459468Y-86273853D01*
X118485402Y-86225332D01*
X118520305Y-86182805D01*
X118562832Y-86147902D01*
X118611353Y-86121968D01*
X118664001Y-86105997D01*
X118724890Y-86100000D01*
X119525110Y-86100000D01*
X119585999Y-86105997D01*
X119585999Y-86105997D01*
G37*
G36*
X121460999Y-86105997D02*
G01*
X121513647Y-86121968D01*
X121562168Y-86147902D01*
X121604695Y-86182805D01*
X121639598Y-86225332D01*
X121665532Y-86273853D01*
X121681503Y-86326501D01*
X121687500Y-86387390D01*
X121687500Y-87612610D01*
X121681503Y-87673499D01*
X121665532Y-87726147D01*
X121639598Y-87774668D01*
X121604695Y-87817195D01*
X121562168Y-87852098D01*
X121513647Y-87878032D01*
X121460999Y-87894003D01*
X121400110Y-87900000D01*
X120599890Y-87900000D01*
X120539001Y-87894003D01*
X120486353Y-87878032D01*
X120437832Y-87852098D01*
X120395305Y-87817195D01*
X120360402Y-87774668D01*
X120334468Y-87726147D01*
X120318497Y-87673499D01*
X120312500Y-87612610D01*
X120312500Y-86387390D01*
X120318497Y-86326501D01*
X120334468Y-86273853D01*
X120360402Y-86225332D01*
X120395305Y-86182805D01*
X120437832Y-86147902D01*
X120486353Y-86121968D01*
X120539001Y-86105997D01*
X120599890Y-86100000D01*
X121400110Y-86100000D01*
X121460999Y-86105997D01*
X121460999Y-86105997D01*
G37*
G36*
X126898499Y-86105997D02*
G01*
X126951147Y-86121968D01*
X126999668Y-86147902D01*
X127042195Y-86182805D01*
X127077098Y-86225332D01*
X127103032Y-86273853D01*
X127119003Y-86326501D01*
X127125000Y-86387390D01*
X127125000Y-87612610D01*
X127119003Y-87673499D01*
X127103032Y-87726147D01*
X127077098Y-87774668D01*
X127042195Y-87817195D01*
X126999668Y-87852098D01*
X126951147Y-87878032D01*
X126898499Y-87894003D01*
X126837610Y-87900000D01*
X126037390Y-87900000D01*
X125976501Y-87894003D01*
X125923853Y-87878032D01*
X125875332Y-87852098D01*
X125832805Y-87817195D01*
X125797902Y-87774668D01*
X125771968Y-87726147D01*
X125755997Y-87673499D01*
X125750000Y-87612610D01*
X125750000Y-86387390D01*
X125755997Y-86326501D01*
X125771968Y-86273853D01*
X125797902Y-86225332D01*
X125832805Y-86182805D01*
X125875332Y-86147902D01*
X125923853Y-86121968D01*
X125976501Y-86105997D01*
X126037390Y-86100000D01*
X126837610Y-86100000D01*
X126898499Y-86105997D01*
X126898499Y-86105997D01*
G37*
G36*
X125023499Y-86105997D02*
G01*
X125076147Y-86121968D01*
X125124668Y-86147902D01*
X125167195Y-86182805D01*
X125202098Y-86225332D01*
X125228032Y-86273853D01*
X125244003Y-86326501D01*
X125250000Y-86387390D01*
X125250000Y-87612610D01*
X125244003Y-87673499D01*
X125228032Y-87726147D01*
X125202098Y-87774668D01*
X125167195Y-87817195D01*
X125124668Y-87852098D01*
X125076147Y-87878032D01*
X125023499Y-87894003D01*
X124962610Y-87900000D01*
X124162390Y-87900000D01*
X124101501Y-87894003D01*
X124048853Y-87878032D01*
X124000332Y-87852098D01*
X123957805Y-87817195D01*
X123922902Y-87774668D01*
X123896968Y-87726147D01*
X123880997Y-87673499D01*
X123875000Y-87612610D01*
X123875000Y-86387390D01*
X123880997Y-86326501D01*
X123896968Y-86273853D01*
X123922902Y-86225332D01*
X123957805Y-86182805D01*
X124000332Y-86147902D01*
X124048853Y-86121968D01*
X124101501Y-86105997D01*
X124162390Y-86100000D01*
X124962610Y-86100000D01*
X125023499Y-86105997D01*
X125023499Y-86105997D01*
G37*
G36*
X162128707Y-84577597D02*
G01*
X162205836Y-84585193D01*
X162403762Y-84645233D01*
X162403765Y-84645234D01*
X162586170Y-84742732D01*
X162746055Y-84873945D01*
X162877268Y-85033830D01*
X162974766Y-85216235D01*
X162974767Y-85216238D01*
X163034807Y-85414164D01*
X163055080Y-85620000D01*
X163034807Y-85825836D01*
X162974767Y-86023762D01*
X162974766Y-86023765D01*
X162877268Y-86206170D01*
X162746055Y-86366055D01*
X162586170Y-86497268D01*
X162403765Y-86594766D01*
X162403762Y-86594767D01*
X162205836Y-86654807D01*
X162128707Y-86662403D01*
X162051580Y-86670000D01*
X161948420Y-86670000D01*
X161871293Y-86662403D01*
X161794164Y-86654807D01*
X161596238Y-86594767D01*
X161596235Y-86594766D01*
X161413830Y-86497268D01*
X161253945Y-86366055D01*
X161122732Y-86206170D01*
X161025234Y-86023765D01*
X161025233Y-86023762D01*
X160965193Y-85825836D01*
X160944920Y-85620000D01*
X160965193Y-85414164D01*
X161025233Y-85216238D01*
X161025234Y-85216235D01*
X161122732Y-85033830D01*
X161253945Y-84873945D01*
X161413830Y-84742732D01*
X161596235Y-84645234D01*
X161596238Y-84645233D01*
X161794164Y-84585193D01*
X161871293Y-84577597D01*
X161948420Y-84570000D01*
X162051580Y-84570000D01*
X162128707Y-84577597D01*
X162128707Y-84577597D01*
G37*
G36*
X108523499Y-84105997D02*
G01*
X108576147Y-84121968D01*
X108624668Y-84147902D01*
X108667195Y-84182805D01*
X108702098Y-84225332D01*
X108728032Y-84273853D01*
X108744003Y-84326501D01*
X108750000Y-84387390D01*
X108750000Y-85612610D01*
X108744003Y-85673499D01*
X108728032Y-85726147D01*
X108702098Y-85774668D01*
X108667195Y-85817195D01*
X108624668Y-85852098D01*
X108576147Y-85878032D01*
X108523499Y-85894003D01*
X108462610Y-85900000D01*
X107662390Y-85900000D01*
X107601501Y-85894003D01*
X107548853Y-85878032D01*
X107500332Y-85852098D01*
X107457805Y-85817195D01*
X107422902Y-85774668D01*
X107396968Y-85726147D01*
X107380997Y-85673499D01*
X107375000Y-85612610D01*
X107375000Y-84387390D01*
X107380997Y-84326501D01*
X107396968Y-84273853D01*
X107422902Y-84225332D01*
X107457805Y-84182805D01*
X107500332Y-84147902D01*
X107548853Y-84121968D01*
X107601501Y-84105997D01*
X107662390Y-84100000D01*
X108462610Y-84100000D01*
X108523499Y-84105997D01*
X108523499Y-84105997D01*
G37*
G36*
X110398499Y-84105997D02*
G01*
X110451147Y-84121968D01*
X110499668Y-84147902D01*
X110542195Y-84182805D01*
X110577098Y-84225332D01*
X110603032Y-84273853D01*
X110619003Y-84326501D01*
X110625000Y-84387390D01*
X110625000Y-85612610D01*
X110619003Y-85673499D01*
X110603032Y-85726147D01*
X110577098Y-85774668D01*
X110542195Y-85817195D01*
X110499668Y-85852098D01*
X110451147Y-85878032D01*
X110398499Y-85894003D01*
X110337610Y-85900000D01*
X109537390Y-85900000D01*
X109476501Y-85894003D01*
X109423853Y-85878032D01*
X109375332Y-85852098D01*
X109332805Y-85817195D01*
X109297902Y-85774668D01*
X109271968Y-85726147D01*
X109255997Y-85673499D01*
X109250000Y-85612610D01*
X109250000Y-84387390D01*
X109255997Y-84326501D01*
X109271968Y-84273853D01*
X109297902Y-84225332D01*
X109332805Y-84182805D01*
X109375332Y-84147902D01*
X109423853Y-84121968D01*
X109476501Y-84105997D01*
X109537390Y-84100000D01*
X110337610Y-84100000D01*
X110398499Y-84105997D01*
X110398499Y-84105997D01*
G37*
G36*
X162128707Y-82037596D02*
G01*
X162205836Y-82045193D01*
X162386511Y-82100000D01*
X162403765Y-82105234D01*
X162586170Y-82202732D01*
X162746055Y-82333945D01*
X162877268Y-82493830D01*
X162974766Y-82676235D01*
X162974767Y-82676238D01*
X163034807Y-82874164D01*
X163055080Y-83080000D01*
X163034807Y-83285836D01*
X163022320Y-83326999D01*
X162974766Y-83483765D01*
X162877268Y-83666170D01*
X162746055Y-83826055D01*
X162586170Y-83957268D01*
X162403765Y-84054766D01*
X162403762Y-84054767D01*
X162205836Y-84114807D01*
X162133129Y-84121968D01*
X162051580Y-84130000D01*
X161948420Y-84130000D01*
X161866871Y-84121968D01*
X161794164Y-84114807D01*
X161596238Y-84054767D01*
X161596235Y-84054766D01*
X161413830Y-83957268D01*
X161253945Y-83826055D01*
X161122732Y-83666170D01*
X161025234Y-83483765D01*
X160977680Y-83326999D01*
X160965193Y-83285836D01*
X160944920Y-83080000D01*
X160965193Y-82874164D01*
X161025233Y-82676238D01*
X161025234Y-82676235D01*
X161122732Y-82493830D01*
X161253945Y-82333945D01*
X161413830Y-82202732D01*
X161596235Y-82105234D01*
X161613489Y-82100000D01*
X161794164Y-82045193D01*
X161871293Y-82037596D01*
X161948420Y-82030000D01*
X162051580Y-82030000D01*
X162128707Y-82037596D01*
X162128707Y-82037596D01*
G37*
G36*
X125023499Y-82105997D02*
G01*
X125076147Y-82121968D01*
X125124668Y-82147902D01*
X125167195Y-82182805D01*
X125202098Y-82225332D01*
X125228032Y-82273853D01*
X125244003Y-82326501D01*
X125250000Y-82387390D01*
X125250000Y-83612610D01*
X125244003Y-83673499D01*
X125228032Y-83726147D01*
X125202098Y-83774668D01*
X125167195Y-83817195D01*
X125124668Y-83852098D01*
X125076147Y-83878032D01*
X125023499Y-83894003D01*
X124962610Y-83900000D01*
X124162390Y-83900000D01*
X124101501Y-83894003D01*
X124048853Y-83878032D01*
X124000332Y-83852098D01*
X123957805Y-83817195D01*
X123922902Y-83774668D01*
X123896968Y-83726147D01*
X123880997Y-83673499D01*
X123875000Y-83612610D01*
X123875000Y-82387390D01*
X123880997Y-82326501D01*
X123896968Y-82273853D01*
X123922902Y-82225332D01*
X123957805Y-82182805D01*
X124000332Y-82147902D01*
X124048853Y-82121968D01*
X124101501Y-82105997D01*
X124162390Y-82100000D01*
X124962610Y-82100000D01*
X125023499Y-82105997D01*
X125023499Y-82105997D01*
G37*
G36*
X121398499Y-82105997D02*
G01*
X121451147Y-82121968D01*
X121499668Y-82147902D01*
X121542195Y-82182805D01*
X121577098Y-82225332D01*
X121603032Y-82273853D01*
X121619003Y-82326501D01*
X121625000Y-82387390D01*
X121625000Y-83612610D01*
X121619003Y-83673499D01*
X121603032Y-83726147D01*
X121577098Y-83774668D01*
X121542195Y-83817195D01*
X121499668Y-83852098D01*
X121451147Y-83878032D01*
X121398499Y-83894003D01*
X121337610Y-83900000D01*
X120537390Y-83900000D01*
X120476501Y-83894003D01*
X120423853Y-83878032D01*
X120375332Y-83852098D01*
X120332805Y-83817195D01*
X120297902Y-83774668D01*
X120271968Y-83726147D01*
X120255997Y-83673499D01*
X120250000Y-83612610D01*
X120250000Y-82387390D01*
X120255997Y-82326501D01*
X120271968Y-82273853D01*
X120297902Y-82225332D01*
X120332805Y-82182805D01*
X120375332Y-82147902D01*
X120423853Y-82121968D01*
X120476501Y-82105997D01*
X120537390Y-82100000D01*
X121337610Y-82100000D01*
X121398499Y-82105997D01*
X121398499Y-82105997D01*
G37*
G36*
X126898499Y-82105997D02*
G01*
X126951147Y-82121968D01*
X126999668Y-82147902D01*
X127042195Y-82182805D01*
X127077098Y-82225332D01*
X127103032Y-82273853D01*
X127119003Y-82326501D01*
X127125000Y-82387390D01*
X127125000Y-83612610D01*
X127119003Y-83673499D01*
X127103032Y-83726147D01*
X127077098Y-83774668D01*
X127042195Y-83817195D01*
X126999668Y-83852098D01*
X126951147Y-83878032D01*
X126898499Y-83894003D01*
X126837610Y-83900000D01*
X126037390Y-83900000D01*
X125976501Y-83894003D01*
X125923853Y-83878032D01*
X125875332Y-83852098D01*
X125832805Y-83817195D01*
X125797902Y-83774668D01*
X125771968Y-83726147D01*
X125755997Y-83673499D01*
X125750000Y-83612610D01*
X125750000Y-82387390D01*
X125755997Y-82326501D01*
X125771968Y-82273853D01*
X125797902Y-82225332D01*
X125832805Y-82182805D01*
X125875332Y-82147902D01*
X125923853Y-82121968D01*
X125976501Y-82105997D01*
X126037390Y-82100000D01*
X126837610Y-82100000D01*
X126898499Y-82105997D01*
X126898499Y-82105997D01*
G37*
G36*
X114023499Y-82105997D02*
G01*
X114076147Y-82121968D01*
X114124668Y-82147902D01*
X114167195Y-82182805D01*
X114202098Y-82225332D01*
X114228032Y-82273853D01*
X114244003Y-82326501D01*
X114250000Y-82387390D01*
X114250000Y-83612610D01*
X114244003Y-83673499D01*
X114228032Y-83726147D01*
X114202098Y-83774668D01*
X114167195Y-83817195D01*
X114124668Y-83852098D01*
X114076147Y-83878032D01*
X114023499Y-83894003D01*
X113962610Y-83900000D01*
X113162390Y-83900000D01*
X113101501Y-83894003D01*
X113048853Y-83878032D01*
X113000332Y-83852098D01*
X112957805Y-83817195D01*
X112922902Y-83774668D01*
X112896968Y-83726147D01*
X112880997Y-83673499D01*
X112875000Y-83612610D01*
X112875000Y-82387390D01*
X112880997Y-82326501D01*
X112896968Y-82273853D01*
X112922902Y-82225332D01*
X112957805Y-82182805D01*
X113000332Y-82147902D01*
X113048853Y-82121968D01*
X113101501Y-82105997D01*
X113162390Y-82100000D01*
X113962610Y-82100000D01*
X114023499Y-82105997D01*
X114023499Y-82105997D01*
G37*
G36*
X119523499Y-82105997D02*
G01*
X119576147Y-82121968D01*
X119624668Y-82147902D01*
X119667195Y-82182805D01*
X119702098Y-82225332D01*
X119728032Y-82273853D01*
X119744003Y-82326501D01*
X119750000Y-82387390D01*
X119750000Y-83612610D01*
X119744003Y-83673499D01*
X119728032Y-83726147D01*
X119702098Y-83774668D01*
X119667195Y-83817195D01*
X119624668Y-83852098D01*
X119576147Y-83878032D01*
X119523499Y-83894003D01*
X119462610Y-83900000D01*
X118662390Y-83900000D01*
X118601501Y-83894003D01*
X118548853Y-83878032D01*
X118500332Y-83852098D01*
X118457805Y-83817195D01*
X118422902Y-83774668D01*
X118396968Y-83726147D01*
X118380997Y-83673499D01*
X118375000Y-83612610D01*
X118375000Y-82387390D01*
X118380997Y-82326501D01*
X118396968Y-82273853D01*
X118422902Y-82225332D01*
X118457805Y-82182805D01*
X118500332Y-82147902D01*
X118548853Y-82121968D01*
X118601501Y-82105997D01*
X118662390Y-82100000D01*
X119462610Y-82100000D01*
X119523499Y-82105997D01*
X119523499Y-82105997D01*
G37*
G36*
X115898499Y-82105997D02*
G01*
X115951147Y-82121968D01*
X115999668Y-82147902D01*
X116042195Y-82182805D01*
X116077098Y-82225332D01*
X116103032Y-82273853D01*
X116119003Y-82326501D01*
X116125000Y-82387390D01*
X116125000Y-83612610D01*
X116119003Y-83673499D01*
X116103032Y-83726147D01*
X116077098Y-83774668D01*
X116042195Y-83817195D01*
X115999668Y-83852098D01*
X115951147Y-83878032D01*
X115898499Y-83894003D01*
X115837610Y-83900000D01*
X115037390Y-83900000D01*
X114976501Y-83894003D01*
X114923853Y-83878032D01*
X114875332Y-83852098D01*
X114832805Y-83817195D01*
X114797902Y-83774668D01*
X114771968Y-83726147D01*
X114755997Y-83673499D01*
X114750000Y-83612610D01*
X114750000Y-82387390D01*
X114755997Y-82326501D01*
X114771968Y-82273853D01*
X114797902Y-82225332D01*
X114832805Y-82182805D01*
X114875332Y-82147902D01*
X114923853Y-82121968D01*
X114976501Y-82105997D01*
X115037390Y-82100000D01*
X115837610Y-82100000D01*
X115898499Y-82105997D01*
X115898499Y-82105997D01*
G37*
G36*
X108523499Y-80105997D02*
G01*
X108576147Y-80121968D01*
X108624668Y-80147902D01*
X108667195Y-80182805D01*
X108702098Y-80225332D01*
X108728032Y-80273853D01*
X108744003Y-80326501D01*
X108750000Y-80387390D01*
X108750000Y-81612610D01*
X108744003Y-81673499D01*
X108728032Y-81726147D01*
X108702098Y-81774668D01*
X108667195Y-81817195D01*
X108624668Y-81852098D01*
X108576147Y-81878032D01*
X108523499Y-81894003D01*
X108462610Y-81900000D01*
X107662390Y-81900000D01*
X107601501Y-81894003D01*
X107548853Y-81878032D01*
X107500332Y-81852098D01*
X107457805Y-81817195D01*
X107422902Y-81774668D01*
X107396968Y-81726147D01*
X107380997Y-81673499D01*
X107375000Y-81612610D01*
X107375000Y-80387390D01*
X107380997Y-80326501D01*
X107396968Y-80273853D01*
X107422902Y-80225332D01*
X107457805Y-80182805D01*
X107500332Y-80147902D01*
X107548853Y-80121968D01*
X107601501Y-80105997D01*
X107662390Y-80100000D01*
X108462610Y-80100000D01*
X108523499Y-80105997D01*
X108523499Y-80105997D01*
G37*
G36*
X110398499Y-80105997D02*
G01*
X110451147Y-80121968D01*
X110499668Y-80147902D01*
X110542195Y-80182805D01*
X110577098Y-80225332D01*
X110603032Y-80273853D01*
X110619003Y-80326501D01*
X110625000Y-80387390D01*
X110625000Y-81612610D01*
X110619003Y-81673499D01*
X110603032Y-81726147D01*
X110577098Y-81774668D01*
X110542195Y-81817195D01*
X110499668Y-81852098D01*
X110451147Y-81878032D01*
X110398499Y-81894003D01*
X110337610Y-81900000D01*
X109537390Y-81900000D01*
X109476501Y-81894003D01*
X109423853Y-81878032D01*
X109375332Y-81852098D01*
X109332805Y-81817195D01*
X109297902Y-81774668D01*
X109271968Y-81726147D01*
X109255997Y-81673499D01*
X109250000Y-81612610D01*
X109250000Y-80387390D01*
X109255997Y-80326501D01*
X109271968Y-80273853D01*
X109297902Y-80225332D01*
X109332805Y-80182805D01*
X109375332Y-80147902D01*
X109423853Y-80121968D01*
X109476501Y-80105997D01*
X109537390Y-80100000D01*
X110337610Y-80100000D01*
X110398499Y-80105997D01*
X110398499Y-80105997D01*
G37*
G36*
X162128707Y-79497597D02*
G01*
X162205836Y-79505193D01*
X162403762Y-79565233D01*
X162403765Y-79565234D01*
X162586170Y-79662732D01*
X162746055Y-79793945D01*
X162877268Y-79953830D01*
X162974766Y-80136235D01*
X162974767Y-80136238D01*
X163034807Y-80334164D01*
X163055080Y-80540000D01*
X163034807Y-80745836D01*
X162974767Y-80943762D01*
X162974766Y-80943765D01*
X162877268Y-81126170D01*
X162746055Y-81286055D01*
X162586170Y-81417268D01*
X162403765Y-81514766D01*
X162403762Y-81514767D01*
X162205836Y-81574807D01*
X162128707Y-81582403D01*
X162051580Y-81590000D01*
X161948420Y-81590000D01*
X161871293Y-81582403D01*
X161794164Y-81574807D01*
X161596238Y-81514767D01*
X161596235Y-81514766D01*
X161413830Y-81417268D01*
X161253945Y-81286055D01*
X161122732Y-81126170D01*
X161025234Y-80943765D01*
X161025233Y-80943762D01*
X160965193Y-80745836D01*
X160944920Y-80540000D01*
X160965193Y-80334164D01*
X161025233Y-80136238D01*
X161025234Y-80136235D01*
X161122732Y-79953830D01*
X161253945Y-79793945D01*
X161413830Y-79662732D01*
X161596235Y-79565234D01*
X161596238Y-79565233D01*
X161794164Y-79505193D01*
X161871293Y-79497597D01*
X161948420Y-79490000D01*
X162051580Y-79490000D01*
X162128707Y-79497597D01*
X162128707Y-79497597D01*
G37*
G36*
X157673499Y-79005997D02*
G01*
X157726147Y-79021968D01*
X157774668Y-79047902D01*
X157817195Y-79082805D01*
X157852098Y-79125332D01*
X157878032Y-79173853D01*
X157894003Y-79226501D01*
X157900000Y-79287390D01*
X157900000Y-80087610D01*
X157894003Y-80148499D01*
X157878032Y-80201147D01*
X157852098Y-80249668D01*
X157817195Y-80292195D01*
X157774668Y-80327098D01*
X157726147Y-80353032D01*
X157673499Y-80369003D01*
X157612610Y-80375000D01*
X156387390Y-80375000D01*
X156326501Y-80369003D01*
X156273853Y-80353032D01*
X156225332Y-80327098D01*
X156182805Y-80292195D01*
X156147902Y-80249668D01*
X156121968Y-80201147D01*
X156105997Y-80148499D01*
X156100000Y-80087610D01*
X156100000Y-79287390D01*
X156105997Y-79226501D01*
X156121968Y-79173853D01*
X156147902Y-79125332D01*
X156182805Y-79082805D01*
X156225332Y-79047902D01*
X156273853Y-79021968D01*
X156326501Y-79005997D01*
X156387390Y-79000000D01*
X157612610Y-79000000D01*
X157673499Y-79005997D01*
X157673499Y-79005997D01*
G37*
G36*
X154173499Y-79005997D02*
G01*
X154226147Y-79021968D01*
X154274668Y-79047902D01*
X154317195Y-79082805D01*
X154352098Y-79125332D01*
X154378032Y-79173853D01*
X154394003Y-79226501D01*
X154400000Y-79287390D01*
X154400000Y-80087610D01*
X154394003Y-80148499D01*
X154378032Y-80201147D01*
X154352098Y-80249668D01*
X154317195Y-80292195D01*
X154274668Y-80327098D01*
X154226147Y-80353032D01*
X154173499Y-80369003D01*
X154112610Y-80375000D01*
X152887390Y-80375000D01*
X152826501Y-80369003D01*
X152773853Y-80353032D01*
X152725332Y-80327098D01*
X152682805Y-80292195D01*
X152647902Y-80249668D01*
X152621968Y-80201147D01*
X152605997Y-80148499D01*
X152600000Y-80087610D01*
X152600000Y-79287390D01*
X152605997Y-79226501D01*
X152621968Y-79173853D01*
X152647902Y-79125332D01*
X152682805Y-79082805D01*
X152725332Y-79047902D01*
X152773853Y-79021968D01*
X152826501Y-79005997D01*
X152887390Y-79000000D01*
X154112610Y-79000000D01*
X154173499Y-79005997D01*
X154173499Y-79005997D01*
G37*
G36*
X104022067Y-78055076D02*
G01*
X104065728Y-78068320D01*
X104105964Y-78089827D01*
X104141231Y-78118769D01*
X104170173Y-78154036D01*
X104191680Y-78194272D01*
X104204924Y-78237933D01*
X104210000Y-78289474D01*
X104210000Y-79710526D01*
X104204924Y-79762067D01*
X104191680Y-79805728D01*
X104170173Y-79845964D01*
X104141231Y-79881231D01*
X104105964Y-79910173D01*
X104065728Y-79931680D01*
X104022067Y-79944924D01*
X103970526Y-79950000D01*
X102029474Y-79950000D01*
X101977933Y-79944924D01*
X101934272Y-79931680D01*
X101894036Y-79910173D01*
X101858769Y-79881231D01*
X101829827Y-79845964D01*
X101808320Y-79805728D01*
X101795076Y-79762067D01*
X101790000Y-79710526D01*
X101790000Y-78289474D01*
X101795076Y-78237933D01*
X101808320Y-78194272D01*
X101829827Y-78154036D01*
X101858769Y-78118769D01*
X101894036Y-78089827D01*
X101934272Y-78068320D01*
X101977933Y-78055076D01*
X102029474Y-78050000D01*
X103970526Y-78050000D01*
X104022067Y-78055076D01*
X104022067Y-78055076D01*
G37*
G36*
X125023499Y-78105997D02*
G01*
X125076147Y-78121968D01*
X125124668Y-78147902D01*
X125167195Y-78182805D01*
X125202098Y-78225332D01*
X125228032Y-78273853D01*
X125244003Y-78326501D01*
X125250000Y-78387390D01*
X125250000Y-79612610D01*
X125244003Y-79673499D01*
X125228032Y-79726147D01*
X125202098Y-79774668D01*
X125167195Y-79817195D01*
X125124668Y-79852098D01*
X125076147Y-79878032D01*
X125023499Y-79894003D01*
X124962610Y-79900000D01*
X124162390Y-79900000D01*
X124101501Y-79894003D01*
X124048853Y-79878032D01*
X124000332Y-79852098D01*
X123957805Y-79817195D01*
X123922902Y-79774668D01*
X123896968Y-79726147D01*
X123880997Y-79673499D01*
X123875000Y-79612610D01*
X123875000Y-78387390D01*
X123880997Y-78326501D01*
X123896968Y-78273853D01*
X123922902Y-78225332D01*
X123957805Y-78182805D01*
X124000332Y-78147902D01*
X124048853Y-78121968D01*
X124101501Y-78105997D01*
X124162390Y-78100000D01*
X124962610Y-78100000D01*
X125023499Y-78105997D01*
X125023499Y-78105997D01*
G37*
G36*
X119523499Y-78105997D02*
G01*
X119576147Y-78121968D01*
X119624668Y-78147902D01*
X119667195Y-78182805D01*
X119702098Y-78225332D01*
X119728032Y-78273853D01*
X119744003Y-78326501D01*
X119750000Y-78387390D01*
X119750000Y-79612610D01*
X119744003Y-79673499D01*
X119728032Y-79726147D01*
X119702098Y-79774668D01*
X119667195Y-79817195D01*
X119624668Y-79852098D01*
X119576147Y-79878032D01*
X119523499Y-79894003D01*
X119462610Y-79900000D01*
X118662390Y-79900000D01*
X118601501Y-79894003D01*
X118548853Y-79878032D01*
X118500332Y-79852098D01*
X118457805Y-79817195D01*
X118422902Y-79774668D01*
X118396968Y-79726147D01*
X118380997Y-79673499D01*
X118375000Y-79612610D01*
X118375000Y-78387390D01*
X118380997Y-78326501D01*
X118396968Y-78273853D01*
X118422902Y-78225332D01*
X118457805Y-78182805D01*
X118500332Y-78147902D01*
X118548853Y-78121968D01*
X118601501Y-78105997D01*
X118662390Y-78100000D01*
X119462610Y-78100000D01*
X119523499Y-78105997D01*
X119523499Y-78105997D01*
G37*
G36*
X115898499Y-78105997D02*
G01*
X115951147Y-78121968D01*
X115999668Y-78147902D01*
X116042195Y-78182805D01*
X116077098Y-78225332D01*
X116103032Y-78273853D01*
X116119003Y-78326501D01*
X116125000Y-78387390D01*
X116125000Y-79612610D01*
X116119003Y-79673499D01*
X116103032Y-79726147D01*
X116077098Y-79774668D01*
X116042195Y-79817195D01*
X115999668Y-79852098D01*
X115951147Y-79878032D01*
X115898499Y-79894003D01*
X115837610Y-79900000D01*
X115037390Y-79900000D01*
X114976501Y-79894003D01*
X114923853Y-79878032D01*
X114875332Y-79852098D01*
X114832805Y-79817195D01*
X114797902Y-79774668D01*
X114771968Y-79726147D01*
X114755997Y-79673499D01*
X114750000Y-79612610D01*
X114750000Y-78387390D01*
X114755997Y-78326501D01*
X114771968Y-78273853D01*
X114797902Y-78225332D01*
X114832805Y-78182805D01*
X114875332Y-78147902D01*
X114923853Y-78121968D01*
X114976501Y-78105997D01*
X115037390Y-78100000D01*
X115837610Y-78100000D01*
X115898499Y-78105997D01*
X115898499Y-78105997D01*
G37*
G36*
X114023499Y-78105997D02*
G01*
X114076147Y-78121968D01*
X114124668Y-78147902D01*
X114167195Y-78182805D01*
X114202098Y-78225332D01*
X114228032Y-78273853D01*
X114244003Y-78326501D01*
X114250000Y-78387390D01*
X114250000Y-79612610D01*
X114244003Y-79673499D01*
X114228032Y-79726147D01*
X114202098Y-79774668D01*
X114167195Y-79817195D01*
X114124668Y-79852098D01*
X114076147Y-79878032D01*
X114023499Y-79894003D01*
X113962610Y-79900000D01*
X113162390Y-79900000D01*
X113101501Y-79894003D01*
X113048853Y-79878032D01*
X113000332Y-79852098D01*
X112957805Y-79817195D01*
X112922902Y-79774668D01*
X112896968Y-79726147D01*
X112880997Y-79673499D01*
X112875000Y-79612610D01*
X112875000Y-78387390D01*
X112880997Y-78326501D01*
X112896968Y-78273853D01*
X112922902Y-78225332D01*
X112957805Y-78182805D01*
X113000332Y-78147902D01*
X113048853Y-78121968D01*
X113101501Y-78105997D01*
X113162390Y-78100000D01*
X113962610Y-78100000D01*
X114023499Y-78105997D01*
X114023499Y-78105997D01*
G37*
G36*
X126898499Y-78105997D02*
G01*
X126951147Y-78121968D01*
X126999668Y-78147902D01*
X127042195Y-78182805D01*
X127077098Y-78225332D01*
X127103032Y-78273853D01*
X127119003Y-78326501D01*
X127125000Y-78387390D01*
X127125000Y-79612610D01*
X127119003Y-79673499D01*
X127103032Y-79726147D01*
X127077098Y-79774668D01*
X127042195Y-79817195D01*
X126999668Y-79852098D01*
X126951147Y-79878032D01*
X126898499Y-79894003D01*
X126837610Y-79900000D01*
X126037390Y-79900000D01*
X125976501Y-79894003D01*
X125923853Y-79878032D01*
X125875332Y-79852098D01*
X125832805Y-79817195D01*
X125797902Y-79774668D01*
X125771968Y-79726147D01*
X125755997Y-79673499D01*
X125750000Y-79612610D01*
X125750000Y-78387390D01*
X125755997Y-78326501D01*
X125771968Y-78273853D01*
X125797902Y-78225332D01*
X125832805Y-78182805D01*
X125875332Y-78147902D01*
X125923853Y-78121968D01*
X125976501Y-78105997D01*
X126037390Y-78100000D01*
X126837610Y-78100000D01*
X126898499Y-78105997D01*
X126898499Y-78105997D01*
G37*
G36*
X121398499Y-78105997D02*
G01*
X121451147Y-78121968D01*
X121499668Y-78147902D01*
X121542195Y-78182805D01*
X121577098Y-78225332D01*
X121603032Y-78273853D01*
X121619003Y-78326501D01*
X121625000Y-78387390D01*
X121625000Y-79612610D01*
X121619003Y-79673499D01*
X121603032Y-79726147D01*
X121577098Y-79774668D01*
X121542195Y-79817195D01*
X121499668Y-79852098D01*
X121451147Y-79878032D01*
X121398499Y-79894003D01*
X121337610Y-79900000D01*
X120537390Y-79900000D01*
X120476501Y-79894003D01*
X120423853Y-79878032D01*
X120375332Y-79852098D01*
X120332805Y-79817195D01*
X120297902Y-79774668D01*
X120271968Y-79726147D01*
X120255997Y-79673499D01*
X120250000Y-79612610D01*
X120250000Y-78387390D01*
X120255997Y-78326501D01*
X120271968Y-78273853D01*
X120297902Y-78225332D01*
X120332805Y-78182805D01*
X120375332Y-78147902D01*
X120423853Y-78121968D01*
X120476501Y-78105997D01*
X120537390Y-78100000D01*
X121337610Y-78100000D01*
X121398499Y-78105997D01*
X121398499Y-78105997D01*
G37*
G36*
X163050000Y-79050000D02*
G01*
X160950000Y-79050000D01*
X160950000Y-76950000D01*
X163050000Y-76950000D01*
X163050000Y-79050000D01*
X163050000Y-79050000D01*
G37*
G36*
X99011653Y-75182665D02*
G01*
X99175872Y-75215330D01*
X99485252Y-75343479D01*
X99763687Y-75529523D01*
X100000477Y-75766313D01*
X100186521Y-76044748D01*
X100314670Y-76354128D01*
X100316894Y-76365309D01*
X100378496Y-76675001D01*
X100380000Y-76682565D01*
X100380000Y-77017435D01*
X100314670Y-77345872D01*
X100186521Y-77655252D01*
X100000477Y-77933687D01*
X99763687Y-78170477D01*
X99485252Y-78356521D01*
X99175872Y-78484670D01*
X99011653Y-78517335D01*
X98847437Y-78550000D01*
X98512563Y-78550000D01*
X98348347Y-78517335D01*
X98184128Y-78484670D01*
X97874748Y-78356521D01*
X97596313Y-78170477D01*
X97359523Y-77933687D01*
X97173479Y-77655252D01*
X97045330Y-77345872D01*
X96980000Y-77017435D01*
X96980000Y-76682565D01*
X96981505Y-76675001D01*
X97043106Y-76365309D01*
X97045330Y-76354128D01*
X97173479Y-76044748D01*
X97359523Y-75766313D01*
X97596313Y-75529523D01*
X97874748Y-75343479D01*
X98184128Y-75215330D01*
X98348347Y-75182665D01*
X98512563Y-75150000D01*
X98847437Y-75150000D01*
X99011653Y-75182665D01*
X99011653Y-75182665D01*
G37*
G36*
X157673499Y-77130997D02*
G01*
X157726147Y-77146968D01*
X157774668Y-77172902D01*
X157817195Y-77207805D01*
X157852098Y-77250332D01*
X157878032Y-77298853D01*
X157894003Y-77351501D01*
X157900000Y-77412390D01*
X157900000Y-78212610D01*
X157894003Y-78273499D01*
X157878032Y-78326147D01*
X157852098Y-78374668D01*
X157817195Y-78417195D01*
X157774668Y-78452098D01*
X157726147Y-78478032D01*
X157673499Y-78494003D01*
X157612610Y-78500000D01*
X156387390Y-78500000D01*
X156326501Y-78494003D01*
X156273853Y-78478032D01*
X156225332Y-78452098D01*
X156182805Y-78417195D01*
X156147902Y-78374668D01*
X156121968Y-78326147D01*
X156105997Y-78273499D01*
X156100000Y-78212610D01*
X156100000Y-77412390D01*
X156105997Y-77351501D01*
X156121968Y-77298853D01*
X156147902Y-77250332D01*
X156182805Y-77207805D01*
X156225332Y-77172902D01*
X156273853Y-77146968D01*
X156326501Y-77130997D01*
X156387390Y-77125000D01*
X157612610Y-77125000D01*
X157673499Y-77130997D01*
X157673499Y-77130997D01*
G37*
G36*
X154173499Y-77130997D02*
G01*
X154226147Y-77146968D01*
X154274668Y-77172902D01*
X154317195Y-77207805D01*
X154352098Y-77250332D01*
X154378032Y-77298853D01*
X154394003Y-77351501D01*
X154400000Y-77412390D01*
X154400000Y-78212610D01*
X154394003Y-78273499D01*
X154378032Y-78326147D01*
X154352098Y-78374668D01*
X154317195Y-78417195D01*
X154274668Y-78452098D01*
X154226147Y-78478032D01*
X154173499Y-78494003D01*
X154112610Y-78500000D01*
X152887390Y-78500000D01*
X152826501Y-78494003D01*
X152773853Y-78478032D01*
X152725332Y-78452098D01*
X152682805Y-78417195D01*
X152647902Y-78374668D01*
X152621968Y-78326147D01*
X152605997Y-78273499D01*
X152600000Y-78212610D01*
X152600000Y-77412390D01*
X152605997Y-77351501D01*
X152621968Y-77298853D01*
X152647902Y-77250332D01*
X152682805Y-77207805D01*
X152725332Y-77172902D01*
X152773853Y-77146968D01*
X152826501Y-77130997D01*
X152887390Y-77125000D01*
X154112610Y-77125000D01*
X154173499Y-77130997D01*
X154173499Y-77130997D01*
G37*
G36*
X110398499Y-76105997D02*
G01*
X110451147Y-76121968D01*
X110499668Y-76147902D01*
X110542195Y-76182805D01*
X110577098Y-76225332D01*
X110603032Y-76273853D01*
X110619003Y-76326501D01*
X110625000Y-76387390D01*
X110625000Y-77612610D01*
X110619003Y-77673499D01*
X110603032Y-77726147D01*
X110577098Y-77774668D01*
X110542195Y-77817195D01*
X110499668Y-77852098D01*
X110451147Y-77878032D01*
X110398499Y-77894003D01*
X110337610Y-77900000D01*
X109537390Y-77900000D01*
X109476501Y-77894003D01*
X109423853Y-77878032D01*
X109375332Y-77852098D01*
X109332805Y-77817195D01*
X109297902Y-77774668D01*
X109271968Y-77726147D01*
X109255997Y-77673499D01*
X109250000Y-77612610D01*
X109250000Y-76387390D01*
X109255997Y-76326501D01*
X109271968Y-76273853D01*
X109297902Y-76225332D01*
X109332805Y-76182805D01*
X109375332Y-76147902D01*
X109423853Y-76121968D01*
X109476501Y-76105997D01*
X109537390Y-76100000D01*
X110337610Y-76100000D01*
X110398499Y-76105997D01*
X110398499Y-76105997D01*
G37*
G36*
X108523499Y-76105997D02*
G01*
X108576147Y-76121968D01*
X108624668Y-76147902D01*
X108667195Y-76182805D01*
X108702098Y-76225332D01*
X108728032Y-76273853D01*
X108744003Y-76326501D01*
X108750000Y-76387390D01*
X108750000Y-77612610D01*
X108744003Y-77673499D01*
X108728032Y-77726147D01*
X108702098Y-77774668D01*
X108667195Y-77817195D01*
X108624668Y-77852098D01*
X108576147Y-77878032D01*
X108523499Y-77894003D01*
X108462610Y-77900000D01*
X107662390Y-77900000D01*
X107601501Y-77894003D01*
X107548853Y-77878032D01*
X107500332Y-77852098D01*
X107457805Y-77817195D01*
X107422902Y-77774668D01*
X107396968Y-77726147D01*
X107380997Y-77673499D01*
X107375000Y-77612610D01*
X107375000Y-76387390D01*
X107380997Y-76326501D01*
X107396968Y-76273853D01*
X107422902Y-76225332D01*
X107457805Y-76182805D01*
X107500332Y-76147902D01*
X107548853Y-76121968D01*
X107601501Y-76105997D01*
X107662390Y-76100000D01*
X108462610Y-76100000D01*
X108523499Y-76105997D01*
X108523499Y-76105997D01*
G37*
G36*
X103376448Y-75056873D02*
G01*
X103446232Y-75063746D01*
X103535770Y-75090907D01*
X103625309Y-75118068D01*
X103685049Y-75150000D01*
X103790345Y-75206282D01*
X103790347Y-75206283D01*
X103790346Y-75206283D01*
X103935002Y-75324998D01*
X104053717Y-75469654D01*
X104141932Y-75634691D01*
X104141932Y-75634692D01*
X104196254Y-75813768D01*
X104214596Y-76000000D01*
X104196254Y-76186232D01*
X104184393Y-76225332D01*
X104141932Y-76365309D01*
X104053717Y-76530346D01*
X103935002Y-76675002D01*
X103803315Y-76783073D01*
X103790345Y-76793718D01*
X103713523Y-76834780D01*
X103625309Y-76881932D01*
X103535770Y-76909093D01*
X103446232Y-76936254D01*
X103376448Y-76943127D01*
X103306666Y-76950000D01*
X102693334Y-76950000D01*
X102623552Y-76943127D01*
X102553768Y-76936254D01*
X102464230Y-76909093D01*
X102374691Y-76881932D01*
X102286477Y-76834780D01*
X102209655Y-76793718D01*
X102196685Y-76783073D01*
X102064998Y-76675002D01*
X101946283Y-76530346D01*
X101858068Y-76365309D01*
X101815607Y-76225332D01*
X101803746Y-76186232D01*
X101785404Y-76000000D01*
X101803746Y-75813768D01*
X101858068Y-75634692D01*
X101858068Y-75634691D01*
X101946283Y-75469654D01*
X102064998Y-75324998D01*
X102209654Y-75206283D01*
X102209653Y-75206283D01*
X102209655Y-75206282D01*
X102314951Y-75150000D01*
X102374691Y-75118068D01*
X102464230Y-75090907D01*
X102553768Y-75063746D01*
X102623552Y-75056873D01*
X102693334Y-75050000D01*
X103306666Y-75050000D01*
X103376448Y-75056873D01*
X103376448Y-75056873D01*
G37*
G36*
X125023499Y-74105997D02*
G01*
X125076147Y-74121968D01*
X125124668Y-74147902D01*
X125167195Y-74182805D01*
X125202098Y-74225332D01*
X125228032Y-74273853D01*
X125244003Y-74326501D01*
X125250000Y-74387390D01*
X125250000Y-75612610D01*
X125244003Y-75673499D01*
X125228032Y-75726147D01*
X125202098Y-75774668D01*
X125167195Y-75817195D01*
X125124668Y-75852098D01*
X125076147Y-75878032D01*
X125023499Y-75894003D01*
X124962610Y-75900000D01*
X124162390Y-75900000D01*
X124101501Y-75894003D01*
X124048853Y-75878032D01*
X124000332Y-75852098D01*
X123957805Y-75817195D01*
X123922902Y-75774668D01*
X123896968Y-75726147D01*
X123880997Y-75673499D01*
X123875000Y-75612610D01*
X123875000Y-74387390D01*
X123880997Y-74326501D01*
X123896968Y-74273853D01*
X123922902Y-74225332D01*
X123957805Y-74182805D01*
X124000332Y-74147902D01*
X124048853Y-74121968D01*
X124101501Y-74105997D01*
X124162390Y-74100000D01*
X124962610Y-74100000D01*
X125023499Y-74105997D01*
X125023499Y-74105997D01*
G37*
G36*
X119523499Y-74105997D02*
G01*
X119576147Y-74121968D01*
X119624668Y-74147902D01*
X119667195Y-74182805D01*
X119702098Y-74225332D01*
X119728032Y-74273853D01*
X119744003Y-74326501D01*
X119750000Y-74387390D01*
X119750000Y-75612610D01*
X119744003Y-75673499D01*
X119728032Y-75726147D01*
X119702098Y-75774668D01*
X119667195Y-75817195D01*
X119624668Y-75852098D01*
X119576147Y-75878032D01*
X119523499Y-75894003D01*
X119462610Y-75900000D01*
X118662390Y-75900000D01*
X118601501Y-75894003D01*
X118548853Y-75878032D01*
X118500332Y-75852098D01*
X118457805Y-75817195D01*
X118422902Y-75774668D01*
X118396968Y-75726147D01*
X118380997Y-75673499D01*
X118375000Y-75612610D01*
X118375000Y-74387390D01*
X118380997Y-74326501D01*
X118396968Y-74273853D01*
X118422902Y-74225332D01*
X118457805Y-74182805D01*
X118500332Y-74147902D01*
X118548853Y-74121968D01*
X118601501Y-74105997D01*
X118662390Y-74100000D01*
X119462610Y-74100000D01*
X119523499Y-74105997D01*
X119523499Y-74105997D01*
G37*
G36*
X121398499Y-74105997D02*
G01*
X121451147Y-74121968D01*
X121499668Y-74147902D01*
X121542195Y-74182805D01*
X121577098Y-74225332D01*
X121603032Y-74273853D01*
X121619003Y-74326501D01*
X121625000Y-74387390D01*
X121625000Y-75612610D01*
X121619003Y-75673499D01*
X121603032Y-75726147D01*
X121577098Y-75774668D01*
X121542195Y-75817195D01*
X121499668Y-75852098D01*
X121451147Y-75878032D01*
X121398499Y-75894003D01*
X121337610Y-75900000D01*
X120537390Y-75900000D01*
X120476501Y-75894003D01*
X120423853Y-75878032D01*
X120375332Y-75852098D01*
X120332805Y-75817195D01*
X120297902Y-75774668D01*
X120271968Y-75726147D01*
X120255997Y-75673499D01*
X120250000Y-75612610D01*
X120250000Y-74387390D01*
X120255997Y-74326501D01*
X120271968Y-74273853D01*
X120297902Y-74225332D01*
X120332805Y-74182805D01*
X120375332Y-74147902D01*
X120423853Y-74121968D01*
X120476501Y-74105997D01*
X120537390Y-74100000D01*
X121337610Y-74100000D01*
X121398499Y-74105997D01*
X121398499Y-74105997D01*
G37*
G36*
X114023499Y-74105997D02*
G01*
X114076147Y-74121968D01*
X114124668Y-74147902D01*
X114167195Y-74182805D01*
X114202098Y-74225332D01*
X114228032Y-74273853D01*
X114244003Y-74326501D01*
X114250000Y-74387390D01*
X114250000Y-75612610D01*
X114244003Y-75673499D01*
X114228032Y-75726147D01*
X114202098Y-75774668D01*
X114167195Y-75817195D01*
X114124668Y-75852098D01*
X114076147Y-75878032D01*
X114023499Y-75894003D01*
X113962610Y-75900000D01*
X113162390Y-75900000D01*
X113101501Y-75894003D01*
X113048853Y-75878032D01*
X113000332Y-75852098D01*
X112957805Y-75817195D01*
X112922902Y-75774668D01*
X112896968Y-75726147D01*
X112880997Y-75673499D01*
X112875000Y-75612610D01*
X112875000Y-74387390D01*
X112880997Y-74326501D01*
X112896968Y-74273853D01*
X112922902Y-74225332D01*
X112957805Y-74182805D01*
X113000332Y-74147902D01*
X113048853Y-74121968D01*
X113101501Y-74105997D01*
X113162390Y-74100000D01*
X113962610Y-74100000D01*
X114023499Y-74105997D01*
X114023499Y-74105997D01*
G37*
G36*
X115898499Y-74105997D02*
G01*
X115951147Y-74121968D01*
X115999668Y-74147902D01*
X116042195Y-74182805D01*
X116077098Y-74225332D01*
X116103032Y-74273853D01*
X116119003Y-74326501D01*
X116125000Y-74387390D01*
X116125000Y-75612610D01*
X116119003Y-75673499D01*
X116103032Y-75726147D01*
X116077098Y-75774668D01*
X116042195Y-75817195D01*
X115999668Y-75852098D01*
X115951147Y-75878032D01*
X115898499Y-75894003D01*
X115837610Y-75900000D01*
X115037390Y-75900000D01*
X114976501Y-75894003D01*
X114923853Y-75878032D01*
X114875332Y-75852098D01*
X114832805Y-75817195D01*
X114797902Y-75774668D01*
X114771968Y-75726147D01*
X114755997Y-75673499D01*
X114750000Y-75612610D01*
X114750000Y-74387390D01*
X114755997Y-74326501D01*
X114771968Y-74273853D01*
X114797902Y-74225332D01*
X114832805Y-74182805D01*
X114875332Y-74147902D01*
X114923853Y-74121968D01*
X114976501Y-74105997D01*
X115037390Y-74100000D01*
X115837610Y-74100000D01*
X115898499Y-74105997D01*
X115898499Y-74105997D01*
G37*
G36*
X126898499Y-74105997D02*
G01*
X126951147Y-74121968D01*
X126999668Y-74147902D01*
X127042195Y-74182805D01*
X127077098Y-74225332D01*
X127103032Y-74273853D01*
X127119003Y-74326501D01*
X127125000Y-74387390D01*
X127125000Y-75612610D01*
X127119003Y-75673499D01*
X127103032Y-75726147D01*
X127077098Y-75774668D01*
X127042195Y-75817195D01*
X126999668Y-75852098D01*
X126951147Y-75878032D01*
X126898499Y-75894003D01*
X126837610Y-75900000D01*
X126037390Y-75900000D01*
X125976501Y-75894003D01*
X125923853Y-75878032D01*
X125875332Y-75852098D01*
X125832805Y-75817195D01*
X125797902Y-75774668D01*
X125771968Y-75726147D01*
X125755997Y-75673499D01*
X125750000Y-75612610D01*
X125750000Y-74387390D01*
X125755997Y-74326501D01*
X125771968Y-74273853D01*
X125797902Y-74225332D01*
X125832805Y-74182805D01*
X125875332Y-74147902D01*
X125923853Y-74121968D01*
X125976501Y-74105997D01*
X126037390Y-74100000D01*
X126837610Y-74100000D01*
X126898499Y-74105997D01*
X126898499Y-74105997D01*
G37*
G36*
X156850000Y-74500000D02*
G01*
X154450000Y-74500000D01*
X154450000Y-72600000D01*
X156850000Y-72600000D01*
X156850000Y-74500000D01*
X156850000Y-74500000D01*
G37*
G36*
X103446232Y-72063746D02*
G01*
X103535770Y-72090907D01*
X103625309Y-72118068D01*
X103713523Y-72165220D01*
X103790345Y-72206282D01*
X103790347Y-72206283D01*
X103790346Y-72206283D01*
X103935002Y-72324998D01*
X104053717Y-72469654D01*
X104141932Y-72634691D01*
X104150458Y-72662797D01*
X104176810Y-72749668D01*
X104196254Y-72813769D01*
X104214596Y-72999999D01*
X104196254Y-73186231D01*
X104141932Y-73365309D01*
X104053717Y-73530346D01*
X103935002Y-73675002D01*
X103813557Y-73774668D01*
X103790345Y-73793718D01*
X103713523Y-73834780D01*
X103625309Y-73881932D01*
X103565746Y-73900000D01*
X103446232Y-73936254D01*
X103306666Y-73950000D01*
X102693334Y-73950000D01*
X102553768Y-73936254D01*
X102434254Y-73900000D01*
X102374691Y-73881932D01*
X102286477Y-73834780D01*
X102209655Y-73793718D01*
X102186443Y-73774668D01*
X102064998Y-73675002D01*
X101946283Y-73530346D01*
X101858068Y-73365309D01*
X101803746Y-73186231D01*
X101785404Y-72999999D01*
X101803746Y-72813769D01*
X101823191Y-72749668D01*
X101849542Y-72662797D01*
X101858068Y-72634691D01*
X101946283Y-72469654D01*
X102064998Y-72324998D01*
X102209654Y-72206283D01*
X102209653Y-72206283D01*
X102209655Y-72206282D01*
X102286477Y-72165220D01*
X102374691Y-72118068D01*
X102464230Y-72090907D01*
X102553768Y-72063746D01*
X102693334Y-72050000D01*
X103306666Y-72050000D01*
X103446232Y-72063746D01*
X103446232Y-72063746D01*
G37*
G36*
X110398499Y-72105997D02*
G01*
X110451147Y-72121968D01*
X110499668Y-72147902D01*
X110542195Y-72182805D01*
X110577098Y-72225332D01*
X110603032Y-72273853D01*
X110619003Y-72326501D01*
X110625000Y-72387390D01*
X110625000Y-73612610D01*
X110619003Y-73673499D01*
X110603032Y-73726147D01*
X110577098Y-73774668D01*
X110542195Y-73817195D01*
X110499668Y-73852098D01*
X110451147Y-73878032D01*
X110398499Y-73894003D01*
X110337610Y-73900000D01*
X109537390Y-73900000D01*
X109476501Y-73894003D01*
X109423853Y-73878032D01*
X109375332Y-73852098D01*
X109332805Y-73817195D01*
X109297902Y-73774668D01*
X109271968Y-73726147D01*
X109255997Y-73673499D01*
X109250000Y-73612610D01*
X109250000Y-72387390D01*
X109255997Y-72326501D01*
X109271968Y-72273853D01*
X109297902Y-72225332D01*
X109332805Y-72182805D01*
X109375332Y-72147902D01*
X109423853Y-72121968D01*
X109476501Y-72105997D01*
X109537390Y-72100000D01*
X110337610Y-72100000D01*
X110398499Y-72105997D01*
X110398499Y-72105997D01*
G37*
G36*
X140023499Y-72105997D02*
G01*
X140076147Y-72121968D01*
X140124668Y-72147902D01*
X140167195Y-72182805D01*
X140202098Y-72225332D01*
X140228032Y-72273853D01*
X140244003Y-72326501D01*
X140250000Y-72387390D01*
X140250000Y-73612610D01*
X140244003Y-73673499D01*
X140228032Y-73726147D01*
X140202098Y-73774668D01*
X140167195Y-73817195D01*
X140124668Y-73852098D01*
X140076147Y-73878032D01*
X140023499Y-73894003D01*
X139962610Y-73900000D01*
X139162390Y-73900000D01*
X139101501Y-73894003D01*
X139048853Y-73878032D01*
X139000332Y-73852098D01*
X138957805Y-73817195D01*
X138922902Y-73774668D01*
X138896968Y-73726147D01*
X138880997Y-73673499D01*
X138875000Y-73612610D01*
X138875000Y-72387390D01*
X138880997Y-72326501D01*
X138896968Y-72273853D01*
X138922902Y-72225332D01*
X138957805Y-72182805D01*
X139000332Y-72147902D01*
X139048853Y-72121968D01*
X139101501Y-72105997D01*
X139162390Y-72100000D01*
X139962610Y-72100000D01*
X140023499Y-72105997D01*
X140023499Y-72105997D01*
G37*
G36*
X108523499Y-72105997D02*
G01*
X108576147Y-72121968D01*
X108624668Y-72147902D01*
X108667195Y-72182805D01*
X108702098Y-72225332D01*
X108728032Y-72273853D01*
X108744003Y-72326501D01*
X108750000Y-72387390D01*
X108750000Y-73612610D01*
X108744003Y-73673499D01*
X108728032Y-73726147D01*
X108702098Y-73774668D01*
X108667195Y-73817195D01*
X108624668Y-73852098D01*
X108576147Y-73878032D01*
X108523499Y-73894003D01*
X108462610Y-73900000D01*
X107662390Y-73900000D01*
X107601501Y-73894003D01*
X107548853Y-73878032D01*
X107500332Y-73852098D01*
X107457805Y-73817195D01*
X107422902Y-73774668D01*
X107396968Y-73726147D01*
X107380997Y-73673499D01*
X107375000Y-73612610D01*
X107375000Y-72387390D01*
X107380997Y-72326501D01*
X107396968Y-72273853D01*
X107422902Y-72225332D01*
X107457805Y-72182805D01*
X107500332Y-72147902D01*
X107548853Y-72121968D01*
X107601501Y-72105997D01*
X107662390Y-72100000D01*
X108462610Y-72100000D01*
X108523499Y-72105997D01*
X108523499Y-72105997D01*
G37*
G36*
X141898499Y-72105997D02*
G01*
X141951147Y-72121968D01*
X141999668Y-72147902D01*
X142042195Y-72182805D01*
X142077098Y-72225332D01*
X142103032Y-72273853D01*
X142119003Y-72326501D01*
X142125000Y-72387390D01*
X142125000Y-73612610D01*
X142119003Y-73673499D01*
X142103032Y-73726147D01*
X142077098Y-73774668D01*
X142042195Y-73817195D01*
X141999668Y-73852098D01*
X141951147Y-73878032D01*
X141898499Y-73894003D01*
X141837610Y-73900000D01*
X141037390Y-73900000D01*
X140976501Y-73894003D01*
X140923853Y-73878032D01*
X140875332Y-73852098D01*
X140832805Y-73817195D01*
X140797902Y-73774668D01*
X140771968Y-73726147D01*
X140755997Y-73673499D01*
X140750000Y-73612610D01*
X140750000Y-72387390D01*
X140755997Y-72326501D01*
X140771968Y-72273853D01*
X140797902Y-72225332D01*
X140832805Y-72182805D01*
X140875332Y-72147902D01*
X140923853Y-72121968D01*
X140976501Y-72105997D01*
X141037390Y-72100000D01*
X141837610Y-72100000D01*
X141898499Y-72105997D01*
X141898499Y-72105997D01*
G37*
G36*
X162173499Y-72255997D02*
G01*
X162226147Y-72271968D01*
X162274668Y-72297902D01*
X162317195Y-72332805D01*
X162352098Y-72375332D01*
X162378032Y-72423853D01*
X162394003Y-72476501D01*
X162400000Y-72537390D01*
X162400000Y-73337610D01*
X162394003Y-73398499D01*
X162378032Y-73451147D01*
X162352098Y-73499668D01*
X162317195Y-73542195D01*
X162274668Y-73577098D01*
X162226147Y-73603032D01*
X162173499Y-73619003D01*
X162112610Y-73625000D01*
X160887390Y-73625000D01*
X160826501Y-73619003D01*
X160773853Y-73603032D01*
X160725332Y-73577098D01*
X160682805Y-73542195D01*
X160647902Y-73499668D01*
X160621968Y-73451147D01*
X160605997Y-73398499D01*
X160600000Y-73337610D01*
X160600000Y-72537390D01*
X160605997Y-72476501D01*
X160621968Y-72423853D01*
X160647902Y-72375332D01*
X160682805Y-72332805D01*
X160725332Y-72297902D01*
X160773853Y-72271968D01*
X160826501Y-72255997D01*
X160887390Y-72250000D01*
X162112610Y-72250000D01*
X162173499Y-72255997D01*
X162173499Y-72255997D01*
G37*
G36*
X167173499Y-72255997D02*
G01*
X167226147Y-72271968D01*
X167274668Y-72297902D01*
X167317195Y-72332805D01*
X167352098Y-72375332D01*
X167378032Y-72423853D01*
X167394003Y-72476501D01*
X167400000Y-72537390D01*
X167400000Y-73337610D01*
X167394003Y-73398499D01*
X167378032Y-73451147D01*
X167352098Y-73499668D01*
X167317195Y-73542195D01*
X167274668Y-73577098D01*
X167226147Y-73603032D01*
X167173499Y-73619003D01*
X167112610Y-73625000D01*
X165887390Y-73625000D01*
X165826501Y-73619003D01*
X165773853Y-73603032D01*
X165725332Y-73577098D01*
X165682805Y-73542195D01*
X165647902Y-73499668D01*
X165621968Y-73451147D01*
X165605997Y-73398499D01*
X165600000Y-73337610D01*
X165600000Y-72537390D01*
X165605997Y-72476501D01*
X165621968Y-72423853D01*
X165647902Y-72375332D01*
X165682805Y-72332805D01*
X165725332Y-72297902D01*
X165773853Y-72271968D01*
X165826501Y-72255997D01*
X165887390Y-72250000D01*
X167112610Y-72250000D01*
X167173499Y-72255997D01*
X167173499Y-72255997D01*
G37*
G36*
X150550000Y-73350000D02*
G01*
X148150000Y-73350000D01*
X148150000Y-69150000D01*
X150550000Y-69150000D01*
X150550000Y-73350000D01*
X150550000Y-73350000D01*
G37*
G36*
X145923499Y-71505997D02*
G01*
X145976147Y-71521968D01*
X146024668Y-71547902D01*
X146067195Y-71582805D01*
X146102098Y-71625332D01*
X146128032Y-71673853D01*
X146144003Y-71726501D01*
X146150000Y-71787390D01*
X146150000Y-72587610D01*
X146144003Y-72648499D01*
X146128032Y-72701147D01*
X146102098Y-72749668D01*
X146067195Y-72792195D01*
X146024668Y-72827098D01*
X145976147Y-72853032D01*
X145923499Y-72869003D01*
X145862610Y-72875000D01*
X144637390Y-72875000D01*
X144576501Y-72869003D01*
X144523853Y-72853032D01*
X144475332Y-72827098D01*
X144432805Y-72792195D01*
X144397902Y-72749668D01*
X144371968Y-72701147D01*
X144355997Y-72648499D01*
X144350000Y-72587610D01*
X144350000Y-71787390D01*
X144355997Y-71726501D01*
X144371968Y-71673853D01*
X144397902Y-71625332D01*
X144432805Y-71582805D01*
X144475332Y-71547902D01*
X144523853Y-71521968D01*
X144576501Y-71505997D01*
X144637390Y-71500000D01*
X145862610Y-71500000D01*
X145923499Y-71505997D01*
X145923499Y-71505997D01*
G37*
G36*
X156850000Y-72200000D02*
G01*
X154450000Y-72200000D01*
X154450000Y-70300000D01*
X156850000Y-70300000D01*
X156850000Y-72200000D01*
X156850000Y-72200000D01*
G37*
G36*
X172446232Y-70063746D02*
G01*
X172535770Y-70090907D01*
X172625309Y-70118068D01*
X172713523Y-70165220D01*
X172790345Y-70206282D01*
X172790347Y-70206283D01*
X172790346Y-70206283D01*
X172935002Y-70324998D01*
X173053717Y-70469654D01*
X173141932Y-70634691D01*
X173141932Y-70634692D01*
X173196254Y-70813768D01*
X173214596Y-71000000D01*
X173196254Y-71186232D01*
X173169093Y-71275770D01*
X173141932Y-71365309D01*
X173120048Y-71406250D01*
X173055952Y-71526166D01*
X173053717Y-71530346D01*
X172935002Y-71675002D01*
X172813557Y-71774668D01*
X172790345Y-71793718D01*
X172713523Y-71834780D01*
X172625309Y-71881932D01*
X172565746Y-71900000D01*
X172446232Y-71936254D01*
X172306666Y-71950000D01*
X171693334Y-71950000D01*
X171553768Y-71936254D01*
X171434254Y-71900000D01*
X171374691Y-71881932D01*
X171286477Y-71834780D01*
X171209655Y-71793718D01*
X171186443Y-71774668D01*
X171064998Y-71675002D01*
X170946283Y-71530346D01*
X170944049Y-71526166D01*
X170879952Y-71406250D01*
X170858068Y-71365309D01*
X170830907Y-71275770D01*
X170803746Y-71186232D01*
X170785404Y-71000000D01*
X170803746Y-70813768D01*
X170858068Y-70634692D01*
X170858068Y-70634691D01*
X170946283Y-70469654D01*
X171064998Y-70324998D01*
X171209654Y-70206283D01*
X171209653Y-70206283D01*
X171209655Y-70206282D01*
X171286477Y-70165220D01*
X171374691Y-70118068D01*
X171464230Y-70090907D01*
X171553768Y-70063746D01*
X171693334Y-70050000D01*
X172306666Y-70050000D01*
X172446232Y-70063746D01*
X172446232Y-70063746D01*
G37*
G36*
X126898499Y-70105997D02*
G01*
X126951147Y-70121968D01*
X126999668Y-70147902D01*
X127042195Y-70182805D01*
X127077098Y-70225332D01*
X127103032Y-70273853D01*
X127119003Y-70326501D01*
X127125000Y-70387390D01*
X127125000Y-71612610D01*
X127119003Y-71673499D01*
X127103032Y-71726147D01*
X127077098Y-71774668D01*
X127042195Y-71817195D01*
X126999668Y-71852098D01*
X126951147Y-71878032D01*
X126898499Y-71894003D01*
X126837610Y-71900000D01*
X126037390Y-71900000D01*
X125976501Y-71894003D01*
X125923853Y-71878032D01*
X125875332Y-71852098D01*
X125832805Y-71817195D01*
X125797902Y-71774668D01*
X125771968Y-71726147D01*
X125755997Y-71673499D01*
X125750000Y-71612610D01*
X125750000Y-70387390D01*
X125755997Y-70326501D01*
X125771968Y-70273853D01*
X125797902Y-70225332D01*
X125832805Y-70182805D01*
X125875332Y-70147902D01*
X125923853Y-70121968D01*
X125976501Y-70105997D01*
X126037390Y-70100000D01*
X126837610Y-70100000D01*
X126898499Y-70105997D01*
X126898499Y-70105997D01*
G37*
G36*
X121398499Y-70105997D02*
G01*
X121451147Y-70121968D01*
X121499668Y-70147902D01*
X121542195Y-70182805D01*
X121577098Y-70225332D01*
X121603032Y-70273853D01*
X121619003Y-70326501D01*
X121625000Y-70387390D01*
X121625000Y-71612610D01*
X121619003Y-71673499D01*
X121603032Y-71726147D01*
X121577098Y-71774668D01*
X121542195Y-71817195D01*
X121499668Y-71852098D01*
X121451147Y-71878032D01*
X121398499Y-71894003D01*
X121337610Y-71900000D01*
X120537390Y-71900000D01*
X120476501Y-71894003D01*
X120423853Y-71878032D01*
X120375332Y-71852098D01*
X120332805Y-71817195D01*
X120297902Y-71774668D01*
X120271968Y-71726147D01*
X120255997Y-71673499D01*
X120250000Y-71612610D01*
X120250000Y-70387390D01*
X120255997Y-70326501D01*
X120271968Y-70273853D01*
X120297902Y-70225332D01*
X120332805Y-70182805D01*
X120375332Y-70147902D01*
X120423853Y-70121968D01*
X120476501Y-70105997D01*
X120537390Y-70100000D01*
X121337610Y-70100000D01*
X121398499Y-70105997D01*
X121398499Y-70105997D01*
G37*
G36*
X125023499Y-70105997D02*
G01*
X125076147Y-70121968D01*
X125124668Y-70147902D01*
X125167195Y-70182805D01*
X125202098Y-70225332D01*
X125228032Y-70273853D01*
X125244003Y-70326501D01*
X125250000Y-70387390D01*
X125250000Y-71612610D01*
X125244003Y-71673499D01*
X125228032Y-71726147D01*
X125202098Y-71774668D01*
X125167195Y-71817195D01*
X125124668Y-71852098D01*
X125076147Y-71878032D01*
X125023499Y-71894003D01*
X124962610Y-71900000D01*
X124162390Y-71900000D01*
X124101501Y-71894003D01*
X124048853Y-71878032D01*
X124000332Y-71852098D01*
X123957805Y-71817195D01*
X123922902Y-71774668D01*
X123896968Y-71726147D01*
X123880997Y-71673499D01*
X123875000Y-71612610D01*
X123875000Y-70387390D01*
X123880997Y-70326501D01*
X123896968Y-70273853D01*
X123922902Y-70225332D01*
X123957805Y-70182805D01*
X124000332Y-70147902D01*
X124048853Y-70121968D01*
X124101501Y-70105997D01*
X124162390Y-70100000D01*
X124962610Y-70100000D01*
X125023499Y-70105997D01*
X125023499Y-70105997D01*
G37*
G36*
X119523499Y-70105997D02*
G01*
X119576147Y-70121968D01*
X119624668Y-70147902D01*
X119667195Y-70182805D01*
X119702098Y-70225332D01*
X119728032Y-70273853D01*
X119744003Y-70326501D01*
X119750000Y-70387390D01*
X119750000Y-71612610D01*
X119744003Y-71673499D01*
X119728032Y-71726147D01*
X119702098Y-71774668D01*
X119667195Y-71817195D01*
X119624668Y-71852098D01*
X119576147Y-71878032D01*
X119523499Y-71894003D01*
X119462610Y-71900000D01*
X118662390Y-71900000D01*
X118601501Y-71894003D01*
X118548853Y-71878032D01*
X118500332Y-71852098D01*
X118457805Y-71817195D01*
X118422902Y-71774668D01*
X118396968Y-71726147D01*
X118380997Y-71673499D01*
X118375000Y-71612610D01*
X118375000Y-70387390D01*
X118380997Y-70326501D01*
X118396968Y-70273853D01*
X118422902Y-70225332D01*
X118457805Y-70182805D01*
X118500332Y-70147902D01*
X118548853Y-70121968D01*
X118601501Y-70105997D01*
X118662390Y-70100000D01*
X119462610Y-70100000D01*
X119523499Y-70105997D01*
X119523499Y-70105997D01*
G37*
G36*
X114023499Y-70105997D02*
G01*
X114076147Y-70121968D01*
X114124668Y-70147902D01*
X114167195Y-70182805D01*
X114202098Y-70225332D01*
X114228032Y-70273853D01*
X114244003Y-70326501D01*
X114250000Y-70387390D01*
X114250000Y-71612610D01*
X114244003Y-71673499D01*
X114228032Y-71726147D01*
X114202098Y-71774668D01*
X114167195Y-71817195D01*
X114124668Y-71852098D01*
X114076147Y-71878032D01*
X114023499Y-71894003D01*
X113962610Y-71900000D01*
X113162390Y-71900000D01*
X113101501Y-71894003D01*
X113048853Y-71878032D01*
X113000332Y-71852098D01*
X112957805Y-71817195D01*
X112922902Y-71774668D01*
X112896968Y-71726147D01*
X112880997Y-71673499D01*
X112875000Y-71612610D01*
X112875000Y-70387390D01*
X112880997Y-70326501D01*
X112896968Y-70273853D01*
X112922902Y-70225332D01*
X112957805Y-70182805D01*
X113000332Y-70147902D01*
X113048853Y-70121968D01*
X113101501Y-70105997D01*
X113162390Y-70100000D01*
X113962610Y-70100000D01*
X114023499Y-70105997D01*
X114023499Y-70105997D01*
G37*
G36*
X115898499Y-70105997D02*
G01*
X115951147Y-70121968D01*
X115999668Y-70147902D01*
X116042195Y-70182805D01*
X116077098Y-70225332D01*
X116103032Y-70273853D01*
X116119003Y-70326501D01*
X116125000Y-70387390D01*
X116125000Y-71612610D01*
X116119003Y-71673499D01*
X116103032Y-71726147D01*
X116077098Y-71774668D01*
X116042195Y-71817195D01*
X115999668Y-71852098D01*
X115951147Y-71878032D01*
X115898499Y-71894003D01*
X115837610Y-71900000D01*
X115037390Y-71900000D01*
X114976501Y-71894003D01*
X114923853Y-71878032D01*
X114875332Y-71852098D01*
X114832805Y-71817195D01*
X114797902Y-71774668D01*
X114771968Y-71726147D01*
X114755997Y-71673499D01*
X114750000Y-71612610D01*
X114750000Y-70387390D01*
X114755997Y-70326501D01*
X114771968Y-70273853D01*
X114797902Y-70225332D01*
X114832805Y-70182805D01*
X114875332Y-70147902D01*
X114923853Y-70121968D01*
X114976501Y-70105997D01*
X115037390Y-70100000D01*
X115837610Y-70100000D01*
X115898499Y-70105997D01*
X115898499Y-70105997D01*
G37*
G36*
X167173499Y-70380997D02*
G01*
X167226147Y-70396968D01*
X167274668Y-70422902D01*
X167317195Y-70457805D01*
X167352098Y-70500332D01*
X167378032Y-70548853D01*
X167394003Y-70601501D01*
X167400000Y-70662390D01*
X167400000Y-71462610D01*
X167394003Y-71523499D01*
X167378032Y-71576147D01*
X167352098Y-71624668D01*
X167317195Y-71667195D01*
X167274668Y-71702098D01*
X167226147Y-71728032D01*
X167173499Y-71744003D01*
X167112610Y-71750000D01*
X165887390Y-71750000D01*
X165826501Y-71744003D01*
X165773853Y-71728032D01*
X165725332Y-71702098D01*
X165682805Y-71667195D01*
X165647902Y-71624668D01*
X165621968Y-71576147D01*
X165605997Y-71523499D01*
X165600000Y-71462610D01*
X165600000Y-70662390D01*
X165605997Y-70601501D01*
X165621968Y-70548853D01*
X165647902Y-70500332D01*
X165682805Y-70457805D01*
X165725332Y-70422902D01*
X165773853Y-70396968D01*
X165826501Y-70380997D01*
X165887390Y-70375000D01*
X167112610Y-70375000D01*
X167173499Y-70380997D01*
X167173499Y-70380997D01*
G37*
G36*
X162173499Y-70380997D02*
G01*
X162226147Y-70396968D01*
X162274668Y-70422902D01*
X162317195Y-70457805D01*
X162352098Y-70500332D01*
X162378032Y-70548853D01*
X162394003Y-70601501D01*
X162400000Y-70662390D01*
X162400000Y-71462610D01*
X162394003Y-71523499D01*
X162378032Y-71576147D01*
X162352098Y-71624668D01*
X162317195Y-71667195D01*
X162274668Y-71702098D01*
X162226147Y-71728032D01*
X162173499Y-71744003D01*
X162112610Y-71750000D01*
X160887390Y-71750000D01*
X160826501Y-71744003D01*
X160773853Y-71728032D01*
X160725332Y-71702098D01*
X160682805Y-71667195D01*
X160647902Y-71624668D01*
X160621968Y-71576147D01*
X160605997Y-71523499D01*
X160600000Y-71462610D01*
X160600000Y-70662390D01*
X160605997Y-70601501D01*
X160621968Y-70548853D01*
X160647902Y-70500332D01*
X160682805Y-70457805D01*
X160725332Y-70422902D01*
X160773853Y-70396968D01*
X160826501Y-70380997D01*
X160887390Y-70375000D01*
X162112610Y-70375000D01*
X162173499Y-70380997D01*
X162173499Y-70380997D01*
G37*
G36*
X176620665Y-67826501D02*
G01*
X176815872Y-67865330D01*
X177125252Y-67993479D01*
X177403687Y-68179523D01*
X177640477Y-68416313D01*
X177826521Y-68694748D01*
X177954670Y-69004128D01*
X177976248Y-69112610D01*
X178020000Y-69332563D01*
X178020000Y-69667437D01*
X177993859Y-69798853D01*
X177954670Y-69995872D01*
X177826521Y-70305252D01*
X177640477Y-70583687D01*
X177403687Y-70820477D01*
X177125252Y-71006521D01*
X176815872Y-71134670D01*
X176651653Y-71167335D01*
X176487437Y-71200000D01*
X176152563Y-71200000D01*
X175988347Y-71167335D01*
X175824128Y-71134670D01*
X175514748Y-71006521D01*
X175236313Y-70820477D01*
X174999523Y-70583687D01*
X174813479Y-70305252D01*
X174685330Y-69995872D01*
X174646141Y-69798853D01*
X174620000Y-69667437D01*
X174620000Y-69332563D01*
X174663752Y-69112610D01*
X174685330Y-69004128D01*
X174813479Y-68694748D01*
X174999523Y-68416313D01*
X175236313Y-68179523D01*
X175514748Y-67993479D01*
X175824128Y-67865330D01*
X176019335Y-67826501D01*
X176152563Y-67800000D01*
X176487437Y-67800000D01*
X176620665Y-67826501D01*
X176620665Y-67826501D01*
G37*
G36*
X145923499Y-69630997D02*
G01*
X145976147Y-69646968D01*
X146024668Y-69672902D01*
X146067195Y-69707805D01*
X146102098Y-69750332D01*
X146128032Y-69798853D01*
X146144003Y-69851501D01*
X146150000Y-69912390D01*
X146150000Y-70712610D01*
X146144003Y-70773499D01*
X146128032Y-70826147D01*
X146102098Y-70874668D01*
X146067195Y-70917195D01*
X146024668Y-70952098D01*
X145976147Y-70978032D01*
X145923499Y-70994003D01*
X145862610Y-71000000D01*
X144637390Y-71000000D01*
X144576501Y-70994003D01*
X144523853Y-70978032D01*
X144475332Y-70952098D01*
X144432805Y-70917195D01*
X144397902Y-70874668D01*
X144371968Y-70826147D01*
X144355997Y-70773499D01*
X144350000Y-70712610D01*
X144350000Y-69912390D01*
X144355997Y-69851501D01*
X144371968Y-69798853D01*
X144397902Y-69750332D01*
X144432805Y-69707805D01*
X144475332Y-69672902D01*
X144523853Y-69646968D01*
X144576501Y-69630997D01*
X144637390Y-69625000D01*
X145862610Y-69625000D01*
X145923499Y-69630997D01*
X145923499Y-69630997D01*
G37*
G36*
X103370123Y-69056250D02*
G01*
X103446232Y-69063746D01*
X103535770Y-69090907D01*
X103625309Y-69118068D01*
X103685049Y-69150000D01*
X103790345Y-69206282D01*
X103790347Y-69206283D01*
X103790346Y-69206283D01*
X103935002Y-69324998D01*
X104053717Y-69469654D01*
X104141932Y-69634691D01*
X104158041Y-69687797D01*
X104196254Y-69813768D01*
X104214596Y-70000000D01*
X104196254Y-70186232D01*
X104184393Y-70225332D01*
X104141932Y-70365309D01*
X104105786Y-70432932D01*
X104055093Y-70527773D01*
X104053717Y-70530346D01*
X103935002Y-70675002D01*
X103814982Y-70773499D01*
X103790345Y-70793718D01*
X103713523Y-70834780D01*
X103625309Y-70881932D01*
X103567994Y-70899318D01*
X103446232Y-70936254D01*
X103387201Y-70942068D01*
X103306666Y-70950000D01*
X102693334Y-70950000D01*
X102612799Y-70942068D01*
X102553768Y-70936254D01*
X102432006Y-70899318D01*
X102374691Y-70881932D01*
X102286477Y-70834780D01*
X102209655Y-70793718D01*
X102185018Y-70773499D01*
X102064998Y-70675002D01*
X101946283Y-70530346D01*
X101944908Y-70527773D01*
X101894214Y-70432932D01*
X101858068Y-70365309D01*
X101815607Y-70225332D01*
X101803746Y-70186232D01*
X101785404Y-70000000D01*
X101803746Y-69813768D01*
X101841959Y-69687797D01*
X101858068Y-69634691D01*
X101946283Y-69469654D01*
X102064998Y-69324998D01*
X102209654Y-69206283D01*
X102209653Y-69206283D01*
X102209655Y-69206282D01*
X102314951Y-69150000D01*
X102374691Y-69118068D01*
X102464230Y-69090907D01*
X102553768Y-69063746D01*
X102629877Y-69056250D01*
X102693334Y-69050000D01*
X103306666Y-69050000D01*
X103370123Y-69056250D01*
X103370123Y-69056250D01*
G37*
G36*
X141898499Y-68355997D02*
G01*
X141951147Y-68371968D01*
X141999668Y-68397902D01*
X142042195Y-68432805D01*
X142077098Y-68475332D01*
X142103032Y-68523853D01*
X142119003Y-68576501D01*
X142125000Y-68637390D01*
X142125000Y-69862610D01*
X142119003Y-69923499D01*
X142103032Y-69976147D01*
X142077098Y-70024668D01*
X142042195Y-70067195D01*
X141999668Y-70102098D01*
X141951147Y-70128032D01*
X141898499Y-70144003D01*
X141837610Y-70150000D01*
X141037390Y-70150000D01*
X140976501Y-70144003D01*
X140923853Y-70128032D01*
X140875332Y-70102098D01*
X140832805Y-70067195D01*
X140797902Y-70024668D01*
X140771968Y-69976147D01*
X140755997Y-69923499D01*
X140750000Y-69862610D01*
X140750000Y-68637390D01*
X140755997Y-68576501D01*
X140771968Y-68523853D01*
X140797902Y-68475332D01*
X140832805Y-68432805D01*
X140875332Y-68397902D01*
X140923853Y-68371968D01*
X140976501Y-68355997D01*
X141037390Y-68350000D01*
X141837610Y-68350000D01*
X141898499Y-68355997D01*
X141898499Y-68355997D01*
G37*
G36*
X140023499Y-68355997D02*
G01*
X140076147Y-68371968D01*
X140124668Y-68397902D01*
X140167195Y-68432805D01*
X140202098Y-68475332D01*
X140228032Y-68523853D01*
X140244003Y-68576501D01*
X140250000Y-68637390D01*
X140250000Y-69862610D01*
X140244003Y-69923499D01*
X140228032Y-69976147D01*
X140202098Y-70024668D01*
X140167195Y-70067195D01*
X140124668Y-70102098D01*
X140076147Y-70128032D01*
X140023499Y-70144003D01*
X139962610Y-70150000D01*
X139162390Y-70150000D01*
X139101501Y-70144003D01*
X139048853Y-70128032D01*
X139000332Y-70102098D01*
X138957805Y-70067195D01*
X138922902Y-70024668D01*
X138896968Y-69976147D01*
X138880997Y-69923499D01*
X138875000Y-69862610D01*
X138875000Y-68637390D01*
X138880997Y-68576501D01*
X138896968Y-68523853D01*
X138922902Y-68475332D01*
X138957805Y-68432805D01*
X139000332Y-68397902D01*
X139048853Y-68371968D01*
X139101501Y-68355997D01*
X139162390Y-68350000D01*
X139962610Y-68350000D01*
X140023499Y-68355997D01*
X140023499Y-68355997D01*
G37*
G36*
X110398499Y-68105997D02*
G01*
X110451147Y-68121968D01*
X110499668Y-68147902D01*
X110542195Y-68182805D01*
X110577098Y-68225332D01*
X110603032Y-68273853D01*
X110619003Y-68326501D01*
X110625000Y-68387390D01*
X110625000Y-69612610D01*
X110619003Y-69673499D01*
X110603032Y-69726147D01*
X110577098Y-69774668D01*
X110542195Y-69817195D01*
X110499668Y-69852098D01*
X110451147Y-69878032D01*
X110398499Y-69894003D01*
X110337610Y-69900000D01*
X109537390Y-69900000D01*
X109476501Y-69894003D01*
X109423853Y-69878032D01*
X109375332Y-69852098D01*
X109332805Y-69817195D01*
X109297902Y-69774668D01*
X109271968Y-69726147D01*
X109255997Y-69673499D01*
X109250000Y-69612610D01*
X109250000Y-68387390D01*
X109255997Y-68326501D01*
X109271968Y-68273853D01*
X109297902Y-68225332D01*
X109332805Y-68182805D01*
X109375332Y-68147902D01*
X109423853Y-68121968D01*
X109476501Y-68105997D01*
X109537390Y-68100000D01*
X110337610Y-68100000D01*
X110398499Y-68105997D01*
X110398499Y-68105997D01*
G37*
G36*
X108523499Y-68105997D02*
G01*
X108576147Y-68121968D01*
X108624668Y-68147902D01*
X108667195Y-68182805D01*
X108702098Y-68225332D01*
X108728032Y-68273853D01*
X108744003Y-68326501D01*
X108750000Y-68387390D01*
X108750000Y-69612610D01*
X108744003Y-69673499D01*
X108728032Y-69726147D01*
X108702098Y-69774668D01*
X108667195Y-69817195D01*
X108624668Y-69852098D01*
X108576147Y-69878032D01*
X108523499Y-69894003D01*
X108462610Y-69900000D01*
X107662390Y-69900000D01*
X107601501Y-69894003D01*
X107548853Y-69878032D01*
X107500332Y-69852098D01*
X107457805Y-69817195D01*
X107422902Y-69774668D01*
X107396968Y-69726147D01*
X107380997Y-69673499D01*
X107375000Y-69612610D01*
X107375000Y-68387390D01*
X107380997Y-68326501D01*
X107396968Y-68273853D01*
X107422902Y-68225332D01*
X107457805Y-68182805D01*
X107500332Y-68147902D01*
X107548853Y-68121968D01*
X107601501Y-68105997D01*
X107662390Y-68100000D01*
X108462610Y-68100000D01*
X108523499Y-68105997D01*
X108523499Y-68105997D01*
G37*
G36*
X156850000Y-69900000D02*
G01*
X154450000Y-69900000D01*
X154450000Y-68000000D01*
X156850000Y-68000000D01*
X156850000Y-69900000D01*
X156850000Y-69900000D01*
G37*
G36*
X165398499Y-67605997D02*
G01*
X165451147Y-67621968D01*
X165499668Y-67647902D01*
X165542195Y-67682805D01*
X165577098Y-67725332D01*
X165603032Y-67773853D01*
X165619003Y-67826501D01*
X165625000Y-67887390D01*
X165625000Y-69112610D01*
X165619003Y-69173499D01*
X165603032Y-69226147D01*
X165577098Y-69274668D01*
X165542195Y-69317195D01*
X165499668Y-69352098D01*
X165451147Y-69378032D01*
X165398499Y-69394003D01*
X165337610Y-69400000D01*
X164537390Y-69400000D01*
X164476501Y-69394003D01*
X164423853Y-69378032D01*
X164375332Y-69352098D01*
X164332805Y-69317195D01*
X164297902Y-69274668D01*
X164271968Y-69226147D01*
X164255997Y-69173499D01*
X164250000Y-69112610D01*
X164250000Y-67887390D01*
X164255997Y-67826501D01*
X164271968Y-67773853D01*
X164297902Y-67725332D01*
X164332805Y-67682805D01*
X164375332Y-67647902D01*
X164423853Y-67621968D01*
X164476501Y-67605997D01*
X164537390Y-67600000D01*
X165337610Y-67600000D01*
X165398499Y-67605997D01*
X165398499Y-67605997D01*
G37*
G36*
X163523499Y-67605997D02*
G01*
X163576147Y-67621968D01*
X163624668Y-67647902D01*
X163667195Y-67682805D01*
X163702098Y-67725332D01*
X163728032Y-67773853D01*
X163744003Y-67826501D01*
X163750000Y-67887390D01*
X163750000Y-69112610D01*
X163744003Y-69173499D01*
X163728032Y-69226147D01*
X163702098Y-69274668D01*
X163667195Y-69317195D01*
X163624668Y-69352098D01*
X163576147Y-69378032D01*
X163523499Y-69394003D01*
X163462610Y-69400000D01*
X162662390Y-69400000D01*
X162601501Y-69394003D01*
X162548853Y-69378032D01*
X162500332Y-69352098D01*
X162457805Y-69317195D01*
X162422902Y-69274668D01*
X162396968Y-69226147D01*
X162380997Y-69173499D01*
X162375000Y-69112610D01*
X162375000Y-67887390D01*
X162380997Y-67826501D01*
X162396968Y-67773853D01*
X162422902Y-67725332D01*
X162457805Y-67682805D01*
X162500332Y-67647902D01*
X162548853Y-67621968D01*
X162601501Y-67605997D01*
X162662390Y-67600000D01*
X163462610Y-67600000D01*
X163523499Y-67605997D01*
X163523499Y-67605997D01*
G37*
G36*
X173022067Y-67055076D02*
G01*
X173065728Y-67068320D01*
X173105964Y-67089827D01*
X173141231Y-67118769D01*
X173170173Y-67154036D01*
X173191680Y-67194272D01*
X173204924Y-67237933D01*
X173210000Y-67289474D01*
X173210000Y-68710526D01*
X173204924Y-68762067D01*
X173191680Y-68805728D01*
X173170173Y-68845964D01*
X173141231Y-68881231D01*
X173105964Y-68910173D01*
X173065728Y-68931680D01*
X173022067Y-68944924D01*
X172970526Y-68950000D01*
X171029474Y-68950000D01*
X170977933Y-68944924D01*
X170934272Y-68931680D01*
X170894036Y-68910173D01*
X170858769Y-68881231D01*
X170829827Y-68845964D01*
X170808320Y-68805728D01*
X170795076Y-68762067D01*
X170790000Y-68710526D01*
X170790000Y-67289474D01*
X170795076Y-67237933D01*
X170808320Y-67194272D01*
X170829827Y-67154036D01*
X170858769Y-67118769D01*
X170894036Y-67089827D01*
X170934272Y-67068320D01*
X170977933Y-67055076D01*
X171029474Y-67050000D01*
X172970526Y-67050000D01*
X173022067Y-67055076D01*
X173022067Y-67055076D01*
G37*
G36*
X103376448Y-66056873D02*
G01*
X103446232Y-66063746D01*
X103535770Y-66090907D01*
X103625309Y-66118068D01*
X103713523Y-66165220D01*
X103790345Y-66206282D01*
X103790347Y-66206283D01*
X103790346Y-66206283D01*
X103935002Y-66324998D01*
X104053717Y-66469654D01*
X104141932Y-66634691D01*
X104141932Y-66634692D01*
X104196254Y-66813768D01*
X104214596Y-67000000D01*
X104196254Y-67186232D01*
X104193815Y-67194272D01*
X104141932Y-67365309D01*
X104053717Y-67530346D01*
X103935002Y-67675001D01*
X103873673Y-67725332D01*
X103790345Y-67793718D01*
X103729012Y-67826501D01*
X103625309Y-67881932D01*
X103565746Y-67900000D01*
X103446232Y-67936254D01*
X103306666Y-67950000D01*
X102693334Y-67950000D01*
X102553768Y-67936254D01*
X102434254Y-67900000D01*
X102374691Y-67881932D01*
X102270988Y-67826501D01*
X102209655Y-67793718D01*
X102126327Y-67725332D01*
X102064998Y-67675001D01*
X101946283Y-67530346D01*
X101858068Y-67365309D01*
X101806185Y-67194272D01*
X101803746Y-67186232D01*
X101785404Y-67000000D01*
X101803746Y-66813768D01*
X101858068Y-66634692D01*
X101858068Y-66634691D01*
X101946283Y-66469654D01*
X102064998Y-66324998D01*
X102209654Y-66206283D01*
X102209653Y-66206283D01*
X102209655Y-66206282D01*
X102286477Y-66165220D01*
X102374691Y-66118068D01*
X102464230Y-66090907D01*
X102553768Y-66063746D01*
X102623552Y-66056873D01*
X102693334Y-66050000D01*
X103306666Y-66050000D01*
X103376448Y-66056873D01*
X103376448Y-66056873D01*
G37*
G36*
X119523499Y-66105997D02*
G01*
X119576147Y-66121968D01*
X119624668Y-66147902D01*
X119667195Y-66182805D01*
X119702098Y-66225332D01*
X119728032Y-66273853D01*
X119744003Y-66326501D01*
X119750000Y-66387390D01*
X119750000Y-67612610D01*
X119744003Y-67673499D01*
X119728032Y-67726147D01*
X119702098Y-67774668D01*
X119667195Y-67817195D01*
X119624668Y-67852098D01*
X119576147Y-67878032D01*
X119523499Y-67894003D01*
X119462610Y-67900000D01*
X118662390Y-67900000D01*
X118601501Y-67894003D01*
X118548853Y-67878032D01*
X118500332Y-67852098D01*
X118457805Y-67817195D01*
X118422902Y-67774668D01*
X118396968Y-67726147D01*
X118380997Y-67673499D01*
X118375000Y-67612610D01*
X118375000Y-66387390D01*
X118380997Y-66326501D01*
X118396968Y-66273853D01*
X118422902Y-66225332D01*
X118457805Y-66182805D01*
X118500332Y-66147902D01*
X118548853Y-66121968D01*
X118601501Y-66105997D01*
X118662390Y-66100000D01*
X119462610Y-66100000D01*
X119523499Y-66105997D01*
X119523499Y-66105997D01*
G37*
G36*
X126898499Y-66105997D02*
G01*
X126951147Y-66121968D01*
X126999668Y-66147902D01*
X127042195Y-66182805D01*
X127077098Y-66225332D01*
X127103032Y-66273853D01*
X127119003Y-66326501D01*
X127125000Y-66387390D01*
X127125000Y-67612610D01*
X127119003Y-67673499D01*
X127103032Y-67726147D01*
X127077098Y-67774668D01*
X127042195Y-67817195D01*
X126999668Y-67852098D01*
X126951147Y-67878032D01*
X126898499Y-67894003D01*
X126837610Y-67900000D01*
X126037390Y-67900000D01*
X125976501Y-67894003D01*
X125923853Y-67878032D01*
X125875332Y-67852098D01*
X125832805Y-67817195D01*
X125797902Y-67774668D01*
X125771968Y-67726147D01*
X125755997Y-67673499D01*
X125750000Y-67612610D01*
X125750000Y-66387390D01*
X125755997Y-66326501D01*
X125771968Y-66273853D01*
X125797902Y-66225332D01*
X125832805Y-66182805D01*
X125875332Y-66147902D01*
X125923853Y-66121968D01*
X125976501Y-66105997D01*
X126037390Y-66100000D01*
X126837610Y-66100000D01*
X126898499Y-66105997D01*
X126898499Y-66105997D01*
G37*
G36*
X121398499Y-66105997D02*
G01*
X121451147Y-66121968D01*
X121499668Y-66147902D01*
X121542195Y-66182805D01*
X121577098Y-66225332D01*
X121603032Y-66273853D01*
X121619003Y-66326501D01*
X121625000Y-66387390D01*
X121625000Y-67612610D01*
X121619003Y-67673499D01*
X121603032Y-67726147D01*
X121577098Y-67774668D01*
X121542195Y-67817195D01*
X121499668Y-67852098D01*
X121451147Y-67878032D01*
X121398499Y-67894003D01*
X121337610Y-67900000D01*
X120537390Y-67900000D01*
X120476501Y-67894003D01*
X120423853Y-67878032D01*
X120375332Y-67852098D01*
X120332805Y-67817195D01*
X120297902Y-67774668D01*
X120271968Y-67726147D01*
X120255997Y-67673499D01*
X120250000Y-67612610D01*
X120250000Y-66387390D01*
X120255997Y-66326501D01*
X120271968Y-66273853D01*
X120297902Y-66225332D01*
X120332805Y-66182805D01*
X120375332Y-66147902D01*
X120423853Y-66121968D01*
X120476501Y-66105997D01*
X120537390Y-66100000D01*
X121337610Y-66100000D01*
X121398499Y-66105997D01*
X121398499Y-66105997D01*
G37*
G36*
X125023499Y-66105997D02*
G01*
X125076147Y-66121968D01*
X125124668Y-66147902D01*
X125167195Y-66182805D01*
X125202098Y-66225332D01*
X125228032Y-66273853D01*
X125244003Y-66326501D01*
X125250000Y-66387390D01*
X125250000Y-67612610D01*
X125244003Y-67673499D01*
X125228032Y-67726147D01*
X125202098Y-67774668D01*
X125167195Y-67817195D01*
X125124668Y-67852098D01*
X125076147Y-67878032D01*
X125023499Y-67894003D01*
X124962610Y-67900000D01*
X124162390Y-67900000D01*
X124101501Y-67894003D01*
X124048853Y-67878032D01*
X124000332Y-67852098D01*
X123957805Y-67817195D01*
X123922902Y-67774668D01*
X123896968Y-67726147D01*
X123880997Y-67673499D01*
X123875000Y-67612610D01*
X123875000Y-66387390D01*
X123880997Y-66326501D01*
X123896968Y-66273853D01*
X123922902Y-66225332D01*
X123957805Y-66182805D01*
X124000332Y-66147902D01*
X124048853Y-66121968D01*
X124101501Y-66105997D01*
X124162390Y-66100000D01*
X124962610Y-66100000D01*
X125023499Y-66105997D01*
X125023499Y-66105997D01*
G37*
G36*
X114023499Y-66105997D02*
G01*
X114076147Y-66121968D01*
X114124668Y-66147902D01*
X114167195Y-66182805D01*
X114202098Y-66225332D01*
X114228032Y-66273853D01*
X114244003Y-66326501D01*
X114250000Y-66387390D01*
X114250000Y-67612610D01*
X114244003Y-67673499D01*
X114228032Y-67726147D01*
X114202098Y-67774668D01*
X114167195Y-67817195D01*
X114124668Y-67852098D01*
X114076147Y-67878032D01*
X114023499Y-67894003D01*
X113962610Y-67900000D01*
X113162390Y-67900000D01*
X113101501Y-67894003D01*
X113048853Y-67878032D01*
X113000332Y-67852098D01*
X112957805Y-67817195D01*
X112922902Y-67774668D01*
X112896968Y-67726147D01*
X112880997Y-67673499D01*
X112875000Y-67612610D01*
X112875000Y-66387390D01*
X112880997Y-66326501D01*
X112896968Y-66273853D01*
X112922902Y-66225332D01*
X112957805Y-66182805D01*
X113000332Y-66147902D01*
X113048853Y-66121968D01*
X113101501Y-66105997D01*
X113162390Y-66100000D01*
X113962610Y-66100000D01*
X114023499Y-66105997D01*
X114023499Y-66105997D01*
G37*
G36*
X115898499Y-66105997D02*
G01*
X115951147Y-66121968D01*
X115999668Y-66147902D01*
X116042195Y-66182805D01*
X116077098Y-66225332D01*
X116103032Y-66273853D01*
X116119003Y-66326501D01*
X116125000Y-66387390D01*
X116125000Y-67612610D01*
X116119003Y-67673499D01*
X116103032Y-67726147D01*
X116077098Y-67774668D01*
X116042195Y-67817195D01*
X115999668Y-67852098D01*
X115951147Y-67878032D01*
X115898499Y-67894003D01*
X115837610Y-67900000D01*
X115037390Y-67900000D01*
X114976501Y-67894003D01*
X114923853Y-67878032D01*
X114875332Y-67852098D01*
X114832805Y-67817195D01*
X114797902Y-67774668D01*
X114771968Y-67726147D01*
X114755997Y-67673499D01*
X114750000Y-67612610D01*
X114750000Y-66387390D01*
X114755997Y-66326501D01*
X114771968Y-66273853D01*
X114797902Y-66225332D01*
X114832805Y-66182805D01*
X114875332Y-66147902D01*
X114923853Y-66121968D01*
X114976501Y-66105997D01*
X115037390Y-66100000D01*
X115837610Y-66100000D01*
X115898499Y-66105997D01*
X115898499Y-66105997D01*
G37*
G36*
X108523499Y-64105997D02*
G01*
X108576147Y-64121968D01*
X108624668Y-64147902D01*
X108667195Y-64182805D01*
X108702098Y-64225332D01*
X108728032Y-64273853D01*
X108744003Y-64326501D01*
X108750000Y-64387390D01*
X108750000Y-65612610D01*
X108744003Y-65673499D01*
X108728032Y-65726147D01*
X108702098Y-65774668D01*
X108667195Y-65817195D01*
X108624668Y-65852098D01*
X108576147Y-65878032D01*
X108523499Y-65894003D01*
X108462610Y-65900000D01*
X107662390Y-65900000D01*
X107601501Y-65894003D01*
X107548853Y-65878032D01*
X107500332Y-65852098D01*
X107457805Y-65817195D01*
X107422902Y-65774668D01*
X107396968Y-65726147D01*
X107380997Y-65673499D01*
X107375000Y-65612610D01*
X107375000Y-64387390D01*
X107380997Y-64326501D01*
X107396968Y-64273853D01*
X107422902Y-64225332D01*
X107457805Y-64182805D01*
X107500332Y-64147902D01*
X107548853Y-64121968D01*
X107601501Y-64105997D01*
X107662390Y-64100000D01*
X108462610Y-64100000D01*
X108523499Y-64105997D01*
X108523499Y-64105997D01*
G37*
G36*
X110398499Y-64105997D02*
G01*
X110451147Y-64121968D01*
X110499668Y-64147902D01*
X110542195Y-64182805D01*
X110577098Y-64225332D01*
X110603032Y-64273853D01*
X110619003Y-64326501D01*
X110625000Y-64387390D01*
X110625000Y-65612610D01*
X110619003Y-65673499D01*
X110603032Y-65726147D01*
X110577098Y-65774668D01*
X110542195Y-65817195D01*
X110499668Y-65852098D01*
X110451147Y-65878032D01*
X110398499Y-65894003D01*
X110337610Y-65900000D01*
X109537390Y-65900000D01*
X109476501Y-65894003D01*
X109423853Y-65878032D01*
X109375332Y-65852098D01*
X109332805Y-65817195D01*
X109297902Y-65774668D01*
X109271968Y-65726147D01*
X109255997Y-65673499D01*
X109250000Y-65612610D01*
X109250000Y-64387390D01*
X109255997Y-64326501D01*
X109271968Y-64273853D01*
X109297902Y-64225332D01*
X109332805Y-64182805D01*
X109375332Y-64147902D01*
X109423853Y-64121968D01*
X109476501Y-64105997D01*
X109537390Y-64100000D01*
X110337610Y-64100000D01*
X110398499Y-64105997D01*
X110398499Y-64105997D01*
G37*
G36*
X103446232Y-63063746D02*
G01*
X103535770Y-63090907D01*
X103625309Y-63118068D01*
X103713523Y-63165220D01*
X103790345Y-63206282D01*
X103790347Y-63206283D01*
X103790346Y-63206283D01*
X103935002Y-63324998D01*
X104053717Y-63469654D01*
X104141932Y-63634691D01*
X104153704Y-63673499D01*
X104196254Y-63813768D01*
X104214596Y-64000000D01*
X104196254Y-64186232D01*
X104184393Y-64225332D01*
X104141932Y-64365309D01*
X104053717Y-64530346D01*
X103935002Y-64675002D01*
X103803316Y-64783073D01*
X103790345Y-64793718D01*
X103713523Y-64834780D01*
X103625309Y-64881932D01*
X103535770Y-64909093D01*
X103446232Y-64936254D01*
X103376448Y-64943127D01*
X103306666Y-64950000D01*
X102693334Y-64950000D01*
X102623552Y-64943127D01*
X102553768Y-64936254D01*
X102464230Y-64909093D01*
X102374691Y-64881932D01*
X102286477Y-64834780D01*
X102209655Y-64793718D01*
X102196685Y-64783073D01*
X102064998Y-64675002D01*
X101946283Y-64530346D01*
X101858068Y-64365309D01*
X101815607Y-64225332D01*
X101803746Y-64186232D01*
X101785404Y-64000000D01*
X101803746Y-63813768D01*
X101846296Y-63673499D01*
X101858068Y-63634691D01*
X101946283Y-63469654D01*
X102064998Y-63324998D01*
X102209654Y-63206283D01*
X102209653Y-63206283D01*
X102209655Y-63206282D01*
X102286477Y-63165220D01*
X102374691Y-63118068D01*
X102464230Y-63090907D01*
X102553768Y-63063746D01*
X102693334Y-63050000D01*
X103306666Y-63050000D01*
X103446232Y-63063746D01*
X103446232Y-63063746D01*
G37*
G36*
X99011653Y-61482665D02*
G01*
X99175872Y-61515330D01*
X99485252Y-61643479D01*
X99763687Y-61829523D01*
X100000477Y-62066313D01*
X100186521Y-62344748D01*
X100314670Y-62654128D01*
X100314670Y-62654130D01*
X100380000Y-62982563D01*
X100380000Y-63317437D01*
X100349722Y-63469654D01*
X100314670Y-63645872D01*
X100186521Y-63955252D01*
X100000477Y-64233687D01*
X99763687Y-64470477D01*
X99485252Y-64656521D01*
X99175872Y-64784670D01*
X99011653Y-64817335D01*
X98847437Y-64850000D01*
X98512563Y-64850000D01*
X98348347Y-64817335D01*
X98184128Y-64784670D01*
X97874748Y-64656521D01*
X97596313Y-64470477D01*
X97359523Y-64233687D01*
X97173479Y-63955252D01*
X97045330Y-63645872D01*
X97010278Y-63469654D01*
X96980000Y-63317437D01*
X96980000Y-62982563D01*
X97045330Y-62654130D01*
X97045330Y-62654128D01*
X97173479Y-62344748D01*
X97359523Y-62066313D01*
X97596313Y-61829523D01*
X97874748Y-61643479D01*
X98184128Y-61515330D01*
X98348347Y-61482665D01*
X98512563Y-61450000D01*
X98847437Y-61450000D01*
X99011653Y-61482665D01*
X99011653Y-61482665D01*
G37*
G36*
X115898499Y-62105997D02*
G01*
X115951147Y-62121968D01*
X115999668Y-62147902D01*
X116042195Y-62182805D01*
X116077098Y-62225332D01*
X116103032Y-62273853D01*
X116119003Y-62326501D01*
X116125000Y-62387390D01*
X116125000Y-63612610D01*
X116119003Y-63673499D01*
X116103032Y-63726147D01*
X116077098Y-63774668D01*
X116042195Y-63817195D01*
X115999668Y-63852098D01*
X115951147Y-63878032D01*
X115898499Y-63894003D01*
X115837610Y-63900000D01*
X115037390Y-63900000D01*
X114976501Y-63894003D01*
X114923853Y-63878032D01*
X114875332Y-63852098D01*
X114832805Y-63817195D01*
X114797902Y-63774668D01*
X114771968Y-63726147D01*
X114755997Y-63673499D01*
X114750000Y-63612610D01*
X114750000Y-62387390D01*
X114755997Y-62326501D01*
X114771968Y-62273853D01*
X114797902Y-62225332D01*
X114832805Y-62182805D01*
X114875332Y-62147902D01*
X114923853Y-62121968D01*
X114976501Y-62105997D01*
X115037390Y-62100000D01*
X115837610Y-62100000D01*
X115898499Y-62105997D01*
X115898499Y-62105997D01*
G37*
G36*
X126898499Y-62105997D02*
G01*
X126951147Y-62121968D01*
X126999668Y-62147902D01*
X127042195Y-62182805D01*
X127077098Y-62225332D01*
X127103032Y-62273853D01*
X127119003Y-62326501D01*
X127125000Y-62387390D01*
X127125000Y-63612610D01*
X127119003Y-63673499D01*
X127103032Y-63726147D01*
X127077098Y-63774668D01*
X127042195Y-63817195D01*
X126999668Y-63852098D01*
X126951147Y-63878032D01*
X126898499Y-63894003D01*
X126837610Y-63900000D01*
X126037390Y-63900000D01*
X125976501Y-63894003D01*
X125923853Y-63878032D01*
X125875332Y-63852098D01*
X125832805Y-63817195D01*
X125797902Y-63774668D01*
X125771968Y-63726147D01*
X125755997Y-63673499D01*
X125750000Y-63612610D01*
X125750000Y-62387390D01*
X125755997Y-62326501D01*
X125771968Y-62273853D01*
X125797902Y-62225332D01*
X125832805Y-62182805D01*
X125875332Y-62147902D01*
X125923853Y-62121968D01*
X125976501Y-62105997D01*
X126037390Y-62100000D01*
X126837610Y-62100000D01*
X126898499Y-62105997D01*
X126898499Y-62105997D01*
G37*
G36*
X125023499Y-62105997D02*
G01*
X125076147Y-62121968D01*
X125124668Y-62147902D01*
X125167195Y-62182805D01*
X125202098Y-62225332D01*
X125228032Y-62273853D01*
X125244003Y-62326501D01*
X125250000Y-62387390D01*
X125250000Y-63612610D01*
X125244003Y-63673499D01*
X125228032Y-63726147D01*
X125202098Y-63774668D01*
X125167195Y-63817195D01*
X125124668Y-63852098D01*
X125076147Y-63878032D01*
X125023499Y-63894003D01*
X124962610Y-63900000D01*
X124162390Y-63900000D01*
X124101501Y-63894003D01*
X124048853Y-63878032D01*
X124000332Y-63852098D01*
X123957805Y-63817195D01*
X123922902Y-63774668D01*
X123896968Y-63726147D01*
X123880997Y-63673499D01*
X123875000Y-63612610D01*
X123875000Y-62387390D01*
X123880997Y-62326501D01*
X123896968Y-62273853D01*
X123922902Y-62225332D01*
X123957805Y-62182805D01*
X124000332Y-62147902D01*
X124048853Y-62121968D01*
X124101501Y-62105997D01*
X124162390Y-62100000D01*
X124962610Y-62100000D01*
X125023499Y-62105997D01*
X125023499Y-62105997D01*
G37*
G36*
X121398499Y-62105997D02*
G01*
X121451147Y-62121968D01*
X121499668Y-62147902D01*
X121542195Y-62182805D01*
X121577098Y-62225332D01*
X121603032Y-62273853D01*
X121619003Y-62326501D01*
X121625000Y-62387390D01*
X121625000Y-63612610D01*
X121619003Y-63673499D01*
X121603032Y-63726147D01*
X121577098Y-63774668D01*
X121542195Y-63817195D01*
X121499668Y-63852098D01*
X121451147Y-63878032D01*
X121398499Y-63894003D01*
X121337610Y-63900000D01*
X120537390Y-63900000D01*
X120476501Y-63894003D01*
X120423853Y-63878032D01*
X120375332Y-63852098D01*
X120332805Y-63817195D01*
X120297902Y-63774668D01*
X120271968Y-63726147D01*
X120255997Y-63673499D01*
X120250000Y-63612610D01*
X120250000Y-62387390D01*
X120255997Y-62326501D01*
X120271968Y-62273853D01*
X120297902Y-62225332D01*
X120332805Y-62182805D01*
X120375332Y-62147902D01*
X120423853Y-62121968D01*
X120476501Y-62105997D01*
X120537390Y-62100000D01*
X121337610Y-62100000D01*
X121398499Y-62105997D01*
X121398499Y-62105997D01*
G37*
G36*
X119523499Y-62105997D02*
G01*
X119576147Y-62121968D01*
X119624668Y-62147902D01*
X119667195Y-62182805D01*
X119702098Y-62225332D01*
X119728032Y-62273853D01*
X119744003Y-62326501D01*
X119750000Y-62387390D01*
X119750000Y-63612610D01*
X119744003Y-63673499D01*
X119728032Y-63726147D01*
X119702098Y-63774668D01*
X119667195Y-63817195D01*
X119624668Y-63852098D01*
X119576147Y-63878032D01*
X119523499Y-63894003D01*
X119462610Y-63900000D01*
X118662390Y-63900000D01*
X118601501Y-63894003D01*
X118548853Y-63878032D01*
X118500332Y-63852098D01*
X118457805Y-63817195D01*
X118422902Y-63774668D01*
X118396968Y-63726147D01*
X118380997Y-63673499D01*
X118375000Y-63612610D01*
X118375000Y-62387390D01*
X118380997Y-62326501D01*
X118396968Y-62273853D01*
X118422902Y-62225332D01*
X118457805Y-62182805D01*
X118500332Y-62147902D01*
X118548853Y-62121968D01*
X118601501Y-62105997D01*
X118662390Y-62100000D01*
X119462610Y-62100000D01*
X119523499Y-62105997D01*
X119523499Y-62105997D01*
G37*
G36*
X114023499Y-62105997D02*
G01*
X114076147Y-62121968D01*
X114124668Y-62147902D01*
X114167195Y-62182805D01*
X114202098Y-62225332D01*
X114228032Y-62273853D01*
X114244003Y-62326501D01*
X114250000Y-62387390D01*
X114250000Y-63612610D01*
X114244003Y-63673499D01*
X114228032Y-63726147D01*
X114202098Y-63774668D01*
X114167195Y-63817195D01*
X114124668Y-63852098D01*
X114076147Y-63878032D01*
X114023499Y-63894003D01*
X113962610Y-63900000D01*
X113162390Y-63900000D01*
X113101501Y-63894003D01*
X113048853Y-63878032D01*
X113000332Y-63852098D01*
X112957805Y-63817195D01*
X112922902Y-63774668D01*
X112896968Y-63726147D01*
X112880997Y-63673499D01*
X112875000Y-63612610D01*
X112875000Y-62387390D01*
X112880997Y-62326501D01*
X112896968Y-62273853D01*
X112922902Y-62225332D01*
X112957805Y-62182805D01*
X113000332Y-62147902D01*
X113048853Y-62121968D01*
X113101501Y-62105997D01*
X113162390Y-62100000D01*
X113962610Y-62100000D01*
X114023499Y-62105997D01*
X114023499Y-62105997D01*
G37*
G36*
X103446232Y-60063746D02*
G01*
X103535770Y-60090907D01*
X103625309Y-60118068D01*
X103713523Y-60165220D01*
X103790345Y-60206282D01*
X103790347Y-60206283D01*
X103790346Y-60206283D01*
X103935002Y-60324998D01*
X104053717Y-60469654D01*
X104141932Y-60634691D01*
X104141932Y-60634692D01*
X104175714Y-60746055D01*
X104196254Y-60813769D01*
X104214596Y-61000000D01*
X104196254Y-61186231D01*
X104141932Y-61365309D01*
X104096663Y-61450000D01*
X104061744Y-61515330D01*
X104053717Y-61530346D01*
X103935002Y-61675002D01*
X103813557Y-61774668D01*
X103790345Y-61793718D01*
X103713523Y-61834780D01*
X103625309Y-61881932D01*
X103565746Y-61900000D01*
X103446232Y-61936254D01*
X103306666Y-61950000D01*
X102693334Y-61950000D01*
X102553768Y-61936254D01*
X102434254Y-61900000D01*
X102374691Y-61881932D01*
X102286477Y-61834780D01*
X102209655Y-61793718D01*
X102186443Y-61774668D01*
X102064998Y-61675002D01*
X101946283Y-61530346D01*
X101938257Y-61515330D01*
X101903337Y-61450000D01*
X101858068Y-61365309D01*
X101803746Y-61186231D01*
X101785404Y-61000000D01*
X101803746Y-60813769D01*
X101824287Y-60746055D01*
X101858068Y-60634692D01*
X101858068Y-60634691D01*
X101946283Y-60469654D01*
X102064998Y-60324998D01*
X102209654Y-60206283D01*
X102209653Y-60206283D01*
X102209655Y-60206282D01*
X102286477Y-60165220D01*
X102374691Y-60118068D01*
X102464230Y-60090907D01*
X102553768Y-60063746D01*
X102693334Y-60050000D01*
X103306666Y-60050000D01*
X103446232Y-60063746D01*
X103446232Y-60063746D01*
G37*
G36*
X110398499Y-60105997D02*
G01*
X110451147Y-60121968D01*
X110499668Y-60147902D01*
X110542195Y-60182805D01*
X110577098Y-60225332D01*
X110603032Y-60273853D01*
X110619003Y-60326501D01*
X110625000Y-60387390D01*
X110625000Y-61612610D01*
X110619003Y-61673499D01*
X110603032Y-61726147D01*
X110577098Y-61774668D01*
X110542195Y-61817195D01*
X110499668Y-61852098D01*
X110451147Y-61878032D01*
X110398499Y-61894003D01*
X110337610Y-61900000D01*
X109537390Y-61900000D01*
X109476501Y-61894003D01*
X109423853Y-61878032D01*
X109375332Y-61852098D01*
X109332805Y-61817195D01*
X109297902Y-61774668D01*
X109271968Y-61726147D01*
X109255997Y-61673499D01*
X109250000Y-61612610D01*
X109250000Y-60387390D01*
X109255997Y-60326501D01*
X109271968Y-60273853D01*
X109297902Y-60225332D01*
X109332805Y-60182805D01*
X109375332Y-60147902D01*
X109423853Y-60121968D01*
X109476501Y-60105997D01*
X109537390Y-60100000D01*
X110337610Y-60100000D01*
X110398499Y-60105997D01*
X110398499Y-60105997D01*
G37*
G36*
X143523499Y-60105997D02*
G01*
X143576147Y-60121968D01*
X143624668Y-60147902D01*
X143667195Y-60182805D01*
X143702098Y-60225332D01*
X143728032Y-60273853D01*
X143744003Y-60326501D01*
X143750000Y-60387390D01*
X143750000Y-61612610D01*
X143744003Y-61673499D01*
X143728032Y-61726147D01*
X143702098Y-61774668D01*
X143667195Y-61817195D01*
X143624668Y-61852098D01*
X143576147Y-61878032D01*
X143523499Y-61894003D01*
X143462610Y-61900000D01*
X142662390Y-61900000D01*
X142601501Y-61894003D01*
X142548853Y-61878032D01*
X142500332Y-61852098D01*
X142457805Y-61817195D01*
X142422902Y-61774668D01*
X142396968Y-61726147D01*
X142380997Y-61673499D01*
X142375000Y-61612610D01*
X142375000Y-60387390D01*
X142380997Y-60326501D01*
X142396968Y-60273853D01*
X142422902Y-60225332D01*
X142457805Y-60182805D01*
X142500332Y-60147902D01*
X142548853Y-60121968D01*
X142601501Y-60105997D01*
X142662390Y-60100000D01*
X143462610Y-60100000D01*
X143523499Y-60105997D01*
X143523499Y-60105997D01*
G37*
G36*
X108523499Y-60105997D02*
G01*
X108576147Y-60121968D01*
X108624668Y-60147902D01*
X108667195Y-60182805D01*
X108702098Y-60225332D01*
X108728032Y-60273853D01*
X108744003Y-60326501D01*
X108750000Y-60387390D01*
X108750000Y-61612610D01*
X108744003Y-61673499D01*
X108728032Y-61726147D01*
X108702098Y-61774668D01*
X108667195Y-61817195D01*
X108624668Y-61852098D01*
X108576147Y-61878032D01*
X108523499Y-61894003D01*
X108462610Y-61900000D01*
X107662390Y-61900000D01*
X107601501Y-61894003D01*
X107548853Y-61878032D01*
X107500332Y-61852098D01*
X107457805Y-61817195D01*
X107422902Y-61774668D01*
X107396968Y-61726147D01*
X107380997Y-61673499D01*
X107375000Y-61612610D01*
X107375000Y-60387390D01*
X107380997Y-60326501D01*
X107396968Y-60273853D01*
X107422902Y-60225332D01*
X107457805Y-60182805D01*
X107500332Y-60147902D01*
X107548853Y-60121968D01*
X107601501Y-60105997D01*
X107662390Y-60100000D01*
X108462610Y-60100000D01*
X108523499Y-60105997D01*
X108523499Y-60105997D01*
G37*
G36*
X145398499Y-60105997D02*
G01*
X145451147Y-60121968D01*
X145499668Y-60147902D01*
X145542195Y-60182805D01*
X145577098Y-60225332D01*
X145603032Y-60273853D01*
X145619003Y-60326501D01*
X145625000Y-60387390D01*
X145625000Y-61612610D01*
X145619003Y-61673499D01*
X145603032Y-61726147D01*
X145577098Y-61774668D01*
X145542195Y-61817195D01*
X145499668Y-61852098D01*
X145451147Y-61878032D01*
X145398499Y-61894003D01*
X145337610Y-61900000D01*
X144537390Y-61900000D01*
X144476501Y-61894003D01*
X144423853Y-61878032D01*
X144375332Y-61852098D01*
X144332805Y-61817195D01*
X144297902Y-61774668D01*
X144271968Y-61726147D01*
X144255997Y-61673499D01*
X144250000Y-61612610D01*
X144250000Y-60387390D01*
X144255997Y-60326501D01*
X144271968Y-60273853D01*
X144297902Y-60225332D01*
X144332805Y-60182805D01*
X144375332Y-60147902D01*
X144423853Y-60121968D01*
X144476501Y-60105997D01*
X144537390Y-60100000D01*
X145337610Y-60100000D01*
X145398499Y-60105997D01*
X145398499Y-60105997D01*
G37*
G36*
X173510000Y-61050000D02*
G01*
X171410000Y-61050000D01*
X171410000Y-58950000D01*
X173510000Y-58950000D01*
X173510000Y-61050000D01*
X173510000Y-61050000D01*
G37*
G36*
X177668707Y-58957596D02*
G01*
X177745836Y-58965193D01*
X177943762Y-59025233D01*
X177943765Y-59025234D01*
X178126170Y-59122732D01*
X178286055Y-59253945D01*
X178417268Y-59413830D01*
X178514766Y-59596235D01*
X178514767Y-59596238D01*
X178574807Y-59794164D01*
X178595080Y-60000000D01*
X178574807Y-60205836D01*
X178538659Y-60324999D01*
X178514766Y-60403765D01*
X178417268Y-60586170D01*
X178286055Y-60746055D01*
X178126170Y-60877268D01*
X177943765Y-60974766D01*
X177943762Y-60974767D01*
X177745836Y-61034807D01*
X177668707Y-61042403D01*
X177591580Y-61050000D01*
X177488420Y-61050000D01*
X177411293Y-61042403D01*
X177334164Y-61034807D01*
X177136238Y-60974767D01*
X177136235Y-60974766D01*
X176953830Y-60877268D01*
X176793945Y-60746055D01*
X176662732Y-60586170D01*
X176565234Y-60403765D01*
X176541341Y-60324999D01*
X176505193Y-60205836D01*
X176484920Y-60000000D01*
X176505193Y-59794164D01*
X176565233Y-59596238D01*
X176565234Y-59596235D01*
X176662732Y-59413830D01*
X176793945Y-59253945D01*
X176953830Y-59122732D01*
X177136235Y-59025234D01*
X177136238Y-59025233D01*
X177334164Y-58965193D01*
X177411293Y-58957596D01*
X177488420Y-58950000D01*
X177591580Y-58950000D01*
X177668707Y-58957596D01*
X177668707Y-58957596D01*
G37*
G36*
X175128707Y-58957596D02*
G01*
X175205836Y-58965193D01*
X175403762Y-59025233D01*
X175403765Y-59025234D01*
X175586170Y-59122732D01*
X175746055Y-59253945D01*
X175877268Y-59413830D01*
X175974766Y-59596235D01*
X175974767Y-59596238D01*
X176034807Y-59794164D01*
X176055080Y-60000000D01*
X176034807Y-60205836D01*
X175998659Y-60324999D01*
X175974766Y-60403765D01*
X175877268Y-60586170D01*
X175746055Y-60746055D01*
X175586170Y-60877268D01*
X175403765Y-60974766D01*
X175403762Y-60974767D01*
X175205836Y-61034807D01*
X175128707Y-61042403D01*
X175051580Y-61050000D01*
X174948420Y-61050000D01*
X174871293Y-61042403D01*
X174794164Y-61034807D01*
X174596238Y-60974767D01*
X174596235Y-60974766D01*
X174413830Y-60877268D01*
X174253945Y-60746055D01*
X174122732Y-60586170D01*
X174025234Y-60403765D01*
X174001341Y-60324999D01*
X173965193Y-60205836D01*
X173944920Y-60000000D01*
X173965193Y-59794164D01*
X174025233Y-59596238D01*
X174025234Y-59596235D01*
X174122732Y-59413830D01*
X174253945Y-59253945D01*
X174413830Y-59122732D01*
X174596235Y-59025234D01*
X174596238Y-59025233D01*
X174794164Y-58965193D01*
X174871293Y-58957596D01*
X174948420Y-58950000D01*
X175051580Y-58950000D01*
X175128707Y-58957596D01*
X175128707Y-58957596D01*
G37*
G36*
X153288707Y-56957597D02*
G01*
X153365836Y-56965193D01*
X153563762Y-57025233D01*
X153563765Y-57025234D01*
X153746170Y-57122732D01*
X153906055Y-57253945D01*
X154037268Y-57413830D01*
X154134766Y-57596235D01*
X154134767Y-57596238D01*
X154194807Y-57794164D01*
X154215080Y-58000000D01*
X154194807Y-58205836D01*
X154134767Y-58403762D01*
X154134766Y-58403765D01*
X154037268Y-58586170D01*
X153906055Y-58746055D01*
X153746170Y-58877268D01*
X153563765Y-58974766D01*
X153563762Y-58974767D01*
X153365836Y-59034807D01*
X153288707Y-59042404D01*
X153211580Y-59050000D01*
X153108420Y-59050000D01*
X153031293Y-59042404D01*
X152954164Y-59034807D01*
X152756238Y-58974767D01*
X152756235Y-58974766D01*
X152573830Y-58877268D01*
X152413945Y-58746055D01*
X152282732Y-58586170D01*
X152185234Y-58403765D01*
X152185233Y-58403762D01*
X152125193Y-58205836D01*
X152104920Y-58000000D01*
X152125193Y-57794164D01*
X152185233Y-57596238D01*
X152185234Y-57596235D01*
X152282732Y-57413830D01*
X152413945Y-57253945D01*
X152573830Y-57122732D01*
X152756235Y-57025234D01*
X152756238Y-57025233D01*
X152954164Y-56965193D01*
X153031293Y-56957597D01*
X153108420Y-56950000D01*
X153211580Y-56950000D01*
X153288707Y-56957597D01*
X153288707Y-56957597D01*
G37*
G36*
X155828707Y-56957597D02*
G01*
X155905836Y-56965193D01*
X156103762Y-57025233D01*
X156103765Y-57025234D01*
X156286170Y-57122732D01*
X156446055Y-57253945D01*
X156577268Y-57413830D01*
X156674766Y-57596235D01*
X156674767Y-57596238D01*
X156734807Y-57794164D01*
X156755080Y-58000000D01*
X156734807Y-58205836D01*
X156674767Y-58403762D01*
X156674766Y-58403765D01*
X156577268Y-58586170D01*
X156446055Y-58746055D01*
X156286170Y-58877268D01*
X156103765Y-58974766D01*
X156103762Y-58974767D01*
X155905836Y-59034807D01*
X155828707Y-59042404D01*
X155751580Y-59050000D01*
X155648420Y-59050000D01*
X155571293Y-59042404D01*
X155494164Y-59034807D01*
X155296238Y-58974767D01*
X155296235Y-58974766D01*
X155113830Y-58877268D01*
X154953945Y-58746055D01*
X154822732Y-58586170D01*
X154725234Y-58403765D01*
X154725233Y-58403762D01*
X154665193Y-58205836D01*
X154644920Y-58000000D01*
X154665193Y-57794164D01*
X154725233Y-57596238D01*
X154725234Y-57596235D01*
X154822732Y-57413830D01*
X154953945Y-57253945D01*
X155113830Y-57122732D01*
X155296235Y-57025234D01*
X155296238Y-57025233D01*
X155494164Y-56965193D01*
X155571293Y-56957597D01*
X155648420Y-56950000D01*
X155751580Y-56950000D01*
X155828707Y-56957597D01*
X155828707Y-56957597D01*
G37*
G36*
X158368707Y-56957597D02*
G01*
X158445836Y-56965193D01*
X158643762Y-57025233D01*
X158643765Y-57025234D01*
X158826170Y-57122732D01*
X158986055Y-57253945D01*
X159117268Y-57413830D01*
X159214766Y-57596235D01*
X159214767Y-57596238D01*
X159274807Y-57794164D01*
X159295080Y-58000000D01*
X159274807Y-58205836D01*
X159214767Y-58403762D01*
X159214766Y-58403765D01*
X159117268Y-58586170D01*
X158986055Y-58746055D01*
X158826170Y-58877268D01*
X158643765Y-58974766D01*
X158643762Y-58974767D01*
X158445836Y-59034807D01*
X158368707Y-59042404D01*
X158291580Y-59050000D01*
X158188420Y-59050000D01*
X158111293Y-59042404D01*
X158034164Y-59034807D01*
X157836238Y-58974767D01*
X157836235Y-58974766D01*
X157653830Y-58877268D01*
X157493945Y-58746055D01*
X157362732Y-58586170D01*
X157265234Y-58403765D01*
X157265233Y-58403762D01*
X157205193Y-58205836D01*
X157184920Y-58000000D01*
X157205193Y-57794164D01*
X157265233Y-57596238D01*
X157265234Y-57596235D01*
X157362732Y-57413830D01*
X157493945Y-57253945D01*
X157653830Y-57122732D01*
X157836235Y-57025234D01*
X157836238Y-57025233D01*
X158034164Y-56965193D01*
X158111293Y-56957597D01*
X158188420Y-56950000D01*
X158291580Y-56950000D01*
X158368707Y-56957597D01*
X158368707Y-56957597D01*
G37*
G36*
X145668707Y-56957597D02*
G01*
X145745836Y-56965193D01*
X145943762Y-57025233D01*
X145943765Y-57025234D01*
X146126170Y-57122732D01*
X146286055Y-57253945D01*
X146417268Y-57413830D01*
X146514766Y-57596235D01*
X146514767Y-57596238D01*
X146574807Y-57794164D01*
X146595080Y-58000000D01*
X146574807Y-58205836D01*
X146514767Y-58403762D01*
X146514766Y-58403765D01*
X146417268Y-58586170D01*
X146286055Y-58746055D01*
X146126170Y-58877268D01*
X145943765Y-58974766D01*
X145943762Y-58974767D01*
X145745836Y-59034807D01*
X145668707Y-59042404D01*
X145591580Y-59050000D01*
X145488420Y-59050000D01*
X145411293Y-59042404D01*
X145334164Y-59034807D01*
X145136238Y-58974767D01*
X145136235Y-58974766D01*
X144953830Y-58877268D01*
X144793945Y-58746055D01*
X144662732Y-58586170D01*
X144565234Y-58403765D01*
X144565233Y-58403762D01*
X144505193Y-58205836D01*
X144484920Y-58000000D01*
X144505193Y-57794164D01*
X144565233Y-57596238D01*
X144565234Y-57596235D01*
X144662732Y-57413830D01*
X144793945Y-57253945D01*
X144953830Y-57122732D01*
X145136235Y-57025234D01*
X145136238Y-57025233D01*
X145334164Y-56965193D01*
X145411293Y-56957597D01*
X145488420Y-56950000D01*
X145591580Y-56950000D01*
X145668707Y-56957597D01*
X145668707Y-56957597D01*
G37*
G36*
X165988707Y-56957597D02*
G01*
X166065836Y-56965193D01*
X166263762Y-57025233D01*
X166263765Y-57025234D01*
X166446170Y-57122732D01*
X166606055Y-57253945D01*
X166737268Y-57413830D01*
X166834766Y-57596235D01*
X166834767Y-57596238D01*
X166894807Y-57794164D01*
X166915080Y-58000000D01*
X166894807Y-58205836D01*
X166834767Y-58403762D01*
X166834766Y-58403765D01*
X166737268Y-58586170D01*
X166606055Y-58746055D01*
X166446170Y-58877268D01*
X166263765Y-58974766D01*
X166263762Y-58974767D01*
X166065836Y-59034807D01*
X165988707Y-59042404D01*
X165911580Y-59050000D01*
X165808420Y-59050000D01*
X165731293Y-59042404D01*
X165654164Y-59034807D01*
X165456238Y-58974767D01*
X165456235Y-58974766D01*
X165273830Y-58877268D01*
X165113945Y-58746055D01*
X164982732Y-58586170D01*
X164885234Y-58403765D01*
X164885233Y-58403762D01*
X164825193Y-58205836D01*
X164804920Y-58000000D01*
X164825193Y-57794164D01*
X164885233Y-57596238D01*
X164885234Y-57596235D01*
X164982732Y-57413830D01*
X165113945Y-57253945D01*
X165273830Y-57122732D01*
X165456235Y-57025234D01*
X165456238Y-57025233D01*
X165654164Y-56965193D01*
X165731293Y-56957597D01*
X165808420Y-56950000D01*
X165911580Y-56950000D01*
X165988707Y-56957597D01*
X165988707Y-56957597D01*
G37*
G36*
X160908707Y-56957597D02*
G01*
X160985836Y-56965193D01*
X161183762Y-57025233D01*
X161183765Y-57025234D01*
X161366170Y-57122732D01*
X161526055Y-57253945D01*
X161657268Y-57413830D01*
X161754766Y-57596235D01*
X161754767Y-57596238D01*
X161814807Y-57794164D01*
X161835080Y-58000000D01*
X161814807Y-58205836D01*
X161754767Y-58403762D01*
X161754766Y-58403765D01*
X161657268Y-58586170D01*
X161526055Y-58746055D01*
X161366170Y-58877268D01*
X161183765Y-58974766D01*
X161183762Y-58974767D01*
X160985836Y-59034807D01*
X160908707Y-59042404D01*
X160831580Y-59050000D01*
X160728420Y-59050000D01*
X160651293Y-59042404D01*
X160574164Y-59034807D01*
X160376238Y-58974767D01*
X160376235Y-58974766D01*
X160193830Y-58877268D01*
X160033945Y-58746055D01*
X159902732Y-58586170D01*
X159805234Y-58403765D01*
X159805233Y-58403762D01*
X159745193Y-58205836D01*
X159724920Y-58000000D01*
X159745193Y-57794164D01*
X159805233Y-57596238D01*
X159805234Y-57596235D01*
X159902732Y-57413830D01*
X160033945Y-57253945D01*
X160193830Y-57122732D01*
X160376235Y-57025234D01*
X160376238Y-57025233D01*
X160574164Y-56965193D01*
X160651293Y-56957597D01*
X160728420Y-56950000D01*
X160831580Y-56950000D01*
X160908707Y-56957597D01*
X160908707Y-56957597D01*
G37*
G36*
X163448707Y-56957597D02*
G01*
X163525836Y-56965193D01*
X163723762Y-57025233D01*
X163723765Y-57025234D01*
X163906170Y-57122732D01*
X164066055Y-57253945D01*
X164197268Y-57413830D01*
X164294766Y-57596235D01*
X164294767Y-57596238D01*
X164354807Y-57794164D01*
X164375080Y-58000000D01*
X164354807Y-58205836D01*
X164294767Y-58403762D01*
X164294766Y-58403765D01*
X164197268Y-58586170D01*
X164066055Y-58746055D01*
X163906170Y-58877268D01*
X163723765Y-58974766D01*
X163723762Y-58974767D01*
X163525836Y-59034807D01*
X163448707Y-59042404D01*
X163371580Y-59050000D01*
X163268420Y-59050000D01*
X163191293Y-59042404D01*
X163114164Y-59034807D01*
X162916238Y-58974767D01*
X162916235Y-58974766D01*
X162733830Y-58877268D01*
X162573945Y-58746055D01*
X162442732Y-58586170D01*
X162345234Y-58403765D01*
X162345233Y-58403762D01*
X162285193Y-58205836D01*
X162264920Y-58000000D01*
X162285193Y-57794164D01*
X162345233Y-57596238D01*
X162345234Y-57596235D01*
X162442732Y-57413830D01*
X162573945Y-57253945D01*
X162733830Y-57122732D01*
X162916235Y-57025234D01*
X162916238Y-57025233D01*
X163114164Y-56965193D01*
X163191293Y-56957597D01*
X163268420Y-56950000D01*
X163371580Y-56950000D01*
X163448707Y-56957597D01*
X163448707Y-56957597D01*
G37*
G36*
X150748707Y-56957597D02*
G01*
X150825836Y-56965193D01*
X151023762Y-57025233D01*
X151023765Y-57025234D01*
X151206170Y-57122732D01*
X151366055Y-57253945D01*
X151497268Y-57413830D01*
X151594766Y-57596235D01*
X151594767Y-57596238D01*
X151654807Y-57794164D01*
X151675080Y-58000000D01*
X151654807Y-58205836D01*
X151594767Y-58403762D01*
X151594766Y-58403765D01*
X151497268Y-58586170D01*
X151366055Y-58746055D01*
X151206170Y-58877268D01*
X151023765Y-58974766D01*
X151023762Y-58974767D01*
X150825836Y-59034807D01*
X150748707Y-59042404D01*
X150671580Y-59050000D01*
X150568420Y-59050000D01*
X150491293Y-59042404D01*
X150414164Y-59034807D01*
X150216238Y-58974767D01*
X150216235Y-58974766D01*
X150033830Y-58877268D01*
X149873945Y-58746055D01*
X149742732Y-58586170D01*
X149645234Y-58403765D01*
X149645233Y-58403762D01*
X149585193Y-58205836D01*
X149564920Y-58000000D01*
X149585193Y-57794164D01*
X149645233Y-57596238D01*
X149645234Y-57596235D01*
X149742732Y-57413830D01*
X149873945Y-57253945D01*
X150033830Y-57122732D01*
X150216235Y-57025234D01*
X150216238Y-57025233D01*
X150414164Y-56965193D01*
X150491293Y-56957597D01*
X150568420Y-56950000D01*
X150671580Y-56950000D01*
X150748707Y-56957597D01*
X150748707Y-56957597D01*
G37*
G36*
X148208707Y-56957597D02*
G01*
X148285836Y-56965193D01*
X148483762Y-57025233D01*
X148483765Y-57025234D01*
X148666170Y-57122732D01*
X148826055Y-57253945D01*
X148957268Y-57413830D01*
X149054766Y-57596235D01*
X149054767Y-57596238D01*
X149114807Y-57794164D01*
X149135080Y-58000000D01*
X149114807Y-58205836D01*
X149054767Y-58403762D01*
X149054766Y-58403765D01*
X148957268Y-58586170D01*
X148826055Y-58746055D01*
X148666170Y-58877268D01*
X148483765Y-58974766D01*
X148483762Y-58974767D01*
X148285836Y-59034807D01*
X148208707Y-59042404D01*
X148131580Y-59050000D01*
X148028420Y-59050000D01*
X147951293Y-59042404D01*
X147874164Y-59034807D01*
X147676238Y-58974767D01*
X147676235Y-58974766D01*
X147493830Y-58877268D01*
X147333945Y-58746055D01*
X147202732Y-58586170D01*
X147105234Y-58403765D01*
X147105233Y-58403762D01*
X147045193Y-58205836D01*
X147024920Y-58000000D01*
X147045193Y-57794164D01*
X147105233Y-57596238D01*
X147105234Y-57596235D01*
X147202732Y-57413830D01*
X147333945Y-57253945D01*
X147493830Y-57122732D01*
X147676235Y-57025234D01*
X147676238Y-57025233D01*
X147874164Y-56965193D01*
X147951293Y-56957597D01*
X148028420Y-56950000D01*
X148131580Y-56950000D01*
X148208707Y-56957597D01*
X148208707Y-56957597D01*
G37*
G36*
X144050000Y-59050000D02*
G01*
X141950000Y-59050000D01*
X141950000Y-56950000D01*
X144050000Y-56950000D01*
X144050000Y-59050000D01*
X144050000Y-59050000D01*
G37*
G36*
X119466703Y-52461486D02*
G01*
X119757883Y-52582097D01*
X120019940Y-52757198D01*
X120242802Y-52980060D01*
X120417903Y-53242117D01*
X120538514Y-53533297D01*
X120600000Y-53842412D01*
X120600000Y-54157588D01*
X120538514Y-54466703D01*
X120417903Y-54757883D01*
X120242802Y-55019940D01*
X120019940Y-55242802D01*
X119757883Y-55417903D01*
X119466703Y-55538514D01*
X119157588Y-55600000D01*
X118842412Y-55600000D01*
X118533297Y-55538514D01*
X118242117Y-55417903D01*
X117980060Y-55242802D01*
X117757198Y-55019940D01*
X117582097Y-54757883D01*
X117461486Y-54466703D01*
X117400000Y-54157588D01*
X117400000Y-53842412D01*
X117461486Y-53533297D01*
X117582097Y-53242117D01*
X117757198Y-52980060D01*
X117980060Y-52757198D01*
X118242117Y-52582097D01*
X118533297Y-52461486D01*
X118842412Y-52400000D01*
X119157588Y-52400000D01*
X119466703Y-52461486D01*
X119466703Y-52461486D01*
G37*
G36*
X137466703Y-52461486D02*
G01*
X137757883Y-52582097D01*
X138019940Y-52757198D01*
X138242802Y-52980060D01*
X138417903Y-53242117D01*
X138538514Y-53533297D01*
X138600000Y-53842412D01*
X138600000Y-54157588D01*
X138538514Y-54466703D01*
X138417903Y-54757883D01*
X138242802Y-55019940D01*
X138019940Y-55242802D01*
X137757883Y-55417903D01*
X137466703Y-55538514D01*
X137157588Y-55600000D01*
X136842412Y-55600000D01*
X136533297Y-55538514D01*
X136242117Y-55417903D01*
X135980060Y-55242802D01*
X135757198Y-55019940D01*
X135582097Y-54757883D01*
X135461486Y-54466703D01*
X135400000Y-54157588D01*
X135400000Y-53842412D01*
X135461486Y-53533297D01*
X135582097Y-53242117D01*
X135757198Y-52980060D01*
X135980060Y-52757198D01*
X136242117Y-52582097D01*
X136533297Y-52461486D01*
X136842412Y-52400000D01*
X137157588Y-52400000D01*
X137466703Y-52461486D01*
X137466703Y-52461486D01*
G37*
G36*
X177293109Y-51324998D02*
G01*
X177495872Y-51365330D01*
X177805252Y-51493479D01*
X178083687Y-51679523D01*
X178320477Y-51916313D01*
X178506521Y-52194748D01*
X178634670Y-52504128D01*
X178634670Y-52504130D01*
X178700000Y-52832563D01*
X178700000Y-53167437D01*
X178690766Y-53213857D01*
X178634670Y-53495872D01*
X178506521Y-53805252D01*
X178320477Y-54083687D01*
X178083687Y-54320477D01*
X177805252Y-54506521D01*
X177495872Y-54634670D01*
X177331654Y-54667335D01*
X177167437Y-54700000D01*
X176832563Y-54700000D01*
X176668346Y-54667335D01*
X176504128Y-54634670D01*
X176194748Y-54506521D01*
X175916313Y-54320477D01*
X175679523Y-54083687D01*
X175493479Y-53805252D01*
X175365330Y-53495872D01*
X175309234Y-53213857D01*
X175300000Y-53167437D01*
X175300000Y-52832563D01*
X175365330Y-52504130D01*
X175365330Y-52504128D01*
X175493479Y-52194748D01*
X175679523Y-51916313D01*
X175916313Y-51679523D01*
X176194748Y-51493479D01*
X176504128Y-51365330D01*
X176706891Y-51324998D01*
X176832563Y-51300000D01*
X177167437Y-51300000D01*
X177293109Y-51324998D01*
X177293109Y-51324998D01*
G37*
G36*
X98293109Y-51324998D02*
G01*
X98495872Y-51365330D01*
X98805252Y-51493479D01*
X99083687Y-51679523D01*
X99320477Y-51916313D01*
X99506521Y-52194748D01*
X99634670Y-52504128D01*
X99634670Y-52504130D01*
X99700000Y-52832563D01*
X99700000Y-53167437D01*
X99690766Y-53213857D01*
X99634670Y-53495872D01*
X99506521Y-53805252D01*
X99320477Y-54083687D01*
X99083687Y-54320477D01*
X98805252Y-54506521D01*
X98495872Y-54634670D01*
X98331654Y-54667335D01*
X98167437Y-54700000D01*
X97832563Y-54700000D01*
X97668346Y-54667335D01*
X97504128Y-54634670D01*
X97194748Y-54506521D01*
X96916313Y-54320477D01*
X96679523Y-54083687D01*
X96493479Y-53805252D01*
X96365330Y-53495872D01*
X96309234Y-53213857D01*
X96300000Y-53167437D01*
X96300000Y-52832563D01*
X96365330Y-52504130D01*
X96365330Y-52504128D01*
X96493479Y-52194748D01*
X96679523Y-51916313D01*
X96916313Y-51679523D01*
X97194748Y-51493479D01*
X97504128Y-51365330D01*
X97706891Y-51324998D01*
X97832563Y-51300000D01*
X98167437Y-51300000D01*
X98293109Y-51324998D01*
X98293109Y-51324998D01*
G37*
G36*
X132354845Y-50568810D02*
G01*
X132599896Y-50643145D01*
X132825736Y-50763860D01*
X133023687Y-50926313D01*
X133186140Y-51124264D01*
X133306855Y-51350104D01*
X133381190Y-51595155D01*
X133400000Y-51786136D01*
X133400000Y-53213864D01*
X133381190Y-53404845D01*
X133306855Y-53649896D01*
X133186140Y-53875736D01*
X133023687Y-54073687D01*
X132825735Y-54236140D01*
X132599895Y-54356855D01*
X132354844Y-54431190D01*
X132100000Y-54456290D01*
X131845155Y-54431190D01*
X131600104Y-54356855D01*
X131374264Y-54236140D01*
X131176313Y-54073687D01*
X131112305Y-53995692D01*
X131094986Y-53978373D01*
X131074612Y-53964759D01*
X131051973Y-53955382D01*
X131015688Y-53950000D01*
X129050000Y-53950000D01*
X129050000Y-53549898D01*
X129047598Y-53525512D01*
X129040485Y-53502063D01*
X129028934Y-53480452D01*
X129013389Y-53461510D01*
X128994447Y-53445965D01*
X128972836Y-53434414D01*
X128949387Y-53427301D01*
X128925001Y-53424899D01*
X128900615Y-53427301D01*
X128877166Y-53434414D01*
X128855555Y-53445965D01*
X128836613Y-53461510D01*
X128814763Y-53490973D01*
X128793718Y-53530345D01*
X128791295Y-53533297D01*
X128675002Y-53675002D01*
X128575290Y-53756832D01*
X128530345Y-53793718D01*
X128508766Y-53805252D01*
X128365310Y-53881931D01*
X128365307Y-53881932D01*
X128186231Y-53936254D01*
X128000000Y-53954596D01*
X127813768Y-53936254D01*
X127724230Y-53909093D01*
X127634691Y-53881932D01*
X127491234Y-53805252D01*
X127469655Y-53793718D01*
X127456684Y-53783073D01*
X127324998Y-53675002D01*
X127208705Y-53533297D01*
X127206282Y-53530345D01*
X127139201Y-53404845D01*
X127115554Y-53360605D01*
X127110238Y-53347772D01*
X127096624Y-53327398D01*
X127079296Y-53310072D01*
X127058922Y-53296458D01*
X127036283Y-53287082D01*
X127012249Y-53282302D01*
X126987745Y-53282302D01*
X126963712Y-53287083D01*
X126941073Y-53296461D01*
X126920699Y-53310075D01*
X126903373Y-53327403D01*
X126889759Y-53347777D01*
X126884447Y-53360603D01*
X126881932Y-53365308D01*
X126793719Y-53530344D01*
X126793717Y-53530346D01*
X126675002Y-53675002D01*
X126575290Y-53756832D01*
X126530345Y-53793718D01*
X126508766Y-53805252D01*
X126365310Y-53881931D01*
X126365307Y-53881932D01*
X126186231Y-53936254D01*
X126000000Y-53954596D01*
X125813768Y-53936254D01*
X125724230Y-53909093D01*
X125634691Y-53881932D01*
X125491234Y-53805252D01*
X125469655Y-53793718D01*
X125456684Y-53783073D01*
X125324998Y-53675002D01*
X125303447Y-53648741D01*
X125286120Y-53631414D01*
X125265746Y-53617800D01*
X125243107Y-53608423D01*
X125219074Y-53603642D01*
X125194569Y-53603642D01*
X125170536Y-53608422D01*
X125147897Y-53617799D01*
X125127523Y-53631413D01*
X125110196Y-53648740D01*
X125096583Y-53669114D01*
X124986140Y-53875736D01*
X124823687Y-54073687D01*
X124625735Y-54236140D01*
X124399895Y-54356855D01*
X124154844Y-54431190D01*
X123900000Y-54456290D01*
X123645155Y-54431190D01*
X123400104Y-54356855D01*
X123174264Y-54236140D01*
X122976313Y-54073687D01*
X122813860Y-53875735D01*
X122693145Y-53649895D01*
X122618810Y-53404844D01*
X122600000Y-53213863D01*
X122600000Y-51786136D01*
X122618810Y-51595155D01*
X122693145Y-51350104D01*
X122813861Y-51124264D01*
X122976314Y-50926313D01*
X123174265Y-50763860D01*
X123400105Y-50643145D01*
X123645156Y-50568810D01*
X123900000Y-50543710D01*
X124154845Y-50568810D01*
X124399896Y-50643145D01*
X124625736Y-50763860D01*
X124823687Y-50926313D01*
X124986140Y-51124264D01*
X125096585Y-51330891D01*
X125110195Y-51351261D01*
X125127522Y-51368588D01*
X125147897Y-51382201D01*
X125170536Y-51391579D01*
X125194569Y-51396359D01*
X125219073Y-51396359D01*
X125243106Y-51391579D01*
X125265745Y-51382201D01*
X125286120Y-51368588D01*
X125303447Y-51351260D01*
X125324999Y-51324998D01*
X125469655Y-51206283D01*
X125469654Y-51206283D01*
X125469656Y-51206282D01*
X125546478Y-51165220D01*
X125634692Y-51118068D01*
X125724231Y-51090907D01*
X125813769Y-51063746D01*
X126000000Y-51045404D01*
X126186232Y-51063746D01*
X126275770Y-51090907D01*
X126365309Y-51118068D01*
X126453523Y-51165220D01*
X126530345Y-51206282D01*
X126530347Y-51206283D01*
X126530346Y-51206283D01*
X126675002Y-51324998D01*
X126777671Y-51450102D01*
X126793718Y-51469655D01*
X126881932Y-51634692D01*
X126884445Y-51639394D01*
X126889757Y-51652219D01*
X126903370Y-51672595D01*
X126920696Y-51689923D01*
X126941069Y-51703538D01*
X126963707Y-51712916D01*
X126987740Y-51717698D01*
X127012244Y-51717700D01*
X127036278Y-51712921D01*
X127058917Y-51703545D01*
X127079293Y-51689932D01*
X127096621Y-51672606D01*
X127110236Y-51652233D01*
X127115553Y-51639399D01*
X127152798Y-51569719D01*
X127206283Y-51469655D01*
X127222330Y-51450102D01*
X127324999Y-51324998D01*
X127469655Y-51206283D01*
X127469654Y-51206283D01*
X127469656Y-51206282D01*
X127546478Y-51165220D01*
X127634692Y-51118068D01*
X127724231Y-51090907D01*
X127813769Y-51063746D01*
X128000000Y-51045404D01*
X128186232Y-51063746D01*
X128275770Y-51090907D01*
X128365309Y-51118068D01*
X128453523Y-51165220D01*
X128530345Y-51206282D01*
X128530347Y-51206283D01*
X128530346Y-51206283D01*
X128675002Y-51324998D01*
X128756832Y-51424710D01*
X128793718Y-51469655D01*
X128802661Y-51486387D01*
X128814762Y-51509026D01*
X128828376Y-51529401D01*
X128845703Y-51546728D01*
X128866077Y-51560341D01*
X128888716Y-51569719D01*
X128912749Y-51574499D01*
X128937253Y-51574499D01*
X128961286Y-51569719D01*
X128983925Y-51560341D01*
X129004300Y-51546727D01*
X129021627Y-51529400D01*
X129035240Y-51509026D01*
X129044618Y-51486387D01*
X129050000Y-51450102D01*
X129050000Y-51050000D01*
X131015689Y-51050000D01*
X131040075Y-51047598D01*
X131063524Y-51040485D01*
X131085135Y-51028934D01*
X131104077Y-51013389D01*
X131112285Y-51004333D01*
X131176314Y-50926313D01*
X131374265Y-50763860D01*
X131600105Y-50643145D01*
X131845156Y-50568810D01*
X132100000Y-50543710D01*
X132354845Y-50568810D01*
X132354845Y-50568810D01*
G37*
M02*
