M48
; DRILL file {KiCad (5.1.4)-1} date 11/16/2019 4:56:27 PM
; FORMAT={-:-/ absolute / inch / decimal}
; #@! TF.CreationDate,2019-11-16T16:56:27-06:00
; #@! TF.GenerationSoftware,Kicad,Pcbnew,(5.1.4)-1
FMAT,2
INCH
T1C0.0394
T2C0.0402
T3C0.1181
%
G90
G05
T1
X6.0854Y-4.0157
X6.0854Y-4.1157
X6.0854Y-4.2157
X6.0854Y-4.3157
X6.0854Y-4.4157
X6.0854Y-4.5157
X6.0827Y-4.9803
X6.0827Y-5.0803
X6.0827Y-5.1803
X6.0827Y-5.2803
X6.0827Y-5.3803
X6.0827Y-5.4803
X6.0827Y-5.5803
T2
X5.1181Y-3.8583
X5.1181Y-3.9764
X5.1181Y-4.0945
X5.1181Y-4.2126
X5.1181Y-4.3307
X5.1181Y-4.4488
X5.1181Y-4.5669
X5.1181Y-4.9213
X5.1181Y-5.0394
X5.1181Y-5.1575
X5.1181Y-5.2756
X5.1181Y-5.3937
X5.1181Y-5.5118
X5.1181Y-5.6299
T3
X4.948Y-5.0059
X4.948Y-5.5453
X6.378Y-5.9449
X6.378Y-3.5433
X4.8819Y-3.5433
X4.948Y-3.9429
X4.948Y-4.4823
X4.8819Y-5.9449
T0
M30
