G04 #@! TF.GenerationSoftware,KiCad,Pcbnew,(5.0.0)*
G04 #@! TF.CreationDate,2019-09-21T11:40:00-05:00*
G04 #@! TF.ProjectId,TemperaturePower,54656D7065726174757265506F776572,rev?*
G04 #@! TF.SameCoordinates,Original*
G04 #@! TF.FileFunction,Copper,L1,Top,Signal*
G04 #@! TF.FilePolarity,Positive*
%FSLAX46Y46*%
G04 Gerber Fmt 4.6, Leading zero omitted, Abs format (unit mm)*
G04 Created by KiCad (PCBNEW (5.0.0)) date 09/21/19 11:40:00*
%MOMM*%
%LPD*%
G01*
G04 APERTURE LIST*
G04 #@! TA.AperFunction,ComponentPad*
%ADD10C,1.524000*%
G04 #@! TD*
G04 #@! TA.AperFunction,ComponentPad*
%ADD11C,1.500000*%
G04 #@! TD*
G04 #@! TA.AperFunction,ComponentPad*
%ADD12C,3.000000*%
G04 #@! TD*
G04 #@! TA.AperFunction,ComponentPad*
%ADD13C,1.700000*%
G04 #@! TD*
G04 #@! TA.AperFunction,ComponentPad*
%ADD14C,2.800000*%
G04 #@! TD*
G04 #@! TA.AperFunction,Conductor*
%ADD15C,0.254000*%
G04 #@! TD*
G04 APERTURE END LIST*
D10*
G04 #@! TO.P,J1,1*
G04 #@! TO.N,VCC*
X148500000Y-101500000D03*
D11*
G04 #@! TO.P,J1,2*
X145500000Y-101500000D03*
G04 #@! TO.P,J1,3*
X142500000Y-101500000D03*
G04 #@! TO.P,J1,4*
X139500000Y-101500000D03*
G04 #@! TO.P,J1,5*
X136500000Y-101500000D03*
G04 #@! TO.P,J1,6*
X133500000Y-101500000D03*
G04 #@! TO.P,J1,7*
X130500000Y-101500000D03*
G04 #@! TO.P,J1,8*
X127500000Y-101500000D03*
G04 #@! TO.P,J1,9*
X124500000Y-101500000D03*
G04 #@! TO.P,J1,10*
X121500000Y-101500000D03*
G04 #@! TO.P,J1,11*
X148500000Y-98500000D03*
G04 #@! TO.P,J1,12*
X145500000Y-98500000D03*
G04 #@! TO.P,J1,13*
X142500000Y-98500000D03*
G04 #@! TO.P,J1,14*
X139500000Y-98500000D03*
G04 #@! TO.P,J1,15*
X136500000Y-98500000D03*
G04 #@! TO.P,J1,16*
X133500000Y-98500000D03*
G04 #@! TO.P,J1,17*
X130500000Y-98500000D03*
G04 #@! TO.P,J1,18*
X127500000Y-98500000D03*
G04 #@! TO.P,J1,19*
X124500000Y-98500000D03*
G04 #@! TO.P,J1,20*
X121500000Y-98500000D03*
D12*
G04 #@! TO.P,J1,*
G04 #@! TO.N,*
X146350000Y-105820000D03*
X123650000Y-105820000D03*
G04 #@! TD*
D13*
G04 #@! TO.P,J2,1*
G04 #@! TO.N,GND*
X121000000Y-120000000D03*
G04 #@! TO.P,J2,2*
G04 #@! TO.N,VCC*
X121000000Y-117000000D03*
G04 #@! TD*
D12*
G04 #@! TO.P,J3,*
G04 #@! TO.N,*
X123650000Y-135320000D03*
X146350000Y-135320000D03*
D11*
G04 #@! TO.P,J3,20*
G04 #@! TO.N,GND*
X121500000Y-128000000D03*
G04 #@! TO.P,J3,19*
X124500000Y-128000000D03*
G04 #@! TO.P,J3,18*
X127500000Y-128000000D03*
G04 #@! TO.P,J3,17*
X130500000Y-128000000D03*
G04 #@! TO.P,J3,16*
X133500000Y-128000000D03*
G04 #@! TO.P,J3,15*
X136500000Y-128000000D03*
G04 #@! TO.P,J3,14*
X139500000Y-128000000D03*
G04 #@! TO.P,J3,13*
X142500000Y-128000000D03*
G04 #@! TO.P,J3,12*
X145500000Y-128000000D03*
G04 #@! TO.P,J3,11*
X148500000Y-128000000D03*
G04 #@! TO.P,J3,10*
X121500000Y-131000000D03*
G04 #@! TO.P,J3,9*
X124500000Y-131000000D03*
G04 #@! TO.P,J3,8*
X127500000Y-131000000D03*
G04 #@! TO.P,J3,7*
X130500000Y-131000000D03*
G04 #@! TO.P,J3,6*
X133500000Y-131000000D03*
G04 #@! TO.P,J3,5*
X136500000Y-131000000D03*
G04 #@! TO.P,J3,4*
X139500000Y-131000000D03*
G04 #@! TO.P,J3,3*
X142500000Y-131000000D03*
G04 #@! TO.P,J3,2*
X145500000Y-131000000D03*
D10*
G04 #@! TO.P,J3,1*
X148500000Y-131000000D03*
G04 #@! TD*
D14*
G04 #@! TO.P,VCC,1*
G04 #@! TO.N,VCC*
X134874000Y-114554000D03*
G04 #@! TD*
G04 #@! TO.P,GND,1*
G04 #@! TO.N,GND*
X134874000Y-122428000D03*
G04 #@! TD*
D15*
G04 #@! TO.N,VCC*
G36*
X120776077Y-97287540D02*
X120708088Y-97528483D01*
X121500000Y-98320395D01*
X122291912Y-97528483D01*
X122223923Y-97287540D01*
X122006047Y-97210000D01*
X123963274Y-97210000D01*
X123776077Y-97287540D01*
X123708088Y-97528483D01*
X124500000Y-98320395D01*
X125291912Y-97528483D01*
X125223923Y-97287540D01*
X125006047Y-97210000D01*
X126963274Y-97210000D01*
X126776077Y-97287540D01*
X126708088Y-97528483D01*
X127500000Y-98320395D01*
X128291912Y-97528483D01*
X128223923Y-97287540D01*
X128006047Y-97210000D01*
X129963274Y-97210000D01*
X129776077Y-97287540D01*
X129708088Y-97528483D01*
X130500000Y-98320395D01*
X131291912Y-97528483D01*
X131223923Y-97287540D01*
X131006047Y-97210000D01*
X132963274Y-97210000D01*
X132776077Y-97287540D01*
X132708088Y-97528483D01*
X133500000Y-98320395D01*
X134291912Y-97528483D01*
X134223923Y-97287540D01*
X134006047Y-97210000D01*
X135963274Y-97210000D01*
X135776077Y-97287540D01*
X135708088Y-97528483D01*
X136500000Y-98320395D01*
X137291912Y-97528483D01*
X137223923Y-97287540D01*
X137006047Y-97210000D01*
X138963274Y-97210000D01*
X138776077Y-97287540D01*
X138708088Y-97528483D01*
X139500000Y-98320395D01*
X140291912Y-97528483D01*
X140223923Y-97287540D01*
X140006047Y-97210000D01*
X141963274Y-97210000D01*
X141776077Y-97287540D01*
X141708088Y-97528483D01*
X142500000Y-98320395D01*
X143291912Y-97528483D01*
X143223923Y-97287540D01*
X143006047Y-97210000D01*
X144963274Y-97210000D01*
X144776077Y-97287540D01*
X144708088Y-97528483D01*
X145500000Y-98320395D01*
X146291912Y-97528483D01*
X146223923Y-97287540D01*
X146006047Y-97210000D01*
X147963274Y-97210000D01*
X147776077Y-97287540D01*
X147708088Y-97528483D01*
X148500000Y-98320395D01*
X149291912Y-97528483D01*
X149223923Y-97287540D01*
X149006047Y-97210000D01*
X151790000Y-97210000D01*
X151790001Y-139790000D01*
X118210000Y-139790000D01*
X118210000Y-134895322D01*
X121515000Y-134895322D01*
X121515000Y-135744678D01*
X121840034Y-136529380D01*
X122440620Y-137129966D01*
X123225322Y-137455000D01*
X124074678Y-137455000D01*
X124859380Y-137129966D01*
X125459966Y-136529380D01*
X125785000Y-135744678D01*
X125785000Y-134895322D01*
X144215000Y-134895322D01*
X144215000Y-135744678D01*
X144540034Y-136529380D01*
X145140620Y-137129966D01*
X145925322Y-137455000D01*
X146774678Y-137455000D01*
X147559380Y-137129966D01*
X148159966Y-136529380D01*
X148485000Y-135744678D01*
X148485000Y-134895322D01*
X148159966Y-134110620D01*
X147559380Y-133510034D01*
X146774678Y-133185000D01*
X145925322Y-133185000D01*
X145140620Y-133510034D01*
X144540034Y-134110620D01*
X144215000Y-134895322D01*
X125785000Y-134895322D01*
X125459966Y-134110620D01*
X124859380Y-133510034D01*
X124074678Y-133185000D01*
X123225322Y-133185000D01*
X122440620Y-133510034D01*
X121840034Y-134110620D01*
X121515000Y-134895322D01*
X118210000Y-134895322D01*
X118210000Y-130724506D01*
X120115000Y-130724506D01*
X120115000Y-131275494D01*
X120325853Y-131784540D01*
X120715460Y-132174147D01*
X121224506Y-132385000D01*
X121775494Y-132385000D01*
X122284540Y-132174147D01*
X122674147Y-131784540D01*
X122885000Y-131275494D01*
X122885000Y-130724506D01*
X123115000Y-130724506D01*
X123115000Y-131275494D01*
X123325853Y-131784540D01*
X123715460Y-132174147D01*
X124224506Y-132385000D01*
X124775494Y-132385000D01*
X125284540Y-132174147D01*
X125674147Y-131784540D01*
X125885000Y-131275494D01*
X125885000Y-130724506D01*
X126115000Y-130724506D01*
X126115000Y-131275494D01*
X126325853Y-131784540D01*
X126715460Y-132174147D01*
X127224506Y-132385000D01*
X127775494Y-132385000D01*
X128284540Y-132174147D01*
X128674147Y-131784540D01*
X128885000Y-131275494D01*
X128885000Y-130724506D01*
X129115000Y-130724506D01*
X129115000Y-131275494D01*
X129325853Y-131784540D01*
X129715460Y-132174147D01*
X130224506Y-132385000D01*
X130775494Y-132385000D01*
X131284540Y-132174147D01*
X131674147Y-131784540D01*
X131885000Y-131275494D01*
X131885000Y-130724506D01*
X132115000Y-130724506D01*
X132115000Y-131275494D01*
X132325853Y-131784540D01*
X132715460Y-132174147D01*
X133224506Y-132385000D01*
X133775494Y-132385000D01*
X134284540Y-132174147D01*
X134674147Y-131784540D01*
X134885000Y-131275494D01*
X134885000Y-130724506D01*
X135115000Y-130724506D01*
X135115000Y-131275494D01*
X135325853Y-131784540D01*
X135715460Y-132174147D01*
X136224506Y-132385000D01*
X136775494Y-132385000D01*
X137284540Y-132174147D01*
X137674147Y-131784540D01*
X137885000Y-131275494D01*
X137885000Y-130724506D01*
X138115000Y-130724506D01*
X138115000Y-131275494D01*
X138325853Y-131784540D01*
X138715460Y-132174147D01*
X139224506Y-132385000D01*
X139775494Y-132385000D01*
X140284540Y-132174147D01*
X140674147Y-131784540D01*
X140885000Y-131275494D01*
X140885000Y-130724506D01*
X141115000Y-130724506D01*
X141115000Y-131275494D01*
X141325853Y-131784540D01*
X141715460Y-132174147D01*
X142224506Y-132385000D01*
X142775494Y-132385000D01*
X143284540Y-132174147D01*
X143674147Y-131784540D01*
X143885000Y-131275494D01*
X143885000Y-130724506D01*
X144115000Y-130724506D01*
X144115000Y-131275494D01*
X144325853Y-131784540D01*
X144715460Y-132174147D01*
X145224506Y-132385000D01*
X145775494Y-132385000D01*
X146284540Y-132174147D01*
X146674147Y-131784540D01*
X146885000Y-131275494D01*
X146885000Y-130724506D01*
X146884012Y-130722119D01*
X147103000Y-130722119D01*
X147103000Y-131277881D01*
X147315680Y-131791337D01*
X147708663Y-132184320D01*
X148222119Y-132397000D01*
X148777881Y-132397000D01*
X149291337Y-132184320D01*
X149684320Y-131791337D01*
X149897000Y-131277881D01*
X149897000Y-130722119D01*
X149684320Y-130208663D01*
X149291337Y-129815680D01*
X148777881Y-129603000D01*
X148222119Y-129603000D01*
X147708663Y-129815680D01*
X147315680Y-130208663D01*
X147103000Y-130722119D01*
X146884012Y-130722119D01*
X146674147Y-130215460D01*
X146284540Y-129825853D01*
X145775494Y-129615000D01*
X145224506Y-129615000D01*
X144715460Y-129825853D01*
X144325853Y-130215460D01*
X144115000Y-130724506D01*
X143885000Y-130724506D01*
X143674147Y-130215460D01*
X143284540Y-129825853D01*
X142775494Y-129615000D01*
X142224506Y-129615000D01*
X141715460Y-129825853D01*
X141325853Y-130215460D01*
X141115000Y-130724506D01*
X140885000Y-130724506D01*
X140674147Y-130215460D01*
X140284540Y-129825853D01*
X139775494Y-129615000D01*
X139224506Y-129615000D01*
X138715460Y-129825853D01*
X138325853Y-130215460D01*
X138115000Y-130724506D01*
X137885000Y-130724506D01*
X137674147Y-130215460D01*
X137284540Y-129825853D01*
X136775494Y-129615000D01*
X136224506Y-129615000D01*
X135715460Y-129825853D01*
X135325853Y-130215460D01*
X135115000Y-130724506D01*
X134885000Y-130724506D01*
X134674147Y-130215460D01*
X134284540Y-129825853D01*
X133775494Y-129615000D01*
X133224506Y-129615000D01*
X132715460Y-129825853D01*
X132325853Y-130215460D01*
X132115000Y-130724506D01*
X131885000Y-130724506D01*
X131674147Y-130215460D01*
X131284540Y-129825853D01*
X130775494Y-129615000D01*
X130224506Y-129615000D01*
X129715460Y-129825853D01*
X129325853Y-130215460D01*
X129115000Y-130724506D01*
X128885000Y-130724506D01*
X128674147Y-130215460D01*
X128284540Y-129825853D01*
X127775494Y-129615000D01*
X127224506Y-129615000D01*
X126715460Y-129825853D01*
X126325853Y-130215460D01*
X126115000Y-130724506D01*
X125885000Y-130724506D01*
X125674147Y-130215460D01*
X125284540Y-129825853D01*
X124775494Y-129615000D01*
X124224506Y-129615000D01*
X123715460Y-129825853D01*
X123325853Y-130215460D01*
X123115000Y-130724506D01*
X122885000Y-130724506D01*
X122674147Y-130215460D01*
X122284540Y-129825853D01*
X121775494Y-129615000D01*
X121224506Y-129615000D01*
X120715460Y-129825853D01*
X120325853Y-130215460D01*
X120115000Y-130724506D01*
X118210000Y-130724506D01*
X118210000Y-127724506D01*
X120115000Y-127724506D01*
X120115000Y-128275494D01*
X120325853Y-128784540D01*
X120715460Y-129174147D01*
X121224506Y-129385000D01*
X121775494Y-129385000D01*
X122284540Y-129174147D01*
X122674147Y-128784540D01*
X122885000Y-128275494D01*
X122885000Y-127724506D01*
X123115000Y-127724506D01*
X123115000Y-128275494D01*
X123325853Y-128784540D01*
X123715460Y-129174147D01*
X124224506Y-129385000D01*
X124775494Y-129385000D01*
X125284540Y-129174147D01*
X125674147Y-128784540D01*
X125885000Y-128275494D01*
X125885000Y-127724506D01*
X126115000Y-127724506D01*
X126115000Y-128275494D01*
X126325853Y-128784540D01*
X126715460Y-129174147D01*
X127224506Y-129385000D01*
X127775494Y-129385000D01*
X128284540Y-129174147D01*
X128674147Y-128784540D01*
X128885000Y-128275494D01*
X128885000Y-127724506D01*
X129115000Y-127724506D01*
X129115000Y-128275494D01*
X129325853Y-128784540D01*
X129715460Y-129174147D01*
X130224506Y-129385000D01*
X130775494Y-129385000D01*
X131284540Y-129174147D01*
X131674147Y-128784540D01*
X131885000Y-128275494D01*
X131885000Y-127724506D01*
X132115000Y-127724506D01*
X132115000Y-128275494D01*
X132325853Y-128784540D01*
X132715460Y-129174147D01*
X133224506Y-129385000D01*
X133775494Y-129385000D01*
X134284540Y-129174147D01*
X134674147Y-128784540D01*
X134885000Y-128275494D01*
X134885000Y-127724506D01*
X135115000Y-127724506D01*
X135115000Y-128275494D01*
X135325853Y-128784540D01*
X135715460Y-129174147D01*
X136224506Y-129385000D01*
X136775494Y-129385000D01*
X137284540Y-129174147D01*
X137674147Y-128784540D01*
X137885000Y-128275494D01*
X137885000Y-127724506D01*
X138115000Y-127724506D01*
X138115000Y-128275494D01*
X138325853Y-128784540D01*
X138715460Y-129174147D01*
X139224506Y-129385000D01*
X139775494Y-129385000D01*
X140284540Y-129174147D01*
X140674147Y-128784540D01*
X140885000Y-128275494D01*
X140885000Y-127724506D01*
X141115000Y-127724506D01*
X141115000Y-128275494D01*
X141325853Y-128784540D01*
X141715460Y-129174147D01*
X142224506Y-129385000D01*
X142775494Y-129385000D01*
X143284540Y-129174147D01*
X143674147Y-128784540D01*
X143885000Y-128275494D01*
X143885000Y-127724506D01*
X144115000Y-127724506D01*
X144115000Y-128275494D01*
X144325853Y-128784540D01*
X144715460Y-129174147D01*
X145224506Y-129385000D01*
X145775494Y-129385000D01*
X146284540Y-129174147D01*
X146674147Y-128784540D01*
X146885000Y-128275494D01*
X146885000Y-127724506D01*
X147115000Y-127724506D01*
X147115000Y-128275494D01*
X147325853Y-128784540D01*
X147715460Y-129174147D01*
X148224506Y-129385000D01*
X148775494Y-129385000D01*
X149284540Y-129174147D01*
X149674147Y-128784540D01*
X149885000Y-128275494D01*
X149885000Y-127724506D01*
X149674147Y-127215460D01*
X149284540Y-126825853D01*
X148775494Y-126615000D01*
X148224506Y-126615000D01*
X147715460Y-126825853D01*
X147325853Y-127215460D01*
X147115000Y-127724506D01*
X146885000Y-127724506D01*
X146674147Y-127215460D01*
X146284540Y-126825853D01*
X145775494Y-126615000D01*
X145224506Y-126615000D01*
X144715460Y-126825853D01*
X144325853Y-127215460D01*
X144115000Y-127724506D01*
X143885000Y-127724506D01*
X143674147Y-127215460D01*
X143284540Y-126825853D01*
X142775494Y-126615000D01*
X142224506Y-126615000D01*
X141715460Y-126825853D01*
X141325853Y-127215460D01*
X141115000Y-127724506D01*
X140885000Y-127724506D01*
X140674147Y-127215460D01*
X140284540Y-126825853D01*
X139775494Y-126615000D01*
X139224506Y-126615000D01*
X138715460Y-126825853D01*
X138325853Y-127215460D01*
X138115000Y-127724506D01*
X137885000Y-127724506D01*
X137674147Y-127215460D01*
X137284540Y-126825853D01*
X136775494Y-126615000D01*
X136224506Y-126615000D01*
X135715460Y-126825853D01*
X135325853Y-127215460D01*
X135115000Y-127724506D01*
X134885000Y-127724506D01*
X134674147Y-127215460D01*
X134284540Y-126825853D01*
X133775494Y-126615000D01*
X133224506Y-126615000D01*
X132715460Y-126825853D01*
X132325853Y-127215460D01*
X132115000Y-127724506D01*
X131885000Y-127724506D01*
X131674147Y-127215460D01*
X131284540Y-126825853D01*
X130775494Y-126615000D01*
X130224506Y-126615000D01*
X129715460Y-126825853D01*
X129325853Y-127215460D01*
X129115000Y-127724506D01*
X128885000Y-127724506D01*
X128674147Y-127215460D01*
X128284540Y-126825853D01*
X127775494Y-126615000D01*
X127224506Y-126615000D01*
X126715460Y-126825853D01*
X126325853Y-127215460D01*
X126115000Y-127724506D01*
X125885000Y-127724506D01*
X125674147Y-127215460D01*
X125284540Y-126825853D01*
X124775494Y-126615000D01*
X124224506Y-126615000D01*
X123715460Y-126825853D01*
X123325853Y-127215460D01*
X123115000Y-127724506D01*
X122885000Y-127724506D01*
X122674147Y-127215460D01*
X122284540Y-126825853D01*
X121775494Y-126615000D01*
X121224506Y-126615000D01*
X120715460Y-126825853D01*
X120325853Y-127215460D01*
X120115000Y-127724506D01*
X118210000Y-127724506D01*
X118210000Y-123966051D01*
X118320603Y-124076654D01*
X118787381Y-124270000D01*
X119292619Y-124270000D01*
X119759397Y-124076654D01*
X120116654Y-123719397D01*
X120310000Y-123252619D01*
X120310000Y-122747381D01*
X120116654Y-122280603D01*
X119859264Y-122023213D01*
X132839000Y-122023213D01*
X132839000Y-122832787D01*
X133148810Y-123580735D01*
X133721265Y-124153190D01*
X134469213Y-124463000D01*
X135278787Y-124463000D01*
X136026735Y-124153190D01*
X136599190Y-123580735D01*
X136909000Y-122832787D01*
X136909000Y-122023213D01*
X136599190Y-121275265D01*
X136026735Y-120702810D01*
X135278787Y-120393000D01*
X134469213Y-120393000D01*
X133721265Y-120702810D01*
X133148810Y-121275265D01*
X132839000Y-122023213D01*
X119859264Y-122023213D01*
X119759397Y-121923346D01*
X119292619Y-121730000D01*
X118787381Y-121730000D01*
X118320603Y-121923346D01*
X118210000Y-122033949D01*
X118210000Y-119704615D01*
X119515000Y-119704615D01*
X119515000Y-120295385D01*
X119741078Y-120841185D01*
X120158815Y-121258922D01*
X120704615Y-121485000D01*
X121295385Y-121485000D01*
X121841185Y-121258922D01*
X122258922Y-120841185D01*
X122485000Y-120295385D01*
X122485000Y-119704615D01*
X122258922Y-119158815D01*
X121841185Y-118741078D01*
X121295385Y-118515000D01*
X120704615Y-118515000D01*
X120158815Y-118741078D01*
X119741078Y-119158815D01*
X119515000Y-119704615D01*
X118210000Y-119704615D01*
X118210000Y-118043958D01*
X120135647Y-118043958D01*
X120215920Y-118295259D01*
X120771279Y-118496718D01*
X121361458Y-118470315D01*
X121784080Y-118295259D01*
X121816641Y-118193322D01*
X125865000Y-118193322D01*
X125865000Y-119042678D01*
X126190034Y-119827380D01*
X126790620Y-120427966D01*
X127575322Y-120753000D01*
X128424678Y-120753000D01*
X129209380Y-120427966D01*
X129809966Y-119827380D01*
X130135000Y-119042678D01*
X130135000Y-118193322D01*
X145865000Y-118193322D01*
X145865000Y-119042678D01*
X146190034Y-119827380D01*
X146790620Y-120427966D01*
X147575322Y-120753000D01*
X148424678Y-120753000D01*
X149209380Y-120427966D01*
X149809966Y-119827380D01*
X150135000Y-119042678D01*
X150135000Y-118193322D01*
X149809966Y-117408620D01*
X149209380Y-116808034D01*
X148424678Y-116483000D01*
X147575322Y-116483000D01*
X146790620Y-116808034D01*
X146190034Y-117408620D01*
X145865000Y-118193322D01*
X130135000Y-118193322D01*
X129809966Y-117408620D01*
X129209380Y-116808034D01*
X128424678Y-116483000D01*
X127575322Y-116483000D01*
X126790620Y-116808034D01*
X126190034Y-117408620D01*
X125865000Y-118193322D01*
X121816641Y-118193322D01*
X121864353Y-118043958D01*
X121000000Y-117179605D01*
X120135647Y-118043958D01*
X118210000Y-118043958D01*
X118210000Y-116771279D01*
X119503282Y-116771279D01*
X119529685Y-117361458D01*
X119704741Y-117784080D01*
X119956042Y-117864353D01*
X120820395Y-117000000D01*
X121179605Y-117000000D01*
X122043958Y-117864353D01*
X122295259Y-117784080D01*
X122496718Y-117228721D01*
X122470315Y-116638542D01*
X122295259Y-116215920D01*
X122043958Y-116135647D01*
X121179605Y-117000000D01*
X120820395Y-117000000D01*
X119956042Y-116135647D01*
X119704741Y-116215920D01*
X119503282Y-116771279D01*
X118210000Y-116771279D01*
X118210000Y-115956042D01*
X120135647Y-115956042D01*
X121000000Y-116820395D01*
X121824671Y-115995724D01*
X133611882Y-115995724D01*
X133759455Y-116304106D01*
X134514031Y-116597405D01*
X135323409Y-116579614D01*
X135988545Y-116304106D01*
X136136118Y-115995724D01*
X134874000Y-114733605D01*
X133611882Y-115995724D01*
X121824671Y-115995724D01*
X121864353Y-115956042D01*
X121784080Y-115704741D01*
X121228721Y-115503282D01*
X120638542Y-115529685D01*
X120215920Y-115704741D01*
X120135647Y-115956042D01*
X118210000Y-115956042D01*
X118210000Y-114966051D01*
X118320603Y-115076654D01*
X118787381Y-115270000D01*
X119292619Y-115270000D01*
X119759397Y-115076654D01*
X120116654Y-114719397D01*
X120310000Y-114252619D01*
X120310000Y-114194031D01*
X132830595Y-114194031D01*
X132848386Y-115003409D01*
X133123894Y-115668545D01*
X133432276Y-115816118D01*
X134694395Y-114554000D01*
X135053605Y-114554000D01*
X136315724Y-115816118D01*
X136624106Y-115668545D01*
X136917405Y-114913969D01*
X136899614Y-114104591D01*
X136624106Y-113439455D01*
X136315724Y-113291882D01*
X135053605Y-114554000D01*
X134694395Y-114554000D01*
X133432276Y-113291882D01*
X133123894Y-113439455D01*
X132830595Y-114194031D01*
X120310000Y-114194031D01*
X120310000Y-113747381D01*
X120116654Y-113280603D01*
X119948327Y-113112276D01*
X133611882Y-113112276D01*
X134874000Y-114374395D01*
X136136118Y-113112276D01*
X135988545Y-112803894D01*
X135233969Y-112510595D01*
X134424591Y-112528386D01*
X133759455Y-112803894D01*
X133611882Y-113112276D01*
X119948327Y-113112276D01*
X119759397Y-112923346D01*
X119292619Y-112730000D01*
X118787381Y-112730000D01*
X118320603Y-112923346D01*
X118210000Y-113033949D01*
X118210000Y-105395322D01*
X121515000Y-105395322D01*
X121515000Y-106244678D01*
X121840034Y-107029380D01*
X122440620Y-107629966D01*
X123225322Y-107955000D01*
X124074678Y-107955000D01*
X124859380Y-107629966D01*
X125459966Y-107029380D01*
X125785000Y-106244678D01*
X125785000Y-105395322D01*
X144215000Y-105395322D01*
X144215000Y-106244678D01*
X144540034Y-107029380D01*
X145140620Y-107629966D01*
X145925322Y-107955000D01*
X146774678Y-107955000D01*
X147559380Y-107629966D01*
X148159966Y-107029380D01*
X148485000Y-106244678D01*
X148485000Y-105395322D01*
X148159966Y-104610620D01*
X147559380Y-104010034D01*
X146774678Y-103685000D01*
X145925322Y-103685000D01*
X145140620Y-104010034D01*
X144540034Y-104610620D01*
X144215000Y-105395322D01*
X125785000Y-105395322D01*
X125459966Y-104610620D01*
X124859380Y-104010034D01*
X124074678Y-103685000D01*
X123225322Y-103685000D01*
X122440620Y-104010034D01*
X121840034Y-104610620D01*
X121515000Y-105395322D01*
X118210000Y-105395322D01*
X118210000Y-102471517D01*
X120708088Y-102471517D01*
X120776077Y-102712460D01*
X121295171Y-102897201D01*
X121845448Y-102869230D01*
X122223923Y-102712460D01*
X122291912Y-102471517D01*
X123708088Y-102471517D01*
X123776077Y-102712460D01*
X124295171Y-102897201D01*
X124845448Y-102869230D01*
X125223923Y-102712460D01*
X125291912Y-102471517D01*
X126708088Y-102471517D01*
X126776077Y-102712460D01*
X127295171Y-102897201D01*
X127845448Y-102869230D01*
X128223923Y-102712460D01*
X128291912Y-102471517D01*
X129708088Y-102471517D01*
X129776077Y-102712460D01*
X130295171Y-102897201D01*
X130845448Y-102869230D01*
X131223923Y-102712460D01*
X131291912Y-102471517D01*
X132708088Y-102471517D01*
X132776077Y-102712460D01*
X133295171Y-102897201D01*
X133845448Y-102869230D01*
X134223923Y-102712460D01*
X134291912Y-102471517D01*
X135708088Y-102471517D01*
X135776077Y-102712460D01*
X136295171Y-102897201D01*
X136845448Y-102869230D01*
X137223923Y-102712460D01*
X137291912Y-102471517D01*
X138708088Y-102471517D01*
X138776077Y-102712460D01*
X139295171Y-102897201D01*
X139845448Y-102869230D01*
X140223923Y-102712460D01*
X140291912Y-102471517D01*
X141708088Y-102471517D01*
X141776077Y-102712460D01*
X142295171Y-102897201D01*
X142845448Y-102869230D01*
X143223923Y-102712460D01*
X143291912Y-102471517D01*
X144708088Y-102471517D01*
X144776077Y-102712460D01*
X145295171Y-102897201D01*
X145845448Y-102869230D01*
X146223923Y-102712460D01*
X146289458Y-102480213D01*
X147699392Y-102480213D01*
X147768857Y-102722397D01*
X148292302Y-102909144D01*
X148847368Y-102881362D01*
X149231143Y-102722397D01*
X149300608Y-102480213D01*
X148500000Y-101679605D01*
X147699392Y-102480213D01*
X146289458Y-102480213D01*
X146291912Y-102471517D01*
X145500000Y-101679605D01*
X144708088Y-102471517D01*
X143291912Y-102471517D01*
X142500000Y-101679605D01*
X141708088Y-102471517D01*
X140291912Y-102471517D01*
X139500000Y-101679605D01*
X138708088Y-102471517D01*
X137291912Y-102471517D01*
X136500000Y-101679605D01*
X135708088Y-102471517D01*
X134291912Y-102471517D01*
X133500000Y-101679605D01*
X132708088Y-102471517D01*
X131291912Y-102471517D01*
X130500000Y-101679605D01*
X129708088Y-102471517D01*
X128291912Y-102471517D01*
X127500000Y-101679605D01*
X126708088Y-102471517D01*
X125291912Y-102471517D01*
X124500000Y-101679605D01*
X123708088Y-102471517D01*
X122291912Y-102471517D01*
X121500000Y-101679605D01*
X120708088Y-102471517D01*
X118210000Y-102471517D01*
X118210000Y-101295171D01*
X120102799Y-101295171D01*
X120130770Y-101845448D01*
X120287540Y-102223923D01*
X120528483Y-102291912D01*
X121320395Y-101500000D01*
X121679605Y-101500000D01*
X122471517Y-102291912D01*
X122712460Y-102223923D01*
X122897201Y-101704829D01*
X122876378Y-101295171D01*
X123102799Y-101295171D01*
X123130770Y-101845448D01*
X123287540Y-102223923D01*
X123528483Y-102291912D01*
X124320395Y-101500000D01*
X124679605Y-101500000D01*
X125471517Y-102291912D01*
X125712460Y-102223923D01*
X125897201Y-101704829D01*
X125876378Y-101295171D01*
X126102799Y-101295171D01*
X126130770Y-101845448D01*
X126287540Y-102223923D01*
X126528483Y-102291912D01*
X127320395Y-101500000D01*
X127679605Y-101500000D01*
X128471517Y-102291912D01*
X128712460Y-102223923D01*
X128897201Y-101704829D01*
X128876378Y-101295171D01*
X129102799Y-101295171D01*
X129130770Y-101845448D01*
X129287540Y-102223923D01*
X129528483Y-102291912D01*
X130320395Y-101500000D01*
X130679605Y-101500000D01*
X131471517Y-102291912D01*
X131712460Y-102223923D01*
X131897201Y-101704829D01*
X131876378Y-101295171D01*
X132102799Y-101295171D01*
X132130770Y-101845448D01*
X132287540Y-102223923D01*
X132528483Y-102291912D01*
X133320395Y-101500000D01*
X133679605Y-101500000D01*
X134471517Y-102291912D01*
X134712460Y-102223923D01*
X134897201Y-101704829D01*
X134876378Y-101295171D01*
X135102799Y-101295171D01*
X135130770Y-101845448D01*
X135287540Y-102223923D01*
X135528483Y-102291912D01*
X136320395Y-101500000D01*
X136679605Y-101500000D01*
X137471517Y-102291912D01*
X137712460Y-102223923D01*
X137897201Y-101704829D01*
X137876378Y-101295171D01*
X138102799Y-101295171D01*
X138130770Y-101845448D01*
X138287540Y-102223923D01*
X138528483Y-102291912D01*
X139320395Y-101500000D01*
X139679605Y-101500000D01*
X140471517Y-102291912D01*
X140712460Y-102223923D01*
X140897201Y-101704829D01*
X140876378Y-101295171D01*
X141102799Y-101295171D01*
X141130770Y-101845448D01*
X141287540Y-102223923D01*
X141528483Y-102291912D01*
X142320395Y-101500000D01*
X142679605Y-101500000D01*
X143471517Y-102291912D01*
X143712460Y-102223923D01*
X143897201Y-101704829D01*
X143876378Y-101295171D01*
X144102799Y-101295171D01*
X144130770Y-101845448D01*
X144287540Y-102223923D01*
X144528483Y-102291912D01*
X145320395Y-101500000D01*
X145679605Y-101500000D01*
X146471517Y-102291912D01*
X146712460Y-102223923D01*
X146897201Y-101704829D01*
X146876232Y-101292302D01*
X147090856Y-101292302D01*
X147118638Y-101847368D01*
X147277603Y-102231143D01*
X147519787Y-102300608D01*
X148320395Y-101500000D01*
X148679605Y-101500000D01*
X149480213Y-102300608D01*
X149722397Y-102231143D01*
X149909144Y-101707698D01*
X149881362Y-101152632D01*
X149722397Y-100768857D01*
X149480213Y-100699392D01*
X148679605Y-101500000D01*
X148320395Y-101500000D01*
X147519787Y-100699392D01*
X147277603Y-100768857D01*
X147090856Y-101292302D01*
X146876232Y-101292302D01*
X146869230Y-101154552D01*
X146712460Y-100776077D01*
X146471517Y-100708088D01*
X145679605Y-101500000D01*
X145320395Y-101500000D01*
X144528483Y-100708088D01*
X144287540Y-100776077D01*
X144102799Y-101295171D01*
X143876378Y-101295171D01*
X143869230Y-101154552D01*
X143712460Y-100776077D01*
X143471517Y-100708088D01*
X142679605Y-101500000D01*
X142320395Y-101500000D01*
X141528483Y-100708088D01*
X141287540Y-100776077D01*
X141102799Y-101295171D01*
X140876378Y-101295171D01*
X140869230Y-101154552D01*
X140712460Y-100776077D01*
X140471517Y-100708088D01*
X139679605Y-101500000D01*
X139320395Y-101500000D01*
X138528483Y-100708088D01*
X138287540Y-100776077D01*
X138102799Y-101295171D01*
X137876378Y-101295171D01*
X137869230Y-101154552D01*
X137712460Y-100776077D01*
X137471517Y-100708088D01*
X136679605Y-101500000D01*
X136320395Y-101500000D01*
X135528483Y-100708088D01*
X135287540Y-100776077D01*
X135102799Y-101295171D01*
X134876378Y-101295171D01*
X134869230Y-101154552D01*
X134712460Y-100776077D01*
X134471517Y-100708088D01*
X133679605Y-101500000D01*
X133320395Y-101500000D01*
X132528483Y-100708088D01*
X132287540Y-100776077D01*
X132102799Y-101295171D01*
X131876378Y-101295171D01*
X131869230Y-101154552D01*
X131712460Y-100776077D01*
X131471517Y-100708088D01*
X130679605Y-101500000D01*
X130320395Y-101500000D01*
X129528483Y-100708088D01*
X129287540Y-100776077D01*
X129102799Y-101295171D01*
X128876378Y-101295171D01*
X128869230Y-101154552D01*
X128712460Y-100776077D01*
X128471517Y-100708088D01*
X127679605Y-101500000D01*
X127320395Y-101500000D01*
X126528483Y-100708088D01*
X126287540Y-100776077D01*
X126102799Y-101295171D01*
X125876378Y-101295171D01*
X125869230Y-101154552D01*
X125712460Y-100776077D01*
X125471517Y-100708088D01*
X124679605Y-101500000D01*
X124320395Y-101500000D01*
X123528483Y-100708088D01*
X123287540Y-100776077D01*
X123102799Y-101295171D01*
X122876378Y-101295171D01*
X122869230Y-101154552D01*
X122712460Y-100776077D01*
X122471517Y-100708088D01*
X121679605Y-101500000D01*
X121320395Y-101500000D01*
X120528483Y-100708088D01*
X120287540Y-100776077D01*
X120102799Y-101295171D01*
X118210000Y-101295171D01*
X118210000Y-100528483D01*
X120708088Y-100528483D01*
X121500000Y-101320395D01*
X122291912Y-100528483D01*
X123708088Y-100528483D01*
X124500000Y-101320395D01*
X125291912Y-100528483D01*
X126708088Y-100528483D01*
X127500000Y-101320395D01*
X128291912Y-100528483D01*
X129708088Y-100528483D01*
X130500000Y-101320395D01*
X131291912Y-100528483D01*
X132708088Y-100528483D01*
X133500000Y-101320395D01*
X134291912Y-100528483D01*
X135708088Y-100528483D01*
X136500000Y-101320395D01*
X137291912Y-100528483D01*
X138708088Y-100528483D01*
X139500000Y-101320395D01*
X140291912Y-100528483D01*
X141708088Y-100528483D01*
X142500000Y-101320395D01*
X143291912Y-100528483D01*
X144708088Y-100528483D01*
X145500000Y-101320395D01*
X146291912Y-100528483D01*
X146289459Y-100519787D01*
X147699392Y-100519787D01*
X148500000Y-101320395D01*
X149300608Y-100519787D01*
X149231143Y-100277603D01*
X148707698Y-100090856D01*
X148152632Y-100118638D01*
X147768857Y-100277603D01*
X147699392Y-100519787D01*
X146289459Y-100519787D01*
X146223923Y-100287540D01*
X145704829Y-100102799D01*
X145154552Y-100130770D01*
X144776077Y-100287540D01*
X144708088Y-100528483D01*
X143291912Y-100528483D01*
X143223923Y-100287540D01*
X142704829Y-100102799D01*
X142154552Y-100130770D01*
X141776077Y-100287540D01*
X141708088Y-100528483D01*
X140291912Y-100528483D01*
X140223923Y-100287540D01*
X139704829Y-100102799D01*
X139154552Y-100130770D01*
X138776077Y-100287540D01*
X138708088Y-100528483D01*
X137291912Y-100528483D01*
X137223923Y-100287540D01*
X136704829Y-100102799D01*
X136154552Y-100130770D01*
X135776077Y-100287540D01*
X135708088Y-100528483D01*
X134291912Y-100528483D01*
X134223923Y-100287540D01*
X133704829Y-100102799D01*
X133154552Y-100130770D01*
X132776077Y-100287540D01*
X132708088Y-100528483D01*
X131291912Y-100528483D01*
X131223923Y-100287540D01*
X130704829Y-100102799D01*
X130154552Y-100130770D01*
X129776077Y-100287540D01*
X129708088Y-100528483D01*
X128291912Y-100528483D01*
X128223923Y-100287540D01*
X127704829Y-100102799D01*
X127154552Y-100130770D01*
X126776077Y-100287540D01*
X126708088Y-100528483D01*
X125291912Y-100528483D01*
X125223923Y-100287540D01*
X124704829Y-100102799D01*
X124154552Y-100130770D01*
X123776077Y-100287540D01*
X123708088Y-100528483D01*
X122291912Y-100528483D01*
X122223923Y-100287540D01*
X121704829Y-100102799D01*
X121154552Y-100130770D01*
X120776077Y-100287540D01*
X120708088Y-100528483D01*
X118210000Y-100528483D01*
X118210000Y-99471517D01*
X120708088Y-99471517D01*
X120776077Y-99712460D01*
X121295171Y-99897201D01*
X121845448Y-99869230D01*
X122223923Y-99712460D01*
X122291912Y-99471517D01*
X123708088Y-99471517D01*
X123776077Y-99712460D01*
X124295171Y-99897201D01*
X124845448Y-99869230D01*
X125223923Y-99712460D01*
X125291912Y-99471517D01*
X126708088Y-99471517D01*
X126776077Y-99712460D01*
X127295171Y-99897201D01*
X127845448Y-99869230D01*
X128223923Y-99712460D01*
X128291912Y-99471517D01*
X129708088Y-99471517D01*
X129776077Y-99712460D01*
X130295171Y-99897201D01*
X130845448Y-99869230D01*
X131223923Y-99712460D01*
X131291912Y-99471517D01*
X132708088Y-99471517D01*
X132776077Y-99712460D01*
X133295171Y-99897201D01*
X133845448Y-99869230D01*
X134223923Y-99712460D01*
X134291912Y-99471517D01*
X135708088Y-99471517D01*
X135776077Y-99712460D01*
X136295171Y-99897201D01*
X136845448Y-99869230D01*
X137223923Y-99712460D01*
X137291912Y-99471517D01*
X138708088Y-99471517D01*
X138776077Y-99712460D01*
X139295171Y-99897201D01*
X139845448Y-99869230D01*
X140223923Y-99712460D01*
X140291912Y-99471517D01*
X141708088Y-99471517D01*
X141776077Y-99712460D01*
X142295171Y-99897201D01*
X142845448Y-99869230D01*
X143223923Y-99712460D01*
X143291912Y-99471517D01*
X144708088Y-99471517D01*
X144776077Y-99712460D01*
X145295171Y-99897201D01*
X145845448Y-99869230D01*
X146223923Y-99712460D01*
X146291912Y-99471517D01*
X147708088Y-99471517D01*
X147776077Y-99712460D01*
X148295171Y-99897201D01*
X148845448Y-99869230D01*
X149223923Y-99712460D01*
X149291912Y-99471517D01*
X148500000Y-98679605D01*
X147708088Y-99471517D01*
X146291912Y-99471517D01*
X145500000Y-98679605D01*
X144708088Y-99471517D01*
X143291912Y-99471517D01*
X142500000Y-98679605D01*
X141708088Y-99471517D01*
X140291912Y-99471517D01*
X139500000Y-98679605D01*
X138708088Y-99471517D01*
X137291912Y-99471517D01*
X136500000Y-98679605D01*
X135708088Y-99471517D01*
X134291912Y-99471517D01*
X133500000Y-98679605D01*
X132708088Y-99471517D01*
X131291912Y-99471517D01*
X130500000Y-98679605D01*
X129708088Y-99471517D01*
X128291912Y-99471517D01*
X127500000Y-98679605D01*
X126708088Y-99471517D01*
X125291912Y-99471517D01*
X124500000Y-98679605D01*
X123708088Y-99471517D01*
X122291912Y-99471517D01*
X121500000Y-98679605D01*
X120708088Y-99471517D01*
X118210000Y-99471517D01*
X118210000Y-98295171D01*
X120102799Y-98295171D01*
X120130770Y-98845448D01*
X120287540Y-99223923D01*
X120528483Y-99291912D01*
X121320395Y-98500000D01*
X121679605Y-98500000D01*
X122471517Y-99291912D01*
X122712460Y-99223923D01*
X122897201Y-98704829D01*
X122876378Y-98295171D01*
X123102799Y-98295171D01*
X123130770Y-98845448D01*
X123287540Y-99223923D01*
X123528483Y-99291912D01*
X124320395Y-98500000D01*
X124679605Y-98500000D01*
X125471517Y-99291912D01*
X125712460Y-99223923D01*
X125897201Y-98704829D01*
X125876378Y-98295171D01*
X126102799Y-98295171D01*
X126130770Y-98845448D01*
X126287540Y-99223923D01*
X126528483Y-99291912D01*
X127320395Y-98500000D01*
X127679605Y-98500000D01*
X128471517Y-99291912D01*
X128712460Y-99223923D01*
X128897201Y-98704829D01*
X128876378Y-98295171D01*
X129102799Y-98295171D01*
X129130770Y-98845448D01*
X129287540Y-99223923D01*
X129528483Y-99291912D01*
X130320395Y-98500000D01*
X130679605Y-98500000D01*
X131471517Y-99291912D01*
X131712460Y-99223923D01*
X131897201Y-98704829D01*
X131876378Y-98295171D01*
X132102799Y-98295171D01*
X132130770Y-98845448D01*
X132287540Y-99223923D01*
X132528483Y-99291912D01*
X133320395Y-98500000D01*
X133679605Y-98500000D01*
X134471517Y-99291912D01*
X134712460Y-99223923D01*
X134897201Y-98704829D01*
X134876378Y-98295171D01*
X135102799Y-98295171D01*
X135130770Y-98845448D01*
X135287540Y-99223923D01*
X135528483Y-99291912D01*
X136320395Y-98500000D01*
X136679605Y-98500000D01*
X137471517Y-99291912D01*
X137712460Y-99223923D01*
X137897201Y-98704829D01*
X137876378Y-98295171D01*
X138102799Y-98295171D01*
X138130770Y-98845448D01*
X138287540Y-99223923D01*
X138528483Y-99291912D01*
X139320395Y-98500000D01*
X139679605Y-98500000D01*
X140471517Y-99291912D01*
X140712460Y-99223923D01*
X140897201Y-98704829D01*
X140876378Y-98295171D01*
X141102799Y-98295171D01*
X141130770Y-98845448D01*
X141287540Y-99223923D01*
X141528483Y-99291912D01*
X142320395Y-98500000D01*
X142679605Y-98500000D01*
X143471517Y-99291912D01*
X143712460Y-99223923D01*
X143897201Y-98704829D01*
X143876378Y-98295171D01*
X144102799Y-98295171D01*
X144130770Y-98845448D01*
X144287540Y-99223923D01*
X144528483Y-99291912D01*
X145320395Y-98500000D01*
X145679605Y-98500000D01*
X146471517Y-99291912D01*
X146712460Y-99223923D01*
X146897201Y-98704829D01*
X146876378Y-98295171D01*
X147102799Y-98295171D01*
X147130770Y-98845448D01*
X147287540Y-99223923D01*
X147528483Y-99291912D01*
X148320395Y-98500000D01*
X148679605Y-98500000D01*
X149471517Y-99291912D01*
X149712460Y-99223923D01*
X149897201Y-98704829D01*
X149869230Y-98154552D01*
X149712460Y-97776077D01*
X149471517Y-97708088D01*
X148679605Y-98500000D01*
X148320395Y-98500000D01*
X147528483Y-97708088D01*
X147287540Y-97776077D01*
X147102799Y-98295171D01*
X146876378Y-98295171D01*
X146869230Y-98154552D01*
X146712460Y-97776077D01*
X146471517Y-97708088D01*
X145679605Y-98500000D01*
X145320395Y-98500000D01*
X144528483Y-97708088D01*
X144287540Y-97776077D01*
X144102799Y-98295171D01*
X143876378Y-98295171D01*
X143869230Y-98154552D01*
X143712460Y-97776077D01*
X143471517Y-97708088D01*
X142679605Y-98500000D01*
X142320395Y-98500000D01*
X141528483Y-97708088D01*
X141287540Y-97776077D01*
X141102799Y-98295171D01*
X140876378Y-98295171D01*
X140869230Y-98154552D01*
X140712460Y-97776077D01*
X140471517Y-97708088D01*
X139679605Y-98500000D01*
X139320395Y-98500000D01*
X138528483Y-97708088D01*
X138287540Y-97776077D01*
X138102799Y-98295171D01*
X137876378Y-98295171D01*
X137869230Y-98154552D01*
X137712460Y-97776077D01*
X137471517Y-97708088D01*
X136679605Y-98500000D01*
X136320395Y-98500000D01*
X135528483Y-97708088D01*
X135287540Y-97776077D01*
X135102799Y-98295171D01*
X134876378Y-98295171D01*
X134869230Y-98154552D01*
X134712460Y-97776077D01*
X134471517Y-97708088D01*
X133679605Y-98500000D01*
X133320395Y-98500000D01*
X132528483Y-97708088D01*
X132287540Y-97776077D01*
X132102799Y-98295171D01*
X131876378Y-98295171D01*
X131869230Y-98154552D01*
X131712460Y-97776077D01*
X131471517Y-97708088D01*
X130679605Y-98500000D01*
X130320395Y-98500000D01*
X129528483Y-97708088D01*
X129287540Y-97776077D01*
X129102799Y-98295171D01*
X128876378Y-98295171D01*
X128869230Y-98154552D01*
X128712460Y-97776077D01*
X128471517Y-97708088D01*
X127679605Y-98500000D01*
X127320395Y-98500000D01*
X126528483Y-97708088D01*
X126287540Y-97776077D01*
X126102799Y-98295171D01*
X125876378Y-98295171D01*
X125869230Y-98154552D01*
X125712460Y-97776077D01*
X125471517Y-97708088D01*
X124679605Y-98500000D01*
X124320395Y-98500000D01*
X123528483Y-97708088D01*
X123287540Y-97776077D01*
X123102799Y-98295171D01*
X122876378Y-98295171D01*
X122869230Y-98154552D01*
X122712460Y-97776077D01*
X122471517Y-97708088D01*
X121679605Y-98500000D01*
X121320395Y-98500000D01*
X120528483Y-97708088D01*
X120287540Y-97776077D01*
X120102799Y-98295171D01*
X118210000Y-98295171D01*
X118210000Y-97210000D01*
X120963274Y-97210000D01*
X120776077Y-97287540D01*
X120776077Y-97287540D01*
G37*
X120776077Y-97287540D02*
X120708088Y-97528483D01*
X121500000Y-98320395D01*
X122291912Y-97528483D01*
X122223923Y-97287540D01*
X122006047Y-97210000D01*
X123963274Y-97210000D01*
X123776077Y-97287540D01*
X123708088Y-97528483D01*
X124500000Y-98320395D01*
X125291912Y-97528483D01*
X125223923Y-97287540D01*
X125006047Y-97210000D01*
X126963274Y-97210000D01*
X126776077Y-97287540D01*
X126708088Y-97528483D01*
X127500000Y-98320395D01*
X128291912Y-97528483D01*
X128223923Y-97287540D01*
X128006047Y-97210000D01*
X129963274Y-97210000D01*
X129776077Y-97287540D01*
X129708088Y-97528483D01*
X130500000Y-98320395D01*
X131291912Y-97528483D01*
X131223923Y-97287540D01*
X131006047Y-97210000D01*
X132963274Y-97210000D01*
X132776077Y-97287540D01*
X132708088Y-97528483D01*
X133500000Y-98320395D01*
X134291912Y-97528483D01*
X134223923Y-97287540D01*
X134006047Y-97210000D01*
X135963274Y-97210000D01*
X135776077Y-97287540D01*
X135708088Y-97528483D01*
X136500000Y-98320395D01*
X137291912Y-97528483D01*
X137223923Y-97287540D01*
X137006047Y-97210000D01*
X138963274Y-97210000D01*
X138776077Y-97287540D01*
X138708088Y-97528483D01*
X139500000Y-98320395D01*
X140291912Y-97528483D01*
X140223923Y-97287540D01*
X140006047Y-97210000D01*
X141963274Y-97210000D01*
X141776077Y-97287540D01*
X141708088Y-97528483D01*
X142500000Y-98320395D01*
X143291912Y-97528483D01*
X143223923Y-97287540D01*
X143006047Y-97210000D01*
X144963274Y-97210000D01*
X144776077Y-97287540D01*
X144708088Y-97528483D01*
X145500000Y-98320395D01*
X146291912Y-97528483D01*
X146223923Y-97287540D01*
X146006047Y-97210000D01*
X147963274Y-97210000D01*
X147776077Y-97287540D01*
X147708088Y-97528483D01*
X148500000Y-98320395D01*
X149291912Y-97528483D01*
X149223923Y-97287540D01*
X149006047Y-97210000D01*
X151790000Y-97210000D01*
X151790001Y-139790000D01*
X118210000Y-139790000D01*
X118210000Y-134895322D01*
X121515000Y-134895322D01*
X121515000Y-135744678D01*
X121840034Y-136529380D01*
X122440620Y-137129966D01*
X123225322Y-137455000D01*
X124074678Y-137455000D01*
X124859380Y-137129966D01*
X125459966Y-136529380D01*
X125785000Y-135744678D01*
X125785000Y-134895322D01*
X144215000Y-134895322D01*
X144215000Y-135744678D01*
X144540034Y-136529380D01*
X145140620Y-137129966D01*
X145925322Y-137455000D01*
X146774678Y-137455000D01*
X147559380Y-137129966D01*
X148159966Y-136529380D01*
X148485000Y-135744678D01*
X148485000Y-134895322D01*
X148159966Y-134110620D01*
X147559380Y-133510034D01*
X146774678Y-133185000D01*
X145925322Y-133185000D01*
X145140620Y-133510034D01*
X144540034Y-134110620D01*
X144215000Y-134895322D01*
X125785000Y-134895322D01*
X125459966Y-134110620D01*
X124859380Y-133510034D01*
X124074678Y-133185000D01*
X123225322Y-133185000D01*
X122440620Y-133510034D01*
X121840034Y-134110620D01*
X121515000Y-134895322D01*
X118210000Y-134895322D01*
X118210000Y-130724506D01*
X120115000Y-130724506D01*
X120115000Y-131275494D01*
X120325853Y-131784540D01*
X120715460Y-132174147D01*
X121224506Y-132385000D01*
X121775494Y-132385000D01*
X122284540Y-132174147D01*
X122674147Y-131784540D01*
X122885000Y-131275494D01*
X122885000Y-130724506D01*
X123115000Y-130724506D01*
X123115000Y-131275494D01*
X123325853Y-131784540D01*
X123715460Y-132174147D01*
X124224506Y-132385000D01*
X124775494Y-132385000D01*
X125284540Y-132174147D01*
X125674147Y-131784540D01*
X125885000Y-131275494D01*
X125885000Y-130724506D01*
X126115000Y-130724506D01*
X126115000Y-131275494D01*
X126325853Y-131784540D01*
X126715460Y-132174147D01*
X127224506Y-132385000D01*
X127775494Y-132385000D01*
X128284540Y-132174147D01*
X128674147Y-131784540D01*
X128885000Y-131275494D01*
X128885000Y-130724506D01*
X129115000Y-130724506D01*
X129115000Y-131275494D01*
X129325853Y-131784540D01*
X129715460Y-132174147D01*
X130224506Y-132385000D01*
X130775494Y-132385000D01*
X131284540Y-132174147D01*
X131674147Y-131784540D01*
X131885000Y-131275494D01*
X131885000Y-130724506D01*
X132115000Y-130724506D01*
X132115000Y-131275494D01*
X132325853Y-131784540D01*
X132715460Y-132174147D01*
X133224506Y-132385000D01*
X133775494Y-132385000D01*
X134284540Y-132174147D01*
X134674147Y-131784540D01*
X134885000Y-131275494D01*
X134885000Y-130724506D01*
X135115000Y-130724506D01*
X135115000Y-131275494D01*
X135325853Y-131784540D01*
X135715460Y-132174147D01*
X136224506Y-132385000D01*
X136775494Y-132385000D01*
X137284540Y-132174147D01*
X137674147Y-131784540D01*
X137885000Y-131275494D01*
X137885000Y-130724506D01*
X138115000Y-130724506D01*
X138115000Y-131275494D01*
X138325853Y-131784540D01*
X138715460Y-132174147D01*
X139224506Y-132385000D01*
X139775494Y-132385000D01*
X140284540Y-132174147D01*
X140674147Y-131784540D01*
X140885000Y-131275494D01*
X140885000Y-130724506D01*
X141115000Y-130724506D01*
X141115000Y-131275494D01*
X141325853Y-131784540D01*
X141715460Y-132174147D01*
X142224506Y-132385000D01*
X142775494Y-132385000D01*
X143284540Y-132174147D01*
X143674147Y-131784540D01*
X143885000Y-131275494D01*
X143885000Y-130724506D01*
X144115000Y-130724506D01*
X144115000Y-131275494D01*
X144325853Y-131784540D01*
X144715460Y-132174147D01*
X145224506Y-132385000D01*
X145775494Y-132385000D01*
X146284540Y-132174147D01*
X146674147Y-131784540D01*
X146885000Y-131275494D01*
X146885000Y-130724506D01*
X146884012Y-130722119D01*
X147103000Y-130722119D01*
X147103000Y-131277881D01*
X147315680Y-131791337D01*
X147708663Y-132184320D01*
X148222119Y-132397000D01*
X148777881Y-132397000D01*
X149291337Y-132184320D01*
X149684320Y-131791337D01*
X149897000Y-131277881D01*
X149897000Y-130722119D01*
X149684320Y-130208663D01*
X149291337Y-129815680D01*
X148777881Y-129603000D01*
X148222119Y-129603000D01*
X147708663Y-129815680D01*
X147315680Y-130208663D01*
X147103000Y-130722119D01*
X146884012Y-130722119D01*
X146674147Y-130215460D01*
X146284540Y-129825853D01*
X145775494Y-129615000D01*
X145224506Y-129615000D01*
X144715460Y-129825853D01*
X144325853Y-130215460D01*
X144115000Y-130724506D01*
X143885000Y-130724506D01*
X143674147Y-130215460D01*
X143284540Y-129825853D01*
X142775494Y-129615000D01*
X142224506Y-129615000D01*
X141715460Y-129825853D01*
X141325853Y-130215460D01*
X141115000Y-130724506D01*
X140885000Y-130724506D01*
X140674147Y-130215460D01*
X140284540Y-129825853D01*
X139775494Y-129615000D01*
X139224506Y-129615000D01*
X138715460Y-129825853D01*
X138325853Y-130215460D01*
X138115000Y-130724506D01*
X137885000Y-130724506D01*
X137674147Y-130215460D01*
X137284540Y-129825853D01*
X136775494Y-129615000D01*
X136224506Y-129615000D01*
X135715460Y-129825853D01*
X135325853Y-130215460D01*
X135115000Y-130724506D01*
X134885000Y-130724506D01*
X134674147Y-130215460D01*
X134284540Y-129825853D01*
X133775494Y-129615000D01*
X133224506Y-129615000D01*
X132715460Y-129825853D01*
X132325853Y-130215460D01*
X132115000Y-130724506D01*
X131885000Y-130724506D01*
X131674147Y-130215460D01*
X131284540Y-129825853D01*
X130775494Y-129615000D01*
X130224506Y-129615000D01*
X129715460Y-129825853D01*
X129325853Y-130215460D01*
X129115000Y-130724506D01*
X128885000Y-130724506D01*
X128674147Y-130215460D01*
X128284540Y-129825853D01*
X127775494Y-129615000D01*
X127224506Y-129615000D01*
X126715460Y-129825853D01*
X126325853Y-130215460D01*
X126115000Y-130724506D01*
X125885000Y-130724506D01*
X125674147Y-130215460D01*
X125284540Y-129825853D01*
X124775494Y-129615000D01*
X124224506Y-129615000D01*
X123715460Y-129825853D01*
X123325853Y-130215460D01*
X123115000Y-130724506D01*
X122885000Y-130724506D01*
X122674147Y-130215460D01*
X122284540Y-129825853D01*
X121775494Y-129615000D01*
X121224506Y-129615000D01*
X120715460Y-129825853D01*
X120325853Y-130215460D01*
X120115000Y-130724506D01*
X118210000Y-130724506D01*
X118210000Y-127724506D01*
X120115000Y-127724506D01*
X120115000Y-128275494D01*
X120325853Y-128784540D01*
X120715460Y-129174147D01*
X121224506Y-129385000D01*
X121775494Y-129385000D01*
X122284540Y-129174147D01*
X122674147Y-128784540D01*
X122885000Y-128275494D01*
X122885000Y-127724506D01*
X123115000Y-127724506D01*
X123115000Y-128275494D01*
X123325853Y-128784540D01*
X123715460Y-129174147D01*
X124224506Y-129385000D01*
X124775494Y-129385000D01*
X125284540Y-129174147D01*
X125674147Y-128784540D01*
X125885000Y-128275494D01*
X125885000Y-127724506D01*
X126115000Y-127724506D01*
X126115000Y-128275494D01*
X126325853Y-128784540D01*
X126715460Y-129174147D01*
X127224506Y-129385000D01*
X127775494Y-129385000D01*
X128284540Y-129174147D01*
X128674147Y-128784540D01*
X128885000Y-128275494D01*
X128885000Y-127724506D01*
X129115000Y-127724506D01*
X129115000Y-128275494D01*
X129325853Y-128784540D01*
X129715460Y-129174147D01*
X130224506Y-129385000D01*
X130775494Y-129385000D01*
X131284540Y-129174147D01*
X131674147Y-128784540D01*
X131885000Y-128275494D01*
X131885000Y-127724506D01*
X132115000Y-127724506D01*
X132115000Y-128275494D01*
X132325853Y-128784540D01*
X132715460Y-129174147D01*
X133224506Y-129385000D01*
X133775494Y-129385000D01*
X134284540Y-129174147D01*
X134674147Y-128784540D01*
X134885000Y-128275494D01*
X134885000Y-127724506D01*
X135115000Y-127724506D01*
X135115000Y-128275494D01*
X135325853Y-128784540D01*
X135715460Y-129174147D01*
X136224506Y-129385000D01*
X136775494Y-129385000D01*
X137284540Y-129174147D01*
X137674147Y-128784540D01*
X137885000Y-128275494D01*
X137885000Y-127724506D01*
X138115000Y-127724506D01*
X138115000Y-128275494D01*
X138325853Y-128784540D01*
X138715460Y-129174147D01*
X139224506Y-129385000D01*
X139775494Y-129385000D01*
X140284540Y-129174147D01*
X140674147Y-128784540D01*
X140885000Y-128275494D01*
X140885000Y-127724506D01*
X141115000Y-127724506D01*
X141115000Y-128275494D01*
X141325853Y-128784540D01*
X141715460Y-129174147D01*
X142224506Y-129385000D01*
X142775494Y-129385000D01*
X143284540Y-129174147D01*
X143674147Y-128784540D01*
X143885000Y-128275494D01*
X143885000Y-127724506D01*
X144115000Y-127724506D01*
X144115000Y-128275494D01*
X144325853Y-128784540D01*
X144715460Y-129174147D01*
X145224506Y-129385000D01*
X145775494Y-129385000D01*
X146284540Y-129174147D01*
X146674147Y-128784540D01*
X146885000Y-128275494D01*
X146885000Y-127724506D01*
X147115000Y-127724506D01*
X147115000Y-128275494D01*
X147325853Y-128784540D01*
X147715460Y-129174147D01*
X148224506Y-129385000D01*
X148775494Y-129385000D01*
X149284540Y-129174147D01*
X149674147Y-128784540D01*
X149885000Y-128275494D01*
X149885000Y-127724506D01*
X149674147Y-127215460D01*
X149284540Y-126825853D01*
X148775494Y-126615000D01*
X148224506Y-126615000D01*
X147715460Y-126825853D01*
X147325853Y-127215460D01*
X147115000Y-127724506D01*
X146885000Y-127724506D01*
X146674147Y-127215460D01*
X146284540Y-126825853D01*
X145775494Y-126615000D01*
X145224506Y-126615000D01*
X144715460Y-126825853D01*
X144325853Y-127215460D01*
X144115000Y-127724506D01*
X143885000Y-127724506D01*
X143674147Y-127215460D01*
X143284540Y-126825853D01*
X142775494Y-126615000D01*
X142224506Y-126615000D01*
X141715460Y-126825853D01*
X141325853Y-127215460D01*
X141115000Y-127724506D01*
X140885000Y-127724506D01*
X140674147Y-127215460D01*
X140284540Y-126825853D01*
X139775494Y-126615000D01*
X139224506Y-126615000D01*
X138715460Y-126825853D01*
X138325853Y-127215460D01*
X138115000Y-127724506D01*
X137885000Y-127724506D01*
X137674147Y-127215460D01*
X137284540Y-126825853D01*
X136775494Y-126615000D01*
X136224506Y-126615000D01*
X135715460Y-126825853D01*
X135325853Y-127215460D01*
X135115000Y-127724506D01*
X134885000Y-127724506D01*
X134674147Y-127215460D01*
X134284540Y-126825853D01*
X133775494Y-126615000D01*
X133224506Y-126615000D01*
X132715460Y-126825853D01*
X132325853Y-127215460D01*
X132115000Y-127724506D01*
X131885000Y-127724506D01*
X131674147Y-127215460D01*
X131284540Y-126825853D01*
X130775494Y-126615000D01*
X130224506Y-126615000D01*
X129715460Y-126825853D01*
X129325853Y-127215460D01*
X129115000Y-127724506D01*
X128885000Y-127724506D01*
X128674147Y-127215460D01*
X128284540Y-126825853D01*
X127775494Y-126615000D01*
X127224506Y-126615000D01*
X126715460Y-126825853D01*
X126325853Y-127215460D01*
X126115000Y-127724506D01*
X125885000Y-127724506D01*
X125674147Y-127215460D01*
X125284540Y-126825853D01*
X124775494Y-126615000D01*
X124224506Y-126615000D01*
X123715460Y-126825853D01*
X123325853Y-127215460D01*
X123115000Y-127724506D01*
X122885000Y-127724506D01*
X122674147Y-127215460D01*
X122284540Y-126825853D01*
X121775494Y-126615000D01*
X121224506Y-126615000D01*
X120715460Y-126825853D01*
X120325853Y-127215460D01*
X120115000Y-127724506D01*
X118210000Y-127724506D01*
X118210000Y-123966051D01*
X118320603Y-124076654D01*
X118787381Y-124270000D01*
X119292619Y-124270000D01*
X119759397Y-124076654D01*
X120116654Y-123719397D01*
X120310000Y-123252619D01*
X120310000Y-122747381D01*
X120116654Y-122280603D01*
X119859264Y-122023213D01*
X132839000Y-122023213D01*
X132839000Y-122832787D01*
X133148810Y-123580735D01*
X133721265Y-124153190D01*
X134469213Y-124463000D01*
X135278787Y-124463000D01*
X136026735Y-124153190D01*
X136599190Y-123580735D01*
X136909000Y-122832787D01*
X136909000Y-122023213D01*
X136599190Y-121275265D01*
X136026735Y-120702810D01*
X135278787Y-120393000D01*
X134469213Y-120393000D01*
X133721265Y-120702810D01*
X133148810Y-121275265D01*
X132839000Y-122023213D01*
X119859264Y-122023213D01*
X119759397Y-121923346D01*
X119292619Y-121730000D01*
X118787381Y-121730000D01*
X118320603Y-121923346D01*
X118210000Y-122033949D01*
X118210000Y-119704615D01*
X119515000Y-119704615D01*
X119515000Y-120295385D01*
X119741078Y-120841185D01*
X120158815Y-121258922D01*
X120704615Y-121485000D01*
X121295385Y-121485000D01*
X121841185Y-121258922D01*
X122258922Y-120841185D01*
X122485000Y-120295385D01*
X122485000Y-119704615D01*
X122258922Y-119158815D01*
X121841185Y-118741078D01*
X121295385Y-118515000D01*
X120704615Y-118515000D01*
X120158815Y-118741078D01*
X119741078Y-119158815D01*
X119515000Y-119704615D01*
X118210000Y-119704615D01*
X118210000Y-118043958D01*
X120135647Y-118043958D01*
X120215920Y-118295259D01*
X120771279Y-118496718D01*
X121361458Y-118470315D01*
X121784080Y-118295259D01*
X121816641Y-118193322D01*
X125865000Y-118193322D01*
X125865000Y-119042678D01*
X126190034Y-119827380D01*
X126790620Y-120427966D01*
X127575322Y-120753000D01*
X128424678Y-120753000D01*
X129209380Y-120427966D01*
X129809966Y-119827380D01*
X130135000Y-119042678D01*
X130135000Y-118193322D01*
X145865000Y-118193322D01*
X145865000Y-119042678D01*
X146190034Y-119827380D01*
X146790620Y-120427966D01*
X147575322Y-120753000D01*
X148424678Y-120753000D01*
X149209380Y-120427966D01*
X149809966Y-119827380D01*
X150135000Y-119042678D01*
X150135000Y-118193322D01*
X149809966Y-117408620D01*
X149209380Y-116808034D01*
X148424678Y-116483000D01*
X147575322Y-116483000D01*
X146790620Y-116808034D01*
X146190034Y-117408620D01*
X145865000Y-118193322D01*
X130135000Y-118193322D01*
X129809966Y-117408620D01*
X129209380Y-116808034D01*
X128424678Y-116483000D01*
X127575322Y-116483000D01*
X126790620Y-116808034D01*
X126190034Y-117408620D01*
X125865000Y-118193322D01*
X121816641Y-118193322D01*
X121864353Y-118043958D01*
X121000000Y-117179605D01*
X120135647Y-118043958D01*
X118210000Y-118043958D01*
X118210000Y-116771279D01*
X119503282Y-116771279D01*
X119529685Y-117361458D01*
X119704741Y-117784080D01*
X119956042Y-117864353D01*
X120820395Y-117000000D01*
X121179605Y-117000000D01*
X122043958Y-117864353D01*
X122295259Y-117784080D01*
X122496718Y-117228721D01*
X122470315Y-116638542D01*
X122295259Y-116215920D01*
X122043958Y-116135647D01*
X121179605Y-117000000D01*
X120820395Y-117000000D01*
X119956042Y-116135647D01*
X119704741Y-116215920D01*
X119503282Y-116771279D01*
X118210000Y-116771279D01*
X118210000Y-115956042D01*
X120135647Y-115956042D01*
X121000000Y-116820395D01*
X121824671Y-115995724D01*
X133611882Y-115995724D01*
X133759455Y-116304106D01*
X134514031Y-116597405D01*
X135323409Y-116579614D01*
X135988545Y-116304106D01*
X136136118Y-115995724D01*
X134874000Y-114733605D01*
X133611882Y-115995724D01*
X121824671Y-115995724D01*
X121864353Y-115956042D01*
X121784080Y-115704741D01*
X121228721Y-115503282D01*
X120638542Y-115529685D01*
X120215920Y-115704741D01*
X120135647Y-115956042D01*
X118210000Y-115956042D01*
X118210000Y-114966051D01*
X118320603Y-115076654D01*
X118787381Y-115270000D01*
X119292619Y-115270000D01*
X119759397Y-115076654D01*
X120116654Y-114719397D01*
X120310000Y-114252619D01*
X120310000Y-114194031D01*
X132830595Y-114194031D01*
X132848386Y-115003409D01*
X133123894Y-115668545D01*
X133432276Y-115816118D01*
X134694395Y-114554000D01*
X135053605Y-114554000D01*
X136315724Y-115816118D01*
X136624106Y-115668545D01*
X136917405Y-114913969D01*
X136899614Y-114104591D01*
X136624106Y-113439455D01*
X136315724Y-113291882D01*
X135053605Y-114554000D01*
X134694395Y-114554000D01*
X133432276Y-113291882D01*
X133123894Y-113439455D01*
X132830595Y-114194031D01*
X120310000Y-114194031D01*
X120310000Y-113747381D01*
X120116654Y-113280603D01*
X119948327Y-113112276D01*
X133611882Y-113112276D01*
X134874000Y-114374395D01*
X136136118Y-113112276D01*
X135988545Y-112803894D01*
X135233969Y-112510595D01*
X134424591Y-112528386D01*
X133759455Y-112803894D01*
X133611882Y-113112276D01*
X119948327Y-113112276D01*
X119759397Y-112923346D01*
X119292619Y-112730000D01*
X118787381Y-112730000D01*
X118320603Y-112923346D01*
X118210000Y-113033949D01*
X118210000Y-105395322D01*
X121515000Y-105395322D01*
X121515000Y-106244678D01*
X121840034Y-107029380D01*
X122440620Y-107629966D01*
X123225322Y-107955000D01*
X124074678Y-107955000D01*
X124859380Y-107629966D01*
X125459966Y-107029380D01*
X125785000Y-106244678D01*
X125785000Y-105395322D01*
X144215000Y-105395322D01*
X144215000Y-106244678D01*
X144540034Y-107029380D01*
X145140620Y-107629966D01*
X145925322Y-107955000D01*
X146774678Y-107955000D01*
X147559380Y-107629966D01*
X148159966Y-107029380D01*
X148485000Y-106244678D01*
X148485000Y-105395322D01*
X148159966Y-104610620D01*
X147559380Y-104010034D01*
X146774678Y-103685000D01*
X145925322Y-103685000D01*
X145140620Y-104010034D01*
X144540034Y-104610620D01*
X144215000Y-105395322D01*
X125785000Y-105395322D01*
X125459966Y-104610620D01*
X124859380Y-104010034D01*
X124074678Y-103685000D01*
X123225322Y-103685000D01*
X122440620Y-104010034D01*
X121840034Y-104610620D01*
X121515000Y-105395322D01*
X118210000Y-105395322D01*
X118210000Y-102471517D01*
X120708088Y-102471517D01*
X120776077Y-102712460D01*
X121295171Y-102897201D01*
X121845448Y-102869230D01*
X122223923Y-102712460D01*
X122291912Y-102471517D01*
X123708088Y-102471517D01*
X123776077Y-102712460D01*
X124295171Y-102897201D01*
X124845448Y-102869230D01*
X125223923Y-102712460D01*
X125291912Y-102471517D01*
X126708088Y-102471517D01*
X126776077Y-102712460D01*
X127295171Y-102897201D01*
X127845448Y-102869230D01*
X128223923Y-102712460D01*
X128291912Y-102471517D01*
X129708088Y-102471517D01*
X129776077Y-102712460D01*
X130295171Y-102897201D01*
X130845448Y-102869230D01*
X131223923Y-102712460D01*
X131291912Y-102471517D01*
X132708088Y-102471517D01*
X132776077Y-102712460D01*
X133295171Y-102897201D01*
X133845448Y-102869230D01*
X134223923Y-102712460D01*
X134291912Y-102471517D01*
X135708088Y-102471517D01*
X135776077Y-102712460D01*
X136295171Y-102897201D01*
X136845448Y-102869230D01*
X137223923Y-102712460D01*
X137291912Y-102471517D01*
X138708088Y-102471517D01*
X138776077Y-102712460D01*
X139295171Y-102897201D01*
X139845448Y-102869230D01*
X140223923Y-102712460D01*
X140291912Y-102471517D01*
X141708088Y-102471517D01*
X141776077Y-102712460D01*
X142295171Y-102897201D01*
X142845448Y-102869230D01*
X143223923Y-102712460D01*
X143291912Y-102471517D01*
X144708088Y-102471517D01*
X144776077Y-102712460D01*
X145295171Y-102897201D01*
X145845448Y-102869230D01*
X146223923Y-102712460D01*
X146289458Y-102480213D01*
X147699392Y-102480213D01*
X147768857Y-102722397D01*
X148292302Y-102909144D01*
X148847368Y-102881362D01*
X149231143Y-102722397D01*
X149300608Y-102480213D01*
X148500000Y-101679605D01*
X147699392Y-102480213D01*
X146289458Y-102480213D01*
X146291912Y-102471517D01*
X145500000Y-101679605D01*
X144708088Y-102471517D01*
X143291912Y-102471517D01*
X142500000Y-101679605D01*
X141708088Y-102471517D01*
X140291912Y-102471517D01*
X139500000Y-101679605D01*
X138708088Y-102471517D01*
X137291912Y-102471517D01*
X136500000Y-101679605D01*
X135708088Y-102471517D01*
X134291912Y-102471517D01*
X133500000Y-101679605D01*
X132708088Y-102471517D01*
X131291912Y-102471517D01*
X130500000Y-101679605D01*
X129708088Y-102471517D01*
X128291912Y-102471517D01*
X127500000Y-101679605D01*
X126708088Y-102471517D01*
X125291912Y-102471517D01*
X124500000Y-101679605D01*
X123708088Y-102471517D01*
X122291912Y-102471517D01*
X121500000Y-101679605D01*
X120708088Y-102471517D01*
X118210000Y-102471517D01*
X118210000Y-101295171D01*
X120102799Y-101295171D01*
X120130770Y-101845448D01*
X120287540Y-102223923D01*
X120528483Y-102291912D01*
X121320395Y-101500000D01*
X121679605Y-101500000D01*
X122471517Y-102291912D01*
X122712460Y-102223923D01*
X122897201Y-101704829D01*
X122876378Y-101295171D01*
X123102799Y-101295171D01*
X123130770Y-101845448D01*
X123287540Y-102223923D01*
X123528483Y-102291912D01*
X124320395Y-101500000D01*
X124679605Y-101500000D01*
X125471517Y-102291912D01*
X125712460Y-102223923D01*
X125897201Y-101704829D01*
X125876378Y-101295171D01*
X126102799Y-101295171D01*
X126130770Y-101845448D01*
X126287540Y-102223923D01*
X126528483Y-102291912D01*
X127320395Y-101500000D01*
X127679605Y-101500000D01*
X128471517Y-102291912D01*
X128712460Y-102223923D01*
X128897201Y-101704829D01*
X128876378Y-101295171D01*
X129102799Y-101295171D01*
X129130770Y-101845448D01*
X129287540Y-102223923D01*
X129528483Y-102291912D01*
X130320395Y-101500000D01*
X130679605Y-101500000D01*
X131471517Y-102291912D01*
X131712460Y-102223923D01*
X131897201Y-101704829D01*
X131876378Y-101295171D01*
X132102799Y-101295171D01*
X132130770Y-101845448D01*
X132287540Y-102223923D01*
X132528483Y-102291912D01*
X133320395Y-101500000D01*
X133679605Y-101500000D01*
X134471517Y-102291912D01*
X134712460Y-102223923D01*
X134897201Y-101704829D01*
X134876378Y-101295171D01*
X135102799Y-101295171D01*
X135130770Y-101845448D01*
X135287540Y-102223923D01*
X135528483Y-102291912D01*
X136320395Y-101500000D01*
X136679605Y-101500000D01*
X137471517Y-102291912D01*
X137712460Y-102223923D01*
X137897201Y-101704829D01*
X137876378Y-101295171D01*
X138102799Y-101295171D01*
X138130770Y-101845448D01*
X138287540Y-102223923D01*
X138528483Y-102291912D01*
X139320395Y-101500000D01*
X139679605Y-101500000D01*
X140471517Y-102291912D01*
X140712460Y-102223923D01*
X140897201Y-101704829D01*
X140876378Y-101295171D01*
X141102799Y-101295171D01*
X141130770Y-101845448D01*
X141287540Y-102223923D01*
X141528483Y-102291912D01*
X142320395Y-101500000D01*
X142679605Y-101500000D01*
X143471517Y-102291912D01*
X143712460Y-102223923D01*
X143897201Y-101704829D01*
X143876378Y-101295171D01*
X144102799Y-101295171D01*
X144130770Y-101845448D01*
X144287540Y-102223923D01*
X144528483Y-102291912D01*
X145320395Y-101500000D01*
X145679605Y-101500000D01*
X146471517Y-102291912D01*
X146712460Y-102223923D01*
X146897201Y-101704829D01*
X146876232Y-101292302D01*
X147090856Y-101292302D01*
X147118638Y-101847368D01*
X147277603Y-102231143D01*
X147519787Y-102300608D01*
X148320395Y-101500000D01*
X148679605Y-101500000D01*
X149480213Y-102300608D01*
X149722397Y-102231143D01*
X149909144Y-101707698D01*
X149881362Y-101152632D01*
X149722397Y-100768857D01*
X149480213Y-100699392D01*
X148679605Y-101500000D01*
X148320395Y-101500000D01*
X147519787Y-100699392D01*
X147277603Y-100768857D01*
X147090856Y-101292302D01*
X146876232Y-101292302D01*
X146869230Y-101154552D01*
X146712460Y-100776077D01*
X146471517Y-100708088D01*
X145679605Y-101500000D01*
X145320395Y-101500000D01*
X144528483Y-100708088D01*
X144287540Y-100776077D01*
X144102799Y-101295171D01*
X143876378Y-101295171D01*
X143869230Y-101154552D01*
X143712460Y-100776077D01*
X143471517Y-100708088D01*
X142679605Y-101500000D01*
X142320395Y-101500000D01*
X141528483Y-100708088D01*
X141287540Y-100776077D01*
X141102799Y-101295171D01*
X140876378Y-101295171D01*
X140869230Y-101154552D01*
X140712460Y-100776077D01*
X140471517Y-100708088D01*
X139679605Y-101500000D01*
X139320395Y-101500000D01*
X138528483Y-100708088D01*
X138287540Y-100776077D01*
X138102799Y-101295171D01*
X137876378Y-101295171D01*
X137869230Y-101154552D01*
X137712460Y-100776077D01*
X137471517Y-100708088D01*
X136679605Y-101500000D01*
X136320395Y-101500000D01*
X135528483Y-100708088D01*
X135287540Y-100776077D01*
X135102799Y-101295171D01*
X134876378Y-101295171D01*
X134869230Y-101154552D01*
X134712460Y-100776077D01*
X134471517Y-100708088D01*
X133679605Y-101500000D01*
X133320395Y-101500000D01*
X132528483Y-100708088D01*
X132287540Y-100776077D01*
X132102799Y-101295171D01*
X131876378Y-101295171D01*
X131869230Y-101154552D01*
X131712460Y-100776077D01*
X131471517Y-100708088D01*
X130679605Y-101500000D01*
X130320395Y-101500000D01*
X129528483Y-100708088D01*
X129287540Y-100776077D01*
X129102799Y-101295171D01*
X128876378Y-101295171D01*
X128869230Y-101154552D01*
X128712460Y-100776077D01*
X128471517Y-100708088D01*
X127679605Y-101500000D01*
X127320395Y-101500000D01*
X126528483Y-100708088D01*
X126287540Y-100776077D01*
X126102799Y-101295171D01*
X125876378Y-101295171D01*
X125869230Y-101154552D01*
X125712460Y-100776077D01*
X125471517Y-100708088D01*
X124679605Y-101500000D01*
X124320395Y-101500000D01*
X123528483Y-100708088D01*
X123287540Y-100776077D01*
X123102799Y-101295171D01*
X122876378Y-101295171D01*
X122869230Y-101154552D01*
X122712460Y-100776077D01*
X122471517Y-100708088D01*
X121679605Y-101500000D01*
X121320395Y-101500000D01*
X120528483Y-100708088D01*
X120287540Y-100776077D01*
X120102799Y-101295171D01*
X118210000Y-101295171D01*
X118210000Y-100528483D01*
X120708088Y-100528483D01*
X121500000Y-101320395D01*
X122291912Y-100528483D01*
X123708088Y-100528483D01*
X124500000Y-101320395D01*
X125291912Y-100528483D01*
X126708088Y-100528483D01*
X127500000Y-101320395D01*
X128291912Y-100528483D01*
X129708088Y-100528483D01*
X130500000Y-101320395D01*
X131291912Y-100528483D01*
X132708088Y-100528483D01*
X133500000Y-101320395D01*
X134291912Y-100528483D01*
X135708088Y-100528483D01*
X136500000Y-101320395D01*
X137291912Y-100528483D01*
X138708088Y-100528483D01*
X139500000Y-101320395D01*
X140291912Y-100528483D01*
X141708088Y-100528483D01*
X142500000Y-101320395D01*
X143291912Y-100528483D01*
X144708088Y-100528483D01*
X145500000Y-101320395D01*
X146291912Y-100528483D01*
X146289459Y-100519787D01*
X147699392Y-100519787D01*
X148500000Y-101320395D01*
X149300608Y-100519787D01*
X149231143Y-100277603D01*
X148707698Y-100090856D01*
X148152632Y-100118638D01*
X147768857Y-100277603D01*
X147699392Y-100519787D01*
X146289459Y-100519787D01*
X146223923Y-100287540D01*
X145704829Y-100102799D01*
X145154552Y-100130770D01*
X144776077Y-100287540D01*
X144708088Y-100528483D01*
X143291912Y-100528483D01*
X143223923Y-100287540D01*
X142704829Y-100102799D01*
X142154552Y-100130770D01*
X141776077Y-100287540D01*
X141708088Y-100528483D01*
X140291912Y-100528483D01*
X140223923Y-100287540D01*
X139704829Y-100102799D01*
X139154552Y-100130770D01*
X138776077Y-100287540D01*
X138708088Y-100528483D01*
X137291912Y-100528483D01*
X137223923Y-100287540D01*
X136704829Y-100102799D01*
X136154552Y-100130770D01*
X135776077Y-100287540D01*
X135708088Y-100528483D01*
X134291912Y-100528483D01*
X134223923Y-100287540D01*
X133704829Y-100102799D01*
X133154552Y-100130770D01*
X132776077Y-100287540D01*
X132708088Y-100528483D01*
X131291912Y-100528483D01*
X131223923Y-100287540D01*
X130704829Y-100102799D01*
X130154552Y-100130770D01*
X129776077Y-100287540D01*
X129708088Y-100528483D01*
X128291912Y-100528483D01*
X128223923Y-100287540D01*
X127704829Y-100102799D01*
X127154552Y-100130770D01*
X126776077Y-100287540D01*
X126708088Y-100528483D01*
X125291912Y-100528483D01*
X125223923Y-100287540D01*
X124704829Y-100102799D01*
X124154552Y-100130770D01*
X123776077Y-100287540D01*
X123708088Y-100528483D01*
X122291912Y-100528483D01*
X122223923Y-100287540D01*
X121704829Y-100102799D01*
X121154552Y-100130770D01*
X120776077Y-100287540D01*
X120708088Y-100528483D01*
X118210000Y-100528483D01*
X118210000Y-99471517D01*
X120708088Y-99471517D01*
X120776077Y-99712460D01*
X121295171Y-99897201D01*
X121845448Y-99869230D01*
X122223923Y-99712460D01*
X122291912Y-99471517D01*
X123708088Y-99471517D01*
X123776077Y-99712460D01*
X124295171Y-99897201D01*
X124845448Y-99869230D01*
X125223923Y-99712460D01*
X125291912Y-99471517D01*
X126708088Y-99471517D01*
X126776077Y-99712460D01*
X127295171Y-99897201D01*
X127845448Y-99869230D01*
X128223923Y-99712460D01*
X128291912Y-99471517D01*
X129708088Y-99471517D01*
X129776077Y-99712460D01*
X130295171Y-99897201D01*
X130845448Y-99869230D01*
X131223923Y-99712460D01*
X131291912Y-99471517D01*
X132708088Y-99471517D01*
X132776077Y-99712460D01*
X133295171Y-99897201D01*
X133845448Y-99869230D01*
X134223923Y-99712460D01*
X134291912Y-99471517D01*
X135708088Y-99471517D01*
X135776077Y-99712460D01*
X136295171Y-99897201D01*
X136845448Y-99869230D01*
X137223923Y-99712460D01*
X137291912Y-99471517D01*
X138708088Y-99471517D01*
X138776077Y-99712460D01*
X139295171Y-99897201D01*
X139845448Y-99869230D01*
X140223923Y-99712460D01*
X140291912Y-99471517D01*
X141708088Y-99471517D01*
X141776077Y-99712460D01*
X142295171Y-99897201D01*
X142845448Y-99869230D01*
X143223923Y-99712460D01*
X143291912Y-99471517D01*
X144708088Y-99471517D01*
X144776077Y-99712460D01*
X145295171Y-99897201D01*
X145845448Y-99869230D01*
X146223923Y-99712460D01*
X146291912Y-99471517D01*
X147708088Y-99471517D01*
X147776077Y-99712460D01*
X148295171Y-99897201D01*
X148845448Y-99869230D01*
X149223923Y-99712460D01*
X149291912Y-99471517D01*
X148500000Y-98679605D01*
X147708088Y-99471517D01*
X146291912Y-99471517D01*
X145500000Y-98679605D01*
X144708088Y-99471517D01*
X143291912Y-99471517D01*
X142500000Y-98679605D01*
X141708088Y-99471517D01*
X140291912Y-99471517D01*
X139500000Y-98679605D01*
X138708088Y-99471517D01*
X137291912Y-99471517D01*
X136500000Y-98679605D01*
X135708088Y-99471517D01*
X134291912Y-99471517D01*
X133500000Y-98679605D01*
X132708088Y-99471517D01*
X131291912Y-99471517D01*
X130500000Y-98679605D01*
X129708088Y-99471517D01*
X128291912Y-99471517D01*
X127500000Y-98679605D01*
X126708088Y-99471517D01*
X125291912Y-99471517D01*
X124500000Y-98679605D01*
X123708088Y-99471517D01*
X122291912Y-99471517D01*
X121500000Y-98679605D01*
X120708088Y-99471517D01*
X118210000Y-99471517D01*
X118210000Y-98295171D01*
X120102799Y-98295171D01*
X120130770Y-98845448D01*
X120287540Y-99223923D01*
X120528483Y-99291912D01*
X121320395Y-98500000D01*
X121679605Y-98500000D01*
X122471517Y-99291912D01*
X122712460Y-99223923D01*
X122897201Y-98704829D01*
X122876378Y-98295171D01*
X123102799Y-98295171D01*
X123130770Y-98845448D01*
X123287540Y-99223923D01*
X123528483Y-99291912D01*
X124320395Y-98500000D01*
X124679605Y-98500000D01*
X125471517Y-99291912D01*
X125712460Y-99223923D01*
X125897201Y-98704829D01*
X125876378Y-98295171D01*
X126102799Y-98295171D01*
X126130770Y-98845448D01*
X126287540Y-99223923D01*
X126528483Y-99291912D01*
X127320395Y-98500000D01*
X127679605Y-98500000D01*
X128471517Y-99291912D01*
X128712460Y-99223923D01*
X128897201Y-98704829D01*
X128876378Y-98295171D01*
X129102799Y-98295171D01*
X129130770Y-98845448D01*
X129287540Y-99223923D01*
X129528483Y-99291912D01*
X130320395Y-98500000D01*
X130679605Y-98500000D01*
X131471517Y-99291912D01*
X131712460Y-99223923D01*
X131897201Y-98704829D01*
X131876378Y-98295171D01*
X132102799Y-98295171D01*
X132130770Y-98845448D01*
X132287540Y-99223923D01*
X132528483Y-99291912D01*
X133320395Y-98500000D01*
X133679605Y-98500000D01*
X134471517Y-99291912D01*
X134712460Y-99223923D01*
X134897201Y-98704829D01*
X134876378Y-98295171D01*
X135102799Y-98295171D01*
X135130770Y-98845448D01*
X135287540Y-99223923D01*
X135528483Y-99291912D01*
X136320395Y-98500000D01*
X136679605Y-98500000D01*
X137471517Y-99291912D01*
X137712460Y-99223923D01*
X137897201Y-98704829D01*
X137876378Y-98295171D01*
X138102799Y-98295171D01*
X138130770Y-98845448D01*
X138287540Y-99223923D01*
X138528483Y-99291912D01*
X139320395Y-98500000D01*
X139679605Y-98500000D01*
X140471517Y-99291912D01*
X140712460Y-99223923D01*
X140897201Y-98704829D01*
X140876378Y-98295171D01*
X141102799Y-98295171D01*
X141130770Y-98845448D01*
X141287540Y-99223923D01*
X141528483Y-99291912D01*
X142320395Y-98500000D01*
X142679605Y-98500000D01*
X143471517Y-99291912D01*
X143712460Y-99223923D01*
X143897201Y-98704829D01*
X143876378Y-98295171D01*
X144102799Y-98295171D01*
X144130770Y-98845448D01*
X144287540Y-99223923D01*
X144528483Y-99291912D01*
X145320395Y-98500000D01*
X145679605Y-98500000D01*
X146471517Y-99291912D01*
X146712460Y-99223923D01*
X146897201Y-98704829D01*
X146876378Y-98295171D01*
X147102799Y-98295171D01*
X147130770Y-98845448D01*
X147287540Y-99223923D01*
X147528483Y-99291912D01*
X148320395Y-98500000D01*
X148679605Y-98500000D01*
X149471517Y-99291912D01*
X149712460Y-99223923D01*
X149897201Y-98704829D01*
X149869230Y-98154552D01*
X149712460Y-97776077D01*
X149471517Y-97708088D01*
X148679605Y-98500000D01*
X148320395Y-98500000D01*
X147528483Y-97708088D01*
X147287540Y-97776077D01*
X147102799Y-98295171D01*
X146876378Y-98295171D01*
X146869230Y-98154552D01*
X146712460Y-97776077D01*
X146471517Y-97708088D01*
X145679605Y-98500000D01*
X145320395Y-98500000D01*
X144528483Y-97708088D01*
X144287540Y-97776077D01*
X144102799Y-98295171D01*
X143876378Y-98295171D01*
X143869230Y-98154552D01*
X143712460Y-97776077D01*
X143471517Y-97708088D01*
X142679605Y-98500000D01*
X142320395Y-98500000D01*
X141528483Y-97708088D01*
X141287540Y-97776077D01*
X141102799Y-98295171D01*
X140876378Y-98295171D01*
X140869230Y-98154552D01*
X140712460Y-97776077D01*
X140471517Y-97708088D01*
X139679605Y-98500000D01*
X139320395Y-98500000D01*
X138528483Y-97708088D01*
X138287540Y-97776077D01*
X138102799Y-98295171D01*
X137876378Y-98295171D01*
X137869230Y-98154552D01*
X137712460Y-97776077D01*
X137471517Y-97708088D01*
X136679605Y-98500000D01*
X136320395Y-98500000D01*
X135528483Y-97708088D01*
X135287540Y-97776077D01*
X135102799Y-98295171D01*
X134876378Y-98295171D01*
X134869230Y-98154552D01*
X134712460Y-97776077D01*
X134471517Y-97708088D01*
X133679605Y-98500000D01*
X133320395Y-98500000D01*
X132528483Y-97708088D01*
X132287540Y-97776077D01*
X132102799Y-98295171D01*
X131876378Y-98295171D01*
X131869230Y-98154552D01*
X131712460Y-97776077D01*
X131471517Y-97708088D01*
X130679605Y-98500000D01*
X130320395Y-98500000D01*
X129528483Y-97708088D01*
X129287540Y-97776077D01*
X129102799Y-98295171D01*
X128876378Y-98295171D01*
X128869230Y-98154552D01*
X128712460Y-97776077D01*
X128471517Y-97708088D01*
X127679605Y-98500000D01*
X127320395Y-98500000D01*
X126528483Y-97708088D01*
X126287540Y-97776077D01*
X126102799Y-98295171D01*
X125876378Y-98295171D01*
X125869230Y-98154552D01*
X125712460Y-97776077D01*
X125471517Y-97708088D01*
X124679605Y-98500000D01*
X124320395Y-98500000D01*
X123528483Y-97708088D01*
X123287540Y-97776077D01*
X123102799Y-98295171D01*
X122876378Y-98295171D01*
X122869230Y-98154552D01*
X122712460Y-97776077D01*
X122471517Y-97708088D01*
X121679605Y-98500000D01*
X121320395Y-98500000D01*
X120528483Y-97708088D01*
X120287540Y-97776077D01*
X120102799Y-98295171D01*
X118210000Y-98295171D01*
X118210000Y-97210000D01*
X120963274Y-97210000D01*
X120776077Y-97287540D01*
G04 #@! TD*
M02*
