M48
; DRILL file {KiCad (5.1.4)-1} date 9/21/2019 2:45:57 PM
; FORMAT={-:-/ absolute / inch / decimal}
; #@! TF.CreationDate,2019-09-21T14:45:57-05:00
; #@! TF.GenerationSoftware,Kicad,Pcbnew,(5.1.4)-1
FMAT,2
INCH
T1C0.0300
T2C0.0402
T3C0.0630
T4C0.1181
T5C0.0500
T6C0.1181
%
G90
G05
T1
X5.8465Y-5.1575
X5.8465Y-3.9961
T2
X4.7835Y-5.0394
X4.7835Y-5.1575
X4.9016Y-5.0394
X4.9016Y-5.1575
X5.0197Y-5.0394
X5.0197Y-5.1575
X5.1378Y-5.0394
X5.1378Y-5.1575
X5.2559Y-5.0394
X5.2559Y-5.1575
X5.374Y-5.0394
X5.374Y-5.1575
X5.4921Y-5.0394
X5.4921Y-5.1575
X5.6102Y-5.0394
X5.6102Y-5.1575
X5.7283Y-5.0394
X5.7283Y-5.1575
X5.8465Y-5.0394
X4.7638Y-4.6063
X4.7638Y-4.7244
X4.7835Y-3.878
X4.7835Y-3.9961
X4.9016Y-3.878
X4.9016Y-3.9961
X5.0197Y-3.878
X5.0197Y-3.9961
X5.1378Y-3.878
X5.1378Y-3.9961
X5.2559Y-3.878
X5.2559Y-3.9961
X5.374Y-3.878
X5.374Y-3.9961
X5.4921Y-3.878
X5.4921Y-3.9961
X5.6102Y-3.878
X5.6102Y-3.9961
X5.7283Y-3.878
X5.7283Y-3.9961
X5.8465Y-3.878
T3
X5.31Y-4.51
X5.31Y-4.82
T4
X4.8681Y-5.3276
X5.7618Y-5.3276
X4.8681Y-4.1661
X5.7618Y-4.1661
T5
X4.6866Y-4.4882
X4.6866Y-4.8425
T6
X5.8268Y-4.67
X5.0394Y-4.67
T0
M30
