G04 #@! TF.GenerationSoftware,KiCad,Pcbnew,(5.1.4)-1*
G04 #@! TF.CreationDate,2019-09-21T14:45:54-05:00*
G04 #@! TF.ProjectId,TemperaturePower,54656d70-6572-4617-9475-7265506f7765,rev?*
G04 #@! TF.SameCoordinates,Original*
G04 #@! TF.FileFunction,Copper,L2,Bot*
G04 #@! TF.FilePolarity,Positive*
%FSLAX46Y46*%
G04 Gerber Fmt 4.6, Leading zero omitted, Abs format (unit mm)*
G04 Created by KiCad (PCBNEW (5.1.4)-1) date 2019-09-21 14:45:54*
%MOMM*%
%LPD*%
G04 APERTURE LIST*
%ADD10C,1.524000*%
%ADD11C,1.500000*%
%ADD12C,3.000000*%
%ADD13C,1.700000*%
%ADD14C,2.800000*%
%ADD15C,0.254000*%
G04 APERTURE END LIST*
D10*
X148500000Y-101500000D03*
D11*
X145500000Y-101500000D03*
X142500000Y-101500000D03*
X139500000Y-101500000D03*
X136500000Y-101500000D03*
X133500000Y-101500000D03*
X130500000Y-101500000D03*
X127500000Y-101500000D03*
X124500000Y-101500000D03*
X121500000Y-101500000D03*
X148500000Y-98500000D03*
X145500000Y-98500000D03*
X142500000Y-98500000D03*
X139500000Y-98500000D03*
X136500000Y-98500000D03*
X133500000Y-98500000D03*
X130500000Y-98500000D03*
X127500000Y-98500000D03*
X124500000Y-98500000D03*
X121500000Y-98500000D03*
D12*
X146350000Y-105820000D03*
X123650000Y-105820000D03*
D13*
X121000000Y-120000000D03*
X121000000Y-117000000D03*
D12*
X123650000Y-135320000D03*
X146350000Y-135320000D03*
D11*
X121500000Y-128000000D03*
X124500000Y-128000000D03*
X127500000Y-128000000D03*
X130500000Y-128000000D03*
X133500000Y-128000000D03*
X136500000Y-128000000D03*
X139500000Y-128000000D03*
X142500000Y-128000000D03*
X145500000Y-128000000D03*
X148500000Y-128000000D03*
X121500000Y-131000000D03*
X124500000Y-131000000D03*
X127500000Y-131000000D03*
X130500000Y-131000000D03*
X133500000Y-131000000D03*
X136500000Y-131000000D03*
X139500000Y-131000000D03*
X142500000Y-131000000D03*
X145500000Y-131000000D03*
D10*
X148500000Y-131000000D03*
D14*
X134874000Y-114554000D03*
X134874000Y-122428000D03*
D15*
G36*
X120843957Y-97272629D02*
G01*
X120617114Y-97424201D01*
X120424201Y-97617114D01*
X120272629Y-97843957D01*
X120168225Y-98096011D01*
X120115000Y-98363589D01*
X120115000Y-98636411D01*
X120168225Y-98903989D01*
X120272629Y-99156043D01*
X120424201Y-99382886D01*
X120617114Y-99575799D01*
X120843957Y-99727371D01*
X121096011Y-99831775D01*
X121363589Y-99885000D01*
X121636411Y-99885000D01*
X121903989Y-99831775D01*
X122156043Y-99727371D01*
X122382886Y-99575799D01*
X122575799Y-99382886D01*
X122727371Y-99156043D01*
X122831775Y-98903989D01*
X122885000Y-98636411D01*
X122885000Y-98363589D01*
X122831775Y-98096011D01*
X122727371Y-97843957D01*
X122575799Y-97617114D01*
X122382886Y-97424201D01*
X122156043Y-97272629D01*
X122004843Y-97210000D01*
X123995157Y-97210000D01*
X123843957Y-97272629D01*
X123617114Y-97424201D01*
X123424201Y-97617114D01*
X123272629Y-97843957D01*
X123168225Y-98096011D01*
X123115000Y-98363589D01*
X123115000Y-98636411D01*
X123168225Y-98903989D01*
X123272629Y-99156043D01*
X123424201Y-99382886D01*
X123617114Y-99575799D01*
X123843957Y-99727371D01*
X124096011Y-99831775D01*
X124363589Y-99885000D01*
X124636411Y-99885000D01*
X124903989Y-99831775D01*
X125156043Y-99727371D01*
X125382886Y-99575799D01*
X125575799Y-99382886D01*
X125727371Y-99156043D01*
X125831775Y-98903989D01*
X125885000Y-98636411D01*
X125885000Y-98363589D01*
X125831775Y-98096011D01*
X125727371Y-97843957D01*
X125575799Y-97617114D01*
X125382886Y-97424201D01*
X125156043Y-97272629D01*
X125004843Y-97210000D01*
X126995157Y-97210000D01*
X126843957Y-97272629D01*
X126617114Y-97424201D01*
X126424201Y-97617114D01*
X126272629Y-97843957D01*
X126168225Y-98096011D01*
X126115000Y-98363589D01*
X126115000Y-98636411D01*
X126168225Y-98903989D01*
X126272629Y-99156043D01*
X126424201Y-99382886D01*
X126617114Y-99575799D01*
X126843957Y-99727371D01*
X127096011Y-99831775D01*
X127363589Y-99885000D01*
X127636411Y-99885000D01*
X127903989Y-99831775D01*
X128156043Y-99727371D01*
X128382886Y-99575799D01*
X128575799Y-99382886D01*
X128727371Y-99156043D01*
X128831775Y-98903989D01*
X128885000Y-98636411D01*
X128885000Y-98363589D01*
X128831775Y-98096011D01*
X128727371Y-97843957D01*
X128575799Y-97617114D01*
X128382886Y-97424201D01*
X128156043Y-97272629D01*
X128004843Y-97210000D01*
X129995157Y-97210000D01*
X129843957Y-97272629D01*
X129617114Y-97424201D01*
X129424201Y-97617114D01*
X129272629Y-97843957D01*
X129168225Y-98096011D01*
X129115000Y-98363589D01*
X129115000Y-98636411D01*
X129168225Y-98903989D01*
X129272629Y-99156043D01*
X129424201Y-99382886D01*
X129617114Y-99575799D01*
X129843957Y-99727371D01*
X130096011Y-99831775D01*
X130363589Y-99885000D01*
X130636411Y-99885000D01*
X130903989Y-99831775D01*
X131156043Y-99727371D01*
X131382886Y-99575799D01*
X131575799Y-99382886D01*
X131727371Y-99156043D01*
X131831775Y-98903989D01*
X131885000Y-98636411D01*
X131885000Y-98363589D01*
X131831775Y-98096011D01*
X131727371Y-97843957D01*
X131575799Y-97617114D01*
X131382886Y-97424201D01*
X131156043Y-97272629D01*
X131004843Y-97210000D01*
X132995157Y-97210000D01*
X132843957Y-97272629D01*
X132617114Y-97424201D01*
X132424201Y-97617114D01*
X132272629Y-97843957D01*
X132168225Y-98096011D01*
X132115000Y-98363589D01*
X132115000Y-98636411D01*
X132168225Y-98903989D01*
X132272629Y-99156043D01*
X132424201Y-99382886D01*
X132617114Y-99575799D01*
X132843957Y-99727371D01*
X133096011Y-99831775D01*
X133363589Y-99885000D01*
X133636411Y-99885000D01*
X133903989Y-99831775D01*
X134156043Y-99727371D01*
X134382886Y-99575799D01*
X134575799Y-99382886D01*
X134727371Y-99156043D01*
X134831775Y-98903989D01*
X134885000Y-98636411D01*
X134885000Y-98363589D01*
X134831775Y-98096011D01*
X134727371Y-97843957D01*
X134575799Y-97617114D01*
X134382886Y-97424201D01*
X134156043Y-97272629D01*
X134004843Y-97210000D01*
X135995157Y-97210000D01*
X135843957Y-97272629D01*
X135617114Y-97424201D01*
X135424201Y-97617114D01*
X135272629Y-97843957D01*
X135168225Y-98096011D01*
X135115000Y-98363589D01*
X135115000Y-98636411D01*
X135168225Y-98903989D01*
X135272629Y-99156043D01*
X135424201Y-99382886D01*
X135617114Y-99575799D01*
X135843957Y-99727371D01*
X136096011Y-99831775D01*
X136363589Y-99885000D01*
X136636411Y-99885000D01*
X136903989Y-99831775D01*
X137156043Y-99727371D01*
X137382886Y-99575799D01*
X137575799Y-99382886D01*
X137727371Y-99156043D01*
X137831775Y-98903989D01*
X137885000Y-98636411D01*
X137885000Y-98363589D01*
X137831775Y-98096011D01*
X137727371Y-97843957D01*
X137575799Y-97617114D01*
X137382886Y-97424201D01*
X137156043Y-97272629D01*
X137004843Y-97210000D01*
X138995157Y-97210000D01*
X138843957Y-97272629D01*
X138617114Y-97424201D01*
X138424201Y-97617114D01*
X138272629Y-97843957D01*
X138168225Y-98096011D01*
X138115000Y-98363589D01*
X138115000Y-98636411D01*
X138168225Y-98903989D01*
X138272629Y-99156043D01*
X138424201Y-99382886D01*
X138617114Y-99575799D01*
X138843957Y-99727371D01*
X139096011Y-99831775D01*
X139363589Y-99885000D01*
X139636411Y-99885000D01*
X139903989Y-99831775D01*
X140156043Y-99727371D01*
X140382886Y-99575799D01*
X140575799Y-99382886D01*
X140727371Y-99156043D01*
X140831775Y-98903989D01*
X140885000Y-98636411D01*
X140885000Y-98363589D01*
X140831775Y-98096011D01*
X140727371Y-97843957D01*
X140575799Y-97617114D01*
X140382886Y-97424201D01*
X140156043Y-97272629D01*
X140004843Y-97210000D01*
X141995157Y-97210000D01*
X141843957Y-97272629D01*
X141617114Y-97424201D01*
X141424201Y-97617114D01*
X141272629Y-97843957D01*
X141168225Y-98096011D01*
X141115000Y-98363589D01*
X141115000Y-98636411D01*
X141168225Y-98903989D01*
X141272629Y-99156043D01*
X141424201Y-99382886D01*
X141617114Y-99575799D01*
X141843957Y-99727371D01*
X142096011Y-99831775D01*
X142363589Y-99885000D01*
X142636411Y-99885000D01*
X142903989Y-99831775D01*
X143156043Y-99727371D01*
X143382886Y-99575799D01*
X143575799Y-99382886D01*
X143727371Y-99156043D01*
X143831775Y-98903989D01*
X143885000Y-98636411D01*
X143885000Y-98363589D01*
X143831775Y-98096011D01*
X143727371Y-97843957D01*
X143575799Y-97617114D01*
X143382886Y-97424201D01*
X143156043Y-97272629D01*
X143004843Y-97210000D01*
X144995157Y-97210000D01*
X144843957Y-97272629D01*
X144617114Y-97424201D01*
X144424201Y-97617114D01*
X144272629Y-97843957D01*
X144168225Y-98096011D01*
X144115000Y-98363589D01*
X144115000Y-98636411D01*
X144168225Y-98903989D01*
X144272629Y-99156043D01*
X144424201Y-99382886D01*
X144617114Y-99575799D01*
X144843957Y-99727371D01*
X145096011Y-99831775D01*
X145363589Y-99885000D01*
X145636411Y-99885000D01*
X145903989Y-99831775D01*
X146156043Y-99727371D01*
X146382886Y-99575799D01*
X146575799Y-99382886D01*
X146727371Y-99156043D01*
X146831775Y-98903989D01*
X146885000Y-98636411D01*
X146885000Y-98363589D01*
X146831775Y-98096011D01*
X146727371Y-97843957D01*
X146575799Y-97617114D01*
X146382886Y-97424201D01*
X146156043Y-97272629D01*
X146004843Y-97210000D01*
X147995157Y-97210000D01*
X147843957Y-97272629D01*
X147617114Y-97424201D01*
X147424201Y-97617114D01*
X147272629Y-97843957D01*
X147168225Y-98096011D01*
X147115000Y-98363589D01*
X147115000Y-98636411D01*
X147168225Y-98903989D01*
X147272629Y-99156043D01*
X147424201Y-99382886D01*
X147617114Y-99575799D01*
X147843957Y-99727371D01*
X148096011Y-99831775D01*
X148363589Y-99885000D01*
X148636411Y-99885000D01*
X148903989Y-99831775D01*
X149156043Y-99727371D01*
X149382886Y-99575799D01*
X149575799Y-99382886D01*
X149727371Y-99156043D01*
X149831775Y-98903989D01*
X149885000Y-98636411D01*
X149885000Y-98363589D01*
X149831775Y-98096011D01*
X149727371Y-97843957D01*
X149575799Y-97617114D01*
X149382886Y-97424201D01*
X149156043Y-97272629D01*
X149004843Y-97210000D01*
X151790000Y-97210000D01*
X151790001Y-139790000D01*
X118210000Y-139790000D01*
X118210000Y-135109721D01*
X121515000Y-135109721D01*
X121515000Y-135530279D01*
X121597047Y-135942756D01*
X121757988Y-136331302D01*
X121991637Y-136680983D01*
X122289017Y-136978363D01*
X122638698Y-137212012D01*
X123027244Y-137372953D01*
X123439721Y-137455000D01*
X123860279Y-137455000D01*
X124272756Y-137372953D01*
X124661302Y-137212012D01*
X125010983Y-136978363D01*
X125308363Y-136680983D01*
X125542012Y-136331302D01*
X125702953Y-135942756D01*
X125785000Y-135530279D01*
X125785000Y-135109721D01*
X144215000Y-135109721D01*
X144215000Y-135530279D01*
X144297047Y-135942756D01*
X144457988Y-136331302D01*
X144691637Y-136680983D01*
X144989017Y-136978363D01*
X145338698Y-137212012D01*
X145727244Y-137372953D01*
X146139721Y-137455000D01*
X146560279Y-137455000D01*
X146972756Y-137372953D01*
X147361302Y-137212012D01*
X147710983Y-136978363D01*
X148008363Y-136680983D01*
X148242012Y-136331302D01*
X148402953Y-135942756D01*
X148485000Y-135530279D01*
X148485000Y-135109721D01*
X148402953Y-134697244D01*
X148242012Y-134308698D01*
X148008363Y-133959017D01*
X147710983Y-133661637D01*
X147361302Y-133427988D01*
X146972756Y-133267047D01*
X146560279Y-133185000D01*
X146139721Y-133185000D01*
X145727244Y-133267047D01*
X145338698Y-133427988D01*
X144989017Y-133661637D01*
X144691637Y-133959017D01*
X144457988Y-134308698D01*
X144297047Y-134697244D01*
X144215000Y-135109721D01*
X125785000Y-135109721D01*
X125702953Y-134697244D01*
X125542012Y-134308698D01*
X125308363Y-133959017D01*
X125010983Y-133661637D01*
X124661302Y-133427988D01*
X124272756Y-133267047D01*
X123860279Y-133185000D01*
X123439721Y-133185000D01*
X123027244Y-133267047D01*
X122638698Y-133427988D01*
X122289017Y-133661637D01*
X121991637Y-133959017D01*
X121757988Y-134308698D01*
X121597047Y-134697244D01*
X121515000Y-135109721D01*
X118210000Y-135109721D01*
X118210000Y-131956993D01*
X120722612Y-131956993D01*
X120788137Y-132195860D01*
X121035116Y-132311760D01*
X121299960Y-132377250D01*
X121572492Y-132389812D01*
X121842238Y-132348965D01*
X122098832Y-132256277D01*
X122211863Y-132195860D01*
X122277388Y-131956993D01*
X123722612Y-131956993D01*
X123788137Y-132195860D01*
X124035116Y-132311760D01*
X124299960Y-132377250D01*
X124572492Y-132389812D01*
X124842238Y-132348965D01*
X125098832Y-132256277D01*
X125211863Y-132195860D01*
X125277388Y-131956993D01*
X126722612Y-131956993D01*
X126788137Y-132195860D01*
X127035116Y-132311760D01*
X127299960Y-132377250D01*
X127572492Y-132389812D01*
X127842238Y-132348965D01*
X128098832Y-132256277D01*
X128211863Y-132195860D01*
X128277388Y-131956993D01*
X129722612Y-131956993D01*
X129788137Y-132195860D01*
X130035116Y-132311760D01*
X130299960Y-132377250D01*
X130572492Y-132389812D01*
X130842238Y-132348965D01*
X131098832Y-132256277D01*
X131211863Y-132195860D01*
X131277388Y-131956993D01*
X132722612Y-131956993D01*
X132788137Y-132195860D01*
X133035116Y-132311760D01*
X133299960Y-132377250D01*
X133572492Y-132389812D01*
X133842238Y-132348965D01*
X134098832Y-132256277D01*
X134211863Y-132195860D01*
X134277388Y-131956993D01*
X135722612Y-131956993D01*
X135788137Y-132195860D01*
X136035116Y-132311760D01*
X136299960Y-132377250D01*
X136572492Y-132389812D01*
X136842238Y-132348965D01*
X137098832Y-132256277D01*
X137211863Y-132195860D01*
X137277388Y-131956993D01*
X138722612Y-131956993D01*
X138788137Y-132195860D01*
X139035116Y-132311760D01*
X139299960Y-132377250D01*
X139572492Y-132389812D01*
X139842238Y-132348965D01*
X140098832Y-132256277D01*
X140211863Y-132195860D01*
X140277388Y-131956993D01*
X141722612Y-131956993D01*
X141788137Y-132195860D01*
X142035116Y-132311760D01*
X142299960Y-132377250D01*
X142572492Y-132389812D01*
X142842238Y-132348965D01*
X143098832Y-132256277D01*
X143211863Y-132195860D01*
X143277388Y-131956993D01*
X144722612Y-131956993D01*
X144788137Y-132195860D01*
X145035116Y-132311760D01*
X145299960Y-132377250D01*
X145572492Y-132389812D01*
X145842238Y-132348965D01*
X146098832Y-132256277D01*
X146211863Y-132195860D01*
X146275036Y-131965565D01*
X147714040Y-131965565D01*
X147781020Y-132205656D01*
X148030048Y-132322756D01*
X148297135Y-132389023D01*
X148572017Y-132401910D01*
X148844133Y-132360922D01*
X149103023Y-132267636D01*
X149218980Y-132205656D01*
X149285960Y-131965565D01*
X148500000Y-131179605D01*
X147714040Y-131965565D01*
X146275036Y-131965565D01*
X146277388Y-131956993D01*
X145500000Y-131179605D01*
X144722612Y-131956993D01*
X143277388Y-131956993D01*
X142500000Y-131179605D01*
X141722612Y-131956993D01*
X140277388Y-131956993D01*
X139500000Y-131179605D01*
X138722612Y-131956993D01*
X137277388Y-131956993D01*
X136500000Y-131179605D01*
X135722612Y-131956993D01*
X134277388Y-131956993D01*
X133500000Y-131179605D01*
X132722612Y-131956993D01*
X131277388Y-131956993D01*
X130500000Y-131179605D01*
X129722612Y-131956993D01*
X128277388Y-131956993D01*
X127500000Y-131179605D01*
X126722612Y-131956993D01*
X125277388Y-131956993D01*
X124500000Y-131179605D01*
X123722612Y-131956993D01*
X122277388Y-131956993D01*
X121500000Y-131179605D01*
X120722612Y-131956993D01*
X118210000Y-131956993D01*
X118210000Y-131072492D01*
X120110188Y-131072492D01*
X120151035Y-131342238D01*
X120243723Y-131598832D01*
X120304140Y-131711863D01*
X120543007Y-131777388D01*
X121320395Y-131000000D01*
X121679605Y-131000000D01*
X122456993Y-131777388D01*
X122695860Y-131711863D01*
X122811760Y-131464884D01*
X122877250Y-131200040D01*
X122883129Y-131072492D01*
X123110188Y-131072492D01*
X123151035Y-131342238D01*
X123243723Y-131598832D01*
X123304140Y-131711863D01*
X123543007Y-131777388D01*
X124320395Y-131000000D01*
X124679605Y-131000000D01*
X125456993Y-131777388D01*
X125695860Y-131711863D01*
X125811760Y-131464884D01*
X125877250Y-131200040D01*
X125883129Y-131072492D01*
X126110188Y-131072492D01*
X126151035Y-131342238D01*
X126243723Y-131598832D01*
X126304140Y-131711863D01*
X126543007Y-131777388D01*
X127320395Y-131000000D01*
X127679605Y-131000000D01*
X128456993Y-131777388D01*
X128695860Y-131711863D01*
X128811760Y-131464884D01*
X128877250Y-131200040D01*
X128883129Y-131072492D01*
X129110188Y-131072492D01*
X129151035Y-131342238D01*
X129243723Y-131598832D01*
X129304140Y-131711863D01*
X129543007Y-131777388D01*
X130320395Y-131000000D01*
X130679605Y-131000000D01*
X131456993Y-131777388D01*
X131695860Y-131711863D01*
X131811760Y-131464884D01*
X131877250Y-131200040D01*
X131883129Y-131072492D01*
X132110188Y-131072492D01*
X132151035Y-131342238D01*
X132243723Y-131598832D01*
X132304140Y-131711863D01*
X132543007Y-131777388D01*
X133320395Y-131000000D01*
X133679605Y-131000000D01*
X134456993Y-131777388D01*
X134695860Y-131711863D01*
X134811760Y-131464884D01*
X134877250Y-131200040D01*
X134883129Y-131072492D01*
X135110188Y-131072492D01*
X135151035Y-131342238D01*
X135243723Y-131598832D01*
X135304140Y-131711863D01*
X135543007Y-131777388D01*
X136320395Y-131000000D01*
X136679605Y-131000000D01*
X137456993Y-131777388D01*
X137695860Y-131711863D01*
X137811760Y-131464884D01*
X137877250Y-131200040D01*
X137883129Y-131072492D01*
X138110188Y-131072492D01*
X138151035Y-131342238D01*
X138243723Y-131598832D01*
X138304140Y-131711863D01*
X138543007Y-131777388D01*
X139320395Y-131000000D01*
X139679605Y-131000000D01*
X140456993Y-131777388D01*
X140695860Y-131711863D01*
X140811760Y-131464884D01*
X140877250Y-131200040D01*
X140883129Y-131072492D01*
X141110188Y-131072492D01*
X141151035Y-131342238D01*
X141243723Y-131598832D01*
X141304140Y-131711863D01*
X141543007Y-131777388D01*
X142320395Y-131000000D01*
X142679605Y-131000000D01*
X143456993Y-131777388D01*
X143695860Y-131711863D01*
X143811760Y-131464884D01*
X143877250Y-131200040D01*
X143883129Y-131072492D01*
X144110188Y-131072492D01*
X144151035Y-131342238D01*
X144243723Y-131598832D01*
X144304140Y-131711863D01*
X144543007Y-131777388D01*
X145320395Y-131000000D01*
X145679605Y-131000000D01*
X146456993Y-131777388D01*
X146695860Y-131711863D01*
X146811760Y-131464884D01*
X146877250Y-131200040D01*
X146883151Y-131072017D01*
X147098090Y-131072017D01*
X147139078Y-131344133D01*
X147232364Y-131603023D01*
X147294344Y-131718980D01*
X147534435Y-131785960D01*
X148320395Y-131000000D01*
X148679605Y-131000000D01*
X149465565Y-131785960D01*
X149705656Y-131718980D01*
X149822756Y-131469952D01*
X149889023Y-131202865D01*
X149901910Y-130927983D01*
X149860922Y-130655867D01*
X149767636Y-130396977D01*
X149705656Y-130281020D01*
X149465565Y-130214040D01*
X148679605Y-131000000D01*
X148320395Y-131000000D01*
X147534435Y-130214040D01*
X147294344Y-130281020D01*
X147177244Y-130530048D01*
X147110977Y-130797135D01*
X147098090Y-131072017D01*
X146883151Y-131072017D01*
X146889812Y-130927508D01*
X146848965Y-130657762D01*
X146756277Y-130401168D01*
X146695860Y-130288137D01*
X146456993Y-130222612D01*
X145679605Y-131000000D01*
X145320395Y-131000000D01*
X144543007Y-130222612D01*
X144304140Y-130288137D01*
X144188240Y-130535116D01*
X144122750Y-130799960D01*
X144110188Y-131072492D01*
X143883129Y-131072492D01*
X143889812Y-130927508D01*
X143848965Y-130657762D01*
X143756277Y-130401168D01*
X143695860Y-130288137D01*
X143456993Y-130222612D01*
X142679605Y-131000000D01*
X142320395Y-131000000D01*
X141543007Y-130222612D01*
X141304140Y-130288137D01*
X141188240Y-130535116D01*
X141122750Y-130799960D01*
X141110188Y-131072492D01*
X140883129Y-131072492D01*
X140889812Y-130927508D01*
X140848965Y-130657762D01*
X140756277Y-130401168D01*
X140695860Y-130288137D01*
X140456993Y-130222612D01*
X139679605Y-131000000D01*
X139320395Y-131000000D01*
X138543007Y-130222612D01*
X138304140Y-130288137D01*
X138188240Y-130535116D01*
X138122750Y-130799960D01*
X138110188Y-131072492D01*
X137883129Y-131072492D01*
X137889812Y-130927508D01*
X137848965Y-130657762D01*
X137756277Y-130401168D01*
X137695860Y-130288137D01*
X137456993Y-130222612D01*
X136679605Y-131000000D01*
X136320395Y-131000000D01*
X135543007Y-130222612D01*
X135304140Y-130288137D01*
X135188240Y-130535116D01*
X135122750Y-130799960D01*
X135110188Y-131072492D01*
X134883129Y-131072492D01*
X134889812Y-130927508D01*
X134848965Y-130657762D01*
X134756277Y-130401168D01*
X134695860Y-130288137D01*
X134456993Y-130222612D01*
X133679605Y-131000000D01*
X133320395Y-131000000D01*
X132543007Y-130222612D01*
X132304140Y-130288137D01*
X132188240Y-130535116D01*
X132122750Y-130799960D01*
X132110188Y-131072492D01*
X131883129Y-131072492D01*
X131889812Y-130927508D01*
X131848965Y-130657762D01*
X131756277Y-130401168D01*
X131695860Y-130288137D01*
X131456993Y-130222612D01*
X130679605Y-131000000D01*
X130320395Y-131000000D01*
X129543007Y-130222612D01*
X129304140Y-130288137D01*
X129188240Y-130535116D01*
X129122750Y-130799960D01*
X129110188Y-131072492D01*
X128883129Y-131072492D01*
X128889812Y-130927508D01*
X128848965Y-130657762D01*
X128756277Y-130401168D01*
X128695860Y-130288137D01*
X128456993Y-130222612D01*
X127679605Y-131000000D01*
X127320395Y-131000000D01*
X126543007Y-130222612D01*
X126304140Y-130288137D01*
X126188240Y-130535116D01*
X126122750Y-130799960D01*
X126110188Y-131072492D01*
X125883129Y-131072492D01*
X125889812Y-130927508D01*
X125848965Y-130657762D01*
X125756277Y-130401168D01*
X125695860Y-130288137D01*
X125456993Y-130222612D01*
X124679605Y-131000000D01*
X124320395Y-131000000D01*
X123543007Y-130222612D01*
X123304140Y-130288137D01*
X123188240Y-130535116D01*
X123122750Y-130799960D01*
X123110188Y-131072492D01*
X122883129Y-131072492D01*
X122889812Y-130927508D01*
X122848965Y-130657762D01*
X122756277Y-130401168D01*
X122695860Y-130288137D01*
X122456993Y-130222612D01*
X121679605Y-131000000D01*
X121320395Y-131000000D01*
X120543007Y-130222612D01*
X120304140Y-130288137D01*
X120188240Y-130535116D01*
X120122750Y-130799960D01*
X120110188Y-131072492D01*
X118210000Y-131072492D01*
X118210000Y-130043007D01*
X120722612Y-130043007D01*
X121500000Y-130820395D01*
X122277388Y-130043007D01*
X123722612Y-130043007D01*
X124500000Y-130820395D01*
X125277388Y-130043007D01*
X126722612Y-130043007D01*
X127500000Y-130820395D01*
X128277388Y-130043007D01*
X129722612Y-130043007D01*
X130500000Y-130820395D01*
X131277388Y-130043007D01*
X132722612Y-130043007D01*
X133500000Y-130820395D01*
X134277388Y-130043007D01*
X135722612Y-130043007D01*
X136500000Y-130820395D01*
X137277388Y-130043007D01*
X138722612Y-130043007D01*
X139500000Y-130820395D01*
X140277388Y-130043007D01*
X141722612Y-130043007D01*
X142500000Y-130820395D01*
X143277388Y-130043007D01*
X144722612Y-130043007D01*
X145500000Y-130820395D01*
X146277388Y-130043007D01*
X146275037Y-130034435D01*
X147714040Y-130034435D01*
X148500000Y-130820395D01*
X149285960Y-130034435D01*
X149218980Y-129794344D01*
X148969952Y-129677244D01*
X148702865Y-129610977D01*
X148427983Y-129598090D01*
X148155867Y-129639078D01*
X147896977Y-129732364D01*
X147781020Y-129794344D01*
X147714040Y-130034435D01*
X146275037Y-130034435D01*
X146211863Y-129804140D01*
X145964884Y-129688240D01*
X145700040Y-129622750D01*
X145427508Y-129610188D01*
X145157762Y-129651035D01*
X144901168Y-129743723D01*
X144788137Y-129804140D01*
X144722612Y-130043007D01*
X143277388Y-130043007D01*
X143211863Y-129804140D01*
X142964884Y-129688240D01*
X142700040Y-129622750D01*
X142427508Y-129610188D01*
X142157762Y-129651035D01*
X141901168Y-129743723D01*
X141788137Y-129804140D01*
X141722612Y-130043007D01*
X140277388Y-130043007D01*
X140211863Y-129804140D01*
X139964884Y-129688240D01*
X139700040Y-129622750D01*
X139427508Y-129610188D01*
X139157762Y-129651035D01*
X138901168Y-129743723D01*
X138788137Y-129804140D01*
X138722612Y-130043007D01*
X137277388Y-130043007D01*
X137211863Y-129804140D01*
X136964884Y-129688240D01*
X136700040Y-129622750D01*
X136427508Y-129610188D01*
X136157762Y-129651035D01*
X135901168Y-129743723D01*
X135788137Y-129804140D01*
X135722612Y-130043007D01*
X134277388Y-130043007D01*
X134211863Y-129804140D01*
X133964884Y-129688240D01*
X133700040Y-129622750D01*
X133427508Y-129610188D01*
X133157762Y-129651035D01*
X132901168Y-129743723D01*
X132788137Y-129804140D01*
X132722612Y-130043007D01*
X131277388Y-130043007D01*
X131211863Y-129804140D01*
X130964884Y-129688240D01*
X130700040Y-129622750D01*
X130427508Y-129610188D01*
X130157762Y-129651035D01*
X129901168Y-129743723D01*
X129788137Y-129804140D01*
X129722612Y-130043007D01*
X128277388Y-130043007D01*
X128211863Y-129804140D01*
X127964884Y-129688240D01*
X127700040Y-129622750D01*
X127427508Y-129610188D01*
X127157762Y-129651035D01*
X126901168Y-129743723D01*
X126788137Y-129804140D01*
X126722612Y-130043007D01*
X125277388Y-130043007D01*
X125211863Y-129804140D01*
X124964884Y-129688240D01*
X124700040Y-129622750D01*
X124427508Y-129610188D01*
X124157762Y-129651035D01*
X123901168Y-129743723D01*
X123788137Y-129804140D01*
X123722612Y-130043007D01*
X122277388Y-130043007D01*
X122211863Y-129804140D01*
X121964884Y-129688240D01*
X121700040Y-129622750D01*
X121427508Y-129610188D01*
X121157762Y-129651035D01*
X120901168Y-129743723D01*
X120788137Y-129804140D01*
X120722612Y-130043007D01*
X118210000Y-130043007D01*
X118210000Y-128956993D01*
X120722612Y-128956993D01*
X120788137Y-129195860D01*
X121035116Y-129311760D01*
X121299960Y-129377250D01*
X121572492Y-129389812D01*
X121842238Y-129348965D01*
X122098832Y-129256277D01*
X122211863Y-129195860D01*
X122277388Y-128956993D01*
X123722612Y-128956993D01*
X123788137Y-129195860D01*
X124035116Y-129311760D01*
X124299960Y-129377250D01*
X124572492Y-129389812D01*
X124842238Y-129348965D01*
X125098832Y-129256277D01*
X125211863Y-129195860D01*
X125277388Y-128956993D01*
X126722612Y-128956993D01*
X126788137Y-129195860D01*
X127035116Y-129311760D01*
X127299960Y-129377250D01*
X127572492Y-129389812D01*
X127842238Y-129348965D01*
X128098832Y-129256277D01*
X128211863Y-129195860D01*
X128277388Y-128956993D01*
X129722612Y-128956993D01*
X129788137Y-129195860D01*
X130035116Y-129311760D01*
X130299960Y-129377250D01*
X130572492Y-129389812D01*
X130842238Y-129348965D01*
X131098832Y-129256277D01*
X131211863Y-129195860D01*
X131277388Y-128956993D01*
X132722612Y-128956993D01*
X132788137Y-129195860D01*
X133035116Y-129311760D01*
X133299960Y-129377250D01*
X133572492Y-129389812D01*
X133842238Y-129348965D01*
X134098832Y-129256277D01*
X134211863Y-129195860D01*
X134277388Y-128956993D01*
X135722612Y-128956993D01*
X135788137Y-129195860D01*
X136035116Y-129311760D01*
X136299960Y-129377250D01*
X136572492Y-129389812D01*
X136842238Y-129348965D01*
X137098832Y-129256277D01*
X137211863Y-129195860D01*
X137277388Y-128956993D01*
X138722612Y-128956993D01*
X138788137Y-129195860D01*
X139035116Y-129311760D01*
X139299960Y-129377250D01*
X139572492Y-129389812D01*
X139842238Y-129348965D01*
X140098832Y-129256277D01*
X140211863Y-129195860D01*
X140277388Y-128956993D01*
X141722612Y-128956993D01*
X141788137Y-129195860D01*
X142035116Y-129311760D01*
X142299960Y-129377250D01*
X142572492Y-129389812D01*
X142842238Y-129348965D01*
X143098832Y-129256277D01*
X143211863Y-129195860D01*
X143277388Y-128956993D01*
X144722612Y-128956993D01*
X144788137Y-129195860D01*
X145035116Y-129311760D01*
X145299960Y-129377250D01*
X145572492Y-129389812D01*
X145842238Y-129348965D01*
X146098832Y-129256277D01*
X146211863Y-129195860D01*
X146277388Y-128956993D01*
X147722612Y-128956993D01*
X147788137Y-129195860D01*
X148035116Y-129311760D01*
X148299960Y-129377250D01*
X148572492Y-129389812D01*
X148842238Y-129348965D01*
X149098832Y-129256277D01*
X149211863Y-129195860D01*
X149277388Y-128956993D01*
X148500000Y-128179605D01*
X147722612Y-128956993D01*
X146277388Y-128956993D01*
X145500000Y-128179605D01*
X144722612Y-128956993D01*
X143277388Y-128956993D01*
X142500000Y-128179605D01*
X141722612Y-128956993D01*
X140277388Y-128956993D01*
X139500000Y-128179605D01*
X138722612Y-128956993D01*
X137277388Y-128956993D01*
X136500000Y-128179605D01*
X135722612Y-128956993D01*
X134277388Y-128956993D01*
X133500000Y-128179605D01*
X132722612Y-128956993D01*
X131277388Y-128956993D01*
X130500000Y-128179605D01*
X129722612Y-128956993D01*
X128277388Y-128956993D01*
X127500000Y-128179605D01*
X126722612Y-128956993D01*
X125277388Y-128956993D01*
X124500000Y-128179605D01*
X123722612Y-128956993D01*
X122277388Y-128956993D01*
X121500000Y-128179605D01*
X120722612Y-128956993D01*
X118210000Y-128956993D01*
X118210000Y-128072492D01*
X120110188Y-128072492D01*
X120151035Y-128342238D01*
X120243723Y-128598832D01*
X120304140Y-128711863D01*
X120543007Y-128777388D01*
X121320395Y-128000000D01*
X121679605Y-128000000D01*
X122456993Y-128777388D01*
X122695860Y-128711863D01*
X122811760Y-128464884D01*
X122877250Y-128200040D01*
X122883129Y-128072492D01*
X123110188Y-128072492D01*
X123151035Y-128342238D01*
X123243723Y-128598832D01*
X123304140Y-128711863D01*
X123543007Y-128777388D01*
X124320395Y-128000000D01*
X124679605Y-128000000D01*
X125456993Y-128777388D01*
X125695860Y-128711863D01*
X125811760Y-128464884D01*
X125877250Y-128200040D01*
X125883129Y-128072492D01*
X126110188Y-128072492D01*
X126151035Y-128342238D01*
X126243723Y-128598832D01*
X126304140Y-128711863D01*
X126543007Y-128777388D01*
X127320395Y-128000000D01*
X127679605Y-128000000D01*
X128456993Y-128777388D01*
X128695860Y-128711863D01*
X128811760Y-128464884D01*
X128877250Y-128200040D01*
X128883129Y-128072492D01*
X129110188Y-128072492D01*
X129151035Y-128342238D01*
X129243723Y-128598832D01*
X129304140Y-128711863D01*
X129543007Y-128777388D01*
X130320395Y-128000000D01*
X130679605Y-128000000D01*
X131456993Y-128777388D01*
X131695860Y-128711863D01*
X131811760Y-128464884D01*
X131877250Y-128200040D01*
X131883129Y-128072492D01*
X132110188Y-128072492D01*
X132151035Y-128342238D01*
X132243723Y-128598832D01*
X132304140Y-128711863D01*
X132543007Y-128777388D01*
X133320395Y-128000000D01*
X133679605Y-128000000D01*
X134456993Y-128777388D01*
X134695860Y-128711863D01*
X134811760Y-128464884D01*
X134877250Y-128200040D01*
X134883129Y-128072492D01*
X135110188Y-128072492D01*
X135151035Y-128342238D01*
X135243723Y-128598832D01*
X135304140Y-128711863D01*
X135543007Y-128777388D01*
X136320395Y-128000000D01*
X136679605Y-128000000D01*
X137456993Y-128777388D01*
X137695860Y-128711863D01*
X137811760Y-128464884D01*
X137877250Y-128200040D01*
X137883129Y-128072492D01*
X138110188Y-128072492D01*
X138151035Y-128342238D01*
X138243723Y-128598832D01*
X138304140Y-128711863D01*
X138543007Y-128777388D01*
X139320395Y-128000000D01*
X139679605Y-128000000D01*
X140456993Y-128777388D01*
X140695860Y-128711863D01*
X140811760Y-128464884D01*
X140877250Y-128200040D01*
X140883129Y-128072492D01*
X141110188Y-128072492D01*
X141151035Y-128342238D01*
X141243723Y-128598832D01*
X141304140Y-128711863D01*
X141543007Y-128777388D01*
X142320395Y-128000000D01*
X142679605Y-128000000D01*
X143456993Y-128777388D01*
X143695860Y-128711863D01*
X143811760Y-128464884D01*
X143877250Y-128200040D01*
X143883129Y-128072492D01*
X144110188Y-128072492D01*
X144151035Y-128342238D01*
X144243723Y-128598832D01*
X144304140Y-128711863D01*
X144543007Y-128777388D01*
X145320395Y-128000000D01*
X145679605Y-128000000D01*
X146456993Y-128777388D01*
X146695860Y-128711863D01*
X146811760Y-128464884D01*
X146877250Y-128200040D01*
X146883129Y-128072492D01*
X147110188Y-128072492D01*
X147151035Y-128342238D01*
X147243723Y-128598832D01*
X147304140Y-128711863D01*
X147543007Y-128777388D01*
X148320395Y-128000000D01*
X148679605Y-128000000D01*
X149456993Y-128777388D01*
X149695860Y-128711863D01*
X149811760Y-128464884D01*
X149877250Y-128200040D01*
X149889812Y-127927508D01*
X149848965Y-127657762D01*
X149756277Y-127401168D01*
X149695860Y-127288137D01*
X149456993Y-127222612D01*
X148679605Y-128000000D01*
X148320395Y-128000000D01*
X147543007Y-127222612D01*
X147304140Y-127288137D01*
X147188240Y-127535116D01*
X147122750Y-127799960D01*
X147110188Y-128072492D01*
X146883129Y-128072492D01*
X146889812Y-127927508D01*
X146848965Y-127657762D01*
X146756277Y-127401168D01*
X146695860Y-127288137D01*
X146456993Y-127222612D01*
X145679605Y-128000000D01*
X145320395Y-128000000D01*
X144543007Y-127222612D01*
X144304140Y-127288137D01*
X144188240Y-127535116D01*
X144122750Y-127799960D01*
X144110188Y-128072492D01*
X143883129Y-128072492D01*
X143889812Y-127927508D01*
X143848965Y-127657762D01*
X143756277Y-127401168D01*
X143695860Y-127288137D01*
X143456993Y-127222612D01*
X142679605Y-128000000D01*
X142320395Y-128000000D01*
X141543007Y-127222612D01*
X141304140Y-127288137D01*
X141188240Y-127535116D01*
X141122750Y-127799960D01*
X141110188Y-128072492D01*
X140883129Y-128072492D01*
X140889812Y-127927508D01*
X140848965Y-127657762D01*
X140756277Y-127401168D01*
X140695860Y-127288137D01*
X140456993Y-127222612D01*
X139679605Y-128000000D01*
X139320395Y-128000000D01*
X138543007Y-127222612D01*
X138304140Y-127288137D01*
X138188240Y-127535116D01*
X138122750Y-127799960D01*
X138110188Y-128072492D01*
X137883129Y-128072492D01*
X137889812Y-127927508D01*
X137848965Y-127657762D01*
X137756277Y-127401168D01*
X137695860Y-127288137D01*
X137456993Y-127222612D01*
X136679605Y-128000000D01*
X136320395Y-128000000D01*
X135543007Y-127222612D01*
X135304140Y-127288137D01*
X135188240Y-127535116D01*
X135122750Y-127799960D01*
X135110188Y-128072492D01*
X134883129Y-128072492D01*
X134889812Y-127927508D01*
X134848965Y-127657762D01*
X134756277Y-127401168D01*
X134695860Y-127288137D01*
X134456993Y-127222612D01*
X133679605Y-128000000D01*
X133320395Y-128000000D01*
X132543007Y-127222612D01*
X132304140Y-127288137D01*
X132188240Y-127535116D01*
X132122750Y-127799960D01*
X132110188Y-128072492D01*
X131883129Y-128072492D01*
X131889812Y-127927508D01*
X131848965Y-127657762D01*
X131756277Y-127401168D01*
X131695860Y-127288137D01*
X131456993Y-127222612D01*
X130679605Y-128000000D01*
X130320395Y-128000000D01*
X129543007Y-127222612D01*
X129304140Y-127288137D01*
X129188240Y-127535116D01*
X129122750Y-127799960D01*
X129110188Y-128072492D01*
X128883129Y-128072492D01*
X128889812Y-127927508D01*
X128848965Y-127657762D01*
X128756277Y-127401168D01*
X128695860Y-127288137D01*
X128456993Y-127222612D01*
X127679605Y-128000000D01*
X127320395Y-128000000D01*
X126543007Y-127222612D01*
X126304140Y-127288137D01*
X126188240Y-127535116D01*
X126122750Y-127799960D01*
X126110188Y-128072492D01*
X125883129Y-128072492D01*
X125889812Y-127927508D01*
X125848965Y-127657762D01*
X125756277Y-127401168D01*
X125695860Y-127288137D01*
X125456993Y-127222612D01*
X124679605Y-128000000D01*
X124320395Y-128000000D01*
X123543007Y-127222612D01*
X123304140Y-127288137D01*
X123188240Y-127535116D01*
X123122750Y-127799960D01*
X123110188Y-128072492D01*
X122883129Y-128072492D01*
X122889812Y-127927508D01*
X122848965Y-127657762D01*
X122756277Y-127401168D01*
X122695860Y-127288137D01*
X122456993Y-127222612D01*
X121679605Y-128000000D01*
X121320395Y-128000000D01*
X120543007Y-127222612D01*
X120304140Y-127288137D01*
X120188240Y-127535116D01*
X120122750Y-127799960D01*
X120110188Y-128072492D01*
X118210000Y-128072492D01*
X118210000Y-127043007D01*
X120722612Y-127043007D01*
X121500000Y-127820395D01*
X122277388Y-127043007D01*
X123722612Y-127043007D01*
X124500000Y-127820395D01*
X125277388Y-127043007D01*
X126722612Y-127043007D01*
X127500000Y-127820395D01*
X128277388Y-127043007D01*
X129722612Y-127043007D01*
X130500000Y-127820395D01*
X131277388Y-127043007D01*
X132722612Y-127043007D01*
X133500000Y-127820395D01*
X134277388Y-127043007D01*
X135722612Y-127043007D01*
X136500000Y-127820395D01*
X137277388Y-127043007D01*
X138722612Y-127043007D01*
X139500000Y-127820395D01*
X140277388Y-127043007D01*
X141722612Y-127043007D01*
X142500000Y-127820395D01*
X143277388Y-127043007D01*
X144722612Y-127043007D01*
X145500000Y-127820395D01*
X146277388Y-127043007D01*
X147722612Y-127043007D01*
X148500000Y-127820395D01*
X149277388Y-127043007D01*
X149211863Y-126804140D01*
X148964884Y-126688240D01*
X148700040Y-126622750D01*
X148427508Y-126610188D01*
X148157762Y-126651035D01*
X147901168Y-126743723D01*
X147788137Y-126804140D01*
X147722612Y-127043007D01*
X146277388Y-127043007D01*
X146211863Y-126804140D01*
X145964884Y-126688240D01*
X145700040Y-126622750D01*
X145427508Y-126610188D01*
X145157762Y-126651035D01*
X144901168Y-126743723D01*
X144788137Y-126804140D01*
X144722612Y-127043007D01*
X143277388Y-127043007D01*
X143211863Y-126804140D01*
X142964884Y-126688240D01*
X142700040Y-126622750D01*
X142427508Y-126610188D01*
X142157762Y-126651035D01*
X141901168Y-126743723D01*
X141788137Y-126804140D01*
X141722612Y-127043007D01*
X140277388Y-127043007D01*
X140211863Y-126804140D01*
X139964884Y-126688240D01*
X139700040Y-126622750D01*
X139427508Y-126610188D01*
X139157762Y-126651035D01*
X138901168Y-126743723D01*
X138788137Y-126804140D01*
X138722612Y-127043007D01*
X137277388Y-127043007D01*
X137211863Y-126804140D01*
X136964884Y-126688240D01*
X136700040Y-126622750D01*
X136427508Y-126610188D01*
X136157762Y-126651035D01*
X135901168Y-126743723D01*
X135788137Y-126804140D01*
X135722612Y-127043007D01*
X134277388Y-127043007D01*
X134211863Y-126804140D01*
X133964884Y-126688240D01*
X133700040Y-126622750D01*
X133427508Y-126610188D01*
X133157762Y-126651035D01*
X132901168Y-126743723D01*
X132788137Y-126804140D01*
X132722612Y-127043007D01*
X131277388Y-127043007D01*
X131211863Y-126804140D01*
X130964884Y-126688240D01*
X130700040Y-126622750D01*
X130427508Y-126610188D01*
X130157762Y-126651035D01*
X129901168Y-126743723D01*
X129788137Y-126804140D01*
X129722612Y-127043007D01*
X128277388Y-127043007D01*
X128211863Y-126804140D01*
X127964884Y-126688240D01*
X127700040Y-126622750D01*
X127427508Y-126610188D01*
X127157762Y-126651035D01*
X126901168Y-126743723D01*
X126788137Y-126804140D01*
X126722612Y-127043007D01*
X125277388Y-127043007D01*
X125211863Y-126804140D01*
X124964884Y-126688240D01*
X124700040Y-126622750D01*
X124427508Y-126610188D01*
X124157762Y-126651035D01*
X123901168Y-126743723D01*
X123788137Y-126804140D01*
X123722612Y-127043007D01*
X122277388Y-127043007D01*
X122211863Y-126804140D01*
X121964884Y-126688240D01*
X121700040Y-126622750D01*
X121427508Y-126610188D01*
X121157762Y-126651035D01*
X120901168Y-126743723D01*
X120788137Y-126804140D01*
X120722612Y-127043007D01*
X118210000Y-127043007D01*
X118210000Y-123966051D01*
X118230422Y-123986473D01*
X118438429Y-124125459D01*
X118669555Y-124221195D01*
X118914916Y-124270000D01*
X119165084Y-124270000D01*
X119410445Y-124221195D01*
X119641571Y-124125459D01*
X119849578Y-123986473D01*
X119987604Y-123848447D01*
X133633158Y-123848447D01*
X133777135Y-124153770D01*
X134134892Y-124334597D01*
X134521053Y-124442155D01*
X134920777Y-124472310D01*
X135318704Y-124423904D01*
X135699540Y-124298795D01*
X135970865Y-124153770D01*
X136114842Y-123848447D01*
X134874000Y-122607605D01*
X133633158Y-123848447D01*
X119987604Y-123848447D01*
X120026473Y-123809578D01*
X120165459Y-123601571D01*
X120261195Y-123370445D01*
X120310000Y-123125084D01*
X120310000Y-122874916D01*
X120261195Y-122629555D01*
X120197084Y-122474777D01*
X132829690Y-122474777D01*
X132878096Y-122872704D01*
X133003205Y-123253540D01*
X133148230Y-123524865D01*
X133453553Y-123668842D01*
X134694395Y-122428000D01*
X135053605Y-122428000D01*
X136294447Y-123668842D01*
X136599770Y-123524865D01*
X136780597Y-123167108D01*
X136888155Y-122780947D01*
X136918310Y-122381223D01*
X136869904Y-121983296D01*
X136744795Y-121602460D01*
X136599770Y-121331135D01*
X136294447Y-121187158D01*
X135053605Y-122428000D01*
X134694395Y-122428000D01*
X133453553Y-121187158D01*
X133148230Y-121331135D01*
X132967403Y-121688892D01*
X132859845Y-122075053D01*
X132829690Y-122474777D01*
X120197084Y-122474777D01*
X120165459Y-122398429D01*
X120026473Y-122190422D01*
X119849578Y-122013527D01*
X119641571Y-121874541D01*
X119410445Y-121778805D01*
X119165084Y-121730000D01*
X118914916Y-121730000D01*
X118669555Y-121778805D01*
X118438429Y-121874541D01*
X118230422Y-122013527D01*
X118210000Y-122033949D01*
X118210000Y-121028397D01*
X120151208Y-121028397D01*
X120228843Y-121277472D01*
X120492883Y-121403371D01*
X120776411Y-121475339D01*
X121068531Y-121490611D01*
X121358019Y-121448599D01*
X121633747Y-121350919D01*
X121771157Y-121277472D01*
X121848792Y-121028397D01*
X121827948Y-121007553D01*
X133633158Y-121007553D01*
X134874000Y-122248395D01*
X136114842Y-121007553D01*
X135970865Y-120702230D01*
X135613108Y-120521403D01*
X135226947Y-120413845D01*
X134827223Y-120383690D01*
X134429296Y-120432096D01*
X134048460Y-120557205D01*
X133777135Y-120702230D01*
X133633158Y-121007553D01*
X121827948Y-121007553D01*
X121000000Y-120179605D01*
X120151208Y-121028397D01*
X118210000Y-121028397D01*
X118210000Y-120068531D01*
X119509389Y-120068531D01*
X119551401Y-120358019D01*
X119649081Y-120633747D01*
X119722528Y-120771157D01*
X119971603Y-120848792D01*
X120820395Y-120000000D01*
X121179605Y-120000000D01*
X122028397Y-120848792D01*
X122277472Y-120771157D01*
X122403371Y-120507117D01*
X122475339Y-120223589D01*
X122490611Y-119931469D01*
X122448599Y-119641981D01*
X122350919Y-119366253D01*
X122277472Y-119228843D01*
X122028397Y-119151208D01*
X121179605Y-120000000D01*
X120820395Y-120000000D01*
X119971603Y-119151208D01*
X119722528Y-119228843D01*
X119596629Y-119492883D01*
X119524661Y-119776411D01*
X119509389Y-120068531D01*
X118210000Y-120068531D01*
X118210000Y-118971603D01*
X120151208Y-118971603D01*
X121000000Y-119820395D01*
X121848792Y-118971603D01*
X121771157Y-118722528D01*
X121507117Y-118596629D01*
X121223589Y-118524661D01*
X120931469Y-118509389D01*
X120641981Y-118551401D01*
X120366253Y-118649081D01*
X120228843Y-118722528D01*
X120151208Y-118971603D01*
X118210000Y-118971603D01*
X118210000Y-116853740D01*
X119515000Y-116853740D01*
X119515000Y-117146260D01*
X119572068Y-117433158D01*
X119684010Y-117703411D01*
X119846525Y-117946632D01*
X120053368Y-118153475D01*
X120296589Y-118315990D01*
X120566842Y-118427932D01*
X120853740Y-118485000D01*
X121146260Y-118485000D01*
X121433158Y-118427932D01*
X121481951Y-118407721D01*
X125865000Y-118407721D01*
X125865000Y-118828279D01*
X125947047Y-119240756D01*
X126107988Y-119629302D01*
X126341637Y-119978983D01*
X126639017Y-120276363D01*
X126988698Y-120510012D01*
X127377244Y-120670953D01*
X127789721Y-120753000D01*
X128210279Y-120753000D01*
X128622756Y-120670953D01*
X129011302Y-120510012D01*
X129360983Y-120276363D01*
X129658363Y-119978983D01*
X129892012Y-119629302D01*
X130052953Y-119240756D01*
X130135000Y-118828279D01*
X130135000Y-118407721D01*
X145865000Y-118407721D01*
X145865000Y-118828279D01*
X145947047Y-119240756D01*
X146107988Y-119629302D01*
X146341637Y-119978983D01*
X146639017Y-120276363D01*
X146988698Y-120510012D01*
X147377244Y-120670953D01*
X147789721Y-120753000D01*
X148210279Y-120753000D01*
X148622756Y-120670953D01*
X149011302Y-120510012D01*
X149360983Y-120276363D01*
X149658363Y-119978983D01*
X149892012Y-119629302D01*
X150052953Y-119240756D01*
X150135000Y-118828279D01*
X150135000Y-118407721D01*
X150052953Y-117995244D01*
X149892012Y-117606698D01*
X149658363Y-117257017D01*
X149360983Y-116959637D01*
X149011302Y-116725988D01*
X148622756Y-116565047D01*
X148210279Y-116483000D01*
X147789721Y-116483000D01*
X147377244Y-116565047D01*
X146988698Y-116725988D01*
X146639017Y-116959637D01*
X146341637Y-117257017D01*
X146107988Y-117606698D01*
X145947047Y-117995244D01*
X145865000Y-118407721D01*
X130135000Y-118407721D01*
X130052953Y-117995244D01*
X129892012Y-117606698D01*
X129658363Y-117257017D01*
X129360983Y-116959637D01*
X129011302Y-116725988D01*
X128622756Y-116565047D01*
X128210279Y-116483000D01*
X127789721Y-116483000D01*
X127377244Y-116565047D01*
X126988698Y-116725988D01*
X126639017Y-116959637D01*
X126341637Y-117257017D01*
X126107988Y-117606698D01*
X125947047Y-117995244D01*
X125865000Y-118407721D01*
X121481951Y-118407721D01*
X121703411Y-118315990D01*
X121946632Y-118153475D01*
X122153475Y-117946632D01*
X122315990Y-117703411D01*
X122427932Y-117433158D01*
X122485000Y-117146260D01*
X122485000Y-116853740D01*
X122427932Y-116566842D01*
X122315990Y-116296589D01*
X122153475Y-116053368D01*
X121946632Y-115846525D01*
X121703411Y-115684010D01*
X121433158Y-115572068D01*
X121146260Y-115515000D01*
X120853740Y-115515000D01*
X120566842Y-115572068D01*
X120296589Y-115684010D01*
X120053368Y-115846525D01*
X119846525Y-116053368D01*
X119684010Y-116296589D01*
X119572068Y-116566842D01*
X119515000Y-116853740D01*
X118210000Y-116853740D01*
X118210000Y-114966051D01*
X118230422Y-114986473D01*
X118438429Y-115125459D01*
X118669555Y-115221195D01*
X118914916Y-115270000D01*
X119165084Y-115270000D01*
X119410445Y-115221195D01*
X119641571Y-115125459D01*
X119849578Y-114986473D01*
X120026473Y-114809578D01*
X120165459Y-114601571D01*
X120261195Y-114370445D01*
X120264551Y-114353570D01*
X132839000Y-114353570D01*
X132839000Y-114754430D01*
X132917204Y-115147587D01*
X133070607Y-115517934D01*
X133293313Y-115851237D01*
X133576763Y-116134687D01*
X133910066Y-116357393D01*
X134280413Y-116510796D01*
X134673570Y-116589000D01*
X135074430Y-116589000D01*
X135467587Y-116510796D01*
X135837934Y-116357393D01*
X136171237Y-116134687D01*
X136454687Y-115851237D01*
X136677393Y-115517934D01*
X136830796Y-115147587D01*
X136909000Y-114754430D01*
X136909000Y-114353570D01*
X136830796Y-113960413D01*
X136677393Y-113590066D01*
X136454687Y-113256763D01*
X136171237Y-112973313D01*
X135837934Y-112750607D01*
X135467587Y-112597204D01*
X135074430Y-112519000D01*
X134673570Y-112519000D01*
X134280413Y-112597204D01*
X133910066Y-112750607D01*
X133576763Y-112973313D01*
X133293313Y-113256763D01*
X133070607Y-113590066D01*
X132917204Y-113960413D01*
X132839000Y-114353570D01*
X120264551Y-114353570D01*
X120310000Y-114125084D01*
X120310000Y-113874916D01*
X120261195Y-113629555D01*
X120165459Y-113398429D01*
X120026473Y-113190422D01*
X119849578Y-113013527D01*
X119641571Y-112874541D01*
X119410445Y-112778805D01*
X119165084Y-112730000D01*
X118914916Y-112730000D01*
X118669555Y-112778805D01*
X118438429Y-112874541D01*
X118230422Y-113013527D01*
X118210000Y-113033949D01*
X118210000Y-105609721D01*
X121515000Y-105609721D01*
X121515000Y-106030279D01*
X121597047Y-106442756D01*
X121757988Y-106831302D01*
X121991637Y-107180983D01*
X122289017Y-107478363D01*
X122638698Y-107712012D01*
X123027244Y-107872953D01*
X123439721Y-107955000D01*
X123860279Y-107955000D01*
X124272756Y-107872953D01*
X124661302Y-107712012D01*
X125010983Y-107478363D01*
X125308363Y-107180983D01*
X125542012Y-106831302D01*
X125702953Y-106442756D01*
X125785000Y-106030279D01*
X125785000Y-105609721D01*
X144215000Y-105609721D01*
X144215000Y-106030279D01*
X144297047Y-106442756D01*
X144457988Y-106831302D01*
X144691637Y-107180983D01*
X144989017Y-107478363D01*
X145338698Y-107712012D01*
X145727244Y-107872953D01*
X146139721Y-107955000D01*
X146560279Y-107955000D01*
X146972756Y-107872953D01*
X147361302Y-107712012D01*
X147710983Y-107478363D01*
X148008363Y-107180983D01*
X148242012Y-106831302D01*
X148402953Y-106442756D01*
X148485000Y-106030279D01*
X148485000Y-105609721D01*
X148402953Y-105197244D01*
X148242012Y-104808698D01*
X148008363Y-104459017D01*
X147710983Y-104161637D01*
X147361302Y-103927988D01*
X146972756Y-103767047D01*
X146560279Y-103685000D01*
X146139721Y-103685000D01*
X145727244Y-103767047D01*
X145338698Y-103927988D01*
X144989017Y-104161637D01*
X144691637Y-104459017D01*
X144457988Y-104808698D01*
X144297047Y-105197244D01*
X144215000Y-105609721D01*
X125785000Y-105609721D01*
X125702953Y-105197244D01*
X125542012Y-104808698D01*
X125308363Y-104459017D01*
X125010983Y-104161637D01*
X124661302Y-103927988D01*
X124272756Y-103767047D01*
X123860279Y-103685000D01*
X123439721Y-103685000D01*
X123027244Y-103767047D01*
X122638698Y-103927988D01*
X122289017Y-104161637D01*
X121991637Y-104459017D01*
X121757988Y-104808698D01*
X121597047Y-105197244D01*
X121515000Y-105609721D01*
X118210000Y-105609721D01*
X118210000Y-101363589D01*
X120115000Y-101363589D01*
X120115000Y-101636411D01*
X120168225Y-101903989D01*
X120272629Y-102156043D01*
X120424201Y-102382886D01*
X120617114Y-102575799D01*
X120843957Y-102727371D01*
X121096011Y-102831775D01*
X121363589Y-102885000D01*
X121636411Y-102885000D01*
X121903989Y-102831775D01*
X122156043Y-102727371D01*
X122382886Y-102575799D01*
X122575799Y-102382886D01*
X122727371Y-102156043D01*
X122831775Y-101903989D01*
X122885000Y-101636411D01*
X122885000Y-101363589D01*
X123115000Y-101363589D01*
X123115000Y-101636411D01*
X123168225Y-101903989D01*
X123272629Y-102156043D01*
X123424201Y-102382886D01*
X123617114Y-102575799D01*
X123843957Y-102727371D01*
X124096011Y-102831775D01*
X124363589Y-102885000D01*
X124636411Y-102885000D01*
X124903989Y-102831775D01*
X125156043Y-102727371D01*
X125382886Y-102575799D01*
X125575799Y-102382886D01*
X125727371Y-102156043D01*
X125831775Y-101903989D01*
X125885000Y-101636411D01*
X125885000Y-101363589D01*
X126115000Y-101363589D01*
X126115000Y-101636411D01*
X126168225Y-101903989D01*
X126272629Y-102156043D01*
X126424201Y-102382886D01*
X126617114Y-102575799D01*
X126843957Y-102727371D01*
X127096011Y-102831775D01*
X127363589Y-102885000D01*
X127636411Y-102885000D01*
X127903989Y-102831775D01*
X128156043Y-102727371D01*
X128382886Y-102575799D01*
X128575799Y-102382886D01*
X128727371Y-102156043D01*
X128831775Y-101903989D01*
X128885000Y-101636411D01*
X128885000Y-101363589D01*
X129115000Y-101363589D01*
X129115000Y-101636411D01*
X129168225Y-101903989D01*
X129272629Y-102156043D01*
X129424201Y-102382886D01*
X129617114Y-102575799D01*
X129843957Y-102727371D01*
X130096011Y-102831775D01*
X130363589Y-102885000D01*
X130636411Y-102885000D01*
X130903989Y-102831775D01*
X131156043Y-102727371D01*
X131382886Y-102575799D01*
X131575799Y-102382886D01*
X131727371Y-102156043D01*
X131831775Y-101903989D01*
X131885000Y-101636411D01*
X131885000Y-101363589D01*
X132115000Y-101363589D01*
X132115000Y-101636411D01*
X132168225Y-101903989D01*
X132272629Y-102156043D01*
X132424201Y-102382886D01*
X132617114Y-102575799D01*
X132843957Y-102727371D01*
X133096011Y-102831775D01*
X133363589Y-102885000D01*
X133636411Y-102885000D01*
X133903989Y-102831775D01*
X134156043Y-102727371D01*
X134382886Y-102575799D01*
X134575799Y-102382886D01*
X134727371Y-102156043D01*
X134831775Y-101903989D01*
X134885000Y-101636411D01*
X134885000Y-101363589D01*
X135115000Y-101363589D01*
X135115000Y-101636411D01*
X135168225Y-101903989D01*
X135272629Y-102156043D01*
X135424201Y-102382886D01*
X135617114Y-102575799D01*
X135843957Y-102727371D01*
X136096011Y-102831775D01*
X136363589Y-102885000D01*
X136636411Y-102885000D01*
X136903989Y-102831775D01*
X137156043Y-102727371D01*
X137382886Y-102575799D01*
X137575799Y-102382886D01*
X137727371Y-102156043D01*
X137831775Y-101903989D01*
X137885000Y-101636411D01*
X137885000Y-101363589D01*
X138115000Y-101363589D01*
X138115000Y-101636411D01*
X138168225Y-101903989D01*
X138272629Y-102156043D01*
X138424201Y-102382886D01*
X138617114Y-102575799D01*
X138843957Y-102727371D01*
X139096011Y-102831775D01*
X139363589Y-102885000D01*
X139636411Y-102885000D01*
X139903989Y-102831775D01*
X140156043Y-102727371D01*
X140382886Y-102575799D01*
X140575799Y-102382886D01*
X140727371Y-102156043D01*
X140831775Y-101903989D01*
X140885000Y-101636411D01*
X140885000Y-101363589D01*
X141115000Y-101363589D01*
X141115000Y-101636411D01*
X141168225Y-101903989D01*
X141272629Y-102156043D01*
X141424201Y-102382886D01*
X141617114Y-102575799D01*
X141843957Y-102727371D01*
X142096011Y-102831775D01*
X142363589Y-102885000D01*
X142636411Y-102885000D01*
X142903989Y-102831775D01*
X143156043Y-102727371D01*
X143382886Y-102575799D01*
X143575799Y-102382886D01*
X143727371Y-102156043D01*
X143831775Y-101903989D01*
X143885000Y-101636411D01*
X143885000Y-101363589D01*
X144115000Y-101363589D01*
X144115000Y-101636411D01*
X144168225Y-101903989D01*
X144272629Y-102156043D01*
X144424201Y-102382886D01*
X144617114Y-102575799D01*
X144843957Y-102727371D01*
X145096011Y-102831775D01*
X145363589Y-102885000D01*
X145636411Y-102885000D01*
X145903989Y-102831775D01*
X146156043Y-102727371D01*
X146382886Y-102575799D01*
X146575799Y-102382886D01*
X146727371Y-102156043D01*
X146831775Y-101903989D01*
X146885000Y-101636411D01*
X146885000Y-101363589D01*
X146884766Y-101362408D01*
X147103000Y-101362408D01*
X147103000Y-101637592D01*
X147156686Y-101907490D01*
X147261995Y-102161727D01*
X147414880Y-102390535D01*
X147609465Y-102585120D01*
X147838273Y-102738005D01*
X148092510Y-102843314D01*
X148362408Y-102897000D01*
X148637592Y-102897000D01*
X148907490Y-102843314D01*
X149161727Y-102738005D01*
X149390535Y-102585120D01*
X149585120Y-102390535D01*
X149738005Y-102161727D01*
X149843314Y-101907490D01*
X149897000Y-101637592D01*
X149897000Y-101362408D01*
X149843314Y-101092510D01*
X149738005Y-100838273D01*
X149585120Y-100609465D01*
X149390535Y-100414880D01*
X149161727Y-100261995D01*
X148907490Y-100156686D01*
X148637592Y-100103000D01*
X148362408Y-100103000D01*
X148092510Y-100156686D01*
X147838273Y-100261995D01*
X147609465Y-100414880D01*
X147414880Y-100609465D01*
X147261995Y-100838273D01*
X147156686Y-101092510D01*
X147103000Y-101362408D01*
X146884766Y-101362408D01*
X146831775Y-101096011D01*
X146727371Y-100843957D01*
X146575799Y-100617114D01*
X146382886Y-100424201D01*
X146156043Y-100272629D01*
X145903989Y-100168225D01*
X145636411Y-100115000D01*
X145363589Y-100115000D01*
X145096011Y-100168225D01*
X144843957Y-100272629D01*
X144617114Y-100424201D01*
X144424201Y-100617114D01*
X144272629Y-100843957D01*
X144168225Y-101096011D01*
X144115000Y-101363589D01*
X143885000Y-101363589D01*
X143831775Y-101096011D01*
X143727371Y-100843957D01*
X143575799Y-100617114D01*
X143382886Y-100424201D01*
X143156043Y-100272629D01*
X142903989Y-100168225D01*
X142636411Y-100115000D01*
X142363589Y-100115000D01*
X142096011Y-100168225D01*
X141843957Y-100272629D01*
X141617114Y-100424201D01*
X141424201Y-100617114D01*
X141272629Y-100843957D01*
X141168225Y-101096011D01*
X141115000Y-101363589D01*
X140885000Y-101363589D01*
X140831775Y-101096011D01*
X140727371Y-100843957D01*
X140575799Y-100617114D01*
X140382886Y-100424201D01*
X140156043Y-100272629D01*
X139903989Y-100168225D01*
X139636411Y-100115000D01*
X139363589Y-100115000D01*
X139096011Y-100168225D01*
X138843957Y-100272629D01*
X138617114Y-100424201D01*
X138424201Y-100617114D01*
X138272629Y-100843957D01*
X138168225Y-101096011D01*
X138115000Y-101363589D01*
X137885000Y-101363589D01*
X137831775Y-101096011D01*
X137727371Y-100843957D01*
X137575799Y-100617114D01*
X137382886Y-100424201D01*
X137156043Y-100272629D01*
X136903989Y-100168225D01*
X136636411Y-100115000D01*
X136363589Y-100115000D01*
X136096011Y-100168225D01*
X135843957Y-100272629D01*
X135617114Y-100424201D01*
X135424201Y-100617114D01*
X135272629Y-100843957D01*
X135168225Y-101096011D01*
X135115000Y-101363589D01*
X134885000Y-101363589D01*
X134831775Y-101096011D01*
X134727371Y-100843957D01*
X134575799Y-100617114D01*
X134382886Y-100424201D01*
X134156043Y-100272629D01*
X133903989Y-100168225D01*
X133636411Y-100115000D01*
X133363589Y-100115000D01*
X133096011Y-100168225D01*
X132843957Y-100272629D01*
X132617114Y-100424201D01*
X132424201Y-100617114D01*
X132272629Y-100843957D01*
X132168225Y-101096011D01*
X132115000Y-101363589D01*
X131885000Y-101363589D01*
X131831775Y-101096011D01*
X131727371Y-100843957D01*
X131575799Y-100617114D01*
X131382886Y-100424201D01*
X131156043Y-100272629D01*
X130903989Y-100168225D01*
X130636411Y-100115000D01*
X130363589Y-100115000D01*
X130096011Y-100168225D01*
X129843957Y-100272629D01*
X129617114Y-100424201D01*
X129424201Y-100617114D01*
X129272629Y-100843957D01*
X129168225Y-101096011D01*
X129115000Y-101363589D01*
X128885000Y-101363589D01*
X128831775Y-101096011D01*
X128727371Y-100843957D01*
X128575799Y-100617114D01*
X128382886Y-100424201D01*
X128156043Y-100272629D01*
X127903989Y-100168225D01*
X127636411Y-100115000D01*
X127363589Y-100115000D01*
X127096011Y-100168225D01*
X126843957Y-100272629D01*
X126617114Y-100424201D01*
X126424201Y-100617114D01*
X126272629Y-100843957D01*
X126168225Y-101096011D01*
X126115000Y-101363589D01*
X125885000Y-101363589D01*
X125831775Y-101096011D01*
X125727371Y-100843957D01*
X125575799Y-100617114D01*
X125382886Y-100424201D01*
X125156043Y-100272629D01*
X124903989Y-100168225D01*
X124636411Y-100115000D01*
X124363589Y-100115000D01*
X124096011Y-100168225D01*
X123843957Y-100272629D01*
X123617114Y-100424201D01*
X123424201Y-100617114D01*
X123272629Y-100843957D01*
X123168225Y-101096011D01*
X123115000Y-101363589D01*
X122885000Y-101363589D01*
X122831775Y-101096011D01*
X122727371Y-100843957D01*
X122575799Y-100617114D01*
X122382886Y-100424201D01*
X122156043Y-100272629D01*
X121903989Y-100168225D01*
X121636411Y-100115000D01*
X121363589Y-100115000D01*
X121096011Y-100168225D01*
X120843957Y-100272629D01*
X120617114Y-100424201D01*
X120424201Y-100617114D01*
X120272629Y-100843957D01*
X120168225Y-101096011D01*
X120115000Y-101363589D01*
X118210000Y-101363589D01*
X118210000Y-97210000D01*
X120995157Y-97210000D01*
X120843957Y-97272629D01*
X120843957Y-97272629D01*
G37*
X120843957Y-97272629D02*
X120617114Y-97424201D01*
X120424201Y-97617114D01*
X120272629Y-97843957D01*
X120168225Y-98096011D01*
X120115000Y-98363589D01*
X120115000Y-98636411D01*
X120168225Y-98903989D01*
X120272629Y-99156043D01*
X120424201Y-99382886D01*
X120617114Y-99575799D01*
X120843957Y-99727371D01*
X121096011Y-99831775D01*
X121363589Y-99885000D01*
X121636411Y-99885000D01*
X121903989Y-99831775D01*
X122156043Y-99727371D01*
X122382886Y-99575799D01*
X122575799Y-99382886D01*
X122727371Y-99156043D01*
X122831775Y-98903989D01*
X122885000Y-98636411D01*
X122885000Y-98363589D01*
X122831775Y-98096011D01*
X122727371Y-97843957D01*
X122575799Y-97617114D01*
X122382886Y-97424201D01*
X122156043Y-97272629D01*
X122004843Y-97210000D01*
X123995157Y-97210000D01*
X123843957Y-97272629D01*
X123617114Y-97424201D01*
X123424201Y-97617114D01*
X123272629Y-97843957D01*
X123168225Y-98096011D01*
X123115000Y-98363589D01*
X123115000Y-98636411D01*
X123168225Y-98903989D01*
X123272629Y-99156043D01*
X123424201Y-99382886D01*
X123617114Y-99575799D01*
X123843957Y-99727371D01*
X124096011Y-99831775D01*
X124363589Y-99885000D01*
X124636411Y-99885000D01*
X124903989Y-99831775D01*
X125156043Y-99727371D01*
X125382886Y-99575799D01*
X125575799Y-99382886D01*
X125727371Y-99156043D01*
X125831775Y-98903989D01*
X125885000Y-98636411D01*
X125885000Y-98363589D01*
X125831775Y-98096011D01*
X125727371Y-97843957D01*
X125575799Y-97617114D01*
X125382886Y-97424201D01*
X125156043Y-97272629D01*
X125004843Y-97210000D01*
X126995157Y-97210000D01*
X126843957Y-97272629D01*
X126617114Y-97424201D01*
X126424201Y-97617114D01*
X126272629Y-97843957D01*
X126168225Y-98096011D01*
X126115000Y-98363589D01*
X126115000Y-98636411D01*
X126168225Y-98903989D01*
X126272629Y-99156043D01*
X126424201Y-99382886D01*
X126617114Y-99575799D01*
X126843957Y-99727371D01*
X127096011Y-99831775D01*
X127363589Y-99885000D01*
X127636411Y-99885000D01*
X127903989Y-99831775D01*
X128156043Y-99727371D01*
X128382886Y-99575799D01*
X128575799Y-99382886D01*
X128727371Y-99156043D01*
X128831775Y-98903989D01*
X128885000Y-98636411D01*
X128885000Y-98363589D01*
X128831775Y-98096011D01*
X128727371Y-97843957D01*
X128575799Y-97617114D01*
X128382886Y-97424201D01*
X128156043Y-97272629D01*
X128004843Y-97210000D01*
X129995157Y-97210000D01*
X129843957Y-97272629D01*
X129617114Y-97424201D01*
X129424201Y-97617114D01*
X129272629Y-97843957D01*
X129168225Y-98096011D01*
X129115000Y-98363589D01*
X129115000Y-98636411D01*
X129168225Y-98903989D01*
X129272629Y-99156043D01*
X129424201Y-99382886D01*
X129617114Y-99575799D01*
X129843957Y-99727371D01*
X130096011Y-99831775D01*
X130363589Y-99885000D01*
X130636411Y-99885000D01*
X130903989Y-99831775D01*
X131156043Y-99727371D01*
X131382886Y-99575799D01*
X131575799Y-99382886D01*
X131727371Y-99156043D01*
X131831775Y-98903989D01*
X131885000Y-98636411D01*
X131885000Y-98363589D01*
X131831775Y-98096011D01*
X131727371Y-97843957D01*
X131575799Y-97617114D01*
X131382886Y-97424201D01*
X131156043Y-97272629D01*
X131004843Y-97210000D01*
X132995157Y-97210000D01*
X132843957Y-97272629D01*
X132617114Y-97424201D01*
X132424201Y-97617114D01*
X132272629Y-97843957D01*
X132168225Y-98096011D01*
X132115000Y-98363589D01*
X132115000Y-98636411D01*
X132168225Y-98903989D01*
X132272629Y-99156043D01*
X132424201Y-99382886D01*
X132617114Y-99575799D01*
X132843957Y-99727371D01*
X133096011Y-99831775D01*
X133363589Y-99885000D01*
X133636411Y-99885000D01*
X133903989Y-99831775D01*
X134156043Y-99727371D01*
X134382886Y-99575799D01*
X134575799Y-99382886D01*
X134727371Y-99156043D01*
X134831775Y-98903989D01*
X134885000Y-98636411D01*
X134885000Y-98363589D01*
X134831775Y-98096011D01*
X134727371Y-97843957D01*
X134575799Y-97617114D01*
X134382886Y-97424201D01*
X134156043Y-97272629D01*
X134004843Y-97210000D01*
X135995157Y-97210000D01*
X135843957Y-97272629D01*
X135617114Y-97424201D01*
X135424201Y-97617114D01*
X135272629Y-97843957D01*
X135168225Y-98096011D01*
X135115000Y-98363589D01*
X135115000Y-98636411D01*
X135168225Y-98903989D01*
X135272629Y-99156043D01*
X135424201Y-99382886D01*
X135617114Y-99575799D01*
X135843957Y-99727371D01*
X136096011Y-99831775D01*
X136363589Y-99885000D01*
X136636411Y-99885000D01*
X136903989Y-99831775D01*
X137156043Y-99727371D01*
X137382886Y-99575799D01*
X137575799Y-99382886D01*
X137727371Y-99156043D01*
X137831775Y-98903989D01*
X137885000Y-98636411D01*
X137885000Y-98363589D01*
X137831775Y-98096011D01*
X137727371Y-97843957D01*
X137575799Y-97617114D01*
X137382886Y-97424201D01*
X137156043Y-97272629D01*
X137004843Y-97210000D01*
X138995157Y-97210000D01*
X138843957Y-97272629D01*
X138617114Y-97424201D01*
X138424201Y-97617114D01*
X138272629Y-97843957D01*
X138168225Y-98096011D01*
X138115000Y-98363589D01*
X138115000Y-98636411D01*
X138168225Y-98903989D01*
X138272629Y-99156043D01*
X138424201Y-99382886D01*
X138617114Y-99575799D01*
X138843957Y-99727371D01*
X139096011Y-99831775D01*
X139363589Y-99885000D01*
X139636411Y-99885000D01*
X139903989Y-99831775D01*
X140156043Y-99727371D01*
X140382886Y-99575799D01*
X140575799Y-99382886D01*
X140727371Y-99156043D01*
X140831775Y-98903989D01*
X140885000Y-98636411D01*
X140885000Y-98363589D01*
X140831775Y-98096011D01*
X140727371Y-97843957D01*
X140575799Y-97617114D01*
X140382886Y-97424201D01*
X140156043Y-97272629D01*
X140004843Y-97210000D01*
X141995157Y-97210000D01*
X141843957Y-97272629D01*
X141617114Y-97424201D01*
X141424201Y-97617114D01*
X141272629Y-97843957D01*
X141168225Y-98096011D01*
X141115000Y-98363589D01*
X141115000Y-98636411D01*
X141168225Y-98903989D01*
X141272629Y-99156043D01*
X141424201Y-99382886D01*
X141617114Y-99575799D01*
X141843957Y-99727371D01*
X142096011Y-99831775D01*
X142363589Y-99885000D01*
X142636411Y-99885000D01*
X142903989Y-99831775D01*
X143156043Y-99727371D01*
X143382886Y-99575799D01*
X143575799Y-99382886D01*
X143727371Y-99156043D01*
X143831775Y-98903989D01*
X143885000Y-98636411D01*
X143885000Y-98363589D01*
X143831775Y-98096011D01*
X143727371Y-97843957D01*
X143575799Y-97617114D01*
X143382886Y-97424201D01*
X143156043Y-97272629D01*
X143004843Y-97210000D01*
X144995157Y-97210000D01*
X144843957Y-97272629D01*
X144617114Y-97424201D01*
X144424201Y-97617114D01*
X144272629Y-97843957D01*
X144168225Y-98096011D01*
X144115000Y-98363589D01*
X144115000Y-98636411D01*
X144168225Y-98903989D01*
X144272629Y-99156043D01*
X144424201Y-99382886D01*
X144617114Y-99575799D01*
X144843957Y-99727371D01*
X145096011Y-99831775D01*
X145363589Y-99885000D01*
X145636411Y-99885000D01*
X145903989Y-99831775D01*
X146156043Y-99727371D01*
X146382886Y-99575799D01*
X146575799Y-99382886D01*
X146727371Y-99156043D01*
X146831775Y-98903989D01*
X146885000Y-98636411D01*
X146885000Y-98363589D01*
X146831775Y-98096011D01*
X146727371Y-97843957D01*
X146575799Y-97617114D01*
X146382886Y-97424201D01*
X146156043Y-97272629D01*
X146004843Y-97210000D01*
X147995157Y-97210000D01*
X147843957Y-97272629D01*
X147617114Y-97424201D01*
X147424201Y-97617114D01*
X147272629Y-97843957D01*
X147168225Y-98096011D01*
X147115000Y-98363589D01*
X147115000Y-98636411D01*
X147168225Y-98903989D01*
X147272629Y-99156043D01*
X147424201Y-99382886D01*
X147617114Y-99575799D01*
X147843957Y-99727371D01*
X148096011Y-99831775D01*
X148363589Y-99885000D01*
X148636411Y-99885000D01*
X148903989Y-99831775D01*
X149156043Y-99727371D01*
X149382886Y-99575799D01*
X149575799Y-99382886D01*
X149727371Y-99156043D01*
X149831775Y-98903989D01*
X149885000Y-98636411D01*
X149885000Y-98363589D01*
X149831775Y-98096011D01*
X149727371Y-97843957D01*
X149575799Y-97617114D01*
X149382886Y-97424201D01*
X149156043Y-97272629D01*
X149004843Y-97210000D01*
X151790000Y-97210000D01*
X151790001Y-139790000D01*
X118210000Y-139790000D01*
X118210000Y-135109721D01*
X121515000Y-135109721D01*
X121515000Y-135530279D01*
X121597047Y-135942756D01*
X121757988Y-136331302D01*
X121991637Y-136680983D01*
X122289017Y-136978363D01*
X122638698Y-137212012D01*
X123027244Y-137372953D01*
X123439721Y-137455000D01*
X123860279Y-137455000D01*
X124272756Y-137372953D01*
X124661302Y-137212012D01*
X125010983Y-136978363D01*
X125308363Y-136680983D01*
X125542012Y-136331302D01*
X125702953Y-135942756D01*
X125785000Y-135530279D01*
X125785000Y-135109721D01*
X144215000Y-135109721D01*
X144215000Y-135530279D01*
X144297047Y-135942756D01*
X144457988Y-136331302D01*
X144691637Y-136680983D01*
X144989017Y-136978363D01*
X145338698Y-137212012D01*
X145727244Y-137372953D01*
X146139721Y-137455000D01*
X146560279Y-137455000D01*
X146972756Y-137372953D01*
X147361302Y-137212012D01*
X147710983Y-136978363D01*
X148008363Y-136680983D01*
X148242012Y-136331302D01*
X148402953Y-135942756D01*
X148485000Y-135530279D01*
X148485000Y-135109721D01*
X148402953Y-134697244D01*
X148242012Y-134308698D01*
X148008363Y-133959017D01*
X147710983Y-133661637D01*
X147361302Y-133427988D01*
X146972756Y-133267047D01*
X146560279Y-133185000D01*
X146139721Y-133185000D01*
X145727244Y-133267047D01*
X145338698Y-133427988D01*
X144989017Y-133661637D01*
X144691637Y-133959017D01*
X144457988Y-134308698D01*
X144297047Y-134697244D01*
X144215000Y-135109721D01*
X125785000Y-135109721D01*
X125702953Y-134697244D01*
X125542012Y-134308698D01*
X125308363Y-133959017D01*
X125010983Y-133661637D01*
X124661302Y-133427988D01*
X124272756Y-133267047D01*
X123860279Y-133185000D01*
X123439721Y-133185000D01*
X123027244Y-133267047D01*
X122638698Y-133427988D01*
X122289017Y-133661637D01*
X121991637Y-133959017D01*
X121757988Y-134308698D01*
X121597047Y-134697244D01*
X121515000Y-135109721D01*
X118210000Y-135109721D01*
X118210000Y-131956993D01*
X120722612Y-131956993D01*
X120788137Y-132195860D01*
X121035116Y-132311760D01*
X121299960Y-132377250D01*
X121572492Y-132389812D01*
X121842238Y-132348965D01*
X122098832Y-132256277D01*
X122211863Y-132195860D01*
X122277388Y-131956993D01*
X123722612Y-131956993D01*
X123788137Y-132195860D01*
X124035116Y-132311760D01*
X124299960Y-132377250D01*
X124572492Y-132389812D01*
X124842238Y-132348965D01*
X125098832Y-132256277D01*
X125211863Y-132195860D01*
X125277388Y-131956993D01*
X126722612Y-131956993D01*
X126788137Y-132195860D01*
X127035116Y-132311760D01*
X127299960Y-132377250D01*
X127572492Y-132389812D01*
X127842238Y-132348965D01*
X128098832Y-132256277D01*
X128211863Y-132195860D01*
X128277388Y-131956993D01*
X129722612Y-131956993D01*
X129788137Y-132195860D01*
X130035116Y-132311760D01*
X130299960Y-132377250D01*
X130572492Y-132389812D01*
X130842238Y-132348965D01*
X131098832Y-132256277D01*
X131211863Y-132195860D01*
X131277388Y-131956993D01*
X132722612Y-131956993D01*
X132788137Y-132195860D01*
X133035116Y-132311760D01*
X133299960Y-132377250D01*
X133572492Y-132389812D01*
X133842238Y-132348965D01*
X134098832Y-132256277D01*
X134211863Y-132195860D01*
X134277388Y-131956993D01*
X135722612Y-131956993D01*
X135788137Y-132195860D01*
X136035116Y-132311760D01*
X136299960Y-132377250D01*
X136572492Y-132389812D01*
X136842238Y-132348965D01*
X137098832Y-132256277D01*
X137211863Y-132195860D01*
X137277388Y-131956993D01*
X138722612Y-131956993D01*
X138788137Y-132195860D01*
X139035116Y-132311760D01*
X139299960Y-132377250D01*
X139572492Y-132389812D01*
X139842238Y-132348965D01*
X140098832Y-132256277D01*
X140211863Y-132195860D01*
X140277388Y-131956993D01*
X141722612Y-131956993D01*
X141788137Y-132195860D01*
X142035116Y-132311760D01*
X142299960Y-132377250D01*
X142572492Y-132389812D01*
X142842238Y-132348965D01*
X143098832Y-132256277D01*
X143211863Y-132195860D01*
X143277388Y-131956993D01*
X144722612Y-131956993D01*
X144788137Y-132195860D01*
X145035116Y-132311760D01*
X145299960Y-132377250D01*
X145572492Y-132389812D01*
X145842238Y-132348965D01*
X146098832Y-132256277D01*
X146211863Y-132195860D01*
X146275036Y-131965565D01*
X147714040Y-131965565D01*
X147781020Y-132205656D01*
X148030048Y-132322756D01*
X148297135Y-132389023D01*
X148572017Y-132401910D01*
X148844133Y-132360922D01*
X149103023Y-132267636D01*
X149218980Y-132205656D01*
X149285960Y-131965565D01*
X148500000Y-131179605D01*
X147714040Y-131965565D01*
X146275036Y-131965565D01*
X146277388Y-131956993D01*
X145500000Y-131179605D01*
X144722612Y-131956993D01*
X143277388Y-131956993D01*
X142500000Y-131179605D01*
X141722612Y-131956993D01*
X140277388Y-131956993D01*
X139500000Y-131179605D01*
X138722612Y-131956993D01*
X137277388Y-131956993D01*
X136500000Y-131179605D01*
X135722612Y-131956993D01*
X134277388Y-131956993D01*
X133500000Y-131179605D01*
X132722612Y-131956993D01*
X131277388Y-131956993D01*
X130500000Y-131179605D01*
X129722612Y-131956993D01*
X128277388Y-131956993D01*
X127500000Y-131179605D01*
X126722612Y-131956993D01*
X125277388Y-131956993D01*
X124500000Y-131179605D01*
X123722612Y-131956993D01*
X122277388Y-131956993D01*
X121500000Y-131179605D01*
X120722612Y-131956993D01*
X118210000Y-131956993D01*
X118210000Y-131072492D01*
X120110188Y-131072492D01*
X120151035Y-131342238D01*
X120243723Y-131598832D01*
X120304140Y-131711863D01*
X120543007Y-131777388D01*
X121320395Y-131000000D01*
X121679605Y-131000000D01*
X122456993Y-131777388D01*
X122695860Y-131711863D01*
X122811760Y-131464884D01*
X122877250Y-131200040D01*
X122883129Y-131072492D01*
X123110188Y-131072492D01*
X123151035Y-131342238D01*
X123243723Y-131598832D01*
X123304140Y-131711863D01*
X123543007Y-131777388D01*
X124320395Y-131000000D01*
X124679605Y-131000000D01*
X125456993Y-131777388D01*
X125695860Y-131711863D01*
X125811760Y-131464884D01*
X125877250Y-131200040D01*
X125883129Y-131072492D01*
X126110188Y-131072492D01*
X126151035Y-131342238D01*
X126243723Y-131598832D01*
X126304140Y-131711863D01*
X126543007Y-131777388D01*
X127320395Y-131000000D01*
X127679605Y-131000000D01*
X128456993Y-131777388D01*
X128695860Y-131711863D01*
X128811760Y-131464884D01*
X128877250Y-131200040D01*
X128883129Y-131072492D01*
X129110188Y-131072492D01*
X129151035Y-131342238D01*
X129243723Y-131598832D01*
X129304140Y-131711863D01*
X129543007Y-131777388D01*
X130320395Y-131000000D01*
X130679605Y-131000000D01*
X131456993Y-131777388D01*
X131695860Y-131711863D01*
X131811760Y-131464884D01*
X131877250Y-131200040D01*
X131883129Y-131072492D01*
X132110188Y-131072492D01*
X132151035Y-131342238D01*
X132243723Y-131598832D01*
X132304140Y-131711863D01*
X132543007Y-131777388D01*
X133320395Y-131000000D01*
X133679605Y-131000000D01*
X134456993Y-131777388D01*
X134695860Y-131711863D01*
X134811760Y-131464884D01*
X134877250Y-131200040D01*
X134883129Y-131072492D01*
X135110188Y-131072492D01*
X135151035Y-131342238D01*
X135243723Y-131598832D01*
X135304140Y-131711863D01*
X135543007Y-131777388D01*
X136320395Y-131000000D01*
X136679605Y-131000000D01*
X137456993Y-131777388D01*
X137695860Y-131711863D01*
X137811760Y-131464884D01*
X137877250Y-131200040D01*
X137883129Y-131072492D01*
X138110188Y-131072492D01*
X138151035Y-131342238D01*
X138243723Y-131598832D01*
X138304140Y-131711863D01*
X138543007Y-131777388D01*
X139320395Y-131000000D01*
X139679605Y-131000000D01*
X140456993Y-131777388D01*
X140695860Y-131711863D01*
X140811760Y-131464884D01*
X140877250Y-131200040D01*
X140883129Y-131072492D01*
X141110188Y-131072492D01*
X141151035Y-131342238D01*
X141243723Y-131598832D01*
X141304140Y-131711863D01*
X141543007Y-131777388D01*
X142320395Y-131000000D01*
X142679605Y-131000000D01*
X143456993Y-131777388D01*
X143695860Y-131711863D01*
X143811760Y-131464884D01*
X143877250Y-131200040D01*
X143883129Y-131072492D01*
X144110188Y-131072492D01*
X144151035Y-131342238D01*
X144243723Y-131598832D01*
X144304140Y-131711863D01*
X144543007Y-131777388D01*
X145320395Y-131000000D01*
X145679605Y-131000000D01*
X146456993Y-131777388D01*
X146695860Y-131711863D01*
X146811760Y-131464884D01*
X146877250Y-131200040D01*
X146883151Y-131072017D01*
X147098090Y-131072017D01*
X147139078Y-131344133D01*
X147232364Y-131603023D01*
X147294344Y-131718980D01*
X147534435Y-131785960D01*
X148320395Y-131000000D01*
X148679605Y-131000000D01*
X149465565Y-131785960D01*
X149705656Y-131718980D01*
X149822756Y-131469952D01*
X149889023Y-131202865D01*
X149901910Y-130927983D01*
X149860922Y-130655867D01*
X149767636Y-130396977D01*
X149705656Y-130281020D01*
X149465565Y-130214040D01*
X148679605Y-131000000D01*
X148320395Y-131000000D01*
X147534435Y-130214040D01*
X147294344Y-130281020D01*
X147177244Y-130530048D01*
X147110977Y-130797135D01*
X147098090Y-131072017D01*
X146883151Y-131072017D01*
X146889812Y-130927508D01*
X146848965Y-130657762D01*
X146756277Y-130401168D01*
X146695860Y-130288137D01*
X146456993Y-130222612D01*
X145679605Y-131000000D01*
X145320395Y-131000000D01*
X144543007Y-130222612D01*
X144304140Y-130288137D01*
X144188240Y-130535116D01*
X144122750Y-130799960D01*
X144110188Y-131072492D01*
X143883129Y-131072492D01*
X143889812Y-130927508D01*
X143848965Y-130657762D01*
X143756277Y-130401168D01*
X143695860Y-130288137D01*
X143456993Y-130222612D01*
X142679605Y-131000000D01*
X142320395Y-131000000D01*
X141543007Y-130222612D01*
X141304140Y-130288137D01*
X141188240Y-130535116D01*
X141122750Y-130799960D01*
X141110188Y-131072492D01*
X140883129Y-131072492D01*
X140889812Y-130927508D01*
X140848965Y-130657762D01*
X140756277Y-130401168D01*
X140695860Y-130288137D01*
X140456993Y-130222612D01*
X139679605Y-131000000D01*
X139320395Y-131000000D01*
X138543007Y-130222612D01*
X138304140Y-130288137D01*
X138188240Y-130535116D01*
X138122750Y-130799960D01*
X138110188Y-131072492D01*
X137883129Y-131072492D01*
X137889812Y-130927508D01*
X137848965Y-130657762D01*
X137756277Y-130401168D01*
X137695860Y-130288137D01*
X137456993Y-130222612D01*
X136679605Y-131000000D01*
X136320395Y-131000000D01*
X135543007Y-130222612D01*
X135304140Y-130288137D01*
X135188240Y-130535116D01*
X135122750Y-130799960D01*
X135110188Y-131072492D01*
X134883129Y-131072492D01*
X134889812Y-130927508D01*
X134848965Y-130657762D01*
X134756277Y-130401168D01*
X134695860Y-130288137D01*
X134456993Y-130222612D01*
X133679605Y-131000000D01*
X133320395Y-131000000D01*
X132543007Y-130222612D01*
X132304140Y-130288137D01*
X132188240Y-130535116D01*
X132122750Y-130799960D01*
X132110188Y-131072492D01*
X131883129Y-131072492D01*
X131889812Y-130927508D01*
X131848965Y-130657762D01*
X131756277Y-130401168D01*
X131695860Y-130288137D01*
X131456993Y-130222612D01*
X130679605Y-131000000D01*
X130320395Y-131000000D01*
X129543007Y-130222612D01*
X129304140Y-130288137D01*
X129188240Y-130535116D01*
X129122750Y-130799960D01*
X129110188Y-131072492D01*
X128883129Y-131072492D01*
X128889812Y-130927508D01*
X128848965Y-130657762D01*
X128756277Y-130401168D01*
X128695860Y-130288137D01*
X128456993Y-130222612D01*
X127679605Y-131000000D01*
X127320395Y-131000000D01*
X126543007Y-130222612D01*
X126304140Y-130288137D01*
X126188240Y-130535116D01*
X126122750Y-130799960D01*
X126110188Y-131072492D01*
X125883129Y-131072492D01*
X125889812Y-130927508D01*
X125848965Y-130657762D01*
X125756277Y-130401168D01*
X125695860Y-130288137D01*
X125456993Y-130222612D01*
X124679605Y-131000000D01*
X124320395Y-131000000D01*
X123543007Y-130222612D01*
X123304140Y-130288137D01*
X123188240Y-130535116D01*
X123122750Y-130799960D01*
X123110188Y-131072492D01*
X122883129Y-131072492D01*
X122889812Y-130927508D01*
X122848965Y-130657762D01*
X122756277Y-130401168D01*
X122695860Y-130288137D01*
X122456993Y-130222612D01*
X121679605Y-131000000D01*
X121320395Y-131000000D01*
X120543007Y-130222612D01*
X120304140Y-130288137D01*
X120188240Y-130535116D01*
X120122750Y-130799960D01*
X120110188Y-131072492D01*
X118210000Y-131072492D01*
X118210000Y-130043007D01*
X120722612Y-130043007D01*
X121500000Y-130820395D01*
X122277388Y-130043007D01*
X123722612Y-130043007D01*
X124500000Y-130820395D01*
X125277388Y-130043007D01*
X126722612Y-130043007D01*
X127500000Y-130820395D01*
X128277388Y-130043007D01*
X129722612Y-130043007D01*
X130500000Y-130820395D01*
X131277388Y-130043007D01*
X132722612Y-130043007D01*
X133500000Y-130820395D01*
X134277388Y-130043007D01*
X135722612Y-130043007D01*
X136500000Y-130820395D01*
X137277388Y-130043007D01*
X138722612Y-130043007D01*
X139500000Y-130820395D01*
X140277388Y-130043007D01*
X141722612Y-130043007D01*
X142500000Y-130820395D01*
X143277388Y-130043007D01*
X144722612Y-130043007D01*
X145500000Y-130820395D01*
X146277388Y-130043007D01*
X146275037Y-130034435D01*
X147714040Y-130034435D01*
X148500000Y-130820395D01*
X149285960Y-130034435D01*
X149218980Y-129794344D01*
X148969952Y-129677244D01*
X148702865Y-129610977D01*
X148427983Y-129598090D01*
X148155867Y-129639078D01*
X147896977Y-129732364D01*
X147781020Y-129794344D01*
X147714040Y-130034435D01*
X146275037Y-130034435D01*
X146211863Y-129804140D01*
X145964884Y-129688240D01*
X145700040Y-129622750D01*
X145427508Y-129610188D01*
X145157762Y-129651035D01*
X144901168Y-129743723D01*
X144788137Y-129804140D01*
X144722612Y-130043007D01*
X143277388Y-130043007D01*
X143211863Y-129804140D01*
X142964884Y-129688240D01*
X142700040Y-129622750D01*
X142427508Y-129610188D01*
X142157762Y-129651035D01*
X141901168Y-129743723D01*
X141788137Y-129804140D01*
X141722612Y-130043007D01*
X140277388Y-130043007D01*
X140211863Y-129804140D01*
X139964884Y-129688240D01*
X139700040Y-129622750D01*
X139427508Y-129610188D01*
X139157762Y-129651035D01*
X138901168Y-129743723D01*
X138788137Y-129804140D01*
X138722612Y-130043007D01*
X137277388Y-130043007D01*
X137211863Y-129804140D01*
X136964884Y-129688240D01*
X136700040Y-129622750D01*
X136427508Y-129610188D01*
X136157762Y-129651035D01*
X135901168Y-129743723D01*
X135788137Y-129804140D01*
X135722612Y-130043007D01*
X134277388Y-130043007D01*
X134211863Y-129804140D01*
X133964884Y-129688240D01*
X133700040Y-129622750D01*
X133427508Y-129610188D01*
X133157762Y-129651035D01*
X132901168Y-129743723D01*
X132788137Y-129804140D01*
X132722612Y-130043007D01*
X131277388Y-130043007D01*
X131211863Y-129804140D01*
X130964884Y-129688240D01*
X130700040Y-129622750D01*
X130427508Y-129610188D01*
X130157762Y-129651035D01*
X129901168Y-129743723D01*
X129788137Y-129804140D01*
X129722612Y-130043007D01*
X128277388Y-130043007D01*
X128211863Y-129804140D01*
X127964884Y-129688240D01*
X127700040Y-129622750D01*
X127427508Y-129610188D01*
X127157762Y-129651035D01*
X126901168Y-129743723D01*
X126788137Y-129804140D01*
X126722612Y-130043007D01*
X125277388Y-130043007D01*
X125211863Y-129804140D01*
X124964884Y-129688240D01*
X124700040Y-129622750D01*
X124427508Y-129610188D01*
X124157762Y-129651035D01*
X123901168Y-129743723D01*
X123788137Y-129804140D01*
X123722612Y-130043007D01*
X122277388Y-130043007D01*
X122211863Y-129804140D01*
X121964884Y-129688240D01*
X121700040Y-129622750D01*
X121427508Y-129610188D01*
X121157762Y-129651035D01*
X120901168Y-129743723D01*
X120788137Y-129804140D01*
X120722612Y-130043007D01*
X118210000Y-130043007D01*
X118210000Y-128956993D01*
X120722612Y-128956993D01*
X120788137Y-129195860D01*
X121035116Y-129311760D01*
X121299960Y-129377250D01*
X121572492Y-129389812D01*
X121842238Y-129348965D01*
X122098832Y-129256277D01*
X122211863Y-129195860D01*
X122277388Y-128956993D01*
X123722612Y-128956993D01*
X123788137Y-129195860D01*
X124035116Y-129311760D01*
X124299960Y-129377250D01*
X124572492Y-129389812D01*
X124842238Y-129348965D01*
X125098832Y-129256277D01*
X125211863Y-129195860D01*
X125277388Y-128956993D01*
X126722612Y-128956993D01*
X126788137Y-129195860D01*
X127035116Y-129311760D01*
X127299960Y-129377250D01*
X127572492Y-129389812D01*
X127842238Y-129348965D01*
X128098832Y-129256277D01*
X128211863Y-129195860D01*
X128277388Y-128956993D01*
X129722612Y-128956993D01*
X129788137Y-129195860D01*
X130035116Y-129311760D01*
X130299960Y-129377250D01*
X130572492Y-129389812D01*
X130842238Y-129348965D01*
X131098832Y-129256277D01*
X131211863Y-129195860D01*
X131277388Y-128956993D01*
X132722612Y-128956993D01*
X132788137Y-129195860D01*
X133035116Y-129311760D01*
X133299960Y-129377250D01*
X133572492Y-129389812D01*
X133842238Y-129348965D01*
X134098832Y-129256277D01*
X134211863Y-129195860D01*
X134277388Y-128956993D01*
X135722612Y-128956993D01*
X135788137Y-129195860D01*
X136035116Y-129311760D01*
X136299960Y-129377250D01*
X136572492Y-129389812D01*
X136842238Y-129348965D01*
X137098832Y-129256277D01*
X137211863Y-129195860D01*
X137277388Y-128956993D01*
X138722612Y-128956993D01*
X138788137Y-129195860D01*
X139035116Y-129311760D01*
X139299960Y-129377250D01*
X139572492Y-129389812D01*
X139842238Y-129348965D01*
X140098832Y-129256277D01*
X140211863Y-129195860D01*
X140277388Y-128956993D01*
X141722612Y-128956993D01*
X141788137Y-129195860D01*
X142035116Y-129311760D01*
X142299960Y-129377250D01*
X142572492Y-129389812D01*
X142842238Y-129348965D01*
X143098832Y-129256277D01*
X143211863Y-129195860D01*
X143277388Y-128956993D01*
X144722612Y-128956993D01*
X144788137Y-129195860D01*
X145035116Y-129311760D01*
X145299960Y-129377250D01*
X145572492Y-129389812D01*
X145842238Y-129348965D01*
X146098832Y-129256277D01*
X146211863Y-129195860D01*
X146277388Y-128956993D01*
X147722612Y-128956993D01*
X147788137Y-129195860D01*
X148035116Y-129311760D01*
X148299960Y-129377250D01*
X148572492Y-129389812D01*
X148842238Y-129348965D01*
X149098832Y-129256277D01*
X149211863Y-129195860D01*
X149277388Y-128956993D01*
X148500000Y-128179605D01*
X147722612Y-128956993D01*
X146277388Y-128956993D01*
X145500000Y-128179605D01*
X144722612Y-128956993D01*
X143277388Y-128956993D01*
X142500000Y-128179605D01*
X141722612Y-128956993D01*
X140277388Y-128956993D01*
X139500000Y-128179605D01*
X138722612Y-128956993D01*
X137277388Y-128956993D01*
X136500000Y-128179605D01*
X135722612Y-128956993D01*
X134277388Y-128956993D01*
X133500000Y-128179605D01*
X132722612Y-128956993D01*
X131277388Y-128956993D01*
X130500000Y-128179605D01*
X129722612Y-128956993D01*
X128277388Y-128956993D01*
X127500000Y-128179605D01*
X126722612Y-128956993D01*
X125277388Y-128956993D01*
X124500000Y-128179605D01*
X123722612Y-128956993D01*
X122277388Y-128956993D01*
X121500000Y-128179605D01*
X120722612Y-128956993D01*
X118210000Y-128956993D01*
X118210000Y-128072492D01*
X120110188Y-128072492D01*
X120151035Y-128342238D01*
X120243723Y-128598832D01*
X120304140Y-128711863D01*
X120543007Y-128777388D01*
X121320395Y-128000000D01*
X121679605Y-128000000D01*
X122456993Y-128777388D01*
X122695860Y-128711863D01*
X122811760Y-128464884D01*
X122877250Y-128200040D01*
X122883129Y-128072492D01*
X123110188Y-128072492D01*
X123151035Y-128342238D01*
X123243723Y-128598832D01*
X123304140Y-128711863D01*
X123543007Y-128777388D01*
X124320395Y-128000000D01*
X124679605Y-128000000D01*
X125456993Y-128777388D01*
X125695860Y-128711863D01*
X125811760Y-128464884D01*
X125877250Y-128200040D01*
X125883129Y-128072492D01*
X126110188Y-128072492D01*
X126151035Y-128342238D01*
X126243723Y-128598832D01*
X126304140Y-128711863D01*
X126543007Y-128777388D01*
X127320395Y-128000000D01*
X127679605Y-128000000D01*
X128456993Y-128777388D01*
X128695860Y-128711863D01*
X128811760Y-128464884D01*
X128877250Y-128200040D01*
X128883129Y-128072492D01*
X129110188Y-128072492D01*
X129151035Y-128342238D01*
X129243723Y-128598832D01*
X129304140Y-128711863D01*
X129543007Y-128777388D01*
X130320395Y-128000000D01*
X130679605Y-128000000D01*
X131456993Y-128777388D01*
X131695860Y-128711863D01*
X131811760Y-128464884D01*
X131877250Y-128200040D01*
X131883129Y-128072492D01*
X132110188Y-128072492D01*
X132151035Y-128342238D01*
X132243723Y-128598832D01*
X132304140Y-128711863D01*
X132543007Y-128777388D01*
X133320395Y-128000000D01*
X133679605Y-128000000D01*
X134456993Y-128777388D01*
X134695860Y-128711863D01*
X134811760Y-128464884D01*
X134877250Y-128200040D01*
X134883129Y-128072492D01*
X135110188Y-128072492D01*
X135151035Y-128342238D01*
X135243723Y-128598832D01*
X135304140Y-128711863D01*
X135543007Y-128777388D01*
X136320395Y-128000000D01*
X136679605Y-128000000D01*
X137456993Y-128777388D01*
X137695860Y-128711863D01*
X137811760Y-128464884D01*
X137877250Y-128200040D01*
X137883129Y-128072492D01*
X138110188Y-128072492D01*
X138151035Y-128342238D01*
X138243723Y-128598832D01*
X138304140Y-128711863D01*
X138543007Y-128777388D01*
X139320395Y-128000000D01*
X139679605Y-128000000D01*
X140456993Y-128777388D01*
X140695860Y-128711863D01*
X140811760Y-128464884D01*
X140877250Y-128200040D01*
X140883129Y-128072492D01*
X141110188Y-128072492D01*
X141151035Y-128342238D01*
X141243723Y-128598832D01*
X141304140Y-128711863D01*
X141543007Y-128777388D01*
X142320395Y-128000000D01*
X142679605Y-128000000D01*
X143456993Y-128777388D01*
X143695860Y-128711863D01*
X143811760Y-128464884D01*
X143877250Y-128200040D01*
X143883129Y-128072492D01*
X144110188Y-128072492D01*
X144151035Y-128342238D01*
X144243723Y-128598832D01*
X144304140Y-128711863D01*
X144543007Y-128777388D01*
X145320395Y-128000000D01*
X145679605Y-128000000D01*
X146456993Y-128777388D01*
X146695860Y-128711863D01*
X146811760Y-128464884D01*
X146877250Y-128200040D01*
X146883129Y-128072492D01*
X147110188Y-128072492D01*
X147151035Y-128342238D01*
X147243723Y-128598832D01*
X147304140Y-128711863D01*
X147543007Y-128777388D01*
X148320395Y-128000000D01*
X148679605Y-128000000D01*
X149456993Y-128777388D01*
X149695860Y-128711863D01*
X149811760Y-128464884D01*
X149877250Y-128200040D01*
X149889812Y-127927508D01*
X149848965Y-127657762D01*
X149756277Y-127401168D01*
X149695860Y-127288137D01*
X149456993Y-127222612D01*
X148679605Y-128000000D01*
X148320395Y-128000000D01*
X147543007Y-127222612D01*
X147304140Y-127288137D01*
X147188240Y-127535116D01*
X147122750Y-127799960D01*
X147110188Y-128072492D01*
X146883129Y-128072492D01*
X146889812Y-127927508D01*
X146848965Y-127657762D01*
X146756277Y-127401168D01*
X146695860Y-127288137D01*
X146456993Y-127222612D01*
X145679605Y-128000000D01*
X145320395Y-128000000D01*
X144543007Y-127222612D01*
X144304140Y-127288137D01*
X144188240Y-127535116D01*
X144122750Y-127799960D01*
X144110188Y-128072492D01*
X143883129Y-128072492D01*
X143889812Y-127927508D01*
X143848965Y-127657762D01*
X143756277Y-127401168D01*
X143695860Y-127288137D01*
X143456993Y-127222612D01*
X142679605Y-128000000D01*
X142320395Y-128000000D01*
X141543007Y-127222612D01*
X141304140Y-127288137D01*
X141188240Y-127535116D01*
X141122750Y-127799960D01*
X141110188Y-128072492D01*
X140883129Y-128072492D01*
X140889812Y-127927508D01*
X140848965Y-127657762D01*
X140756277Y-127401168D01*
X140695860Y-127288137D01*
X140456993Y-127222612D01*
X139679605Y-128000000D01*
X139320395Y-128000000D01*
X138543007Y-127222612D01*
X138304140Y-127288137D01*
X138188240Y-127535116D01*
X138122750Y-127799960D01*
X138110188Y-128072492D01*
X137883129Y-128072492D01*
X137889812Y-127927508D01*
X137848965Y-127657762D01*
X137756277Y-127401168D01*
X137695860Y-127288137D01*
X137456993Y-127222612D01*
X136679605Y-128000000D01*
X136320395Y-128000000D01*
X135543007Y-127222612D01*
X135304140Y-127288137D01*
X135188240Y-127535116D01*
X135122750Y-127799960D01*
X135110188Y-128072492D01*
X134883129Y-128072492D01*
X134889812Y-127927508D01*
X134848965Y-127657762D01*
X134756277Y-127401168D01*
X134695860Y-127288137D01*
X134456993Y-127222612D01*
X133679605Y-128000000D01*
X133320395Y-128000000D01*
X132543007Y-127222612D01*
X132304140Y-127288137D01*
X132188240Y-127535116D01*
X132122750Y-127799960D01*
X132110188Y-128072492D01*
X131883129Y-128072492D01*
X131889812Y-127927508D01*
X131848965Y-127657762D01*
X131756277Y-127401168D01*
X131695860Y-127288137D01*
X131456993Y-127222612D01*
X130679605Y-128000000D01*
X130320395Y-128000000D01*
X129543007Y-127222612D01*
X129304140Y-127288137D01*
X129188240Y-127535116D01*
X129122750Y-127799960D01*
X129110188Y-128072492D01*
X128883129Y-128072492D01*
X128889812Y-127927508D01*
X128848965Y-127657762D01*
X128756277Y-127401168D01*
X128695860Y-127288137D01*
X128456993Y-127222612D01*
X127679605Y-128000000D01*
X127320395Y-128000000D01*
X126543007Y-127222612D01*
X126304140Y-127288137D01*
X126188240Y-127535116D01*
X126122750Y-127799960D01*
X126110188Y-128072492D01*
X125883129Y-128072492D01*
X125889812Y-127927508D01*
X125848965Y-127657762D01*
X125756277Y-127401168D01*
X125695860Y-127288137D01*
X125456993Y-127222612D01*
X124679605Y-128000000D01*
X124320395Y-128000000D01*
X123543007Y-127222612D01*
X123304140Y-127288137D01*
X123188240Y-127535116D01*
X123122750Y-127799960D01*
X123110188Y-128072492D01*
X122883129Y-128072492D01*
X122889812Y-127927508D01*
X122848965Y-127657762D01*
X122756277Y-127401168D01*
X122695860Y-127288137D01*
X122456993Y-127222612D01*
X121679605Y-128000000D01*
X121320395Y-128000000D01*
X120543007Y-127222612D01*
X120304140Y-127288137D01*
X120188240Y-127535116D01*
X120122750Y-127799960D01*
X120110188Y-128072492D01*
X118210000Y-128072492D01*
X118210000Y-127043007D01*
X120722612Y-127043007D01*
X121500000Y-127820395D01*
X122277388Y-127043007D01*
X123722612Y-127043007D01*
X124500000Y-127820395D01*
X125277388Y-127043007D01*
X126722612Y-127043007D01*
X127500000Y-127820395D01*
X128277388Y-127043007D01*
X129722612Y-127043007D01*
X130500000Y-127820395D01*
X131277388Y-127043007D01*
X132722612Y-127043007D01*
X133500000Y-127820395D01*
X134277388Y-127043007D01*
X135722612Y-127043007D01*
X136500000Y-127820395D01*
X137277388Y-127043007D01*
X138722612Y-127043007D01*
X139500000Y-127820395D01*
X140277388Y-127043007D01*
X141722612Y-127043007D01*
X142500000Y-127820395D01*
X143277388Y-127043007D01*
X144722612Y-127043007D01*
X145500000Y-127820395D01*
X146277388Y-127043007D01*
X147722612Y-127043007D01*
X148500000Y-127820395D01*
X149277388Y-127043007D01*
X149211863Y-126804140D01*
X148964884Y-126688240D01*
X148700040Y-126622750D01*
X148427508Y-126610188D01*
X148157762Y-126651035D01*
X147901168Y-126743723D01*
X147788137Y-126804140D01*
X147722612Y-127043007D01*
X146277388Y-127043007D01*
X146211863Y-126804140D01*
X145964884Y-126688240D01*
X145700040Y-126622750D01*
X145427508Y-126610188D01*
X145157762Y-126651035D01*
X144901168Y-126743723D01*
X144788137Y-126804140D01*
X144722612Y-127043007D01*
X143277388Y-127043007D01*
X143211863Y-126804140D01*
X142964884Y-126688240D01*
X142700040Y-126622750D01*
X142427508Y-126610188D01*
X142157762Y-126651035D01*
X141901168Y-126743723D01*
X141788137Y-126804140D01*
X141722612Y-127043007D01*
X140277388Y-127043007D01*
X140211863Y-126804140D01*
X139964884Y-126688240D01*
X139700040Y-126622750D01*
X139427508Y-126610188D01*
X139157762Y-126651035D01*
X138901168Y-126743723D01*
X138788137Y-126804140D01*
X138722612Y-127043007D01*
X137277388Y-127043007D01*
X137211863Y-126804140D01*
X136964884Y-126688240D01*
X136700040Y-126622750D01*
X136427508Y-126610188D01*
X136157762Y-126651035D01*
X135901168Y-126743723D01*
X135788137Y-126804140D01*
X135722612Y-127043007D01*
X134277388Y-127043007D01*
X134211863Y-126804140D01*
X133964884Y-126688240D01*
X133700040Y-126622750D01*
X133427508Y-126610188D01*
X133157762Y-126651035D01*
X132901168Y-126743723D01*
X132788137Y-126804140D01*
X132722612Y-127043007D01*
X131277388Y-127043007D01*
X131211863Y-126804140D01*
X130964884Y-126688240D01*
X130700040Y-126622750D01*
X130427508Y-126610188D01*
X130157762Y-126651035D01*
X129901168Y-126743723D01*
X129788137Y-126804140D01*
X129722612Y-127043007D01*
X128277388Y-127043007D01*
X128211863Y-126804140D01*
X127964884Y-126688240D01*
X127700040Y-126622750D01*
X127427508Y-126610188D01*
X127157762Y-126651035D01*
X126901168Y-126743723D01*
X126788137Y-126804140D01*
X126722612Y-127043007D01*
X125277388Y-127043007D01*
X125211863Y-126804140D01*
X124964884Y-126688240D01*
X124700040Y-126622750D01*
X124427508Y-126610188D01*
X124157762Y-126651035D01*
X123901168Y-126743723D01*
X123788137Y-126804140D01*
X123722612Y-127043007D01*
X122277388Y-127043007D01*
X122211863Y-126804140D01*
X121964884Y-126688240D01*
X121700040Y-126622750D01*
X121427508Y-126610188D01*
X121157762Y-126651035D01*
X120901168Y-126743723D01*
X120788137Y-126804140D01*
X120722612Y-127043007D01*
X118210000Y-127043007D01*
X118210000Y-123966051D01*
X118230422Y-123986473D01*
X118438429Y-124125459D01*
X118669555Y-124221195D01*
X118914916Y-124270000D01*
X119165084Y-124270000D01*
X119410445Y-124221195D01*
X119641571Y-124125459D01*
X119849578Y-123986473D01*
X119987604Y-123848447D01*
X133633158Y-123848447D01*
X133777135Y-124153770D01*
X134134892Y-124334597D01*
X134521053Y-124442155D01*
X134920777Y-124472310D01*
X135318704Y-124423904D01*
X135699540Y-124298795D01*
X135970865Y-124153770D01*
X136114842Y-123848447D01*
X134874000Y-122607605D01*
X133633158Y-123848447D01*
X119987604Y-123848447D01*
X120026473Y-123809578D01*
X120165459Y-123601571D01*
X120261195Y-123370445D01*
X120310000Y-123125084D01*
X120310000Y-122874916D01*
X120261195Y-122629555D01*
X120197084Y-122474777D01*
X132829690Y-122474777D01*
X132878096Y-122872704D01*
X133003205Y-123253540D01*
X133148230Y-123524865D01*
X133453553Y-123668842D01*
X134694395Y-122428000D01*
X135053605Y-122428000D01*
X136294447Y-123668842D01*
X136599770Y-123524865D01*
X136780597Y-123167108D01*
X136888155Y-122780947D01*
X136918310Y-122381223D01*
X136869904Y-121983296D01*
X136744795Y-121602460D01*
X136599770Y-121331135D01*
X136294447Y-121187158D01*
X135053605Y-122428000D01*
X134694395Y-122428000D01*
X133453553Y-121187158D01*
X133148230Y-121331135D01*
X132967403Y-121688892D01*
X132859845Y-122075053D01*
X132829690Y-122474777D01*
X120197084Y-122474777D01*
X120165459Y-122398429D01*
X120026473Y-122190422D01*
X119849578Y-122013527D01*
X119641571Y-121874541D01*
X119410445Y-121778805D01*
X119165084Y-121730000D01*
X118914916Y-121730000D01*
X118669555Y-121778805D01*
X118438429Y-121874541D01*
X118230422Y-122013527D01*
X118210000Y-122033949D01*
X118210000Y-121028397D01*
X120151208Y-121028397D01*
X120228843Y-121277472D01*
X120492883Y-121403371D01*
X120776411Y-121475339D01*
X121068531Y-121490611D01*
X121358019Y-121448599D01*
X121633747Y-121350919D01*
X121771157Y-121277472D01*
X121848792Y-121028397D01*
X121827948Y-121007553D01*
X133633158Y-121007553D01*
X134874000Y-122248395D01*
X136114842Y-121007553D01*
X135970865Y-120702230D01*
X135613108Y-120521403D01*
X135226947Y-120413845D01*
X134827223Y-120383690D01*
X134429296Y-120432096D01*
X134048460Y-120557205D01*
X133777135Y-120702230D01*
X133633158Y-121007553D01*
X121827948Y-121007553D01*
X121000000Y-120179605D01*
X120151208Y-121028397D01*
X118210000Y-121028397D01*
X118210000Y-120068531D01*
X119509389Y-120068531D01*
X119551401Y-120358019D01*
X119649081Y-120633747D01*
X119722528Y-120771157D01*
X119971603Y-120848792D01*
X120820395Y-120000000D01*
X121179605Y-120000000D01*
X122028397Y-120848792D01*
X122277472Y-120771157D01*
X122403371Y-120507117D01*
X122475339Y-120223589D01*
X122490611Y-119931469D01*
X122448599Y-119641981D01*
X122350919Y-119366253D01*
X122277472Y-119228843D01*
X122028397Y-119151208D01*
X121179605Y-120000000D01*
X120820395Y-120000000D01*
X119971603Y-119151208D01*
X119722528Y-119228843D01*
X119596629Y-119492883D01*
X119524661Y-119776411D01*
X119509389Y-120068531D01*
X118210000Y-120068531D01*
X118210000Y-118971603D01*
X120151208Y-118971603D01*
X121000000Y-119820395D01*
X121848792Y-118971603D01*
X121771157Y-118722528D01*
X121507117Y-118596629D01*
X121223589Y-118524661D01*
X120931469Y-118509389D01*
X120641981Y-118551401D01*
X120366253Y-118649081D01*
X120228843Y-118722528D01*
X120151208Y-118971603D01*
X118210000Y-118971603D01*
X118210000Y-116853740D01*
X119515000Y-116853740D01*
X119515000Y-117146260D01*
X119572068Y-117433158D01*
X119684010Y-117703411D01*
X119846525Y-117946632D01*
X120053368Y-118153475D01*
X120296589Y-118315990D01*
X120566842Y-118427932D01*
X120853740Y-118485000D01*
X121146260Y-118485000D01*
X121433158Y-118427932D01*
X121481951Y-118407721D01*
X125865000Y-118407721D01*
X125865000Y-118828279D01*
X125947047Y-119240756D01*
X126107988Y-119629302D01*
X126341637Y-119978983D01*
X126639017Y-120276363D01*
X126988698Y-120510012D01*
X127377244Y-120670953D01*
X127789721Y-120753000D01*
X128210279Y-120753000D01*
X128622756Y-120670953D01*
X129011302Y-120510012D01*
X129360983Y-120276363D01*
X129658363Y-119978983D01*
X129892012Y-119629302D01*
X130052953Y-119240756D01*
X130135000Y-118828279D01*
X130135000Y-118407721D01*
X145865000Y-118407721D01*
X145865000Y-118828279D01*
X145947047Y-119240756D01*
X146107988Y-119629302D01*
X146341637Y-119978983D01*
X146639017Y-120276363D01*
X146988698Y-120510012D01*
X147377244Y-120670953D01*
X147789721Y-120753000D01*
X148210279Y-120753000D01*
X148622756Y-120670953D01*
X149011302Y-120510012D01*
X149360983Y-120276363D01*
X149658363Y-119978983D01*
X149892012Y-119629302D01*
X150052953Y-119240756D01*
X150135000Y-118828279D01*
X150135000Y-118407721D01*
X150052953Y-117995244D01*
X149892012Y-117606698D01*
X149658363Y-117257017D01*
X149360983Y-116959637D01*
X149011302Y-116725988D01*
X148622756Y-116565047D01*
X148210279Y-116483000D01*
X147789721Y-116483000D01*
X147377244Y-116565047D01*
X146988698Y-116725988D01*
X146639017Y-116959637D01*
X146341637Y-117257017D01*
X146107988Y-117606698D01*
X145947047Y-117995244D01*
X145865000Y-118407721D01*
X130135000Y-118407721D01*
X130052953Y-117995244D01*
X129892012Y-117606698D01*
X129658363Y-117257017D01*
X129360983Y-116959637D01*
X129011302Y-116725988D01*
X128622756Y-116565047D01*
X128210279Y-116483000D01*
X127789721Y-116483000D01*
X127377244Y-116565047D01*
X126988698Y-116725988D01*
X126639017Y-116959637D01*
X126341637Y-117257017D01*
X126107988Y-117606698D01*
X125947047Y-117995244D01*
X125865000Y-118407721D01*
X121481951Y-118407721D01*
X121703411Y-118315990D01*
X121946632Y-118153475D01*
X122153475Y-117946632D01*
X122315990Y-117703411D01*
X122427932Y-117433158D01*
X122485000Y-117146260D01*
X122485000Y-116853740D01*
X122427932Y-116566842D01*
X122315990Y-116296589D01*
X122153475Y-116053368D01*
X121946632Y-115846525D01*
X121703411Y-115684010D01*
X121433158Y-115572068D01*
X121146260Y-115515000D01*
X120853740Y-115515000D01*
X120566842Y-115572068D01*
X120296589Y-115684010D01*
X120053368Y-115846525D01*
X119846525Y-116053368D01*
X119684010Y-116296589D01*
X119572068Y-116566842D01*
X119515000Y-116853740D01*
X118210000Y-116853740D01*
X118210000Y-114966051D01*
X118230422Y-114986473D01*
X118438429Y-115125459D01*
X118669555Y-115221195D01*
X118914916Y-115270000D01*
X119165084Y-115270000D01*
X119410445Y-115221195D01*
X119641571Y-115125459D01*
X119849578Y-114986473D01*
X120026473Y-114809578D01*
X120165459Y-114601571D01*
X120261195Y-114370445D01*
X120264551Y-114353570D01*
X132839000Y-114353570D01*
X132839000Y-114754430D01*
X132917204Y-115147587D01*
X133070607Y-115517934D01*
X133293313Y-115851237D01*
X133576763Y-116134687D01*
X133910066Y-116357393D01*
X134280413Y-116510796D01*
X134673570Y-116589000D01*
X135074430Y-116589000D01*
X135467587Y-116510796D01*
X135837934Y-116357393D01*
X136171237Y-116134687D01*
X136454687Y-115851237D01*
X136677393Y-115517934D01*
X136830796Y-115147587D01*
X136909000Y-114754430D01*
X136909000Y-114353570D01*
X136830796Y-113960413D01*
X136677393Y-113590066D01*
X136454687Y-113256763D01*
X136171237Y-112973313D01*
X135837934Y-112750607D01*
X135467587Y-112597204D01*
X135074430Y-112519000D01*
X134673570Y-112519000D01*
X134280413Y-112597204D01*
X133910066Y-112750607D01*
X133576763Y-112973313D01*
X133293313Y-113256763D01*
X133070607Y-113590066D01*
X132917204Y-113960413D01*
X132839000Y-114353570D01*
X120264551Y-114353570D01*
X120310000Y-114125084D01*
X120310000Y-113874916D01*
X120261195Y-113629555D01*
X120165459Y-113398429D01*
X120026473Y-113190422D01*
X119849578Y-113013527D01*
X119641571Y-112874541D01*
X119410445Y-112778805D01*
X119165084Y-112730000D01*
X118914916Y-112730000D01*
X118669555Y-112778805D01*
X118438429Y-112874541D01*
X118230422Y-113013527D01*
X118210000Y-113033949D01*
X118210000Y-105609721D01*
X121515000Y-105609721D01*
X121515000Y-106030279D01*
X121597047Y-106442756D01*
X121757988Y-106831302D01*
X121991637Y-107180983D01*
X122289017Y-107478363D01*
X122638698Y-107712012D01*
X123027244Y-107872953D01*
X123439721Y-107955000D01*
X123860279Y-107955000D01*
X124272756Y-107872953D01*
X124661302Y-107712012D01*
X125010983Y-107478363D01*
X125308363Y-107180983D01*
X125542012Y-106831302D01*
X125702953Y-106442756D01*
X125785000Y-106030279D01*
X125785000Y-105609721D01*
X144215000Y-105609721D01*
X144215000Y-106030279D01*
X144297047Y-106442756D01*
X144457988Y-106831302D01*
X144691637Y-107180983D01*
X144989017Y-107478363D01*
X145338698Y-107712012D01*
X145727244Y-107872953D01*
X146139721Y-107955000D01*
X146560279Y-107955000D01*
X146972756Y-107872953D01*
X147361302Y-107712012D01*
X147710983Y-107478363D01*
X148008363Y-107180983D01*
X148242012Y-106831302D01*
X148402953Y-106442756D01*
X148485000Y-106030279D01*
X148485000Y-105609721D01*
X148402953Y-105197244D01*
X148242012Y-104808698D01*
X148008363Y-104459017D01*
X147710983Y-104161637D01*
X147361302Y-103927988D01*
X146972756Y-103767047D01*
X146560279Y-103685000D01*
X146139721Y-103685000D01*
X145727244Y-103767047D01*
X145338698Y-103927988D01*
X144989017Y-104161637D01*
X144691637Y-104459017D01*
X144457988Y-104808698D01*
X144297047Y-105197244D01*
X144215000Y-105609721D01*
X125785000Y-105609721D01*
X125702953Y-105197244D01*
X125542012Y-104808698D01*
X125308363Y-104459017D01*
X125010983Y-104161637D01*
X124661302Y-103927988D01*
X124272756Y-103767047D01*
X123860279Y-103685000D01*
X123439721Y-103685000D01*
X123027244Y-103767047D01*
X122638698Y-103927988D01*
X122289017Y-104161637D01*
X121991637Y-104459017D01*
X121757988Y-104808698D01*
X121597047Y-105197244D01*
X121515000Y-105609721D01*
X118210000Y-105609721D01*
X118210000Y-101363589D01*
X120115000Y-101363589D01*
X120115000Y-101636411D01*
X120168225Y-101903989D01*
X120272629Y-102156043D01*
X120424201Y-102382886D01*
X120617114Y-102575799D01*
X120843957Y-102727371D01*
X121096011Y-102831775D01*
X121363589Y-102885000D01*
X121636411Y-102885000D01*
X121903989Y-102831775D01*
X122156043Y-102727371D01*
X122382886Y-102575799D01*
X122575799Y-102382886D01*
X122727371Y-102156043D01*
X122831775Y-101903989D01*
X122885000Y-101636411D01*
X122885000Y-101363589D01*
X123115000Y-101363589D01*
X123115000Y-101636411D01*
X123168225Y-101903989D01*
X123272629Y-102156043D01*
X123424201Y-102382886D01*
X123617114Y-102575799D01*
X123843957Y-102727371D01*
X124096011Y-102831775D01*
X124363589Y-102885000D01*
X124636411Y-102885000D01*
X124903989Y-102831775D01*
X125156043Y-102727371D01*
X125382886Y-102575799D01*
X125575799Y-102382886D01*
X125727371Y-102156043D01*
X125831775Y-101903989D01*
X125885000Y-101636411D01*
X125885000Y-101363589D01*
X126115000Y-101363589D01*
X126115000Y-101636411D01*
X126168225Y-101903989D01*
X126272629Y-102156043D01*
X126424201Y-102382886D01*
X126617114Y-102575799D01*
X126843957Y-102727371D01*
X127096011Y-102831775D01*
X127363589Y-102885000D01*
X127636411Y-102885000D01*
X127903989Y-102831775D01*
X128156043Y-102727371D01*
X128382886Y-102575799D01*
X128575799Y-102382886D01*
X128727371Y-102156043D01*
X128831775Y-101903989D01*
X128885000Y-101636411D01*
X128885000Y-101363589D01*
X129115000Y-101363589D01*
X129115000Y-101636411D01*
X129168225Y-101903989D01*
X129272629Y-102156043D01*
X129424201Y-102382886D01*
X129617114Y-102575799D01*
X129843957Y-102727371D01*
X130096011Y-102831775D01*
X130363589Y-102885000D01*
X130636411Y-102885000D01*
X130903989Y-102831775D01*
X131156043Y-102727371D01*
X131382886Y-102575799D01*
X131575799Y-102382886D01*
X131727371Y-102156043D01*
X131831775Y-101903989D01*
X131885000Y-101636411D01*
X131885000Y-101363589D01*
X132115000Y-101363589D01*
X132115000Y-101636411D01*
X132168225Y-101903989D01*
X132272629Y-102156043D01*
X132424201Y-102382886D01*
X132617114Y-102575799D01*
X132843957Y-102727371D01*
X133096011Y-102831775D01*
X133363589Y-102885000D01*
X133636411Y-102885000D01*
X133903989Y-102831775D01*
X134156043Y-102727371D01*
X134382886Y-102575799D01*
X134575799Y-102382886D01*
X134727371Y-102156043D01*
X134831775Y-101903989D01*
X134885000Y-101636411D01*
X134885000Y-101363589D01*
X135115000Y-101363589D01*
X135115000Y-101636411D01*
X135168225Y-101903989D01*
X135272629Y-102156043D01*
X135424201Y-102382886D01*
X135617114Y-102575799D01*
X135843957Y-102727371D01*
X136096011Y-102831775D01*
X136363589Y-102885000D01*
X136636411Y-102885000D01*
X136903989Y-102831775D01*
X137156043Y-102727371D01*
X137382886Y-102575799D01*
X137575799Y-102382886D01*
X137727371Y-102156043D01*
X137831775Y-101903989D01*
X137885000Y-101636411D01*
X137885000Y-101363589D01*
X138115000Y-101363589D01*
X138115000Y-101636411D01*
X138168225Y-101903989D01*
X138272629Y-102156043D01*
X138424201Y-102382886D01*
X138617114Y-102575799D01*
X138843957Y-102727371D01*
X139096011Y-102831775D01*
X139363589Y-102885000D01*
X139636411Y-102885000D01*
X139903989Y-102831775D01*
X140156043Y-102727371D01*
X140382886Y-102575799D01*
X140575799Y-102382886D01*
X140727371Y-102156043D01*
X140831775Y-101903989D01*
X140885000Y-101636411D01*
X140885000Y-101363589D01*
X141115000Y-101363589D01*
X141115000Y-101636411D01*
X141168225Y-101903989D01*
X141272629Y-102156043D01*
X141424201Y-102382886D01*
X141617114Y-102575799D01*
X141843957Y-102727371D01*
X142096011Y-102831775D01*
X142363589Y-102885000D01*
X142636411Y-102885000D01*
X142903989Y-102831775D01*
X143156043Y-102727371D01*
X143382886Y-102575799D01*
X143575799Y-102382886D01*
X143727371Y-102156043D01*
X143831775Y-101903989D01*
X143885000Y-101636411D01*
X143885000Y-101363589D01*
X144115000Y-101363589D01*
X144115000Y-101636411D01*
X144168225Y-101903989D01*
X144272629Y-102156043D01*
X144424201Y-102382886D01*
X144617114Y-102575799D01*
X144843957Y-102727371D01*
X145096011Y-102831775D01*
X145363589Y-102885000D01*
X145636411Y-102885000D01*
X145903989Y-102831775D01*
X146156043Y-102727371D01*
X146382886Y-102575799D01*
X146575799Y-102382886D01*
X146727371Y-102156043D01*
X146831775Y-101903989D01*
X146885000Y-101636411D01*
X146885000Y-101363589D01*
X146884766Y-101362408D01*
X147103000Y-101362408D01*
X147103000Y-101637592D01*
X147156686Y-101907490D01*
X147261995Y-102161727D01*
X147414880Y-102390535D01*
X147609465Y-102585120D01*
X147838273Y-102738005D01*
X148092510Y-102843314D01*
X148362408Y-102897000D01*
X148637592Y-102897000D01*
X148907490Y-102843314D01*
X149161727Y-102738005D01*
X149390535Y-102585120D01*
X149585120Y-102390535D01*
X149738005Y-102161727D01*
X149843314Y-101907490D01*
X149897000Y-101637592D01*
X149897000Y-101362408D01*
X149843314Y-101092510D01*
X149738005Y-100838273D01*
X149585120Y-100609465D01*
X149390535Y-100414880D01*
X149161727Y-100261995D01*
X148907490Y-100156686D01*
X148637592Y-100103000D01*
X148362408Y-100103000D01*
X148092510Y-100156686D01*
X147838273Y-100261995D01*
X147609465Y-100414880D01*
X147414880Y-100609465D01*
X147261995Y-100838273D01*
X147156686Y-101092510D01*
X147103000Y-101362408D01*
X146884766Y-101362408D01*
X146831775Y-101096011D01*
X146727371Y-100843957D01*
X146575799Y-100617114D01*
X146382886Y-100424201D01*
X146156043Y-100272629D01*
X145903989Y-100168225D01*
X145636411Y-100115000D01*
X145363589Y-100115000D01*
X145096011Y-100168225D01*
X144843957Y-100272629D01*
X144617114Y-100424201D01*
X144424201Y-100617114D01*
X144272629Y-100843957D01*
X144168225Y-101096011D01*
X144115000Y-101363589D01*
X143885000Y-101363589D01*
X143831775Y-101096011D01*
X143727371Y-100843957D01*
X143575799Y-100617114D01*
X143382886Y-100424201D01*
X143156043Y-100272629D01*
X142903989Y-100168225D01*
X142636411Y-100115000D01*
X142363589Y-100115000D01*
X142096011Y-100168225D01*
X141843957Y-100272629D01*
X141617114Y-100424201D01*
X141424201Y-100617114D01*
X141272629Y-100843957D01*
X141168225Y-101096011D01*
X141115000Y-101363589D01*
X140885000Y-101363589D01*
X140831775Y-101096011D01*
X140727371Y-100843957D01*
X140575799Y-100617114D01*
X140382886Y-100424201D01*
X140156043Y-100272629D01*
X139903989Y-100168225D01*
X139636411Y-100115000D01*
X139363589Y-100115000D01*
X139096011Y-100168225D01*
X138843957Y-100272629D01*
X138617114Y-100424201D01*
X138424201Y-100617114D01*
X138272629Y-100843957D01*
X138168225Y-101096011D01*
X138115000Y-101363589D01*
X137885000Y-101363589D01*
X137831775Y-101096011D01*
X137727371Y-100843957D01*
X137575799Y-100617114D01*
X137382886Y-100424201D01*
X137156043Y-100272629D01*
X136903989Y-100168225D01*
X136636411Y-100115000D01*
X136363589Y-100115000D01*
X136096011Y-100168225D01*
X135843957Y-100272629D01*
X135617114Y-100424201D01*
X135424201Y-100617114D01*
X135272629Y-100843957D01*
X135168225Y-101096011D01*
X135115000Y-101363589D01*
X134885000Y-101363589D01*
X134831775Y-101096011D01*
X134727371Y-100843957D01*
X134575799Y-100617114D01*
X134382886Y-100424201D01*
X134156043Y-100272629D01*
X133903989Y-100168225D01*
X133636411Y-100115000D01*
X133363589Y-100115000D01*
X133096011Y-100168225D01*
X132843957Y-100272629D01*
X132617114Y-100424201D01*
X132424201Y-100617114D01*
X132272629Y-100843957D01*
X132168225Y-101096011D01*
X132115000Y-101363589D01*
X131885000Y-101363589D01*
X131831775Y-101096011D01*
X131727371Y-100843957D01*
X131575799Y-100617114D01*
X131382886Y-100424201D01*
X131156043Y-100272629D01*
X130903989Y-100168225D01*
X130636411Y-100115000D01*
X130363589Y-100115000D01*
X130096011Y-100168225D01*
X129843957Y-100272629D01*
X129617114Y-100424201D01*
X129424201Y-100617114D01*
X129272629Y-100843957D01*
X129168225Y-101096011D01*
X129115000Y-101363589D01*
X128885000Y-101363589D01*
X128831775Y-101096011D01*
X128727371Y-100843957D01*
X128575799Y-100617114D01*
X128382886Y-100424201D01*
X128156043Y-100272629D01*
X127903989Y-100168225D01*
X127636411Y-100115000D01*
X127363589Y-100115000D01*
X127096011Y-100168225D01*
X126843957Y-100272629D01*
X126617114Y-100424201D01*
X126424201Y-100617114D01*
X126272629Y-100843957D01*
X126168225Y-101096011D01*
X126115000Y-101363589D01*
X125885000Y-101363589D01*
X125831775Y-101096011D01*
X125727371Y-100843957D01*
X125575799Y-100617114D01*
X125382886Y-100424201D01*
X125156043Y-100272629D01*
X124903989Y-100168225D01*
X124636411Y-100115000D01*
X124363589Y-100115000D01*
X124096011Y-100168225D01*
X123843957Y-100272629D01*
X123617114Y-100424201D01*
X123424201Y-100617114D01*
X123272629Y-100843957D01*
X123168225Y-101096011D01*
X123115000Y-101363589D01*
X122885000Y-101363589D01*
X122831775Y-101096011D01*
X122727371Y-100843957D01*
X122575799Y-100617114D01*
X122382886Y-100424201D01*
X122156043Y-100272629D01*
X121903989Y-100168225D01*
X121636411Y-100115000D01*
X121363589Y-100115000D01*
X121096011Y-100168225D01*
X120843957Y-100272629D01*
X120617114Y-100424201D01*
X120424201Y-100617114D01*
X120272629Y-100843957D01*
X120168225Y-101096011D01*
X120115000Y-101363589D01*
X118210000Y-101363589D01*
X118210000Y-97210000D01*
X120995157Y-97210000D01*
X120843957Y-97272629D01*
M02*
