G04 #@! TF.GenerationSoftware,KiCad,Pcbnew,5.1.4-e60b266~84~ubuntu19.04.1*
G04 #@! TF.CreationDate,2019-10-12T12:50:21-05:00*
G04 #@! TF.ProjectId,TemperaturePower,54656d70-6572-4617-9475-7265506f7765,rev?*
G04 #@! TF.SameCoordinates,Original*
G04 #@! TF.FileFunction,Copper,L1,Top*
G04 #@! TF.FilePolarity,Positive*
%FSLAX46Y46*%
G04 Gerber Fmt 4.6, Leading zero omitted, Abs format (unit mm)*
G04 Created by KiCad (PCBNEW 5.1.4-e60b266~84~ubuntu19.04.1) date 2019-10-12 12:50:21*
%MOMM*%
%LPD*%
G04 APERTURE LIST*
%ADD10C,1.524000*%
%ADD11C,1.500000*%
%ADD12C,3.000000*%
%ADD13C,1.700000*%
%ADD14C,2.800000*%
%ADD15C,0.254000*%
G04 APERTURE END LIST*
D10*
X121500000Y-105920000D03*
D11*
X124500000Y-105920000D03*
X127500000Y-105920000D03*
X130500000Y-105920000D03*
X133500000Y-105920000D03*
X136500000Y-105920000D03*
X139500000Y-105920000D03*
X142500000Y-105920000D03*
X145500000Y-105920000D03*
X148500000Y-105920000D03*
X121500000Y-108920000D03*
X124500000Y-108920000D03*
X127500000Y-108920000D03*
X130500000Y-108920000D03*
X133500000Y-108920000D03*
X136500000Y-108920000D03*
X139500000Y-108920000D03*
X142500000Y-108920000D03*
X145500000Y-108920000D03*
X148500000Y-108920000D03*
D12*
X123650000Y-101600000D03*
X146350000Y-101600000D03*
D13*
X121000000Y-120000000D03*
X121000000Y-117000000D03*
D12*
X123650000Y-135320000D03*
X146350000Y-135320000D03*
D11*
X121500000Y-128000000D03*
X124500000Y-128000000D03*
X127500000Y-128000000D03*
X130500000Y-128000000D03*
X133500000Y-128000000D03*
X136500000Y-128000000D03*
X139500000Y-128000000D03*
X142500000Y-128000000D03*
X145500000Y-128000000D03*
X148500000Y-128000000D03*
X121500000Y-131000000D03*
X124500000Y-131000000D03*
X127500000Y-131000000D03*
X130500000Y-131000000D03*
X133500000Y-131000000D03*
X136500000Y-131000000D03*
X139500000Y-131000000D03*
X142500000Y-131000000D03*
X145500000Y-131000000D03*
D10*
X148500000Y-131000000D03*
D14*
X134874000Y-114554000D03*
X134874000Y-122428000D03*
D15*
G36*
X151790001Y-139790000D02*
G01*
X118210000Y-139790000D01*
X118210000Y-135109721D01*
X121515000Y-135109721D01*
X121515000Y-135530279D01*
X121597047Y-135942756D01*
X121757988Y-136331302D01*
X121991637Y-136680983D01*
X122289017Y-136978363D01*
X122638698Y-137212012D01*
X123027244Y-137372953D01*
X123439721Y-137455000D01*
X123860279Y-137455000D01*
X124272756Y-137372953D01*
X124661302Y-137212012D01*
X125010983Y-136978363D01*
X125308363Y-136680983D01*
X125542012Y-136331302D01*
X125702953Y-135942756D01*
X125785000Y-135530279D01*
X125785000Y-135109721D01*
X144215000Y-135109721D01*
X144215000Y-135530279D01*
X144297047Y-135942756D01*
X144457988Y-136331302D01*
X144691637Y-136680983D01*
X144989017Y-136978363D01*
X145338698Y-137212012D01*
X145727244Y-137372953D01*
X146139721Y-137455000D01*
X146560279Y-137455000D01*
X146972756Y-137372953D01*
X147361302Y-137212012D01*
X147710983Y-136978363D01*
X148008363Y-136680983D01*
X148242012Y-136331302D01*
X148402953Y-135942756D01*
X148485000Y-135530279D01*
X148485000Y-135109721D01*
X148402953Y-134697244D01*
X148242012Y-134308698D01*
X148008363Y-133959017D01*
X147710983Y-133661637D01*
X147361302Y-133427988D01*
X146972756Y-133267047D01*
X146560279Y-133185000D01*
X146139721Y-133185000D01*
X145727244Y-133267047D01*
X145338698Y-133427988D01*
X144989017Y-133661637D01*
X144691637Y-133959017D01*
X144457988Y-134308698D01*
X144297047Y-134697244D01*
X144215000Y-135109721D01*
X125785000Y-135109721D01*
X125702953Y-134697244D01*
X125542012Y-134308698D01*
X125308363Y-133959017D01*
X125010983Y-133661637D01*
X124661302Y-133427988D01*
X124272756Y-133267047D01*
X123860279Y-133185000D01*
X123439721Y-133185000D01*
X123027244Y-133267047D01*
X122638698Y-133427988D01*
X122289017Y-133661637D01*
X121991637Y-133959017D01*
X121757988Y-134308698D01*
X121597047Y-134697244D01*
X121515000Y-135109721D01*
X118210000Y-135109721D01*
X118210000Y-130863589D01*
X120115000Y-130863589D01*
X120115000Y-131136411D01*
X120168225Y-131403989D01*
X120272629Y-131656043D01*
X120424201Y-131882886D01*
X120617114Y-132075799D01*
X120843957Y-132227371D01*
X121096011Y-132331775D01*
X121363589Y-132385000D01*
X121636411Y-132385000D01*
X121903989Y-132331775D01*
X122156043Y-132227371D01*
X122382886Y-132075799D01*
X122575799Y-131882886D01*
X122727371Y-131656043D01*
X122831775Y-131403989D01*
X122885000Y-131136411D01*
X122885000Y-130863589D01*
X123115000Y-130863589D01*
X123115000Y-131136411D01*
X123168225Y-131403989D01*
X123272629Y-131656043D01*
X123424201Y-131882886D01*
X123617114Y-132075799D01*
X123843957Y-132227371D01*
X124096011Y-132331775D01*
X124363589Y-132385000D01*
X124636411Y-132385000D01*
X124903989Y-132331775D01*
X125156043Y-132227371D01*
X125382886Y-132075799D01*
X125575799Y-131882886D01*
X125727371Y-131656043D01*
X125831775Y-131403989D01*
X125885000Y-131136411D01*
X125885000Y-130863589D01*
X126115000Y-130863589D01*
X126115000Y-131136411D01*
X126168225Y-131403989D01*
X126272629Y-131656043D01*
X126424201Y-131882886D01*
X126617114Y-132075799D01*
X126843957Y-132227371D01*
X127096011Y-132331775D01*
X127363589Y-132385000D01*
X127636411Y-132385000D01*
X127903989Y-132331775D01*
X128156043Y-132227371D01*
X128382886Y-132075799D01*
X128575799Y-131882886D01*
X128727371Y-131656043D01*
X128831775Y-131403989D01*
X128885000Y-131136411D01*
X128885000Y-130863589D01*
X129115000Y-130863589D01*
X129115000Y-131136411D01*
X129168225Y-131403989D01*
X129272629Y-131656043D01*
X129424201Y-131882886D01*
X129617114Y-132075799D01*
X129843957Y-132227371D01*
X130096011Y-132331775D01*
X130363589Y-132385000D01*
X130636411Y-132385000D01*
X130903989Y-132331775D01*
X131156043Y-132227371D01*
X131382886Y-132075799D01*
X131575799Y-131882886D01*
X131727371Y-131656043D01*
X131831775Y-131403989D01*
X131885000Y-131136411D01*
X131885000Y-130863589D01*
X132115000Y-130863589D01*
X132115000Y-131136411D01*
X132168225Y-131403989D01*
X132272629Y-131656043D01*
X132424201Y-131882886D01*
X132617114Y-132075799D01*
X132843957Y-132227371D01*
X133096011Y-132331775D01*
X133363589Y-132385000D01*
X133636411Y-132385000D01*
X133903989Y-132331775D01*
X134156043Y-132227371D01*
X134382886Y-132075799D01*
X134575799Y-131882886D01*
X134727371Y-131656043D01*
X134831775Y-131403989D01*
X134885000Y-131136411D01*
X134885000Y-130863589D01*
X135115000Y-130863589D01*
X135115000Y-131136411D01*
X135168225Y-131403989D01*
X135272629Y-131656043D01*
X135424201Y-131882886D01*
X135617114Y-132075799D01*
X135843957Y-132227371D01*
X136096011Y-132331775D01*
X136363589Y-132385000D01*
X136636411Y-132385000D01*
X136903989Y-132331775D01*
X137156043Y-132227371D01*
X137382886Y-132075799D01*
X137575799Y-131882886D01*
X137727371Y-131656043D01*
X137831775Y-131403989D01*
X137885000Y-131136411D01*
X137885000Y-130863589D01*
X138115000Y-130863589D01*
X138115000Y-131136411D01*
X138168225Y-131403989D01*
X138272629Y-131656043D01*
X138424201Y-131882886D01*
X138617114Y-132075799D01*
X138843957Y-132227371D01*
X139096011Y-132331775D01*
X139363589Y-132385000D01*
X139636411Y-132385000D01*
X139903989Y-132331775D01*
X140156043Y-132227371D01*
X140382886Y-132075799D01*
X140575799Y-131882886D01*
X140727371Y-131656043D01*
X140831775Y-131403989D01*
X140885000Y-131136411D01*
X140885000Y-130863589D01*
X141115000Y-130863589D01*
X141115000Y-131136411D01*
X141168225Y-131403989D01*
X141272629Y-131656043D01*
X141424201Y-131882886D01*
X141617114Y-132075799D01*
X141843957Y-132227371D01*
X142096011Y-132331775D01*
X142363589Y-132385000D01*
X142636411Y-132385000D01*
X142903989Y-132331775D01*
X143156043Y-132227371D01*
X143382886Y-132075799D01*
X143575799Y-131882886D01*
X143727371Y-131656043D01*
X143831775Y-131403989D01*
X143885000Y-131136411D01*
X143885000Y-130863589D01*
X144115000Y-130863589D01*
X144115000Y-131136411D01*
X144168225Y-131403989D01*
X144272629Y-131656043D01*
X144424201Y-131882886D01*
X144617114Y-132075799D01*
X144843957Y-132227371D01*
X145096011Y-132331775D01*
X145363589Y-132385000D01*
X145636411Y-132385000D01*
X145903989Y-132331775D01*
X146156043Y-132227371D01*
X146382886Y-132075799D01*
X146575799Y-131882886D01*
X146727371Y-131656043D01*
X146831775Y-131403989D01*
X146885000Y-131136411D01*
X146885000Y-130863589D01*
X146884766Y-130862408D01*
X147103000Y-130862408D01*
X147103000Y-131137592D01*
X147156686Y-131407490D01*
X147261995Y-131661727D01*
X147414880Y-131890535D01*
X147609465Y-132085120D01*
X147838273Y-132238005D01*
X148092510Y-132343314D01*
X148362408Y-132397000D01*
X148637592Y-132397000D01*
X148907490Y-132343314D01*
X149161727Y-132238005D01*
X149390535Y-132085120D01*
X149585120Y-131890535D01*
X149738005Y-131661727D01*
X149843314Y-131407490D01*
X149897000Y-131137592D01*
X149897000Y-130862408D01*
X149843314Y-130592510D01*
X149738005Y-130338273D01*
X149585120Y-130109465D01*
X149390535Y-129914880D01*
X149161727Y-129761995D01*
X148907490Y-129656686D01*
X148637592Y-129603000D01*
X148362408Y-129603000D01*
X148092510Y-129656686D01*
X147838273Y-129761995D01*
X147609465Y-129914880D01*
X147414880Y-130109465D01*
X147261995Y-130338273D01*
X147156686Y-130592510D01*
X147103000Y-130862408D01*
X146884766Y-130862408D01*
X146831775Y-130596011D01*
X146727371Y-130343957D01*
X146575799Y-130117114D01*
X146382886Y-129924201D01*
X146156043Y-129772629D01*
X145903989Y-129668225D01*
X145636411Y-129615000D01*
X145363589Y-129615000D01*
X145096011Y-129668225D01*
X144843957Y-129772629D01*
X144617114Y-129924201D01*
X144424201Y-130117114D01*
X144272629Y-130343957D01*
X144168225Y-130596011D01*
X144115000Y-130863589D01*
X143885000Y-130863589D01*
X143831775Y-130596011D01*
X143727371Y-130343957D01*
X143575799Y-130117114D01*
X143382886Y-129924201D01*
X143156043Y-129772629D01*
X142903989Y-129668225D01*
X142636411Y-129615000D01*
X142363589Y-129615000D01*
X142096011Y-129668225D01*
X141843957Y-129772629D01*
X141617114Y-129924201D01*
X141424201Y-130117114D01*
X141272629Y-130343957D01*
X141168225Y-130596011D01*
X141115000Y-130863589D01*
X140885000Y-130863589D01*
X140831775Y-130596011D01*
X140727371Y-130343957D01*
X140575799Y-130117114D01*
X140382886Y-129924201D01*
X140156043Y-129772629D01*
X139903989Y-129668225D01*
X139636411Y-129615000D01*
X139363589Y-129615000D01*
X139096011Y-129668225D01*
X138843957Y-129772629D01*
X138617114Y-129924201D01*
X138424201Y-130117114D01*
X138272629Y-130343957D01*
X138168225Y-130596011D01*
X138115000Y-130863589D01*
X137885000Y-130863589D01*
X137831775Y-130596011D01*
X137727371Y-130343957D01*
X137575799Y-130117114D01*
X137382886Y-129924201D01*
X137156043Y-129772629D01*
X136903989Y-129668225D01*
X136636411Y-129615000D01*
X136363589Y-129615000D01*
X136096011Y-129668225D01*
X135843957Y-129772629D01*
X135617114Y-129924201D01*
X135424201Y-130117114D01*
X135272629Y-130343957D01*
X135168225Y-130596011D01*
X135115000Y-130863589D01*
X134885000Y-130863589D01*
X134831775Y-130596011D01*
X134727371Y-130343957D01*
X134575799Y-130117114D01*
X134382886Y-129924201D01*
X134156043Y-129772629D01*
X133903989Y-129668225D01*
X133636411Y-129615000D01*
X133363589Y-129615000D01*
X133096011Y-129668225D01*
X132843957Y-129772629D01*
X132617114Y-129924201D01*
X132424201Y-130117114D01*
X132272629Y-130343957D01*
X132168225Y-130596011D01*
X132115000Y-130863589D01*
X131885000Y-130863589D01*
X131831775Y-130596011D01*
X131727371Y-130343957D01*
X131575799Y-130117114D01*
X131382886Y-129924201D01*
X131156043Y-129772629D01*
X130903989Y-129668225D01*
X130636411Y-129615000D01*
X130363589Y-129615000D01*
X130096011Y-129668225D01*
X129843957Y-129772629D01*
X129617114Y-129924201D01*
X129424201Y-130117114D01*
X129272629Y-130343957D01*
X129168225Y-130596011D01*
X129115000Y-130863589D01*
X128885000Y-130863589D01*
X128831775Y-130596011D01*
X128727371Y-130343957D01*
X128575799Y-130117114D01*
X128382886Y-129924201D01*
X128156043Y-129772629D01*
X127903989Y-129668225D01*
X127636411Y-129615000D01*
X127363589Y-129615000D01*
X127096011Y-129668225D01*
X126843957Y-129772629D01*
X126617114Y-129924201D01*
X126424201Y-130117114D01*
X126272629Y-130343957D01*
X126168225Y-130596011D01*
X126115000Y-130863589D01*
X125885000Y-130863589D01*
X125831775Y-130596011D01*
X125727371Y-130343957D01*
X125575799Y-130117114D01*
X125382886Y-129924201D01*
X125156043Y-129772629D01*
X124903989Y-129668225D01*
X124636411Y-129615000D01*
X124363589Y-129615000D01*
X124096011Y-129668225D01*
X123843957Y-129772629D01*
X123617114Y-129924201D01*
X123424201Y-130117114D01*
X123272629Y-130343957D01*
X123168225Y-130596011D01*
X123115000Y-130863589D01*
X122885000Y-130863589D01*
X122831775Y-130596011D01*
X122727371Y-130343957D01*
X122575799Y-130117114D01*
X122382886Y-129924201D01*
X122156043Y-129772629D01*
X121903989Y-129668225D01*
X121636411Y-129615000D01*
X121363589Y-129615000D01*
X121096011Y-129668225D01*
X120843957Y-129772629D01*
X120617114Y-129924201D01*
X120424201Y-130117114D01*
X120272629Y-130343957D01*
X120168225Y-130596011D01*
X120115000Y-130863589D01*
X118210000Y-130863589D01*
X118210000Y-127863589D01*
X120115000Y-127863589D01*
X120115000Y-128136411D01*
X120168225Y-128403989D01*
X120272629Y-128656043D01*
X120424201Y-128882886D01*
X120617114Y-129075799D01*
X120843957Y-129227371D01*
X121096011Y-129331775D01*
X121363589Y-129385000D01*
X121636411Y-129385000D01*
X121903989Y-129331775D01*
X122156043Y-129227371D01*
X122382886Y-129075799D01*
X122575799Y-128882886D01*
X122727371Y-128656043D01*
X122831775Y-128403989D01*
X122885000Y-128136411D01*
X122885000Y-127863589D01*
X123115000Y-127863589D01*
X123115000Y-128136411D01*
X123168225Y-128403989D01*
X123272629Y-128656043D01*
X123424201Y-128882886D01*
X123617114Y-129075799D01*
X123843957Y-129227371D01*
X124096011Y-129331775D01*
X124363589Y-129385000D01*
X124636411Y-129385000D01*
X124903989Y-129331775D01*
X125156043Y-129227371D01*
X125382886Y-129075799D01*
X125575799Y-128882886D01*
X125727371Y-128656043D01*
X125831775Y-128403989D01*
X125885000Y-128136411D01*
X125885000Y-127863589D01*
X126115000Y-127863589D01*
X126115000Y-128136411D01*
X126168225Y-128403989D01*
X126272629Y-128656043D01*
X126424201Y-128882886D01*
X126617114Y-129075799D01*
X126843957Y-129227371D01*
X127096011Y-129331775D01*
X127363589Y-129385000D01*
X127636411Y-129385000D01*
X127903989Y-129331775D01*
X128156043Y-129227371D01*
X128382886Y-129075799D01*
X128575799Y-128882886D01*
X128727371Y-128656043D01*
X128831775Y-128403989D01*
X128885000Y-128136411D01*
X128885000Y-127863589D01*
X129115000Y-127863589D01*
X129115000Y-128136411D01*
X129168225Y-128403989D01*
X129272629Y-128656043D01*
X129424201Y-128882886D01*
X129617114Y-129075799D01*
X129843957Y-129227371D01*
X130096011Y-129331775D01*
X130363589Y-129385000D01*
X130636411Y-129385000D01*
X130903989Y-129331775D01*
X131156043Y-129227371D01*
X131382886Y-129075799D01*
X131575799Y-128882886D01*
X131727371Y-128656043D01*
X131831775Y-128403989D01*
X131885000Y-128136411D01*
X131885000Y-127863589D01*
X132115000Y-127863589D01*
X132115000Y-128136411D01*
X132168225Y-128403989D01*
X132272629Y-128656043D01*
X132424201Y-128882886D01*
X132617114Y-129075799D01*
X132843957Y-129227371D01*
X133096011Y-129331775D01*
X133363589Y-129385000D01*
X133636411Y-129385000D01*
X133903989Y-129331775D01*
X134156043Y-129227371D01*
X134382886Y-129075799D01*
X134575799Y-128882886D01*
X134727371Y-128656043D01*
X134831775Y-128403989D01*
X134885000Y-128136411D01*
X134885000Y-127863589D01*
X135115000Y-127863589D01*
X135115000Y-128136411D01*
X135168225Y-128403989D01*
X135272629Y-128656043D01*
X135424201Y-128882886D01*
X135617114Y-129075799D01*
X135843957Y-129227371D01*
X136096011Y-129331775D01*
X136363589Y-129385000D01*
X136636411Y-129385000D01*
X136903989Y-129331775D01*
X137156043Y-129227371D01*
X137382886Y-129075799D01*
X137575799Y-128882886D01*
X137727371Y-128656043D01*
X137831775Y-128403989D01*
X137885000Y-128136411D01*
X137885000Y-127863589D01*
X138115000Y-127863589D01*
X138115000Y-128136411D01*
X138168225Y-128403989D01*
X138272629Y-128656043D01*
X138424201Y-128882886D01*
X138617114Y-129075799D01*
X138843957Y-129227371D01*
X139096011Y-129331775D01*
X139363589Y-129385000D01*
X139636411Y-129385000D01*
X139903989Y-129331775D01*
X140156043Y-129227371D01*
X140382886Y-129075799D01*
X140575799Y-128882886D01*
X140727371Y-128656043D01*
X140831775Y-128403989D01*
X140885000Y-128136411D01*
X140885000Y-127863589D01*
X141115000Y-127863589D01*
X141115000Y-128136411D01*
X141168225Y-128403989D01*
X141272629Y-128656043D01*
X141424201Y-128882886D01*
X141617114Y-129075799D01*
X141843957Y-129227371D01*
X142096011Y-129331775D01*
X142363589Y-129385000D01*
X142636411Y-129385000D01*
X142903989Y-129331775D01*
X143156043Y-129227371D01*
X143382886Y-129075799D01*
X143575799Y-128882886D01*
X143727371Y-128656043D01*
X143831775Y-128403989D01*
X143885000Y-128136411D01*
X143885000Y-127863589D01*
X144115000Y-127863589D01*
X144115000Y-128136411D01*
X144168225Y-128403989D01*
X144272629Y-128656043D01*
X144424201Y-128882886D01*
X144617114Y-129075799D01*
X144843957Y-129227371D01*
X145096011Y-129331775D01*
X145363589Y-129385000D01*
X145636411Y-129385000D01*
X145903989Y-129331775D01*
X146156043Y-129227371D01*
X146382886Y-129075799D01*
X146575799Y-128882886D01*
X146727371Y-128656043D01*
X146831775Y-128403989D01*
X146885000Y-128136411D01*
X146885000Y-127863589D01*
X147115000Y-127863589D01*
X147115000Y-128136411D01*
X147168225Y-128403989D01*
X147272629Y-128656043D01*
X147424201Y-128882886D01*
X147617114Y-129075799D01*
X147843957Y-129227371D01*
X148096011Y-129331775D01*
X148363589Y-129385000D01*
X148636411Y-129385000D01*
X148903989Y-129331775D01*
X149156043Y-129227371D01*
X149382886Y-129075799D01*
X149575799Y-128882886D01*
X149727371Y-128656043D01*
X149831775Y-128403989D01*
X149885000Y-128136411D01*
X149885000Y-127863589D01*
X149831775Y-127596011D01*
X149727371Y-127343957D01*
X149575799Y-127117114D01*
X149382886Y-126924201D01*
X149156043Y-126772629D01*
X148903989Y-126668225D01*
X148636411Y-126615000D01*
X148363589Y-126615000D01*
X148096011Y-126668225D01*
X147843957Y-126772629D01*
X147617114Y-126924201D01*
X147424201Y-127117114D01*
X147272629Y-127343957D01*
X147168225Y-127596011D01*
X147115000Y-127863589D01*
X146885000Y-127863589D01*
X146831775Y-127596011D01*
X146727371Y-127343957D01*
X146575799Y-127117114D01*
X146382886Y-126924201D01*
X146156043Y-126772629D01*
X145903989Y-126668225D01*
X145636411Y-126615000D01*
X145363589Y-126615000D01*
X145096011Y-126668225D01*
X144843957Y-126772629D01*
X144617114Y-126924201D01*
X144424201Y-127117114D01*
X144272629Y-127343957D01*
X144168225Y-127596011D01*
X144115000Y-127863589D01*
X143885000Y-127863589D01*
X143831775Y-127596011D01*
X143727371Y-127343957D01*
X143575799Y-127117114D01*
X143382886Y-126924201D01*
X143156043Y-126772629D01*
X142903989Y-126668225D01*
X142636411Y-126615000D01*
X142363589Y-126615000D01*
X142096011Y-126668225D01*
X141843957Y-126772629D01*
X141617114Y-126924201D01*
X141424201Y-127117114D01*
X141272629Y-127343957D01*
X141168225Y-127596011D01*
X141115000Y-127863589D01*
X140885000Y-127863589D01*
X140831775Y-127596011D01*
X140727371Y-127343957D01*
X140575799Y-127117114D01*
X140382886Y-126924201D01*
X140156043Y-126772629D01*
X139903989Y-126668225D01*
X139636411Y-126615000D01*
X139363589Y-126615000D01*
X139096011Y-126668225D01*
X138843957Y-126772629D01*
X138617114Y-126924201D01*
X138424201Y-127117114D01*
X138272629Y-127343957D01*
X138168225Y-127596011D01*
X138115000Y-127863589D01*
X137885000Y-127863589D01*
X137831775Y-127596011D01*
X137727371Y-127343957D01*
X137575799Y-127117114D01*
X137382886Y-126924201D01*
X137156043Y-126772629D01*
X136903989Y-126668225D01*
X136636411Y-126615000D01*
X136363589Y-126615000D01*
X136096011Y-126668225D01*
X135843957Y-126772629D01*
X135617114Y-126924201D01*
X135424201Y-127117114D01*
X135272629Y-127343957D01*
X135168225Y-127596011D01*
X135115000Y-127863589D01*
X134885000Y-127863589D01*
X134831775Y-127596011D01*
X134727371Y-127343957D01*
X134575799Y-127117114D01*
X134382886Y-126924201D01*
X134156043Y-126772629D01*
X133903989Y-126668225D01*
X133636411Y-126615000D01*
X133363589Y-126615000D01*
X133096011Y-126668225D01*
X132843957Y-126772629D01*
X132617114Y-126924201D01*
X132424201Y-127117114D01*
X132272629Y-127343957D01*
X132168225Y-127596011D01*
X132115000Y-127863589D01*
X131885000Y-127863589D01*
X131831775Y-127596011D01*
X131727371Y-127343957D01*
X131575799Y-127117114D01*
X131382886Y-126924201D01*
X131156043Y-126772629D01*
X130903989Y-126668225D01*
X130636411Y-126615000D01*
X130363589Y-126615000D01*
X130096011Y-126668225D01*
X129843957Y-126772629D01*
X129617114Y-126924201D01*
X129424201Y-127117114D01*
X129272629Y-127343957D01*
X129168225Y-127596011D01*
X129115000Y-127863589D01*
X128885000Y-127863589D01*
X128831775Y-127596011D01*
X128727371Y-127343957D01*
X128575799Y-127117114D01*
X128382886Y-126924201D01*
X128156043Y-126772629D01*
X127903989Y-126668225D01*
X127636411Y-126615000D01*
X127363589Y-126615000D01*
X127096011Y-126668225D01*
X126843957Y-126772629D01*
X126617114Y-126924201D01*
X126424201Y-127117114D01*
X126272629Y-127343957D01*
X126168225Y-127596011D01*
X126115000Y-127863589D01*
X125885000Y-127863589D01*
X125831775Y-127596011D01*
X125727371Y-127343957D01*
X125575799Y-127117114D01*
X125382886Y-126924201D01*
X125156043Y-126772629D01*
X124903989Y-126668225D01*
X124636411Y-126615000D01*
X124363589Y-126615000D01*
X124096011Y-126668225D01*
X123843957Y-126772629D01*
X123617114Y-126924201D01*
X123424201Y-127117114D01*
X123272629Y-127343957D01*
X123168225Y-127596011D01*
X123115000Y-127863589D01*
X122885000Y-127863589D01*
X122831775Y-127596011D01*
X122727371Y-127343957D01*
X122575799Y-127117114D01*
X122382886Y-126924201D01*
X122156043Y-126772629D01*
X121903989Y-126668225D01*
X121636411Y-126615000D01*
X121363589Y-126615000D01*
X121096011Y-126668225D01*
X120843957Y-126772629D01*
X120617114Y-126924201D01*
X120424201Y-127117114D01*
X120272629Y-127343957D01*
X120168225Y-127596011D01*
X120115000Y-127863589D01*
X118210000Y-127863589D01*
X118210000Y-123966051D01*
X118230422Y-123986473D01*
X118438429Y-124125459D01*
X118669555Y-124221195D01*
X118914916Y-124270000D01*
X119165084Y-124270000D01*
X119410445Y-124221195D01*
X119641571Y-124125459D01*
X119849578Y-123986473D01*
X120026473Y-123809578D01*
X120165459Y-123601571D01*
X120261195Y-123370445D01*
X120310000Y-123125084D01*
X120310000Y-122874916D01*
X120261195Y-122629555D01*
X120165459Y-122398429D01*
X120051295Y-122227570D01*
X132839000Y-122227570D01*
X132839000Y-122628430D01*
X132917204Y-123021587D01*
X133070607Y-123391934D01*
X133293313Y-123725237D01*
X133576763Y-124008687D01*
X133910066Y-124231393D01*
X134280413Y-124384796D01*
X134673570Y-124463000D01*
X135074430Y-124463000D01*
X135467587Y-124384796D01*
X135837934Y-124231393D01*
X136171237Y-124008687D01*
X136454687Y-123725237D01*
X136677393Y-123391934D01*
X136830796Y-123021587D01*
X136909000Y-122628430D01*
X136909000Y-122227570D01*
X136830796Y-121834413D01*
X136677393Y-121464066D01*
X136454687Y-121130763D01*
X136171237Y-120847313D01*
X135837934Y-120624607D01*
X135467587Y-120471204D01*
X135074430Y-120393000D01*
X134673570Y-120393000D01*
X134280413Y-120471204D01*
X133910066Y-120624607D01*
X133576763Y-120847313D01*
X133293313Y-121130763D01*
X133070607Y-121464066D01*
X132917204Y-121834413D01*
X132839000Y-122227570D01*
X120051295Y-122227570D01*
X120026473Y-122190422D01*
X119849578Y-122013527D01*
X119641571Y-121874541D01*
X119410445Y-121778805D01*
X119165084Y-121730000D01*
X118914916Y-121730000D01*
X118669555Y-121778805D01*
X118438429Y-121874541D01*
X118230422Y-122013527D01*
X118210000Y-122033949D01*
X118210000Y-119853740D01*
X119515000Y-119853740D01*
X119515000Y-120146260D01*
X119572068Y-120433158D01*
X119684010Y-120703411D01*
X119846525Y-120946632D01*
X120053368Y-121153475D01*
X120296589Y-121315990D01*
X120566842Y-121427932D01*
X120853740Y-121485000D01*
X121146260Y-121485000D01*
X121433158Y-121427932D01*
X121703411Y-121315990D01*
X121946632Y-121153475D01*
X122153475Y-120946632D01*
X122315990Y-120703411D01*
X122427932Y-120433158D01*
X122485000Y-120146260D01*
X122485000Y-119853740D01*
X122427932Y-119566842D01*
X122315990Y-119296589D01*
X122153475Y-119053368D01*
X121946632Y-118846525D01*
X121703411Y-118684010D01*
X121433158Y-118572068D01*
X121146260Y-118515000D01*
X120853740Y-118515000D01*
X120566842Y-118572068D01*
X120296589Y-118684010D01*
X120053368Y-118846525D01*
X119846525Y-119053368D01*
X119684010Y-119296589D01*
X119572068Y-119566842D01*
X119515000Y-119853740D01*
X118210000Y-119853740D01*
X118210000Y-118028397D01*
X120151208Y-118028397D01*
X120228843Y-118277472D01*
X120492883Y-118403371D01*
X120776411Y-118475339D01*
X121068531Y-118490611D01*
X121358019Y-118448599D01*
X121473408Y-118407721D01*
X125865000Y-118407721D01*
X125865000Y-118828279D01*
X125947047Y-119240756D01*
X126107988Y-119629302D01*
X126341637Y-119978983D01*
X126639017Y-120276363D01*
X126988698Y-120510012D01*
X127377244Y-120670953D01*
X127789721Y-120753000D01*
X128210279Y-120753000D01*
X128622756Y-120670953D01*
X129011302Y-120510012D01*
X129360983Y-120276363D01*
X129658363Y-119978983D01*
X129892012Y-119629302D01*
X130052953Y-119240756D01*
X130135000Y-118828279D01*
X130135000Y-118407721D01*
X145865000Y-118407721D01*
X145865000Y-118828279D01*
X145947047Y-119240756D01*
X146107988Y-119629302D01*
X146341637Y-119978983D01*
X146639017Y-120276363D01*
X146988698Y-120510012D01*
X147377244Y-120670953D01*
X147789721Y-120753000D01*
X148210279Y-120753000D01*
X148622756Y-120670953D01*
X149011302Y-120510012D01*
X149360983Y-120276363D01*
X149658363Y-119978983D01*
X149892012Y-119629302D01*
X150052953Y-119240756D01*
X150135000Y-118828279D01*
X150135000Y-118407721D01*
X150052953Y-117995244D01*
X149892012Y-117606698D01*
X149658363Y-117257017D01*
X149360983Y-116959637D01*
X149011302Y-116725988D01*
X148622756Y-116565047D01*
X148210279Y-116483000D01*
X147789721Y-116483000D01*
X147377244Y-116565047D01*
X146988698Y-116725988D01*
X146639017Y-116959637D01*
X146341637Y-117257017D01*
X146107988Y-117606698D01*
X145947047Y-117995244D01*
X145865000Y-118407721D01*
X130135000Y-118407721D01*
X130052953Y-117995244D01*
X129892012Y-117606698D01*
X129658363Y-117257017D01*
X129360983Y-116959637D01*
X129011302Y-116725988D01*
X128622756Y-116565047D01*
X128210279Y-116483000D01*
X127789721Y-116483000D01*
X127377244Y-116565047D01*
X126988698Y-116725988D01*
X126639017Y-116959637D01*
X126341637Y-117257017D01*
X126107988Y-117606698D01*
X125947047Y-117995244D01*
X125865000Y-118407721D01*
X121473408Y-118407721D01*
X121633747Y-118350919D01*
X121771157Y-118277472D01*
X121848792Y-118028397D01*
X121000000Y-117179605D01*
X120151208Y-118028397D01*
X118210000Y-118028397D01*
X118210000Y-117068531D01*
X119509389Y-117068531D01*
X119551401Y-117358019D01*
X119649081Y-117633747D01*
X119722528Y-117771157D01*
X119971603Y-117848792D01*
X120820395Y-117000000D01*
X121179605Y-117000000D01*
X122028397Y-117848792D01*
X122277472Y-117771157D01*
X122403371Y-117507117D01*
X122475339Y-117223589D01*
X122490611Y-116931469D01*
X122448599Y-116641981D01*
X122350919Y-116366253D01*
X122277472Y-116228843D01*
X122028397Y-116151208D01*
X121179605Y-117000000D01*
X120820395Y-117000000D01*
X119971603Y-116151208D01*
X119722528Y-116228843D01*
X119596629Y-116492883D01*
X119524661Y-116776411D01*
X119509389Y-117068531D01*
X118210000Y-117068531D01*
X118210000Y-115971603D01*
X120151208Y-115971603D01*
X121000000Y-116820395D01*
X121845948Y-115974447D01*
X133633158Y-115974447D01*
X133777135Y-116279770D01*
X134134892Y-116460597D01*
X134521053Y-116568155D01*
X134920777Y-116598310D01*
X135318704Y-116549904D01*
X135699540Y-116424795D01*
X135970865Y-116279770D01*
X136114842Y-115974447D01*
X134874000Y-114733605D01*
X133633158Y-115974447D01*
X121845948Y-115974447D01*
X121848792Y-115971603D01*
X121771157Y-115722528D01*
X121507117Y-115596629D01*
X121223589Y-115524661D01*
X120931469Y-115509389D01*
X120641981Y-115551401D01*
X120366253Y-115649081D01*
X120228843Y-115722528D01*
X120151208Y-115971603D01*
X118210000Y-115971603D01*
X118210000Y-114966051D01*
X118230422Y-114986473D01*
X118438429Y-115125459D01*
X118669555Y-115221195D01*
X118914916Y-115270000D01*
X119165084Y-115270000D01*
X119410445Y-115221195D01*
X119641571Y-115125459D01*
X119849578Y-114986473D01*
X120026473Y-114809578D01*
X120165459Y-114601571D01*
X120165787Y-114600777D01*
X132829690Y-114600777D01*
X132878096Y-114998704D01*
X133003205Y-115379540D01*
X133148230Y-115650865D01*
X133453553Y-115794842D01*
X134694395Y-114554000D01*
X135053605Y-114554000D01*
X136294447Y-115794842D01*
X136599770Y-115650865D01*
X136780597Y-115293108D01*
X136888155Y-114906947D01*
X136918310Y-114507223D01*
X136869904Y-114109296D01*
X136744795Y-113728460D01*
X136599770Y-113457135D01*
X136294447Y-113313158D01*
X135053605Y-114554000D01*
X134694395Y-114554000D01*
X133453553Y-113313158D01*
X133148230Y-113457135D01*
X132967403Y-113814892D01*
X132859845Y-114201053D01*
X132829690Y-114600777D01*
X120165787Y-114600777D01*
X120261195Y-114370445D01*
X120310000Y-114125084D01*
X120310000Y-113874916D01*
X120261195Y-113629555D01*
X120165459Y-113398429D01*
X120026473Y-113190422D01*
X119969604Y-113133553D01*
X133633158Y-113133553D01*
X134874000Y-114374395D01*
X136114842Y-113133553D01*
X135970865Y-112828230D01*
X135613108Y-112647403D01*
X135226947Y-112539845D01*
X134827223Y-112509690D01*
X134429296Y-112558096D01*
X134048460Y-112683205D01*
X133777135Y-112828230D01*
X133633158Y-113133553D01*
X119969604Y-113133553D01*
X119849578Y-113013527D01*
X119641571Y-112874541D01*
X119410445Y-112778805D01*
X119165084Y-112730000D01*
X118914916Y-112730000D01*
X118669555Y-112778805D01*
X118438429Y-112874541D01*
X118230422Y-113013527D01*
X118210000Y-113033949D01*
X118210000Y-109876993D01*
X120722612Y-109876993D01*
X120788137Y-110115860D01*
X121035116Y-110231760D01*
X121299960Y-110297250D01*
X121572492Y-110309812D01*
X121842238Y-110268965D01*
X122098832Y-110176277D01*
X122211863Y-110115860D01*
X122277388Y-109876993D01*
X123722612Y-109876993D01*
X123788137Y-110115860D01*
X124035116Y-110231760D01*
X124299960Y-110297250D01*
X124572492Y-110309812D01*
X124842238Y-110268965D01*
X125098832Y-110176277D01*
X125211863Y-110115860D01*
X125277388Y-109876993D01*
X126722612Y-109876993D01*
X126788137Y-110115860D01*
X127035116Y-110231760D01*
X127299960Y-110297250D01*
X127572492Y-110309812D01*
X127842238Y-110268965D01*
X128098832Y-110176277D01*
X128211863Y-110115860D01*
X128277388Y-109876993D01*
X129722612Y-109876993D01*
X129788137Y-110115860D01*
X130035116Y-110231760D01*
X130299960Y-110297250D01*
X130572492Y-110309812D01*
X130842238Y-110268965D01*
X131098832Y-110176277D01*
X131211863Y-110115860D01*
X131277388Y-109876993D01*
X132722612Y-109876993D01*
X132788137Y-110115860D01*
X133035116Y-110231760D01*
X133299960Y-110297250D01*
X133572492Y-110309812D01*
X133842238Y-110268965D01*
X134098832Y-110176277D01*
X134211863Y-110115860D01*
X134277388Y-109876993D01*
X135722612Y-109876993D01*
X135788137Y-110115860D01*
X136035116Y-110231760D01*
X136299960Y-110297250D01*
X136572492Y-110309812D01*
X136842238Y-110268965D01*
X137098832Y-110176277D01*
X137211863Y-110115860D01*
X137277388Y-109876993D01*
X138722612Y-109876993D01*
X138788137Y-110115860D01*
X139035116Y-110231760D01*
X139299960Y-110297250D01*
X139572492Y-110309812D01*
X139842238Y-110268965D01*
X140098832Y-110176277D01*
X140211863Y-110115860D01*
X140277388Y-109876993D01*
X141722612Y-109876993D01*
X141788137Y-110115860D01*
X142035116Y-110231760D01*
X142299960Y-110297250D01*
X142572492Y-110309812D01*
X142842238Y-110268965D01*
X143098832Y-110176277D01*
X143211863Y-110115860D01*
X143277388Y-109876993D01*
X144722612Y-109876993D01*
X144788137Y-110115860D01*
X145035116Y-110231760D01*
X145299960Y-110297250D01*
X145572492Y-110309812D01*
X145842238Y-110268965D01*
X146098832Y-110176277D01*
X146211863Y-110115860D01*
X146277388Y-109876993D01*
X147722612Y-109876993D01*
X147788137Y-110115860D01*
X148035116Y-110231760D01*
X148299960Y-110297250D01*
X148572492Y-110309812D01*
X148842238Y-110268965D01*
X149098832Y-110176277D01*
X149211863Y-110115860D01*
X149277388Y-109876993D01*
X148500000Y-109099605D01*
X147722612Y-109876993D01*
X146277388Y-109876993D01*
X145500000Y-109099605D01*
X144722612Y-109876993D01*
X143277388Y-109876993D01*
X142500000Y-109099605D01*
X141722612Y-109876993D01*
X140277388Y-109876993D01*
X139500000Y-109099605D01*
X138722612Y-109876993D01*
X137277388Y-109876993D01*
X136500000Y-109099605D01*
X135722612Y-109876993D01*
X134277388Y-109876993D01*
X133500000Y-109099605D01*
X132722612Y-109876993D01*
X131277388Y-109876993D01*
X130500000Y-109099605D01*
X129722612Y-109876993D01*
X128277388Y-109876993D01*
X127500000Y-109099605D01*
X126722612Y-109876993D01*
X125277388Y-109876993D01*
X124500000Y-109099605D01*
X123722612Y-109876993D01*
X122277388Y-109876993D01*
X121500000Y-109099605D01*
X120722612Y-109876993D01*
X118210000Y-109876993D01*
X118210000Y-108992492D01*
X120110188Y-108992492D01*
X120151035Y-109262238D01*
X120243723Y-109518832D01*
X120304140Y-109631863D01*
X120543007Y-109697388D01*
X121320395Y-108920000D01*
X121679605Y-108920000D01*
X122456993Y-109697388D01*
X122695860Y-109631863D01*
X122811760Y-109384884D01*
X122877250Y-109120040D01*
X122883129Y-108992492D01*
X123110188Y-108992492D01*
X123151035Y-109262238D01*
X123243723Y-109518832D01*
X123304140Y-109631863D01*
X123543007Y-109697388D01*
X124320395Y-108920000D01*
X124679605Y-108920000D01*
X125456993Y-109697388D01*
X125695860Y-109631863D01*
X125811760Y-109384884D01*
X125877250Y-109120040D01*
X125883129Y-108992492D01*
X126110188Y-108992492D01*
X126151035Y-109262238D01*
X126243723Y-109518832D01*
X126304140Y-109631863D01*
X126543007Y-109697388D01*
X127320395Y-108920000D01*
X127679605Y-108920000D01*
X128456993Y-109697388D01*
X128695860Y-109631863D01*
X128811760Y-109384884D01*
X128877250Y-109120040D01*
X128883129Y-108992492D01*
X129110188Y-108992492D01*
X129151035Y-109262238D01*
X129243723Y-109518832D01*
X129304140Y-109631863D01*
X129543007Y-109697388D01*
X130320395Y-108920000D01*
X130679605Y-108920000D01*
X131456993Y-109697388D01*
X131695860Y-109631863D01*
X131811760Y-109384884D01*
X131877250Y-109120040D01*
X131883129Y-108992492D01*
X132110188Y-108992492D01*
X132151035Y-109262238D01*
X132243723Y-109518832D01*
X132304140Y-109631863D01*
X132543007Y-109697388D01*
X133320395Y-108920000D01*
X133679605Y-108920000D01*
X134456993Y-109697388D01*
X134695860Y-109631863D01*
X134811760Y-109384884D01*
X134877250Y-109120040D01*
X134883129Y-108992492D01*
X135110188Y-108992492D01*
X135151035Y-109262238D01*
X135243723Y-109518832D01*
X135304140Y-109631863D01*
X135543007Y-109697388D01*
X136320395Y-108920000D01*
X136679605Y-108920000D01*
X137456993Y-109697388D01*
X137695860Y-109631863D01*
X137811760Y-109384884D01*
X137877250Y-109120040D01*
X137883129Y-108992492D01*
X138110188Y-108992492D01*
X138151035Y-109262238D01*
X138243723Y-109518832D01*
X138304140Y-109631863D01*
X138543007Y-109697388D01*
X139320395Y-108920000D01*
X139679605Y-108920000D01*
X140456993Y-109697388D01*
X140695860Y-109631863D01*
X140811760Y-109384884D01*
X140877250Y-109120040D01*
X140883129Y-108992492D01*
X141110188Y-108992492D01*
X141151035Y-109262238D01*
X141243723Y-109518832D01*
X141304140Y-109631863D01*
X141543007Y-109697388D01*
X142320395Y-108920000D01*
X142679605Y-108920000D01*
X143456993Y-109697388D01*
X143695860Y-109631863D01*
X143811760Y-109384884D01*
X143877250Y-109120040D01*
X143883129Y-108992492D01*
X144110188Y-108992492D01*
X144151035Y-109262238D01*
X144243723Y-109518832D01*
X144304140Y-109631863D01*
X144543007Y-109697388D01*
X145320395Y-108920000D01*
X145679605Y-108920000D01*
X146456993Y-109697388D01*
X146695860Y-109631863D01*
X146811760Y-109384884D01*
X146877250Y-109120040D01*
X146883129Y-108992492D01*
X147110188Y-108992492D01*
X147151035Y-109262238D01*
X147243723Y-109518832D01*
X147304140Y-109631863D01*
X147543007Y-109697388D01*
X148320395Y-108920000D01*
X148679605Y-108920000D01*
X149456993Y-109697388D01*
X149695860Y-109631863D01*
X149811760Y-109384884D01*
X149877250Y-109120040D01*
X149889812Y-108847508D01*
X149848965Y-108577762D01*
X149756277Y-108321168D01*
X149695860Y-108208137D01*
X149456993Y-108142612D01*
X148679605Y-108920000D01*
X148320395Y-108920000D01*
X147543007Y-108142612D01*
X147304140Y-108208137D01*
X147188240Y-108455116D01*
X147122750Y-108719960D01*
X147110188Y-108992492D01*
X146883129Y-108992492D01*
X146889812Y-108847508D01*
X146848965Y-108577762D01*
X146756277Y-108321168D01*
X146695860Y-108208137D01*
X146456993Y-108142612D01*
X145679605Y-108920000D01*
X145320395Y-108920000D01*
X144543007Y-108142612D01*
X144304140Y-108208137D01*
X144188240Y-108455116D01*
X144122750Y-108719960D01*
X144110188Y-108992492D01*
X143883129Y-108992492D01*
X143889812Y-108847508D01*
X143848965Y-108577762D01*
X143756277Y-108321168D01*
X143695860Y-108208137D01*
X143456993Y-108142612D01*
X142679605Y-108920000D01*
X142320395Y-108920000D01*
X141543007Y-108142612D01*
X141304140Y-108208137D01*
X141188240Y-108455116D01*
X141122750Y-108719960D01*
X141110188Y-108992492D01*
X140883129Y-108992492D01*
X140889812Y-108847508D01*
X140848965Y-108577762D01*
X140756277Y-108321168D01*
X140695860Y-108208137D01*
X140456993Y-108142612D01*
X139679605Y-108920000D01*
X139320395Y-108920000D01*
X138543007Y-108142612D01*
X138304140Y-108208137D01*
X138188240Y-108455116D01*
X138122750Y-108719960D01*
X138110188Y-108992492D01*
X137883129Y-108992492D01*
X137889812Y-108847508D01*
X137848965Y-108577762D01*
X137756277Y-108321168D01*
X137695860Y-108208137D01*
X137456993Y-108142612D01*
X136679605Y-108920000D01*
X136320395Y-108920000D01*
X135543007Y-108142612D01*
X135304140Y-108208137D01*
X135188240Y-108455116D01*
X135122750Y-108719960D01*
X135110188Y-108992492D01*
X134883129Y-108992492D01*
X134889812Y-108847508D01*
X134848965Y-108577762D01*
X134756277Y-108321168D01*
X134695860Y-108208137D01*
X134456993Y-108142612D01*
X133679605Y-108920000D01*
X133320395Y-108920000D01*
X132543007Y-108142612D01*
X132304140Y-108208137D01*
X132188240Y-108455116D01*
X132122750Y-108719960D01*
X132110188Y-108992492D01*
X131883129Y-108992492D01*
X131889812Y-108847508D01*
X131848965Y-108577762D01*
X131756277Y-108321168D01*
X131695860Y-108208137D01*
X131456993Y-108142612D01*
X130679605Y-108920000D01*
X130320395Y-108920000D01*
X129543007Y-108142612D01*
X129304140Y-108208137D01*
X129188240Y-108455116D01*
X129122750Y-108719960D01*
X129110188Y-108992492D01*
X128883129Y-108992492D01*
X128889812Y-108847508D01*
X128848965Y-108577762D01*
X128756277Y-108321168D01*
X128695860Y-108208137D01*
X128456993Y-108142612D01*
X127679605Y-108920000D01*
X127320395Y-108920000D01*
X126543007Y-108142612D01*
X126304140Y-108208137D01*
X126188240Y-108455116D01*
X126122750Y-108719960D01*
X126110188Y-108992492D01*
X125883129Y-108992492D01*
X125889812Y-108847508D01*
X125848965Y-108577762D01*
X125756277Y-108321168D01*
X125695860Y-108208137D01*
X125456993Y-108142612D01*
X124679605Y-108920000D01*
X124320395Y-108920000D01*
X123543007Y-108142612D01*
X123304140Y-108208137D01*
X123188240Y-108455116D01*
X123122750Y-108719960D01*
X123110188Y-108992492D01*
X122883129Y-108992492D01*
X122889812Y-108847508D01*
X122848965Y-108577762D01*
X122756277Y-108321168D01*
X122695860Y-108208137D01*
X122456993Y-108142612D01*
X121679605Y-108920000D01*
X121320395Y-108920000D01*
X120543007Y-108142612D01*
X120304140Y-108208137D01*
X120188240Y-108455116D01*
X120122750Y-108719960D01*
X120110188Y-108992492D01*
X118210000Y-108992492D01*
X118210000Y-107963007D01*
X120722612Y-107963007D01*
X121500000Y-108740395D01*
X122277388Y-107963007D01*
X123722612Y-107963007D01*
X124500000Y-108740395D01*
X125277388Y-107963007D01*
X126722612Y-107963007D01*
X127500000Y-108740395D01*
X128277388Y-107963007D01*
X129722612Y-107963007D01*
X130500000Y-108740395D01*
X131277388Y-107963007D01*
X132722612Y-107963007D01*
X133500000Y-108740395D01*
X134277388Y-107963007D01*
X135722612Y-107963007D01*
X136500000Y-108740395D01*
X137277388Y-107963007D01*
X138722612Y-107963007D01*
X139500000Y-108740395D01*
X140277388Y-107963007D01*
X141722612Y-107963007D01*
X142500000Y-108740395D01*
X143277388Y-107963007D01*
X144722612Y-107963007D01*
X145500000Y-108740395D01*
X146277388Y-107963007D01*
X147722612Y-107963007D01*
X148500000Y-108740395D01*
X149277388Y-107963007D01*
X149211863Y-107724140D01*
X148964884Y-107608240D01*
X148700040Y-107542750D01*
X148427508Y-107530188D01*
X148157762Y-107571035D01*
X147901168Y-107663723D01*
X147788137Y-107724140D01*
X147722612Y-107963007D01*
X146277388Y-107963007D01*
X146211863Y-107724140D01*
X145964884Y-107608240D01*
X145700040Y-107542750D01*
X145427508Y-107530188D01*
X145157762Y-107571035D01*
X144901168Y-107663723D01*
X144788137Y-107724140D01*
X144722612Y-107963007D01*
X143277388Y-107963007D01*
X143211863Y-107724140D01*
X142964884Y-107608240D01*
X142700040Y-107542750D01*
X142427508Y-107530188D01*
X142157762Y-107571035D01*
X141901168Y-107663723D01*
X141788137Y-107724140D01*
X141722612Y-107963007D01*
X140277388Y-107963007D01*
X140211863Y-107724140D01*
X139964884Y-107608240D01*
X139700040Y-107542750D01*
X139427508Y-107530188D01*
X139157762Y-107571035D01*
X138901168Y-107663723D01*
X138788137Y-107724140D01*
X138722612Y-107963007D01*
X137277388Y-107963007D01*
X137211863Y-107724140D01*
X136964884Y-107608240D01*
X136700040Y-107542750D01*
X136427508Y-107530188D01*
X136157762Y-107571035D01*
X135901168Y-107663723D01*
X135788137Y-107724140D01*
X135722612Y-107963007D01*
X134277388Y-107963007D01*
X134211863Y-107724140D01*
X133964884Y-107608240D01*
X133700040Y-107542750D01*
X133427508Y-107530188D01*
X133157762Y-107571035D01*
X132901168Y-107663723D01*
X132788137Y-107724140D01*
X132722612Y-107963007D01*
X131277388Y-107963007D01*
X131211863Y-107724140D01*
X130964884Y-107608240D01*
X130700040Y-107542750D01*
X130427508Y-107530188D01*
X130157762Y-107571035D01*
X129901168Y-107663723D01*
X129788137Y-107724140D01*
X129722612Y-107963007D01*
X128277388Y-107963007D01*
X128211863Y-107724140D01*
X127964884Y-107608240D01*
X127700040Y-107542750D01*
X127427508Y-107530188D01*
X127157762Y-107571035D01*
X126901168Y-107663723D01*
X126788137Y-107724140D01*
X126722612Y-107963007D01*
X125277388Y-107963007D01*
X125211863Y-107724140D01*
X124964884Y-107608240D01*
X124700040Y-107542750D01*
X124427508Y-107530188D01*
X124157762Y-107571035D01*
X123901168Y-107663723D01*
X123788137Y-107724140D01*
X123722612Y-107963007D01*
X122277388Y-107963007D01*
X122211863Y-107724140D01*
X121964884Y-107608240D01*
X121700040Y-107542750D01*
X121427508Y-107530188D01*
X121157762Y-107571035D01*
X120901168Y-107663723D01*
X120788137Y-107724140D01*
X120722612Y-107963007D01*
X118210000Y-107963007D01*
X118210000Y-106885565D01*
X120714040Y-106885565D01*
X120781020Y-107125656D01*
X121030048Y-107242756D01*
X121297135Y-107309023D01*
X121572017Y-107321910D01*
X121844133Y-107280922D01*
X122103023Y-107187636D01*
X122218980Y-107125656D01*
X122285960Y-106885565D01*
X122277388Y-106876993D01*
X123722612Y-106876993D01*
X123788137Y-107115860D01*
X124035116Y-107231760D01*
X124299960Y-107297250D01*
X124572492Y-107309812D01*
X124842238Y-107268965D01*
X125098832Y-107176277D01*
X125211863Y-107115860D01*
X125277388Y-106876993D01*
X126722612Y-106876993D01*
X126788137Y-107115860D01*
X127035116Y-107231760D01*
X127299960Y-107297250D01*
X127572492Y-107309812D01*
X127842238Y-107268965D01*
X128098832Y-107176277D01*
X128211863Y-107115860D01*
X128277388Y-106876993D01*
X129722612Y-106876993D01*
X129788137Y-107115860D01*
X130035116Y-107231760D01*
X130299960Y-107297250D01*
X130572492Y-107309812D01*
X130842238Y-107268965D01*
X131098832Y-107176277D01*
X131211863Y-107115860D01*
X131277388Y-106876993D01*
X132722612Y-106876993D01*
X132788137Y-107115860D01*
X133035116Y-107231760D01*
X133299960Y-107297250D01*
X133572492Y-107309812D01*
X133842238Y-107268965D01*
X134098832Y-107176277D01*
X134211863Y-107115860D01*
X134277388Y-106876993D01*
X135722612Y-106876993D01*
X135788137Y-107115860D01*
X136035116Y-107231760D01*
X136299960Y-107297250D01*
X136572492Y-107309812D01*
X136842238Y-107268965D01*
X137098832Y-107176277D01*
X137211863Y-107115860D01*
X137277388Y-106876993D01*
X138722612Y-106876993D01*
X138788137Y-107115860D01*
X139035116Y-107231760D01*
X139299960Y-107297250D01*
X139572492Y-107309812D01*
X139842238Y-107268965D01*
X140098832Y-107176277D01*
X140211863Y-107115860D01*
X140277388Y-106876993D01*
X141722612Y-106876993D01*
X141788137Y-107115860D01*
X142035116Y-107231760D01*
X142299960Y-107297250D01*
X142572492Y-107309812D01*
X142842238Y-107268965D01*
X143098832Y-107176277D01*
X143211863Y-107115860D01*
X143277388Y-106876993D01*
X144722612Y-106876993D01*
X144788137Y-107115860D01*
X145035116Y-107231760D01*
X145299960Y-107297250D01*
X145572492Y-107309812D01*
X145842238Y-107268965D01*
X146098832Y-107176277D01*
X146211863Y-107115860D01*
X146277388Y-106876993D01*
X147722612Y-106876993D01*
X147788137Y-107115860D01*
X148035116Y-107231760D01*
X148299960Y-107297250D01*
X148572492Y-107309812D01*
X148842238Y-107268965D01*
X149098832Y-107176277D01*
X149211863Y-107115860D01*
X149277388Y-106876993D01*
X148500000Y-106099605D01*
X147722612Y-106876993D01*
X146277388Y-106876993D01*
X145500000Y-106099605D01*
X144722612Y-106876993D01*
X143277388Y-106876993D01*
X142500000Y-106099605D01*
X141722612Y-106876993D01*
X140277388Y-106876993D01*
X139500000Y-106099605D01*
X138722612Y-106876993D01*
X137277388Y-106876993D01*
X136500000Y-106099605D01*
X135722612Y-106876993D01*
X134277388Y-106876993D01*
X133500000Y-106099605D01*
X132722612Y-106876993D01*
X131277388Y-106876993D01*
X130500000Y-106099605D01*
X129722612Y-106876993D01*
X128277388Y-106876993D01*
X127500000Y-106099605D01*
X126722612Y-106876993D01*
X125277388Y-106876993D01*
X124500000Y-106099605D01*
X123722612Y-106876993D01*
X122277388Y-106876993D01*
X121500000Y-106099605D01*
X120714040Y-106885565D01*
X118210000Y-106885565D01*
X118210000Y-105992017D01*
X120098090Y-105992017D01*
X120139078Y-106264133D01*
X120232364Y-106523023D01*
X120294344Y-106638980D01*
X120534435Y-106705960D01*
X121320395Y-105920000D01*
X121679605Y-105920000D01*
X122465565Y-106705960D01*
X122705656Y-106638980D01*
X122822756Y-106389952D01*
X122889023Y-106122865D01*
X122895135Y-105992492D01*
X123110188Y-105992492D01*
X123151035Y-106262238D01*
X123243723Y-106518832D01*
X123304140Y-106631863D01*
X123543007Y-106697388D01*
X124320395Y-105920000D01*
X124679605Y-105920000D01*
X125456993Y-106697388D01*
X125695860Y-106631863D01*
X125811760Y-106384884D01*
X125877250Y-106120040D01*
X125883129Y-105992492D01*
X126110188Y-105992492D01*
X126151035Y-106262238D01*
X126243723Y-106518832D01*
X126304140Y-106631863D01*
X126543007Y-106697388D01*
X127320395Y-105920000D01*
X127679605Y-105920000D01*
X128456993Y-106697388D01*
X128695860Y-106631863D01*
X128811760Y-106384884D01*
X128877250Y-106120040D01*
X128883129Y-105992492D01*
X129110188Y-105992492D01*
X129151035Y-106262238D01*
X129243723Y-106518832D01*
X129304140Y-106631863D01*
X129543007Y-106697388D01*
X130320395Y-105920000D01*
X130679605Y-105920000D01*
X131456993Y-106697388D01*
X131695860Y-106631863D01*
X131811760Y-106384884D01*
X131877250Y-106120040D01*
X131883129Y-105992492D01*
X132110188Y-105992492D01*
X132151035Y-106262238D01*
X132243723Y-106518832D01*
X132304140Y-106631863D01*
X132543007Y-106697388D01*
X133320395Y-105920000D01*
X133679605Y-105920000D01*
X134456993Y-106697388D01*
X134695860Y-106631863D01*
X134811760Y-106384884D01*
X134877250Y-106120040D01*
X134883129Y-105992492D01*
X135110188Y-105992492D01*
X135151035Y-106262238D01*
X135243723Y-106518832D01*
X135304140Y-106631863D01*
X135543007Y-106697388D01*
X136320395Y-105920000D01*
X136679605Y-105920000D01*
X137456993Y-106697388D01*
X137695860Y-106631863D01*
X137811760Y-106384884D01*
X137877250Y-106120040D01*
X137883129Y-105992492D01*
X138110188Y-105992492D01*
X138151035Y-106262238D01*
X138243723Y-106518832D01*
X138304140Y-106631863D01*
X138543007Y-106697388D01*
X139320395Y-105920000D01*
X139679605Y-105920000D01*
X140456993Y-106697388D01*
X140695860Y-106631863D01*
X140811760Y-106384884D01*
X140877250Y-106120040D01*
X140883129Y-105992492D01*
X141110188Y-105992492D01*
X141151035Y-106262238D01*
X141243723Y-106518832D01*
X141304140Y-106631863D01*
X141543007Y-106697388D01*
X142320395Y-105920000D01*
X142679605Y-105920000D01*
X143456993Y-106697388D01*
X143695860Y-106631863D01*
X143811760Y-106384884D01*
X143877250Y-106120040D01*
X143883129Y-105992492D01*
X144110188Y-105992492D01*
X144151035Y-106262238D01*
X144243723Y-106518832D01*
X144304140Y-106631863D01*
X144543007Y-106697388D01*
X145320395Y-105920000D01*
X145679605Y-105920000D01*
X146456993Y-106697388D01*
X146695860Y-106631863D01*
X146811760Y-106384884D01*
X146877250Y-106120040D01*
X146883129Y-105992492D01*
X147110188Y-105992492D01*
X147151035Y-106262238D01*
X147243723Y-106518832D01*
X147304140Y-106631863D01*
X147543007Y-106697388D01*
X148320395Y-105920000D01*
X148679605Y-105920000D01*
X149456993Y-106697388D01*
X149695860Y-106631863D01*
X149811760Y-106384884D01*
X149877250Y-106120040D01*
X149889812Y-105847508D01*
X149848965Y-105577762D01*
X149756277Y-105321168D01*
X149695860Y-105208137D01*
X149456993Y-105142612D01*
X148679605Y-105920000D01*
X148320395Y-105920000D01*
X147543007Y-105142612D01*
X147304140Y-105208137D01*
X147188240Y-105455116D01*
X147122750Y-105719960D01*
X147110188Y-105992492D01*
X146883129Y-105992492D01*
X146889812Y-105847508D01*
X146848965Y-105577762D01*
X146756277Y-105321168D01*
X146695860Y-105208137D01*
X146456993Y-105142612D01*
X145679605Y-105920000D01*
X145320395Y-105920000D01*
X144543007Y-105142612D01*
X144304140Y-105208137D01*
X144188240Y-105455116D01*
X144122750Y-105719960D01*
X144110188Y-105992492D01*
X143883129Y-105992492D01*
X143889812Y-105847508D01*
X143848965Y-105577762D01*
X143756277Y-105321168D01*
X143695860Y-105208137D01*
X143456993Y-105142612D01*
X142679605Y-105920000D01*
X142320395Y-105920000D01*
X141543007Y-105142612D01*
X141304140Y-105208137D01*
X141188240Y-105455116D01*
X141122750Y-105719960D01*
X141110188Y-105992492D01*
X140883129Y-105992492D01*
X140889812Y-105847508D01*
X140848965Y-105577762D01*
X140756277Y-105321168D01*
X140695860Y-105208137D01*
X140456993Y-105142612D01*
X139679605Y-105920000D01*
X139320395Y-105920000D01*
X138543007Y-105142612D01*
X138304140Y-105208137D01*
X138188240Y-105455116D01*
X138122750Y-105719960D01*
X138110188Y-105992492D01*
X137883129Y-105992492D01*
X137889812Y-105847508D01*
X137848965Y-105577762D01*
X137756277Y-105321168D01*
X137695860Y-105208137D01*
X137456993Y-105142612D01*
X136679605Y-105920000D01*
X136320395Y-105920000D01*
X135543007Y-105142612D01*
X135304140Y-105208137D01*
X135188240Y-105455116D01*
X135122750Y-105719960D01*
X135110188Y-105992492D01*
X134883129Y-105992492D01*
X134889812Y-105847508D01*
X134848965Y-105577762D01*
X134756277Y-105321168D01*
X134695860Y-105208137D01*
X134456993Y-105142612D01*
X133679605Y-105920000D01*
X133320395Y-105920000D01*
X132543007Y-105142612D01*
X132304140Y-105208137D01*
X132188240Y-105455116D01*
X132122750Y-105719960D01*
X132110188Y-105992492D01*
X131883129Y-105992492D01*
X131889812Y-105847508D01*
X131848965Y-105577762D01*
X131756277Y-105321168D01*
X131695860Y-105208137D01*
X131456993Y-105142612D01*
X130679605Y-105920000D01*
X130320395Y-105920000D01*
X129543007Y-105142612D01*
X129304140Y-105208137D01*
X129188240Y-105455116D01*
X129122750Y-105719960D01*
X129110188Y-105992492D01*
X128883129Y-105992492D01*
X128889812Y-105847508D01*
X128848965Y-105577762D01*
X128756277Y-105321168D01*
X128695860Y-105208137D01*
X128456993Y-105142612D01*
X127679605Y-105920000D01*
X127320395Y-105920000D01*
X126543007Y-105142612D01*
X126304140Y-105208137D01*
X126188240Y-105455116D01*
X126122750Y-105719960D01*
X126110188Y-105992492D01*
X125883129Y-105992492D01*
X125889812Y-105847508D01*
X125848965Y-105577762D01*
X125756277Y-105321168D01*
X125695860Y-105208137D01*
X125456993Y-105142612D01*
X124679605Y-105920000D01*
X124320395Y-105920000D01*
X123543007Y-105142612D01*
X123304140Y-105208137D01*
X123188240Y-105455116D01*
X123122750Y-105719960D01*
X123110188Y-105992492D01*
X122895135Y-105992492D01*
X122901910Y-105847983D01*
X122860922Y-105575867D01*
X122767636Y-105316977D01*
X122705656Y-105201020D01*
X122465565Y-105134040D01*
X121679605Y-105920000D01*
X121320395Y-105920000D01*
X120534435Y-105134040D01*
X120294344Y-105201020D01*
X120177244Y-105450048D01*
X120110977Y-105717135D01*
X120098090Y-105992017D01*
X118210000Y-105992017D01*
X118210000Y-104954435D01*
X120714040Y-104954435D01*
X121500000Y-105740395D01*
X122277388Y-104963007D01*
X123722612Y-104963007D01*
X124500000Y-105740395D01*
X125277388Y-104963007D01*
X126722612Y-104963007D01*
X127500000Y-105740395D01*
X128277388Y-104963007D01*
X129722612Y-104963007D01*
X130500000Y-105740395D01*
X131277388Y-104963007D01*
X132722612Y-104963007D01*
X133500000Y-105740395D01*
X134277388Y-104963007D01*
X135722612Y-104963007D01*
X136500000Y-105740395D01*
X137277388Y-104963007D01*
X138722612Y-104963007D01*
X139500000Y-105740395D01*
X140277388Y-104963007D01*
X141722612Y-104963007D01*
X142500000Y-105740395D01*
X143277388Y-104963007D01*
X144722612Y-104963007D01*
X145500000Y-105740395D01*
X146277388Y-104963007D01*
X147722612Y-104963007D01*
X148500000Y-105740395D01*
X149277388Y-104963007D01*
X149211863Y-104724140D01*
X148964884Y-104608240D01*
X148700040Y-104542750D01*
X148427508Y-104530188D01*
X148157762Y-104571035D01*
X147901168Y-104663723D01*
X147788137Y-104724140D01*
X147722612Y-104963007D01*
X146277388Y-104963007D01*
X146211863Y-104724140D01*
X145964884Y-104608240D01*
X145700040Y-104542750D01*
X145427508Y-104530188D01*
X145157762Y-104571035D01*
X144901168Y-104663723D01*
X144788137Y-104724140D01*
X144722612Y-104963007D01*
X143277388Y-104963007D01*
X143211863Y-104724140D01*
X142964884Y-104608240D01*
X142700040Y-104542750D01*
X142427508Y-104530188D01*
X142157762Y-104571035D01*
X141901168Y-104663723D01*
X141788137Y-104724140D01*
X141722612Y-104963007D01*
X140277388Y-104963007D01*
X140211863Y-104724140D01*
X139964884Y-104608240D01*
X139700040Y-104542750D01*
X139427508Y-104530188D01*
X139157762Y-104571035D01*
X138901168Y-104663723D01*
X138788137Y-104724140D01*
X138722612Y-104963007D01*
X137277388Y-104963007D01*
X137211863Y-104724140D01*
X136964884Y-104608240D01*
X136700040Y-104542750D01*
X136427508Y-104530188D01*
X136157762Y-104571035D01*
X135901168Y-104663723D01*
X135788137Y-104724140D01*
X135722612Y-104963007D01*
X134277388Y-104963007D01*
X134211863Y-104724140D01*
X133964884Y-104608240D01*
X133700040Y-104542750D01*
X133427508Y-104530188D01*
X133157762Y-104571035D01*
X132901168Y-104663723D01*
X132788137Y-104724140D01*
X132722612Y-104963007D01*
X131277388Y-104963007D01*
X131211863Y-104724140D01*
X130964884Y-104608240D01*
X130700040Y-104542750D01*
X130427508Y-104530188D01*
X130157762Y-104571035D01*
X129901168Y-104663723D01*
X129788137Y-104724140D01*
X129722612Y-104963007D01*
X128277388Y-104963007D01*
X128211863Y-104724140D01*
X127964884Y-104608240D01*
X127700040Y-104542750D01*
X127427508Y-104530188D01*
X127157762Y-104571035D01*
X126901168Y-104663723D01*
X126788137Y-104724140D01*
X126722612Y-104963007D01*
X125277388Y-104963007D01*
X125211863Y-104724140D01*
X124964884Y-104608240D01*
X124700040Y-104542750D01*
X124427508Y-104530188D01*
X124157762Y-104571035D01*
X123901168Y-104663723D01*
X123788137Y-104724140D01*
X123722612Y-104963007D01*
X122277388Y-104963007D01*
X122285960Y-104954435D01*
X122218980Y-104714344D01*
X121969952Y-104597244D01*
X121702865Y-104530977D01*
X121427983Y-104518090D01*
X121155867Y-104559078D01*
X120896977Y-104652364D01*
X120781020Y-104714344D01*
X120714040Y-104954435D01*
X118210000Y-104954435D01*
X118210000Y-101389721D01*
X121515000Y-101389721D01*
X121515000Y-101810279D01*
X121597047Y-102222756D01*
X121757988Y-102611302D01*
X121991637Y-102960983D01*
X122289017Y-103258363D01*
X122638698Y-103492012D01*
X123027244Y-103652953D01*
X123439721Y-103735000D01*
X123860279Y-103735000D01*
X124272756Y-103652953D01*
X124661302Y-103492012D01*
X125010983Y-103258363D01*
X125308363Y-102960983D01*
X125542012Y-102611302D01*
X125702953Y-102222756D01*
X125785000Y-101810279D01*
X125785000Y-101389721D01*
X144215000Y-101389721D01*
X144215000Y-101810279D01*
X144297047Y-102222756D01*
X144457988Y-102611302D01*
X144691637Y-102960983D01*
X144989017Y-103258363D01*
X145338698Y-103492012D01*
X145727244Y-103652953D01*
X146139721Y-103735000D01*
X146560279Y-103735000D01*
X146972756Y-103652953D01*
X147361302Y-103492012D01*
X147710983Y-103258363D01*
X148008363Y-102960983D01*
X148242012Y-102611302D01*
X148402953Y-102222756D01*
X148485000Y-101810279D01*
X148485000Y-101389721D01*
X148402953Y-100977244D01*
X148242012Y-100588698D01*
X148008363Y-100239017D01*
X147710983Y-99941637D01*
X147361302Y-99707988D01*
X146972756Y-99547047D01*
X146560279Y-99465000D01*
X146139721Y-99465000D01*
X145727244Y-99547047D01*
X145338698Y-99707988D01*
X144989017Y-99941637D01*
X144691637Y-100239017D01*
X144457988Y-100588698D01*
X144297047Y-100977244D01*
X144215000Y-101389721D01*
X125785000Y-101389721D01*
X125702953Y-100977244D01*
X125542012Y-100588698D01*
X125308363Y-100239017D01*
X125010983Y-99941637D01*
X124661302Y-99707988D01*
X124272756Y-99547047D01*
X123860279Y-99465000D01*
X123439721Y-99465000D01*
X123027244Y-99547047D01*
X122638698Y-99707988D01*
X122289017Y-99941637D01*
X121991637Y-100239017D01*
X121757988Y-100588698D01*
X121597047Y-100977244D01*
X121515000Y-101389721D01*
X118210000Y-101389721D01*
X118210000Y-97210000D01*
X151790000Y-97210000D01*
X151790001Y-139790000D01*
X151790001Y-139790000D01*
G37*
X151790001Y-139790000D02*
X118210000Y-139790000D01*
X118210000Y-135109721D01*
X121515000Y-135109721D01*
X121515000Y-135530279D01*
X121597047Y-135942756D01*
X121757988Y-136331302D01*
X121991637Y-136680983D01*
X122289017Y-136978363D01*
X122638698Y-137212012D01*
X123027244Y-137372953D01*
X123439721Y-137455000D01*
X123860279Y-137455000D01*
X124272756Y-137372953D01*
X124661302Y-137212012D01*
X125010983Y-136978363D01*
X125308363Y-136680983D01*
X125542012Y-136331302D01*
X125702953Y-135942756D01*
X125785000Y-135530279D01*
X125785000Y-135109721D01*
X144215000Y-135109721D01*
X144215000Y-135530279D01*
X144297047Y-135942756D01*
X144457988Y-136331302D01*
X144691637Y-136680983D01*
X144989017Y-136978363D01*
X145338698Y-137212012D01*
X145727244Y-137372953D01*
X146139721Y-137455000D01*
X146560279Y-137455000D01*
X146972756Y-137372953D01*
X147361302Y-137212012D01*
X147710983Y-136978363D01*
X148008363Y-136680983D01*
X148242012Y-136331302D01*
X148402953Y-135942756D01*
X148485000Y-135530279D01*
X148485000Y-135109721D01*
X148402953Y-134697244D01*
X148242012Y-134308698D01*
X148008363Y-133959017D01*
X147710983Y-133661637D01*
X147361302Y-133427988D01*
X146972756Y-133267047D01*
X146560279Y-133185000D01*
X146139721Y-133185000D01*
X145727244Y-133267047D01*
X145338698Y-133427988D01*
X144989017Y-133661637D01*
X144691637Y-133959017D01*
X144457988Y-134308698D01*
X144297047Y-134697244D01*
X144215000Y-135109721D01*
X125785000Y-135109721D01*
X125702953Y-134697244D01*
X125542012Y-134308698D01*
X125308363Y-133959017D01*
X125010983Y-133661637D01*
X124661302Y-133427988D01*
X124272756Y-133267047D01*
X123860279Y-133185000D01*
X123439721Y-133185000D01*
X123027244Y-133267047D01*
X122638698Y-133427988D01*
X122289017Y-133661637D01*
X121991637Y-133959017D01*
X121757988Y-134308698D01*
X121597047Y-134697244D01*
X121515000Y-135109721D01*
X118210000Y-135109721D01*
X118210000Y-130863589D01*
X120115000Y-130863589D01*
X120115000Y-131136411D01*
X120168225Y-131403989D01*
X120272629Y-131656043D01*
X120424201Y-131882886D01*
X120617114Y-132075799D01*
X120843957Y-132227371D01*
X121096011Y-132331775D01*
X121363589Y-132385000D01*
X121636411Y-132385000D01*
X121903989Y-132331775D01*
X122156043Y-132227371D01*
X122382886Y-132075799D01*
X122575799Y-131882886D01*
X122727371Y-131656043D01*
X122831775Y-131403989D01*
X122885000Y-131136411D01*
X122885000Y-130863589D01*
X123115000Y-130863589D01*
X123115000Y-131136411D01*
X123168225Y-131403989D01*
X123272629Y-131656043D01*
X123424201Y-131882886D01*
X123617114Y-132075799D01*
X123843957Y-132227371D01*
X124096011Y-132331775D01*
X124363589Y-132385000D01*
X124636411Y-132385000D01*
X124903989Y-132331775D01*
X125156043Y-132227371D01*
X125382886Y-132075799D01*
X125575799Y-131882886D01*
X125727371Y-131656043D01*
X125831775Y-131403989D01*
X125885000Y-131136411D01*
X125885000Y-130863589D01*
X126115000Y-130863589D01*
X126115000Y-131136411D01*
X126168225Y-131403989D01*
X126272629Y-131656043D01*
X126424201Y-131882886D01*
X126617114Y-132075799D01*
X126843957Y-132227371D01*
X127096011Y-132331775D01*
X127363589Y-132385000D01*
X127636411Y-132385000D01*
X127903989Y-132331775D01*
X128156043Y-132227371D01*
X128382886Y-132075799D01*
X128575799Y-131882886D01*
X128727371Y-131656043D01*
X128831775Y-131403989D01*
X128885000Y-131136411D01*
X128885000Y-130863589D01*
X129115000Y-130863589D01*
X129115000Y-131136411D01*
X129168225Y-131403989D01*
X129272629Y-131656043D01*
X129424201Y-131882886D01*
X129617114Y-132075799D01*
X129843957Y-132227371D01*
X130096011Y-132331775D01*
X130363589Y-132385000D01*
X130636411Y-132385000D01*
X130903989Y-132331775D01*
X131156043Y-132227371D01*
X131382886Y-132075799D01*
X131575799Y-131882886D01*
X131727371Y-131656043D01*
X131831775Y-131403989D01*
X131885000Y-131136411D01*
X131885000Y-130863589D01*
X132115000Y-130863589D01*
X132115000Y-131136411D01*
X132168225Y-131403989D01*
X132272629Y-131656043D01*
X132424201Y-131882886D01*
X132617114Y-132075799D01*
X132843957Y-132227371D01*
X133096011Y-132331775D01*
X133363589Y-132385000D01*
X133636411Y-132385000D01*
X133903989Y-132331775D01*
X134156043Y-132227371D01*
X134382886Y-132075799D01*
X134575799Y-131882886D01*
X134727371Y-131656043D01*
X134831775Y-131403989D01*
X134885000Y-131136411D01*
X134885000Y-130863589D01*
X135115000Y-130863589D01*
X135115000Y-131136411D01*
X135168225Y-131403989D01*
X135272629Y-131656043D01*
X135424201Y-131882886D01*
X135617114Y-132075799D01*
X135843957Y-132227371D01*
X136096011Y-132331775D01*
X136363589Y-132385000D01*
X136636411Y-132385000D01*
X136903989Y-132331775D01*
X137156043Y-132227371D01*
X137382886Y-132075799D01*
X137575799Y-131882886D01*
X137727371Y-131656043D01*
X137831775Y-131403989D01*
X137885000Y-131136411D01*
X137885000Y-130863589D01*
X138115000Y-130863589D01*
X138115000Y-131136411D01*
X138168225Y-131403989D01*
X138272629Y-131656043D01*
X138424201Y-131882886D01*
X138617114Y-132075799D01*
X138843957Y-132227371D01*
X139096011Y-132331775D01*
X139363589Y-132385000D01*
X139636411Y-132385000D01*
X139903989Y-132331775D01*
X140156043Y-132227371D01*
X140382886Y-132075799D01*
X140575799Y-131882886D01*
X140727371Y-131656043D01*
X140831775Y-131403989D01*
X140885000Y-131136411D01*
X140885000Y-130863589D01*
X141115000Y-130863589D01*
X141115000Y-131136411D01*
X141168225Y-131403989D01*
X141272629Y-131656043D01*
X141424201Y-131882886D01*
X141617114Y-132075799D01*
X141843957Y-132227371D01*
X142096011Y-132331775D01*
X142363589Y-132385000D01*
X142636411Y-132385000D01*
X142903989Y-132331775D01*
X143156043Y-132227371D01*
X143382886Y-132075799D01*
X143575799Y-131882886D01*
X143727371Y-131656043D01*
X143831775Y-131403989D01*
X143885000Y-131136411D01*
X143885000Y-130863589D01*
X144115000Y-130863589D01*
X144115000Y-131136411D01*
X144168225Y-131403989D01*
X144272629Y-131656043D01*
X144424201Y-131882886D01*
X144617114Y-132075799D01*
X144843957Y-132227371D01*
X145096011Y-132331775D01*
X145363589Y-132385000D01*
X145636411Y-132385000D01*
X145903989Y-132331775D01*
X146156043Y-132227371D01*
X146382886Y-132075799D01*
X146575799Y-131882886D01*
X146727371Y-131656043D01*
X146831775Y-131403989D01*
X146885000Y-131136411D01*
X146885000Y-130863589D01*
X146884766Y-130862408D01*
X147103000Y-130862408D01*
X147103000Y-131137592D01*
X147156686Y-131407490D01*
X147261995Y-131661727D01*
X147414880Y-131890535D01*
X147609465Y-132085120D01*
X147838273Y-132238005D01*
X148092510Y-132343314D01*
X148362408Y-132397000D01*
X148637592Y-132397000D01*
X148907490Y-132343314D01*
X149161727Y-132238005D01*
X149390535Y-132085120D01*
X149585120Y-131890535D01*
X149738005Y-131661727D01*
X149843314Y-131407490D01*
X149897000Y-131137592D01*
X149897000Y-130862408D01*
X149843314Y-130592510D01*
X149738005Y-130338273D01*
X149585120Y-130109465D01*
X149390535Y-129914880D01*
X149161727Y-129761995D01*
X148907490Y-129656686D01*
X148637592Y-129603000D01*
X148362408Y-129603000D01*
X148092510Y-129656686D01*
X147838273Y-129761995D01*
X147609465Y-129914880D01*
X147414880Y-130109465D01*
X147261995Y-130338273D01*
X147156686Y-130592510D01*
X147103000Y-130862408D01*
X146884766Y-130862408D01*
X146831775Y-130596011D01*
X146727371Y-130343957D01*
X146575799Y-130117114D01*
X146382886Y-129924201D01*
X146156043Y-129772629D01*
X145903989Y-129668225D01*
X145636411Y-129615000D01*
X145363589Y-129615000D01*
X145096011Y-129668225D01*
X144843957Y-129772629D01*
X144617114Y-129924201D01*
X144424201Y-130117114D01*
X144272629Y-130343957D01*
X144168225Y-130596011D01*
X144115000Y-130863589D01*
X143885000Y-130863589D01*
X143831775Y-130596011D01*
X143727371Y-130343957D01*
X143575799Y-130117114D01*
X143382886Y-129924201D01*
X143156043Y-129772629D01*
X142903989Y-129668225D01*
X142636411Y-129615000D01*
X142363589Y-129615000D01*
X142096011Y-129668225D01*
X141843957Y-129772629D01*
X141617114Y-129924201D01*
X141424201Y-130117114D01*
X141272629Y-130343957D01*
X141168225Y-130596011D01*
X141115000Y-130863589D01*
X140885000Y-130863589D01*
X140831775Y-130596011D01*
X140727371Y-130343957D01*
X140575799Y-130117114D01*
X140382886Y-129924201D01*
X140156043Y-129772629D01*
X139903989Y-129668225D01*
X139636411Y-129615000D01*
X139363589Y-129615000D01*
X139096011Y-129668225D01*
X138843957Y-129772629D01*
X138617114Y-129924201D01*
X138424201Y-130117114D01*
X138272629Y-130343957D01*
X138168225Y-130596011D01*
X138115000Y-130863589D01*
X137885000Y-130863589D01*
X137831775Y-130596011D01*
X137727371Y-130343957D01*
X137575799Y-130117114D01*
X137382886Y-129924201D01*
X137156043Y-129772629D01*
X136903989Y-129668225D01*
X136636411Y-129615000D01*
X136363589Y-129615000D01*
X136096011Y-129668225D01*
X135843957Y-129772629D01*
X135617114Y-129924201D01*
X135424201Y-130117114D01*
X135272629Y-130343957D01*
X135168225Y-130596011D01*
X135115000Y-130863589D01*
X134885000Y-130863589D01*
X134831775Y-130596011D01*
X134727371Y-130343957D01*
X134575799Y-130117114D01*
X134382886Y-129924201D01*
X134156043Y-129772629D01*
X133903989Y-129668225D01*
X133636411Y-129615000D01*
X133363589Y-129615000D01*
X133096011Y-129668225D01*
X132843957Y-129772629D01*
X132617114Y-129924201D01*
X132424201Y-130117114D01*
X132272629Y-130343957D01*
X132168225Y-130596011D01*
X132115000Y-130863589D01*
X131885000Y-130863589D01*
X131831775Y-130596011D01*
X131727371Y-130343957D01*
X131575799Y-130117114D01*
X131382886Y-129924201D01*
X131156043Y-129772629D01*
X130903989Y-129668225D01*
X130636411Y-129615000D01*
X130363589Y-129615000D01*
X130096011Y-129668225D01*
X129843957Y-129772629D01*
X129617114Y-129924201D01*
X129424201Y-130117114D01*
X129272629Y-130343957D01*
X129168225Y-130596011D01*
X129115000Y-130863589D01*
X128885000Y-130863589D01*
X128831775Y-130596011D01*
X128727371Y-130343957D01*
X128575799Y-130117114D01*
X128382886Y-129924201D01*
X128156043Y-129772629D01*
X127903989Y-129668225D01*
X127636411Y-129615000D01*
X127363589Y-129615000D01*
X127096011Y-129668225D01*
X126843957Y-129772629D01*
X126617114Y-129924201D01*
X126424201Y-130117114D01*
X126272629Y-130343957D01*
X126168225Y-130596011D01*
X126115000Y-130863589D01*
X125885000Y-130863589D01*
X125831775Y-130596011D01*
X125727371Y-130343957D01*
X125575799Y-130117114D01*
X125382886Y-129924201D01*
X125156043Y-129772629D01*
X124903989Y-129668225D01*
X124636411Y-129615000D01*
X124363589Y-129615000D01*
X124096011Y-129668225D01*
X123843957Y-129772629D01*
X123617114Y-129924201D01*
X123424201Y-130117114D01*
X123272629Y-130343957D01*
X123168225Y-130596011D01*
X123115000Y-130863589D01*
X122885000Y-130863589D01*
X122831775Y-130596011D01*
X122727371Y-130343957D01*
X122575799Y-130117114D01*
X122382886Y-129924201D01*
X122156043Y-129772629D01*
X121903989Y-129668225D01*
X121636411Y-129615000D01*
X121363589Y-129615000D01*
X121096011Y-129668225D01*
X120843957Y-129772629D01*
X120617114Y-129924201D01*
X120424201Y-130117114D01*
X120272629Y-130343957D01*
X120168225Y-130596011D01*
X120115000Y-130863589D01*
X118210000Y-130863589D01*
X118210000Y-127863589D01*
X120115000Y-127863589D01*
X120115000Y-128136411D01*
X120168225Y-128403989D01*
X120272629Y-128656043D01*
X120424201Y-128882886D01*
X120617114Y-129075799D01*
X120843957Y-129227371D01*
X121096011Y-129331775D01*
X121363589Y-129385000D01*
X121636411Y-129385000D01*
X121903989Y-129331775D01*
X122156043Y-129227371D01*
X122382886Y-129075799D01*
X122575799Y-128882886D01*
X122727371Y-128656043D01*
X122831775Y-128403989D01*
X122885000Y-128136411D01*
X122885000Y-127863589D01*
X123115000Y-127863589D01*
X123115000Y-128136411D01*
X123168225Y-128403989D01*
X123272629Y-128656043D01*
X123424201Y-128882886D01*
X123617114Y-129075799D01*
X123843957Y-129227371D01*
X124096011Y-129331775D01*
X124363589Y-129385000D01*
X124636411Y-129385000D01*
X124903989Y-129331775D01*
X125156043Y-129227371D01*
X125382886Y-129075799D01*
X125575799Y-128882886D01*
X125727371Y-128656043D01*
X125831775Y-128403989D01*
X125885000Y-128136411D01*
X125885000Y-127863589D01*
X126115000Y-127863589D01*
X126115000Y-128136411D01*
X126168225Y-128403989D01*
X126272629Y-128656043D01*
X126424201Y-128882886D01*
X126617114Y-129075799D01*
X126843957Y-129227371D01*
X127096011Y-129331775D01*
X127363589Y-129385000D01*
X127636411Y-129385000D01*
X127903989Y-129331775D01*
X128156043Y-129227371D01*
X128382886Y-129075799D01*
X128575799Y-128882886D01*
X128727371Y-128656043D01*
X128831775Y-128403989D01*
X128885000Y-128136411D01*
X128885000Y-127863589D01*
X129115000Y-127863589D01*
X129115000Y-128136411D01*
X129168225Y-128403989D01*
X129272629Y-128656043D01*
X129424201Y-128882886D01*
X129617114Y-129075799D01*
X129843957Y-129227371D01*
X130096011Y-129331775D01*
X130363589Y-129385000D01*
X130636411Y-129385000D01*
X130903989Y-129331775D01*
X131156043Y-129227371D01*
X131382886Y-129075799D01*
X131575799Y-128882886D01*
X131727371Y-128656043D01*
X131831775Y-128403989D01*
X131885000Y-128136411D01*
X131885000Y-127863589D01*
X132115000Y-127863589D01*
X132115000Y-128136411D01*
X132168225Y-128403989D01*
X132272629Y-128656043D01*
X132424201Y-128882886D01*
X132617114Y-129075799D01*
X132843957Y-129227371D01*
X133096011Y-129331775D01*
X133363589Y-129385000D01*
X133636411Y-129385000D01*
X133903989Y-129331775D01*
X134156043Y-129227371D01*
X134382886Y-129075799D01*
X134575799Y-128882886D01*
X134727371Y-128656043D01*
X134831775Y-128403989D01*
X134885000Y-128136411D01*
X134885000Y-127863589D01*
X135115000Y-127863589D01*
X135115000Y-128136411D01*
X135168225Y-128403989D01*
X135272629Y-128656043D01*
X135424201Y-128882886D01*
X135617114Y-129075799D01*
X135843957Y-129227371D01*
X136096011Y-129331775D01*
X136363589Y-129385000D01*
X136636411Y-129385000D01*
X136903989Y-129331775D01*
X137156043Y-129227371D01*
X137382886Y-129075799D01*
X137575799Y-128882886D01*
X137727371Y-128656043D01*
X137831775Y-128403989D01*
X137885000Y-128136411D01*
X137885000Y-127863589D01*
X138115000Y-127863589D01*
X138115000Y-128136411D01*
X138168225Y-128403989D01*
X138272629Y-128656043D01*
X138424201Y-128882886D01*
X138617114Y-129075799D01*
X138843957Y-129227371D01*
X139096011Y-129331775D01*
X139363589Y-129385000D01*
X139636411Y-129385000D01*
X139903989Y-129331775D01*
X140156043Y-129227371D01*
X140382886Y-129075799D01*
X140575799Y-128882886D01*
X140727371Y-128656043D01*
X140831775Y-128403989D01*
X140885000Y-128136411D01*
X140885000Y-127863589D01*
X141115000Y-127863589D01*
X141115000Y-128136411D01*
X141168225Y-128403989D01*
X141272629Y-128656043D01*
X141424201Y-128882886D01*
X141617114Y-129075799D01*
X141843957Y-129227371D01*
X142096011Y-129331775D01*
X142363589Y-129385000D01*
X142636411Y-129385000D01*
X142903989Y-129331775D01*
X143156043Y-129227371D01*
X143382886Y-129075799D01*
X143575799Y-128882886D01*
X143727371Y-128656043D01*
X143831775Y-128403989D01*
X143885000Y-128136411D01*
X143885000Y-127863589D01*
X144115000Y-127863589D01*
X144115000Y-128136411D01*
X144168225Y-128403989D01*
X144272629Y-128656043D01*
X144424201Y-128882886D01*
X144617114Y-129075799D01*
X144843957Y-129227371D01*
X145096011Y-129331775D01*
X145363589Y-129385000D01*
X145636411Y-129385000D01*
X145903989Y-129331775D01*
X146156043Y-129227371D01*
X146382886Y-129075799D01*
X146575799Y-128882886D01*
X146727371Y-128656043D01*
X146831775Y-128403989D01*
X146885000Y-128136411D01*
X146885000Y-127863589D01*
X147115000Y-127863589D01*
X147115000Y-128136411D01*
X147168225Y-128403989D01*
X147272629Y-128656043D01*
X147424201Y-128882886D01*
X147617114Y-129075799D01*
X147843957Y-129227371D01*
X148096011Y-129331775D01*
X148363589Y-129385000D01*
X148636411Y-129385000D01*
X148903989Y-129331775D01*
X149156043Y-129227371D01*
X149382886Y-129075799D01*
X149575799Y-128882886D01*
X149727371Y-128656043D01*
X149831775Y-128403989D01*
X149885000Y-128136411D01*
X149885000Y-127863589D01*
X149831775Y-127596011D01*
X149727371Y-127343957D01*
X149575799Y-127117114D01*
X149382886Y-126924201D01*
X149156043Y-126772629D01*
X148903989Y-126668225D01*
X148636411Y-126615000D01*
X148363589Y-126615000D01*
X148096011Y-126668225D01*
X147843957Y-126772629D01*
X147617114Y-126924201D01*
X147424201Y-127117114D01*
X147272629Y-127343957D01*
X147168225Y-127596011D01*
X147115000Y-127863589D01*
X146885000Y-127863589D01*
X146831775Y-127596011D01*
X146727371Y-127343957D01*
X146575799Y-127117114D01*
X146382886Y-126924201D01*
X146156043Y-126772629D01*
X145903989Y-126668225D01*
X145636411Y-126615000D01*
X145363589Y-126615000D01*
X145096011Y-126668225D01*
X144843957Y-126772629D01*
X144617114Y-126924201D01*
X144424201Y-127117114D01*
X144272629Y-127343957D01*
X144168225Y-127596011D01*
X144115000Y-127863589D01*
X143885000Y-127863589D01*
X143831775Y-127596011D01*
X143727371Y-127343957D01*
X143575799Y-127117114D01*
X143382886Y-126924201D01*
X143156043Y-126772629D01*
X142903989Y-126668225D01*
X142636411Y-126615000D01*
X142363589Y-126615000D01*
X142096011Y-126668225D01*
X141843957Y-126772629D01*
X141617114Y-126924201D01*
X141424201Y-127117114D01*
X141272629Y-127343957D01*
X141168225Y-127596011D01*
X141115000Y-127863589D01*
X140885000Y-127863589D01*
X140831775Y-127596011D01*
X140727371Y-127343957D01*
X140575799Y-127117114D01*
X140382886Y-126924201D01*
X140156043Y-126772629D01*
X139903989Y-126668225D01*
X139636411Y-126615000D01*
X139363589Y-126615000D01*
X139096011Y-126668225D01*
X138843957Y-126772629D01*
X138617114Y-126924201D01*
X138424201Y-127117114D01*
X138272629Y-127343957D01*
X138168225Y-127596011D01*
X138115000Y-127863589D01*
X137885000Y-127863589D01*
X137831775Y-127596011D01*
X137727371Y-127343957D01*
X137575799Y-127117114D01*
X137382886Y-126924201D01*
X137156043Y-126772629D01*
X136903989Y-126668225D01*
X136636411Y-126615000D01*
X136363589Y-126615000D01*
X136096011Y-126668225D01*
X135843957Y-126772629D01*
X135617114Y-126924201D01*
X135424201Y-127117114D01*
X135272629Y-127343957D01*
X135168225Y-127596011D01*
X135115000Y-127863589D01*
X134885000Y-127863589D01*
X134831775Y-127596011D01*
X134727371Y-127343957D01*
X134575799Y-127117114D01*
X134382886Y-126924201D01*
X134156043Y-126772629D01*
X133903989Y-126668225D01*
X133636411Y-126615000D01*
X133363589Y-126615000D01*
X133096011Y-126668225D01*
X132843957Y-126772629D01*
X132617114Y-126924201D01*
X132424201Y-127117114D01*
X132272629Y-127343957D01*
X132168225Y-127596011D01*
X132115000Y-127863589D01*
X131885000Y-127863589D01*
X131831775Y-127596011D01*
X131727371Y-127343957D01*
X131575799Y-127117114D01*
X131382886Y-126924201D01*
X131156043Y-126772629D01*
X130903989Y-126668225D01*
X130636411Y-126615000D01*
X130363589Y-126615000D01*
X130096011Y-126668225D01*
X129843957Y-126772629D01*
X129617114Y-126924201D01*
X129424201Y-127117114D01*
X129272629Y-127343957D01*
X129168225Y-127596011D01*
X129115000Y-127863589D01*
X128885000Y-127863589D01*
X128831775Y-127596011D01*
X128727371Y-127343957D01*
X128575799Y-127117114D01*
X128382886Y-126924201D01*
X128156043Y-126772629D01*
X127903989Y-126668225D01*
X127636411Y-126615000D01*
X127363589Y-126615000D01*
X127096011Y-126668225D01*
X126843957Y-126772629D01*
X126617114Y-126924201D01*
X126424201Y-127117114D01*
X126272629Y-127343957D01*
X126168225Y-127596011D01*
X126115000Y-127863589D01*
X125885000Y-127863589D01*
X125831775Y-127596011D01*
X125727371Y-127343957D01*
X125575799Y-127117114D01*
X125382886Y-126924201D01*
X125156043Y-126772629D01*
X124903989Y-126668225D01*
X124636411Y-126615000D01*
X124363589Y-126615000D01*
X124096011Y-126668225D01*
X123843957Y-126772629D01*
X123617114Y-126924201D01*
X123424201Y-127117114D01*
X123272629Y-127343957D01*
X123168225Y-127596011D01*
X123115000Y-127863589D01*
X122885000Y-127863589D01*
X122831775Y-127596011D01*
X122727371Y-127343957D01*
X122575799Y-127117114D01*
X122382886Y-126924201D01*
X122156043Y-126772629D01*
X121903989Y-126668225D01*
X121636411Y-126615000D01*
X121363589Y-126615000D01*
X121096011Y-126668225D01*
X120843957Y-126772629D01*
X120617114Y-126924201D01*
X120424201Y-127117114D01*
X120272629Y-127343957D01*
X120168225Y-127596011D01*
X120115000Y-127863589D01*
X118210000Y-127863589D01*
X118210000Y-123966051D01*
X118230422Y-123986473D01*
X118438429Y-124125459D01*
X118669555Y-124221195D01*
X118914916Y-124270000D01*
X119165084Y-124270000D01*
X119410445Y-124221195D01*
X119641571Y-124125459D01*
X119849578Y-123986473D01*
X120026473Y-123809578D01*
X120165459Y-123601571D01*
X120261195Y-123370445D01*
X120310000Y-123125084D01*
X120310000Y-122874916D01*
X120261195Y-122629555D01*
X120165459Y-122398429D01*
X120051295Y-122227570D01*
X132839000Y-122227570D01*
X132839000Y-122628430D01*
X132917204Y-123021587D01*
X133070607Y-123391934D01*
X133293313Y-123725237D01*
X133576763Y-124008687D01*
X133910066Y-124231393D01*
X134280413Y-124384796D01*
X134673570Y-124463000D01*
X135074430Y-124463000D01*
X135467587Y-124384796D01*
X135837934Y-124231393D01*
X136171237Y-124008687D01*
X136454687Y-123725237D01*
X136677393Y-123391934D01*
X136830796Y-123021587D01*
X136909000Y-122628430D01*
X136909000Y-122227570D01*
X136830796Y-121834413D01*
X136677393Y-121464066D01*
X136454687Y-121130763D01*
X136171237Y-120847313D01*
X135837934Y-120624607D01*
X135467587Y-120471204D01*
X135074430Y-120393000D01*
X134673570Y-120393000D01*
X134280413Y-120471204D01*
X133910066Y-120624607D01*
X133576763Y-120847313D01*
X133293313Y-121130763D01*
X133070607Y-121464066D01*
X132917204Y-121834413D01*
X132839000Y-122227570D01*
X120051295Y-122227570D01*
X120026473Y-122190422D01*
X119849578Y-122013527D01*
X119641571Y-121874541D01*
X119410445Y-121778805D01*
X119165084Y-121730000D01*
X118914916Y-121730000D01*
X118669555Y-121778805D01*
X118438429Y-121874541D01*
X118230422Y-122013527D01*
X118210000Y-122033949D01*
X118210000Y-119853740D01*
X119515000Y-119853740D01*
X119515000Y-120146260D01*
X119572068Y-120433158D01*
X119684010Y-120703411D01*
X119846525Y-120946632D01*
X120053368Y-121153475D01*
X120296589Y-121315990D01*
X120566842Y-121427932D01*
X120853740Y-121485000D01*
X121146260Y-121485000D01*
X121433158Y-121427932D01*
X121703411Y-121315990D01*
X121946632Y-121153475D01*
X122153475Y-120946632D01*
X122315990Y-120703411D01*
X122427932Y-120433158D01*
X122485000Y-120146260D01*
X122485000Y-119853740D01*
X122427932Y-119566842D01*
X122315990Y-119296589D01*
X122153475Y-119053368D01*
X121946632Y-118846525D01*
X121703411Y-118684010D01*
X121433158Y-118572068D01*
X121146260Y-118515000D01*
X120853740Y-118515000D01*
X120566842Y-118572068D01*
X120296589Y-118684010D01*
X120053368Y-118846525D01*
X119846525Y-119053368D01*
X119684010Y-119296589D01*
X119572068Y-119566842D01*
X119515000Y-119853740D01*
X118210000Y-119853740D01*
X118210000Y-118028397D01*
X120151208Y-118028397D01*
X120228843Y-118277472D01*
X120492883Y-118403371D01*
X120776411Y-118475339D01*
X121068531Y-118490611D01*
X121358019Y-118448599D01*
X121473408Y-118407721D01*
X125865000Y-118407721D01*
X125865000Y-118828279D01*
X125947047Y-119240756D01*
X126107988Y-119629302D01*
X126341637Y-119978983D01*
X126639017Y-120276363D01*
X126988698Y-120510012D01*
X127377244Y-120670953D01*
X127789721Y-120753000D01*
X128210279Y-120753000D01*
X128622756Y-120670953D01*
X129011302Y-120510012D01*
X129360983Y-120276363D01*
X129658363Y-119978983D01*
X129892012Y-119629302D01*
X130052953Y-119240756D01*
X130135000Y-118828279D01*
X130135000Y-118407721D01*
X145865000Y-118407721D01*
X145865000Y-118828279D01*
X145947047Y-119240756D01*
X146107988Y-119629302D01*
X146341637Y-119978983D01*
X146639017Y-120276363D01*
X146988698Y-120510012D01*
X147377244Y-120670953D01*
X147789721Y-120753000D01*
X148210279Y-120753000D01*
X148622756Y-120670953D01*
X149011302Y-120510012D01*
X149360983Y-120276363D01*
X149658363Y-119978983D01*
X149892012Y-119629302D01*
X150052953Y-119240756D01*
X150135000Y-118828279D01*
X150135000Y-118407721D01*
X150052953Y-117995244D01*
X149892012Y-117606698D01*
X149658363Y-117257017D01*
X149360983Y-116959637D01*
X149011302Y-116725988D01*
X148622756Y-116565047D01*
X148210279Y-116483000D01*
X147789721Y-116483000D01*
X147377244Y-116565047D01*
X146988698Y-116725988D01*
X146639017Y-116959637D01*
X146341637Y-117257017D01*
X146107988Y-117606698D01*
X145947047Y-117995244D01*
X145865000Y-118407721D01*
X130135000Y-118407721D01*
X130052953Y-117995244D01*
X129892012Y-117606698D01*
X129658363Y-117257017D01*
X129360983Y-116959637D01*
X129011302Y-116725988D01*
X128622756Y-116565047D01*
X128210279Y-116483000D01*
X127789721Y-116483000D01*
X127377244Y-116565047D01*
X126988698Y-116725988D01*
X126639017Y-116959637D01*
X126341637Y-117257017D01*
X126107988Y-117606698D01*
X125947047Y-117995244D01*
X125865000Y-118407721D01*
X121473408Y-118407721D01*
X121633747Y-118350919D01*
X121771157Y-118277472D01*
X121848792Y-118028397D01*
X121000000Y-117179605D01*
X120151208Y-118028397D01*
X118210000Y-118028397D01*
X118210000Y-117068531D01*
X119509389Y-117068531D01*
X119551401Y-117358019D01*
X119649081Y-117633747D01*
X119722528Y-117771157D01*
X119971603Y-117848792D01*
X120820395Y-117000000D01*
X121179605Y-117000000D01*
X122028397Y-117848792D01*
X122277472Y-117771157D01*
X122403371Y-117507117D01*
X122475339Y-117223589D01*
X122490611Y-116931469D01*
X122448599Y-116641981D01*
X122350919Y-116366253D01*
X122277472Y-116228843D01*
X122028397Y-116151208D01*
X121179605Y-117000000D01*
X120820395Y-117000000D01*
X119971603Y-116151208D01*
X119722528Y-116228843D01*
X119596629Y-116492883D01*
X119524661Y-116776411D01*
X119509389Y-117068531D01*
X118210000Y-117068531D01*
X118210000Y-115971603D01*
X120151208Y-115971603D01*
X121000000Y-116820395D01*
X121845948Y-115974447D01*
X133633158Y-115974447D01*
X133777135Y-116279770D01*
X134134892Y-116460597D01*
X134521053Y-116568155D01*
X134920777Y-116598310D01*
X135318704Y-116549904D01*
X135699540Y-116424795D01*
X135970865Y-116279770D01*
X136114842Y-115974447D01*
X134874000Y-114733605D01*
X133633158Y-115974447D01*
X121845948Y-115974447D01*
X121848792Y-115971603D01*
X121771157Y-115722528D01*
X121507117Y-115596629D01*
X121223589Y-115524661D01*
X120931469Y-115509389D01*
X120641981Y-115551401D01*
X120366253Y-115649081D01*
X120228843Y-115722528D01*
X120151208Y-115971603D01*
X118210000Y-115971603D01*
X118210000Y-114966051D01*
X118230422Y-114986473D01*
X118438429Y-115125459D01*
X118669555Y-115221195D01*
X118914916Y-115270000D01*
X119165084Y-115270000D01*
X119410445Y-115221195D01*
X119641571Y-115125459D01*
X119849578Y-114986473D01*
X120026473Y-114809578D01*
X120165459Y-114601571D01*
X120165787Y-114600777D01*
X132829690Y-114600777D01*
X132878096Y-114998704D01*
X133003205Y-115379540D01*
X133148230Y-115650865D01*
X133453553Y-115794842D01*
X134694395Y-114554000D01*
X135053605Y-114554000D01*
X136294447Y-115794842D01*
X136599770Y-115650865D01*
X136780597Y-115293108D01*
X136888155Y-114906947D01*
X136918310Y-114507223D01*
X136869904Y-114109296D01*
X136744795Y-113728460D01*
X136599770Y-113457135D01*
X136294447Y-113313158D01*
X135053605Y-114554000D01*
X134694395Y-114554000D01*
X133453553Y-113313158D01*
X133148230Y-113457135D01*
X132967403Y-113814892D01*
X132859845Y-114201053D01*
X132829690Y-114600777D01*
X120165787Y-114600777D01*
X120261195Y-114370445D01*
X120310000Y-114125084D01*
X120310000Y-113874916D01*
X120261195Y-113629555D01*
X120165459Y-113398429D01*
X120026473Y-113190422D01*
X119969604Y-113133553D01*
X133633158Y-113133553D01*
X134874000Y-114374395D01*
X136114842Y-113133553D01*
X135970865Y-112828230D01*
X135613108Y-112647403D01*
X135226947Y-112539845D01*
X134827223Y-112509690D01*
X134429296Y-112558096D01*
X134048460Y-112683205D01*
X133777135Y-112828230D01*
X133633158Y-113133553D01*
X119969604Y-113133553D01*
X119849578Y-113013527D01*
X119641571Y-112874541D01*
X119410445Y-112778805D01*
X119165084Y-112730000D01*
X118914916Y-112730000D01*
X118669555Y-112778805D01*
X118438429Y-112874541D01*
X118230422Y-113013527D01*
X118210000Y-113033949D01*
X118210000Y-109876993D01*
X120722612Y-109876993D01*
X120788137Y-110115860D01*
X121035116Y-110231760D01*
X121299960Y-110297250D01*
X121572492Y-110309812D01*
X121842238Y-110268965D01*
X122098832Y-110176277D01*
X122211863Y-110115860D01*
X122277388Y-109876993D01*
X123722612Y-109876993D01*
X123788137Y-110115860D01*
X124035116Y-110231760D01*
X124299960Y-110297250D01*
X124572492Y-110309812D01*
X124842238Y-110268965D01*
X125098832Y-110176277D01*
X125211863Y-110115860D01*
X125277388Y-109876993D01*
X126722612Y-109876993D01*
X126788137Y-110115860D01*
X127035116Y-110231760D01*
X127299960Y-110297250D01*
X127572492Y-110309812D01*
X127842238Y-110268965D01*
X128098832Y-110176277D01*
X128211863Y-110115860D01*
X128277388Y-109876993D01*
X129722612Y-109876993D01*
X129788137Y-110115860D01*
X130035116Y-110231760D01*
X130299960Y-110297250D01*
X130572492Y-110309812D01*
X130842238Y-110268965D01*
X131098832Y-110176277D01*
X131211863Y-110115860D01*
X131277388Y-109876993D01*
X132722612Y-109876993D01*
X132788137Y-110115860D01*
X133035116Y-110231760D01*
X133299960Y-110297250D01*
X133572492Y-110309812D01*
X133842238Y-110268965D01*
X134098832Y-110176277D01*
X134211863Y-110115860D01*
X134277388Y-109876993D01*
X135722612Y-109876993D01*
X135788137Y-110115860D01*
X136035116Y-110231760D01*
X136299960Y-110297250D01*
X136572492Y-110309812D01*
X136842238Y-110268965D01*
X137098832Y-110176277D01*
X137211863Y-110115860D01*
X137277388Y-109876993D01*
X138722612Y-109876993D01*
X138788137Y-110115860D01*
X139035116Y-110231760D01*
X139299960Y-110297250D01*
X139572492Y-110309812D01*
X139842238Y-110268965D01*
X140098832Y-110176277D01*
X140211863Y-110115860D01*
X140277388Y-109876993D01*
X141722612Y-109876993D01*
X141788137Y-110115860D01*
X142035116Y-110231760D01*
X142299960Y-110297250D01*
X142572492Y-110309812D01*
X142842238Y-110268965D01*
X143098832Y-110176277D01*
X143211863Y-110115860D01*
X143277388Y-109876993D01*
X144722612Y-109876993D01*
X144788137Y-110115860D01*
X145035116Y-110231760D01*
X145299960Y-110297250D01*
X145572492Y-110309812D01*
X145842238Y-110268965D01*
X146098832Y-110176277D01*
X146211863Y-110115860D01*
X146277388Y-109876993D01*
X147722612Y-109876993D01*
X147788137Y-110115860D01*
X148035116Y-110231760D01*
X148299960Y-110297250D01*
X148572492Y-110309812D01*
X148842238Y-110268965D01*
X149098832Y-110176277D01*
X149211863Y-110115860D01*
X149277388Y-109876993D01*
X148500000Y-109099605D01*
X147722612Y-109876993D01*
X146277388Y-109876993D01*
X145500000Y-109099605D01*
X144722612Y-109876993D01*
X143277388Y-109876993D01*
X142500000Y-109099605D01*
X141722612Y-109876993D01*
X140277388Y-109876993D01*
X139500000Y-109099605D01*
X138722612Y-109876993D01*
X137277388Y-109876993D01*
X136500000Y-109099605D01*
X135722612Y-109876993D01*
X134277388Y-109876993D01*
X133500000Y-109099605D01*
X132722612Y-109876993D01*
X131277388Y-109876993D01*
X130500000Y-109099605D01*
X129722612Y-109876993D01*
X128277388Y-109876993D01*
X127500000Y-109099605D01*
X126722612Y-109876993D01*
X125277388Y-109876993D01*
X124500000Y-109099605D01*
X123722612Y-109876993D01*
X122277388Y-109876993D01*
X121500000Y-109099605D01*
X120722612Y-109876993D01*
X118210000Y-109876993D01*
X118210000Y-108992492D01*
X120110188Y-108992492D01*
X120151035Y-109262238D01*
X120243723Y-109518832D01*
X120304140Y-109631863D01*
X120543007Y-109697388D01*
X121320395Y-108920000D01*
X121679605Y-108920000D01*
X122456993Y-109697388D01*
X122695860Y-109631863D01*
X122811760Y-109384884D01*
X122877250Y-109120040D01*
X122883129Y-108992492D01*
X123110188Y-108992492D01*
X123151035Y-109262238D01*
X123243723Y-109518832D01*
X123304140Y-109631863D01*
X123543007Y-109697388D01*
X124320395Y-108920000D01*
X124679605Y-108920000D01*
X125456993Y-109697388D01*
X125695860Y-109631863D01*
X125811760Y-109384884D01*
X125877250Y-109120040D01*
X125883129Y-108992492D01*
X126110188Y-108992492D01*
X126151035Y-109262238D01*
X126243723Y-109518832D01*
X126304140Y-109631863D01*
X126543007Y-109697388D01*
X127320395Y-108920000D01*
X127679605Y-108920000D01*
X128456993Y-109697388D01*
X128695860Y-109631863D01*
X128811760Y-109384884D01*
X128877250Y-109120040D01*
X128883129Y-108992492D01*
X129110188Y-108992492D01*
X129151035Y-109262238D01*
X129243723Y-109518832D01*
X129304140Y-109631863D01*
X129543007Y-109697388D01*
X130320395Y-108920000D01*
X130679605Y-108920000D01*
X131456993Y-109697388D01*
X131695860Y-109631863D01*
X131811760Y-109384884D01*
X131877250Y-109120040D01*
X131883129Y-108992492D01*
X132110188Y-108992492D01*
X132151035Y-109262238D01*
X132243723Y-109518832D01*
X132304140Y-109631863D01*
X132543007Y-109697388D01*
X133320395Y-108920000D01*
X133679605Y-108920000D01*
X134456993Y-109697388D01*
X134695860Y-109631863D01*
X134811760Y-109384884D01*
X134877250Y-109120040D01*
X134883129Y-108992492D01*
X135110188Y-108992492D01*
X135151035Y-109262238D01*
X135243723Y-109518832D01*
X135304140Y-109631863D01*
X135543007Y-109697388D01*
X136320395Y-108920000D01*
X136679605Y-108920000D01*
X137456993Y-109697388D01*
X137695860Y-109631863D01*
X137811760Y-109384884D01*
X137877250Y-109120040D01*
X137883129Y-108992492D01*
X138110188Y-108992492D01*
X138151035Y-109262238D01*
X138243723Y-109518832D01*
X138304140Y-109631863D01*
X138543007Y-109697388D01*
X139320395Y-108920000D01*
X139679605Y-108920000D01*
X140456993Y-109697388D01*
X140695860Y-109631863D01*
X140811760Y-109384884D01*
X140877250Y-109120040D01*
X140883129Y-108992492D01*
X141110188Y-108992492D01*
X141151035Y-109262238D01*
X141243723Y-109518832D01*
X141304140Y-109631863D01*
X141543007Y-109697388D01*
X142320395Y-108920000D01*
X142679605Y-108920000D01*
X143456993Y-109697388D01*
X143695860Y-109631863D01*
X143811760Y-109384884D01*
X143877250Y-109120040D01*
X143883129Y-108992492D01*
X144110188Y-108992492D01*
X144151035Y-109262238D01*
X144243723Y-109518832D01*
X144304140Y-109631863D01*
X144543007Y-109697388D01*
X145320395Y-108920000D01*
X145679605Y-108920000D01*
X146456993Y-109697388D01*
X146695860Y-109631863D01*
X146811760Y-109384884D01*
X146877250Y-109120040D01*
X146883129Y-108992492D01*
X147110188Y-108992492D01*
X147151035Y-109262238D01*
X147243723Y-109518832D01*
X147304140Y-109631863D01*
X147543007Y-109697388D01*
X148320395Y-108920000D01*
X148679605Y-108920000D01*
X149456993Y-109697388D01*
X149695860Y-109631863D01*
X149811760Y-109384884D01*
X149877250Y-109120040D01*
X149889812Y-108847508D01*
X149848965Y-108577762D01*
X149756277Y-108321168D01*
X149695860Y-108208137D01*
X149456993Y-108142612D01*
X148679605Y-108920000D01*
X148320395Y-108920000D01*
X147543007Y-108142612D01*
X147304140Y-108208137D01*
X147188240Y-108455116D01*
X147122750Y-108719960D01*
X147110188Y-108992492D01*
X146883129Y-108992492D01*
X146889812Y-108847508D01*
X146848965Y-108577762D01*
X146756277Y-108321168D01*
X146695860Y-108208137D01*
X146456993Y-108142612D01*
X145679605Y-108920000D01*
X145320395Y-108920000D01*
X144543007Y-108142612D01*
X144304140Y-108208137D01*
X144188240Y-108455116D01*
X144122750Y-108719960D01*
X144110188Y-108992492D01*
X143883129Y-108992492D01*
X143889812Y-108847508D01*
X143848965Y-108577762D01*
X143756277Y-108321168D01*
X143695860Y-108208137D01*
X143456993Y-108142612D01*
X142679605Y-108920000D01*
X142320395Y-108920000D01*
X141543007Y-108142612D01*
X141304140Y-108208137D01*
X141188240Y-108455116D01*
X141122750Y-108719960D01*
X141110188Y-108992492D01*
X140883129Y-108992492D01*
X140889812Y-108847508D01*
X140848965Y-108577762D01*
X140756277Y-108321168D01*
X140695860Y-108208137D01*
X140456993Y-108142612D01*
X139679605Y-108920000D01*
X139320395Y-108920000D01*
X138543007Y-108142612D01*
X138304140Y-108208137D01*
X138188240Y-108455116D01*
X138122750Y-108719960D01*
X138110188Y-108992492D01*
X137883129Y-108992492D01*
X137889812Y-108847508D01*
X137848965Y-108577762D01*
X137756277Y-108321168D01*
X137695860Y-108208137D01*
X137456993Y-108142612D01*
X136679605Y-108920000D01*
X136320395Y-108920000D01*
X135543007Y-108142612D01*
X135304140Y-108208137D01*
X135188240Y-108455116D01*
X135122750Y-108719960D01*
X135110188Y-108992492D01*
X134883129Y-108992492D01*
X134889812Y-108847508D01*
X134848965Y-108577762D01*
X134756277Y-108321168D01*
X134695860Y-108208137D01*
X134456993Y-108142612D01*
X133679605Y-108920000D01*
X133320395Y-108920000D01*
X132543007Y-108142612D01*
X132304140Y-108208137D01*
X132188240Y-108455116D01*
X132122750Y-108719960D01*
X132110188Y-108992492D01*
X131883129Y-108992492D01*
X131889812Y-108847508D01*
X131848965Y-108577762D01*
X131756277Y-108321168D01*
X131695860Y-108208137D01*
X131456993Y-108142612D01*
X130679605Y-108920000D01*
X130320395Y-108920000D01*
X129543007Y-108142612D01*
X129304140Y-108208137D01*
X129188240Y-108455116D01*
X129122750Y-108719960D01*
X129110188Y-108992492D01*
X128883129Y-108992492D01*
X128889812Y-108847508D01*
X128848965Y-108577762D01*
X128756277Y-108321168D01*
X128695860Y-108208137D01*
X128456993Y-108142612D01*
X127679605Y-108920000D01*
X127320395Y-108920000D01*
X126543007Y-108142612D01*
X126304140Y-108208137D01*
X126188240Y-108455116D01*
X126122750Y-108719960D01*
X126110188Y-108992492D01*
X125883129Y-108992492D01*
X125889812Y-108847508D01*
X125848965Y-108577762D01*
X125756277Y-108321168D01*
X125695860Y-108208137D01*
X125456993Y-108142612D01*
X124679605Y-108920000D01*
X124320395Y-108920000D01*
X123543007Y-108142612D01*
X123304140Y-108208137D01*
X123188240Y-108455116D01*
X123122750Y-108719960D01*
X123110188Y-108992492D01*
X122883129Y-108992492D01*
X122889812Y-108847508D01*
X122848965Y-108577762D01*
X122756277Y-108321168D01*
X122695860Y-108208137D01*
X122456993Y-108142612D01*
X121679605Y-108920000D01*
X121320395Y-108920000D01*
X120543007Y-108142612D01*
X120304140Y-108208137D01*
X120188240Y-108455116D01*
X120122750Y-108719960D01*
X120110188Y-108992492D01*
X118210000Y-108992492D01*
X118210000Y-107963007D01*
X120722612Y-107963007D01*
X121500000Y-108740395D01*
X122277388Y-107963007D01*
X123722612Y-107963007D01*
X124500000Y-108740395D01*
X125277388Y-107963007D01*
X126722612Y-107963007D01*
X127500000Y-108740395D01*
X128277388Y-107963007D01*
X129722612Y-107963007D01*
X130500000Y-108740395D01*
X131277388Y-107963007D01*
X132722612Y-107963007D01*
X133500000Y-108740395D01*
X134277388Y-107963007D01*
X135722612Y-107963007D01*
X136500000Y-108740395D01*
X137277388Y-107963007D01*
X138722612Y-107963007D01*
X139500000Y-108740395D01*
X140277388Y-107963007D01*
X141722612Y-107963007D01*
X142500000Y-108740395D01*
X143277388Y-107963007D01*
X144722612Y-107963007D01*
X145500000Y-108740395D01*
X146277388Y-107963007D01*
X147722612Y-107963007D01*
X148500000Y-108740395D01*
X149277388Y-107963007D01*
X149211863Y-107724140D01*
X148964884Y-107608240D01*
X148700040Y-107542750D01*
X148427508Y-107530188D01*
X148157762Y-107571035D01*
X147901168Y-107663723D01*
X147788137Y-107724140D01*
X147722612Y-107963007D01*
X146277388Y-107963007D01*
X146211863Y-107724140D01*
X145964884Y-107608240D01*
X145700040Y-107542750D01*
X145427508Y-107530188D01*
X145157762Y-107571035D01*
X144901168Y-107663723D01*
X144788137Y-107724140D01*
X144722612Y-107963007D01*
X143277388Y-107963007D01*
X143211863Y-107724140D01*
X142964884Y-107608240D01*
X142700040Y-107542750D01*
X142427508Y-107530188D01*
X142157762Y-107571035D01*
X141901168Y-107663723D01*
X141788137Y-107724140D01*
X141722612Y-107963007D01*
X140277388Y-107963007D01*
X140211863Y-107724140D01*
X139964884Y-107608240D01*
X139700040Y-107542750D01*
X139427508Y-107530188D01*
X139157762Y-107571035D01*
X138901168Y-107663723D01*
X138788137Y-107724140D01*
X138722612Y-107963007D01*
X137277388Y-107963007D01*
X137211863Y-107724140D01*
X136964884Y-107608240D01*
X136700040Y-107542750D01*
X136427508Y-107530188D01*
X136157762Y-107571035D01*
X135901168Y-107663723D01*
X135788137Y-107724140D01*
X135722612Y-107963007D01*
X134277388Y-107963007D01*
X134211863Y-107724140D01*
X133964884Y-107608240D01*
X133700040Y-107542750D01*
X133427508Y-107530188D01*
X133157762Y-107571035D01*
X132901168Y-107663723D01*
X132788137Y-107724140D01*
X132722612Y-107963007D01*
X131277388Y-107963007D01*
X131211863Y-107724140D01*
X130964884Y-107608240D01*
X130700040Y-107542750D01*
X130427508Y-107530188D01*
X130157762Y-107571035D01*
X129901168Y-107663723D01*
X129788137Y-107724140D01*
X129722612Y-107963007D01*
X128277388Y-107963007D01*
X128211863Y-107724140D01*
X127964884Y-107608240D01*
X127700040Y-107542750D01*
X127427508Y-107530188D01*
X127157762Y-107571035D01*
X126901168Y-107663723D01*
X126788137Y-107724140D01*
X126722612Y-107963007D01*
X125277388Y-107963007D01*
X125211863Y-107724140D01*
X124964884Y-107608240D01*
X124700040Y-107542750D01*
X124427508Y-107530188D01*
X124157762Y-107571035D01*
X123901168Y-107663723D01*
X123788137Y-107724140D01*
X123722612Y-107963007D01*
X122277388Y-107963007D01*
X122211863Y-107724140D01*
X121964884Y-107608240D01*
X121700040Y-107542750D01*
X121427508Y-107530188D01*
X121157762Y-107571035D01*
X120901168Y-107663723D01*
X120788137Y-107724140D01*
X120722612Y-107963007D01*
X118210000Y-107963007D01*
X118210000Y-106885565D01*
X120714040Y-106885565D01*
X120781020Y-107125656D01*
X121030048Y-107242756D01*
X121297135Y-107309023D01*
X121572017Y-107321910D01*
X121844133Y-107280922D01*
X122103023Y-107187636D01*
X122218980Y-107125656D01*
X122285960Y-106885565D01*
X122277388Y-106876993D01*
X123722612Y-106876993D01*
X123788137Y-107115860D01*
X124035116Y-107231760D01*
X124299960Y-107297250D01*
X124572492Y-107309812D01*
X124842238Y-107268965D01*
X125098832Y-107176277D01*
X125211863Y-107115860D01*
X125277388Y-106876993D01*
X126722612Y-106876993D01*
X126788137Y-107115860D01*
X127035116Y-107231760D01*
X127299960Y-107297250D01*
X127572492Y-107309812D01*
X127842238Y-107268965D01*
X128098832Y-107176277D01*
X128211863Y-107115860D01*
X128277388Y-106876993D01*
X129722612Y-106876993D01*
X129788137Y-107115860D01*
X130035116Y-107231760D01*
X130299960Y-107297250D01*
X130572492Y-107309812D01*
X130842238Y-107268965D01*
X131098832Y-107176277D01*
X131211863Y-107115860D01*
X131277388Y-106876993D01*
X132722612Y-106876993D01*
X132788137Y-107115860D01*
X133035116Y-107231760D01*
X133299960Y-107297250D01*
X133572492Y-107309812D01*
X133842238Y-107268965D01*
X134098832Y-107176277D01*
X134211863Y-107115860D01*
X134277388Y-106876993D01*
X135722612Y-106876993D01*
X135788137Y-107115860D01*
X136035116Y-107231760D01*
X136299960Y-107297250D01*
X136572492Y-107309812D01*
X136842238Y-107268965D01*
X137098832Y-107176277D01*
X137211863Y-107115860D01*
X137277388Y-106876993D01*
X138722612Y-106876993D01*
X138788137Y-107115860D01*
X139035116Y-107231760D01*
X139299960Y-107297250D01*
X139572492Y-107309812D01*
X139842238Y-107268965D01*
X140098832Y-107176277D01*
X140211863Y-107115860D01*
X140277388Y-106876993D01*
X141722612Y-106876993D01*
X141788137Y-107115860D01*
X142035116Y-107231760D01*
X142299960Y-107297250D01*
X142572492Y-107309812D01*
X142842238Y-107268965D01*
X143098832Y-107176277D01*
X143211863Y-107115860D01*
X143277388Y-106876993D01*
X144722612Y-106876993D01*
X144788137Y-107115860D01*
X145035116Y-107231760D01*
X145299960Y-107297250D01*
X145572492Y-107309812D01*
X145842238Y-107268965D01*
X146098832Y-107176277D01*
X146211863Y-107115860D01*
X146277388Y-106876993D01*
X147722612Y-106876993D01*
X147788137Y-107115860D01*
X148035116Y-107231760D01*
X148299960Y-107297250D01*
X148572492Y-107309812D01*
X148842238Y-107268965D01*
X149098832Y-107176277D01*
X149211863Y-107115860D01*
X149277388Y-106876993D01*
X148500000Y-106099605D01*
X147722612Y-106876993D01*
X146277388Y-106876993D01*
X145500000Y-106099605D01*
X144722612Y-106876993D01*
X143277388Y-106876993D01*
X142500000Y-106099605D01*
X141722612Y-106876993D01*
X140277388Y-106876993D01*
X139500000Y-106099605D01*
X138722612Y-106876993D01*
X137277388Y-106876993D01*
X136500000Y-106099605D01*
X135722612Y-106876993D01*
X134277388Y-106876993D01*
X133500000Y-106099605D01*
X132722612Y-106876993D01*
X131277388Y-106876993D01*
X130500000Y-106099605D01*
X129722612Y-106876993D01*
X128277388Y-106876993D01*
X127500000Y-106099605D01*
X126722612Y-106876993D01*
X125277388Y-106876993D01*
X124500000Y-106099605D01*
X123722612Y-106876993D01*
X122277388Y-106876993D01*
X121500000Y-106099605D01*
X120714040Y-106885565D01*
X118210000Y-106885565D01*
X118210000Y-105992017D01*
X120098090Y-105992017D01*
X120139078Y-106264133D01*
X120232364Y-106523023D01*
X120294344Y-106638980D01*
X120534435Y-106705960D01*
X121320395Y-105920000D01*
X121679605Y-105920000D01*
X122465565Y-106705960D01*
X122705656Y-106638980D01*
X122822756Y-106389952D01*
X122889023Y-106122865D01*
X122895135Y-105992492D01*
X123110188Y-105992492D01*
X123151035Y-106262238D01*
X123243723Y-106518832D01*
X123304140Y-106631863D01*
X123543007Y-106697388D01*
X124320395Y-105920000D01*
X124679605Y-105920000D01*
X125456993Y-106697388D01*
X125695860Y-106631863D01*
X125811760Y-106384884D01*
X125877250Y-106120040D01*
X125883129Y-105992492D01*
X126110188Y-105992492D01*
X126151035Y-106262238D01*
X126243723Y-106518832D01*
X126304140Y-106631863D01*
X126543007Y-106697388D01*
X127320395Y-105920000D01*
X127679605Y-105920000D01*
X128456993Y-106697388D01*
X128695860Y-106631863D01*
X128811760Y-106384884D01*
X128877250Y-106120040D01*
X128883129Y-105992492D01*
X129110188Y-105992492D01*
X129151035Y-106262238D01*
X129243723Y-106518832D01*
X129304140Y-106631863D01*
X129543007Y-106697388D01*
X130320395Y-105920000D01*
X130679605Y-105920000D01*
X131456993Y-106697388D01*
X131695860Y-106631863D01*
X131811760Y-106384884D01*
X131877250Y-106120040D01*
X131883129Y-105992492D01*
X132110188Y-105992492D01*
X132151035Y-106262238D01*
X132243723Y-106518832D01*
X132304140Y-106631863D01*
X132543007Y-106697388D01*
X133320395Y-105920000D01*
X133679605Y-105920000D01*
X134456993Y-106697388D01*
X134695860Y-106631863D01*
X134811760Y-106384884D01*
X134877250Y-106120040D01*
X134883129Y-105992492D01*
X135110188Y-105992492D01*
X135151035Y-106262238D01*
X135243723Y-106518832D01*
X135304140Y-106631863D01*
X135543007Y-106697388D01*
X136320395Y-105920000D01*
X136679605Y-105920000D01*
X137456993Y-106697388D01*
X137695860Y-106631863D01*
X137811760Y-106384884D01*
X137877250Y-106120040D01*
X137883129Y-105992492D01*
X138110188Y-105992492D01*
X138151035Y-106262238D01*
X138243723Y-106518832D01*
X138304140Y-106631863D01*
X138543007Y-106697388D01*
X139320395Y-105920000D01*
X139679605Y-105920000D01*
X140456993Y-106697388D01*
X140695860Y-106631863D01*
X140811760Y-106384884D01*
X140877250Y-106120040D01*
X140883129Y-105992492D01*
X141110188Y-105992492D01*
X141151035Y-106262238D01*
X141243723Y-106518832D01*
X141304140Y-106631863D01*
X141543007Y-106697388D01*
X142320395Y-105920000D01*
X142679605Y-105920000D01*
X143456993Y-106697388D01*
X143695860Y-106631863D01*
X143811760Y-106384884D01*
X143877250Y-106120040D01*
X143883129Y-105992492D01*
X144110188Y-105992492D01*
X144151035Y-106262238D01*
X144243723Y-106518832D01*
X144304140Y-106631863D01*
X144543007Y-106697388D01*
X145320395Y-105920000D01*
X145679605Y-105920000D01*
X146456993Y-106697388D01*
X146695860Y-106631863D01*
X146811760Y-106384884D01*
X146877250Y-106120040D01*
X146883129Y-105992492D01*
X147110188Y-105992492D01*
X147151035Y-106262238D01*
X147243723Y-106518832D01*
X147304140Y-106631863D01*
X147543007Y-106697388D01*
X148320395Y-105920000D01*
X148679605Y-105920000D01*
X149456993Y-106697388D01*
X149695860Y-106631863D01*
X149811760Y-106384884D01*
X149877250Y-106120040D01*
X149889812Y-105847508D01*
X149848965Y-105577762D01*
X149756277Y-105321168D01*
X149695860Y-105208137D01*
X149456993Y-105142612D01*
X148679605Y-105920000D01*
X148320395Y-105920000D01*
X147543007Y-105142612D01*
X147304140Y-105208137D01*
X147188240Y-105455116D01*
X147122750Y-105719960D01*
X147110188Y-105992492D01*
X146883129Y-105992492D01*
X146889812Y-105847508D01*
X146848965Y-105577762D01*
X146756277Y-105321168D01*
X146695860Y-105208137D01*
X146456993Y-105142612D01*
X145679605Y-105920000D01*
X145320395Y-105920000D01*
X144543007Y-105142612D01*
X144304140Y-105208137D01*
X144188240Y-105455116D01*
X144122750Y-105719960D01*
X144110188Y-105992492D01*
X143883129Y-105992492D01*
X143889812Y-105847508D01*
X143848965Y-105577762D01*
X143756277Y-105321168D01*
X143695860Y-105208137D01*
X143456993Y-105142612D01*
X142679605Y-105920000D01*
X142320395Y-105920000D01*
X141543007Y-105142612D01*
X141304140Y-105208137D01*
X141188240Y-105455116D01*
X141122750Y-105719960D01*
X141110188Y-105992492D01*
X140883129Y-105992492D01*
X140889812Y-105847508D01*
X140848965Y-105577762D01*
X140756277Y-105321168D01*
X140695860Y-105208137D01*
X140456993Y-105142612D01*
X139679605Y-105920000D01*
X139320395Y-105920000D01*
X138543007Y-105142612D01*
X138304140Y-105208137D01*
X138188240Y-105455116D01*
X138122750Y-105719960D01*
X138110188Y-105992492D01*
X137883129Y-105992492D01*
X137889812Y-105847508D01*
X137848965Y-105577762D01*
X137756277Y-105321168D01*
X137695860Y-105208137D01*
X137456993Y-105142612D01*
X136679605Y-105920000D01*
X136320395Y-105920000D01*
X135543007Y-105142612D01*
X135304140Y-105208137D01*
X135188240Y-105455116D01*
X135122750Y-105719960D01*
X135110188Y-105992492D01*
X134883129Y-105992492D01*
X134889812Y-105847508D01*
X134848965Y-105577762D01*
X134756277Y-105321168D01*
X134695860Y-105208137D01*
X134456993Y-105142612D01*
X133679605Y-105920000D01*
X133320395Y-105920000D01*
X132543007Y-105142612D01*
X132304140Y-105208137D01*
X132188240Y-105455116D01*
X132122750Y-105719960D01*
X132110188Y-105992492D01*
X131883129Y-105992492D01*
X131889812Y-105847508D01*
X131848965Y-105577762D01*
X131756277Y-105321168D01*
X131695860Y-105208137D01*
X131456993Y-105142612D01*
X130679605Y-105920000D01*
X130320395Y-105920000D01*
X129543007Y-105142612D01*
X129304140Y-105208137D01*
X129188240Y-105455116D01*
X129122750Y-105719960D01*
X129110188Y-105992492D01*
X128883129Y-105992492D01*
X128889812Y-105847508D01*
X128848965Y-105577762D01*
X128756277Y-105321168D01*
X128695860Y-105208137D01*
X128456993Y-105142612D01*
X127679605Y-105920000D01*
X127320395Y-105920000D01*
X126543007Y-105142612D01*
X126304140Y-105208137D01*
X126188240Y-105455116D01*
X126122750Y-105719960D01*
X126110188Y-105992492D01*
X125883129Y-105992492D01*
X125889812Y-105847508D01*
X125848965Y-105577762D01*
X125756277Y-105321168D01*
X125695860Y-105208137D01*
X125456993Y-105142612D01*
X124679605Y-105920000D01*
X124320395Y-105920000D01*
X123543007Y-105142612D01*
X123304140Y-105208137D01*
X123188240Y-105455116D01*
X123122750Y-105719960D01*
X123110188Y-105992492D01*
X122895135Y-105992492D01*
X122901910Y-105847983D01*
X122860922Y-105575867D01*
X122767636Y-105316977D01*
X122705656Y-105201020D01*
X122465565Y-105134040D01*
X121679605Y-105920000D01*
X121320395Y-105920000D01*
X120534435Y-105134040D01*
X120294344Y-105201020D01*
X120177244Y-105450048D01*
X120110977Y-105717135D01*
X120098090Y-105992017D01*
X118210000Y-105992017D01*
X118210000Y-104954435D01*
X120714040Y-104954435D01*
X121500000Y-105740395D01*
X122277388Y-104963007D01*
X123722612Y-104963007D01*
X124500000Y-105740395D01*
X125277388Y-104963007D01*
X126722612Y-104963007D01*
X127500000Y-105740395D01*
X128277388Y-104963007D01*
X129722612Y-104963007D01*
X130500000Y-105740395D01*
X131277388Y-104963007D01*
X132722612Y-104963007D01*
X133500000Y-105740395D01*
X134277388Y-104963007D01*
X135722612Y-104963007D01*
X136500000Y-105740395D01*
X137277388Y-104963007D01*
X138722612Y-104963007D01*
X139500000Y-105740395D01*
X140277388Y-104963007D01*
X141722612Y-104963007D01*
X142500000Y-105740395D01*
X143277388Y-104963007D01*
X144722612Y-104963007D01*
X145500000Y-105740395D01*
X146277388Y-104963007D01*
X147722612Y-104963007D01*
X148500000Y-105740395D01*
X149277388Y-104963007D01*
X149211863Y-104724140D01*
X148964884Y-104608240D01*
X148700040Y-104542750D01*
X148427508Y-104530188D01*
X148157762Y-104571035D01*
X147901168Y-104663723D01*
X147788137Y-104724140D01*
X147722612Y-104963007D01*
X146277388Y-104963007D01*
X146211863Y-104724140D01*
X145964884Y-104608240D01*
X145700040Y-104542750D01*
X145427508Y-104530188D01*
X145157762Y-104571035D01*
X144901168Y-104663723D01*
X144788137Y-104724140D01*
X144722612Y-104963007D01*
X143277388Y-104963007D01*
X143211863Y-104724140D01*
X142964884Y-104608240D01*
X142700040Y-104542750D01*
X142427508Y-104530188D01*
X142157762Y-104571035D01*
X141901168Y-104663723D01*
X141788137Y-104724140D01*
X141722612Y-104963007D01*
X140277388Y-104963007D01*
X140211863Y-104724140D01*
X139964884Y-104608240D01*
X139700040Y-104542750D01*
X139427508Y-104530188D01*
X139157762Y-104571035D01*
X138901168Y-104663723D01*
X138788137Y-104724140D01*
X138722612Y-104963007D01*
X137277388Y-104963007D01*
X137211863Y-104724140D01*
X136964884Y-104608240D01*
X136700040Y-104542750D01*
X136427508Y-104530188D01*
X136157762Y-104571035D01*
X135901168Y-104663723D01*
X135788137Y-104724140D01*
X135722612Y-104963007D01*
X134277388Y-104963007D01*
X134211863Y-104724140D01*
X133964884Y-104608240D01*
X133700040Y-104542750D01*
X133427508Y-104530188D01*
X133157762Y-104571035D01*
X132901168Y-104663723D01*
X132788137Y-104724140D01*
X132722612Y-104963007D01*
X131277388Y-104963007D01*
X131211863Y-104724140D01*
X130964884Y-104608240D01*
X130700040Y-104542750D01*
X130427508Y-104530188D01*
X130157762Y-104571035D01*
X129901168Y-104663723D01*
X129788137Y-104724140D01*
X129722612Y-104963007D01*
X128277388Y-104963007D01*
X128211863Y-104724140D01*
X127964884Y-104608240D01*
X127700040Y-104542750D01*
X127427508Y-104530188D01*
X127157762Y-104571035D01*
X126901168Y-104663723D01*
X126788137Y-104724140D01*
X126722612Y-104963007D01*
X125277388Y-104963007D01*
X125211863Y-104724140D01*
X124964884Y-104608240D01*
X124700040Y-104542750D01*
X124427508Y-104530188D01*
X124157762Y-104571035D01*
X123901168Y-104663723D01*
X123788137Y-104724140D01*
X123722612Y-104963007D01*
X122277388Y-104963007D01*
X122285960Y-104954435D01*
X122218980Y-104714344D01*
X121969952Y-104597244D01*
X121702865Y-104530977D01*
X121427983Y-104518090D01*
X121155867Y-104559078D01*
X120896977Y-104652364D01*
X120781020Y-104714344D01*
X120714040Y-104954435D01*
X118210000Y-104954435D01*
X118210000Y-101389721D01*
X121515000Y-101389721D01*
X121515000Y-101810279D01*
X121597047Y-102222756D01*
X121757988Y-102611302D01*
X121991637Y-102960983D01*
X122289017Y-103258363D01*
X122638698Y-103492012D01*
X123027244Y-103652953D01*
X123439721Y-103735000D01*
X123860279Y-103735000D01*
X124272756Y-103652953D01*
X124661302Y-103492012D01*
X125010983Y-103258363D01*
X125308363Y-102960983D01*
X125542012Y-102611302D01*
X125702953Y-102222756D01*
X125785000Y-101810279D01*
X125785000Y-101389721D01*
X144215000Y-101389721D01*
X144215000Y-101810279D01*
X144297047Y-102222756D01*
X144457988Y-102611302D01*
X144691637Y-102960983D01*
X144989017Y-103258363D01*
X145338698Y-103492012D01*
X145727244Y-103652953D01*
X146139721Y-103735000D01*
X146560279Y-103735000D01*
X146972756Y-103652953D01*
X147361302Y-103492012D01*
X147710983Y-103258363D01*
X148008363Y-102960983D01*
X148242012Y-102611302D01*
X148402953Y-102222756D01*
X148485000Y-101810279D01*
X148485000Y-101389721D01*
X148402953Y-100977244D01*
X148242012Y-100588698D01*
X148008363Y-100239017D01*
X147710983Y-99941637D01*
X147361302Y-99707988D01*
X146972756Y-99547047D01*
X146560279Y-99465000D01*
X146139721Y-99465000D01*
X145727244Y-99547047D01*
X145338698Y-99707988D01*
X144989017Y-99941637D01*
X144691637Y-100239017D01*
X144457988Y-100588698D01*
X144297047Y-100977244D01*
X144215000Y-101389721D01*
X125785000Y-101389721D01*
X125702953Y-100977244D01*
X125542012Y-100588698D01*
X125308363Y-100239017D01*
X125010983Y-99941637D01*
X124661302Y-99707988D01*
X124272756Y-99547047D01*
X123860279Y-99465000D01*
X123439721Y-99465000D01*
X123027244Y-99547047D01*
X122638698Y-99707988D01*
X122289017Y-99941637D01*
X121991637Y-100239017D01*
X121757988Y-100588698D01*
X121597047Y-100977244D01*
X121515000Y-101389721D01*
X118210000Y-101389721D01*
X118210000Y-97210000D01*
X151790000Y-97210000D01*
X151790001Y-139790000D01*
M02*
