G04 #@! TF.GenerationSoftware,KiCad,Pcbnew,(5.0.2)-1*
G04 #@! TF.CreationDate,2019-03-20T21:28:47-05:00*
G04 #@! TF.ProjectId,Contactor,436f6e74-6163-4746-9f72-2e6b69636164,rev?*
G04 #@! TF.SameCoordinates,Original*
G04 #@! TF.FileFunction,Soldermask,Bot*
G04 #@! TF.FilePolarity,Negative*
%FSLAX46Y46*%
G04 Gerber Fmt 4.6, Leading zero omitted, Abs format (unit mm)*
G04 Created by KiCad (PCBNEW (5.0.2)-1) date 3/20/2019 9:28:47 PM*
%MOMM*%
%LPD*%
G01*
G04 APERTURE LIST*
%ADD10C,0.100000*%
G04 APERTURE END LIST*
D10*
G36*
X173318225Y-127064049D02*
X173479223Y-127096074D01*
X173667677Y-127174134D01*
X173934193Y-127284528D01*
X174343660Y-127558126D01*
X174691874Y-127906340D01*
X174965472Y-128315807D01*
X175032430Y-128477459D01*
X175153926Y-128770777D01*
X175185951Y-128931775D01*
X175250000Y-129253770D01*
X175250000Y-129746230D01*
X175153926Y-130229222D01*
X174965472Y-130684193D01*
X174691874Y-131093660D01*
X174343660Y-131441874D01*
X173934193Y-131715472D01*
X173667677Y-131825866D01*
X173479223Y-131903926D01*
X173318225Y-131935951D01*
X172996230Y-132000000D01*
X172503770Y-132000000D01*
X172181775Y-131935951D01*
X172020777Y-131903926D01*
X171832323Y-131825866D01*
X171565807Y-131715472D01*
X171156340Y-131441874D01*
X170808126Y-131093660D01*
X170534528Y-130684193D01*
X170346074Y-130229222D01*
X170250000Y-129746230D01*
X170250000Y-129253770D01*
X170314049Y-128931775D01*
X170346074Y-128770777D01*
X170467570Y-128477459D01*
X170534528Y-128315807D01*
X170808126Y-127906340D01*
X171156340Y-127558126D01*
X171565807Y-127284528D01*
X171832323Y-127174134D01*
X172020777Y-127096074D01*
X172181775Y-127064049D01*
X172503770Y-127000000D01*
X172996230Y-127000000D01*
X173318225Y-127064049D01*
X173318225Y-127064049D01*
G37*
G36*
X166247934Y-129682664D02*
X166402627Y-129746740D01*
X166541847Y-129839764D01*
X166660236Y-129958153D01*
X166753260Y-130097373D01*
X166817336Y-130252066D01*
X166850000Y-130416281D01*
X166850000Y-130583719D01*
X166817336Y-130747934D01*
X166753260Y-130902627D01*
X166660236Y-131041847D01*
X166541847Y-131160236D01*
X166402627Y-131253260D01*
X166247934Y-131317336D01*
X166083719Y-131350000D01*
X165916281Y-131350000D01*
X165752066Y-131317336D01*
X165597373Y-131253260D01*
X165458153Y-131160236D01*
X165339764Y-131041847D01*
X165246740Y-130902627D01*
X165182664Y-130747934D01*
X165150000Y-130583719D01*
X165150000Y-130416281D01*
X165182664Y-130252066D01*
X165246740Y-130097373D01*
X165339764Y-129958153D01*
X165458153Y-129839764D01*
X165597373Y-129746740D01*
X165752066Y-129682664D01*
X165916281Y-129650000D01*
X166083719Y-129650000D01*
X166247934Y-129682664D01*
X166247934Y-129682664D01*
G37*
G36*
X163247934Y-129682664D02*
X163402627Y-129746740D01*
X163541847Y-129839764D01*
X163660236Y-129958153D01*
X163753260Y-130097373D01*
X163817336Y-130252066D01*
X163850000Y-130416281D01*
X163850000Y-130583719D01*
X163817336Y-130747934D01*
X163753260Y-130902627D01*
X163660236Y-131041847D01*
X163541847Y-131160236D01*
X163402627Y-131253260D01*
X163247934Y-131317336D01*
X163083719Y-131350000D01*
X162916281Y-131350000D01*
X162752066Y-131317336D01*
X162597373Y-131253260D01*
X162458153Y-131160236D01*
X162339764Y-131041847D01*
X162246740Y-130902627D01*
X162182664Y-130747934D01*
X162150000Y-130583719D01*
X162150000Y-130416281D01*
X162182664Y-130252066D01*
X162246740Y-130097373D01*
X162339764Y-129958153D01*
X162458153Y-129839764D01*
X162597373Y-129746740D01*
X162752066Y-129682664D01*
X162916281Y-129650000D01*
X163083719Y-129650000D01*
X163247934Y-129682664D01*
X163247934Y-129682664D01*
G37*
G36*
X160247934Y-129682664D02*
X160402627Y-129746740D01*
X160541847Y-129839764D01*
X160660236Y-129958153D01*
X160753260Y-130097373D01*
X160817336Y-130252066D01*
X160850000Y-130416281D01*
X160850000Y-130583719D01*
X160817336Y-130747934D01*
X160753260Y-130902627D01*
X160660236Y-131041847D01*
X160541847Y-131160236D01*
X160402627Y-131253260D01*
X160247934Y-131317336D01*
X160083719Y-131350000D01*
X159916281Y-131350000D01*
X159752066Y-131317336D01*
X159597373Y-131253260D01*
X159458153Y-131160236D01*
X159339764Y-131041847D01*
X159246740Y-130902627D01*
X159182664Y-130747934D01*
X159150000Y-130583719D01*
X159150000Y-130416281D01*
X159182664Y-130252066D01*
X159246740Y-130097373D01*
X159339764Y-129958153D01*
X159458153Y-129839764D01*
X159597373Y-129746740D01*
X159752066Y-129682664D01*
X159916281Y-129650000D01*
X160083719Y-129650000D01*
X160247934Y-129682664D01*
X160247934Y-129682664D01*
G37*
G36*
X157247934Y-129682664D02*
X157402627Y-129746740D01*
X157541847Y-129839764D01*
X157660236Y-129958153D01*
X157753260Y-130097373D01*
X157817336Y-130252066D01*
X157850000Y-130416281D01*
X157850000Y-130583719D01*
X157817336Y-130747934D01*
X157753260Y-130902627D01*
X157660236Y-131041847D01*
X157541847Y-131160236D01*
X157402627Y-131253260D01*
X157247934Y-131317336D01*
X157083719Y-131350000D01*
X156916281Y-131350000D01*
X156752066Y-131317336D01*
X156597373Y-131253260D01*
X156458153Y-131160236D01*
X156339764Y-131041847D01*
X156246740Y-130902627D01*
X156182664Y-130747934D01*
X156150000Y-130583719D01*
X156150000Y-130416281D01*
X156182664Y-130252066D01*
X156246740Y-130097373D01*
X156339764Y-129958153D01*
X156458153Y-129839764D01*
X156597373Y-129746740D01*
X156752066Y-129682664D01*
X156916281Y-129650000D01*
X157083719Y-129650000D01*
X157247934Y-129682664D01*
X157247934Y-129682664D01*
G37*
G36*
X154185223Y-127929403D02*
X154300784Y-127977270D01*
X154404792Y-128046766D01*
X154493234Y-128135208D01*
X154562730Y-128239216D01*
X154610597Y-128354777D01*
X154635000Y-128477459D01*
X154635000Y-128602541D01*
X154610597Y-128725223D01*
X154562730Y-128840784D01*
X154493234Y-128944792D01*
X154404792Y-129033234D01*
X154300784Y-129102730D01*
X154185223Y-129150597D01*
X154062542Y-129175000D01*
X153937458Y-129175000D01*
X153814777Y-129150597D01*
X153699216Y-129102730D01*
X153595208Y-129033234D01*
X153506766Y-128944792D01*
X153437270Y-128840784D01*
X153389403Y-128725223D01*
X153365000Y-128602541D01*
X153365000Y-128477459D01*
X153389403Y-128354777D01*
X153437270Y-128239216D01*
X153506766Y-128135208D01*
X153595208Y-128046766D01*
X153699216Y-127977270D01*
X153814777Y-127929403D01*
X153937458Y-127905000D01*
X154062542Y-127905000D01*
X154185223Y-127929403D01*
X154185223Y-127929403D01*
G37*
G36*
X169185223Y-127929403D02*
X169300784Y-127977270D01*
X169404792Y-128046766D01*
X169493234Y-128135208D01*
X169562730Y-128239216D01*
X169610597Y-128354777D01*
X169635000Y-128477459D01*
X169635000Y-128602541D01*
X169610597Y-128725223D01*
X169562730Y-128840784D01*
X169493234Y-128944792D01*
X169404792Y-129033234D01*
X169300784Y-129102730D01*
X169185223Y-129150597D01*
X169062542Y-129175000D01*
X168937458Y-129175000D01*
X168814777Y-129150597D01*
X168699216Y-129102730D01*
X168595208Y-129033234D01*
X168506766Y-128944792D01*
X168437270Y-128840784D01*
X168389403Y-128725223D01*
X168365000Y-128602541D01*
X168365000Y-128477459D01*
X168389403Y-128354777D01*
X168437270Y-128239216D01*
X168506766Y-128135208D01*
X168595208Y-128046766D01*
X168699216Y-127977270D01*
X168814777Y-127929403D01*
X168937458Y-127905000D01*
X169062542Y-127905000D01*
X169185223Y-127929403D01*
X169185223Y-127929403D01*
G37*
G36*
X171975223Y-121889403D02*
X172090784Y-121937270D01*
X172194792Y-122006766D01*
X172283234Y-122095208D01*
X172352730Y-122199216D01*
X172400597Y-122314777D01*
X172425000Y-122437459D01*
X172425000Y-122562541D01*
X172400597Y-122685223D01*
X172352730Y-122800784D01*
X172283234Y-122904792D01*
X172194792Y-122993234D01*
X172090784Y-123062730D01*
X171975223Y-123110597D01*
X171852542Y-123135000D01*
X171727458Y-123135000D01*
X171604777Y-123110597D01*
X171489216Y-123062730D01*
X171385208Y-122993234D01*
X171296766Y-122904792D01*
X171227270Y-122800784D01*
X171179403Y-122685223D01*
X171155000Y-122562541D01*
X171155000Y-122437459D01*
X171179403Y-122314777D01*
X171227270Y-122199216D01*
X171296766Y-122095208D01*
X171385208Y-122006766D01*
X171489216Y-121937270D01*
X171604777Y-121889403D01*
X171727458Y-121865000D01*
X171852542Y-121865000D01*
X171975223Y-121889403D01*
X171975223Y-121889403D01*
G37*
G36*
X174600000Y-120350000D02*
X172900000Y-120350000D01*
X172900000Y-118650000D01*
X174600000Y-118650000D01*
X174600000Y-120350000D01*
X174600000Y-120350000D01*
G37*
G36*
X173997934Y-115682664D02*
X174152627Y-115746740D01*
X174291847Y-115839764D01*
X174410236Y-115958153D01*
X174503260Y-116097373D01*
X174567336Y-116252066D01*
X174600000Y-116416281D01*
X174600000Y-116583719D01*
X174567336Y-116747934D01*
X174503260Y-116902627D01*
X174410236Y-117041847D01*
X174291847Y-117160236D01*
X174152627Y-117253260D01*
X173997934Y-117317336D01*
X173833719Y-117350000D01*
X173666281Y-117350000D01*
X173502066Y-117317336D01*
X173347373Y-117253260D01*
X173208153Y-117160236D01*
X173089764Y-117041847D01*
X172996740Y-116902627D01*
X172932664Y-116747934D01*
X172900000Y-116583719D01*
X172900000Y-116416281D01*
X172932664Y-116252066D01*
X172996740Y-116097373D01*
X173089764Y-115958153D01*
X173208153Y-115839764D01*
X173347373Y-115746740D01*
X173502066Y-115682664D01*
X173666281Y-115650000D01*
X173833719Y-115650000D01*
X173997934Y-115682664D01*
X173997934Y-115682664D01*
G37*
G36*
X154523127Y-113626901D02*
X154658365Y-113653801D01*
X154913149Y-113759336D01*
X155127597Y-113902626D01*
X155142451Y-113912551D01*
X155337449Y-114107549D01*
X155337451Y-114107552D01*
X155477624Y-114317335D01*
X155490665Y-114336853D01*
X155596199Y-114591636D01*
X155650000Y-114862111D01*
X155650000Y-115137889D01*
X155596199Y-115408364D01*
X155496111Y-115650000D01*
X155490664Y-115663149D01*
X155434810Y-115746740D01*
X155337449Y-115892451D01*
X155142451Y-116087449D01*
X155142448Y-116087451D01*
X154913149Y-116240664D01*
X154658365Y-116346199D01*
X154523127Y-116373099D01*
X154387889Y-116400000D01*
X154112111Y-116400000D01*
X153976873Y-116373099D01*
X153841635Y-116346199D01*
X153586851Y-116240664D01*
X153357552Y-116087451D01*
X153357549Y-116087449D01*
X153162551Y-115892451D01*
X153065190Y-115746740D01*
X153009336Y-115663149D01*
X153003890Y-115650000D01*
X152903801Y-115408364D01*
X152850000Y-115137889D01*
X152850000Y-114862111D01*
X152903801Y-114591636D01*
X153009335Y-114336853D01*
X153022377Y-114317335D01*
X153162549Y-114107552D01*
X153162551Y-114107549D01*
X153357549Y-113912551D01*
X153372403Y-113902626D01*
X153586851Y-113759336D01*
X153841635Y-113653801D01*
X153976873Y-113626901D01*
X154112111Y-113600000D01*
X154387889Y-113600000D01*
X154523127Y-113626901D01*
X154523127Y-113626901D01*
G37*
G36*
X173997934Y-112682664D02*
X174152627Y-112746740D01*
X174291847Y-112839764D01*
X174410236Y-112958153D01*
X174503260Y-113097373D01*
X174567336Y-113252066D01*
X174600000Y-113416281D01*
X174600000Y-113583719D01*
X174567336Y-113747934D01*
X174503260Y-113902627D01*
X174410236Y-114041847D01*
X174291847Y-114160236D01*
X174152627Y-114253260D01*
X173997934Y-114317336D01*
X173833719Y-114350000D01*
X173666281Y-114350000D01*
X173502066Y-114317336D01*
X173347373Y-114253260D01*
X173208153Y-114160236D01*
X173089764Y-114041847D01*
X172996740Y-113902627D01*
X172932664Y-113747934D01*
X172900000Y-113583719D01*
X172900000Y-113416281D01*
X172932664Y-113252066D01*
X172996740Y-113097373D01*
X173089764Y-112958153D01*
X173208153Y-112839764D01*
X173347373Y-112746740D01*
X173502066Y-112682664D01*
X173666281Y-112650000D01*
X173833719Y-112650000D01*
X173997934Y-112682664D01*
X173997934Y-112682664D01*
G37*
G36*
X173997934Y-109682664D02*
X174152627Y-109746740D01*
X174291847Y-109839764D01*
X174410236Y-109958153D01*
X174503260Y-110097373D01*
X174567336Y-110252066D01*
X174600000Y-110416281D01*
X174600000Y-110583719D01*
X174567336Y-110747934D01*
X174503260Y-110902627D01*
X174410236Y-111041847D01*
X174291847Y-111160236D01*
X174152627Y-111253260D01*
X173997934Y-111317336D01*
X173833719Y-111350000D01*
X173666281Y-111350000D01*
X173502066Y-111317336D01*
X173347373Y-111253260D01*
X173208153Y-111160236D01*
X173089764Y-111041847D01*
X172996740Y-110902627D01*
X172932664Y-110747934D01*
X172900000Y-110583719D01*
X172900000Y-110416281D01*
X172932664Y-110252066D01*
X172996740Y-110097373D01*
X173089764Y-109958153D01*
X173208153Y-109839764D01*
X173347373Y-109746740D01*
X173502066Y-109682664D01*
X173666281Y-109650000D01*
X173833719Y-109650000D01*
X173997934Y-109682664D01*
X173997934Y-109682664D01*
G37*
G36*
X171975223Y-106889403D02*
X172090784Y-106937270D01*
X172194792Y-107006766D01*
X172283234Y-107095208D01*
X172352730Y-107199216D01*
X172400597Y-107314777D01*
X172425000Y-107437459D01*
X172425000Y-107562541D01*
X172400597Y-107685223D01*
X172352730Y-107800784D01*
X172283234Y-107904792D01*
X172194792Y-107993234D01*
X172090784Y-108062730D01*
X171975223Y-108110597D01*
X171852542Y-108135000D01*
X171727458Y-108135000D01*
X171604777Y-108110597D01*
X171489216Y-108062730D01*
X171385208Y-107993234D01*
X171296766Y-107904792D01*
X171227270Y-107800784D01*
X171179403Y-107685223D01*
X171155000Y-107562541D01*
X171155000Y-107437459D01*
X171179403Y-107314777D01*
X171227270Y-107199216D01*
X171296766Y-107095208D01*
X171385208Y-107006766D01*
X171489216Y-106937270D01*
X171604777Y-106889403D01*
X171727458Y-106865000D01*
X171852542Y-106865000D01*
X171975223Y-106889403D01*
X171975223Y-106889403D01*
G37*
G36*
X173318225Y-98064049D02*
X173479223Y-98096074D01*
X173667677Y-98174134D01*
X173934193Y-98284528D01*
X174343660Y-98558126D01*
X174691874Y-98906340D01*
X174965472Y-99315807D01*
X175153926Y-99770778D01*
X175250000Y-100253770D01*
X175250000Y-100746230D01*
X175229477Y-100849403D01*
X175167852Y-101159215D01*
X175153926Y-101229222D01*
X174965472Y-101684193D01*
X174691874Y-102093660D01*
X174343660Y-102441874D01*
X173934193Y-102715472D01*
X173667677Y-102825866D01*
X173479223Y-102903926D01*
X173318225Y-102935951D01*
X172996230Y-103000000D01*
X172503770Y-103000000D01*
X172181775Y-102935951D01*
X172020777Y-102903926D01*
X171832323Y-102825866D01*
X171565807Y-102715472D01*
X171156340Y-102441874D01*
X170808126Y-102093660D01*
X170534528Y-101684193D01*
X170346074Y-101229222D01*
X170332149Y-101159215D01*
X170270523Y-100849403D01*
X170250000Y-100746230D01*
X170250000Y-100253770D01*
X170346074Y-99770778D01*
X170534528Y-99315807D01*
X170808126Y-98906340D01*
X171156340Y-98558126D01*
X171565807Y-98284528D01*
X171832323Y-98174134D01*
X172020777Y-98096074D01*
X172181775Y-98064049D01*
X172503770Y-98000000D01*
X172996230Y-98000000D01*
X173318225Y-98064049D01*
X173318225Y-98064049D01*
G37*
G36*
X157185223Y-100849403D02*
X157300784Y-100897270D01*
X157404792Y-100966766D01*
X157493234Y-101055208D01*
X157562730Y-101159216D01*
X157610597Y-101274777D01*
X157635000Y-101397459D01*
X157635000Y-101522541D01*
X157610597Y-101645223D01*
X157562730Y-101760784D01*
X157493234Y-101864792D01*
X157404792Y-101953234D01*
X157300784Y-102022730D01*
X157185223Y-102070597D01*
X157062542Y-102095000D01*
X156937458Y-102095000D01*
X156814777Y-102070597D01*
X156699216Y-102022730D01*
X156595208Y-101953234D01*
X156506766Y-101864792D01*
X156437270Y-101760784D01*
X156389403Y-101645223D01*
X156365000Y-101522541D01*
X156365000Y-101397459D01*
X156389403Y-101274777D01*
X156437270Y-101159216D01*
X156506766Y-101055208D01*
X156595208Y-100966766D01*
X156699216Y-100897270D01*
X156814777Y-100849403D01*
X156937458Y-100825000D01*
X157062542Y-100825000D01*
X157185223Y-100849403D01*
X157185223Y-100849403D01*
G37*
G36*
X166185223Y-100849403D02*
X166300784Y-100897270D01*
X166404792Y-100966766D01*
X166493234Y-101055208D01*
X166562730Y-101159216D01*
X166610597Y-101274777D01*
X166635000Y-101397459D01*
X166635000Y-101522541D01*
X166610597Y-101645223D01*
X166562730Y-101760784D01*
X166493234Y-101864792D01*
X166404792Y-101953234D01*
X166300784Y-102022730D01*
X166185223Y-102070597D01*
X166062542Y-102095000D01*
X165937458Y-102095000D01*
X165814777Y-102070597D01*
X165699216Y-102022730D01*
X165595208Y-101953234D01*
X165506766Y-101864792D01*
X165437270Y-101760784D01*
X165389403Y-101645223D01*
X165365000Y-101522541D01*
X165365000Y-101397459D01*
X165389403Y-101274777D01*
X165437270Y-101159216D01*
X165506766Y-101055208D01*
X165595208Y-100966766D01*
X165699216Y-100897270D01*
X165814777Y-100849403D01*
X165937458Y-100825000D01*
X166062542Y-100825000D01*
X166185223Y-100849403D01*
X166185223Y-100849403D01*
G37*
G36*
X160850000Y-100350000D02*
X159150000Y-100350000D01*
X159150000Y-98650000D01*
X160850000Y-98650000D01*
X160850000Y-100350000D01*
X160850000Y-100350000D01*
G37*
G36*
X163247934Y-98682664D02*
X163402627Y-98746740D01*
X163541847Y-98839764D01*
X163660236Y-98958153D01*
X163753260Y-99097373D01*
X163817336Y-99252066D01*
X163850000Y-99416281D01*
X163850000Y-99583719D01*
X163817336Y-99747934D01*
X163753260Y-99902627D01*
X163660236Y-100041847D01*
X163541847Y-100160236D01*
X163402627Y-100253260D01*
X163247934Y-100317336D01*
X163083719Y-100350000D01*
X162916281Y-100350000D01*
X162752066Y-100317336D01*
X162597373Y-100253260D01*
X162458153Y-100160236D01*
X162339764Y-100041847D01*
X162246740Y-99902627D01*
X162182664Y-99747934D01*
X162150000Y-99583719D01*
X162150000Y-99416281D01*
X162182664Y-99252066D01*
X162246740Y-99097373D01*
X162339764Y-98958153D01*
X162458153Y-98839764D01*
X162597373Y-98746740D01*
X162752066Y-98682664D01*
X162916281Y-98650000D01*
X163083719Y-98650000D01*
X163247934Y-98682664D01*
X163247934Y-98682664D01*
G37*
M02*
