G04 #@! TF.GenerationSoftware,KiCad,Pcbnew,(5.0.2)-1*
G04 #@! TF.CreationDate,2019-03-20T21:28:47-05:00*
G04 #@! TF.ProjectId,Contactor,436f6e74-6163-4746-9f72-2e6b69636164,rev?*
G04 #@! TF.SameCoordinates,Original*
G04 #@! TF.FileFunction,Legend,Bot*
G04 #@! TF.FilePolarity,Positive*
%FSLAX46Y46*%
G04 Gerber Fmt 4.6, Leading zero omitted, Abs format (unit mm)*
G04 Created by KiCad (PCBNEW (5.0.2)-1) date 3/20/2019 9:28:47 PM*
%MOMM*%
%LPD*%
G01*
G04 APERTURE LIST*
%ADD10C,0.300000*%
%ADD11C,0.010000*%
G04 APERTURE END LIST*
D10*
X164071428Y-127571428D02*
X164000000Y-127500000D01*
X163857142Y-127428571D01*
X163500000Y-127428571D01*
X163357142Y-127500000D01*
X163285714Y-127571428D01*
X163214285Y-127714285D01*
X163214285Y-127857142D01*
X163285714Y-128071428D01*
X164142857Y-128928571D01*
X163214285Y-128928571D01*
X162285714Y-127428571D02*
X162142857Y-127428571D01*
X162000000Y-127500000D01*
X161928571Y-127571428D01*
X161857142Y-127714285D01*
X161785714Y-128000000D01*
X161785714Y-128357142D01*
X161857142Y-128642857D01*
X161928571Y-128785714D01*
X162000000Y-128857142D01*
X162142857Y-128928571D01*
X162285714Y-128928571D01*
X162428571Y-128857142D01*
X162500000Y-128785714D01*
X162571428Y-128642857D01*
X162642857Y-128357142D01*
X162642857Y-128000000D01*
X162571428Y-127714285D01*
X162500000Y-127571428D01*
X162428571Y-127500000D01*
X162285714Y-127428571D01*
X160357142Y-128928571D02*
X161214285Y-128928571D01*
X160785714Y-128928571D02*
X160785714Y-127428571D01*
X160928571Y-127642857D01*
X161071428Y-127785714D01*
X161214285Y-127857142D01*
X159642857Y-128928571D02*
X159357142Y-128928571D01*
X159214285Y-128857142D01*
X159142857Y-128785714D01*
X159000000Y-128571428D01*
X158928571Y-128285714D01*
X158928571Y-127714285D01*
X159000000Y-127571428D01*
X159071428Y-127500000D01*
X159214285Y-127428571D01*
X159500000Y-127428571D01*
X159642857Y-127500000D01*
X159714285Y-127571428D01*
X159785714Y-127714285D01*
X159785714Y-128071428D01*
X159714285Y-128214285D01*
X159642857Y-128285714D01*
X159500000Y-128357142D01*
X159214285Y-128357142D01*
X159071428Y-128285714D01*
X159000000Y-128214285D01*
X158928571Y-128071428D01*
X167571428Y-104178571D02*
X167571428Y-102678571D01*
X166714285Y-104178571D01*
X166714285Y-102678571D01*
X166000000Y-104178571D02*
X166000000Y-103178571D01*
X166000000Y-102678571D02*
X166071428Y-102750000D01*
X166000000Y-102821428D01*
X165928571Y-102750000D01*
X166000000Y-102678571D01*
X166000000Y-102821428D01*
X165285714Y-103178571D02*
X165285714Y-104178571D01*
X165285714Y-103321428D02*
X165214285Y-103250000D01*
X165071428Y-103178571D01*
X164857142Y-103178571D01*
X164714285Y-103250000D01*
X164642857Y-103392857D01*
X164642857Y-104178571D01*
X163714285Y-104178571D02*
X163857142Y-104107142D01*
X163928571Y-104035714D01*
X164000000Y-103892857D01*
X164000000Y-103464285D01*
X163928571Y-103321428D01*
X163857142Y-103250000D01*
X163714285Y-103178571D01*
X163500000Y-103178571D01*
X163357142Y-103250000D01*
X163285714Y-103321428D01*
X163214285Y-103464285D01*
X163214285Y-103892857D01*
X163285714Y-104035714D01*
X163357142Y-104107142D01*
X163500000Y-104178571D01*
X163714285Y-104178571D01*
X161642857Y-102678571D02*
X160785714Y-102678571D01*
X161214285Y-104178571D02*
X161214285Y-102678571D01*
X159714285Y-104107142D02*
X159857142Y-104178571D01*
X160142857Y-104178571D01*
X160285714Y-104107142D01*
X160357142Y-103964285D01*
X160357142Y-103392857D01*
X160285714Y-103250000D01*
X160142857Y-103178571D01*
X159857142Y-103178571D01*
X159714285Y-103250000D01*
X159642857Y-103392857D01*
X159642857Y-103535714D01*
X160357142Y-103678571D01*
X159000000Y-104178571D02*
X159000000Y-103178571D01*
X159000000Y-103464285D02*
X158928571Y-103321428D01*
X158857142Y-103250000D01*
X158714285Y-103178571D01*
X158571428Y-103178571D01*
X157428571Y-103178571D02*
X157428571Y-104178571D01*
X158071428Y-103178571D02*
X158071428Y-103964285D01*
X158000000Y-104107142D01*
X157857142Y-104178571D01*
X157642857Y-104178571D01*
X157500000Y-104107142D01*
X157428571Y-104035714D01*
X156857142Y-103178571D02*
X156500000Y-104178571D01*
X156142857Y-103178571D02*
X156500000Y-104178571D01*
X156642857Y-104535714D01*
X156714285Y-104607142D01*
X156857142Y-104678571D01*
X154928571Y-104178571D02*
X154928571Y-103392857D01*
X155000000Y-103250000D01*
X155142857Y-103178571D01*
X155428571Y-103178571D01*
X155571428Y-103250000D01*
X154928571Y-104107142D02*
X155071428Y-104178571D01*
X155428571Y-104178571D01*
X155571428Y-104107142D01*
X155642857Y-103964285D01*
X155642857Y-103821428D01*
X155571428Y-103678571D01*
X155428571Y-103607142D01*
X155071428Y-103607142D01*
X154928571Y-103535714D01*
D11*
G04 #@! TO.C,G\002A\002A\002A*
G36*
X158724978Y-120367039D02*
X158417332Y-120449318D01*
X157790758Y-120723482D01*
X157186490Y-121143275D01*
X156637655Y-121685341D01*
X156598230Y-121731975D01*
X156385568Y-121997321D01*
X156215188Y-122229225D01*
X156107457Y-122397853D01*
X156082740Y-122473370D01*
X156091521Y-122474302D01*
X156162702Y-122420987D01*
X156331084Y-122284039D01*
X156564831Y-122089479D01*
X156650441Y-122017442D01*
X157362867Y-121488873D01*
X158080105Y-121108433D01*
X158816574Y-120874838D01*
X159586691Y-120786807D01*
X160404873Y-120843057D01*
X161285537Y-121042308D01*
X162243103Y-121383276D01*
X162509686Y-121496400D01*
X162878483Y-121651373D01*
X163103585Y-121732557D01*
X163191145Y-121745023D01*
X163147317Y-121693842D01*
X162978254Y-121584085D01*
X162690110Y-121420824D01*
X162289038Y-121209130D01*
X161957666Y-121041458D01*
X161178536Y-120684603D01*
X160492342Y-120443189D01*
X159872445Y-120312760D01*
X159292203Y-120288863D01*
X158724978Y-120367039D01*
X158724978Y-120367039D01*
G37*
X158724978Y-120367039D02*
X158417332Y-120449318D01*
X157790758Y-120723482D01*
X157186490Y-121143275D01*
X156637655Y-121685341D01*
X156598230Y-121731975D01*
X156385568Y-121997321D01*
X156215188Y-122229225D01*
X156107457Y-122397853D01*
X156082740Y-122473370D01*
X156091521Y-122474302D01*
X156162702Y-122420987D01*
X156331084Y-122284039D01*
X156564831Y-122089479D01*
X156650441Y-122017442D01*
X157362867Y-121488873D01*
X158080105Y-121108433D01*
X158816574Y-120874838D01*
X159586691Y-120786807D01*
X160404873Y-120843057D01*
X161285537Y-121042308D01*
X162243103Y-121383276D01*
X162509686Y-121496400D01*
X162878483Y-121651373D01*
X163103585Y-121732557D01*
X163191145Y-121745023D01*
X163147317Y-121693842D01*
X162978254Y-121584085D01*
X162690110Y-121420824D01*
X162289038Y-121209130D01*
X161957666Y-121041458D01*
X161178536Y-120684603D01*
X160492342Y-120443189D01*
X159872445Y-120312760D01*
X159292203Y-120288863D01*
X158724978Y-120367039D01*
G36*
X162612000Y-123758171D02*
X162421456Y-123785224D01*
X162357025Y-123834973D01*
X162359409Y-123855834D01*
X162462111Y-123951847D01*
X162578132Y-123988722D01*
X162721636Y-124060816D01*
X162763156Y-124242722D01*
X162792487Y-124557587D01*
X162868927Y-124771292D01*
X162980568Y-124850663D01*
X162981425Y-124850667D01*
X163041787Y-124825620D01*
X163063041Y-124730418D01*
X163044963Y-124534973D01*
X162987327Y-124209193D01*
X162976225Y-124152167D01*
X163008456Y-124027742D01*
X163101537Y-124004000D01*
X163247642Y-123958815D01*
X163287716Y-123908517D01*
X163338831Y-123928527D01*
X163443855Y-124070276D01*
X163581098Y-124303984D01*
X163596070Y-124331851D01*
X163749682Y-124590806D01*
X163889732Y-124776760D01*
X163986620Y-124850593D01*
X163988624Y-124850667D01*
X164078170Y-124773915D01*
X164178572Y-124569296D01*
X164237659Y-124393136D01*
X164326341Y-124070851D01*
X164361640Y-123877502D01*
X164343933Y-123781449D01*
X164273594Y-123751054D01*
X164245280Y-123750000D01*
X164138358Y-123822943D01*
X164068875Y-123982834D01*
X164002079Y-124252998D01*
X163942903Y-124364036D01*
X163871520Y-124323914D01*
X163768103Y-124140599D01*
X163752833Y-124109834D01*
X163575306Y-123750000D01*
X162949931Y-123750000D01*
X162612000Y-123758171D01*
X162612000Y-123758171D01*
G37*
X162612000Y-123758171D02*
X162421456Y-123785224D01*
X162357025Y-123834973D01*
X162359409Y-123855834D01*
X162462111Y-123951847D01*
X162578132Y-123988722D01*
X162721636Y-124060816D01*
X162763156Y-124242722D01*
X162792487Y-124557587D01*
X162868927Y-124771292D01*
X162980568Y-124850663D01*
X162981425Y-124850667D01*
X163041787Y-124825620D01*
X163063041Y-124730418D01*
X163044963Y-124534973D01*
X162987327Y-124209193D01*
X162976225Y-124152167D01*
X163008456Y-124027742D01*
X163101537Y-124004000D01*
X163247642Y-123958815D01*
X163287716Y-123908517D01*
X163338831Y-123928527D01*
X163443855Y-124070276D01*
X163581098Y-124303984D01*
X163596070Y-124331851D01*
X163749682Y-124590806D01*
X163889732Y-124776760D01*
X163986620Y-124850593D01*
X163988624Y-124850667D01*
X164078170Y-124773915D01*
X164178572Y-124569296D01*
X164237659Y-124393136D01*
X164326341Y-124070851D01*
X164361640Y-123877502D01*
X164343933Y-123781449D01*
X164273594Y-123751054D01*
X164245280Y-123750000D01*
X164138358Y-123822943D01*
X164068875Y-123982834D01*
X164002079Y-124252998D01*
X163942903Y-124364036D01*
X163871520Y-124323914D01*
X163768103Y-124140599D01*
X163752833Y-124109834D01*
X163575306Y-123750000D01*
X162949931Y-123750000D01*
X162612000Y-123758171D01*
G36*
X165543781Y-123763596D02*
X165413756Y-123810668D01*
X165386666Y-123877000D01*
X165456950Y-123980509D01*
X165553084Y-124004000D01*
X165658805Y-124035175D01*
X165725004Y-124154676D01*
X165772166Y-124401465D01*
X165775658Y-124427334D01*
X165835134Y-124713175D01*
X165918818Y-124841210D01*
X165955852Y-124850667D01*
X166026747Y-124818698D01*
X166047907Y-124698218D01*
X166025064Y-124452366D01*
X166021666Y-124427334D01*
X165995050Y-124173201D01*
X166010819Y-124045507D01*
X166076074Y-124005076D01*
X166098388Y-124004000D01*
X166215657Y-123939644D01*
X166233333Y-123877000D01*
X166188014Y-123797135D01*
X166031106Y-123758127D01*
X165810000Y-123750000D01*
X165543781Y-123763596D01*
X165543781Y-123763596D01*
G37*
X165543781Y-123763596D02*
X165413756Y-123810668D01*
X165386666Y-123877000D01*
X165456950Y-123980509D01*
X165553084Y-124004000D01*
X165658805Y-124035175D01*
X165725004Y-124154676D01*
X165772166Y-124401465D01*
X165775658Y-124427334D01*
X165835134Y-124713175D01*
X165918818Y-124841210D01*
X165955852Y-124850667D01*
X166026747Y-124818698D01*
X166047907Y-124698218D01*
X166025064Y-124452366D01*
X166021666Y-124427334D01*
X165995050Y-124173201D01*
X166010819Y-124045507D01*
X166076074Y-124005076D01*
X166098388Y-124004000D01*
X166215657Y-123939644D01*
X166233333Y-123877000D01*
X166188014Y-123797135D01*
X166031106Y-123758127D01*
X165810000Y-123750000D01*
X165543781Y-123763596D01*
G36*
X164582865Y-123793696D02*
X164561588Y-123855834D01*
X164664029Y-123938619D01*
X164794000Y-123961667D01*
X164976081Y-124001982D01*
X165010729Y-124098427D01*
X164892099Y-124214247D01*
X164838526Y-124241596D01*
X164664391Y-124389319D01*
X164639657Y-124578490D01*
X164766231Y-124767372D01*
X164812839Y-124803533D01*
X165023917Y-124917544D01*
X165195081Y-124909270D01*
X165291680Y-124858836D01*
X165372317Y-124757447D01*
X165317074Y-124677410D01*
X165159008Y-124651665D01*
X165092354Y-124660225D01*
X164924282Y-124650631D01*
X164878118Y-124565169D01*
X164957770Y-124449420D01*
X165068672Y-124383910D01*
X165244951Y-124234940D01*
X165287567Y-124034311D01*
X165213958Y-123872933D01*
X165085162Y-123794772D01*
X164898073Y-123754491D01*
X164711153Y-123753621D01*
X164582865Y-123793696D01*
X164582865Y-123793696D01*
G37*
X164582865Y-123793696D02*
X164561588Y-123855834D01*
X164664029Y-123938619D01*
X164794000Y-123961667D01*
X164976081Y-124001982D01*
X165010729Y-124098427D01*
X164892099Y-124214247D01*
X164838526Y-124241596D01*
X164664391Y-124389319D01*
X164639657Y-124578490D01*
X164766231Y-124767372D01*
X164812839Y-124803533D01*
X165023917Y-124917544D01*
X165195081Y-124909270D01*
X165291680Y-124858836D01*
X165372317Y-124757447D01*
X165317074Y-124677410D01*
X165159008Y-124651665D01*
X165092354Y-124660225D01*
X164924282Y-124650631D01*
X164878118Y-124565169D01*
X164957770Y-124449420D01*
X165068672Y-124383910D01*
X165244951Y-124234940D01*
X165287567Y-124034311D01*
X165213958Y-123872933D01*
X165085162Y-123794772D01*
X164898073Y-123754491D01*
X164711153Y-123753621D01*
X164582865Y-123793696D01*
G36*
X166421383Y-123819315D02*
X166404686Y-123898167D01*
X166428444Y-124112794D01*
X166483594Y-124372471D01*
X166552892Y-124610123D01*
X166619093Y-124758676D01*
X166628918Y-124770361D01*
X166818991Y-124865001D01*
X167067669Y-124893677D01*
X167270500Y-124845932D01*
X167369141Y-124710585D01*
X167419599Y-124486812D01*
X167424653Y-124226811D01*
X167387081Y-123982782D01*
X167309665Y-123806923D01*
X167212142Y-123750000D01*
X167152474Y-123808109D01*
X167135290Y-123996093D01*
X167147627Y-124223009D01*
X167165826Y-124490789D01*
X167153735Y-124628448D01*
X167097317Y-124674415D01*
X166985260Y-124667509D01*
X166861007Y-124625283D01*
X166782779Y-124513762D01*
X166725202Y-124289613D01*
X166708259Y-124194500D01*
X166638605Y-123908155D01*
X166554235Y-123763690D01*
X166517759Y-123750000D01*
X166421383Y-123819315D01*
X166421383Y-123819315D01*
G37*
X166421383Y-123819315D02*
X166404686Y-123898167D01*
X166428444Y-124112794D01*
X166483594Y-124372471D01*
X166552892Y-124610123D01*
X166619093Y-124758676D01*
X166628918Y-124770361D01*
X166818991Y-124865001D01*
X167067669Y-124893677D01*
X167270500Y-124845932D01*
X167369141Y-124710585D01*
X167419599Y-124486812D01*
X167424653Y-124226811D01*
X167387081Y-123982782D01*
X167309665Y-123806923D01*
X167212142Y-123750000D01*
X167152474Y-123808109D01*
X167135290Y-123996093D01*
X167147627Y-124223009D01*
X167165826Y-124490789D01*
X167153735Y-124628448D01*
X167097317Y-124674415D01*
X166985260Y-124667509D01*
X166861007Y-124625283D01*
X166782779Y-124513762D01*
X166725202Y-124289613D01*
X166708259Y-124194500D01*
X166638605Y-123908155D01*
X166554235Y-123763690D01*
X166517759Y-123750000D01*
X166421383Y-123819315D01*
G36*
X162996057Y-122505662D02*
X161381699Y-122559837D01*
X159613779Y-122645813D01*
X157693471Y-122763673D01*
X157428000Y-122781663D01*
X156775054Y-122827680D01*
X156084444Y-122878602D01*
X155406667Y-122930553D01*
X154792222Y-122979655D01*
X154291607Y-123022030D01*
X154253000Y-123025458D01*
X152983000Y-123138801D01*
X154888000Y-123084567D01*
X155704920Y-123064732D01*
X156590947Y-123049324D01*
X157526118Y-123038234D01*
X158490473Y-123031357D01*
X159464050Y-123028585D01*
X160426887Y-123029811D01*
X161359022Y-123034927D01*
X162240493Y-123043828D01*
X163051340Y-123056404D01*
X163771599Y-123072551D01*
X164381310Y-123092159D01*
X164860511Y-123115123D01*
X165175000Y-123139767D01*
X166149560Y-123259425D01*
X166962254Y-123392204D01*
X167620220Y-123540644D01*
X168130594Y-123707283D01*
X168500513Y-123894661D01*
X168737114Y-124105318D01*
X168847533Y-124341793D01*
X168858000Y-124450189D01*
X168808075Y-124692824D01*
X168687500Y-124936887D01*
X168682901Y-124943430D01*
X168584737Y-125095554D01*
X168574275Y-125163634D01*
X168664724Y-125145003D01*
X168869295Y-125036997D01*
X169196666Y-124839745D01*
X169625374Y-124549938D01*
X169989208Y-124255182D01*
X170261715Y-123979932D01*
X170416441Y-123748643D01*
X170435108Y-123694878D01*
X170421021Y-123435570D01*
X170241618Y-123207240D01*
X169898074Y-123009968D01*
X169391565Y-122843839D01*
X168723266Y-122708934D01*
X167894353Y-122605336D01*
X166906000Y-122533127D01*
X165759382Y-122492390D01*
X164455677Y-122483208D01*
X162996057Y-122505662D01*
X162996057Y-122505662D01*
G37*
X162996057Y-122505662D02*
X161381699Y-122559837D01*
X159613779Y-122645813D01*
X157693471Y-122763673D01*
X157428000Y-122781663D01*
X156775054Y-122827680D01*
X156084444Y-122878602D01*
X155406667Y-122930553D01*
X154792222Y-122979655D01*
X154291607Y-123022030D01*
X154253000Y-123025458D01*
X152983000Y-123138801D01*
X154888000Y-123084567D01*
X155704920Y-123064732D01*
X156590947Y-123049324D01*
X157526118Y-123038234D01*
X158490473Y-123031357D01*
X159464050Y-123028585D01*
X160426887Y-123029811D01*
X161359022Y-123034927D01*
X162240493Y-123043828D01*
X163051340Y-123056404D01*
X163771599Y-123072551D01*
X164381310Y-123092159D01*
X164860511Y-123115123D01*
X165175000Y-123139767D01*
X166149560Y-123259425D01*
X166962254Y-123392204D01*
X167620220Y-123540644D01*
X168130594Y-123707283D01*
X168500513Y-123894661D01*
X168737114Y-124105318D01*
X168847533Y-124341793D01*
X168858000Y-124450189D01*
X168808075Y-124692824D01*
X168687500Y-124936887D01*
X168682901Y-124943430D01*
X168584737Y-125095554D01*
X168574275Y-125163634D01*
X168664724Y-125145003D01*
X168869295Y-125036997D01*
X169196666Y-124839745D01*
X169625374Y-124549938D01*
X169989208Y-124255182D01*
X170261715Y-123979932D01*
X170416441Y-123748643D01*
X170435108Y-123694878D01*
X170421021Y-123435570D01*
X170241618Y-123207240D01*
X169898074Y-123009968D01*
X169391565Y-122843839D01*
X168723266Y-122708934D01*
X167894353Y-122605336D01*
X166906000Y-122533127D01*
X165759382Y-122492390D01*
X164455677Y-122483208D01*
X162996057Y-122505662D01*
G36*
X157773384Y-123344884D02*
X157006905Y-123426699D01*
X156335679Y-123571139D01*
X156200333Y-123612989D01*
X155563721Y-123869973D01*
X155068334Y-124167975D01*
X154718625Y-124498364D01*
X154519048Y-124852511D01*
X154474056Y-125221786D01*
X154588103Y-125597560D01*
X154865643Y-125971203D01*
X154943941Y-126047501D01*
X155403294Y-126369800D01*
X155985672Y-126611745D01*
X156661566Y-126766518D01*
X157401469Y-126827305D01*
X158156278Y-126789577D01*
X158548741Y-126725619D01*
X158954886Y-126630150D01*
X159226958Y-126544726D01*
X159595756Y-126380908D01*
X159997258Y-126161585D01*
X160380836Y-125918294D01*
X160695862Y-125682570D01*
X160857000Y-125529358D01*
X161026333Y-125335501D01*
X160772333Y-125464686D01*
X160117245Y-125727412D01*
X159373870Y-125907303D01*
X158584552Y-126002579D01*
X157791634Y-126011459D01*
X157037458Y-125932163D01*
X156364368Y-125762909D01*
X156107861Y-125660870D01*
X155681482Y-125418059D01*
X155419786Y-125158225D01*
X155319991Y-124889425D01*
X155379314Y-124619717D01*
X155594973Y-124357160D01*
X155964185Y-124109810D01*
X156484169Y-123885726D01*
X156750666Y-123799350D01*
X157566797Y-123625229D01*
X158469602Y-123552743D01*
X159411306Y-123580587D01*
X160344134Y-123707453D01*
X161185111Y-123920601D01*
X161517390Y-124023953D01*
X161782869Y-124099913D01*
X161945026Y-124138382D01*
X161977242Y-124139647D01*
X161934995Y-124085450D01*
X161761425Y-123998737D01*
X161488765Y-123890844D01*
X161149248Y-123773111D01*
X160775106Y-123656876D01*
X160398572Y-123553478D01*
X160133343Y-123491034D01*
X159387703Y-123375467D01*
X158584017Y-123327279D01*
X157773384Y-123344884D01*
X157773384Y-123344884D01*
G37*
X157773384Y-123344884D02*
X157006905Y-123426699D01*
X156335679Y-123571139D01*
X156200333Y-123612989D01*
X155563721Y-123869973D01*
X155068334Y-124167975D01*
X154718625Y-124498364D01*
X154519048Y-124852511D01*
X154474056Y-125221786D01*
X154588103Y-125597560D01*
X154865643Y-125971203D01*
X154943941Y-126047501D01*
X155403294Y-126369800D01*
X155985672Y-126611745D01*
X156661566Y-126766518D01*
X157401469Y-126827305D01*
X158156278Y-126789577D01*
X158548741Y-126725619D01*
X158954886Y-126630150D01*
X159226958Y-126544726D01*
X159595756Y-126380908D01*
X159997258Y-126161585D01*
X160380836Y-125918294D01*
X160695862Y-125682570D01*
X160857000Y-125529358D01*
X161026333Y-125335501D01*
X160772333Y-125464686D01*
X160117245Y-125727412D01*
X159373870Y-125907303D01*
X158584552Y-126002579D01*
X157791634Y-126011459D01*
X157037458Y-125932163D01*
X156364368Y-125762909D01*
X156107861Y-125660870D01*
X155681482Y-125418059D01*
X155419786Y-125158225D01*
X155319991Y-124889425D01*
X155379314Y-124619717D01*
X155594973Y-124357160D01*
X155964185Y-124109810D01*
X156484169Y-123885726D01*
X156750666Y-123799350D01*
X157566797Y-123625229D01*
X158469602Y-123552743D01*
X159411306Y-123580587D01*
X160344134Y-123707453D01*
X161185111Y-123920601D01*
X161517390Y-124023953D01*
X161782869Y-124099913D01*
X161945026Y-124138382D01*
X161977242Y-124139647D01*
X161934995Y-124085450D01*
X161761425Y-123998737D01*
X161488765Y-123890844D01*
X161149248Y-123773111D01*
X160775106Y-123656876D01*
X160398572Y-123553478D01*
X160133343Y-123491034D01*
X159387703Y-123375467D01*
X158584017Y-123327279D01*
X157773384Y-123344884D01*
G36*
X161051583Y-124709313D02*
X161235010Y-124843627D01*
X161505292Y-125028048D01*
X161833442Y-125243760D01*
X162190474Y-125471948D01*
X162547401Y-125693795D01*
X162875235Y-125890486D01*
X163112379Y-126025489D01*
X163859592Y-126392640D01*
X164589034Y-126671038D01*
X165277050Y-126855144D01*
X165899988Y-126939424D01*
X166434193Y-126918339D01*
X166679657Y-126860469D01*
X167163131Y-126614277D01*
X167564541Y-126222205D01*
X167850449Y-125750429D01*
X167965497Y-125483420D01*
X168048173Y-125247845D01*
X168094075Y-125068973D01*
X168098801Y-124972074D01*
X168057950Y-124982418D01*
X167967121Y-125125274D01*
X167955551Y-125147000D01*
X167622360Y-125610842D01*
X167173612Y-125984930D01*
X167037666Y-126064921D01*
X166864575Y-126146448D01*
X166679985Y-126199418D01*
X166442995Y-126229376D01*
X166112704Y-126241869D01*
X165725333Y-126242887D01*
X165263087Y-126235070D01*
X164907723Y-126210514D01*
X164596941Y-126159661D01*
X164268442Y-126072955D01*
X163947333Y-125970125D01*
X163554308Y-125824784D01*
X163072265Y-125624941D01*
X162561207Y-125396511D01*
X162081137Y-125165408D01*
X162063500Y-125156512D01*
X161679660Y-124964671D01*
X161355966Y-124807028D01*
X161119073Y-124696240D01*
X160995636Y-124644964D01*
X160984000Y-124643923D01*
X161051583Y-124709313D01*
X161051583Y-124709313D01*
G37*
X161051583Y-124709313D02*
X161235010Y-124843627D01*
X161505292Y-125028048D01*
X161833442Y-125243760D01*
X162190474Y-125471948D01*
X162547401Y-125693795D01*
X162875235Y-125890486D01*
X163112379Y-126025489D01*
X163859592Y-126392640D01*
X164589034Y-126671038D01*
X165277050Y-126855144D01*
X165899988Y-126939424D01*
X166434193Y-126918339D01*
X166679657Y-126860469D01*
X167163131Y-126614277D01*
X167564541Y-126222205D01*
X167850449Y-125750429D01*
X167965497Y-125483420D01*
X168048173Y-125247845D01*
X168094075Y-125068973D01*
X168098801Y-124972074D01*
X168057950Y-124982418D01*
X167967121Y-125125274D01*
X167955551Y-125147000D01*
X167622360Y-125610842D01*
X167173612Y-125984930D01*
X167037666Y-126064921D01*
X166864575Y-126146448D01*
X166679985Y-126199418D01*
X166442995Y-126229376D01*
X166112704Y-126241869D01*
X165725333Y-126242887D01*
X165263087Y-126235070D01*
X164907723Y-126210514D01*
X164596941Y-126159661D01*
X164268442Y-126072955D01*
X163947333Y-125970125D01*
X163554308Y-125824784D01*
X163072265Y-125624941D01*
X162561207Y-125396511D01*
X162081137Y-125165408D01*
X162063500Y-125156512D01*
X161679660Y-124964671D01*
X161355966Y-124807028D01*
X161119073Y-124696240D01*
X160995636Y-124644964D01*
X160984000Y-124643923D01*
X161051583Y-124709313D01*
G04 #@! TD*
M02*
