G04 #@! TF.GenerationSoftware,KiCad,Pcbnew,(5.1.5)-3*
G04 #@! TF.CreationDate,2020-03-07T18:51:17-06:00*
G04 #@! TF.ProjectId,LinearRegulator15to5,4c696e65-6172-4526-9567-756c61746f72,rev?*
G04 #@! TF.SameCoordinates,Original*
G04 #@! TF.FileFunction,Soldermask,Top*
G04 #@! TF.FilePolarity,Negative*
%FSLAX46Y46*%
G04 Gerber Fmt 4.6, Leading zero omitted, Abs format (unit mm)*
G04 Created by KiCad (PCBNEW (5.1.5)-3) date 2020-03-07 18:51:17*
%MOMM*%
%LPD*%
G04 APERTURE LIST*
%ADD10C,0.100000*%
G04 APERTURE END LIST*
D10*
G36*
X147910000Y-126658000D02*
G01*
X145808000Y-126658000D01*
X145808000Y-125056000D01*
X147910000Y-125056000D01*
X147910000Y-126658000D01*
G37*
G36*
X142910000Y-126658000D02*
G01*
X140808000Y-126658000D01*
X140808000Y-125056000D01*
X142910000Y-125056000D01*
X142910000Y-126658000D01*
G37*
G36*
X151452400Y-122675778D02*
G01*
X151454802Y-122700164D01*
X151461915Y-122723613D01*
X151474996Y-122747460D01*
X151983422Y-123473783D01*
X151999374Y-123492384D01*
X152018648Y-123507515D01*
X152040504Y-123518595D01*
X152052400Y-123521924D01*
X152052400Y-123532922D01*
X152054802Y-123557308D01*
X152061915Y-123580757D01*
X152074996Y-123604604D01*
X152091282Y-123627869D01*
X152099353Y-123639400D01*
X152112426Y-123658075D01*
X152107953Y-123660466D01*
X152089011Y-123676011D01*
X152073466Y-123694953D01*
X152061915Y-123716564D01*
X152054802Y-123740013D01*
X152052400Y-123764399D01*
X152052400Y-125230601D01*
X152054802Y-125254987D01*
X152061915Y-125278436D01*
X152073466Y-125300047D01*
X152089011Y-125318989D01*
X152107953Y-125334534D01*
X152112850Y-125337151D01*
X152075279Y-125390376D01*
X152063178Y-125411684D01*
X152055467Y-125434943D01*
X152052400Y-125462461D01*
X152052400Y-125473835D01*
X152036643Y-125478615D01*
X152015032Y-125490166D01*
X151996090Y-125505711D01*
X151982358Y-125522014D01*
X151427826Y-126307600D01*
X150374974Y-126307600D01*
X149820442Y-125522014D01*
X149804417Y-125503477D01*
X149785083Y-125488422D01*
X149763184Y-125477428D01*
X149750400Y-125473905D01*
X149750400Y-125462461D01*
X149747998Y-125438075D01*
X149740885Y-125414626D01*
X149727521Y-125390376D01*
X149689950Y-125337151D01*
X149694847Y-125334534D01*
X149713789Y-125318989D01*
X149729334Y-125300047D01*
X149740885Y-125278436D01*
X149747998Y-125254987D01*
X149750400Y-125230601D01*
X149750400Y-123764399D01*
X149747998Y-123740013D01*
X149740885Y-123716564D01*
X149729334Y-123694953D01*
X149713789Y-123676011D01*
X149694847Y-123660466D01*
X149690374Y-123658075D01*
X149727804Y-123604604D01*
X149739821Y-123583249D01*
X149747441Y-123559960D01*
X149750400Y-123532922D01*
X149750400Y-123521956D01*
X149764810Y-123517585D01*
X149786421Y-123506034D01*
X149805363Y-123490489D01*
X149819378Y-123473783D01*
X150327804Y-122747460D01*
X150339821Y-122726105D01*
X150347441Y-122702816D01*
X150350400Y-122675778D01*
X150350400Y-120880100D01*
X151452400Y-120880100D01*
X151452400Y-122675778D01*
G37*
G36*
X176448800Y-125286400D02*
G01*
X174346800Y-125286400D01*
X174346800Y-123684400D01*
X176448800Y-123684400D01*
X176448800Y-125286400D01*
G37*
G36*
X171448800Y-125286400D02*
G01*
X169346800Y-125286400D01*
X169346800Y-123684400D01*
X171448800Y-123684400D01*
X171448800Y-125286400D01*
G37*
G36*
X179907000Y-125261000D02*
G01*
X177805000Y-125261000D01*
X177805000Y-123659000D01*
X179907000Y-123659000D01*
X179907000Y-125261000D01*
G37*
G36*
X139227000Y-125261000D02*
G01*
X137125000Y-125261000D01*
X137125000Y-123659000D01*
X139227000Y-123659000D01*
X139227000Y-125261000D01*
G37*
G36*
X168569874Y-123586465D02*
G01*
X168607567Y-123597899D01*
X168642303Y-123616466D01*
X168672748Y-123641452D01*
X168697734Y-123671897D01*
X168716301Y-123706633D01*
X168727735Y-123744326D01*
X168732200Y-123789661D01*
X168732200Y-124876339D01*
X168727735Y-124921674D01*
X168716301Y-124959367D01*
X168697734Y-124994103D01*
X168672748Y-125024548D01*
X168642303Y-125049534D01*
X168607567Y-125068101D01*
X168569874Y-125079535D01*
X168524539Y-125084000D01*
X167687861Y-125084000D01*
X167642526Y-125079535D01*
X167604833Y-125068101D01*
X167570097Y-125049534D01*
X167539652Y-125024548D01*
X167514666Y-124994103D01*
X167496099Y-124959367D01*
X167484665Y-124921674D01*
X167480200Y-124876339D01*
X167480200Y-123789661D01*
X167484665Y-123744326D01*
X167496099Y-123706633D01*
X167514666Y-123671897D01*
X167539652Y-123641452D01*
X167570097Y-123616466D01*
X167604833Y-123597899D01*
X167642526Y-123586465D01*
X167687861Y-123582000D01*
X168524539Y-123582000D01*
X168569874Y-123586465D01*
G37*
G36*
X166519874Y-123586465D02*
G01*
X166557567Y-123597899D01*
X166592303Y-123616466D01*
X166622748Y-123641452D01*
X166647734Y-123671897D01*
X166666301Y-123706633D01*
X166677735Y-123744326D01*
X166682200Y-123789661D01*
X166682200Y-124876339D01*
X166677735Y-124921674D01*
X166666301Y-124959367D01*
X166647734Y-124994103D01*
X166622748Y-125024548D01*
X166592303Y-125049534D01*
X166557567Y-125068101D01*
X166519874Y-125079535D01*
X166474539Y-125084000D01*
X165637861Y-125084000D01*
X165592526Y-125079535D01*
X165554833Y-125068101D01*
X165520097Y-125049534D01*
X165489652Y-125024548D01*
X165464666Y-124994103D01*
X165446099Y-124959367D01*
X165434665Y-124921674D01*
X165430200Y-124876339D01*
X165430200Y-123789661D01*
X165434665Y-123744326D01*
X165446099Y-123706633D01*
X165464666Y-123671897D01*
X165489652Y-123641452D01*
X165520097Y-123616466D01*
X165554833Y-123597899D01*
X165592526Y-123586465D01*
X165637861Y-123582000D01*
X166474539Y-123582000D01*
X166519874Y-123586465D01*
G37*
G36*
X155427074Y-122967465D02*
G01*
X155464767Y-122978899D01*
X155499503Y-122997466D01*
X155529948Y-123022452D01*
X155554934Y-123052897D01*
X155573501Y-123087633D01*
X155584935Y-123125326D01*
X155589400Y-123170661D01*
X155589400Y-124007339D01*
X155584935Y-124052674D01*
X155573501Y-124090367D01*
X155554934Y-124125103D01*
X155529948Y-124155548D01*
X155499503Y-124180534D01*
X155464767Y-124199101D01*
X155427074Y-124210535D01*
X155381739Y-124215000D01*
X154295061Y-124215000D01*
X154249726Y-124210535D01*
X154212033Y-124199101D01*
X154177297Y-124180534D01*
X154146852Y-124155548D01*
X154121866Y-124125103D01*
X154103299Y-124090367D01*
X154091865Y-124052674D01*
X154087400Y-124007339D01*
X154087400Y-123170661D01*
X154091865Y-123125326D01*
X154103299Y-123087633D01*
X154121866Y-123052897D01*
X154146852Y-123022452D01*
X154177297Y-122997466D01*
X154212033Y-122978899D01*
X154249726Y-122967465D01*
X154295061Y-122963000D01*
X155381739Y-122963000D01*
X155427074Y-122967465D01*
G37*
G36*
X147451474Y-122958465D02*
G01*
X147489167Y-122969899D01*
X147523903Y-122988466D01*
X147554348Y-123013452D01*
X147579334Y-123043897D01*
X147597901Y-123078633D01*
X147609335Y-123116326D01*
X147613800Y-123161661D01*
X147613800Y-123998339D01*
X147609335Y-124043674D01*
X147597901Y-124081367D01*
X147579334Y-124116103D01*
X147554348Y-124146548D01*
X147523903Y-124171534D01*
X147489167Y-124190101D01*
X147451474Y-124201535D01*
X147406139Y-124206000D01*
X146319461Y-124206000D01*
X146274126Y-124201535D01*
X146236433Y-124190101D01*
X146201697Y-124171534D01*
X146171252Y-124146548D01*
X146146266Y-124116103D01*
X146127699Y-124081367D01*
X146116265Y-124043674D01*
X146111800Y-123998339D01*
X146111800Y-123161661D01*
X146116265Y-123116326D01*
X146127699Y-123078633D01*
X146146266Y-123043897D01*
X146171252Y-123013452D01*
X146201697Y-122988466D01*
X146236433Y-122969899D01*
X146274126Y-122958465D01*
X146319461Y-122954000D01*
X147406139Y-122954000D01*
X147451474Y-122958465D01*
G37*
G36*
X142244474Y-122958465D02*
G01*
X142282167Y-122969899D01*
X142316903Y-122988466D01*
X142347348Y-123013452D01*
X142372334Y-123043897D01*
X142390901Y-123078633D01*
X142402335Y-123116326D01*
X142406800Y-123161661D01*
X142406800Y-123998339D01*
X142402335Y-124043674D01*
X142390901Y-124081367D01*
X142372334Y-124116103D01*
X142347348Y-124146548D01*
X142316903Y-124171534D01*
X142282167Y-124190101D01*
X142244474Y-124201535D01*
X142199139Y-124206000D01*
X141112461Y-124206000D01*
X141067126Y-124201535D01*
X141029433Y-124190101D01*
X140994697Y-124171534D01*
X140964252Y-124146548D01*
X140939266Y-124116103D01*
X140920699Y-124081367D01*
X140909265Y-124043674D01*
X140904800Y-123998339D01*
X140904800Y-123161661D01*
X140909265Y-123116326D01*
X140920699Y-123078633D01*
X140939266Y-123043897D01*
X140964252Y-123013452D01*
X140994697Y-122988466D01*
X141029433Y-122969899D01*
X141067126Y-122958465D01*
X141112461Y-122954000D01*
X142199139Y-122954000D01*
X142244474Y-122958465D01*
G37*
G36*
X144403474Y-122958465D02*
G01*
X144441167Y-122969899D01*
X144475903Y-122988466D01*
X144506348Y-123013452D01*
X144531334Y-123043897D01*
X144549901Y-123078633D01*
X144561335Y-123116326D01*
X144565800Y-123161661D01*
X144565800Y-123998339D01*
X144561335Y-124043674D01*
X144549901Y-124081367D01*
X144531334Y-124116103D01*
X144506348Y-124146548D01*
X144475903Y-124171534D01*
X144441167Y-124190101D01*
X144403474Y-124201535D01*
X144358139Y-124206000D01*
X143271461Y-124206000D01*
X143226126Y-124201535D01*
X143188433Y-124190101D01*
X143153697Y-124171534D01*
X143123252Y-124146548D01*
X143098266Y-124116103D01*
X143079699Y-124081367D01*
X143068265Y-124043674D01*
X143063800Y-123998339D01*
X143063800Y-123161661D01*
X143068265Y-123116326D01*
X143079699Y-123078633D01*
X143098266Y-123043897D01*
X143123252Y-123013452D01*
X143153697Y-122988466D01*
X143188433Y-122969899D01*
X143226126Y-122958465D01*
X143271461Y-122954000D01*
X144358139Y-122954000D01*
X144403474Y-122958465D01*
G37*
G36*
X163201898Y-122403362D02*
G01*
X163326741Y-122455074D01*
X163326743Y-122455075D01*
X163439099Y-122530149D01*
X163534651Y-122625701D01*
X163586178Y-122702816D01*
X163609726Y-122738059D01*
X163661438Y-122862902D01*
X163687800Y-122995434D01*
X163687800Y-123130566D01*
X163661438Y-123263098D01*
X163609726Y-123387941D01*
X163609725Y-123387943D01*
X163534651Y-123500299D01*
X163439099Y-123595851D01*
X163326743Y-123670925D01*
X163326742Y-123670926D01*
X163326741Y-123670926D01*
X163201898Y-123722638D01*
X163069366Y-123749000D01*
X162934234Y-123749000D01*
X162801702Y-123722638D01*
X162676859Y-123670926D01*
X162676858Y-123670926D01*
X162676857Y-123670925D01*
X162564501Y-123595851D01*
X162468949Y-123500299D01*
X162393875Y-123387943D01*
X162393874Y-123387941D01*
X162342162Y-123263098D01*
X162315800Y-123130566D01*
X162315800Y-122995434D01*
X162342162Y-122862902D01*
X162393874Y-122738059D01*
X162417423Y-122702816D01*
X162468949Y-122625701D01*
X162564501Y-122530149D01*
X162676857Y-122455075D01*
X162676859Y-122455074D01*
X162801702Y-122403362D01*
X162934234Y-122377000D01*
X163069366Y-122377000D01*
X163201898Y-122403362D01*
G37*
G36*
X158101898Y-122403362D02*
G01*
X158226741Y-122455074D01*
X158226743Y-122455075D01*
X158339099Y-122530149D01*
X158434651Y-122625701D01*
X158486178Y-122702816D01*
X158509726Y-122738059D01*
X158561438Y-122862902D01*
X158587800Y-122995434D01*
X158587800Y-123130566D01*
X158561438Y-123263098D01*
X158509726Y-123387941D01*
X158509725Y-123387943D01*
X158434651Y-123500299D01*
X158339099Y-123595851D01*
X158226743Y-123670925D01*
X158226742Y-123670926D01*
X158226741Y-123670926D01*
X158101898Y-123722638D01*
X157969366Y-123749000D01*
X157834234Y-123749000D01*
X157701702Y-123722638D01*
X157576859Y-123670926D01*
X157576858Y-123670926D01*
X157576857Y-123670925D01*
X157464501Y-123595851D01*
X157368949Y-123500299D01*
X157293875Y-123387943D01*
X157293874Y-123387941D01*
X157242162Y-123263098D01*
X157215800Y-123130566D01*
X157215800Y-122995434D01*
X157242162Y-122862902D01*
X157293874Y-122738059D01*
X157317423Y-122702816D01*
X157368949Y-122625701D01*
X157464501Y-122530149D01*
X157576857Y-122455075D01*
X157576859Y-122455074D01*
X157701702Y-122403362D01*
X157834234Y-122377000D01*
X157969366Y-122377000D01*
X158101898Y-122403362D01*
G37*
G36*
X168569874Y-121325865D02*
G01*
X168607567Y-121337299D01*
X168642303Y-121355866D01*
X168672748Y-121380852D01*
X168697734Y-121411297D01*
X168716301Y-121446033D01*
X168727735Y-121483726D01*
X168732200Y-121529061D01*
X168732200Y-122615739D01*
X168727735Y-122661074D01*
X168716301Y-122698767D01*
X168697734Y-122733503D01*
X168672748Y-122763948D01*
X168642303Y-122788934D01*
X168607567Y-122807501D01*
X168569874Y-122818935D01*
X168524539Y-122823400D01*
X167687861Y-122823400D01*
X167642526Y-122818935D01*
X167604833Y-122807501D01*
X167570097Y-122788934D01*
X167539652Y-122763948D01*
X167514666Y-122733503D01*
X167496099Y-122698767D01*
X167484665Y-122661074D01*
X167480200Y-122615739D01*
X167480200Y-121529061D01*
X167484665Y-121483726D01*
X167496099Y-121446033D01*
X167514666Y-121411297D01*
X167539652Y-121380852D01*
X167570097Y-121355866D01*
X167604833Y-121337299D01*
X167642526Y-121325865D01*
X167687861Y-121321400D01*
X168524539Y-121321400D01*
X168569874Y-121325865D01*
G37*
G36*
X166519874Y-121325865D02*
G01*
X166557567Y-121337299D01*
X166592303Y-121355866D01*
X166622748Y-121380852D01*
X166647734Y-121411297D01*
X166666301Y-121446033D01*
X166677735Y-121483726D01*
X166682200Y-121529061D01*
X166682200Y-122615739D01*
X166677735Y-122661074D01*
X166666301Y-122698767D01*
X166647734Y-122733503D01*
X166622748Y-122763948D01*
X166592303Y-122788934D01*
X166557567Y-122807501D01*
X166519874Y-122818935D01*
X166474539Y-122823400D01*
X165637861Y-122823400D01*
X165592526Y-122818935D01*
X165554833Y-122807501D01*
X165520097Y-122788934D01*
X165489652Y-122763948D01*
X165464666Y-122733503D01*
X165446099Y-122698767D01*
X165434665Y-122661074D01*
X165430200Y-122615739D01*
X165430200Y-121529061D01*
X165434665Y-121483726D01*
X165446099Y-121446033D01*
X165464666Y-121411297D01*
X165489652Y-121380852D01*
X165520097Y-121355866D01*
X165554833Y-121337299D01*
X165592526Y-121325865D01*
X165637861Y-121321400D01*
X166474539Y-121321400D01*
X166519874Y-121325865D01*
G37*
G36*
X139227000Y-122721000D02*
G01*
X137125000Y-122721000D01*
X137125000Y-121119000D01*
X139227000Y-121119000D01*
X139227000Y-122721000D01*
G37*
G36*
X179867000Y-122721000D02*
G01*
X177765000Y-122721000D01*
X177765000Y-121119000D01*
X179867000Y-121119000D01*
X179867000Y-122721000D01*
G37*
G36*
X152952400Y-122485600D02*
G01*
X151850400Y-122485600D01*
X151850400Y-120883600D01*
X152952400Y-120883600D01*
X152952400Y-122485600D01*
G37*
G36*
X149952400Y-122485600D02*
G01*
X148850400Y-122485600D01*
X148850400Y-120883600D01*
X149952400Y-120883600D01*
X149952400Y-122485600D01*
G37*
G36*
X175787628Y-120796903D02*
G01*
X175942500Y-120861053D01*
X176081881Y-120954185D01*
X176200415Y-121072719D01*
X176293547Y-121212100D01*
X176357697Y-121366972D01*
X176390400Y-121531384D01*
X176390400Y-121699016D01*
X176357697Y-121863428D01*
X176293547Y-122018300D01*
X176200415Y-122157681D01*
X176081881Y-122276215D01*
X175942500Y-122369347D01*
X175787628Y-122433497D01*
X175623216Y-122466200D01*
X175455584Y-122466200D01*
X175291172Y-122433497D01*
X175136300Y-122369347D01*
X174996919Y-122276215D01*
X174878385Y-122157681D01*
X174785253Y-122018300D01*
X174721103Y-121863428D01*
X174688400Y-121699016D01*
X174688400Y-121531384D01*
X174721103Y-121366972D01*
X174785253Y-121212100D01*
X174878385Y-121072719D01*
X174996919Y-120954185D01*
X175136300Y-120861053D01*
X175291172Y-120796903D01*
X175455584Y-120764200D01*
X175623216Y-120764200D01*
X175787628Y-120796903D01*
G37*
G36*
X171310400Y-122466200D02*
G01*
X169608400Y-122466200D01*
X169608400Y-120764200D01*
X171310400Y-120764200D01*
X171310400Y-122466200D01*
G37*
G36*
X155427074Y-120917465D02*
G01*
X155464767Y-120928899D01*
X155499503Y-120947466D01*
X155529948Y-120972452D01*
X155554934Y-121002897D01*
X155573501Y-121037633D01*
X155584935Y-121075326D01*
X155589400Y-121120661D01*
X155589400Y-121957339D01*
X155584935Y-122002674D01*
X155573501Y-122040367D01*
X155554934Y-122075103D01*
X155529948Y-122105548D01*
X155499503Y-122130534D01*
X155464767Y-122149101D01*
X155427074Y-122160535D01*
X155381739Y-122165000D01*
X154295061Y-122165000D01*
X154249726Y-122160535D01*
X154212033Y-122149101D01*
X154177297Y-122130534D01*
X154146852Y-122105548D01*
X154121866Y-122075103D01*
X154103299Y-122040367D01*
X154091865Y-122002674D01*
X154087400Y-121957339D01*
X154087400Y-121120661D01*
X154091865Y-121075326D01*
X154103299Y-121037633D01*
X154121866Y-121002897D01*
X154146852Y-120972452D01*
X154177297Y-120947466D01*
X154212033Y-120928899D01*
X154249726Y-120917465D01*
X154295061Y-120913000D01*
X155381739Y-120913000D01*
X155427074Y-120917465D01*
G37*
G36*
X142244474Y-120908465D02*
G01*
X142282167Y-120919899D01*
X142316903Y-120938466D01*
X142347348Y-120963452D01*
X142372334Y-120993897D01*
X142390901Y-121028633D01*
X142402335Y-121066326D01*
X142406800Y-121111661D01*
X142406800Y-121948339D01*
X142402335Y-121993674D01*
X142390901Y-122031367D01*
X142372334Y-122066103D01*
X142347348Y-122096548D01*
X142316903Y-122121534D01*
X142282167Y-122140101D01*
X142244474Y-122151535D01*
X142199139Y-122156000D01*
X141112461Y-122156000D01*
X141067126Y-122151535D01*
X141029433Y-122140101D01*
X140994697Y-122121534D01*
X140964252Y-122096548D01*
X140939266Y-122066103D01*
X140920699Y-122031367D01*
X140909265Y-121993674D01*
X140904800Y-121948339D01*
X140904800Y-121111661D01*
X140909265Y-121066326D01*
X140920699Y-121028633D01*
X140939266Y-120993897D01*
X140964252Y-120963452D01*
X140994697Y-120938466D01*
X141029433Y-120919899D01*
X141067126Y-120908465D01*
X141112461Y-120904000D01*
X142199139Y-120904000D01*
X142244474Y-120908465D01*
G37*
G36*
X144403474Y-120908465D02*
G01*
X144441167Y-120919899D01*
X144475903Y-120938466D01*
X144506348Y-120963452D01*
X144531334Y-120993897D01*
X144549901Y-121028633D01*
X144561335Y-121066326D01*
X144565800Y-121111661D01*
X144565800Y-121948339D01*
X144561335Y-121993674D01*
X144549901Y-122031367D01*
X144531334Y-122066103D01*
X144506348Y-122096548D01*
X144475903Y-122121534D01*
X144441167Y-122140101D01*
X144403474Y-122151535D01*
X144358139Y-122156000D01*
X143271461Y-122156000D01*
X143226126Y-122151535D01*
X143188433Y-122140101D01*
X143153697Y-122121534D01*
X143123252Y-122096548D01*
X143098266Y-122066103D01*
X143079699Y-122031367D01*
X143068265Y-121993674D01*
X143063800Y-121948339D01*
X143063800Y-121111661D01*
X143068265Y-121066326D01*
X143079699Y-121028633D01*
X143098266Y-120993897D01*
X143123252Y-120963452D01*
X143153697Y-120938466D01*
X143188433Y-120919899D01*
X143226126Y-120908465D01*
X143271461Y-120904000D01*
X144358139Y-120904000D01*
X144403474Y-120908465D01*
G37*
G36*
X147451474Y-120908465D02*
G01*
X147489167Y-120919899D01*
X147523903Y-120938466D01*
X147554348Y-120963452D01*
X147579334Y-120993897D01*
X147597901Y-121028633D01*
X147609335Y-121066326D01*
X147613800Y-121111661D01*
X147613800Y-121948339D01*
X147609335Y-121993674D01*
X147597901Y-122031367D01*
X147579334Y-122066103D01*
X147554348Y-122096548D01*
X147523903Y-122121534D01*
X147489167Y-122140101D01*
X147451474Y-122151535D01*
X147406139Y-122156000D01*
X146319461Y-122156000D01*
X146274126Y-122151535D01*
X146236433Y-122140101D01*
X146201697Y-122121534D01*
X146171252Y-122096548D01*
X146146266Y-122066103D01*
X146127699Y-122031367D01*
X146116265Y-121993674D01*
X146111800Y-121948339D01*
X146111800Y-121111661D01*
X146116265Y-121066326D01*
X146127699Y-121028633D01*
X146146266Y-120993897D01*
X146171252Y-120963452D01*
X146201697Y-120938466D01*
X146236433Y-120919899D01*
X146274126Y-120908465D01*
X146319461Y-120904000D01*
X147406139Y-120904000D01*
X147451474Y-120908465D01*
G37*
G36*
X179867000Y-120181000D02*
G01*
X177765000Y-120181000D01*
X177765000Y-118579000D01*
X179867000Y-118579000D01*
X179867000Y-120181000D01*
G37*
G36*
X139227000Y-120181000D02*
G01*
X137125000Y-120181000D01*
X137125000Y-118579000D01*
X139227000Y-118579000D01*
X139227000Y-120181000D01*
G37*
G36*
X161837468Y-117696065D02*
G01*
X161876138Y-117707796D01*
X161911777Y-117726846D01*
X161943017Y-117752483D01*
X161968654Y-117783723D01*
X161987704Y-117819362D01*
X161999435Y-117858032D01*
X162004000Y-117904388D01*
X162004000Y-118980612D01*
X161999435Y-119026968D01*
X161987704Y-119065638D01*
X161968654Y-119101277D01*
X161943017Y-119132517D01*
X161911777Y-119158154D01*
X161876138Y-119177204D01*
X161837468Y-119188935D01*
X161791112Y-119193500D01*
X161139888Y-119193500D01*
X161093532Y-119188935D01*
X161054862Y-119177204D01*
X161019223Y-119158154D01*
X160987983Y-119132517D01*
X160962346Y-119101277D01*
X160943296Y-119065638D01*
X160931565Y-119026968D01*
X160927000Y-118980612D01*
X160927000Y-117904388D01*
X160931565Y-117858032D01*
X160943296Y-117819362D01*
X160962346Y-117783723D01*
X160987983Y-117752483D01*
X161019223Y-117726846D01*
X161054862Y-117707796D01*
X161093532Y-117696065D01*
X161139888Y-117691500D01*
X161791112Y-117691500D01*
X161837468Y-117696065D01*
G37*
G36*
X159962468Y-117696065D02*
G01*
X160001138Y-117707796D01*
X160036777Y-117726846D01*
X160068017Y-117752483D01*
X160093654Y-117783723D01*
X160112704Y-117819362D01*
X160124435Y-117858032D01*
X160129000Y-117904388D01*
X160129000Y-118980612D01*
X160124435Y-119026968D01*
X160112704Y-119065638D01*
X160093654Y-119101277D01*
X160068017Y-119132517D01*
X160036777Y-119158154D01*
X160001138Y-119177204D01*
X159962468Y-119188935D01*
X159916112Y-119193500D01*
X159264888Y-119193500D01*
X159218532Y-119188935D01*
X159179862Y-119177204D01*
X159144223Y-119158154D01*
X159112983Y-119132517D01*
X159087346Y-119101277D01*
X159068296Y-119065638D01*
X159056565Y-119026968D01*
X159052000Y-118980612D01*
X159052000Y-117904388D01*
X159056565Y-117858032D01*
X159068296Y-117819362D01*
X159087346Y-117783723D01*
X159112983Y-117752483D01*
X159144223Y-117726846D01*
X159179862Y-117707796D01*
X159218532Y-117696065D01*
X159264888Y-117691500D01*
X159916112Y-117691500D01*
X159962468Y-117696065D01*
G37*
G36*
X154960968Y-117617565D02*
G01*
X154999638Y-117629296D01*
X155035277Y-117648346D01*
X155066517Y-117673983D01*
X155092154Y-117705223D01*
X155111204Y-117740862D01*
X155122935Y-117779532D01*
X155127500Y-117825888D01*
X155127500Y-118902112D01*
X155122935Y-118948468D01*
X155111204Y-118987138D01*
X155092154Y-119022777D01*
X155066517Y-119054017D01*
X155035277Y-119079654D01*
X154999638Y-119098704D01*
X154960968Y-119110435D01*
X154914612Y-119115000D01*
X154263388Y-119115000D01*
X154217032Y-119110435D01*
X154178362Y-119098704D01*
X154142723Y-119079654D01*
X154111483Y-119054017D01*
X154085846Y-119022777D01*
X154066796Y-118987138D01*
X154055065Y-118948468D01*
X154050500Y-118902112D01*
X154050500Y-117825888D01*
X154055065Y-117779532D01*
X154066796Y-117740862D01*
X154085846Y-117705223D01*
X154111483Y-117673983D01*
X154142723Y-117648346D01*
X154178362Y-117629296D01*
X154217032Y-117617565D01*
X154263388Y-117613000D01*
X154914612Y-117613000D01*
X154960968Y-117617565D01*
G37*
G36*
X166995968Y-117617565D02*
G01*
X167034638Y-117629296D01*
X167070277Y-117648346D01*
X167101517Y-117673983D01*
X167127154Y-117705223D01*
X167146204Y-117740862D01*
X167157935Y-117779532D01*
X167162500Y-117825888D01*
X167162500Y-118902112D01*
X167157935Y-118948468D01*
X167146204Y-118987138D01*
X167127154Y-119022777D01*
X167101517Y-119054017D01*
X167070277Y-119079654D01*
X167034638Y-119098704D01*
X166995968Y-119110435D01*
X166949612Y-119115000D01*
X166298388Y-119115000D01*
X166252032Y-119110435D01*
X166213362Y-119098704D01*
X166177723Y-119079654D01*
X166146483Y-119054017D01*
X166120846Y-119022777D01*
X166101796Y-118987138D01*
X166090065Y-118948468D01*
X166085500Y-118902112D01*
X166085500Y-117825888D01*
X166090065Y-117779532D01*
X166101796Y-117740862D01*
X166120846Y-117705223D01*
X166146483Y-117673983D01*
X166177723Y-117648346D01*
X166213362Y-117629296D01*
X166252032Y-117617565D01*
X166298388Y-117613000D01*
X166949612Y-117613000D01*
X166995968Y-117617565D01*
G37*
G36*
X165120968Y-117617565D02*
G01*
X165159638Y-117629296D01*
X165195277Y-117648346D01*
X165226517Y-117673983D01*
X165252154Y-117705223D01*
X165271204Y-117740862D01*
X165282935Y-117779532D01*
X165287500Y-117825888D01*
X165287500Y-118902112D01*
X165282935Y-118948468D01*
X165271204Y-118987138D01*
X165252154Y-119022777D01*
X165226517Y-119054017D01*
X165195277Y-119079654D01*
X165159638Y-119098704D01*
X165120968Y-119110435D01*
X165074612Y-119115000D01*
X164423388Y-119115000D01*
X164377032Y-119110435D01*
X164338362Y-119098704D01*
X164302723Y-119079654D01*
X164271483Y-119054017D01*
X164245846Y-119022777D01*
X164226796Y-118987138D01*
X164215065Y-118948468D01*
X164210500Y-118902112D01*
X164210500Y-117825888D01*
X164215065Y-117779532D01*
X164226796Y-117740862D01*
X164245846Y-117705223D01*
X164271483Y-117673983D01*
X164302723Y-117648346D01*
X164338362Y-117629296D01*
X164377032Y-117617565D01*
X164423388Y-117613000D01*
X165074612Y-117613000D01*
X165120968Y-117617565D01*
G37*
G36*
X156835968Y-117617565D02*
G01*
X156874638Y-117629296D01*
X156910277Y-117648346D01*
X156941517Y-117673983D01*
X156967154Y-117705223D01*
X156986204Y-117740862D01*
X156997935Y-117779532D01*
X157002500Y-117825888D01*
X157002500Y-118902112D01*
X156997935Y-118948468D01*
X156986204Y-118987138D01*
X156967154Y-119022777D01*
X156941517Y-119054017D01*
X156910277Y-119079654D01*
X156874638Y-119098704D01*
X156835968Y-119110435D01*
X156789612Y-119115000D01*
X156138388Y-119115000D01*
X156092032Y-119110435D01*
X156053362Y-119098704D01*
X156017723Y-119079654D01*
X155986483Y-119054017D01*
X155960846Y-119022777D01*
X155941796Y-118987138D01*
X155930065Y-118948468D01*
X155925500Y-118902112D01*
X155925500Y-117825888D01*
X155930065Y-117779532D01*
X155941796Y-117740862D01*
X155960846Y-117705223D01*
X155986483Y-117673983D01*
X156017723Y-117648346D01*
X156053362Y-117629296D01*
X156092032Y-117617565D01*
X156138388Y-117613000D01*
X156789612Y-117613000D01*
X156835968Y-117617565D01*
G37*
G36*
X179867000Y-117641000D02*
G01*
X177765000Y-117641000D01*
X177765000Y-116039000D01*
X179867000Y-116039000D01*
X179867000Y-117641000D01*
G37*
G36*
X139227000Y-117641000D02*
G01*
X137125000Y-117641000D01*
X137125000Y-116039000D01*
X139227000Y-116039000D01*
X139227000Y-117641000D01*
G37*
M02*
