G04 #@! TF.GenerationSoftware,KiCad,Pcbnew,(5.1.5)-3*
G04 #@! TF.CreationDate,2020-03-07T18:51:17-06:00*
G04 #@! TF.ProjectId,LinearRegulator15to5,4c696e65-6172-4526-9567-756c61746f72,rev?*
G04 #@! TF.SameCoordinates,Original*
G04 #@! TF.FileFunction,Copper,L2,Bot*
G04 #@! TF.FilePolarity,Positive*
%FSLAX46Y46*%
G04 Gerber Fmt 4.6, Leading zero omitted, Abs format (unit mm)*
G04 Created by KiCad (PCBNEW (5.1.5)-3) date 2020-03-07 18:51:17*
%MOMM*%
%LPD*%
G04 APERTURE LIST*
%ADD10R,2.000000X1.500000*%
%ADD11C,1.270000*%
%ADD12R,1.600000X1.600000*%
%ADD13O,1.600000X1.600000*%
%ADD14C,0.800000*%
%ADD15C,0.500000*%
%ADD16C,0.250000*%
%ADD17C,0.254000*%
G04 APERTURE END LIST*
D10*
X178816000Y-124460000D03*
X178816000Y-119380000D03*
X178816000Y-116840000D03*
X178816000Y-121920000D03*
D11*
X163001800Y-123063000D03*
X157901800Y-123063000D03*
D12*
X170459400Y-121615200D03*
D13*
X175539400Y-121615200D03*
D14*
X138176000Y-124460000D03*
X145288000Y-121412000D03*
X177038000Y-118110000D03*
X154589000Y-118364000D03*
X177038000Y-116840000D03*
X159590500Y-118442500D03*
X177038000Y-119380000D03*
X164749000Y-118364000D03*
X177038000Y-121920000D03*
D15*
X138176000Y-124460000D02*
X142240000Y-124460000D01*
X142240000Y-124460000D02*
X145288000Y-121412000D01*
X178816000Y-121920000D02*
X178816000Y-116840000D01*
X178816000Y-124460000D02*
X178816000Y-121920000D01*
X178816000Y-116840000D02*
X178308000Y-116840000D01*
X178308000Y-116840000D02*
X177038000Y-118110000D01*
D16*
X155605000Y-117318000D02*
X156083000Y-116840000D01*
X154589000Y-118364000D02*
X155605000Y-117348000D01*
X155605000Y-117348000D02*
X155605000Y-117318000D01*
X156083000Y-116840000D02*
X176784000Y-116840000D01*
X176784000Y-116840000D02*
X177038000Y-116840000D01*
X159590500Y-118442500D02*
X160394001Y-117638999D01*
X177038000Y-119380000D02*
X175260000Y-117602000D01*
X160431000Y-117602000D02*
X160394001Y-117638999D01*
X175260000Y-117602000D02*
X160431000Y-117602000D01*
X177038000Y-121448798D02*
X177038000Y-121920000D01*
X164749000Y-118364000D02*
X173953202Y-118364000D01*
X173953202Y-118364000D02*
X177038000Y-121448798D01*
D17*
G36*
X177364815Y-115638815D02*
G01*
X177285463Y-115735506D01*
X177237902Y-115824486D01*
X177139939Y-115805000D01*
X176936061Y-115805000D01*
X176736102Y-115844774D01*
X176547744Y-115922795D01*
X176378226Y-116036063D01*
X176334289Y-116080000D01*
X156120322Y-116080000D01*
X156082999Y-116076324D01*
X156045676Y-116080000D01*
X156045667Y-116080000D01*
X155934014Y-116090997D01*
X155811515Y-116128156D01*
X155790753Y-116134454D01*
X155658723Y-116205026D01*
X155645816Y-116215619D01*
X155542999Y-116299999D01*
X155519196Y-116329003D01*
X155094002Y-116754197D01*
X155064999Y-116777999D01*
X154970026Y-116893724D01*
X154953435Y-116924763D01*
X154549199Y-117329000D01*
X154487061Y-117329000D01*
X154287102Y-117368774D01*
X154098744Y-117446795D01*
X153929226Y-117560063D01*
X153785063Y-117704226D01*
X153671795Y-117873744D01*
X153593774Y-118062102D01*
X153554000Y-118262061D01*
X153554000Y-118465939D01*
X153593774Y-118665898D01*
X153671795Y-118854256D01*
X153785063Y-119023774D01*
X153929226Y-119167937D01*
X154098744Y-119281205D01*
X154287102Y-119359226D01*
X154487061Y-119399000D01*
X154690939Y-119399000D01*
X154890898Y-119359226D01*
X155079256Y-119281205D01*
X155248774Y-119167937D01*
X155392937Y-119023774D01*
X155506205Y-118854256D01*
X155584226Y-118665898D01*
X155624000Y-118465939D01*
X155624000Y-118403801D01*
X156116004Y-117911798D01*
X156145001Y-117888001D01*
X156173727Y-117852998D01*
X156239974Y-117772277D01*
X156256567Y-117741234D01*
X156397801Y-117600000D01*
X158988440Y-117600000D01*
X158930726Y-117638563D01*
X158786563Y-117782726D01*
X158673295Y-117952244D01*
X158595274Y-118140602D01*
X158555500Y-118340561D01*
X158555500Y-118544439D01*
X158595274Y-118744398D01*
X158673295Y-118932756D01*
X158786563Y-119102274D01*
X158930726Y-119246437D01*
X159100244Y-119359705D01*
X159288602Y-119437726D01*
X159488561Y-119477500D01*
X159692439Y-119477500D01*
X159892398Y-119437726D01*
X160080756Y-119359705D01*
X160250274Y-119246437D01*
X160394437Y-119102274D01*
X160507705Y-118932756D01*
X160585726Y-118744398D01*
X160625500Y-118544439D01*
X160625500Y-118482302D01*
X160745802Y-118362000D01*
X163714000Y-118362000D01*
X163714000Y-118465939D01*
X163753774Y-118665898D01*
X163831795Y-118854256D01*
X163945063Y-119023774D01*
X164089226Y-119167937D01*
X164258744Y-119281205D01*
X164447102Y-119359226D01*
X164647061Y-119399000D01*
X164850939Y-119399000D01*
X165050898Y-119359226D01*
X165239256Y-119281205D01*
X165408774Y-119167937D01*
X165452711Y-119124000D01*
X173638401Y-119124000D01*
X174858622Y-120344222D01*
X174624641Y-120500563D01*
X174424763Y-120700441D01*
X174267720Y-120935473D01*
X174159547Y-121196626D01*
X174104400Y-121473865D01*
X174104400Y-121756535D01*
X174159547Y-122033774D01*
X174267720Y-122294927D01*
X174424763Y-122529959D01*
X174624641Y-122729837D01*
X174859673Y-122886880D01*
X175120826Y-122995053D01*
X175398065Y-123050200D01*
X175680735Y-123050200D01*
X175957974Y-122995053D01*
X176219127Y-122886880D01*
X176420608Y-122752255D01*
X176547744Y-122837205D01*
X176736102Y-122915226D01*
X176936061Y-122955000D01*
X177139939Y-122955000D01*
X177237902Y-122935514D01*
X177285463Y-123024494D01*
X177364815Y-123121185D01*
X177448667Y-123190000D01*
X177364815Y-123258815D01*
X177285463Y-123355506D01*
X177226498Y-123465820D01*
X177190188Y-123585518D01*
X177177928Y-123710000D01*
X177177928Y-125210000D01*
X177190188Y-125334482D01*
X177226498Y-125454180D01*
X177285463Y-125564494D01*
X177364815Y-125661185D01*
X177461506Y-125740537D01*
X177571820Y-125799502D01*
X177691518Y-125835812D01*
X177816000Y-125848072D01*
X179816000Y-125848072D01*
X179940482Y-125835812D01*
X180060180Y-125799502D01*
X180109052Y-125773379D01*
X180104350Y-125782222D01*
X180034646Y-125867687D01*
X179101132Y-126334445D01*
X179048276Y-126340000D01*
X137827277Y-126340000D01*
X137553795Y-126313185D01*
X137321774Y-126243133D01*
X137107778Y-126129350D01*
X136919961Y-125976169D01*
X136765471Y-125789424D01*
X136650198Y-125576231D01*
X136578528Y-125344701D01*
X136550000Y-125073276D01*
X136550000Y-124358061D01*
X137141000Y-124358061D01*
X137141000Y-124561939D01*
X137180774Y-124761898D01*
X137258795Y-124950256D01*
X137372063Y-125119774D01*
X137516226Y-125263937D01*
X137685744Y-125377205D01*
X137874102Y-125455226D01*
X138074061Y-125495000D01*
X138277939Y-125495000D01*
X138477898Y-125455226D01*
X138666256Y-125377205D01*
X138714454Y-125345000D01*
X142196531Y-125345000D01*
X142240000Y-125349281D01*
X142283469Y-125345000D01*
X142283477Y-125345000D01*
X142413490Y-125332195D01*
X142580313Y-125281589D01*
X142734059Y-125199411D01*
X142868817Y-125088817D01*
X142896534Y-125055044D01*
X145013662Y-122937916D01*
X156631800Y-122937916D01*
X156631800Y-123188084D01*
X156680605Y-123433445D01*
X156776341Y-123664571D01*
X156915327Y-123872578D01*
X157092222Y-124049473D01*
X157300229Y-124188459D01*
X157531355Y-124284195D01*
X157776716Y-124333000D01*
X158026884Y-124333000D01*
X158272245Y-124284195D01*
X158503371Y-124188459D01*
X158711378Y-124049473D01*
X158888273Y-123872578D01*
X159027259Y-123664571D01*
X159122995Y-123433445D01*
X159171800Y-123188084D01*
X159171800Y-122937916D01*
X161731800Y-122937916D01*
X161731800Y-123188084D01*
X161780605Y-123433445D01*
X161876341Y-123664571D01*
X162015327Y-123872578D01*
X162192222Y-124049473D01*
X162400229Y-124188459D01*
X162631355Y-124284195D01*
X162876716Y-124333000D01*
X163126884Y-124333000D01*
X163372245Y-124284195D01*
X163603371Y-124188459D01*
X163811378Y-124049473D01*
X163988273Y-123872578D01*
X164127259Y-123664571D01*
X164222995Y-123433445D01*
X164271800Y-123188084D01*
X164271800Y-122937916D01*
X164222995Y-122692555D01*
X164127259Y-122461429D01*
X163988273Y-122253422D01*
X163811378Y-122076527D01*
X163603371Y-121937541D01*
X163372245Y-121841805D01*
X163126884Y-121793000D01*
X162876716Y-121793000D01*
X162631355Y-121841805D01*
X162400229Y-121937541D01*
X162192222Y-122076527D01*
X162015327Y-122253422D01*
X161876341Y-122461429D01*
X161780605Y-122692555D01*
X161731800Y-122937916D01*
X159171800Y-122937916D01*
X159122995Y-122692555D01*
X159027259Y-122461429D01*
X158888273Y-122253422D01*
X158711378Y-122076527D01*
X158503371Y-121937541D01*
X158272245Y-121841805D01*
X158026884Y-121793000D01*
X157776716Y-121793000D01*
X157531355Y-121841805D01*
X157300229Y-121937541D01*
X157092222Y-122076527D01*
X156915327Y-122253422D01*
X156776341Y-122461429D01*
X156680605Y-122692555D01*
X156631800Y-122937916D01*
X145013662Y-122937916D01*
X145533044Y-122418535D01*
X145589898Y-122407226D01*
X145778256Y-122329205D01*
X145947774Y-122215937D01*
X146091937Y-122071774D01*
X146205205Y-121902256D01*
X146283226Y-121713898D01*
X146323000Y-121513939D01*
X146323000Y-121310061D01*
X146283226Y-121110102D01*
X146205205Y-120921744D01*
X146134015Y-120815200D01*
X169021328Y-120815200D01*
X169021328Y-122415200D01*
X169033588Y-122539682D01*
X169069898Y-122659380D01*
X169128863Y-122769694D01*
X169208215Y-122866385D01*
X169304906Y-122945737D01*
X169415220Y-123004702D01*
X169534918Y-123041012D01*
X169659400Y-123053272D01*
X171259400Y-123053272D01*
X171383882Y-123041012D01*
X171503580Y-123004702D01*
X171613894Y-122945737D01*
X171710585Y-122866385D01*
X171789937Y-122769694D01*
X171848902Y-122659380D01*
X171885212Y-122539682D01*
X171897472Y-122415200D01*
X171897472Y-120815200D01*
X171885212Y-120690718D01*
X171848902Y-120571020D01*
X171789937Y-120460706D01*
X171710585Y-120364015D01*
X171613894Y-120284663D01*
X171503580Y-120225698D01*
X171383882Y-120189388D01*
X171259400Y-120177128D01*
X169659400Y-120177128D01*
X169534918Y-120189388D01*
X169415220Y-120225698D01*
X169304906Y-120284663D01*
X169208215Y-120364015D01*
X169128863Y-120460706D01*
X169069898Y-120571020D01*
X169033588Y-120690718D01*
X169021328Y-120815200D01*
X146134015Y-120815200D01*
X146091937Y-120752226D01*
X145947774Y-120608063D01*
X145778256Y-120494795D01*
X145589898Y-120416774D01*
X145389939Y-120377000D01*
X145186061Y-120377000D01*
X144986102Y-120416774D01*
X144797744Y-120494795D01*
X144628226Y-120608063D01*
X144484063Y-120752226D01*
X144370795Y-120921744D01*
X144292774Y-121110102D01*
X144281465Y-121166956D01*
X141873422Y-123575000D01*
X138714454Y-123575000D01*
X138666256Y-123542795D01*
X138477898Y-123464774D01*
X138277939Y-123425000D01*
X138074061Y-123425000D01*
X137874102Y-123464774D01*
X137685744Y-123542795D01*
X137516226Y-123656063D01*
X137372063Y-123800226D01*
X137258795Y-123969744D01*
X137180774Y-124158102D01*
X137141000Y-124358061D01*
X136550000Y-124358061D01*
X136550000Y-116872277D01*
X136576815Y-116598796D01*
X136646867Y-116366774D01*
X136760650Y-116152778D01*
X136913832Y-115964959D01*
X137100577Y-115810470D01*
X137313769Y-115695199D01*
X137545300Y-115623528D01*
X137816725Y-115595000D01*
X177418204Y-115595000D01*
X177364815Y-115638815D01*
G37*
X177364815Y-115638815D02*
X177285463Y-115735506D01*
X177237902Y-115824486D01*
X177139939Y-115805000D01*
X176936061Y-115805000D01*
X176736102Y-115844774D01*
X176547744Y-115922795D01*
X176378226Y-116036063D01*
X176334289Y-116080000D01*
X156120322Y-116080000D01*
X156082999Y-116076324D01*
X156045676Y-116080000D01*
X156045667Y-116080000D01*
X155934014Y-116090997D01*
X155811515Y-116128156D01*
X155790753Y-116134454D01*
X155658723Y-116205026D01*
X155645816Y-116215619D01*
X155542999Y-116299999D01*
X155519196Y-116329003D01*
X155094002Y-116754197D01*
X155064999Y-116777999D01*
X154970026Y-116893724D01*
X154953435Y-116924763D01*
X154549199Y-117329000D01*
X154487061Y-117329000D01*
X154287102Y-117368774D01*
X154098744Y-117446795D01*
X153929226Y-117560063D01*
X153785063Y-117704226D01*
X153671795Y-117873744D01*
X153593774Y-118062102D01*
X153554000Y-118262061D01*
X153554000Y-118465939D01*
X153593774Y-118665898D01*
X153671795Y-118854256D01*
X153785063Y-119023774D01*
X153929226Y-119167937D01*
X154098744Y-119281205D01*
X154287102Y-119359226D01*
X154487061Y-119399000D01*
X154690939Y-119399000D01*
X154890898Y-119359226D01*
X155079256Y-119281205D01*
X155248774Y-119167937D01*
X155392937Y-119023774D01*
X155506205Y-118854256D01*
X155584226Y-118665898D01*
X155624000Y-118465939D01*
X155624000Y-118403801D01*
X156116004Y-117911798D01*
X156145001Y-117888001D01*
X156173727Y-117852998D01*
X156239974Y-117772277D01*
X156256567Y-117741234D01*
X156397801Y-117600000D01*
X158988440Y-117600000D01*
X158930726Y-117638563D01*
X158786563Y-117782726D01*
X158673295Y-117952244D01*
X158595274Y-118140602D01*
X158555500Y-118340561D01*
X158555500Y-118544439D01*
X158595274Y-118744398D01*
X158673295Y-118932756D01*
X158786563Y-119102274D01*
X158930726Y-119246437D01*
X159100244Y-119359705D01*
X159288602Y-119437726D01*
X159488561Y-119477500D01*
X159692439Y-119477500D01*
X159892398Y-119437726D01*
X160080756Y-119359705D01*
X160250274Y-119246437D01*
X160394437Y-119102274D01*
X160507705Y-118932756D01*
X160585726Y-118744398D01*
X160625500Y-118544439D01*
X160625500Y-118482302D01*
X160745802Y-118362000D01*
X163714000Y-118362000D01*
X163714000Y-118465939D01*
X163753774Y-118665898D01*
X163831795Y-118854256D01*
X163945063Y-119023774D01*
X164089226Y-119167937D01*
X164258744Y-119281205D01*
X164447102Y-119359226D01*
X164647061Y-119399000D01*
X164850939Y-119399000D01*
X165050898Y-119359226D01*
X165239256Y-119281205D01*
X165408774Y-119167937D01*
X165452711Y-119124000D01*
X173638401Y-119124000D01*
X174858622Y-120344222D01*
X174624641Y-120500563D01*
X174424763Y-120700441D01*
X174267720Y-120935473D01*
X174159547Y-121196626D01*
X174104400Y-121473865D01*
X174104400Y-121756535D01*
X174159547Y-122033774D01*
X174267720Y-122294927D01*
X174424763Y-122529959D01*
X174624641Y-122729837D01*
X174859673Y-122886880D01*
X175120826Y-122995053D01*
X175398065Y-123050200D01*
X175680735Y-123050200D01*
X175957974Y-122995053D01*
X176219127Y-122886880D01*
X176420608Y-122752255D01*
X176547744Y-122837205D01*
X176736102Y-122915226D01*
X176936061Y-122955000D01*
X177139939Y-122955000D01*
X177237902Y-122935514D01*
X177285463Y-123024494D01*
X177364815Y-123121185D01*
X177448667Y-123190000D01*
X177364815Y-123258815D01*
X177285463Y-123355506D01*
X177226498Y-123465820D01*
X177190188Y-123585518D01*
X177177928Y-123710000D01*
X177177928Y-125210000D01*
X177190188Y-125334482D01*
X177226498Y-125454180D01*
X177285463Y-125564494D01*
X177364815Y-125661185D01*
X177461506Y-125740537D01*
X177571820Y-125799502D01*
X177691518Y-125835812D01*
X177816000Y-125848072D01*
X179816000Y-125848072D01*
X179940482Y-125835812D01*
X180060180Y-125799502D01*
X180109052Y-125773379D01*
X180104350Y-125782222D01*
X180034646Y-125867687D01*
X179101132Y-126334445D01*
X179048276Y-126340000D01*
X137827277Y-126340000D01*
X137553795Y-126313185D01*
X137321774Y-126243133D01*
X137107778Y-126129350D01*
X136919961Y-125976169D01*
X136765471Y-125789424D01*
X136650198Y-125576231D01*
X136578528Y-125344701D01*
X136550000Y-125073276D01*
X136550000Y-124358061D01*
X137141000Y-124358061D01*
X137141000Y-124561939D01*
X137180774Y-124761898D01*
X137258795Y-124950256D01*
X137372063Y-125119774D01*
X137516226Y-125263937D01*
X137685744Y-125377205D01*
X137874102Y-125455226D01*
X138074061Y-125495000D01*
X138277939Y-125495000D01*
X138477898Y-125455226D01*
X138666256Y-125377205D01*
X138714454Y-125345000D01*
X142196531Y-125345000D01*
X142240000Y-125349281D01*
X142283469Y-125345000D01*
X142283477Y-125345000D01*
X142413490Y-125332195D01*
X142580313Y-125281589D01*
X142734059Y-125199411D01*
X142868817Y-125088817D01*
X142896534Y-125055044D01*
X145013662Y-122937916D01*
X156631800Y-122937916D01*
X156631800Y-123188084D01*
X156680605Y-123433445D01*
X156776341Y-123664571D01*
X156915327Y-123872578D01*
X157092222Y-124049473D01*
X157300229Y-124188459D01*
X157531355Y-124284195D01*
X157776716Y-124333000D01*
X158026884Y-124333000D01*
X158272245Y-124284195D01*
X158503371Y-124188459D01*
X158711378Y-124049473D01*
X158888273Y-123872578D01*
X159027259Y-123664571D01*
X159122995Y-123433445D01*
X159171800Y-123188084D01*
X159171800Y-122937916D01*
X161731800Y-122937916D01*
X161731800Y-123188084D01*
X161780605Y-123433445D01*
X161876341Y-123664571D01*
X162015327Y-123872578D01*
X162192222Y-124049473D01*
X162400229Y-124188459D01*
X162631355Y-124284195D01*
X162876716Y-124333000D01*
X163126884Y-124333000D01*
X163372245Y-124284195D01*
X163603371Y-124188459D01*
X163811378Y-124049473D01*
X163988273Y-123872578D01*
X164127259Y-123664571D01*
X164222995Y-123433445D01*
X164271800Y-123188084D01*
X164271800Y-122937916D01*
X164222995Y-122692555D01*
X164127259Y-122461429D01*
X163988273Y-122253422D01*
X163811378Y-122076527D01*
X163603371Y-121937541D01*
X163372245Y-121841805D01*
X163126884Y-121793000D01*
X162876716Y-121793000D01*
X162631355Y-121841805D01*
X162400229Y-121937541D01*
X162192222Y-122076527D01*
X162015327Y-122253422D01*
X161876341Y-122461429D01*
X161780605Y-122692555D01*
X161731800Y-122937916D01*
X159171800Y-122937916D01*
X159122995Y-122692555D01*
X159027259Y-122461429D01*
X158888273Y-122253422D01*
X158711378Y-122076527D01*
X158503371Y-121937541D01*
X158272245Y-121841805D01*
X158026884Y-121793000D01*
X157776716Y-121793000D01*
X157531355Y-121841805D01*
X157300229Y-121937541D01*
X157092222Y-122076527D01*
X156915327Y-122253422D01*
X156776341Y-122461429D01*
X156680605Y-122692555D01*
X156631800Y-122937916D01*
X145013662Y-122937916D01*
X145533044Y-122418535D01*
X145589898Y-122407226D01*
X145778256Y-122329205D01*
X145947774Y-122215937D01*
X146091937Y-122071774D01*
X146205205Y-121902256D01*
X146283226Y-121713898D01*
X146323000Y-121513939D01*
X146323000Y-121310061D01*
X146283226Y-121110102D01*
X146205205Y-120921744D01*
X146134015Y-120815200D01*
X169021328Y-120815200D01*
X169021328Y-122415200D01*
X169033588Y-122539682D01*
X169069898Y-122659380D01*
X169128863Y-122769694D01*
X169208215Y-122866385D01*
X169304906Y-122945737D01*
X169415220Y-123004702D01*
X169534918Y-123041012D01*
X169659400Y-123053272D01*
X171259400Y-123053272D01*
X171383882Y-123041012D01*
X171503580Y-123004702D01*
X171613894Y-122945737D01*
X171710585Y-122866385D01*
X171789937Y-122769694D01*
X171848902Y-122659380D01*
X171885212Y-122539682D01*
X171897472Y-122415200D01*
X171897472Y-120815200D01*
X171885212Y-120690718D01*
X171848902Y-120571020D01*
X171789937Y-120460706D01*
X171710585Y-120364015D01*
X171613894Y-120284663D01*
X171503580Y-120225698D01*
X171383882Y-120189388D01*
X171259400Y-120177128D01*
X169659400Y-120177128D01*
X169534918Y-120189388D01*
X169415220Y-120225698D01*
X169304906Y-120284663D01*
X169208215Y-120364015D01*
X169128863Y-120460706D01*
X169069898Y-120571020D01*
X169033588Y-120690718D01*
X169021328Y-120815200D01*
X146134015Y-120815200D01*
X146091937Y-120752226D01*
X145947774Y-120608063D01*
X145778256Y-120494795D01*
X145589898Y-120416774D01*
X145389939Y-120377000D01*
X145186061Y-120377000D01*
X144986102Y-120416774D01*
X144797744Y-120494795D01*
X144628226Y-120608063D01*
X144484063Y-120752226D01*
X144370795Y-120921744D01*
X144292774Y-121110102D01*
X144281465Y-121166956D01*
X141873422Y-123575000D01*
X138714454Y-123575000D01*
X138666256Y-123542795D01*
X138477898Y-123464774D01*
X138277939Y-123425000D01*
X138074061Y-123425000D01*
X137874102Y-123464774D01*
X137685744Y-123542795D01*
X137516226Y-123656063D01*
X137372063Y-123800226D01*
X137258795Y-123969744D01*
X137180774Y-124158102D01*
X137141000Y-124358061D01*
X136550000Y-124358061D01*
X136550000Y-116872277D01*
X136576815Y-116598796D01*
X136646867Y-116366774D01*
X136760650Y-116152778D01*
X136913832Y-115964959D01*
X137100577Y-115810470D01*
X137313769Y-115695199D01*
X137545300Y-115623528D01*
X137816725Y-115595000D01*
X177418204Y-115595000D01*
X177364815Y-115638815D01*
G36*
X180213000Y-123214347D02*
G01*
X180183333Y-123190000D01*
X180213000Y-123165653D01*
X180213000Y-123214347D01*
G37*
X180213000Y-123214347D02*
X180183333Y-123190000D01*
X180213000Y-123165653D01*
X180213000Y-123214347D01*
G36*
X177285463Y-120484494D02*
G01*
X177364815Y-120581185D01*
X177448667Y-120650000D01*
X177374704Y-120710700D01*
X177079004Y-120415000D01*
X177139939Y-120415000D01*
X177237902Y-120395514D01*
X177285463Y-120484494D01*
G37*
X177285463Y-120484494D02*
X177364815Y-120581185D01*
X177448667Y-120650000D01*
X177374704Y-120710700D01*
X177079004Y-120415000D01*
X177139939Y-120415000D01*
X177237902Y-120395514D01*
X177285463Y-120484494D01*
G36*
X180213000Y-120674347D02*
G01*
X180183333Y-120650000D01*
X180213000Y-120625653D01*
X180213000Y-120674347D01*
G37*
X180213000Y-120674347D02*
X180183333Y-120650000D01*
X180213000Y-120625653D01*
X180213000Y-120674347D01*
G36*
X180213000Y-118134347D02*
G01*
X180183333Y-118110000D01*
X180213000Y-118085653D01*
X180213000Y-118134347D01*
G37*
X180213000Y-118134347D02*
X180183333Y-118110000D01*
X180213000Y-118085653D01*
X180213000Y-118134347D01*
M02*
