M48
; DRILL file {KiCad (5.1.5)-3} date 3/7/2020 1:53:30 PM
; FORMAT={-:-/ absolute / inch / decimal}
; #@! TF.CreationDate,2020-03-07T13:53:30-06:00
; #@! TF.GenerationSoftware,Kicad,Pcbnew,(5.1.5)-3
FMAT,2
INCH
T1C0.0157
T2C0.0394
T3C0.0402
T4C0.0630
T5C0.0500
%
G90
G05
T1
X3.175Y-2.2
X3.175Y-2.375
X3.24Y-3.2
X3.4Y-3.95
X3.42Y-4.05
X3.45Y-2.6315
X3.45Y-2.69
X3.7327Y-3.9423
X3.775Y-3.875
X3.775Y-4.025
X4.075Y-3.675
X4.075Y-3.775
X4.1Y-3.725
X4.43Y-3.775
X4.4601Y-2.2499
X4.675Y-2.2
X4.72Y-2.63
X4.73Y-2.2
X4.73Y-2.26
T2
X3.575Y-1.96
X3.575Y-2.06
X3.575Y-2.16
X3.575Y-2.26
X3.575Y-2.46
X3.575Y-2.56
X3.575Y-2.66
X3.0Y-2.9
X3.0Y-3.0
X3.0Y-3.1
X3.0Y-3.2
X3.0Y-3.3
X3.0Y-3.4
X3.0Y-3.5
X3.0Y-3.6
X3.0Y-3.7
X3.0Y-3.8
X3.0Y-3.9
X3.0Y-4.0
X3.0Y-4.1
X3.0Y-4.2
X3.0Y-4.3
X3.1Y-2.9
X3.1Y-3.0
X3.1Y-3.1
X3.1Y-3.2
X3.1Y-3.3
X3.1Y-3.4
X3.1Y-3.5
X3.1Y-3.6
X3.1Y-3.7
X3.1Y-3.8
X3.1Y-3.9
X3.1Y-4.0
X3.1Y-4.1
X3.1Y-4.2
X3.1Y-4.3
X4.8Y-2.7
X4.8Y-2.8
X4.8Y-2.9
X4.8Y-3.0
X4.8Y-3.1
X4.8Y-3.2
X4.8Y-3.3
X4.8Y-3.4
X4.8Y-3.5
X4.8Y-3.6
X4.8Y-3.7
X4.8Y-3.8
X4.8Y-3.9
X4.8Y-4.0
X4.8Y-4.1
X4.8Y-4.2
X4.8Y-4.3
X4.9Y-2.7
X4.9Y-2.8
X4.9Y-2.9
X4.9Y-3.0
X4.9Y-3.1
X4.9Y-3.2
X4.9Y-3.3
X4.9Y-3.4
X4.9Y-3.5
X4.9Y-3.6
X4.9Y-3.7
X4.9Y-3.8
X4.9Y-3.9
X4.9Y-4.0
X4.9Y-4.1
X4.9Y-4.2
X4.9Y-4.3
X3.0Y-2.0
X3.0Y-2.1
X3.0Y-2.2
X3.0Y-2.3
X3.0Y-2.4
X3.0Y-2.5
X3.0Y-2.6
X3.0Y-2.7
X3.1Y-2.0
X3.1Y-2.1
X3.1Y-2.2
X3.1Y-2.3
X3.1Y-2.4
X3.1Y-2.5
X3.1Y-2.6
X3.1Y-2.7
X4.8Y-1.65
X4.8Y-1.75
X4.8Y-1.85
X4.8Y-1.95
X4.8Y-2.05
X4.8Y-2.15
X4.8Y-2.25
X4.8Y-2.35
X4.8Y-2.45
X4.8Y-2.55
X4.9Y-1.65
X4.9Y-1.75
X4.9Y-1.85
X4.9Y-1.95
X4.9Y-2.05
X4.9Y-2.15
X4.9Y-2.25
X4.9Y-2.35
X4.9Y-2.45
X4.9Y-2.55
X4.305Y-3.175
X4.405Y-3.175
T3
X4.17Y-4.02
X4.2881Y-4.02
X4.4062Y-4.02
X4.5243Y-4.02
X4.1339Y-2.8346
X4.1339Y-2.9528
X4.1638Y-3.38
X4.2819Y-3.38
X4.4Y-3.38
X4.5181Y-3.38
T4
X4.595Y-4.25
X3.375Y-2.925
X3.3Y-4.25
X3.8252Y-3.2
X4.6Y-2.7
X3.375Y-3.475
X3.6001Y-3.2
X4.6Y-2.93
X3.375Y-3.2
X3.6004Y-3.475
X3.6003Y-2.9248
X3.3Y-4.0
T5
X4.0457Y-3.3028
X4.6362Y-3.3028
X4.0519Y-3.9428
X4.6424Y-3.9428
X4.0567Y-2.7165
X4.0567Y-3.0709
T0
M30
