G04 #@! TF.GenerationSoftware,KiCad,Pcbnew,(5.1.5)-3*
G04 #@! TF.CreationDate,2020-03-07T13:53:33-06:00*
G04 #@! TF.ProjectId,TelemetryBoard,54656c65-6d65-4747-9279-426f6172642e,rev?*
G04 #@! TF.SameCoordinates,Original*
G04 #@! TF.FileFunction,Legend,Bot*
G04 #@! TF.FilePolarity,Positive*
%FSLAX46Y46*%
G04 Gerber Fmt 4.6, Leading zero omitted, Abs format (unit mm)*
G04 Created by KiCad (PCBNEW (5.1.5)-3) date 2020-03-07 13:53:33*
%MOMM*%
%LPD*%
G04 APERTURE LIST*
%ADD10C,0.010000*%
G04 APERTURE END LIST*
D10*
G36*
X100118333Y-62780334D02*
G01*
X100109616Y-62742583D01*
X100076000Y-62738000D01*
X100023732Y-62761234D01*
X100033666Y-62780334D01*
X100109026Y-62787934D01*
X100118333Y-62780334D01*
G37*
X100118333Y-62780334D02*
X100109616Y-62742583D01*
X100076000Y-62738000D01*
X100023732Y-62761234D01*
X100033666Y-62780334D01*
X100109026Y-62787934D01*
X100118333Y-62780334D01*
G36*
X102423654Y-43258679D02*
G01*
X102425500Y-43243500D01*
X102377178Y-43181846D01*
X102362000Y-43180000D01*
X102300345Y-43228322D01*
X102298500Y-43243500D01*
X102346821Y-43305155D01*
X102362000Y-43307000D01*
X102423654Y-43258679D01*
G37*
X102423654Y-43258679D02*
X102425500Y-43243500D01*
X102377178Y-43181846D01*
X102362000Y-43180000D01*
X102300345Y-43228322D01*
X102298500Y-43243500D01*
X102346821Y-43305155D01*
X102362000Y-43307000D01*
X102423654Y-43258679D01*
G36*
X101197833Y-40809334D02*
G01*
X101189116Y-40771583D01*
X101155500Y-40767000D01*
X101103232Y-40790234D01*
X101113166Y-40809334D01*
X101188526Y-40816934D01*
X101197833Y-40809334D01*
G37*
X101197833Y-40809334D02*
X101189116Y-40771583D01*
X101155500Y-40767000D01*
X101103232Y-40790234D01*
X101113166Y-40809334D01*
X101188526Y-40816934D01*
X101197833Y-40809334D01*
G36*
X106236435Y-57345666D02*
G01*
X106339985Y-57181165D01*
X106395363Y-56923410D01*
X106402037Y-56692956D01*
X106385536Y-56440467D01*
X106355210Y-56313781D01*
X106310698Y-56312418D01*
X106251637Y-56435896D01*
X106238209Y-56475041D01*
X106197386Y-56717418D01*
X106208885Y-56932794D01*
X106226085Y-57102251D01*
X106183467Y-57209714D01*
X106101379Y-57284586D01*
X105949750Y-57401177D01*
X106090994Y-57402589D01*
X106236435Y-57345666D01*
G37*
X106236435Y-57345666D02*
X106339985Y-57181165D01*
X106395363Y-56923410D01*
X106402037Y-56692956D01*
X106385536Y-56440467D01*
X106355210Y-56313781D01*
X106310698Y-56312418D01*
X106251637Y-56435896D01*
X106238209Y-56475041D01*
X106197386Y-56717418D01*
X106208885Y-56932794D01*
X106226085Y-57102251D01*
X106183467Y-57209714D01*
X106101379Y-57284586D01*
X105949750Y-57401177D01*
X106090994Y-57402589D01*
X106236435Y-57345666D01*
G36*
X105490493Y-56322549D02*
G01*
X105537000Y-56254207D01*
X105500919Y-56205463D01*
X105380992Y-56232218D01*
X105361979Y-56239687D01*
X105309468Y-56300621D01*
X105316387Y-56327151D01*
X105392778Y-56355603D01*
X105490493Y-56322549D01*
G37*
X105490493Y-56322549D02*
X105537000Y-56254207D01*
X105500919Y-56205463D01*
X105380992Y-56232218D01*
X105361979Y-56239687D01*
X105309468Y-56300621D01*
X105316387Y-56327151D01*
X105392778Y-56355603D01*
X105490493Y-56322549D01*
G36*
X105329302Y-55029365D02*
G01*
X105310363Y-55000504D01*
X105245958Y-54996014D01*
X105178201Y-55011522D01*
X105207593Y-55034378D01*
X105306836Y-55041948D01*
X105329302Y-55029365D01*
G37*
X105329302Y-55029365D02*
X105310363Y-55000504D01*
X105245958Y-54996014D01*
X105178201Y-55011522D01*
X105207593Y-55034378D01*
X105306836Y-55041948D01*
X105329302Y-55029365D01*
G36*
X100270926Y-54758026D02*
G01*
X100361399Y-54713359D01*
X100409409Y-54668414D01*
X100387345Y-54643102D01*
X100276831Y-54632967D01*
X100059491Y-54633555D01*
X100033953Y-54633984D01*
X99804679Y-54641660D01*
X99684963Y-54657465D01*
X99657425Y-54685686D01*
X99688792Y-54719106D01*
X99851117Y-54781502D01*
X100066402Y-54794294D01*
X100270926Y-54758026D01*
G37*
X100270926Y-54758026D02*
X100361399Y-54713359D01*
X100409409Y-54668414D01*
X100387345Y-54643102D01*
X100276831Y-54632967D01*
X100059491Y-54633555D01*
X100033953Y-54633984D01*
X99804679Y-54641660D01*
X99684963Y-54657465D01*
X99657425Y-54685686D01*
X99688792Y-54719106D01*
X99851117Y-54781502D01*
X100066402Y-54794294D01*
X100270926Y-54758026D01*
G36*
X104921940Y-54091099D02*
G01*
X105075532Y-54036025D01*
X105189647Y-53973285D01*
X105219500Y-53932517D01*
X105182377Y-53852468D01*
X105092860Y-53725590D01*
X104983724Y-53592523D01*
X104887742Y-53493907D01*
X104844074Y-53467000D01*
X104816161Y-53519971D01*
X104823462Y-53628386D01*
X104825997Y-53748999D01*
X104768539Y-53771261D01*
X104699320Y-53807843D01*
X104659079Y-53915480D01*
X104659700Y-54039383D01*
X104694881Y-54110782D01*
X104778510Y-54121641D01*
X104921940Y-54091099D01*
G37*
X104921940Y-54091099D02*
X105075532Y-54036025D01*
X105189647Y-53973285D01*
X105219500Y-53932517D01*
X105182377Y-53852468D01*
X105092860Y-53725590D01*
X104983724Y-53592523D01*
X104887742Y-53493907D01*
X104844074Y-53467000D01*
X104816161Y-53519971D01*
X104823462Y-53628386D01*
X104825997Y-53748999D01*
X104768539Y-53771261D01*
X104699320Y-53807843D01*
X104659079Y-53915480D01*
X104659700Y-54039383D01*
X104694881Y-54110782D01*
X104778510Y-54121641D01*
X104921940Y-54091099D01*
G36*
X99880937Y-52757252D02*
G01*
X99834778Y-52713353D01*
X99822000Y-52705000D01*
X99705656Y-52648906D01*
X99650126Y-52658229D01*
X99663250Y-52705000D01*
X99753871Y-52760252D01*
X99809872Y-52767528D01*
X99880937Y-52757252D01*
G37*
X99880937Y-52757252D02*
X99834778Y-52713353D01*
X99822000Y-52705000D01*
X99705656Y-52648906D01*
X99650126Y-52658229D01*
X99663250Y-52705000D01*
X99753871Y-52760252D01*
X99809872Y-52767528D01*
X99880937Y-52757252D01*
G36*
X100181833Y-52620334D02*
G01*
X100173116Y-52582583D01*
X100139500Y-52578000D01*
X100087232Y-52601234D01*
X100097166Y-52620334D01*
X100172526Y-52627934D01*
X100181833Y-52620334D01*
G37*
X100181833Y-52620334D02*
X100173116Y-52582583D01*
X100139500Y-52578000D01*
X100087232Y-52601234D01*
X100097166Y-52620334D01*
X100172526Y-52627934D01*
X100181833Y-52620334D01*
G36*
X99611577Y-52092483D02*
G01*
X99599750Y-52070000D01*
X99539919Y-52009358D01*
X99528754Y-52006500D01*
X99524422Y-52047518D01*
X99536250Y-52070000D01*
X99596080Y-52130643D01*
X99607245Y-52133500D01*
X99611577Y-52092483D01*
G37*
X99611577Y-52092483D02*
X99599750Y-52070000D01*
X99539919Y-52009358D01*
X99528754Y-52006500D01*
X99524422Y-52047518D01*
X99536250Y-52070000D01*
X99596080Y-52130643D01*
X99607245Y-52133500D01*
X99611577Y-52092483D01*
G36*
X99921905Y-51182731D02*
G01*
X99949000Y-51166264D01*
X100047937Y-51086400D01*
X100076000Y-51038726D01*
X100027874Y-50996284D01*
X99930071Y-50998681D01*
X99864333Y-51032834D01*
X99824500Y-51129093D01*
X99822000Y-51160372D01*
X99841779Y-51212811D01*
X99921905Y-51182731D01*
G37*
X99921905Y-51182731D02*
X99949000Y-51166264D01*
X100047937Y-51086400D01*
X100076000Y-51038726D01*
X100027874Y-50996284D01*
X99930071Y-50998681D01*
X99864333Y-51032834D01*
X99824500Y-51129093D01*
X99822000Y-51160372D01*
X99841779Y-51212811D01*
X99921905Y-51182731D01*
G36*
X105219500Y-50641250D02*
G01*
X105187750Y-50609500D01*
X105156000Y-50641250D01*
X105187750Y-50673000D01*
X105219500Y-50641250D01*
G37*
X105219500Y-50641250D02*
X105187750Y-50609500D01*
X105156000Y-50641250D01*
X105187750Y-50673000D01*
X105219500Y-50641250D01*
G36*
X102272042Y-50645245D02*
G01*
X102251229Y-50578406D01*
X102157074Y-50497122D01*
X102021912Y-50430960D01*
X101826093Y-50371711D01*
X101700323Y-50355154D01*
X101659760Y-50378134D01*
X101719564Y-50437499D01*
X101790474Y-50479114D01*
X101942545Y-50547502D01*
X102046251Y-50571456D01*
X102060349Y-50567955D01*
X102105424Y-50585583D01*
X102108000Y-50605753D01*
X102159228Y-50665738D01*
X102201257Y-50673000D01*
X102272042Y-50645245D01*
G37*
X102272042Y-50645245D02*
X102251229Y-50578406D01*
X102157074Y-50497122D01*
X102021912Y-50430960D01*
X101826093Y-50371711D01*
X101700323Y-50355154D01*
X101659760Y-50378134D01*
X101719564Y-50437499D01*
X101790474Y-50479114D01*
X101942545Y-50547502D01*
X102046251Y-50571456D01*
X102060349Y-50567955D01*
X102105424Y-50585583D01*
X102108000Y-50605753D01*
X102159228Y-50665738D01*
X102201257Y-50673000D01*
X102272042Y-50645245D01*
G36*
X105410000Y-50006250D02*
G01*
X105378250Y-49974500D01*
X105346500Y-50006250D01*
X105378250Y-50038000D01*
X105410000Y-50006250D01*
G37*
X105410000Y-50006250D02*
X105378250Y-49974500D01*
X105346500Y-50006250D01*
X105378250Y-50038000D01*
X105410000Y-50006250D01*
G36*
X105486812Y-50293672D02*
G01*
X105514710Y-50258051D01*
X105583849Y-50129442D01*
X105600500Y-50057614D01*
X105636526Y-49981178D01*
X105659720Y-49974500D01*
X105729990Y-49921268D01*
X105765066Y-49798008D01*
X105753895Y-49659378D01*
X105733303Y-49610657D01*
X105680957Y-49550085D01*
X105665930Y-49581373D01*
X105630935Y-49635517D01*
X105604887Y-49627962D01*
X105526563Y-49634411D01*
X105471848Y-49761421D01*
X105442474Y-50004454D01*
X105440019Y-50059983D01*
X105437268Y-50240022D01*
X105450554Y-50311785D01*
X105486812Y-50293672D01*
G37*
X105486812Y-50293672D02*
X105514710Y-50258051D01*
X105583849Y-50129442D01*
X105600500Y-50057614D01*
X105636526Y-49981178D01*
X105659720Y-49974500D01*
X105729990Y-49921268D01*
X105765066Y-49798008D01*
X105753895Y-49659378D01*
X105733303Y-49610657D01*
X105680957Y-49550085D01*
X105665930Y-49581373D01*
X105630935Y-49635517D01*
X105604887Y-49627962D01*
X105526563Y-49634411D01*
X105471848Y-49761421D01*
X105442474Y-50004454D01*
X105440019Y-50059983D01*
X105437268Y-50240022D01*
X105450554Y-50311785D01*
X105486812Y-50293672D01*
G36*
X105957120Y-49518094D02*
G01*
X106024978Y-49403585D01*
X106025633Y-49329862D01*
X105989800Y-49287573D01*
X105978993Y-49307750D01*
X105973171Y-49412734D01*
X105973980Y-49418875D01*
X105933555Y-49465000D01*
X105918000Y-49466500D01*
X105858599Y-49516419D01*
X105854500Y-49543608D01*
X105886712Y-49572637D01*
X105957120Y-49518094D01*
G37*
X105957120Y-49518094D02*
X106024978Y-49403585D01*
X106025633Y-49329862D01*
X105989800Y-49287573D01*
X105978993Y-49307750D01*
X105973171Y-49412734D01*
X105973980Y-49418875D01*
X105933555Y-49465000D01*
X105918000Y-49466500D01*
X105858599Y-49516419D01*
X105854500Y-49543608D01*
X105886712Y-49572637D01*
X105957120Y-49518094D01*
G36*
X106232915Y-49166405D02*
G01*
X106235500Y-49149000D01*
X106213834Y-49087151D01*
X106207497Y-49085500D01*
X106153283Y-49129997D01*
X106140250Y-49149000D01*
X106145284Y-49207515D01*
X106168252Y-49212500D01*
X106232915Y-49166405D01*
G37*
X106232915Y-49166405D02*
X106235500Y-49149000D01*
X106213834Y-49087151D01*
X106207497Y-49085500D01*
X106153283Y-49129997D01*
X106140250Y-49149000D01*
X106145284Y-49207515D01*
X106168252Y-49212500D01*
X106232915Y-49166405D01*
G36*
X106108500Y-48990250D02*
G01*
X106076750Y-48958500D01*
X106045000Y-48990250D01*
X106076750Y-49022000D01*
X106108500Y-48990250D01*
G37*
X106108500Y-48990250D02*
X106076750Y-48958500D01*
X106045000Y-48990250D01*
X106076750Y-49022000D01*
X106108500Y-48990250D01*
G36*
X106277833Y-49000834D02*
G01*
X106285433Y-48925474D01*
X106277833Y-48916167D01*
X106240082Y-48924884D01*
X106235500Y-48958500D01*
X106258733Y-49010768D01*
X106277833Y-49000834D01*
G37*
X106277833Y-49000834D02*
X106285433Y-48925474D01*
X106277833Y-48916167D01*
X106240082Y-48924884D01*
X106235500Y-48958500D01*
X106258733Y-49010768D01*
X106277833Y-49000834D01*
G36*
X106341333Y-48746834D02*
G01*
X106332616Y-48709083D01*
X106299000Y-48704500D01*
X106246732Y-48727734D01*
X106256666Y-48746834D01*
X106332026Y-48754434D01*
X106341333Y-48746834D01*
G37*
X106341333Y-48746834D02*
X106332616Y-48709083D01*
X106299000Y-48704500D01*
X106246732Y-48727734D01*
X106256666Y-48746834D01*
X106332026Y-48754434D01*
X106341333Y-48746834D01*
G36*
X107251500Y-48482250D02*
G01*
X107219750Y-48450500D01*
X107188000Y-48482250D01*
X107219750Y-48514000D01*
X107251500Y-48482250D01*
G37*
X107251500Y-48482250D02*
X107219750Y-48450500D01*
X107188000Y-48482250D01*
X107219750Y-48514000D01*
X107251500Y-48482250D01*
G36*
X106739966Y-48791142D02*
G01*
X106879340Y-48700420D01*
X106954948Y-48619572D01*
X106944724Y-48592351D01*
X106934566Y-48594398D01*
X106813403Y-48575309D01*
X106755406Y-48534978D01*
X106647095Y-48465194D01*
X106596089Y-48455514D01*
X106558260Y-48470696D01*
X106598980Y-48492007D01*
X106638168Y-48544181D01*
X106591112Y-48653528D01*
X106575802Y-48677494D01*
X106511885Y-48786443D01*
X106527233Y-48826244D01*
X106602162Y-48831500D01*
X106739966Y-48791142D01*
G37*
X106739966Y-48791142D02*
X106879340Y-48700420D01*
X106954948Y-48619572D01*
X106944724Y-48592351D01*
X106934566Y-48594398D01*
X106813403Y-48575309D01*
X106755406Y-48534978D01*
X106647095Y-48465194D01*
X106596089Y-48455514D01*
X106558260Y-48470696D01*
X106598980Y-48492007D01*
X106638168Y-48544181D01*
X106591112Y-48653528D01*
X106575802Y-48677494D01*
X106511885Y-48786443D01*
X106527233Y-48826244D01*
X106602162Y-48831500D01*
X106739966Y-48791142D01*
G36*
X106912833Y-48429334D02*
G01*
X106904116Y-48391583D01*
X106870500Y-48387000D01*
X106818232Y-48410234D01*
X106828166Y-48429334D01*
X106903526Y-48436934D01*
X106912833Y-48429334D01*
G37*
X106912833Y-48429334D02*
X106904116Y-48391583D01*
X106870500Y-48387000D01*
X106818232Y-48410234D01*
X106828166Y-48429334D01*
X106903526Y-48436934D01*
X106912833Y-48429334D01*
G36*
X104965500Y-48355250D02*
G01*
X104933750Y-48323500D01*
X104902000Y-48355250D01*
X104933750Y-48387000D01*
X104965500Y-48355250D01*
G37*
X104965500Y-48355250D02*
X104933750Y-48323500D01*
X104902000Y-48355250D01*
X104933750Y-48387000D01*
X104965500Y-48355250D01*
G36*
X106805154Y-48275179D02*
G01*
X106807000Y-48260000D01*
X106758678Y-48198346D01*
X106743500Y-48196500D01*
X106681845Y-48244822D01*
X106680000Y-48260000D01*
X106728321Y-48321655D01*
X106743500Y-48323500D01*
X106805154Y-48275179D01*
G37*
X106805154Y-48275179D02*
X106807000Y-48260000D01*
X106758678Y-48198346D01*
X106743500Y-48196500D01*
X106681845Y-48244822D01*
X106680000Y-48260000D01*
X106728321Y-48321655D01*
X106743500Y-48323500D01*
X106805154Y-48275179D01*
G36*
X99737333Y-48175334D02*
G01*
X99728616Y-48137583D01*
X99695000Y-48133000D01*
X99642732Y-48156234D01*
X99652666Y-48175334D01*
X99728026Y-48182934D01*
X99737333Y-48175334D01*
G37*
X99737333Y-48175334D02*
X99728616Y-48137583D01*
X99695000Y-48133000D01*
X99642732Y-48156234D01*
X99652666Y-48175334D01*
X99728026Y-48182934D01*
X99737333Y-48175334D01*
G36*
X106747887Y-48035039D02*
G01*
X106804193Y-47973738D01*
X106740062Y-47943743D01*
X106708002Y-47942500D01*
X106642600Y-47973743D01*
X106648890Y-48007036D01*
X106724991Y-48043668D01*
X106747887Y-48035039D01*
G37*
X106747887Y-48035039D02*
X106804193Y-47973738D01*
X106740062Y-47943743D01*
X106708002Y-47942500D01*
X106642600Y-47973743D01*
X106648890Y-48007036D01*
X106724991Y-48043668D01*
X106747887Y-48035039D01*
G36*
X101663500Y-47910750D02*
G01*
X101631750Y-47879000D01*
X101600000Y-47910750D01*
X101631750Y-47942500D01*
X101663500Y-47910750D01*
G37*
X101663500Y-47910750D02*
X101631750Y-47879000D01*
X101600000Y-47910750D01*
X101631750Y-47942500D01*
X101663500Y-47910750D01*
G36*
X104346375Y-47603555D02*
G01*
X104354352Y-47580378D01*
X104267000Y-47571527D01*
X104176853Y-47581506D01*
X104187625Y-47603555D01*
X104317631Y-47611942D01*
X104346375Y-47603555D01*
G37*
X104346375Y-47603555D02*
X104354352Y-47580378D01*
X104267000Y-47571527D01*
X104176853Y-47581506D01*
X104187625Y-47603555D01*
X104317631Y-47611942D01*
X104346375Y-47603555D01*
G36*
X101413154Y-47695576D02*
G01*
X101327237Y-47631375D01*
X101231950Y-47577150D01*
X101236827Y-47597528D01*
X101296863Y-47661749D01*
X101389763Y-47737438D01*
X101436850Y-47745817D01*
X101413154Y-47695576D01*
G37*
X101413154Y-47695576D02*
X101327237Y-47631375D01*
X101231950Y-47577150D01*
X101236827Y-47597528D01*
X101296863Y-47661749D01*
X101389763Y-47737438D01*
X101436850Y-47745817D01*
X101413154Y-47695576D01*
G36*
X104648000Y-47466250D02*
G01*
X104616250Y-47434500D01*
X104584500Y-47466250D01*
X104616250Y-47498000D01*
X104648000Y-47466250D01*
G37*
X104648000Y-47466250D02*
X104616250Y-47434500D01*
X104584500Y-47466250D01*
X104616250Y-47498000D01*
X104648000Y-47466250D01*
G36*
X103991833Y-47476834D02*
G01*
X103983116Y-47439083D01*
X103949500Y-47434500D01*
X103897232Y-47457734D01*
X103907166Y-47476834D01*
X103982526Y-47484434D01*
X103991833Y-47476834D01*
G37*
X103991833Y-47476834D02*
X103983116Y-47439083D01*
X103949500Y-47434500D01*
X103897232Y-47457734D01*
X103907166Y-47476834D01*
X103982526Y-47484434D01*
X103991833Y-47476834D01*
G36*
X104203500Y-47402750D02*
G01*
X104171750Y-47371000D01*
X104140000Y-47402750D01*
X104171750Y-47434500D01*
X104203500Y-47402750D01*
G37*
X104203500Y-47402750D02*
X104171750Y-47371000D01*
X104140000Y-47402750D01*
X104171750Y-47434500D01*
X104203500Y-47402750D01*
G36*
X107493036Y-47209939D02*
G01*
X107444093Y-47143272D01*
X107367911Y-47042079D01*
X107339327Y-47001651D01*
X107302662Y-47024607D01*
X107287830Y-47046090D01*
X107306022Y-47119338D01*
X107392596Y-47187711D01*
X107491559Y-47235681D01*
X107493036Y-47209939D01*
G37*
X107493036Y-47209939D02*
X107444093Y-47143272D01*
X107367911Y-47042079D01*
X107339327Y-47001651D01*
X107302662Y-47024607D01*
X107287830Y-47046090D01*
X107306022Y-47119338D01*
X107392596Y-47187711D01*
X107491559Y-47235681D01*
X107493036Y-47209939D01*
G36*
X103737833Y-47032334D02*
G01*
X103729116Y-46994583D01*
X103695500Y-46990000D01*
X103643232Y-47013234D01*
X103653166Y-47032334D01*
X103728526Y-47039934D01*
X103737833Y-47032334D01*
G37*
X103737833Y-47032334D02*
X103729116Y-46994583D01*
X103695500Y-46990000D01*
X103643232Y-47013234D01*
X103653166Y-47032334D01*
X103728526Y-47039934D01*
X103737833Y-47032334D01*
G36*
X107693415Y-46943905D02*
G01*
X107696000Y-46926500D01*
X107674334Y-46864651D01*
X107667997Y-46863000D01*
X107613783Y-46907497D01*
X107600750Y-46926500D01*
X107605784Y-46985015D01*
X107628752Y-46990000D01*
X107693415Y-46943905D01*
G37*
X107693415Y-46943905D02*
X107696000Y-46926500D01*
X107674334Y-46864651D01*
X107667997Y-46863000D01*
X107613783Y-46907497D01*
X107600750Y-46926500D01*
X107605784Y-46985015D01*
X107628752Y-46990000D01*
X107693415Y-46943905D01*
G36*
X107378500Y-46894750D02*
G01*
X107346750Y-46863000D01*
X107315000Y-46894750D01*
X107346750Y-46926500D01*
X107378500Y-46894750D01*
G37*
X107378500Y-46894750D02*
X107346750Y-46863000D01*
X107315000Y-46894750D01*
X107346750Y-46926500D01*
X107378500Y-46894750D01*
G36*
X104521000Y-46831250D02*
G01*
X104489250Y-46799500D01*
X104457500Y-46831250D01*
X104489250Y-46863000D01*
X104521000Y-46831250D01*
G37*
X104521000Y-46831250D02*
X104489250Y-46799500D01*
X104457500Y-46831250D01*
X104489250Y-46863000D01*
X104521000Y-46831250D01*
G36*
X103748472Y-46912915D02*
G01*
X103759000Y-46901544D01*
X103709345Y-46860599D01*
X103663750Y-46840037D01*
X103581983Y-46838717D01*
X103568500Y-46864993D01*
X103619962Y-46919571D01*
X103663750Y-46926500D01*
X103748472Y-46912915D01*
G37*
X103748472Y-46912915D02*
X103759000Y-46901544D01*
X103709345Y-46860599D01*
X103663750Y-46840037D01*
X103581983Y-46838717D01*
X103568500Y-46864993D01*
X103619962Y-46919571D01*
X103663750Y-46926500D01*
X103748472Y-46912915D01*
G36*
X104648000Y-46640750D02*
G01*
X104616250Y-46609000D01*
X104584500Y-46640750D01*
X104616250Y-46672500D01*
X104648000Y-46640750D01*
G37*
X104648000Y-46640750D02*
X104616250Y-46609000D01*
X104584500Y-46640750D01*
X104616250Y-46672500D01*
X104648000Y-46640750D01*
G36*
X103630669Y-46703994D02*
G01*
X103675952Y-46638019D01*
X103648910Y-46590207D01*
X103550864Y-46583064D01*
X103520875Y-46591111D01*
X103446946Y-46654773D01*
X103469539Y-46719667D01*
X103533002Y-46736000D01*
X103630669Y-46703994D01*
G37*
X103630669Y-46703994D02*
X103675952Y-46638019D01*
X103648910Y-46590207D01*
X103550864Y-46583064D01*
X103520875Y-46591111D01*
X103446946Y-46654773D01*
X103469539Y-46719667D01*
X103533002Y-46736000D01*
X103630669Y-46703994D01*
G36*
X101147570Y-47508673D02*
G01*
X101068475Y-47408035D01*
X100910106Y-47250922D01*
X100796655Y-47148208D01*
X100558709Y-46945267D01*
X100342822Y-46774258D01*
X100167514Y-46648522D01*
X100051304Y-46581398D01*
X100012500Y-46583388D01*
X100055455Y-46651479D01*
X100149216Y-46744427D01*
X100230905Y-46827937D01*
X100236197Y-46862998D01*
X100235902Y-46863000D01*
X100244740Y-46896145D01*
X100331745Y-46977467D01*
X100350946Y-46992848D01*
X100467693Y-47077010D01*
X100532053Y-47108928D01*
X100534135Y-47108167D01*
X100586926Y-47137648D01*
X100697237Y-47228962D01*
X100742750Y-47270274D01*
X100893217Y-47399304D01*
X101023683Y-47494354D01*
X101044375Y-47506438D01*
X101141501Y-47544314D01*
X101147570Y-47508673D01*
G37*
X101147570Y-47508673D02*
X101068475Y-47408035D01*
X100910106Y-47250922D01*
X100796655Y-47148208D01*
X100558709Y-46945267D01*
X100342822Y-46774258D01*
X100167514Y-46648522D01*
X100051304Y-46581398D01*
X100012500Y-46583388D01*
X100055455Y-46651479D01*
X100149216Y-46744427D01*
X100230905Y-46827937D01*
X100236197Y-46862998D01*
X100235902Y-46863000D01*
X100244740Y-46896145D01*
X100331745Y-46977467D01*
X100350946Y-46992848D01*
X100467693Y-47077010D01*
X100532053Y-47108928D01*
X100534135Y-47108167D01*
X100586926Y-47137648D01*
X100697237Y-47228962D01*
X100742750Y-47270274D01*
X100893217Y-47399304D01*
X101023683Y-47494354D01*
X101044375Y-47506438D01*
X101141501Y-47544314D01*
X101147570Y-47508673D01*
G36*
X104601583Y-46523652D02*
G01*
X104603694Y-46502806D01*
X104504287Y-46494293D01*
X104489250Y-46494380D01*
X104390764Y-46503536D01*
X104400165Y-46522863D01*
X104411083Y-46526005D01*
X104549406Y-46535302D01*
X104601583Y-46523652D01*
G37*
X104601583Y-46523652D02*
X104603694Y-46502806D01*
X104504287Y-46494293D01*
X104489250Y-46494380D01*
X104390764Y-46503536D01*
X104400165Y-46522863D01*
X104411083Y-46526005D01*
X104549406Y-46535302D01*
X104601583Y-46523652D01*
G36*
X106039273Y-46532276D02*
G01*
X106031490Y-46473222D01*
X105996516Y-46425422D01*
X105955017Y-46473478D01*
X105931716Y-46566962D01*
X105943391Y-46592059D01*
X106006166Y-46602486D01*
X106039273Y-46532276D01*
G37*
X106039273Y-46532276D02*
X106031490Y-46473222D01*
X105996516Y-46425422D01*
X105955017Y-46473478D01*
X105931716Y-46566962D01*
X105943391Y-46592059D01*
X106006166Y-46602486D01*
X106039273Y-46532276D01*
G36*
X103568500Y-46386750D02*
G01*
X103536750Y-46355000D01*
X103505000Y-46386750D01*
X103536750Y-46418500D01*
X103568500Y-46386750D01*
G37*
X103568500Y-46386750D02*
X103536750Y-46355000D01*
X103505000Y-46386750D01*
X103536750Y-46418500D01*
X103568500Y-46386750D01*
G36*
X102307972Y-64003093D02*
G01*
X102672452Y-63912957D01*
X103050904Y-63786694D01*
X103410759Y-63632419D01*
X103424985Y-63625446D01*
X103787536Y-63416692D01*
X104147162Y-63156024D01*
X104483839Y-62863309D01*
X104777546Y-62558415D01*
X105008259Y-62261207D01*
X105155956Y-61991554D01*
X105192807Y-61871337D01*
X105255171Y-61738542D01*
X105392614Y-61544190D01*
X105586942Y-61312921D01*
X105678686Y-61213308D01*
X105884721Y-60981499D01*
X106067962Y-60750597D01*
X106201918Y-60555139D01*
X106245236Y-60474702D01*
X106332974Y-60215214D01*
X106401312Y-59897450D01*
X106441730Y-59575334D01*
X106445707Y-59302791D01*
X106439518Y-59245322D01*
X106414138Y-59119559D01*
X106379156Y-59104401D01*
X106331201Y-59160372D01*
X106274197Y-59224050D01*
X106253628Y-59183818D01*
X106251375Y-59097613D01*
X106269822Y-58958541D01*
X106306937Y-58891345D01*
X106351825Y-58811173D01*
X106363092Y-58683715D01*
X106343970Y-58562163D01*
X106297690Y-58499707D01*
X106283125Y-58499375D01*
X106219291Y-58460401D01*
X106203750Y-58388250D01*
X106230798Y-58290417D01*
X106269513Y-58272588D01*
X106309955Y-58222318D01*
X106339969Y-58080393D01*
X106348893Y-57970963D01*
X106353174Y-57784859D01*
X106332067Y-57692636D01*
X106266503Y-57661332D01*
X106167830Y-57658000D01*
X105990949Y-57639166D01*
X105819353Y-57571777D01*
X105621618Y-57439509D01*
X105410000Y-57264293D01*
X105142597Y-57029693D01*
X104955890Y-56860446D01*
X104833191Y-56740383D01*
X104757813Y-56653334D01*
X104719700Y-56595410D01*
X104659787Y-56524920D01*
X104581850Y-56555292D01*
X104552122Y-56579021D01*
X104403278Y-56682695D01*
X104307852Y-56736361D01*
X104191720Y-56845774D01*
X104151458Y-56945215D01*
X104084435Y-57058402D01*
X103944607Y-57085768D01*
X103763534Y-57025427D01*
X103682888Y-56959386D01*
X103609059Y-56840213D01*
X103532089Y-56646048D01*
X103442019Y-56355030D01*
X103415281Y-56261000D01*
X103275723Y-55874163D01*
X103095197Y-55584969D01*
X102856148Y-55366235D01*
X102822671Y-55343415D01*
X102433928Y-55161347D01*
X101979102Y-55082601D01*
X101468113Y-55108754D01*
X101406895Y-55118440D01*
X101147984Y-55169600D01*
X100965438Y-55232965D01*
X100809136Y-55332148D01*
X100641404Y-55479097D01*
X100377973Y-55786877D01*
X100127115Y-56199077D01*
X99902445Y-56693119D01*
X99889904Y-56725365D01*
X99819568Y-56850645D01*
X99710869Y-56888488D01*
X99620343Y-56884115D01*
X99519781Y-56866791D01*
X99447114Y-56821941D01*
X99384684Y-56724507D01*
X99314832Y-56549430D01*
X99248349Y-56356250D01*
X99147126Y-56064789D01*
X99039619Y-55769103D01*
X98947430Y-55528460D01*
X98939216Y-55508053D01*
X98801333Y-55167856D01*
X98965648Y-54952428D01*
X99085448Y-54818788D01*
X99187800Y-54743269D01*
X99212265Y-54737000D01*
X99316049Y-54698218D01*
X99441000Y-54610000D01*
X99561146Y-54519718D01*
X99641216Y-54483000D01*
X99697252Y-54449886D01*
X99674541Y-54380292D01*
X99592066Y-54318839D01*
X99568000Y-54310900D01*
X99464975Y-54256793D01*
X99441000Y-54212548D01*
X99381188Y-54178624D01*
X99209639Y-54174876D01*
X99070616Y-54186121D01*
X98813086Y-54198841D01*
X98655452Y-54162201D01*
X98575778Y-54062705D01*
X98552129Y-53886858D01*
X98552000Y-53867050D01*
X98575332Y-53707772D01*
X98647250Y-53657500D01*
X98731563Y-53612492D01*
X98742500Y-53573554D01*
X98803053Y-53520317D01*
X98972958Y-53471004D01*
X99234584Y-53427521D01*
X99570298Y-53391777D01*
X99962468Y-53365678D01*
X100393463Y-53351132D01*
X100812213Y-53349629D01*
X101200872Y-53351736D01*
X101480146Y-53345896D01*
X101667553Y-53329096D01*
X101780614Y-53298328D01*
X101836846Y-53250582D01*
X101853769Y-53182845D01*
X101854000Y-53170619D01*
X101817749Y-53102171D01*
X101706958Y-53109138D01*
X101540901Y-53103300D01*
X101343694Y-53031063D01*
X101341833Y-53030077D01*
X101124784Y-52939093D01*
X100889123Y-52873272D01*
X100869750Y-52869670D01*
X100677859Y-52832909D01*
X100525937Y-52798449D01*
X100504625Y-52792586D01*
X100401117Y-52776909D01*
X100389100Y-52807759D01*
X100451682Y-52865460D01*
X100571971Y-52930340D01*
X100647500Y-52959000D01*
X100804082Y-53021260D01*
X100893475Y-53077311D01*
X100901500Y-53092273D01*
X100844522Y-53134120D01*
X100699670Y-53170012D01*
X100506068Y-53194962D01*
X100302838Y-53203982D01*
X100129102Y-53192083D01*
X100124610Y-53191326D01*
X99782039Y-53128524D01*
X99549583Y-53074106D01*
X99411376Y-53020375D01*
X99351555Y-52959635D01*
X99354256Y-52884190D01*
X99378834Y-52829507D01*
X99435537Y-52695682D01*
X99409756Y-52650468D01*
X99338679Y-52667177D01*
X99266373Y-52672610D01*
X99276123Y-52602818D01*
X99281505Y-52528894D01*
X99195042Y-52530835D01*
X99188006Y-52532636D01*
X99061318Y-52535669D01*
X99026809Y-52475479D01*
X99091750Y-52387500D01*
X99155790Y-52300972D01*
X99154645Y-52259522D01*
X99184097Y-52199909D01*
X99295019Y-52110442D01*
X99349474Y-52076217D01*
X99522424Y-51989405D01*
X99659842Y-51946902D01*
X99734710Y-51953966D01*
X99729365Y-52002268D01*
X99757833Y-52016455D01*
X99871854Y-51984628D01*
X99948815Y-51954643D01*
X100104877Y-51885920D01*
X100158998Y-51838484D01*
X100126475Y-51784797D01*
X100069912Y-51736625D01*
X99903777Y-51648875D01*
X99767340Y-51620670D01*
X99559068Y-51591558D01*
X99362219Y-51526820D01*
X99214720Y-51442942D01*
X99154500Y-51356411D01*
X99154440Y-51354267D01*
X99128864Y-51238710D01*
X99109664Y-51209498D01*
X99106688Y-51125870D01*
X99163915Y-50975245D01*
X99262938Y-50790374D01*
X99385350Y-50604008D01*
X99512744Y-50448896D01*
X99564815Y-50399674D01*
X99750733Y-50285696D01*
X100014599Y-50200540D01*
X100236018Y-50156546D01*
X100483525Y-50107725D01*
X100604643Y-50063969D01*
X100599749Y-50022652D01*
X100469223Y-49981150D01*
X100266500Y-49944797D01*
X100036309Y-49900285D01*
X99820336Y-49844515D01*
X99776201Y-49830301D01*
X99639072Y-49768287D01*
X99597580Y-49689060D01*
X99610836Y-49597279D01*
X99676391Y-49427304D01*
X99773677Y-49257887D01*
X99852409Y-49108478D01*
X99836430Y-49008145D01*
X99830575Y-49000583D01*
X99789475Y-48876626D01*
X99796345Y-48795745D01*
X99775723Y-48658034D01*
X99674463Y-48519244D01*
X99531838Y-48414758D01*
X99387118Y-48379964D01*
X99345750Y-48389743D01*
X99222151Y-48440186D01*
X99209206Y-48237027D01*
X99223651Y-48037750D01*
X99288301Y-47652407D01*
X99394989Y-47271373D01*
X99529753Y-46936616D01*
X99667014Y-46704959D01*
X99787789Y-46521397D01*
X99810890Y-46409400D01*
X99736529Y-46359613D01*
X99674846Y-46355000D01*
X99584937Y-46374236D01*
X99516205Y-46450182D01*
X99449037Y-46610197D01*
X99413089Y-46720125D01*
X99323433Y-46968375D01*
X99200305Y-47262828D01*
X99075622Y-47528912D01*
X98968239Y-47748123D01*
X98905383Y-47909598D01*
X98879175Y-48059062D01*
X98881734Y-48242238D01*
X98899543Y-48441724D01*
X99222249Y-48441724D01*
X99345750Y-48447010D01*
X99428609Y-48460954D01*
X99393892Y-48502073D01*
X99379175Y-48511621D01*
X99278703Y-48533787D01*
X99222340Y-48443151D01*
X99222249Y-48441724D01*
X98899543Y-48441724D01*
X98905180Y-48504853D01*
X98905998Y-48513162D01*
X98922259Y-48736250D01*
X99187000Y-48736250D01*
X99218750Y-48704500D01*
X99250500Y-48736250D01*
X99218750Y-48768000D01*
X99187000Y-48736250D01*
X98922259Y-48736250D01*
X98942721Y-49016947D01*
X98950984Y-49474086D01*
X98931776Y-49865371D01*
X98886086Y-50171598D01*
X98814901Y-50373559D01*
X98809834Y-50381952D01*
X98706148Y-50556086D01*
X98560755Y-50811403D01*
X98388090Y-51121373D01*
X98202589Y-51459470D01*
X98018689Y-51799164D01*
X97850825Y-52113929D01*
X97713435Y-52377236D01*
X97620953Y-52562557D01*
X97607777Y-52590865D01*
X97492974Y-52895443D01*
X97385121Y-53273444D01*
X97298112Y-53671481D01*
X97264067Y-53890334D01*
X97557166Y-53890334D01*
X97565883Y-53852583D01*
X97599500Y-53848000D01*
X97651767Y-53871234D01*
X97641833Y-53890334D01*
X97566473Y-53897934D01*
X97557166Y-53890334D01*
X97264067Y-53890334D01*
X97255835Y-53943250D01*
X97192806Y-54165565D01*
X97094648Y-54284371D01*
X97081534Y-54296248D01*
X97282000Y-54296248D01*
X97328095Y-54231585D01*
X97345500Y-54229000D01*
X97407349Y-54250666D01*
X97409000Y-54257003D01*
X97364503Y-54311217D01*
X97345500Y-54324250D01*
X97286985Y-54319216D01*
X97282000Y-54296248D01*
X97081534Y-54296248D01*
X97008861Y-54362062D01*
X96964149Y-54435948D01*
X96974285Y-54471546D01*
X97028000Y-54451250D01*
X97081796Y-54466330D01*
X97091499Y-54514750D01*
X97536000Y-54514750D01*
X97567750Y-54483000D01*
X97599500Y-54514750D01*
X97567750Y-54546500D01*
X97536000Y-54514750D01*
X97091499Y-54514750D01*
X97091500Y-54514751D01*
X97059573Y-54582437D01*
X97018188Y-54572187D01*
X96975005Y-54564393D01*
X96992797Y-54604414D01*
X96987344Y-54701631D01*
X96966997Y-54725541D01*
X97160842Y-54725541D01*
X97206336Y-54681455D01*
X97218500Y-54673500D01*
X97314051Y-54618054D01*
X97343503Y-54634544D01*
X97344050Y-54645224D01*
X97501717Y-54645224D01*
X97594923Y-54611468D01*
X97599500Y-54610000D01*
X97721717Y-54570043D01*
X97770377Y-54552830D01*
X97808413Y-54589821D01*
X97821750Y-54610000D01*
X97796312Y-54652687D01*
X97668820Y-54667533D01*
X97650872Y-54667171D01*
X97517340Y-54660423D01*
X97501717Y-54645224D01*
X97344050Y-54645224D01*
X97345500Y-54673500D01*
X97293142Y-54726871D01*
X97234375Y-54736028D01*
X97160842Y-54725541D01*
X96966997Y-54725541D01*
X96923233Y-54776965D01*
X96850742Y-54859347D01*
X96859248Y-54870650D01*
X97218500Y-54870650D01*
X97279100Y-54801439D01*
X97455022Y-54761378D01*
X97663000Y-54751880D01*
X97885250Y-54752026D01*
X97694750Y-54795066D01*
X97585982Y-54822604D01*
X97572808Y-54843868D01*
X97666158Y-54870478D01*
X97790000Y-54896322D01*
X98075750Y-54954539D01*
X97734069Y-54976376D01*
X97454832Y-54982035D01*
X97287476Y-54954155D01*
X97220781Y-54890437D01*
X97218500Y-54870650D01*
X96859248Y-54870650D01*
X96885125Y-54905031D01*
X96960722Y-54973982D01*
X96927681Y-55037981D01*
X96850210Y-55054501D01*
X96685387Y-55100699D01*
X96485327Y-55219216D01*
X96289863Y-55379933D01*
X96138832Y-55552732D01*
X96097186Y-55623843D01*
X96024490Y-55792316D01*
X95929311Y-56033840D01*
X95830123Y-56301253D01*
X95812735Y-56350003D01*
X95713936Y-56602159D01*
X95611040Y-56821551D01*
X95522957Y-56968774D01*
X95506024Y-56989095D01*
X95400453Y-57185168D01*
X95377000Y-57356137D01*
X95376999Y-57585838D01*
X95853472Y-57691843D01*
X96084446Y-57748517D01*
X96262799Y-57802187D01*
X96355735Y-57842753D01*
X96361050Y-57848178D01*
X96357939Y-57933079D01*
X96312584Y-58084732D01*
X96289432Y-58143380D01*
X96231540Y-58364495D01*
X96220885Y-58457567D01*
X97333266Y-58457567D01*
X97370428Y-58351046D01*
X97475391Y-58274304D01*
X97653918Y-58190902D01*
X97861452Y-58116455D01*
X98053436Y-58066578D01*
X98185314Y-58056885D01*
X98199207Y-58060604D01*
X98290036Y-58066331D01*
X98309772Y-58048603D01*
X98392125Y-57967045D01*
X98554717Y-57869333D01*
X98756223Y-57776077D01*
X98955319Y-57707881D01*
X99024106Y-57692399D01*
X99338439Y-57653906D01*
X99659027Y-57644446D01*
X99959363Y-57661290D01*
X100212939Y-57701708D01*
X100393250Y-57762973D01*
X100473603Y-57841633D01*
X100561568Y-57939704D01*
X100760971Y-58023020D01*
X101056684Y-58087314D01*
X101433578Y-58128317D01*
X101505189Y-58132695D01*
X101755687Y-58150519D01*
X101968324Y-58173033D01*
X102100813Y-58195665D01*
X102108403Y-58197878D01*
X102256104Y-58185594D01*
X102456391Y-58083516D01*
X102469994Y-58074396D01*
X102644275Y-57974201D01*
X102796988Y-57916195D01*
X102837115Y-57910550D01*
X102960973Y-57894479D01*
X103164027Y-57853668D01*
X103402963Y-57796848D01*
X103409750Y-57795111D01*
X103652514Y-57725475D01*
X103793113Y-57663148D01*
X103854880Y-57595957D01*
X103863375Y-57558436D01*
X103874625Y-57412844D01*
X103879250Y-57356375D01*
X103930360Y-57282448D01*
X103956383Y-57277000D01*
X103998354Y-57330315D01*
X103992633Y-57382834D01*
X104669166Y-57382834D01*
X104677883Y-57345083D01*
X104711500Y-57340500D01*
X104763767Y-57363734D01*
X104753833Y-57382834D01*
X104678473Y-57390434D01*
X104669166Y-57382834D01*
X103992633Y-57382834D01*
X103985138Y-57451625D01*
X103916834Y-57629612D01*
X103814719Y-57804778D01*
X103724756Y-57991404D01*
X103710772Y-58070750D01*
X105092500Y-58070750D01*
X105124250Y-58039000D01*
X105156000Y-58070750D01*
X105124250Y-58102500D01*
X105092500Y-58070750D01*
X103710772Y-58070750D01*
X103690499Y-58185778D01*
X103692952Y-58293000D01*
X105156000Y-58293000D01*
X105168414Y-58189649D01*
X105185515Y-58166000D01*
X105234711Y-58214610D01*
X105267158Y-58267284D01*
X105474894Y-58267284D01*
X105478449Y-58155541D01*
X105496108Y-58135774D01*
X105541657Y-58216695D01*
X105601894Y-58347560D01*
X105675635Y-58516716D01*
X105720813Y-58633159D01*
X105727500Y-58659027D01*
X105687933Y-58648298D01*
X105600500Y-58578750D01*
X105498815Y-58413652D01*
X105474894Y-58267284D01*
X105267158Y-58267284D01*
X105283000Y-58293000D01*
X105318415Y-58390660D01*
X105267648Y-58419667D01*
X105253484Y-58420000D01*
X105173444Y-58366938D01*
X105156000Y-58293000D01*
X103692952Y-58293000D01*
X103707316Y-58920807D01*
X105099424Y-58920807D01*
X105112134Y-58851365D01*
X105114904Y-58843432D01*
X105153824Y-58707136D01*
X105163366Y-58652932D01*
X105181100Y-58640349D01*
X105201071Y-58696620D01*
X105189723Y-58830605D01*
X105152609Y-58887120D01*
X105099424Y-58920807D01*
X103707316Y-58920807D01*
X103707740Y-58939300D01*
X103716362Y-59298417D01*
X104267000Y-59298417D01*
X104283158Y-59062236D01*
X104332542Y-58944244D01*
X104373439Y-58928000D01*
X104381648Y-58984581D01*
X104377511Y-59127905D01*
X104373649Y-59182000D01*
X105219500Y-59182000D01*
X105242733Y-59129733D01*
X105261833Y-59139667D01*
X105266102Y-59182000D01*
X105864526Y-59182000D01*
X105874505Y-59091854D01*
X105896554Y-59102625D01*
X105904941Y-59232632D01*
X105896554Y-59261375D01*
X105873377Y-59269353D01*
X105864526Y-59182000D01*
X105266102Y-59182000D01*
X105269433Y-59215027D01*
X105261833Y-59224334D01*
X105224082Y-59215617D01*
X105219500Y-59182000D01*
X104373649Y-59182000D01*
X104371223Y-59215967D01*
X104363478Y-59277250D01*
X104838500Y-59277250D01*
X104870250Y-59245500D01*
X104902000Y-59277250D01*
X104870250Y-59309000D01*
X104838500Y-59277250D01*
X104363478Y-59277250D01*
X104344938Y-59423931D01*
X104340757Y-59437993D01*
X105092500Y-59437993D01*
X105139045Y-59403055D01*
X105187750Y-59413037D01*
X105271301Y-59458109D01*
X105283000Y-59474544D01*
X105231147Y-59496742D01*
X105187750Y-59499500D01*
X105103230Y-59466269D01*
X105092500Y-59437993D01*
X104340757Y-59437993D01*
X104314139Y-59527506D01*
X104286386Y-59520711D01*
X104269242Y-59397562D01*
X104267000Y-59298417D01*
X103716362Y-59298417D01*
X103723020Y-59575675D01*
X103726991Y-59727042D01*
X104272013Y-59727042D01*
X104283688Y-59644682D01*
X104305364Y-59643698D01*
X104307959Y-59658250D01*
X106172000Y-59658250D01*
X106203750Y-59626500D01*
X106235500Y-59658250D01*
X106203750Y-59690000D01*
X106172000Y-59658250D01*
X104307959Y-59658250D01*
X104320523Y-59728686D01*
X104310377Y-59765407D01*
X104282181Y-59789459D01*
X104272013Y-59727042D01*
X103726991Y-59727042D01*
X103736902Y-60104732D01*
X103749952Y-60536297D01*
X103762733Y-60880198D01*
X103775809Y-61146264D01*
X103789746Y-61344322D01*
X103805107Y-61484201D01*
X103822456Y-61575727D01*
X103842358Y-61628729D01*
X103865377Y-61653035D01*
X103889890Y-61658500D01*
X103949212Y-61691141D01*
X103921360Y-61766309D01*
X103820418Y-61849871D01*
X103808118Y-61856697D01*
X103454749Y-61985435D01*
X103011899Y-62045746D01*
X102848966Y-62049947D01*
X102587969Y-62040096D01*
X102450541Y-62009367D01*
X102434862Y-61957049D01*
X102490838Y-61910020D01*
X102530249Y-61867616D01*
X102457830Y-61851095D01*
X102409625Y-61849973D01*
X102276641Y-61824967D01*
X102235356Y-61768604D01*
X102301761Y-61705970D01*
X102314375Y-61700555D01*
X102341702Y-61672222D01*
X102289883Y-61663514D01*
X102158892Y-61631490D01*
X102017426Y-61571035D01*
X101908733Y-61506189D01*
X101905663Y-61465061D01*
X101962543Y-61435129D01*
X102016090Y-61397726D01*
X101967975Y-61361873D01*
X101854000Y-61327205D01*
X101652028Y-61280002D01*
X101406373Y-61231494D01*
X101314250Y-61215526D01*
X100970828Y-61147988D01*
X100628509Y-61061365D01*
X100313077Y-60964238D01*
X100050317Y-60865188D01*
X99866011Y-60772797D01*
X99792062Y-60708934D01*
X99713402Y-60653951D01*
X99562687Y-60589323D01*
X99519490Y-60574514D01*
X99241481Y-60436425D01*
X98948451Y-60212045D01*
X98673327Y-59932686D01*
X98449035Y-59629658D01*
X98365208Y-59476888D01*
X98192166Y-59167124D01*
X98023500Y-58979116D01*
X97853221Y-58908043D01*
X97696602Y-58938710D01*
X97549048Y-58977079D01*
X97447609Y-58922107D01*
X97374862Y-58759826D01*
X97349617Y-58660508D01*
X97333266Y-58457567D01*
X96220885Y-58457567D01*
X96195986Y-58675051D01*
X96181806Y-59042031D01*
X96188035Y-59432423D01*
X96213708Y-59813211D01*
X96257861Y-60151383D01*
X96319528Y-60413923D01*
X96358601Y-60510378D01*
X96639849Y-60992486D01*
X96931605Y-61414679D01*
X99190531Y-61414679D01*
X99217729Y-61414963D01*
X99271568Y-61431456D01*
X99339403Y-61446834D01*
X100541666Y-61446834D01*
X100550383Y-61409083D01*
X100584000Y-61404500D01*
X100636267Y-61427734D01*
X100626333Y-61446834D01*
X100550973Y-61454434D01*
X100541666Y-61446834D01*
X99339403Y-61446834D01*
X99410803Y-61463020D01*
X99465806Y-61468000D01*
X99574161Y-61503665D01*
X99666988Y-61561204D01*
X99738681Y-61620771D01*
X99715774Y-61630744D01*
X99588556Y-61598729D01*
X99408371Y-61536123D01*
X99271056Y-61468981D01*
X99190531Y-61414679D01*
X96931605Y-61414679D01*
X97000878Y-61514922D01*
X97105140Y-61647641D01*
X100034096Y-61647641D01*
X100051844Y-61611579D01*
X100076000Y-61595000D01*
X100201152Y-61547016D01*
X100339130Y-61534644D01*
X100438016Y-61558607D01*
X100457000Y-61589709D01*
X100407410Y-61663650D01*
X100377625Y-61679946D01*
X100391857Y-61697295D01*
X100507416Y-61710912D01*
X100679250Y-61717379D01*
X100887228Y-61721729D01*
X100983764Y-61732373D01*
X100984410Y-61757141D01*
X100904713Y-61803861D01*
X100878366Y-61817642D01*
X100712592Y-61874937D01*
X100510998Y-61907139D01*
X100322589Y-61910508D01*
X100196373Y-61881309D01*
X100182384Y-61870718D01*
X100180603Y-61794364D01*
X100211326Y-61743718D01*
X100239680Y-61679660D01*
X100162509Y-61658246D01*
X100131400Y-61657528D01*
X100034096Y-61647641D01*
X97105140Y-61647641D01*
X97266575Y-61853135D01*
X99075568Y-61853135D01*
X99084254Y-61849000D01*
X99113712Y-61871725D01*
X99468654Y-61871725D01*
X99542342Y-61875813D01*
X99599750Y-61887755D01*
X99741984Y-61924528D01*
X99816679Y-61953158D01*
X99816708Y-61953183D01*
X99809084Y-61977343D01*
X99725329Y-61974917D01*
X99611928Y-61952396D01*
X99515368Y-61916268D01*
X99504500Y-61909599D01*
X99468654Y-61871725D01*
X99113712Y-61871725D01*
X99142203Y-61893703D01*
X99155250Y-61912500D01*
X99171431Y-61971866D01*
X99162745Y-61976000D01*
X99104796Y-61931298D01*
X99091750Y-61912500D01*
X99075568Y-61853135D01*
X97266575Y-61853135D01*
X97388039Y-62007750D01*
X99250500Y-62007750D01*
X99282250Y-61976000D01*
X99314000Y-62007750D01*
X99282250Y-62039500D01*
X99250500Y-62007750D01*
X97388039Y-62007750D01*
X97417436Y-62045169D01*
X97483606Y-62119866D01*
X99663250Y-62119866D01*
X99980750Y-62143974D01*
X100156295Y-62152268D01*
X100215058Y-62140076D01*
X100171250Y-62108254D01*
X100141550Y-62077366D01*
X100218969Y-62059766D01*
X100411640Y-62054215D01*
X100520500Y-62055058D01*
X100714508Y-62060639D01*
X100800878Y-62069748D01*
X100771511Y-62081170D01*
X100726875Y-62085996D01*
X100568372Y-62115749D01*
X100470832Y-62160833D01*
X100452718Y-62204386D01*
X100532495Y-62229546D01*
X100568125Y-62230973D01*
X100717680Y-62267613D01*
X100774500Y-62298581D01*
X100784313Y-62334263D01*
X100698414Y-62348856D01*
X100545844Y-62345034D01*
X100355647Y-62325471D01*
X100156868Y-62292840D01*
X99978548Y-62249816D01*
X99885500Y-62216733D01*
X99663250Y-62119866D01*
X97483606Y-62119866D01*
X97602014Y-62253532D01*
X99465522Y-62253532D01*
X99495084Y-62232335D01*
X99497653Y-62232251D01*
X99598889Y-62248629D01*
X99783262Y-62293886D01*
X100012818Y-62358620D01*
X100037403Y-62365984D01*
X100271188Y-62446596D01*
X100385998Y-62506483D01*
X100382521Y-62538010D01*
X100261447Y-62533540D01*
X100026557Y-62486191D01*
X99836235Y-62430730D01*
X99662012Y-62365172D01*
X99529803Y-62301959D01*
X99465522Y-62253532D01*
X97602014Y-62253532D01*
X97865271Y-62550711D01*
X97934024Y-62622795D01*
X97954907Y-62642750D01*
X100393500Y-62642750D01*
X100425250Y-62611000D01*
X100457000Y-62642750D01*
X100425250Y-62674500D01*
X100393500Y-62642750D01*
X97954907Y-62642750D01*
X98110968Y-62791874D01*
X99845455Y-62791874D01*
X99852793Y-62763245D01*
X99951269Y-62718689D01*
X100056184Y-62678964D01*
X100119024Y-62689887D01*
X100272206Y-62722813D01*
X100478784Y-62769750D01*
X103251000Y-62769750D01*
X103282750Y-62738000D01*
X103314500Y-62769750D01*
X103282750Y-62801500D01*
X103251000Y-62769750D01*
X100478784Y-62769750D01*
X100480818Y-62770212D01*
X100711549Y-62826280D01*
X100904493Y-62877699D01*
X100958218Y-62894447D01*
X103400742Y-62894447D01*
X103436375Y-62839426D01*
X103475411Y-62752996D01*
X103460025Y-62722833D01*
X103458890Y-62708927D01*
X103489125Y-62714665D01*
X103562037Y-62704822D01*
X103568544Y-62688383D01*
X103622982Y-62650518D01*
X103722612Y-62633884D01*
X103834484Y-62650024D01*
X103842773Y-62713259D01*
X103758431Y-62788368D01*
X103692453Y-62801500D01*
X103573735Y-62832280D01*
X103536750Y-62865000D01*
X103449455Y-62926183D01*
X103429977Y-62928500D01*
X103400742Y-62894447D01*
X100958218Y-62894447D01*
X101008633Y-62910163D01*
X101076307Y-62946490D01*
X101057857Y-62960250D01*
X102616000Y-62960250D01*
X102647750Y-62928500D01*
X102679500Y-62960250D01*
X102647750Y-62992000D01*
X102616000Y-62960250D01*
X101057857Y-62960250D01*
X101034774Y-62977464D01*
X100965000Y-62998622D01*
X100851975Y-63023750D01*
X102489000Y-63023750D01*
X102520750Y-62992000D01*
X102552500Y-63023750D01*
X102520750Y-63055500D01*
X102489000Y-63023750D01*
X100851975Y-63023750D01*
X100790838Y-63037342D01*
X100662590Y-63048774D01*
X100608157Y-63032776D01*
X100636226Y-63000312D01*
X100634905Y-62962147D01*
X100512675Y-62926661D01*
X100371754Y-62906114D01*
X100155201Y-62875419D01*
X99978390Y-62841202D01*
X99911420Y-62822227D01*
X99845455Y-62791874D01*
X98110968Y-62791874D01*
X98125555Y-62805812D01*
X98330084Y-62962654D01*
X98377884Y-62991746D01*
X99388985Y-62991746D01*
X99407616Y-62961328D01*
X99472750Y-62933588D01*
X99603514Y-62899905D01*
X99663250Y-62901384D01*
X99749943Y-62923255D01*
X99928959Y-62966080D01*
X100168845Y-63022379D01*
X100298250Y-63052424D01*
X100653531Y-63134332D01*
X100898638Y-63192291D01*
X100966307Y-63210684D01*
X101295671Y-63210684D01*
X101371995Y-63200161D01*
X101441250Y-63198514D01*
X101571938Y-63203625D01*
X101605669Y-63218015D01*
X101584865Y-63226130D01*
X101432374Y-63237958D01*
X101330865Y-63227412D01*
X101295671Y-63210684D01*
X100966307Y-63210684D01*
X101046754Y-63232550D01*
X101111060Y-63261362D01*
X101104740Y-63284977D01*
X101096063Y-63288334D01*
X101748166Y-63288334D01*
X101756883Y-63250583D01*
X101790500Y-63246000D01*
X101842767Y-63269234D01*
X101832833Y-63288334D01*
X101757473Y-63295934D01*
X101748166Y-63288334D01*
X101096063Y-63288334D01*
X101040976Y-63309646D01*
X100946249Y-63337684D01*
X101295671Y-63337684D01*
X101371995Y-63327161D01*
X101441250Y-63325514D01*
X101571938Y-63330625D01*
X101605669Y-63345015D01*
X101584865Y-63353130D01*
X101432374Y-63364958D01*
X101330865Y-63354412D01*
X101295671Y-63337684D01*
X100946249Y-63337684D01*
X100932951Y-63341620D01*
X100917788Y-63346200D01*
X100727188Y-63390248D01*
X100545289Y-63391109D01*
X100311214Y-63348350D01*
X100282788Y-63341704D01*
X100048706Y-63286951D01*
X99838146Y-63238762D01*
X99740027Y-63216994D01*
X99624408Y-63173800D01*
X99596438Y-63124358D01*
X99571513Y-63067622D01*
X99487910Y-63027269D01*
X99388985Y-62991746D01*
X98377884Y-62991746D01*
X98580342Y-63114963D01*
X98909059Y-63284381D01*
X99004359Y-63330518D01*
X99448637Y-63531750D01*
X100203000Y-63531750D01*
X100234750Y-63500000D01*
X100266500Y-63531750D01*
X100234750Y-63563500D01*
X100203000Y-63531750D01*
X99448637Y-63531750D01*
X99552253Y-63578682D01*
X101500541Y-63578682D01*
X101562958Y-63568514D01*
X101645318Y-63580189D01*
X101646302Y-63601865D01*
X101561314Y-63617024D01*
X101524593Y-63606878D01*
X101500541Y-63578682D01*
X99552253Y-63578682D01*
X99564085Y-63584041D01*
X100025092Y-63760051D01*
X100386842Y-63858363D01*
X100595525Y-63881001D01*
X100724244Y-63898396D01*
X100774500Y-63937675D01*
X100832267Y-63968108D01*
X100982680Y-63990736D01*
X101163654Y-63999827D01*
X101410964Y-64009037D01*
X101637369Y-64026985D01*
X101751202Y-64042524D01*
X101990032Y-64048988D01*
X102307972Y-64003093D01*
G37*
X102307972Y-64003093D02*
X102672452Y-63912957D01*
X103050904Y-63786694D01*
X103410759Y-63632419D01*
X103424985Y-63625446D01*
X103787536Y-63416692D01*
X104147162Y-63156024D01*
X104483839Y-62863309D01*
X104777546Y-62558415D01*
X105008259Y-62261207D01*
X105155956Y-61991554D01*
X105192807Y-61871337D01*
X105255171Y-61738542D01*
X105392614Y-61544190D01*
X105586942Y-61312921D01*
X105678686Y-61213308D01*
X105884721Y-60981499D01*
X106067962Y-60750597D01*
X106201918Y-60555139D01*
X106245236Y-60474702D01*
X106332974Y-60215214D01*
X106401312Y-59897450D01*
X106441730Y-59575334D01*
X106445707Y-59302791D01*
X106439518Y-59245322D01*
X106414138Y-59119559D01*
X106379156Y-59104401D01*
X106331201Y-59160372D01*
X106274197Y-59224050D01*
X106253628Y-59183818D01*
X106251375Y-59097613D01*
X106269822Y-58958541D01*
X106306937Y-58891345D01*
X106351825Y-58811173D01*
X106363092Y-58683715D01*
X106343970Y-58562163D01*
X106297690Y-58499707D01*
X106283125Y-58499375D01*
X106219291Y-58460401D01*
X106203750Y-58388250D01*
X106230798Y-58290417D01*
X106269513Y-58272588D01*
X106309955Y-58222318D01*
X106339969Y-58080393D01*
X106348893Y-57970963D01*
X106353174Y-57784859D01*
X106332067Y-57692636D01*
X106266503Y-57661332D01*
X106167830Y-57658000D01*
X105990949Y-57639166D01*
X105819353Y-57571777D01*
X105621618Y-57439509D01*
X105410000Y-57264293D01*
X105142597Y-57029693D01*
X104955890Y-56860446D01*
X104833191Y-56740383D01*
X104757813Y-56653334D01*
X104719700Y-56595410D01*
X104659787Y-56524920D01*
X104581850Y-56555292D01*
X104552122Y-56579021D01*
X104403278Y-56682695D01*
X104307852Y-56736361D01*
X104191720Y-56845774D01*
X104151458Y-56945215D01*
X104084435Y-57058402D01*
X103944607Y-57085768D01*
X103763534Y-57025427D01*
X103682888Y-56959386D01*
X103609059Y-56840213D01*
X103532089Y-56646048D01*
X103442019Y-56355030D01*
X103415281Y-56261000D01*
X103275723Y-55874163D01*
X103095197Y-55584969D01*
X102856148Y-55366235D01*
X102822671Y-55343415D01*
X102433928Y-55161347D01*
X101979102Y-55082601D01*
X101468113Y-55108754D01*
X101406895Y-55118440D01*
X101147984Y-55169600D01*
X100965438Y-55232965D01*
X100809136Y-55332148D01*
X100641404Y-55479097D01*
X100377973Y-55786877D01*
X100127115Y-56199077D01*
X99902445Y-56693119D01*
X99889904Y-56725365D01*
X99819568Y-56850645D01*
X99710869Y-56888488D01*
X99620343Y-56884115D01*
X99519781Y-56866791D01*
X99447114Y-56821941D01*
X99384684Y-56724507D01*
X99314832Y-56549430D01*
X99248349Y-56356250D01*
X99147126Y-56064789D01*
X99039619Y-55769103D01*
X98947430Y-55528460D01*
X98939216Y-55508053D01*
X98801333Y-55167856D01*
X98965648Y-54952428D01*
X99085448Y-54818788D01*
X99187800Y-54743269D01*
X99212265Y-54737000D01*
X99316049Y-54698218D01*
X99441000Y-54610000D01*
X99561146Y-54519718D01*
X99641216Y-54483000D01*
X99697252Y-54449886D01*
X99674541Y-54380292D01*
X99592066Y-54318839D01*
X99568000Y-54310900D01*
X99464975Y-54256793D01*
X99441000Y-54212548D01*
X99381188Y-54178624D01*
X99209639Y-54174876D01*
X99070616Y-54186121D01*
X98813086Y-54198841D01*
X98655452Y-54162201D01*
X98575778Y-54062705D01*
X98552129Y-53886858D01*
X98552000Y-53867050D01*
X98575332Y-53707772D01*
X98647250Y-53657500D01*
X98731563Y-53612492D01*
X98742500Y-53573554D01*
X98803053Y-53520317D01*
X98972958Y-53471004D01*
X99234584Y-53427521D01*
X99570298Y-53391777D01*
X99962468Y-53365678D01*
X100393463Y-53351132D01*
X100812213Y-53349629D01*
X101200872Y-53351736D01*
X101480146Y-53345896D01*
X101667553Y-53329096D01*
X101780614Y-53298328D01*
X101836846Y-53250582D01*
X101853769Y-53182845D01*
X101854000Y-53170619D01*
X101817749Y-53102171D01*
X101706958Y-53109138D01*
X101540901Y-53103300D01*
X101343694Y-53031063D01*
X101341833Y-53030077D01*
X101124784Y-52939093D01*
X100889123Y-52873272D01*
X100869750Y-52869670D01*
X100677859Y-52832909D01*
X100525937Y-52798449D01*
X100504625Y-52792586D01*
X100401117Y-52776909D01*
X100389100Y-52807759D01*
X100451682Y-52865460D01*
X100571971Y-52930340D01*
X100647500Y-52959000D01*
X100804082Y-53021260D01*
X100893475Y-53077311D01*
X100901500Y-53092273D01*
X100844522Y-53134120D01*
X100699670Y-53170012D01*
X100506068Y-53194962D01*
X100302838Y-53203982D01*
X100129102Y-53192083D01*
X100124610Y-53191326D01*
X99782039Y-53128524D01*
X99549583Y-53074106D01*
X99411376Y-53020375D01*
X99351555Y-52959635D01*
X99354256Y-52884190D01*
X99378834Y-52829507D01*
X99435537Y-52695682D01*
X99409756Y-52650468D01*
X99338679Y-52667177D01*
X99266373Y-52672610D01*
X99276123Y-52602818D01*
X99281505Y-52528894D01*
X99195042Y-52530835D01*
X99188006Y-52532636D01*
X99061318Y-52535669D01*
X99026809Y-52475479D01*
X99091750Y-52387500D01*
X99155790Y-52300972D01*
X99154645Y-52259522D01*
X99184097Y-52199909D01*
X99295019Y-52110442D01*
X99349474Y-52076217D01*
X99522424Y-51989405D01*
X99659842Y-51946902D01*
X99734710Y-51953966D01*
X99729365Y-52002268D01*
X99757833Y-52016455D01*
X99871854Y-51984628D01*
X99948815Y-51954643D01*
X100104877Y-51885920D01*
X100158998Y-51838484D01*
X100126475Y-51784797D01*
X100069912Y-51736625D01*
X99903777Y-51648875D01*
X99767340Y-51620670D01*
X99559068Y-51591558D01*
X99362219Y-51526820D01*
X99214720Y-51442942D01*
X99154500Y-51356411D01*
X99154440Y-51354267D01*
X99128864Y-51238710D01*
X99109664Y-51209498D01*
X99106688Y-51125870D01*
X99163915Y-50975245D01*
X99262938Y-50790374D01*
X99385350Y-50604008D01*
X99512744Y-50448896D01*
X99564815Y-50399674D01*
X99750733Y-50285696D01*
X100014599Y-50200540D01*
X100236018Y-50156546D01*
X100483525Y-50107725D01*
X100604643Y-50063969D01*
X100599749Y-50022652D01*
X100469223Y-49981150D01*
X100266500Y-49944797D01*
X100036309Y-49900285D01*
X99820336Y-49844515D01*
X99776201Y-49830301D01*
X99639072Y-49768287D01*
X99597580Y-49689060D01*
X99610836Y-49597279D01*
X99676391Y-49427304D01*
X99773677Y-49257887D01*
X99852409Y-49108478D01*
X99836430Y-49008145D01*
X99830575Y-49000583D01*
X99789475Y-48876626D01*
X99796345Y-48795745D01*
X99775723Y-48658034D01*
X99674463Y-48519244D01*
X99531838Y-48414758D01*
X99387118Y-48379964D01*
X99345750Y-48389743D01*
X99222151Y-48440186D01*
X99209206Y-48237027D01*
X99223651Y-48037750D01*
X99288301Y-47652407D01*
X99394989Y-47271373D01*
X99529753Y-46936616D01*
X99667014Y-46704959D01*
X99787789Y-46521397D01*
X99810890Y-46409400D01*
X99736529Y-46359613D01*
X99674846Y-46355000D01*
X99584937Y-46374236D01*
X99516205Y-46450182D01*
X99449037Y-46610197D01*
X99413089Y-46720125D01*
X99323433Y-46968375D01*
X99200305Y-47262828D01*
X99075622Y-47528912D01*
X98968239Y-47748123D01*
X98905383Y-47909598D01*
X98879175Y-48059062D01*
X98881734Y-48242238D01*
X98899543Y-48441724D01*
X99222249Y-48441724D01*
X99345750Y-48447010D01*
X99428609Y-48460954D01*
X99393892Y-48502073D01*
X99379175Y-48511621D01*
X99278703Y-48533787D01*
X99222340Y-48443151D01*
X99222249Y-48441724D01*
X98899543Y-48441724D01*
X98905180Y-48504853D01*
X98905998Y-48513162D01*
X98922259Y-48736250D01*
X99187000Y-48736250D01*
X99218750Y-48704500D01*
X99250500Y-48736250D01*
X99218750Y-48768000D01*
X99187000Y-48736250D01*
X98922259Y-48736250D01*
X98942721Y-49016947D01*
X98950984Y-49474086D01*
X98931776Y-49865371D01*
X98886086Y-50171598D01*
X98814901Y-50373559D01*
X98809834Y-50381952D01*
X98706148Y-50556086D01*
X98560755Y-50811403D01*
X98388090Y-51121373D01*
X98202589Y-51459470D01*
X98018689Y-51799164D01*
X97850825Y-52113929D01*
X97713435Y-52377236D01*
X97620953Y-52562557D01*
X97607777Y-52590865D01*
X97492974Y-52895443D01*
X97385121Y-53273444D01*
X97298112Y-53671481D01*
X97264067Y-53890334D01*
X97557166Y-53890334D01*
X97565883Y-53852583D01*
X97599500Y-53848000D01*
X97651767Y-53871234D01*
X97641833Y-53890334D01*
X97566473Y-53897934D01*
X97557166Y-53890334D01*
X97264067Y-53890334D01*
X97255835Y-53943250D01*
X97192806Y-54165565D01*
X97094648Y-54284371D01*
X97081534Y-54296248D01*
X97282000Y-54296248D01*
X97328095Y-54231585D01*
X97345500Y-54229000D01*
X97407349Y-54250666D01*
X97409000Y-54257003D01*
X97364503Y-54311217D01*
X97345500Y-54324250D01*
X97286985Y-54319216D01*
X97282000Y-54296248D01*
X97081534Y-54296248D01*
X97008861Y-54362062D01*
X96964149Y-54435948D01*
X96974285Y-54471546D01*
X97028000Y-54451250D01*
X97081796Y-54466330D01*
X97091499Y-54514750D01*
X97536000Y-54514750D01*
X97567750Y-54483000D01*
X97599500Y-54514750D01*
X97567750Y-54546500D01*
X97536000Y-54514750D01*
X97091499Y-54514750D01*
X97091500Y-54514751D01*
X97059573Y-54582437D01*
X97018188Y-54572187D01*
X96975005Y-54564393D01*
X96992797Y-54604414D01*
X96987344Y-54701631D01*
X96966997Y-54725541D01*
X97160842Y-54725541D01*
X97206336Y-54681455D01*
X97218500Y-54673500D01*
X97314051Y-54618054D01*
X97343503Y-54634544D01*
X97344050Y-54645224D01*
X97501717Y-54645224D01*
X97594923Y-54611468D01*
X97599500Y-54610000D01*
X97721717Y-54570043D01*
X97770377Y-54552830D01*
X97808413Y-54589821D01*
X97821750Y-54610000D01*
X97796312Y-54652687D01*
X97668820Y-54667533D01*
X97650872Y-54667171D01*
X97517340Y-54660423D01*
X97501717Y-54645224D01*
X97344050Y-54645224D01*
X97345500Y-54673500D01*
X97293142Y-54726871D01*
X97234375Y-54736028D01*
X97160842Y-54725541D01*
X96966997Y-54725541D01*
X96923233Y-54776965D01*
X96850742Y-54859347D01*
X96859248Y-54870650D01*
X97218500Y-54870650D01*
X97279100Y-54801439D01*
X97455022Y-54761378D01*
X97663000Y-54751880D01*
X97885250Y-54752026D01*
X97694750Y-54795066D01*
X97585982Y-54822604D01*
X97572808Y-54843868D01*
X97666158Y-54870478D01*
X97790000Y-54896322D01*
X98075750Y-54954539D01*
X97734069Y-54976376D01*
X97454832Y-54982035D01*
X97287476Y-54954155D01*
X97220781Y-54890437D01*
X97218500Y-54870650D01*
X96859248Y-54870650D01*
X96885125Y-54905031D01*
X96960722Y-54973982D01*
X96927681Y-55037981D01*
X96850210Y-55054501D01*
X96685387Y-55100699D01*
X96485327Y-55219216D01*
X96289863Y-55379933D01*
X96138832Y-55552732D01*
X96097186Y-55623843D01*
X96024490Y-55792316D01*
X95929311Y-56033840D01*
X95830123Y-56301253D01*
X95812735Y-56350003D01*
X95713936Y-56602159D01*
X95611040Y-56821551D01*
X95522957Y-56968774D01*
X95506024Y-56989095D01*
X95400453Y-57185168D01*
X95377000Y-57356137D01*
X95376999Y-57585838D01*
X95853472Y-57691843D01*
X96084446Y-57748517D01*
X96262799Y-57802187D01*
X96355735Y-57842753D01*
X96361050Y-57848178D01*
X96357939Y-57933079D01*
X96312584Y-58084732D01*
X96289432Y-58143380D01*
X96231540Y-58364495D01*
X96220885Y-58457567D01*
X97333266Y-58457567D01*
X97370428Y-58351046D01*
X97475391Y-58274304D01*
X97653918Y-58190902D01*
X97861452Y-58116455D01*
X98053436Y-58066578D01*
X98185314Y-58056885D01*
X98199207Y-58060604D01*
X98290036Y-58066331D01*
X98309772Y-58048603D01*
X98392125Y-57967045D01*
X98554717Y-57869333D01*
X98756223Y-57776077D01*
X98955319Y-57707881D01*
X99024106Y-57692399D01*
X99338439Y-57653906D01*
X99659027Y-57644446D01*
X99959363Y-57661290D01*
X100212939Y-57701708D01*
X100393250Y-57762973D01*
X100473603Y-57841633D01*
X100561568Y-57939704D01*
X100760971Y-58023020D01*
X101056684Y-58087314D01*
X101433578Y-58128317D01*
X101505189Y-58132695D01*
X101755687Y-58150519D01*
X101968324Y-58173033D01*
X102100813Y-58195665D01*
X102108403Y-58197878D01*
X102256104Y-58185594D01*
X102456391Y-58083516D01*
X102469994Y-58074396D01*
X102644275Y-57974201D01*
X102796988Y-57916195D01*
X102837115Y-57910550D01*
X102960973Y-57894479D01*
X103164027Y-57853668D01*
X103402963Y-57796848D01*
X103409750Y-57795111D01*
X103652514Y-57725475D01*
X103793113Y-57663148D01*
X103854880Y-57595957D01*
X103863375Y-57558436D01*
X103874625Y-57412844D01*
X103879250Y-57356375D01*
X103930360Y-57282448D01*
X103956383Y-57277000D01*
X103998354Y-57330315D01*
X103992633Y-57382834D01*
X104669166Y-57382834D01*
X104677883Y-57345083D01*
X104711500Y-57340500D01*
X104763767Y-57363734D01*
X104753833Y-57382834D01*
X104678473Y-57390434D01*
X104669166Y-57382834D01*
X103992633Y-57382834D01*
X103985138Y-57451625D01*
X103916834Y-57629612D01*
X103814719Y-57804778D01*
X103724756Y-57991404D01*
X103710772Y-58070750D01*
X105092500Y-58070750D01*
X105124250Y-58039000D01*
X105156000Y-58070750D01*
X105124250Y-58102500D01*
X105092500Y-58070750D01*
X103710772Y-58070750D01*
X103690499Y-58185778D01*
X103692952Y-58293000D01*
X105156000Y-58293000D01*
X105168414Y-58189649D01*
X105185515Y-58166000D01*
X105234711Y-58214610D01*
X105267158Y-58267284D01*
X105474894Y-58267284D01*
X105478449Y-58155541D01*
X105496108Y-58135774D01*
X105541657Y-58216695D01*
X105601894Y-58347560D01*
X105675635Y-58516716D01*
X105720813Y-58633159D01*
X105727500Y-58659027D01*
X105687933Y-58648298D01*
X105600500Y-58578750D01*
X105498815Y-58413652D01*
X105474894Y-58267284D01*
X105267158Y-58267284D01*
X105283000Y-58293000D01*
X105318415Y-58390660D01*
X105267648Y-58419667D01*
X105253484Y-58420000D01*
X105173444Y-58366938D01*
X105156000Y-58293000D01*
X103692952Y-58293000D01*
X103707316Y-58920807D01*
X105099424Y-58920807D01*
X105112134Y-58851365D01*
X105114904Y-58843432D01*
X105153824Y-58707136D01*
X105163366Y-58652932D01*
X105181100Y-58640349D01*
X105201071Y-58696620D01*
X105189723Y-58830605D01*
X105152609Y-58887120D01*
X105099424Y-58920807D01*
X103707316Y-58920807D01*
X103707740Y-58939300D01*
X103716362Y-59298417D01*
X104267000Y-59298417D01*
X104283158Y-59062236D01*
X104332542Y-58944244D01*
X104373439Y-58928000D01*
X104381648Y-58984581D01*
X104377511Y-59127905D01*
X104373649Y-59182000D01*
X105219500Y-59182000D01*
X105242733Y-59129733D01*
X105261833Y-59139667D01*
X105266102Y-59182000D01*
X105864526Y-59182000D01*
X105874505Y-59091854D01*
X105896554Y-59102625D01*
X105904941Y-59232632D01*
X105896554Y-59261375D01*
X105873377Y-59269353D01*
X105864526Y-59182000D01*
X105266102Y-59182000D01*
X105269433Y-59215027D01*
X105261833Y-59224334D01*
X105224082Y-59215617D01*
X105219500Y-59182000D01*
X104373649Y-59182000D01*
X104371223Y-59215967D01*
X104363478Y-59277250D01*
X104838500Y-59277250D01*
X104870250Y-59245500D01*
X104902000Y-59277250D01*
X104870250Y-59309000D01*
X104838500Y-59277250D01*
X104363478Y-59277250D01*
X104344938Y-59423931D01*
X104340757Y-59437993D01*
X105092500Y-59437993D01*
X105139045Y-59403055D01*
X105187750Y-59413037D01*
X105271301Y-59458109D01*
X105283000Y-59474544D01*
X105231147Y-59496742D01*
X105187750Y-59499500D01*
X105103230Y-59466269D01*
X105092500Y-59437993D01*
X104340757Y-59437993D01*
X104314139Y-59527506D01*
X104286386Y-59520711D01*
X104269242Y-59397562D01*
X104267000Y-59298417D01*
X103716362Y-59298417D01*
X103723020Y-59575675D01*
X103726991Y-59727042D01*
X104272013Y-59727042D01*
X104283688Y-59644682D01*
X104305364Y-59643698D01*
X104307959Y-59658250D01*
X106172000Y-59658250D01*
X106203750Y-59626500D01*
X106235500Y-59658250D01*
X106203750Y-59690000D01*
X106172000Y-59658250D01*
X104307959Y-59658250D01*
X104320523Y-59728686D01*
X104310377Y-59765407D01*
X104282181Y-59789459D01*
X104272013Y-59727042D01*
X103726991Y-59727042D01*
X103736902Y-60104732D01*
X103749952Y-60536297D01*
X103762733Y-60880198D01*
X103775809Y-61146264D01*
X103789746Y-61344322D01*
X103805107Y-61484201D01*
X103822456Y-61575727D01*
X103842358Y-61628729D01*
X103865377Y-61653035D01*
X103889890Y-61658500D01*
X103949212Y-61691141D01*
X103921360Y-61766309D01*
X103820418Y-61849871D01*
X103808118Y-61856697D01*
X103454749Y-61985435D01*
X103011899Y-62045746D01*
X102848966Y-62049947D01*
X102587969Y-62040096D01*
X102450541Y-62009367D01*
X102434862Y-61957049D01*
X102490838Y-61910020D01*
X102530249Y-61867616D01*
X102457830Y-61851095D01*
X102409625Y-61849973D01*
X102276641Y-61824967D01*
X102235356Y-61768604D01*
X102301761Y-61705970D01*
X102314375Y-61700555D01*
X102341702Y-61672222D01*
X102289883Y-61663514D01*
X102158892Y-61631490D01*
X102017426Y-61571035D01*
X101908733Y-61506189D01*
X101905663Y-61465061D01*
X101962543Y-61435129D01*
X102016090Y-61397726D01*
X101967975Y-61361873D01*
X101854000Y-61327205D01*
X101652028Y-61280002D01*
X101406373Y-61231494D01*
X101314250Y-61215526D01*
X100970828Y-61147988D01*
X100628509Y-61061365D01*
X100313077Y-60964238D01*
X100050317Y-60865188D01*
X99866011Y-60772797D01*
X99792062Y-60708934D01*
X99713402Y-60653951D01*
X99562687Y-60589323D01*
X99519490Y-60574514D01*
X99241481Y-60436425D01*
X98948451Y-60212045D01*
X98673327Y-59932686D01*
X98449035Y-59629658D01*
X98365208Y-59476888D01*
X98192166Y-59167124D01*
X98023500Y-58979116D01*
X97853221Y-58908043D01*
X97696602Y-58938710D01*
X97549048Y-58977079D01*
X97447609Y-58922107D01*
X97374862Y-58759826D01*
X97349617Y-58660508D01*
X97333266Y-58457567D01*
X96220885Y-58457567D01*
X96195986Y-58675051D01*
X96181806Y-59042031D01*
X96188035Y-59432423D01*
X96213708Y-59813211D01*
X96257861Y-60151383D01*
X96319528Y-60413923D01*
X96358601Y-60510378D01*
X96639849Y-60992486D01*
X96931605Y-61414679D01*
X99190531Y-61414679D01*
X99217729Y-61414963D01*
X99271568Y-61431456D01*
X99339403Y-61446834D01*
X100541666Y-61446834D01*
X100550383Y-61409083D01*
X100584000Y-61404500D01*
X100636267Y-61427734D01*
X100626333Y-61446834D01*
X100550973Y-61454434D01*
X100541666Y-61446834D01*
X99339403Y-61446834D01*
X99410803Y-61463020D01*
X99465806Y-61468000D01*
X99574161Y-61503665D01*
X99666988Y-61561204D01*
X99738681Y-61620771D01*
X99715774Y-61630744D01*
X99588556Y-61598729D01*
X99408371Y-61536123D01*
X99271056Y-61468981D01*
X99190531Y-61414679D01*
X96931605Y-61414679D01*
X97000878Y-61514922D01*
X97105140Y-61647641D01*
X100034096Y-61647641D01*
X100051844Y-61611579D01*
X100076000Y-61595000D01*
X100201152Y-61547016D01*
X100339130Y-61534644D01*
X100438016Y-61558607D01*
X100457000Y-61589709D01*
X100407410Y-61663650D01*
X100377625Y-61679946D01*
X100391857Y-61697295D01*
X100507416Y-61710912D01*
X100679250Y-61717379D01*
X100887228Y-61721729D01*
X100983764Y-61732373D01*
X100984410Y-61757141D01*
X100904713Y-61803861D01*
X100878366Y-61817642D01*
X100712592Y-61874937D01*
X100510998Y-61907139D01*
X100322589Y-61910508D01*
X100196373Y-61881309D01*
X100182384Y-61870718D01*
X100180603Y-61794364D01*
X100211326Y-61743718D01*
X100239680Y-61679660D01*
X100162509Y-61658246D01*
X100131400Y-61657528D01*
X100034096Y-61647641D01*
X97105140Y-61647641D01*
X97266575Y-61853135D01*
X99075568Y-61853135D01*
X99084254Y-61849000D01*
X99113712Y-61871725D01*
X99468654Y-61871725D01*
X99542342Y-61875813D01*
X99599750Y-61887755D01*
X99741984Y-61924528D01*
X99816679Y-61953158D01*
X99816708Y-61953183D01*
X99809084Y-61977343D01*
X99725329Y-61974917D01*
X99611928Y-61952396D01*
X99515368Y-61916268D01*
X99504500Y-61909599D01*
X99468654Y-61871725D01*
X99113712Y-61871725D01*
X99142203Y-61893703D01*
X99155250Y-61912500D01*
X99171431Y-61971866D01*
X99162745Y-61976000D01*
X99104796Y-61931298D01*
X99091750Y-61912500D01*
X99075568Y-61853135D01*
X97266575Y-61853135D01*
X97388039Y-62007750D01*
X99250500Y-62007750D01*
X99282250Y-61976000D01*
X99314000Y-62007750D01*
X99282250Y-62039500D01*
X99250500Y-62007750D01*
X97388039Y-62007750D01*
X97417436Y-62045169D01*
X97483606Y-62119866D01*
X99663250Y-62119866D01*
X99980750Y-62143974D01*
X100156295Y-62152268D01*
X100215058Y-62140076D01*
X100171250Y-62108254D01*
X100141550Y-62077366D01*
X100218969Y-62059766D01*
X100411640Y-62054215D01*
X100520500Y-62055058D01*
X100714508Y-62060639D01*
X100800878Y-62069748D01*
X100771511Y-62081170D01*
X100726875Y-62085996D01*
X100568372Y-62115749D01*
X100470832Y-62160833D01*
X100452718Y-62204386D01*
X100532495Y-62229546D01*
X100568125Y-62230973D01*
X100717680Y-62267613D01*
X100774500Y-62298581D01*
X100784313Y-62334263D01*
X100698414Y-62348856D01*
X100545844Y-62345034D01*
X100355647Y-62325471D01*
X100156868Y-62292840D01*
X99978548Y-62249816D01*
X99885500Y-62216733D01*
X99663250Y-62119866D01*
X97483606Y-62119866D01*
X97602014Y-62253532D01*
X99465522Y-62253532D01*
X99495084Y-62232335D01*
X99497653Y-62232251D01*
X99598889Y-62248629D01*
X99783262Y-62293886D01*
X100012818Y-62358620D01*
X100037403Y-62365984D01*
X100271188Y-62446596D01*
X100385998Y-62506483D01*
X100382521Y-62538010D01*
X100261447Y-62533540D01*
X100026557Y-62486191D01*
X99836235Y-62430730D01*
X99662012Y-62365172D01*
X99529803Y-62301959D01*
X99465522Y-62253532D01*
X97602014Y-62253532D01*
X97865271Y-62550711D01*
X97934024Y-62622795D01*
X97954907Y-62642750D01*
X100393500Y-62642750D01*
X100425250Y-62611000D01*
X100457000Y-62642750D01*
X100425250Y-62674500D01*
X100393500Y-62642750D01*
X97954907Y-62642750D01*
X98110968Y-62791874D01*
X99845455Y-62791874D01*
X99852793Y-62763245D01*
X99951269Y-62718689D01*
X100056184Y-62678964D01*
X100119024Y-62689887D01*
X100272206Y-62722813D01*
X100478784Y-62769750D01*
X103251000Y-62769750D01*
X103282750Y-62738000D01*
X103314500Y-62769750D01*
X103282750Y-62801500D01*
X103251000Y-62769750D01*
X100478784Y-62769750D01*
X100480818Y-62770212D01*
X100711549Y-62826280D01*
X100904493Y-62877699D01*
X100958218Y-62894447D01*
X103400742Y-62894447D01*
X103436375Y-62839426D01*
X103475411Y-62752996D01*
X103460025Y-62722833D01*
X103458890Y-62708927D01*
X103489125Y-62714665D01*
X103562037Y-62704822D01*
X103568544Y-62688383D01*
X103622982Y-62650518D01*
X103722612Y-62633884D01*
X103834484Y-62650024D01*
X103842773Y-62713259D01*
X103758431Y-62788368D01*
X103692453Y-62801500D01*
X103573735Y-62832280D01*
X103536750Y-62865000D01*
X103449455Y-62926183D01*
X103429977Y-62928500D01*
X103400742Y-62894447D01*
X100958218Y-62894447D01*
X101008633Y-62910163D01*
X101076307Y-62946490D01*
X101057857Y-62960250D01*
X102616000Y-62960250D01*
X102647750Y-62928500D01*
X102679500Y-62960250D01*
X102647750Y-62992000D01*
X102616000Y-62960250D01*
X101057857Y-62960250D01*
X101034774Y-62977464D01*
X100965000Y-62998622D01*
X100851975Y-63023750D01*
X102489000Y-63023750D01*
X102520750Y-62992000D01*
X102552500Y-63023750D01*
X102520750Y-63055500D01*
X102489000Y-63023750D01*
X100851975Y-63023750D01*
X100790838Y-63037342D01*
X100662590Y-63048774D01*
X100608157Y-63032776D01*
X100636226Y-63000312D01*
X100634905Y-62962147D01*
X100512675Y-62926661D01*
X100371754Y-62906114D01*
X100155201Y-62875419D01*
X99978390Y-62841202D01*
X99911420Y-62822227D01*
X99845455Y-62791874D01*
X98110968Y-62791874D01*
X98125555Y-62805812D01*
X98330084Y-62962654D01*
X98377884Y-62991746D01*
X99388985Y-62991746D01*
X99407616Y-62961328D01*
X99472750Y-62933588D01*
X99603514Y-62899905D01*
X99663250Y-62901384D01*
X99749943Y-62923255D01*
X99928959Y-62966080D01*
X100168845Y-63022379D01*
X100298250Y-63052424D01*
X100653531Y-63134332D01*
X100898638Y-63192291D01*
X100966307Y-63210684D01*
X101295671Y-63210684D01*
X101371995Y-63200161D01*
X101441250Y-63198514D01*
X101571938Y-63203625D01*
X101605669Y-63218015D01*
X101584865Y-63226130D01*
X101432374Y-63237958D01*
X101330865Y-63227412D01*
X101295671Y-63210684D01*
X100966307Y-63210684D01*
X101046754Y-63232550D01*
X101111060Y-63261362D01*
X101104740Y-63284977D01*
X101096063Y-63288334D01*
X101748166Y-63288334D01*
X101756883Y-63250583D01*
X101790500Y-63246000D01*
X101842767Y-63269234D01*
X101832833Y-63288334D01*
X101757473Y-63295934D01*
X101748166Y-63288334D01*
X101096063Y-63288334D01*
X101040976Y-63309646D01*
X100946249Y-63337684D01*
X101295671Y-63337684D01*
X101371995Y-63327161D01*
X101441250Y-63325514D01*
X101571938Y-63330625D01*
X101605669Y-63345015D01*
X101584865Y-63353130D01*
X101432374Y-63364958D01*
X101330865Y-63354412D01*
X101295671Y-63337684D01*
X100946249Y-63337684D01*
X100932951Y-63341620D01*
X100917788Y-63346200D01*
X100727188Y-63390248D01*
X100545289Y-63391109D01*
X100311214Y-63348350D01*
X100282788Y-63341704D01*
X100048706Y-63286951D01*
X99838146Y-63238762D01*
X99740027Y-63216994D01*
X99624408Y-63173800D01*
X99596438Y-63124358D01*
X99571513Y-63067622D01*
X99487910Y-63027269D01*
X99388985Y-62991746D01*
X98377884Y-62991746D01*
X98580342Y-63114963D01*
X98909059Y-63284381D01*
X99004359Y-63330518D01*
X99448637Y-63531750D01*
X100203000Y-63531750D01*
X100234750Y-63500000D01*
X100266500Y-63531750D01*
X100234750Y-63563500D01*
X100203000Y-63531750D01*
X99448637Y-63531750D01*
X99552253Y-63578682D01*
X101500541Y-63578682D01*
X101562958Y-63568514D01*
X101645318Y-63580189D01*
X101646302Y-63601865D01*
X101561314Y-63617024D01*
X101524593Y-63606878D01*
X101500541Y-63578682D01*
X99552253Y-63578682D01*
X99564085Y-63584041D01*
X100025092Y-63760051D01*
X100386842Y-63858363D01*
X100595525Y-63881001D01*
X100724244Y-63898396D01*
X100774500Y-63937675D01*
X100832267Y-63968108D01*
X100982680Y-63990736D01*
X101163654Y-63999827D01*
X101410964Y-64009037D01*
X101637369Y-64026985D01*
X101751202Y-64042524D01*
X101990032Y-64048988D01*
X102307972Y-64003093D01*
G36*
X108563833Y-46206834D02*
G01*
X108555116Y-46169083D01*
X108521500Y-46164500D01*
X108469232Y-46187734D01*
X108479166Y-46206834D01*
X108554526Y-46214434D01*
X108563833Y-46206834D01*
G37*
X108563833Y-46206834D02*
X108555116Y-46169083D01*
X108521500Y-46164500D01*
X108469232Y-46187734D01*
X108479166Y-46206834D01*
X108554526Y-46214434D01*
X108563833Y-46206834D01*
G36*
X108123302Y-46202865D02*
G01*
X108104363Y-46174004D01*
X108039958Y-46169514D01*
X107972201Y-46185022D01*
X108001593Y-46207878D01*
X108100836Y-46215448D01*
X108123302Y-46202865D01*
G37*
X108123302Y-46202865D02*
X108104363Y-46174004D01*
X108039958Y-46169514D01*
X107972201Y-46185022D01*
X108001593Y-46207878D01*
X108100836Y-46215448D01*
X108123302Y-46202865D01*
G36*
X103376812Y-46357313D02*
G01*
X103377027Y-46342873D01*
X103344670Y-46228058D01*
X103314500Y-46196250D01*
X103256233Y-46192040D01*
X103251972Y-46208378D01*
X103283880Y-46301028D01*
X103314500Y-46355000D01*
X103363815Y-46414507D01*
X103376812Y-46357313D01*
G37*
X103376812Y-46357313D02*
X103377027Y-46342873D01*
X103344670Y-46228058D01*
X103314500Y-46196250D01*
X103256233Y-46192040D01*
X103251972Y-46208378D01*
X103283880Y-46301028D01*
X103314500Y-46355000D01*
X103363815Y-46414507D01*
X103376812Y-46357313D01*
G36*
X105791000Y-45942250D02*
G01*
X105759250Y-45910500D01*
X105727500Y-45942250D01*
X105759250Y-45974000D01*
X105791000Y-45942250D01*
G37*
X105791000Y-45942250D02*
X105759250Y-45910500D01*
X105727500Y-45942250D01*
X105759250Y-45974000D01*
X105791000Y-45942250D01*
G36*
X109139302Y-45885365D02*
G01*
X109120363Y-45856504D01*
X109055958Y-45852014D01*
X108988201Y-45867522D01*
X109017593Y-45890378D01*
X109116836Y-45897948D01*
X109139302Y-45885365D01*
G37*
X109139302Y-45885365D02*
X109120363Y-45856504D01*
X109055958Y-45852014D01*
X108988201Y-45867522D01*
X109017593Y-45890378D01*
X109116836Y-45897948D01*
X109139302Y-45885365D01*
G36*
X99121062Y-46020915D02*
G01*
X99053980Y-45945372D01*
X99000674Y-45912735D01*
X98866517Y-45853410D01*
X98811253Y-45868471D01*
X98806000Y-45900308D01*
X98857243Y-45962792D01*
X98964750Y-46025946D01*
X99088218Y-46057546D01*
X99121062Y-46020915D01*
G37*
X99121062Y-46020915D02*
X99053980Y-45945372D01*
X99000674Y-45912735D01*
X98866517Y-45853410D01*
X98811253Y-45868471D01*
X98806000Y-45900308D01*
X98857243Y-45962792D01*
X98964750Y-46025946D01*
X99088218Y-46057546D01*
X99121062Y-46020915D01*
G36*
X103759000Y-45751750D02*
G01*
X103727250Y-45720000D01*
X103695500Y-45751750D01*
X103727250Y-45783500D01*
X103759000Y-45751750D01*
G37*
X103759000Y-45751750D02*
X103727250Y-45720000D01*
X103695500Y-45751750D01*
X103727250Y-45783500D01*
X103759000Y-45751750D01*
G36*
X103101402Y-45813884D02*
G01*
X103033748Y-45734364D01*
X102955508Y-45663092D01*
X102957506Y-45686349D01*
X103003374Y-45764738D01*
X103075670Y-45858409D01*
X103117816Y-45874351D01*
X103101402Y-45813884D01*
G37*
X103101402Y-45813884D02*
X103033748Y-45734364D01*
X102955508Y-45663092D01*
X102957506Y-45686349D01*
X103003374Y-45764738D01*
X103075670Y-45858409D01*
X103117816Y-45874351D01*
X103101402Y-45813884D01*
G36*
X108772840Y-45976130D02*
G01*
X108792018Y-45849404D01*
X108766400Y-45804287D01*
X108730498Y-45699646D01*
X108742030Y-45659282D01*
X108722941Y-45608600D01*
X108627900Y-45593000D01*
X108498436Y-45630030D01*
X108442458Y-45751750D01*
X108439119Y-45869751D01*
X108513310Y-45908576D01*
X108562055Y-45910500D01*
X108677418Y-45939091D01*
X108712972Y-45989875D01*
X108733428Y-46024639D01*
X108772840Y-45976130D01*
G37*
X108772840Y-45976130D02*
X108792018Y-45849404D01*
X108766400Y-45804287D01*
X108730498Y-45699646D01*
X108742030Y-45659282D01*
X108722941Y-45608600D01*
X108627900Y-45593000D01*
X108498436Y-45630030D01*
X108442458Y-45751750D01*
X108439119Y-45869751D01*
X108513310Y-45908576D01*
X108562055Y-45910500D01*
X108677418Y-45939091D01*
X108712972Y-45989875D01*
X108733428Y-46024639D01*
X108772840Y-45976130D01*
G36*
X104902000Y-45624750D02*
G01*
X104870250Y-45593000D01*
X104838500Y-45624750D01*
X104870250Y-45656500D01*
X104902000Y-45624750D01*
G37*
X104902000Y-45624750D02*
X104870250Y-45593000D01*
X104838500Y-45624750D01*
X104870250Y-45656500D01*
X104902000Y-45624750D01*
G36*
X103166333Y-45698834D02*
G01*
X103173933Y-45623474D01*
X103166333Y-45614167D01*
X103128582Y-45622884D01*
X103124000Y-45656500D01*
X103147233Y-45708768D01*
X103166333Y-45698834D01*
G37*
X103166333Y-45698834D02*
X103173933Y-45623474D01*
X103166333Y-45614167D01*
X103128582Y-45622884D01*
X103124000Y-45656500D01*
X103147233Y-45708768D01*
X103166333Y-45698834D01*
G36*
X103820654Y-45544679D02*
G01*
X103822500Y-45529500D01*
X103774178Y-45467846D01*
X103759000Y-45466000D01*
X103697345Y-45514322D01*
X103695500Y-45529500D01*
X103743821Y-45591155D01*
X103759000Y-45593000D01*
X103820654Y-45544679D01*
G37*
X103820654Y-45544679D02*
X103822500Y-45529500D01*
X103774178Y-45467846D01*
X103759000Y-45466000D01*
X103697345Y-45514322D01*
X103695500Y-45529500D01*
X103743821Y-45591155D01*
X103759000Y-45593000D01*
X103820654Y-45544679D01*
G36*
X104502272Y-45796176D02*
G01*
X104566052Y-45751012D01*
X104542595Y-45650521D01*
X104448934Y-45535150D01*
X104309263Y-45425353D01*
X104231122Y-45420355D01*
X104203862Y-45520462D01*
X104203500Y-45542200D01*
X104189677Y-45634907D01*
X104137698Y-45615740D01*
X104127300Y-45605700D01*
X104019193Y-45534398D01*
X103957441Y-45569951D01*
X103949500Y-45624000D01*
X104005585Y-45686497D01*
X104144908Y-45745065D01*
X104324068Y-45786187D01*
X104499665Y-45796344D01*
X104502272Y-45796176D01*
G37*
X104502272Y-45796176D02*
X104566052Y-45751012D01*
X104542595Y-45650521D01*
X104448934Y-45535150D01*
X104309263Y-45425353D01*
X104231122Y-45420355D01*
X104203862Y-45520462D01*
X104203500Y-45542200D01*
X104189677Y-45634907D01*
X104137698Y-45615740D01*
X104127300Y-45605700D01*
X104019193Y-45534398D01*
X103957441Y-45569951D01*
X103949500Y-45624000D01*
X104005585Y-45686497D01*
X104144908Y-45745065D01*
X104324068Y-45786187D01*
X104499665Y-45796344D01*
X104502272Y-45796176D01*
G36*
X104674080Y-45393327D02*
G01*
X104604250Y-45355756D01*
X104493815Y-45337944D01*
X104407676Y-45346838D01*
X104394000Y-45363348D01*
X104447881Y-45391977D01*
X104550828Y-45417675D01*
X104655185Y-45422134D01*
X104674080Y-45393327D01*
G37*
X104674080Y-45393327D02*
X104604250Y-45355756D01*
X104493815Y-45337944D01*
X104407676Y-45346838D01*
X104394000Y-45363348D01*
X104447881Y-45391977D01*
X104550828Y-45417675D01*
X104655185Y-45422134D01*
X104674080Y-45393327D01*
G36*
X103445887Y-45431539D02*
G01*
X103502193Y-45370238D01*
X103438062Y-45340243D01*
X103406002Y-45339000D01*
X103340600Y-45370243D01*
X103346890Y-45403536D01*
X103422991Y-45440168D01*
X103445887Y-45431539D01*
G37*
X103445887Y-45431539D02*
X103502193Y-45370238D01*
X103438062Y-45340243D01*
X103406002Y-45339000D01*
X103340600Y-45370243D01*
X103346890Y-45403536D01*
X103422991Y-45440168D01*
X103445887Y-45431539D01*
G36*
X109633262Y-45261244D02*
G01*
X109643924Y-45185154D01*
X109574541Y-45148500D01*
X109487067Y-45199628D01*
X109474000Y-45249042D01*
X109510921Y-45323102D01*
X109549406Y-45324448D01*
X109633262Y-45261244D01*
G37*
X109633262Y-45261244D02*
X109643924Y-45185154D01*
X109574541Y-45148500D01*
X109487067Y-45199628D01*
X109474000Y-45249042D01*
X109510921Y-45323102D01*
X109549406Y-45324448D01*
X109633262Y-45261244D01*
G36*
X103677167Y-45251301D02*
G01*
X103612528Y-45191552D01*
X103503261Y-45159445D01*
X103407000Y-45164829D01*
X103378000Y-45200181D01*
X103432319Y-45255762D01*
X103539266Y-45291523D01*
X103657501Y-45293637D01*
X103677167Y-45251301D01*
G37*
X103677167Y-45251301D02*
X103612528Y-45191552D01*
X103503261Y-45159445D01*
X103407000Y-45164829D01*
X103378000Y-45200181D01*
X103432319Y-45255762D01*
X103539266Y-45291523D01*
X103657501Y-45293637D01*
X103677167Y-45251301D01*
G36*
X103547333Y-45000334D02*
G01*
X103538616Y-44962583D01*
X103505000Y-44958000D01*
X103452732Y-44981234D01*
X103462666Y-45000334D01*
X103538026Y-45007934D01*
X103547333Y-45000334D01*
G37*
X103547333Y-45000334D02*
X103538616Y-44962583D01*
X103505000Y-44958000D01*
X103452732Y-44981234D01*
X103462666Y-45000334D01*
X103538026Y-45007934D01*
X103547333Y-45000334D01*
G36*
X102678771Y-44972371D02*
G01*
X102679500Y-44958000D01*
X102630684Y-44896941D01*
X102612252Y-44894500D01*
X102574327Y-44933403D01*
X102584250Y-44958000D01*
X102641311Y-45018578D01*
X102651497Y-45021500D01*
X102678771Y-44972371D01*
G37*
X102678771Y-44972371D02*
X102679500Y-44958000D01*
X102630684Y-44896941D01*
X102612252Y-44894500D01*
X102574327Y-44933403D01*
X102584250Y-44958000D01*
X102641311Y-45018578D01*
X102651497Y-45021500D01*
X102678771Y-44972371D01*
G36*
X103800672Y-44601598D02*
G01*
X103790750Y-44577000D01*
X103733688Y-44516423D01*
X103723502Y-44513500D01*
X103696228Y-44562630D01*
X103695500Y-44577000D01*
X103744315Y-44638060D01*
X103762747Y-44640500D01*
X103800672Y-44601598D01*
G37*
X103800672Y-44601598D02*
X103790750Y-44577000D01*
X103733688Y-44516423D01*
X103723502Y-44513500D01*
X103696228Y-44562630D01*
X103695500Y-44577000D01*
X103744315Y-44638060D01*
X103762747Y-44640500D01*
X103800672Y-44601598D01*
G36*
X102850934Y-45481875D02*
G01*
X102928739Y-45426205D01*
X103075008Y-45402509D01*
X103077928Y-45402500D01*
X103205887Y-45397070D01*
X103222422Y-45370164D01*
X103159846Y-45318099D01*
X103082354Y-45232259D01*
X103103337Y-45124970D01*
X103118194Y-45095849D01*
X103156516Y-44992443D01*
X103142109Y-44957028D01*
X103142466Y-44929656D01*
X103187500Y-44894978D01*
X103324772Y-44857940D01*
X103384909Y-44865634D01*
X103502488Y-44847215D01*
X103575409Y-44788795D01*
X103629768Y-44711361D01*
X103591607Y-44708106D01*
X103552625Y-44721868D01*
X103457001Y-44737266D01*
X103460572Y-44677696D01*
X103546591Y-44566126D01*
X103613368Y-44480322D01*
X103577563Y-44452725D01*
X103498966Y-44450787D01*
X103344834Y-44508247D01*
X103202791Y-44673037D01*
X103076808Y-44836550D01*
X102986801Y-44887247D01*
X102938345Y-44823512D01*
X102931480Y-44751625D01*
X102922916Y-44652749D01*
X102883339Y-44671612D01*
X102842947Y-44722827D01*
X102786980Y-44853456D01*
X102793669Y-44977801D01*
X102852592Y-45053609D01*
X102924476Y-45053316D01*
X102962697Y-45059662D01*
X102904954Y-45142165D01*
X102876347Y-45173494D01*
X102771464Y-45330663D01*
X102774109Y-45446895D01*
X102822131Y-45514539D01*
X102850934Y-45481875D01*
G37*
X102850934Y-45481875D02*
X102928739Y-45426205D01*
X103075008Y-45402509D01*
X103077928Y-45402500D01*
X103205887Y-45397070D01*
X103222422Y-45370164D01*
X103159846Y-45318099D01*
X103082354Y-45232259D01*
X103103337Y-45124970D01*
X103118194Y-45095849D01*
X103156516Y-44992443D01*
X103142109Y-44957028D01*
X103142466Y-44929656D01*
X103187500Y-44894978D01*
X103324772Y-44857940D01*
X103384909Y-44865634D01*
X103502488Y-44847215D01*
X103575409Y-44788795D01*
X103629768Y-44711361D01*
X103591607Y-44708106D01*
X103552625Y-44721868D01*
X103457001Y-44737266D01*
X103460572Y-44677696D01*
X103546591Y-44566126D01*
X103613368Y-44480322D01*
X103577563Y-44452725D01*
X103498966Y-44450787D01*
X103344834Y-44508247D01*
X103202791Y-44673037D01*
X103076808Y-44836550D01*
X102986801Y-44887247D01*
X102938345Y-44823512D01*
X102931480Y-44751625D01*
X102922916Y-44652749D01*
X102883339Y-44671612D01*
X102842947Y-44722827D01*
X102786980Y-44853456D01*
X102793669Y-44977801D01*
X102852592Y-45053609D01*
X102924476Y-45053316D01*
X102962697Y-45059662D01*
X102904954Y-45142165D01*
X102876347Y-45173494D01*
X102771464Y-45330663D01*
X102774109Y-45446895D01*
X102822131Y-45514539D01*
X102850934Y-45481875D01*
G36*
X110236000Y-44418250D02*
G01*
X110204250Y-44386500D01*
X110172500Y-44418250D01*
X110204250Y-44450000D01*
X110236000Y-44418250D01*
G37*
X110236000Y-44418250D02*
X110204250Y-44386500D01*
X110172500Y-44418250D01*
X110204250Y-44450000D01*
X110236000Y-44418250D01*
G36*
X103297302Y-44361365D02*
G01*
X103278363Y-44332504D01*
X103213958Y-44328014D01*
X103146201Y-44343522D01*
X103175593Y-44366378D01*
X103274836Y-44373948D01*
X103297302Y-44361365D01*
G37*
X103297302Y-44361365D02*
X103278363Y-44332504D01*
X103213958Y-44328014D01*
X103146201Y-44343522D01*
X103175593Y-44366378D01*
X103274836Y-44373948D01*
X103297302Y-44361365D01*
G36*
X102933500Y-44354750D02*
G01*
X102901750Y-44323000D01*
X102870000Y-44354750D01*
X102901750Y-44386500D01*
X102933500Y-44354750D01*
G37*
X102933500Y-44354750D02*
X102901750Y-44323000D01*
X102870000Y-44354750D01*
X102901750Y-44386500D01*
X102933500Y-44354750D01*
G36*
X111996802Y-44170865D02*
G01*
X111977863Y-44142004D01*
X111913458Y-44137514D01*
X111845701Y-44153022D01*
X111875093Y-44175878D01*
X111974336Y-44183448D01*
X111996802Y-44170865D01*
G37*
X111996802Y-44170865D02*
X111977863Y-44142004D01*
X111913458Y-44137514D01*
X111845701Y-44153022D01*
X111875093Y-44175878D01*
X111974336Y-44183448D01*
X111996802Y-44170865D01*
G36*
X110043654Y-44211179D02*
G01*
X110045500Y-44196000D01*
X109997178Y-44134346D01*
X109982000Y-44132500D01*
X109920345Y-44180822D01*
X109918500Y-44196000D01*
X109966821Y-44257655D01*
X109982000Y-44259500D01*
X110043654Y-44211179D01*
G37*
X110043654Y-44211179D02*
X110045500Y-44196000D01*
X109997178Y-44134346D01*
X109982000Y-44132500D01*
X109920345Y-44180822D01*
X109918500Y-44196000D01*
X109966821Y-44257655D01*
X109982000Y-44259500D01*
X110043654Y-44211179D01*
G36*
X98384556Y-45353067D02*
G01*
X98384765Y-45269803D01*
X98355457Y-45094514D01*
X98302240Y-44857222D01*
X98264186Y-44708821D01*
X98196832Y-44455653D01*
X98143985Y-44254183D01*
X98112817Y-44131908D01*
X98107500Y-44108110D01*
X98062031Y-44064565D01*
X97949758Y-43976446D01*
X97920662Y-43954749D01*
X97733824Y-43816614D01*
X97823262Y-44117432D01*
X97963236Y-44563148D01*
X98090665Y-44919231D01*
X98202045Y-45177968D01*
X98293873Y-45331647D01*
X98362644Y-45372554D01*
X98384556Y-45353067D01*
G37*
X98384556Y-45353067D02*
X98384765Y-45269803D01*
X98355457Y-45094514D01*
X98302240Y-44857222D01*
X98264186Y-44708821D01*
X98196832Y-44455653D01*
X98143985Y-44254183D01*
X98112817Y-44131908D01*
X98107500Y-44108110D01*
X98062031Y-44064565D01*
X97949758Y-43976446D01*
X97920662Y-43954749D01*
X97733824Y-43816614D01*
X97823262Y-44117432D01*
X97963236Y-44563148D01*
X98090665Y-44919231D01*
X98202045Y-45177968D01*
X98293873Y-45331647D01*
X98362644Y-45372554D01*
X98384556Y-45353067D01*
G36*
X99977980Y-45093944D02*
G01*
X100051297Y-44951066D01*
X100133871Y-44755280D01*
X100286345Y-44362060D01*
X100112671Y-44030345D01*
X99995896Y-43827978D01*
X99879900Y-43659620D01*
X99816998Y-43588224D01*
X99727759Y-43515562D01*
X99697901Y-43535669D01*
X99695000Y-43606904D01*
X99719091Y-43749547D01*
X99778404Y-43934364D01*
X99791811Y-43967693D01*
X99835186Y-44137740D01*
X99856705Y-44358484D01*
X99856395Y-44585811D01*
X99834286Y-44775603D01*
X99791203Y-44882964D01*
X99725116Y-44866160D01*
X99581198Y-44786421D01*
X99381610Y-44659113D01*
X99148514Y-44499598D01*
X98904068Y-44323242D01*
X98670434Y-44145409D01*
X98469773Y-43981464D01*
X98393574Y-43913961D01*
X98219981Y-43767931D01*
X98099589Y-43694307D01*
X98050633Y-43699849D01*
X98082377Y-43791104D01*
X98208235Y-43936426D01*
X98414008Y-44123572D01*
X98685495Y-44340299D01*
X99008498Y-44574365D01*
X99264525Y-44746454D01*
X99512054Y-44905031D01*
X99721293Y-45034126D01*
X99869209Y-45119857D01*
X99931598Y-45148500D01*
X99977980Y-45093944D01*
G37*
X99977980Y-45093944D02*
X100051297Y-44951066D01*
X100133871Y-44755280D01*
X100286345Y-44362060D01*
X100112671Y-44030345D01*
X99995896Y-43827978D01*
X99879900Y-43659620D01*
X99816998Y-43588224D01*
X99727759Y-43515562D01*
X99697901Y-43535669D01*
X99695000Y-43606904D01*
X99719091Y-43749547D01*
X99778404Y-43934364D01*
X99791811Y-43967693D01*
X99835186Y-44137740D01*
X99856705Y-44358484D01*
X99856395Y-44585811D01*
X99834286Y-44775603D01*
X99791203Y-44882964D01*
X99725116Y-44866160D01*
X99581198Y-44786421D01*
X99381610Y-44659113D01*
X99148514Y-44499598D01*
X98904068Y-44323242D01*
X98670434Y-44145409D01*
X98469773Y-43981464D01*
X98393574Y-43913961D01*
X98219981Y-43767931D01*
X98099589Y-43694307D01*
X98050633Y-43699849D01*
X98082377Y-43791104D01*
X98208235Y-43936426D01*
X98414008Y-44123572D01*
X98685495Y-44340299D01*
X99008498Y-44574365D01*
X99264525Y-44746454D01*
X99512054Y-44905031D01*
X99721293Y-45034126D01*
X99869209Y-45119857D01*
X99931598Y-45148500D01*
X99977980Y-45093944D01*
G36*
X110426500Y-43402250D02*
G01*
X110394750Y-43370500D01*
X110363000Y-43402250D01*
X110394750Y-43434000D01*
X110426500Y-43402250D01*
G37*
X110426500Y-43402250D02*
X110394750Y-43370500D01*
X110363000Y-43402250D01*
X110394750Y-43434000D01*
X110426500Y-43402250D01*
G36*
X98216160Y-43486502D02*
G01*
X98193348Y-43449151D01*
X98171000Y-43434000D01*
X98039594Y-43374913D01*
X97982464Y-43412735D01*
X97980500Y-43434000D01*
X98034281Y-43483185D01*
X98123375Y-43496528D01*
X98216160Y-43486502D01*
G37*
X98216160Y-43486502D02*
X98193348Y-43449151D01*
X98171000Y-43434000D01*
X98039594Y-43374913D01*
X97982464Y-43412735D01*
X97980500Y-43434000D01*
X98034281Y-43483185D01*
X98123375Y-43496528D01*
X98216160Y-43486502D01*
G36*
X110151333Y-43349334D02*
G01*
X110142616Y-43311583D01*
X110109000Y-43307000D01*
X110056732Y-43330234D01*
X110066666Y-43349334D01*
X110142026Y-43356934D01*
X110151333Y-43349334D01*
G37*
X110151333Y-43349334D02*
X110142616Y-43311583D01*
X110109000Y-43307000D01*
X110056732Y-43330234D01*
X110066666Y-43349334D01*
X110142026Y-43356934D01*
X110151333Y-43349334D01*
G36*
X110362271Y-43067371D02*
G01*
X110363000Y-43053000D01*
X110314184Y-42991941D01*
X110295752Y-42989500D01*
X110257827Y-43028403D01*
X110267750Y-43053000D01*
X110324811Y-43113578D01*
X110334997Y-43116500D01*
X110362271Y-43067371D01*
G37*
X110362271Y-43067371D02*
X110363000Y-43053000D01*
X110314184Y-42991941D01*
X110295752Y-42989500D01*
X110257827Y-43028403D01*
X110267750Y-43053000D01*
X110324811Y-43113578D01*
X110334997Y-43116500D01*
X110362271Y-43067371D01*
G36*
X101536500Y-43021250D02*
G01*
X101504750Y-42989500D01*
X101473000Y-43021250D01*
X101504750Y-43053000D01*
X101536500Y-43021250D01*
G37*
X101536500Y-43021250D02*
X101504750Y-42989500D01*
X101473000Y-43021250D01*
X101504750Y-43053000D01*
X101536500Y-43021250D01*
G36*
X110532333Y-42904834D02*
G01*
X110523616Y-42867083D01*
X110490000Y-42862500D01*
X110437732Y-42885734D01*
X110447666Y-42904834D01*
X110523026Y-42912434D01*
X110532333Y-42904834D01*
G37*
X110532333Y-42904834D02*
X110523616Y-42867083D01*
X110490000Y-42862500D01*
X110437732Y-42885734D01*
X110447666Y-42904834D01*
X110523026Y-42912434D01*
X110532333Y-42904834D01*
G36*
X102171500Y-42767250D02*
G01*
X102139750Y-42735500D01*
X102108000Y-42767250D01*
X102139750Y-42799000D01*
X102171500Y-42767250D01*
G37*
X102171500Y-42767250D02*
X102139750Y-42735500D01*
X102108000Y-42767250D01*
X102139750Y-42799000D01*
X102171500Y-42767250D01*
G36*
X110202819Y-42820427D02*
G01*
X110195463Y-42767250D01*
X110133133Y-42683222D01*
X110102206Y-42672000D01*
X110051866Y-42723533D01*
X110045500Y-42767250D01*
X110095309Y-42851460D01*
X110138757Y-42862500D01*
X110202819Y-42820427D01*
G37*
X110202819Y-42820427D02*
X110195463Y-42767250D01*
X110133133Y-42683222D01*
X110102206Y-42672000D01*
X110051866Y-42723533D01*
X110045500Y-42767250D01*
X110095309Y-42851460D01*
X110138757Y-42862500D01*
X110202819Y-42820427D01*
G36*
X109782186Y-42816314D02*
G01*
X109791500Y-42770998D01*
X109770573Y-42679251D01*
X109715589Y-42706754D01*
X109698961Y-42731113D01*
X109706924Y-42812668D01*
X109726964Y-42830110D01*
X109782186Y-42816314D01*
G37*
X109782186Y-42816314D02*
X109791500Y-42770998D01*
X109770573Y-42679251D01*
X109715589Y-42706754D01*
X109698961Y-42731113D01*
X109706924Y-42812668D01*
X109726964Y-42830110D01*
X109782186Y-42816314D01*
G36*
X110236000Y-42576750D02*
G01*
X110296577Y-42519689D01*
X110299500Y-42509503D01*
X110250370Y-42482229D01*
X110236000Y-42481500D01*
X110174940Y-42530316D01*
X110172500Y-42548748D01*
X110211402Y-42586673D01*
X110236000Y-42576750D01*
G37*
X110236000Y-42576750D02*
X110296577Y-42519689D01*
X110299500Y-42509503D01*
X110250370Y-42482229D01*
X110236000Y-42481500D01*
X110174940Y-42530316D01*
X110172500Y-42548748D01*
X110211402Y-42586673D01*
X110236000Y-42576750D01*
G36*
X109976273Y-42531776D02*
G01*
X109968490Y-42472722D01*
X109933516Y-42424922D01*
X109892017Y-42472978D01*
X109868716Y-42566462D01*
X109880391Y-42591559D01*
X109943166Y-42601986D01*
X109976273Y-42531776D01*
G37*
X109976273Y-42531776D02*
X109968490Y-42472722D01*
X109933516Y-42424922D01*
X109892017Y-42472978D01*
X109868716Y-42566462D01*
X109880391Y-42591559D01*
X109943166Y-42601986D01*
X109976273Y-42531776D01*
G36*
X109601000Y-42513250D02*
G01*
X109662077Y-42432068D01*
X109664500Y-42414253D01*
X109616065Y-42356211D01*
X109601000Y-42354500D01*
X109545271Y-42406187D01*
X109537500Y-42453498D01*
X109568284Y-42519224D01*
X109601000Y-42513250D01*
G37*
X109601000Y-42513250D02*
X109662077Y-42432068D01*
X109664500Y-42414253D01*
X109616065Y-42356211D01*
X109601000Y-42354500D01*
X109545271Y-42406187D01*
X109537500Y-42453498D01*
X109568284Y-42519224D01*
X109601000Y-42513250D01*
G36*
X97960355Y-43137253D02*
G01*
X97941622Y-43008667D01*
X97938184Y-42989500D01*
X97890697Y-42786208D01*
X97832668Y-42608886D01*
X97832509Y-42608500D01*
X97777553Y-42444326D01*
X97755276Y-42336616D01*
X97725331Y-42211753D01*
X97681616Y-42205304D01*
X97642715Y-42298211D01*
X97644893Y-42453836D01*
X97698150Y-42615076D01*
X97763693Y-42767803D01*
X97790000Y-42878960D01*
X97826198Y-42994235D01*
X97884128Y-43088489D01*
X97944037Y-43158647D01*
X97960355Y-43137253D01*
G37*
X97960355Y-43137253D02*
X97941622Y-43008667D01*
X97938184Y-42989500D01*
X97890697Y-42786208D01*
X97832668Y-42608886D01*
X97832509Y-42608500D01*
X97777553Y-42444326D01*
X97755276Y-42336616D01*
X97725331Y-42211753D01*
X97681616Y-42205304D01*
X97642715Y-42298211D01*
X97644893Y-42453836D01*
X97698150Y-42615076D01*
X97763693Y-42767803D01*
X97790000Y-42878960D01*
X97826198Y-42994235D01*
X97884128Y-43088489D01*
X97944037Y-43158647D01*
X97960355Y-43137253D01*
G36*
X112013414Y-42168140D02*
G01*
X112014000Y-42143580D01*
X111962698Y-42041460D01*
X111918750Y-42014037D01*
X111836354Y-41999560D01*
X111823500Y-42011779D01*
X111862927Y-42078950D01*
X111918750Y-42141322D01*
X111992293Y-42202758D01*
X112013414Y-42168140D01*
G37*
X112013414Y-42168140D02*
X112014000Y-42143580D01*
X111962698Y-42041460D01*
X111918750Y-42014037D01*
X111836354Y-41999560D01*
X111823500Y-42011779D01*
X111862927Y-42078950D01*
X111918750Y-42141322D01*
X111992293Y-42202758D01*
X112013414Y-42168140D01*
G36*
X109401362Y-41927355D02*
G01*
X109410500Y-41881998D01*
X109377346Y-41795116D01*
X109347000Y-41783000D01*
X109285317Y-41828576D01*
X109283500Y-41842753D01*
X109329658Y-41928753D01*
X109347000Y-41941750D01*
X109401362Y-41927355D01*
G37*
X109401362Y-41927355D02*
X109410500Y-41881998D01*
X109377346Y-41795116D01*
X109347000Y-41783000D01*
X109285317Y-41828576D01*
X109283500Y-41842753D01*
X109329658Y-41928753D01*
X109347000Y-41941750D01*
X109401362Y-41927355D01*
G36*
X98738081Y-43433081D02*
G01*
X98851391Y-43316823D01*
X98990698Y-43131421D01*
X99139100Y-42898322D01*
X99214813Y-42764346D01*
X99355877Y-42521593D01*
X99522788Y-42259015D01*
X99603455Y-42140949D01*
X99720477Y-41966785D01*
X99799787Y-41831878D01*
X99822000Y-41775824D01*
X99800930Y-41720812D01*
X99734501Y-41761092D01*
X99617879Y-41901704D01*
X99446232Y-42147688D01*
X99402978Y-42212848D01*
X99138843Y-42615498D01*
X98939781Y-42924612D01*
X98799138Y-43151460D01*
X98710264Y-43307316D01*
X98666506Y-43403448D01*
X98661212Y-43451129D01*
X98667666Y-43458746D01*
X98738081Y-43433081D01*
G37*
X98738081Y-43433081D02*
X98851391Y-43316823D01*
X98990698Y-43131421D01*
X99139100Y-42898322D01*
X99214813Y-42764346D01*
X99355877Y-42521593D01*
X99522788Y-42259015D01*
X99603455Y-42140949D01*
X99720477Y-41966785D01*
X99799787Y-41831878D01*
X99822000Y-41775824D01*
X99800930Y-41720812D01*
X99734501Y-41761092D01*
X99617879Y-41901704D01*
X99446232Y-42147688D01*
X99402978Y-42212848D01*
X99138843Y-42615498D01*
X98939781Y-42924612D01*
X98799138Y-43151460D01*
X98710264Y-43307316D01*
X98666506Y-43403448D01*
X98661212Y-43451129D01*
X98667666Y-43458746D01*
X98738081Y-43433081D01*
G36*
X111993054Y-41656568D02*
G01*
X112014000Y-41523382D01*
X112010446Y-41385069D01*
X111980727Y-41358229D01*
X111896259Y-41432755D01*
X111860285Y-41469018D01*
X111781092Y-41588317D01*
X111821739Y-41665616D01*
X111920587Y-41694553D01*
X111993054Y-41656568D01*
G37*
X111993054Y-41656568D02*
X112014000Y-41523382D01*
X112010446Y-41385069D01*
X111980727Y-41358229D01*
X111896259Y-41432755D01*
X111860285Y-41469018D01*
X111781092Y-41588317D01*
X111821739Y-41665616D01*
X111920587Y-41694553D01*
X111993054Y-41656568D01*
G36*
X111948002Y-41233523D02*
G01*
X112013247Y-41205422D01*
X112013813Y-41202419D01*
X111962186Y-41145044D01*
X111853127Y-41109738D01*
X111756200Y-41118648D01*
X111754269Y-41119792D01*
X111704150Y-41102741D01*
X111696500Y-41060246D01*
X111660722Y-40951511D01*
X111635377Y-40927220D01*
X111595656Y-40952305D01*
X111587752Y-41070395D01*
X111613234Y-41195494D01*
X111691454Y-41242687D01*
X111807438Y-41247298D01*
X111948002Y-41233523D01*
G37*
X111948002Y-41233523D02*
X112013247Y-41205422D01*
X112013813Y-41202419D01*
X111962186Y-41145044D01*
X111853127Y-41109738D01*
X111756200Y-41118648D01*
X111754269Y-41119792D01*
X111704150Y-41102741D01*
X111696500Y-41060246D01*
X111660722Y-40951511D01*
X111635377Y-40927220D01*
X111595656Y-40952305D01*
X111587752Y-41070395D01*
X111613234Y-41195494D01*
X111691454Y-41242687D01*
X111807438Y-41247298D01*
X111948002Y-41233523D01*
G36*
X111992833Y-40872834D02*
G01*
X112000433Y-40797474D01*
X111992833Y-40788167D01*
X111955082Y-40796884D01*
X111950500Y-40830500D01*
X111973733Y-40882768D01*
X111992833Y-40872834D01*
G37*
X111992833Y-40872834D02*
X112000433Y-40797474D01*
X111992833Y-40788167D01*
X111955082Y-40796884D01*
X111950500Y-40830500D01*
X111973733Y-40882768D01*
X111992833Y-40872834D01*
G36*
X111992833Y-40618834D02*
G01*
X112000433Y-40543474D01*
X111992833Y-40534167D01*
X111955082Y-40542884D01*
X111950500Y-40576500D01*
X111973733Y-40628768D01*
X111992833Y-40618834D01*
G37*
X111992833Y-40618834D02*
X112000433Y-40543474D01*
X111992833Y-40534167D01*
X111955082Y-40542884D01*
X111950500Y-40576500D01*
X111973733Y-40628768D01*
X111992833Y-40618834D01*
G36*
X111560703Y-40697061D02*
G01*
X111558403Y-40534681D01*
X111531587Y-40420399D01*
X111489811Y-40428868D01*
X111484781Y-40436209D01*
X111388351Y-40487943D01*
X111315500Y-40481250D01*
X111195801Y-40476301D01*
X111167867Y-40541855D01*
X111226914Y-40626629D01*
X111299007Y-40675585D01*
X111315500Y-40666479D01*
X111354871Y-40665374D01*
X111412284Y-40704774D01*
X111513297Y-40756717D01*
X111560703Y-40697061D01*
G37*
X111560703Y-40697061D02*
X111558403Y-40534681D01*
X111531587Y-40420399D01*
X111489811Y-40428868D01*
X111484781Y-40436209D01*
X111388351Y-40487943D01*
X111315500Y-40481250D01*
X111195801Y-40476301D01*
X111167867Y-40541855D01*
X111226914Y-40626629D01*
X111299007Y-40675585D01*
X111315500Y-40666479D01*
X111354871Y-40665374D01*
X111412284Y-40704774D01*
X111513297Y-40756717D01*
X111560703Y-40697061D01*
G36*
X111744849Y-40535349D02*
G01*
X111760000Y-40513000D01*
X111819087Y-40381595D01*
X111781265Y-40324465D01*
X111760000Y-40322500D01*
X111710815Y-40376282D01*
X111697472Y-40465375D01*
X111707498Y-40558161D01*
X111744849Y-40535349D01*
G37*
X111744849Y-40535349D02*
X111760000Y-40513000D01*
X111819087Y-40381595D01*
X111781265Y-40324465D01*
X111760000Y-40322500D01*
X111710815Y-40376282D01*
X111697472Y-40465375D01*
X111707498Y-40558161D01*
X111744849Y-40535349D01*
G36*
X106784637Y-47763102D02*
G01*
X106949558Y-47722162D01*
X107052542Y-47667852D01*
X107167681Y-47604148D01*
X107346001Y-47537138D01*
X107402546Y-47520268D01*
X107664250Y-47447286D01*
X107410250Y-47446905D01*
X107175054Y-47433829D01*
X106953170Y-47400290D01*
X106777433Y-47353790D01*
X106680675Y-47301828D01*
X106671720Y-47278212D01*
X106734803Y-47243354D01*
X106881171Y-47228227D01*
X106950843Y-47229279D01*
X107103704Y-47230025D01*
X107136064Y-47211949D01*
X107095566Y-47189656D01*
X107007880Y-47145772D01*
X107030764Y-47105468D01*
X107095566Y-47066824D01*
X107165043Y-47017447D01*
X107140606Y-46984433D01*
X107007020Y-46949179D01*
X106997500Y-46947089D01*
X106775250Y-46898458D01*
X106997500Y-46864854D01*
X107150706Y-46825838D01*
X107214575Y-46750606D01*
X107226027Y-46666090D01*
X107247283Y-46512301D01*
X107277400Y-46427965D01*
X107271148Y-46365404D01*
X107223497Y-46355000D01*
X107136806Y-46311306D01*
X107124500Y-46270748D01*
X107174394Y-46218718D01*
X107291137Y-46210767D01*
X107425317Y-46239862D01*
X107527522Y-46298967D01*
X107549086Y-46331198D01*
X107631748Y-46399847D01*
X107729252Y-46418500D01*
X107853000Y-46445256D01*
X107899404Y-46488963D01*
X107949182Y-46509592D01*
X108007721Y-46457213D01*
X108050396Y-46387756D01*
X108004869Y-46359662D01*
X107886500Y-46355000D01*
X107753220Y-46346046D01*
X107725799Y-46309858D01*
X107755068Y-46265091D01*
X107789624Y-46187692D01*
X107713246Y-46138377D01*
X107699343Y-46133812D01*
X107582825Y-46080557D01*
X107580758Y-46038913D01*
X107680647Y-46016661D01*
X107870002Y-46021583D01*
X107878249Y-46022358D01*
X108090258Y-46027402D01*
X108214729Y-45997230D01*
X108231246Y-45981287D01*
X108232730Y-45917679D01*
X108207747Y-45910500D01*
X108142112Y-45880112D01*
X108164502Y-45815050D01*
X108259607Y-45754470D01*
X108270153Y-45750908D01*
X108365882Y-45679241D01*
X108363823Y-45596383D01*
X108359208Y-45516453D01*
X108439290Y-45505420D01*
X108483559Y-45512775D01*
X108637668Y-45496767D01*
X108722664Y-45409022D01*
X108833875Y-45309007D01*
X109019842Y-45275765D01*
X109044774Y-45275500D01*
X109208332Y-45261271D01*
X109276503Y-45209497D01*
X109283995Y-45164375D01*
X109337555Y-45062863D01*
X109461011Y-44972954D01*
X109599826Y-44925597D01*
X109683230Y-44937827D01*
X109716589Y-44936569D01*
X109699133Y-44899167D01*
X109602178Y-44850086D01*
X109498822Y-44858815D01*
X109379005Y-44870367D01*
X109359732Y-44814300D01*
X109438861Y-44683136D01*
X109445844Y-44673835D01*
X109533460Y-44588844D01*
X109628388Y-44605109D01*
X109674120Y-44631772D01*
X109790515Y-44682096D01*
X109879976Y-44641621D01*
X109902308Y-44620406D01*
X109959285Y-44511549D01*
X109948976Y-44447940D01*
X109894898Y-44408878D01*
X109847813Y-44465097D01*
X109748465Y-44525987D01*
X109584353Y-44521623D01*
X109396922Y-44456385D01*
X109316995Y-44409010D01*
X109254314Y-44357603D01*
X109274224Y-44332080D01*
X109394663Y-44323606D01*
X109491620Y-44323000D01*
X109673594Y-44316907D01*
X109761930Y-44287303D01*
X109789822Y-44217200D01*
X109791500Y-44169542D01*
X109827985Y-44021894D01*
X109920084Y-43968838D01*
X110041758Y-44007693D01*
X110166967Y-44135778D01*
X110213011Y-44212942D01*
X110288529Y-44333321D01*
X110343050Y-44345796D01*
X110367827Y-44316372D01*
X110422264Y-44275657D01*
X110503969Y-44320578D01*
X110586234Y-44402375D01*
X110714209Y-44517043D01*
X110820215Y-44575204D01*
X110834044Y-44577000D01*
X110943001Y-44621690D01*
X110998000Y-44672250D01*
X111097628Y-44751579D01*
X111148650Y-44765639D01*
X111148989Y-44727974D01*
X111070422Y-44633974D01*
X110998000Y-44565174D01*
X110705844Y-44302186D01*
X110496296Y-44107433D01*
X110355807Y-43966191D01*
X110270826Y-43863731D01*
X110227805Y-43785327D01*
X110213195Y-43716253D01*
X110212912Y-43711839D01*
X110166276Y-43587205D01*
X110093125Y-43561045D01*
X109999179Y-43516476D01*
X109982000Y-43465750D01*
X109943802Y-43381310D01*
X109911093Y-43370500D01*
X109867638Y-43319945D01*
X109874710Y-43238485D01*
X109880302Y-43143160D01*
X109818616Y-43141242D01*
X109742872Y-43126323D01*
X109728000Y-43057801D01*
X109683629Y-42940568D01*
X109633820Y-42903448D01*
X109570350Y-42824004D01*
X109576908Y-42770190D01*
X109561266Y-42667502D01*
X109514065Y-42634655D01*
X109435936Y-42551057D01*
X109377105Y-42397344D01*
X109372459Y-42375050D01*
X109323181Y-42218639D01*
X109257118Y-42126686D01*
X109248064Y-42122050D01*
X109172906Y-42038731D01*
X109160606Y-41984244D01*
X109138125Y-41697975D01*
X109100850Y-41529898D01*
X109079359Y-41494171D01*
X109067259Y-41408179D01*
X109091191Y-41341879D01*
X109116499Y-41209089D01*
X109101284Y-41027263D01*
X109097099Y-41007427D01*
X109071046Y-40810131D01*
X109096652Y-40705240D01*
X109167328Y-40703920D01*
X109238168Y-40768347D01*
X109296139Y-40859570D01*
X109281636Y-40894000D01*
X109250071Y-40945637D01*
X109248793Y-41062770D01*
X109273370Y-41188734D01*
X109310223Y-41259391D01*
X109309996Y-41333422D01*
X109276859Y-41414409D01*
X109253240Y-41527832D01*
X109281337Y-41631525D01*
X109339420Y-41688572D01*
X109405757Y-41662060D01*
X109414894Y-41648890D01*
X109439784Y-41527590D01*
X109432045Y-41493557D01*
X109442006Y-41400072D01*
X109517749Y-41360062D01*
X109600557Y-41401917D01*
X109605693Y-41409594D01*
X109631345Y-41525645D01*
X109633403Y-41717742D01*
X109614374Y-41937643D01*
X109576766Y-42137105D01*
X109565935Y-42174444D01*
X109568764Y-42271492D01*
X109628470Y-42291000D01*
X109715451Y-42245408D01*
X109728000Y-42202544D01*
X109779333Y-42105129D01*
X109825988Y-42076486D01*
X109889642Y-42020361D01*
X109857566Y-41914796D01*
X109825532Y-41791751D01*
X109855574Y-41750896D01*
X109910516Y-41776292D01*
X109956441Y-41893975D01*
X109958933Y-41905792D01*
X110011433Y-42059519D01*
X110079623Y-42096284D01*
X110141390Y-42035965D01*
X110210513Y-41998499D01*
X110271652Y-42044317D01*
X110275853Y-42134031D01*
X110291687Y-42239185D01*
X110339864Y-42298150D01*
X110429103Y-42344520D01*
X110493036Y-42286917D01*
X110528298Y-42268228D01*
X110535379Y-42371709D01*
X110531739Y-42431004D01*
X110531508Y-42560182D01*
X111279541Y-42560182D01*
X111341958Y-42550014D01*
X111424318Y-42561689D01*
X111425302Y-42583365D01*
X111340314Y-42598524D01*
X111303593Y-42588378D01*
X111279541Y-42560182D01*
X110531508Y-42560182D01*
X110531453Y-42590816D01*
X110575032Y-42664236D01*
X110644667Y-42685004D01*
X110747482Y-42742333D01*
X110757091Y-42814875D01*
X110761656Y-42830750D01*
X110934500Y-42830750D01*
X110966250Y-42799000D01*
X110998000Y-42830750D01*
X110966250Y-42862500D01*
X110934500Y-42830750D01*
X110761656Y-42830750D01*
X110784260Y-42909342D01*
X110836466Y-42926000D01*
X110915939Y-42980873D01*
X110934500Y-43084750D01*
X110960843Y-43210787D01*
X111014643Y-43237977D01*
X111058054Y-43161681D01*
X111064042Y-43100625D01*
X111070759Y-43011622D01*
X111098687Y-43023523D01*
X111161320Y-43132375D01*
X111194361Y-43180000D01*
X111760000Y-43180000D01*
X111783233Y-43127733D01*
X111802333Y-43137667D01*
X111809933Y-43213027D01*
X111802333Y-43222334D01*
X111764582Y-43213617D01*
X111760000Y-43180000D01*
X111194361Y-43180000D01*
X111246170Y-43254677D01*
X111319156Y-43306973D01*
X111320311Y-43307000D01*
X111352661Y-43338750D01*
X111760000Y-43338750D01*
X111791750Y-43307000D01*
X111823500Y-43338750D01*
X111791750Y-43370500D01*
X111760000Y-43338750D01*
X111352661Y-43338750D01*
X111368893Y-43354680D01*
X111367425Y-43386375D01*
X111385584Y-43511908D01*
X111394685Y-43529250D01*
X111760000Y-43529250D01*
X111791750Y-43497500D01*
X111823500Y-43529250D01*
X111791750Y-43561000D01*
X111760000Y-43529250D01*
X111394685Y-43529250D01*
X111463200Y-43659805D01*
X111569895Y-43788371D01*
X111675293Y-43855908D01*
X111709977Y-43856577D01*
X111798953Y-43851372D01*
X111813809Y-43869138D01*
X111826190Y-44014955D01*
X111904519Y-44068998D01*
X111905236Y-44069000D01*
X111975752Y-44015630D01*
X111996540Y-43942000D01*
X111974395Y-43839294D01*
X111933853Y-43815000D01*
X111897231Y-43790997D01*
X111937799Y-43738801D01*
X112004874Y-43613616D01*
X111999290Y-43483994D01*
X111934625Y-43412376D01*
X111887880Y-43370938D01*
X111935385Y-43323492D01*
X111981745Y-43255466D01*
X111967449Y-43133570D01*
X111940859Y-43048783D01*
X111877955Y-42894958D01*
X111820898Y-42801651D01*
X111814060Y-42795848D01*
X111775721Y-42715055D01*
X111748094Y-42560674D01*
X111745087Y-42526100D01*
X111722795Y-42374145D01*
X111688878Y-42294551D01*
X111680544Y-42291128D01*
X111631948Y-42237965D01*
X111548884Y-42098175D01*
X111448658Y-41901098D01*
X111440904Y-41884768D01*
X111331585Y-41669861D01*
X111229093Y-41496122D01*
X111155523Y-41400984D01*
X111155234Y-41400742D01*
X111075389Y-41292683D01*
X111061500Y-41235475D01*
X111024588Y-41156087D01*
X110998000Y-41148000D01*
X110940370Y-41097153D01*
X110934500Y-41060526D01*
X110889632Y-40951354D01*
X110830821Y-40887006D01*
X110767711Y-40819689D01*
X110809811Y-40779954D01*
X110878446Y-40758560D01*
X110983415Y-40726667D01*
X110968444Y-40714404D01*
X110886875Y-40709830D01*
X110775226Y-40680892D01*
X110744000Y-40640000D01*
X110692889Y-40582935D01*
X110653166Y-40576500D01*
X110574279Y-40522475D01*
X110542041Y-40434480D01*
X110494835Y-40329859D01*
X110369366Y-40270997D01*
X110284130Y-40254059D01*
X110125656Y-40234525D01*
X110031985Y-40234443D01*
X110024458Y-40237709D01*
X109958975Y-40241286D01*
X109776428Y-40244707D01*
X109486756Y-40247923D01*
X109099894Y-40250886D01*
X108625780Y-40253548D01*
X108074350Y-40255861D01*
X107455542Y-40257776D01*
X106779292Y-40259246D01*
X106055537Y-40260221D01*
X105296163Y-40260654D01*
X104274529Y-40261723D01*
X103375170Y-40264515D01*
X102598704Y-40269020D01*
X101945747Y-40275231D01*
X101416919Y-40283138D01*
X101012835Y-40292733D01*
X100734114Y-40304009D01*
X100581373Y-40316955D01*
X100550072Y-40326024D01*
X100549211Y-40354250D01*
X100901500Y-40354250D01*
X100933250Y-40322500D01*
X100948432Y-40337682D01*
X102453041Y-40337682D01*
X102515458Y-40327514D01*
X102597818Y-40339189D01*
X102598802Y-40360865D01*
X102513814Y-40376024D01*
X102477093Y-40365878D01*
X102453041Y-40337682D01*
X100948432Y-40337682D01*
X100965000Y-40354250D01*
X100933250Y-40386000D01*
X100901500Y-40354250D01*
X100549211Y-40354250D01*
X100547024Y-40425831D01*
X100562904Y-40481250D01*
X100711000Y-40481250D01*
X100742750Y-40449500D01*
X100774500Y-40481250D01*
X100742750Y-40513000D01*
X100711000Y-40481250D01*
X100562904Y-40481250D01*
X100593731Y-40588828D01*
X100672042Y-40775311D01*
X100756496Y-40932023D01*
X100838000Y-40932023D01*
X100878646Y-40863991D01*
X100933250Y-40871037D01*
X101014535Y-40860401D01*
X101028500Y-40805544D01*
X100996214Y-40716769D01*
X100965000Y-40703500D01*
X100903302Y-40659544D01*
X100901500Y-40645945D01*
X100951712Y-40612304D01*
X101021333Y-40619727D01*
X101139727Y-40615094D01*
X101183831Y-40582032D01*
X101278871Y-40519204D01*
X101322276Y-40513000D01*
X101387943Y-40549717D01*
X101380772Y-40608250D01*
X103060500Y-40608250D01*
X103092250Y-40576500D01*
X103124000Y-40608250D01*
X103092250Y-40640000D01*
X103060500Y-40608250D01*
X101380772Y-40608250D01*
X101376335Y-40644456D01*
X101375663Y-40671750D01*
X103886000Y-40671750D01*
X103917750Y-40640000D01*
X103949500Y-40671750D01*
X103917750Y-40703500D01*
X103886000Y-40671750D01*
X101375663Y-40671750D01*
X101373546Y-40757651D01*
X101415857Y-40782182D01*
X101691041Y-40782182D01*
X101753458Y-40772014D01*
X101835818Y-40783689D01*
X101836501Y-40798750D01*
X103124000Y-40798750D01*
X103155750Y-40767000D01*
X103187500Y-40798750D01*
X103759000Y-40798750D01*
X103790750Y-40767000D01*
X103822500Y-40798750D01*
X104140000Y-40798750D01*
X104171750Y-40767000D01*
X104203500Y-40798750D01*
X104192916Y-40809334D01*
X108796666Y-40809334D01*
X108805383Y-40771583D01*
X108839000Y-40767000D01*
X108891267Y-40790234D01*
X108881333Y-40809334D01*
X108805973Y-40816934D01*
X108796666Y-40809334D01*
X104192916Y-40809334D01*
X104171750Y-40830500D01*
X104140000Y-40798750D01*
X103822500Y-40798750D01*
X103790750Y-40830500D01*
X103759000Y-40798750D01*
X103187500Y-40798750D01*
X103155750Y-40830500D01*
X103124000Y-40798750D01*
X101836501Y-40798750D01*
X101836802Y-40805365D01*
X101751814Y-40820524D01*
X101715093Y-40810378D01*
X101691041Y-40782182D01*
X101415857Y-40782182D01*
X101462914Y-40809464D01*
X101601641Y-40898315D01*
X101617485Y-40965600D01*
X101924866Y-40965600D01*
X101935392Y-40901644D01*
X101944658Y-40925750D01*
X108839000Y-40925750D01*
X108870750Y-40894000D01*
X108902500Y-40925750D01*
X108870750Y-40957500D01*
X108839000Y-40925750D01*
X101944658Y-40925750D01*
X101957524Y-40959218D01*
X101961272Y-40973375D01*
X101989807Y-41024748D01*
X102425500Y-41024748D01*
X102471595Y-40960085D01*
X102489000Y-40957500D01*
X102550849Y-40979166D01*
X102552500Y-40985503D01*
X102549425Y-40989250D01*
X103441500Y-40989250D01*
X103473250Y-40957500D01*
X103505000Y-40989250D01*
X103473250Y-41021000D01*
X103441500Y-40989250D01*
X102549425Y-40989250D01*
X102508003Y-41039717D01*
X102489000Y-41052750D01*
X102430485Y-41047716D01*
X102425500Y-41024748D01*
X101989807Y-41024748D01*
X102013578Y-41067544D01*
X102049156Y-41084500D01*
X102097130Y-41126834D01*
X102192666Y-41126834D01*
X102201383Y-41089083D01*
X102235000Y-41084500D01*
X102287267Y-41107734D01*
X102277333Y-41126834D01*
X102201973Y-41134434D01*
X102192666Y-41126834D01*
X102097130Y-41126834D01*
X102105151Y-41133912D01*
X102108000Y-41155776D01*
X102077290Y-41189332D01*
X102012750Y-41148000D01*
X101935438Y-41032182D01*
X101924866Y-40965600D01*
X101617485Y-40965600D01*
X101637437Y-41050321D01*
X101616805Y-41132125D01*
X101581534Y-41194289D01*
X101552278Y-41145358D01*
X101536639Y-41084834D01*
X101476751Y-40967513D01*
X101389022Y-40905885D01*
X101311666Y-40913854D01*
X101282500Y-40992370D01*
X101265170Y-41063399D01*
X101194931Y-41027348D01*
X101190297Y-41023529D01*
X101058724Y-40978497D01*
X100968047Y-40988283D01*
X100863032Y-40994495D01*
X100838000Y-40932023D01*
X100756496Y-40932023D01*
X100763801Y-40945577D01*
X100850856Y-41059919D01*
X100897309Y-41085473D01*
X100959999Y-41098029D01*
X100910828Y-41140891D01*
X100874059Y-41229075D01*
X100898416Y-41373481D01*
X100965019Y-41533854D01*
X101054986Y-41669939D01*
X101149437Y-41741481D01*
X101192108Y-41740599D01*
X101270270Y-41733103D01*
X101267352Y-41788757D01*
X101199160Y-41859858D01*
X101163437Y-41862376D01*
X101107921Y-41861158D01*
X101102108Y-41907996D01*
X101150377Y-42026024D01*
X101176919Y-42079346D01*
X101303678Y-42079346D01*
X101305933Y-42006682D01*
X101346854Y-41908405D01*
X101390419Y-41752989D01*
X101400230Y-41552919D01*
X101397890Y-41521388D01*
X101402501Y-41355419D01*
X101441708Y-41295274D01*
X101452844Y-41306750D01*
X101600000Y-41306750D01*
X101631750Y-41275000D01*
X101663500Y-41306750D01*
X101631750Y-41338500D01*
X101600000Y-41306750D01*
X101452844Y-41306750D01*
X101491491Y-41346576D01*
X101498741Y-41377622D01*
X102134372Y-41377622D01*
X102211808Y-41309847D01*
X102277337Y-41297593D01*
X102362923Y-41306750D01*
X102552500Y-41306750D01*
X102584250Y-41275000D01*
X102616000Y-41306750D01*
X105410000Y-41306750D01*
X105441750Y-41275000D01*
X105473500Y-41306750D01*
X105441750Y-41338500D01*
X105410000Y-41306750D01*
X102616000Y-41306750D01*
X102584250Y-41338500D01*
X102552500Y-41306750D01*
X102362923Y-41306750D01*
X102391290Y-41309785D01*
X102425500Y-41341470D01*
X102379326Y-41419809D01*
X102360791Y-41433750D01*
X103124000Y-41433750D01*
X103155750Y-41402000D01*
X103187500Y-41433750D01*
X103155750Y-41465500D01*
X103124000Y-41433750D01*
X102360791Y-41433750D01*
X102355220Y-41437940D01*
X102326237Y-41495266D01*
X102371095Y-41535966D01*
X102421801Y-41580673D01*
X102362000Y-41590556D01*
X102220071Y-41554666D01*
X102140661Y-41471458D01*
X102134372Y-41377622D01*
X101498741Y-41377622D01*
X101519266Y-41465500D01*
X101727000Y-41465500D01*
X101780184Y-41413908D01*
X101854000Y-41402000D01*
X101957218Y-41426439D01*
X101981000Y-41460307D01*
X102001945Y-41566724D01*
X102019543Y-41619057D01*
X102019437Y-41701299D01*
X102562735Y-41701299D01*
X102578186Y-41665812D01*
X102642124Y-41597642D01*
X102678881Y-41611626D01*
X102679500Y-41620503D01*
X102676354Y-41624250D01*
X104394000Y-41624250D01*
X104425750Y-41592500D01*
X104457500Y-41624250D01*
X104425750Y-41656000D01*
X104394000Y-41624250D01*
X102676354Y-41624250D01*
X102634397Y-41674212D01*
X102606188Y-41693814D01*
X102579948Y-41698334D01*
X103907166Y-41698334D01*
X103915883Y-41660583D01*
X103949500Y-41656000D01*
X104001767Y-41679234D01*
X103991833Y-41698334D01*
X103916473Y-41705934D01*
X103907166Y-41698334D01*
X102579948Y-41698334D01*
X102562735Y-41701299D01*
X102019437Y-41701299D01*
X102019433Y-41703736D01*
X101987793Y-41719500D01*
X101925473Y-41668179D01*
X101917500Y-41624250D01*
X101866670Y-41540064D01*
X101822250Y-41529000D01*
X101737746Y-41494712D01*
X101727000Y-41465500D01*
X101519266Y-41465500D01*
X101525352Y-41491557D01*
X101516584Y-41621291D01*
X101507909Y-41656000D01*
X101600000Y-41656000D01*
X101623233Y-41603733D01*
X101642333Y-41613667D01*
X101649933Y-41689027D01*
X101642333Y-41698334D01*
X101604582Y-41689617D01*
X101600000Y-41656000D01*
X101507909Y-41656000D01*
X101482899Y-41756062D01*
X105173897Y-41756062D01*
X105224378Y-41638901D01*
X105300422Y-41515174D01*
X105370738Y-41462801D01*
X105408651Y-41498991D01*
X105410000Y-41519159D01*
X105367473Y-41596970D01*
X105277686Y-41692560D01*
X105187629Y-41770214D01*
X105173897Y-41756062D01*
X101482899Y-41756062D01*
X101476088Y-41783311D01*
X101464445Y-41814750D01*
X101727000Y-41814750D01*
X101758750Y-41783000D01*
X101790500Y-41814750D01*
X103124000Y-41814750D01*
X103155750Y-41783000D01*
X103187500Y-41814750D01*
X103155750Y-41846500D01*
X103124000Y-41814750D01*
X101790500Y-41814750D01*
X101758750Y-41846500D01*
X101727000Y-41814750D01*
X101464445Y-41814750D01*
X101440926Y-41878250D01*
X101600000Y-41878250D01*
X101631750Y-41846500D01*
X101663500Y-41878250D01*
X102108000Y-41878250D01*
X102139750Y-41846500D01*
X102171500Y-41878250D01*
X105092500Y-41878250D01*
X105124250Y-41846500D01*
X105156000Y-41878250D01*
X105124250Y-41910000D01*
X105092500Y-41878250D01*
X102171500Y-41878250D01*
X102139750Y-41910000D01*
X102108000Y-41878250D01*
X101663500Y-41878250D01*
X101631750Y-41910000D01*
X101600000Y-41878250D01*
X101440926Y-41878250D01*
X101418217Y-41939565D01*
X101365444Y-42037000D01*
X102044500Y-42037000D01*
X102090075Y-41975318D01*
X102104252Y-41973500D01*
X102190252Y-42019659D01*
X102203250Y-42037000D01*
X102202258Y-42040748D01*
X102616000Y-42040748D01*
X102662095Y-41976085D01*
X102679500Y-41973500D01*
X104140000Y-41973500D01*
X104163233Y-41921233D01*
X104182333Y-41931167D01*
X104189933Y-42006527D01*
X104182333Y-42015834D01*
X104144582Y-42007117D01*
X104140000Y-41973500D01*
X102679500Y-41973500D01*
X102741349Y-41995166D01*
X102743000Y-42001503D01*
X102701405Y-42052182D01*
X102834041Y-42052182D01*
X102896458Y-42042014D01*
X102978818Y-42053689D01*
X102979802Y-42075365D01*
X102894814Y-42090524D01*
X102858093Y-42080378D01*
X102834041Y-42052182D01*
X102701405Y-42052182D01*
X102698503Y-42055717D01*
X102679500Y-42068750D01*
X102620985Y-42063716D01*
X102616000Y-42040748D01*
X102202258Y-42040748D01*
X102188854Y-42091363D01*
X102143497Y-42100500D01*
X102056615Y-42067347D01*
X102044500Y-42037000D01*
X101365444Y-42037000D01*
X101357322Y-42051995D01*
X101307755Y-42082549D01*
X101303678Y-42079346D01*
X101176919Y-42079346D01*
X101219058Y-42164000D01*
X101504750Y-42164000D01*
X101509784Y-42105486D01*
X101532752Y-42100500D01*
X101597415Y-42146596D01*
X101600000Y-42164000D01*
X101593645Y-42182143D01*
X101790500Y-42182143D01*
X101797860Y-42065947D01*
X101836016Y-42060244D01*
X101893263Y-42112550D01*
X101943175Y-42195750D01*
X103441500Y-42195750D01*
X103473250Y-42164000D01*
X104076500Y-42164000D01*
X104098165Y-42102151D01*
X104104502Y-42100500D01*
X104158716Y-42144997D01*
X104171750Y-42164000D01*
X104167853Y-42209299D01*
X104848735Y-42209299D01*
X104864186Y-42173812D01*
X104928124Y-42105642D01*
X104964881Y-42119626D01*
X104965500Y-42128503D01*
X104920397Y-42182212D01*
X104892188Y-42201814D01*
X104848735Y-42209299D01*
X104167853Y-42209299D01*
X104166715Y-42222515D01*
X104143747Y-42227500D01*
X104079084Y-42181405D01*
X104076500Y-42164000D01*
X103473250Y-42164000D01*
X103505000Y-42195750D01*
X103473250Y-42227500D01*
X103441500Y-42195750D01*
X101943175Y-42195750D01*
X101957395Y-42219452D01*
X101953016Y-42284907D01*
X101911547Y-42321015D01*
X102071076Y-42321015D01*
X102093974Y-42288544D01*
X102151058Y-42272152D01*
X102342982Y-42235247D01*
X102436235Y-42255456D01*
X102447869Y-42337573D01*
X102443899Y-42354500D01*
X103219250Y-42354500D01*
X103224284Y-42295986D01*
X103247252Y-42291000D01*
X103311915Y-42337096D01*
X103314500Y-42354500D01*
X103292834Y-42416350D01*
X103286497Y-42418000D01*
X103232283Y-42373504D01*
X103219250Y-42354500D01*
X102443899Y-42354500D01*
X102396759Y-42431514D01*
X104140000Y-42431514D01*
X104193477Y-42386789D01*
X104267000Y-42371960D01*
X104369848Y-42388933D01*
X104394000Y-42421947D01*
X104340780Y-42470345D01*
X104267000Y-42481500D01*
X104163734Y-42460523D01*
X104140000Y-42431514D01*
X102396759Y-42431514D01*
X102377629Y-42462767D01*
X102261441Y-42457647D01*
X102151058Y-42389766D01*
X102071076Y-42321015D01*
X101911547Y-42321015D01*
X101874115Y-42353607D01*
X101812641Y-42309389D01*
X101790500Y-42182143D01*
X101593645Y-42182143D01*
X101578334Y-42225850D01*
X101571997Y-42227500D01*
X101517783Y-42183004D01*
X101504750Y-42164000D01*
X101219058Y-42164000D01*
X101221434Y-42168773D01*
X101307619Y-42314607D01*
X101371969Y-42386250D01*
X101536500Y-42386250D01*
X101568250Y-42354500D01*
X101600000Y-42386250D01*
X101568250Y-42418000D01*
X101536500Y-42386250D01*
X101371969Y-42386250D01*
X101376637Y-42391446D01*
X101396059Y-42394801D01*
X101427077Y-42430938D01*
X101439627Y-42518154D01*
X101684075Y-42518154D01*
X101753458Y-42481500D01*
X101840932Y-42532628D01*
X101854000Y-42582042D01*
X101817078Y-42656102D01*
X101778593Y-42657448D01*
X101694737Y-42594244D01*
X101684075Y-42518154D01*
X101439627Y-42518154D01*
X101445018Y-42555616D01*
X101446083Y-42584716D01*
X101446488Y-42587334D01*
X101494166Y-42587334D01*
X101502883Y-42549583D01*
X101536500Y-42545000D01*
X101588767Y-42568234D01*
X101578833Y-42587334D01*
X101503473Y-42594934D01*
X101494166Y-42587334D01*
X101446488Y-42587334D01*
X101472602Y-42756054D01*
X101530362Y-42875653D01*
X101534773Y-42880034D01*
X101591484Y-42923532D01*
X101571527Y-42868734D01*
X101568250Y-42862500D01*
X101543825Y-42801745D01*
X101594972Y-42838867D01*
X101603384Y-42846625D01*
X101726220Y-42918004D01*
X101822443Y-42905345D01*
X101854000Y-42830750D01*
X101904829Y-42746564D01*
X101949250Y-42735500D01*
X102031687Y-42684110D01*
X102044500Y-42632844D01*
X102082962Y-42559088D01*
X102172917Y-42563770D01*
X102318107Y-42559910D01*
X102488874Y-42503788D01*
X102491187Y-42502641D01*
X102643853Y-42446366D01*
X102755442Y-42438923D01*
X102759645Y-42440442D01*
X102774388Y-42478855D01*
X102701972Y-42513250D01*
X103124000Y-42513250D01*
X103155750Y-42481500D01*
X103187500Y-42513250D01*
X104648000Y-42513250D01*
X104679750Y-42481500D01*
X104711500Y-42513250D01*
X104679750Y-42545000D01*
X104648000Y-42513250D01*
X103187500Y-42513250D01*
X103155750Y-42545000D01*
X103124000Y-42513250D01*
X102701972Y-42513250D01*
X102695375Y-42516383D01*
X102584286Y-42580187D01*
X102552500Y-42640353D01*
X102517375Y-42704899D01*
X102649887Y-42704899D01*
X102714988Y-42642270D01*
X102834220Y-42560236D01*
X102860925Y-42564265D01*
X102806500Y-42640250D01*
X104203500Y-42640250D01*
X104235250Y-42608500D01*
X104267000Y-42640250D01*
X104235250Y-42672000D01*
X104203500Y-42640250D01*
X102806500Y-42640250D01*
X102708648Y-42720413D01*
X102659588Y-42735500D01*
X102649887Y-42704899D01*
X102517375Y-42704899D01*
X102497400Y-42741605D01*
X102361125Y-42841814D01*
X102187209Y-42915930D01*
X102032506Y-42939570D01*
X101904129Y-42954105D01*
X101854000Y-42993748D01*
X101801084Y-43042778D01*
X101733793Y-43053000D01*
X101612758Y-43103886D01*
X101571687Y-43162190D01*
X101570523Y-43167506D01*
X101866188Y-43167506D01*
X101912417Y-43120248D01*
X101986015Y-43096790D01*
X102081591Y-43091508D01*
X102084039Y-43150850D01*
X102087350Y-43251001D01*
X102110773Y-43276964D01*
X102167102Y-43266744D01*
X102171500Y-43242712D01*
X102212556Y-43143979D01*
X102272512Y-43069916D01*
X102358434Y-43004710D01*
X102415649Y-43038350D01*
X102428755Y-43058268D01*
X102484585Y-43111256D01*
X102551455Y-43058530D01*
X102565867Y-43040056D01*
X102679663Y-42964502D01*
X102857901Y-42913770D01*
X102901750Y-42908165D01*
X103065131Y-42890472D01*
X103162164Y-42876061D01*
X103171625Y-42873175D01*
X103173341Y-42877240D01*
X104434859Y-42877240D01*
X104440629Y-42784599D01*
X104493202Y-42708870D01*
X104599586Y-42619325D01*
X104644590Y-42630101D01*
X104648000Y-42659864D01*
X104622856Y-42735500D01*
X106172000Y-42735500D01*
X106195233Y-42683233D01*
X106214333Y-42693167D01*
X106221933Y-42768527D01*
X106214333Y-42777834D01*
X106176582Y-42769117D01*
X106172000Y-42735500D01*
X104622856Y-42735500D01*
X104614815Y-42759686D01*
X104541030Y-42850239D01*
X104465293Y-42892105D01*
X104434859Y-42877240D01*
X103173341Y-42877240D01*
X103187152Y-42909946D01*
X103187500Y-42922110D01*
X103130910Y-42965822D01*
X102987413Y-43008736D01*
X102896699Y-43025327D01*
X102792534Y-43051232D01*
X104282438Y-43051232D01*
X104304017Y-42980978D01*
X104352712Y-42932898D01*
X104380490Y-42980722D01*
X104380965Y-43079854D01*
X104377919Y-43084750D01*
X108966000Y-43084750D01*
X108997750Y-43053000D01*
X109029500Y-43084750D01*
X108997750Y-43116500D01*
X108966000Y-43084750D01*
X104377919Y-43084750D01*
X104368864Y-43099303D01*
X104307794Y-43114098D01*
X104282438Y-43051232D01*
X102792534Y-43051232D01*
X102702804Y-43073547D01*
X102584630Y-43141561D01*
X102568882Y-43165400D01*
X102574142Y-43211750D01*
X103124000Y-43211750D01*
X103155750Y-43180000D01*
X103187500Y-43211750D01*
X103155750Y-43243500D01*
X103124000Y-43211750D01*
X102574142Y-43211750D01*
X102581671Y-43278076D01*
X102651074Y-43338750D01*
X103251000Y-43338750D01*
X103282750Y-43307000D01*
X103314500Y-43338750D01*
X103759000Y-43338750D01*
X103790750Y-43307000D01*
X103822500Y-43338750D01*
X103790750Y-43370500D01*
X103759000Y-43338750D01*
X103314500Y-43338750D01*
X103282750Y-43370500D01*
X103251000Y-43338750D01*
X102651074Y-43338750D01*
X102684832Y-43368261D01*
X102841736Y-43412920D01*
X102953060Y-43407044D01*
X103070503Y-43390290D01*
X103075602Y-43402250D01*
X103632000Y-43402250D01*
X103663750Y-43370500D01*
X103695500Y-43402250D01*
X103681951Y-43415799D01*
X104086735Y-43415799D01*
X104102186Y-43380312D01*
X104166124Y-43312142D01*
X104202881Y-43326126D01*
X104203500Y-43335003D01*
X104158397Y-43388712D01*
X104130188Y-43408314D01*
X104086735Y-43415799D01*
X103681951Y-43415799D01*
X103663750Y-43434000D01*
X103632000Y-43402250D01*
X103075602Y-43402250D01*
X103081853Y-43416907D01*
X103063030Y-43437748D01*
X104775000Y-43437748D01*
X104821095Y-43373085D01*
X104838500Y-43370500D01*
X104900349Y-43392166D01*
X104902000Y-43398503D01*
X104898925Y-43402250D01*
X109220000Y-43402250D01*
X109251750Y-43370500D01*
X109283500Y-43402250D01*
X109251750Y-43434000D01*
X109220000Y-43402250D01*
X104898925Y-43402250D01*
X104857503Y-43452717D01*
X104838500Y-43465750D01*
X109347000Y-43465750D01*
X109378750Y-43434000D01*
X109410500Y-43465750D01*
X109378750Y-43497500D01*
X109347000Y-43465750D01*
X104838500Y-43465750D01*
X104779985Y-43460716D01*
X104775000Y-43437748D01*
X103063030Y-43437748D01*
X103036970Y-43466601D01*
X102919271Y-43532781D01*
X102768624Y-43559763D01*
X102632001Y-43546911D01*
X102556375Y-43493591D01*
X102552500Y-43473153D01*
X102498176Y-43398982D01*
X102371434Y-43350347D01*
X102226618Y-43345002D01*
X102188545Y-43354235D01*
X102143077Y-43424559D01*
X102150548Y-43485728D01*
X102138233Y-43511329D01*
X102065650Y-43450226D01*
X102022264Y-43402250D01*
X101901744Y-43252569D01*
X101866188Y-43167506D01*
X101570523Y-43167506D01*
X101556450Y-43231777D01*
X101574926Y-43226241D01*
X101650167Y-43220722D01*
X101732230Y-43279254D01*
X101763849Y-43356245D01*
X101757880Y-43371907D01*
X101781465Y-43440407D01*
X101878672Y-43548703D01*
X101917012Y-43582596D01*
X101926215Y-43592750D01*
X103060500Y-43592750D01*
X103092250Y-43561000D01*
X103104157Y-43572907D01*
X103265552Y-43572907D01*
X103293188Y-43508132D01*
X103340958Y-43497500D01*
X103949500Y-43497500D01*
X103972733Y-43445233D01*
X103991833Y-43455167D01*
X103999433Y-43530527D01*
X103991833Y-43539834D01*
X103954082Y-43531117D01*
X103949500Y-43497500D01*
X103340958Y-43497500D01*
X103428432Y-43548628D01*
X103432797Y-43565135D01*
X109172068Y-43565135D01*
X109180754Y-43561000D01*
X109238703Y-43605703D01*
X109251750Y-43624500D01*
X109267931Y-43683866D01*
X109259245Y-43688000D01*
X109201296Y-43643298D01*
X109188250Y-43624500D01*
X109172068Y-43565135D01*
X103432797Y-43565135D01*
X103441500Y-43598042D01*
X103404484Y-43667581D01*
X103328322Y-43656492D01*
X103265552Y-43572907D01*
X103104157Y-43572907D01*
X103124000Y-43592750D01*
X103092250Y-43624500D01*
X103060500Y-43592750D01*
X101926215Y-43592750D01*
X101983769Y-43656250D01*
X102362000Y-43656250D01*
X102393750Y-43624500D01*
X102425500Y-43656250D01*
X102393750Y-43688000D01*
X102362000Y-43656250D01*
X101983769Y-43656250D01*
X102047598Y-43726673D01*
X102069307Y-43841940D01*
X102069138Y-43842384D01*
X102072184Y-43918373D01*
X102177177Y-43937631D01*
X102180581Y-43937537D01*
X102283214Y-43929813D01*
X102265535Y-43903802D01*
X102203250Y-43873062D01*
X102132367Y-43834546D01*
X102172460Y-43832729D01*
X102248334Y-43846347D01*
X102400888Y-43843413D01*
X102483073Y-43762574D01*
X102575322Y-43678014D01*
X102735984Y-43673426D01*
X102862892Y-43702424D01*
X102885803Y-43754275D01*
X102851095Y-43821675D01*
X102757383Y-43892613D01*
X103093958Y-43892613D01*
X103098790Y-43867917D01*
X103150868Y-43815859D01*
X103155750Y-43815000D01*
X103195015Y-43848632D01*
X103341164Y-43848632D01*
X103346250Y-43815000D01*
X103400565Y-43754489D01*
X103409750Y-43751500D01*
X103460235Y-43795789D01*
X103473250Y-43815000D01*
X103458170Y-43868797D01*
X103409750Y-43878500D01*
X103341164Y-43848632D01*
X103195015Y-43848632D01*
X103206449Y-43858425D01*
X103212709Y-43867917D01*
X103193790Y-43914678D01*
X103155750Y-43920834D01*
X103093958Y-43892613D01*
X102757383Y-43892613D01*
X102721773Y-43919569D01*
X102585272Y-43944175D01*
X103644240Y-43944175D01*
X103664816Y-43858124D01*
X103742435Y-43753536D01*
X103836060Y-43675428D01*
X103899244Y-43664436D01*
X103897731Y-43725042D01*
X104653013Y-43725042D01*
X104664688Y-43642682D01*
X104686364Y-43641698D01*
X104690847Y-43666834D01*
X104923166Y-43666834D01*
X104931883Y-43629083D01*
X104965500Y-43624500D01*
X105017767Y-43647734D01*
X105007833Y-43666834D01*
X104932473Y-43674434D01*
X104923166Y-43666834D01*
X104690847Y-43666834D01*
X104701523Y-43726686D01*
X104691377Y-43763407D01*
X104663181Y-43787459D01*
X104653013Y-43725042D01*
X103897731Y-43725042D01*
X103897693Y-43726546D01*
X103822296Y-43834120D01*
X103808542Y-43848886D01*
X103723885Y-43920834D01*
X104161166Y-43920834D01*
X104169883Y-43883083D01*
X104203500Y-43878500D01*
X104255767Y-43901734D01*
X104245833Y-43920834D01*
X104170473Y-43928434D01*
X104161166Y-43920834D01*
X103723885Y-43920834D01*
X103706517Y-43935594D01*
X103647149Y-43949265D01*
X103644240Y-43944175D01*
X102585272Y-43944175D01*
X102584850Y-43944251D01*
X102394490Y-43972180D01*
X102254659Y-44023834D01*
X102162747Y-44083443D01*
X102156330Y-44143723D01*
X102231589Y-44253586D01*
X102236248Y-44259709D01*
X102317685Y-44362413D01*
X102340058Y-44366358D01*
X102320307Y-44275375D01*
X102316662Y-44161913D01*
X102354593Y-44132500D01*
X102398838Y-44191348D01*
X102422835Y-44350944D01*
X102423493Y-44374510D01*
X102575440Y-44374510D01*
X102583018Y-44223025D01*
X102601602Y-44085852D01*
X102611624Y-44021375D01*
X102670352Y-44010315D01*
X102806202Y-44005507D01*
X102811791Y-44005500D01*
X102953646Y-44026814D01*
X102972668Y-44069000D01*
X103949500Y-44069000D01*
X103997821Y-44007346D01*
X104013000Y-44005500D01*
X104074654Y-44053822D01*
X104076500Y-44069000D01*
X104028178Y-44130655D01*
X104013000Y-44132500D01*
X103951345Y-44084179D01*
X103949500Y-44069000D01*
X102972668Y-44069000D01*
X102979515Y-44084182D01*
X103151541Y-44084182D01*
X103213958Y-44074014D01*
X103296318Y-44085689D01*
X103297302Y-44107365D01*
X103212314Y-44122524D01*
X103175593Y-44112378D01*
X103151541Y-44084182D01*
X102979515Y-44084182D01*
X102979828Y-44084875D01*
X102903304Y-44146277D01*
X102856008Y-44147537D01*
X102744652Y-44168921D01*
X102661714Y-44245407D01*
X102639115Y-44335519D01*
X102674487Y-44383403D01*
X102717706Y-44445932D01*
X102690667Y-44474849D01*
X102610105Y-44479615D01*
X102575440Y-44374510D01*
X102423493Y-44374510D01*
X102425500Y-44446253D01*
X102437361Y-44635628D01*
X102467570Y-44767511D01*
X102489000Y-44799250D01*
X102544518Y-44786292D01*
X102552500Y-44746904D01*
X102605980Y-44660006D01*
X102687360Y-44620046D01*
X102782424Y-44568341D01*
X102789938Y-44460051D01*
X102781400Y-44422140D01*
X102774015Y-44287006D01*
X102821165Y-44250458D01*
X102937981Y-44239132D01*
X103107554Y-44224403D01*
X103110972Y-44224120D01*
X103284562Y-44190210D01*
X103409359Y-44132823D01*
X103409815Y-44132446D01*
X103518565Y-44085610D01*
X103588506Y-44119115D01*
X103581828Y-44206287D01*
X103559791Y-44238243D01*
X103523430Y-44337112D01*
X103598322Y-44399235D01*
X103772733Y-44419538D01*
X103948076Y-44406109D01*
X104159656Y-44373491D01*
X104248406Y-44347815D01*
X104213179Y-44330551D01*
X104052827Y-44323167D01*
X104013000Y-44323000D01*
X103836279Y-44312464D01*
X103779713Y-44286916D01*
X103845582Y-44255444D01*
X103990127Y-44231865D01*
X104125844Y-44190339D01*
X104153091Y-44108451D01*
X104184097Y-44023099D01*
X104268495Y-44005500D01*
X104365518Y-43980843D01*
X104364615Y-43886143D01*
X104362250Y-43878500D01*
X104357668Y-43775858D01*
X104423463Y-43751500D01*
X104531930Y-43799262D01*
X104558843Y-43839733D01*
X104638717Y-43899672D01*
X104708434Y-43897701D01*
X104825152Y-43903935D01*
X104866831Y-43936469D01*
X104947174Y-43994269D01*
X105043424Y-43999641D01*
X105092416Y-43949731D01*
X105092500Y-43946657D01*
X105040193Y-43883123D01*
X104981375Y-43858773D01*
X104922339Y-43835761D01*
X104984223Y-43823877D01*
X105009377Y-43822367D01*
X105149948Y-43845385D01*
X105165003Y-43878500D01*
X108712000Y-43878500D01*
X108735233Y-43826233D01*
X108754333Y-43836167D01*
X108761933Y-43911527D01*
X108754333Y-43920834D01*
X108716582Y-43912117D01*
X108712000Y-43878500D01*
X105165003Y-43878500D01*
X105194930Y-43944323D01*
X105183175Y-44020025D01*
X105895353Y-44020025D01*
X105918429Y-43951195D01*
X105956499Y-43942000D01*
X105959856Y-43944193D01*
X109396573Y-43944193D01*
X109417372Y-43889318D01*
X109536470Y-43867981D01*
X109560002Y-43865612D01*
X109734478Y-43857906D01*
X109791662Y-43884690D01*
X109737647Y-43950374D01*
X109708225Y-43972846D01*
X109638630Y-44055490D01*
X109660700Y-44098402D01*
X109724837Y-44179869D01*
X109692180Y-44247292D01*
X109637400Y-44259500D01*
X109549208Y-44207785D01*
X109458537Y-44082323D01*
X109453528Y-44072529D01*
X109396573Y-43944193D01*
X105959856Y-43944193D01*
X106006949Y-43974957D01*
X106032348Y-44088167D01*
X106034002Y-44164250D01*
X109220000Y-44164250D01*
X109251750Y-44132500D01*
X109283500Y-44164250D01*
X109251750Y-44196000D01*
X109220000Y-44164250D01*
X106034002Y-44164250D01*
X106037023Y-44303140D01*
X106036651Y-44323000D01*
X109093000Y-44323000D01*
X109116233Y-44270733D01*
X109135333Y-44280667D01*
X109142933Y-44356027D01*
X109135333Y-44365334D01*
X109097582Y-44356617D01*
X109093000Y-44323000D01*
X106036651Y-44323000D01*
X106036352Y-44338875D01*
X106033482Y-44401682D01*
X108422041Y-44401682D01*
X108484458Y-44391514D01*
X108566818Y-44403189D01*
X108567802Y-44424865D01*
X108482814Y-44440024D01*
X108446093Y-44429878D01*
X108422041Y-44401682D01*
X106033482Y-44401682D01*
X106028273Y-44515638D01*
X106015294Y-44601875D01*
X106000178Y-44579628D01*
X105999704Y-44577000D01*
X105966801Y-44405408D01*
X105924070Y-44199593D01*
X105919851Y-44180125D01*
X105895353Y-44020025D01*
X105183175Y-44020025D01*
X105177280Y-44057981D01*
X105106921Y-44165841D01*
X104961249Y-44196000D01*
X104798680Y-44234788D01*
X104716586Y-44307125D01*
X104681284Y-44354750D01*
X105219500Y-44354750D01*
X105251250Y-44323000D01*
X105283000Y-44354750D01*
X105251250Y-44386500D01*
X105219500Y-44354750D01*
X104681284Y-44354750D01*
X104665759Y-44375693D01*
X104649294Y-44331685D01*
X104648958Y-44323000D01*
X104628486Y-44269213D01*
X104599402Y-44297604D01*
X104500854Y-44382569D01*
X104457500Y-44403716D01*
X104428474Y-44432025D01*
X104517261Y-44444987D01*
X104624903Y-44454498D01*
X104616571Y-44491774D01*
X104549011Y-44548243D01*
X104475891Y-44612548D01*
X104496721Y-44628912D01*
X104626384Y-44607803D01*
X104632125Y-44606697D01*
X104778587Y-44601274D01*
X104790353Y-44608750D01*
X108204000Y-44608750D01*
X108235750Y-44577000D01*
X108267500Y-44608750D01*
X108235750Y-44640500D01*
X108204000Y-44608750D01*
X104790353Y-44608750D01*
X104843610Y-44642588D01*
X104807425Y-44712564D01*
X104773964Y-44736391D01*
X104734417Y-44807916D01*
X104741474Y-44828127D01*
X104713146Y-44876457D01*
X104615509Y-44910184D01*
X104497865Y-44914394D01*
X104457500Y-44885695D01*
X104510110Y-44838076D01*
X104568625Y-44828515D01*
X104602526Y-44810919D01*
X104546583Y-44770795D01*
X104432883Y-44721134D01*
X104293512Y-44674927D01*
X104160559Y-44645165D01*
X104104231Y-44640500D01*
X103958754Y-44682505D01*
X103800657Y-44785056D01*
X103784749Y-44799250D01*
X103775012Y-44809834D01*
X103970666Y-44809834D01*
X103979383Y-44772083D01*
X104013000Y-44767500D01*
X104065267Y-44790734D01*
X104055333Y-44809834D01*
X103979973Y-44817434D01*
X103970666Y-44809834D01*
X103775012Y-44809834D01*
X103691895Y-44900177D01*
X103682812Y-44926250D01*
X103949500Y-44926250D01*
X103981250Y-44894500D01*
X104013000Y-44926250D01*
X105981500Y-44926250D01*
X106013250Y-44894500D01*
X106028432Y-44909682D01*
X108485541Y-44909682D01*
X108547958Y-44899514D01*
X108630318Y-44911189D01*
X108631302Y-44932865D01*
X108546314Y-44948024D01*
X108509593Y-44937878D01*
X108485541Y-44909682D01*
X106028432Y-44909682D01*
X106045000Y-44926250D01*
X106013250Y-44958000D01*
X105981500Y-44926250D01*
X104013000Y-44926250D01*
X103981250Y-44958000D01*
X103949500Y-44926250D01*
X103682812Y-44926250D01*
X103672861Y-44954813D01*
X103683350Y-44958000D01*
X103695811Y-44970249D01*
X108997482Y-44970249D01*
X109022902Y-44858506D01*
X109116312Y-44831000D01*
X109201116Y-44847332D01*
X109174162Y-44902238D01*
X109130889Y-45017493D01*
X109139830Y-45069653D01*
X109138398Y-45139882D01*
X109092239Y-45137664D01*
X109020421Y-45058970D01*
X108997482Y-44970249D01*
X103695811Y-44970249D01*
X103739883Y-45013569D01*
X103788682Y-45150291D01*
X103794939Y-45180250D01*
X103795333Y-45182132D01*
X103976164Y-45182132D01*
X103981250Y-45148500D01*
X104035565Y-45087989D01*
X104044750Y-45085000D01*
X104521000Y-45085000D01*
X104569321Y-45023346D01*
X104584500Y-45021500D01*
X104646154Y-45069822D01*
X104648000Y-45085000D01*
X104599678Y-45146655D01*
X104584500Y-45148500D01*
X107219750Y-45148500D01*
X107224784Y-45089986D01*
X107247752Y-45085000D01*
X107307137Y-45127334D01*
X108288666Y-45127334D01*
X108297383Y-45089583D01*
X108331000Y-45085000D01*
X108383267Y-45108234D01*
X108373333Y-45127334D01*
X108297973Y-45134934D01*
X108288666Y-45127334D01*
X107307137Y-45127334D01*
X107312415Y-45131096D01*
X107314828Y-45147345D01*
X108616035Y-45147345D01*
X108638478Y-45090752D01*
X108695347Y-45065422D01*
X108836609Y-45033381D01*
X108893299Y-45040856D01*
X108902500Y-45077594D01*
X108850494Y-45137527D01*
X108739907Y-45172499D01*
X108638879Y-45165918D01*
X108616035Y-45147345D01*
X107314828Y-45147345D01*
X107315000Y-45148500D01*
X107293334Y-45210350D01*
X107286997Y-45212000D01*
X107232783Y-45167504D01*
X107219750Y-45148500D01*
X104584500Y-45148500D01*
X104522845Y-45100179D01*
X104521000Y-45085000D01*
X104044750Y-45085000D01*
X104095235Y-45129289D01*
X104108250Y-45148500D01*
X104093170Y-45202297D01*
X104044750Y-45212000D01*
X103976164Y-45182132D01*
X103795333Y-45182132D01*
X103825585Y-45326387D01*
X103847407Y-45400291D01*
X103849654Y-45402500D01*
X103930117Y-45391185D01*
X104093199Y-45362534D01*
X104297057Y-45324486D01*
X104499852Y-45284983D01*
X104659742Y-45251964D01*
X104727375Y-45235931D01*
X104821403Y-45245041D01*
X104838500Y-45290998D01*
X104877781Y-45399873D01*
X104970077Y-45517266D01*
X105077064Y-45604247D01*
X105160419Y-45621884D01*
X105162868Y-45620505D01*
X105187793Y-45547676D01*
X105159634Y-45502130D01*
X105126149Y-45406209D01*
X105140675Y-45370602D01*
X105143873Y-45346646D01*
X105115569Y-45359871D01*
X105034679Y-45356421D01*
X104957247Y-45296679D01*
X104926315Y-45223549D01*
X104946903Y-45191744D01*
X105041094Y-45179597D01*
X105177032Y-45194410D01*
X105302115Y-45235940D01*
X105325660Y-45303503D01*
X108140500Y-45303503D01*
X108171284Y-45237777D01*
X108204000Y-45243750D01*
X108265077Y-45324933D01*
X108266990Y-45339000D01*
X108394500Y-45339000D01*
X108442821Y-45277346D01*
X108458000Y-45275500D01*
X108519654Y-45323822D01*
X108521500Y-45339000D01*
X108473178Y-45400655D01*
X108458000Y-45402500D01*
X108396345Y-45354179D01*
X108394500Y-45339000D01*
X108266990Y-45339000D01*
X108267500Y-45342748D01*
X108219065Y-45400790D01*
X108204000Y-45402500D01*
X108148271Y-45350814D01*
X108140500Y-45303503D01*
X105325660Y-45303503D01*
X105330176Y-45316460D01*
X105318336Y-45379070D01*
X105310355Y-45492293D01*
X105340096Y-45529500D01*
X105446207Y-45548709D01*
X105515931Y-45569793D01*
X105592584Y-45592207D01*
X105569411Y-45562070D01*
X105511505Y-45515986D01*
X105435816Y-45428156D01*
X105463880Y-45376696D01*
X105568692Y-45357408D01*
X105595076Y-45367399D01*
X105666877Y-45354176D01*
X105686956Y-45323521D01*
X105699486Y-45329915D01*
X105693330Y-45435894D01*
X105682709Y-45523350D01*
X105669086Y-45704482D01*
X105694085Y-45767002D01*
X105711643Y-45761550D01*
X105775417Y-45785084D01*
X105841648Y-45901798D01*
X105848147Y-45919573D01*
X105885705Y-46068921D01*
X105856840Y-46156908D01*
X105813193Y-46195386D01*
X105748074Y-46256872D01*
X105793604Y-46292708D01*
X105847120Y-46307970D01*
X105913333Y-46320072D01*
X105952363Y-46298336D01*
X105969085Y-46219581D01*
X105968375Y-46060627D01*
X105955109Y-45798294D01*
X105954946Y-45795366D01*
X105947590Y-45523151D01*
X105959199Y-45373446D01*
X105984434Y-45344108D01*
X105994482Y-45370750D01*
X107188000Y-45370750D01*
X107219750Y-45339000D01*
X107251500Y-45370750D01*
X107219750Y-45402500D01*
X107188000Y-45370750D01*
X105994482Y-45370750D01*
X106017960Y-45432993D01*
X106018183Y-45434250D01*
X107696000Y-45434250D01*
X107727750Y-45402500D01*
X107759500Y-45434250D01*
X107727750Y-45466000D01*
X107696000Y-45434250D01*
X106018183Y-45434250D01*
X106040120Y-45557503D01*
X107378500Y-45557503D01*
X107409284Y-45491777D01*
X107442000Y-45497750D01*
X107503077Y-45578933D01*
X107505500Y-45596748D01*
X107457065Y-45654790D01*
X107442000Y-45656500D01*
X107386271Y-45604814D01*
X107378500Y-45557503D01*
X106040120Y-45557503D01*
X106054440Y-45637957D01*
X106057025Y-45660248D01*
X107950000Y-45660248D01*
X107996095Y-45595585D01*
X108013500Y-45593000D01*
X108075349Y-45614666D01*
X108077000Y-45621003D01*
X108032503Y-45675217D01*
X108013500Y-45688250D01*
X107954985Y-45683216D01*
X107950000Y-45660248D01*
X106057025Y-45660248D01*
X106078448Y-45844969D01*
X106093394Y-45942250D01*
X106616500Y-45942250D01*
X106648250Y-45910500D01*
X106680000Y-45942250D01*
X106648250Y-45974000D01*
X106616500Y-45942250D01*
X106093394Y-45942250D01*
X106101442Y-45994632D01*
X106770416Y-45994632D01*
X106821235Y-45925659D01*
X106874247Y-45910500D01*
X106932853Y-45953105D01*
X106934000Y-45963417D01*
X106892576Y-46055442D01*
X106806589Y-46068221D01*
X106797107Y-46063136D01*
X106770416Y-45994632D01*
X106101442Y-45994632D01*
X106124484Y-46144599D01*
X106138145Y-46206834D01*
X106320166Y-46206834D01*
X106328883Y-46169083D01*
X106362500Y-46164500D01*
X106414767Y-46187734D01*
X106404833Y-46206834D01*
X106329473Y-46214434D01*
X106320166Y-46206834D01*
X106138145Y-46206834D01*
X106149761Y-46259750D01*
X106807000Y-46259750D01*
X106838750Y-46228000D01*
X106870500Y-46259750D01*
X106838750Y-46291500D01*
X106807000Y-46259750D01*
X106149761Y-46259750D01*
X106191580Y-46450250D01*
X106553000Y-46450250D01*
X106584750Y-46418500D01*
X106616500Y-46450250D01*
X106584750Y-46482000D01*
X106553000Y-46450250D01*
X106191580Y-46450250D01*
X106206653Y-46518913D01*
X106210787Y-46534570D01*
X106826901Y-46534570D01*
X106847242Y-46497858D01*
X106870500Y-46482000D01*
X106961011Y-46428008D01*
X107002176Y-46440314D01*
X107029250Y-46482000D01*
X107008155Y-46530029D01*
X106921872Y-46544528D01*
X106826901Y-46534570D01*
X106210787Y-46534570D01*
X106258394Y-46714834D01*
X107082166Y-46714834D01*
X107090883Y-46677083D01*
X107124500Y-46672500D01*
X107176767Y-46695734D01*
X107166833Y-46714834D01*
X107091473Y-46722434D01*
X107082166Y-46714834D01*
X106258394Y-46714834D01*
X106305911Y-46894750D01*
X106616500Y-46894750D01*
X106648250Y-46863000D01*
X106680000Y-46894750D01*
X106648250Y-46926500D01*
X106616500Y-46894750D01*
X106305911Y-46894750D01*
X106313826Y-46924716D01*
X106434874Y-47318812D01*
X106516650Y-47549962D01*
X106691946Y-47549962D01*
X106725987Y-47509618D01*
X106743500Y-47498000D01*
X106888054Y-47445014D01*
X106965750Y-47436445D01*
X107049053Y-47446039D01*
X107015012Y-47486383D01*
X106997500Y-47498000D01*
X106852945Y-47550987D01*
X106775250Y-47559556D01*
X106691946Y-47549962D01*
X106516650Y-47549962D01*
X106520732Y-47561500D01*
X106591576Y-47709035D01*
X106676836Y-47764239D01*
X106784637Y-47763102D01*
G37*
X106784637Y-47763102D02*
X106949558Y-47722162D01*
X107052542Y-47667852D01*
X107167681Y-47604148D01*
X107346001Y-47537138D01*
X107402546Y-47520268D01*
X107664250Y-47447286D01*
X107410250Y-47446905D01*
X107175054Y-47433829D01*
X106953170Y-47400290D01*
X106777433Y-47353790D01*
X106680675Y-47301828D01*
X106671720Y-47278212D01*
X106734803Y-47243354D01*
X106881171Y-47228227D01*
X106950843Y-47229279D01*
X107103704Y-47230025D01*
X107136064Y-47211949D01*
X107095566Y-47189656D01*
X107007880Y-47145772D01*
X107030764Y-47105468D01*
X107095566Y-47066824D01*
X107165043Y-47017447D01*
X107140606Y-46984433D01*
X107007020Y-46949179D01*
X106997500Y-46947089D01*
X106775250Y-46898458D01*
X106997500Y-46864854D01*
X107150706Y-46825838D01*
X107214575Y-46750606D01*
X107226027Y-46666090D01*
X107247283Y-46512301D01*
X107277400Y-46427965D01*
X107271148Y-46365404D01*
X107223497Y-46355000D01*
X107136806Y-46311306D01*
X107124500Y-46270748D01*
X107174394Y-46218718D01*
X107291137Y-46210767D01*
X107425317Y-46239862D01*
X107527522Y-46298967D01*
X107549086Y-46331198D01*
X107631748Y-46399847D01*
X107729252Y-46418500D01*
X107853000Y-46445256D01*
X107899404Y-46488963D01*
X107949182Y-46509592D01*
X108007721Y-46457213D01*
X108050396Y-46387756D01*
X108004869Y-46359662D01*
X107886500Y-46355000D01*
X107753220Y-46346046D01*
X107725799Y-46309858D01*
X107755068Y-46265091D01*
X107789624Y-46187692D01*
X107713246Y-46138377D01*
X107699343Y-46133812D01*
X107582825Y-46080557D01*
X107580758Y-46038913D01*
X107680647Y-46016661D01*
X107870002Y-46021583D01*
X107878249Y-46022358D01*
X108090258Y-46027402D01*
X108214729Y-45997230D01*
X108231246Y-45981287D01*
X108232730Y-45917679D01*
X108207747Y-45910500D01*
X108142112Y-45880112D01*
X108164502Y-45815050D01*
X108259607Y-45754470D01*
X108270153Y-45750908D01*
X108365882Y-45679241D01*
X108363823Y-45596383D01*
X108359208Y-45516453D01*
X108439290Y-45505420D01*
X108483559Y-45512775D01*
X108637668Y-45496767D01*
X108722664Y-45409022D01*
X108833875Y-45309007D01*
X109019842Y-45275765D01*
X109044774Y-45275500D01*
X109208332Y-45261271D01*
X109276503Y-45209497D01*
X109283995Y-45164375D01*
X109337555Y-45062863D01*
X109461011Y-44972954D01*
X109599826Y-44925597D01*
X109683230Y-44937827D01*
X109716589Y-44936569D01*
X109699133Y-44899167D01*
X109602178Y-44850086D01*
X109498822Y-44858815D01*
X109379005Y-44870367D01*
X109359732Y-44814300D01*
X109438861Y-44683136D01*
X109445844Y-44673835D01*
X109533460Y-44588844D01*
X109628388Y-44605109D01*
X109674120Y-44631772D01*
X109790515Y-44682096D01*
X109879976Y-44641621D01*
X109902308Y-44620406D01*
X109959285Y-44511549D01*
X109948976Y-44447940D01*
X109894898Y-44408878D01*
X109847813Y-44465097D01*
X109748465Y-44525987D01*
X109584353Y-44521623D01*
X109396922Y-44456385D01*
X109316995Y-44409010D01*
X109254314Y-44357603D01*
X109274224Y-44332080D01*
X109394663Y-44323606D01*
X109491620Y-44323000D01*
X109673594Y-44316907D01*
X109761930Y-44287303D01*
X109789822Y-44217200D01*
X109791500Y-44169542D01*
X109827985Y-44021894D01*
X109920084Y-43968838D01*
X110041758Y-44007693D01*
X110166967Y-44135778D01*
X110213011Y-44212942D01*
X110288529Y-44333321D01*
X110343050Y-44345796D01*
X110367827Y-44316372D01*
X110422264Y-44275657D01*
X110503969Y-44320578D01*
X110586234Y-44402375D01*
X110714209Y-44517043D01*
X110820215Y-44575204D01*
X110834044Y-44577000D01*
X110943001Y-44621690D01*
X110998000Y-44672250D01*
X111097628Y-44751579D01*
X111148650Y-44765639D01*
X111148989Y-44727974D01*
X111070422Y-44633974D01*
X110998000Y-44565174D01*
X110705844Y-44302186D01*
X110496296Y-44107433D01*
X110355807Y-43966191D01*
X110270826Y-43863731D01*
X110227805Y-43785327D01*
X110213195Y-43716253D01*
X110212912Y-43711839D01*
X110166276Y-43587205D01*
X110093125Y-43561045D01*
X109999179Y-43516476D01*
X109982000Y-43465750D01*
X109943802Y-43381310D01*
X109911093Y-43370500D01*
X109867638Y-43319945D01*
X109874710Y-43238485D01*
X109880302Y-43143160D01*
X109818616Y-43141242D01*
X109742872Y-43126323D01*
X109728000Y-43057801D01*
X109683629Y-42940568D01*
X109633820Y-42903448D01*
X109570350Y-42824004D01*
X109576908Y-42770190D01*
X109561266Y-42667502D01*
X109514065Y-42634655D01*
X109435936Y-42551057D01*
X109377105Y-42397344D01*
X109372459Y-42375050D01*
X109323181Y-42218639D01*
X109257118Y-42126686D01*
X109248064Y-42122050D01*
X109172906Y-42038731D01*
X109160606Y-41984244D01*
X109138125Y-41697975D01*
X109100850Y-41529898D01*
X109079359Y-41494171D01*
X109067259Y-41408179D01*
X109091191Y-41341879D01*
X109116499Y-41209089D01*
X109101284Y-41027263D01*
X109097099Y-41007427D01*
X109071046Y-40810131D01*
X109096652Y-40705240D01*
X109167328Y-40703920D01*
X109238168Y-40768347D01*
X109296139Y-40859570D01*
X109281636Y-40894000D01*
X109250071Y-40945637D01*
X109248793Y-41062770D01*
X109273370Y-41188734D01*
X109310223Y-41259391D01*
X109309996Y-41333422D01*
X109276859Y-41414409D01*
X109253240Y-41527832D01*
X109281337Y-41631525D01*
X109339420Y-41688572D01*
X109405757Y-41662060D01*
X109414894Y-41648890D01*
X109439784Y-41527590D01*
X109432045Y-41493557D01*
X109442006Y-41400072D01*
X109517749Y-41360062D01*
X109600557Y-41401917D01*
X109605693Y-41409594D01*
X109631345Y-41525645D01*
X109633403Y-41717742D01*
X109614374Y-41937643D01*
X109576766Y-42137105D01*
X109565935Y-42174444D01*
X109568764Y-42271492D01*
X109628470Y-42291000D01*
X109715451Y-42245408D01*
X109728000Y-42202544D01*
X109779333Y-42105129D01*
X109825988Y-42076486D01*
X109889642Y-42020361D01*
X109857566Y-41914796D01*
X109825532Y-41791751D01*
X109855574Y-41750896D01*
X109910516Y-41776292D01*
X109956441Y-41893975D01*
X109958933Y-41905792D01*
X110011433Y-42059519D01*
X110079623Y-42096284D01*
X110141390Y-42035965D01*
X110210513Y-41998499D01*
X110271652Y-42044317D01*
X110275853Y-42134031D01*
X110291687Y-42239185D01*
X110339864Y-42298150D01*
X110429103Y-42344520D01*
X110493036Y-42286917D01*
X110528298Y-42268228D01*
X110535379Y-42371709D01*
X110531739Y-42431004D01*
X110531508Y-42560182D01*
X111279541Y-42560182D01*
X111341958Y-42550014D01*
X111424318Y-42561689D01*
X111425302Y-42583365D01*
X111340314Y-42598524D01*
X111303593Y-42588378D01*
X111279541Y-42560182D01*
X110531508Y-42560182D01*
X110531453Y-42590816D01*
X110575032Y-42664236D01*
X110644667Y-42685004D01*
X110747482Y-42742333D01*
X110757091Y-42814875D01*
X110761656Y-42830750D01*
X110934500Y-42830750D01*
X110966250Y-42799000D01*
X110998000Y-42830750D01*
X110966250Y-42862500D01*
X110934500Y-42830750D01*
X110761656Y-42830750D01*
X110784260Y-42909342D01*
X110836466Y-42926000D01*
X110915939Y-42980873D01*
X110934500Y-43084750D01*
X110960843Y-43210787D01*
X111014643Y-43237977D01*
X111058054Y-43161681D01*
X111064042Y-43100625D01*
X111070759Y-43011622D01*
X111098687Y-43023523D01*
X111161320Y-43132375D01*
X111194361Y-43180000D01*
X111760000Y-43180000D01*
X111783233Y-43127733D01*
X111802333Y-43137667D01*
X111809933Y-43213027D01*
X111802333Y-43222334D01*
X111764582Y-43213617D01*
X111760000Y-43180000D01*
X111194361Y-43180000D01*
X111246170Y-43254677D01*
X111319156Y-43306973D01*
X111320311Y-43307000D01*
X111352661Y-43338750D01*
X111760000Y-43338750D01*
X111791750Y-43307000D01*
X111823500Y-43338750D01*
X111791750Y-43370500D01*
X111760000Y-43338750D01*
X111352661Y-43338750D01*
X111368893Y-43354680D01*
X111367425Y-43386375D01*
X111385584Y-43511908D01*
X111394685Y-43529250D01*
X111760000Y-43529250D01*
X111791750Y-43497500D01*
X111823500Y-43529250D01*
X111791750Y-43561000D01*
X111760000Y-43529250D01*
X111394685Y-43529250D01*
X111463200Y-43659805D01*
X111569895Y-43788371D01*
X111675293Y-43855908D01*
X111709977Y-43856577D01*
X111798953Y-43851372D01*
X111813809Y-43869138D01*
X111826190Y-44014955D01*
X111904519Y-44068998D01*
X111905236Y-44069000D01*
X111975752Y-44015630D01*
X111996540Y-43942000D01*
X111974395Y-43839294D01*
X111933853Y-43815000D01*
X111897231Y-43790997D01*
X111937799Y-43738801D01*
X112004874Y-43613616D01*
X111999290Y-43483994D01*
X111934625Y-43412376D01*
X111887880Y-43370938D01*
X111935385Y-43323492D01*
X111981745Y-43255466D01*
X111967449Y-43133570D01*
X111940859Y-43048783D01*
X111877955Y-42894958D01*
X111820898Y-42801651D01*
X111814060Y-42795848D01*
X111775721Y-42715055D01*
X111748094Y-42560674D01*
X111745087Y-42526100D01*
X111722795Y-42374145D01*
X111688878Y-42294551D01*
X111680544Y-42291128D01*
X111631948Y-42237965D01*
X111548884Y-42098175D01*
X111448658Y-41901098D01*
X111440904Y-41884768D01*
X111331585Y-41669861D01*
X111229093Y-41496122D01*
X111155523Y-41400984D01*
X111155234Y-41400742D01*
X111075389Y-41292683D01*
X111061500Y-41235475D01*
X111024588Y-41156087D01*
X110998000Y-41148000D01*
X110940370Y-41097153D01*
X110934500Y-41060526D01*
X110889632Y-40951354D01*
X110830821Y-40887006D01*
X110767711Y-40819689D01*
X110809811Y-40779954D01*
X110878446Y-40758560D01*
X110983415Y-40726667D01*
X110968444Y-40714404D01*
X110886875Y-40709830D01*
X110775226Y-40680892D01*
X110744000Y-40640000D01*
X110692889Y-40582935D01*
X110653166Y-40576500D01*
X110574279Y-40522475D01*
X110542041Y-40434480D01*
X110494835Y-40329859D01*
X110369366Y-40270997D01*
X110284130Y-40254059D01*
X110125656Y-40234525D01*
X110031985Y-40234443D01*
X110024458Y-40237709D01*
X109958975Y-40241286D01*
X109776428Y-40244707D01*
X109486756Y-40247923D01*
X109099894Y-40250886D01*
X108625780Y-40253548D01*
X108074350Y-40255861D01*
X107455542Y-40257776D01*
X106779292Y-40259246D01*
X106055537Y-40260221D01*
X105296163Y-40260654D01*
X104274529Y-40261723D01*
X103375170Y-40264515D01*
X102598704Y-40269020D01*
X101945747Y-40275231D01*
X101416919Y-40283138D01*
X101012835Y-40292733D01*
X100734114Y-40304009D01*
X100581373Y-40316955D01*
X100550072Y-40326024D01*
X100549211Y-40354250D01*
X100901500Y-40354250D01*
X100933250Y-40322500D01*
X100948432Y-40337682D01*
X102453041Y-40337682D01*
X102515458Y-40327514D01*
X102597818Y-40339189D01*
X102598802Y-40360865D01*
X102513814Y-40376024D01*
X102477093Y-40365878D01*
X102453041Y-40337682D01*
X100948432Y-40337682D01*
X100965000Y-40354250D01*
X100933250Y-40386000D01*
X100901500Y-40354250D01*
X100549211Y-40354250D01*
X100547024Y-40425831D01*
X100562904Y-40481250D01*
X100711000Y-40481250D01*
X100742750Y-40449500D01*
X100774500Y-40481250D01*
X100742750Y-40513000D01*
X100711000Y-40481250D01*
X100562904Y-40481250D01*
X100593731Y-40588828D01*
X100672042Y-40775311D01*
X100756496Y-40932023D01*
X100838000Y-40932023D01*
X100878646Y-40863991D01*
X100933250Y-40871037D01*
X101014535Y-40860401D01*
X101028500Y-40805544D01*
X100996214Y-40716769D01*
X100965000Y-40703500D01*
X100903302Y-40659544D01*
X100901500Y-40645945D01*
X100951712Y-40612304D01*
X101021333Y-40619727D01*
X101139727Y-40615094D01*
X101183831Y-40582032D01*
X101278871Y-40519204D01*
X101322276Y-40513000D01*
X101387943Y-40549717D01*
X101380772Y-40608250D01*
X103060500Y-40608250D01*
X103092250Y-40576500D01*
X103124000Y-40608250D01*
X103092250Y-40640000D01*
X103060500Y-40608250D01*
X101380772Y-40608250D01*
X101376335Y-40644456D01*
X101375663Y-40671750D01*
X103886000Y-40671750D01*
X103917750Y-40640000D01*
X103949500Y-40671750D01*
X103917750Y-40703500D01*
X103886000Y-40671750D01*
X101375663Y-40671750D01*
X101373546Y-40757651D01*
X101415857Y-40782182D01*
X101691041Y-40782182D01*
X101753458Y-40772014D01*
X101835818Y-40783689D01*
X101836501Y-40798750D01*
X103124000Y-40798750D01*
X103155750Y-40767000D01*
X103187500Y-40798750D01*
X103759000Y-40798750D01*
X103790750Y-40767000D01*
X103822500Y-40798750D01*
X104140000Y-40798750D01*
X104171750Y-40767000D01*
X104203500Y-40798750D01*
X104192916Y-40809334D01*
X108796666Y-40809334D01*
X108805383Y-40771583D01*
X108839000Y-40767000D01*
X108891267Y-40790234D01*
X108881333Y-40809334D01*
X108805973Y-40816934D01*
X108796666Y-40809334D01*
X104192916Y-40809334D01*
X104171750Y-40830500D01*
X104140000Y-40798750D01*
X103822500Y-40798750D01*
X103790750Y-40830500D01*
X103759000Y-40798750D01*
X103187500Y-40798750D01*
X103155750Y-40830500D01*
X103124000Y-40798750D01*
X101836501Y-40798750D01*
X101836802Y-40805365D01*
X101751814Y-40820524D01*
X101715093Y-40810378D01*
X101691041Y-40782182D01*
X101415857Y-40782182D01*
X101462914Y-40809464D01*
X101601641Y-40898315D01*
X101617485Y-40965600D01*
X101924866Y-40965600D01*
X101935392Y-40901644D01*
X101944658Y-40925750D01*
X108839000Y-40925750D01*
X108870750Y-40894000D01*
X108902500Y-40925750D01*
X108870750Y-40957500D01*
X108839000Y-40925750D01*
X101944658Y-40925750D01*
X101957524Y-40959218D01*
X101961272Y-40973375D01*
X101989807Y-41024748D01*
X102425500Y-41024748D01*
X102471595Y-40960085D01*
X102489000Y-40957500D01*
X102550849Y-40979166D01*
X102552500Y-40985503D01*
X102549425Y-40989250D01*
X103441500Y-40989250D01*
X103473250Y-40957500D01*
X103505000Y-40989250D01*
X103473250Y-41021000D01*
X103441500Y-40989250D01*
X102549425Y-40989250D01*
X102508003Y-41039717D01*
X102489000Y-41052750D01*
X102430485Y-41047716D01*
X102425500Y-41024748D01*
X101989807Y-41024748D01*
X102013578Y-41067544D01*
X102049156Y-41084500D01*
X102097130Y-41126834D01*
X102192666Y-41126834D01*
X102201383Y-41089083D01*
X102235000Y-41084500D01*
X102287267Y-41107734D01*
X102277333Y-41126834D01*
X102201973Y-41134434D01*
X102192666Y-41126834D01*
X102097130Y-41126834D01*
X102105151Y-41133912D01*
X102108000Y-41155776D01*
X102077290Y-41189332D01*
X102012750Y-41148000D01*
X101935438Y-41032182D01*
X101924866Y-40965600D01*
X101617485Y-40965600D01*
X101637437Y-41050321D01*
X101616805Y-41132125D01*
X101581534Y-41194289D01*
X101552278Y-41145358D01*
X101536639Y-41084834D01*
X101476751Y-40967513D01*
X101389022Y-40905885D01*
X101311666Y-40913854D01*
X101282500Y-40992370D01*
X101265170Y-41063399D01*
X101194931Y-41027348D01*
X101190297Y-41023529D01*
X101058724Y-40978497D01*
X100968047Y-40988283D01*
X100863032Y-40994495D01*
X100838000Y-40932023D01*
X100756496Y-40932023D01*
X100763801Y-40945577D01*
X100850856Y-41059919D01*
X100897309Y-41085473D01*
X100959999Y-41098029D01*
X100910828Y-41140891D01*
X100874059Y-41229075D01*
X100898416Y-41373481D01*
X100965019Y-41533854D01*
X101054986Y-41669939D01*
X101149437Y-41741481D01*
X101192108Y-41740599D01*
X101270270Y-41733103D01*
X101267352Y-41788757D01*
X101199160Y-41859858D01*
X101163437Y-41862376D01*
X101107921Y-41861158D01*
X101102108Y-41907996D01*
X101150377Y-42026024D01*
X101176919Y-42079346D01*
X101303678Y-42079346D01*
X101305933Y-42006682D01*
X101346854Y-41908405D01*
X101390419Y-41752989D01*
X101400230Y-41552919D01*
X101397890Y-41521388D01*
X101402501Y-41355419D01*
X101441708Y-41295274D01*
X101452844Y-41306750D01*
X101600000Y-41306750D01*
X101631750Y-41275000D01*
X101663500Y-41306750D01*
X101631750Y-41338500D01*
X101600000Y-41306750D01*
X101452844Y-41306750D01*
X101491491Y-41346576D01*
X101498741Y-41377622D01*
X102134372Y-41377622D01*
X102211808Y-41309847D01*
X102277337Y-41297593D01*
X102362923Y-41306750D01*
X102552500Y-41306750D01*
X102584250Y-41275000D01*
X102616000Y-41306750D01*
X105410000Y-41306750D01*
X105441750Y-41275000D01*
X105473500Y-41306750D01*
X105441750Y-41338500D01*
X105410000Y-41306750D01*
X102616000Y-41306750D01*
X102584250Y-41338500D01*
X102552500Y-41306750D01*
X102362923Y-41306750D01*
X102391290Y-41309785D01*
X102425500Y-41341470D01*
X102379326Y-41419809D01*
X102360791Y-41433750D01*
X103124000Y-41433750D01*
X103155750Y-41402000D01*
X103187500Y-41433750D01*
X103155750Y-41465500D01*
X103124000Y-41433750D01*
X102360791Y-41433750D01*
X102355220Y-41437940D01*
X102326237Y-41495266D01*
X102371095Y-41535966D01*
X102421801Y-41580673D01*
X102362000Y-41590556D01*
X102220071Y-41554666D01*
X102140661Y-41471458D01*
X102134372Y-41377622D01*
X101498741Y-41377622D01*
X101519266Y-41465500D01*
X101727000Y-41465500D01*
X101780184Y-41413908D01*
X101854000Y-41402000D01*
X101957218Y-41426439D01*
X101981000Y-41460307D01*
X102001945Y-41566724D01*
X102019543Y-41619057D01*
X102019437Y-41701299D01*
X102562735Y-41701299D01*
X102578186Y-41665812D01*
X102642124Y-41597642D01*
X102678881Y-41611626D01*
X102679500Y-41620503D01*
X102676354Y-41624250D01*
X104394000Y-41624250D01*
X104425750Y-41592500D01*
X104457500Y-41624250D01*
X104425750Y-41656000D01*
X104394000Y-41624250D01*
X102676354Y-41624250D01*
X102634397Y-41674212D01*
X102606188Y-41693814D01*
X102579948Y-41698334D01*
X103907166Y-41698334D01*
X103915883Y-41660583D01*
X103949500Y-41656000D01*
X104001767Y-41679234D01*
X103991833Y-41698334D01*
X103916473Y-41705934D01*
X103907166Y-41698334D01*
X102579948Y-41698334D01*
X102562735Y-41701299D01*
X102019437Y-41701299D01*
X102019433Y-41703736D01*
X101987793Y-41719500D01*
X101925473Y-41668179D01*
X101917500Y-41624250D01*
X101866670Y-41540064D01*
X101822250Y-41529000D01*
X101737746Y-41494712D01*
X101727000Y-41465500D01*
X101519266Y-41465500D01*
X101525352Y-41491557D01*
X101516584Y-41621291D01*
X101507909Y-41656000D01*
X101600000Y-41656000D01*
X101623233Y-41603733D01*
X101642333Y-41613667D01*
X101649933Y-41689027D01*
X101642333Y-41698334D01*
X101604582Y-41689617D01*
X101600000Y-41656000D01*
X101507909Y-41656000D01*
X101482899Y-41756062D01*
X105173897Y-41756062D01*
X105224378Y-41638901D01*
X105300422Y-41515174D01*
X105370738Y-41462801D01*
X105408651Y-41498991D01*
X105410000Y-41519159D01*
X105367473Y-41596970D01*
X105277686Y-41692560D01*
X105187629Y-41770214D01*
X105173897Y-41756062D01*
X101482899Y-41756062D01*
X101476088Y-41783311D01*
X101464445Y-41814750D01*
X101727000Y-41814750D01*
X101758750Y-41783000D01*
X101790500Y-41814750D01*
X103124000Y-41814750D01*
X103155750Y-41783000D01*
X103187500Y-41814750D01*
X103155750Y-41846500D01*
X103124000Y-41814750D01*
X101790500Y-41814750D01*
X101758750Y-41846500D01*
X101727000Y-41814750D01*
X101464445Y-41814750D01*
X101440926Y-41878250D01*
X101600000Y-41878250D01*
X101631750Y-41846500D01*
X101663500Y-41878250D01*
X102108000Y-41878250D01*
X102139750Y-41846500D01*
X102171500Y-41878250D01*
X105092500Y-41878250D01*
X105124250Y-41846500D01*
X105156000Y-41878250D01*
X105124250Y-41910000D01*
X105092500Y-41878250D01*
X102171500Y-41878250D01*
X102139750Y-41910000D01*
X102108000Y-41878250D01*
X101663500Y-41878250D01*
X101631750Y-41910000D01*
X101600000Y-41878250D01*
X101440926Y-41878250D01*
X101418217Y-41939565D01*
X101365444Y-42037000D01*
X102044500Y-42037000D01*
X102090075Y-41975318D01*
X102104252Y-41973500D01*
X102190252Y-42019659D01*
X102203250Y-42037000D01*
X102202258Y-42040748D01*
X102616000Y-42040748D01*
X102662095Y-41976085D01*
X102679500Y-41973500D01*
X104140000Y-41973500D01*
X104163233Y-41921233D01*
X104182333Y-41931167D01*
X104189933Y-42006527D01*
X104182333Y-42015834D01*
X104144582Y-42007117D01*
X104140000Y-41973500D01*
X102679500Y-41973500D01*
X102741349Y-41995166D01*
X102743000Y-42001503D01*
X102701405Y-42052182D01*
X102834041Y-42052182D01*
X102896458Y-42042014D01*
X102978818Y-42053689D01*
X102979802Y-42075365D01*
X102894814Y-42090524D01*
X102858093Y-42080378D01*
X102834041Y-42052182D01*
X102701405Y-42052182D01*
X102698503Y-42055717D01*
X102679500Y-42068750D01*
X102620985Y-42063716D01*
X102616000Y-42040748D01*
X102202258Y-42040748D01*
X102188854Y-42091363D01*
X102143497Y-42100500D01*
X102056615Y-42067347D01*
X102044500Y-42037000D01*
X101365444Y-42037000D01*
X101357322Y-42051995D01*
X101307755Y-42082549D01*
X101303678Y-42079346D01*
X101176919Y-42079346D01*
X101219058Y-42164000D01*
X101504750Y-42164000D01*
X101509784Y-42105486D01*
X101532752Y-42100500D01*
X101597415Y-42146596D01*
X101600000Y-42164000D01*
X101593645Y-42182143D01*
X101790500Y-42182143D01*
X101797860Y-42065947D01*
X101836016Y-42060244D01*
X101893263Y-42112550D01*
X101943175Y-42195750D01*
X103441500Y-42195750D01*
X103473250Y-42164000D01*
X104076500Y-42164000D01*
X104098165Y-42102151D01*
X104104502Y-42100500D01*
X104158716Y-42144997D01*
X104171750Y-42164000D01*
X104167853Y-42209299D01*
X104848735Y-42209299D01*
X104864186Y-42173812D01*
X104928124Y-42105642D01*
X104964881Y-42119626D01*
X104965500Y-42128503D01*
X104920397Y-42182212D01*
X104892188Y-42201814D01*
X104848735Y-42209299D01*
X104167853Y-42209299D01*
X104166715Y-42222515D01*
X104143747Y-42227500D01*
X104079084Y-42181405D01*
X104076500Y-42164000D01*
X103473250Y-42164000D01*
X103505000Y-42195750D01*
X103473250Y-42227500D01*
X103441500Y-42195750D01*
X101943175Y-42195750D01*
X101957395Y-42219452D01*
X101953016Y-42284907D01*
X101911547Y-42321015D01*
X102071076Y-42321015D01*
X102093974Y-42288544D01*
X102151058Y-42272152D01*
X102342982Y-42235247D01*
X102436235Y-42255456D01*
X102447869Y-42337573D01*
X102443899Y-42354500D01*
X103219250Y-42354500D01*
X103224284Y-42295986D01*
X103247252Y-42291000D01*
X103311915Y-42337096D01*
X103314500Y-42354500D01*
X103292834Y-42416350D01*
X103286497Y-42418000D01*
X103232283Y-42373504D01*
X103219250Y-42354500D01*
X102443899Y-42354500D01*
X102396759Y-42431514D01*
X104140000Y-42431514D01*
X104193477Y-42386789D01*
X104267000Y-42371960D01*
X104369848Y-42388933D01*
X104394000Y-42421947D01*
X104340780Y-42470345D01*
X104267000Y-42481500D01*
X104163734Y-42460523D01*
X104140000Y-42431514D01*
X102396759Y-42431514D01*
X102377629Y-42462767D01*
X102261441Y-42457647D01*
X102151058Y-42389766D01*
X102071076Y-42321015D01*
X101911547Y-42321015D01*
X101874115Y-42353607D01*
X101812641Y-42309389D01*
X101790500Y-42182143D01*
X101593645Y-42182143D01*
X101578334Y-42225850D01*
X101571997Y-42227500D01*
X101517783Y-42183004D01*
X101504750Y-42164000D01*
X101219058Y-42164000D01*
X101221434Y-42168773D01*
X101307619Y-42314607D01*
X101371969Y-42386250D01*
X101536500Y-42386250D01*
X101568250Y-42354500D01*
X101600000Y-42386250D01*
X101568250Y-42418000D01*
X101536500Y-42386250D01*
X101371969Y-42386250D01*
X101376637Y-42391446D01*
X101396059Y-42394801D01*
X101427077Y-42430938D01*
X101439627Y-42518154D01*
X101684075Y-42518154D01*
X101753458Y-42481500D01*
X101840932Y-42532628D01*
X101854000Y-42582042D01*
X101817078Y-42656102D01*
X101778593Y-42657448D01*
X101694737Y-42594244D01*
X101684075Y-42518154D01*
X101439627Y-42518154D01*
X101445018Y-42555616D01*
X101446083Y-42584716D01*
X101446488Y-42587334D01*
X101494166Y-42587334D01*
X101502883Y-42549583D01*
X101536500Y-42545000D01*
X101588767Y-42568234D01*
X101578833Y-42587334D01*
X101503473Y-42594934D01*
X101494166Y-42587334D01*
X101446488Y-42587334D01*
X101472602Y-42756054D01*
X101530362Y-42875653D01*
X101534773Y-42880034D01*
X101591484Y-42923532D01*
X101571527Y-42868734D01*
X101568250Y-42862500D01*
X101543825Y-42801745D01*
X101594972Y-42838867D01*
X101603384Y-42846625D01*
X101726220Y-42918004D01*
X101822443Y-42905345D01*
X101854000Y-42830750D01*
X101904829Y-42746564D01*
X101949250Y-42735500D01*
X102031687Y-42684110D01*
X102044500Y-42632844D01*
X102082962Y-42559088D01*
X102172917Y-42563770D01*
X102318107Y-42559910D01*
X102488874Y-42503788D01*
X102491187Y-42502641D01*
X102643853Y-42446366D01*
X102755442Y-42438923D01*
X102759645Y-42440442D01*
X102774388Y-42478855D01*
X102701972Y-42513250D01*
X103124000Y-42513250D01*
X103155750Y-42481500D01*
X103187500Y-42513250D01*
X104648000Y-42513250D01*
X104679750Y-42481500D01*
X104711500Y-42513250D01*
X104679750Y-42545000D01*
X104648000Y-42513250D01*
X103187500Y-42513250D01*
X103155750Y-42545000D01*
X103124000Y-42513250D01*
X102701972Y-42513250D01*
X102695375Y-42516383D01*
X102584286Y-42580187D01*
X102552500Y-42640353D01*
X102517375Y-42704899D01*
X102649887Y-42704899D01*
X102714988Y-42642270D01*
X102834220Y-42560236D01*
X102860925Y-42564265D01*
X102806500Y-42640250D01*
X104203500Y-42640250D01*
X104235250Y-42608500D01*
X104267000Y-42640250D01*
X104235250Y-42672000D01*
X104203500Y-42640250D01*
X102806500Y-42640250D01*
X102708648Y-42720413D01*
X102659588Y-42735500D01*
X102649887Y-42704899D01*
X102517375Y-42704899D01*
X102497400Y-42741605D01*
X102361125Y-42841814D01*
X102187209Y-42915930D01*
X102032506Y-42939570D01*
X101904129Y-42954105D01*
X101854000Y-42993748D01*
X101801084Y-43042778D01*
X101733793Y-43053000D01*
X101612758Y-43103886D01*
X101571687Y-43162190D01*
X101570523Y-43167506D01*
X101866188Y-43167506D01*
X101912417Y-43120248D01*
X101986015Y-43096790D01*
X102081591Y-43091508D01*
X102084039Y-43150850D01*
X102087350Y-43251001D01*
X102110773Y-43276964D01*
X102167102Y-43266744D01*
X102171500Y-43242712D01*
X102212556Y-43143979D01*
X102272512Y-43069916D01*
X102358434Y-43004710D01*
X102415649Y-43038350D01*
X102428755Y-43058268D01*
X102484585Y-43111256D01*
X102551455Y-43058530D01*
X102565867Y-43040056D01*
X102679663Y-42964502D01*
X102857901Y-42913770D01*
X102901750Y-42908165D01*
X103065131Y-42890472D01*
X103162164Y-42876061D01*
X103171625Y-42873175D01*
X103173341Y-42877240D01*
X104434859Y-42877240D01*
X104440629Y-42784599D01*
X104493202Y-42708870D01*
X104599586Y-42619325D01*
X104644590Y-42630101D01*
X104648000Y-42659864D01*
X104622856Y-42735500D01*
X106172000Y-42735500D01*
X106195233Y-42683233D01*
X106214333Y-42693167D01*
X106221933Y-42768527D01*
X106214333Y-42777834D01*
X106176582Y-42769117D01*
X106172000Y-42735500D01*
X104622856Y-42735500D01*
X104614815Y-42759686D01*
X104541030Y-42850239D01*
X104465293Y-42892105D01*
X104434859Y-42877240D01*
X103173341Y-42877240D01*
X103187152Y-42909946D01*
X103187500Y-42922110D01*
X103130910Y-42965822D01*
X102987413Y-43008736D01*
X102896699Y-43025327D01*
X102792534Y-43051232D01*
X104282438Y-43051232D01*
X104304017Y-42980978D01*
X104352712Y-42932898D01*
X104380490Y-42980722D01*
X104380965Y-43079854D01*
X104377919Y-43084750D01*
X108966000Y-43084750D01*
X108997750Y-43053000D01*
X109029500Y-43084750D01*
X108997750Y-43116500D01*
X108966000Y-43084750D01*
X104377919Y-43084750D01*
X104368864Y-43099303D01*
X104307794Y-43114098D01*
X104282438Y-43051232D01*
X102792534Y-43051232D01*
X102702804Y-43073547D01*
X102584630Y-43141561D01*
X102568882Y-43165400D01*
X102574142Y-43211750D01*
X103124000Y-43211750D01*
X103155750Y-43180000D01*
X103187500Y-43211750D01*
X103155750Y-43243500D01*
X103124000Y-43211750D01*
X102574142Y-43211750D01*
X102581671Y-43278076D01*
X102651074Y-43338750D01*
X103251000Y-43338750D01*
X103282750Y-43307000D01*
X103314500Y-43338750D01*
X103759000Y-43338750D01*
X103790750Y-43307000D01*
X103822500Y-43338750D01*
X103790750Y-43370500D01*
X103759000Y-43338750D01*
X103314500Y-43338750D01*
X103282750Y-43370500D01*
X103251000Y-43338750D01*
X102651074Y-43338750D01*
X102684832Y-43368261D01*
X102841736Y-43412920D01*
X102953060Y-43407044D01*
X103070503Y-43390290D01*
X103075602Y-43402250D01*
X103632000Y-43402250D01*
X103663750Y-43370500D01*
X103695500Y-43402250D01*
X103681951Y-43415799D01*
X104086735Y-43415799D01*
X104102186Y-43380312D01*
X104166124Y-43312142D01*
X104202881Y-43326126D01*
X104203500Y-43335003D01*
X104158397Y-43388712D01*
X104130188Y-43408314D01*
X104086735Y-43415799D01*
X103681951Y-43415799D01*
X103663750Y-43434000D01*
X103632000Y-43402250D01*
X103075602Y-43402250D01*
X103081853Y-43416907D01*
X103063030Y-43437748D01*
X104775000Y-43437748D01*
X104821095Y-43373085D01*
X104838500Y-43370500D01*
X104900349Y-43392166D01*
X104902000Y-43398503D01*
X104898925Y-43402250D01*
X109220000Y-43402250D01*
X109251750Y-43370500D01*
X109283500Y-43402250D01*
X109251750Y-43434000D01*
X109220000Y-43402250D01*
X104898925Y-43402250D01*
X104857503Y-43452717D01*
X104838500Y-43465750D01*
X109347000Y-43465750D01*
X109378750Y-43434000D01*
X109410500Y-43465750D01*
X109378750Y-43497500D01*
X109347000Y-43465750D01*
X104838500Y-43465750D01*
X104779985Y-43460716D01*
X104775000Y-43437748D01*
X103063030Y-43437748D01*
X103036970Y-43466601D01*
X102919271Y-43532781D01*
X102768624Y-43559763D01*
X102632001Y-43546911D01*
X102556375Y-43493591D01*
X102552500Y-43473153D01*
X102498176Y-43398982D01*
X102371434Y-43350347D01*
X102226618Y-43345002D01*
X102188545Y-43354235D01*
X102143077Y-43424559D01*
X102150548Y-43485728D01*
X102138233Y-43511329D01*
X102065650Y-43450226D01*
X102022264Y-43402250D01*
X101901744Y-43252569D01*
X101866188Y-43167506D01*
X101570523Y-43167506D01*
X101556450Y-43231777D01*
X101574926Y-43226241D01*
X101650167Y-43220722D01*
X101732230Y-43279254D01*
X101763849Y-43356245D01*
X101757880Y-43371907D01*
X101781465Y-43440407D01*
X101878672Y-43548703D01*
X101917012Y-43582596D01*
X101926215Y-43592750D01*
X103060500Y-43592750D01*
X103092250Y-43561000D01*
X103104157Y-43572907D01*
X103265552Y-43572907D01*
X103293188Y-43508132D01*
X103340958Y-43497500D01*
X103949500Y-43497500D01*
X103972733Y-43445233D01*
X103991833Y-43455167D01*
X103999433Y-43530527D01*
X103991833Y-43539834D01*
X103954082Y-43531117D01*
X103949500Y-43497500D01*
X103340958Y-43497500D01*
X103428432Y-43548628D01*
X103432797Y-43565135D01*
X109172068Y-43565135D01*
X109180754Y-43561000D01*
X109238703Y-43605703D01*
X109251750Y-43624500D01*
X109267931Y-43683866D01*
X109259245Y-43688000D01*
X109201296Y-43643298D01*
X109188250Y-43624500D01*
X109172068Y-43565135D01*
X103432797Y-43565135D01*
X103441500Y-43598042D01*
X103404484Y-43667581D01*
X103328322Y-43656492D01*
X103265552Y-43572907D01*
X103104157Y-43572907D01*
X103124000Y-43592750D01*
X103092250Y-43624500D01*
X103060500Y-43592750D01*
X101926215Y-43592750D01*
X101983769Y-43656250D01*
X102362000Y-43656250D01*
X102393750Y-43624500D01*
X102425500Y-43656250D01*
X102393750Y-43688000D01*
X102362000Y-43656250D01*
X101983769Y-43656250D01*
X102047598Y-43726673D01*
X102069307Y-43841940D01*
X102069138Y-43842384D01*
X102072184Y-43918373D01*
X102177177Y-43937631D01*
X102180581Y-43937537D01*
X102283214Y-43929813D01*
X102265535Y-43903802D01*
X102203250Y-43873062D01*
X102132367Y-43834546D01*
X102172460Y-43832729D01*
X102248334Y-43846347D01*
X102400888Y-43843413D01*
X102483073Y-43762574D01*
X102575322Y-43678014D01*
X102735984Y-43673426D01*
X102862892Y-43702424D01*
X102885803Y-43754275D01*
X102851095Y-43821675D01*
X102757383Y-43892613D01*
X103093958Y-43892613D01*
X103098790Y-43867917D01*
X103150868Y-43815859D01*
X103155750Y-43815000D01*
X103195015Y-43848632D01*
X103341164Y-43848632D01*
X103346250Y-43815000D01*
X103400565Y-43754489D01*
X103409750Y-43751500D01*
X103460235Y-43795789D01*
X103473250Y-43815000D01*
X103458170Y-43868797D01*
X103409750Y-43878500D01*
X103341164Y-43848632D01*
X103195015Y-43848632D01*
X103206449Y-43858425D01*
X103212709Y-43867917D01*
X103193790Y-43914678D01*
X103155750Y-43920834D01*
X103093958Y-43892613D01*
X102757383Y-43892613D01*
X102721773Y-43919569D01*
X102585272Y-43944175D01*
X103644240Y-43944175D01*
X103664816Y-43858124D01*
X103742435Y-43753536D01*
X103836060Y-43675428D01*
X103899244Y-43664436D01*
X103897731Y-43725042D01*
X104653013Y-43725042D01*
X104664688Y-43642682D01*
X104686364Y-43641698D01*
X104690847Y-43666834D01*
X104923166Y-43666834D01*
X104931883Y-43629083D01*
X104965500Y-43624500D01*
X105017767Y-43647734D01*
X105007833Y-43666834D01*
X104932473Y-43674434D01*
X104923166Y-43666834D01*
X104690847Y-43666834D01*
X104701523Y-43726686D01*
X104691377Y-43763407D01*
X104663181Y-43787459D01*
X104653013Y-43725042D01*
X103897731Y-43725042D01*
X103897693Y-43726546D01*
X103822296Y-43834120D01*
X103808542Y-43848886D01*
X103723885Y-43920834D01*
X104161166Y-43920834D01*
X104169883Y-43883083D01*
X104203500Y-43878500D01*
X104255767Y-43901734D01*
X104245833Y-43920834D01*
X104170473Y-43928434D01*
X104161166Y-43920834D01*
X103723885Y-43920834D01*
X103706517Y-43935594D01*
X103647149Y-43949265D01*
X103644240Y-43944175D01*
X102585272Y-43944175D01*
X102584850Y-43944251D01*
X102394490Y-43972180D01*
X102254659Y-44023834D01*
X102162747Y-44083443D01*
X102156330Y-44143723D01*
X102231589Y-44253586D01*
X102236248Y-44259709D01*
X102317685Y-44362413D01*
X102340058Y-44366358D01*
X102320307Y-44275375D01*
X102316662Y-44161913D01*
X102354593Y-44132500D01*
X102398838Y-44191348D01*
X102422835Y-44350944D01*
X102423493Y-44374510D01*
X102575440Y-44374510D01*
X102583018Y-44223025D01*
X102601602Y-44085852D01*
X102611624Y-44021375D01*
X102670352Y-44010315D01*
X102806202Y-44005507D01*
X102811791Y-44005500D01*
X102953646Y-44026814D01*
X102972668Y-44069000D01*
X103949500Y-44069000D01*
X103997821Y-44007346D01*
X104013000Y-44005500D01*
X104074654Y-44053822D01*
X104076500Y-44069000D01*
X104028178Y-44130655D01*
X104013000Y-44132500D01*
X103951345Y-44084179D01*
X103949500Y-44069000D01*
X102972668Y-44069000D01*
X102979515Y-44084182D01*
X103151541Y-44084182D01*
X103213958Y-44074014D01*
X103296318Y-44085689D01*
X103297302Y-44107365D01*
X103212314Y-44122524D01*
X103175593Y-44112378D01*
X103151541Y-44084182D01*
X102979515Y-44084182D01*
X102979828Y-44084875D01*
X102903304Y-44146277D01*
X102856008Y-44147537D01*
X102744652Y-44168921D01*
X102661714Y-44245407D01*
X102639115Y-44335519D01*
X102674487Y-44383403D01*
X102717706Y-44445932D01*
X102690667Y-44474849D01*
X102610105Y-44479615D01*
X102575440Y-44374510D01*
X102423493Y-44374510D01*
X102425500Y-44446253D01*
X102437361Y-44635628D01*
X102467570Y-44767511D01*
X102489000Y-44799250D01*
X102544518Y-44786292D01*
X102552500Y-44746904D01*
X102605980Y-44660006D01*
X102687360Y-44620046D01*
X102782424Y-44568341D01*
X102789938Y-44460051D01*
X102781400Y-44422140D01*
X102774015Y-44287006D01*
X102821165Y-44250458D01*
X102937981Y-44239132D01*
X103107554Y-44224403D01*
X103110972Y-44224120D01*
X103284562Y-44190210D01*
X103409359Y-44132823D01*
X103409815Y-44132446D01*
X103518565Y-44085610D01*
X103588506Y-44119115D01*
X103581828Y-44206287D01*
X103559791Y-44238243D01*
X103523430Y-44337112D01*
X103598322Y-44399235D01*
X103772733Y-44419538D01*
X103948076Y-44406109D01*
X104159656Y-44373491D01*
X104248406Y-44347815D01*
X104213179Y-44330551D01*
X104052827Y-44323167D01*
X104013000Y-44323000D01*
X103836279Y-44312464D01*
X103779713Y-44286916D01*
X103845582Y-44255444D01*
X103990127Y-44231865D01*
X104125844Y-44190339D01*
X104153091Y-44108451D01*
X104184097Y-44023099D01*
X104268495Y-44005500D01*
X104365518Y-43980843D01*
X104364615Y-43886143D01*
X104362250Y-43878500D01*
X104357668Y-43775858D01*
X104423463Y-43751500D01*
X104531930Y-43799262D01*
X104558843Y-43839733D01*
X104638717Y-43899672D01*
X104708434Y-43897701D01*
X104825152Y-43903935D01*
X104866831Y-43936469D01*
X104947174Y-43994269D01*
X105043424Y-43999641D01*
X105092416Y-43949731D01*
X105092500Y-43946657D01*
X105040193Y-43883123D01*
X104981375Y-43858773D01*
X104922339Y-43835761D01*
X104984223Y-43823877D01*
X105009377Y-43822367D01*
X105149948Y-43845385D01*
X105165003Y-43878500D01*
X108712000Y-43878500D01*
X108735233Y-43826233D01*
X108754333Y-43836167D01*
X108761933Y-43911527D01*
X108754333Y-43920834D01*
X108716582Y-43912117D01*
X108712000Y-43878500D01*
X105165003Y-43878500D01*
X105194930Y-43944323D01*
X105183175Y-44020025D01*
X105895353Y-44020025D01*
X105918429Y-43951195D01*
X105956499Y-43942000D01*
X105959856Y-43944193D01*
X109396573Y-43944193D01*
X109417372Y-43889318D01*
X109536470Y-43867981D01*
X109560002Y-43865612D01*
X109734478Y-43857906D01*
X109791662Y-43884690D01*
X109737647Y-43950374D01*
X109708225Y-43972846D01*
X109638630Y-44055490D01*
X109660700Y-44098402D01*
X109724837Y-44179869D01*
X109692180Y-44247292D01*
X109637400Y-44259500D01*
X109549208Y-44207785D01*
X109458537Y-44082323D01*
X109453528Y-44072529D01*
X109396573Y-43944193D01*
X105959856Y-43944193D01*
X106006949Y-43974957D01*
X106032348Y-44088167D01*
X106034002Y-44164250D01*
X109220000Y-44164250D01*
X109251750Y-44132500D01*
X109283500Y-44164250D01*
X109251750Y-44196000D01*
X109220000Y-44164250D01*
X106034002Y-44164250D01*
X106037023Y-44303140D01*
X106036651Y-44323000D01*
X109093000Y-44323000D01*
X109116233Y-44270733D01*
X109135333Y-44280667D01*
X109142933Y-44356027D01*
X109135333Y-44365334D01*
X109097582Y-44356617D01*
X109093000Y-44323000D01*
X106036651Y-44323000D01*
X106036352Y-44338875D01*
X106033482Y-44401682D01*
X108422041Y-44401682D01*
X108484458Y-44391514D01*
X108566818Y-44403189D01*
X108567802Y-44424865D01*
X108482814Y-44440024D01*
X108446093Y-44429878D01*
X108422041Y-44401682D01*
X106033482Y-44401682D01*
X106028273Y-44515638D01*
X106015294Y-44601875D01*
X106000178Y-44579628D01*
X105999704Y-44577000D01*
X105966801Y-44405408D01*
X105924070Y-44199593D01*
X105919851Y-44180125D01*
X105895353Y-44020025D01*
X105183175Y-44020025D01*
X105177280Y-44057981D01*
X105106921Y-44165841D01*
X104961249Y-44196000D01*
X104798680Y-44234788D01*
X104716586Y-44307125D01*
X104681284Y-44354750D01*
X105219500Y-44354750D01*
X105251250Y-44323000D01*
X105283000Y-44354750D01*
X105251250Y-44386500D01*
X105219500Y-44354750D01*
X104681284Y-44354750D01*
X104665759Y-44375693D01*
X104649294Y-44331685D01*
X104648958Y-44323000D01*
X104628486Y-44269213D01*
X104599402Y-44297604D01*
X104500854Y-44382569D01*
X104457500Y-44403716D01*
X104428474Y-44432025D01*
X104517261Y-44444987D01*
X104624903Y-44454498D01*
X104616571Y-44491774D01*
X104549011Y-44548243D01*
X104475891Y-44612548D01*
X104496721Y-44628912D01*
X104626384Y-44607803D01*
X104632125Y-44606697D01*
X104778587Y-44601274D01*
X104790353Y-44608750D01*
X108204000Y-44608750D01*
X108235750Y-44577000D01*
X108267500Y-44608750D01*
X108235750Y-44640500D01*
X108204000Y-44608750D01*
X104790353Y-44608750D01*
X104843610Y-44642588D01*
X104807425Y-44712564D01*
X104773964Y-44736391D01*
X104734417Y-44807916D01*
X104741474Y-44828127D01*
X104713146Y-44876457D01*
X104615509Y-44910184D01*
X104497865Y-44914394D01*
X104457500Y-44885695D01*
X104510110Y-44838076D01*
X104568625Y-44828515D01*
X104602526Y-44810919D01*
X104546583Y-44770795D01*
X104432883Y-44721134D01*
X104293512Y-44674927D01*
X104160559Y-44645165D01*
X104104231Y-44640500D01*
X103958754Y-44682505D01*
X103800657Y-44785056D01*
X103784749Y-44799250D01*
X103775012Y-44809834D01*
X103970666Y-44809834D01*
X103979383Y-44772083D01*
X104013000Y-44767500D01*
X104065267Y-44790734D01*
X104055333Y-44809834D01*
X103979973Y-44817434D01*
X103970666Y-44809834D01*
X103775012Y-44809834D01*
X103691895Y-44900177D01*
X103682812Y-44926250D01*
X103949500Y-44926250D01*
X103981250Y-44894500D01*
X104013000Y-44926250D01*
X105981500Y-44926250D01*
X106013250Y-44894500D01*
X106028432Y-44909682D01*
X108485541Y-44909682D01*
X108547958Y-44899514D01*
X108630318Y-44911189D01*
X108631302Y-44932865D01*
X108546314Y-44948024D01*
X108509593Y-44937878D01*
X108485541Y-44909682D01*
X106028432Y-44909682D01*
X106045000Y-44926250D01*
X106013250Y-44958000D01*
X105981500Y-44926250D01*
X104013000Y-44926250D01*
X103981250Y-44958000D01*
X103949500Y-44926250D01*
X103682812Y-44926250D01*
X103672861Y-44954813D01*
X103683350Y-44958000D01*
X103695811Y-44970249D01*
X108997482Y-44970249D01*
X109022902Y-44858506D01*
X109116312Y-44831000D01*
X109201116Y-44847332D01*
X109174162Y-44902238D01*
X109130889Y-45017493D01*
X109139830Y-45069653D01*
X109138398Y-45139882D01*
X109092239Y-45137664D01*
X109020421Y-45058970D01*
X108997482Y-44970249D01*
X103695811Y-44970249D01*
X103739883Y-45013569D01*
X103788682Y-45150291D01*
X103794939Y-45180250D01*
X103795333Y-45182132D01*
X103976164Y-45182132D01*
X103981250Y-45148500D01*
X104035565Y-45087989D01*
X104044750Y-45085000D01*
X104521000Y-45085000D01*
X104569321Y-45023346D01*
X104584500Y-45021500D01*
X104646154Y-45069822D01*
X104648000Y-45085000D01*
X104599678Y-45146655D01*
X104584500Y-45148500D01*
X107219750Y-45148500D01*
X107224784Y-45089986D01*
X107247752Y-45085000D01*
X107307137Y-45127334D01*
X108288666Y-45127334D01*
X108297383Y-45089583D01*
X108331000Y-45085000D01*
X108383267Y-45108234D01*
X108373333Y-45127334D01*
X108297973Y-45134934D01*
X108288666Y-45127334D01*
X107307137Y-45127334D01*
X107312415Y-45131096D01*
X107314828Y-45147345D01*
X108616035Y-45147345D01*
X108638478Y-45090752D01*
X108695347Y-45065422D01*
X108836609Y-45033381D01*
X108893299Y-45040856D01*
X108902500Y-45077594D01*
X108850494Y-45137527D01*
X108739907Y-45172499D01*
X108638879Y-45165918D01*
X108616035Y-45147345D01*
X107314828Y-45147345D01*
X107315000Y-45148500D01*
X107293334Y-45210350D01*
X107286997Y-45212000D01*
X107232783Y-45167504D01*
X107219750Y-45148500D01*
X104584500Y-45148500D01*
X104522845Y-45100179D01*
X104521000Y-45085000D01*
X104044750Y-45085000D01*
X104095235Y-45129289D01*
X104108250Y-45148500D01*
X104093170Y-45202297D01*
X104044750Y-45212000D01*
X103976164Y-45182132D01*
X103795333Y-45182132D01*
X103825585Y-45326387D01*
X103847407Y-45400291D01*
X103849654Y-45402500D01*
X103930117Y-45391185D01*
X104093199Y-45362534D01*
X104297057Y-45324486D01*
X104499852Y-45284983D01*
X104659742Y-45251964D01*
X104727375Y-45235931D01*
X104821403Y-45245041D01*
X104838500Y-45290998D01*
X104877781Y-45399873D01*
X104970077Y-45517266D01*
X105077064Y-45604247D01*
X105160419Y-45621884D01*
X105162868Y-45620505D01*
X105187793Y-45547676D01*
X105159634Y-45502130D01*
X105126149Y-45406209D01*
X105140675Y-45370602D01*
X105143873Y-45346646D01*
X105115569Y-45359871D01*
X105034679Y-45356421D01*
X104957247Y-45296679D01*
X104926315Y-45223549D01*
X104946903Y-45191744D01*
X105041094Y-45179597D01*
X105177032Y-45194410D01*
X105302115Y-45235940D01*
X105325660Y-45303503D01*
X108140500Y-45303503D01*
X108171284Y-45237777D01*
X108204000Y-45243750D01*
X108265077Y-45324933D01*
X108266990Y-45339000D01*
X108394500Y-45339000D01*
X108442821Y-45277346D01*
X108458000Y-45275500D01*
X108519654Y-45323822D01*
X108521500Y-45339000D01*
X108473178Y-45400655D01*
X108458000Y-45402500D01*
X108396345Y-45354179D01*
X108394500Y-45339000D01*
X108266990Y-45339000D01*
X108267500Y-45342748D01*
X108219065Y-45400790D01*
X108204000Y-45402500D01*
X108148271Y-45350814D01*
X108140500Y-45303503D01*
X105325660Y-45303503D01*
X105330176Y-45316460D01*
X105318336Y-45379070D01*
X105310355Y-45492293D01*
X105340096Y-45529500D01*
X105446207Y-45548709D01*
X105515931Y-45569793D01*
X105592584Y-45592207D01*
X105569411Y-45562070D01*
X105511505Y-45515986D01*
X105435816Y-45428156D01*
X105463880Y-45376696D01*
X105568692Y-45357408D01*
X105595076Y-45367399D01*
X105666877Y-45354176D01*
X105686956Y-45323521D01*
X105699486Y-45329915D01*
X105693330Y-45435894D01*
X105682709Y-45523350D01*
X105669086Y-45704482D01*
X105694085Y-45767002D01*
X105711643Y-45761550D01*
X105775417Y-45785084D01*
X105841648Y-45901798D01*
X105848147Y-45919573D01*
X105885705Y-46068921D01*
X105856840Y-46156908D01*
X105813193Y-46195386D01*
X105748074Y-46256872D01*
X105793604Y-46292708D01*
X105847120Y-46307970D01*
X105913333Y-46320072D01*
X105952363Y-46298336D01*
X105969085Y-46219581D01*
X105968375Y-46060627D01*
X105955109Y-45798294D01*
X105954946Y-45795366D01*
X105947590Y-45523151D01*
X105959199Y-45373446D01*
X105984434Y-45344108D01*
X105994482Y-45370750D01*
X107188000Y-45370750D01*
X107219750Y-45339000D01*
X107251500Y-45370750D01*
X107219750Y-45402500D01*
X107188000Y-45370750D01*
X105994482Y-45370750D01*
X106017960Y-45432993D01*
X106018183Y-45434250D01*
X107696000Y-45434250D01*
X107727750Y-45402500D01*
X107759500Y-45434250D01*
X107727750Y-45466000D01*
X107696000Y-45434250D01*
X106018183Y-45434250D01*
X106040120Y-45557503D01*
X107378500Y-45557503D01*
X107409284Y-45491777D01*
X107442000Y-45497750D01*
X107503077Y-45578933D01*
X107505500Y-45596748D01*
X107457065Y-45654790D01*
X107442000Y-45656500D01*
X107386271Y-45604814D01*
X107378500Y-45557503D01*
X106040120Y-45557503D01*
X106054440Y-45637957D01*
X106057025Y-45660248D01*
X107950000Y-45660248D01*
X107996095Y-45595585D01*
X108013500Y-45593000D01*
X108075349Y-45614666D01*
X108077000Y-45621003D01*
X108032503Y-45675217D01*
X108013500Y-45688250D01*
X107954985Y-45683216D01*
X107950000Y-45660248D01*
X106057025Y-45660248D01*
X106078448Y-45844969D01*
X106093394Y-45942250D01*
X106616500Y-45942250D01*
X106648250Y-45910500D01*
X106680000Y-45942250D01*
X106648250Y-45974000D01*
X106616500Y-45942250D01*
X106093394Y-45942250D01*
X106101442Y-45994632D01*
X106770416Y-45994632D01*
X106821235Y-45925659D01*
X106874247Y-45910500D01*
X106932853Y-45953105D01*
X106934000Y-45963417D01*
X106892576Y-46055442D01*
X106806589Y-46068221D01*
X106797107Y-46063136D01*
X106770416Y-45994632D01*
X106101442Y-45994632D01*
X106124484Y-46144599D01*
X106138145Y-46206834D01*
X106320166Y-46206834D01*
X106328883Y-46169083D01*
X106362500Y-46164500D01*
X106414767Y-46187734D01*
X106404833Y-46206834D01*
X106329473Y-46214434D01*
X106320166Y-46206834D01*
X106138145Y-46206834D01*
X106149761Y-46259750D01*
X106807000Y-46259750D01*
X106838750Y-46228000D01*
X106870500Y-46259750D01*
X106838750Y-46291500D01*
X106807000Y-46259750D01*
X106149761Y-46259750D01*
X106191580Y-46450250D01*
X106553000Y-46450250D01*
X106584750Y-46418500D01*
X106616500Y-46450250D01*
X106584750Y-46482000D01*
X106553000Y-46450250D01*
X106191580Y-46450250D01*
X106206653Y-46518913D01*
X106210787Y-46534570D01*
X106826901Y-46534570D01*
X106847242Y-46497858D01*
X106870500Y-46482000D01*
X106961011Y-46428008D01*
X107002176Y-46440314D01*
X107029250Y-46482000D01*
X107008155Y-46530029D01*
X106921872Y-46544528D01*
X106826901Y-46534570D01*
X106210787Y-46534570D01*
X106258394Y-46714834D01*
X107082166Y-46714834D01*
X107090883Y-46677083D01*
X107124500Y-46672500D01*
X107176767Y-46695734D01*
X107166833Y-46714834D01*
X107091473Y-46722434D01*
X107082166Y-46714834D01*
X106258394Y-46714834D01*
X106305911Y-46894750D01*
X106616500Y-46894750D01*
X106648250Y-46863000D01*
X106680000Y-46894750D01*
X106648250Y-46926500D01*
X106616500Y-46894750D01*
X106305911Y-46894750D01*
X106313826Y-46924716D01*
X106434874Y-47318812D01*
X106516650Y-47549962D01*
X106691946Y-47549962D01*
X106725987Y-47509618D01*
X106743500Y-47498000D01*
X106888054Y-47445014D01*
X106965750Y-47436445D01*
X107049053Y-47446039D01*
X107015012Y-47486383D01*
X106997500Y-47498000D01*
X106852945Y-47550987D01*
X106775250Y-47559556D01*
X106691946Y-47549962D01*
X106516650Y-47549962D01*
X106520732Y-47561500D01*
X106591576Y-47709035D01*
X106676836Y-47764239D01*
X106784637Y-47763102D01*
G36*
X98390703Y-48247905D02*
G01*
X98398490Y-48201707D01*
X98390112Y-48106543D01*
X98363029Y-47947547D01*
X98314699Y-47709854D01*
X98242582Y-47378600D01*
X98144135Y-46938920D01*
X98141335Y-46926500D01*
X98056255Y-46547980D01*
X97970314Y-46163544D01*
X97892560Y-45813793D01*
X97832039Y-45539327D01*
X97822953Y-45497750D01*
X97753672Y-45204739D01*
X97675519Y-44911402D01*
X97604617Y-44678002D01*
X97600160Y-44664935D01*
X97544494Y-44471997D01*
X97477599Y-44192342D01*
X97408202Y-43864675D01*
X97349578Y-43553685D01*
X97274648Y-43156815D01*
X97185020Y-42727830D01*
X97085230Y-42284159D01*
X96979819Y-41843229D01*
X96873326Y-41422469D01*
X96770288Y-41039307D01*
X96675247Y-40711172D01*
X96592739Y-40455491D01*
X96527305Y-40289692D01*
X96484281Y-40231219D01*
X96409429Y-40230754D01*
X96221797Y-40231138D01*
X95935600Y-40232300D01*
X95565055Y-40234167D01*
X95124378Y-40236667D01*
X94627786Y-40239727D01*
X94089493Y-40243275D01*
X94001637Y-40243875D01*
X91578525Y-40260499D01*
X91823203Y-41204185D01*
X91920339Y-41590532D01*
X92015215Y-41988540D01*
X92098294Y-42356850D01*
X92160036Y-42654106D01*
X92170854Y-42711561D01*
X92300828Y-43349038D01*
X92451907Y-43963948D01*
X92617688Y-44536198D01*
X92791770Y-45045694D01*
X92967750Y-45472341D01*
X93139227Y-45796047D01*
X93167314Y-45839164D01*
X93354884Y-46096128D01*
X93539498Y-46291859D01*
X93750772Y-46446879D01*
X94018323Y-46581710D01*
X94371765Y-46716873D01*
X94495110Y-46759249D01*
X95000694Y-46932893D01*
X95435092Y-47087680D01*
X95785231Y-47218740D01*
X96038039Y-47321204D01*
X96165151Y-47381355D01*
X96294064Y-47440665D01*
X96488861Y-47517901D01*
X96609651Y-47561869D01*
X96802140Y-47633785D01*
X97072083Y-47740272D01*
X97380289Y-47865665D01*
X97624755Y-47967664D01*
X97899677Y-48082026D01*
X98132203Y-48175417D01*
X98297301Y-48238010D01*
X98369292Y-48260000D01*
X98390703Y-48247905D01*
G37*
X98390703Y-48247905D02*
X98398490Y-48201707D01*
X98390112Y-48106543D01*
X98363029Y-47947547D01*
X98314699Y-47709854D01*
X98242582Y-47378600D01*
X98144135Y-46938920D01*
X98141335Y-46926500D01*
X98056255Y-46547980D01*
X97970314Y-46163544D01*
X97892560Y-45813793D01*
X97832039Y-45539327D01*
X97822953Y-45497750D01*
X97753672Y-45204739D01*
X97675519Y-44911402D01*
X97604617Y-44678002D01*
X97600160Y-44664935D01*
X97544494Y-44471997D01*
X97477599Y-44192342D01*
X97408202Y-43864675D01*
X97349578Y-43553685D01*
X97274648Y-43156815D01*
X97185020Y-42727830D01*
X97085230Y-42284159D01*
X96979819Y-41843229D01*
X96873326Y-41422469D01*
X96770288Y-41039307D01*
X96675247Y-40711172D01*
X96592739Y-40455491D01*
X96527305Y-40289692D01*
X96484281Y-40231219D01*
X96409429Y-40230754D01*
X96221797Y-40231138D01*
X95935600Y-40232300D01*
X95565055Y-40234167D01*
X95124378Y-40236667D01*
X94627786Y-40239727D01*
X94089493Y-40243275D01*
X94001637Y-40243875D01*
X91578525Y-40260499D01*
X91823203Y-41204185D01*
X91920339Y-41590532D01*
X92015215Y-41988540D01*
X92098294Y-42356850D01*
X92160036Y-42654106D01*
X92170854Y-42711561D01*
X92300828Y-43349038D01*
X92451907Y-43963948D01*
X92617688Y-44536198D01*
X92791770Y-45045694D01*
X92967750Y-45472341D01*
X93139227Y-45796047D01*
X93167314Y-45839164D01*
X93354884Y-46096128D01*
X93539498Y-46291859D01*
X93750772Y-46446879D01*
X94018323Y-46581710D01*
X94371765Y-46716873D01*
X94495110Y-46759249D01*
X95000694Y-46932893D01*
X95435092Y-47087680D01*
X95785231Y-47218740D01*
X96038039Y-47321204D01*
X96165151Y-47381355D01*
X96294064Y-47440665D01*
X96488861Y-47517901D01*
X96609651Y-47561869D01*
X96802140Y-47633785D01*
X97072083Y-47740272D01*
X97380289Y-47865665D01*
X97624755Y-47967664D01*
X97899677Y-48082026D01*
X98132203Y-48175417D01*
X98297301Y-48238010D01*
X98369292Y-48260000D01*
X98390703Y-48247905D01*
M02*
