G04 #@! TF.GenerationSoftware,KiCad,Pcbnew,(5.1.5)-3*
G04 #@! TF.CreationDate,2020-03-07T13:53:33-06:00*
G04 #@! TF.ProjectId,TelemetryBoard,54656c65-6d65-4747-9279-426f6172642e,rev?*
G04 #@! TF.SameCoordinates,Original*
G04 #@! TF.FileFunction,Soldermask,Bot*
G04 #@! TF.FilePolarity,Negative*
%FSLAX46Y46*%
G04 Gerber Fmt 4.6, Leading zero omitted, Abs format (unit mm)*
G04 Created by KiCad (PCBNEW (5.1.5)-3) date 2020-03-07 13:53:33*
%MOMM*%
%LPD*%
G04 APERTURE LIST*
%ADD10C,0.100000*%
G04 APERTURE END LIST*
D10*
G36*
X124573512Y-108323927D02*
G01*
X124722812Y-108353624D01*
X124886784Y-108421544D01*
X125034354Y-108520147D01*
X125159853Y-108645646D01*
X125258456Y-108793216D01*
X125326376Y-108957188D01*
X125361000Y-109131259D01*
X125361000Y-109308741D01*
X125326376Y-109482812D01*
X125258456Y-109646784D01*
X125159853Y-109794354D01*
X125034354Y-109919853D01*
X124886784Y-110018456D01*
X124722812Y-110086376D01*
X124573512Y-110116073D01*
X124548742Y-110121000D01*
X124371258Y-110121000D01*
X124346488Y-110116073D01*
X124197188Y-110086376D01*
X124033216Y-110018456D01*
X123885646Y-109919853D01*
X123760147Y-109794354D01*
X123661544Y-109646784D01*
X123593624Y-109482812D01*
X123559000Y-109308741D01*
X123559000Y-109131259D01*
X123593624Y-108957188D01*
X123661544Y-108793216D01*
X123760147Y-108645646D01*
X123885646Y-108520147D01*
X124033216Y-108421544D01*
X124197188Y-108353624D01*
X124346488Y-108323927D01*
X124371258Y-108319000D01*
X124548742Y-108319000D01*
X124573512Y-108323927D01*
G37*
G36*
X122033512Y-108323927D02*
G01*
X122182812Y-108353624D01*
X122346784Y-108421544D01*
X122494354Y-108520147D01*
X122619853Y-108645646D01*
X122718456Y-108793216D01*
X122786376Y-108957188D01*
X122821000Y-109131259D01*
X122821000Y-109308741D01*
X122786376Y-109482812D01*
X122718456Y-109646784D01*
X122619853Y-109794354D01*
X122494354Y-109919853D01*
X122346784Y-110018456D01*
X122182812Y-110086376D01*
X122033512Y-110116073D01*
X122008742Y-110121000D01*
X121831258Y-110121000D01*
X121806488Y-110116073D01*
X121657188Y-110086376D01*
X121493216Y-110018456D01*
X121345646Y-109919853D01*
X121220147Y-109794354D01*
X121121544Y-109646784D01*
X121053624Y-109482812D01*
X121019000Y-109308741D01*
X121019000Y-109131259D01*
X121053624Y-108957188D01*
X121121544Y-108793216D01*
X121220147Y-108645646D01*
X121345646Y-108520147D01*
X121493216Y-108421544D01*
X121657188Y-108353624D01*
X121806488Y-108323927D01*
X121831258Y-108319000D01*
X122008742Y-108319000D01*
X122033512Y-108323927D01*
G37*
G36*
X78853512Y-108323927D02*
G01*
X79002812Y-108353624D01*
X79166784Y-108421544D01*
X79314354Y-108520147D01*
X79439853Y-108645646D01*
X79538456Y-108793216D01*
X79606376Y-108957188D01*
X79641000Y-109131259D01*
X79641000Y-109308741D01*
X79606376Y-109482812D01*
X79538456Y-109646784D01*
X79439853Y-109794354D01*
X79314354Y-109919853D01*
X79166784Y-110018456D01*
X79002812Y-110086376D01*
X78853512Y-110116073D01*
X78828742Y-110121000D01*
X78651258Y-110121000D01*
X78626488Y-110116073D01*
X78477188Y-110086376D01*
X78313216Y-110018456D01*
X78165646Y-109919853D01*
X78040147Y-109794354D01*
X77941544Y-109646784D01*
X77873624Y-109482812D01*
X77839000Y-109308741D01*
X77839000Y-109131259D01*
X77873624Y-108957188D01*
X77941544Y-108793216D01*
X78040147Y-108645646D01*
X78165646Y-108520147D01*
X78313216Y-108421544D01*
X78477188Y-108353624D01*
X78626488Y-108323927D01*
X78651258Y-108319000D01*
X78828742Y-108319000D01*
X78853512Y-108323927D01*
G37*
G36*
X76313512Y-108323927D02*
G01*
X76462812Y-108353624D01*
X76626784Y-108421544D01*
X76774354Y-108520147D01*
X76899853Y-108645646D01*
X76998456Y-108793216D01*
X77066376Y-108957188D01*
X77101000Y-109131259D01*
X77101000Y-109308741D01*
X77066376Y-109482812D01*
X76998456Y-109646784D01*
X76899853Y-109794354D01*
X76774354Y-109919853D01*
X76626784Y-110018456D01*
X76462812Y-110086376D01*
X76313512Y-110116073D01*
X76288742Y-110121000D01*
X76111258Y-110121000D01*
X76086488Y-110116073D01*
X75937188Y-110086376D01*
X75773216Y-110018456D01*
X75625646Y-109919853D01*
X75500147Y-109794354D01*
X75401544Y-109646784D01*
X75333624Y-109482812D01*
X75299000Y-109308741D01*
X75299000Y-109131259D01*
X75333624Y-108957188D01*
X75401544Y-108793216D01*
X75500147Y-108645646D01*
X75625646Y-108520147D01*
X75773216Y-108421544D01*
X75937188Y-108353624D01*
X76086488Y-108323927D01*
X76111258Y-108319000D01*
X76288742Y-108319000D01*
X76313512Y-108323927D01*
G37*
G36*
X84243241Y-106554760D02*
G01*
X84507305Y-106664139D01*
X84744958Y-106822934D01*
X84947066Y-107025042D01*
X85105861Y-107262695D01*
X85215240Y-107526759D01*
X85271000Y-107807088D01*
X85271000Y-108092912D01*
X85215240Y-108373241D01*
X85105861Y-108637305D01*
X84947066Y-108874958D01*
X84744958Y-109077066D01*
X84507305Y-109235861D01*
X84243241Y-109345240D01*
X83962912Y-109401000D01*
X83677088Y-109401000D01*
X83396759Y-109345240D01*
X83132695Y-109235861D01*
X82895042Y-109077066D01*
X82692934Y-108874958D01*
X82534139Y-108637305D01*
X82424760Y-108373241D01*
X82369000Y-108092912D01*
X82369000Y-107807088D01*
X82424760Y-107526759D01*
X82534139Y-107262695D01*
X82692934Y-107025042D01*
X82895042Y-106822934D01*
X83132695Y-106664139D01*
X83396759Y-106554760D01*
X83677088Y-106499000D01*
X83962912Y-106499000D01*
X84243241Y-106554760D01*
G37*
G36*
X117136241Y-106554760D02*
G01*
X117400305Y-106664139D01*
X117637958Y-106822934D01*
X117840066Y-107025042D01*
X117998861Y-107262695D01*
X118108240Y-107526759D01*
X118164000Y-107807088D01*
X118164000Y-108092912D01*
X118108240Y-108373241D01*
X117998861Y-108637305D01*
X117840066Y-108874958D01*
X117637958Y-109077066D01*
X117400305Y-109235861D01*
X117136241Y-109345240D01*
X116855912Y-109401000D01*
X116570088Y-109401000D01*
X116289759Y-109345240D01*
X116025695Y-109235861D01*
X115788042Y-109077066D01*
X115585934Y-108874958D01*
X115427139Y-108637305D01*
X115317760Y-108373241D01*
X115262000Y-108092912D01*
X115262000Y-107807088D01*
X115317760Y-107526759D01*
X115427139Y-107262695D01*
X115585934Y-107025042D01*
X115788042Y-106822934D01*
X116025695Y-106664139D01*
X116289759Y-106554760D01*
X116570088Y-106499000D01*
X116855912Y-106499000D01*
X117136241Y-106554760D01*
G37*
G36*
X122033512Y-105783927D02*
G01*
X122182812Y-105813624D01*
X122346784Y-105881544D01*
X122494354Y-105980147D01*
X122619853Y-106105646D01*
X122718456Y-106253216D01*
X122786376Y-106417188D01*
X122821000Y-106591259D01*
X122821000Y-106768741D01*
X122786376Y-106942812D01*
X122718456Y-107106784D01*
X122619853Y-107254354D01*
X122494354Y-107379853D01*
X122346784Y-107478456D01*
X122182812Y-107546376D01*
X122033512Y-107576073D01*
X122008742Y-107581000D01*
X121831258Y-107581000D01*
X121806488Y-107576073D01*
X121657188Y-107546376D01*
X121493216Y-107478456D01*
X121345646Y-107379853D01*
X121220147Y-107254354D01*
X121121544Y-107106784D01*
X121053624Y-106942812D01*
X121019000Y-106768741D01*
X121019000Y-106591259D01*
X121053624Y-106417188D01*
X121121544Y-106253216D01*
X121220147Y-106105646D01*
X121345646Y-105980147D01*
X121493216Y-105881544D01*
X121657188Y-105813624D01*
X121806488Y-105783927D01*
X121831258Y-105779000D01*
X122008742Y-105779000D01*
X122033512Y-105783927D01*
G37*
G36*
X124573512Y-105783927D02*
G01*
X124722812Y-105813624D01*
X124886784Y-105881544D01*
X125034354Y-105980147D01*
X125159853Y-106105646D01*
X125258456Y-106253216D01*
X125326376Y-106417188D01*
X125361000Y-106591259D01*
X125361000Y-106768741D01*
X125326376Y-106942812D01*
X125258456Y-107106784D01*
X125159853Y-107254354D01*
X125034354Y-107379853D01*
X124886784Y-107478456D01*
X124722812Y-107546376D01*
X124573512Y-107576073D01*
X124548742Y-107581000D01*
X124371258Y-107581000D01*
X124346488Y-107576073D01*
X124197188Y-107546376D01*
X124033216Y-107478456D01*
X123885646Y-107379853D01*
X123760147Y-107254354D01*
X123661544Y-107106784D01*
X123593624Y-106942812D01*
X123559000Y-106768741D01*
X123559000Y-106591259D01*
X123593624Y-106417188D01*
X123661544Y-106253216D01*
X123760147Y-106105646D01*
X123885646Y-105980147D01*
X124033216Y-105881544D01*
X124197188Y-105813624D01*
X124346488Y-105783927D01*
X124371258Y-105779000D01*
X124548742Y-105779000D01*
X124573512Y-105783927D01*
G37*
G36*
X78853512Y-105783927D02*
G01*
X79002812Y-105813624D01*
X79166784Y-105881544D01*
X79314354Y-105980147D01*
X79439853Y-106105646D01*
X79538456Y-106253216D01*
X79606376Y-106417188D01*
X79641000Y-106591259D01*
X79641000Y-106768741D01*
X79606376Y-106942812D01*
X79538456Y-107106784D01*
X79439853Y-107254354D01*
X79314354Y-107379853D01*
X79166784Y-107478456D01*
X79002812Y-107546376D01*
X78853512Y-107576073D01*
X78828742Y-107581000D01*
X78651258Y-107581000D01*
X78626488Y-107576073D01*
X78477188Y-107546376D01*
X78313216Y-107478456D01*
X78165646Y-107379853D01*
X78040147Y-107254354D01*
X77941544Y-107106784D01*
X77873624Y-106942812D01*
X77839000Y-106768741D01*
X77839000Y-106591259D01*
X77873624Y-106417188D01*
X77941544Y-106253216D01*
X78040147Y-106105646D01*
X78165646Y-105980147D01*
X78313216Y-105881544D01*
X78477188Y-105813624D01*
X78626488Y-105783927D01*
X78651258Y-105779000D01*
X78828742Y-105779000D01*
X78853512Y-105783927D01*
G37*
G36*
X76313512Y-105783927D02*
G01*
X76462812Y-105813624D01*
X76626784Y-105881544D01*
X76774354Y-105980147D01*
X76899853Y-106105646D01*
X76998456Y-106253216D01*
X77066376Y-106417188D01*
X77101000Y-106591259D01*
X77101000Y-106768741D01*
X77066376Y-106942812D01*
X76998456Y-107106784D01*
X76899853Y-107254354D01*
X76774354Y-107379853D01*
X76626784Y-107478456D01*
X76462812Y-107546376D01*
X76313512Y-107576073D01*
X76288742Y-107581000D01*
X76111258Y-107581000D01*
X76086488Y-107576073D01*
X75937188Y-107546376D01*
X75773216Y-107478456D01*
X75625646Y-107379853D01*
X75500147Y-107254354D01*
X75401544Y-107106784D01*
X75333624Y-106942812D01*
X75299000Y-106768741D01*
X75299000Y-106591259D01*
X75333624Y-106417188D01*
X75401544Y-106253216D01*
X75500147Y-106105646D01*
X75625646Y-105980147D01*
X75773216Y-105881544D01*
X75937188Y-105813624D01*
X76086488Y-105783927D01*
X76111258Y-105779000D01*
X76288742Y-105779000D01*
X76313512Y-105783927D01*
G37*
G36*
X122033512Y-103243927D02*
G01*
X122182812Y-103273624D01*
X122346784Y-103341544D01*
X122494354Y-103440147D01*
X122619853Y-103565646D01*
X122718456Y-103713216D01*
X122786376Y-103877188D01*
X122821000Y-104051259D01*
X122821000Y-104228741D01*
X122786376Y-104402812D01*
X122718456Y-104566784D01*
X122619853Y-104714354D01*
X122494354Y-104839853D01*
X122346784Y-104938456D01*
X122182812Y-105006376D01*
X122033512Y-105036073D01*
X122008742Y-105041000D01*
X121831258Y-105041000D01*
X121806488Y-105036073D01*
X121657188Y-105006376D01*
X121493216Y-104938456D01*
X121345646Y-104839853D01*
X121220147Y-104714354D01*
X121121544Y-104566784D01*
X121053624Y-104402812D01*
X121019000Y-104228741D01*
X121019000Y-104051259D01*
X121053624Y-103877188D01*
X121121544Y-103713216D01*
X121220147Y-103565646D01*
X121345646Y-103440147D01*
X121493216Y-103341544D01*
X121657188Y-103273624D01*
X121806488Y-103243927D01*
X121831258Y-103239000D01*
X122008742Y-103239000D01*
X122033512Y-103243927D01*
G37*
G36*
X78853512Y-103243927D02*
G01*
X79002812Y-103273624D01*
X79166784Y-103341544D01*
X79314354Y-103440147D01*
X79439853Y-103565646D01*
X79538456Y-103713216D01*
X79606376Y-103877188D01*
X79641000Y-104051259D01*
X79641000Y-104228741D01*
X79606376Y-104402812D01*
X79538456Y-104566784D01*
X79439853Y-104714354D01*
X79314354Y-104839853D01*
X79166784Y-104938456D01*
X79002812Y-105006376D01*
X78853512Y-105036073D01*
X78828742Y-105041000D01*
X78651258Y-105041000D01*
X78626488Y-105036073D01*
X78477188Y-105006376D01*
X78313216Y-104938456D01*
X78165646Y-104839853D01*
X78040147Y-104714354D01*
X77941544Y-104566784D01*
X77873624Y-104402812D01*
X77839000Y-104228741D01*
X77839000Y-104051259D01*
X77873624Y-103877188D01*
X77941544Y-103713216D01*
X78040147Y-103565646D01*
X78165646Y-103440147D01*
X78313216Y-103341544D01*
X78477188Y-103273624D01*
X78626488Y-103243927D01*
X78651258Y-103239000D01*
X78828742Y-103239000D01*
X78853512Y-103243927D01*
G37*
G36*
X124573512Y-103243927D02*
G01*
X124722812Y-103273624D01*
X124886784Y-103341544D01*
X125034354Y-103440147D01*
X125159853Y-103565646D01*
X125258456Y-103713216D01*
X125326376Y-103877188D01*
X125361000Y-104051259D01*
X125361000Y-104228741D01*
X125326376Y-104402812D01*
X125258456Y-104566784D01*
X125159853Y-104714354D01*
X125034354Y-104839853D01*
X124886784Y-104938456D01*
X124722812Y-105006376D01*
X124573512Y-105036073D01*
X124548742Y-105041000D01*
X124371258Y-105041000D01*
X124346488Y-105036073D01*
X124197188Y-105006376D01*
X124033216Y-104938456D01*
X123885646Y-104839853D01*
X123760147Y-104714354D01*
X123661544Y-104566784D01*
X123593624Y-104402812D01*
X123559000Y-104228741D01*
X123559000Y-104051259D01*
X123593624Y-103877188D01*
X123661544Y-103713216D01*
X123760147Y-103565646D01*
X123885646Y-103440147D01*
X124033216Y-103341544D01*
X124197188Y-103273624D01*
X124346488Y-103243927D01*
X124371258Y-103239000D01*
X124548742Y-103239000D01*
X124573512Y-103243927D01*
G37*
G36*
X76313512Y-103243927D02*
G01*
X76462812Y-103273624D01*
X76626784Y-103341544D01*
X76774354Y-103440147D01*
X76899853Y-103565646D01*
X76998456Y-103713216D01*
X77066376Y-103877188D01*
X77101000Y-104051259D01*
X77101000Y-104228741D01*
X77066376Y-104402812D01*
X76998456Y-104566784D01*
X76899853Y-104714354D01*
X76774354Y-104839853D01*
X76626784Y-104938456D01*
X76462812Y-105006376D01*
X76313512Y-105036073D01*
X76288742Y-105041000D01*
X76111258Y-105041000D01*
X76086488Y-105036073D01*
X75937188Y-105006376D01*
X75773216Y-104938456D01*
X75625646Y-104839853D01*
X75500147Y-104714354D01*
X75401544Y-104566784D01*
X75333624Y-104402812D01*
X75299000Y-104228741D01*
X75299000Y-104051259D01*
X75333624Y-103877188D01*
X75401544Y-103713216D01*
X75500147Y-103565646D01*
X75625646Y-103440147D01*
X75773216Y-103341544D01*
X75937188Y-103273624D01*
X76086488Y-103243927D01*
X76111258Y-103239000D01*
X76288742Y-103239000D01*
X76313512Y-103243927D01*
G37*
G36*
X115075022Y-101058590D02*
G01*
X115140511Y-101078456D01*
X115226012Y-101104392D01*
X115331193Y-101160613D01*
X115365164Y-101178771D01*
X115487133Y-101278867D01*
X115534996Y-101337189D01*
X115587229Y-101400835D01*
X115661608Y-101539987D01*
X115676875Y-101590318D01*
X115707410Y-101690977D01*
X115719000Y-101808655D01*
X115719000Y-102407345D01*
X115707410Y-102525023D01*
X115676875Y-102625682D01*
X115661608Y-102676013D01*
X115587229Y-102815165D01*
X115487133Y-102937133D01*
X115365165Y-103037229D01*
X115226013Y-103111608D01*
X115175682Y-103126875D01*
X115075023Y-103157410D01*
X114918000Y-103172875D01*
X114760978Y-103157410D01*
X114660319Y-103126875D01*
X114609988Y-103111608D01*
X114470836Y-103037229D01*
X114348868Y-102937133D01*
X114320035Y-102902000D01*
X114248772Y-102815165D01*
X114201681Y-102727065D01*
X114174392Y-102676013D01*
X114159125Y-102625682D01*
X114128590Y-102525023D01*
X114117000Y-102407345D01*
X114117000Y-101808656D01*
X114128590Y-101690978D01*
X114174392Y-101539989D01*
X114174392Y-101539988D01*
X114248771Y-101400836D01*
X114248772Y-101400835D01*
X114348867Y-101278867D01*
X114470835Y-101178771D01*
X114504806Y-101160613D01*
X114609987Y-101104392D01*
X114695488Y-101078456D01*
X114760977Y-101058590D01*
X114918000Y-101043125D01*
X115075022Y-101058590D01*
G37*
G36*
X109075022Y-101058590D02*
G01*
X109140511Y-101078456D01*
X109226012Y-101104392D01*
X109331193Y-101160613D01*
X109365164Y-101178771D01*
X109487133Y-101278867D01*
X109534996Y-101337189D01*
X109587229Y-101400835D01*
X109661608Y-101539987D01*
X109676875Y-101590318D01*
X109707410Y-101690977D01*
X109719000Y-101808655D01*
X109719000Y-102407345D01*
X109707410Y-102525023D01*
X109676875Y-102625682D01*
X109661608Y-102676013D01*
X109587229Y-102815165D01*
X109487133Y-102937133D01*
X109365165Y-103037229D01*
X109226013Y-103111608D01*
X109175682Y-103126875D01*
X109075023Y-103157410D01*
X108918000Y-103172875D01*
X108760978Y-103157410D01*
X108660319Y-103126875D01*
X108609988Y-103111608D01*
X108470836Y-103037229D01*
X108348868Y-102937133D01*
X108320035Y-102902000D01*
X108248772Y-102815165D01*
X108201681Y-102727065D01*
X108174392Y-102676013D01*
X108159125Y-102625682D01*
X108128590Y-102525023D01*
X108117000Y-102407345D01*
X108117000Y-101808656D01*
X108128590Y-101690978D01*
X108174392Y-101539989D01*
X108174392Y-101539988D01*
X108248771Y-101400836D01*
X108248772Y-101400835D01*
X108348867Y-101278867D01*
X108470835Y-101178771D01*
X108504806Y-101160613D01*
X108609987Y-101104392D01*
X108695488Y-101078456D01*
X108760977Y-101058590D01*
X108918000Y-101043125D01*
X109075022Y-101058590D01*
G37*
G36*
X112075022Y-101058590D02*
G01*
X112140511Y-101078456D01*
X112226012Y-101104392D01*
X112331193Y-101160613D01*
X112365164Y-101178771D01*
X112487133Y-101278867D01*
X112534996Y-101337189D01*
X112587229Y-101400835D01*
X112661608Y-101539987D01*
X112676875Y-101590318D01*
X112707410Y-101690977D01*
X112719000Y-101808655D01*
X112719000Y-102407345D01*
X112707410Y-102525023D01*
X112676875Y-102625682D01*
X112661608Y-102676013D01*
X112587229Y-102815165D01*
X112487133Y-102937133D01*
X112365165Y-103037229D01*
X112226013Y-103111608D01*
X112175682Y-103126875D01*
X112075023Y-103157410D01*
X111918000Y-103172875D01*
X111760978Y-103157410D01*
X111660319Y-103126875D01*
X111609988Y-103111608D01*
X111470836Y-103037229D01*
X111348868Y-102937133D01*
X111320035Y-102902000D01*
X111248772Y-102815165D01*
X111201681Y-102727065D01*
X111174392Y-102676013D01*
X111159125Y-102625682D01*
X111128590Y-102525023D01*
X111117000Y-102407345D01*
X111117000Y-101808656D01*
X111128590Y-101690978D01*
X111174392Y-101539989D01*
X111174392Y-101539988D01*
X111248771Y-101400836D01*
X111248772Y-101400835D01*
X111348867Y-101278867D01*
X111470835Y-101178771D01*
X111504806Y-101160613D01*
X111609987Y-101104392D01*
X111695488Y-101078456D01*
X111760977Y-101058590D01*
X111918000Y-101043125D01*
X112075022Y-101058590D01*
G37*
G36*
X106571048Y-101051122D02*
G01*
X106605387Y-101061539D01*
X106637036Y-101078456D01*
X106664778Y-101101222D01*
X106687544Y-101128964D01*
X106704461Y-101160613D01*
X106714878Y-101194952D01*
X106719000Y-101236807D01*
X106719000Y-102979193D01*
X106714878Y-103021048D01*
X106704461Y-103055387D01*
X106687544Y-103087036D01*
X106664778Y-103114778D01*
X106637036Y-103137544D01*
X106605387Y-103154461D01*
X106571048Y-103164878D01*
X106529193Y-103169000D01*
X105306807Y-103169000D01*
X105264952Y-103164878D01*
X105230613Y-103154461D01*
X105198964Y-103137544D01*
X105171222Y-103114778D01*
X105148456Y-103087036D01*
X105131539Y-103055387D01*
X105121122Y-103021048D01*
X105117000Y-102979193D01*
X105117000Y-101236807D01*
X105121122Y-101194952D01*
X105131539Y-101160613D01*
X105148456Y-101128964D01*
X105171222Y-101101222D01*
X105198964Y-101078456D01*
X105230613Y-101061539D01*
X105264952Y-101051122D01*
X105306807Y-101047000D01*
X106529193Y-101047000D01*
X106571048Y-101051122D01*
G37*
G36*
X84243241Y-100204760D02*
G01*
X84507305Y-100314139D01*
X84744958Y-100472934D01*
X84947066Y-100675042D01*
X85105861Y-100912695D01*
X85215240Y-101176759D01*
X85271000Y-101457088D01*
X85271000Y-101742912D01*
X85215240Y-102023241D01*
X85105861Y-102287305D01*
X84947066Y-102524958D01*
X84744958Y-102727066D01*
X84507305Y-102885861D01*
X84243241Y-102995240D01*
X83962912Y-103051000D01*
X83677088Y-103051000D01*
X83396759Y-102995240D01*
X83132695Y-102885861D01*
X82895042Y-102727066D01*
X82692934Y-102524958D01*
X82534139Y-102287305D01*
X82424760Y-102023241D01*
X82369000Y-101742912D01*
X82369000Y-101457088D01*
X82424760Y-101176759D01*
X82534139Y-100912695D01*
X82692934Y-100675042D01*
X82895042Y-100472934D01*
X83132695Y-100314139D01*
X83396759Y-100204760D01*
X83677088Y-100149000D01*
X83962912Y-100149000D01*
X84243241Y-100204760D01*
G37*
G36*
X78853512Y-100703927D02*
G01*
X79002812Y-100733624D01*
X79166784Y-100801544D01*
X79314354Y-100900147D01*
X79439853Y-101025646D01*
X79538456Y-101173216D01*
X79606376Y-101337188D01*
X79641000Y-101511259D01*
X79641000Y-101688741D01*
X79606376Y-101862812D01*
X79538456Y-102026784D01*
X79439853Y-102174354D01*
X79314354Y-102299853D01*
X79166784Y-102398456D01*
X79002812Y-102466376D01*
X78853512Y-102496073D01*
X78828742Y-102501000D01*
X78651258Y-102501000D01*
X78626488Y-102496073D01*
X78477188Y-102466376D01*
X78313216Y-102398456D01*
X78165646Y-102299853D01*
X78040147Y-102174354D01*
X77941544Y-102026784D01*
X77873624Y-101862812D01*
X77839000Y-101688741D01*
X77839000Y-101511259D01*
X77873624Y-101337188D01*
X77941544Y-101173216D01*
X78040147Y-101025646D01*
X78165646Y-100900147D01*
X78313216Y-100801544D01*
X78477188Y-100733624D01*
X78626488Y-100703927D01*
X78651258Y-100699000D01*
X78828742Y-100699000D01*
X78853512Y-100703927D01*
G37*
G36*
X124573512Y-100703927D02*
G01*
X124722812Y-100733624D01*
X124886784Y-100801544D01*
X125034354Y-100900147D01*
X125159853Y-101025646D01*
X125258456Y-101173216D01*
X125326376Y-101337188D01*
X125361000Y-101511259D01*
X125361000Y-101688741D01*
X125326376Y-101862812D01*
X125258456Y-102026784D01*
X125159853Y-102174354D01*
X125034354Y-102299853D01*
X124886784Y-102398456D01*
X124722812Y-102466376D01*
X124573512Y-102496073D01*
X124548742Y-102501000D01*
X124371258Y-102501000D01*
X124346488Y-102496073D01*
X124197188Y-102466376D01*
X124033216Y-102398456D01*
X123885646Y-102299853D01*
X123760147Y-102174354D01*
X123661544Y-102026784D01*
X123593624Y-101862812D01*
X123559000Y-101688741D01*
X123559000Y-101511259D01*
X123593624Y-101337188D01*
X123661544Y-101173216D01*
X123760147Y-101025646D01*
X123885646Y-100900147D01*
X124033216Y-100801544D01*
X124197188Y-100733624D01*
X124346488Y-100703927D01*
X124371258Y-100699000D01*
X124548742Y-100699000D01*
X124573512Y-100703927D01*
G37*
G36*
X122033512Y-100703927D02*
G01*
X122182812Y-100733624D01*
X122346784Y-100801544D01*
X122494354Y-100900147D01*
X122619853Y-101025646D01*
X122718456Y-101173216D01*
X122786376Y-101337188D01*
X122821000Y-101511259D01*
X122821000Y-101688741D01*
X122786376Y-101862812D01*
X122718456Y-102026784D01*
X122619853Y-102174354D01*
X122494354Y-102299853D01*
X122346784Y-102398456D01*
X122182812Y-102466376D01*
X122033512Y-102496073D01*
X122008742Y-102501000D01*
X121831258Y-102501000D01*
X121806488Y-102496073D01*
X121657188Y-102466376D01*
X121493216Y-102398456D01*
X121345646Y-102299853D01*
X121220147Y-102174354D01*
X121121544Y-102026784D01*
X121053624Y-101862812D01*
X121019000Y-101688741D01*
X121019000Y-101511259D01*
X121053624Y-101337188D01*
X121121544Y-101173216D01*
X121220147Y-101025646D01*
X121345646Y-100900147D01*
X121493216Y-100801544D01*
X121657188Y-100733624D01*
X121806488Y-100703927D01*
X121831258Y-100699000D01*
X122008742Y-100699000D01*
X122033512Y-100703927D01*
G37*
G36*
X76313512Y-100703927D02*
G01*
X76462812Y-100733624D01*
X76626784Y-100801544D01*
X76774354Y-100900147D01*
X76899853Y-101025646D01*
X76998456Y-101173216D01*
X77066376Y-101337188D01*
X77101000Y-101511259D01*
X77101000Y-101688741D01*
X77066376Y-101862812D01*
X76998456Y-102026784D01*
X76899853Y-102174354D01*
X76774354Y-102299853D01*
X76626784Y-102398456D01*
X76462812Y-102466376D01*
X76313512Y-102496073D01*
X76288742Y-102501000D01*
X76111258Y-102501000D01*
X76086488Y-102496073D01*
X75937188Y-102466376D01*
X75773216Y-102398456D01*
X75625646Y-102299853D01*
X75500147Y-102174354D01*
X75401544Y-102026784D01*
X75333624Y-101862812D01*
X75299000Y-101688741D01*
X75299000Y-101511259D01*
X75333624Y-101337188D01*
X75401544Y-101173216D01*
X75500147Y-101025646D01*
X75625646Y-100900147D01*
X75773216Y-100801544D01*
X75937188Y-100733624D01*
X76086488Y-100703927D01*
X76111258Y-100699000D01*
X76288742Y-100699000D01*
X76313512Y-100703927D01*
G37*
G36*
X103118098Y-99488362D02*
G01*
X103242941Y-99540074D01*
X103242943Y-99540075D01*
X103355299Y-99615149D01*
X103450851Y-99710701D01*
X103525926Y-99823059D01*
X103577638Y-99947902D01*
X103604000Y-100080434D01*
X103604000Y-100215566D01*
X103577638Y-100348098D01*
X103525929Y-100472934D01*
X103525925Y-100472943D01*
X103450851Y-100585299D01*
X103355299Y-100680851D01*
X103242943Y-100755925D01*
X103242942Y-100755926D01*
X103242941Y-100755926D01*
X103118098Y-100807638D01*
X102985566Y-100834000D01*
X102850434Y-100834000D01*
X102717902Y-100807638D01*
X102593059Y-100755926D01*
X102593058Y-100755926D01*
X102593057Y-100755925D01*
X102480701Y-100680851D01*
X102385149Y-100585299D01*
X102310075Y-100472943D01*
X102310071Y-100472934D01*
X102258362Y-100348098D01*
X102232000Y-100215566D01*
X102232000Y-100080434D01*
X102258362Y-99947902D01*
X102310074Y-99823059D01*
X102385149Y-99710701D01*
X102480701Y-99615149D01*
X102593057Y-99540075D01*
X102593059Y-99540074D01*
X102717902Y-99488362D01*
X102850434Y-99462000D01*
X102985566Y-99462000D01*
X103118098Y-99488362D01*
G37*
G36*
X118118098Y-99488362D02*
G01*
X118242941Y-99540074D01*
X118242943Y-99540075D01*
X118355299Y-99615149D01*
X118450851Y-99710701D01*
X118525926Y-99823059D01*
X118577638Y-99947902D01*
X118604000Y-100080434D01*
X118604000Y-100215566D01*
X118577638Y-100348098D01*
X118525929Y-100472934D01*
X118525925Y-100472943D01*
X118450851Y-100585299D01*
X118355299Y-100680851D01*
X118242943Y-100755925D01*
X118242942Y-100755926D01*
X118242941Y-100755926D01*
X118118098Y-100807638D01*
X117985566Y-100834000D01*
X117850434Y-100834000D01*
X117717902Y-100807638D01*
X117593059Y-100755926D01*
X117593058Y-100755926D01*
X117593057Y-100755925D01*
X117480701Y-100680851D01*
X117385149Y-100585299D01*
X117310075Y-100472943D01*
X117310071Y-100472934D01*
X117258362Y-100348098D01*
X117232000Y-100215566D01*
X117232000Y-100080434D01*
X117258362Y-99947902D01*
X117310074Y-99823059D01*
X117385149Y-99710701D01*
X117480701Y-99615149D01*
X117593057Y-99540075D01*
X117593059Y-99540074D01*
X117717902Y-99488362D01*
X117850434Y-99462000D01*
X117985566Y-99462000D01*
X118118098Y-99488362D01*
G37*
G36*
X78853512Y-98163927D02*
G01*
X79002812Y-98193624D01*
X79166784Y-98261544D01*
X79314354Y-98360147D01*
X79439853Y-98485646D01*
X79538456Y-98633216D01*
X79606376Y-98797188D01*
X79641000Y-98971259D01*
X79641000Y-99148741D01*
X79606376Y-99322812D01*
X79538456Y-99486784D01*
X79439853Y-99634354D01*
X79314354Y-99759853D01*
X79166784Y-99858456D01*
X79002812Y-99926376D01*
X78853512Y-99956073D01*
X78828742Y-99961000D01*
X78651258Y-99961000D01*
X78626488Y-99956073D01*
X78477188Y-99926376D01*
X78313216Y-99858456D01*
X78165646Y-99759853D01*
X78040147Y-99634354D01*
X77941544Y-99486784D01*
X77873624Y-99322812D01*
X77839000Y-99148741D01*
X77839000Y-98971259D01*
X77873624Y-98797188D01*
X77941544Y-98633216D01*
X78040147Y-98485646D01*
X78165646Y-98360147D01*
X78313216Y-98261544D01*
X78477188Y-98193624D01*
X78626488Y-98163927D01*
X78651258Y-98159000D01*
X78828742Y-98159000D01*
X78853512Y-98163927D01*
G37*
G36*
X124573512Y-98163927D02*
G01*
X124722812Y-98193624D01*
X124886784Y-98261544D01*
X125034354Y-98360147D01*
X125159853Y-98485646D01*
X125258456Y-98633216D01*
X125326376Y-98797188D01*
X125361000Y-98971259D01*
X125361000Y-99148741D01*
X125326376Y-99322812D01*
X125258456Y-99486784D01*
X125159853Y-99634354D01*
X125034354Y-99759853D01*
X124886784Y-99858456D01*
X124722812Y-99926376D01*
X124573512Y-99956073D01*
X124548742Y-99961000D01*
X124371258Y-99961000D01*
X124346488Y-99956073D01*
X124197188Y-99926376D01*
X124033216Y-99858456D01*
X123885646Y-99759853D01*
X123760147Y-99634354D01*
X123661544Y-99486784D01*
X123593624Y-99322812D01*
X123559000Y-99148741D01*
X123559000Y-98971259D01*
X123593624Y-98797188D01*
X123661544Y-98633216D01*
X123760147Y-98485646D01*
X123885646Y-98360147D01*
X124033216Y-98261544D01*
X124197188Y-98193624D01*
X124346488Y-98163927D01*
X124371258Y-98159000D01*
X124548742Y-98159000D01*
X124573512Y-98163927D01*
G37*
G36*
X76313512Y-98163927D02*
G01*
X76462812Y-98193624D01*
X76626784Y-98261544D01*
X76774354Y-98360147D01*
X76899853Y-98485646D01*
X76998456Y-98633216D01*
X77066376Y-98797188D01*
X77101000Y-98971259D01*
X77101000Y-99148741D01*
X77066376Y-99322812D01*
X76998456Y-99486784D01*
X76899853Y-99634354D01*
X76774354Y-99759853D01*
X76626784Y-99858456D01*
X76462812Y-99926376D01*
X76313512Y-99956073D01*
X76288742Y-99961000D01*
X76111258Y-99961000D01*
X76086488Y-99956073D01*
X75937188Y-99926376D01*
X75773216Y-99858456D01*
X75625646Y-99759853D01*
X75500147Y-99634354D01*
X75401544Y-99486784D01*
X75333624Y-99322812D01*
X75299000Y-99148741D01*
X75299000Y-98971259D01*
X75333624Y-98797188D01*
X75401544Y-98633216D01*
X75500147Y-98485646D01*
X75625646Y-98360147D01*
X75773216Y-98261544D01*
X75937188Y-98193624D01*
X76086488Y-98163927D01*
X76111258Y-98159000D01*
X76288742Y-98159000D01*
X76313512Y-98163927D01*
G37*
G36*
X122033512Y-98163927D02*
G01*
X122182812Y-98193624D01*
X122346784Y-98261544D01*
X122494354Y-98360147D01*
X122619853Y-98485646D01*
X122718456Y-98633216D01*
X122786376Y-98797188D01*
X122821000Y-98971259D01*
X122821000Y-99148741D01*
X122786376Y-99322812D01*
X122718456Y-99486784D01*
X122619853Y-99634354D01*
X122494354Y-99759853D01*
X122346784Y-99858456D01*
X122182812Y-99926376D01*
X122033512Y-99956073D01*
X122008742Y-99961000D01*
X121831258Y-99961000D01*
X121806488Y-99956073D01*
X121657188Y-99926376D01*
X121493216Y-99858456D01*
X121345646Y-99759853D01*
X121220147Y-99634354D01*
X121121544Y-99486784D01*
X121053624Y-99322812D01*
X121019000Y-99148741D01*
X121019000Y-98971259D01*
X121053624Y-98797188D01*
X121121544Y-98633216D01*
X121220147Y-98485646D01*
X121345646Y-98360147D01*
X121493216Y-98261544D01*
X121657188Y-98193624D01*
X121806488Y-98163927D01*
X121831258Y-98159000D01*
X122008742Y-98159000D01*
X122033512Y-98163927D01*
G37*
G36*
X76313512Y-95623927D02*
G01*
X76462812Y-95653624D01*
X76626784Y-95721544D01*
X76774354Y-95820147D01*
X76899853Y-95945646D01*
X76998456Y-96093216D01*
X77066376Y-96257188D01*
X77101000Y-96431259D01*
X77101000Y-96608741D01*
X77066376Y-96782812D01*
X76998456Y-96946784D01*
X76899853Y-97094354D01*
X76774354Y-97219853D01*
X76626784Y-97318456D01*
X76462812Y-97386376D01*
X76313512Y-97416073D01*
X76288742Y-97421000D01*
X76111258Y-97421000D01*
X76086488Y-97416073D01*
X75937188Y-97386376D01*
X75773216Y-97318456D01*
X75625646Y-97219853D01*
X75500147Y-97094354D01*
X75401544Y-96946784D01*
X75333624Y-96782812D01*
X75299000Y-96608741D01*
X75299000Y-96431259D01*
X75333624Y-96257188D01*
X75401544Y-96093216D01*
X75500147Y-95945646D01*
X75625646Y-95820147D01*
X75773216Y-95721544D01*
X75937188Y-95653624D01*
X76086488Y-95623927D01*
X76111258Y-95619000D01*
X76288742Y-95619000D01*
X76313512Y-95623927D01*
G37*
G36*
X122033512Y-95623927D02*
G01*
X122182812Y-95653624D01*
X122346784Y-95721544D01*
X122494354Y-95820147D01*
X122619853Y-95945646D01*
X122718456Y-96093216D01*
X122786376Y-96257188D01*
X122821000Y-96431259D01*
X122821000Y-96608741D01*
X122786376Y-96782812D01*
X122718456Y-96946784D01*
X122619853Y-97094354D01*
X122494354Y-97219853D01*
X122346784Y-97318456D01*
X122182812Y-97386376D01*
X122033512Y-97416073D01*
X122008742Y-97421000D01*
X121831258Y-97421000D01*
X121806488Y-97416073D01*
X121657188Y-97386376D01*
X121493216Y-97318456D01*
X121345646Y-97219853D01*
X121220147Y-97094354D01*
X121121544Y-96946784D01*
X121053624Y-96782812D01*
X121019000Y-96608741D01*
X121019000Y-96431259D01*
X121053624Y-96257188D01*
X121121544Y-96093216D01*
X121220147Y-95945646D01*
X121345646Y-95820147D01*
X121493216Y-95721544D01*
X121657188Y-95653624D01*
X121806488Y-95623927D01*
X121831258Y-95619000D01*
X122008742Y-95619000D01*
X122033512Y-95623927D01*
G37*
G36*
X124573512Y-95623927D02*
G01*
X124722812Y-95653624D01*
X124886784Y-95721544D01*
X125034354Y-95820147D01*
X125159853Y-95945646D01*
X125258456Y-96093216D01*
X125326376Y-96257188D01*
X125361000Y-96431259D01*
X125361000Y-96608741D01*
X125326376Y-96782812D01*
X125258456Y-96946784D01*
X125159853Y-97094354D01*
X125034354Y-97219853D01*
X124886784Y-97318456D01*
X124722812Y-97386376D01*
X124573512Y-97416073D01*
X124548742Y-97421000D01*
X124371258Y-97421000D01*
X124346488Y-97416073D01*
X124197188Y-97386376D01*
X124033216Y-97318456D01*
X123885646Y-97219853D01*
X123760147Y-97094354D01*
X123661544Y-96946784D01*
X123593624Y-96782812D01*
X123559000Y-96608741D01*
X123559000Y-96431259D01*
X123593624Y-96257188D01*
X123661544Y-96093216D01*
X123760147Y-95945646D01*
X123885646Y-95820147D01*
X124033216Y-95721544D01*
X124197188Y-95653624D01*
X124346488Y-95623927D01*
X124371258Y-95619000D01*
X124548742Y-95619000D01*
X124573512Y-95623927D01*
G37*
G36*
X78853512Y-95623927D02*
G01*
X79002812Y-95653624D01*
X79166784Y-95721544D01*
X79314354Y-95820147D01*
X79439853Y-95945646D01*
X79538456Y-96093216D01*
X79606376Y-96257188D01*
X79641000Y-96431259D01*
X79641000Y-96608741D01*
X79606376Y-96782812D01*
X79538456Y-96946784D01*
X79439853Y-97094354D01*
X79314354Y-97219853D01*
X79166784Y-97318456D01*
X79002812Y-97386376D01*
X78853512Y-97416073D01*
X78828742Y-97421000D01*
X78651258Y-97421000D01*
X78626488Y-97416073D01*
X78477188Y-97386376D01*
X78313216Y-97318456D01*
X78165646Y-97219853D01*
X78040147Y-97094354D01*
X77941544Y-96946784D01*
X77873624Y-96782812D01*
X77839000Y-96608741D01*
X77839000Y-96431259D01*
X77873624Y-96257188D01*
X77941544Y-96093216D01*
X78040147Y-95945646D01*
X78165646Y-95820147D01*
X78313216Y-95721544D01*
X78477188Y-95653624D01*
X78626488Y-95623927D01*
X78651258Y-95619000D01*
X78828742Y-95619000D01*
X78853512Y-95623927D01*
G37*
G36*
X78853512Y-93083927D02*
G01*
X79002812Y-93113624D01*
X79166784Y-93181544D01*
X79314354Y-93280147D01*
X79439853Y-93405646D01*
X79538456Y-93553216D01*
X79606376Y-93717188D01*
X79641000Y-93891259D01*
X79641000Y-94068741D01*
X79606376Y-94242812D01*
X79538456Y-94406784D01*
X79439853Y-94554354D01*
X79314354Y-94679853D01*
X79166784Y-94778456D01*
X79002812Y-94846376D01*
X78853512Y-94876073D01*
X78828742Y-94881000D01*
X78651258Y-94881000D01*
X78626488Y-94876073D01*
X78477188Y-94846376D01*
X78313216Y-94778456D01*
X78165646Y-94679853D01*
X78040147Y-94554354D01*
X77941544Y-94406784D01*
X77873624Y-94242812D01*
X77839000Y-94068741D01*
X77839000Y-93891259D01*
X77873624Y-93717188D01*
X77941544Y-93553216D01*
X78040147Y-93405646D01*
X78165646Y-93280147D01*
X78313216Y-93181544D01*
X78477188Y-93113624D01*
X78626488Y-93083927D01*
X78651258Y-93079000D01*
X78828742Y-93079000D01*
X78853512Y-93083927D01*
G37*
G36*
X76313512Y-93083927D02*
G01*
X76462812Y-93113624D01*
X76626784Y-93181544D01*
X76774354Y-93280147D01*
X76899853Y-93405646D01*
X76998456Y-93553216D01*
X77066376Y-93717188D01*
X77101000Y-93891259D01*
X77101000Y-94068741D01*
X77066376Y-94242812D01*
X76998456Y-94406784D01*
X76899853Y-94554354D01*
X76774354Y-94679853D01*
X76626784Y-94778456D01*
X76462812Y-94846376D01*
X76313512Y-94876073D01*
X76288742Y-94881000D01*
X76111258Y-94881000D01*
X76086488Y-94876073D01*
X75937188Y-94846376D01*
X75773216Y-94778456D01*
X75625646Y-94679853D01*
X75500147Y-94554354D01*
X75401544Y-94406784D01*
X75333624Y-94242812D01*
X75299000Y-94068741D01*
X75299000Y-93891259D01*
X75333624Y-93717188D01*
X75401544Y-93553216D01*
X75500147Y-93405646D01*
X75625646Y-93280147D01*
X75773216Y-93181544D01*
X75937188Y-93113624D01*
X76086488Y-93083927D01*
X76111258Y-93079000D01*
X76288742Y-93079000D01*
X76313512Y-93083927D01*
G37*
G36*
X124573512Y-93083927D02*
G01*
X124722812Y-93113624D01*
X124886784Y-93181544D01*
X125034354Y-93280147D01*
X125159853Y-93405646D01*
X125258456Y-93553216D01*
X125326376Y-93717188D01*
X125361000Y-93891259D01*
X125361000Y-94068741D01*
X125326376Y-94242812D01*
X125258456Y-94406784D01*
X125159853Y-94554354D01*
X125034354Y-94679853D01*
X124886784Y-94778456D01*
X124722812Y-94846376D01*
X124573512Y-94876073D01*
X124548742Y-94881000D01*
X124371258Y-94881000D01*
X124346488Y-94876073D01*
X124197188Y-94846376D01*
X124033216Y-94778456D01*
X123885646Y-94679853D01*
X123760147Y-94554354D01*
X123661544Y-94406784D01*
X123593624Y-94242812D01*
X123559000Y-94068741D01*
X123559000Y-93891259D01*
X123593624Y-93717188D01*
X123661544Y-93553216D01*
X123760147Y-93405646D01*
X123885646Y-93280147D01*
X124033216Y-93181544D01*
X124197188Y-93113624D01*
X124346488Y-93083927D01*
X124371258Y-93079000D01*
X124548742Y-93079000D01*
X124573512Y-93083927D01*
G37*
G36*
X122033512Y-93083927D02*
G01*
X122182812Y-93113624D01*
X122346784Y-93181544D01*
X122494354Y-93280147D01*
X122619853Y-93405646D01*
X122718456Y-93553216D01*
X122786376Y-93717188D01*
X122821000Y-93891259D01*
X122821000Y-94068741D01*
X122786376Y-94242812D01*
X122718456Y-94406784D01*
X122619853Y-94554354D01*
X122494354Y-94679853D01*
X122346784Y-94778456D01*
X122182812Y-94846376D01*
X122033512Y-94876073D01*
X122008742Y-94881000D01*
X121831258Y-94881000D01*
X121806488Y-94876073D01*
X121657188Y-94846376D01*
X121493216Y-94778456D01*
X121345646Y-94679853D01*
X121220147Y-94554354D01*
X121121544Y-94406784D01*
X121053624Y-94242812D01*
X121019000Y-94068741D01*
X121019000Y-93891259D01*
X121053624Y-93717188D01*
X121121544Y-93553216D01*
X121220147Y-93405646D01*
X121345646Y-93280147D01*
X121493216Y-93181544D01*
X121657188Y-93113624D01*
X121806488Y-93083927D01*
X121831258Y-93079000D01*
X122008742Y-93079000D01*
X122033512Y-93083927D01*
G37*
G36*
X78853512Y-90543927D02*
G01*
X79002812Y-90573624D01*
X79166784Y-90641544D01*
X79314354Y-90740147D01*
X79439853Y-90865646D01*
X79538456Y-91013216D01*
X79606376Y-91177188D01*
X79641000Y-91351259D01*
X79641000Y-91528741D01*
X79606376Y-91702812D01*
X79538456Y-91866784D01*
X79439853Y-92014354D01*
X79314354Y-92139853D01*
X79166784Y-92238456D01*
X79002812Y-92306376D01*
X78853512Y-92336073D01*
X78828742Y-92341000D01*
X78651258Y-92341000D01*
X78626488Y-92336073D01*
X78477188Y-92306376D01*
X78313216Y-92238456D01*
X78165646Y-92139853D01*
X78040147Y-92014354D01*
X77941544Y-91866784D01*
X77873624Y-91702812D01*
X77839000Y-91528741D01*
X77839000Y-91351259D01*
X77873624Y-91177188D01*
X77941544Y-91013216D01*
X78040147Y-90865646D01*
X78165646Y-90740147D01*
X78313216Y-90641544D01*
X78477188Y-90573624D01*
X78626488Y-90543927D01*
X78651258Y-90539000D01*
X78828742Y-90539000D01*
X78853512Y-90543927D01*
G37*
G36*
X76313512Y-90543927D02*
G01*
X76462812Y-90573624D01*
X76626784Y-90641544D01*
X76774354Y-90740147D01*
X76899853Y-90865646D01*
X76998456Y-91013216D01*
X77066376Y-91177188D01*
X77101000Y-91351259D01*
X77101000Y-91528741D01*
X77066376Y-91702812D01*
X76998456Y-91866784D01*
X76899853Y-92014354D01*
X76774354Y-92139853D01*
X76626784Y-92238456D01*
X76462812Y-92306376D01*
X76313512Y-92336073D01*
X76288742Y-92341000D01*
X76111258Y-92341000D01*
X76086488Y-92336073D01*
X75937188Y-92306376D01*
X75773216Y-92238456D01*
X75625646Y-92139853D01*
X75500147Y-92014354D01*
X75401544Y-91866784D01*
X75333624Y-91702812D01*
X75299000Y-91528741D01*
X75299000Y-91351259D01*
X75333624Y-91177188D01*
X75401544Y-91013216D01*
X75500147Y-90865646D01*
X75625646Y-90740147D01*
X75773216Y-90641544D01*
X75937188Y-90573624D01*
X76086488Y-90543927D01*
X76111258Y-90539000D01*
X76288742Y-90539000D01*
X76313512Y-90543927D01*
G37*
G36*
X122033512Y-90543927D02*
G01*
X122182812Y-90573624D01*
X122346784Y-90641544D01*
X122494354Y-90740147D01*
X122619853Y-90865646D01*
X122718456Y-91013216D01*
X122786376Y-91177188D01*
X122821000Y-91351259D01*
X122821000Y-91528741D01*
X122786376Y-91702812D01*
X122718456Y-91866784D01*
X122619853Y-92014354D01*
X122494354Y-92139853D01*
X122346784Y-92238456D01*
X122182812Y-92306376D01*
X122033512Y-92336073D01*
X122008742Y-92341000D01*
X121831258Y-92341000D01*
X121806488Y-92336073D01*
X121657188Y-92306376D01*
X121493216Y-92238456D01*
X121345646Y-92139853D01*
X121220147Y-92014354D01*
X121121544Y-91866784D01*
X121053624Y-91702812D01*
X121019000Y-91528741D01*
X121019000Y-91351259D01*
X121053624Y-91177188D01*
X121121544Y-91013216D01*
X121220147Y-90865646D01*
X121345646Y-90740147D01*
X121493216Y-90641544D01*
X121657188Y-90573624D01*
X121806488Y-90543927D01*
X121831258Y-90539000D01*
X122008742Y-90539000D01*
X122033512Y-90543927D01*
G37*
G36*
X124573512Y-90543927D02*
G01*
X124722812Y-90573624D01*
X124886784Y-90641544D01*
X125034354Y-90740147D01*
X125159853Y-90865646D01*
X125258456Y-91013216D01*
X125326376Y-91177188D01*
X125361000Y-91351259D01*
X125361000Y-91528741D01*
X125326376Y-91702812D01*
X125258456Y-91866784D01*
X125159853Y-92014354D01*
X125034354Y-92139853D01*
X124886784Y-92238456D01*
X124722812Y-92306376D01*
X124573512Y-92336073D01*
X124548742Y-92341000D01*
X124371258Y-92341000D01*
X124346488Y-92336073D01*
X124197188Y-92306376D01*
X124033216Y-92238456D01*
X123885646Y-92139853D01*
X123760147Y-92014354D01*
X123661544Y-91866784D01*
X123593624Y-91702812D01*
X123559000Y-91528741D01*
X123559000Y-91351259D01*
X123593624Y-91177188D01*
X123661544Y-91013216D01*
X123760147Y-90865646D01*
X123885646Y-90740147D01*
X124033216Y-90641544D01*
X124197188Y-90573624D01*
X124346488Y-90543927D01*
X124371258Y-90539000D01*
X124548742Y-90539000D01*
X124573512Y-90543927D01*
G37*
G36*
X78853512Y-88003927D02*
G01*
X79002812Y-88033624D01*
X79166784Y-88101544D01*
X79314354Y-88200147D01*
X79439853Y-88325646D01*
X79538456Y-88473216D01*
X79606376Y-88637188D01*
X79641000Y-88811259D01*
X79641000Y-88988741D01*
X79606376Y-89162812D01*
X79538456Y-89326784D01*
X79439853Y-89474354D01*
X79314354Y-89599853D01*
X79166784Y-89698456D01*
X79002812Y-89766376D01*
X78853512Y-89796073D01*
X78828742Y-89801000D01*
X78651258Y-89801000D01*
X78626488Y-89796073D01*
X78477188Y-89766376D01*
X78313216Y-89698456D01*
X78165646Y-89599853D01*
X78040147Y-89474354D01*
X77941544Y-89326784D01*
X77873624Y-89162812D01*
X77839000Y-88988741D01*
X77839000Y-88811259D01*
X77873624Y-88637188D01*
X77941544Y-88473216D01*
X78040147Y-88325646D01*
X78165646Y-88200147D01*
X78313216Y-88101544D01*
X78477188Y-88033624D01*
X78626488Y-88003927D01*
X78651258Y-87999000D01*
X78828742Y-87999000D01*
X78853512Y-88003927D01*
G37*
G36*
X76313512Y-88003927D02*
G01*
X76462812Y-88033624D01*
X76626784Y-88101544D01*
X76774354Y-88200147D01*
X76899853Y-88325646D01*
X76998456Y-88473216D01*
X77066376Y-88637188D01*
X77101000Y-88811259D01*
X77101000Y-88988741D01*
X77066376Y-89162812D01*
X76998456Y-89326784D01*
X76899853Y-89474354D01*
X76774354Y-89599853D01*
X76626784Y-89698456D01*
X76462812Y-89766376D01*
X76313512Y-89796073D01*
X76288742Y-89801000D01*
X76111258Y-89801000D01*
X76086488Y-89796073D01*
X75937188Y-89766376D01*
X75773216Y-89698456D01*
X75625646Y-89599853D01*
X75500147Y-89474354D01*
X75401544Y-89326784D01*
X75333624Y-89162812D01*
X75299000Y-88988741D01*
X75299000Y-88811259D01*
X75333624Y-88637188D01*
X75401544Y-88473216D01*
X75500147Y-88325646D01*
X75625646Y-88200147D01*
X75773216Y-88101544D01*
X75937188Y-88033624D01*
X76086488Y-88003927D01*
X76111258Y-87999000D01*
X76288742Y-87999000D01*
X76313512Y-88003927D01*
G37*
G36*
X124573512Y-88003927D02*
G01*
X124722812Y-88033624D01*
X124886784Y-88101544D01*
X125034354Y-88200147D01*
X125159853Y-88325646D01*
X125258456Y-88473216D01*
X125326376Y-88637188D01*
X125361000Y-88811259D01*
X125361000Y-88988741D01*
X125326376Y-89162812D01*
X125258456Y-89326784D01*
X125159853Y-89474354D01*
X125034354Y-89599853D01*
X124886784Y-89698456D01*
X124722812Y-89766376D01*
X124573512Y-89796073D01*
X124548742Y-89801000D01*
X124371258Y-89801000D01*
X124346488Y-89796073D01*
X124197188Y-89766376D01*
X124033216Y-89698456D01*
X123885646Y-89599853D01*
X123760147Y-89474354D01*
X123661544Y-89326784D01*
X123593624Y-89162812D01*
X123559000Y-88988741D01*
X123559000Y-88811259D01*
X123593624Y-88637188D01*
X123661544Y-88473216D01*
X123760147Y-88325646D01*
X123885646Y-88200147D01*
X124033216Y-88101544D01*
X124197188Y-88033624D01*
X124346488Y-88003927D01*
X124371258Y-87999000D01*
X124548742Y-87999000D01*
X124573512Y-88003927D01*
G37*
G36*
X122033512Y-88003927D02*
G01*
X122182812Y-88033624D01*
X122346784Y-88101544D01*
X122494354Y-88200147D01*
X122619853Y-88325646D01*
X122718456Y-88473216D01*
X122786376Y-88637188D01*
X122821000Y-88811259D01*
X122821000Y-88988741D01*
X122786376Y-89162812D01*
X122718456Y-89326784D01*
X122619853Y-89474354D01*
X122494354Y-89599853D01*
X122346784Y-89698456D01*
X122182812Y-89766376D01*
X122033512Y-89796073D01*
X122008742Y-89801000D01*
X121831258Y-89801000D01*
X121806488Y-89796073D01*
X121657188Y-89766376D01*
X121493216Y-89698456D01*
X121345646Y-89599853D01*
X121220147Y-89474354D01*
X121121544Y-89326784D01*
X121053624Y-89162812D01*
X121019000Y-88988741D01*
X121019000Y-88811259D01*
X121053624Y-88637188D01*
X121121544Y-88473216D01*
X121220147Y-88325646D01*
X121345646Y-88200147D01*
X121493216Y-88101544D01*
X121657188Y-88033624D01*
X121806488Y-88003927D01*
X121831258Y-87999000D01*
X122008742Y-87999000D01*
X122033512Y-88003927D01*
G37*
G36*
X91873241Y-86869760D02*
G01*
X92137305Y-86979139D01*
X92374958Y-87137934D01*
X92577066Y-87340042D01*
X92735861Y-87577695D01*
X92845240Y-87841759D01*
X92901000Y-88122088D01*
X92901000Y-88407912D01*
X92845240Y-88688241D01*
X92735861Y-88952305D01*
X92577066Y-89189958D01*
X92374958Y-89392066D01*
X92137305Y-89550861D01*
X91873241Y-89660240D01*
X91592912Y-89716000D01*
X91307088Y-89716000D01*
X91026759Y-89660240D01*
X90762695Y-89550861D01*
X90525042Y-89392066D01*
X90322934Y-89189958D01*
X90164139Y-88952305D01*
X90054760Y-88688241D01*
X89999000Y-88407912D01*
X89999000Y-88122088D01*
X90054760Y-87841759D01*
X90164139Y-87577695D01*
X90322934Y-87340042D01*
X90525042Y-87137934D01*
X90762695Y-86979139D01*
X91026759Y-86869760D01*
X91307088Y-86814000D01*
X91592912Y-86814000D01*
X91873241Y-86869760D01*
G37*
G36*
X86148241Y-86869760D02*
G01*
X86412305Y-86979139D01*
X86649958Y-87137934D01*
X86852066Y-87340042D01*
X87010861Y-87577695D01*
X87120240Y-87841759D01*
X87176000Y-88122088D01*
X87176000Y-88407912D01*
X87120240Y-88688241D01*
X87010861Y-88952305D01*
X86852066Y-89189958D01*
X86649958Y-89392066D01*
X86412305Y-89550861D01*
X86148241Y-89660240D01*
X85867912Y-89716000D01*
X85582088Y-89716000D01*
X85301759Y-89660240D01*
X85037695Y-89550861D01*
X84800042Y-89392066D01*
X84597934Y-89189958D01*
X84439139Y-88952305D01*
X84329760Y-88688241D01*
X84274000Y-88407912D01*
X84274000Y-88122088D01*
X84329760Y-87841759D01*
X84439139Y-87577695D01*
X84597934Y-87340042D01*
X84800042Y-87137934D01*
X85037695Y-86979139D01*
X85301759Y-86869760D01*
X85582088Y-86814000D01*
X85867912Y-86814000D01*
X86148241Y-86869760D01*
G37*
G36*
X78853512Y-85463927D02*
G01*
X79002812Y-85493624D01*
X79166784Y-85561544D01*
X79314354Y-85660147D01*
X79439853Y-85785646D01*
X79538456Y-85933216D01*
X79606376Y-86097188D01*
X79641000Y-86271259D01*
X79641000Y-86448741D01*
X79606376Y-86622812D01*
X79538456Y-86786784D01*
X79439853Y-86934354D01*
X79314354Y-87059853D01*
X79166784Y-87158456D01*
X79002812Y-87226376D01*
X78853512Y-87256073D01*
X78828742Y-87261000D01*
X78651258Y-87261000D01*
X78626488Y-87256073D01*
X78477188Y-87226376D01*
X78313216Y-87158456D01*
X78165646Y-87059853D01*
X78040147Y-86934354D01*
X77941544Y-86786784D01*
X77873624Y-86622812D01*
X77839000Y-86448741D01*
X77839000Y-86271259D01*
X77873624Y-86097188D01*
X77941544Y-85933216D01*
X78040147Y-85785646D01*
X78165646Y-85660147D01*
X78313216Y-85561544D01*
X78477188Y-85493624D01*
X78626488Y-85463927D01*
X78651258Y-85459000D01*
X78828742Y-85459000D01*
X78853512Y-85463927D01*
G37*
G36*
X76313512Y-85463927D02*
G01*
X76462812Y-85493624D01*
X76626784Y-85561544D01*
X76774354Y-85660147D01*
X76899853Y-85785646D01*
X76998456Y-85933216D01*
X77066376Y-86097188D01*
X77101000Y-86271259D01*
X77101000Y-86448741D01*
X77066376Y-86622812D01*
X76998456Y-86786784D01*
X76899853Y-86934354D01*
X76774354Y-87059853D01*
X76626784Y-87158456D01*
X76462812Y-87226376D01*
X76313512Y-87256073D01*
X76288742Y-87261000D01*
X76111258Y-87261000D01*
X76086488Y-87256073D01*
X75937188Y-87226376D01*
X75773216Y-87158456D01*
X75625646Y-87059853D01*
X75500147Y-86934354D01*
X75401544Y-86786784D01*
X75333624Y-86622812D01*
X75299000Y-86448741D01*
X75299000Y-86271259D01*
X75333624Y-86097188D01*
X75401544Y-85933216D01*
X75500147Y-85785646D01*
X75625646Y-85660147D01*
X75773216Y-85561544D01*
X75937188Y-85493624D01*
X76086488Y-85463927D01*
X76111258Y-85459000D01*
X76288742Y-85459000D01*
X76313512Y-85463927D01*
G37*
G36*
X124573512Y-85463927D02*
G01*
X124722812Y-85493624D01*
X124886784Y-85561544D01*
X125034354Y-85660147D01*
X125159853Y-85785646D01*
X125258456Y-85933216D01*
X125326376Y-86097188D01*
X125361000Y-86271259D01*
X125361000Y-86448741D01*
X125326376Y-86622812D01*
X125258456Y-86786784D01*
X125159853Y-86934354D01*
X125034354Y-87059853D01*
X124886784Y-87158456D01*
X124722812Y-87226376D01*
X124573512Y-87256073D01*
X124548742Y-87261000D01*
X124371258Y-87261000D01*
X124346488Y-87256073D01*
X124197188Y-87226376D01*
X124033216Y-87158456D01*
X123885646Y-87059853D01*
X123760147Y-86934354D01*
X123661544Y-86786784D01*
X123593624Y-86622812D01*
X123559000Y-86448741D01*
X123559000Y-86271259D01*
X123593624Y-86097188D01*
X123661544Y-85933216D01*
X123760147Y-85785646D01*
X123885646Y-85660147D01*
X124033216Y-85561544D01*
X124197188Y-85493624D01*
X124346488Y-85463927D01*
X124371258Y-85459000D01*
X124548742Y-85459000D01*
X124573512Y-85463927D01*
G37*
G36*
X122033512Y-85463927D02*
G01*
X122182812Y-85493624D01*
X122346784Y-85561544D01*
X122494354Y-85660147D01*
X122619853Y-85785646D01*
X122718456Y-85933216D01*
X122786376Y-86097188D01*
X122821000Y-86271259D01*
X122821000Y-86448741D01*
X122786376Y-86622812D01*
X122718456Y-86786784D01*
X122619853Y-86934354D01*
X122494354Y-87059853D01*
X122346784Y-87158456D01*
X122182812Y-87226376D01*
X122033512Y-87256073D01*
X122008742Y-87261000D01*
X121831258Y-87261000D01*
X121806488Y-87256073D01*
X121657188Y-87226376D01*
X121493216Y-87158456D01*
X121345646Y-87059853D01*
X121220147Y-86934354D01*
X121121544Y-86786784D01*
X121053624Y-86622812D01*
X121019000Y-86448741D01*
X121019000Y-86271259D01*
X121053624Y-86097188D01*
X121121544Y-85933216D01*
X121220147Y-85785646D01*
X121345646Y-85660147D01*
X121493216Y-85561544D01*
X121657188Y-85493624D01*
X121806488Y-85463927D01*
X121831258Y-85459000D01*
X122008742Y-85459000D01*
X122033512Y-85463927D01*
G37*
G36*
X111917022Y-84802590D02*
G01*
X111982511Y-84822456D01*
X112068012Y-84848392D01*
X112173193Y-84904613D01*
X112207164Y-84922771D01*
X112329133Y-85022867D01*
X112429229Y-85144835D01*
X112503608Y-85283987D01*
X112518875Y-85334318D01*
X112549410Y-85434977D01*
X112561000Y-85552655D01*
X112561000Y-86151345D01*
X112549410Y-86269023D01*
X112518875Y-86369682D01*
X112503608Y-86420013D01*
X112429229Y-86559165D01*
X112329133Y-86681133D01*
X112207165Y-86781229D01*
X112068013Y-86855608D01*
X112021359Y-86869760D01*
X111917023Y-86901410D01*
X111760000Y-86916875D01*
X111602978Y-86901410D01*
X111498642Y-86869760D01*
X111451988Y-86855608D01*
X111312836Y-86781229D01*
X111190868Y-86681133D01*
X111162035Y-86646000D01*
X111090772Y-86559165D01*
X111016392Y-86420013D01*
X111001125Y-86369682D01*
X110970590Y-86269023D01*
X110959000Y-86151345D01*
X110959000Y-85552656D01*
X110970590Y-85434978D01*
X111016392Y-85283989D01*
X111016392Y-85283988D01*
X111090771Y-85144836D01*
X111090772Y-85144835D01*
X111190867Y-85022867D01*
X111312835Y-84922771D01*
X111346806Y-84904613D01*
X111451987Y-84848392D01*
X111537488Y-84822456D01*
X111602977Y-84802590D01*
X111760000Y-84787125D01*
X111917022Y-84802590D01*
G37*
G36*
X108917022Y-84802590D02*
G01*
X108982511Y-84822456D01*
X109068012Y-84848392D01*
X109173193Y-84904613D01*
X109207164Y-84922771D01*
X109329133Y-85022867D01*
X109429229Y-85144835D01*
X109503608Y-85283987D01*
X109518875Y-85334318D01*
X109549410Y-85434977D01*
X109561000Y-85552655D01*
X109561000Y-86151345D01*
X109549410Y-86269023D01*
X109518875Y-86369682D01*
X109503608Y-86420013D01*
X109429229Y-86559165D01*
X109329133Y-86681133D01*
X109207165Y-86781229D01*
X109068013Y-86855608D01*
X109021359Y-86869760D01*
X108917023Y-86901410D01*
X108760000Y-86916875D01*
X108602978Y-86901410D01*
X108498642Y-86869760D01*
X108451988Y-86855608D01*
X108312836Y-86781229D01*
X108190868Y-86681133D01*
X108162035Y-86646000D01*
X108090772Y-86559165D01*
X108016392Y-86420013D01*
X108001125Y-86369682D01*
X107970590Y-86269023D01*
X107959000Y-86151345D01*
X107959000Y-85552656D01*
X107970590Y-85434978D01*
X108016392Y-85283989D01*
X108016392Y-85283988D01*
X108090771Y-85144836D01*
X108090772Y-85144835D01*
X108190867Y-85022867D01*
X108312835Y-84922771D01*
X108346806Y-84904613D01*
X108451987Y-84848392D01*
X108537488Y-84822456D01*
X108602977Y-84802590D01*
X108760000Y-84787125D01*
X108917022Y-84802590D01*
G37*
G36*
X114917022Y-84802590D02*
G01*
X114982511Y-84822456D01*
X115068012Y-84848392D01*
X115173193Y-84904613D01*
X115207164Y-84922771D01*
X115329133Y-85022867D01*
X115429229Y-85144835D01*
X115503608Y-85283987D01*
X115518875Y-85334318D01*
X115549410Y-85434977D01*
X115561000Y-85552655D01*
X115561000Y-86151345D01*
X115549410Y-86269023D01*
X115518875Y-86369682D01*
X115503608Y-86420013D01*
X115429229Y-86559165D01*
X115329133Y-86681133D01*
X115207165Y-86781229D01*
X115068013Y-86855608D01*
X115021359Y-86869760D01*
X114917023Y-86901410D01*
X114760000Y-86916875D01*
X114602978Y-86901410D01*
X114498642Y-86869760D01*
X114451988Y-86855608D01*
X114312836Y-86781229D01*
X114190868Y-86681133D01*
X114162035Y-86646000D01*
X114090772Y-86559165D01*
X114053582Y-86489588D01*
X114016392Y-86420013D01*
X114001125Y-86369682D01*
X113970590Y-86269023D01*
X113959000Y-86151345D01*
X113959000Y-85552656D01*
X113970590Y-85434978D01*
X114016392Y-85283989D01*
X114016392Y-85283988D01*
X114090771Y-85144836D01*
X114090772Y-85144835D01*
X114190867Y-85022867D01*
X114312835Y-84922771D01*
X114346806Y-84904613D01*
X114451987Y-84848392D01*
X114537488Y-84822456D01*
X114602977Y-84802590D01*
X114760000Y-84787125D01*
X114917022Y-84802590D01*
G37*
G36*
X106413048Y-84795122D02*
G01*
X106447387Y-84805539D01*
X106479036Y-84822456D01*
X106506778Y-84845222D01*
X106529544Y-84872964D01*
X106546461Y-84904613D01*
X106556878Y-84938952D01*
X106561000Y-84980807D01*
X106561000Y-86723193D01*
X106556878Y-86765048D01*
X106546461Y-86799387D01*
X106529544Y-86831036D01*
X106506778Y-86858778D01*
X106479036Y-86881544D01*
X106447387Y-86898461D01*
X106413048Y-86908878D01*
X106371193Y-86913000D01*
X105148807Y-86913000D01*
X105106952Y-86908878D01*
X105072613Y-86898461D01*
X105040964Y-86881544D01*
X105013222Y-86858778D01*
X104990456Y-86831036D01*
X104973539Y-86799387D01*
X104963122Y-86765048D01*
X104959000Y-86723193D01*
X104959000Y-84980807D01*
X104963122Y-84938952D01*
X104973539Y-84904613D01*
X104990456Y-84872964D01*
X105013222Y-84845222D01*
X105040964Y-84822456D01*
X105072613Y-84805539D01*
X105106952Y-84795122D01*
X105148807Y-84791000D01*
X106371193Y-84791000D01*
X106413048Y-84795122D01*
G37*
G36*
X124573512Y-82923927D02*
G01*
X124722812Y-82953624D01*
X124886784Y-83021544D01*
X125034354Y-83120147D01*
X125159853Y-83245646D01*
X125258456Y-83393216D01*
X125326376Y-83557188D01*
X125361000Y-83731259D01*
X125361000Y-83908741D01*
X125326376Y-84082812D01*
X125258456Y-84246784D01*
X125159853Y-84394354D01*
X125034354Y-84519853D01*
X124886784Y-84618456D01*
X124722812Y-84686376D01*
X124573512Y-84716073D01*
X124548742Y-84721000D01*
X124371258Y-84721000D01*
X124346488Y-84716073D01*
X124197188Y-84686376D01*
X124033216Y-84618456D01*
X123885646Y-84519853D01*
X123760147Y-84394354D01*
X123661544Y-84246784D01*
X123593624Y-84082812D01*
X123559000Y-83908741D01*
X123559000Y-83731259D01*
X123593624Y-83557188D01*
X123661544Y-83393216D01*
X123760147Y-83245646D01*
X123885646Y-83120147D01*
X124033216Y-83021544D01*
X124197188Y-82953624D01*
X124346488Y-82923927D01*
X124371258Y-82919000D01*
X124548742Y-82919000D01*
X124573512Y-82923927D01*
G37*
G36*
X122033512Y-82923927D02*
G01*
X122182812Y-82953624D01*
X122346784Y-83021544D01*
X122494354Y-83120147D01*
X122619853Y-83245646D01*
X122718456Y-83393216D01*
X122786376Y-83557188D01*
X122821000Y-83731259D01*
X122821000Y-83908741D01*
X122786376Y-84082812D01*
X122718456Y-84246784D01*
X122619853Y-84394354D01*
X122494354Y-84519853D01*
X122346784Y-84618456D01*
X122182812Y-84686376D01*
X122033512Y-84716073D01*
X122008742Y-84721000D01*
X121831258Y-84721000D01*
X121806488Y-84716073D01*
X121657188Y-84686376D01*
X121493216Y-84618456D01*
X121345646Y-84519853D01*
X121220147Y-84394354D01*
X121121544Y-84246784D01*
X121053624Y-84082812D01*
X121019000Y-83908741D01*
X121019000Y-83731259D01*
X121053624Y-83557188D01*
X121121544Y-83393216D01*
X121220147Y-83245646D01*
X121345646Y-83120147D01*
X121493216Y-83021544D01*
X121657188Y-82953624D01*
X121806488Y-82923927D01*
X121831258Y-82919000D01*
X122008742Y-82919000D01*
X122033512Y-82923927D01*
G37*
G36*
X78853512Y-82923927D02*
G01*
X79002812Y-82953624D01*
X79166784Y-83021544D01*
X79314354Y-83120147D01*
X79439853Y-83245646D01*
X79538456Y-83393216D01*
X79606376Y-83557188D01*
X79641000Y-83731259D01*
X79641000Y-83908741D01*
X79606376Y-84082812D01*
X79538456Y-84246784D01*
X79439853Y-84394354D01*
X79314354Y-84519853D01*
X79166784Y-84618456D01*
X79002812Y-84686376D01*
X78853512Y-84716073D01*
X78828742Y-84721000D01*
X78651258Y-84721000D01*
X78626488Y-84716073D01*
X78477188Y-84686376D01*
X78313216Y-84618456D01*
X78165646Y-84519853D01*
X78040147Y-84394354D01*
X77941544Y-84246784D01*
X77873624Y-84082812D01*
X77839000Y-83908741D01*
X77839000Y-83731259D01*
X77873624Y-83557188D01*
X77941544Y-83393216D01*
X78040147Y-83245646D01*
X78165646Y-83120147D01*
X78313216Y-83021544D01*
X78477188Y-82953624D01*
X78626488Y-82923927D01*
X78651258Y-82919000D01*
X78828742Y-82919000D01*
X78853512Y-82923927D01*
G37*
G36*
X76313512Y-82923927D02*
G01*
X76462812Y-82953624D01*
X76626784Y-83021544D01*
X76774354Y-83120147D01*
X76899853Y-83245646D01*
X76998456Y-83393216D01*
X77066376Y-83557188D01*
X77101000Y-83731259D01*
X77101000Y-83908741D01*
X77066376Y-84082812D01*
X76998456Y-84246784D01*
X76899853Y-84394354D01*
X76774354Y-84519853D01*
X76626784Y-84618456D01*
X76462812Y-84686376D01*
X76313512Y-84716073D01*
X76288742Y-84721000D01*
X76111258Y-84721000D01*
X76086488Y-84716073D01*
X75937188Y-84686376D01*
X75773216Y-84618456D01*
X75625646Y-84519853D01*
X75500147Y-84394354D01*
X75401544Y-84246784D01*
X75333624Y-84082812D01*
X75299000Y-83908741D01*
X75299000Y-83731259D01*
X75333624Y-83557188D01*
X75401544Y-83393216D01*
X75500147Y-83245646D01*
X75625646Y-83120147D01*
X75773216Y-83021544D01*
X75937188Y-82953624D01*
X76086488Y-82923927D01*
X76111258Y-82919000D01*
X76288742Y-82919000D01*
X76313512Y-82923927D01*
G37*
G36*
X117960098Y-83232362D02*
G01*
X118084941Y-83284074D01*
X118084943Y-83284075D01*
X118197299Y-83359149D01*
X118292851Y-83454701D01*
X118361331Y-83557188D01*
X118367926Y-83567059D01*
X118419638Y-83691902D01*
X118446000Y-83824434D01*
X118446000Y-83959566D01*
X118419638Y-84092098D01*
X118367926Y-84216941D01*
X118367925Y-84216943D01*
X118292851Y-84329299D01*
X118197299Y-84424851D01*
X118084943Y-84499925D01*
X118084942Y-84499926D01*
X118084941Y-84499926D01*
X117960098Y-84551638D01*
X117827566Y-84578000D01*
X117692434Y-84578000D01*
X117559902Y-84551638D01*
X117435059Y-84499926D01*
X117435058Y-84499926D01*
X117435057Y-84499925D01*
X117322701Y-84424851D01*
X117227149Y-84329299D01*
X117152075Y-84216943D01*
X117152074Y-84216941D01*
X117100362Y-84092098D01*
X117074000Y-83959566D01*
X117074000Y-83824434D01*
X117100362Y-83691902D01*
X117152074Y-83567059D01*
X117158670Y-83557188D01*
X117227149Y-83454701D01*
X117322701Y-83359149D01*
X117435057Y-83284075D01*
X117435059Y-83284074D01*
X117559902Y-83232362D01*
X117692434Y-83206000D01*
X117827566Y-83206000D01*
X117960098Y-83232362D01*
G37*
G36*
X102960098Y-83232362D02*
G01*
X103084941Y-83284074D01*
X103084943Y-83284075D01*
X103197299Y-83359149D01*
X103292851Y-83454701D01*
X103361331Y-83557188D01*
X103367926Y-83567059D01*
X103419638Y-83691902D01*
X103446000Y-83824434D01*
X103446000Y-83959566D01*
X103419638Y-84092098D01*
X103367926Y-84216941D01*
X103367925Y-84216943D01*
X103292851Y-84329299D01*
X103197299Y-84424851D01*
X103084943Y-84499925D01*
X103084942Y-84499926D01*
X103084941Y-84499926D01*
X102960098Y-84551638D01*
X102827566Y-84578000D01*
X102692434Y-84578000D01*
X102559902Y-84551638D01*
X102435059Y-84499926D01*
X102435058Y-84499926D01*
X102435057Y-84499925D01*
X102322701Y-84424851D01*
X102227149Y-84329299D01*
X102152075Y-84216943D01*
X102152074Y-84216941D01*
X102100362Y-84092098D01*
X102074000Y-83959566D01*
X102074000Y-83824434D01*
X102100362Y-83691902D01*
X102152074Y-83567059D01*
X102158670Y-83557188D01*
X102227149Y-83454701D01*
X102322701Y-83359149D01*
X102435057Y-83284075D01*
X102435059Y-83284074D01*
X102559902Y-83232362D01*
X102692434Y-83206000D01*
X102827566Y-83206000D01*
X102960098Y-83232362D01*
G37*
G36*
X86148241Y-79884760D02*
G01*
X86412305Y-79994139D01*
X86649958Y-80152934D01*
X86852066Y-80355042D01*
X87010861Y-80592695D01*
X87120240Y-80856759D01*
X87176000Y-81137088D01*
X87176000Y-81422912D01*
X87120240Y-81703241D01*
X87010861Y-81967305D01*
X86852066Y-82204958D01*
X86649958Y-82407066D01*
X86412305Y-82565861D01*
X86148241Y-82675240D01*
X85867912Y-82731000D01*
X85582088Y-82731000D01*
X85301759Y-82675240D01*
X85037695Y-82565861D01*
X84800042Y-82407066D01*
X84597934Y-82204958D01*
X84439139Y-81967305D01*
X84329760Y-81703241D01*
X84274000Y-81422912D01*
X84274000Y-81137088D01*
X84329760Y-80856759D01*
X84439139Y-80592695D01*
X84597934Y-80355042D01*
X84800042Y-80152934D01*
X85037695Y-79994139D01*
X85301759Y-79884760D01*
X85582088Y-79829000D01*
X85867912Y-79829000D01*
X86148241Y-79884760D01*
G37*
G36*
X91865741Y-79884760D02*
G01*
X92129805Y-79994139D01*
X92367458Y-80152934D01*
X92569566Y-80355042D01*
X92728361Y-80592695D01*
X92837740Y-80856759D01*
X92893500Y-81137088D01*
X92893500Y-81422912D01*
X92837740Y-81703241D01*
X92728361Y-81967305D01*
X92569566Y-82204958D01*
X92367458Y-82407066D01*
X92129805Y-82565861D01*
X91865741Y-82675240D01*
X91585412Y-82731000D01*
X91299588Y-82731000D01*
X91019259Y-82675240D01*
X90755195Y-82565861D01*
X90517542Y-82407066D01*
X90315434Y-82204958D01*
X90156639Y-81967305D01*
X90047260Y-81703241D01*
X89991500Y-81422912D01*
X89991500Y-81137088D01*
X90047260Y-80856759D01*
X90156639Y-80592695D01*
X90315434Y-80355042D01*
X90517542Y-80152934D01*
X90755195Y-79994139D01*
X91019259Y-79884760D01*
X91299588Y-79829000D01*
X91585412Y-79829000D01*
X91865741Y-79884760D01*
G37*
G36*
X97583241Y-79884760D02*
G01*
X97847305Y-79994139D01*
X98084958Y-80152934D01*
X98287066Y-80355042D01*
X98445861Y-80592695D01*
X98555240Y-80856759D01*
X98611000Y-81137088D01*
X98611000Y-81422912D01*
X98555240Y-81703241D01*
X98445861Y-81967305D01*
X98287066Y-82204958D01*
X98084958Y-82407066D01*
X97847305Y-82565861D01*
X97583241Y-82675240D01*
X97302912Y-82731000D01*
X97017088Y-82731000D01*
X96736759Y-82675240D01*
X96472695Y-82565861D01*
X96235042Y-82407066D01*
X96032934Y-82204958D01*
X95874139Y-81967305D01*
X95764760Y-81703241D01*
X95709000Y-81422912D01*
X95709000Y-81137088D01*
X95764760Y-80856759D01*
X95874139Y-80592695D01*
X96032934Y-80355042D01*
X96235042Y-80152934D01*
X96472695Y-79994139D01*
X96736759Y-79884760D01*
X97017088Y-79829000D01*
X97302912Y-79829000D01*
X97583241Y-79884760D01*
G37*
G36*
X122024769Y-80382188D02*
G01*
X122182812Y-80413624D01*
X122346784Y-80481544D01*
X122494354Y-80580147D01*
X122619853Y-80705646D01*
X122718456Y-80853216D01*
X122786376Y-81017188D01*
X122821000Y-81191259D01*
X122821000Y-81368741D01*
X122786376Y-81542812D01*
X122718456Y-81706784D01*
X122619853Y-81854354D01*
X122494354Y-81979853D01*
X122346784Y-82078456D01*
X122182812Y-82146376D01*
X122033512Y-82176073D01*
X122008742Y-82181000D01*
X121831258Y-82181000D01*
X121806488Y-82176073D01*
X121657188Y-82146376D01*
X121493216Y-82078456D01*
X121345646Y-81979853D01*
X121220147Y-81854354D01*
X121121544Y-81706784D01*
X121053624Y-81542812D01*
X121019000Y-81368741D01*
X121019000Y-81191259D01*
X121053624Y-81017188D01*
X121121544Y-80853216D01*
X121220147Y-80705646D01*
X121345646Y-80580147D01*
X121493216Y-80481544D01*
X121657188Y-80413624D01*
X121815231Y-80382188D01*
X121831258Y-80379000D01*
X122008742Y-80379000D01*
X122024769Y-80382188D01*
G37*
G36*
X124564769Y-80382188D02*
G01*
X124722812Y-80413624D01*
X124886784Y-80481544D01*
X125034354Y-80580147D01*
X125159853Y-80705646D01*
X125258456Y-80853216D01*
X125326376Y-81017188D01*
X125361000Y-81191259D01*
X125361000Y-81368741D01*
X125326376Y-81542812D01*
X125258456Y-81706784D01*
X125159853Y-81854354D01*
X125034354Y-81979853D01*
X124886784Y-82078456D01*
X124722812Y-82146376D01*
X124573512Y-82176073D01*
X124548742Y-82181000D01*
X124371258Y-82181000D01*
X124346488Y-82176073D01*
X124197188Y-82146376D01*
X124033216Y-82078456D01*
X123885646Y-81979853D01*
X123760147Y-81854354D01*
X123661544Y-81706784D01*
X123593624Y-81542812D01*
X123559000Y-81368741D01*
X123559000Y-81191259D01*
X123593624Y-81017188D01*
X123661544Y-80853216D01*
X123760147Y-80705646D01*
X123885646Y-80580147D01*
X124033216Y-80481544D01*
X124197188Y-80413624D01*
X124355231Y-80382188D01*
X124371258Y-80379000D01*
X124548742Y-80379000D01*
X124564769Y-80382188D01*
G37*
G36*
X76304769Y-80382188D02*
G01*
X76462812Y-80413624D01*
X76626784Y-80481544D01*
X76774354Y-80580147D01*
X76899853Y-80705646D01*
X76998456Y-80853216D01*
X77066376Y-81017188D01*
X77101000Y-81191259D01*
X77101000Y-81368741D01*
X77066376Y-81542812D01*
X76998456Y-81706784D01*
X76899853Y-81854354D01*
X76774354Y-81979853D01*
X76626784Y-82078456D01*
X76462812Y-82146376D01*
X76313512Y-82176073D01*
X76288742Y-82181000D01*
X76111258Y-82181000D01*
X76086488Y-82176073D01*
X75937188Y-82146376D01*
X75773216Y-82078456D01*
X75625646Y-81979853D01*
X75500147Y-81854354D01*
X75401544Y-81706784D01*
X75333624Y-81542812D01*
X75299000Y-81368741D01*
X75299000Y-81191259D01*
X75333624Y-81017188D01*
X75401544Y-80853216D01*
X75500147Y-80705646D01*
X75625646Y-80580147D01*
X75773216Y-80481544D01*
X75937188Y-80413624D01*
X76095231Y-80382188D01*
X76111258Y-80379000D01*
X76288742Y-80379000D01*
X76304769Y-80382188D01*
G37*
G36*
X78844769Y-80382188D02*
G01*
X79002812Y-80413624D01*
X79166784Y-80481544D01*
X79314354Y-80580147D01*
X79439853Y-80705646D01*
X79538456Y-80853216D01*
X79606376Y-81017188D01*
X79641000Y-81191259D01*
X79641000Y-81368741D01*
X79606376Y-81542812D01*
X79538456Y-81706784D01*
X79439853Y-81854354D01*
X79314354Y-81979853D01*
X79166784Y-82078456D01*
X79002812Y-82146376D01*
X78853512Y-82176073D01*
X78828742Y-82181000D01*
X78651258Y-82181000D01*
X78626488Y-82176073D01*
X78477188Y-82146376D01*
X78313216Y-82078456D01*
X78165646Y-81979853D01*
X78040147Y-81854354D01*
X77941544Y-81706784D01*
X77873624Y-81542812D01*
X77839000Y-81368741D01*
X77839000Y-81191259D01*
X77873624Y-81017188D01*
X77941544Y-80853216D01*
X78040147Y-80705646D01*
X78165646Y-80580147D01*
X78313216Y-80481544D01*
X78477188Y-80413624D01*
X78635231Y-80382188D01*
X78651258Y-80379000D01*
X78828742Y-80379000D01*
X78844769Y-80382188D01*
G37*
G36*
X110248000Y-81546000D02*
G01*
X108446000Y-81546000D01*
X108446000Y-79744000D01*
X110248000Y-79744000D01*
X110248000Y-81546000D01*
G37*
G36*
X112000512Y-79748927D02*
G01*
X112149812Y-79778624D01*
X112313784Y-79846544D01*
X112461354Y-79945147D01*
X112586853Y-80070646D01*
X112685456Y-80218216D01*
X112753376Y-80382188D01*
X112788000Y-80556259D01*
X112788000Y-80733741D01*
X112753376Y-80907812D01*
X112685456Y-81071784D01*
X112586853Y-81219354D01*
X112461354Y-81344853D01*
X112313784Y-81443456D01*
X112149812Y-81511376D01*
X112000512Y-81541073D01*
X111975742Y-81546000D01*
X111798258Y-81546000D01*
X111773488Y-81541073D01*
X111624188Y-81511376D01*
X111460216Y-81443456D01*
X111312646Y-81344853D01*
X111187147Y-81219354D01*
X111088544Y-81071784D01*
X111020624Y-80907812D01*
X110986000Y-80733741D01*
X110986000Y-80556259D01*
X111020624Y-80382188D01*
X111088544Y-80218216D01*
X111187147Y-80070646D01*
X111312646Y-79945147D01*
X111460216Y-79846544D01*
X111624188Y-79778624D01*
X111773488Y-79748927D01*
X111798258Y-79744000D01*
X111975742Y-79744000D01*
X112000512Y-79748927D01*
G37*
G36*
X124573512Y-77843927D02*
G01*
X124722812Y-77873624D01*
X124886784Y-77941544D01*
X125034354Y-78040147D01*
X125159853Y-78165646D01*
X125258456Y-78313216D01*
X125326376Y-78477188D01*
X125361000Y-78651259D01*
X125361000Y-78828741D01*
X125326376Y-79002812D01*
X125258456Y-79166784D01*
X125159853Y-79314354D01*
X125034354Y-79439853D01*
X124886784Y-79538456D01*
X124722812Y-79606376D01*
X124573512Y-79636073D01*
X124548742Y-79641000D01*
X124371258Y-79641000D01*
X124346488Y-79636073D01*
X124197188Y-79606376D01*
X124033216Y-79538456D01*
X123885646Y-79439853D01*
X123760147Y-79314354D01*
X123661544Y-79166784D01*
X123593624Y-79002812D01*
X123559000Y-78828741D01*
X123559000Y-78651259D01*
X123593624Y-78477188D01*
X123661544Y-78313216D01*
X123760147Y-78165646D01*
X123885646Y-78040147D01*
X124033216Y-77941544D01*
X124197188Y-77873624D01*
X124346488Y-77843927D01*
X124371258Y-77839000D01*
X124548742Y-77839000D01*
X124573512Y-77843927D01*
G37*
G36*
X78853512Y-77843927D02*
G01*
X79002812Y-77873624D01*
X79166784Y-77941544D01*
X79314354Y-78040147D01*
X79439853Y-78165646D01*
X79538456Y-78313216D01*
X79606376Y-78477188D01*
X79641000Y-78651259D01*
X79641000Y-78828741D01*
X79606376Y-79002812D01*
X79538456Y-79166784D01*
X79439853Y-79314354D01*
X79314354Y-79439853D01*
X79166784Y-79538456D01*
X79002812Y-79606376D01*
X78853512Y-79636073D01*
X78828742Y-79641000D01*
X78651258Y-79641000D01*
X78626488Y-79636073D01*
X78477188Y-79606376D01*
X78313216Y-79538456D01*
X78165646Y-79439853D01*
X78040147Y-79314354D01*
X77941544Y-79166784D01*
X77873624Y-79002812D01*
X77839000Y-78828741D01*
X77839000Y-78651259D01*
X77873624Y-78477188D01*
X77941544Y-78313216D01*
X78040147Y-78165646D01*
X78165646Y-78040147D01*
X78313216Y-77941544D01*
X78477188Y-77873624D01*
X78626488Y-77843927D01*
X78651258Y-77839000D01*
X78828742Y-77839000D01*
X78853512Y-77843927D01*
G37*
G36*
X122033512Y-77843927D02*
G01*
X122182812Y-77873624D01*
X122346784Y-77941544D01*
X122494354Y-78040147D01*
X122619853Y-78165646D01*
X122718456Y-78313216D01*
X122786376Y-78477188D01*
X122821000Y-78651259D01*
X122821000Y-78828741D01*
X122786376Y-79002812D01*
X122718456Y-79166784D01*
X122619853Y-79314354D01*
X122494354Y-79439853D01*
X122346784Y-79538456D01*
X122182812Y-79606376D01*
X122033512Y-79636073D01*
X122008742Y-79641000D01*
X121831258Y-79641000D01*
X121806488Y-79636073D01*
X121657188Y-79606376D01*
X121493216Y-79538456D01*
X121345646Y-79439853D01*
X121220147Y-79314354D01*
X121121544Y-79166784D01*
X121053624Y-79002812D01*
X121019000Y-78828741D01*
X121019000Y-78651259D01*
X121053624Y-78477188D01*
X121121544Y-78313216D01*
X121220147Y-78165646D01*
X121345646Y-78040147D01*
X121493216Y-77941544D01*
X121657188Y-77873624D01*
X121806488Y-77843927D01*
X121831258Y-77839000D01*
X122008742Y-77839000D01*
X122033512Y-77843927D01*
G37*
G36*
X76313512Y-77843927D02*
G01*
X76462812Y-77873624D01*
X76626784Y-77941544D01*
X76774354Y-78040147D01*
X76899853Y-78165646D01*
X76998456Y-78313216D01*
X77066376Y-78477188D01*
X77101000Y-78651259D01*
X77101000Y-78828741D01*
X77066376Y-79002812D01*
X76998456Y-79166784D01*
X76899853Y-79314354D01*
X76774354Y-79439853D01*
X76626784Y-79538456D01*
X76462812Y-79606376D01*
X76313512Y-79636073D01*
X76288742Y-79641000D01*
X76111258Y-79641000D01*
X76086488Y-79636073D01*
X75937188Y-79606376D01*
X75773216Y-79538456D01*
X75625646Y-79439853D01*
X75500147Y-79314354D01*
X75401544Y-79166784D01*
X75333624Y-79002812D01*
X75299000Y-78828741D01*
X75299000Y-78651259D01*
X75333624Y-78477188D01*
X75401544Y-78313216D01*
X75500147Y-78165646D01*
X75625646Y-78040147D01*
X75773216Y-77941544D01*
X75937188Y-77873624D01*
X76086488Y-77843927D01*
X76111258Y-77839000D01*
X76288742Y-77839000D01*
X76313512Y-77843927D01*
G37*
G36*
X103240098Y-77340362D02*
G01*
X103364941Y-77392074D01*
X103364943Y-77392075D01*
X103477299Y-77467149D01*
X103572851Y-77562701D01*
X103647926Y-77675059D01*
X103699638Y-77799902D01*
X103726000Y-77932434D01*
X103726000Y-78067566D01*
X103699638Y-78200098D01*
X103652782Y-78313218D01*
X103647925Y-78324943D01*
X103572851Y-78437299D01*
X103477299Y-78532851D01*
X103364943Y-78607925D01*
X103364942Y-78607926D01*
X103364941Y-78607926D01*
X103240098Y-78659638D01*
X103107566Y-78686000D01*
X102972434Y-78686000D01*
X102839902Y-78659638D01*
X102715059Y-78607926D01*
X102715058Y-78607926D01*
X102715057Y-78607925D01*
X102602701Y-78532851D01*
X102507149Y-78437299D01*
X102432075Y-78324943D01*
X102427218Y-78313218D01*
X102380362Y-78200098D01*
X102354000Y-78067566D01*
X102354000Y-77932434D01*
X102380362Y-77799902D01*
X102432074Y-77675059D01*
X102507149Y-77562701D01*
X102602701Y-77467149D01*
X102715057Y-77392075D01*
X102715059Y-77392074D01*
X102839902Y-77340362D01*
X102972434Y-77314000D01*
X103107566Y-77314000D01*
X103240098Y-77340362D01*
G37*
G36*
X78853512Y-75303927D02*
G01*
X79002812Y-75333624D01*
X79166784Y-75401544D01*
X79314354Y-75500147D01*
X79439853Y-75625646D01*
X79538456Y-75773216D01*
X79606376Y-75937188D01*
X79641000Y-76111259D01*
X79641000Y-76288741D01*
X79606376Y-76462812D01*
X79538456Y-76626784D01*
X79439853Y-76774354D01*
X79314354Y-76899853D01*
X79166784Y-76998456D01*
X79002812Y-77066376D01*
X78853512Y-77096073D01*
X78828742Y-77101000D01*
X78651258Y-77101000D01*
X78626488Y-77096073D01*
X78477188Y-77066376D01*
X78313216Y-76998456D01*
X78165646Y-76899853D01*
X78040147Y-76774354D01*
X77941544Y-76626784D01*
X77873624Y-76462812D01*
X77839000Y-76288741D01*
X77839000Y-76111259D01*
X77873624Y-75937188D01*
X77941544Y-75773216D01*
X78040147Y-75625646D01*
X78165646Y-75500147D01*
X78313216Y-75401544D01*
X78477188Y-75333624D01*
X78626488Y-75303927D01*
X78651258Y-75299000D01*
X78828742Y-75299000D01*
X78853512Y-75303927D01*
G37*
G36*
X122033512Y-75303927D02*
G01*
X122182812Y-75333624D01*
X122346784Y-75401544D01*
X122494354Y-75500147D01*
X122619853Y-75625646D01*
X122718456Y-75773216D01*
X122786376Y-75937188D01*
X122821000Y-76111259D01*
X122821000Y-76288741D01*
X122786376Y-76462812D01*
X122718456Y-76626784D01*
X122619853Y-76774354D01*
X122494354Y-76899853D01*
X122346784Y-76998456D01*
X122182812Y-77066376D01*
X122033512Y-77096073D01*
X122008742Y-77101000D01*
X121831258Y-77101000D01*
X121806488Y-77096073D01*
X121657188Y-77066376D01*
X121493216Y-76998456D01*
X121345646Y-76899853D01*
X121220147Y-76774354D01*
X121121544Y-76626784D01*
X121053624Y-76462812D01*
X121019000Y-76288741D01*
X121019000Y-76111259D01*
X121053624Y-75937188D01*
X121121544Y-75773216D01*
X121220147Y-75625646D01*
X121345646Y-75500147D01*
X121493216Y-75401544D01*
X121657188Y-75333624D01*
X121806488Y-75303927D01*
X121831258Y-75299000D01*
X122008742Y-75299000D01*
X122033512Y-75303927D01*
G37*
G36*
X76313512Y-75303927D02*
G01*
X76462812Y-75333624D01*
X76626784Y-75401544D01*
X76774354Y-75500147D01*
X76899853Y-75625646D01*
X76998456Y-75773216D01*
X77066376Y-75937188D01*
X77101000Y-76111259D01*
X77101000Y-76288741D01*
X77066376Y-76462812D01*
X76998456Y-76626784D01*
X76899853Y-76774354D01*
X76774354Y-76899853D01*
X76626784Y-76998456D01*
X76462812Y-77066376D01*
X76313512Y-77096073D01*
X76288742Y-77101000D01*
X76111258Y-77101000D01*
X76086488Y-77096073D01*
X75937188Y-77066376D01*
X75773216Y-76998456D01*
X75625646Y-76899853D01*
X75500147Y-76774354D01*
X75401544Y-76626784D01*
X75333624Y-76462812D01*
X75299000Y-76288741D01*
X75299000Y-76111259D01*
X75333624Y-75937188D01*
X75401544Y-75773216D01*
X75500147Y-75625646D01*
X75625646Y-75500147D01*
X75773216Y-75401544D01*
X75937188Y-75333624D01*
X76086488Y-75303927D01*
X76111258Y-75299000D01*
X76288742Y-75299000D01*
X76313512Y-75303927D01*
G37*
G36*
X124573512Y-75303927D02*
G01*
X124722812Y-75333624D01*
X124886784Y-75401544D01*
X125034354Y-75500147D01*
X125159853Y-75625646D01*
X125258456Y-75773216D01*
X125326376Y-75937188D01*
X125361000Y-76111259D01*
X125361000Y-76288741D01*
X125326376Y-76462812D01*
X125258456Y-76626784D01*
X125159853Y-76774354D01*
X125034354Y-76899853D01*
X124886784Y-76998456D01*
X124722812Y-77066376D01*
X124573512Y-77096073D01*
X124548742Y-77101000D01*
X124371258Y-77101000D01*
X124346488Y-77096073D01*
X124197188Y-77066376D01*
X124033216Y-76998456D01*
X123885646Y-76899853D01*
X123760147Y-76774354D01*
X123661544Y-76626784D01*
X123593624Y-76462812D01*
X123559000Y-76288741D01*
X123559000Y-76111259D01*
X123593624Y-75937188D01*
X123661544Y-75773216D01*
X123760147Y-75625646D01*
X123885646Y-75500147D01*
X124033216Y-75401544D01*
X124197188Y-75333624D01*
X124346488Y-75303927D01*
X124371258Y-75299000D01*
X124548742Y-75299000D01*
X124573512Y-75303927D01*
G37*
G36*
X117263241Y-73026760D02*
G01*
X117527305Y-73136139D01*
X117764958Y-73294934D01*
X117967066Y-73497042D01*
X118125861Y-73734695D01*
X118235240Y-73998759D01*
X118291000Y-74279088D01*
X118291000Y-74564912D01*
X118235240Y-74845241D01*
X118125861Y-75109305D01*
X117967066Y-75346958D01*
X117764958Y-75549066D01*
X117527305Y-75707861D01*
X117263241Y-75817240D01*
X116982912Y-75873000D01*
X116697088Y-75873000D01*
X116416759Y-75817240D01*
X116152695Y-75707861D01*
X115915042Y-75549066D01*
X115712934Y-75346958D01*
X115554139Y-75109305D01*
X115444760Y-74845241D01*
X115389000Y-74564912D01*
X115389000Y-74279088D01*
X115444760Y-73998759D01*
X115554139Y-73734695D01*
X115712934Y-73497042D01*
X115915042Y-73294934D01*
X116152695Y-73136139D01*
X116416759Y-73026760D01*
X116697088Y-72971000D01*
X116982912Y-72971000D01*
X117263241Y-73026760D01*
G37*
G36*
X105913048Y-74203122D02*
G01*
X105947387Y-74213539D01*
X105979036Y-74230456D01*
X106006778Y-74253222D01*
X106029544Y-74280964D01*
X106046461Y-74312613D01*
X106056878Y-74346952D01*
X106061000Y-74388807D01*
X106061000Y-75611193D01*
X106056878Y-75653048D01*
X106046461Y-75687387D01*
X106029544Y-75719036D01*
X106006778Y-75746778D01*
X105979036Y-75769544D01*
X105947387Y-75786461D01*
X105913048Y-75796878D01*
X105871193Y-75801000D01*
X104128807Y-75801000D01*
X104086952Y-75796878D01*
X104052613Y-75786461D01*
X104020964Y-75769544D01*
X103993222Y-75746778D01*
X103970456Y-75719036D01*
X103953539Y-75687387D01*
X103943122Y-75653048D01*
X103939000Y-75611193D01*
X103939000Y-74388807D01*
X103943122Y-74346952D01*
X103953539Y-74312613D01*
X103970456Y-74280964D01*
X103993222Y-74253222D01*
X104020964Y-74230456D01*
X104052613Y-74213539D01*
X104086952Y-74203122D01*
X104128807Y-74199000D01*
X105871193Y-74199000D01*
X105913048Y-74203122D01*
G37*
G36*
X86148241Y-72899760D02*
G01*
X86412305Y-73009139D01*
X86649958Y-73167934D01*
X86852066Y-73370042D01*
X87010861Y-73607695D01*
X87120240Y-73871759D01*
X87176000Y-74152088D01*
X87176000Y-74437912D01*
X87120240Y-74718241D01*
X87010861Y-74982305D01*
X86852066Y-75219958D01*
X86649958Y-75422066D01*
X86412305Y-75580861D01*
X86148241Y-75690240D01*
X85867912Y-75746000D01*
X85582088Y-75746000D01*
X85301759Y-75690240D01*
X85037695Y-75580861D01*
X84800042Y-75422066D01*
X84597934Y-75219958D01*
X84439139Y-74982305D01*
X84329760Y-74718241D01*
X84274000Y-74437912D01*
X84274000Y-74152088D01*
X84329760Y-73871759D01*
X84439139Y-73607695D01*
X84597934Y-73370042D01*
X84800042Y-73167934D01*
X85037695Y-73009139D01*
X85301759Y-72899760D01*
X85582088Y-72844000D01*
X85867912Y-72844000D01*
X86148241Y-72899760D01*
G37*
G36*
X91870861Y-72894680D02*
G01*
X92134925Y-73004059D01*
X92372578Y-73162854D01*
X92574686Y-73364962D01*
X92733481Y-73602615D01*
X92842860Y-73866679D01*
X92898620Y-74147008D01*
X92898620Y-74432832D01*
X92842860Y-74713161D01*
X92733481Y-74977225D01*
X92574686Y-75214878D01*
X92372578Y-75416986D01*
X92134925Y-75575781D01*
X91870861Y-75685160D01*
X91590532Y-75740920D01*
X91304708Y-75740920D01*
X91024379Y-75685160D01*
X90760315Y-75575781D01*
X90522662Y-75416986D01*
X90320554Y-75214878D01*
X90161759Y-74977225D01*
X90052380Y-74713161D01*
X89996620Y-74432832D01*
X89996620Y-74147008D01*
X90052380Y-73866679D01*
X90161759Y-73602615D01*
X90320554Y-73364962D01*
X90522662Y-73162854D01*
X90760315Y-73004059D01*
X91024379Y-72894680D01*
X91304708Y-72838920D01*
X91590532Y-72838920D01*
X91870861Y-72894680D01*
G37*
G36*
X124573512Y-72763927D02*
G01*
X124722812Y-72793624D01*
X124886784Y-72861544D01*
X125034354Y-72960147D01*
X125159853Y-73085646D01*
X125258456Y-73233216D01*
X125326376Y-73397188D01*
X125361000Y-73571259D01*
X125361000Y-73748741D01*
X125326376Y-73922812D01*
X125258456Y-74086784D01*
X125159853Y-74234354D01*
X125034354Y-74359853D01*
X124886784Y-74458456D01*
X124722812Y-74526376D01*
X124573512Y-74556073D01*
X124548742Y-74561000D01*
X124371258Y-74561000D01*
X124346488Y-74556073D01*
X124197188Y-74526376D01*
X124033216Y-74458456D01*
X123885646Y-74359853D01*
X123760147Y-74234354D01*
X123661544Y-74086784D01*
X123593624Y-73922812D01*
X123559000Y-73748741D01*
X123559000Y-73571259D01*
X123593624Y-73397188D01*
X123661544Y-73233216D01*
X123760147Y-73085646D01*
X123885646Y-72960147D01*
X124033216Y-72861544D01*
X124197188Y-72793624D01*
X124346488Y-72763927D01*
X124371258Y-72759000D01*
X124548742Y-72759000D01*
X124573512Y-72763927D01*
G37*
G36*
X122033512Y-72763927D02*
G01*
X122182812Y-72793624D01*
X122346784Y-72861544D01*
X122494354Y-72960147D01*
X122619853Y-73085646D01*
X122718456Y-73233216D01*
X122786376Y-73397188D01*
X122821000Y-73571259D01*
X122821000Y-73748741D01*
X122786376Y-73922812D01*
X122718456Y-74086784D01*
X122619853Y-74234354D01*
X122494354Y-74359853D01*
X122346784Y-74458456D01*
X122182812Y-74526376D01*
X122033512Y-74556073D01*
X122008742Y-74561000D01*
X121831258Y-74561000D01*
X121806488Y-74556073D01*
X121657188Y-74526376D01*
X121493216Y-74458456D01*
X121345646Y-74359853D01*
X121220147Y-74234354D01*
X121121544Y-74086784D01*
X121053624Y-73922812D01*
X121019000Y-73748741D01*
X121019000Y-73571259D01*
X121053624Y-73397188D01*
X121121544Y-73233216D01*
X121220147Y-73085646D01*
X121345646Y-72960147D01*
X121493216Y-72861544D01*
X121657188Y-72793624D01*
X121806488Y-72763927D01*
X121831258Y-72759000D01*
X122008742Y-72759000D01*
X122033512Y-72763927D01*
G37*
G36*
X77101000Y-74561000D02*
G01*
X75299000Y-74561000D01*
X75299000Y-72759000D01*
X77101000Y-72759000D01*
X77101000Y-74561000D01*
G37*
G36*
X78853512Y-72763927D02*
G01*
X79002812Y-72793624D01*
X79166784Y-72861544D01*
X79314354Y-72960147D01*
X79439853Y-73085646D01*
X79538456Y-73233216D01*
X79606376Y-73397188D01*
X79641000Y-73571259D01*
X79641000Y-73748741D01*
X79606376Y-73922812D01*
X79538456Y-74086784D01*
X79439853Y-74234354D01*
X79314354Y-74359853D01*
X79166784Y-74458456D01*
X79002812Y-74526376D01*
X78853512Y-74556073D01*
X78828742Y-74561000D01*
X78651258Y-74561000D01*
X78626488Y-74556073D01*
X78477188Y-74526376D01*
X78313216Y-74458456D01*
X78165646Y-74359853D01*
X78040147Y-74234354D01*
X77941544Y-74086784D01*
X77873624Y-73922812D01*
X77839000Y-73748741D01*
X77839000Y-73571259D01*
X77873624Y-73397188D01*
X77941544Y-73233216D01*
X78040147Y-73085646D01*
X78165646Y-72960147D01*
X78313216Y-72861544D01*
X78477188Y-72793624D01*
X78626488Y-72763927D01*
X78651258Y-72759000D01*
X78828742Y-72759000D01*
X78853512Y-72763927D01*
G37*
G36*
X105338571Y-71202863D02*
G01*
X105417023Y-71210590D01*
X105517682Y-71241125D01*
X105568013Y-71256392D01*
X105707165Y-71330771D01*
X105829133Y-71430867D01*
X105929229Y-71552835D01*
X106003608Y-71691987D01*
X106004326Y-71694354D01*
X106049410Y-71842977D01*
X106064875Y-72000000D01*
X106049410Y-72157023D01*
X106018875Y-72257682D01*
X106003608Y-72308013D01*
X105929229Y-72447165D01*
X105829133Y-72569133D01*
X105707165Y-72669229D01*
X105568013Y-72743608D01*
X105517682Y-72758875D01*
X105417023Y-72789410D01*
X105338571Y-72797137D01*
X105299346Y-72801000D01*
X104700654Y-72801000D01*
X104661429Y-72797137D01*
X104582977Y-72789410D01*
X104482318Y-72758875D01*
X104431987Y-72743608D01*
X104292835Y-72669229D01*
X104170867Y-72569133D01*
X104070771Y-72447165D01*
X103996392Y-72308013D01*
X103981125Y-72257682D01*
X103950590Y-72157023D01*
X103935125Y-72000000D01*
X103950590Y-71842977D01*
X103995674Y-71694354D01*
X103996392Y-71691987D01*
X104070771Y-71552835D01*
X104170867Y-71430867D01*
X104292835Y-71330771D01*
X104431987Y-71256392D01*
X104482318Y-71241125D01*
X104582977Y-71210590D01*
X104661429Y-71202863D01*
X104700654Y-71199000D01*
X105299346Y-71199000D01*
X105338571Y-71202863D01*
G37*
G36*
X124573512Y-70223927D02*
G01*
X124722812Y-70253624D01*
X124886784Y-70321544D01*
X125034354Y-70420147D01*
X125159853Y-70545646D01*
X125258456Y-70693216D01*
X125326376Y-70857188D01*
X125361000Y-71031259D01*
X125361000Y-71208741D01*
X125326376Y-71382812D01*
X125258456Y-71546784D01*
X125159853Y-71694354D01*
X125034354Y-71819853D01*
X124886784Y-71918456D01*
X124722812Y-71986376D01*
X124573512Y-72016073D01*
X124548742Y-72021000D01*
X124371258Y-72021000D01*
X124346488Y-72016073D01*
X124197188Y-71986376D01*
X124033216Y-71918456D01*
X123885646Y-71819853D01*
X123760147Y-71694354D01*
X123661544Y-71546784D01*
X123593624Y-71382812D01*
X123559000Y-71208741D01*
X123559000Y-71031259D01*
X123593624Y-70857188D01*
X123661544Y-70693216D01*
X123760147Y-70545646D01*
X123885646Y-70420147D01*
X124033216Y-70321544D01*
X124197188Y-70253624D01*
X124346488Y-70223927D01*
X124371258Y-70219000D01*
X124548742Y-70219000D01*
X124573512Y-70223927D01*
G37*
G36*
X122033512Y-70223927D02*
G01*
X122182812Y-70253624D01*
X122346784Y-70321544D01*
X122494354Y-70420147D01*
X122619853Y-70545646D01*
X122718456Y-70693216D01*
X122786376Y-70857188D01*
X122821000Y-71031259D01*
X122821000Y-71208741D01*
X122786376Y-71382812D01*
X122718456Y-71546784D01*
X122619853Y-71694354D01*
X122494354Y-71819853D01*
X122346784Y-71918456D01*
X122182812Y-71986376D01*
X122033512Y-72016073D01*
X122008742Y-72021000D01*
X121831258Y-72021000D01*
X121806488Y-72016073D01*
X121657188Y-71986376D01*
X121493216Y-71918456D01*
X121345646Y-71819853D01*
X121220147Y-71694354D01*
X121121544Y-71546784D01*
X121053624Y-71382812D01*
X121019000Y-71208741D01*
X121019000Y-71031259D01*
X121053624Y-70857188D01*
X121121544Y-70693216D01*
X121220147Y-70545646D01*
X121345646Y-70420147D01*
X121493216Y-70321544D01*
X121657188Y-70253624D01*
X121806488Y-70223927D01*
X121831258Y-70219000D01*
X122008742Y-70219000D01*
X122033512Y-70223927D01*
G37*
G36*
X117263241Y-67184760D02*
G01*
X117527305Y-67294139D01*
X117764958Y-67452934D01*
X117967066Y-67655042D01*
X118125861Y-67892695D01*
X118235240Y-68156759D01*
X118291000Y-68437088D01*
X118291000Y-68722912D01*
X118235240Y-69003241D01*
X118125861Y-69267305D01*
X117967066Y-69504958D01*
X117764958Y-69707066D01*
X117527305Y-69865861D01*
X117263241Y-69975240D01*
X116982912Y-70031000D01*
X116697088Y-70031000D01*
X116416759Y-69975240D01*
X116152695Y-69865861D01*
X115915042Y-69707066D01*
X115712934Y-69504958D01*
X115554139Y-69267305D01*
X115444760Y-69003241D01*
X115389000Y-68722912D01*
X115389000Y-68437088D01*
X115444760Y-68156759D01*
X115554139Y-67892695D01*
X115712934Y-67655042D01*
X115915042Y-67452934D01*
X116152695Y-67294139D01*
X116416759Y-67184760D01*
X116697088Y-67129000D01*
X116982912Y-67129000D01*
X117263241Y-67184760D01*
G37*
G36*
X103240098Y-68340362D02*
G01*
X103364941Y-68392074D01*
X103364943Y-68392075D01*
X103477299Y-68467149D01*
X103572851Y-68562701D01*
X103643705Y-68668741D01*
X103647926Y-68675059D01*
X103699638Y-68799902D01*
X103726000Y-68932434D01*
X103726000Y-69067566D01*
X103699638Y-69200098D01*
X103666602Y-69279853D01*
X103647925Y-69324943D01*
X103572851Y-69437299D01*
X103477299Y-69532851D01*
X103364943Y-69607925D01*
X103364942Y-69607926D01*
X103364941Y-69607926D01*
X103240098Y-69659638D01*
X103107566Y-69686000D01*
X102972434Y-69686000D01*
X102839902Y-69659638D01*
X102715059Y-69607926D01*
X102715058Y-69607926D01*
X102715057Y-69607925D01*
X102602701Y-69532851D01*
X102507149Y-69437299D01*
X102432075Y-69324943D01*
X102413398Y-69279853D01*
X102380362Y-69200098D01*
X102354000Y-69067566D01*
X102354000Y-68932434D01*
X102380362Y-68799902D01*
X102432074Y-68675059D01*
X102436296Y-68668741D01*
X102507149Y-68562701D01*
X102602701Y-68467149D01*
X102715057Y-68392075D01*
X102715059Y-68392074D01*
X102839902Y-68340362D01*
X102972434Y-68314000D01*
X103107566Y-68314000D01*
X103240098Y-68340362D01*
G37*
G36*
X122821000Y-69481000D02*
G01*
X121019000Y-69481000D01*
X121019000Y-67679000D01*
X122821000Y-67679000D01*
X122821000Y-69481000D01*
G37*
G36*
X124573512Y-67683927D02*
G01*
X124722812Y-67713624D01*
X124886784Y-67781544D01*
X125034354Y-67880147D01*
X125159853Y-68005646D01*
X125258456Y-68153216D01*
X125326376Y-68317188D01*
X125361000Y-68491259D01*
X125361000Y-68668741D01*
X125326376Y-68842812D01*
X125258456Y-69006784D01*
X125159853Y-69154354D01*
X125034354Y-69279853D01*
X124886784Y-69378456D01*
X124722812Y-69446376D01*
X124573512Y-69476073D01*
X124548742Y-69481000D01*
X124371258Y-69481000D01*
X124346488Y-69476073D01*
X124197188Y-69446376D01*
X124033216Y-69378456D01*
X123885646Y-69279853D01*
X123760147Y-69154354D01*
X123661544Y-69006784D01*
X123593624Y-68842812D01*
X123559000Y-68668741D01*
X123559000Y-68491259D01*
X123593624Y-68317188D01*
X123661544Y-68153216D01*
X123760147Y-68005646D01*
X123885646Y-67880147D01*
X124033216Y-67781544D01*
X124197188Y-67713624D01*
X124346488Y-67683927D01*
X124371258Y-67679000D01*
X124548742Y-67679000D01*
X124573512Y-67683927D01*
G37*
G36*
X76313512Y-67683927D02*
G01*
X76462812Y-67713624D01*
X76626784Y-67781544D01*
X76774354Y-67880147D01*
X76899853Y-68005646D01*
X76998456Y-68153216D01*
X77066376Y-68317188D01*
X77101000Y-68491259D01*
X77101000Y-68668741D01*
X77066376Y-68842812D01*
X76998456Y-69006784D01*
X76899853Y-69154354D01*
X76774354Y-69279853D01*
X76626784Y-69378456D01*
X76462812Y-69446376D01*
X76313512Y-69476073D01*
X76288742Y-69481000D01*
X76111258Y-69481000D01*
X76086488Y-69476073D01*
X75937188Y-69446376D01*
X75773216Y-69378456D01*
X75625646Y-69279853D01*
X75500147Y-69154354D01*
X75401544Y-69006784D01*
X75333624Y-68842812D01*
X75299000Y-68668741D01*
X75299000Y-68491259D01*
X75333624Y-68317188D01*
X75401544Y-68153216D01*
X75500147Y-68005646D01*
X75625646Y-67880147D01*
X75773216Y-67781544D01*
X75937188Y-67713624D01*
X76086488Y-67683927D01*
X76111258Y-67679000D01*
X76288742Y-67679000D01*
X76313512Y-67683927D01*
G37*
G36*
X78853512Y-67683927D02*
G01*
X79002812Y-67713624D01*
X79166784Y-67781544D01*
X79314354Y-67880147D01*
X79439853Y-68005646D01*
X79538456Y-68153216D01*
X79606376Y-68317188D01*
X79641000Y-68491259D01*
X79641000Y-68668741D01*
X79606376Y-68842812D01*
X79538456Y-69006784D01*
X79439853Y-69154354D01*
X79314354Y-69279853D01*
X79166784Y-69378456D01*
X79002812Y-69446376D01*
X78853512Y-69476073D01*
X78828742Y-69481000D01*
X78651258Y-69481000D01*
X78626488Y-69476073D01*
X78477188Y-69446376D01*
X78313216Y-69378456D01*
X78165646Y-69279853D01*
X78040147Y-69154354D01*
X77941544Y-69006784D01*
X77873624Y-68842812D01*
X77839000Y-68668741D01*
X77839000Y-68491259D01*
X77873624Y-68317188D01*
X77941544Y-68153216D01*
X78040147Y-68005646D01*
X78165646Y-67880147D01*
X78313216Y-67781544D01*
X78477188Y-67713624D01*
X78626488Y-67683927D01*
X78651258Y-67679000D01*
X78828742Y-67679000D01*
X78853512Y-67683927D01*
G37*
G36*
X91111529Y-66651398D02*
G01*
X91286079Y-66704348D01*
X91446947Y-66790333D01*
X91587949Y-66906051D01*
X91703667Y-67047053D01*
X91789652Y-67207921D01*
X91842602Y-67382471D01*
X91860480Y-67564000D01*
X91842602Y-67745529D01*
X91789652Y-67920079D01*
X91703667Y-68080947D01*
X91587949Y-68221949D01*
X91446947Y-68337667D01*
X91286079Y-68423652D01*
X91111529Y-68476602D01*
X90975490Y-68490000D01*
X90634510Y-68490000D01*
X90498471Y-68476602D01*
X90323921Y-68423652D01*
X90163053Y-68337667D01*
X90022051Y-68221949D01*
X89906333Y-68080947D01*
X89820348Y-67920079D01*
X89767398Y-67745529D01*
X89749520Y-67564000D01*
X89767398Y-67382471D01*
X89820348Y-67207921D01*
X89906333Y-67047053D01*
X90022051Y-66906051D01*
X90163053Y-66790333D01*
X90323921Y-66704348D01*
X90498471Y-66651398D01*
X90634510Y-66638000D01*
X90975490Y-66638000D01*
X91111529Y-66651398D01*
G37*
G36*
X78853512Y-65143927D02*
G01*
X79002812Y-65173624D01*
X79166784Y-65241544D01*
X79314354Y-65340147D01*
X79439853Y-65465646D01*
X79538456Y-65613216D01*
X79606376Y-65777188D01*
X79641000Y-65951259D01*
X79641000Y-66128741D01*
X79606376Y-66302812D01*
X79538456Y-66466784D01*
X79439853Y-66614354D01*
X79314354Y-66739853D01*
X79166784Y-66838456D01*
X79002812Y-66906376D01*
X78853512Y-66936073D01*
X78828742Y-66941000D01*
X78651258Y-66941000D01*
X78626488Y-66936073D01*
X78477188Y-66906376D01*
X78313216Y-66838456D01*
X78165646Y-66739853D01*
X78040147Y-66614354D01*
X77941544Y-66466784D01*
X77873624Y-66302812D01*
X77839000Y-66128741D01*
X77839000Y-65951259D01*
X77873624Y-65777188D01*
X77941544Y-65613216D01*
X78040147Y-65465646D01*
X78165646Y-65340147D01*
X78313216Y-65241544D01*
X78477188Y-65173624D01*
X78626488Y-65143927D01*
X78651258Y-65139000D01*
X78828742Y-65139000D01*
X78853512Y-65143927D01*
G37*
G36*
X76313512Y-65143927D02*
G01*
X76462812Y-65173624D01*
X76626784Y-65241544D01*
X76774354Y-65340147D01*
X76899853Y-65465646D01*
X76998456Y-65613216D01*
X77066376Y-65777188D01*
X77101000Y-65951259D01*
X77101000Y-66128741D01*
X77066376Y-66302812D01*
X76998456Y-66466784D01*
X76899853Y-66614354D01*
X76774354Y-66739853D01*
X76626784Y-66838456D01*
X76462812Y-66906376D01*
X76313512Y-66936073D01*
X76288742Y-66941000D01*
X76111258Y-66941000D01*
X76086488Y-66936073D01*
X75937188Y-66906376D01*
X75773216Y-66838456D01*
X75625646Y-66739853D01*
X75500147Y-66614354D01*
X75401544Y-66466784D01*
X75333624Y-66302812D01*
X75299000Y-66128741D01*
X75299000Y-65951259D01*
X75333624Y-65777188D01*
X75401544Y-65613216D01*
X75500147Y-65465646D01*
X75625646Y-65340147D01*
X75773216Y-65241544D01*
X75937188Y-65173624D01*
X76086488Y-65143927D01*
X76111258Y-65139000D01*
X76288742Y-65139000D01*
X76313512Y-65143927D01*
G37*
G36*
X91111529Y-64111398D02*
G01*
X91286079Y-64164348D01*
X91446947Y-64250333D01*
X91587949Y-64366051D01*
X91703667Y-64507053D01*
X91789652Y-64667921D01*
X91842602Y-64842471D01*
X91860480Y-65024000D01*
X91842602Y-65205529D01*
X91789652Y-65380079D01*
X91703667Y-65540947D01*
X91587949Y-65681949D01*
X91446947Y-65797667D01*
X91286079Y-65883652D01*
X91111529Y-65936602D01*
X90975490Y-65950000D01*
X90634510Y-65950000D01*
X90498471Y-65936602D01*
X90323921Y-65883652D01*
X90163053Y-65797667D01*
X90022051Y-65681949D01*
X89906333Y-65540947D01*
X89820348Y-65380079D01*
X89767398Y-65205529D01*
X89749520Y-65024000D01*
X89767398Y-64842471D01*
X89820348Y-64667921D01*
X89906333Y-64507053D01*
X90022051Y-64366051D01*
X90163053Y-64250333D01*
X90323921Y-64164348D01*
X90498471Y-64111398D01*
X90634510Y-64098000D01*
X90975490Y-64098000D01*
X91111529Y-64111398D01*
G37*
G36*
X122033512Y-63873927D02*
G01*
X122182812Y-63903624D01*
X122346784Y-63971544D01*
X122494354Y-64070147D01*
X122619853Y-64195646D01*
X122718456Y-64343216D01*
X122786376Y-64507188D01*
X122821000Y-64681259D01*
X122821000Y-64858741D01*
X122786376Y-65032812D01*
X122718456Y-65196784D01*
X122619853Y-65344354D01*
X122494354Y-65469853D01*
X122346784Y-65568456D01*
X122182812Y-65636376D01*
X122033512Y-65666073D01*
X122008742Y-65671000D01*
X121831258Y-65671000D01*
X121806488Y-65666073D01*
X121657188Y-65636376D01*
X121493216Y-65568456D01*
X121345646Y-65469853D01*
X121220147Y-65344354D01*
X121121544Y-65196784D01*
X121053624Y-65032812D01*
X121019000Y-64858741D01*
X121019000Y-64681259D01*
X121053624Y-64507188D01*
X121121544Y-64343216D01*
X121220147Y-64195646D01*
X121345646Y-64070147D01*
X121493216Y-63971544D01*
X121657188Y-63903624D01*
X121806488Y-63873927D01*
X121831258Y-63869000D01*
X122008742Y-63869000D01*
X122033512Y-63873927D01*
G37*
G36*
X124573512Y-63873927D02*
G01*
X124722812Y-63903624D01*
X124886784Y-63971544D01*
X125034354Y-64070147D01*
X125159853Y-64195646D01*
X125258456Y-64343216D01*
X125326376Y-64507188D01*
X125361000Y-64681259D01*
X125361000Y-64858741D01*
X125326376Y-65032812D01*
X125258456Y-65196784D01*
X125159853Y-65344354D01*
X125034354Y-65469853D01*
X124886784Y-65568456D01*
X124722812Y-65636376D01*
X124573512Y-65666073D01*
X124548742Y-65671000D01*
X124371258Y-65671000D01*
X124346488Y-65666073D01*
X124197188Y-65636376D01*
X124033216Y-65568456D01*
X123885646Y-65469853D01*
X123760147Y-65344354D01*
X123661544Y-65196784D01*
X123593624Y-65032812D01*
X123559000Y-64858741D01*
X123559000Y-64681259D01*
X123593624Y-64507188D01*
X123661544Y-64343216D01*
X123760147Y-64195646D01*
X123885646Y-64070147D01*
X124033216Y-63971544D01*
X124197188Y-63903624D01*
X124346488Y-63873927D01*
X124371258Y-63869000D01*
X124548742Y-63869000D01*
X124573512Y-63873927D01*
G37*
G36*
X78853512Y-62603927D02*
G01*
X79002812Y-62633624D01*
X79166784Y-62701544D01*
X79314354Y-62800147D01*
X79439853Y-62925646D01*
X79538456Y-63073216D01*
X79606376Y-63237188D01*
X79641000Y-63411259D01*
X79641000Y-63588741D01*
X79606376Y-63762812D01*
X79538456Y-63926784D01*
X79439853Y-64074354D01*
X79314354Y-64199853D01*
X79166784Y-64298456D01*
X79002812Y-64366376D01*
X78853512Y-64396073D01*
X78828742Y-64401000D01*
X78651258Y-64401000D01*
X78626488Y-64396073D01*
X78477188Y-64366376D01*
X78313216Y-64298456D01*
X78165646Y-64199853D01*
X78040147Y-64074354D01*
X77941544Y-63926784D01*
X77873624Y-63762812D01*
X77839000Y-63588741D01*
X77839000Y-63411259D01*
X77873624Y-63237188D01*
X77941544Y-63073216D01*
X78040147Y-62925646D01*
X78165646Y-62800147D01*
X78313216Y-62701544D01*
X78477188Y-62633624D01*
X78626488Y-62603927D01*
X78651258Y-62599000D01*
X78828742Y-62599000D01*
X78853512Y-62603927D01*
G37*
G36*
X76313512Y-62603927D02*
G01*
X76462812Y-62633624D01*
X76626784Y-62701544D01*
X76774354Y-62800147D01*
X76899853Y-62925646D01*
X76998456Y-63073216D01*
X77066376Y-63237188D01*
X77101000Y-63411259D01*
X77101000Y-63588741D01*
X77066376Y-63762812D01*
X76998456Y-63926784D01*
X76899853Y-64074354D01*
X76774354Y-64199853D01*
X76626784Y-64298456D01*
X76462812Y-64366376D01*
X76313512Y-64396073D01*
X76288742Y-64401000D01*
X76111258Y-64401000D01*
X76086488Y-64396073D01*
X75937188Y-64366376D01*
X75773216Y-64298456D01*
X75625646Y-64199853D01*
X75500147Y-64074354D01*
X75401544Y-63926784D01*
X75333624Y-63762812D01*
X75299000Y-63588741D01*
X75299000Y-63411259D01*
X75333624Y-63237188D01*
X75401544Y-63073216D01*
X75500147Y-62925646D01*
X75625646Y-62800147D01*
X75773216Y-62701544D01*
X75937188Y-62633624D01*
X76086488Y-62603927D01*
X76111258Y-62599000D01*
X76288742Y-62599000D01*
X76313512Y-62603927D01*
G37*
G36*
X91111529Y-61571398D02*
G01*
X91286079Y-61624348D01*
X91446947Y-61710333D01*
X91587949Y-61826051D01*
X91703667Y-61967053D01*
X91789652Y-62127921D01*
X91842602Y-62302471D01*
X91860480Y-62484000D01*
X91842602Y-62665529D01*
X91789652Y-62840079D01*
X91703667Y-63000947D01*
X91587949Y-63141949D01*
X91446947Y-63257667D01*
X91286079Y-63343652D01*
X91111529Y-63396602D01*
X90975490Y-63410000D01*
X90634510Y-63410000D01*
X90498471Y-63396602D01*
X90323921Y-63343652D01*
X90163053Y-63257667D01*
X90022051Y-63141949D01*
X89906333Y-63000947D01*
X89820348Y-62840079D01*
X89767398Y-62665529D01*
X89749520Y-62484000D01*
X89767398Y-62302471D01*
X89820348Y-62127921D01*
X89906333Y-61967053D01*
X90022051Y-61826051D01*
X90163053Y-61710333D01*
X90323921Y-61624348D01*
X90498471Y-61571398D01*
X90634510Y-61558000D01*
X90975490Y-61558000D01*
X91111529Y-61571398D01*
G37*
G36*
X122033512Y-61333927D02*
G01*
X122182812Y-61363624D01*
X122346784Y-61431544D01*
X122494354Y-61530147D01*
X122619853Y-61655646D01*
X122718456Y-61803216D01*
X122786376Y-61967188D01*
X122821000Y-62141259D01*
X122821000Y-62318741D01*
X122786376Y-62492812D01*
X122718456Y-62656784D01*
X122619853Y-62804354D01*
X122494354Y-62929853D01*
X122346784Y-63028456D01*
X122182812Y-63096376D01*
X122033512Y-63126073D01*
X122008742Y-63131000D01*
X121831258Y-63131000D01*
X121806488Y-63126073D01*
X121657188Y-63096376D01*
X121493216Y-63028456D01*
X121345646Y-62929853D01*
X121220147Y-62804354D01*
X121121544Y-62656784D01*
X121053624Y-62492812D01*
X121019000Y-62318741D01*
X121019000Y-62141259D01*
X121053624Y-61967188D01*
X121121544Y-61803216D01*
X121220147Y-61655646D01*
X121345646Y-61530147D01*
X121493216Y-61431544D01*
X121657188Y-61363624D01*
X121806488Y-61333927D01*
X121831258Y-61329000D01*
X122008742Y-61329000D01*
X122033512Y-61333927D01*
G37*
G36*
X124573512Y-61333927D02*
G01*
X124722812Y-61363624D01*
X124886784Y-61431544D01*
X125034354Y-61530147D01*
X125159853Y-61655646D01*
X125258456Y-61803216D01*
X125326376Y-61967188D01*
X125361000Y-62141259D01*
X125361000Y-62318741D01*
X125326376Y-62492812D01*
X125258456Y-62656784D01*
X125159853Y-62804354D01*
X125034354Y-62929853D01*
X124886784Y-63028456D01*
X124722812Y-63096376D01*
X124573512Y-63126073D01*
X124548742Y-63131000D01*
X124371258Y-63131000D01*
X124346488Y-63126073D01*
X124197188Y-63096376D01*
X124033216Y-63028456D01*
X123885646Y-62929853D01*
X123760147Y-62804354D01*
X123661544Y-62656784D01*
X123593624Y-62492812D01*
X123559000Y-62318741D01*
X123559000Y-62141259D01*
X123593624Y-61967188D01*
X123661544Y-61803216D01*
X123760147Y-61655646D01*
X123885646Y-61530147D01*
X124033216Y-61431544D01*
X124197188Y-61363624D01*
X124346488Y-61333927D01*
X124371258Y-61329000D01*
X124548742Y-61329000D01*
X124573512Y-61333927D01*
G37*
G36*
X76313512Y-60063927D02*
G01*
X76462812Y-60093624D01*
X76626784Y-60161544D01*
X76774354Y-60260147D01*
X76899853Y-60385646D01*
X76998456Y-60533216D01*
X77066376Y-60697188D01*
X77101000Y-60871259D01*
X77101000Y-61048741D01*
X77066376Y-61222812D01*
X76998456Y-61386784D01*
X76899853Y-61534354D01*
X76774354Y-61659853D01*
X76626784Y-61758456D01*
X76462812Y-61826376D01*
X76313512Y-61856073D01*
X76288742Y-61861000D01*
X76111258Y-61861000D01*
X76086488Y-61856073D01*
X75937188Y-61826376D01*
X75773216Y-61758456D01*
X75625646Y-61659853D01*
X75500147Y-61534354D01*
X75401544Y-61386784D01*
X75333624Y-61222812D01*
X75299000Y-61048741D01*
X75299000Y-60871259D01*
X75333624Y-60697188D01*
X75401544Y-60533216D01*
X75500147Y-60385646D01*
X75625646Y-60260147D01*
X75773216Y-60161544D01*
X75937188Y-60093624D01*
X76086488Y-60063927D01*
X76111258Y-60059000D01*
X76288742Y-60059000D01*
X76313512Y-60063927D01*
G37*
G36*
X78853512Y-60063927D02*
G01*
X79002812Y-60093624D01*
X79166784Y-60161544D01*
X79314354Y-60260147D01*
X79439853Y-60385646D01*
X79538456Y-60533216D01*
X79606376Y-60697188D01*
X79641000Y-60871259D01*
X79641000Y-61048741D01*
X79606376Y-61222812D01*
X79538456Y-61386784D01*
X79439853Y-61534354D01*
X79314354Y-61659853D01*
X79166784Y-61758456D01*
X79002812Y-61826376D01*
X78853512Y-61856073D01*
X78828742Y-61861000D01*
X78651258Y-61861000D01*
X78626488Y-61856073D01*
X78477188Y-61826376D01*
X78313216Y-61758456D01*
X78165646Y-61659853D01*
X78040147Y-61534354D01*
X77941544Y-61386784D01*
X77873624Y-61222812D01*
X77839000Y-61048741D01*
X77839000Y-60871259D01*
X77873624Y-60697188D01*
X77941544Y-60533216D01*
X78040147Y-60385646D01*
X78165646Y-60260147D01*
X78313216Y-60161544D01*
X78477188Y-60093624D01*
X78626488Y-60063927D01*
X78651258Y-60059000D01*
X78828742Y-60059000D01*
X78853512Y-60063927D01*
G37*
G36*
X124573512Y-58793927D02*
G01*
X124722812Y-58823624D01*
X124886784Y-58891544D01*
X125034354Y-58990147D01*
X125159853Y-59115646D01*
X125258456Y-59263216D01*
X125326376Y-59427188D01*
X125361000Y-59601259D01*
X125361000Y-59778741D01*
X125326376Y-59952812D01*
X125258456Y-60116784D01*
X125159853Y-60264354D01*
X125034354Y-60389853D01*
X124886784Y-60488456D01*
X124722812Y-60556376D01*
X124573512Y-60586073D01*
X124548742Y-60591000D01*
X124371258Y-60591000D01*
X124346488Y-60586073D01*
X124197188Y-60556376D01*
X124033216Y-60488456D01*
X123885646Y-60389853D01*
X123760147Y-60264354D01*
X123661544Y-60116784D01*
X123593624Y-59952812D01*
X123559000Y-59778741D01*
X123559000Y-59601259D01*
X123593624Y-59427188D01*
X123661544Y-59263216D01*
X123760147Y-59115646D01*
X123885646Y-58990147D01*
X124033216Y-58891544D01*
X124197188Y-58823624D01*
X124346488Y-58793927D01*
X124371258Y-58789000D01*
X124548742Y-58789000D01*
X124573512Y-58793927D01*
G37*
G36*
X122033512Y-58793927D02*
G01*
X122182812Y-58823624D01*
X122346784Y-58891544D01*
X122494354Y-58990147D01*
X122619853Y-59115646D01*
X122718456Y-59263216D01*
X122786376Y-59427188D01*
X122821000Y-59601259D01*
X122821000Y-59778741D01*
X122786376Y-59952812D01*
X122718456Y-60116784D01*
X122619853Y-60264354D01*
X122494354Y-60389853D01*
X122346784Y-60488456D01*
X122182812Y-60556376D01*
X122033512Y-60586073D01*
X122008742Y-60591000D01*
X121831258Y-60591000D01*
X121806488Y-60586073D01*
X121657188Y-60556376D01*
X121493216Y-60488456D01*
X121345646Y-60389853D01*
X121220147Y-60264354D01*
X121121544Y-60116784D01*
X121053624Y-59952812D01*
X121019000Y-59778741D01*
X121019000Y-59601259D01*
X121053624Y-59427188D01*
X121121544Y-59263216D01*
X121220147Y-59115646D01*
X121345646Y-58990147D01*
X121493216Y-58891544D01*
X121657188Y-58823624D01*
X121806488Y-58793927D01*
X121831258Y-58789000D01*
X122008742Y-58789000D01*
X122033512Y-58793927D01*
G37*
G36*
X76313512Y-57523927D02*
G01*
X76462812Y-57553624D01*
X76626784Y-57621544D01*
X76774354Y-57720147D01*
X76899853Y-57845646D01*
X76998456Y-57993216D01*
X77066376Y-58157188D01*
X77101000Y-58331259D01*
X77101000Y-58508741D01*
X77066376Y-58682812D01*
X76998456Y-58846784D01*
X76899853Y-58994354D01*
X76774354Y-59119853D01*
X76626784Y-59218456D01*
X76462812Y-59286376D01*
X76313512Y-59316073D01*
X76288742Y-59321000D01*
X76111258Y-59321000D01*
X76086488Y-59316073D01*
X75937188Y-59286376D01*
X75773216Y-59218456D01*
X75625646Y-59119853D01*
X75500147Y-58994354D01*
X75401544Y-58846784D01*
X75333624Y-58682812D01*
X75299000Y-58508741D01*
X75299000Y-58331259D01*
X75333624Y-58157188D01*
X75401544Y-57993216D01*
X75500147Y-57845646D01*
X75625646Y-57720147D01*
X75773216Y-57621544D01*
X75937188Y-57553624D01*
X76086488Y-57523927D01*
X76111258Y-57519000D01*
X76288742Y-57519000D01*
X76313512Y-57523927D01*
G37*
G36*
X78853512Y-57523927D02*
G01*
X79002812Y-57553624D01*
X79166784Y-57621544D01*
X79314354Y-57720147D01*
X79439853Y-57845646D01*
X79538456Y-57993216D01*
X79606376Y-58157188D01*
X79641000Y-58331259D01*
X79641000Y-58508741D01*
X79606376Y-58682812D01*
X79538456Y-58846784D01*
X79439853Y-58994354D01*
X79314354Y-59119853D01*
X79166784Y-59218456D01*
X79002812Y-59286376D01*
X78853512Y-59316073D01*
X78828742Y-59321000D01*
X78651258Y-59321000D01*
X78626488Y-59316073D01*
X78477188Y-59286376D01*
X78313216Y-59218456D01*
X78165646Y-59119853D01*
X78040147Y-58994354D01*
X77941544Y-58846784D01*
X77873624Y-58682812D01*
X77839000Y-58508741D01*
X77839000Y-58331259D01*
X77873624Y-58157188D01*
X77941544Y-57993216D01*
X78040147Y-57845646D01*
X78165646Y-57720147D01*
X78313216Y-57621544D01*
X78477188Y-57553624D01*
X78626488Y-57523927D01*
X78651258Y-57519000D01*
X78828742Y-57519000D01*
X78853512Y-57523927D01*
G37*
G36*
X91111529Y-56491398D02*
G01*
X91286079Y-56544348D01*
X91446947Y-56630333D01*
X91587949Y-56746051D01*
X91703667Y-56887053D01*
X91789652Y-57047921D01*
X91842602Y-57222471D01*
X91860480Y-57404000D01*
X91842602Y-57585529D01*
X91789652Y-57760079D01*
X91703667Y-57920947D01*
X91587949Y-58061949D01*
X91446947Y-58177667D01*
X91286079Y-58263652D01*
X91111529Y-58316602D01*
X90975490Y-58330000D01*
X90634510Y-58330000D01*
X90498471Y-58316602D01*
X90323921Y-58263652D01*
X90163053Y-58177667D01*
X90022051Y-58061949D01*
X89906333Y-57920947D01*
X89820348Y-57760079D01*
X89767398Y-57585529D01*
X89749520Y-57404000D01*
X89767398Y-57222471D01*
X89820348Y-57047921D01*
X89906333Y-56887053D01*
X90022051Y-56746051D01*
X90163053Y-56630333D01*
X90323921Y-56544348D01*
X90498471Y-56491398D01*
X90634510Y-56478000D01*
X90975490Y-56478000D01*
X91111529Y-56491398D01*
G37*
G36*
X124573512Y-56253927D02*
G01*
X124722812Y-56283624D01*
X124886784Y-56351544D01*
X125034354Y-56450147D01*
X125159853Y-56575646D01*
X125258456Y-56723216D01*
X125326376Y-56887188D01*
X125361000Y-57061259D01*
X125361000Y-57238741D01*
X125326376Y-57412812D01*
X125258456Y-57576784D01*
X125159853Y-57724354D01*
X125034354Y-57849853D01*
X124886784Y-57948456D01*
X124722812Y-58016376D01*
X124573512Y-58046073D01*
X124548742Y-58051000D01*
X124371258Y-58051000D01*
X124346488Y-58046073D01*
X124197188Y-58016376D01*
X124033216Y-57948456D01*
X123885646Y-57849853D01*
X123760147Y-57724354D01*
X123661544Y-57576784D01*
X123593624Y-57412812D01*
X123559000Y-57238741D01*
X123559000Y-57061259D01*
X123593624Y-56887188D01*
X123661544Y-56723216D01*
X123760147Y-56575646D01*
X123885646Y-56450147D01*
X124033216Y-56351544D01*
X124197188Y-56283624D01*
X124346488Y-56253927D01*
X124371258Y-56249000D01*
X124548742Y-56249000D01*
X124573512Y-56253927D01*
G37*
G36*
X122033512Y-56253927D02*
G01*
X122182812Y-56283624D01*
X122346784Y-56351544D01*
X122494354Y-56450147D01*
X122619853Y-56575646D01*
X122718456Y-56723216D01*
X122786376Y-56887188D01*
X122821000Y-57061259D01*
X122821000Y-57238741D01*
X122786376Y-57412812D01*
X122718456Y-57576784D01*
X122619853Y-57724354D01*
X122494354Y-57849853D01*
X122346784Y-57948456D01*
X122182812Y-58016376D01*
X122033512Y-58046073D01*
X122008742Y-58051000D01*
X121831258Y-58051000D01*
X121806488Y-58046073D01*
X121657188Y-58016376D01*
X121493216Y-57948456D01*
X121345646Y-57849853D01*
X121220147Y-57724354D01*
X121121544Y-57576784D01*
X121053624Y-57412812D01*
X121019000Y-57238741D01*
X121019000Y-57061259D01*
X121053624Y-56887188D01*
X121121544Y-56723216D01*
X121220147Y-56575646D01*
X121345646Y-56450147D01*
X121493216Y-56351544D01*
X121657188Y-56283624D01*
X121806488Y-56253927D01*
X121831258Y-56249000D01*
X122008742Y-56249000D01*
X122033512Y-56253927D01*
G37*
G36*
X78853512Y-54983927D02*
G01*
X79002812Y-55013624D01*
X79166784Y-55081544D01*
X79314354Y-55180147D01*
X79439853Y-55305646D01*
X79538456Y-55453216D01*
X79606376Y-55617188D01*
X79641000Y-55791259D01*
X79641000Y-55968741D01*
X79606376Y-56142812D01*
X79538456Y-56306784D01*
X79439853Y-56454354D01*
X79314354Y-56579853D01*
X79166784Y-56678456D01*
X79002812Y-56746376D01*
X78853512Y-56776073D01*
X78828742Y-56781000D01*
X78651258Y-56781000D01*
X78626488Y-56776073D01*
X78477188Y-56746376D01*
X78313216Y-56678456D01*
X78165646Y-56579853D01*
X78040147Y-56454354D01*
X77941544Y-56306784D01*
X77873624Y-56142812D01*
X77839000Y-55968741D01*
X77839000Y-55791259D01*
X77873624Y-55617188D01*
X77941544Y-55453216D01*
X78040147Y-55305646D01*
X78165646Y-55180147D01*
X78313216Y-55081544D01*
X78477188Y-55013624D01*
X78626488Y-54983927D01*
X78651258Y-54979000D01*
X78828742Y-54979000D01*
X78853512Y-54983927D01*
G37*
G36*
X76313512Y-54983927D02*
G01*
X76462812Y-55013624D01*
X76626784Y-55081544D01*
X76774354Y-55180147D01*
X76899853Y-55305646D01*
X76998456Y-55453216D01*
X77066376Y-55617188D01*
X77101000Y-55791259D01*
X77101000Y-55968741D01*
X77066376Y-56142812D01*
X76998456Y-56306784D01*
X76899853Y-56454354D01*
X76774354Y-56579853D01*
X76626784Y-56678456D01*
X76462812Y-56746376D01*
X76313512Y-56776073D01*
X76288742Y-56781000D01*
X76111258Y-56781000D01*
X76086488Y-56776073D01*
X75937188Y-56746376D01*
X75773216Y-56678456D01*
X75625646Y-56579853D01*
X75500147Y-56454354D01*
X75401544Y-56306784D01*
X75333624Y-56142812D01*
X75299000Y-55968741D01*
X75299000Y-55791259D01*
X75333624Y-55617188D01*
X75401544Y-55453216D01*
X75500147Y-55305646D01*
X75625646Y-55180147D01*
X75773216Y-55081544D01*
X75937188Y-55013624D01*
X76086488Y-54983927D01*
X76111258Y-54979000D01*
X76288742Y-54979000D01*
X76313512Y-54983927D01*
G37*
G36*
X91111529Y-53951398D02*
G01*
X91286079Y-54004348D01*
X91446947Y-54090333D01*
X91587949Y-54206051D01*
X91703667Y-54347053D01*
X91789652Y-54507921D01*
X91842602Y-54682471D01*
X91860480Y-54864000D01*
X91842602Y-55045529D01*
X91789652Y-55220079D01*
X91703667Y-55380947D01*
X91587949Y-55521949D01*
X91446947Y-55637667D01*
X91286079Y-55723652D01*
X91111529Y-55776602D01*
X90975490Y-55790000D01*
X90634510Y-55790000D01*
X90498471Y-55776602D01*
X90323921Y-55723652D01*
X90163053Y-55637667D01*
X90022051Y-55521949D01*
X89906333Y-55380947D01*
X89820348Y-55220079D01*
X89767398Y-55045529D01*
X89749520Y-54864000D01*
X89767398Y-54682471D01*
X89820348Y-54507921D01*
X89906333Y-54347053D01*
X90022051Y-54206051D01*
X90163053Y-54090333D01*
X90323921Y-54004348D01*
X90498471Y-53951398D01*
X90634510Y-53938000D01*
X90975490Y-53938000D01*
X91111529Y-53951398D01*
G37*
G36*
X122033512Y-53713927D02*
G01*
X122182812Y-53743624D01*
X122346784Y-53811544D01*
X122494354Y-53910147D01*
X122619853Y-54035646D01*
X122718456Y-54183216D01*
X122786376Y-54347188D01*
X122821000Y-54521259D01*
X122821000Y-54698741D01*
X122786376Y-54872812D01*
X122718456Y-55036784D01*
X122619853Y-55184354D01*
X122494354Y-55309853D01*
X122346784Y-55408456D01*
X122182812Y-55476376D01*
X122033512Y-55506073D01*
X122008742Y-55511000D01*
X121831258Y-55511000D01*
X121806488Y-55506073D01*
X121657188Y-55476376D01*
X121493216Y-55408456D01*
X121345646Y-55309853D01*
X121220147Y-55184354D01*
X121121544Y-55036784D01*
X121053624Y-54872812D01*
X121019000Y-54698741D01*
X121019000Y-54521259D01*
X121053624Y-54347188D01*
X121121544Y-54183216D01*
X121220147Y-54035646D01*
X121345646Y-53910147D01*
X121493216Y-53811544D01*
X121657188Y-53743624D01*
X121806488Y-53713927D01*
X121831258Y-53709000D01*
X122008742Y-53709000D01*
X122033512Y-53713927D01*
G37*
G36*
X124573512Y-53713927D02*
G01*
X124722812Y-53743624D01*
X124886784Y-53811544D01*
X125034354Y-53910147D01*
X125159853Y-54035646D01*
X125258456Y-54183216D01*
X125326376Y-54347188D01*
X125361000Y-54521259D01*
X125361000Y-54698741D01*
X125326376Y-54872812D01*
X125258456Y-55036784D01*
X125159853Y-55184354D01*
X125034354Y-55309853D01*
X124886784Y-55408456D01*
X124722812Y-55476376D01*
X124573512Y-55506073D01*
X124548742Y-55511000D01*
X124371258Y-55511000D01*
X124346488Y-55506073D01*
X124197188Y-55476376D01*
X124033216Y-55408456D01*
X123885646Y-55309853D01*
X123760147Y-55184354D01*
X123661544Y-55036784D01*
X123593624Y-54872812D01*
X123559000Y-54698741D01*
X123559000Y-54521259D01*
X123593624Y-54347188D01*
X123661544Y-54183216D01*
X123760147Y-54035646D01*
X123885646Y-53910147D01*
X124033216Y-53811544D01*
X124197188Y-53743624D01*
X124346488Y-53713927D01*
X124371258Y-53709000D01*
X124548742Y-53709000D01*
X124573512Y-53713927D01*
G37*
G36*
X78853512Y-52443927D02*
G01*
X79002812Y-52473624D01*
X79166784Y-52541544D01*
X79314354Y-52640147D01*
X79439853Y-52765646D01*
X79538456Y-52913216D01*
X79606376Y-53077188D01*
X79641000Y-53251259D01*
X79641000Y-53428741D01*
X79606376Y-53602812D01*
X79538456Y-53766784D01*
X79439853Y-53914354D01*
X79314354Y-54039853D01*
X79166784Y-54138456D01*
X79002812Y-54206376D01*
X78853512Y-54236073D01*
X78828742Y-54241000D01*
X78651258Y-54241000D01*
X78626488Y-54236073D01*
X78477188Y-54206376D01*
X78313216Y-54138456D01*
X78165646Y-54039853D01*
X78040147Y-53914354D01*
X77941544Y-53766784D01*
X77873624Y-53602812D01*
X77839000Y-53428741D01*
X77839000Y-53251259D01*
X77873624Y-53077188D01*
X77941544Y-52913216D01*
X78040147Y-52765646D01*
X78165646Y-52640147D01*
X78313216Y-52541544D01*
X78477188Y-52473624D01*
X78626488Y-52443927D01*
X78651258Y-52439000D01*
X78828742Y-52439000D01*
X78853512Y-52443927D01*
G37*
G36*
X76313512Y-52443927D02*
G01*
X76462812Y-52473624D01*
X76626784Y-52541544D01*
X76774354Y-52640147D01*
X76899853Y-52765646D01*
X76998456Y-52913216D01*
X77066376Y-53077188D01*
X77101000Y-53251259D01*
X77101000Y-53428741D01*
X77066376Y-53602812D01*
X76998456Y-53766784D01*
X76899853Y-53914354D01*
X76774354Y-54039853D01*
X76626784Y-54138456D01*
X76462812Y-54206376D01*
X76313512Y-54236073D01*
X76288742Y-54241000D01*
X76111258Y-54241000D01*
X76086488Y-54236073D01*
X75937188Y-54206376D01*
X75773216Y-54138456D01*
X75625646Y-54039853D01*
X75500147Y-53914354D01*
X75401544Y-53766784D01*
X75333624Y-53602812D01*
X75299000Y-53428741D01*
X75299000Y-53251259D01*
X75333624Y-53077188D01*
X75401544Y-52913216D01*
X75500147Y-52765646D01*
X75625646Y-52640147D01*
X75773216Y-52541544D01*
X75937188Y-52473624D01*
X76086488Y-52443927D01*
X76111258Y-52439000D01*
X76288742Y-52439000D01*
X76313512Y-52443927D01*
G37*
G36*
X91111529Y-51411398D02*
G01*
X91286079Y-51464348D01*
X91446947Y-51550333D01*
X91587949Y-51666051D01*
X91703667Y-51807053D01*
X91789652Y-51967921D01*
X91842602Y-52142471D01*
X91860480Y-52324000D01*
X91842602Y-52505529D01*
X91789652Y-52680079D01*
X91703667Y-52840947D01*
X91587949Y-52981949D01*
X91446947Y-53097667D01*
X91286079Y-53183652D01*
X91111529Y-53236602D01*
X90975490Y-53250000D01*
X90634510Y-53250000D01*
X90498471Y-53236602D01*
X90323921Y-53183652D01*
X90163053Y-53097667D01*
X90022051Y-52981949D01*
X89906333Y-52840947D01*
X89820348Y-52680079D01*
X89767398Y-52505529D01*
X89749520Y-52324000D01*
X89767398Y-52142471D01*
X89820348Y-51967921D01*
X89906333Y-51807053D01*
X90022051Y-51666051D01*
X90163053Y-51550333D01*
X90323921Y-51464348D01*
X90498471Y-51411398D01*
X90634510Y-51398000D01*
X90975490Y-51398000D01*
X91111529Y-51411398D01*
G37*
G36*
X124573512Y-51173927D02*
G01*
X124722812Y-51203624D01*
X124886784Y-51271544D01*
X125034354Y-51370147D01*
X125159853Y-51495646D01*
X125258456Y-51643216D01*
X125326376Y-51807188D01*
X125361000Y-51981259D01*
X125361000Y-52158741D01*
X125326376Y-52332812D01*
X125258456Y-52496784D01*
X125159853Y-52644354D01*
X125034354Y-52769853D01*
X124886784Y-52868456D01*
X124722812Y-52936376D01*
X124573512Y-52966073D01*
X124548742Y-52971000D01*
X124371258Y-52971000D01*
X124346488Y-52966073D01*
X124197188Y-52936376D01*
X124033216Y-52868456D01*
X123885646Y-52769853D01*
X123760147Y-52644354D01*
X123661544Y-52496784D01*
X123593624Y-52332812D01*
X123559000Y-52158741D01*
X123559000Y-51981259D01*
X123593624Y-51807188D01*
X123661544Y-51643216D01*
X123760147Y-51495646D01*
X123885646Y-51370147D01*
X124033216Y-51271544D01*
X124197188Y-51203624D01*
X124346488Y-51173927D01*
X124371258Y-51169000D01*
X124548742Y-51169000D01*
X124573512Y-51173927D01*
G37*
G36*
X122033512Y-51173927D02*
G01*
X122182812Y-51203624D01*
X122346784Y-51271544D01*
X122494354Y-51370147D01*
X122619853Y-51495646D01*
X122718456Y-51643216D01*
X122786376Y-51807188D01*
X122821000Y-51981259D01*
X122821000Y-52158741D01*
X122786376Y-52332812D01*
X122718456Y-52496784D01*
X122619853Y-52644354D01*
X122494354Y-52769853D01*
X122346784Y-52868456D01*
X122182812Y-52936376D01*
X122033512Y-52966073D01*
X122008742Y-52971000D01*
X121831258Y-52971000D01*
X121806488Y-52966073D01*
X121657188Y-52936376D01*
X121493216Y-52868456D01*
X121345646Y-52769853D01*
X121220147Y-52644354D01*
X121121544Y-52496784D01*
X121053624Y-52332812D01*
X121019000Y-52158741D01*
X121019000Y-51981259D01*
X121053624Y-51807188D01*
X121121544Y-51643216D01*
X121220147Y-51495646D01*
X121345646Y-51370147D01*
X121493216Y-51271544D01*
X121657188Y-51203624D01*
X121806488Y-51173927D01*
X121831258Y-51169000D01*
X122008742Y-51169000D01*
X122033512Y-51173927D01*
G37*
G36*
X78853512Y-49903927D02*
G01*
X79002812Y-49933624D01*
X79166784Y-50001544D01*
X79314354Y-50100147D01*
X79439853Y-50225646D01*
X79538456Y-50373216D01*
X79606376Y-50537188D01*
X79641000Y-50711259D01*
X79641000Y-50888741D01*
X79606376Y-51062812D01*
X79538456Y-51226784D01*
X79439853Y-51374354D01*
X79314354Y-51499853D01*
X79166784Y-51598456D01*
X79002812Y-51666376D01*
X78853512Y-51696073D01*
X78828742Y-51701000D01*
X78651258Y-51701000D01*
X78626488Y-51696073D01*
X78477188Y-51666376D01*
X78313216Y-51598456D01*
X78165646Y-51499853D01*
X78040147Y-51374354D01*
X77941544Y-51226784D01*
X77873624Y-51062812D01*
X77839000Y-50888741D01*
X77839000Y-50711259D01*
X77873624Y-50537188D01*
X77941544Y-50373216D01*
X78040147Y-50225646D01*
X78165646Y-50100147D01*
X78313216Y-50001544D01*
X78477188Y-49933624D01*
X78626488Y-49903927D01*
X78651258Y-49899000D01*
X78828742Y-49899000D01*
X78853512Y-49903927D01*
G37*
G36*
X77101000Y-51701000D02*
G01*
X75299000Y-51701000D01*
X75299000Y-49899000D01*
X77101000Y-49899000D01*
X77101000Y-51701000D01*
G37*
G36*
X91111529Y-48871398D02*
G01*
X91286079Y-48924348D01*
X91446947Y-49010333D01*
X91587949Y-49126051D01*
X91703667Y-49267053D01*
X91789652Y-49427921D01*
X91842602Y-49602471D01*
X91860480Y-49784000D01*
X91842602Y-49965529D01*
X91789652Y-50140079D01*
X91703667Y-50300947D01*
X91587949Y-50441949D01*
X91446947Y-50557667D01*
X91286079Y-50643652D01*
X91111529Y-50696602D01*
X90975490Y-50710000D01*
X90634510Y-50710000D01*
X90498471Y-50696602D01*
X90323921Y-50643652D01*
X90163053Y-50557667D01*
X90022051Y-50441949D01*
X89906333Y-50300947D01*
X89820348Y-50140079D01*
X89767398Y-49965529D01*
X89749520Y-49784000D01*
X89767398Y-49602471D01*
X89820348Y-49427921D01*
X89906333Y-49267053D01*
X90022051Y-49126051D01*
X90163053Y-49010333D01*
X90323921Y-48924348D01*
X90498471Y-48871398D01*
X90634510Y-48858000D01*
X90975490Y-48858000D01*
X91111529Y-48871398D01*
G37*
G36*
X124573512Y-48633927D02*
G01*
X124722812Y-48663624D01*
X124886784Y-48731544D01*
X125034354Y-48830147D01*
X125159853Y-48955646D01*
X125258456Y-49103216D01*
X125326376Y-49267188D01*
X125361000Y-49441259D01*
X125361000Y-49618741D01*
X125326376Y-49792812D01*
X125258456Y-49956784D01*
X125159853Y-50104354D01*
X125034354Y-50229853D01*
X124886784Y-50328456D01*
X124722812Y-50396376D01*
X124573512Y-50426073D01*
X124548742Y-50431000D01*
X124371258Y-50431000D01*
X124346488Y-50426073D01*
X124197188Y-50396376D01*
X124033216Y-50328456D01*
X123885646Y-50229853D01*
X123760147Y-50104354D01*
X123661544Y-49956784D01*
X123593624Y-49792812D01*
X123559000Y-49618741D01*
X123559000Y-49441259D01*
X123593624Y-49267188D01*
X123661544Y-49103216D01*
X123760147Y-48955646D01*
X123885646Y-48830147D01*
X124033216Y-48731544D01*
X124197188Y-48663624D01*
X124346488Y-48633927D01*
X124371258Y-48629000D01*
X124548742Y-48629000D01*
X124573512Y-48633927D01*
G37*
G36*
X122033512Y-48633927D02*
G01*
X122182812Y-48663624D01*
X122346784Y-48731544D01*
X122494354Y-48830147D01*
X122619853Y-48955646D01*
X122718456Y-49103216D01*
X122786376Y-49267188D01*
X122821000Y-49441259D01*
X122821000Y-49618741D01*
X122786376Y-49792812D01*
X122718456Y-49956784D01*
X122619853Y-50104354D01*
X122494354Y-50229853D01*
X122346784Y-50328456D01*
X122182812Y-50396376D01*
X122033512Y-50426073D01*
X122008742Y-50431000D01*
X121831258Y-50431000D01*
X121806488Y-50426073D01*
X121657188Y-50396376D01*
X121493216Y-50328456D01*
X121345646Y-50229853D01*
X121220147Y-50104354D01*
X121121544Y-49956784D01*
X121053624Y-49792812D01*
X121019000Y-49618741D01*
X121019000Y-49441259D01*
X121053624Y-49267188D01*
X121121544Y-49103216D01*
X121220147Y-48955646D01*
X121345646Y-48830147D01*
X121493216Y-48731544D01*
X121657188Y-48663624D01*
X121806488Y-48633927D01*
X121831258Y-48629000D01*
X122008742Y-48629000D01*
X122033512Y-48633927D01*
G37*
G36*
X124573512Y-46093927D02*
G01*
X124722812Y-46123624D01*
X124886784Y-46191544D01*
X125034354Y-46290147D01*
X125159853Y-46415646D01*
X125258456Y-46563216D01*
X125326376Y-46727188D01*
X125361000Y-46901259D01*
X125361000Y-47078741D01*
X125326376Y-47252812D01*
X125258456Y-47416784D01*
X125159853Y-47564354D01*
X125034354Y-47689853D01*
X124886784Y-47788456D01*
X124722812Y-47856376D01*
X124573512Y-47886073D01*
X124548742Y-47891000D01*
X124371258Y-47891000D01*
X124346488Y-47886073D01*
X124197188Y-47856376D01*
X124033216Y-47788456D01*
X123885646Y-47689853D01*
X123760147Y-47564354D01*
X123661544Y-47416784D01*
X123593624Y-47252812D01*
X123559000Y-47078741D01*
X123559000Y-46901259D01*
X123593624Y-46727188D01*
X123661544Y-46563216D01*
X123760147Y-46415646D01*
X123885646Y-46290147D01*
X124033216Y-46191544D01*
X124197188Y-46123624D01*
X124346488Y-46093927D01*
X124371258Y-46089000D01*
X124548742Y-46089000D01*
X124573512Y-46093927D01*
G37*
G36*
X122033512Y-46093927D02*
G01*
X122182812Y-46123624D01*
X122346784Y-46191544D01*
X122494354Y-46290147D01*
X122619853Y-46415646D01*
X122718456Y-46563216D01*
X122786376Y-46727188D01*
X122821000Y-46901259D01*
X122821000Y-47078741D01*
X122786376Y-47252812D01*
X122718456Y-47416784D01*
X122619853Y-47564354D01*
X122494354Y-47689853D01*
X122346784Y-47788456D01*
X122182812Y-47856376D01*
X122033512Y-47886073D01*
X122008742Y-47891000D01*
X121831258Y-47891000D01*
X121806488Y-47886073D01*
X121657188Y-47856376D01*
X121493216Y-47788456D01*
X121345646Y-47689853D01*
X121220147Y-47564354D01*
X121121544Y-47416784D01*
X121053624Y-47252812D01*
X121019000Y-47078741D01*
X121019000Y-46901259D01*
X121053624Y-46727188D01*
X121121544Y-46563216D01*
X121220147Y-46415646D01*
X121345646Y-46290147D01*
X121493216Y-46191544D01*
X121657188Y-46123624D01*
X121806488Y-46093927D01*
X121831258Y-46089000D01*
X122008742Y-46089000D01*
X122033512Y-46093927D01*
G37*
G36*
X122033512Y-43553927D02*
G01*
X122182812Y-43583624D01*
X122346784Y-43651544D01*
X122494354Y-43750147D01*
X122619853Y-43875646D01*
X122718456Y-44023216D01*
X122786376Y-44187188D01*
X122821000Y-44361259D01*
X122821000Y-44538741D01*
X122786376Y-44712812D01*
X122718456Y-44876784D01*
X122619853Y-45024354D01*
X122494354Y-45149853D01*
X122346784Y-45248456D01*
X122182812Y-45316376D01*
X122033512Y-45346073D01*
X122008742Y-45351000D01*
X121831258Y-45351000D01*
X121806488Y-45346073D01*
X121657188Y-45316376D01*
X121493216Y-45248456D01*
X121345646Y-45149853D01*
X121220147Y-45024354D01*
X121121544Y-44876784D01*
X121053624Y-44712812D01*
X121019000Y-44538741D01*
X121019000Y-44361259D01*
X121053624Y-44187188D01*
X121121544Y-44023216D01*
X121220147Y-43875646D01*
X121345646Y-43750147D01*
X121493216Y-43651544D01*
X121657188Y-43583624D01*
X121806488Y-43553927D01*
X121831258Y-43549000D01*
X122008742Y-43549000D01*
X122033512Y-43553927D01*
G37*
G36*
X124573512Y-43553927D02*
G01*
X124722812Y-43583624D01*
X124886784Y-43651544D01*
X125034354Y-43750147D01*
X125159853Y-43875646D01*
X125258456Y-44023216D01*
X125326376Y-44187188D01*
X125361000Y-44361259D01*
X125361000Y-44538741D01*
X125326376Y-44712812D01*
X125258456Y-44876784D01*
X125159853Y-45024354D01*
X125034354Y-45149853D01*
X124886784Y-45248456D01*
X124722812Y-45316376D01*
X124573512Y-45346073D01*
X124548742Y-45351000D01*
X124371258Y-45351000D01*
X124346488Y-45346073D01*
X124197188Y-45316376D01*
X124033216Y-45248456D01*
X123885646Y-45149853D01*
X123760147Y-45024354D01*
X123661544Y-44876784D01*
X123593624Y-44712812D01*
X123559000Y-44538741D01*
X123559000Y-44361259D01*
X123593624Y-44187188D01*
X123661544Y-44023216D01*
X123760147Y-43875646D01*
X123885646Y-43750147D01*
X124033216Y-43651544D01*
X124197188Y-43583624D01*
X124346488Y-43553927D01*
X124371258Y-43549000D01*
X124548742Y-43549000D01*
X124573512Y-43553927D01*
G37*
G36*
X122821000Y-42811000D02*
G01*
X121019000Y-42811000D01*
X121019000Y-41009000D01*
X122821000Y-41009000D01*
X122821000Y-42811000D01*
G37*
G36*
X124573512Y-41013927D02*
G01*
X124722812Y-41043624D01*
X124886784Y-41111544D01*
X125034354Y-41210147D01*
X125159853Y-41335646D01*
X125258456Y-41483216D01*
X125326376Y-41647188D01*
X125361000Y-41821259D01*
X125361000Y-41998741D01*
X125326376Y-42172812D01*
X125258456Y-42336784D01*
X125159853Y-42484354D01*
X125034354Y-42609853D01*
X124886784Y-42708456D01*
X124722812Y-42776376D01*
X124573512Y-42806073D01*
X124548742Y-42811000D01*
X124371258Y-42811000D01*
X124346488Y-42806073D01*
X124197188Y-42776376D01*
X124033216Y-42708456D01*
X123885646Y-42609853D01*
X123760147Y-42484354D01*
X123661544Y-42336784D01*
X123593624Y-42172812D01*
X123559000Y-41998741D01*
X123559000Y-41821259D01*
X123593624Y-41647188D01*
X123661544Y-41483216D01*
X123760147Y-41335646D01*
X123885646Y-41210147D01*
X124033216Y-41111544D01*
X124197188Y-41043624D01*
X124346488Y-41013927D01*
X124371258Y-41009000D01*
X124548742Y-41009000D01*
X124573512Y-41013927D01*
G37*
M02*
