G04 #@! TF.GenerationSoftware,KiCad,Pcbnew,(5.0.0)*
G04 #@! TF.CreationDate,2019-04-06T14:19:34-05:00*
G04 #@! TF.ProjectId,TemperaturePower,54656D7065726174757265506F776572,rev?*
G04 #@! TF.SameCoordinates,Original*
G04 #@! TF.FileFunction,Copper,L2,Bot,Signal*
G04 #@! TF.FilePolarity,Positive*
%FSLAX46Y46*%
G04 Gerber Fmt 4.6, Leading zero omitted, Abs format (unit mm)*
G04 Created by KiCad (PCBNEW (5.0.0)) date 04/06/19 14:19:34*
%MOMM*%
%LPD*%
G01*
G04 APERTURE LIST*
G04 #@! TA.AperFunction,ComponentPad*
%ADD10C,1.524000*%
G04 #@! TD*
G04 #@! TA.AperFunction,ComponentPad*
%ADD11C,1.500000*%
G04 #@! TD*
G04 #@! TA.AperFunction,ComponentPad*
%ADD12C,3.000000*%
G04 #@! TD*
G04 #@! TA.AperFunction,ComponentPad*
%ADD13C,1.700000*%
G04 #@! TD*
G04 #@! TA.AperFunction,ComponentPad*
%ADD14C,2.800000*%
G04 #@! TD*
G04 #@! TA.AperFunction,Conductor*
%ADD15C,0.254000*%
G04 #@! TD*
G04 APERTURE END LIST*
D10*
G04 #@! TO.P,J1,1*
G04 #@! TO.N,VCC*
X148500000Y-101500000D03*
D11*
G04 #@! TO.P,J1,2*
X145500000Y-101500000D03*
G04 #@! TO.P,J1,3*
X142500000Y-101500000D03*
G04 #@! TO.P,J1,4*
X139500000Y-101500000D03*
G04 #@! TO.P,J1,5*
X136500000Y-101500000D03*
G04 #@! TO.P,J1,6*
X133500000Y-101500000D03*
G04 #@! TO.P,J1,7*
X130500000Y-101500000D03*
G04 #@! TO.P,J1,8*
X127500000Y-101500000D03*
G04 #@! TO.P,J1,9*
X124500000Y-101500000D03*
G04 #@! TO.P,J1,10*
X121500000Y-101500000D03*
G04 #@! TO.P,J1,11*
X148500000Y-98500000D03*
G04 #@! TO.P,J1,12*
X145500000Y-98500000D03*
G04 #@! TO.P,J1,13*
X142500000Y-98500000D03*
G04 #@! TO.P,J1,14*
X139500000Y-98500000D03*
G04 #@! TO.P,J1,15*
X136500000Y-98500000D03*
G04 #@! TO.P,J1,16*
X133500000Y-98500000D03*
G04 #@! TO.P,J1,17*
X130500000Y-98500000D03*
G04 #@! TO.P,J1,18*
X127500000Y-98500000D03*
G04 #@! TO.P,J1,19*
X124500000Y-98500000D03*
G04 #@! TO.P,J1,20*
X121500000Y-98500000D03*
D12*
G04 #@! TO.P,J1,*
G04 #@! TO.N,*
X146350000Y-105820000D03*
X123650000Y-105820000D03*
G04 #@! TD*
D13*
G04 #@! TO.P,J2,1*
G04 #@! TO.N,GND*
X121000000Y-120000000D03*
G04 #@! TO.P,J2,2*
G04 #@! TO.N,VCC*
X121000000Y-117000000D03*
G04 #@! TD*
D12*
G04 #@! TO.P,J3,*
G04 #@! TO.N,*
X123650000Y-135320000D03*
X146350000Y-135320000D03*
D11*
G04 #@! TO.P,J3,20*
G04 #@! TO.N,GND*
X121500000Y-128000000D03*
G04 #@! TO.P,J3,19*
X124500000Y-128000000D03*
G04 #@! TO.P,J3,18*
X127500000Y-128000000D03*
G04 #@! TO.P,J3,17*
X130500000Y-128000000D03*
G04 #@! TO.P,J3,16*
X133500000Y-128000000D03*
G04 #@! TO.P,J3,15*
X136500000Y-128000000D03*
G04 #@! TO.P,J3,14*
X139500000Y-128000000D03*
G04 #@! TO.P,J3,13*
X142500000Y-128000000D03*
G04 #@! TO.P,J3,12*
X145500000Y-128000000D03*
G04 #@! TO.P,J3,11*
X148500000Y-128000000D03*
G04 #@! TO.P,J3,10*
X121500000Y-131000000D03*
G04 #@! TO.P,J3,9*
X124500000Y-131000000D03*
G04 #@! TO.P,J3,8*
X127500000Y-131000000D03*
G04 #@! TO.P,J3,7*
X130500000Y-131000000D03*
G04 #@! TO.P,J3,6*
X133500000Y-131000000D03*
G04 #@! TO.P,J3,5*
X136500000Y-131000000D03*
G04 #@! TO.P,J3,4*
X139500000Y-131000000D03*
G04 #@! TO.P,J3,3*
X142500000Y-131000000D03*
G04 #@! TO.P,J3,2*
X145500000Y-131000000D03*
D10*
G04 #@! TO.P,J3,1*
X148500000Y-131000000D03*
G04 #@! TD*
D14*
G04 #@! TO.P,VCC,1*
G04 #@! TO.N,VCC*
X135000000Y-114000000D03*
G04 #@! TD*
G04 #@! TO.P,GND,1*
G04 #@! TO.N,GND*
X135000000Y-123000000D03*
G04 #@! TD*
D15*
G04 #@! TO.N,GND*
G36*
X120715460Y-97325853D02*
X120325853Y-97715460D01*
X120115000Y-98224506D01*
X120115000Y-98775494D01*
X120325853Y-99284540D01*
X120715460Y-99674147D01*
X121224506Y-99885000D01*
X121775494Y-99885000D01*
X122284540Y-99674147D01*
X122674147Y-99284540D01*
X122885000Y-98775494D01*
X122885000Y-98224506D01*
X122674147Y-97715460D01*
X122284540Y-97325853D01*
X122004845Y-97210000D01*
X123995155Y-97210000D01*
X123715460Y-97325853D01*
X123325853Y-97715460D01*
X123115000Y-98224506D01*
X123115000Y-98775494D01*
X123325853Y-99284540D01*
X123715460Y-99674147D01*
X124224506Y-99885000D01*
X124775494Y-99885000D01*
X125284540Y-99674147D01*
X125674147Y-99284540D01*
X125885000Y-98775494D01*
X125885000Y-98224506D01*
X125674147Y-97715460D01*
X125284540Y-97325853D01*
X125004845Y-97210000D01*
X126995155Y-97210000D01*
X126715460Y-97325853D01*
X126325853Y-97715460D01*
X126115000Y-98224506D01*
X126115000Y-98775494D01*
X126325853Y-99284540D01*
X126715460Y-99674147D01*
X127224506Y-99885000D01*
X127775494Y-99885000D01*
X128284540Y-99674147D01*
X128674147Y-99284540D01*
X128885000Y-98775494D01*
X128885000Y-98224506D01*
X128674147Y-97715460D01*
X128284540Y-97325853D01*
X128004845Y-97210000D01*
X129995155Y-97210000D01*
X129715460Y-97325853D01*
X129325853Y-97715460D01*
X129115000Y-98224506D01*
X129115000Y-98775494D01*
X129325853Y-99284540D01*
X129715460Y-99674147D01*
X130224506Y-99885000D01*
X130775494Y-99885000D01*
X131284540Y-99674147D01*
X131674147Y-99284540D01*
X131885000Y-98775494D01*
X131885000Y-98224506D01*
X131674147Y-97715460D01*
X131284540Y-97325853D01*
X131004845Y-97210000D01*
X132995155Y-97210000D01*
X132715460Y-97325853D01*
X132325853Y-97715460D01*
X132115000Y-98224506D01*
X132115000Y-98775494D01*
X132325853Y-99284540D01*
X132715460Y-99674147D01*
X133224506Y-99885000D01*
X133775494Y-99885000D01*
X134284540Y-99674147D01*
X134674147Y-99284540D01*
X134885000Y-98775494D01*
X134885000Y-98224506D01*
X134674147Y-97715460D01*
X134284540Y-97325853D01*
X134004845Y-97210000D01*
X135995155Y-97210000D01*
X135715460Y-97325853D01*
X135325853Y-97715460D01*
X135115000Y-98224506D01*
X135115000Y-98775494D01*
X135325853Y-99284540D01*
X135715460Y-99674147D01*
X136224506Y-99885000D01*
X136775494Y-99885000D01*
X137284540Y-99674147D01*
X137674147Y-99284540D01*
X137885000Y-98775494D01*
X137885000Y-98224506D01*
X137674147Y-97715460D01*
X137284540Y-97325853D01*
X137004845Y-97210000D01*
X138995155Y-97210000D01*
X138715460Y-97325853D01*
X138325853Y-97715460D01*
X138115000Y-98224506D01*
X138115000Y-98775494D01*
X138325853Y-99284540D01*
X138715460Y-99674147D01*
X139224506Y-99885000D01*
X139775494Y-99885000D01*
X140284540Y-99674147D01*
X140674147Y-99284540D01*
X140885000Y-98775494D01*
X140885000Y-98224506D01*
X140674147Y-97715460D01*
X140284540Y-97325853D01*
X140004845Y-97210000D01*
X141995155Y-97210000D01*
X141715460Y-97325853D01*
X141325853Y-97715460D01*
X141115000Y-98224506D01*
X141115000Y-98775494D01*
X141325853Y-99284540D01*
X141715460Y-99674147D01*
X142224506Y-99885000D01*
X142775494Y-99885000D01*
X143284540Y-99674147D01*
X143674147Y-99284540D01*
X143885000Y-98775494D01*
X143885000Y-98224506D01*
X143674147Y-97715460D01*
X143284540Y-97325853D01*
X143004845Y-97210000D01*
X144995155Y-97210000D01*
X144715460Y-97325853D01*
X144325853Y-97715460D01*
X144115000Y-98224506D01*
X144115000Y-98775494D01*
X144325853Y-99284540D01*
X144715460Y-99674147D01*
X145224506Y-99885000D01*
X145775494Y-99885000D01*
X146284540Y-99674147D01*
X146674147Y-99284540D01*
X146885000Y-98775494D01*
X146885000Y-98224506D01*
X146674147Y-97715460D01*
X146284540Y-97325853D01*
X146004845Y-97210000D01*
X147995155Y-97210000D01*
X147715460Y-97325853D01*
X147325853Y-97715460D01*
X147115000Y-98224506D01*
X147115000Y-98775494D01*
X147325853Y-99284540D01*
X147715460Y-99674147D01*
X148224506Y-99885000D01*
X148775494Y-99885000D01*
X149284540Y-99674147D01*
X149674147Y-99284540D01*
X149885000Y-98775494D01*
X149885000Y-98224506D01*
X149674147Y-97715460D01*
X149284540Y-97325853D01*
X149004845Y-97210000D01*
X151790000Y-97210000D01*
X151790001Y-139790000D01*
X118210000Y-139790000D01*
X118210000Y-134895322D01*
X121515000Y-134895322D01*
X121515000Y-135744678D01*
X121840034Y-136529380D01*
X122440620Y-137129966D01*
X123225322Y-137455000D01*
X124074678Y-137455000D01*
X124859380Y-137129966D01*
X125459966Y-136529380D01*
X125785000Y-135744678D01*
X125785000Y-134895322D01*
X144215000Y-134895322D01*
X144215000Y-135744678D01*
X144540034Y-136529380D01*
X145140620Y-137129966D01*
X145925322Y-137455000D01*
X146774678Y-137455000D01*
X147559380Y-137129966D01*
X148159966Y-136529380D01*
X148485000Y-135744678D01*
X148485000Y-134895322D01*
X148159966Y-134110620D01*
X147559380Y-133510034D01*
X146774678Y-133185000D01*
X145925322Y-133185000D01*
X145140620Y-133510034D01*
X144540034Y-134110620D01*
X144215000Y-134895322D01*
X125785000Y-134895322D01*
X125459966Y-134110620D01*
X124859380Y-133510034D01*
X124074678Y-133185000D01*
X123225322Y-133185000D01*
X122440620Y-133510034D01*
X121840034Y-134110620D01*
X121515000Y-134895322D01*
X118210000Y-134895322D01*
X118210000Y-131971517D01*
X120708088Y-131971517D01*
X120776077Y-132212460D01*
X121295171Y-132397201D01*
X121845448Y-132369230D01*
X122223923Y-132212460D01*
X122291912Y-131971517D01*
X123708088Y-131971517D01*
X123776077Y-132212460D01*
X124295171Y-132397201D01*
X124845448Y-132369230D01*
X125223923Y-132212460D01*
X125291912Y-131971517D01*
X126708088Y-131971517D01*
X126776077Y-132212460D01*
X127295171Y-132397201D01*
X127845448Y-132369230D01*
X128223923Y-132212460D01*
X128291912Y-131971517D01*
X129708088Y-131971517D01*
X129776077Y-132212460D01*
X130295171Y-132397201D01*
X130845448Y-132369230D01*
X131223923Y-132212460D01*
X131291912Y-131971517D01*
X132708088Y-131971517D01*
X132776077Y-132212460D01*
X133295171Y-132397201D01*
X133845448Y-132369230D01*
X134223923Y-132212460D01*
X134291912Y-131971517D01*
X135708088Y-131971517D01*
X135776077Y-132212460D01*
X136295171Y-132397201D01*
X136845448Y-132369230D01*
X137223923Y-132212460D01*
X137291912Y-131971517D01*
X138708088Y-131971517D01*
X138776077Y-132212460D01*
X139295171Y-132397201D01*
X139845448Y-132369230D01*
X140223923Y-132212460D01*
X140291912Y-131971517D01*
X141708088Y-131971517D01*
X141776077Y-132212460D01*
X142295171Y-132397201D01*
X142845448Y-132369230D01*
X143223923Y-132212460D01*
X143291912Y-131971517D01*
X144708088Y-131971517D01*
X144776077Y-132212460D01*
X145295171Y-132397201D01*
X145845448Y-132369230D01*
X146223923Y-132212460D01*
X146289458Y-131980213D01*
X147699392Y-131980213D01*
X147768857Y-132222397D01*
X148292302Y-132409144D01*
X148847368Y-132381362D01*
X149231143Y-132222397D01*
X149300608Y-131980213D01*
X148500000Y-131179605D01*
X147699392Y-131980213D01*
X146289458Y-131980213D01*
X146291912Y-131971517D01*
X145500000Y-131179605D01*
X144708088Y-131971517D01*
X143291912Y-131971517D01*
X142500000Y-131179605D01*
X141708088Y-131971517D01*
X140291912Y-131971517D01*
X139500000Y-131179605D01*
X138708088Y-131971517D01*
X137291912Y-131971517D01*
X136500000Y-131179605D01*
X135708088Y-131971517D01*
X134291912Y-131971517D01*
X133500000Y-131179605D01*
X132708088Y-131971517D01*
X131291912Y-131971517D01*
X130500000Y-131179605D01*
X129708088Y-131971517D01*
X128291912Y-131971517D01*
X127500000Y-131179605D01*
X126708088Y-131971517D01*
X125291912Y-131971517D01*
X124500000Y-131179605D01*
X123708088Y-131971517D01*
X122291912Y-131971517D01*
X121500000Y-131179605D01*
X120708088Y-131971517D01*
X118210000Y-131971517D01*
X118210000Y-130795171D01*
X120102799Y-130795171D01*
X120130770Y-131345448D01*
X120287540Y-131723923D01*
X120528483Y-131791912D01*
X121320395Y-131000000D01*
X121679605Y-131000000D01*
X122471517Y-131791912D01*
X122712460Y-131723923D01*
X122897201Y-131204829D01*
X122876378Y-130795171D01*
X123102799Y-130795171D01*
X123130770Y-131345448D01*
X123287540Y-131723923D01*
X123528483Y-131791912D01*
X124320395Y-131000000D01*
X124679605Y-131000000D01*
X125471517Y-131791912D01*
X125712460Y-131723923D01*
X125897201Y-131204829D01*
X125876378Y-130795171D01*
X126102799Y-130795171D01*
X126130770Y-131345448D01*
X126287540Y-131723923D01*
X126528483Y-131791912D01*
X127320395Y-131000000D01*
X127679605Y-131000000D01*
X128471517Y-131791912D01*
X128712460Y-131723923D01*
X128897201Y-131204829D01*
X128876378Y-130795171D01*
X129102799Y-130795171D01*
X129130770Y-131345448D01*
X129287540Y-131723923D01*
X129528483Y-131791912D01*
X130320395Y-131000000D01*
X130679605Y-131000000D01*
X131471517Y-131791912D01*
X131712460Y-131723923D01*
X131897201Y-131204829D01*
X131876378Y-130795171D01*
X132102799Y-130795171D01*
X132130770Y-131345448D01*
X132287540Y-131723923D01*
X132528483Y-131791912D01*
X133320395Y-131000000D01*
X133679605Y-131000000D01*
X134471517Y-131791912D01*
X134712460Y-131723923D01*
X134897201Y-131204829D01*
X134876378Y-130795171D01*
X135102799Y-130795171D01*
X135130770Y-131345448D01*
X135287540Y-131723923D01*
X135528483Y-131791912D01*
X136320395Y-131000000D01*
X136679605Y-131000000D01*
X137471517Y-131791912D01*
X137712460Y-131723923D01*
X137897201Y-131204829D01*
X137876378Y-130795171D01*
X138102799Y-130795171D01*
X138130770Y-131345448D01*
X138287540Y-131723923D01*
X138528483Y-131791912D01*
X139320395Y-131000000D01*
X139679605Y-131000000D01*
X140471517Y-131791912D01*
X140712460Y-131723923D01*
X140897201Y-131204829D01*
X140876378Y-130795171D01*
X141102799Y-130795171D01*
X141130770Y-131345448D01*
X141287540Y-131723923D01*
X141528483Y-131791912D01*
X142320395Y-131000000D01*
X142679605Y-131000000D01*
X143471517Y-131791912D01*
X143712460Y-131723923D01*
X143897201Y-131204829D01*
X143876378Y-130795171D01*
X144102799Y-130795171D01*
X144130770Y-131345448D01*
X144287540Y-131723923D01*
X144528483Y-131791912D01*
X145320395Y-131000000D01*
X145679605Y-131000000D01*
X146471517Y-131791912D01*
X146712460Y-131723923D01*
X146897201Y-131204829D01*
X146876232Y-130792302D01*
X147090856Y-130792302D01*
X147118638Y-131347368D01*
X147277603Y-131731143D01*
X147519787Y-131800608D01*
X148320395Y-131000000D01*
X148679605Y-131000000D01*
X149480213Y-131800608D01*
X149722397Y-131731143D01*
X149909144Y-131207698D01*
X149881362Y-130652632D01*
X149722397Y-130268857D01*
X149480213Y-130199392D01*
X148679605Y-131000000D01*
X148320395Y-131000000D01*
X147519787Y-130199392D01*
X147277603Y-130268857D01*
X147090856Y-130792302D01*
X146876232Y-130792302D01*
X146869230Y-130654552D01*
X146712460Y-130276077D01*
X146471517Y-130208088D01*
X145679605Y-131000000D01*
X145320395Y-131000000D01*
X144528483Y-130208088D01*
X144287540Y-130276077D01*
X144102799Y-130795171D01*
X143876378Y-130795171D01*
X143869230Y-130654552D01*
X143712460Y-130276077D01*
X143471517Y-130208088D01*
X142679605Y-131000000D01*
X142320395Y-131000000D01*
X141528483Y-130208088D01*
X141287540Y-130276077D01*
X141102799Y-130795171D01*
X140876378Y-130795171D01*
X140869230Y-130654552D01*
X140712460Y-130276077D01*
X140471517Y-130208088D01*
X139679605Y-131000000D01*
X139320395Y-131000000D01*
X138528483Y-130208088D01*
X138287540Y-130276077D01*
X138102799Y-130795171D01*
X137876378Y-130795171D01*
X137869230Y-130654552D01*
X137712460Y-130276077D01*
X137471517Y-130208088D01*
X136679605Y-131000000D01*
X136320395Y-131000000D01*
X135528483Y-130208088D01*
X135287540Y-130276077D01*
X135102799Y-130795171D01*
X134876378Y-130795171D01*
X134869230Y-130654552D01*
X134712460Y-130276077D01*
X134471517Y-130208088D01*
X133679605Y-131000000D01*
X133320395Y-131000000D01*
X132528483Y-130208088D01*
X132287540Y-130276077D01*
X132102799Y-130795171D01*
X131876378Y-130795171D01*
X131869230Y-130654552D01*
X131712460Y-130276077D01*
X131471517Y-130208088D01*
X130679605Y-131000000D01*
X130320395Y-131000000D01*
X129528483Y-130208088D01*
X129287540Y-130276077D01*
X129102799Y-130795171D01*
X128876378Y-130795171D01*
X128869230Y-130654552D01*
X128712460Y-130276077D01*
X128471517Y-130208088D01*
X127679605Y-131000000D01*
X127320395Y-131000000D01*
X126528483Y-130208088D01*
X126287540Y-130276077D01*
X126102799Y-130795171D01*
X125876378Y-130795171D01*
X125869230Y-130654552D01*
X125712460Y-130276077D01*
X125471517Y-130208088D01*
X124679605Y-131000000D01*
X124320395Y-131000000D01*
X123528483Y-130208088D01*
X123287540Y-130276077D01*
X123102799Y-130795171D01*
X122876378Y-130795171D01*
X122869230Y-130654552D01*
X122712460Y-130276077D01*
X122471517Y-130208088D01*
X121679605Y-131000000D01*
X121320395Y-131000000D01*
X120528483Y-130208088D01*
X120287540Y-130276077D01*
X120102799Y-130795171D01*
X118210000Y-130795171D01*
X118210000Y-130028483D01*
X120708088Y-130028483D01*
X121500000Y-130820395D01*
X122291912Y-130028483D01*
X123708088Y-130028483D01*
X124500000Y-130820395D01*
X125291912Y-130028483D01*
X126708088Y-130028483D01*
X127500000Y-130820395D01*
X128291912Y-130028483D01*
X129708088Y-130028483D01*
X130500000Y-130820395D01*
X131291912Y-130028483D01*
X132708088Y-130028483D01*
X133500000Y-130820395D01*
X134291912Y-130028483D01*
X135708088Y-130028483D01*
X136500000Y-130820395D01*
X137291912Y-130028483D01*
X138708088Y-130028483D01*
X139500000Y-130820395D01*
X140291912Y-130028483D01*
X141708088Y-130028483D01*
X142500000Y-130820395D01*
X143291912Y-130028483D01*
X144708088Y-130028483D01*
X145500000Y-130820395D01*
X146291912Y-130028483D01*
X146289459Y-130019787D01*
X147699392Y-130019787D01*
X148500000Y-130820395D01*
X149300608Y-130019787D01*
X149231143Y-129777603D01*
X148707698Y-129590856D01*
X148152632Y-129618638D01*
X147768857Y-129777603D01*
X147699392Y-130019787D01*
X146289459Y-130019787D01*
X146223923Y-129787540D01*
X145704829Y-129602799D01*
X145154552Y-129630770D01*
X144776077Y-129787540D01*
X144708088Y-130028483D01*
X143291912Y-130028483D01*
X143223923Y-129787540D01*
X142704829Y-129602799D01*
X142154552Y-129630770D01*
X141776077Y-129787540D01*
X141708088Y-130028483D01*
X140291912Y-130028483D01*
X140223923Y-129787540D01*
X139704829Y-129602799D01*
X139154552Y-129630770D01*
X138776077Y-129787540D01*
X138708088Y-130028483D01*
X137291912Y-130028483D01*
X137223923Y-129787540D01*
X136704829Y-129602799D01*
X136154552Y-129630770D01*
X135776077Y-129787540D01*
X135708088Y-130028483D01*
X134291912Y-130028483D01*
X134223923Y-129787540D01*
X133704829Y-129602799D01*
X133154552Y-129630770D01*
X132776077Y-129787540D01*
X132708088Y-130028483D01*
X131291912Y-130028483D01*
X131223923Y-129787540D01*
X130704829Y-129602799D01*
X130154552Y-129630770D01*
X129776077Y-129787540D01*
X129708088Y-130028483D01*
X128291912Y-130028483D01*
X128223923Y-129787540D01*
X127704829Y-129602799D01*
X127154552Y-129630770D01*
X126776077Y-129787540D01*
X126708088Y-130028483D01*
X125291912Y-130028483D01*
X125223923Y-129787540D01*
X124704829Y-129602799D01*
X124154552Y-129630770D01*
X123776077Y-129787540D01*
X123708088Y-130028483D01*
X122291912Y-130028483D01*
X122223923Y-129787540D01*
X121704829Y-129602799D01*
X121154552Y-129630770D01*
X120776077Y-129787540D01*
X120708088Y-130028483D01*
X118210000Y-130028483D01*
X118210000Y-128971517D01*
X120708088Y-128971517D01*
X120776077Y-129212460D01*
X121295171Y-129397201D01*
X121845448Y-129369230D01*
X122223923Y-129212460D01*
X122291912Y-128971517D01*
X123708088Y-128971517D01*
X123776077Y-129212460D01*
X124295171Y-129397201D01*
X124845448Y-129369230D01*
X125223923Y-129212460D01*
X125291912Y-128971517D01*
X126708088Y-128971517D01*
X126776077Y-129212460D01*
X127295171Y-129397201D01*
X127845448Y-129369230D01*
X128223923Y-129212460D01*
X128291912Y-128971517D01*
X129708088Y-128971517D01*
X129776077Y-129212460D01*
X130295171Y-129397201D01*
X130845448Y-129369230D01*
X131223923Y-129212460D01*
X131291912Y-128971517D01*
X132708088Y-128971517D01*
X132776077Y-129212460D01*
X133295171Y-129397201D01*
X133845448Y-129369230D01*
X134223923Y-129212460D01*
X134291912Y-128971517D01*
X135708088Y-128971517D01*
X135776077Y-129212460D01*
X136295171Y-129397201D01*
X136845448Y-129369230D01*
X137223923Y-129212460D01*
X137291912Y-128971517D01*
X138708088Y-128971517D01*
X138776077Y-129212460D01*
X139295171Y-129397201D01*
X139845448Y-129369230D01*
X140223923Y-129212460D01*
X140291912Y-128971517D01*
X141708088Y-128971517D01*
X141776077Y-129212460D01*
X142295171Y-129397201D01*
X142845448Y-129369230D01*
X143223923Y-129212460D01*
X143291912Y-128971517D01*
X144708088Y-128971517D01*
X144776077Y-129212460D01*
X145295171Y-129397201D01*
X145845448Y-129369230D01*
X146223923Y-129212460D01*
X146291912Y-128971517D01*
X147708088Y-128971517D01*
X147776077Y-129212460D01*
X148295171Y-129397201D01*
X148845448Y-129369230D01*
X149223923Y-129212460D01*
X149291912Y-128971517D01*
X148500000Y-128179605D01*
X147708088Y-128971517D01*
X146291912Y-128971517D01*
X145500000Y-128179605D01*
X144708088Y-128971517D01*
X143291912Y-128971517D01*
X142500000Y-128179605D01*
X141708088Y-128971517D01*
X140291912Y-128971517D01*
X139500000Y-128179605D01*
X138708088Y-128971517D01*
X137291912Y-128971517D01*
X136500000Y-128179605D01*
X135708088Y-128971517D01*
X134291912Y-128971517D01*
X133500000Y-128179605D01*
X132708088Y-128971517D01*
X131291912Y-128971517D01*
X130500000Y-128179605D01*
X129708088Y-128971517D01*
X128291912Y-128971517D01*
X127500000Y-128179605D01*
X126708088Y-128971517D01*
X125291912Y-128971517D01*
X124500000Y-128179605D01*
X123708088Y-128971517D01*
X122291912Y-128971517D01*
X121500000Y-128179605D01*
X120708088Y-128971517D01*
X118210000Y-128971517D01*
X118210000Y-127795171D01*
X120102799Y-127795171D01*
X120130770Y-128345448D01*
X120287540Y-128723923D01*
X120528483Y-128791912D01*
X121320395Y-128000000D01*
X121679605Y-128000000D01*
X122471517Y-128791912D01*
X122712460Y-128723923D01*
X122897201Y-128204829D01*
X122876378Y-127795171D01*
X123102799Y-127795171D01*
X123130770Y-128345448D01*
X123287540Y-128723923D01*
X123528483Y-128791912D01*
X124320395Y-128000000D01*
X124679605Y-128000000D01*
X125471517Y-128791912D01*
X125712460Y-128723923D01*
X125897201Y-128204829D01*
X125876378Y-127795171D01*
X126102799Y-127795171D01*
X126130770Y-128345448D01*
X126287540Y-128723923D01*
X126528483Y-128791912D01*
X127320395Y-128000000D01*
X127679605Y-128000000D01*
X128471517Y-128791912D01*
X128712460Y-128723923D01*
X128897201Y-128204829D01*
X128876378Y-127795171D01*
X129102799Y-127795171D01*
X129130770Y-128345448D01*
X129287540Y-128723923D01*
X129528483Y-128791912D01*
X130320395Y-128000000D01*
X130679605Y-128000000D01*
X131471517Y-128791912D01*
X131712460Y-128723923D01*
X131897201Y-128204829D01*
X131876378Y-127795171D01*
X132102799Y-127795171D01*
X132130770Y-128345448D01*
X132287540Y-128723923D01*
X132528483Y-128791912D01*
X133320395Y-128000000D01*
X133679605Y-128000000D01*
X134471517Y-128791912D01*
X134712460Y-128723923D01*
X134897201Y-128204829D01*
X134876378Y-127795171D01*
X135102799Y-127795171D01*
X135130770Y-128345448D01*
X135287540Y-128723923D01*
X135528483Y-128791912D01*
X136320395Y-128000000D01*
X136679605Y-128000000D01*
X137471517Y-128791912D01*
X137712460Y-128723923D01*
X137897201Y-128204829D01*
X137876378Y-127795171D01*
X138102799Y-127795171D01*
X138130770Y-128345448D01*
X138287540Y-128723923D01*
X138528483Y-128791912D01*
X139320395Y-128000000D01*
X139679605Y-128000000D01*
X140471517Y-128791912D01*
X140712460Y-128723923D01*
X140897201Y-128204829D01*
X140876378Y-127795171D01*
X141102799Y-127795171D01*
X141130770Y-128345448D01*
X141287540Y-128723923D01*
X141528483Y-128791912D01*
X142320395Y-128000000D01*
X142679605Y-128000000D01*
X143471517Y-128791912D01*
X143712460Y-128723923D01*
X143897201Y-128204829D01*
X143876378Y-127795171D01*
X144102799Y-127795171D01*
X144130770Y-128345448D01*
X144287540Y-128723923D01*
X144528483Y-128791912D01*
X145320395Y-128000000D01*
X145679605Y-128000000D01*
X146471517Y-128791912D01*
X146712460Y-128723923D01*
X146897201Y-128204829D01*
X146876378Y-127795171D01*
X147102799Y-127795171D01*
X147130770Y-128345448D01*
X147287540Y-128723923D01*
X147528483Y-128791912D01*
X148320395Y-128000000D01*
X148679605Y-128000000D01*
X149471517Y-128791912D01*
X149712460Y-128723923D01*
X149897201Y-128204829D01*
X149869230Y-127654552D01*
X149712460Y-127276077D01*
X149471517Y-127208088D01*
X148679605Y-128000000D01*
X148320395Y-128000000D01*
X147528483Y-127208088D01*
X147287540Y-127276077D01*
X147102799Y-127795171D01*
X146876378Y-127795171D01*
X146869230Y-127654552D01*
X146712460Y-127276077D01*
X146471517Y-127208088D01*
X145679605Y-128000000D01*
X145320395Y-128000000D01*
X144528483Y-127208088D01*
X144287540Y-127276077D01*
X144102799Y-127795171D01*
X143876378Y-127795171D01*
X143869230Y-127654552D01*
X143712460Y-127276077D01*
X143471517Y-127208088D01*
X142679605Y-128000000D01*
X142320395Y-128000000D01*
X141528483Y-127208088D01*
X141287540Y-127276077D01*
X141102799Y-127795171D01*
X140876378Y-127795171D01*
X140869230Y-127654552D01*
X140712460Y-127276077D01*
X140471517Y-127208088D01*
X139679605Y-128000000D01*
X139320395Y-128000000D01*
X138528483Y-127208088D01*
X138287540Y-127276077D01*
X138102799Y-127795171D01*
X137876378Y-127795171D01*
X137869230Y-127654552D01*
X137712460Y-127276077D01*
X137471517Y-127208088D01*
X136679605Y-128000000D01*
X136320395Y-128000000D01*
X135528483Y-127208088D01*
X135287540Y-127276077D01*
X135102799Y-127795171D01*
X134876378Y-127795171D01*
X134869230Y-127654552D01*
X134712460Y-127276077D01*
X134471517Y-127208088D01*
X133679605Y-128000000D01*
X133320395Y-128000000D01*
X132528483Y-127208088D01*
X132287540Y-127276077D01*
X132102799Y-127795171D01*
X131876378Y-127795171D01*
X131869230Y-127654552D01*
X131712460Y-127276077D01*
X131471517Y-127208088D01*
X130679605Y-128000000D01*
X130320395Y-128000000D01*
X129528483Y-127208088D01*
X129287540Y-127276077D01*
X129102799Y-127795171D01*
X128876378Y-127795171D01*
X128869230Y-127654552D01*
X128712460Y-127276077D01*
X128471517Y-127208088D01*
X127679605Y-128000000D01*
X127320395Y-128000000D01*
X126528483Y-127208088D01*
X126287540Y-127276077D01*
X126102799Y-127795171D01*
X125876378Y-127795171D01*
X125869230Y-127654552D01*
X125712460Y-127276077D01*
X125471517Y-127208088D01*
X124679605Y-128000000D01*
X124320395Y-128000000D01*
X123528483Y-127208088D01*
X123287540Y-127276077D01*
X123102799Y-127795171D01*
X122876378Y-127795171D01*
X122869230Y-127654552D01*
X122712460Y-127276077D01*
X122471517Y-127208088D01*
X121679605Y-128000000D01*
X121320395Y-128000000D01*
X120528483Y-127208088D01*
X120287540Y-127276077D01*
X120102799Y-127795171D01*
X118210000Y-127795171D01*
X118210000Y-127028483D01*
X120708088Y-127028483D01*
X121500000Y-127820395D01*
X122291912Y-127028483D01*
X123708088Y-127028483D01*
X124500000Y-127820395D01*
X125291912Y-127028483D01*
X126708088Y-127028483D01*
X127500000Y-127820395D01*
X128291912Y-127028483D01*
X129708088Y-127028483D01*
X130500000Y-127820395D01*
X131291912Y-127028483D01*
X132708088Y-127028483D01*
X133500000Y-127820395D01*
X134291912Y-127028483D01*
X135708088Y-127028483D01*
X136500000Y-127820395D01*
X137291912Y-127028483D01*
X138708088Y-127028483D01*
X139500000Y-127820395D01*
X140291912Y-127028483D01*
X141708088Y-127028483D01*
X142500000Y-127820395D01*
X143291912Y-127028483D01*
X144708088Y-127028483D01*
X145500000Y-127820395D01*
X146291912Y-127028483D01*
X147708088Y-127028483D01*
X148500000Y-127820395D01*
X149291912Y-127028483D01*
X149223923Y-126787540D01*
X148704829Y-126602799D01*
X148154552Y-126630770D01*
X147776077Y-126787540D01*
X147708088Y-127028483D01*
X146291912Y-127028483D01*
X146223923Y-126787540D01*
X145704829Y-126602799D01*
X145154552Y-126630770D01*
X144776077Y-126787540D01*
X144708088Y-127028483D01*
X143291912Y-127028483D01*
X143223923Y-126787540D01*
X142704829Y-126602799D01*
X142154552Y-126630770D01*
X141776077Y-126787540D01*
X141708088Y-127028483D01*
X140291912Y-127028483D01*
X140223923Y-126787540D01*
X139704829Y-126602799D01*
X139154552Y-126630770D01*
X138776077Y-126787540D01*
X138708088Y-127028483D01*
X137291912Y-127028483D01*
X137223923Y-126787540D01*
X136704829Y-126602799D01*
X136154552Y-126630770D01*
X135776077Y-126787540D01*
X135708088Y-127028483D01*
X134291912Y-127028483D01*
X134223923Y-126787540D01*
X133704829Y-126602799D01*
X133154552Y-126630770D01*
X132776077Y-126787540D01*
X132708088Y-127028483D01*
X131291912Y-127028483D01*
X131223923Y-126787540D01*
X130704829Y-126602799D01*
X130154552Y-126630770D01*
X129776077Y-126787540D01*
X129708088Y-127028483D01*
X128291912Y-127028483D01*
X128223923Y-126787540D01*
X127704829Y-126602799D01*
X127154552Y-126630770D01*
X126776077Y-126787540D01*
X126708088Y-127028483D01*
X125291912Y-127028483D01*
X125223923Y-126787540D01*
X124704829Y-126602799D01*
X124154552Y-126630770D01*
X123776077Y-126787540D01*
X123708088Y-127028483D01*
X122291912Y-127028483D01*
X122223923Y-126787540D01*
X121704829Y-126602799D01*
X121154552Y-126630770D01*
X120776077Y-126787540D01*
X120708088Y-127028483D01*
X118210000Y-127028483D01*
X118210000Y-124441724D01*
X133737882Y-124441724D01*
X133885455Y-124750106D01*
X134640031Y-125043405D01*
X135449409Y-125025614D01*
X136114545Y-124750106D01*
X136262118Y-124441724D01*
X135000000Y-123179605D01*
X133737882Y-124441724D01*
X118210000Y-124441724D01*
X118210000Y-123966051D01*
X118320603Y-124076654D01*
X118787381Y-124270000D01*
X119292619Y-124270000D01*
X119759397Y-124076654D01*
X120116654Y-123719397D01*
X120310000Y-123252619D01*
X120310000Y-122747381D01*
X120265535Y-122640031D01*
X132956595Y-122640031D01*
X132974386Y-123449409D01*
X133249894Y-124114545D01*
X133558276Y-124262118D01*
X134820395Y-123000000D01*
X135179605Y-123000000D01*
X136441724Y-124262118D01*
X136750106Y-124114545D01*
X137043405Y-123359969D01*
X137025614Y-122550591D01*
X136750106Y-121885455D01*
X136441724Y-121737882D01*
X135179605Y-123000000D01*
X134820395Y-123000000D01*
X133558276Y-121737882D01*
X133249894Y-121885455D01*
X132956595Y-122640031D01*
X120265535Y-122640031D01*
X120116654Y-122280603D01*
X119759397Y-121923346D01*
X119292619Y-121730000D01*
X118787381Y-121730000D01*
X118320603Y-121923346D01*
X118210000Y-122033949D01*
X118210000Y-121558276D01*
X133737882Y-121558276D01*
X135000000Y-122820395D01*
X136262118Y-121558276D01*
X136114545Y-121249894D01*
X135359969Y-120956595D01*
X134550591Y-120974386D01*
X133885455Y-121249894D01*
X133737882Y-121558276D01*
X118210000Y-121558276D01*
X118210000Y-121043958D01*
X120135647Y-121043958D01*
X120215920Y-121295259D01*
X120771279Y-121496718D01*
X121361458Y-121470315D01*
X121784080Y-121295259D01*
X121864353Y-121043958D01*
X121000000Y-120179605D01*
X120135647Y-121043958D01*
X118210000Y-121043958D01*
X118210000Y-119771279D01*
X119503282Y-119771279D01*
X119529685Y-120361458D01*
X119704741Y-120784080D01*
X119956042Y-120864353D01*
X120820395Y-120000000D01*
X121179605Y-120000000D01*
X122043958Y-120864353D01*
X122295259Y-120784080D01*
X122496718Y-120228721D01*
X122470315Y-119638542D01*
X122295259Y-119215920D01*
X122043958Y-119135647D01*
X121179605Y-120000000D01*
X120820395Y-120000000D01*
X119956042Y-119135647D01*
X119704741Y-119215920D01*
X119503282Y-119771279D01*
X118210000Y-119771279D01*
X118210000Y-118956042D01*
X120135647Y-118956042D01*
X121000000Y-119820395D01*
X121864353Y-118956042D01*
X121784080Y-118704741D01*
X121228721Y-118503282D01*
X120638542Y-118529685D01*
X120215920Y-118704741D01*
X120135647Y-118956042D01*
X118210000Y-118956042D01*
X118210000Y-116704615D01*
X119515000Y-116704615D01*
X119515000Y-117295385D01*
X119741078Y-117841185D01*
X120158815Y-118258922D01*
X120704615Y-118485000D01*
X121295385Y-118485000D01*
X121841185Y-118258922D01*
X122258922Y-117841185D01*
X122485000Y-117295385D01*
X122485000Y-116704615D01*
X122258922Y-116158815D01*
X121841185Y-115741078D01*
X121295385Y-115515000D01*
X120704615Y-115515000D01*
X120158815Y-115741078D01*
X119741078Y-116158815D01*
X119515000Y-116704615D01*
X118210000Y-116704615D01*
X118210000Y-114966051D01*
X118320603Y-115076654D01*
X118787381Y-115270000D01*
X119292619Y-115270000D01*
X119759397Y-115076654D01*
X120116654Y-114719397D01*
X120310000Y-114252619D01*
X120310000Y-113747381D01*
X120246970Y-113595213D01*
X132965000Y-113595213D01*
X132965000Y-114404787D01*
X133274810Y-115152735D01*
X133847265Y-115725190D01*
X134595213Y-116035000D01*
X135404787Y-116035000D01*
X136152735Y-115725190D01*
X136725190Y-115152735D01*
X137035000Y-114404787D01*
X137035000Y-113595213D01*
X136725190Y-112847265D01*
X136152735Y-112274810D01*
X135404787Y-111965000D01*
X134595213Y-111965000D01*
X133847265Y-112274810D01*
X133274810Y-112847265D01*
X132965000Y-113595213D01*
X120246970Y-113595213D01*
X120116654Y-113280603D01*
X119759397Y-112923346D01*
X119292619Y-112730000D01*
X118787381Y-112730000D01*
X118320603Y-112923346D01*
X118210000Y-113033949D01*
X118210000Y-105395322D01*
X121515000Y-105395322D01*
X121515000Y-106244678D01*
X121840034Y-107029380D01*
X122440620Y-107629966D01*
X123225322Y-107955000D01*
X124074678Y-107955000D01*
X124859380Y-107629966D01*
X125459966Y-107029380D01*
X125785000Y-106244678D01*
X125785000Y-105395322D01*
X144215000Y-105395322D01*
X144215000Y-106244678D01*
X144540034Y-107029380D01*
X145140620Y-107629966D01*
X145925322Y-107955000D01*
X146774678Y-107955000D01*
X147559380Y-107629966D01*
X148159966Y-107029380D01*
X148485000Y-106244678D01*
X148485000Y-105395322D01*
X148159966Y-104610620D01*
X147559380Y-104010034D01*
X146774678Y-103685000D01*
X145925322Y-103685000D01*
X145140620Y-104010034D01*
X144540034Y-104610620D01*
X144215000Y-105395322D01*
X125785000Y-105395322D01*
X125459966Y-104610620D01*
X124859380Y-104010034D01*
X124074678Y-103685000D01*
X123225322Y-103685000D01*
X122440620Y-104010034D01*
X121840034Y-104610620D01*
X121515000Y-105395322D01*
X118210000Y-105395322D01*
X118210000Y-101224506D01*
X120115000Y-101224506D01*
X120115000Y-101775494D01*
X120325853Y-102284540D01*
X120715460Y-102674147D01*
X121224506Y-102885000D01*
X121775494Y-102885000D01*
X122284540Y-102674147D01*
X122674147Y-102284540D01*
X122885000Y-101775494D01*
X122885000Y-101224506D01*
X123115000Y-101224506D01*
X123115000Y-101775494D01*
X123325853Y-102284540D01*
X123715460Y-102674147D01*
X124224506Y-102885000D01*
X124775494Y-102885000D01*
X125284540Y-102674147D01*
X125674147Y-102284540D01*
X125885000Y-101775494D01*
X125885000Y-101224506D01*
X126115000Y-101224506D01*
X126115000Y-101775494D01*
X126325853Y-102284540D01*
X126715460Y-102674147D01*
X127224506Y-102885000D01*
X127775494Y-102885000D01*
X128284540Y-102674147D01*
X128674147Y-102284540D01*
X128885000Y-101775494D01*
X128885000Y-101224506D01*
X129115000Y-101224506D01*
X129115000Y-101775494D01*
X129325853Y-102284540D01*
X129715460Y-102674147D01*
X130224506Y-102885000D01*
X130775494Y-102885000D01*
X131284540Y-102674147D01*
X131674147Y-102284540D01*
X131885000Y-101775494D01*
X131885000Y-101224506D01*
X132115000Y-101224506D01*
X132115000Y-101775494D01*
X132325853Y-102284540D01*
X132715460Y-102674147D01*
X133224506Y-102885000D01*
X133775494Y-102885000D01*
X134284540Y-102674147D01*
X134674147Y-102284540D01*
X134885000Y-101775494D01*
X134885000Y-101224506D01*
X135115000Y-101224506D01*
X135115000Y-101775494D01*
X135325853Y-102284540D01*
X135715460Y-102674147D01*
X136224506Y-102885000D01*
X136775494Y-102885000D01*
X137284540Y-102674147D01*
X137674147Y-102284540D01*
X137885000Y-101775494D01*
X137885000Y-101224506D01*
X138115000Y-101224506D01*
X138115000Y-101775494D01*
X138325853Y-102284540D01*
X138715460Y-102674147D01*
X139224506Y-102885000D01*
X139775494Y-102885000D01*
X140284540Y-102674147D01*
X140674147Y-102284540D01*
X140885000Y-101775494D01*
X140885000Y-101224506D01*
X141115000Y-101224506D01*
X141115000Y-101775494D01*
X141325853Y-102284540D01*
X141715460Y-102674147D01*
X142224506Y-102885000D01*
X142775494Y-102885000D01*
X143284540Y-102674147D01*
X143674147Y-102284540D01*
X143885000Y-101775494D01*
X143885000Y-101224506D01*
X144115000Y-101224506D01*
X144115000Y-101775494D01*
X144325853Y-102284540D01*
X144715460Y-102674147D01*
X145224506Y-102885000D01*
X145775494Y-102885000D01*
X146284540Y-102674147D01*
X146674147Y-102284540D01*
X146885000Y-101775494D01*
X146885000Y-101224506D01*
X146884012Y-101222119D01*
X147103000Y-101222119D01*
X147103000Y-101777881D01*
X147315680Y-102291337D01*
X147708663Y-102684320D01*
X148222119Y-102897000D01*
X148777881Y-102897000D01*
X149291337Y-102684320D01*
X149684320Y-102291337D01*
X149897000Y-101777881D01*
X149897000Y-101222119D01*
X149684320Y-100708663D01*
X149291337Y-100315680D01*
X148777881Y-100103000D01*
X148222119Y-100103000D01*
X147708663Y-100315680D01*
X147315680Y-100708663D01*
X147103000Y-101222119D01*
X146884012Y-101222119D01*
X146674147Y-100715460D01*
X146284540Y-100325853D01*
X145775494Y-100115000D01*
X145224506Y-100115000D01*
X144715460Y-100325853D01*
X144325853Y-100715460D01*
X144115000Y-101224506D01*
X143885000Y-101224506D01*
X143674147Y-100715460D01*
X143284540Y-100325853D01*
X142775494Y-100115000D01*
X142224506Y-100115000D01*
X141715460Y-100325853D01*
X141325853Y-100715460D01*
X141115000Y-101224506D01*
X140885000Y-101224506D01*
X140674147Y-100715460D01*
X140284540Y-100325853D01*
X139775494Y-100115000D01*
X139224506Y-100115000D01*
X138715460Y-100325853D01*
X138325853Y-100715460D01*
X138115000Y-101224506D01*
X137885000Y-101224506D01*
X137674147Y-100715460D01*
X137284540Y-100325853D01*
X136775494Y-100115000D01*
X136224506Y-100115000D01*
X135715460Y-100325853D01*
X135325853Y-100715460D01*
X135115000Y-101224506D01*
X134885000Y-101224506D01*
X134674147Y-100715460D01*
X134284540Y-100325853D01*
X133775494Y-100115000D01*
X133224506Y-100115000D01*
X132715460Y-100325853D01*
X132325853Y-100715460D01*
X132115000Y-101224506D01*
X131885000Y-101224506D01*
X131674147Y-100715460D01*
X131284540Y-100325853D01*
X130775494Y-100115000D01*
X130224506Y-100115000D01*
X129715460Y-100325853D01*
X129325853Y-100715460D01*
X129115000Y-101224506D01*
X128885000Y-101224506D01*
X128674147Y-100715460D01*
X128284540Y-100325853D01*
X127775494Y-100115000D01*
X127224506Y-100115000D01*
X126715460Y-100325853D01*
X126325853Y-100715460D01*
X126115000Y-101224506D01*
X125885000Y-101224506D01*
X125674147Y-100715460D01*
X125284540Y-100325853D01*
X124775494Y-100115000D01*
X124224506Y-100115000D01*
X123715460Y-100325853D01*
X123325853Y-100715460D01*
X123115000Y-101224506D01*
X122885000Y-101224506D01*
X122674147Y-100715460D01*
X122284540Y-100325853D01*
X121775494Y-100115000D01*
X121224506Y-100115000D01*
X120715460Y-100325853D01*
X120325853Y-100715460D01*
X120115000Y-101224506D01*
X118210000Y-101224506D01*
X118210000Y-97210000D01*
X120995155Y-97210000D01*
X120715460Y-97325853D01*
X120715460Y-97325853D01*
G37*
X120715460Y-97325853D02*
X120325853Y-97715460D01*
X120115000Y-98224506D01*
X120115000Y-98775494D01*
X120325853Y-99284540D01*
X120715460Y-99674147D01*
X121224506Y-99885000D01*
X121775494Y-99885000D01*
X122284540Y-99674147D01*
X122674147Y-99284540D01*
X122885000Y-98775494D01*
X122885000Y-98224506D01*
X122674147Y-97715460D01*
X122284540Y-97325853D01*
X122004845Y-97210000D01*
X123995155Y-97210000D01*
X123715460Y-97325853D01*
X123325853Y-97715460D01*
X123115000Y-98224506D01*
X123115000Y-98775494D01*
X123325853Y-99284540D01*
X123715460Y-99674147D01*
X124224506Y-99885000D01*
X124775494Y-99885000D01*
X125284540Y-99674147D01*
X125674147Y-99284540D01*
X125885000Y-98775494D01*
X125885000Y-98224506D01*
X125674147Y-97715460D01*
X125284540Y-97325853D01*
X125004845Y-97210000D01*
X126995155Y-97210000D01*
X126715460Y-97325853D01*
X126325853Y-97715460D01*
X126115000Y-98224506D01*
X126115000Y-98775494D01*
X126325853Y-99284540D01*
X126715460Y-99674147D01*
X127224506Y-99885000D01*
X127775494Y-99885000D01*
X128284540Y-99674147D01*
X128674147Y-99284540D01*
X128885000Y-98775494D01*
X128885000Y-98224506D01*
X128674147Y-97715460D01*
X128284540Y-97325853D01*
X128004845Y-97210000D01*
X129995155Y-97210000D01*
X129715460Y-97325853D01*
X129325853Y-97715460D01*
X129115000Y-98224506D01*
X129115000Y-98775494D01*
X129325853Y-99284540D01*
X129715460Y-99674147D01*
X130224506Y-99885000D01*
X130775494Y-99885000D01*
X131284540Y-99674147D01*
X131674147Y-99284540D01*
X131885000Y-98775494D01*
X131885000Y-98224506D01*
X131674147Y-97715460D01*
X131284540Y-97325853D01*
X131004845Y-97210000D01*
X132995155Y-97210000D01*
X132715460Y-97325853D01*
X132325853Y-97715460D01*
X132115000Y-98224506D01*
X132115000Y-98775494D01*
X132325853Y-99284540D01*
X132715460Y-99674147D01*
X133224506Y-99885000D01*
X133775494Y-99885000D01*
X134284540Y-99674147D01*
X134674147Y-99284540D01*
X134885000Y-98775494D01*
X134885000Y-98224506D01*
X134674147Y-97715460D01*
X134284540Y-97325853D01*
X134004845Y-97210000D01*
X135995155Y-97210000D01*
X135715460Y-97325853D01*
X135325853Y-97715460D01*
X135115000Y-98224506D01*
X135115000Y-98775494D01*
X135325853Y-99284540D01*
X135715460Y-99674147D01*
X136224506Y-99885000D01*
X136775494Y-99885000D01*
X137284540Y-99674147D01*
X137674147Y-99284540D01*
X137885000Y-98775494D01*
X137885000Y-98224506D01*
X137674147Y-97715460D01*
X137284540Y-97325853D01*
X137004845Y-97210000D01*
X138995155Y-97210000D01*
X138715460Y-97325853D01*
X138325853Y-97715460D01*
X138115000Y-98224506D01*
X138115000Y-98775494D01*
X138325853Y-99284540D01*
X138715460Y-99674147D01*
X139224506Y-99885000D01*
X139775494Y-99885000D01*
X140284540Y-99674147D01*
X140674147Y-99284540D01*
X140885000Y-98775494D01*
X140885000Y-98224506D01*
X140674147Y-97715460D01*
X140284540Y-97325853D01*
X140004845Y-97210000D01*
X141995155Y-97210000D01*
X141715460Y-97325853D01*
X141325853Y-97715460D01*
X141115000Y-98224506D01*
X141115000Y-98775494D01*
X141325853Y-99284540D01*
X141715460Y-99674147D01*
X142224506Y-99885000D01*
X142775494Y-99885000D01*
X143284540Y-99674147D01*
X143674147Y-99284540D01*
X143885000Y-98775494D01*
X143885000Y-98224506D01*
X143674147Y-97715460D01*
X143284540Y-97325853D01*
X143004845Y-97210000D01*
X144995155Y-97210000D01*
X144715460Y-97325853D01*
X144325853Y-97715460D01*
X144115000Y-98224506D01*
X144115000Y-98775494D01*
X144325853Y-99284540D01*
X144715460Y-99674147D01*
X145224506Y-99885000D01*
X145775494Y-99885000D01*
X146284540Y-99674147D01*
X146674147Y-99284540D01*
X146885000Y-98775494D01*
X146885000Y-98224506D01*
X146674147Y-97715460D01*
X146284540Y-97325853D01*
X146004845Y-97210000D01*
X147995155Y-97210000D01*
X147715460Y-97325853D01*
X147325853Y-97715460D01*
X147115000Y-98224506D01*
X147115000Y-98775494D01*
X147325853Y-99284540D01*
X147715460Y-99674147D01*
X148224506Y-99885000D01*
X148775494Y-99885000D01*
X149284540Y-99674147D01*
X149674147Y-99284540D01*
X149885000Y-98775494D01*
X149885000Y-98224506D01*
X149674147Y-97715460D01*
X149284540Y-97325853D01*
X149004845Y-97210000D01*
X151790000Y-97210000D01*
X151790001Y-139790000D01*
X118210000Y-139790000D01*
X118210000Y-134895322D01*
X121515000Y-134895322D01*
X121515000Y-135744678D01*
X121840034Y-136529380D01*
X122440620Y-137129966D01*
X123225322Y-137455000D01*
X124074678Y-137455000D01*
X124859380Y-137129966D01*
X125459966Y-136529380D01*
X125785000Y-135744678D01*
X125785000Y-134895322D01*
X144215000Y-134895322D01*
X144215000Y-135744678D01*
X144540034Y-136529380D01*
X145140620Y-137129966D01*
X145925322Y-137455000D01*
X146774678Y-137455000D01*
X147559380Y-137129966D01*
X148159966Y-136529380D01*
X148485000Y-135744678D01*
X148485000Y-134895322D01*
X148159966Y-134110620D01*
X147559380Y-133510034D01*
X146774678Y-133185000D01*
X145925322Y-133185000D01*
X145140620Y-133510034D01*
X144540034Y-134110620D01*
X144215000Y-134895322D01*
X125785000Y-134895322D01*
X125459966Y-134110620D01*
X124859380Y-133510034D01*
X124074678Y-133185000D01*
X123225322Y-133185000D01*
X122440620Y-133510034D01*
X121840034Y-134110620D01*
X121515000Y-134895322D01*
X118210000Y-134895322D01*
X118210000Y-131971517D01*
X120708088Y-131971517D01*
X120776077Y-132212460D01*
X121295171Y-132397201D01*
X121845448Y-132369230D01*
X122223923Y-132212460D01*
X122291912Y-131971517D01*
X123708088Y-131971517D01*
X123776077Y-132212460D01*
X124295171Y-132397201D01*
X124845448Y-132369230D01*
X125223923Y-132212460D01*
X125291912Y-131971517D01*
X126708088Y-131971517D01*
X126776077Y-132212460D01*
X127295171Y-132397201D01*
X127845448Y-132369230D01*
X128223923Y-132212460D01*
X128291912Y-131971517D01*
X129708088Y-131971517D01*
X129776077Y-132212460D01*
X130295171Y-132397201D01*
X130845448Y-132369230D01*
X131223923Y-132212460D01*
X131291912Y-131971517D01*
X132708088Y-131971517D01*
X132776077Y-132212460D01*
X133295171Y-132397201D01*
X133845448Y-132369230D01*
X134223923Y-132212460D01*
X134291912Y-131971517D01*
X135708088Y-131971517D01*
X135776077Y-132212460D01*
X136295171Y-132397201D01*
X136845448Y-132369230D01*
X137223923Y-132212460D01*
X137291912Y-131971517D01*
X138708088Y-131971517D01*
X138776077Y-132212460D01*
X139295171Y-132397201D01*
X139845448Y-132369230D01*
X140223923Y-132212460D01*
X140291912Y-131971517D01*
X141708088Y-131971517D01*
X141776077Y-132212460D01*
X142295171Y-132397201D01*
X142845448Y-132369230D01*
X143223923Y-132212460D01*
X143291912Y-131971517D01*
X144708088Y-131971517D01*
X144776077Y-132212460D01*
X145295171Y-132397201D01*
X145845448Y-132369230D01*
X146223923Y-132212460D01*
X146289458Y-131980213D01*
X147699392Y-131980213D01*
X147768857Y-132222397D01*
X148292302Y-132409144D01*
X148847368Y-132381362D01*
X149231143Y-132222397D01*
X149300608Y-131980213D01*
X148500000Y-131179605D01*
X147699392Y-131980213D01*
X146289458Y-131980213D01*
X146291912Y-131971517D01*
X145500000Y-131179605D01*
X144708088Y-131971517D01*
X143291912Y-131971517D01*
X142500000Y-131179605D01*
X141708088Y-131971517D01*
X140291912Y-131971517D01*
X139500000Y-131179605D01*
X138708088Y-131971517D01*
X137291912Y-131971517D01*
X136500000Y-131179605D01*
X135708088Y-131971517D01*
X134291912Y-131971517D01*
X133500000Y-131179605D01*
X132708088Y-131971517D01*
X131291912Y-131971517D01*
X130500000Y-131179605D01*
X129708088Y-131971517D01*
X128291912Y-131971517D01*
X127500000Y-131179605D01*
X126708088Y-131971517D01*
X125291912Y-131971517D01*
X124500000Y-131179605D01*
X123708088Y-131971517D01*
X122291912Y-131971517D01*
X121500000Y-131179605D01*
X120708088Y-131971517D01*
X118210000Y-131971517D01*
X118210000Y-130795171D01*
X120102799Y-130795171D01*
X120130770Y-131345448D01*
X120287540Y-131723923D01*
X120528483Y-131791912D01*
X121320395Y-131000000D01*
X121679605Y-131000000D01*
X122471517Y-131791912D01*
X122712460Y-131723923D01*
X122897201Y-131204829D01*
X122876378Y-130795171D01*
X123102799Y-130795171D01*
X123130770Y-131345448D01*
X123287540Y-131723923D01*
X123528483Y-131791912D01*
X124320395Y-131000000D01*
X124679605Y-131000000D01*
X125471517Y-131791912D01*
X125712460Y-131723923D01*
X125897201Y-131204829D01*
X125876378Y-130795171D01*
X126102799Y-130795171D01*
X126130770Y-131345448D01*
X126287540Y-131723923D01*
X126528483Y-131791912D01*
X127320395Y-131000000D01*
X127679605Y-131000000D01*
X128471517Y-131791912D01*
X128712460Y-131723923D01*
X128897201Y-131204829D01*
X128876378Y-130795171D01*
X129102799Y-130795171D01*
X129130770Y-131345448D01*
X129287540Y-131723923D01*
X129528483Y-131791912D01*
X130320395Y-131000000D01*
X130679605Y-131000000D01*
X131471517Y-131791912D01*
X131712460Y-131723923D01*
X131897201Y-131204829D01*
X131876378Y-130795171D01*
X132102799Y-130795171D01*
X132130770Y-131345448D01*
X132287540Y-131723923D01*
X132528483Y-131791912D01*
X133320395Y-131000000D01*
X133679605Y-131000000D01*
X134471517Y-131791912D01*
X134712460Y-131723923D01*
X134897201Y-131204829D01*
X134876378Y-130795171D01*
X135102799Y-130795171D01*
X135130770Y-131345448D01*
X135287540Y-131723923D01*
X135528483Y-131791912D01*
X136320395Y-131000000D01*
X136679605Y-131000000D01*
X137471517Y-131791912D01*
X137712460Y-131723923D01*
X137897201Y-131204829D01*
X137876378Y-130795171D01*
X138102799Y-130795171D01*
X138130770Y-131345448D01*
X138287540Y-131723923D01*
X138528483Y-131791912D01*
X139320395Y-131000000D01*
X139679605Y-131000000D01*
X140471517Y-131791912D01*
X140712460Y-131723923D01*
X140897201Y-131204829D01*
X140876378Y-130795171D01*
X141102799Y-130795171D01*
X141130770Y-131345448D01*
X141287540Y-131723923D01*
X141528483Y-131791912D01*
X142320395Y-131000000D01*
X142679605Y-131000000D01*
X143471517Y-131791912D01*
X143712460Y-131723923D01*
X143897201Y-131204829D01*
X143876378Y-130795171D01*
X144102799Y-130795171D01*
X144130770Y-131345448D01*
X144287540Y-131723923D01*
X144528483Y-131791912D01*
X145320395Y-131000000D01*
X145679605Y-131000000D01*
X146471517Y-131791912D01*
X146712460Y-131723923D01*
X146897201Y-131204829D01*
X146876232Y-130792302D01*
X147090856Y-130792302D01*
X147118638Y-131347368D01*
X147277603Y-131731143D01*
X147519787Y-131800608D01*
X148320395Y-131000000D01*
X148679605Y-131000000D01*
X149480213Y-131800608D01*
X149722397Y-131731143D01*
X149909144Y-131207698D01*
X149881362Y-130652632D01*
X149722397Y-130268857D01*
X149480213Y-130199392D01*
X148679605Y-131000000D01*
X148320395Y-131000000D01*
X147519787Y-130199392D01*
X147277603Y-130268857D01*
X147090856Y-130792302D01*
X146876232Y-130792302D01*
X146869230Y-130654552D01*
X146712460Y-130276077D01*
X146471517Y-130208088D01*
X145679605Y-131000000D01*
X145320395Y-131000000D01*
X144528483Y-130208088D01*
X144287540Y-130276077D01*
X144102799Y-130795171D01*
X143876378Y-130795171D01*
X143869230Y-130654552D01*
X143712460Y-130276077D01*
X143471517Y-130208088D01*
X142679605Y-131000000D01*
X142320395Y-131000000D01*
X141528483Y-130208088D01*
X141287540Y-130276077D01*
X141102799Y-130795171D01*
X140876378Y-130795171D01*
X140869230Y-130654552D01*
X140712460Y-130276077D01*
X140471517Y-130208088D01*
X139679605Y-131000000D01*
X139320395Y-131000000D01*
X138528483Y-130208088D01*
X138287540Y-130276077D01*
X138102799Y-130795171D01*
X137876378Y-130795171D01*
X137869230Y-130654552D01*
X137712460Y-130276077D01*
X137471517Y-130208088D01*
X136679605Y-131000000D01*
X136320395Y-131000000D01*
X135528483Y-130208088D01*
X135287540Y-130276077D01*
X135102799Y-130795171D01*
X134876378Y-130795171D01*
X134869230Y-130654552D01*
X134712460Y-130276077D01*
X134471517Y-130208088D01*
X133679605Y-131000000D01*
X133320395Y-131000000D01*
X132528483Y-130208088D01*
X132287540Y-130276077D01*
X132102799Y-130795171D01*
X131876378Y-130795171D01*
X131869230Y-130654552D01*
X131712460Y-130276077D01*
X131471517Y-130208088D01*
X130679605Y-131000000D01*
X130320395Y-131000000D01*
X129528483Y-130208088D01*
X129287540Y-130276077D01*
X129102799Y-130795171D01*
X128876378Y-130795171D01*
X128869230Y-130654552D01*
X128712460Y-130276077D01*
X128471517Y-130208088D01*
X127679605Y-131000000D01*
X127320395Y-131000000D01*
X126528483Y-130208088D01*
X126287540Y-130276077D01*
X126102799Y-130795171D01*
X125876378Y-130795171D01*
X125869230Y-130654552D01*
X125712460Y-130276077D01*
X125471517Y-130208088D01*
X124679605Y-131000000D01*
X124320395Y-131000000D01*
X123528483Y-130208088D01*
X123287540Y-130276077D01*
X123102799Y-130795171D01*
X122876378Y-130795171D01*
X122869230Y-130654552D01*
X122712460Y-130276077D01*
X122471517Y-130208088D01*
X121679605Y-131000000D01*
X121320395Y-131000000D01*
X120528483Y-130208088D01*
X120287540Y-130276077D01*
X120102799Y-130795171D01*
X118210000Y-130795171D01*
X118210000Y-130028483D01*
X120708088Y-130028483D01*
X121500000Y-130820395D01*
X122291912Y-130028483D01*
X123708088Y-130028483D01*
X124500000Y-130820395D01*
X125291912Y-130028483D01*
X126708088Y-130028483D01*
X127500000Y-130820395D01*
X128291912Y-130028483D01*
X129708088Y-130028483D01*
X130500000Y-130820395D01*
X131291912Y-130028483D01*
X132708088Y-130028483D01*
X133500000Y-130820395D01*
X134291912Y-130028483D01*
X135708088Y-130028483D01*
X136500000Y-130820395D01*
X137291912Y-130028483D01*
X138708088Y-130028483D01*
X139500000Y-130820395D01*
X140291912Y-130028483D01*
X141708088Y-130028483D01*
X142500000Y-130820395D01*
X143291912Y-130028483D01*
X144708088Y-130028483D01*
X145500000Y-130820395D01*
X146291912Y-130028483D01*
X146289459Y-130019787D01*
X147699392Y-130019787D01*
X148500000Y-130820395D01*
X149300608Y-130019787D01*
X149231143Y-129777603D01*
X148707698Y-129590856D01*
X148152632Y-129618638D01*
X147768857Y-129777603D01*
X147699392Y-130019787D01*
X146289459Y-130019787D01*
X146223923Y-129787540D01*
X145704829Y-129602799D01*
X145154552Y-129630770D01*
X144776077Y-129787540D01*
X144708088Y-130028483D01*
X143291912Y-130028483D01*
X143223923Y-129787540D01*
X142704829Y-129602799D01*
X142154552Y-129630770D01*
X141776077Y-129787540D01*
X141708088Y-130028483D01*
X140291912Y-130028483D01*
X140223923Y-129787540D01*
X139704829Y-129602799D01*
X139154552Y-129630770D01*
X138776077Y-129787540D01*
X138708088Y-130028483D01*
X137291912Y-130028483D01*
X137223923Y-129787540D01*
X136704829Y-129602799D01*
X136154552Y-129630770D01*
X135776077Y-129787540D01*
X135708088Y-130028483D01*
X134291912Y-130028483D01*
X134223923Y-129787540D01*
X133704829Y-129602799D01*
X133154552Y-129630770D01*
X132776077Y-129787540D01*
X132708088Y-130028483D01*
X131291912Y-130028483D01*
X131223923Y-129787540D01*
X130704829Y-129602799D01*
X130154552Y-129630770D01*
X129776077Y-129787540D01*
X129708088Y-130028483D01*
X128291912Y-130028483D01*
X128223923Y-129787540D01*
X127704829Y-129602799D01*
X127154552Y-129630770D01*
X126776077Y-129787540D01*
X126708088Y-130028483D01*
X125291912Y-130028483D01*
X125223923Y-129787540D01*
X124704829Y-129602799D01*
X124154552Y-129630770D01*
X123776077Y-129787540D01*
X123708088Y-130028483D01*
X122291912Y-130028483D01*
X122223923Y-129787540D01*
X121704829Y-129602799D01*
X121154552Y-129630770D01*
X120776077Y-129787540D01*
X120708088Y-130028483D01*
X118210000Y-130028483D01*
X118210000Y-128971517D01*
X120708088Y-128971517D01*
X120776077Y-129212460D01*
X121295171Y-129397201D01*
X121845448Y-129369230D01*
X122223923Y-129212460D01*
X122291912Y-128971517D01*
X123708088Y-128971517D01*
X123776077Y-129212460D01*
X124295171Y-129397201D01*
X124845448Y-129369230D01*
X125223923Y-129212460D01*
X125291912Y-128971517D01*
X126708088Y-128971517D01*
X126776077Y-129212460D01*
X127295171Y-129397201D01*
X127845448Y-129369230D01*
X128223923Y-129212460D01*
X128291912Y-128971517D01*
X129708088Y-128971517D01*
X129776077Y-129212460D01*
X130295171Y-129397201D01*
X130845448Y-129369230D01*
X131223923Y-129212460D01*
X131291912Y-128971517D01*
X132708088Y-128971517D01*
X132776077Y-129212460D01*
X133295171Y-129397201D01*
X133845448Y-129369230D01*
X134223923Y-129212460D01*
X134291912Y-128971517D01*
X135708088Y-128971517D01*
X135776077Y-129212460D01*
X136295171Y-129397201D01*
X136845448Y-129369230D01*
X137223923Y-129212460D01*
X137291912Y-128971517D01*
X138708088Y-128971517D01*
X138776077Y-129212460D01*
X139295171Y-129397201D01*
X139845448Y-129369230D01*
X140223923Y-129212460D01*
X140291912Y-128971517D01*
X141708088Y-128971517D01*
X141776077Y-129212460D01*
X142295171Y-129397201D01*
X142845448Y-129369230D01*
X143223923Y-129212460D01*
X143291912Y-128971517D01*
X144708088Y-128971517D01*
X144776077Y-129212460D01*
X145295171Y-129397201D01*
X145845448Y-129369230D01*
X146223923Y-129212460D01*
X146291912Y-128971517D01*
X147708088Y-128971517D01*
X147776077Y-129212460D01*
X148295171Y-129397201D01*
X148845448Y-129369230D01*
X149223923Y-129212460D01*
X149291912Y-128971517D01*
X148500000Y-128179605D01*
X147708088Y-128971517D01*
X146291912Y-128971517D01*
X145500000Y-128179605D01*
X144708088Y-128971517D01*
X143291912Y-128971517D01*
X142500000Y-128179605D01*
X141708088Y-128971517D01*
X140291912Y-128971517D01*
X139500000Y-128179605D01*
X138708088Y-128971517D01*
X137291912Y-128971517D01*
X136500000Y-128179605D01*
X135708088Y-128971517D01*
X134291912Y-128971517D01*
X133500000Y-128179605D01*
X132708088Y-128971517D01*
X131291912Y-128971517D01*
X130500000Y-128179605D01*
X129708088Y-128971517D01*
X128291912Y-128971517D01*
X127500000Y-128179605D01*
X126708088Y-128971517D01*
X125291912Y-128971517D01*
X124500000Y-128179605D01*
X123708088Y-128971517D01*
X122291912Y-128971517D01*
X121500000Y-128179605D01*
X120708088Y-128971517D01*
X118210000Y-128971517D01*
X118210000Y-127795171D01*
X120102799Y-127795171D01*
X120130770Y-128345448D01*
X120287540Y-128723923D01*
X120528483Y-128791912D01*
X121320395Y-128000000D01*
X121679605Y-128000000D01*
X122471517Y-128791912D01*
X122712460Y-128723923D01*
X122897201Y-128204829D01*
X122876378Y-127795171D01*
X123102799Y-127795171D01*
X123130770Y-128345448D01*
X123287540Y-128723923D01*
X123528483Y-128791912D01*
X124320395Y-128000000D01*
X124679605Y-128000000D01*
X125471517Y-128791912D01*
X125712460Y-128723923D01*
X125897201Y-128204829D01*
X125876378Y-127795171D01*
X126102799Y-127795171D01*
X126130770Y-128345448D01*
X126287540Y-128723923D01*
X126528483Y-128791912D01*
X127320395Y-128000000D01*
X127679605Y-128000000D01*
X128471517Y-128791912D01*
X128712460Y-128723923D01*
X128897201Y-128204829D01*
X128876378Y-127795171D01*
X129102799Y-127795171D01*
X129130770Y-128345448D01*
X129287540Y-128723923D01*
X129528483Y-128791912D01*
X130320395Y-128000000D01*
X130679605Y-128000000D01*
X131471517Y-128791912D01*
X131712460Y-128723923D01*
X131897201Y-128204829D01*
X131876378Y-127795171D01*
X132102799Y-127795171D01*
X132130770Y-128345448D01*
X132287540Y-128723923D01*
X132528483Y-128791912D01*
X133320395Y-128000000D01*
X133679605Y-128000000D01*
X134471517Y-128791912D01*
X134712460Y-128723923D01*
X134897201Y-128204829D01*
X134876378Y-127795171D01*
X135102799Y-127795171D01*
X135130770Y-128345448D01*
X135287540Y-128723923D01*
X135528483Y-128791912D01*
X136320395Y-128000000D01*
X136679605Y-128000000D01*
X137471517Y-128791912D01*
X137712460Y-128723923D01*
X137897201Y-128204829D01*
X137876378Y-127795171D01*
X138102799Y-127795171D01*
X138130770Y-128345448D01*
X138287540Y-128723923D01*
X138528483Y-128791912D01*
X139320395Y-128000000D01*
X139679605Y-128000000D01*
X140471517Y-128791912D01*
X140712460Y-128723923D01*
X140897201Y-128204829D01*
X140876378Y-127795171D01*
X141102799Y-127795171D01*
X141130770Y-128345448D01*
X141287540Y-128723923D01*
X141528483Y-128791912D01*
X142320395Y-128000000D01*
X142679605Y-128000000D01*
X143471517Y-128791912D01*
X143712460Y-128723923D01*
X143897201Y-128204829D01*
X143876378Y-127795171D01*
X144102799Y-127795171D01*
X144130770Y-128345448D01*
X144287540Y-128723923D01*
X144528483Y-128791912D01*
X145320395Y-128000000D01*
X145679605Y-128000000D01*
X146471517Y-128791912D01*
X146712460Y-128723923D01*
X146897201Y-128204829D01*
X146876378Y-127795171D01*
X147102799Y-127795171D01*
X147130770Y-128345448D01*
X147287540Y-128723923D01*
X147528483Y-128791912D01*
X148320395Y-128000000D01*
X148679605Y-128000000D01*
X149471517Y-128791912D01*
X149712460Y-128723923D01*
X149897201Y-128204829D01*
X149869230Y-127654552D01*
X149712460Y-127276077D01*
X149471517Y-127208088D01*
X148679605Y-128000000D01*
X148320395Y-128000000D01*
X147528483Y-127208088D01*
X147287540Y-127276077D01*
X147102799Y-127795171D01*
X146876378Y-127795171D01*
X146869230Y-127654552D01*
X146712460Y-127276077D01*
X146471517Y-127208088D01*
X145679605Y-128000000D01*
X145320395Y-128000000D01*
X144528483Y-127208088D01*
X144287540Y-127276077D01*
X144102799Y-127795171D01*
X143876378Y-127795171D01*
X143869230Y-127654552D01*
X143712460Y-127276077D01*
X143471517Y-127208088D01*
X142679605Y-128000000D01*
X142320395Y-128000000D01*
X141528483Y-127208088D01*
X141287540Y-127276077D01*
X141102799Y-127795171D01*
X140876378Y-127795171D01*
X140869230Y-127654552D01*
X140712460Y-127276077D01*
X140471517Y-127208088D01*
X139679605Y-128000000D01*
X139320395Y-128000000D01*
X138528483Y-127208088D01*
X138287540Y-127276077D01*
X138102799Y-127795171D01*
X137876378Y-127795171D01*
X137869230Y-127654552D01*
X137712460Y-127276077D01*
X137471517Y-127208088D01*
X136679605Y-128000000D01*
X136320395Y-128000000D01*
X135528483Y-127208088D01*
X135287540Y-127276077D01*
X135102799Y-127795171D01*
X134876378Y-127795171D01*
X134869230Y-127654552D01*
X134712460Y-127276077D01*
X134471517Y-127208088D01*
X133679605Y-128000000D01*
X133320395Y-128000000D01*
X132528483Y-127208088D01*
X132287540Y-127276077D01*
X132102799Y-127795171D01*
X131876378Y-127795171D01*
X131869230Y-127654552D01*
X131712460Y-127276077D01*
X131471517Y-127208088D01*
X130679605Y-128000000D01*
X130320395Y-128000000D01*
X129528483Y-127208088D01*
X129287540Y-127276077D01*
X129102799Y-127795171D01*
X128876378Y-127795171D01*
X128869230Y-127654552D01*
X128712460Y-127276077D01*
X128471517Y-127208088D01*
X127679605Y-128000000D01*
X127320395Y-128000000D01*
X126528483Y-127208088D01*
X126287540Y-127276077D01*
X126102799Y-127795171D01*
X125876378Y-127795171D01*
X125869230Y-127654552D01*
X125712460Y-127276077D01*
X125471517Y-127208088D01*
X124679605Y-128000000D01*
X124320395Y-128000000D01*
X123528483Y-127208088D01*
X123287540Y-127276077D01*
X123102799Y-127795171D01*
X122876378Y-127795171D01*
X122869230Y-127654552D01*
X122712460Y-127276077D01*
X122471517Y-127208088D01*
X121679605Y-128000000D01*
X121320395Y-128000000D01*
X120528483Y-127208088D01*
X120287540Y-127276077D01*
X120102799Y-127795171D01*
X118210000Y-127795171D01*
X118210000Y-127028483D01*
X120708088Y-127028483D01*
X121500000Y-127820395D01*
X122291912Y-127028483D01*
X123708088Y-127028483D01*
X124500000Y-127820395D01*
X125291912Y-127028483D01*
X126708088Y-127028483D01*
X127500000Y-127820395D01*
X128291912Y-127028483D01*
X129708088Y-127028483D01*
X130500000Y-127820395D01*
X131291912Y-127028483D01*
X132708088Y-127028483D01*
X133500000Y-127820395D01*
X134291912Y-127028483D01*
X135708088Y-127028483D01*
X136500000Y-127820395D01*
X137291912Y-127028483D01*
X138708088Y-127028483D01*
X139500000Y-127820395D01*
X140291912Y-127028483D01*
X141708088Y-127028483D01*
X142500000Y-127820395D01*
X143291912Y-127028483D01*
X144708088Y-127028483D01*
X145500000Y-127820395D01*
X146291912Y-127028483D01*
X147708088Y-127028483D01*
X148500000Y-127820395D01*
X149291912Y-127028483D01*
X149223923Y-126787540D01*
X148704829Y-126602799D01*
X148154552Y-126630770D01*
X147776077Y-126787540D01*
X147708088Y-127028483D01*
X146291912Y-127028483D01*
X146223923Y-126787540D01*
X145704829Y-126602799D01*
X145154552Y-126630770D01*
X144776077Y-126787540D01*
X144708088Y-127028483D01*
X143291912Y-127028483D01*
X143223923Y-126787540D01*
X142704829Y-126602799D01*
X142154552Y-126630770D01*
X141776077Y-126787540D01*
X141708088Y-127028483D01*
X140291912Y-127028483D01*
X140223923Y-126787540D01*
X139704829Y-126602799D01*
X139154552Y-126630770D01*
X138776077Y-126787540D01*
X138708088Y-127028483D01*
X137291912Y-127028483D01*
X137223923Y-126787540D01*
X136704829Y-126602799D01*
X136154552Y-126630770D01*
X135776077Y-126787540D01*
X135708088Y-127028483D01*
X134291912Y-127028483D01*
X134223923Y-126787540D01*
X133704829Y-126602799D01*
X133154552Y-126630770D01*
X132776077Y-126787540D01*
X132708088Y-127028483D01*
X131291912Y-127028483D01*
X131223923Y-126787540D01*
X130704829Y-126602799D01*
X130154552Y-126630770D01*
X129776077Y-126787540D01*
X129708088Y-127028483D01*
X128291912Y-127028483D01*
X128223923Y-126787540D01*
X127704829Y-126602799D01*
X127154552Y-126630770D01*
X126776077Y-126787540D01*
X126708088Y-127028483D01*
X125291912Y-127028483D01*
X125223923Y-126787540D01*
X124704829Y-126602799D01*
X124154552Y-126630770D01*
X123776077Y-126787540D01*
X123708088Y-127028483D01*
X122291912Y-127028483D01*
X122223923Y-126787540D01*
X121704829Y-126602799D01*
X121154552Y-126630770D01*
X120776077Y-126787540D01*
X120708088Y-127028483D01*
X118210000Y-127028483D01*
X118210000Y-124441724D01*
X133737882Y-124441724D01*
X133885455Y-124750106D01*
X134640031Y-125043405D01*
X135449409Y-125025614D01*
X136114545Y-124750106D01*
X136262118Y-124441724D01*
X135000000Y-123179605D01*
X133737882Y-124441724D01*
X118210000Y-124441724D01*
X118210000Y-123966051D01*
X118320603Y-124076654D01*
X118787381Y-124270000D01*
X119292619Y-124270000D01*
X119759397Y-124076654D01*
X120116654Y-123719397D01*
X120310000Y-123252619D01*
X120310000Y-122747381D01*
X120265535Y-122640031D01*
X132956595Y-122640031D01*
X132974386Y-123449409D01*
X133249894Y-124114545D01*
X133558276Y-124262118D01*
X134820395Y-123000000D01*
X135179605Y-123000000D01*
X136441724Y-124262118D01*
X136750106Y-124114545D01*
X137043405Y-123359969D01*
X137025614Y-122550591D01*
X136750106Y-121885455D01*
X136441724Y-121737882D01*
X135179605Y-123000000D01*
X134820395Y-123000000D01*
X133558276Y-121737882D01*
X133249894Y-121885455D01*
X132956595Y-122640031D01*
X120265535Y-122640031D01*
X120116654Y-122280603D01*
X119759397Y-121923346D01*
X119292619Y-121730000D01*
X118787381Y-121730000D01*
X118320603Y-121923346D01*
X118210000Y-122033949D01*
X118210000Y-121558276D01*
X133737882Y-121558276D01*
X135000000Y-122820395D01*
X136262118Y-121558276D01*
X136114545Y-121249894D01*
X135359969Y-120956595D01*
X134550591Y-120974386D01*
X133885455Y-121249894D01*
X133737882Y-121558276D01*
X118210000Y-121558276D01*
X118210000Y-121043958D01*
X120135647Y-121043958D01*
X120215920Y-121295259D01*
X120771279Y-121496718D01*
X121361458Y-121470315D01*
X121784080Y-121295259D01*
X121864353Y-121043958D01*
X121000000Y-120179605D01*
X120135647Y-121043958D01*
X118210000Y-121043958D01*
X118210000Y-119771279D01*
X119503282Y-119771279D01*
X119529685Y-120361458D01*
X119704741Y-120784080D01*
X119956042Y-120864353D01*
X120820395Y-120000000D01*
X121179605Y-120000000D01*
X122043958Y-120864353D01*
X122295259Y-120784080D01*
X122496718Y-120228721D01*
X122470315Y-119638542D01*
X122295259Y-119215920D01*
X122043958Y-119135647D01*
X121179605Y-120000000D01*
X120820395Y-120000000D01*
X119956042Y-119135647D01*
X119704741Y-119215920D01*
X119503282Y-119771279D01*
X118210000Y-119771279D01*
X118210000Y-118956042D01*
X120135647Y-118956042D01*
X121000000Y-119820395D01*
X121864353Y-118956042D01*
X121784080Y-118704741D01*
X121228721Y-118503282D01*
X120638542Y-118529685D01*
X120215920Y-118704741D01*
X120135647Y-118956042D01*
X118210000Y-118956042D01*
X118210000Y-116704615D01*
X119515000Y-116704615D01*
X119515000Y-117295385D01*
X119741078Y-117841185D01*
X120158815Y-118258922D01*
X120704615Y-118485000D01*
X121295385Y-118485000D01*
X121841185Y-118258922D01*
X122258922Y-117841185D01*
X122485000Y-117295385D01*
X122485000Y-116704615D01*
X122258922Y-116158815D01*
X121841185Y-115741078D01*
X121295385Y-115515000D01*
X120704615Y-115515000D01*
X120158815Y-115741078D01*
X119741078Y-116158815D01*
X119515000Y-116704615D01*
X118210000Y-116704615D01*
X118210000Y-114966051D01*
X118320603Y-115076654D01*
X118787381Y-115270000D01*
X119292619Y-115270000D01*
X119759397Y-115076654D01*
X120116654Y-114719397D01*
X120310000Y-114252619D01*
X120310000Y-113747381D01*
X120246970Y-113595213D01*
X132965000Y-113595213D01*
X132965000Y-114404787D01*
X133274810Y-115152735D01*
X133847265Y-115725190D01*
X134595213Y-116035000D01*
X135404787Y-116035000D01*
X136152735Y-115725190D01*
X136725190Y-115152735D01*
X137035000Y-114404787D01*
X137035000Y-113595213D01*
X136725190Y-112847265D01*
X136152735Y-112274810D01*
X135404787Y-111965000D01*
X134595213Y-111965000D01*
X133847265Y-112274810D01*
X133274810Y-112847265D01*
X132965000Y-113595213D01*
X120246970Y-113595213D01*
X120116654Y-113280603D01*
X119759397Y-112923346D01*
X119292619Y-112730000D01*
X118787381Y-112730000D01*
X118320603Y-112923346D01*
X118210000Y-113033949D01*
X118210000Y-105395322D01*
X121515000Y-105395322D01*
X121515000Y-106244678D01*
X121840034Y-107029380D01*
X122440620Y-107629966D01*
X123225322Y-107955000D01*
X124074678Y-107955000D01*
X124859380Y-107629966D01*
X125459966Y-107029380D01*
X125785000Y-106244678D01*
X125785000Y-105395322D01*
X144215000Y-105395322D01*
X144215000Y-106244678D01*
X144540034Y-107029380D01*
X145140620Y-107629966D01*
X145925322Y-107955000D01*
X146774678Y-107955000D01*
X147559380Y-107629966D01*
X148159966Y-107029380D01*
X148485000Y-106244678D01*
X148485000Y-105395322D01*
X148159966Y-104610620D01*
X147559380Y-104010034D01*
X146774678Y-103685000D01*
X145925322Y-103685000D01*
X145140620Y-104010034D01*
X144540034Y-104610620D01*
X144215000Y-105395322D01*
X125785000Y-105395322D01*
X125459966Y-104610620D01*
X124859380Y-104010034D01*
X124074678Y-103685000D01*
X123225322Y-103685000D01*
X122440620Y-104010034D01*
X121840034Y-104610620D01*
X121515000Y-105395322D01*
X118210000Y-105395322D01*
X118210000Y-101224506D01*
X120115000Y-101224506D01*
X120115000Y-101775494D01*
X120325853Y-102284540D01*
X120715460Y-102674147D01*
X121224506Y-102885000D01*
X121775494Y-102885000D01*
X122284540Y-102674147D01*
X122674147Y-102284540D01*
X122885000Y-101775494D01*
X122885000Y-101224506D01*
X123115000Y-101224506D01*
X123115000Y-101775494D01*
X123325853Y-102284540D01*
X123715460Y-102674147D01*
X124224506Y-102885000D01*
X124775494Y-102885000D01*
X125284540Y-102674147D01*
X125674147Y-102284540D01*
X125885000Y-101775494D01*
X125885000Y-101224506D01*
X126115000Y-101224506D01*
X126115000Y-101775494D01*
X126325853Y-102284540D01*
X126715460Y-102674147D01*
X127224506Y-102885000D01*
X127775494Y-102885000D01*
X128284540Y-102674147D01*
X128674147Y-102284540D01*
X128885000Y-101775494D01*
X128885000Y-101224506D01*
X129115000Y-101224506D01*
X129115000Y-101775494D01*
X129325853Y-102284540D01*
X129715460Y-102674147D01*
X130224506Y-102885000D01*
X130775494Y-102885000D01*
X131284540Y-102674147D01*
X131674147Y-102284540D01*
X131885000Y-101775494D01*
X131885000Y-101224506D01*
X132115000Y-101224506D01*
X132115000Y-101775494D01*
X132325853Y-102284540D01*
X132715460Y-102674147D01*
X133224506Y-102885000D01*
X133775494Y-102885000D01*
X134284540Y-102674147D01*
X134674147Y-102284540D01*
X134885000Y-101775494D01*
X134885000Y-101224506D01*
X135115000Y-101224506D01*
X135115000Y-101775494D01*
X135325853Y-102284540D01*
X135715460Y-102674147D01*
X136224506Y-102885000D01*
X136775494Y-102885000D01*
X137284540Y-102674147D01*
X137674147Y-102284540D01*
X137885000Y-101775494D01*
X137885000Y-101224506D01*
X138115000Y-101224506D01*
X138115000Y-101775494D01*
X138325853Y-102284540D01*
X138715460Y-102674147D01*
X139224506Y-102885000D01*
X139775494Y-102885000D01*
X140284540Y-102674147D01*
X140674147Y-102284540D01*
X140885000Y-101775494D01*
X140885000Y-101224506D01*
X141115000Y-101224506D01*
X141115000Y-101775494D01*
X141325853Y-102284540D01*
X141715460Y-102674147D01*
X142224506Y-102885000D01*
X142775494Y-102885000D01*
X143284540Y-102674147D01*
X143674147Y-102284540D01*
X143885000Y-101775494D01*
X143885000Y-101224506D01*
X144115000Y-101224506D01*
X144115000Y-101775494D01*
X144325853Y-102284540D01*
X144715460Y-102674147D01*
X145224506Y-102885000D01*
X145775494Y-102885000D01*
X146284540Y-102674147D01*
X146674147Y-102284540D01*
X146885000Y-101775494D01*
X146885000Y-101224506D01*
X146884012Y-101222119D01*
X147103000Y-101222119D01*
X147103000Y-101777881D01*
X147315680Y-102291337D01*
X147708663Y-102684320D01*
X148222119Y-102897000D01*
X148777881Y-102897000D01*
X149291337Y-102684320D01*
X149684320Y-102291337D01*
X149897000Y-101777881D01*
X149897000Y-101222119D01*
X149684320Y-100708663D01*
X149291337Y-100315680D01*
X148777881Y-100103000D01*
X148222119Y-100103000D01*
X147708663Y-100315680D01*
X147315680Y-100708663D01*
X147103000Y-101222119D01*
X146884012Y-101222119D01*
X146674147Y-100715460D01*
X146284540Y-100325853D01*
X145775494Y-100115000D01*
X145224506Y-100115000D01*
X144715460Y-100325853D01*
X144325853Y-100715460D01*
X144115000Y-101224506D01*
X143885000Y-101224506D01*
X143674147Y-100715460D01*
X143284540Y-100325853D01*
X142775494Y-100115000D01*
X142224506Y-100115000D01*
X141715460Y-100325853D01*
X141325853Y-100715460D01*
X141115000Y-101224506D01*
X140885000Y-101224506D01*
X140674147Y-100715460D01*
X140284540Y-100325853D01*
X139775494Y-100115000D01*
X139224506Y-100115000D01*
X138715460Y-100325853D01*
X138325853Y-100715460D01*
X138115000Y-101224506D01*
X137885000Y-101224506D01*
X137674147Y-100715460D01*
X137284540Y-100325853D01*
X136775494Y-100115000D01*
X136224506Y-100115000D01*
X135715460Y-100325853D01*
X135325853Y-100715460D01*
X135115000Y-101224506D01*
X134885000Y-101224506D01*
X134674147Y-100715460D01*
X134284540Y-100325853D01*
X133775494Y-100115000D01*
X133224506Y-100115000D01*
X132715460Y-100325853D01*
X132325853Y-100715460D01*
X132115000Y-101224506D01*
X131885000Y-101224506D01*
X131674147Y-100715460D01*
X131284540Y-100325853D01*
X130775494Y-100115000D01*
X130224506Y-100115000D01*
X129715460Y-100325853D01*
X129325853Y-100715460D01*
X129115000Y-101224506D01*
X128885000Y-101224506D01*
X128674147Y-100715460D01*
X128284540Y-100325853D01*
X127775494Y-100115000D01*
X127224506Y-100115000D01*
X126715460Y-100325853D01*
X126325853Y-100715460D01*
X126115000Y-101224506D01*
X125885000Y-101224506D01*
X125674147Y-100715460D01*
X125284540Y-100325853D01*
X124775494Y-100115000D01*
X124224506Y-100115000D01*
X123715460Y-100325853D01*
X123325853Y-100715460D01*
X123115000Y-101224506D01*
X122885000Y-101224506D01*
X122674147Y-100715460D01*
X122284540Y-100325853D01*
X121775494Y-100115000D01*
X121224506Y-100115000D01*
X120715460Y-100325853D01*
X120325853Y-100715460D01*
X120115000Y-101224506D01*
X118210000Y-101224506D01*
X118210000Y-97210000D01*
X120995155Y-97210000D01*
X120715460Y-97325853D01*
G04 #@! TD*
M02*
