%TF.GenerationSoftware,KiCad,Pcbnew,(5.0.0)*%
%TF.CreationDate,2019-03-03T23:19:54-06:00*%
%TF.ProjectId,BPSVoltage,425053566F6C746167652E6B69636164,rev?*%
%TF.SameCoordinates,Original*%
%TF.FileFunction,Legend,Bot*%
%TF.FilePolarity,Positive*%
%FSLAX46Y46*%
G04 Gerber Fmt 4.6, Leading zero omitted, Abs format (unit mm)*
G04 Created by KiCad (PCBNEW (5.0.0)) date 03/03/19 23:19:54*
%MOMM*%
%LPD*%
G01*
G04 APERTURE LIST*
%ADD10C,0.300000*%
%ADD11C,0.150000*%
%ADD12C,0.120000*%
%ADD13C,0.010000*%
G04 APERTURE END LIST*
D10*
X110000000Y-110028571D02*
X110000000Y-108528571D01*
X109642857Y-108528571D01*
X109428571Y-108600000D01*
X109285714Y-108742857D01*
X109214285Y-108885714D01*
X109142857Y-109171428D01*
X109142857Y-109385714D01*
X109214285Y-109671428D01*
X109285714Y-109814285D01*
X109428571Y-109957142D01*
X109642857Y-110028571D01*
X110000000Y-110028571D01*
X108500000Y-110028571D02*
X108500000Y-109028571D01*
X108500000Y-109314285D02*
X108428571Y-109171428D01*
X108357142Y-109100000D01*
X108214285Y-109028571D01*
X108071428Y-109028571D01*
X107571428Y-109885714D02*
X107500000Y-109957142D01*
X107571428Y-110028571D01*
X107642857Y-109957142D01*
X107571428Y-109885714D01*
X107571428Y-110028571D01*
X104928571Y-108600000D02*
X105071428Y-108528571D01*
X105285714Y-108528571D01*
X105500000Y-108600000D01*
X105642857Y-108742857D01*
X105714285Y-108885714D01*
X105785714Y-109171428D01*
X105785714Y-109385714D01*
X105714285Y-109671428D01*
X105642857Y-109814285D01*
X105500000Y-109957142D01*
X105285714Y-110028571D01*
X105142857Y-110028571D01*
X104928571Y-109957142D01*
X104857142Y-109885714D01*
X104857142Y-109385714D01*
X105142857Y-109385714D01*
X103571428Y-110028571D02*
X103571428Y-109242857D01*
X103642857Y-109100000D01*
X103785714Y-109028571D01*
X104071428Y-109028571D01*
X104214285Y-109100000D01*
X103571428Y-109957142D02*
X103714285Y-110028571D01*
X104071428Y-110028571D01*
X104214285Y-109957142D01*
X104285714Y-109814285D01*
X104285714Y-109671428D01*
X104214285Y-109528571D01*
X104071428Y-109457142D01*
X103714285Y-109457142D01*
X103571428Y-109385714D01*
X102857142Y-110028571D02*
X102857142Y-109028571D01*
X102857142Y-109314285D02*
X102785714Y-109171428D01*
X102714285Y-109100000D01*
X102571428Y-109028571D01*
X102428571Y-109028571D01*
X102071428Y-109028571D02*
X101714285Y-110028571D01*
X101357142Y-109028571D02*
X101714285Y-110028571D01*
X101857142Y-110385714D01*
X101928571Y-110457142D01*
X102071428Y-110528571D01*
X99642857Y-110028571D02*
X99642857Y-108528571D01*
X99642857Y-109242857D02*
X98785714Y-109242857D01*
X98785714Y-110028571D02*
X98785714Y-108528571D01*
X97428571Y-110028571D02*
X97428571Y-109242857D01*
X97500000Y-109100000D01*
X97642857Y-109028571D01*
X97928571Y-109028571D01*
X98071428Y-109100000D01*
X97428571Y-109957142D02*
X97571428Y-110028571D01*
X97928571Y-110028571D01*
X98071428Y-109957142D01*
X98142857Y-109814285D01*
X98142857Y-109671428D01*
X98071428Y-109528571D01*
X97928571Y-109457142D01*
X97571428Y-109457142D01*
X97428571Y-109385714D01*
X96500000Y-110028571D02*
X96642857Y-109957142D01*
X96714285Y-109814285D01*
X96714285Y-108528571D01*
X95714285Y-110028571D02*
X95857142Y-109957142D01*
X95928571Y-109814285D01*
X95928571Y-108528571D01*
X94928571Y-110028571D02*
X95071428Y-109957142D01*
X95142857Y-109885714D01*
X95214285Y-109742857D01*
X95214285Y-109314285D01*
X95142857Y-109171428D01*
X95071428Y-109100000D01*
X94928571Y-109028571D01*
X94714285Y-109028571D01*
X94571428Y-109100000D01*
X94500000Y-109171428D01*
X94428571Y-109314285D01*
X94428571Y-109742857D01*
X94500000Y-109885714D01*
X94571428Y-109957142D01*
X94714285Y-110028571D01*
X94928571Y-110028571D01*
X93142857Y-109957142D02*
X93285714Y-110028571D01*
X93571428Y-110028571D01*
X93714285Y-109957142D01*
X93785714Y-109885714D01*
X93857142Y-109742857D01*
X93857142Y-109314285D01*
X93785714Y-109171428D01*
X93714285Y-109100000D01*
X93571428Y-109028571D01*
X93285714Y-109028571D01*
X93142857Y-109100000D01*
X92500000Y-110028571D02*
X92500000Y-108528571D01*
X92357142Y-109457142D02*
X91928571Y-110028571D01*
X91928571Y-109028571D02*
X92500000Y-109600000D01*
D11*
X90312023Y-64604761D02*
X90169166Y-64652380D01*
X89931071Y-64652380D01*
X89835833Y-64604761D01*
X89788214Y-64557142D01*
X89740595Y-64461904D01*
X89740595Y-64366666D01*
X89788214Y-64271428D01*
X89835833Y-64223809D01*
X89931071Y-64176190D01*
X90121547Y-64128571D01*
X90216785Y-64080952D01*
X90264404Y-64033333D01*
X90312023Y-63938095D01*
X90312023Y-63842857D01*
X90264404Y-63747619D01*
X90216785Y-63700000D01*
X90121547Y-63652380D01*
X89883452Y-63652380D01*
X89740595Y-63700000D01*
X89312023Y-63985714D02*
X89312023Y-64985714D01*
X89312023Y-64033333D02*
X89216785Y-63985714D01*
X89026309Y-63985714D01*
X88931071Y-64033333D01*
X88883452Y-64080952D01*
X88835833Y-64176190D01*
X88835833Y-64461904D01*
X88883452Y-64557142D01*
X88931071Y-64604761D01*
X89026309Y-64652380D01*
X89216785Y-64652380D01*
X89312023Y-64604761D01*
X88407261Y-64652380D02*
X88407261Y-63985714D01*
X88407261Y-64176190D02*
X88359642Y-64080952D01*
X88312023Y-64033333D01*
X88216785Y-63985714D01*
X88121547Y-63985714D01*
X87788214Y-64652380D02*
X87788214Y-63985714D01*
X87788214Y-63652380D02*
X87835833Y-63700000D01*
X87788214Y-63747619D01*
X87740595Y-63700000D01*
X87788214Y-63652380D01*
X87788214Y-63747619D01*
X87312023Y-63985714D02*
X87312023Y-64652380D01*
X87312023Y-64080952D02*
X87264404Y-64033333D01*
X87169166Y-63985714D01*
X87026309Y-63985714D01*
X86931071Y-64033333D01*
X86883452Y-64128571D01*
X86883452Y-64652380D01*
X85978690Y-63985714D02*
X85978690Y-64795238D01*
X86026309Y-64890476D01*
X86073928Y-64938095D01*
X86169166Y-64985714D01*
X86312023Y-64985714D01*
X86407261Y-64938095D01*
X85978690Y-64604761D02*
X86073928Y-64652380D01*
X86264404Y-64652380D01*
X86359642Y-64604761D01*
X86407261Y-64557142D01*
X86454880Y-64461904D01*
X86454880Y-64176190D01*
X86407261Y-64080952D01*
X86359642Y-64033333D01*
X86264404Y-63985714D01*
X86073928Y-63985714D01*
X85978690Y-64033333D01*
X84788214Y-63747619D02*
X84740595Y-63700000D01*
X84645357Y-63652380D01*
X84407261Y-63652380D01*
X84312023Y-63700000D01*
X84264404Y-63747619D01*
X84216785Y-63842857D01*
X84216785Y-63938095D01*
X84264404Y-64080952D01*
X84835833Y-64652380D01*
X84216785Y-64652380D01*
X83597738Y-63652380D02*
X83502500Y-63652380D01*
X83407261Y-63700000D01*
X83359642Y-63747619D01*
X83312023Y-63842857D01*
X83264404Y-64033333D01*
X83264404Y-64271428D01*
X83312023Y-64461904D01*
X83359642Y-64557142D01*
X83407261Y-64604761D01*
X83502500Y-64652380D01*
X83597738Y-64652380D01*
X83692976Y-64604761D01*
X83740595Y-64557142D01*
X83788214Y-64461904D01*
X83835833Y-64271428D01*
X83835833Y-64033333D01*
X83788214Y-63842857D01*
X83740595Y-63747619D01*
X83692976Y-63700000D01*
X83597738Y-63652380D01*
X82312023Y-64652380D02*
X82883452Y-64652380D01*
X82597738Y-64652380D02*
X82597738Y-63652380D01*
X82692976Y-63795238D01*
X82788214Y-63890476D01*
X82883452Y-63938095D01*
X81835833Y-64652380D02*
X81645357Y-64652380D01*
X81550119Y-64604761D01*
X81502500Y-64557142D01*
X81407261Y-64414285D01*
X81359642Y-64223809D01*
X81359642Y-63842857D01*
X81407261Y-63747619D01*
X81454880Y-63700000D01*
X81550119Y-63652380D01*
X81740595Y-63652380D01*
X81835833Y-63700000D01*
X81883452Y-63747619D01*
X81931071Y-63842857D01*
X81931071Y-64080952D01*
X81883452Y-64176190D01*
X81835833Y-64223809D01*
X81740595Y-64271428D01*
X81550119Y-64271428D01*
X81454880Y-64223809D01*
X81407261Y-64176190D01*
X81359642Y-64080952D01*
X80931071Y-64557142D02*
X80883452Y-64604761D01*
X80931071Y-64652380D01*
X80978690Y-64604761D01*
X80931071Y-64557142D01*
X80931071Y-64652380D01*
X80931071Y-64033333D02*
X80883452Y-64080952D01*
X80931071Y-64128571D01*
X80978690Y-64080952D01*
X80931071Y-64033333D01*
X80931071Y-64128571D01*
X90264404Y-66302380D02*
X90264404Y-65302380D01*
X89931071Y-66016666D01*
X89597738Y-65302380D01*
X89597738Y-66302380D01*
X88978690Y-66302380D02*
X89073928Y-66254761D01*
X89121547Y-66207142D01*
X89169166Y-66111904D01*
X89169166Y-65826190D01*
X89121547Y-65730952D01*
X89073928Y-65683333D01*
X88978690Y-65635714D01*
X88835833Y-65635714D01*
X88740595Y-65683333D01*
X88692976Y-65730952D01*
X88645357Y-65826190D01*
X88645357Y-66111904D01*
X88692976Y-66207142D01*
X88740595Y-66254761D01*
X88835833Y-66302380D01*
X88978690Y-66302380D01*
X88216785Y-65635714D02*
X88216785Y-66302380D01*
X88216785Y-65730952D02*
X88169166Y-65683333D01*
X88073928Y-65635714D01*
X87931071Y-65635714D01*
X87835833Y-65683333D01*
X87788214Y-65778571D01*
X87788214Y-66302380D01*
X87169166Y-66302380D02*
X87264404Y-66254761D01*
X87312023Y-66207142D01*
X87359642Y-66111904D01*
X87359642Y-65826190D01*
X87312023Y-65730952D01*
X87264404Y-65683333D01*
X87169166Y-65635714D01*
X87026309Y-65635714D01*
X86931071Y-65683333D01*
X86883452Y-65730952D01*
X86835833Y-65826190D01*
X86835833Y-66111904D01*
X86883452Y-66207142D01*
X86931071Y-66254761D01*
X87026309Y-66302380D01*
X87169166Y-66302380D01*
X86264404Y-66302380D02*
X86359642Y-66254761D01*
X86407261Y-66159523D01*
X86407261Y-65302380D01*
X85740595Y-66302380D02*
X85835833Y-66254761D01*
X85883452Y-66207142D01*
X85931071Y-66111904D01*
X85931071Y-65826190D01*
X85883452Y-65730952D01*
X85835833Y-65683333D01*
X85740595Y-65635714D01*
X85597738Y-65635714D01*
X85502500Y-65683333D01*
X85454880Y-65730952D01*
X85407261Y-65826190D01*
X85407261Y-66111904D01*
X85454880Y-66207142D01*
X85502500Y-66254761D01*
X85597738Y-66302380D01*
X85740595Y-66302380D01*
X84264404Y-66016666D02*
X83788214Y-66016666D01*
X84359642Y-66302380D02*
X84026309Y-65302380D01*
X83692976Y-66302380D01*
X83216785Y-66302380D02*
X83312023Y-66254761D01*
X83359642Y-66159523D01*
X83359642Y-65302380D01*
X82931071Y-65635714D02*
X82692976Y-66302380D01*
X82454880Y-65635714D01*
X81645357Y-66302380D02*
X81645357Y-65778571D01*
X81692976Y-65683333D01*
X81788214Y-65635714D01*
X81978690Y-65635714D01*
X82073928Y-65683333D01*
X81645357Y-66254761D02*
X81740595Y-66302380D01*
X81978690Y-66302380D01*
X82073928Y-66254761D01*
X82121547Y-66159523D01*
X82121547Y-66064285D01*
X82073928Y-65969047D01*
X81978690Y-65921428D01*
X81740595Y-65921428D01*
X81645357Y-65873809D01*
X81169166Y-66302380D02*
X81169166Y-65635714D01*
X81169166Y-65826190D02*
X81121547Y-65730952D01*
X81073928Y-65683333D01*
X80978690Y-65635714D01*
X80883452Y-65635714D01*
X80169166Y-66254761D02*
X80264404Y-66302380D01*
X80454880Y-66302380D01*
X80550119Y-66254761D01*
X80597738Y-66159523D01*
X80597738Y-65778571D01*
X80550119Y-65683333D01*
X80454880Y-65635714D01*
X80264404Y-65635714D01*
X80169166Y-65683333D01*
X80121547Y-65778571D01*
X80121547Y-65873809D01*
X80597738Y-65969047D01*
X79788214Y-65635714D02*
X79264404Y-65635714D01*
X79788214Y-66302380D01*
X79264404Y-66302380D01*
X89692976Y-67857142D02*
X89740595Y-67904761D01*
X89883452Y-67952380D01*
X89978690Y-67952380D01*
X90121547Y-67904761D01*
X90216785Y-67809523D01*
X90264404Y-67714285D01*
X90312023Y-67523809D01*
X90312023Y-67380952D01*
X90264404Y-67190476D01*
X90216785Y-67095238D01*
X90121547Y-67000000D01*
X89978690Y-66952380D01*
X89883452Y-66952380D01*
X89740595Y-67000000D01*
X89692976Y-67047619D01*
X89264404Y-67952380D02*
X89264404Y-66952380D01*
X88835833Y-67952380D02*
X88835833Y-67428571D01*
X88883452Y-67333333D01*
X88978690Y-67285714D01*
X89121547Y-67285714D01*
X89216785Y-67333333D01*
X89264404Y-67380952D01*
X87931071Y-67952380D02*
X87931071Y-67428571D01*
X87978690Y-67333333D01*
X88073928Y-67285714D01*
X88264404Y-67285714D01*
X88359642Y-67333333D01*
X87931071Y-67904761D02*
X88026309Y-67952380D01*
X88264404Y-67952380D01*
X88359642Y-67904761D01*
X88407261Y-67809523D01*
X88407261Y-67714285D01*
X88359642Y-67619047D01*
X88264404Y-67571428D01*
X88026309Y-67571428D01*
X87931071Y-67523809D01*
X87502500Y-67904761D02*
X87407261Y-67952380D01*
X87216785Y-67952380D01*
X87121547Y-67904761D01*
X87073928Y-67809523D01*
X87073928Y-67761904D01*
X87121547Y-67666666D01*
X87216785Y-67619047D01*
X87359642Y-67619047D01*
X87454880Y-67571428D01*
X87502500Y-67476190D01*
X87502500Y-67428571D01*
X87454880Y-67333333D01*
X87359642Y-67285714D01*
X87216785Y-67285714D01*
X87121547Y-67333333D01*
X86264404Y-67904761D02*
X86359642Y-67952380D01*
X86550119Y-67952380D01*
X86645357Y-67904761D01*
X86692976Y-67809523D01*
X86692976Y-67428571D01*
X86645357Y-67333333D01*
X86550119Y-67285714D01*
X86359642Y-67285714D01*
X86264404Y-67333333D01*
X86216785Y-67428571D01*
X86216785Y-67523809D01*
X86692976Y-67619047D01*
X84692976Y-67428571D02*
X84550119Y-67476190D01*
X84502500Y-67523809D01*
X84454880Y-67619047D01*
X84454880Y-67761904D01*
X84502500Y-67857142D01*
X84550119Y-67904761D01*
X84645357Y-67952380D01*
X85026309Y-67952380D01*
X85026309Y-66952380D01*
X84692976Y-66952380D01*
X84597738Y-67000000D01*
X84550119Y-67047619D01*
X84502500Y-67142857D01*
X84502500Y-67238095D01*
X84550119Y-67333333D01*
X84597738Y-67380952D01*
X84692976Y-67428571D01*
X85026309Y-67428571D01*
X83883452Y-67952380D02*
X83978690Y-67904761D01*
X84026309Y-67809523D01*
X84026309Y-66952380D01*
X83359642Y-67952380D02*
X83454880Y-67904761D01*
X83502500Y-67857142D01*
X83550119Y-67761904D01*
X83550119Y-67476190D01*
X83502500Y-67380952D01*
X83454880Y-67333333D01*
X83359642Y-67285714D01*
X83216785Y-67285714D01*
X83121547Y-67333333D01*
X83073928Y-67380952D01*
X83026309Y-67476190D01*
X83026309Y-67761904D01*
X83073928Y-67857142D01*
X83121547Y-67904761D01*
X83216785Y-67952380D01*
X83359642Y-67952380D01*
X82169166Y-67904761D02*
X82264404Y-67952380D01*
X82454880Y-67952380D01*
X82550119Y-67904761D01*
X82597738Y-67857142D01*
X82645357Y-67761904D01*
X82645357Y-67476190D01*
X82597738Y-67380952D01*
X82550119Y-67333333D01*
X82454880Y-67285714D01*
X82264404Y-67285714D01*
X82169166Y-67333333D01*
X81740595Y-67952380D02*
X81740595Y-66952380D01*
X81645357Y-67571428D02*
X81359642Y-67952380D01*
X81359642Y-67285714D02*
X81740595Y-67666666D01*
X89692976Y-69507142D02*
X89740595Y-69554761D01*
X89883452Y-69602380D01*
X89978690Y-69602380D01*
X90121547Y-69554761D01*
X90216785Y-69459523D01*
X90264404Y-69364285D01*
X90312023Y-69173809D01*
X90312023Y-69030952D01*
X90264404Y-68840476D01*
X90216785Y-68745238D01*
X90121547Y-68650000D01*
X89978690Y-68602380D01*
X89883452Y-68602380D01*
X89740595Y-68650000D01*
X89692976Y-68697619D01*
X89121547Y-69602380D02*
X89216785Y-69554761D01*
X89264404Y-69507142D01*
X89312023Y-69411904D01*
X89312023Y-69126190D01*
X89264404Y-69030952D01*
X89216785Y-68983333D01*
X89121547Y-68935714D01*
X88978690Y-68935714D01*
X88883452Y-68983333D01*
X88835833Y-69030952D01*
X88788214Y-69126190D01*
X88788214Y-69411904D01*
X88835833Y-69507142D01*
X88883452Y-69554761D01*
X88978690Y-69602380D01*
X89121547Y-69602380D01*
X88359642Y-69602380D02*
X88359642Y-68935714D01*
X88359642Y-69126190D02*
X88312023Y-69030952D01*
X88264404Y-68983333D01*
X88169166Y-68935714D01*
X88073928Y-68935714D01*
X87740595Y-69602380D02*
X87740595Y-68602380D01*
X87740595Y-68983333D02*
X87645357Y-68935714D01*
X87454880Y-68935714D01*
X87359642Y-68983333D01*
X87312023Y-69030952D01*
X87264404Y-69126190D01*
X87264404Y-69411904D01*
X87312023Y-69507142D01*
X87359642Y-69554761D01*
X87454880Y-69602380D01*
X87645357Y-69602380D01*
X87740595Y-69554761D01*
X86835833Y-69602380D02*
X86835833Y-68935714D01*
X86835833Y-68602380D02*
X86883452Y-68650000D01*
X86835833Y-68697619D01*
X86788214Y-68650000D01*
X86835833Y-68602380D01*
X86835833Y-68697619D01*
X86359642Y-68935714D02*
X86359642Y-69602380D01*
X86359642Y-69030952D02*
X86312023Y-68983333D01*
X86216785Y-68935714D01*
X86073928Y-68935714D01*
X85978690Y-68983333D01*
X85931071Y-69078571D01*
X85931071Y-69602380D01*
X84121547Y-69507142D02*
X84169166Y-69554761D01*
X84312023Y-69602380D01*
X84407261Y-69602380D01*
X84550119Y-69554761D01*
X84645357Y-69459523D01*
X84692976Y-69364285D01*
X84740595Y-69173809D01*
X84740595Y-69030952D01*
X84692976Y-68840476D01*
X84645357Y-68745238D01*
X84550119Y-68650000D01*
X84407261Y-68602380D01*
X84312023Y-68602380D01*
X84169166Y-68650000D01*
X84121547Y-68697619D01*
X83264404Y-69602380D02*
X83264404Y-69078571D01*
X83312023Y-68983333D01*
X83407261Y-68935714D01*
X83597738Y-68935714D01*
X83692976Y-68983333D01*
X83264404Y-69554761D02*
X83359642Y-69602380D01*
X83597738Y-69602380D01*
X83692976Y-69554761D01*
X83740595Y-69459523D01*
X83740595Y-69364285D01*
X83692976Y-69269047D01*
X83597738Y-69221428D01*
X83359642Y-69221428D01*
X83264404Y-69173809D01*
X82788214Y-68935714D02*
X82788214Y-69935714D01*
X82788214Y-68983333D02*
X82692976Y-68935714D01*
X82502500Y-68935714D01*
X82407261Y-68983333D01*
X82359642Y-69030952D01*
X82312023Y-69126190D01*
X82312023Y-69411904D01*
X82359642Y-69507142D01*
X82407261Y-69554761D01*
X82502500Y-69602380D01*
X82692976Y-69602380D01*
X82788214Y-69554761D01*
X81740595Y-69602380D02*
X81835833Y-69554761D01*
X81883452Y-69507142D01*
X81931071Y-69411904D01*
X81931071Y-69126190D01*
X81883452Y-69030952D01*
X81835833Y-68983333D01*
X81740595Y-68935714D01*
X81597738Y-68935714D01*
X81502500Y-68983333D01*
X81454880Y-69030952D01*
X81407261Y-69126190D01*
X81407261Y-69411904D01*
X81454880Y-69507142D01*
X81502500Y-69554761D01*
X81597738Y-69602380D01*
X81740595Y-69602380D01*
X89692976Y-71252380D02*
X90026309Y-70776190D01*
X90264404Y-71252380D02*
X90264404Y-70252380D01*
X89883452Y-70252380D01*
X89788214Y-70300000D01*
X89740595Y-70347619D01*
X89692976Y-70442857D01*
X89692976Y-70585714D01*
X89740595Y-70680952D01*
X89788214Y-70728571D01*
X89883452Y-70776190D01*
X90264404Y-70776190D01*
X89264404Y-71252380D02*
X89264404Y-70585714D01*
X89264404Y-70252380D02*
X89312023Y-70300000D01*
X89264404Y-70347619D01*
X89216785Y-70300000D01*
X89264404Y-70252380D01*
X89264404Y-70347619D01*
X88359642Y-71204761D02*
X88454880Y-71252380D01*
X88645357Y-71252380D01*
X88740595Y-71204761D01*
X88788214Y-71157142D01*
X88835833Y-71061904D01*
X88835833Y-70776190D01*
X88788214Y-70680952D01*
X88740595Y-70633333D01*
X88645357Y-70585714D01*
X88454880Y-70585714D01*
X88359642Y-70633333D01*
X87931071Y-71252380D02*
X87931071Y-70252380D01*
X87502500Y-71252380D02*
X87502500Y-70728571D01*
X87550119Y-70633333D01*
X87645357Y-70585714D01*
X87788214Y-70585714D01*
X87883452Y-70633333D01*
X87931071Y-70680952D01*
X86597738Y-71252380D02*
X86597738Y-70728571D01*
X86645357Y-70633333D01*
X86740595Y-70585714D01*
X86931071Y-70585714D01*
X87026309Y-70633333D01*
X86597738Y-71204761D02*
X86692976Y-71252380D01*
X86931071Y-71252380D01*
X87026309Y-71204761D01*
X87073928Y-71109523D01*
X87073928Y-71014285D01*
X87026309Y-70919047D01*
X86931071Y-70871428D01*
X86692976Y-70871428D01*
X86597738Y-70823809D01*
X86121547Y-71252380D02*
X86121547Y-70585714D01*
X86121547Y-70776190D02*
X86073928Y-70680952D01*
X86026309Y-70633333D01*
X85931071Y-70585714D01*
X85835833Y-70585714D01*
X85073928Y-71252380D02*
X85073928Y-70252380D01*
X85073928Y-71204761D02*
X85169166Y-71252380D01*
X85359642Y-71252380D01*
X85454880Y-71204761D01*
X85502500Y-71157142D01*
X85550119Y-71061904D01*
X85550119Y-70776190D01*
X85502500Y-70680952D01*
X85454880Y-70633333D01*
X85359642Y-70585714D01*
X85169166Y-70585714D01*
X85073928Y-70633333D01*
X83359642Y-71252380D02*
X83835833Y-71252380D01*
X83835833Y-70252380D01*
X83026309Y-71252380D02*
X83026309Y-70585714D01*
X83026309Y-70252380D02*
X83073928Y-70300000D01*
X83026309Y-70347619D01*
X82978690Y-70300000D01*
X83026309Y-70252380D01*
X83026309Y-70347619D01*
X90312023Y-72616666D02*
X89835833Y-72616666D01*
X90407261Y-72902380D02*
X90073928Y-71902380D01*
X89740595Y-72902380D01*
X88978690Y-72235714D02*
X88978690Y-72902380D01*
X89407261Y-72235714D02*
X89407261Y-72759523D01*
X89359642Y-72854761D01*
X89264404Y-72902380D01*
X89121547Y-72902380D01*
X89026309Y-72854761D01*
X88978690Y-72807142D01*
X88550119Y-72854761D02*
X88454880Y-72902380D01*
X88264404Y-72902380D01*
X88169166Y-72854761D01*
X88121547Y-72759523D01*
X88121547Y-72711904D01*
X88169166Y-72616666D01*
X88264404Y-72569047D01*
X88407261Y-72569047D01*
X88502500Y-72521428D01*
X88550119Y-72426190D01*
X88550119Y-72378571D01*
X88502500Y-72283333D01*
X88407261Y-72235714D01*
X88264404Y-72235714D01*
X88169166Y-72283333D01*
X87835833Y-72235714D02*
X87454880Y-72235714D01*
X87692976Y-71902380D02*
X87692976Y-72759523D01*
X87645357Y-72854761D01*
X87550119Y-72902380D01*
X87454880Y-72902380D01*
X87121547Y-72902380D02*
X87121547Y-72235714D01*
X87121547Y-71902380D02*
X87169166Y-71950000D01*
X87121547Y-71997619D01*
X87073928Y-71950000D01*
X87121547Y-71902380D01*
X87121547Y-71997619D01*
X86645357Y-72235714D02*
X86645357Y-72902380D01*
X86645357Y-72330952D02*
X86597738Y-72283333D01*
X86502500Y-72235714D01*
X86359642Y-72235714D01*
X86264404Y-72283333D01*
X86216785Y-72378571D01*
X86216785Y-72902380D01*
X85121547Y-71902380D02*
X84550119Y-71902380D01*
X84835833Y-72902380D02*
X84835833Y-71902380D01*
X84264404Y-72854761D02*
X84169166Y-72902380D01*
X83978690Y-72902380D01*
X83883452Y-72854761D01*
X83835833Y-72759523D01*
X83835833Y-72711904D01*
X83883452Y-72616666D01*
X83978690Y-72569047D01*
X84121547Y-72569047D01*
X84216785Y-72521428D01*
X84264404Y-72426190D01*
X84264404Y-72378571D01*
X84216785Y-72283333D01*
X84121547Y-72235714D01*
X83978690Y-72235714D01*
X83883452Y-72283333D01*
X82978690Y-72902380D02*
X82978690Y-72378571D01*
X83026309Y-72283333D01*
X83121547Y-72235714D01*
X83312023Y-72235714D01*
X83407261Y-72283333D01*
X82978690Y-72854761D02*
X83073928Y-72902380D01*
X83312023Y-72902380D01*
X83407261Y-72854761D01*
X83454880Y-72759523D01*
X83454880Y-72664285D01*
X83407261Y-72569047D01*
X83312023Y-72521428D01*
X83073928Y-72521428D01*
X82978690Y-72473809D01*
X82359642Y-72902380D02*
X82454880Y-72854761D01*
X82502500Y-72807142D01*
X82550119Y-72711904D01*
X82550119Y-72426190D01*
X82502500Y-72330952D01*
X82454880Y-72283333D01*
X82359642Y-72235714D01*
X82216785Y-72235714D01*
X82121547Y-72283333D01*
X82073928Y-72330952D01*
X82026309Y-72426190D01*
X82026309Y-72711904D01*
X82073928Y-72807142D01*
X82121547Y-72854761D01*
X82216785Y-72902380D01*
X82359642Y-72902380D01*
X89740595Y-73600000D02*
X89835833Y-73552380D01*
X89978690Y-73552380D01*
X90121547Y-73600000D01*
X90216785Y-73695238D01*
X90264404Y-73790476D01*
X90312023Y-73980952D01*
X90312023Y-74123809D01*
X90264404Y-74314285D01*
X90216785Y-74409523D01*
X90121547Y-74504761D01*
X89978690Y-74552380D01*
X89883452Y-74552380D01*
X89740595Y-74504761D01*
X89692976Y-74457142D01*
X89692976Y-74123809D01*
X89883452Y-74123809D01*
X88835833Y-74552380D02*
X88835833Y-74028571D01*
X88883452Y-73933333D01*
X88978690Y-73885714D01*
X89169166Y-73885714D01*
X89264404Y-73933333D01*
X88835833Y-74504761D02*
X88931071Y-74552380D01*
X89169166Y-74552380D01*
X89264404Y-74504761D01*
X89312023Y-74409523D01*
X89312023Y-74314285D01*
X89264404Y-74219047D01*
X89169166Y-74171428D01*
X88931071Y-74171428D01*
X88835833Y-74123809D01*
X88359642Y-74552380D02*
X88359642Y-73885714D01*
X88359642Y-74076190D02*
X88312023Y-73980952D01*
X88264404Y-73933333D01*
X88169166Y-73885714D01*
X88073928Y-73885714D01*
X87740595Y-74552380D02*
X87740595Y-73885714D01*
X87740595Y-74076190D02*
X87692976Y-73980952D01*
X87645357Y-73933333D01*
X87550119Y-73885714D01*
X87454880Y-73885714D01*
X86740595Y-74504761D02*
X86835833Y-74552380D01*
X87026309Y-74552380D01*
X87121547Y-74504761D01*
X87169166Y-74409523D01*
X87169166Y-74028571D01*
X87121547Y-73933333D01*
X87026309Y-73885714D01*
X86835833Y-73885714D01*
X86740595Y-73933333D01*
X86692976Y-74028571D01*
X86692976Y-74123809D01*
X87169166Y-74219047D01*
X86407261Y-73885714D02*
X86026309Y-73885714D01*
X86264404Y-73552380D02*
X86264404Y-74409523D01*
X86216785Y-74504761D01*
X86121547Y-74552380D01*
X86026309Y-74552380D01*
X85835833Y-73885714D02*
X85454880Y-73885714D01*
X85692976Y-73552380D02*
X85692976Y-74409523D01*
X85645357Y-74504761D01*
X85550119Y-74552380D01*
X85454880Y-74552380D01*
X84454880Y-73552380D02*
X84216785Y-74552380D01*
X84026309Y-73838095D01*
X83835833Y-74552380D01*
X83597738Y-73552380D01*
X83073928Y-74552380D02*
X83169166Y-74504761D01*
X83216785Y-74457142D01*
X83264404Y-74361904D01*
X83264404Y-74076190D01*
X83216785Y-73980952D01*
X83169166Y-73933333D01*
X83073928Y-73885714D01*
X82931071Y-73885714D01*
X82835833Y-73933333D01*
X82788214Y-73980952D01*
X82740595Y-74076190D01*
X82740595Y-74361904D01*
X82788214Y-74457142D01*
X82835833Y-74504761D01*
X82931071Y-74552380D01*
X83073928Y-74552380D01*
X82312023Y-73885714D02*
X82312023Y-74552380D01*
X82312023Y-73980952D02*
X82264404Y-73933333D01*
X82169166Y-73885714D01*
X82026309Y-73885714D01*
X81931071Y-73933333D01*
X81883452Y-74028571D01*
X81883452Y-74552380D01*
X80978690Y-73885714D02*
X80978690Y-74695238D01*
X81026309Y-74790476D01*
X81073928Y-74838095D01*
X81169166Y-74885714D01*
X81312023Y-74885714D01*
X81407261Y-74838095D01*
X80978690Y-74504761D02*
X81073928Y-74552380D01*
X81264404Y-74552380D01*
X81359642Y-74504761D01*
X81407261Y-74457142D01*
X81454880Y-74361904D01*
X81454880Y-74076190D01*
X81407261Y-73980952D01*
X81359642Y-73933333D01*
X81264404Y-73885714D01*
X81073928Y-73885714D01*
X80978690Y-73933333D01*
X90312023Y-76154761D02*
X90169166Y-76202380D01*
X89931071Y-76202380D01*
X89835833Y-76154761D01*
X89788214Y-76107142D01*
X89740595Y-76011904D01*
X89740595Y-75916666D01*
X89788214Y-75821428D01*
X89835833Y-75773809D01*
X89931071Y-75726190D01*
X90121547Y-75678571D01*
X90216785Y-75630952D01*
X90264404Y-75583333D01*
X90312023Y-75488095D01*
X90312023Y-75392857D01*
X90264404Y-75297619D01*
X90216785Y-75250000D01*
X90121547Y-75202380D01*
X89883452Y-75202380D01*
X89740595Y-75250000D01*
X89312023Y-76202380D02*
X89312023Y-75535714D01*
X89312023Y-75202380D02*
X89359642Y-75250000D01*
X89312023Y-75297619D01*
X89264404Y-75250000D01*
X89312023Y-75202380D01*
X89312023Y-75297619D01*
X88835833Y-76202380D02*
X88835833Y-75202380D01*
X88407261Y-76202380D02*
X88407261Y-75678571D01*
X88454880Y-75583333D01*
X88550119Y-75535714D01*
X88692976Y-75535714D01*
X88788214Y-75583333D01*
X88835833Y-75630952D01*
X88026309Y-75535714D02*
X87788214Y-76202380D01*
X87550119Y-75535714D02*
X87788214Y-76202380D01*
X87883452Y-76440476D01*
X87931071Y-76488095D01*
X88026309Y-76535714D01*
X86740595Y-75535714D02*
X86740595Y-76202380D01*
X87169166Y-75535714D02*
X87169166Y-76059523D01*
X87121547Y-76154761D01*
X87026309Y-76202380D01*
X86883452Y-76202380D01*
X86788214Y-76154761D01*
X86740595Y-76107142D01*
X86264404Y-75535714D02*
X86264404Y-76202380D01*
X86264404Y-75630952D02*
X86216785Y-75583333D01*
X86121547Y-75535714D01*
X85978690Y-75535714D01*
X85883452Y-75583333D01*
X85835833Y-75678571D01*
X85835833Y-76202380D01*
X84931071Y-75535714D02*
X84931071Y-76345238D01*
X84978690Y-76440476D01*
X85026309Y-76488095D01*
X85121547Y-76535714D01*
X85264404Y-76535714D01*
X85359642Y-76488095D01*
X84931071Y-76154761D02*
X85026309Y-76202380D01*
X85216785Y-76202380D01*
X85312023Y-76154761D01*
X85359642Y-76107142D01*
X85407261Y-76011904D01*
X85407261Y-75726190D01*
X85359642Y-75630952D01*
X85312023Y-75583333D01*
X85216785Y-75535714D01*
X85026309Y-75535714D01*
X84931071Y-75583333D01*
X83788214Y-75202380D02*
X83550119Y-76202380D01*
X83359642Y-75488095D01*
X83169166Y-76202380D01*
X82931071Y-75202380D01*
X82407261Y-76202380D02*
X82502500Y-76154761D01*
X82550119Y-76107142D01*
X82597738Y-76011904D01*
X82597738Y-75726190D01*
X82550119Y-75630952D01*
X82502500Y-75583333D01*
X82407261Y-75535714D01*
X82264404Y-75535714D01*
X82169166Y-75583333D01*
X82121547Y-75630952D01*
X82073928Y-75726190D01*
X82073928Y-76011904D01*
X82121547Y-76107142D01*
X82169166Y-76154761D01*
X82264404Y-76202380D01*
X82407261Y-76202380D01*
X81502500Y-76202380D02*
X81597738Y-76154761D01*
X81645357Y-76107142D01*
X81692976Y-76011904D01*
X81692976Y-75726190D01*
X81645357Y-75630952D01*
X81597738Y-75583333D01*
X81502500Y-75535714D01*
X81359642Y-75535714D01*
X81264404Y-75583333D01*
X81216785Y-75630952D01*
X81169166Y-75726190D01*
X81169166Y-76011904D01*
X81216785Y-76107142D01*
X81264404Y-76154761D01*
X81359642Y-76202380D01*
X81502500Y-76202380D01*
X90312023Y-77804761D02*
X90169166Y-77852380D01*
X89931071Y-77852380D01*
X89835833Y-77804761D01*
X89788214Y-77757142D01*
X89740595Y-77661904D01*
X89740595Y-77566666D01*
X89788214Y-77471428D01*
X89835833Y-77423809D01*
X89931071Y-77376190D01*
X90121547Y-77328571D01*
X90216785Y-77280952D01*
X90264404Y-77233333D01*
X90312023Y-77138095D01*
X90312023Y-77042857D01*
X90264404Y-76947619D01*
X90216785Y-76900000D01*
X90121547Y-76852380D01*
X89883452Y-76852380D01*
X89740595Y-76900000D01*
X89312023Y-77852380D02*
X89312023Y-77185714D01*
X89312023Y-76852380D02*
X89359642Y-76900000D01*
X89312023Y-76947619D01*
X89264404Y-76900000D01*
X89312023Y-76852380D01*
X89312023Y-76947619D01*
X88835833Y-77185714D02*
X88835833Y-78042857D01*
X88883452Y-78138095D01*
X88978690Y-78185714D01*
X89026309Y-78185714D01*
X88835833Y-76852380D02*
X88883452Y-76900000D01*
X88835833Y-76947619D01*
X88788214Y-76900000D01*
X88835833Y-76852380D01*
X88835833Y-76947619D01*
X88359642Y-77852380D02*
X88359642Y-77185714D01*
X88359642Y-76852380D02*
X88407261Y-76900000D01*
X88359642Y-76947619D01*
X88312023Y-76900000D01*
X88359642Y-76852380D01*
X88359642Y-76947619D01*
X87883452Y-77185714D02*
X87883452Y-77852380D01*
X87883452Y-77280952D02*
X87835833Y-77233333D01*
X87740595Y-77185714D01*
X87597738Y-77185714D01*
X87502500Y-77233333D01*
X87454880Y-77328571D01*
X87454880Y-77852380D01*
X86312023Y-76852380D02*
X86073928Y-77852380D01*
X85883452Y-77138095D01*
X85692976Y-77852380D01*
X85454880Y-76852380D01*
X84931071Y-77852380D02*
X85026309Y-77804761D01*
X85073928Y-77757142D01*
X85121547Y-77661904D01*
X85121547Y-77376190D01*
X85073928Y-77280952D01*
X85026309Y-77233333D01*
X84931071Y-77185714D01*
X84788214Y-77185714D01*
X84692976Y-77233333D01*
X84645357Y-77280952D01*
X84597738Y-77376190D01*
X84597738Y-77661904D01*
X84645357Y-77757142D01*
X84692976Y-77804761D01*
X84788214Y-77852380D01*
X84931071Y-77852380D01*
X84026309Y-77852380D02*
X84121547Y-77804761D01*
X84169166Y-77757142D01*
X84216785Y-77661904D01*
X84216785Y-77376190D01*
X84169166Y-77280952D01*
X84121547Y-77233333D01*
X84026309Y-77185714D01*
X83883452Y-77185714D01*
X83788214Y-77233333D01*
X83740595Y-77280952D01*
X83692976Y-77376190D01*
X83692976Y-77661904D01*
X83740595Y-77757142D01*
X83788214Y-77804761D01*
X83883452Y-77852380D01*
X84026309Y-77852380D01*
X117530428Y-101544380D02*
X117530428Y-100544380D01*
X117054238Y-101544380D02*
X117054238Y-100544380D01*
X116720904Y-101258666D01*
X116387571Y-100544380D01*
X116387571Y-101544380D01*
X115578047Y-101020571D02*
X115435190Y-101068190D01*
X115387571Y-101115809D01*
X115339952Y-101211047D01*
X115339952Y-101353904D01*
X115387571Y-101449142D01*
X115435190Y-101496761D01*
X115530428Y-101544380D01*
X115911380Y-101544380D01*
X115911380Y-100544380D01*
X115578047Y-100544380D01*
X115482809Y-100592000D01*
X115435190Y-100639619D01*
X115387571Y-100734857D01*
X115387571Y-100830095D01*
X115435190Y-100925333D01*
X115482809Y-100972952D01*
X115578047Y-101020571D01*
X115911380Y-101020571D01*
X113268000Y-93670380D02*
X113268000Y-92670380D01*
X112791809Y-93670380D02*
X112791809Y-92670380D01*
X112410857Y-92670380D01*
X112315619Y-92718000D01*
X112268000Y-92765619D01*
X112220380Y-92860857D01*
X112220380Y-93003714D01*
X112268000Y-93098952D01*
X112315619Y-93146571D01*
X112410857Y-93194190D01*
X112791809Y-93194190D01*
X111458476Y-93146571D02*
X111315619Y-93194190D01*
X111268000Y-93241809D01*
X111220380Y-93337047D01*
X111220380Y-93479904D01*
X111268000Y-93575142D01*
X111315619Y-93622761D01*
X111410857Y-93670380D01*
X111791809Y-93670380D01*
X111791809Y-92670380D01*
X111458476Y-92670380D01*
X111363238Y-92718000D01*
X111315619Y-92765619D01*
X111268000Y-92860857D01*
X111268000Y-92956095D01*
X111315619Y-93051333D01*
X111363238Y-93098952D01*
X111458476Y-93146571D01*
X111791809Y-93146571D01*
D10*
X118300000Y-102578571D02*
X118014285Y-102578571D01*
X117871428Y-102650000D01*
X117728571Y-102792857D01*
X117657142Y-103078571D01*
X117657142Y-103578571D01*
X117728571Y-103864285D01*
X117871428Y-104007142D01*
X118014285Y-104078571D01*
X118300000Y-104078571D01*
X118442857Y-104007142D01*
X118585714Y-103864285D01*
X118657142Y-103578571D01*
X118657142Y-103078571D01*
X118585714Y-102792857D01*
X118442857Y-102650000D01*
X118300000Y-102578571D01*
X117014285Y-102578571D02*
X117014285Y-103792857D01*
X116942857Y-103935714D01*
X116871428Y-104007142D01*
X116728571Y-104078571D01*
X116442857Y-104078571D01*
X116300000Y-104007142D01*
X116228571Y-103935714D01*
X116157142Y-103792857D01*
X116157142Y-102578571D01*
X115657142Y-102578571D02*
X114800000Y-102578571D01*
X115228571Y-104078571D02*
X115228571Y-102578571D01*
D12*
X77142078Y-61162000D02*
X76624922Y-61162000D01*
X77142078Y-59742000D02*
X76624922Y-59742000D01*
X77142078Y-63044000D02*
X76624922Y-63044000D01*
X77142078Y-64464000D02*
X76624922Y-64464000D01*
X77142078Y-67766000D02*
X76624922Y-67766000D01*
X77142078Y-66346000D02*
X76624922Y-66346000D01*
X77142078Y-71068000D02*
X76624922Y-71068000D01*
X77142078Y-69648000D02*
X76624922Y-69648000D01*
X77142078Y-72950000D02*
X76624922Y-72950000D01*
X77142078Y-74370000D02*
X76624922Y-74370000D01*
X93178922Y-79610000D02*
X93696078Y-79610000D01*
X93178922Y-78190000D02*
X93696078Y-78190000D01*
X93178922Y-76190000D02*
X93696078Y-76190000D01*
X93178922Y-77610000D02*
X93696078Y-77610000D01*
X93178922Y-75610000D02*
X93696078Y-75610000D01*
X93178922Y-74190000D02*
X93696078Y-74190000D01*
X77142078Y-77672000D02*
X76624922Y-77672000D01*
X77142078Y-76252000D02*
X76624922Y-76252000D01*
X77142078Y-80974000D02*
X76624922Y-80974000D01*
X77142078Y-79554000D02*
X76624922Y-79554000D01*
X77142078Y-82856000D02*
X76624922Y-82856000D01*
X77142078Y-84276000D02*
X76624922Y-84276000D01*
X77142078Y-86158000D02*
X76624922Y-86158000D01*
X77142078Y-87578000D02*
X76624922Y-87578000D01*
X77142078Y-89460000D02*
X76624922Y-89460000D01*
X77142078Y-90880000D02*
X76624922Y-90880000D01*
X77142078Y-94182000D02*
X76624922Y-94182000D01*
X77142078Y-92762000D02*
X76624922Y-92762000D01*
X77142078Y-97484000D02*
X76624922Y-97484000D01*
X77142078Y-96064000D02*
X76624922Y-96064000D01*
X60177936Y-62044000D02*
X64282064Y-62044000D01*
X60177936Y-65464000D02*
X64282064Y-65464000D01*
X68051936Y-68766000D02*
X72156064Y-68766000D01*
X68051936Y-65346000D02*
X72156064Y-65346000D01*
X60177936Y-68648000D02*
X64282064Y-68648000D01*
X60177936Y-72068000D02*
X64282064Y-72068000D01*
X68051936Y-75370000D02*
X72156064Y-75370000D01*
X68051936Y-71950000D02*
X72156064Y-71950000D01*
X60177936Y-75252000D02*
X64282064Y-75252000D01*
X60177936Y-78672000D02*
X64282064Y-78672000D01*
X68051936Y-81974000D02*
X72156064Y-81974000D01*
X68051936Y-78554000D02*
X72156064Y-78554000D01*
X60177936Y-81856000D02*
X64282064Y-81856000D01*
X60177936Y-85276000D02*
X64282064Y-85276000D01*
X68051936Y-85158000D02*
X72156064Y-85158000D01*
X68051936Y-88578000D02*
X72156064Y-88578000D01*
X60177936Y-88460000D02*
X64282064Y-88460000D01*
X60177936Y-91880000D02*
X64282064Y-91880000D01*
X68051936Y-95182000D02*
X72156064Y-95182000D01*
X68051936Y-91762000D02*
X72156064Y-91762000D01*
X60177936Y-98484000D02*
X64282064Y-98484000D01*
X60177936Y-95064000D02*
X64282064Y-95064000D01*
X68051936Y-101786000D02*
X72156064Y-101786000D01*
X68051936Y-98366000D02*
X72156064Y-98366000D01*
X116078500Y-94618500D02*
X113418500Y-94618500D01*
X116078500Y-99818500D02*
X113418500Y-99818500D01*
X113418500Y-96708500D02*
X113418500Y-99818500D01*
X116078500Y-94618500D02*
X116078500Y-97728500D01*
X113418500Y-95188500D02*
X111898500Y-95188500D01*
X113418500Y-94618500D02*
X113418500Y-95188500D01*
X116078500Y-99248500D02*
X116078500Y-99818500D01*
D13*
G36*
X95085624Y-85081559D02*
X94975592Y-85356611D01*
X94923716Y-85785435D01*
X94918667Y-86017512D01*
X94934394Y-86365866D01*
X94979634Y-86558929D01*
X95051479Y-86592885D01*
X95147018Y-86463916D01*
X95188749Y-86371834D01*
X95240575Y-86155563D01*
X95269037Y-85852822D01*
X95270680Y-85652167D01*
X95268604Y-85376423D01*
X95292047Y-85229914D01*
X95353648Y-85173033D01*
X95426027Y-85165334D01*
X95567797Y-85124514D01*
X95584949Y-85039282D01*
X95490167Y-84974502D01*
X95256315Y-84955711D01*
X95085624Y-85081559D01*
X95085624Y-85081559D01*
G37*
X95085624Y-85081559D02*
X94975592Y-85356611D01*
X94923716Y-85785435D01*
X94918667Y-86017512D01*
X94934394Y-86365866D01*
X94979634Y-86558929D01*
X95051479Y-86592885D01*
X95147018Y-86463916D01*
X95188749Y-86371834D01*
X95240575Y-86155563D01*
X95269037Y-85852822D01*
X95270680Y-85652167D01*
X95268604Y-85376423D01*
X95292047Y-85229914D01*
X95353648Y-85173033D01*
X95426027Y-85165334D01*
X95567797Y-85124514D01*
X95584949Y-85039282D01*
X95490167Y-84974502D01*
X95256315Y-84955711D01*
X95085624Y-85081559D01*
G36*
X96209191Y-86400656D02*
X96045260Y-86516380D01*
X95904213Y-86646473D01*
X95850000Y-86734965D01*
X95852652Y-86761681D01*
X95890088Y-86757841D01*
X96006532Y-86710196D01*
X96167500Y-86639851D01*
X96356908Y-86529882D01*
X96441072Y-86426746D01*
X96402915Y-86360529D01*
X96331632Y-86350667D01*
X96209191Y-86400656D01*
X96209191Y-86400656D01*
G37*
X96209191Y-86400656D02*
X96045260Y-86516380D01*
X95904213Y-86646473D01*
X95850000Y-86734965D01*
X95852652Y-86761681D01*
X95890088Y-86757841D01*
X96006532Y-86710196D01*
X96167500Y-86639851D01*
X96356908Y-86529882D01*
X96441072Y-86426746D01*
X96402915Y-86360529D01*
X96331632Y-86350667D01*
X96209191Y-86400656D01*
G36*
X97409596Y-86660024D02*
X97397023Y-86710500D01*
X97385076Y-86926534D01*
X97397023Y-87006834D01*
X97431350Y-87110640D01*
X97474484Y-87057309D01*
X97496956Y-87006834D01*
X97520477Y-86804325D01*
X97496956Y-86710500D01*
X97442272Y-86606694D01*
X97409596Y-86660024D01*
X97409596Y-86660024D01*
G37*
X97409596Y-86660024D02*
X97397023Y-86710500D01*
X97385076Y-86926534D01*
X97397023Y-87006834D01*
X97431350Y-87110640D01*
X97474484Y-87057309D01*
X97496956Y-87006834D01*
X97520477Y-86804325D01*
X97496956Y-86710500D01*
X97442272Y-86606694D01*
X97409596Y-86660024D01*
G36*
X95565785Y-86823399D02*
X95448365Y-86943044D01*
X95426667Y-87037059D01*
X95438670Y-87168897D01*
X95494579Y-87171498D01*
X95624246Y-87043516D01*
X95638804Y-87027481D01*
X95743482Y-86871114D01*
X95715046Y-86797652D01*
X95565785Y-86823399D01*
X95565785Y-86823399D01*
G37*
X95565785Y-86823399D02*
X95448365Y-86943044D01*
X95426667Y-87037059D01*
X95438670Y-87168897D01*
X95494579Y-87171498D01*
X95624246Y-87043516D01*
X95638804Y-87027481D01*
X95743482Y-86871114D01*
X95715046Y-86797652D01*
X95565785Y-86823399D01*
G36*
X97458667Y-87409000D02*
X97501000Y-87451334D01*
X97543334Y-87409000D01*
X97501000Y-87366667D01*
X97458667Y-87409000D01*
X97458667Y-87409000D01*
G37*
X97458667Y-87409000D02*
X97501000Y-87451334D01*
X97543334Y-87409000D01*
X97501000Y-87366667D01*
X97458667Y-87409000D01*
G36*
X95962889Y-87733556D02*
X95974512Y-87783890D01*
X96019334Y-87790000D01*
X96089024Y-87759022D01*
X96075778Y-87733556D01*
X95975299Y-87723423D01*
X95962889Y-87733556D01*
X95962889Y-87733556D01*
G37*
X95962889Y-87733556D02*
X95974512Y-87783890D01*
X96019334Y-87790000D01*
X96089024Y-87759022D01*
X96075778Y-87733556D01*
X95975299Y-87723423D01*
X95962889Y-87733556D01*
G36*
X96312954Y-88048070D02*
X96293087Y-88167972D01*
X96311108Y-88205956D01*
X96418342Y-88276436D01*
X96568620Y-88295855D01*
X96680506Y-88260466D01*
X96696667Y-88223700D01*
X96638671Y-88113891D01*
X96566079Y-88041022D01*
X96424267Y-87992611D01*
X96312954Y-88048070D01*
X96312954Y-88048070D01*
G37*
X96312954Y-88048070D02*
X96293087Y-88167972D01*
X96311108Y-88205956D01*
X96418342Y-88276436D01*
X96568620Y-88295855D01*
X96680506Y-88260466D01*
X96696667Y-88223700D01*
X96638671Y-88113891D01*
X96566079Y-88041022D01*
X96424267Y-87992611D01*
X96312954Y-88048070D01*
G36*
X96856512Y-89398530D02*
X96832079Y-89407153D01*
X96636082Y-89499518D01*
X96532296Y-89590331D01*
X96527334Y-89608503D01*
X96579981Y-89758142D01*
X96705289Y-89955009D01*
X96854314Y-90128496D01*
X96929794Y-90189064D01*
X97056280Y-90320128D01*
X97127792Y-90443064D01*
X97187563Y-90571516D01*
X97192625Y-90542999D01*
X97172649Y-90435834D01*
X97164622Y-90288582D01*
X97191427Y-90245334D01*
X97237185Y-90173701D01*
X97270560Y-89952084D01*
X97291220Y-89618878D01*
X97253260Y-89421552D01*
X97111399Y-89349505D01*
X96856512Y-89398530D01*
X96856512Y-89398530D01*
G37*
X96856512Y-89398530D02*
X96832079Y-89407153D01*
X96636082Y-89499518D01*
X96532296Y-89590331D01*
X96527334Y-89608503D01*
X96579981Y-89758142D01*
X96705289Y-89955009D01*
X96854314Y-90128496D01*
X96929794Y-90189064D01*
X97056280Y-90320128D01*
X97127792Y-90443064D01*
X97187563Y-90571516D01*
X97192625Y-90542999D01*
X97172649Y-90435834D01*
X97164622Y-90288582D01*
X97191427Y-90245334D01*
X97237185Y-90173701D01*
X97270560Y-89952084D01*
X97291220Y-89618878D01*
X97253260Y-89421552D01*
X97111399Y-89349505D01*
X96856512Y-89398530D01*
G36*
X97882000Y-90880334D02*
X97924334Y-90922667D01*
X97966667Y-90880334D01*
X97924334Y-90838000D01*
X97882000Y-90880334D01*
X97882000Y-90880334D01*
G37*
X97882000Y-90880334D02*
X97924334Y-90922667D01*
X97966667Y-90880334D01*
X97924334Y-90838000D01*
X97882000Y-90880334D01*
G36*
X97229539Y-90748640D02*
X97218511Y-90897979D01*
X97214684Y-91028500D01*
X97224809Y-91262808D01*
X97261810Y-91407773D01*
X97289334Y-91430667D01*
X97356213Y-91361448D01*
X97363983Y-91282500D01*
X97336073Y-91093357D01*
X97289334Y-90880334D01*
X97250759Y-90747498D01*
X97229539Y-90748640D01*
X97229539Y-90748640D01*
G37*
X97229539Y-90748640D02*
X97218511Y-90897979D01*
X97214684Y-91028500D01*
X97224809Y-91262808D01*
X97261810Y-91407773D01*
X97289334Y-91430667D01*
X97356213Y-91361448D01*
X97363983Y-91282500D01*
X97336073Y-91093357D01*
X97289334Y-90880334D01*
X97250759Y-90747498D01*
X97229539Y-90748640D01*
G36*
X98433392Y-91544641D02*
X98451226Y-91638823D01*
X98474712Y-91684750D01*
X98608039Y-91823683D01*
X98760745Y-91846219D01*
X98852051Y-91775184D01*
X98836170Y-91671553D01*
X98692025Y-91580036D01*
X98535233Y-91539033D01*
X98433392Y-91544641D01*
X98433392Y-91544641D01*
G37*
X98433392Y-91544641D02*
X98451226Y-91638823D01*
X98474712Y-91684750D01*
X98608039Y-91823683D01*
X98760745Y-91846219D01*
X98852051Y-91775184D01*
X98836170Y-91671553D01*
X98692025Y-91580036D01*
X98535233Y-91539033D01*
X98433392Y-91544641D01*
G36*
X97210821Y-91603542D02*
X97272415Y-91734981D01*
X97328974Y-91816651D01*
X97424839Y-91909242D01*
X97455974Y-91869119D01*
X97402970Y-91721730D01*
X97331667Y-91630238D01*
X97230723Y-91558147D01*
X97210821Y-91603542D01*
X97210821Y-91603542D01*
G37*
X97210821Y-91603542D02*
X97272415Y-91734981D01*
X97328974Y-91816651D01*
X97424839Y-91909242D01*
X97455974Y-91869119D01*
X97402970Y-91721730D01*
X97331667Y-91630238D01*
X97230723Y-91558147D01*
X97210821Y-91603542D01*
G36*
X99022147Y-92534845D02*
X99032121Y-92561691D01*
X99108267Y-92665730D01*
X99198441Y-92709819D01*
X99236667Y-92668700D01*
X99180499Y-92595734D01*
X99107729Y-92529725D01*
X99015938Y-92467951D01*
X99022147Y-92534845D01*
X99022147Y-92534845D01*
G37*
X99022147Y-92534845D02*
X99032121Y-92561691D01*
X99108267Y-92665730D01*
X99198441Y-92709819D01*
X99236667Y-92668700D01*
X99180499Y-92595734D01*
X99107729Y-92529725D01*
X99015938Y-92467951D01*
X99022147Y-92534845D01*
G36*
X99264889Y-92813556D02*
X99276512Y-92863890D01*
X99321334Y-92870000D01*
X99391024Y-92839022D01*
X99377778Y-92813556D01*
X99277299Y-92803423D01*
X99264889Y-92813556D01*
X99264889Y-92813556D01*
G37*
X99264889Y-92813556D02*
X99276512Y-92863890D01*
X99321334Y-92870000D01*
X99391024Y-92839022D01*
X99377778Y-92813556D01*
X99277299Y-92803423D01*
X99264889Y-92813556D01*
G36*
X99236667Y-93589667D02*
X99279000Y-93632000D01*
X99321334Y-93589667D01*
X99279000Y-93547334D01*
X99236667Y-93589667D01*
X99236667Y-93589667D01*
G37*
X99236667Y-93589667D02*
X99279000Y-93632000D01*
X99321334Y-93589667D01*
X99279000Y-93547334D01*
X99236667Y-93589667D01*
G36*
X103628719Y-93081211D02*
X103505639Y-93177815D01*
X103379834Y-93343793D01*
X103287574Y-93519597D01*
X103265130Y-93645682D01*
X103274676Y-93662453D01*
X103365806Y-93710823D01*
X103489473Y-93669771D01*
X103685322Y-93524290D01*
X103723270Y-93492623D01*
X103886042Y-93340283D01*
X103928309Y-93240066D01*
X103871798Y-93150845D01*
X103716880Y-93074248D01*
X103628719Y-93081211D01*
X103628719Y-93081211D01*
G37*
X103628719Y-93081211D02*
X103505639Y-93177815D01*
X103379834Y-93343793D01*
X103287574Y-93519597D01*
X103265130Y-93645682D01*
X103274676Y-93662453D01*
X103365806Y-93710823D01*
X103489473Y-93669771D01*
X103685322Y-93524290D01*
X103723270Y-93492623D01*
X103886042Y-93340283D01*
X103928309Y-93240066D01*
X103871798Y-93150845D01*
X103716880Y-93074248D01*
X103628719Y-93081211D01*
G36*
X97882000Y-93843667D02*
X97924334Y-93886000D01*
X97966667Y-93843667D01*
X97924334Y-93801334D01*
X97882000Y-93843667D01*
X97882000Y-93843667D01*
G37*
X97882000Y-93843667D02*
X97924334Y-93886000D01*
X97966667Y-93843667D01*
X97924334Y-93801334D01*
X97882000Y-93843667D01*
G36*
X99914018Y-94295221D02*
X99914000Y-94296617D01*
X99981395Y-94398644D01*
X100139112Y-94519863D01*
X100320457Y-94616077D01*
X100440188Y-94645307D01*
X100469678Y-94603738D01*
X100379667Y-94512104D01*
X100137567Y-94343628D01*
X99974751Y-94267817D01*
X99914018Y-94295221D01*
X99914018Y-94295221D01*
G37*
X99914018Y-94295221D02*
X99914000Y-94296617D01*
X99981395Y-94398644D01*
X100139112Y-94519863D01*
X100320457Y-94616077D01*
X100440188Y-94645307D01*
X100469678Y-94603738D01*
X100379667Y-94512104D01*
X100137567Y-94343628D01*
X99974751Y-94267817D01*
X99914018Y-94295221D01*
G36*
X96641104Y-95377203D02*
X96654334Y-95410000D01*
X96730416Y-95490771D01*
X96743997Y-95494667D01*
X96780363Y-95429161D01*
X96781334Y-95410000D01*
X96716246Y-95328587D01*
X96691670Y-95325334D01*
X96641104Y-95377203D01*
X96641104Y-95377203D01*
G37*
X96641104Y-95377203D02*
X96654334Y-95410000D01*
X96730416Y-95490771D01*
X96743997Y-95494667D01*
X96780363Y-95429161D01*
X96781334Y-95410000D01*
X96716246Y-95328587D01*
X96691670Y-95325334D01*
X96641104Y-95377203D01*
G36*
X101099334Y-96214334D02*
X101141667Y-96256667D01*
X101184000Y-96214334D01*
X101141667Y-96172000D01*
X101099334Y-96214334D01*
X101099334Y-96214334D01*
G37*
X101099334Y-96214334D02*
X101141667Y-96256667D01*
X101184000Y-96214334D01*
X101141667Y-96172000D01*
X101099334Y-96214334D01*
G36*
X101268667Y-96299000D02*
X101311000Y-96341334D01*
X101353334Y-96299000D01*
X101311000Y-96256667D01*
X101268667Y-96299000D01*
X101268667Y-96299000D01*
G37*
X101268667Y-96299000D02*
X101311000Y-96341334D01*
X101353334Y-96299000D01*
X101311000Y-96256667D01*
X101268667Y-96299000D01*
G36*
X90308533Y-98916318D02*
X90150619Y-98972376D01*
X90092667Y-99052280D01*
X90163594Y-99119765D01*
X90262000Y-99135334D01*
X90399518Y-99096133D01*
X90431334Y-99041608D01*
X90494041Y-98987450D01*
X90579500Y-99004291D01*
X90674937Y-99027775D01*
X90630967Y-98963250D01*
X90628033Y-98960282D01*
X90492601Y-98908003D01*
X90308533Y-98916318D01*
X90308533Y-98916318D01*
G37*
X90308533Y-98916318D02*
X90150619Y-98972376D01*
X90092667Y-99052280D01*
X90163594Y-99119765D01*
X90262000Y-99135334D01*
X90399518Y-99096133D01*
X90431334Y-99041608D01*
X90494041Y-98987450D01*
X90579500Y-99004291D01*
X90674937Y-99027775D01*
X90630967Y-98963250D01*
X90628033Y-98960282D01*
X90492601Y-98908003D01*
X90308533Y-98916318D01*
G36*
X89842113Y-99196794D02*
X89838667Y-99220000D01*
X89867554Y-99302466D01*
X89876004Y-99304667D01*
X89948290Y-99245338D01*
X89965667Y-99220000D01*
X89958954Y-99141981D01*
X89928331Y-99135334D01*
X89842113Y-99196794D01*
X89842113Y-99196794D01*
G37*
X89842113Y-99196794D02*
X89838667Y-99220000D01*
X89867554Y-99302466D01*
X89876004Y-99304667D01*
X89948290Y-99245338D01*
X89965667Y-99220000D01*
X89958954Y-99141981D01*
X89928331Y-99135334D01*
X89842113Y-99196794D01*
G36*
X90804369Y-99176379D02*
X90812334Y-99220000D01*
X90920577Y-99301437D01*
X90944331Y-99304667D01*
X91021720Y-99240088D01*
X91024000Y-99220000D01*
X90955085Y-99145696D01*
X90892004Y-99135334D01*
X90804369Y-99176379D01*
X90804369Y-99176379D01*
G37*
X90804369Y-99176379D02*
X90812334Y-99220000D01*
X90920577Y-99301437D01*
X90944331Y-99304667D01*
X91021720Y-99240088D01*
X91024000Y-99220000D01*
X90955085Y-99145696D01*
X90892004Y-99135334D01*
X90804369Y-99176379D01*
G36*
X90346667Y-99245917D02*
X90171648Y-99327626D01*
X90093000Y-99395264D01*
X90092667Y-99398286D01*
X90166105Y-99448701D01*
X90343097Y-99491531D01*
X90346667Y-99492060D01*
X90526092Y-99500031D01*
X90593317Y-99429837D01*
X90600667Y-99339691D01*
X90585786Y-99215099D01*
X90508589Y-99193190D01*
X90346667Y-99245917D01*
X90346667Y-99245917D01*
G37*
X90346667Y-99245917D02*
X90171648Y-99327626D01*
X90093000Y-99395264D01*
X90092667Y-99398286D01*
X90166105Y-99448701D01*
X90343097Y-99491531D01*
X90346667Y-99492060D01*
X90526092Y-99500031D01*
X90593317Y-99429837D01*
X90600667Y-99339691D01*
X90585786Y-99215099D01*
X90508589Y-99193190D01*
X90346667Y-99245917D01*
G36*
X101085387Y-76097891D02*
X100640694Y-76145539D01*
X100181214Y-76224268D01*
X99756107Y-76328299D01*
X99637111Y-76365407D01*
X98889415Y-76687188D01*
X98163083Y-77136703D01*
X97518000Y-77676791D01*
X97508114Y-77686510D01*
X97175121Y-78040288D01*
X96889822Y-78391780D01*
X96673968Y-78710212D01*
X96549308Y-78964809D01*
X96527334Y-79074278D01*
X96471557Y-79190398D01*
X96320617Y-79395003D01*
X96099098Y-79656851D01*
X95890779Y-79883202D01*
X95559606Y-80254447D01*
X95301450Y-80609745D01*
X95110278Y-80974954D01*
X94980059Y-81375933D01*
X94904761Y-81838539D01*
X94878351Y-82388630D01*
X94894797Y-83052064D01*
X94948067Y-83854700D01*
X94952204Y-83906618D01*
X95017655Y-84722236D01*
X95355083Y-84726893D01*
X95566989Y-84751294D01*
X95768453Y-84834749D01*
X96009576Y-85002315D01*
X96173423Y-85136186D01*
X96524660Y-85433570D01*
X96769939Y-85648843D01*
X96933874Y-85807710D01*
X97041079Y-85935878D01*
X97116167Y-86059054D01*
X97174154Y-86181334D01*
X97262962Y-86364991D01*
X97319155Y-86409519D01*
X97374204Y-86332528D01*
X97389030Y-86301577D01*
X97519988Y-86133792D01*
X97714023Y-85982334D01*
X97899903Y-85832944D01*
X98009055Y-85673137D01*
X98009554Y-85671590D01*
X98126101Y-85540394D01*
X98318789Y-85506744D01*
X98521967Y-85575620D01*
X98586418Y-85627847D01*
X98675505Y-85778169D01*
X98768168Y-86027524D01*
X98814900Y-86199347D01*
X99017764Y-86853406D01*
X99290925Y-87358258D01*
X99644295Y-87722895D01*
X100087787Y-87956312D01*
X100631314Y-88067500D01*
X100887667Y-88079872D01*
X101451007Y-88067680D01*
X101882826Y-88011715D01*
X102217147Y-87903837D01*
X102487990Y-87735908D01*
X102551790Y-87681782D01*
X102737752Y-87486485D01*
X102952223Y-87218576D01*
X103168157Y-86917815D01*
X103358507Y-86623959D01*
X103496228Y-86376764D01*
X103554274Y-86215989D01*
X103554667Y-86207562D01*
X103609951Y-86016821D01*
X103741944Y-85824492D01*
X103899856Y-85694763D01*
X103977371Y-85673334D01*
X104103904Y-85697741D01*
X104207213Y-85789016D01*
X104302795Y-85974235D01*
X104406148Y-86280475D01*
X104486227Y-86562334D01*
X104588348Y-86910423D01*
X104691541Y-87220784D01*
X104776536Y-87436272D01*
X104790415Y-87464397D01*
X104902410Y-87811839D01*
X104868297Y-88113690D01*
X104709517Y-88348866D01*
X104447515Y-88496280D01*
X104103731Y-88534845D01*
X103769469Y-88468368D01*
X103511318Y-88411579D01*
X103253105Y-88433887D01*
X103083742Y-88478025D01*
X102867845Y-88560247D01*
X102747061Y-88642821D01*
X102736922Y-88676558D01*
X102781083Y-88729363D01*
X102889067Y-88750576D01*
X103097010Y-88742210D01*
X103385334Y-88712665D01*
X103681667Y-88679000D01*
X103673794Y-89046492D01*
X103675535Y-89274021D01*
X103713852Y-89374438D01*
X103818771Y-89389835D01*
X103910355Y-89378109D01*
X104099168Y-89373914D01*
X104198392Y-89412783D01*
X104310144Y-89472980D01*
X104397272Y-89483334D01*
X104552843Y-89544027D01*
X104601285Y-89610333D01*
X104714436Y-89722964D01*
X104779677Y-89737334D01*
X104895009Y-89785159D01*
X104892640Y-89902428D01*
X104784663Y-90049826D01*
X104652803Y-90149828D01*
X104539576Y-90208458D01*
X104405604Y-90248866D01*
X104221755Y-90273193D01*
X103958900Y-90283581D01*
X103587907Y-90282171D01*
X103079646Y-90271103D01*
X103022970Y-90269622D01*
X102546164Y-90258107D01*
X102119512Y-90249780D01*
X101775954Y-90245130D01*
X101548431Y-90244649D01*
X101480334Y-90246640D01*
X101250254Y-90263848D01*
X101152812Y-90270745D01*
X101006476Y-90353931D01*
X100875427Y-90540439D01*
X100792633Y-90765184D01*
X100791060Y-90963080D01*
X100795544Y-90976098D01*
X100857258Y-91074116D01*
X100923118Y-91018470D01*
X101048049Y-90896763D01*
X101193730Y-90805079D01*
X101369806Y-90748954D01*
X101548272Y-90792360D01*
X101649667Y-90844700D01*
X101839665Y-90924095D01*
X102110175Y-91005996D01*
X102412441Y-91079697D01*
X102697708Y-91134491D01*
X102917222Y-91159673D01*
X103021043Y-91145846D01*
X103031560Y-91049705D01*
X102945421Y-90964979D01*
X102832627Y-90954195D01*
X102697881Y-90944754D01*
X102595316Y-90851702D01*
X102570029Y-90734287D01*
X102617854Y-90672053D01*
X102806172Y-90617751D01*
X103080697Y-90601379D01*
X103362803Y-90622094D01*
X103573864Y-90679053D01*
X103580283Y-90682376D01*
X103800781Y-90763515D01*
X103952133Y-90793287D01*
X104176739Y-90860553D01*
X104286409Y-90972772D01*
X104276875Y-91087993D01*
X104143873Y-91164268D01*
X103990771Y-91173196D01*
X103637654Y-91163746D01*
X103414000Y-91187080D01*
X103336287Y-91240956D01*
X103343000Y-91261334D01*
X103322895Y-91333063D01*
X103258334Y-91346000D01*
X103166886Y-91385824D01*
X103173667Y-91430667D01*
X103287114Y-91489332D01*
X103488837Y-91514041D01*
X103496164Y-91514037D01*
X103664227Y-91501973D01*
X103680072Y-91461931D01*
X103639334Y-91430667D01*
X103572202Y-91368686D01*
X103656055Y-91348185D01*
X103700177Y-91347297D01*
X103835796Y-91377723D01*
X103837951Y-91491240D01*
X103836953Y-91494167D01*
X103813885Y-91584334D01*
X103863778Y-91540948D01*
X103912033Y-91480410D01*
X104061041Y-91374281D01*
X104203560Y-91386385D01*
X104280665Y-91501799D01*
X104279984Y-91573596D01*
X104198521Y-91692326D01*
X104075040Y-91700512D01*
X103923912Y-91725453D01*
X103893334Y-91806345D01*
X103821646Y-91915041D01*
X103709501Y-91938667D01*
X103502362Y-91994285D01*
X103368833Y-92080600D01*
X103225717Y-92170934D01*
X103115389Y-92125885D01*
X103112400Y-92122933D01*
X102937020Y-92023485D01*
X102771629Y-92037106D01*
X102667551Y-92141947D01*
X102673577Y-92309750D01*
X102782102Y-92424251D01*
X103000342Y-92562360D01*
X103275863Y-92698897D01*
X103556227Y-92808681D01*
X103788999Y-92866533D01*
X103840246Y-92870000D01*
X104192871Y-92923778D01*
X104432610Y-93069715D01*
X104543925Y-93284719D01*
X104511275Y-93545694D01*
X104412222Y-93720048D01*
X104292041Y-93899532D01*
X104232763Y-94021239D01*
X104231465Y-94030738D01*
X104164848Y-94113442D01*
X104002637Y-94227244D01*
X103977465Y-94241896D01*
X103805472Y-94317405D01*
X103725550Y-94305436D01*
X103724000Y-94295521D01*
X103657263Y-94239975D01*
X103561002Y-94247542D01*
X103442071Y-94249168D01*
X103441700Y-94151584D01*
X103420987Y-94124434D01*
X103319405Y-94210179D01*
X103239019Y-94298002D01*
X103047409Y-94485861D01*
X102853472Y-94568193D01*
X102617488Y-94585585D01*
X102331016Y-94577463D01*
X102081252Y-94554062D01*
X102030667Y-94545480D01*
X101788821Y-94469561D01*
X101527353Y-94347539D01*
X101294310Y-94207325D01*
X101137739Y-94076829D01*
X101099334Y-94004452D01*
X101028669Y-93908892D01*
X100927343Y-93886000D01*
X100764538Y-93830829D01*
X100706618Y-93759000D01*
X100581449Y-93662779D01*
X100333272Y-93632000D01*
X100108443Y-93608554D01*
X99962867Y-93550551D01*
X99948249Y-93534252D01*
X99938270Y-93476315D01*
X99985585Y-93496915D01*
X100072590Y-93500318D01*
X100083334Y-93465006D01*
X100014568Y-93361787D01*
X99935167Y-93318019D01*
X99776656Y-93225373D01*
X99727026Y-93173217D01*
X99635745Y-93132675D01*
X99569559Y-93180575D01*
X99549180Y-93264450D01*
X99624613Y-93403216D01*
X99809810Y-93618493D01*
X99937865Y-93751367D01*
X100174701Y-93976170D01*
X100380321Y-94143142D01*
X100516782Y-94222094D01*
X100532777Y-94224667D01*
X100664070Y-94271028D01*
X100690112Y-94308052D01*
X100782065Y-94366239D01*
X100992547Y-94433287D01*
X101226334Y-94484866D01*
X101529033Y-94546503D01*
X101783929Y-94608803D01*
X101903667Y-94646525D01*
X102383846Y-94825293D01*
X102776278Y-94941452D01*
X103051540Y-94986404D01*
X103067792Y-94986667D01*
X103284397Y-95019996D01*
X103528061Y-95103202D01*
X103743486Y-95211116D01*
X103875374Y-95318568D01*
X103892776Y-95362181D01*
X103849104Y-95489387D01*
X103743586Y-95677560D01*
X103732409Y-95694732D01*
X103641507Y-95902513D01*
X103582512Y-96172251D01*
X103557272Y-96456968D01*
X103567637Y-96709685D01*
X103615458Y-96883422D01*
X103683617Y-96934000D01*
X103784639Y-96961455D01*
X103794071Y-97063751D01*
X103711492Y-97270783D01*
X103677901Y-97339444D01*
X103597410Y-97545039D01*
X103612959Y-97695291D01*
X103655934Y-97775785D01*
X103783790Y-97927718D01*
X103888999Y-97920957D01*
X103941254Y-97856294D01*
X104017687Y-97817651D01*
X104071954Y-97877461D01*
X104126577Y-97918682D01*
X104146904Y-97802545D01*
X104147334Y-97780667D01*
X104161208Y-97644350D01*
X104208248Y-97660619D01*
X104233297Y-97696000D01*
X104313226Y-97780376D01*
X104391330Y-97714695D01*
X104404475Y-97696000D01*
X104452082Y-97668108D01*
X104456777Y-97767666D01*
X104425233Y-97960216D01*
X104364121Y-98211296D01*
X104280114Y-98486447D01*
X104218514Y-98656443D01*
X104106052Y-98906820D01*
X103987625Y-99112697D01*
X103885094Y-99243787D01*
X103820321Y-99269805D01*
X103818411Y-99262334D01*
X103639334Y-99262334D01*
X103597000Y-99304667D01*
X103554667Y-99262334D01*
X103597000Y-99220000D01*
X103639334Y-99262334D01*
X103818411Y-99262334D01*
X103808667Y-99224233D01*
X103739433Y-99127331D01*
X103576995Y-99027685D01*
X103358169Y-98906971D01*
X103210507Y-98796667D01*
X102925124Y-98542597D01*
X102695265Y-98366834D01*
X102548770Y-98290305D01*
X102534650Y-98288667D01*
X102374346Y-98243027D01*
X102130860Y-98125561D01*
X101856917Y-97965449D01*
X101605244Y-97791874D01*
X101533973Y-97734854D01*
X101343663Y-97585455D01*
X101259065Y-97542053D01*
X101268738Y-97588379D01*
X101361239Y-97708167D01*
X101525125Y-97885149D01*
X101748955Y-98103056D01*
X101871804Y-98215159D01*
X102178277Y-98489347D01*
X102476170Y-98756227D01*
X102716058Y-98971505D01*
X102781971Y-99030789D01*
X103018511Y-99221606D01*
X103249995Y-99374299D01*
X103321834Y-99411290D01*
X103486433Y-99501250D01*
X103554667Y-99571052D01*
X103625629Y-99633983D01*
X103798057Y-99711509D01*
X103814044Y-99717188D01*
X103989372Y-99764828D01*
X104089664Y-99723702D01*
X104176012Y-99561635D01*
X104195044Y-99516523D01*
X104275974Y-99293408D01*
X104315806Y-99125881D01*
X104316667Y-99110113D01*
X104352415Y-98989052D01*
X104448757Y-98755239D01*
X104589344Y-98446763D01*
X104698471Y-98220680D01*
X104870702Y-97865940D01*
X104978870Y-97612555D01*
X105034751Y-97410479D01*
X105050117Y-97209665D01*
X105036745Y-96960066D01*
X105025551Y-96830453D01*
X104988364Y-96505302D01*
X104942379Y-96233408D01*
X104897226Y-96071140D01*
X104895043Y-96066681D01*
X104864774Y-95895634D01*
X104869569Y-95611718D01*
X104902643Y-95266142D01*
X104957210Y-94910117D01*
X105026484Y-94594853D01*
X105103679Y-94371560D01*
X105124601Y-94334289D01*
X105247732Y-94134496D01*
X105399578Y-93872953D01*
X105453463Y-93776683D01*
X105873742Y-93009824D01*
X106216008Y-92367760D01*
X106489057Y-91829895D01*
X106701682Y-91375634D01*
X106862678Y-90984383D01*
X106980842Y-90635546D01*
X107064966Y-90308527D01*
X107123847Y-89982733D01*
X107146909Y-89811070D01*
X107219784Y-89451645D01*
X107344495Y-89211929D01*
X107405483Y-89146093D01*
X107546926Y-88948590D01*
X107668626Y-88671383D01*
X107703359Y-88551893D01*
X107782827Y-88296065D01*
X107809959Y-88255667D01*
X106772000Y-88255667D01*
X106729667Y-88298000D01*
X106687334Y-88255667D01*
X106729667Y-88213334D01*
X106772000Y-88255667D01*
X107809959Y-88255667D01*
X107902071Y-88118522D01*
X108109958Y-87955443D01*
X108207822Y-87893003D01*
X108415617Y-87752076D01*
X108563733Y-87607828D01*
X108684888Y-87414553D01*
X108811801Y-87126544D01*
X108878799Y-86955697D01*
X108998846Y-86631509D01*
X109090318Y-86359939D01*
X109138640Y-86185241D01*
X109142667Y-86154435D01*
X109189564Y-86022147D01*
X109309151Y-85814785D01*
X109396667Y-85686770D01*
X109599446Y-85314663D01*
X109650667Y-85040680D01*
X109649739Y-85031278D01*
X98298650Y-85031278D01*
X98283083Y-85141092D01*
X98254181Y-85142403D01*
X98235620Y-85038334D01*
X97289334Y-85038334D01*
X97247000Y-85080667D01*
X97204667Y-85038334D01*
X97247000Y-84996000D01*
X97289334Y-85038334D01*
X98235620Y-85038334D01*
X98233970Y-85029086D01*
X98247497Y-84980125D01*
X98285092Y-84948055D01*
X98298650Y-85031278D01*
X109649739Y-85031278D01*
X109630154Y-84832962D01*
X109541680Y-84731829D01*
X109417834Y-84692098D01*
X108967918Y-84586039D01*
X108661227Y-84503759D01*
X108474739Y-84436845D01*
X108385434Y-84376887D01*
X108370291Y-84315470D01*
X108371713Y-84309817D01*
X108413024Y-84165517D01*
X108483002Y-83922760D01*
X108534773Y-83743715D01*
X108587011Y-83528458D01*
X106767000Y-83528458D01*
X106740590Y-83657375D01*
X106664420Y-83761009D01*
X106331405Y-83981815D01*
X105940062Y-84064622D01*
X105930900Y-84064667D01*
X105750095Y-84083476D01*
X105671443Y-84128924D01*
X105671334Y-84130849D01*
X105597815Y-84191521D01*
X105411217Y-84270401D01*
X105290334Y-84309528D01*
X105065988Y-84389111D01*
X104929076Y-84463397D01*
X104909334Y-84491137D01*
X104863706Y-84557485D01*
X104713104Y-84603253D01*
X104436949Y-84631820D01*
X104014665Y-84646565D01*
X103956834Y-84647512D01*
X103595872Y-84641700D01*
X103371882Y-84612893D01*
X103300667Y-84566961D01*
X103234967Y-84514947D01*
X103135341Y-84529062D01*
X103012542Y-84539157D01*
X102999389Y-84429926D01*
X103002375Y-84413503D01*
X102995769Y-84308390D01*
X102902721Y-84234834D01*
X102687694Y-84169671D01*
X102596201Y-84148763D01*
X102217526Y-84075482D01*
X101772935Y-84004773D01*
X101319864Y-83944276D01*
X100915749Y-83901635D01*
X100618026Y-83884491D01*
X100609616Y-83884445D01*
X100321481Y-83950189D01*
X100186283Y-84059098D01*
X100020193Y-84181843D01*
X99730065Y-84289067D01*
X99299928Y-84385478D01*
X98821815Y-84461120D01*
X98596221Y-84484319D01*
X98506163Y-84465158D01*
X98521646Y-84396958D01*
X98523101Y-84394608D01*
X98598755Y-84221998D01*
X98660864Y-83992368D01*
X98702795Y-83752376D01*
X98717915Y-83548681D01*
X98699590Y-83427940D01*
X98661853Y-83418634D01*
X98615123Y-83398188D01*
X98622414Y-83279833D01*
X98672289Y-83121830D01*
X98745591Y-82992001D01*
X98758608Y-82875512D01*
X98696468Y-82822346D01*
X98653556Y-82772866D01*
X98620116Y-82664935D01*
X98594538Y-82478423D01*
X98575212Y-82193199D01*
X98560529Y-81789133D01*
X98548880Y-81246096D01*
X98543606Y-80910423D01*
X98537687Y-80372262D01*
X98535999Y-79895673D01*
X98538335Y-79505045D01*
X98544486Y-79224766D01*
X98554245Y-79079223D01*
X98559334Y-79064144D01*
X98661559Y-79053566D01*
X98873290Y-79032373D01*
X99005101Y-79019322D01*
X99300358Y-78976886D01*
X99561190Y-78917756D01*
X99630677Y-78895054D01*
X99814096Y-78850681D01*
X99909939Y-78871889D01*
X99885806Y-78943337D01*
X99826882Y-78987974D01*
X99763268Y-79047719D01*
X99852023Y-79067385D01*
X99887837Y-79068037D01*
X100058683Y-79103730D01*
X100125667Y-79154000D01*
X100105562Y-79225729D01*
X100041000Y-79238667D01*
X99951205Y-79280891D01*
X99959901Y-79329106D01*
X100075453Y-79384406D01*
X100136152Y-79373359D01*
X100278225Y-79393615D01*
X100425442Y-79496108D01*
X100632692Y-79644242D01*
X100955493Y-79781845D01*
X101411989Y-79915283D01*
X101988334Y-80044459D01*
X102588254Y-80178769D01*
X103032409Y-80307679D01*
X103334089Y-80435462D01*
X103455614Y-80516166D01*
X103600050Y-80611736D01*
X103846258Y-80751263D01*
X104143128Y-80905899D01*
X104168171Y-80918374D01*
X104506955Y-81105847D01*
X104769638Y-81308991D01*
X105018433Y-81580831D01*
X105161544Y-81765040D01*
X105378330Y-82063788D01*
X105568630Y-82344124D01*
X105697221Y-82553772D01*
X105712627Y-82583000D01*
X105880134Y-82880118D01*
X106036210Y-83048757D01*
X106221127Y-83121685D01*
X106389042Y-83133334D01*
X106594790Y-83145219D01*
X106671739Y-83197296D01*
X106662802Y-83302667D01*
X106658053Y-83437675D01*
X106695260Y-83472000D01*
X106767000Y-83528458D01*
X108587011Y-83528458D01*
X108588605Y-83521892D01*
X108618713Y-83286585D01*
X108626333Y-82997975D01*
X108612706Y-82616246D01*
X108583814Y-82167371D01*
X108549222Y-81707130D01*
X108515751Y-81375731D01*
X108473508Y-81133040D01*
X108412601Y-80938925D01*
X108323136Y-80753251D01*
X108195221Y-80535886D01*
X108172466Y-80498656D01*
X107518312Y-79535000D01*
X100760667Y-79535000D01*
X100718334Y-79577334D01*
X100676000Y-79535000D01*
X100718334Y-79492667D01*
X100760667Y-79535000D01*
X107518312Y-79535000D01*
X107443947Y-79425451D01*
X107100626Y-79008936D01*
X102609686Y-79008936D01*
X102589085Y-79056252D01*
X102503835Y-79147145D01*
X102454825Y-79128500D01*
X102454000Y-79116664D01*
X102514137Y-79045051D01*
X102551749Y-79018915D01*
X102609686Y-79008936D01*
X107100626Y-79008936D01*
X106920297Y-78790163D01*
X102655137Y-78790163D01*
X102538667Y-78801965D01*
X102418472Y-78788660D01*
X102432834Y-78759260D01*
X102606176Y-78748078D01*
X102644500Y-78759260D01*
X102655137Y-78790163D01*
X106920297Y-78790163D01*
X106754941Y-78589556D01*
X103611112Y-78589556D01*
X103599489Y-78639890D01*
X103554667Y-78646000D01*
X103484977Y-78615022D01*
X103498223Y-78589556D01*
X103598702Y-78579423D01*
X103611112Y-78589556D01*
X106754941Y-78589556D01*
X106698083Y-78520576D01*
X103249143Y-78520576D01*
X103227875Y-78542278D01*
X103053153Y-78552130D01*
X103025500Y-78552894D01*
X102821542Y-78538408D01*
X102713289Y-78491911D01*
X102708000Y-78476667D01*
X102760668Y-78408889D01*
X102931084Y-78420720D01*
X103131334Y-78476667D01*
X103249143Y-78520576D01*
X106698083Y-78520576D01*
X106646975Y-78458574D01*
X103906486Y-78458574D01*
X103796678Y-78449536D01*
X103602056Y-78396791D01*
X103470000Y-78349667D01*
X103306220Y-78274213D01*
X103302383Y-78236669D01*
X103343000Y-78232927D01*
X103539507Y-78265859D01*
X103766334Y-78346609D01*
X103905149Y-78424174D01*
X103906486Y-78458574D01*
X106646975Y-78458574D01*
X106633443Y-78442158D01*
X106362157Y-78154026D01*
X106089167Y-77883623D01*
X105956254Y-77768652D01*
X103341085Y-77768652D01*
X103300667Y-77799334D01*
X103207259Y-77855658D01*
X103122329Y-77872760D01*
X102992628Y-77846562D01*
X102764909Y-77772982D01*
X102708000Y-77753922D01*
X102504410Y-77682580D01*
X102455612Y-77654012D01*
X102554348Y-77661864D01*
X102612750Y-77670540D01*
X102904774Y-77703102D01*
X103163084Y-77715963D01*
X103328172Y-77728111D01*
X103341085Y-77768652D01*
X105956254Y-77768652D01*
X105846314Y-77673554D01*
X105590184Y-77494438D01*
X105555820Y-77474934D01*
X104046209Y-77474934D01*
X104023604Y-77516155D01*
X103935667Y-77553926D01*
X103715067Y-77590948D01*
X103597000Y-77577981D01*
X103405286Y-77529089D01*
X103146209Y-77464242D01*
X103089000Y-77450061D01*
X102855427Y-77378553D01*
X102692926Y-77304192D01*
X102669900Y-77286478D01*
X102611563Y-77259611D01*
X101703750Y-77259611D01*
X101591293Y-77274269D01*
X101565000Y-77274828D01*
X101420405Y-77265676D01*
X101407674Y-77239172D01*
X101415222Y-77235798D01*
X101583302Y-77219049D01*
X101669222Y-77232660D01*
X101703750Y-77259611D01*
X102611563Y-77259611D01*
X102529122Y-77221643D01*
X102373567Y-77197600D01*
X102288801Y-77181420D01*
X102366614Y-77145497D01*
X102520985Y-77107261D01*
X102828387Y-77069126D01*
X103116118Y-77119103D01*
X103255312Y-77167680D01*
X103497351Y-77239397D01*
X103682480Y-77257683D01*
X103730576Y-77244936D01*
X103795581Y-77228652D01*
X103778186Y-77272156D01*
X103801727Y-77363512D01*
X103913271Y-77424765D01*
X104046209Y-77474934D01*
X105555820Y-77474934D01*
X105277361Y-77316893D01*
X104864430Y-77111535D01*
X104720238Y-77042812D01*
X104072517Y-76751789D01*
X104045414Y-76741000D01*
X101438000Y-76741000D01*
X101395667Y-76783334D01*
X101353334Y-76741000D01*
X101395667Y-76698667D01*
X101438000Y-76741000D01*
X104045414Y-76741000D01*
X103470967Y-76512330D01*
X102941289Y-76333223D01*
X102509184Y-76223260D01*
X102228631Y-76190667D01*
X101960241Y-76166094D01*
X101733775Y-76118952D01*
X101466133Y-76087103D01*
X101085387Y-76097891D01*
X101085387Y-76097891D01*
G37*
X101085387Y-76097891D02*
X100640694Y-76145539D01*
X100181214Y-76224268D01*
X99756107Y-76328299D01*
X99637111Y-76365407D01*
X98889415Y-76687188D01*
X98163083Y-77136703D01*
X97518000Y-77676791D01*
X97508114Y-77686510D01*
X97175121Y-78040288D01*
X96889822Y-78391780D01*
X96673968Y-78710212D01*
X96549308Y-78964809D01*
X96527334Y-79074278D01*
X96471557Y-79190398D01*
X96320617Y-79395003D01*
X96099098Y-79656851D01*
X95890779Y-79883202D01*
X95559606Y-80254447D01*
X95301450Y-80609745D01*
X95110278Y-80974954D01*
X94980059Y-81375933D01*
X94904761Y-81838539D01*
X94878351Y-82388630D01*
X94894797Y-83052064D01*
X94948067Y-83854700D01*
X94952204Y-83906618D01*
X95017655Y-84722236D01*
X95355083Y-84726893D01*
X95566989Y-84751294D01*
X95768453Y-84834749D01*
X96009576Y-85002315D01*
X96173423Y-85136186D01*
X96524660Y-85433570D01*
X96769939Y-85648843D01*
X96933874Y-85807710D01*
X97041079Y-85935878D01*
X97116167Y-86059054D01*
X97174154Y-86181334D01*
X97262962Y-86364991D01*
X97319155Y-86409519D01*
X97374204Y-86332528D01*
X97389030Y-86301577D01*
X97519988Y-86133792D01*
X97714023Y-85982334D01*
X97899903Y-85832944D01*
X98009055Y-85673137D01*
X98009554Y-85671590D01*
X98126101Y-85540394D01*
X98318789Y-85506744D01*
X98521967Y-85575620D01*
X98586418Y-85627847D01*
X98675505Y-85778169D01*
X98768168Y-86027524D01*
X98814900Y-86199347D01*
X99017764Y-86853406D01*
X99290925Y-87358258D01*
X99644295Y-87722895D01*
X100087787Y-87956312D01*
X100631314Y-88067500D01*
X100887667Y-88079872D01*
X101451007Y-88067680D01*
X101882826Y-88011715D01*
X102217147Y-87903837D01*
X102487990Y-87735908D01*
X102551790Y-87681782D01*
X102737752Y-87486485D01*
X102952223Y-87218576D01*
X103168157Y-86917815D01*
X103358507Y-86623959D01*
X103496228Y-86376764D01*
X103554274Y-86215989D01*
X103554667Y-86207562D01*
X103609951Y-86016821D01*
X103741944Y-85824492D01*
X103899856Y-85694763D01*
X103977371Y-85673334D01*
X104103904Y-85697741D01*
X104207213Y-85789016D01*
X104302795Y-85974235D01*
X104406148Y-86280475D01*
X104486227Y-86562334D01*
X104588348Y-86910423D01*
X104691541Y-87220784D01*
X104776536Y-87436272D01*
X104790415Y-87464397D01*
X104902410Y-87811839D01*
X104868297Y-88113690D01*
X104709517Y-88348866D01*
X104447515Y-88496280D01*
X104103731Y-88534845D01*
X103769469Y-88468368D01*
X103511318Y-88411579D01*
X103253105Y-88433887D01*
X103083742Y-88478025D01*
X102867845Y-88560247D01*
X102747061Y-88642821D01*
X102736922Y-88676558D01*
X102781083Y-88729363D01*
X102889067Y-88750576D01*
X103097010Y-88742210D01*
X103385334Y-88712665D01*
X103681667Y-88679000D01*
X103673794Y-89046492D01*
X103675535Y-89274021D01*
X103713852Y-89374438D01*
X103818771Y-89389835D01*
X103910355Y-89378109D01*
X104099168Y-89373914D01*
X104198392Y-89412783D01*
X104310144Y-89472980D01*
X104397272Y-89483334D01*
X104552843Y-89544027D01*
X104601285Y-89610333D01*
X104714436Y-89722964D01*
X104779677Y-89737334D01*
X104895009Y-89785159D01*
X104892640Y-89902428D01*
X104784663Y-90049826D01*
X104652803Y-90149828D01*
X104539576Y-90208458D01*
X104405604Y-90248866D01*
X104221755Y-90273193D01*
X103958900Y-90283581D01*
X103587907Y-90282171D01*
X103079646Y-90271103D01*
X103022970Y-90269622D01*
X102546164Y-90258107D01*
X102119512Y-90249780D01*
X101775954Y-90245130D01*
X101548431Y-90244649D01*
X101480334Y-90246640D01*
X101250254Y-90263848D01*
X101152812Y-90270745D01*
X101006476Y-90353931D01*
X100875427Y-90540439D01*
X100792633Y-90765184D01*
X100791060Y-90963080D01*
X100795544Y-90976098D01*
X100857258Y-91074116D01*
X100923118Y-91018470D01*
X101048049Y-90896763D01*
X101193730Y-90805079D01*
X101369806Y-90748954D01*
X101548272Y-90792360D01*
X101649667Y-90844700D01*
X101839665Y-90924095D01*
X102110175Y-91005996D01*
X102412441Y-91079697D01*
X102697708Y-91134491D01*
X102917222Y-91159673D01*
X103021043Y-91145846D01*
X103031560Y-91049705D01*
X102945421Y-90964979D01*
X102832627Y-90954195D01*
X102697881Y-90944754D01*
X102595316Y-90851702D01*
X102570029Y-90734287D01*
X102617854Y-90672053D01*
X102806172Y-90617751D01*
X103080697Y-90601379D01*
X103362803Y-90622094D01*
X103573864Y-90679053D01*
X103580283Y-90682376D01*
X103800781Y-90763515D01*
X103952133Y-90793287D01*
X104176739Y-90860553D01*
X104286409Y-90972772D01*
X104276875Y-91087993D01*
X104143873Y-91164268D01*
X103990771Y-91173196D01*
X103637654Y-91163746D01*
X103414000Y-91187080D01*
X103336287Y-91240956D01*
X103343000Y-91261334D01*
X103322895Y-91333063D01*
X103258334Y-91346000D01*
X103166886Y-91385824D01*
X103173667Y-91430667D01*
X103287114Y-91489332D01*
X103488837Y-91514041D01*
X103496164Y-91514037D01*
X103664227Y-91501973D01*
X103680072Y-91461931D01*
X103639334Y-91430667D01*
X103572202Y-91368686D01*
X103656055Y-91348185D01*
X103700177Y-91347297D01*
X103835796Y-91377723D01*
X103837951Y-91491240D01*
X103836953Y-91494167D01*
X103813885Y-91584334D01*
X103863778Y-91540948D01*
X103912033Y-91480410D01*
X104061041Y-91374281D01*
X104203560Y-91386385D01*
X104280665Y-91501799D01*
X104279984Y-91573596D01*
X104198521Y-91692326D01*
X104075040Y-91700512D01*
X103923912Y-91725453D01*
X103893334Y-91806345D01*
X103821646Y-91915041D01*
X103709501Y-91938667D01*
X103502362Y-91994285D01*
X103368833Y-92080600D01*
X103225717Y-92170934D01*
X103115389Y-92125885D01*
X103112400Y-92122933D01*
X102937020Y-92023485D01*
X102771629Y-92037106D01*
X102667551Y-92141947D01*
X102673577Y-92309750D01*
X102782102Y-92424251D01*
X103000342Y-92562360D01*
X103275863Y-92698897D01*
X103556227Y-92808681D01*
X103788999Y-92866533D01*
X103840246Y-92870000D01*
X104192871Y-92923778D01*
X104432610Y-93069715D01*
X104543925Y-93284719D01*
X104511275Y-93545694D01*
X104412222Y-93720048D01*
X104292041Y-93899532D01*
X104232763Y-94021239D01*
X104231465Y-94030738D01*
X104164848Y-94113442D01*
X104002637Y-94227244D01*
X103977465Y-94241896D01*
X103805472Y-94317405D01*
X103725550Y-94305436D01*
X103724000Y-94295521D01*
X103657263Y-94239975D01*
X103561002Y-94247542D01*
X103442071Y-94249168D01*
X103441700Y-94151584D01*
X103420987Y-94124434D01*
X103319405Y-94210179D01*
X103239019Y-94298002D01*
X103047409Y-94485861D01*
X102853472Y-94568193D01*
X102617488Y-94585585D01*
X102331016Y-94577463D01*
X102081252Y-94554062D01*
X102030667Y-94545480D01*
X101788821Y-94469561D01*
X101527353Y-94347539D01*
X101294310Y-94207325D01*
X101137739Y-94076829D01*
X101099334Y-94004452D01*
X101028669Y-93908892D01*
X100927343Y-93886000D01*
X100764538Y-93830829D01*
X100706618Y-93759000D01*
X100581449Y-93662779D01*
X100333272Y-93632000D01*
X100108443Y-93608554D01*
X99962867Y-93550551D01*
X99948249Y-93534252D01*
X99938270Y-93476315D01*
X99985585Y-93496915D01*
X100072590Y-93500318D01*
X100083334Y-93465006D01*
X100014568Y-93361787D01*
X99935167Y-93318019D01*
X99776656Y-93225373D01*
X99727026Y-93173217D01*
X99635745Y-93132675D01*
X99569559Y-93180575D01*
X99549180Y-93264450D01*
X99624613Y-93403216D01*
X99809810Y-93618493D01*
X99937865Y-93751367D01*
X100174701Y-93976170D01*
X100380321Y-94143142D01*
X100516782Y-94222094D01*
X100532777Y-94224667D01*
X100664070Y-94271028D01*
X100690112Y-94308052D01*
X100782065Y-94366239D01*
X100992547Y-94433287D01*
X101226334Y-94484866D01*
X101529033Y-94546503D01*
X101783929Y-94608803D01*
X101903667Y-94646525D01*
X102383846Y-94825293D01*
X102776278Y-94941452D01*
X103051540Y-94986404D01*
X103067792Y-94986667D01*
X103284397Y-95019996D01*
X103528061Y-95103202D01*
X103743486Y-95211116D01*
X103875374Y-95318568D01*
X103892776Y-95362181D01*
X103849104Y-95489387D01*
X103743586Y-95677560D01*
X103732409Y-95694732D01*
X103641507Y-95902513D01*
X103582512Y-96172251D01*
X103557272Y-96456968D01*
X103567637Y-96709685D01*
X103615458Y-96883422D01*
X103683617Y-96934000D01*
X103784639Y-96961455D01*
X103794071Y-97063751D01*
X103711492Y-97270783D01*
X103677901Y-97339444D01*
X103597410Y-97545039D01*
X103612959Y-97695291D01*
X103655934Y-97775785D01*
X103783790Y-97927718D01*
X103888999Y-97920957D01*
X103941254Y-97856294D01*
X104017687Y-97817651D01*
X104071954Y-97877461D01*
X104126577Y-97918682D01*
X104146904Y-97802545D01*
X104147334Y-97780667D01*
X104161208Y-97644350D01*
X104208248Y-97660619D01*
X104233297Y-97696000D01*
X104313226Y-97780376D01*
X104391330Y-97714695D01*
X104404475Y-97696000D01*
X104452082Y-97668108D01*
X104456777Y-97767666D01*
X104425233Y-97960216D01*
X104364121Y-98211296D01*
X104280114Y-98486447D01*
X104218514Y-98656443D01*
X104106052Y-98906820D01*
X103987625Y-99112697D01*
X103885094Y-99243787D01*
X103820321Y-99269805D01*
X103818411Y-99262334D01*
X103639334Y-99262334D01*
X103597000Y-99304667D01*
X103554667Y-99262334D01*
X103597000Y-99220000D01*
X103639334Y-99262334D01*
X103818411Y-99262334D01*
X103808667Y-99224233D01*
X103739433Y-99127331D01*
X103576995Y-99027685D01*
X103358169Y-98906971D01*
X103210507Y-98796667D01*
X102925124Y-98542597D01*
X102695265Y-98366834D01*
X102548770Y-98290305D01*
X102534650Y-98288667D01*
X102374346Y-98243027D01*
X102130860Y-98125561D01*
X101856917Y-97965449D01*
X101605244Y-97791874D01*
X101533973Y-97734854D01*
X101343663Y-97585455D01*
X101259065Y-97542053D01*
X101268738Y-97588379D01*
X101361239Y-97708167D01*
X101525125Y-97885149D01*
X101748955Y-98103056D01*
X101871804Y-98215159D01*
X102178277Y-98489347D01*
X102476170Y-98756227D01*
X102716058Y-98971505D01*
X102781971Y-99030789D01*
X103018511Y-99221606D01*
X103249995Y-99374299D01*
X103321834Y-99411290D01*
X103486433Y-99501250D01*
X103554667Y-99571052D01*
X103625629Y-99633983D01*
X103798057Y-99711509D01*
X103814044Y-99717188D01*
X103989372Y-99764828D01*
X104089664Y-99723702D01*
X104176012Y-99561635D01*
X104195044Y-99516523D01*
X104275974Y-99293408D01*
X104315806Y-99125881D01*
X104316667Y-99110113D01*
X104352415Y-98989052D01*
X104448757Y-98755239D01*
X104589344Y-98446763D01*
X104698471Y-98220680D01*
X104870702Y-97865940D01*
X104978870Y-97612555D01*
X105034751Y-97410479D01*
X105050117Y-97209665D01*
X105036745Y-96960066D01*
X105025551Y-96830453D01*
X104988364Y-96505302D01*
X104942379Y-96233408D01*
X104897226Y-96071140D01*
X104895043Y-96066681D01*
X104864774Y-95895634D01*
X104869569Y-95611718D01*
X104902643Y-95266142D01*
X104957210Y-94910117D01*
X105026484Y-94594853D01*
X105103679Y-94371560D01*
X105124601Y-94334289D01*
X105247732Y-94134496D01*
X105399578Y-93872953D01*
X105453463Y-93776683D01*
X105873742Y-93009824D01*
X106216008Y-92367760D01*
X106489057Y-91829895D01*
X106701682Y-91375634D01*
X106862678Y-90984383D01*
X106980842Y-90635546D01*
X107064966Y-90308527D01*
X107123847Y-89982733D01*
X107146909Y-89811070D01*
X107219784Y-89451645D01*
X107344495Y-89211929D01*
X107405483Y-89146093D01*
X107546926Y-88948590D01*
X107668626Y-88671383D01*
X107703359Y-88551893D01*
X107782827Y-88296065D01*
X107809959Y-88255667D01*
X106772000Y-88255667D01*
X106729667Y-88298000D01*
X106687334Y-88255667D01*
X106729667Y-88213334D01*
X106772000Y-88255667D01*
X107809959Y-88255667D01*
X107902071Y-88118522D01*
X108109958Y-87955443D01*
X108207822Y-87893003D01*
X108415617Y-87752076D01*
X108563733Y-87607828D01*
X108684888Y-87414553D01*
X108811801Y-87126544D01*
X108878799Y-86955697D01*
X108998846Y-86631509D01*
X109090318Y-86359939D01*
X109138640Y-86185241D01*
X109142667Y-86154435D01*
X109189564Y-86022147D01*
X109309151Y-85814785D01*
X109396667Y-85686770D01*
X109599446Y-85314663D01*
X109650667Y-85040680D01*
X109649739Y-85031278D01*
X98298650Y-85031278D01*
X98283083Y-85141092D01*
X98254181Y-85142403D01*
X98235620Y-85038334D01*
X97289334Y-85038334D01*
X97247000Y-85080667D01*
X97204667Y-85038334D01*
X97247000Y-84996000D01*
X97289334Y-85038334D01*
X98235620Y-85038334D01*
X98233970Y-85029086D01*
X98247497Y-84980125D01*
X98285092Y-84948055D01*
X98298650Y-85031278D01*
X109649739Y-85031278D01*
X109630154Y-84832962D01*
X109541680Y-84731829D01*
X109417834Y-84692098D01*
X108967918Y-84586039D01*
X108661227Y-84503759D01*
X108474739Y-84436845D01*
X108385434Y-84376887D01*
X108370291Y-84315470D01*
X108371713Y-84309817D01*
X108413024Y-84165517D01*
X108483002Y-83922760D01*
X108534773Y-83743715D01*
X108587011Y-83528458D01*
X106767000Y-83528458D01*
X106740590Y-83657375D01*
X106664420Y-83761009D01*
X106331405Y-83981815D01*
X105940062Y-84064622D01*
X105930900Y-84064667D01*
X105750095Y-84083476D01*
X105671443Y-84128924D01*
X105671334Y-84130849D01*
X105597815Y-84191521D01*
X105411217Y-84270401D01*
X105290334Y-84309528D01*
X105065988Y-84389111D01*
X104929076Y-84463397D01*
X104909334Y-84491137D01*
X104863706Y-84557485D01*
X104713104Y-84603253D01*
X104436949Y-84631820D01*
X104014665Y-84646565D01*
X103956834Y-84647512D01*
X103595872Y-84641700D01*
X103371882Y-84612893D01*
X103300667Y-84566961D01*
X103234967Y-84514947D01*
X103135341Y-84529062D01*
X103012542Y-84539157D01*
X102999389Y-84429926D01*
X103002375Y-84413503D01*
X102995769Y-84308390D01*
X102902721Y-84234834D01*
X102687694Y-84169671D01*
X102596201Y-84148763D01*
X102217526Y-84075482D01*
X101772935Y-84004773D01*
X101319864Y-83944276D01*
X100915749Y-83901635D01*
X100618026Y-83884491D01*
X100609616Y-83884445D01*
X100321481Y-83950189D01*
X100186283Y-84059098D01*
X100020193Y-84181843D01*
X99730065Y-84289067D01*
X99299928Y-84385478D01*
X98821815Y-84461120D01*
X98596221Y-84484319D01*
X98506163Y-84465158D01*
X98521646Y-84396958D01*
X98523101Y-84394608D01*
X98598755Y-84221998D01*
X98660864Y-83992368D01*
X98702795Y-83752376D01*
X98717915Y-83548681D01*
X98699590Y-83427940D01*
X98661853Y-83418634D01*
X98615123Y-83398188D01*
X98622414Y-83279833D01*
X98672289Y-83121830D01*
X98745591Y-82992001D01*
X98758608Y-82875512D01*
X98696468Y-82822346D01*
X98653556Y-82772866D01*
X98620116Y-82664935D01*
X98594538Y-82478423D01*
X98575212Y-82193199D01*
X98560529Y-81789133D01*
X98548880Y-81246096D01*
X98543606Y-80910423D01*
X98537687Y-80372262D01*
X98535999Y-79895673D01*
X98538335Y-79505045D01*
X98544486Y-79224766D01*
X98554245Y-79079223D01*
X98559334Y-79064144D01*
X98661559Y-79053566D01*
X98873290Y-79032373D01*
X99005101Y-79019322D01*
X99300358Y-78976886D01*
X99561190Y-78917756D01*
X99630677Y-78895054D01*
X99814096Y-78850681D01*
X99909939Y-78871889D01*
X99885806Y-78943337D01*
X99826882Y-78987974D01*
X99763268Y-79047719D01*
X99852023Y-79067385D01*
X99887837Y-79068037D01*
X100058683Y-79103730D01*
X100125667Y-79154000D01*
X100105562Y-79225729D01*
X100041000Y-79238667D01*
X99951205Y-79280891D01*
X99959901Y-79329106D01*
X100075453Y-79384406D01*
X100136152Y-79373359D01*
X100278225Y-79393615D01*
X100425442Y-79496108D01*
X100632692Y-79644242D01*
X100955493Y-79781845D01*
X101411989Y-79915283D01*
X101988334Y-80044459D01*
X102588254Y-80178769D01*
X103032409Y-80307679D01*
X103334089Y-80435462D01*
X103455614Y-80516166D01*
X103600050Y-80611736D01*
X103846258Y-80751263D01*
X104143128Y-80905899D01*
X104168171Y-80918374D01*
X104506955Y-81105847D01*
X104769638Y-81308991D01*
X105018433Y-81580831D01*
X105161544Y-81765040D01*
X105378330Y-82063788D01*
X105568630Y-82344124D01*
X105697221Y-82553772D01*
X105712627Y-82583000D01*
X105880134Y-82880118D01*
X106036210Y-83048757D01*
X106221127Y-83121685D01*
X106389042Y-83133334D01*
X106594790Y-83145219D01*
X106671739Y-83197296D01*
X106662802Y-83302667D01*
X106658053Y-83437675D01*
X106695260Y-83472000D01*
X106767000Y-83528458D01*
X108587011Y-83528458D01*
X108588605Y-83521892D01*
X108618713Y-83286585D01*
X108626333Y-82997975D01*
X108612706Y-82616246D01*
X108583814Y-82167371D01*
X108549222Y-81707130D01*
X108515751Y-81375731D01*
X108473508Y-81133040D01*
X108412601Y-80938925D01*
X108323136Y-80753251D01*
X108195221Y-80535886D01*
X108172466Y-80498656D01*
X107518312Y-79535000D01*
X100760667Y-79535000D01*
X100718334Y-79577334D01*
X100676000Y-79535000D01*
X100718334Y-79492667D01*
X100760667Y-79535000D01*
X107518312Y-79535000D01*
X107443947Y-79425451D01*
X107100626Y-79008936D01*
X102609686Y-79008936D01*
X102589085Y-79056252D01*
X102503835Y-79147145D01*
X102454825Y-79128500D01*
X102454000Y-79116664D01*
X102514137Y-79045051D01*
X102551749Y-79018915D01*
X102609686Y-79008936D01*
X107100626Y-79008936D01*
X106920297Y-78790163D01*
X102655137Y-78790163D01*
X102538667Y-78801965D01*
X102418472Y-78788660D01*
X102432834Y-78759260D01*
X102606176Y-78748078D01*
X102644500Y-78759260D01*
X102655137Y-78790163D01*
X106920297Y-78790163D01*
X106754941Y-78589556D01*
X103611112Y-78589556D01*
X103599489Y-78639890D01*
X103554667Y-78646000D01*
X103484977Y-78615022D01*
X103498223Y-78589556D01*
X103598702Y-78579423D01*
X103611112Y-78589556D01*
X106754941Y-78589556D01*
X106698083Y-78520576D01*
X103249143Y-78520576D01*
X103227875Y-78542278D01*
X103053153Y-78552130D01*
X103025500Y-78552894D01*
X102821542Y-78538408D01*
X102713289Y-78491911D01*
X102708000Y-78476667D01*
X102760668Y-78408889D01*
X102931084Y-78420720D01*
X103131334Y-78476667D01*
X103249143Y-78520576D01*
X106698083Y-78520576D01*
X106646975Y-78458574D01*
X103906486Y-78458574D01*
X103796678Y-78449536D01*
X103602056Y-78396791D01*
X103470000Y-78349667D01*
X103306220Y-78274213D01*
X103302383Y-78236669D01*
X103343000Y-78232927D01*
X103539507Y-78265859D01*
X103766334Y-78346609D01*
X103905149Y-78424174D01*
X103906486Y-78458574D01*
X106646975Y-78458574D01*
X106633443Y-78442158D01*
X106362157Y-78154026D01*
X106089167Y-77883623D01*
X105956254Y-77768652D01*
X103341085Y-77768652D01*
X103300667Y-77799334D01*
X103207259Y-77855658D01*
X103122329Y-77872760D01*
X102992628Y-77846562D01*
X102764909Y-77772982D01*
X102708000Y-77753922D01*
X102504410Y-77682580D01*
X102455612Y-77654012D01*
X102554348Y-77661864D01*
X102612750Y-77670540D01*
X102904774Y-77703102D01*
X103163084Y-77715963D01*
X103328172Y-77728111D01*
X103341085Y-77768652D01*
X105956254Y-77768652D01*
X105846314Y-77673554D01*
X105590184Y-77494438D01*
X105555820Y-77474934D01*
X104046209Y-77474934D01*
X104023604Y-77516155D01*
X103935667Y-77553926D01*
X103715067Y-77590948D01*
X103597000Y-77577981D01*
X103405286Y-77529089D01*
X103146209Y-77464242D01*
X103089000Y-77450061D01*
X102855427Y-77378553D01*
X102692926Y-77304192D01*
X102669900Y-77286478D01*
X102611563Y-77259611D01*
X101703750Y-77259611D01*
X101591293Y-77274269D01*
X101565000Y-77274828D01*
X101420405Y-77265676D01*
X101407674Y-77239172D01*
X101415222Y-77235798D01*
X101583302Y-77219049D01*
X101669222Y-77232660D01*
X101703750Y-77259611D01*
X102611563Y-77259611D01*
X102529122Y-77221643D01*
X102373567Y-77197600D01*
X102288801Y-77181420D01*
X102366614Y-77145497D01*
X102520985Y-77107261D01*
X102828387Y-77069126D01*
X103116118Y-77119103D01*
X103255312Y-77167680D01*
X103497351Y-77239397D01*
X103682480Y-77257683D01*
X103730576Y-77244936D01*
X103795581Y-77228652D01*
X103778186Y-77272156D01*
X103801727Y-77363512D01*
X103913271Y-77424765D01*
X104046209Y-77474934D01*
X105555820Y-77474934D01*
X105277361Y-77316893D01*
X104864430Y-77111535D01*
X104720238Y-77042812D01*
X104072517Y-76751789D01*
X104045414Y-76741000D01*
X101438000Y-76741000D01*
X101395667Y-76783334D01*
X101353334Y-76741000D01*
X101395667Y-76698667D01*
X101438000Y-76741000D01*
X104045414Y-76741000D01*
X103470967Y-76512330D01*
X102941289Y-76333223D01*
X102509184Y-76223260D01*
X102228631Y-76190667D01*
X101960241Y-76166094D01*
X101733775Y-76118952D01*
X101466133Y-76087103D01*
X101085387Y-76097891D01*
G36*
X89025350Y-99643378D02*
X88907334Y-99698357D01*
X88708521Y-99814517D01*
X88668202Y-99879637D01*
X88781509Y-99887249D01*
X89013167Y-99838971D01*
X89138969Y-99751993D01*
X89161334Y-99685948D01*
X89133856Y-99621023D01*
X89025350Y-99643378D01*
X89025350Y-99643378D01*
G37*
X89025350Y-99643378D02*
X88907334Y-99698357D01*
X88708521Y-99814517D01*
X88668202Y-99879637D01*
X88781509Y-99887249D01*
X89013167Y-99838971D01*
X89138969Y-99751993D01*
X89161334Y-99685948D01*
X89133856Y-99621023D01*
X89025350Y-99643378D01*
G36*
X89436046Y-99399271D02*
X89430705Y-99402949D01*
X89317247Y-99539062D01*
X89339383Y-99706834D01*
X89426120Y-99846090D01*
X89523854Y-99900470D01*
X89582143Y-99847181D01*
X89584667Y-99817664D01*
X89523050Y-99703203D01*
X89498619Y-99684813D01*
X89441945Y-99596372D01*
X89505874Y-99523732D01*
X89643944Y-99510320D01*
X89676459Y-99518595D01*
X89808467Y-99522995D01*
X89838667Y-99477048D01*
X89772673Y-99363643D01*
X89617207Y-99333856D01*
X89436046Y-99399271D01*
X89436046Y-99399271D01*
G37*
X89436046Y-99399271D02*
X89430705Y-99402949D01*
X89317247Y-99539062D01*
X89339383Y-99706834D01*
X89426120Y-99846090D01*
X89523854Y-99900470D01*
X89582143Y-99847181D01*
X89584667Y-99817664D01*
X89523050Y-99703203D01*
X89498619Y-99684813D01*
X89441945Y-99596372D01*
X89505874Y-99523732D01*
X89643944Y-99510320D01*
X89676459Y-99518595D01*
X89808467Y-99522995D01*
X89838667Y-99477048D01*
X89772673Y-99363643D01*
X89617207Y-99333856D01*
X89436046Y-99399271D01*
G36*
X89690532Y-100031229D02*
X89688737Y-100082542D01*
X89773009Y-100194350D01*
X89874463Y-100208566D01*
X89923334Y-100116056D01*
X89855164Y-99999424D01*
X89789278Y-99982000D01*
X89690532Y-100031229D01*
X89690532Y-100031229D01*
G37*
X89690532Y-100031229D02*
X89688737Y-100082542D01*
X89773009Y-100194350D01*
X89874463Y-100208566D01*
X89923334Y-100116056D01*
X89855164Y-99999424D01*
X89789278Y-99982000D01*
X89690532Y-100031229D01*
G36*
X103922104Y-100203499D02*
X103935667Y-100236000D01*
X104047826Y-100317506D01*
X104072661Y-100320667D01*
X104118564Y-100268501D01*
X104105000Y-100236000D01*
X103992841Y-100154494D01*
X103968007Y-100151334D01*
X103922104Y-100203499D01*
X103922104Y-100203499D01*
G37*
X103922104Y-100203499D02*
X103935667Y-100236000D01*
X104047826Y-100317506D01*
X104072661Y-100320667D01*
X104118564Y-100268501D01*
X104105000Y-100236000D01*
X103992841Y-100154494D01*
X103968007Y-100151334D01*
X103922104Y-100203499D01*
G36*
X88822667Y-100278334D02*
X88741897Y-100354416D01*
X88738000Y-100367997D01*
X88803506Y-100404363D01*
X88822667Y-100405334D01*
X88904080Y-100340246D01*
X88907334Y-100315670D01*
X88855464Y-100265104D01*
X88822667Y-100278334D01*
X88822667Y-100278334D01*
G37*
X88822667Y-100278334D02*
X88741897Y-100354416D01*
X88738000Y-100367997D01*
X88803506Y-100404363D01*
X88822667Y-100405334D01*
X88904080Y-100340246D01*
X88907334Y-100315670D01*
X88855464Y-100265104D01*
X88822667Y-100278334D01*
G36*
X88540316Y-99995716D02*
X88443246Y-100039841D01*
X88450560Y-100081055D01*
X88454661Y-100144655D01*
X88371093Y-100126124D01*
X88210374Y-100132186D01*
X87988610Y-100216891D01*
X87933871Y-100247099D01*
X87714476Y-100391247D01*
X87637783Y-100474138D01*
X87703804Y-100486062D01*
X87912552Y-100417312D01*
X87933667Y-100408754D01*
X88144708Y-100371677D01*
X88339614Y-100383711D01*
X88513175Y-100392101D01*
X88551971Y-100321196D01*
X88551280Y-100317977D01*
X88607623Y-100224167D01*
X88792353Y-100150152D01*
X88805797Y-100147119D01*
X89049544Y-100080884D01*
X89124812Y-100028154D01*
X89032068Y-99993635D01*
X88789448Y-99982000D01*
X88540316Y-99995716D01*
X88540316Y-99995716D01*
G37*
X88540316Y-99995716D02*
X88443246Y-100039841D01*
X88450560Y-100081055D01*
X88454661Y-100144655D01*
X88371093Y-100126124D01*
X88210374Y-100132186D01*
X87988610Y-100216891D01*
X87933871Y-100247099D01*
X87714476Y-100391247D01*
X87637783Y-100474138D01*
X87703804Y-100486062D01*
X87912552Y-100417312D01*
X87933667Y-100408754D01*
X88144708Y-100371677D01*
X88339614Y-100383711D01*
X88513175Y-100392101D01*
X88551971Y-100321196D01*
X88551280Y-100317977D01*
X88607623Y-100224167D01*
X88792353Y-100150152D01*
X88805797Y-100147119D01*
X89049544Y-100080884D01*
X89124812Y-100028154D01*
X89032068Y-99993635D01*
X88789448Y-99982000D01*
X88540316Y-99995716D01*
G36*
X104682960Y-100095485D02*
X104684947Y-100193491D01*
X104730709Y-100267138D01*
X104862117Y-100370995D01*
X105018707Y-100434281D01*
X105137015Y-100437601D01*
X105163334Y-100399359D01*
X105100972Y-100302796D01*
X104957593Y-100191471D01*
X104798758Y-100106856D01*
X104690025Y-100090422D01*
X104682960Y-100095485D01*
X104682960Y-100095485D01*
G37*
X104682960Y-100095485D02*
X104684947Y-100193491D01*
X104730709Y-100267138D01*
X104862117Y-100370995D01*
X105018707Y-100434281D01*
X105137015Y-100437601D01*
X105163334Y-100399359D01*
X105100972Y-100302796D01*
X104957593Y-100191471D01*
X104798758Y-100106856D01*
X104690025Y-100090422D01*
X104682960Y-100095485D01*
G36*
X88738000Y-100617000D02*
X88780334Y-100659334D01*
X88822667Y-100617000D01*
X88780334Y-100574667D01*
X88738000Y-100617000D01*
X88738000Y-100617000D01*
G37*
X88738000Y-100617000D02*
X88780334Y-100659334D01*
X88822667Y-100617000D01*
X88780334Y-100574667D01*
X88738000Y-100617000D01*
G36*
X89076667Y-100617000D02*
X89119000Y-100659334D01*
X89161334Y-100617000D01*
X89119000Y-100574667D01*
X89076667Y-100617000D01*
X89076667Y-100617000D01*
G37*
X89076667Y-100617000D02*
X89119000Y-100659334D01*
X89161334Y-100617000D01*
X89119000Y-100574667D01*
X89076667Y-100617000D01*
G36*
X105332667Y-100786334D02*
X105375000Y-100828667D01*
X105417334Y-100786334D01*
X105375000Y-100744000D01*
X105332667Y-100786334D01*
X105332667Y-100786334D01*
G37*
X105332667Y-100786334D02*
X105375000Y-100828667D01*
X105417334Y-100786334D01*
X105375000Y-100744000D01*
X105332667Y-100786334D01*
G36*
X88822667Y-100871000D02*
X88865000Y-100913334D01*
X88907334Y-100871000D01*
X88865000Y-100828667D01*
X88822667Y-100871000D01*
X88822667Y-100871000D01*
G37*
X88822667Y-100871000D02*
X88865000Y-100913334D01*
X88907334Y-100871000D01*
X88865000Y-100828667D01*
X88822667Y-100871000D01*
G36*
X87945501Y-100603452D02*
X87941910Y-100672670D01*
X87939137Y-100736720D01*
X87819907Y-100722930D01*
X87677274Y-100719025D01*
X87637355Y-100831884D01*
X87637334Y-100836593D01*
X87646540Y-100965811D01*
X87658500Y-100989357D01*
X87744825Y-100960364D01*
X87927142Y-100901179D01*
X87949936Y-100893847D01*
X88162362Y-100795845D01*
X88264804Y-100690433D01*
X88243895Y-100606949D01*
X88095346Y-100574667D01*
X87945501Y-100603452D01*
X87945501Y-100603452D01*
G37*
X87945501Y-100603452D02*
X87941910Y-100672670D01*
X87939137Y-100736720D01*
X87819907Y-100722930D01*
X87677274Y-100719025D01*
X87637355Y-100831884D01*
X87637334Y-100836593D01*
X87646540Y-100965811D01*
X87658500Y-100989357D01*
X87744825Y-100960364D01*
X87927142Y-100901179D01*
X87949936Y-100893847D01*
X88162362Y-100795845D01*
X88264804Y-100690433D01*
X88243895Y-100606949D01*
X88095346Y-100574667D01*
X87945501Y-100603452D01*
G36*
X89103230Y-100883357D02*
X89119000Y-100913334D01*
X89198775Y-100994190D01*
X89213661Y-100998000D01*
X89219437Y-100943310D01*
X89203667Y-100913334D01*
X89123893Y-100832477D01*
X89109007Y-100828667D01*
X89103230Y-100883357D01*
X89103230Y-100883357D01*
G37*
X89103230Y-100883357D02*
X89119000Y-100913334D01*
X89198775Y-100994190D01*
X89213661Y-100998000D01*
X89219437Y-100943310D01*
X89203667Y-100913334D01*
X89123893Y-100832477D01*
X89109007Y-100828667D01*
X89103230Y-100883357D01*
G36*
X87494304Y-100765167D02*
X87481137Y-100979901D01*
X87494304Y-101061500D01*
X87518845Y-101087851D01*
X87532205Y-100970778D01*
X87533024Y-100913334D01*
X87524197Y-100759298D01*
X87502220Y-100741144D01*
X87494304Y-100765167D01*
X87494304Y-100765167D01*
G37*
X87494304Y-100765167D02*
X87481137Y-100979901D01*
X87494304Y-101061500D01*
X87518845Y-101087851D01*
X87532205Y-100970778D01*
X87533024Y-100913334D01*
X87524197Y-100759298D01*
X87502220Y-100741144D01*
X87494304Y-100765167D01*
G36*
X87665556Y-101449556D02*
X87677178Y-101499890D01*
X87722000Y-101506000D01*
X87791691Y-101475022D01*
X87778445Y-101449556D01*
X87677965Y-101439423D01*
X87665556Y-101449556D01*
X87665556Y-101449556D01*
G37*
X87665556Y-101449556D02*
X87677178Y-101499890D01*
X87722000Y-101506000D01*
X87791691Y-101475022D01*
X87778445Y-101449556D01*
X87677965Y-101439423D01*
X87665556Y-101449556D01*
G36*
X87468697Y-101623890D02*
X87468000Y-101664967D01*
X87518557Y-101810951D01*
X87595000Y-101844667D01*
X87707751Y-101804459D01*
X87722000Y-101770367D01*
X87664075Y-101660025D01*
X87595000Y-101590667D01*
X87497687Y-101536133D01*
X87468697Y-101623890D01*
X87468697Y-101623890D01*
G37*
X87468697Y-101623890D02*
X87468000Y-101664967D01*
X87518557Y-101810951D01*
X87595000Y-101844667D01*
X87707751Y-101804459D01*
X87722000Y-101770367D01*
X87664075Y-101660025D01*
X87595000Y-101590667D01*
X87497687Y-101536133D01*
X87468697Y-101623890D01*
G36*
X87665556Y-102296222D02*
X87677178Y-102346557D01*
X87722000Y-102352667D01*
X87791691Y-102321689D01*
X87778445Y-102296222D01*
X87677965Y-102286089D01*
X87665556Y-102296222D01*
X87665556Y-102296222D01*
G37*
X87665556Y-102296222D02*
X87677178Y-102346557D01*
X87722000Y-102352667D01*
X87791691Y-102321689D01*
X87778445Y-102296222D01*
X87677965Y-102286089D01*
X87665556Y-102296222D01*
G36*
X105591077Y-101037339D02*
X105586667Y-101077413D01*
X105605199Y-101198319D01*
X105654159Y-101439126D01*
X105723598Y-101755286D01*
X105803567Y-102102251D01*
X105884113Y-102435474D01*
X105931791Y-102622551D01*
X106068993Y-102908630D01*
X106265841Y-103060561D01*
X106442807Y-103133527D01*
X106512709Y-103113222D01*
X106518000Y-103079394D01*
X106489793Y-102944586D01*
X106415152Y-102694903D01*
X106309048Y-102373278D01*
X106186451Y-102022646D01*
X106062332Y-101685939D01*
X105951661Y-101406091D01*
X105876244Y-101238935D01*
X105760211Y-101070021D01*
X105653093Y-100996094D01*
X105591077Y-101037339D01*
X105591077Y-101037339D01*
G37*
X105591077Y-101037339D02*
X105586667Y-101077413D01*
X105605199Y-101198319D01*
X105654159Y-101439126D01*
X105723598Y-101755286D01*
X105803567Y-102102251D01*
X105884113Y-102435474D01*
X105931791Y-102622551D01*
X106068993Y-102908630D01*
X106265841Y-103060561D01*
X106442807Y-103133527D01*
X106512709Y-103113222D01*
X106518000Y-103079394D01*
X106489793Y-102944586D01*
X106415152Y-102694903D01*
X106309048Y-102373278D01*
X106186451Y-102022646D01*
X106062332Y-101685939D01*
X105951661Y-101406091D01*
X105876244Y-101238935D01*
X105760211Y-101070021D01*
X105653093Y-100996094D01*
X105591077Y-101037339D01*
G36*
X103539924Y-101373633D02*
X103433988Y-101557657D01*
X103311088Y-101822334D01*
X103301672Y-101844667D01*
X103071259Y-102395000D01*
X103265852Y-102776000D01*
X103444879Y-103092309D01*
X103623037Y-103349522D01*
X103778454Y-103521361D01*
X103889256Y-103581549D01*
X103920518Y-103562513D01*
X103929929Y-103435908D01*
X103893509Y-103210672D01*
X103855256Y-103061615D01*
X103732441Y-102503643D01*
X103708204Y-101979157D01*
X103711233Y-101916093D01*
X103747163Y-101755163D01*
X103849513Y-101725444D01*
X103882600Y-101732661D01*
X104025410Y-101804520D01*
X104264235Y-101959362D01*
X104565156Y-102171587D01*
X104894251Y-102415595D01*
X105217599Y-102665785D01*
X105501280Y-102896558D01*
X105711373Y-103082313D01*
X105805512Y-103183888D01*
X105946126Y-103323175D01*
X106059839Y-103368667D01*
X106132449Y-103318947D01*
X106088946Y-103185105D01*
X105944378Y-102990117D01*
X105713795Y-102756959D01*
X105586667Y-102646279D01*
X105380777Y-102485723D01*
X105097749Y-102279564D01*
X104770045Y-102049731D01*
X104430129Y-101818152D01*
X104110463Y-101606757D01*
X103843510Y-101437475D01*
X103661734Y-101332234D01*
X103606876Y-101308916D01*
X103539924Y-101373633D01*
X103539924Y-101373633D01*
G37*
X103539924Y-101373633D02*
X103433988Y-101557657D01*
X103311088Y-101822334D01*
X103301672Y-101844667D01*
X103071259Y-102395000D01*
X103265852Y-102776000D01*
X103444879Y-103092309D01*
X103623037Y-103349522D01*
X103778454Y-103521361D01*
X103889256Y-103581549D01*
X103920518Y-103562513D01*
X103929929Y-103435908D01*
X103893509Y-103210672D01*
X103855256Y-103061615D01*
X103732441Y-102503643D01*
X103708204Y-101979157D01*
X103711233Y-101916093D01*
X103747163Y-101755163D01*
X103849513Y-101725444D01*
X103882600Y-101732661D01*
X104025410Y-101804520D01*
X104264235Y-101959362D01*
X104565156Y-102171587D01*
X104894251Y-102415595D01*
X105217599Y-102665785D01*
X105501280Y-102896558D01*
X105711373Y-103082313D01*
X105805512Y-103183888D01*
X105946126Y-103323175D01*
X106059839Y-103368667D01*
X106132449Y-103318947D01*
X106088946Y-103185105D01*
X105944378Y-102990117D01*
X105713795Y-102756959D01*
X105586667Y-102646279D01*
X105380777Y-102485723D01*
X105097749Y-102279564D01*
X104770045Y-102049731D01*
X104430129Y-101818152D01*
X104110463Y-101606757D01*
X103843510Y-101437475D01*
X103661734Y-101332234D01*
X103606876Y-101308916D01*
X103539924Y-101373633D01*
G36*
X105770010Y-103527550D02*
X105723405Y-103591817D01*
X105831397Y-103645625D01*
X105854677Y-103652098D01*
X106063693Y-103698693D01*
X106157008Y-103681016D01*
X106179281Y-103589197D01*
X106179334Y-103580334D01*
X106113151Y-103479685D01*
X105955743Y-103459691D01*
X105770010Y-103527550D01*
X105770010Y-103527550D01*
G37*
X105770010Y-103527550D02*
X105723405Y-103591817D01*
X105831397Y-103645625D01*
X105854677Y-103652098D01*
X106063693Y-103698693D01*
X106157008Y-103681016D01*
X106179281Y-103589197D01*
X106179334Y-103580334D01*
X106113151Y-103479685D01*
X105955743Y-103459691D01*
X105770010Y-103527550D01*
G36*
X106136487Y-103956375D02*
X106144580Y-104141018D01*
X106147010Y-104155591D01*
X106209569Y-104430897D01*
X106279297Y-104654723D01*
X106325312Y-104847452D01*
X106313108Y-104966373D01*
X106320661Y-105079779D01*
X106347286Y-105103480D01*
X106420346Y-105224057D01*
X106433334Y-105316000D01*
X106470395Y-105476119D01*
X106551881Y-105527157D01*
X106633240Y-105442841D01*
X106636129Y-105435589D01*
X106682444Y-105218299D01*
X106657926Y-104953804D01*
X106556919Y-104598929D01*
X106508651Y-104462330D01*
X106387132Y-104176477D01*
X106273864Y-103987762D01*
X106184948Y-103909842D01*
X106136487Y-103956375D01*
X106136487Y-103956375D01*
G37*
X106136487Y-103956375D02*
X106144580Y-104141018D01*
X106147010Y-104155591D01*
X106209569Y-104430897D01*
X106279297Y-104654723D01*
X106325312Y-104847452D01*
X106313108Y-104966373D01*
X106320661Y-105079779D01*
X106347286Y-105103480D01*
X106420346Y-105224057D01*
X106433334Y-105316000D01*
X106470395Y-105476119D01*
X106551881Y-105527157D01*
X106633240Y-105442841D01*
X106636129Y-105435589D01*
X106682444Y-105218299D01*
X106657926Y-104953804D01*
X106556919Y-104598929D01*
X106508651Y-104462330D01*
X106387132Y-104176477D01*
X106273864Y-103987762D01*
X106184948Y-103909842D01*
X106136487Y-103956375D01*
G36*
X105101847Y-103617322D02*
X104934805Y-103818753D01*
X104748132Y-104114353D01*
X104577094Y-104445292D01*
X104429527Y-104711417D01*
X104223905Y-105024338D01*
X104066908Y-105236062D01*
X103856079Y-105529572D01*
X103740677Y-105750143D01*
X103728394Y-105879343D01*
X103787500Y-105905454D01*
X103868346Y-105840008D01*
X104005882Y-105676043D01*
X104101885Y-105545620D01*
X104267062Y-105303516D01*
X104468083Y-104998064D01*
X104685216Y-104660652D01*
X104898729Y-104322671D01*
X105088889Y-104015509D01*
X105235965Y-103770556D01*
X105320225Y-103619200D01*
X105332667Y-103587727D01*
X105265434Y-103543516D01*
X105226834Y-103541262D01*
X105101847Y-103617322D01*
X105101847Y-103617322D01*
G37*
X105101847Y-103617322D02*
X104934805Y-103818753D01*
X104748132Y-104114353D01*
X104577094Y-104445292D01*
X104429527Y-104711417D01*
X104223905Y-105024338D01*
X104066908Y-105236062D01*
X103856079Y-105529572D01*
X103740677Y-105750143D01*
X103728394Y-105879343D01*
X103787500Y-105905454D01*
X103868346Y-105840008D01*
X104005882Y-105676043D01*
X104101885Y-105545620D01*
X104267062Y-105303516D01*
X104468083Y-104998064D01*
X104685216Y-104660652D01*
X104898729Y-104322671D01*
X105088889Y-104015509D01*
X105235965Y-103770556D01*
X105320225Y-103619200D01*
X105332667Y-103587727D01*
X105265434Y-103543516D01*
X105226834Y-103541262D01*
X105101847Y-103617322D01*
G36*
X107206777Y-105956786D02*
X107200627Y-105962402D01*
X107133332Y-106113997D01*
X107134302Y-106258735D01*
X107165433Y-106359710D01*
X107183804Y-106317758D01*
X107222330Y-106113596D01*
X107250128Y-106021425D01*
X107271993Y-105919966D01*
X107206777Y-105956786D01*
X107206777Y-105956786D01*
G37*
X107206777Y-105956786D02*
X107200627Y-105962402D01*
X107133332Y-106113997D01*
X107134302Y-106258735D01*
X107165433Y-106359710D01*
X107183804Y-106317758D01*
X107222330Y-106113596D01*
X107250128Y-106021425D01*
X107271993Y-105919966D01*
X107206777Y-105956786D01*
G36*
X96459939Y-94083783D02*
X96300142Y-94266847D01*
X96111413Y-94526011D01*
X95954573Y-94770657D01*
X95599133Y-95340830D01*
X95306189Y-95772486D01*
X95064494Y-96079541D01*
X94862801Y-96275912D01*
X94689864Y-96375515D01*
X94648110Y-96387303D01*
X94364003Y-96499040D01*
X94014328Y-96712277D01*
X93645495Y-96998262D01*
X93406936Y-97195054D01*
X93143557Y-97399314D01*
X92893197Y-97583333D01*
X92693694Y-97719403D01*
X92582886Y-97779815D01*
X92577083Y-97780667D01*
X92472227Y-97824674D01*
X92275507Y-97938799D01*
X92081204Y-98064118D01*
X91788019Y-98241867D01*
X91492371Y-98391412D01*
X91340721Y-98451941D01*
X91152319Y-98534424D01*
X91067939Y-98613825D01*
X91070551Y-98634157D01*
X91035279Y-98690220D01*
X90891630Y-98712000D01*
X90739463Y-98725477D01*
X90730059Y-98784605D01*
X90772595Y-98842126D01*
X90925246Y-98945474D01*
X91015795Y-98959377D01*
X91318455Y-98952808D01*
X91483263Y-99010205D01*
X91532000Y-99135334D01*
X91476392Y-99275360D01*
X91398953Y-99304667D01*
X91225981Y-99360998D01*
X91157663Y-99412909D01*
X91092540Y-99525816D01*
X91160137Y-99624576D01*
X91301083Y-99714460D01*
X91359094Y-99728000D01*
X91425418Y-99800434D01*
X91447334Y-99939667D01*
X91401030Y-100112661D01*
X91311275Y-100151334D01*
X91214916Y-100098772D01*
X91222297Y-100028645D01*
X91218540Y-99942736D01*
X91146689Y-99953037D01*
X91042576Y-99935059D01*
X91024000Y-99857003D01*
X90975091Y-99752809D01*
X90918167Y-99749167D01*
X90821100Y-99853105D01*
X90812334Y-99903230D01*
X90751659Y-100012712D01*
X90625670Y-100050347D01*
X90518417Y-99999880D01*
X90501973Y-99963243D01*
X90449665Y-99910540D01*
X90334390Y-99991987D01*
X90312129Y-100014115D01*
X90204059Y-100130407D01*
X90220978Y-100156281D01*
X90333296Y-100130298D01*
X90475394Y-100119195D01*
X90516000Y-100152335D01*
X90539875Y-100285246D01*
X90566321Y-100377242D01*
X90591149Y-100477708D01*
X90542274Y-100428653D01*
X90525284Y-100405334D01*
X90449783Y-100335114D01*
X90432630Y-100384167D01*
X90363670Y-100479407D01*
X90311389Y-100490000D01*
X90178151Y-100426405D01*
X90152639Y-100384167D01*
X90094798Y-100324951D01*
X89997417Y-100394750D01*
X89927233Y-100497779D01*
X89986834Y-100549972D01*
X90083627Y-100651962D01*
X90061377Y-100786377D01*
X89972239Y-100856763D01*
X89889389Y-100966601D01*
X89894949Y-101067932D01*
X89894100Y-101218563D01*
X89830059Y-101294265D01*
X89748355Y-101257595D01*
X89723196Y-101209181D01*
X89610838Y-101109528D01*
X89439057Y-101085808D01*
X89301336Y-101148359D01*
X89291950Y-101161483D01*
X89302567Y-101270223D01*
X89329286Y-101293480D01*
X89413248Y-101403556D01*
X89351382Y-101490552D01*
X89264817Y-101506000D01*
X89097913Y-101445489D01*
X88969312Y-101336667D01*
X88824854Y-101208627D01*
X88724071Y-101167334D01*
X88707109Y-101218999D01*
X88793299Y-101346496D01*
X88822354Y-101378666D01*
X88940167Y-101534349D01*
X88968986Y-101639252D01*
X88963778Y-101647111D01*
X88871401Y-101634239D01*
X88869635Y-101633000D01*
X88568667Y-101633000D01*
X88526334Y-101675334D01*
X88484000Y-101633000D01*
X88526334Y-101590667D01*
X88568667Y-101633000D01*
X88869635Y-101633000D01*
X88719726Y-101527886D01*
X88695333Y-101505687D01*
X88557093Y-101401269D01*
X88486454Y-101397923D01*
X88484000Y-101411572D01*
X88434663Y-101475976D01*
X88399508Y-101463774D01*
X88279944Y-101469813D01*
X88097229Y-101544539D01*
X87919264Y-101651692D01*
X87813948Y-101755012D01*
X87806667Y-101780372D01*
X87879893Y-101842507D01*
X88057152Y-101898944D01*
X88067496Y-101901066D01*
X88232370Y-101950923D01*
X88240603Y-102008793D01*
X88215663Y-102028521D01*
X88189110Y-102070380D01*
X88316335Y-102054343D01*
X88328497Y-102051568D01*
X88560666Y-102057205D01*
X88727840Y-102173173D01*
X88901687Y-102347020D01*
X88728959Y-102468004D01*
X88620395Y-102582789D01*
X88650824Y-102647449D01*
X88789109Y-102651766D01*
X88855858Y-102614255D01*
X88976775Y-102577675D01*
X89093271Y-102670466D01*
X89202714Y-102812244D01*
X89287395Y-102944184D01*
X89322011Y-103022346D01*
X89288531Y-103009568D01*
X89173536Y-102999239D01*
X89116355Y-103032195D01*
X88958238Y-103076996D01*
X88933000Y-103072334D01*
X88568667Y-103072334D01*
X88526334Y-103114667D01*
X88484000Y-103072334D01*
X88526334Y-103030000D01*
X88568667Y-103072334D01*
X88933000Y-103072334D01*
X88860756Y-103058989D01*
X88756479Y-103007717D01*
X88806775Y-102962720D01*
X88871191Y-102936479D01*
X88963163Y-102889750D01*
X88907116Y-102865711D01*
X88801500Y-102856034D01*
X88607274Y-102836428D01*
X88505167Y-102817527D01*
X88381168Y-102776145D01*
X88251167Y-102733569D01*
X88103673Y-102657985D01*
X88060667Y-102596792D01*
X88112883Y-102525767D01*
X88233895Y-102567860D01*
X88288178Y-102614044D01*
X88391682Y-102656242D01*
X88445046Y-102601200D01*
X88437944Y-102481126D01*
X88324318Y-102362247D01*
X88160900Y-102290722D01*
X88062305Y-102289789D01*
X87961768Y-102380900D01*
X87955952Y-102450275D01*
X87915974Y-102612650D01*
X87853528Y-102687576D01*
X87763464Y-102741008D01*
X87755224Y-102657524D01*
X87762882Y-102614204D01*
X87747264Y-102468216D01*
X87681861Y-102437334D01*
X87549071Y-102370986D01*
X87525205Y-102331500D01*
X87515117Y-102387097D01*
X87505470Y-102593343D01*
X87496604Y-102931553D01*
X87488856Y-103383045D01*
X87482565Y-103929133D01*
X87478070Y-104551134D01*
X87476121Y-105040834D01*
X87468611Y-107856000D01*
X88632472Y-107857949D01*
X88982760Y-107858883D01*
X89475543Y-107860696D01*
X90083987Y-107863265D01*
X90781258Y-107866466D01*
X91540521Y-107870176D01*
X92334941Y-107874270D01*
X93137684Y-107878626D01*
X93225334Y-107879116D01*
X94146781Y-107883101D01*
X95166253Y-107885468D01*
X96236056Y-107886240D01*
X97308496Y-107885439D01*
X98335877Y-107883086D01*
X99270505Y-107879203D01*
X99771206Y-107876118D01*
X102888079Y-107853903D01*
X102850419Y-107729000D01*
X89246000Y-107729000D01*
X89203667Y-107771334D01*
X89161334Y-107729000D01*
X89203667Y-107686667D01*
X89246000Y-107729000D01*
X102850419Y-107729000D01*
X102830956Y-107664451D01*
X102755793Y-107446187D01*
X102667678Y-107221000D01*
X102597220Y-107051667D01*
X88738000Y-107051667D01*
X88695667Y-107094000D01*
X88653334Y-107051667D01*
X88695667Y-107009334D01*
X88738000Y-107051667D01*
X102597220Y-107051667D01*
X102496789Y-106810299D01*
X88653334Y-106810299D01*
X88607009Y-106889228D01*
X88512316Y-107009431D01*
X88435676Y-107087692D01*
X88429457Y-107090780D01*
X88424486Y-107021259D01*
X88429457Y-106893134D01*
X88475065Y-106748063D01*
X88547500Y-106732859D01*
X88645159Y-106793001D01*
X88653334Y-106810299D01*
X102496789Y-106810299D01*
X102357962Y-106476655D01*
X88618890Y-106476655D01*
X88607385Y-106507184D01*
X88525651Y-106582258D01*
X88485657Y-106496751D01*
X88484000Y-106454003D01*
X88525657Y-106366801D01*
X88570048Y-106375187D01*
X88618890Y-106476655D01*
X102357962Y-106476655D01*
X102333523Y-106417923D01*
X102298223Y-106332000D01*
X88314667Y-106332000D01*
X88283689Y-106401690D01*
X88258223Y-106388445D01*
X88248090Y-106287965D01*
X88258223Y-106275556D01*
X88308557Y-106287178D01*
X88314667Y-106332000D01*
X102298223Y-106332000D01*
X102063017Y-105759499D01*
X101867601Y-105273667D01*
X87891334Y-105273667D01*
X87849000Y-105316000D01*
X87806667Y-105273667D01*
X87849000Y-105231334D01*
X87891334Y-105273667D01*
X101867601Y-105273667D01*
X101852115Y-105235167D01*
X101817815Y-105146667D01*
X89923334Y-105146667D01*
X89892356Y-105216357D01*
X89866889Y-105203111D01*
X89856756Y-105102632D01*
X89866889Y-105090222D01*
X89917224Y-105101845D01*
X89923334Y-105146667D01*
X101817815Y-105146667D01*
X101722712Y-104901286D01*
X87691950Y-104901286D01*
X87662995Y-105028715D01*
X87611036Y-105140494D01*
X87581871Y-105095198D01*
X87568851Y-105034207D01*
X87565892Y-104879629D01*
X87587516Y-104829596D01*
X87665383Y-104807173D01*
X87691950Y-104901286D01*
X101722712Y-104901286D01*
X101696774Y-104834363D01*
X101608371Y-104589278D01*
X87630650Y-104589278D01*
X87615083Y-104699092D01*
X87586181Y-104700403D01*
X87565970Y-104587086D01*
X87579497Y-104538125D01*
X87617092Y-104506055D01*
X87630650Y-104589278D01*
X101608371Y-104589278D01*
X101592950Y-104546527D01*
X101536598Y-104361097D01*
X101523674Y-104267512D01*
X101531043Y-104252491D01*
X101541516Y-104158889D01*
X90064445Y-104158889D01*
X90052823Y-104209223D01*
X90008000Y-104215334D01*
X89938310Y-104184355D01*
X89951556Y-104158889D01*
X90052036Y-104148756D01*
X90064445Y-104158889D01*
X101541516Y-104158889D01*
X101541910Y-104155373D01*
X101528133Y-104125670D01*
X89500000Y-104125670D01*
X89438540Y-104211888D01*
X89415334Y-104215334D01*
X89332868Y-104186447D01*
X89330667Y-104177997D01*
X89389996Y-104105711D01*
X89415334Y-104088334D01*
X89493353Y-104095046D01*
X89500000Y-104125670D01*
X101528133Y-104125670D01*
X101464996Y-103989556D01*
X89133112Y-103989556D01*
X89121489Y-104039890D01*
X89076667Y-104046000D01*
X89006977Y-104015022D01*
X89020223Y-103989556D01*
X89120702Y-103979423D01*
X89133112Y-103989556D01*
X101464996Y-103989556D01*
X101454442Y-103966804D01*
X101335853Y-103792000D01*
X90262000Y-103792000D01*
X90231022Y-103861690D01*
X90205556Y-103848445D01*
X90195423Y-103747965D01*
X90205556Y-103735556D01*
X90255890Y-103747178D01*
X90262000Y-103792000D01*
X101335853Y-103792000D01*
X101286191Y-103718798D01*
X101257454Y-103683420D01*
X89866149Y-103683420D01*
X89865608Y-103759250D01*
X89776653Y-103851330D01*
X89656885Y-103874847D01*
X89586122Y-103817688D01*
X89584667Y-103801875D01*
X89654915Y-103722092D01*
X89747666Y-103684458D01*
X89866149Y-103683420D01*
X101257454Y-103683420D01*
X101139328Y-103538000D01*
X101117806Y-103507371D01*
X89576454Y-103507371D01*
X89494834Y-103637012D01*
X89472427Y-103663470D01*
X89303452Y-103828068D01*
X89200690Y-103869066D01*
X89180786Y-103780284D01*
X89182500Y-103771140D01*
X89279385Y-103612832D01*
X89450846Y-103486017D01*
X89557094Y-103456026D01*
X89576454Y-103507371D01*
X101117806Y-103507371D01*
X101009192Y-103352800D01*
X100933945Y-103223603D01*
X89909686Y-103223603D01*
X89889085Y-103270918D01*
X89803835Y-103361812D01*
X89754825Y-103343166D01*
X89754000Y-103331330D01*
X89814137Y-103259718D01*
X89851749Y-103233582D01*
X89909686Y-103223603D01*
X100933945Y-103223603D01*
X100846948Y-103074232D01*
X100814941Y-103011693D01*
X89694420Y-103011693D01*
X89600215Y-103096087D01*
X89574502Y-103114667D01*
X89402124Y-103255910D01*
X89190073Y-103451103D01*
X89131637Y-103508540D01*
X88919848Y-103703940D01*
X88796671Y-103780313D01*
X88770788Y-103733189D01*
X88786536Y-103686167D01*
X88874428Y-103579265D01*
X89054746Y-103416495D01*
X89168212Y-103326334D01*
X88822667Y-103326334D01*
X88780334Y-103368667D01*
X88738000Y-103326334D01*
X88780334Y-103284000D01*
X88822667Y-103326334D01*
X89168212Y-103326334D01*
X89209675Y-103293388D01*
X89422258Y-103127425D01*
X89518312Y-103022161D01*
X89517647Y-102937865D01*
X89440071Y-102834808D01*
X89438963Y-102833535D01*
X89288334Y-102660628D01*
X89519532Y-102824148D01*
X89670982Y-102939315D01*
X89694420Y-103011693D01*
X100814941Y-103011693D01*
X100694314Y-102776000D01*
X100653934Y-102691334D01*
X95497965Y-102691334D01*
X95484660Y-102811529D01*
X95455261Y-102797167D01*
X95444078Y-102623825D01*
X95452168Y-102596097D01*
X89224001Y-102596097D01*
X89161979Y-102555517D01*
X89150828Y-102544578D01*
X89083951Y-102433570D01*
X89093019Y-102392760D01*
X89156000Y-102418168D01*
X89198224Y-102497182D01*
X89224001Y-102596097D01*
X95452168Y-102596097D01*
X95455261Y-102585500D01*
X95486163Y-102574864D01*
X95497965Y-102691334D01*
X100653934Y-102691334D01*
X100465487Y-102296222D01*
X98023112Y-102296222D01*
X98011489Y-102346557D01*
X97966667Y-102352667D01*
X97896977Y-102321689D01*
X97910223Y-102296222D01*
X98010702Y-102286089D01*
X98023112Y-102296222D01*
X100465487Y-102296222D01*
X100362023Y-102079293D01*
X100337516Y-102028320D01*
X89161334Y-102028320D01*
X89104445Y-102039959D01*
X88966614Y-101961174D01*
X88957504Y-101954453D01*
X88838837Y-101841155D01*
X88829988Y-101774619D01*
X88833350Y-101773162D01*
X88960749Y-101799157D01*
X89097185Y-101905087D01*
X89161331Y-102027684D01*
X89161334Y-102028320D01*
X100337516Y-102028320D01*
X100269568Y-101887000D01*
X90177334Y-101887000D01*
X90135000Y-101929334D01*
X90092667Y-101887000D01*
X90135000Y-101844667D01*
X90177334Y-101887000D01*
X100269568Y-101887000D01*
X100088969Y-101511384D01*
X99862747Y-101047640D01*
X99859100Y-101040334D01*
X90516000Y-101040334D01*
X90473667Y-101082667D01*
X90431334Y-101040334D01*
X90473667Y-100998000D01*
X90516000Y-101040334D01*
X99859100Y-101040334D01*
X99795704Y-100913334D01*
X90304334Y-100913334D01*
X90297621Y-100991352D01*
X90266997Y-100998000D01*
X90180779Y-100936540D01*
X90177334Y-100913334D01*
X90206221Y-100830868D01*
X90214670Y-100828667D01*
X90286956Y-100887996D01*
X90304334Y-100913334D01*
X99795704Y-100913334D01*
X99670954Y-100663427D01*
X99556088Y-100440611D01*
X95504650Y-100440611D01*
X95489083Y-100550425D01*
X95460181Y-100551736D01*
X95439970Y-100438419D01*
X95453497Y-100389459D01*
X95491092Y-100357388D01*
X95504650Y-100440611D01*
X99556088Y-100440611D01*
X99527466Y-100385091D01*
X96998612Y-100385091D01*
X96915389Y-100398649D01*
X96805575Y-100383083D01*
X96804264Y-100354181D01*
X96917581Y-100333969D01*
X96966542Y-100347497D01*
X96998612Y-100385091D01*
X99527466Y-100385091D01*
X99501185Y-100334112D01*
X99341036Y-100035063D01*
X99288063Y-99939667D01*
X98051334Y-99939667D01*
X98009000Y-99982000D01*
X97966667Y-99939667D01*
X98009000Y-99897334D01*
X98051334Y-99939667D01*
X99288063Y-99939667D01*
X99178101Y-99741644D01*
X99146315Y-99685667D01*
X98051334Y-99685667D01*
X98009000Y-99728000D01*
X97966667Y-99685667D01*
X95934667Y-99685667D01*
X95892334Y-99728000D01*
X95850000Y-99685667D01*
X95892334Y-99643334D01*
X95934667Y-99685667D01*
X97966667Y-99685667D01*
X98009000Y-99643334D01*
X98051334Y-99685667D01*
X99146315Y-99685667D01*
X99074198Y-99558667D01*
X99002009Y-99431667D01*
X97966667Y-99431667D01*
X97924334Y-99474000D01*
X97882000Y-99431667D01*
X97924334Y-99389334D01*
X97966667Y-99431667D01*
X99002009Y-99431667D01*
X98871275Y-99201671D01*
X98814167Y-99100056D01*
X96612000Y-99100056D01*
X96562647Y-99192774D01*
X96461097Y-99177989D01*
X96377403Y-99066542D01*
X96402237Y-99008334D01*
X95765334Y-99008334D01*
X95723000Y-99050667D01*
X95680667Y-99008334D01*
X95723000Y-98966000D01*
X95765334Y-99008334D01*
X96402237Y-99008334D01*
X96414252Y-98980175D01*
X96477945Y-98966000D01*
X96594577Y-99034170D01*
X96612000Y-99100056D01*
X98814167Y-99100056D01*
X98775033Y-99030425D01*
X97845279Y-99030425D01*
X97762056Y-99043983D01*
X97652242Y-99028416D01*
X97651332Y-99008334D01*
X97374000Y-99008334D01*
X97331667Y-99050667D01*
X97289334Y-99008334D01*
X97331667Y-98966000D01*
X97374000Y-99008334D01*
X97651332Y-99008334D01*
X97650931Y-98999514D01*
X97764248Y-98979303D01*
X97813209Y-98992830D01*
X97845279Y-99030425D01*
X98775033Y-99030425D01*
X98712480Y-98919122D01*
X96012563Y-98919122D01*
X95923879Y-98929648D01*
X95892334Y-98921010D01*
X95841193Y-98904881D01*
X95235139Y-98904881D01*
X95219560Y-98958623D01*
X95135811Y-99045521D01*
X95115453Y-99008334D01*
X92040000Y-99008334D01*
X91997667Y-99050667D01*
X91955334Y-99008334D01*
X91997667Y-98966000D01*
X92040000Y-99008334D01*
X95115453Y-99008334D01*
X95093541Y-98968312D01*
X95089909Y-98900194D01*
X91870667Y-98900194D01*
X91850299Y-99001579D01*
X91758949Y-98980607D01*
X91701334Y-98946351D01*
X91569887Y-98847119D01*
X91532000Y-98794443D01*
X91603190Y-98756887D01*
X91701334Y-98748286D01*
X91844126Y-98808734D01*
X91870667Y-98900194D01*
X95089909Y-98900194D01*
X95088000Y-98864400D01*
X95108743Y-98741567D01*
X95180258Y-98770405D01*
X95182223Y-98772356D01*
X95235139Y-98904881D01*
X95841193Y-98904881D01*
X95695440Y-98858913D01*
X95624176Y-98836225D01*
X95535239Y-98769604D01*
X95571861Y-98702273D01*
X95703943Y-98664456D01*
X95840018Y-98725415D01*
X95981646Y-98839965D01*
X96012563Y-98919122D01*
X98712480Y-98919122D01*
X98696438Y-98890579D01*
X98667931Y-98839000D01*
X97712667Y-98839000D01*
X97670334Y-98881334D01*
X97628000Y-98839000D01*
X97670334Y-98796667D01*
X97712667Y-98839000D01*
X98667931Y-98839000D01*
X98633109Y-98775996D01*
X96308963Y-98775996D01*
X96257516Y-98777283D01*
X96137389Y-98673686D01*
X96129070Y-98655556D01*
X92689112Y-98655556D01*
X92677489Y-98705890D01*
X92632667Y-98712000D01*
X92562977Y-98681022D01*
X92576223Y-98655556D01*
X92676702Y-98645423D01*
X92689112Y-98655556D01*
X96129070Y-98655556D01*
X96123403Y-98643209D01*
X96128460Y-98585000D01*
X95088000Y-98585000D01*
X95045667Y-98627334D01*
X95003334Y-98585000D01*
X95045667Y-98542667D01*
X91786000Y-98542667D01*
X91717085Y-98616971D01*
X91654004Y-98627334D01*
X91566369Y-98586288D01*
X91574334Y-98542667D01*
X91682577Y-98461230D01*
X91706331Y-98458000D01*
X91783720Y-98522579D01*
X91786000Y-98542667D01*
X95045667Y-98542667D01*
X95088000Y-98585000D01*
X96128460Y-98585000D01*
X96131272Y-98552640D01*
X96208534Y-98557883D01*
X96293427Y-98647637D01*
X96306666Y-98676742D01*
X96308963Y-98775996D01*
X98633109Y-98775996D01*
X98574341Y-98669667D01*
X97289334Y-98669667D01*
X97247000Y-98712000D01*
X97204667Y-98669667D01*
X97247000Y-98627334D01*
X97289334Y-98669667D01*
X98574341Y-98669667D01*
X98568589Y-98659261D01*
X98507132Y-98542667D01*
X98489982Y-98509574D01*
X96770943Y-98509574D01*
X96749923Y-98626668D01*
X96724889Y-98655556D01*
X96600966Y-98709487D01*
X96530173Y-98621365D01*
X96527334Y-98585000D01*
X96595107Y-98472752D01*
X96654334Y-98458000D01*
X96770943Y-98509574D01*
X98489982Y-98509574D01*
X98444540Y-98421890D01*
X98387886Y-98316889D01*
X97769112Y-98316889D01*
X97757489Y-98367223D01*
X97712667Y-98373334D01*
X97642977Y-98342355D01*
X97656223Y-98316889D01*
X97756702Y-98306756D01*
X97769112Y-98316889D01*
X98387886Y-98316889D01*
X98317900Y-98187180D01*
X98294760Y-98144896D01*
X97413477Y-98144896D01*
X97394640Y-98175582D01*
X97325945Y-98258824D01*
X97336136Y-98295898D01*
X97360811Y-98370086D01*
X97299398Y-98342545D01*
X97246349Y-98288667D01*
X96315667Y-98288667D01*
X96311797Y-98366810D01*
X96283327Y-98373334D01*
X96163636Y-98311548D01*
X96146334Y-98288667D01*
X96148430Y-98246334D01*
X95934667Y-98246334D01*
X95892334Y-98288667D01*
X95850000Y-98246334D01*
X95864112Y-98232222D01*
X95567778Y-98232222D01*
X95556156Y-98282557D01*
X95511334Y-98288667D01*
X95441644Y-98257689D01*
X95454889Y-98232222D01*
X95555369Y-98222089D01*
X95567778Y-98232222D01*
X95864112Y-98232222D01*
X95892334Y-98204000D01*
X95934667Y-98246334D01*
X96148430Y-98246334D01*
X96150204Y-98210523D01*
X96178674Y-98204000D01*
X96298365Y-98265786D01*
X96315667Y-98288667D01*
X97246349Y-98288667D01*
X97204667Y-98246334D01*
X97151603Y-98152733D01*
X97167256Y-98147556D01*
X97007112Y-98147556D01*
X96995489Y-98197890D01*
X96950667Y-98204000D01*
X96880977Y-98173022D01*
X96894223Y-98147556D01*
X96994702Y-98137423D01*
X97007112Y-98147556D01*
X97167256Y-98147556D01*
X97234386Y-98125355D01*
X97300134Y-98126018D01*
X97413477Y-98144896D01*
X98294760Y-98144896D01*
X98227082Y-98021230D01*
X97002547Y-98021230D01*
X96878021Y-98012975D01*
X96836295Y-98003068D01*
X96673800Y-97982623D01*
X96611621Y-98011887D01*
X96536788Y-98058804D01*
X96353354Y-98089660D01*
X96315288Y-98092148D01*
X96119886Y-98082446D01*
X96025458Y-98040541D01*
X95674783Y-98040541D01*
X95624354Y-98116714D01*
X95596000Y-98119334D01*
X95530421Y-98047625D01*
X95528481Y-98034667D01*
X95342000Y-98034667D01*
X95311022Y-98104357D01*
X95285556Y-98091111D01*
X95284666Y-98082279D01*
X95074920Y-98082279D01*
X95053986Y-98186120D01*
X94990253Y-98185529D01*
X94963680Y-98161667D01*
X92378667Y-98161667D01*
X92336334Y-98204000D01*
X92294000Y-98161667D01*
X92336334Y-98119334D01*
X92378667Y-98161667D01*
X94963680Y-98161667D01*
X94886148Y-98092046D01*
X94876334Y-98048778D01*
X94906023Y-97986636D01*
X93893694Y-97986636D01*
X93844420Y-98026754D01*
X93728337Y-98034667D01*
X93610292Y-98003408D01*
X93604049Y-97953698D01*
X93714191Y-97907573D01*
X93778379Y-97920423D01*
X93893694Y-97986636D01*
X94906023Y-97986636D01*
X94921853Y-97953504D01*
X95011854Y-97971370D01*
X95074920Y-98082279D01*
X95284666Y-98082279D01*
X95275423Y-97990632D01*
X95285556Y-97978222D01*
X95335890Y-97989845D01*
X95342000Y-98034667D01*
X95528481Y-98034667D01*
X95512630Y-97928834D01*
X95524065Y-97823000D01*
X93310000Y-97823000D01*
X93267667Y-97865334D01*
X93225334Y-97823000D01*
X93267667Y-97780667D01*
X93310000Y-97823000D01*
X95524065Y-97823000D01*
X95525998Y-97805119D01*
X95575800Y-97835535D01*
X95596000Y-97865334D01*
X95674783Y-98040541D01*
X96025458Y-98040541D01*
X96021969Y-98038993D01*
X96019334Y-98028648D01*
X96085827Y-97954728D01*
X96120183Y-97950000D01*
X96140966Y-97909518D01*
X96056683Y-97825693D01*
X95958130Y-97740841D01*
X95988307Y-97706482D01*
X96164843Y-97698693D01*
X96349185Y-97714504D01*
X96398922Y-97779651D01*
X96386329Y-97828965D01*
X96378529Y-97912635D01*
X96470997Y-97930411D01*
X96633290Y-97906029D01*
X96889140Y-97892895D01*
X96995933Y-97954745D01*
X97002547Y-98021230D01*
X98227082Y-98021230D01*
X98157209Y-97893556D01*
X97430445Y-97893556D01*
X97418823Y-97943890D01*
X97374000Y-97950000D01*
X97304310Y-97919022D01*
X97317556Y-97893556D01*
X97418036Y-97883423D01*
X97430445Y-97893556D01*
X98157209Y-97893556D01*
X98145671Y-97872475D01*
X97989996Y-97590748D01*
X97495138Y-97590748D01*
X97385565Y-97685539D01*
X97197727Y-97750673D01*
X97035334Y-97763897D01*
X96739000Y-97753567D01*
X96861748Y-97738334D01*
X96696667Y-97738334D01*
X96654334Y-97780667D01*
X96612000Y-97738334D01*
X96654334Y-97696000D01*
X96696667Y-97738334D01*
X96861748Y-97738334D01*
X97014167Y-97719419D01*
X97216880Y-97659973D01*
X97289334Y-97563636D01*
X97293472Y-97554889D01*
X96753112Y-97554889D01*
X96741489Y-97605223D01*
X96696667Y-97611334D01*
X96626977Y-97580355D01*
X96630409Y-97573756D01*
X96340438Y-97573756D01*
X96238674Y-97587786D01*
X96146334Y-97589982D01*
X95972083Y-97583167D01*
X95927108Y-97563980D01*
X95954847Y-97553161D01*
X96158168Y-97537390D01*
X96293513Y-97551452D01*
X96340438Y-97573756D01*
X96630409Y-97573756D01*
X96640223Y-97554889D01*
X96740702Y-97544756D01*
X96753112Y-97554889D01*
X97293472Y-97554889D01*
X97333532Y-97470222D01*
X97007112Y-97470222D01*
X96995489Y-97520557D01*
X96950667Y-97526667D01*
X96880977Y-97495689D01*
X96894223Y-97470222D01*
X96994702Y-97460089D01*
X97007112Y-97470222D01*
X97333532Y-97470222D01*
X97342509Y-97451251D01*
X97459206Y-97473454D01*
X97481800Y-97493355D01*
X97495138Y-97590748D01*
X97989996Y-97590748D01*
X97948040Y-97514820D01*
X97882837Y-97399667D01*
X97628000Y-97399667D01*
X97585667Y-97442000D01*
X97565425Y-97421758D01*
X96575279Y-97421758D01*
X96492056Y-97435316D01*
X96382242Y-97419749D01*
X96381719Y-97408204D01*
X95720170Y-97408204D01*
X95658833Y-97432252D01*
X95511334Y-97442000D01*
X95331803Y-97456168D01*
X95305102Y-97484988D01*
X95384334Y-97526667D01*
X95496553Y-97582586D01*
X95455268Y-97602388D01*
X95400504Y-97605383D01*
X95297321Y-97646709D01*
X95299667Y-97696000D01*
X95309701Y-97771705D01*
X95227544Y-97764419D01*
X95105445Y-97679533D01*
X95101408Y-97675541D01*
X94997348Y-97615623D01*
X94924608Y-97686388D01*
X94823146Y-97763975D01*
X94737328Y-97705136D01*
X94705267Y-97541283D01*
X94706302Y-97526667D01*
X93521667Y-97526667D01*
X93517797Y-97604810D01*
X93489327Y-97611334D01*
X93369636Y-97549548D01*
X93352334Y-97526667D01*
X93356204Y-97448523D01*
X93384674Y-97442000D01*
X93504365Y-97503786D01*
X93521667Y-97526667D01*
X94706302Y-97526667D01*
X94707655Y-97507586D01*
X94729642Y-97256117D01*
X94731382Y-97230334D01*
X93733334Y-97230334D01*
X93691000Y-97272667D01*
X93648667Y-97230334D01*
X93691000Y-97188000D01*
X93733334Y-97230334D01*
X94731382Y-97230334D01*
X94738528Y-97124500D01*
X94758117Y-97061000D01*
X93987334Y-97061000D01*
X93945000Y-97103334D01*
X93902667Y-97061000D01*
X93945000Y-97018667D01*
X93987334Y-97061000D01*
X94758117Y-97061000D01*
X94787513Y-96965712D01*
X94900279Y-96957854D01*
X95065455Y-97100116D01*
X95107175Y-97150814D01*
X95250520Y-97289844D01*
X95367461Y-97333589D01*
X95373361Y-97331864D01*
X95524367Y-97331283D01*
X95638334Y-97363099D01*
X95720170Y-97408204D01*
X96381719Y-97408204D01*
X96380931Y-97390847D01*
X96494248Y-97370636D01*
X96543209Y-97384163D01*
X96575279Y-97421758D01*
X97565425Y-97421758D01*
X97543334Y-97399667D01*
X97585667Y-97357334D01*
X97628000Y-97399667D01*
X97882837Y-97399667D01*
X97739013Y-97145667D01*
X96612000Y-97145667D01*
X96569667Y-97188000D01*
X96527334Y-97145667D01*
X96569667Y-97103334D01*
X96612000Y-97145667D01*
X97739013Y-97145667D01*
X97730278Y-97130242D01*
X97687403Y-97061000D01*
X97289334Y-97061000D01*
X97247000Y-97103334D01*
X97204667Y-97061000D01*
X97247000Y-97018667D01*
X97289334Y-97061000D01*
X97687403Y-97061000D01*
X97634976Y-96976334D01*
X97035334Y-96976334D01*
X96993000Y-97018667D01*
X96950667Y-96976334D01*
X96993000Y-96934000D01*
X97035334Y-96976334D01*
X97634976Y-96976334D01*
X97590777Y-96904956D01*
X96542347Y-96904956D01*
X96484777Y-96987658D01*
X96457480Y-97017965D01*
X96228858Y-97144242D01*
X95977000Y-97168930D01*
X95638334Y-97163971D01*
X95977000Y-97103334D01*
X96151722Y-97063816D01*
X96167644Y-97037774D01*
X96111056Y-97030681D01*
X95960063Y-97009856D01*
X95974161Y-96976575D01*
X96149763Y-96933282D01*
X96288146Y-96910005D01*
X96485549Y-96884647D01*
X96542347Y-96904956D01*
X97590777Y-96904956D01*
X97571504Y-96873832D01*
X97486361Y-96764667D01*
X96231000Y-96764667D01*
X96205077Y-96831307D01*
X96108997Y-96849334D01*
X95968726Y-96814790D01*
X95934667Y-96764667D01*
X96002882Y-96688728D01*
X96056670Y-96680000D01*
X96200819Y-96731600D01*
X96231000Y-96764667D01*
X97486361Y-96764667D01*
X97453787Y-96722904D01*
X97359196Y-96654769D01*
X97269798Y-96646743D01*
X97262839Y-96647925D01*
X97159954Y-96656251D01*
X97183500Y-96631550D01*
X97284667Y-96523128D01*
X97245724Y-96398761D01*
X97082769Y-96307876D01*
X97077667Y-96306566D01*
X97029616Y-96284889D01*
X96414445Y-96284889D01*
X96402823Y-96335223D01*
X96358000Y-96341334D01*
X96288310Y-96310355D01*
X96294216Y-96299000D01*
X96019334Y-96299000D01*
X95977000Y-96341334D01*
X95934667Y-96299000D01*
X95977000Y-96256667D01*
X96019334Y-96299000D01*
X96294216Y-96299000D01*
X96301556Y-96284889D01*
X96402036Y-96274756D01*
X96414445Y-96284889D01*
X97029616Y-96284889D01*
X96918996Y-96234986D01*
X96904397Y-96214334D01*
X95680667Y-96214334D01*
X95638334Y-96256667D01*
X95596000Y-96214334D01*
X95638334Y-96172000D01*
X95680667Y-96214334D01*
X96904397Y-96214334D01*
X96866000Y-96160020D01*
X96898797Y-96129667D01*
X95934667Y-96129667D01*
X95892334Y-96172000D01*
X95850000Y-96129667D01*
X95892334Y-96087334D01*
X95934667Y-96129667D01*
X96898797Y-96129667D01*
X96910541Y-96118799D01*
X96993000Y-96172000D01*
X97093340Y-96233682D01*
X97117401Y-96166270D01*
X97117308Y-96161200D01*
X97063257Y-95994973D01*
X96944858Y-95833545D01*
X96817714Y-95749997D01*
X96803438Y-95748667D01*
X96711822Y-95682753D01*
X96623831Y-95528272D01*
X96564187Y-95350115D01*
X96557612Y-95213170D01*
X96586283Y-95178684D01*
X96643398Y-95084603D01*
X96635720Y-94983560D01*
X96568186Y-94872295D01*
X96510818Y-94869874D01*
X96455407Y-94846138D01*
X96454831Y-94763088D01*
X96443865Y-94573590D01*
X96413989Y-94499184D01*
X96412856Y-94357473D01*
X96479602Y-94260303D01*
X96586532Y-94115567D01*
X96612000Y-94036164D01*
X96570621Y-93999371D01*
X96459939Y-94083783D01*
X96459939Y-94083783D01*
G37*
X96459939Y-94083783D02*
X96300142Y-94266847D01*
X96111413Y-94526011D01*
X95954573Y-94770657D01*
X95599133Y-95340830D01*
X95306189Y-95772486D01*
X95064494Y-96079541D01*
X94862801Y-96275912D01*
X94689864Y-96375515D01*
X94648110Y-96387303D01*
X94364003Y-96499040D01*
X94014328Y-96712277D01*
X93645495Y-96998262D01*
X93406936Y-97195054D01*
X93143557Y-97399314D01*
X92893197Y-97583333D01*
X92693694Y-97719403D01*
X92582886Y-97779815D01*
X92577083Y-97780667D01*
X92472227Y-97824674D01*
X92275507Y-97938799D01*
X92081204Y-98064118D01*
X91788019Y-98241867D01*
X91492371Y-98391412D01*
X91340721Y-98451941D01*
X91152319Y-98534424D01*
X91067939Y-98613825D01*
X91070551Y-98634157D01*
X91035279Y-98690220D01*
X90891630Y-98712000D01*
X90739463Y-98725477D01*
X90730059Y-98784605D01*
X90772595Y-98842126D01*
X90925246Y-98945474D01*
X91015795Y-98959377D01*
X91318455Y-98952808D01*
X91483263Y-99010205D01*
X91532000Y-99135334D01*
X91476392Y-99275360D01*
X91398953Y-99304667D01*
X91225981Y-99360998D01*
X91157663Y-99412909D01*
X91092540Y-99525816D01*
X91160137Y-99624576D01*
X91301083Y-99714460D01*
X91359094Y-99728000D01*
X91425418Y-99800434D01*
X91447334Y-99939667D01*
X91401030Y-100112661D01*
X91311275Y-100151334D01*
X91214916Y-100098772D01*
X91222297Y-100028645D01*
X91218540Y-99942736D01*
X91146689Y-99953037D01*
X91042576Y-99935059D01*
X91024000Y-99857003D01*
X90975091Y-99752809D01*
X90918167Y-99749167D01*
X90821100Y-99853105D01*
X90812334Y-99903230D01*
X90751659Y-100012712D01*
X90625670Y-100050347D01*
X90518417Y-99999880D01*
X90501973Y-99963243D01*
X90449665Y-99910540D01*
X90334390Y-99991987D01*
X90312129Y-100014115D01*
X90204059Y-100130407D01*
X90220978Y-100156281D01*
X90333296Y-100130298D01*
X90475394Y-100119195D01*
X90516000Y-100152335D01*
X90539875Y-100285246D01*
X90566321Y-100377242D01*
X90591149Y-100477708D01*
X90542274Y-100428653D01*
X90525284Y-100405334D01*
X90449783Y-100335114D01*
X90432630Y-100384167D01*
X90363670Y-100479407D01*
X90311389Y-100490000D01*
X90178151Y-100426405D01*
X90152639Y-100384167D01*
X90094798Y-100324951D01*
X89997417Y-100394750D01*
X89927233Y-100497779D01*
X89986834Y-100549972D01*
X90083627Y-100651962D01*
X90061377Y-100786377D01*
X89972239Y-100856763D01*
X89889389Y-100966601D01*
X89894949Y-101067932D01*
X89894100Y-101218563D01*
X89830059Y-101294265D01*
X89748355Y-101257595D01*
X89723196Y-101209181D01*
X89610838Y-101109528D01*
X89439057Y-101085808D01*
X89301336Y-101148359D01*
X89291950Y-101161483D01*
X89302567Y-101270223D01*
X89329286Y-101293480D01*
X89413248Y-101403556D01*
X89351382Y-101490552D01*
X89264817Y-101506000D01*
X89097913Y-101445489D01*
X88969312Y-101336667D01*
X88824854Y-101208627D01*
X88724071Y-101167334D01*
X88707109Y-101218999D01*
X88793299Y-101346496D01*
X88822354Y-101378666D01*
X88940167Y-101534349D01*
X88968986Y-101639252D01*
X88963778Y-101647111D01*
X88871401Y-101634239D01*
X88869635Y-101633000D01*
X88568667Y-101633000D01*
X88526334Y-101675334D01*
X88484000Y-101633000D01*
X88526334Y-101590667D01*
X88568667Y-101633000D01*
X88869635Y-101633000D01*
X88719726Y-101527886D01*
X88695333Y-101505687D01*
X88557093Y-101401269D01*
X88486454Y-101397923D01*
X88484000Y-101411572D01*
X88434663Y-101475976D01*
X88399508Y-101463774D01*
X88279944Y-101469813D01*
X88097229Y-101544539D01*
X87919264Y-101651692D01*
X87813948Y-101755012D01*
X87806667Y-101780372D01*
X87879893Y-101842507D01*
X88057152Y-101898944D01*
X88067496Y-101901066D01*
X88232370Y-101950923D01*
X88240603Y-102008793D01*
X88215663Y-102028521D01*
X88189110Y-102070380D01*
X88316335Y-102054343D01*
X88328497Y-102051568D01*
X88560666Y-102057205D01*
X88727840Y-102173173D01*
X88901687Y-102347020D01*
X88728959Y-102468004D01*
X88620395Y-102582789D01*
X88650824Y-102647449D01*
X88789109Y-102651766D01*
X88855858Y-102614255D01*
X88976775Y-102577675D01*
X89093271Y-102670466D01*
X89202714Y-102812244D01*
X89287395Y-102944184D01*
X89322011Y-103022346D01*
X89288531Y-103009568D01*
X89173536Y-102999239D01*
X89116355Y-103032195D01*
X88958238Y-103076996D01*
X88933000Y-103072334D01*
X88568667Y-103072334D01*
X88526334Y-103114667D01*
X88484000Y-103072334D01*
X88526334Y-103030000D01*
X88568667Y-103072334D01*
X88933000Y-103072334D01*
X88860756Y-103058989D01*
X88756479Y-103007717D01*
X88806775Y-102962720D01*
X88871191Y-102936479D01*
X88963163Y-102889750D01*
X88907116Y-102865711D01*
X88801500Y-102856034D01*
X88607274Y-102836428D01*
X88505167Y-102817527D01*
X88381168Y-102776145D01*
X88251167Y-102733569D01*
X88103673Y-102657985D01*
X88060667Y-102596792D01*
X88112883Y-102525767D01*
X88233895Y-102567860D01*
X88288178Y-102614044D01*
X88391682Y-102656242D01*
X88445046Y-102601200D01*
X88437944Y-102481126D01*
X88324318Y-102362247D01*
X88160900Y-102290722D01*
X88062305Y-102289789D01*
X87961768Y-102380900D01*
X87955952Y-102450275D01*
X87915974Y-102612650D01*
X87853528Y-102687576D01*
X87763464Y-102741008D01*
X87755224Y-102657524D01*
X87762882Y-102614204D01*
X87747264Y-102468216D01*
X87681861Y-102437334D01*
X87549071Y-102370986D01*
X87525205Y-102331500D01*
X87515117Y-102387097D01*
X87505470Y-102593343D01*
X87496604Y-102931553D01*
X87488856Y-103383045D01*
X87482565Y-103929133D01*
X87478070Y-104551134D01*
X87476121Y-105040834D01*
X87468611Y-107856000D01*
X88632472Y-107857949D01*
X88982760Y-107858883D01*
X89475543Y-107860696D01*
X90083987Y-107863265D01*
X90781258Y-107866466D01*
X91540521Y-107870176D01*
X92334941Y-107874270D01*
X93137684Y-107878626D01*
X93225334Y-107879116D01*
X94146781Y-107883101D01*
X95166253Y-107885468D01*
X96236056Y-107886240D01*
X97308496Y-107885439D01*
X98335877Y-107883086D01*
X99270505Y-107879203D01*
X99771206Y-107876118D01*
X102888079Y-107853903D01*
X102850419Y-107729000D01*
X89246000Y-107729000D01*
X89203667Y-107771334D01*
X89161334Y-107729000D01*
X89203667Y-107686667D01*
X89246000Y-107729000D01*
X102850419Y-107729000D01*
X102830956Y-107664451D01*
X102755793Y-107446187D01*
X102667678Y-107221000D01*
X102597220Y-107051667D01*
X88738000Y-107051667D01*
X88695667Y-107094000D01*
X88653334Y-107051667D01*
X88695667Y-107009334D01*
X88738000Y-107051667D01*
X102597220Y-107051667D01*
X102496789Y-106810299D01*
X88653334Y-106810299D01*
X88607009Y-106889228D01*
X88512316Y-107009431D01*
X88435676Y-107087692D01*
X88429457Y-107090780D01*
X88424486Y-107021259D01*
X88429457Y-106893134D01*
X88475065Y-106748063D01*
X88547500Y-106732859D01*
X88645159Y-106793001D01*
X88653334Y-106810299D01*
X102496789Y-106810299D01*
X102357962Y-106476655D01*
X88618890Y-106476655D01*
X88607385Y-106507184D01*
X88525651Y-106582258D01*
X88485657Y-106496751D01*
X88484000Y-106454003D01*
X88525657Y-106366801D01*
X88570048Y-106375187D01*
X88618890Y-106476655D01*
X102357962Y-106476655D01*
X102333523Y-106417923D01*
X102298223Y-106332000D01*
X88314667Y-106332000D01*
X88283689Y-106401690D01*
X88258223Y-106388445D01*
X88248090Y-106287965D01*
X88258223Y-106275556D01*
X88308557Y-106287178D01*
X88314667Y-106332000D01*
X102298223Y-106332000D01*
X102063017Y-105759499D01*
X101867601Y-105273667D01*
X87891334Y-105273667D01*
X87849000Y-105316000D01*
X87806667Y-105273667D01*
X87849000Y-105231334D01*
X87891334Y-105273667D01*
X101867601Y-105273667D01*
X101852115Y-105235167D01*
X101817815Y-105146667D01*
X89923334Y-105146667D01*
X89892356Y-105216357D01*
X89866889Y-105203111D01*
X89856756Y-105102632D01*
X89866889Y-105090222D01*
X89917224Y-105101845D01*
X89923334Y-105146667D01*
X101817815Y-105146667D01*
X101722712Y-104901286D01*
X87691950Y-104901286D01*
X87662995Y-105028715D01*
X87611036Y-105140494D01*
X87581871Y-105095198D01*
X87568851Y-105034207D01*
X87565892Y-104879629D01*
X87587516Y-104829596D01*
X87665383Y-104807173D01*
X87691950Y-104901286D01*
X101722712Y-104901286D01*
X101696774Y-104834363D01*
X101608371Y-104589278D01*
X87630650Y-104589278D01*
X87615083Y-104699092D01*
X87586181Y-104700403D01*
X87565970Y-104587086D01*
X87579497Y-104538125D01*
X87617092Y-104506055D01*
X87630650Y-104589278D01*
X101608371Y-104589278D01*
X101592950Y-104546527D01*
X101536598Y-104361097D01*
X101523674Y-104267512D01*
X101531043Y-104252491D01*
X101541516Y-104158889D01*
X90064445Y-104158889D01*
X90052823Y-104209223D01*
X90008000Y-104215334D01*
X89938310Y-104184355D01*
X89951556Y-104158889D01*
X90052036Y-104148756D01*
X90064445Y-104158889D01*
X101541516Y-104158889D01*
X101541910Y-104155373D01*
X101528133Y-104125670D01*
X89500000Y-104125670D01*
X89438540Y-104211888D01*
X89415334Y-104215334D01*
X89332868Y-104186447D01*
X89330667Y-104177997D01*
X89389996Y-104105711D01*
X89415334Y-104088334D01*
X89493353Y-104095046D01*
X89500000Y-104125670D01*
X101528133Y-104125670D01*
X101464996Y-103989556D01*
X89133112Y-103989556D01*
X89121489Y-104039890D01*
X89076667Y-104046000D01*
X89006977Y-104015022D01*
X89020223Y-103989556D01*
X89120702Y-103979423D01*
X89133112Y-103989556D01*
X101464996Y-103989556D01*
X101454442Y-103966804D01*
X101335853Y-103792000D01*
X90262000Y-103792000D01*
X90231022Y-103861690D01*
X90205556Y-103848445D01*
X90195423Y-103747965D01*
X90205556Y-103735556D01*
X90255890Y-103747178D01*
X90262000Y-103792000D01*
X101335853Y-103792000D01*
X101286191Y-103718798D01*
X101257454Y-103683420D01*
X89866149Y-103683420D01*
X89865608Y-103759250D01*
X89776653Y-103851330D01*
X89656885Y-103874847D01*
X89586122Y-103817688D01*
X89584667Y-103801875D01*
X89654915Y-103722092D01*
X89747666Y-103684458D01*
X89866149Y-103683420D01*
X101257454Y-103683420D01*
X101139328Y-103538000D01*
X101117806Y-103507371D01*
X89576454Y-103507371D01*
X89494834Y-103637012D01*
X89472427Y-103663470D01*
X89303452Y-103828068D01*
X89200690Y-103869066D01*
X89180786Y-103780284D01*
X89182500Y-103771140D01*
X89279385Y-103612832D01*
X89450846Y-103486017D01*
X89557094Y-103456026D01*
X89576454Y-103507371D01*
X101117806Y-103507371D01*
X101009192Y-103352800D01*
X100933945Y-103223603D01*
X89909686Y-103223603D01*
X89889085Y-103270918D01*
X89803835Y-103361812D01*
X89754825Y-103343166D01*
X89754000Y-103331330D01*
X89814137Y-103259718D01*
X89851749Y-103233582D01*
X89909686Y-103223603D01*
X100933945Y-103223603D01*
X100846948Y-103074232D01*
X100814941Y-103011693D01*
X89694420Y-103011693D01*
X89600215Y-103096087D01*
X89574502Y-103114667D01*
X89402124Y-103255910D01*
X89190073Y-103451103D01*
X89131637Y-103508540D01*
X88919848Y-103703940D01*
X88796671Y-103780313D01*
X88770788Y-103733189D01*
X88786536Y-103686167D01*
X88874428Y-103579265D01*
X89054746Y-103416495D01*
X89168212Y-103326334D01*
X88822667Y-103326334D01*
X88780334Y-103368667D01*
X88738000Y-103326334D01*
X88780334Y-103284000D01*
X88822667Y-103326334D01*
X89168212Y-103326334D01*
X89209675Y-103293388D01*
X89422258Y-103127425D01*
X89518312Y-103022161D01*
X89517647Y-102937865D01*
X89440071Y-102834808D01*
X89438963Y-102833535D01*
X89288334Y-102660628D01*
X89519532Y-102824148D01*
X89670982Y-102939315D01*
X89694420Y-103011693D01*
X100814941Y-103011693D01*
X100694314Y-102776000D01*
X100653934Y-102691334D01*
X95497965Y-102691334D01*
X95484660Y-102811529D01*
X95455261Y-102797167D01*
X95444078Y-102623825D01*
X95452168Y-102596097D01*
X89224001Y-102596097D01*
X89161979Y-102555517D01*
X89150828Y-102544578D01*
X89083951Y-102433570D01*
X89093019Y-102392760D01*
X89156000Y-102418168D01*
X89198224Y-102497182D01*
X89224001Y-102596097D01*
X95452168Y-102596097D01*
X95455261Y-102585500D01*
X95486163Y-102574864D01*
X95497965Y-102691334D01*
X100653934Y-102691334D01*
X100465487Y-102296222D01*
X98023112Y-102296222D01*
X98011489Y-102346557D01*
X97966667Y-102352667D01*
X97896977Y-102321689D01*
X97910223Y-102296222D01*
X98010702Y-102286089D01*
X98023112Y-102296222D01*
X100465487Y-102296222D01*
X100362023Y-102079293D01*
X100337516Y-102028320D01*
X89161334Y-102028320D01*
X89104445Y-102039959D01*
X88966614Y-101961174D01*
X88957504Y-101954453D01*
X88838837Y-101841155D01*
X88829988Y-101774619D01*
X88833350Y-101773162D01*
X88960749Y-101799157D01*
X89097185Y-101905087D01*
X89161331Y-102027684D01*
X89161334Y-102028320D01*
X100337516Y-102028320D01*
X100269568Y-101887000D01*
X90177334Y-101887000D01*
X90135000Y-101929334D01*
X90092667Y-101887000D01*
X90135000Y-101844667D01*
X90177334Y-101887000D01*
X100269568Y-101887000D01*
X100088969Y-101511384D01*
X99862747Y-101047640D01*
X99859100Y-101040334D01*
X90516000Y-101040334D01*
X90473667Y-101082667D01*
X90431334Y-101040334D01*
X90473667Y-100998000D01*
X90516000Y-101040334D01*
X99859100Y-101040334D01*
X99795704Y-100913334D01*
X90304334Y-100913334D01*
X90297621Y-100991352D01*
X90266997Y-100998000D01*
X90180779Y-100936540D01*
X90177334Y-100913334D01*
X90206221Y-100830868D01*
X90214670Y-100828667D01*
X90286956Y-100887996D01*
X90304334Y-100913334D01*
X99795704Y-100913334D01*
X99670954Y-100663427D01*
X99556088Y-100440611D01*
X95504650Y-100440611D01*
X95489083Y-100550425D01*
X95460181Y-100551736D01*
X95439970Y-100438419D01*
X95453497Y-100389459D01*
X95491092Y-100357388D01*
X95504650Y-100440611D01*
X99556088Y-100440611D01*
X99527466Y-100385091D01*
X96998612Y-100385091D01*
X96915389Y-100398649D01*
X96805575Y-100383083D01*
X96804264Y-100354181D01*
X96917581Y-100333969D01*
X96966542Y-100347497D01*
X96998612Y-100385091D01*
X99527466Y-100385091D01*
X99501185Y-100334112D01*
X99341036Y-100035063D01*
X99288063Y-99939667D01*
X98051334Y-99939667D01*
X98009000Y-99982000D01*
X97966667Y-99939667D01*
X98009000Y-99897334D01*
X98051334Y-99939667D01*
X99288063Y-99939667D01*
X99178101Y-99741644D01*
X99146315Y-99685667D01*
X98051334Y-99685667D01*
X98009000Y-99728000D01*
X97966667Y-99685667D01*
X95934667Y-99685667D01*
X95892334Y-99728000D01*
X95850000Y-99685667D01*
X95892334Y-99643334D01*
X95934667Y-99685667D01*
X97966667Y-99685667D01*
X98009000Y-99643334D01*
X98051334Y-99685667D01*
X99146315Y-99685667D01*
X99074198Y-99558667D01*
X99002009Y-99431667D01*
X97966667Y-99431667D01*
X97924334Y-99474000D01*
X97882000Y-99431667D01*
X97924334Y-99389334D01*
X97966667Y-99431667D01*
X99002009Y-99431667D01*
X98871275Y-99201671D01*
X98814167Y-99100056D01*
X96612000Y-99100056D01*
X96562647Y-99192774D01*
X96461097Y-99177989D01*
X96377403Y-99066542D01*
X96402237Y-99008334D01*
X95765334Y-99008334D01*
X95723000Y-99050667D01*
X95680667Y-99008334D01*
X95723000Y-98966000D01*
X95765334Y-99008334D01*
X96402237Y-99008334D01*
X96414252Y-98980175D01*
X96477945Y-98966000D01*
X96594577Y-99034170D01*
X96612000Y-99100056D01*
X98814167Y-99100056D01*
X98775033Y-99030425D01*
X97845279Y-99030425D01*
X97762056Y-99043983D01*
X97652242Y-99028416D01*
X97651332Y-99008334D01*
X97374000Y-99008334D01*
X97331667Y-99050667D01*
X97289334Y-99008334D01*
X97331667Y-98966000D01*
X97374000Y-99008334D01*
X97651332Y-99008334D01*
X97650931Y-98999514D01*
X97764248Y-98979303D01*
X97813209Y-98992830D01*
X97845279Y-99030425D01*
X98775033Y-99030425D01*
X98712480Y-98919122D01*
X96012563Y-98919122D01*
X95923879Y-98929648D01*
X95892334Y-98921010D01*
X95841193Y-98904881D01*
X95235139Y-98904881D01*
X95219560Y-98958623D01*
X95135811Y-99045521D01*
X95115453Y-99008334D01*
X92040000Y-99008334D01*
X91997667Y-99050667D01*
X91955334Y-99008334D01*
X91997667Y-98966000D01*
X92040000Y-99008334D01*
X95115453Y-99008334D01*
X95093541Y-98968312D01*
X95089909Y-98900194D01*
X91870667Y-98900194D01*
X91850299Y-99001579D01*
X91758949Y-98980607D01*
X91701334Y-98946351D01*
X91569887Y-98847119D01*
X91532000Y-98794443D01*
X91603190Y-98756887D01*
X91701334Y-98748286D01*
X91844126Y-98808734D01*
X91870667Y-98900194D01*
X95089909Y-98900194D01*
X95088000Y-98864400D01*
X95108743Y-98741567D01*
X95180258Y-98770405D01*
X95182223Y-98772356D01*
X95235139Y-98904881D01*
X95841193Y-98904881D01*
X95695440Y-98858913D01*
X95624176Y-98836225D01*
X95535239Y-98769604D01*
X95571861Y-98702273D01*
X95703943Y-98664456D01*
X95840018Y-98725415D01*
X95981646Y-98839965D01*
X96012563Y-98919122D01*
X98712480Y-98919122D01*
X98696438Y-98890579D01*
X98667931Y-98839000D01*
X97712667Y-98839000D01*
X97670334Y-98881334D01*
X97628000Y-98839000D01*
X97670334Y-98796667D01*
X97712667Y-98839000D01*
X98667931Y-98839000D01*
X98633109Y-98775996D01*
X96308963Y-98775996D01*
X96257516Y-98777283D01*
X96137389Y-98673686D01*
X96129070Y-98655556D01*
X92689112Y-98655556D01*
X92677489Y-98705890D01*
X92632667Y-98712000D01*
X92562977Y-98681022D01*
X92576223Y-98655556D01*
X92676702Y-98645423D01*
X92689112Y-98655556D01*
X96129070Y-98655556D01*
X96123403Y-98643209D01*
X96128460Y-98585000D01*
X95088000Y-98585000D01*
X95045667Y-98627334D01*
X95003334Y-98585000D01*
X95045667Y-98542667D01*
X91786000Y-98542667D01*
X91717085Y-98616971D01*
X91654004Y-98627334D01*
X91566369Y-98586288D01*
X91574334Y-98542667D01*
X91682577Y-98461230D01*
X91706331Y-98458000D01*
X91783720Y-98522579D01*
X91786000Y-98542667D01*
X95045667Y-98542667D01*
X95088000Y-98585000D01*
X96128460Y-98585000D01*
X96131272Y-98552640D01*
X96208534Y-98557883D01*
X96293427Y-98647637D01*
X96306666Y-98676742D01*
X96308963Y-98775996D01*
X98633109Y-98775996D01*
X98574341Y-98669667D01*
X97289334Y-98669667D01*
X97247000Y-98712000D01*
X97204667Y-98669667D01*
X97247000Y-98627334D01*
X97289334Y-98669667D01*
X98574341Y-98669667D01*
X98568589Y-98659261D01*
X98507132Y-98542667D01*
X98489982Y-98509574D01*
X96770943Y-98509574D01*
X96749923Y-98626668D01*
X96724889Y-98655556D01*
X96600966Y-98709487D01*
X96530173Y-98621365D01*
X96527334Y-98585000D01*
X96595107Y-98472752D01*
X96654334Y-98458000D01*
X96770943Y-98509574D01*
X98489982Y-98509574D01*
X98444540Y-98421890D01*
X98387886Y-98316889D01*
X97769112Y-98316889D01*
X97757489Y-98367223D01*
X97712667Y-98373334D01*
X97642977Y-98342355D01*
X97656223Y-98316889D01*
X97756702Y-98306756D01*
X97769112Y-98316889D01*
X98387886Y-98316889D01*
X98317900Y-98187180D01*
X98294760Y-98144896D01*
X97413477Y-98144896D01*
X97394640Y-98175582D01*
X97325945Y-98258824D01*
X97336136Y-98295898D01*
X97360811Y-98370086D01*
X97299398Y-98342545D01*
X97246349Y-98288667D01*
X96315667Y-98288667D01*
X96311797Y-98366810D01*
X96283327Y-98373334D01*
X96163636Y-98311548D01*
X96146334Y-98288667D01*
X96148430Y-98246334D01*
X95934667Y-98246334D01*
X95892334Y-98288667D01*
X95850000Y-98246334D01*
X95864112Y-98232222D01*
X95567778Y-98232222D01*
X95556156Y-98282557D01*
X95511334Y-98288667D01*
X95441644Y-98257689D01*
X95454889Y-98232222D01*
X95555369Y-98222089D01*
X95567778Y-98232222D01*
X95864112Y-98232222D01*
X95892334Y-98204000D01*
X95934667Y-98246334D01*
X96148430Y-98246334D01*
X96150204Y-98210523D01*
X96178674Y-98204000D01*
X96298365Y-98265786D01*
X96315667Y-98288667D01*
X97246349Y-98288667D01*
X97204667Y-98246334D01*
X97151603Y-98152733D01*
X97167256Y-98147556D01*
X97007112Y-98147556D01*
X96995489Y-98197890D01*
X96950667Y-98204000D01*
X96880977Y-98173022D01*
X96894223Y-98147556D01*
X96994702Y-98137423D01*
X97007112Y-98147556D01*
X97167256Y-98147556D01*
X97234386Y-98125355D01*
X97300134Y-98126018D01*
X97413477Y-98144896D01*
X98294760Y-98144896D01*
X98227082Y-98021230D01*
X97002547Y-98021230D01*
X96878021Y-98012975D01*
X96836295Y-98003068D01*
X96673800Y-97982623D01*
X96611621Y-98011887D01*
X96536788Y-98058804D01*
X96353354Y-98089660D01*
X96315288Y-98092148D01*
X96119886Y-98082446D01*
X96025458Y-98040541D01*
X95674783Y-98040541D01*
X95624354Y-98116714D01*
X95596000Y-98119334D01*
X95530421Y-98047625D01*
X95528481Y-98034667D01*
X95342000Y-98034667D01*
X95311022Y-98104357D01*
X95285556Y-98091111D01*
X95284666Y-98082279D01*
X95074920Y-98082279D01*
X95053986Y-98186120D01*
X94990253Y-98185529D01*
X94963680Y-98161667D01*
X92378667Y-98161667D01*
X92336334Y-98204000D01*
X92294000Y-98161667D01*
X92336334Y-98119334D01*
X92378667Y-98161667D01*
X94963680Y-98161667D01*
X94886148Y-98092046D01*
X94876334Y-98048778D01*
X94906023Y-97986636D01*
X93893694Y-97986636D01*
X93844420Y-98026754D01*
X93728337Y-98034667D01*
X93610292Y-98003408D01*
X93604049Y-97953698D01*
X93714191Y-97907573D01*
X93778379Y-97920423D01*
X93893694Y-97986636D01*
X94906023Y-97986636D01*
X94921853Y-97953504D01*
X95011854Y-97971370D01*
X95074920Y-98082279D01*
X95284666Y-98082279D01*
X95275423Y-97990632D01*
X95285556Y-97978222D01*
X95335890Y-97989845D01*
X95342000Y-98034667D01*
X95528481Y-98034667D01*
X95512630Y-97928834D01*
X95524065Y-97823000D01*
X93310000Y-97823000D01*
X93267667Y-97865334D01*
X93225334Y-97823000D01*
X93267667Y-97780667D01*
X93310000Y-97823000D01*
X95524065Y-97823000D01*
X95525998Y-97805119D01*
X95575800Y-97835535D01*
X95596000Y-97865334D01*
X95674783Y-98040541D01*
X96025458Y-98040541D01*
X96021969Y-98038993D01*
X96019334Y-98028648D01*
X96085827Y-97954728D01*
X96120183Y-97950000D01*
X96140966Y-97909518D01*
X96056683Y-97825693D01*
X95958130Y-97740841D01*
X95988307Y-97706482D01*
X96164843Y-97698693D01*
X96349185Y-97714504D01*
X96398922Y-97779651D01*
X96386329Y-97828965D01*
X96378529Y-97912635D01*
X96470997Y-97930411D01*
X96633290Y-97906029D01*
X96889140Y-97892895D01*
X96995933Y-97954745D01*
X97002547Y-98021230D01*
X98227082Y-98021230D01*
X98157209Y-97893556D01*
X97430445Y-97893556D01*
X97418823Y-97943890D01*
X97374000Y-97950000D01*
X97304310Y-97919022D01*
X97317556Y-97893556D01*
X97418036Y-97883423D01*
X97430445Y-97893556D01*
X98157209Y-97893556D01*
X98145671Y-97872475D01*
X97989996Y-97590748D01*
X97495138Y-97590748D01*
X97385565Y-97685539D01*
X97197727Y-97750673D01*
X97035334Y-97763897D01*
X96739000Y-97753567D01*
X96861748Y-97738334D01*
X96696667Y-97738334D01*
X96654334Y-97780667D01*
X96612000Y-97738334D01*
X96654334Y-97696000D01*
X96696667Y-97738334D01*
X96861748Y-97738334D01*
X97014167Y-97719419D01*
X97216880Y-97659973D01*
X97289334Y-97563636D01*
X97293472Y-97554889D01*
X96753112Y-97554889D01*
X96741489Y-97605223D01*
X96696667Y-97611334D01*
X96626977Y-97580355D01*
X96630409Y-97573756D01*
X96340438Y-97573756D01*
X96238674Y-97587786D01*
X96146334Y-97589982D01*
X95972083Y-97583167D01*
X95927108Y-97563980D01*
X95954847Y-97553161D01*
X96158168Y-97537390D01*
X96293513Y-97551452D01*
X96340438Y-97573756D01*
X96630409Y-97573756D01*
X96640223Y-97554889D01*
X96740702Y-97544756D01*
X96753112Y-97554889D01*
X97293472Y-97554889D01*
X97333532Y-97470222D01*
X97007112Y-97470222D01*
X96995489Y-97520557D01*
X96950667Y-97526667D01*
X96880977Y-97495689D01*
X96894223Y-97470222D01*
X96994702Y-97460089D01*
X97007112Y-97470222D01*
X97333532Y-97470222D01*
X97342509Y-97451251D01*
X97459206Y-97473454D01*
X97481800Y-97493355D01*
X97495138Y-97590748D01*
X97989996Y-97590748D01*
X97948040Y-97514820D01*
X97882837Y-97399667D01*
X97628000Y-97399667D01*
X97585667Y-97442000D01*
X97565425Y-97421758D01*
X96575279Y-97421758D01*
X96492056Y-97435316D01*
X96382242Y-97419749D01*
X96381719Y-97408204D01*
X95720170Y-97408204D01*
X95658833Y-97432252D01*
X95511334Y-97442000D01*
X95331803Y-97456168D01*
X95305102Y-97484988D01*
X95384334Y-97526667D01*
X95496553Y-97582586D01*
X95455268Y-97602388D01*
X95400504Y-97605383D01*
X95297321Y-97646709D01*
X95299667Y-97696000D01*
X95309701Y-97771705D01*
X95227544Y-97764419D01*
X95105445Y-97679533D01*
X95101408Y-97675541D01*
X94997348Y-97615623D01*
X94924608Y-97686388D01*
X94823146Y-97763975D01*
X94737328Y-97705136D01*
X94705267Y-97541283D01*
X94706302Y-97526667D01*
X93521667Y-97526667D01*
X93517797Y-97604810D01*
X93489327Y-97611334D01*
X93369636Y-97549548D01*
X93352334Y-97526667D01*
X93356204Y-97448523D01*
X93384674Y-97442000D01*
X93504365Y-97503786D01*
X93521667Y-97526667D01*
X94706302Y-97526667D01*
X94707655Y-97507586D01*
X94729642Y-97256117D01*
X94731382Y-97230334D01*
X93733334Y-97230334D01*
X93691000Y-97272667D01*
X93648667Y-97230334D01*
X93691000Y-97188000D01*
X93733334Y-97230334D01*
X94731382Y-97230334D01*
X94738528Y-97124500D01*
X94758117Y-97061000D01*
X93987334Y-97061000D01*
X93945000Y-97103334D01*
X93902667Y-97061000D01*
X93945000Y-97018667D01*
X93987334Y-97061000D01*
X94758117Y-97061000D01*
X94787513Y-96965712D01*
X94900279Y-96957854D01*
X95065455Y-97100116D01*
X95107175Y-97150814D01*
X95250520Y-97289844D01*
X95367461Y-97333589D01*
X95373361Y-97331864D01*
X95524367Y-97331283D01*
X95638334Y-97363099D01*
X95720170Y-97408204D01*
X96381719Y-97408204D01*
X96380931Y-97390847D01*
X96494248Y-97370636D01*
X96543209Y-97384163D01*
X96575279Y-97421758D01*
X97565425Y-97421758D01*
X97543334Y-97399667D01*
X97585667Y-97357334D01*
X97628000Y-97399667D01*
X97882837Y-97399667D01*
X97739013Y-97145667D01*
X96612000Y-97145667D01*
X96569667Y-97188000D01*
X96527334Y-97145667D01*
X96569667Y-97103334D01*
X96612000Y-97145667D01*
X97739013Y-97145667D01*
X97730278Y-97130242D01*
X97687403Y-97061000D01*
X97289334Y-97061000D01*
X97247000Y-97103334D01*
X97204667Y-97061000D01*
X97247000Y-97018667D01*
X97289334Y-97061000D01*
X97687403Y-97061000D01*
X97634976Y-96976334D01*
X97035334Y-96976334D01*
X96993000Y-97018667D01*
X96950667Y-96976334D01*
X96993000Y-96934000D01*
X97035334Y-96976334D01*
X97634976Y-96976334D01*
X97590777Y-96904956D01*
X96542347Y-96904956D01*
X96484777Y-96987658D01*
X96457480Y-97017965D01*
X96228858Y-97144242D01*
X95977000Y-97168930D01*
X95638334Y-97163971D01*
X95977000Y-97103334D01*
X96151722Y-97063816D01*
X96167644Y-97037774D01*
X96111056Y-97030681D01*
X95960063Y-97009856D01*
X95974161Y-96976575D01*
X96149763Y-96933282D01*
X96288146Y-96910005D01*
X96485549Y-96884647D01*
X96542347Y-96904956D01*
X97590777Y-96904956D01*
X97571504Y-96873832D01*
X97486361Y-96764667D01*
X96231000Y-96764667D01*
X96205077Y-96831307D01*
X96108997Y-96849334D01*
X95968726Y-96814790D01*
X95934667Y-96764667D01*
X96002882Y-96688728D01*
X96056670Y-96680000D01*
X96200819Y-96731600D01*
X96231000Y-96764667D01*
X97486361Y-96764667D01*
X97453787Y-96722904D01*
X97359196Y-96654769D01*
X97269798Y-96646743D01*
X97262839Y-96647925D01*
X97159954Y-96656251D01*
X97183500Y-96631550D01*
X97284667Y-96523128D01*
X97245724Y-96398761D01*
X97082769Y-96307876D01*
X97077667Y-96306566D01*
X97029616Y-96284889D01*
X96414445Y-96284889D01*
X96402823Y-96335223D01*
X96358000Y-96341334D01*
X96288310Y-96310355D01*
X96294216Y-96299000D01*
X96019334Y-96299000D01*
X95977000Y-96341334D01*
X95934667Y-96299000D01*
X95977000Y-96256667D01*
X96019334Y-96299000D01*
X96294216Y-96299000D01*
X96301556Y-96284889D01*
X96402036Y-96274756D01*
X96414445Y-96284889D01*
X97029616Y-96284889D01*
X96918996Y-96234986D01*
X96904397Y-96214334D01*
X95680667Y-96214334D01*
X95638334Y-96256667D01*
X95596000Y-96214334D01*
X95638334Y-96172000D01*
X95680667Y-96214334D01*
X96904397Y-96214334D01*
X96866000Y-96160020D01*
X96898797Y-96129667D01*
X95934667Y-96129667D01*
X95892334Y-96172000D01*
X95850000Y-96129667D01*
X95892334Y-96087334D01*
X95934667Y-96129667D01*
X96898797Y-96129667D01*
X96910541Y-96118799D01*
X96993000Y-96172000D01*
X97093340Y-96233682D01*
X97117401Y-96166270D01*
X97117308Y-96161200D01*
X97063257Y-95994973D01*
X96944858Y-95833545D01*
X96817714Y-95749997D01*
X96803438Y-95748667D01*
X96711822Y-95682753D01*
X96623831Y-95528272D01*
X96564187Y-95350115D01*
X96557612Y-95213170D01*
X96586283Y-95178684D01*
X96643398Y-95084603D01*
X96635720Y-94983560D01*
X96568186Y-94872295D01*
X96510818Y-94869874D01*
X96455407Y-94846138D01*
X96454831Y-94763088D01*
X96443865Y-94573590D01*
X96413989Y-94499184D01*
X96412856Y-94357473D01*
X96479602Y-94260303D01*
X96586532Y-94115567D01*
X96612000Y-94036164D01*
X96570621Y-93999371D01*
X96459939Y-94083783D01*
G36*
X105608236Y-97246283D02*
X105610449Y-97435303D01*
X105621069Y-97505500D01*
X105675438Y-97790914D01*
X105763850Y-98209212D01*
X105879170Y-98729027D01*
X106014263Y-99318994D01*
X106161995Y-99947744D01*
X106315230Y-100583912D01*
X106396230Y-100913334D01*
X106518189Y-101405772D01*
X106643005Y-101910249D01*
X106756319Y-102368702D01*
X106843771Y-102723064D01*
X106846383Y-102733667D01*
X106945205Y-103165689D01*
X107042304Y-103640847D01*
X107114915Y-104046000D01*
X107175044Y-104366205D01*
X107268531Y-104798305D01*
X107383687Y-105290960D01*
X107508825Y-105792833D01*
X107538970Y-105908667D01*
X107658124Y-106368954D01*
X107765723Y-106796784D01*
X107852206Y-107153246D01*
X107908009Y-107399433D01*
X107918963Y-107454769D01*
X107974559Y-107672705D01*
X108039076Y-107808032D01*
X108052273Y-107820015D01*
X108150651Y-107830782D01*
X108395230Y-107841237D01*
X108762876Y-107851181D01*
X109230457Y-107860419D01*
X109774839Y-107868753D01*
X110372890Y-107875986D01*
X111001476Y-107881920D01*
X111637465Y-107886359D01*
X112257723Y-107889105D01*
X112839119Y-107889961D01*
X113358518Y-107888730D01*
X113792787Y-107885214D01*
X114118795Y-107879217D01*
X114276561Y-107873075D01*
X114711455Y-107847817D01*
X114550882Y-107153409D01*
X114475011Y-106819974D01*
X114374504Y-106370675D01*
X114260387Y-105855183D01*
X114143686Y-105323169D01*
X114096029Y-105104334D01*
X113857820Y-104041287D01*
X113636813Y-103130892D01*
X113427617Y-102357984D01*
X113224834Y-101707395D01*
X113023073Y-101163959D01*
X112816937Y-100712510D01*
X112601034Y-100337882D01*
X112369969Y-100024908D01*
X112236246Y-99875420D01*
X112055444Y-99699376D01*
X111871531Y-99559323D01*
X111648535Y-99436855D01*
X111350484Y-99313568D01*
X110941408Y-99171055D01*
X110714092Y-99096583D01*
X110368040Y-98978016D01*
X109900898Y-98808644D01*
X109348262Y-98601879D01*
X108745727Y-98371134D01*
X108128888Y-98129822D01*
X107784253Y-97992575D01*
X107234763Y-97773780D01*
X106734475Y-97577614D01*
X106305636Y-97412555D01*
X105970496Y-97287082D01*
X105751303Y-97209675D01*
X105673034Y-97188000D01*
X105608236Y-97246283D01*
X105608236Y-97246283D01*
G37*
X105608236Y-97246283D02*
X105610449Y-97435303D01*
X105621069Y-97505500D01*
X105675438Y-97790914D01*
X105763850Y-98209212D01*
X105879170Y-98729027D01*
X106014263Y-99318994D01*
X106161995Y-99947744D01*
X106315230Y-100583912D01*
X106396230Y-100913334D01*
X106518189Y-101405772D01*
X106643005Y-101910249D01*
X106756319Y-102368702D01*
X106843771Y-102723064D01*
X106846383Y-102733667D01*
X106945205Y-103165689D01*
X107042304Y-103640847D01*
X107114915Y-104046000D01*
X107175044Y-104366205D01*
X107268531Y-104798305D01*
X107383687Y-105290960D01*
X107508825Y-105792833D01*
X107538970Y-105908667D01*
X107658124Y-106368954D01*
X107765723Y-106796784D01*
X107852206Y-107153246D01*
X107908009Y-107399433D01*
X107918963Y-107454769D01*
X107974559Y-107672705D01*
X108039076Y-107808032D01*
X108052273Y-107820015D01*
X108150651Y-107830782D01*
X108395230Y-107841237D01*
X108762876Y-107851181D01*
X109230457Y-107860419D01*
X109774839Y-107868753D01*
X110372890Y-107875986D01*
X111001476Y-107881920D01*
X111637465Y-107886359D01*
X112257723Y-107889105D01*
X112839119Y-107889961D01*
X113358518Y-107888730D01*
X113792787Y-107885214D01*
X114118795Y-107879217D01*
X114276561Y-107873075D01*
X114711455Y-107847817D01*
X114550882Y-107153409D01*
X114475011Y-106819974D01*
X114374504Y-106370675D01*
X114260387Y-105855183D01*
X114143686Y-105323169D01*
X114096029Y-105104334D01*
X113857820Y-104041287D01*
X113636813Y-103130892D01*
X113427617Y-102357984D01*
X113224834Y-101707395D01*
X113023073Y-101163959D01*
X112816937Y-100712510D01*
X112601034Y-100337882D01*
X112369969Y-100024908D01*
X112236246Y-99875420D01*
X112055444Y-99699376D01*
X111871531Y-99559323D01*
X111648535Y-99436855D01*
X111350484Y-99313568D01*
X110941408Y-99171055D01*
X110714092Y-99096583D01*
X110368040Y-98978016D01*
X109900898Y-98808644D01*
X109348262Y-98601879D01*
X108745727Y-98371134D01*
X108128888Y-98129822D01*
X107784253Y-97992575D01*
X107234763Y-97773780D01*
X106734475Y-97577614D01*
X106305636Y-97412555D01*
X105970496Y-97287082D01*
X105751303Y-97209675D01*
X105673034Y-97188000D01*
X105608236Y-97246283D01*
D11*
X77050166Y-59159142D02*
X77097785Y-59206761D01*
X77240642Y-59254380D01*
X77335880Y-59254380D01*
X77478738Y-59206761D01*
X77573976Y-59111523D01*
X77621595Y-59016285D01*
X77669214Y-58825809D01*
X77669214Y-58682952D01*
X77621595Y-58492476D01*
X77573976Y-58397238D01*
X77478738Y-58302000D01*
X77335880Y-58254380D01*
X77240642Y-58254380D01*
X77097785Y-58302000D01*
X77050166Y-58349619D01*
X76669214Y-58349619D02*
X76621595Y-58302000D01*
X76526357Y-58254380D01*
X76288261Y-58254380D01*
X76193023Y-58302000D01*
X76145404Y-58349619D01*
X76097785Y-58444857D01*
X76097785Y-58540095D01*
X76145404Y-58682952D01*
X76716833Y-59254380D01*
X76097785Y-59254380D01*
X77050166Y-62461142D02*
X77097785Y-62508761D01*
X77240642Y-62556380D01*
X77335880Y-62556380D01*
X77478738Y-62508761D01*
X77573976Y-62413523D01*
X77621595Y-62318285D01*
X77669214Y-62127809D01*
X77669214Y-61984952D01*
X77621595Y-61794476D01*
X77573976Y-61699238D01*
X77478738Y-61604000D01*
X77335880Y-61556380D01*
X77240642Y-61556380D01*
X77097785Y-61604000D01*
X77050166Y-61651619D01*
X76193023Y-61889714D02*
X76193023Y-62556380D01*
X76431119Y-61508761D02*
X76669214Y-62223047D01*
X76050166Y-62223047D01*
X77050166Y-65763142D02*
X77097785Y-65810761D01*
X77240642Y-65858380D01*
X77335880Y-65858380D01*
X77478738Y-65810761D01*
X77573976Y-65715523D01*
X77621595Y-65620285D01*
X77669214Y-65429809D01*
X77669214Y-65286952D01*
X77621595Y-65096476D01*
X77573976Y-65001238D01*
X77478738Y-64906000D01*
X77335880Y-64858380D01*
X77240642Y-64858380D01*
X77097785Y-64906000D01*
X77050166Y-64953619D01*
X76145404Y-64858380D02*
X76621595Y-64858380D01*
X76669214Y-65334571D01*
X76621595Y-65286952D01*
X76526357Y-65239333D01*
X76288261Y-65239333D01*
X76193023Y-65286952D01*
X76145404Y-65334571D01*
X76097785Y-65429809D01*
X76097785Y-65667904D01*
X76145404Y-65763142D01*
X76193023Y-65810761D01*
X76288261Y-65858380D01*
X76526357Y-65858380D01*
X76621595Y-65810761D01*
X76669214Y-65763142D01*
X77050166Y-69065142D02*
X77097785Y-69112761D01*
X77240642Y-69160380D01*
X77335880Y-69160380D01*
X77478738Y-69112761D01*
X77573976Y-69017523D01*
X77621595Y-68922285D01*
X77669214Y-68731809D01*
X77669214Y-68588952D01*
X77621595Y-68398476D01*
X77573976Y-68303238D01*
X77478738Y-68208000D01*
X77335880Y-68160380D01*
X77240642Y-68160380D01*
X77097785Y-68208000D01*
X77050166Y-68255619D01*
X76193023Y-68160380D02*
X76383500Y-68160380D01*
X76478738Y-68208000D01*
X76526357Y-68255619D01*
X76621595Y-68398476D01*
X76669214Y-68588952D01*
X76669214Y-68969904D01*
X76621595Y-69065142D01*
X76573976Y-69112761D01*
X76478738Y-69160380D01*
X76288261Y-69160380D01*
X76193023Y-69112761D01*
X76145404Y-69065142D01*
X76097785Y-68969904D01*
X76097785Y-68731809D01*
X76145404Y-68636571D01*
X76193023Y-68588952D01*
X76288261Y-68541333D01*
X76478738Y-68541333D01*
X76573976Y-68588952D01*
X76621595Y-68636571D01*
X76669214Y-68731809D01*
X77050166Y-72367142D02*
X77097785Y-72414761D01*
X77240642Y-72462380D01*
X77335880Y-72462380D01*
X77478738Y-72414761D01*
X77573976Y-72319523D01*
X77621595Y-72224285D01*
X77669214Y-72033809D01*
X77669214Y-71890952D01*
X77621595Y-71700476D01*
X77573976Y-71605238D01*
X77478738Y-71510000D01*
X77335880Y-71462380D01*
X77240642Y-71462380D01*
X77097785Y-71510000D01*
X77050166Y-71557619D01*
X76716833Y-71462380D02*
X76050166Y-71462380D01*
X76478738Y-72462380D01*
X93666666Y-81257142D02*
X93714285Y-81304761D01*
X93857142Y-81352380D01*
X93952380Y-81352380D01*
X94095238Y-81304761D01*
X94190476Y-81209523D01*
X94238095Y-81114285D01*
X94285714Y-80923809D01*
X94285714Y-80780952D01*
X94238095Y-80590476D01*
X94190476Y-80495238D01*
X94095238Y-80400000D01*
X93952380Y-80352380D01*
X93857142Y-80352380D01*
X93714285Y-80400000D01*
X93666666Y-80447619D01*
X93095238Y-80780952D02*
X93190476Y-80733333D01*
X93238095Y-80685714D01*
X93285714Y-80590476D01*
X93285714Y-80542857D01*
X93238095Y-80447619D01*
X93190476Y-80400000D01*
X93095238Y-80352380D01*
X92904761Y-80352380D01*
X92809523Y-80400000D01*
X92761904Y-80447619D01*
X92714285Y-80542857D01*
X92714285Y-80590476D01*
X92761904Y-80685714D01*
X92809523Y-80733333D01*
X92904761Y-80780952D01*
X93095238Y-80780952D01*
X93190476Y-80828571D01*
X93238095Y-80876190D01*
X93285714Y-80971428D01*
X93285714Y-81161904D01*
X93238095Y-81257142D01*
X93190476Y-81304761D01*
X93095238Y-81352380D01*
X92904761Y-81352380D01*
X92809523Y-81304761D01*
X92761904Y-81257142D01*
X92714285Y-81161904D01*
X92714285Y-80971428D01*
X92761904Y-80876190D01*
X92809523Y-80828571D01*
X92904761Y-80780952D01*
X96222666Y-77257142D02*
X96270285Y-77304761D01*
X96413142Y-77352380D01*
X96508380Y-77352380D01*
X96651238Y-77304761D01*
X96746476Y-77209523D01*
X96794095Y-77114285D01*
X96841714Y-76923809D01*
X96841714Y-76780952D01*
X96794095Y-76590476D01*
X96746476Y-76495238D01*
X96651238Y-76400000D01*
X96508380Y-76352380D01*
X96413142Y-76352380D01*
X96270285Y-76400000D01*
X96222666Y-76447619D01*
X95746476Y-77352380D02*
X95556000Y-77352380D01*
X95460761Y-77304761D01*
X95413142Y-77257142D01*
X95317904Y-77114285D01*
X95270285Y-76923809D01*
X95270285Y-76542857D01*
X95317904Y-76447619D01*
X95365523Y-76400000D01*
X95460761Y-76352380D01*
X95651238Y-76352380D01*
X95746476Y-76400000D01*
X95794095Y-76447619D01*
X95841714Y-76542857D01*
X95841714Y-76780952D01*
X95794095Y-76876190D01*
X95746476Y-76923809D01*
X95651238Y-76971428D01*
X95460761Y-76971428D01*
X95365523Y-76923809D01*
X95317904Y-76876190D01*
X95270285Y-76780952D01*
X97206857Y-75257142D02*
X97254476Y-75304761D01*
X97397333Y-75352380D01*
X97492571Y-75352380D01*
X97635428Y-75304761D01*
X97730666Y-75209523D01*
X97778285Y-75114285D01*
X97825904Y-74923809D01*
X97825904Y-74780952D01*
X97778285Y-74590476D01*
X97730666Y-74495238D01*
X97635428Y-74400000D01*
X97492571Y-74352380D01*
X97397333Y-74352380D01*
X97254476Y-74400000D01*
X97206857Y-74447619D01*
X96254476Y-75352380D02*
X96825904Y-75352380D01*
X96540190Y-75352380D02*
X96540190Y-74352380D01*
X96635428Y-74495238D01*
X96730666Y-74590476D01*
X96825904Y-74638095D01*
X95635428Y-74352380D02*
X95540190Y-74352380D01*
X95444952Y-74400000D01*
X95397333Y-74447619D01*
X95349714Y-74542857D01*
X95302095Y-74733333D01*
X95302095Y-74971428D01*
X95349714Y-75161904D01*
X95397333Y-75257142D01*
X95444952Y-75304761D01*
X95540190Y-75352380D01*
X95635428Y-75352380D01*
X95730666Y-75304761D01*
X95778285Y-75257142D01*
X95825904Y-75161904D01*
X95873523Y-74971428D01*
X95873523Y-74733333D01*
X95825904Y-74542857D01*
X95778285Y-74447619D01*
X95730666Y-74400000D01*
X95635428Y-74352380D01*
X77526357Y-75669142D02*
X77573976Y-75716761D01*
X77716833Y-75764380D01*
X77812071Y-75764380D01*
X77954928Y-75716761D01*
X78050166Y-75621523D01*
X78097785Y-75526285D01*
X78145404Y-75335809D01*
X78145404Y-75192952D01*
X78097785Y-75002476D01*
X78050166Y-74907238D01*
X77954928Y-74812000D01*
X77812071Y-74764380D01*
X77716833Y-74764380D01*
X77573976Y-74812000D01*
X77526357Y-74859619D01*
X76573976Y-75764380D02*
X77145404Y-75764380D01*
X76859690Y-75764380D02*
X76859690Y-74764380D01*
X76954928Y-74907238D01*
X77050166Y-75002476D01*
X77145404Y-75050095D01*
X75621595Y-75764380D02*
X76193023Y-75764380D01*
X75907309Y-75764380D02*
X75907309Y-74764380D01*
X76002547Y-74907238D01*
X76097785Y-75002476D01*
X76193023Y-75050095D01*
X77526357Y-78971142D02*
X77573976Y-79018761D01*
X77716833Y-79066380D01*
X77812071Y-79066380D01*
X77954928Y-79018761D01*
X78050166Y-78923523D01*
X78097785Y-78828285D01*
X78145404Y-78637809D01*
X78145404Y-78494952D01*
X78097785Y-78304476D01*
X78050166Y-78209238D01*
X77954928Y-78114000D01*
X77812071Y-78066380D01*
X77716833Y-78066380D01*
X77573976Y-78114000D01*
X77526357Y-78161619D01*
X76573976Y-79066380D02*
X77145404Y-79066380D01*
X76859690Y-79066380D02*
X76859690Y-78066380D01*
X76954928Y-78209238D01*
X77050166Y-78304476D01*
X77145404Y-78352095D01*
X76193023Y-78161619D02*
X76145404Y-78114000D01*
X76050166Y-78066380D01*
X75812071Y-78066380D01*
X75716833Y-78114000D01*
X75669214Y-78161619D01*
X75621595Y-78256857D01*
X75621595Y-78352095D01*
X75669214Y-78494952D01*
X76240642Y-79066380D01*
X75621595Y-79066380D01*
X77526357Y-82273142D02*
X77573976Y-82320761D01*
X77716833Y-82368380D01*
X77812071Y-82368380D01*
X77954928Y-82320761D01*
X78050166Y-82225523D01*
X78097785Y-82130285D01*
X78145404Y-81939809D01*
X78145404Y-81796952D01*
X78097785Y-81606476D01*
X78050166Y-81511238D01*
X77954928Y-81416000D01*
X77812071Y-81368380D01*
X77716833Y-81368380D01*
X77573976Y-81416000D01*
X77526357Y-81463619D01*
X76573976Y-82368380D02*
X77145404Y-82368380D01*
X76859690Y-82368380D02*
X76859690Y-81368380D01*
X76954928Y-81511238D01*
X77050166Y-81606476D01*
X77145404Y-81654095D01*
X76240642Y-81368380D02*
X75621595Y-81368380D01*
X75954928Y-81749333D01*
X75812071Y-81749333D01*
X75716833Y-81796952D01*
X75669214Y-81844571D01*
X75621595Y-81939809D01*
X75621595Y-82177904D01*
X75669214Y-82273142D01*
X75716833Y-82320761D01*
X75812071Y-82368380D01*
X76097785Y-82368380D01*
X76193023Y-82320761D01*
X76240642Y-82273142D01*
X77526357Y-85575142D02*
X77573976Y-85622761D01*
X77716833Y-85670380D01*
X77812071Y-85670380D01*
X77954928Y-85622761D01*
X78050166Y-85527523D01*
X78097785Y-85432285D01*
X78145404Y-85241809D01*
X78145404Y-85098952D01*
X78097785Y-84908476D01*
X78050166Y-84813238D01*
X77954928Y-84718000D01*
X77812071Y-84670380D01*
X77716833Y-84670380D01*
X77573976Y-84718000D01*
X77526357Y-84765619D01*
X76573976Y-85670380D02*
X77145404Y-85670380D01*
X76859690Y-85670380D02*
X76859690Y-84670380D01*
X76954928Y-84813238D01*
X77050166Y-84908476D01*
X77145404Y-84956095D01*
X75716833Y-84670380D02*
X75907309Y-84670380D01*
X76002547Y-84718000D01*
X76050166Y-84765619D01*
X76145404Y-84908476D01*
X76193023Y-85098952D01*
X76193023Y-85479904D01*
X76145404Y-85575142D01*
X76097785Y-85622761D01*
X76002547Y-85670380D01*
X75812071Y-85670380D01*
X75716833Y-85622761D01*
X75669214Y-85575142D01*
X75621595Y-85479904D01*
X75621595Y-85241809D01*
X75669214Y-85146571D01*
X75716833Y-85098952D01*
X75812071Y-85051333D01*
X76002547Y-85051333D01*
X76097785Y-85098952D01*
X76145404Y-85146571D01*
X76193023Y-85241809D01*
X77526357Y-88877142D02*
X77573976Y-88924761D01*
X77716833Y-88972380D01*
X77812071Y-88972380D01*
X77954928Y-88924761D01*
X78050166Y-88829523D01*
X78097785Y-88734285D01*
X78145404Y-88543809D01*
X78145404Y-88400952D01*
X78097785Y-88210476D01*
X78050166Y-88115238D01*
X77954928Y-88020000D01*
X77812071Y-87972380D01*
X77716833Y-87972380D01*
X77573976Y-88020000D01*
X77526357Y-88067619D01*
X76573976Y-88972380D02*
X77145404Y-88972380D01*
X76859690Y-88972380D02*
X76859690Y-87972380D01*
X76954928Y-88115238D01*
X77050166Y-88210476D01*
X77145404Y-88258095D01*
X76097785Y-88972380D02*
X75907309Y-88972380D01*
X75812071Y-88924761D01*
X75764452Y-88877142D01*
X75669214Y-88734285D01*
X75621595Y-88543809D01*
X75621595Y-88162857D01*
X75669214Y-88067619D01*
X75716833Y-88020000D01*
X75812071Y-87972380D01*
X76002547Y-87972380D01*
X76097785Y-88020000D01*
X76145404Y-88067619D01*
X76193023Y-88162857D01*
X76193023Y-88400952D01*
X76145404Y-88496190D01*
X76097785Y-88543809D01*
X76002547Y-88591428D01*
X75812071Y-88591428D01*
X75716833Y-88543809D01*
X75669214Y-88496190D01*
X75621595Y-88400952D01*
X77526357Y-92179142D02*
X77573976Y-92226761D01*
X77716833Y-92274380D01*
X77812071Y-92274380D01*
X77954928Y-92226761D01*
X78050166Y-92131523D01*
X78097785Y-92036285D01*
X78145404Y-91845809D01*
X78145404Y-91702952D01*
X78097785Y-91512476D01*
X78050166Y-91417238D01*
X77954928Y-91322000D01*
X77812071Y-91274380D01*
X77716833Y-91274380D01*
X77573976Y-91322000D01*
X77526357Y-91369619D01*
X77145404Y-91369619D02*
X77097785Y-91322000D01*
X77002547Y-91274380D01*
X76764452Y-91274380D01*
X76669214Y-91322000D01*
X76621595Y-91369619D01*
X76573976Y-91464857D01*
X76573976Y-91560095D01*
X76621595Y-91702952D01*
X77193023Y-92274380D01*
X76573976Y-92274380D01*
X75954928Y-91274380D02*
X75859690Y-91274380D01*
X75764452Y-91322000D01*
X75716833Y-91369619D01*
X75669214Y-91464857D01*
X75621595Y-91655333D01*
X75621595Y-91893428D01*
X75669214Y-92083904D01*
X75716833Y-92179142D01*
X75764452Y-92226761D01*
X75859690Y-92274380D01*
X75954928Y-92274380D01*
X76050166Y-92226761D01*
X76097785Y-92179142D01*
X76145404Y-92083904D01*
X76193023Y-91893428D01*
X76193023Y-91655333D01*
X76145404Y-91464857D01*
X76097785Y-91369619D01*
X76050166Y-91322000D01*
X75954928Y-91274380D01*
X77526357Y-95481142D02*
X77573976Y-95528761D01*
X77716833Y-95576380D01*
X77812071Y-95576380D01*
X77954928Y-95528761D01*
X78050166Y-95433523D01*
X78097785Y-95338285D01*
X78145404Y-95147809D01*
X78145404Y-95004952D01*
X78097785Y-94814476D01*
X78050166Y-94719238D01*
X77954928Y-94624000D01*
X77812071Y-94576380D01*
X77716833Y-94576380D01*
X77573976Y-94624000D01*
X77526357Y-94671619D01*
X77145404Y-94671619D02*
X77097785Y-94624000D01*
X77002547Y-94576380D01*
X76764452Y-94576380D01*
X76669214Y-94624000D01*
X76621595Y-94671619D01*
X76573976Y-94766857D01*
X76573976Y-94862095D01*
X76621595Y-95004952D01*
X77193023Y-95576380D01*
X76573976Y-95576380D01*
X75621595Y-95576380D02*
X76193023Y-95576380D01*
X75907309Y-95576380D02*
X75907309Y-94576380D01*
X76002547Y-94719238D01*
X76097785Y-94814476D01*
X76193023Y-94862095D01*
X62396666Y-66826380D02*
X62730000Y-66350190D01*
X62968095Y-66826380D02*
X62968095Y-65826380D01*
X62587142Y-65826380D01*
X62491904Y-65874000D01*
X62444285Y-65921619D01*
X62396666Y-66016857D01*
X62396666Y-66159714D01*
X62444285Y-66254952D01*
X62491904Y-66302571D01*
X62587142Y-66350190D01*
X62968095Y-66350190D01*
X61539523Y-66159714D02*
X61539523Y-66826380D01*
X61777619Y-65778761D02*
X62015714Y-66493047D01*
X61396666Y-66493047D01*
X70270666Y-70128380D02*
X70604000Y-69652190D01*
X70842095Y-70128380D02*
X70842095Y-69128380D01*
X70461142Y-69128380D01*
X70365904Y-69176000D01*
X70318285Y-69223619D01*
X70270666Y-69318857D01*
X70270666Y-69461714D01*
X70318285Y-69556952D01*
X70365904Y-69604571D01*
X70461142Y-69652190D01*
X70842095Y-69652190D01*
X69413523Y-69128380D02*
X69604000Y-69128380D01*
X69699238Y-69176000D01*
X69746857Y-69223619D01*
X69842095Y-69366476D01*
X69889714Y-69556952D01*
X69889714Y-69937904D01*
X69842095Y-70033142D01*
X69794476Y-70080761D01*
X69699238Y-70128380D01*
X69508761Y-70128380D01*
X69413523Y-70080761D01*
X69365904Y-70033142D01*
X69318285Y-69937904D01*
X69318285Y-69699809D01*
X69365904Y-69604571D01*
X69413523Y-69556952D01*
X69508761Y-69509333D01*
X69699238Y-69509333D01*
X69794476Y-69556952D01*
X69842095Y-69604571D01*
X69889714Y-69699809D01*
X62396666Y-73430380D02*
X62730000Y-72954190D01*
X62968095Y-73430380D02*
X62968095Y-72430380D01*
X62587142Y-72430380D01*
X62491904Y-72478000D01*
X62444285Y-72525619D01*
X62396666Y-72620857D01*
X62396666Y-72763714D01*
X62444285Y-72858952D01*
X62491904Y-72906571D01*
X62587142Y-72954190D01*
X62968095Y-72954190D01*
X61825238Y-72858952D02*
X61920476Y-72811333D01*
X61968095Y-72763714D01*
X62015714Y-72668476D01*
X62015714Y-72620857D01*
X61968095Y-72525619D01*
X61920476Y-72478000D01*
X61825238Y-72430380D01*
X61634761Y-72430380D01*
X61539523Y-72478000D01*
X61491904Y-72525619D01*
X61444285Y-72620857D01*
X61444285Y-72668476D01*
X61491904Y-72763714D01*
X61539523Y-72811333D01*
X61634761Y-72858952D01*
X61825238Y-72858952D01*
X61920476Y-72906571D01*
X61968095Y-72954190D01*
X62015714Y-73049428D01*
X62015714Y-73239904D01*
X61968095Y-73335142D01*
X61920476Y-73382761D01*
X61825238Y-73430380D01*
X61634761Y-73430380D01*
X61539523Y-73382761D01*
X61491904Y-73335142D01*
X61444285Y-73239904D01*
X61444285Y-73049428D01*
X61491904Y-72954190D01*
X61539523Y-72906571D01*
X61634761Y-72858952D01*
X70746857Y-76732380D02*
X71080190Y-76256190D01*
X71318285Y-76732380D02*
X71318285Y-75732380D01*
X70937333Y-75732380D01*
X70842095Y-75780000D01*
X70794476Y-75827619D01*
X70746857Y-75922857D01*
X70746857Y-76065714D01*
X70794476Y-76160952D01*
X70842095Y-76208571D01*
X70937333Y-76256190D01*
X71318285Y-76256190D01*
X69794476Y-76732380D02*
X70365904Y-76732380D01*
X70080190Y-76732380D02*
X70080190Y-75732380D01*
X70175428Y-75875238D01*
X70270666Y-75970476D01*
X70365904Y-76018095D01*
X69175428Y-75732380D02*
X69080190Y-75732380D01*
X68984952Y-75780000D01*
X68937333Y-75827619D01*
X68889714Y-75922857D01*
X68842095Y-76113333D01*
X68842095Y-76351428D01*
X68889714Y-76541904D01*
X68937333Y-76637142D01*
X68984952Y-76684761D01*
X69080190Y-76732380D01*
X69175428Y-76732380D01*
X69270666Y-76684761D01*
X69318285Y-76637142D01*
X69365904Y-76541904D01*
X69413523Y-76351428D01*
X69413523Y-76113333D01*
X69365904Y-75922857D01*
X69318285Y-75827619D01*
X69270666Y-75780000D01*
X69175428Y-75732380D01*
X62872857Y-80034380D02*
X63206190Y-79558190D01*
X63444285Y-80034380D02*
X63444285Y-79034380D01*
X63063333Y-79034380D01*
X62968095Y-79082000D01*
X62920476Y-79129619D01*
X62872857Y-79224857D01*
X62872857Y-79367714D01*
X62920476Y-79462952D01*
X62968095Y-79510571D01*
X63063333Y-79558190D01*
X63444285Y-79558190D01*
X61920476Y-80034380D02*
X62491904Y-80034380D01*
X62206190Y-80034380D02*
X62206190Y-79034380D01*
X62301428Y-79177238D01*
X62396666Y-79272476D01*
X62491904Y-79320095D01*
X61539523Y-79129619D02*
X61491904Y-79082000D01*
X61396666Y-79034380D01*
X61158571Y-79034380D01*
X61063333Y-79082000D01*
X61015714Y-79129619D01*
X60968095Y-79224857D01*
X60968095Y-79320095D01*
X61015714Y-79462952D01*
X61587142Y-80034380D01*
X60968095Y-80034380D01*
X70746857Y-83336380D02*
X71080190Y-82860190D01*
X71318285Y-83336380D02*
X71318285Y-82336380D01*
X70937333Y-82336380D01*
X70842095Y-82384000D01*
X70794476Y-82431619D01*
X70746857Y-82526857D01*
X70746857Y-82669714D01*
X70794476Y-82764952D01*
X70842095Y-82812571D01*
X70937333Y-82860190D01*
X71318285Y-82860190D01*
X69794476Y-83336380D02*
X70365904Y-83336380D01*
X70080190Y-83336380D02*
X70080190Y-82336380D01*
X70175428Y-82479238D01*
X70270666Y-82574476D01*
X70365904Y-82622095D01*
X68937333Y-82669714D02*
X68937333Y-83336380D01*
X69175428Y-82288761D02*
X69413523Y-83003047D01*
X68794476Y-83003047D01*
X62872857Y-86638380D02*
X63206190Y-86162190D01*
X63444285Y-86638380D02*
X63444285Y-85638380D01*
X63063333Y-85638380D01*
X62968095Y-85686000D01*
X62920476Y-85733619D01*
X62872857Y-85828857D01*
X62872857Y-85971714D01*
X62920476Y-86066952D01*
X62968095Y-86114571D01*
X63063333Y-86162190D01*
X63444285Y-86162190D01*
X61920476Y-86638380D02*
X62491904Y-86638380D01*
X62206190Y-86638380D02*
X62206190Y-85638380D01*
X62301428Y-85781238D01*
X62396666Y-85876476D01*
X62491904Y-85924095D01*
X61349047Y-86066952D02*
X61444285Y-86019333D01*
X61491904Y-85971714D01*
X61539523Y-85876476D01*
X61539523Y-85828857D01*
X61491904Y-85733619D01*
X61444285Y-85686000D01*
X61349047Y-85638380D01*
X61158571Y-85638380D01*
X61063333Y-85686000D01*
X61015714Y-85733619D01*
X60968095Y-85828857D01*
X60968095Y-85876476D01*
X61015714Y-85971714D01*
X61063333Y-86019333D01*
X61158571Y-86066952D01*
X61349047Y-86066952D01*
X61444285Y-86114571D01*
X61491904Y-86162190D01*
X61539523Y-86257428D01*
X61539523Y-86447904D01*
X61491904Y-86543142D01*
X61444285Y-86590761D01*
X61349047Y-86638380D01*
X61158571Y-86638380D01*
X61063333Y-86590761D01*
X61015714Y-86543142D01*
X60968095Y-86447904D01*
X60968095Y-86257428D01*
X61015714Y-86162190D01*
X61063333Y-86114571D01*
X61158571Y-86066952D01*
X70746857Y-89940380D02*
X71080190Y-89464190D01*
X71318285Y-89940380D02*
X71318285Y-88940380D01*
X70937333Y-88940380D01*
X70842095Y-88988000D01*
X70794476Y-89035619D01*
X70746857Y-89130857D01*
X70746857Y-89273714D01*
X70794476Y-89368952D01*
X70842095Y-89416571D01*
X70937333Y-89464190D01*
X71318285Y-89464190D01*
X70365904Y-89035619D02*
X70318285Y-88988000D01*
X70223047Y-88940380D01*
X69984952Y-88940380D01*
X69889714Y-88988000D01*
X69842095Y-89035619D01*
X69794476Y-89130857D01*
X69794476Y-89226095D01*
X69842095Y-89368952D01*
X70413523Y-89940380D01*
X69794476Y-89940380D01*
X68842095Y-89940380D02*
X69413523Y-89940380D01*
X69127809Y-89940380D02*
X69127809Y-88940380D01*
X69223047Y-89083238D01*
X69318285Y-89178476D01*
X69413523Y-89226095D01*
X62872857Y-93242380D02*
X63206190Y-92766190D01*
X63444285Y-93242380D02*
X63444285Y-92242380D01*
X63063333Y-92242380D01*
X62968095Y-92290000D01*
X62920476Y-92337619D01*
X62872857Y-92432857D01*
X62872857Y-92575714D01*
X62920476Y-92670952D01*
X62968095Y-92718571D01*
X63063333Y-92766190D01*
X63444285Y-92766190D01*
X62491904Y-92337619D02*
X62444285Y-92290000D01*
X62349047Y-92242380D01*
X62110952Y-92242380D01*
X62015714Y-92290000D01*
X61968095Y-92337619D01*
X61920476Y-92432857D01*
X61920476Y-92528095D01*
X61968095Y-92670952D01*
X62539523Y-93242380D01*
X61920476Y-93242380D01*
X61015714Y-92242380D02*
X61491904Y-92242380D01*
X61539523Y-92718571D01*
X61491904Y-92670952D01*
X61396666Y-92623333D01*
X61158571Y-92623333D01*
X61063333Y-92670952D01*
X61015714Y-92718571D01*
X60968095Y-92813809D01*
X60968095Y-93051904D01*
X61015714Y-93147142D01*
X61063333Y-93194761D01*
X61158571Y-93242380D01*
X61396666Y-93242380D01*
X61491904Y-93194761D01*
X61539523Y-93147142D01*
X70746857Y-96544380D02*
X71080190Y-96068190D01*
X71318285Y-96544380D02*
X71318285Y-95544380D01*
X70937333Y-95544380D01*
X70842095Y-95592000D01*
X70794476Y-95639619D01*
X70746857Y-95734857D01*
X70746857Y-95877714D01*
X70794476Y-95972952D01*
X70842095Y-96020571D01*
X70937333Y-96068190D01*
X71318285Y-96068190D01*
X70365904Y-95639619D02*
X70318285Y-95592000D01*
X70223047Y-95544380D01*
X69984952Y-95544380D01*
X69889714Y-95592000D01*
X69842095Y-95639619D01*
X69794476Y-95734857D01*
X69794476Y-95830095D01*
X69842095Y-95972952D01*
X70413523Y-96544380D01*
X69794476Y-96544380D01*
X69223047Y-95972952D02*
X69318285Y-95925333D01*
X69365904Y-95877714D01*
X69413523Y-95782476D01*
X69413523Y-95734857D01*
X69365904Y-95639619D01*
X69318285Y-95592000D01*
X69223047Y-95544380D01*
X69032571Y-95544380D01*
X68937333Y-95592000D01*
X68889714Y-95639619D01*
X68842095Y-95734857D01*
X68842095Y-95782476D01*
X68889714Y-95877714D01*
X68937333Y-95925333D01*
X69032571Y-95972952D01*
X69223047Y-95972952D01*
X69318285Y-96020571D01*
X69365904Y-96068190D01*
X69413523Y-96163428D01*
X69413523Y-96353904D01*
X69365904Y-96449142D01*
X69318285Y-96496761D01*
X69223047Y-96544380D01*
X69032571Y-96544380D01*
X68937333Y-96496761D01*
X68889714Y-96449142D01*
X68842095Y-96353904D01*
X68842095Y-96163428D01*
X68889714Y-96068190D01*
X68937333Y-96020571D01*
X69032571Y-95972952D01*
X62872857Y-99846380D02*
X63206190Y-99370190D01*
X63444285Y-99846380D02*
X63444285Y-98846380D01*
X63063333Y-98846380D01*
X62968095Y-98894000D01*
X62920476Y-98941619D01*
X62872857Y-99036857D01*
X62872857Y-99179714D01*
X62920476Y-99274952D01*
X62968095Y-99322571D01*
X63063333Y-99370190D01*
X63444285Y-99370190D01*
X62539523Y-98846380D02*
X61920476Y-98846380D01*
X62253809Y-99227333D01*
X62110952Y-99227333D01*
X62015714Y-99274952D01*
X61968095Y-99322571D01*
X61920476Y-99417809D01*
X61920476Y-99655904D01*
X61968095Y-99751142D01*
X62015714Y-99798761D01*
X62110952Y-99846380D01*
X62396666Y-99846380D01*
X62491904Y-99798761D01*
X62539523Y-99751142D01*
X61301428Y-98846380D02*
X61206190Y-98846380D01*
X61110952Y-98894000D01*
X61063333Y-98941619D01*
X61015714Y-99036857D01*
X60968095Y-99227333D01*
X60968095Y-99465428D01*
X61015714Y-99655904D01*
X61063333Y-99751142D01*
X61110952Y-99798761D01*
X61206190Y-99846380D01*
X61301428Y-99846380D01*
X61396666Y-99798761D01*
X61444285Y-99751142D01*
X61491904Y-99655904D01*
X61539523Y-99465428D01*
X61539523Y-99227333D01*
X61491904Y-99036857D01*
X61444285Y-98941619D01*
X61396666Y-98894000D01*
X61301428Y-98846380D01*
X70746857Y-103148380D02*
X71080190Y-102672190D01*
X71318285Y-103148380D02*
X71318285Y-102148380D01*
X70937333Y-102148380D01*
X70842095Y-102196000D01*
X70794476Y-102243619D01*
X70746857Y-102338857D01*
X70746857Y-102481714D01*
X70794476Y-102576952D01*
X70842095Y-102624571D01*
X70937333Y-102672190D01*
X71318285Y-102672190D01*
X70413523Y-102148380D02*
X69794476Y-102148380D01*
X70127809Y-102529333D01*
X69984952Y-102529333D01*
X69889714Y-102576952D01*
X69842095Y-102624571D01*
X69794476Y-102719809D01*
X69794476Y-102957904D01*
X69842095Y-103053142D01*
X69889714Y-103100761D01*
X69984952Y-103148380D01*
X70270666Y-103148380D01*
X70365904Y-103100761D01*
X70413523Y-103053142D01*
X69413523Y-102243619D02*
X69365904Y-102196000D01*
X69270666Y-102148380D01*
X69032571Y-102148380D01*
X68937333Y-102196000D01*
X68889714Y-102243619D01*
X68842095Y-102338857D01*
X68842095Y-102434095D01*
X68889714Y-102576952D01*
X69461142Y-103148380D01*
X68842095Y-103148380D01*
X115081833Y-93070880D02*
X115081833Y-93785166D01*
X115129452Y-93928023D01*
X115224690Y-94023261D01*
X115367547Y-94070880D01*
X115462785Y-94070880D01*
X114653261Y-93166119D02*
X114605642Y-93118500D01*
X114510404Y-93070880D01*
X114272309Y-93070880D01*
X114177071Y-93118500D01*
X114129452Y-93166119D01*
X114081833Y-93261357D01*
X114081833Y-93356595D01*
X114129452Y-93499452D01*
X114700880Y-94070880D01*
X114081833Y-94070880D01*
M02*
