M48
;DRILL file {KiCad (5.0.0)} date 03/03/19 23:19:56
;FORMAT={-:-/ absolute / inch / decimal}
FMAT,2
INCH,TZ
T1C0.0150
T2C0.0315
T3C0.0394
T4C0.0402
T5C0.0630
T6C0.1181
T7C0.0500
T8C0.1181
%
G90
G05
M72
T1
X2.2825Y-2.51
X2.2825Y-2.64
X2.2825Y-2.77
X2.2825Y-2.9
X2.2825Y-3.03
X2.2825Y-3.16
X2.2825Y-3.29
X2.2825Y-3.42
X2.2825Y-3.55
X2.2825Y-3.68
X2.2825Y-3.81
X2.2825Y-3.94
X2.77Y-2.38
X2.77Y-2.51
X2.77Y-2.77
X2.77Y-3.03
X2.77Y-3.29
X2.77Y-3.55
X2.77Y-3.81
X2.78Y-2.4301
X2.78Y-2.69
X2.78Y-2.95
X2.78Y-3.21
X2.78Y-3.47
X2.78Y-3.73
X2.93Y-2.54
X2.93Y-2.64
X2.93Y-2.82
X2.93Y-2.9112
X2.93Y-3.1
X2.93Y-3.94
X2.9311Y-3.7389
X2.938Y-3.4523
X2.94Y-3.1912
X2.94Y-3.66
X2.95Y-3.38
X3.1181Y-2.5787
X3.1181Y-2.7149
X3.1181Y-2.8549
X3.1181Y-2.9724
X3.122Y-3.811
X3.1665Y-3.4173
X3.1921Y-3.2866
X3.1929Y-2.5827
X3.2216Y-3.5118
X3.2471Y-3.1565
X3.2756Y-2.5827
X3.2756Y-3.5394
X3.2874Y-3.0323
X3.4843Y-3.3976
X3.5167Y-3.379
X3.5433Y-3.2323
X3.5787Y-3.1575
X3.5866Y-2.9882
X3.59Y-3.027
X3.5906Y-3.0827
X3.595Y-3.9175
X3.6075Y-3.73
X3.685Y-2.7362
X3.7008Y-2.7717
X3.705Y-3.9525
X3.79Y-3.782
X3.79Y-3.8719
X3.815Y-2.8898
X3.83Y-4.0419
X3.8425Y-3.53
X3.8976Y-3.0157
X3.9375Y-3.3125
X4.Y-2.7126
X4.0157Y-3.9016
X4.0157Y-4.0039
X4.0591Y-2.8583
X4.0591Y-2.9646
X4.0825Y-3.3125
X4.155Y-3.3125
X4.225Y-3.3125
X4.2975Y-3.31
X4.36Y-3.2525
X4.365Y-2.505
X4.37Y-3.86
X4.425Y-3.1875
X4.4775Y-3.9825
X4.49Y-3.1225
X4.535Y-3.0575
T2
X4.2473Y-2.6389
X4.2473Y-2.7176
X4.2473Y-2.7964
T3
X3.5402Y-4.4094
X3.6402Y-4.4094
X3.7402Y-4.4094
X3.8402Y-4.4094
X3.9402Y-4.4094
X2.055Y-2.4157
X2.055Y-2.5338
X2.055Y-2.6519
X2.055Y-2.77
X2.055Y-2.8881
X2.055Y-3.0062
X4.6063Y-2.5394
X4.6063Y-2.6394
X4.6063Y-2.7394
X4.6063Y-2.8394
X4.6063Y-2.9394
X2.055Y-3.2825
X2.055Y-3.4006
X2.055Y-3.5187
X2.055Y-3.6368
X2.055Y-3.7549
X2.055Y-3.8731
X2.055Y-3.9912
T4
X4.5276Y-3.3071
X4.5276Y-3.4252
T5
X3.28Y-2.42
X4.28Y-2.39
X3.937Y-2.2047
T6
X1.885Y-2.5007
X1.885Y-2.9212
X1.885Y-3.3675
X1.885Y-3.9062
T7
X4.6047Y-3.189
X4.6047Y-3.5433
T8
X1.8898Y-2.0866
X4.6063Y-4.4094
X4.6063Y-2.0866
X1.8898Y-4.4094
T0
M30
