M48
; DRILL file {KiCad (5.1.9)-1} date 04/03/21 20:31:11
; FORMAT={-:-/ absolute / inch / decimal}
; #@! TF.CreationDate,2021-04-03T20:31:11-05:00
; #@! TF.GenerationSoftware,Kicad,Pcbnew,(5.1.9)-1
; #@! TF.FileFunction,Plated,1,2,PTH
FMAT,2
INCH
T1C0.0157
T2C0.0394
T3C0.0402
T4C0.0433
T5C0.0520
T6C0.0551
T7C0.0591
T8C0.0630
T9C0.0984
%
G90
G05
T1
X1.163Y-1.5598
X1.311Y-1.5406
X1.3654Y-1.4728
X1.4697Y-1.0008
X1.485Y-1.539
X1.963Y-1.4925
X1.9638Y-1.5827
X1.9839Y-1.9555
X2.0642Y-1.9567
X2.1732Y-1.376
X2.1736Y-1.4925
X2.3579Y-1.987
X2.3594Y-1.935
X2.372Y-1.5894
X2.5461Y-2.0358
X2.5701Y-1.7551
X2.5807Y-1.935
X2.7358Y-2.087
X2.7366Y-2.0358
X2.7398Y-1.9154
X2.7469Y-1.1543
X2.7531Y-1.6165
X2.8374Y-2.6118
X2.8504Y-3.922
X2.8524Y-3.8724
X2.8764Y-1.2075
X2.8835Y-2.172
X3.0031Y-3.922
X3.0039Y-3.876
X3.0087Y-3.8248
X3.0398Y-0.8701
X3.0984Y-1.2953
X3.102Y-1.1661
X3.1031Y-1.3953
X3.1035Y-1.0654
X3.1035Y-1.1157
X3.1575Y-3.876
X3.1602Y-3.9248
X3.161Y-3.8252
X3.2587Y-1.0142
X3.2594Y-0.9657
X3.3114Y-3.8791
X3.3114Y-3.9248
X3.3181Y-3.8291
X3.4661Y-3.8768
X3.4665Y-3.9244
X3.4713Y-1.365
X3.4713Y-1.4154
X3.4717Y-3.8295
X3.476Y-0.9654
X3.5283Y-2.9142
X3.5283Y-3.15
X3.5283Y-3.2756
X3.552Y-3.7736
X3.5811Y-3.3142
X3.6209Y-3.0142
X3.6209Y-3.1528
X3.6209Y-3.2764
X3.6213Y-1.9689
X3.6217Y-1.7858
X3.672Y-3.1535
X3.672Y-3.2748
X3.6728Y-1.9697
X3.6744Y-1.7866
X3.7461Y-1.3406
X3.7469Y-1.1681
X3.7476Y-1.2429
X3.7476Y-1.4154
X3.885Y-1.4689
T2
X2.8213Y-0.9823
X2.8213Y-1.0823
T3
X2.3339Y-1.037
X2.3339Y-1.1551
X2.3339Y-1.2732
X2.3339Y-1.3913
X2.6008Y-1.0366
X2.6008Y-1.1547
X2.6008Y-1.2728
X2.6008Y-1.3909
X2.6228Y-3.55
X2.7409Y-3.55
X3.1661Y-2.014
X3.1661Y-2.114
X3.1661Y-2.214
X3.1661Y-2.314
X3.1661Y-2.414
X3.1661Y-2.514
X3.1661Y-2.614
X3.1661Y-2.714
X3.1661Y-2.814
X3.1661Y-2.914
X3.1661Y-3.014
X3.1661Y-3.114
X3.1661Y-3.214
X3.1661Y-3.314
X3.1661Y-3.414
X3.7661Y-2.014
X3.7661Y-2.114
X3.7661Y-2.214
X3.7661Y-2.314
X3.7661Y-2.414
X3.7661Y-2.514
X3.7661Y-2.614
X3.7661Y-2.714
X3.7661Y-2.814
X3.7661Y-2.914
X3.7661Y-3.014
X3.7661Y-3.114
X3.7661Y-3.214
X3.7661Y-3.314
X3.7661Y-3.414
T4
X2.5295Y-3.8004
X2.5295Y-3.9776
X2.7854Y-3.8004
X2.7854Y-3.9776
T5
X1.6646Y-3.3949
X1.6646Y-3.5949
X1.6646Y-3.6949
X1.9646Y-3.3949
X1.9646Y-3.5949
X1.9646Y-3.6949
T6
X1.0854Y-2.185
X1.0854Y-3.1339
T7
X0.9739Y-1.4267
X0.9739Y-1.6529
X1.0871Y-1.2308
X1.0871Y-1.8488
X1.283Y-1.1176
X1.283Y-1.4389
X1.283Y-1.6407
X1.283Y-1.9619
X1.5092Y-1.1176
X1.5092Y-1.4389
X1.5092Y-1.6407
X1.5092Y-1.9619
X1.7051Y-1.2308
X1.7051Y-1.8488
X1.8182Y-1.4267
X1.8182Y-1.6529
X1.9701Y-2.8319
X1.9724Y-2.5224
X2.1846Y-2.8319
X2.187Y-2.5224
X2.3992Y-2.8319
X2.4016Y-2.5224
T8
X1.037Y-3.5075
X1.8984Y-0.9622
X2.0953Y-0.9654
X2.0988Y-1.2016
X2.2425Y-1.9772
X2.365Y-2.2976
X2.7846Y-3.3004
X2.9291Y-1.6197
X2.9709Y-1.8472
X2.9823Y-3.5516
X2.9835Y-3.3031
X3.1256Y-1.6224
X3.3228Y-1.6236
X3.5209Y-1.6228
X3.7177Y-1.6177
T9
X1.6823Y-2.6764
X1.978Y-3.1146
X2.3795Y-3.1138
X2.6823Y-2.6764
T0
M30
