%TF.GenerationSoftware,KiCad,Pcbnew,(6.0.1)*%
%TF.CreationDate,2022-02-17T12:45:48-06:00*%
%TF.ProjectId,IV Curve Tracer,49562043-7572-4766-9520-547261636572,1.2.0*%
%TF.SameCoordinates,PX1b50300PY6843e50*%
%TF.FileFunction,Other,User*%
%FSLAX46Y46*%
G04 Gerber Fmt 4.6, Leading zero omitted, Abs format (unit mm)*
G04 Created by KiCad (PCBNEW (6.0.1)) date 2022-02-17 12:45:48*
%MOMM*%
%LPD*%
G01*
G04 APERTURE LIST*
%ADD10C,0.050000*%
G04 APERTURE END LIST*
D10*
%TO.C,TP12*%
X44504989Y69487346D02*
X44504989Y71487346D01*
X46504989Y71487346D02*
X44504989Y71487346D01*
X44504989Y69487346D02*
X46504989Y69487346D01*
X46504989Y71487346D02*
X46504989Y69487346D01*
%TO.C,TP17*%
X98442489Y73712346D02*
X98442489Y71712346D01*
X96442489Y71712346D02*
X96442489Y73712346D01*
X96442489Y71712346D02*
X98442489Y71712346D01*
X98442489Y73712346D02*
X96442489Y73712346D01*
%TO.C,TP14*%
X111187489Y75972346D02*
X109187489Y75972346D01*
X109187489Y73972346D02*
X109187489Y75972346D01*
X111187489Y75972346D02*
X111187489Y73972346D01*
X109187489Y73972346D02*
X111187489Y73972346D01*
%TO.C,TP3*%
X96874989Y48482346D02*
X98874989Y48482346D01*
X98874989Y50482346D02*
X96874989Y50482346D01*
X98874989Y50482346D02*
X98874989Y48482346D01*
X96874989Y48482346D02*
X96874989Y50482346D01*
%TO.C,TP15*%
X96437489Y65697346D02*
X96437489Y67697346D01*
X98437489Y67697346D02*
X96437489Y67697346D01*
X96437489Y65697346D02*
X98437489Y65697346D01*
X98437489Y67697346D02*
X98437489Y65697346D01*
%TO.C,TP13*%
X108187489Y75962346D02*
X106187489Y75962346D01*
X106187489Y73962346D02*
X108187489Y73962346D01*
X108187489Y75962346D02*
X108187489Y73962346D01*
X106187489Y73962346D02*
X106187489Y75962346D01*
%TO.C,TP18*%
X96442489Y67702346D02*
X96442489Y69702346D01*
X96442489Y67702346D02*
X98442489Y67702346D01*
X98442489Y69702346D02*
X98442489Y67702346D01*
X98442489Y69702346D02*
X96442489Y69702346D01*
%TO.C,TP4*%
X106639989Y23077346D02*
X108639989Y23077346D01*
X108639989Y25077346D02*
X108639989Y23077346D01*
X108639989Y25077346D02*
X106639989Y25077346D01*
X106639989Y23077346D02*
X106639989Y25077346D01*
%TO.C,TP5*%
X77179989Y55407346D02*
X79179989Y55407346D01*
X79179989Y57407346D02*
X77179989Y57407346D01*
X77179989Y55407346D02*
X77179989Y57407346D01*
X79179989Y57407346D02*
X79179989Y55407346D01*
%TO.C,TP7*%
X35029989Y46876120D02*
X37029989Y46876120D01*
X35029989Y46876120D02*
X35029989Y48876120D01*
X37029989Y48876120D02*
X35029989Y48876120D01*
X37029989Y48876120D02*
X37029989Y46876120D01*
%TO.C,TP2*%
X98879989Y25067346D02*
X98879989Y23067346D01*
X96879989Y23067346D02*
X98879989Y23067346D01*
X98879989Y25067346D02*
X96879989Y25067346D01*
X96879989Y23067346D02*
X96879989Y25067346D01*
%TO.C,TP16*%
X98442489Y71707346D02*
X96442489Y71707346D01*
X98442489Y71707346D02*
X98442489Y69707346D01*
X96442489Y69707346D02*
X96442489Y71707346D01*
X96442489Y69707346D02*
X98442489Y69707346D01*
%TO.C,TP19*%
X73787489Y71997346D02*
X73787489Y73997346D01*
X73787489Y71997346D02*
X75787489Y71997346D01*
X75787489Y73997346D02*
X73787489Y73997346D01*
X75787489Y73997346D02*
X75787489Y71997346D01*
%TO.C,TP10*%
X56442489Y31516256D02*
X58442489Y31516256D01*
X58442489Y33516256D02*
X58442489Y31516256D01*
X58442489Y33516256D02*
X56442489Y33516256D01*
X56442489Y31516256D02*
X56442489Y33516256D01*
%TO.C,TP9*%
X66514989Y27262346D02*
X66514989Y25262346D01*
X64514989Y25262346D02*
X64514989Y27262346D01*
X64514989Y25262346D02*
X66514989Y25262346D01*
X66514989Y27262346D02*
X64514989Y27262346D01*
%TO.C,TP1*%
X99184989Y17457346D02*
X97184989Y17457346D01*
X97184989Y15457346D02*
X99184989Y15457346D01*
X99184989Y17457346D02*
X99184989Y15457346D01*
X97184989Y15457346D02*
X97184989Y17457346D01*
%TO.C,TP6*%
X37034989Y51801120D02*
X35034989Y51801120D01*
X37034989Y51801120D02*
X37034989Y49801120D01*
X35034989Y49801120D02*
X37034989Y49801120D01*
X35034989Y49801120D02*
X35034989Y51801120D01*
%TO.C,TP20*%
X73782489Y74997346D02*
X73782489Y76997346D01*
X75782489Y76997346D02*
X75782489Y74997346D01*
X75782489Y76997346D02*
X73782489Y76997346D01*
X73782489Y74997346D02*
X75782489Y74997346D01*
%TO.C,TP11*%
X56945000Y65660000D02*
X56945000Y63660000D01*
X56945000Y65660000D02*
X54945000Y65660000D01*
X54945000Y63660000D02*
X54945000Y65660000D01*
X54945000Y63660000D02*
X56945000Y63660000D01*
%TO.C,TP8*%
X48034989Y44927346D02*
X50034989Y44927346D01*
X50034989Y46927346D02*
X48034989Y46927346D01*
X48034989Y44927346D02*
X48034989Y46927346D01*
X50034989Y46927346D02*
X50034989Y44927346D01*
%TD*%
M02*
