G04 #@! TF.GenerationSoftware,KiCad,Pcbnew,5.1.4-e60b266~84~ubuntu19.04.1*
G04 #@! TF.CreationDate,2019-10-12T12:41:06-05:00*
G04 #@! TF.ProjectId,current sensor board,63757272-656e-4742-9073-656e736f7220,rev?*
G04 #@! TF.SameCoordinates,Original*
G04 #@! TF.FileFunction,Soldermask,Bot*
G04 #@! TF.FilePolarity,Negative*
%FSLAX46Y46*%
G04 Gerber Fmt 4.6, Leading zero omitted, Abs format (unit mm)*
G04 Created by KiCad (PCBNEW 5.1.4-e60b266~84~ubuntu19.04.1) date 2019-10-12 12:41:06*
%MOMM*%
%LPD*%
G04 APERTURE LIST*
%ADD10C,3.000000*%
%ADD11C,1.524000*%
%ADD12C,0.100000*%
%ADD13C,0.975000*%
%ADD14O,2.020000X1.500000*%
%ADD15C,1.500000*%
%ADD16C,1.270000*%
%ADD17C,2.500000*%
%ADD18C,1.200000*%
%ADD19R,1.200000X1.200000*%
G04 APERTURE END LIST*
D10*
X154432000Y-62230000D03*
X154432000Y-108204000D03*
X85598000Y-108204000D03*
X85598000Y-62230000D03*
D11*
X140970000Y-86360000D03*
X138430000Y-86360000D03*
X135890000Y-86360000D03*
X133350000Y-86360000D03*
X130810000Y-86360000D03*
X128270000Y-86360000D03*
X125730000Y-86360000D03*
D12*
G36*
X99540142Y-73252174D02*
G01*
X99563803Y-73255684D01*
X99587007Y-73261496D01*
X99609529Y-73269554D01*
X99631153Y-73279782D01*
X99651670Y-73292079D01*
X99670883Y-73306329D01*
X99688607Y-73322393D01*
X99704671Y-73340117D01*
X99718921Y-73359330D01*
X99731218Y-73379847D01*
X99741446Y-73401471D01*
X99749504Y-73423993D01*
X99755316Y-73447197D01*
X99758826Y-73470858D01*
X99760000Y-73494750D01*
X99760000Y-73982250D01*
X99758826Y-74006142D01*
X99755316Y-74029803D01*
X99749504Y-74053007D01*
X99741446Y-74075529D01*
X99731218Y-74097153D01*
X99718921Y-74117670D01*
X99704671Y-74136883D01*
X99688607Y-74154607D01*
X99670883Y-74170671D01*
X99651670Y-74184921D01*
X99631153Y-74197218D01*
X99609529Y-74207446D01*
X99587007Y-74215504D01*
X99563803Y-74221316D01*
X99540142Y-74224826D01*
X99516250Y-74226000D01*
X98603750Y-74226000D01*
X98579858Y-74224826D01*
X98556197Y-74221316D01*
X98532993Y-74215504D01*
X98510471Y-74207446D01*
X98488847Y-74197218D01*
X98468330Y-74184921D01*
X98449117Y-74170671D01*
X98431393Y-74154607D01*
X98415329Y-74136883D01*
X98401079Y-74117670D01*
X98388782Y-74097153D01*
X98378554Y-74075529D01*
X98370496Y-74053007D01*
X98364684Y-74029803D01*
X98361174Y-74006142D01*
X98360000Y-73982250D01*
X98360000Y-73494750D01*
X98361174Y-73470858D01*
X98364684Y-73447197D01*
X98370496Y-73423993D01*
X98378554Y-73401471D01*
X98388782Y-73379847D01*
X98401079Y-73359330D01*
X98415329Y-73340117D01*
X98431393Y-73322393D01*
X98449117Y-73306329D01*
X98468330Y-73292079D01*
X98488847Y-73279782D01*
X98510471Y-73269554D01*
X98532993Y-73261496D01*
X98556197Y-73255684D01*
X98579858Y-73252174D01*
X98603750Y-73251000D01*
X99516250Y-73251000D01*
X99540142Y-73252174D01*
X99540142Y-73252174D01*
G37*
D13*
X99060000Y-73738500D03*
D12*
G36*
X99540142Y-75127174D02*
G01*
X99563803Y-75130684D01*
X99587007Y-75136496D01*
X99609529Y-75144554D01*
X99631153Y-75154782D01*
X99651670Y-75167079D01*
X99670883Y-75181329D01*
X99688607Y-75197393D01*
X99704671Y-75215117D01*
X99718921Y-75234330D01*
X99731218Y-75254847D01*
X99741446Y-75276471D01*
X99749504Y-75298993D01*
X99755316Y-75322197D01*
X99758826Y-75345858D01*
X99760000Y-75369750D01*
X99760000Y-75857250D01*
X99758826Y-75881142D01*
X99755316Y-75904803D01*
X99749504Y-75928007D01*
X99741446Y-75950529D01*
X99731218Y-75972153D01*
X99718921Y-75992670D01*
X99704671Y-76011883D01*
X99688607Y-76029607D01*
X99670883Y-76045671D01*
X99651670Y-76059921D01*
X99631153Y-76072218D01*
X99609529Y-76082446D01*
X99587007Y-76090504D01*
X99563803Y-76096316D01*
X99540142Y-76099826D01*
X99516250Y-76101000D01*
X98603750Y-76101000D01*
X98579858Y-76099826D01*
X98556197Y-76096316D01*
X98532993Y-76090504D01*
X98510471Y-76082446D01*
X98488847Y-76072218D01*
X98468330Y-76059921D01*
X98449117Y-76045671D01*
X98431393Y-76029607D01*
X98415329Y-76011883D01*
X98401079Y-75992670D01*
X98388782Y-75972153D01*
X98378554Y-75950529D01*
X98370496Y-75928007D01*
X98364684Y-75904803D01*
X98361174Y-75881142D01*
X98360000Y-75857250D01*
X98360000Y-75369750D01*
X98361174Y-75345858D01*
X98364684Y-75322197D01*
X98370496Y-75298993D01*
X98378554Y-75276471D01*
X98388782Y-75254847D01*
X98401079Y-75234330D01*
X98415329Y-75215117D01*
X98431393Y-75197393D01*
X98449117Y-75181329D01*
X98468330Y-75167079D01*
X98488847Y-75154782D01*
X98510471Y-75144554D01*
X98532993Y-75136496D01*
X98556197Y-75130684D01*
X98579858Y-75127174D01*
X98603750Y-75126000D01*
X99516250Y-75126000D01*
X99540142Y-75127174D01*
X99540142Y-75127174D01*
G37*
D13*
X99060000Y-75613500D03*
D12*
G36*
X114780142Y-70301174D02*
G01*
X114803803Y-70304684D01*
X114827007Y-70310496D01*
X114849529Y-70318554D01*
X114871153Y-70328782D01*
X114891670Y-70341079D01*
X114910883Y-70355329D01*
X114928607Y-70371393D01*
X114944671Y-70389117D01*
X114958921Y-70408330D01*
X114971218Y-70428847D01*
X114981446Y-70450471D01*
X114989504Y-70472993D01*
X114995316Y-70496197D01*
X114998826Y-70519858D01*
X115000000Y-70543750D01*
X115000000Y-71031250D01*
X114998826Y-71055142D01*
X114995316Y-71078803D01*
X114989504Y-71102007D01*
X114981446Y-71124529D01*
X114971218Y-71146153D01*
X114958921Y-71166670D01*
X114944671Y-71185883D01*
X114928607Y-71203607D01*
X114910883Y-71219671D01*
X114891670Y-71233921D01*
X114871153Y-71246218D01*
X114849529Y-71256446D01*
X114827007Y-71264504D01*
X114803803Y-71270316D01*
X114780142Y-71273826D01*
X114756250Y-71275000D01*
X113843750Y-71275000D01*
X113819858Y-71273826D01*
X113796197Y-71270316D01*
X113772993Y-71264504D01*
X113750471Y-71256446D01*
X113728847Y-71246218D01*
X113708330Y-71233921D01*
X113689117Y-71219671D01*
X113671393Y-71203607D01*
X113655329Y-71185883D01*
X113641079Y-71166670D01*
X113628782Y-71146153D01*
X113618554Y-71124529D01*
X113610496Y-71102007D01*
X113604684Y-71078803D01*
X113601174Y-71055142D01*
X113600000Y-71031250D01*
X113600000Y-70543750D01*
X113601174Y-70519858D01*
X113604684Y-70496197D01*
X113610496Y-70472993D01*
X113618554Y-70450471D01*
X113628782Y-70428847D01*
X113641079Y-70408330D01*
X113655329Y-70389117D01*
X113671393Y-70371393D01*
X113689117Y-70355329D01*
X113708330Y-70341079D01*
X113728847Y-70328782D01*
X113750471Y-70318554D01*
X113772993Y-70310496D01*
X113796197Y-70304684D01*
X113819858Y-70301174D01*
X113843750Y-70300000D01*
X114756250Y-70300000D01*
X114780142Y-70301174D01*
X114780142Y-70301174D01*
G37*
D13*
X114300000Y-70787500D03*
D12*
G36*
X114780142Y-68426174D02*
G01*
X114803803Y-68429684D01*
X114827007Y-68435496D01*
X114849529Y-68443554D01*
X114871153Y-68453782D01*
X114891670Y-68466079D01*
X114910883Y-68480329D01*
X114928607Y-68496393D01*
X114944671Y-68514117D01*
X114958921Y-68533330D01*
X114971218Y-68553847D01*
X114981446Y-68575471D01*
X114989504Y-68597993D01*
X114995316Y-68621197D01*
X114998826Y-68644858D01*
X115000000Y-68668750D01*
X115000000Y-69156250D01*
X114998826Y-69180142D01*
X114995316Y-69203803D01*
X114989504Y-69227007D01*
X114981446Y-69249529D01*
X114971218Y-69271153D01*
X114958921Y-69291670D01*
X114944671Y-69310883D01*
X114928607Y-69328607D01*
X114910883Y-69344671D01*
X114891670Y-69358921D01*
X114871153Y-69371218D01*
X114849529Y-69381446D01*
X114827007Y-69389504D01*
X114803803Y-69395316D01*
X114780142Y-69398826D01*
X114756250Y-69400000D01*
X113843750Y-69400000D01*
X113819858Y-69398826D01*
X113796197Y-69395316D01*
X113772993Y-69389504D01*
X113750471Y-69381446D01*
X113728847Y-69371218D01*
X113708330Y-69358921D01*
X113689117Y-69344671D01*
X113671393Y-69328607D01*
X113655329Y-69310883D01*
X113641079Y-69291670D01*
X113628782Y-69271153D01*
X113618554Y-69249529D01*
X113610496Y-69227007D01*
X113604684Y-69203803D01*
X113601174Y-69180142D01*
X113600000Y-69156250D01*
X113600000Y-68668750D01*
X113601174Y-68644858D01*
X113604684Y-68621197D01*
X113610496Y-68597993D01*
X113618554Y-68575471D01*
X113628782Y-68553847D01*
X113641079Y-68533330D01*
X113655329Y-68514117D01*
X113671393Y-68496393D01*
X113689117Y-68480329D01*
X113708330Y-68466079D01*
X113728847Y-68453782D01*
X113750471Y-68443554D01*
X113772993Y-68435496D01*
X113796197Y-68429684D01*
X113819858Y-68426174D01*
X113843750Y-68425000D01*
X114756250Y-68425000D01*
X114780142Y-68426174D01*
X114780142Y-68426174D01*
G37*
D13*
X114300000Y-68912500D03*
D12*
G36*
X99540142Y-79269674D02*
G01*
X99563803Y-79273184D01*
X99587007Y-79278996D01*
X99609529Y-79287054D01*
X99631153Y-79297282D01*
X99651670Y-79309579D01*
X99670883Y-79323829D01*
X99688607Y-79339893D01*
X99704671Y-79357617D01*
X99718921Y-79376830D01*
X99731218Y-79397347D01*
X99741446Y-79418971D01*
X99749504Y-79441493D01*
X99755316Y-79464697D01*
X99758826Y-79488358D01*
X99760000Y-79512250D01*
X99760000Y-79999750D01*
X99758826Y-80023642D01*
X99755316Y-80047303D01*
X99749504Y-80070507D01*
X99741446Y-80093029D01*
X99731218Y-80114653D01*
X99718921Y-80135170D01*
X99704671Y-80154383D01*
X99688607Y-80172107D01*
X99670883Y-80188171D01*
X99651670Y-80202421D01*
X99631153Y-80214718D01*
X99609529Y-80224946D01*
X99587007Y-80233004D01*
X99563803Y-80238816D01*
X99540142Y-80242326D01*
X99516250Y-80243500D01*
X98603750Y-80243500D01*
X98579858Y-80242326D01*
X98556197Y-80238816D01*
X98532993Y-80233004D01*
X98510471Y-80224946D01*
X98488847Y-80214718D01*
X98468330Y-80202421D01*
X98449117Y-80188171D01*
X98431393Y-80172107D01*
X98415329Y-80154383D01*
X98401079Y-80135170D01*
X98388782Y-80114653D01*
X98378554Y-80093029D01*
X98370496Y-80070507D01*
X98364684Y-80047303D01*
X98361174Y-80023642D01*
X98360000Y-79999750D01*
X98360000Y-79512250D01*
X98361174Y-79488358D01*
X98364684Y-79464697D01*
X98370496Y-79441493D01*
X98378554Y-79418971D01*
X98388782Y-79397347D01*
X98401079Y-79376830D01*
X98415329Y-79357617D01*
X98431393Y-79339893D01*
X98449117Y-79323829D01*
X98468330Y-79309579D01*
X98488847Y-79297282D01*
X98510471Y-79287054D01*
X98532993Y-79278996D01*
X98556197Y-79273184D01*
X98579858Y-79269674D01*
X98603750Y-79268500D01*
X99516250Y-79268500D01*
X99540142Y-79269674D01*
X99540142Y-79269674D01*
G37*
D13*
X99060000Y-79756000D03*
D12*
G36*
X99540142Y-77394674D02*
G01*
X99563803Y-77398184D01*
X99587007Y-77403996D01*
X99609529Y-77412054D01*
X99631153Y-77422282D01*
X99651670Y-77434579D01*
X99670883Y-77448829D01*
X99688607Y-77464893D01*
X99704671Y-77482617D01*
X99718921Y-77501830D01*
X99731218Y-77522347D01*
X99741446Y-77543971D01*
X99749504Y-77566493D01*
X99755316Y-77589697D01*
X99758826Y-77613358D01*
X99760000Y-77637250D01*
X99760000Y-78124750D01*
X99758826Y-78148642D01*
X99755316Y-78172303D01*
X99749504Y-78195507D01*
X99741446Y-78218029D01*
X99731218Y-78239653D01*
X99718921Y-78260170D01*
X99704671Y-78279383D01*
X99688607Y-78297107D01*
X99670883Y-78313171D01*
X99651670Y-78327421D01*
X99631153Y-78339718D01*
X99609529Y-78349946D01*
X99587007Y-78358004D01*
X99563803Y-78363816D01*
X99540142Y-78367326D01*
X99516250Y-78368500D01*
X98603750Y-78368500D01*
X98579858Y-78367326D01*
X98556197Y-78363816D01*
X98532993Y-78358004D01*
X98510471Y-78349946D01*
X98488847Y-78339718D01*
X98468330Y-78327421D01*
X98449117Y-78313171D01*
X98431393Y-78297107D01*
X98415329Y-78279383D01*
X98401079Y-78260170D01*
X98388782Y-78239653D01*
X98378554Y-78218029D01*
X98370496Y-78195507D01*
X98364684Y-78172303D01*
X98361174Y-78148642D01*
X98360000Y-78124750D01*
X98360000Y-77637250D01*
X98361174Y-77613358D01*
X98364684Y-77589697D01*
X98370496Y-77566493D01*
X98378554Y-77543971D01*
X98388782Y-77522347D01*
X98401079Y-77501830D01*
X98415329Y-77482617D01*
X98431393Y-77464893D01*
X98449117Y-77448829D01*
X98468330Y-77434579D01*
X98488847Y-77422282D01*
X98510471Y-77412054D01*
X98532993Y-77403996D01*
X98556197Y-77398184D01*
X98579858Y-77394674D01*
X98603750Y-77393500D01*
X99516250Y-77393500D01*
X99540142Y-77394674D01*
X99540142Y-77394674D01*
G37*
D13*
X99060000Y-77881000D03*
D12*
G36*
X114780142Y-72568674D02*
G01*
X114803803Y-72572184D01*
X114827007Y-72577996D01*
X114849529Y-72586054D01*
X114871153Y-72596282D01*
X114891670Y-72608579D01*
X114910883Y-72622829D01*
X114928607Y-72638893D01*
X114944671Y-72656617D01*
X114958921Y-72675830D01*
X114971218Y-72696347D01*
X114981446Y-72717971D01*
X114989504Y-72740493D01*
X114995316Y-72763697D01*
X114998826Y-72787358D01*
X115000000Y-72811250D01*
X115000000Y-73298750D01*
X114998826Y-73322642D01*
X114995316Y-73346303D01*
X114989504Y-73369507D01*
X114981446Y-73392029D01*
X114971218Y-73413653D01*
X114958921Y-73434170D01*
X114944671Y-73453383D01*
X114928607Y-73471107D01*
X114910883Y-73487171D01*
X114891670Y-73501421D01*
X114871153Y-73513718D01*
X114849529Y-73523946D01*
X114827007Y-73532004D01*
X114803803Y-73537816D01*
X114780142Y-73541326D01*
X114756250Y-73542500D01*
X113843750Y-73542500D01*
X113819858Y-73541326D01*
X113796197Y-73537816D01*
X113772993Y-73532004D01*
X113750471Y-73523946D01*
X113728847Y-73513718D01*
X113708330Y-73501421D01*
X113689117Y-73487171D01*
X113671393Y-73471107D01*
X113655329Y-73453383D01*
X113641079Y-73434170D01*
X113628782Y-73413653D01*
X113618554Y-73392029D01*
X113610496Y-73369507D01*
X113604684Y-73346303D01*
X113601174Y-73322642D01*
X113600000Y-73298750D01*
X113600000Y-72811250D01*
X113601174Y-72787358D01*
X113604684Y-72763697D01*
X113610496Y-72740493D01*
X113618554Y-72717971D01*
X113628782Y-72696347D01*
X113641079Y-72675830D01*
X113655329Y-72656617D01*
X113671393Y-72638893D01*
X113689117Y-72622829D01*
X113708330Y-72608579D01*
X113728847Y-72596282D01*
X113750471Y-72586054D01*
X113772993Y-72577996D01*
X113796197Y-72572184D01*
X113819858Y-72568674D01*
X113843750Y-72567500D01*
X114756250Y-72567500D01*
X114780142Y-72568674D01*
X114780142Y-72568674D01*
G37*
D13*
X114300000Y-73055000D03*
D12*
G36*
X114780142Y-74443674D02*
G01*
X114803803Y-74447184D01*
X114827007Y-74452996D01*
X114849529Y-74461054D01*
X114871153Y-74471282D01*
X114891670Y-74483579D01*
X114910883Y-74497829D01*
X114928607Y-74513893D01*
X114944671Y-74531617D01*
X114958921Y-74550830D01*
X114971218Y-74571347D01*
X114981446Y-74592971D01*
X114989504Y-74615493D01*
X114995316Y-74638697D01*
X114998826Y-74662358D01*
X115000000Y-74686250D01*
X115000000Y-75173750D01*
X114998826Y-75197642D01*
X114995316Y-75221303D01*
X114989504Y-75244507D01*
X114981446Y-75267029D01*
X114971218Y-75288653D01*
X114958921Y-75309170D01*
X114944671Y-75328383D01*
X114928607Y-75346107D01*
X114910883Y-75362171D01*
X114891670Y-75376421D01*
X114871153Y-75388718D01*
X114849529Y-75398946D01*
X114827007Y-75407004D01*
X114803803Y-75412816D01*
X114780142Y-75416326D01*
X114756250Y-75417500D01*
X113843750Y-75417500D01*
X113819858Y-75416326D01*
X113796197Y-75412816D01*
X113772993Y-75407004D01*
X113750471Y-75398946D01*
X113728847Y-75388718D01*
X113708330Y-75376421D01*
X113689117Y-75362171D01*
X113671393Y-75346107D01*
X113655329Y-75328383D01*
X113641079Y-75309170D01*
X113628782Y-75288653D01*
X113618554Y-75267029D01*
X113610496Y-75244507D01*
X113604684Y-75221303D01*
X113601174Y-75197642D01*
X113600000Y-75173750D01*
X113600000Y-74686250D01*
X113601174Y-74662358D01*
X113604684Y-74638697D01*
X113610496Y-74615493D01*
X113618554Y-74592971D01*
X113628782Y-74571347D01*
X113641079Y-74550830D01*
X113655329Y-74531617D01*
X113671393Y-74513893D01*
X113689117Y-74497829D01*
X113708330Y-74483579D01*
X113728847Y-74471282D01*
X113750471Y-74461054D01*
X113772993Y-74452996D01*
X113796197Y-74447184D01*
X113819858Y-74443674D01*
X113843750Y-74442500D01*
X114756250Y-74442500D01*
X114780142Y-74443674D01*
X114780142Y-74443674D01*
G37*
D13*
X114300000Y-74930000D03*
D12*
G36*
X142085142Y-74141174D02*
G01*
X142108803Y-74144684D01*
X142132007Y-74150496D01*
X142154529Y-74158554D01*
X142176153Y-74168782D01*
X142196670Y-74181079D01*
X142215883Y-74195329D01*
X142233607Y-74211393D01*
X142249671Y-74229117D01*
X142263921Y-74248330D01*
X142276218Y-74268847D01*
X142286446Y-74290471D01*
X142294504Y-74312993D01*
X142300316Y-74336197D01*
X142303826Y-74359858D01*
X142305000Y-74383750D01*
X142305000Y-74871250D01*
X142303826Y-74895142D01*
X142300316Y-74918803D01*
X142294504Y-74942007D01*
X142286446Y-74964529D01*
X142276218Y-74986153D01*
X142263921Y-75006670D01*
X142249671Y-75025883D01*
X142233607Y-75043607D01*
X142215883Y-75059671D01*
X142196670Y-75073921D01*
X142176153Y-75086218D01*
X142154529Y-75096446D01*
X142132007Y-75104504D01*
X142108803Y-75110316D01*
X142085142Y-75113826D01*
X142061250Y-75115000D01*
X141148750Y-75115000D01*
X141124858Y-75113826D01*
X141101197Y-75110316D01*
X141077993Y-75104504D01*
X141055471Y-75096446D01*
X141033847Y-75086218D01*
X141013330Y-75073921D01*
X140994117Y-75059671D01*
X140976393Y-75043607D01*
X140960329Y-75025883D01*
X140946079Y-75006670D01*
X140933782Y-74986153D01*
X140923554Y-74964529D01*
X140915496Y-74942007D01*
X140909684Y-74918803D01*
X140906174Y-74895142D01*
X140905000Y-74871250D01*
X140905000Y-74383750D01*
X140906174Y-74359858D01*
X140909684Y-74336197D01*
X140915496Y-74312993D01*
X140923554Y-74290471D01*
X140933782Y-74268847D01*
X140946079Y-74248330D01*
X140960329Y-74229117D01*
X140976393Y-74211393D01*
X140994117Y-74195329D01*
X141013330Y-74181079D01*
X141033847Y-74168782D01*
X141055471Y-74158554D01*
X141077993Y-74150496D01*
X141101197Y-74144684D01*
X141124858Y-74141174D01*
X141148750Y-74140000D01*
X142061250Y-74140000D01*
X142085142Y-74141174D01*
X142085142Y-74141174D01*
G37*
D13*
X141605000Y-74627500D03*
D12*
G36*
X142085142Y-76016174D02*
G01*
X142108803Y-76019684D01*
X142132007Y-76025496D01*
X142154529Y-76033554D01*
X142176153Y-76043782D01*
X142196670Y-76056079D01*
X142215883Y-76070329D01*
X142233607Y-76086393D01*
X142249671Y-76104117D01*
X142263921Y-76123330D01*
X142276218Y-76143847D01*
X142286446Y-76165471D01*
X142294504Y-76187993D01*
X142300316Y-76211197D01*
X142303826Y-76234858D01*
X142305000Y-76258750D01*
X142305000Y-76746250D01*
X142303826Y-76770142D01*
X142300316Y-76793803D01*
X142294504Y-76817007D01*
X142286446Y-76839529D01*
X142276218Y-76861153D01*
X142263921Y-76881670D01*
X142249671Y-76900883D01*
X142233607Y-76918607D01*
X142215883Y-76934671D01*
X142196670Y-76948921D01*
X142176153Y-76961218D01*
X142154529Y-76971446D01*
X142132007Y-76979504D01*
X142108803Y-76985316D01*
X142085142Y-76988826D01*
X142061250Y-76990000D01*
X141148750Y-76990000D01*
X141124858Y-76988826D01*
X141101197Y-76985316D01*
X141077993Y-76979504D01*
X141055471Y-76971446D01*
X141033847Y-76961218D01*
X141013330Y-76948921D01*
X140994117Y-76934671D01*
X140976393Y-76918607D01*
X140960329Y-76900883D01*
X140946079Y-76881670D01*
X140933782Y-76861153D01*
X140923554Y-76839529D01*
X140915496Y-76817007D01*
X140909684Y-76793803D01*
X140906174Y-76770142D01*
X140905000Y-76746250D01*
X140905000Y-76258750D01*
X140906174Y-76234858D01*
X140909684Y-76211197D01*
X140915496Y-76187993D01*
X140923554Y-76165471D01*
X140933782Y-76143847D01*
X140946079Y-76123330D01*
X140960329Y-76104117D01*
X140976393Y-76086393D01*
X140994117Y-76070329D01*
X141013330Y-76056079D01*
X141033847Y-76043782D01*
X141055471Y-76033554D01*
X141077993Y-76025496D01*
X141101197Y-76019684D01*
X141124858Y-76016174D01*
X141148750Y-76015000D01*
X142061250Y-76015000D01*
X142085142Y-76016174D01*
X142085142Y-76016174D01*
G37*
D13*
X141605000Y-76502500D03*
D12*
G36*
X133830142Y-75381174D02*
G01*
X133853803Y-75384684D01*
X133877007Y-75390496D01*
X133899529Y-75398554D01*
X133921153Y-75408782D01*
X133941670Y-75421079D01*
X133960883Y-75435329D01*
X133978607Y-75451393D01*
X133994671Y-75469117D01*
X134008921Y-75488330D01*
X134021218Y-75508847D01*
X134031446Y-75530471D01*
X134039504Y-75552993D01*
X134045316Y-75576197D01*
X134048826Y-75599858D01*
X134050000Y-75623750D01*
X134050000Y-76111250D01*
X134048826Y-76135142D01*
X134045316Y-76158803D01*
X134039504Y-76182007D01*
X134031446Y-76204529D01*
X134021218Y-76226153D01*
X134008921Y-76246670D01*
X133994671Y-76265883D01*
X133978607Y-76283607D01*
X133960883Y-76299671D01*
X133941670Y-76313921D01*
X133921153Y-76326218D01*
X133899529Y-76336446D01*
X133877007Y-76344504D01*
X133853803Y-76350316D01*
X133830142Y-76353826D01*
X133806250Y-76355000D01*
X132893750Y-76355000D01*
X132869858Y-76353826D01*
X132846197Y-76350316D01*
X132822993Y-76344504D01*
X132800471Y-76336446D01*
X132778847Y-76326218D01*
X132758330Y-76313921D01*
X132739117Y-76299671D01*
X132721393Y-76283607D01*
X132705329Y-76265883D01*
X132691079Y-76246670D01*
X132678782Y-76226153D01*
X132668554Y-76204529D01*
X132660496Y-76182007D01*
X132654684Y-76158803D01*
X132651174Y-76135142D01*
X132650000Y-76111250D01*
X132650000Y-75623750D01*
X132651174Y-75599858D01*
X132654684Y-75576197D01*
X132660496Y-75552993D01*
X132668554Y-75530471D01*
X132678782Y-75508847D01*
X132691079Y-75488330D01*
X132705329Y-75469117D01*
X132721393Y-75451393D01*
X132739117Y-75435329D01*
X132758330Y-75421079D01*
X132778847Y-75408782D01*
X132800471Y-75398554D01*
X132822993Y-75390496D01*
X132846197Y-75384684D01*
X132869858Y-75381174D01*
X132893750Y-75380000D01*
X133806250Y-75380000D01*
X133830142Y-75381174D01*
X133830142Y-75381174D01*
G37*
D13*
X133350000Y-75867500D03*
D12*
G36*
X133830142Y-73506174D02*
G01*
X133853803Y-73509684D01*
X133877007Y-73515496D01*
X133899529Y-73523554D01*
X133921153Y-73533782D01*
X133941670Y-73546079D01*
X133960883Y-73560329D01*
X133978607Y-73576393D01*
X133994671Y-73594117D01*
X134008921Y-73613330D01*
X134021218Y-73633847D01*
X134031446Y-73655471D01*
X134039504Y-73677993D01*
X134045316Y-73701197D01*
X134048826Y-73724858D01*
X134050000Y-73748750D01*
X134050000Y-74236250D01*
X134048826Y-74260142D01*
X134045316Y-74283803D01*
X134039504Y-74307007D01*
X134031446Y-74329529D01*
X134021218Y-74351153D01*
X134008921Y-74371670D01*
X133994671Y-74390883D01*
X133978607Y-74408607D01*
X133960883Y-74424671D01*
X133941670Y-74438921D01*
X133921153Y-74451218D01*
X133899529Y-74461446D01*
X133877007Y-74469504D01*
X133853803Y-74475316D01*
X133830142Y-74478826D01*
X133806250Y-74480000D01*
X132893750Y-74480000D01*
X132869858Y-74478826D01*
X132846197Y-74475316D01*
X132822993Y-74469504D01*
X132800471Y-74461446D01*
X132778847Y-74451218D01*
X132758330Y-74438921D01*
X132739117Y-74424671D01*
X132721393Y-74408607D01*
X132705329Y-74390883D01*
X132691079Y-74371670D01*
X132678782Y-74351153D01*
X132668554Y-74329529D01*
X132660496Y-74307007D01*
X132654684Y-74283803D01*
X132651174Y-74260142D01*
X132650000Y-74236250D01*
X132650000Y-73748750D01*
X132651174Y-73724858D01*
X132654684Y-73701197D01*
X132660496Y-73677993D01*
X132668554Y-73655471D01*
X132678782Y-73633847D01*
X132691079Y-73613330D01*
X132705329Y-73594117D01*
X132721393Y-73576393D01*
X132739117Y-73560329D01*
X132758330Y-73546079D01*
X132778847Y-73533782D01*
X132800471Y-73523554D01*
X132822993Y-73515496D01*
X132846197Y-73509684D01*
X132869858Y-73506174D01*
X132893750Y-73505000D01*
X133806250Y-73505000D01*
X133830142Y-73506174D01*
X133830142Y-73506174D01*
G37*
D13*
X133350000Y-73992500D03*
D14*
X153670000Y-85200000D03*
X153670000Y-82200000D03*
X153670000Y-79200000D03*
D12*
G36*
X154454504Y-75451204D02*
G01*
X154478773Y-75454804D01*
X154502571Y-75460765D01*
X154525671Y-75469030D01*
X154547849Y-75479520D01*
X154568893Y-75492133D01*
X154588598Y-75506747D01*
X154606777Y-75523223D01*
X154623253Y-75541402D01*
X154637867Y-75561107D01*
X154650480Y-75582151D01*
X154660970Y-75604329D01*
X154669235Y-75627429D01*
X154675196Y-75651227D01*
X154678796Y-75675496D01*
X154680000Y-75700000D01*
X154680000Y-76700000D01*
X154678796Y-76724504D01*
X154675196Y-76748773D01*
X154669235Y-76772571D01*
X154660970Y-76795671D01*
X154650480Y-76817849D01*
X154637867Y-76838893D01*
X154623253Y-76858598D01*
X154606777Y-76876777D01*
X154588598Y-76893253D01*
X154568893Y-76907867D01*
X154547849Y-76920480D01*
X154525671Y-76930970D01*
X154502571Y-76939235D01*
X154478773Y-76945196D01*
X154454504Y-76948796D01*
X154430000Y-76950000D01*
X152910000Y-76950000D01*
X152885496Y-76948796D01*
X152861227Y-76945196D01*
X152837429Y-76939235D01*
X152814329Y-76930970D01*
X152792151Y-76920480D01*
X152771107Y-76907867D01*
X152751402Y-76893253D01*
X152733223Y-76876777D01*
X152716747Y-76858598D01*
X152702133Y-76838893D01*
X152689520Y-76817849D01*
X152679030Y-76795671D01*
X152670765Y-76772571D01*
X152664804Y-76748773D01*
X152661204Y-76724504D01*
X152660000Y-76700000D01*
X152660000Y-75700000D01*
X152661204Y-75675496D01*
X152664804Y-75651227D01*
X152670765Y-75627429D01*
X152679030Y-75604329D01*
X152689520Y-75582151D01*
X152702133Y-75561107D01*
X152716747Y-75541402D01*
X152733223Y-75523223D01*
X152751402Y-75506747D01*
X152771107Y-75492133D01*
X152792151Y-75479520D01*
X152814329Y-75469030D01*
X152837429Y-75460765D01*
X152861227Y-75454804D01*
X152885496Y-75451204D01*
X152910000Y-75450000D01*
X154430000Y-75450000D01*
X154454504Y-75451204D01*
X154454504Y-75451204D01*
G37*
D15*
X153670000Y-76200000D03*
D16*
X155630000Y-88200000D03*
X155630000Y-73200000D03*
D17*
X105410000Y-94716000D03*
X105410000Y-75716000D03*
D18*
X111410000Y-69716000D03*
X111410000Y-72216000D03*
X111410000Y-74716000D03*
X111410000Y-77216000D03*
D19*
X111410000Y-79716000D03*
X96440000Y-79716000D03*
D18*
X96440000Y-77216000D03*
X96440000Y-74716000D03*
X96440000Y-72216000D03*
X96440000Y-69716000D03*
D17*
X90440000Y-75716000D03*
X90440000Y-94716000D03*
M02*
