G04 #@! TF.GenerationSoftware,KiCad,Pcbnew,5.1.5-52549c5~84~ubuntu18.04.1*
G04 #@! TF.CreationDate,2020-01-31T16:34:13-06:00*
G04 #@! TF.ProjectId,ContactorDriver,436f6e74-6163-4746-9f72-447269766572,rev?*
G04 #@! TF.SameCoordinates,Original*
G04 #@! TF.FileFunction,Soldermask,Bot*
G04 #@! TF.FilePolarity,Negative*
%FSLAX46Y46*%
G04 Gerber Fmt 4.6, Leading zero omitted, Abs format (unit mm)*
G04 Created by KiCad (PCBNEW 5.1.5-52549c5~84~ubuntu18.04.1) date 2020-01-31 16:34:13*
%MOMM*%
%LPD*%
G04 APERTURE LIST*
%ADD10C,0.100000*%
G04 APERTURE END LIST*
D10*
G36*
X227302585Y-163478802D02*
G01*
X227452410Y-163508604D01*
X227734674Y-163625521D01*
X227988705Y-163795259D01*
X228204741Y-164011295D01*
X228374479Y-164265326D01*
X228491396Y-164547590D01*
X228551000Y-164847240D01*
X228551000Y-165152760D01*
X228491396Y-165452410D01*
X228374479Y-165734674D01*
X228204741Y-165988705D01*
X227988705Y-166204741D01*
X227734674Y-166374479D01*
X227452410Y-166491396D01*
X227302585Y-166521198D01*
X227152761Y-166551000D01*
X226847239Y-166551000D01*
X226697415Y-166521198D01*
X226547590Y-166491396D01*
X226265326Y-166374479D01*
X226011295Y-166204741D01*
X225795259Y-165988705D01*
X225625521Y-165734674D01*
X225508604Y-165452410D01*
X225449000Y-165152760D01*
X225449000Y-164847240D01*
X225508604Y-164547590D01*
X225625521Y-164265326D01*
X225795259Y-164011295D01*
X226011295Y-163795259D01*
X226265326Y-163625521D01*
X226547590Y-163508604D01*
X226697415Y-163478802D01*
X226847239Y-163449000D01*
X227152761Y-163449000D01*
X227302585Y-163478802D01*
G37*
G36*
X167302585Y-163478802D02*
G01*
X167452410Y-163508604D01*
X167734674Y-163625521D01*
X167988705Y-163795259D01*
X168204741Y-164011295D01*
X168374479Y-164265326D01*
X168491396Y-164547590D01*
X168551000Y-164847240D01*
X168551000Y-165152760D01*
X168491396Y-165452410D01*
X168374479Y-165734674D01*
X168204741Y-165988705D01*
X167988705Y-166204741D01*
X167734674Y-166374479D01*
X167452410Y-166491396D01*
X167302585Y-166521198D01*
X167152761Y-166551000D01*
X166847239Y-166551000D01*
X166697415Y-166521198D01*
X166547590Y-166491396D01*
X166265326Y-166374479D01*
X166011295Y-166204741D01*
X165795259Y-165988705D01*
X165625521Y-165734674D01*
X165508604Y-165452410D01*
X165449000Y-165152760D01*
X165449000Y-164847240D01*
X165508604Y-164547590D01*
X165625521Y-164265326D01*
X165795259Y-164011295D01*
X166011295Y-163795259D01*
X166265326Y-163625521D01*
X166547590Y-163508604D01*
X166697415Y-163478802D01*
X166847239Y-163449000D01*
X167152761Y-163449000D01*
X167302585Y-163478802D01*
G37*
G36*
X219171304Y-158037002D02*
G01*
X219590139Y-158210489D01*
X219590141Y-158210490D01*
X219779891Y-158337277D01*
X219967082Y-158462354D01*
X220287646Y-158782918D01*
X220412723Y-158970109D01*
X220531285Y-159147549D01*
X220539511Y-159159861D01*
X220712998Y-159578696D01*
X220801440Y-160023327D01*
X220801440Y-160476673D01*
X220712998Y-160921304D01*
X220539511Y-161340139D01*
X220323718Y-161663097D01*
X220287645Y-161717083D01*
X219967083Y-162037645D01*
X219590141Y-162289510D01*
X219590140Y-162289511D01*
X219590139Y-162289511D01*
X219171304Y-162462998D01*
X218726673Y-162551440D01*
X218273327Y-162551440D01*
X217828696Y-162462998D01*
X217409861Y-162289511D01*
X217409860Y-162289511D01*
X217409859Y-162289510D01*
X217032917Y-162037645D01*
X216712355Y-161717083D01*
X216676283Y-161663097D01*
X216460489Y-161340139D01*
X216287002Y-160921304D01*
X216198560Y-160476673D01*
X216198560Y-160023327D01*
X216287002Y-159578696D01*
X216460489Y-159159861D01*
X216468716Y-159147549D01*
X216587277Y-158970109D01*
X216712354Y-158782918D01*
X217032918Y-158462354D01*
X217220109Y-158337277D01*
X217409859Y-158210490D01*
X217409861Y-158210489D01*
X217828696Y-158037002D01*
X218273327Y-157948560D01*
X218726673Y-157948560D01*
X219171304Y-158037002D01*
G37*
G36*
X208775256Y-158591298D02*
G01*
X208881579Y-158612447D01*
X209182042Y-158736903D01*
X209452451Y-158917585D01*
X209682415Y-159147549D01*
X209863097Y-159417958D01*
X209929677Y-159578695D01*
X209987553Y-159718422D01*
X210051000Y-160037389D01*
X210051000Y-160362611D01*
X210028311Y-160476673D01*
X209987553Y-160681579D01*
X209863097Y-160982042D01*
X209682415Y-161252451D01*
X209452451Y-161482415D01*
X209182042Y-161663097D01*
X208881579Y-161787553D01*
X208775256Y-161808702D01*
X208562611Y-161851000D01*
X208237389Y-161851000D01*
X208024744Y-161808702D01*
X207918421Y-161787553D01*
X207617958Y-161663097D01*
X207347549Y-161482415D01*
X207117585Y-161252451D01*
X206936903Y-160982042D01*
X206812447Y-160681579D01*
X206771689Y-160476673D01*
X206749000Y-160362611D01*
X206749000Y-160037389D01*
X206812447Y-159718422D01*
X206870324Y-159578695D01*
X206936903Y-159417958D01*
X207117585Y-159147549D01*
X207347549Y-158917585D01*
X207617958Y-158736903D01*
X207918421Y-158612447D01*
X208024744Y-158591298D01*
X208237389Y-158549000D01*
X208562611Y-158549000D01*
X208775256Y-158591298D01*
G37*
G36*
X170955256Y-153071298D02*
G01*
X171061579Y-153092447D01*
X171362042Y-153216903D01*
X171632451Y-153397585D01*
X171862415Y-153627549D01*
X172043097Y-153897958D01*
X172167553Y-154198421D01*
X172231000Y-154517391D01*
X172231000Y-154842609D01*
X172167553Y-155161579D01*
X172043097Y-155462042D01*
X171862415Y-155732451D01*
X171632451Y-155962415D01*
X171362042Y-156143097D01*
X171061579Y-156267553D01*
X170955256Y-156288702D01*
X170742611Y-156331000D01*
X170417389Y-156331000D01*
X170204744Y-156288702D01*
X170098421Y-156267553D01*
X169797958Y-156143097D01*
X169527549Y-155962415D01*
X169297585Y-155732451D01*
X169116903Y-155462042D01*
X168992447Y-155161579D01*
X168929000Y-154842609D01*
X168929000Y-154517391D01*
X168992447Y-154198421D01*
X169116903Y-153897958D01*
X169297585Y-153627549D01*
X169527549Y-153397585D01*
X169797958Y-153216903D01*
X170098421Y-153092447D01*
X170204744Y-153071298D01*
X170417389Y-153029000D01*
X170742611Y-153029000D01*
X170955256Y-153071298D01*
G37*
G36*
X173728276Y-145471884D02*
G01*
X173945569Y-145561890D01*
X173945571Y-145561891D01*
X174141130Y-145692560D01*
X174307440Y-145858870D01*
X174438110Y-146054431D01*
X174529513Y-146275097D01*
X174534516Y-146291589D01*
X174546067Y-146313199D01*
X174561613Y-146332141D01*
X174580555Y-146347686D01*
X174602165Y-146359237D01*
X174625614Y-146366350D01*
X174650000Y-146368752D01*
X174674387Y-146366350D01*
X174697836Y-146359237D01*
X174719446Y-146347686D01*
X174738388Y-146332140D01*
X174753933Y-146313198D01*
X174765484Y-146291588D01*
X174770486Y-146275098D01*
X174861890Y-146054431D01*
X174992560Y-145858870D01*
X175158870Y-145692560D01*
X175354429Y-145561891D01*
X175354431Y-145561890D01*
X175571724Y-145471884D01*
X175802400Y-145426000D01*
X176037600Y-145426000D01*
X176268276Y-145471884D01*
X176485569Y-145561890D01*
X176485571Y-145561891D01*
X176681130Y-145692560D01*
X176847440Y-145858870D01*
X176978110Y-146054431D01*
X177068116Y-146271724D01*
X177114000Y-146502400D01*
X177114000Y-146737600D01*
X177068116Y-146968276D01*
X176978110Y-147185569D01*
X176978109Y-147185571D01*
X176847440Y-147381130D01*
X176681130Y-147547440D01*
X176485571Y-147678109D01*
X176485570Y-147678110D01*
X176485569Y-147678110D01*
X176268276Y-147768116D01*
X176037600Y-147814000D01*
X175802400Y-147814000D01*
X175571724Y-147768116D01*
X175354431Y-147678110D01*
X175354430Y-147678110D01*
X175354429Y-147678109D01*
X175158870Y-147547440D01*
X174992560Y-147381130D01*
X174861891Y-147185571D01*
X174771885Y-146968277D01*
X174770487Y-146964903D01*
X174765484Y-146948411D01*
X174753933Y-146926801D01*
X174738387Y-146907859D01*
X174719445Y-146892314D01*
X174697835Y-146880763D01*
X174674386Y-146873650D01*
X174650000Y-146871248D01*
X174625613Y-146873650D01*
X174602164Y-146880763D01*
X174580554Y-146892314D01*
X174561612Y-146907860D01*
X174546067Y-146926802D01*
X174534516Y-146948412D01*
X174529514Y-146964902D01*
X174438110Y-147185569D01*
X174438109Y-147185571D01*
X174307440Y-147381130D01*
X174141130Y-147547440D01*
X173945571Y-147678109D01*
X173945570Y-147678110D01*
X173945569Y-147678110D01*
X173728276Y-147768116D01*
X173497600Y-147814000D01*
X173262400Y-147814000D01*
X173031724Y-147768116D01*
X172814431Y-147678110D01*
X172814430Y-147678110D01*
X172814429Y-147678109D01*
X172618870Y-147547440D01*
X172452560Y-147381130D01*
X172321891Y-147185571D01*
X172321890Y-147185569D01*
X172231884Y-146968276D01*
X172186000Y-146737600D01*
X172186000Y-146502400D01*
X172231884Y-146271724D01*
X172321890Y-146054431D01*
X172452560Y-145858870D01*
X172618870Y-145692560D01*
X172814429Y-145561891D01*
X172814431Y-145561890D01*
X173031724Y-145471884D01*
X173262400Y-145426000D01*
X173497600Y-145426000D01*
X173728276Y-145471884D01*
G37*
G36*
X181348276Y-145471884D02*
G01*
X181565569Y-145561890D01*
X181565571Y-145561891D01*
X181761130Y-145692560D01*
X181927440Y-145858870D01*
X182058110Y-146054431D01*
X182148116Y-146271724D01*
X182194000Y-146502400D01*
X182194000Y-146737600D01*
X182148116Y-146968276D01*
X182058110Y-147185569D01*
X182058109Y-147185571D01*
X181927440Y-147381130D01*
X181761130Y-147547440D01*
X181565571Y-147678109D01*
X181565570Y-147678110D01*
X181565569Y-147678110D01*
X181348276Y-147768116D01*
X181117600Y-147814000D01*
X180882400Y-147814000D01*
X180651724Y-147768116D01*
X180434431Y-147678110D01*
X180434430Y-147678110D01*
X180434429Y-147678109D01*
X180238870Y-147547440D01*
X180072560Y-147381130D01*
X179941891Y-147185571D01*
X179941890Y-147185569D01*
X179851884Y-146968276D01*
X179806000Y-146737600D01*
X179806000Y-146502400D01*
X179851884Y-146271724D01*
X179941890Y-146054431D01*
X180072560Y-145858870D01*
X180238870Y-145692560D01*
X180434429Y-145561891D01*
X180434431Y-145561890D01*
X180651724Y-145471884D01*
X180882400Y-145426000D01*
X181117600Y-145426000D01*
X181348276Y-145471884D01*
G37*
G36*
X173728276Y-137851884D02*
G01*
X173945569Y-137941890D01*
X173945571Y-137941891D01*
X174141130Y-138072560D01*
X174307440Y-138238870D01*
X174438110Y-138434431D01*
X174529513Y-138655097D01*
X174534516Y-138671589D01*
X174546067Y-138693199D01*
X174561613Y-138712141D01*
X174580555Y-138727686D01*
X174602165Y-138739237D01*
X174625614Y-138746350D01*
X174650000Y-138748752D01*
X174674387Y-138746350D01*
X174697836Y-138739237D01*
X174719446Y-138727686D01*
X174738388Y-138712140D01*
X174753933Y-138693198D01*
X174765484Y-138671588D01*
X174770486Y-138655098D01*
X174861890Y-138434431D01*
X174992560Y-138238870D01*
X175158870Y-138072560D01*
X175354429Y-137941891D01*
X175354431Y-137941890D01*
X175571724Y-137851884D01*
X175802400Y-137806000D01*
X176037600Y-137806000D01*
X176268276Y-137851884D01*
X176485569Y-137941890D01*
X176485571Y-137941891D01*
X176681130Y-138072560D01*
X176847440Y-138238870D01*
X176978110Y-138434431D01*
X177068116Y-138651724D01*
X177114000Y-138882400D01*
X177114000Y-139117600D01*
X177068116Y-139348276D01*
X176978110Y-139565569D01*
X176978109Y-139565571D01*
X176847440Y-139761130D01*
X176681130Y-139927440D01*
X176485571Y-140058109D01*
X176485570Y-140058110D01*
X176485569Y-140058110D01*
X176268276Y-140148116D01*
X176037600Y-140194000D01*
X175802400Y-140194000D01*
X175571724Y-140148116D01*
X175354431Y-140058110D01*
X175354430Y-140058110D01*
X175354429Y-140058109D01*
X175158870Y-139927440D01*
X174992560Y-139761130D01*
X174861891Y-139565571D01*
X174771885Y-139348277D01*
X174770487Y-139344903D01*
X174765484Y-139328411D01*
X174753933Y-139306801D01*
X174738387Y-139287859D01*
X174719445Y-139272314D01*
X174697835Y-139260763D01*
X174674386Y-139253650D01*
X174650000Y-139251248D01*
X174625613Y-139253650D01*
X174602164Y-139260763D01*
X174580554Y-139272314D01*
X174561612Y-139287860D01*
X174546067Y-139306802D01*
X174534516Y-139328412D01*
X174529514Y-139344902D01*
X174438110Y-139565569D01*
X174438109Y-139565571D01*
X174307440Y-139761130D01*
X174141130Y-139927440D01*
X173945571Y-140058109D01*
X173945570Y-140058110D01*
X173945569Y-140058110D01*
X173728276Y-140148116D01*
X173497600Y-140194000D01*
X173262400Y-140194000D01*
X173031724Y-140148116D01*
X172814431Y-140058110D01*
X172814430Y-140058110D01*
X172814429Y-140058109D01*
X172618870Y-139927440D01*
X172452560Y-139761130D01*
X172321891Y-139565571D01*
X172321890Y-139565569D01*
X172231884Y-139348276D01*
X172186000Y-139117600D01*
X172186000Y-138882400D01*
X172231884Y-138651724D01*
X172321890Y-138434431D01*
X172452560Y-138238870D01*
X172618870Y-138072560D01*
X172814429Y-137941891D01*
X172814431Y-137941890D01*
X173031724Y-137851884D01*
X173262400Y-137806000D01*
X173497600Y-137806000D01*
X173728276Y-137851884D01*
G37*
G36*
X181348276Y-137851884D02*
G01*
X181565569Y-137941890D01*
X181565571Y-137941891D01*
X181761130Y-138072560D01*
X181927440Y-138238870D01*
X182058110Y-138434431D01*
X182148116Y-138651724D01*
X182194000Y-138882400D01*
X182194000Y-139117600D01*
X182148116Y-139348276D01*
X182058110Y-139565569D01*
X182058109Y-139565571D01*
X181927440Y-139761130D01*
X181761130Y-139927440D01*
X181565571Y-140058109D01*
X181565570Y-140058110D01*
X181565569Y-140058110D01*
X181348276Y-140148116D01*
X181117600Y-140194000D01*
X180882400Y-140194000D01*
X180651724Y-140148116D01*
X180434431Y-140058110D01*
X180434430Y-140058110D01*
X180434429Y-140058109D01*
X180238870Y-139927440D01*
X180072560Y-139761130D01*
X179941891Y-139565571D01*
X179941890Y-139565569D01*
X179851884Y-139348276D01*
X179806000Y-139117600D01*
X179806000Y-138882400D01*
X179851884Y-138651724D01*
X179941890Y-138434431D01*
X180072560Y-138238870D01*
X180238870Y-138072560D01*
X180434429Y-137941891D01*
X180434431Y-137941890D01*
X180651724Y-137851884D01*
X180882400Y-137806000D01*
X181117600Y-137806000D01*
X181348276Y-137851884D01*
G37*
G36*
X170955256Y-129331298D02*
G01*
X171061579Y-129352447D01*
X171362042Y-129476903D01*
X171632451Y-129657585D01*
X171862415Y-129887549D01*
X172043097Y-130157958D01*
X172167553Y-130458421D01*
X172231000Y-130777391D01*
X172231000Y-131102609D01*
X172167553Y-131421579D01*
X172043097Y-131722042D01*
X171862415Y-131992451D01*
X171632451Y-132222415D01*
X171362042Y-132403097D01*
X171061579Y-132527553D01*
X170955256Y-132548702D01*
X170742611Y-132591000D01*
X170417389Y-132591000D01*
X170204744Y-132548702D01*
X170098421Y-132527553D01*
X169797958Y-132403097D01*
X169527549Y-132222415D01*
X169297585Y-131992451D01*
X169116903Y-131722042D01*
X168992447Y-131421579D01*
X168929000Y-131102609D01*
X168929000Y-130777391D01*
X168992447Y-130458421D01*
X169116903Y-130157958D01*
X169297585Y-129887549D01*
X169527549Y-129657585D01*
X169797958Y-129476903D01*
X170098421Y-129352447D01*
X170204744Y-129331298D01*
X170417389Y-129289000D01*
X170742611Y-129289000D01*
X170955256Y-129331298D01*
G37*
G36*
X177671304Y-118287002D02*
G01*
X178090139Y-118460489D01*
X178090141Y-118460490D01*
X178252736Y-118569133D01*
X178467082Y-118712354D01*
X178787646Y-119032918D01*
X179039511Y-119409861D01*
X179212998Y-119828696D01*
X179301440Y-120273327D01*
X179301440Y-120726673D01*
X179212998Y-121171304D01*
X179039511Y-121590139D01*
X178790309Y-121963097D01*
X178787645Y-121967083D01*
X178467083Y-122287645D01*
X178090141Y-122539510D01*
X178090140Y-122539511D01*
X178090139Y-122539511D01*
X177671304Y-122712998D01*
X177226673Y-122801440D01*
X176773327Y-122801440D01*
X176328696Y-122712998D01*
X175909861Y-122539511D01*
X175909860Y-122539511D01*
X175909859Y-122539510D01*
X175532917Y-122287645D01*
X175212355Y-121967083D01*
X175209692Y-121963097D01*
X174960489Y-121590139D01*
X174787002Y-121171304D01*
X174698560Y-120726673D01*
X174698560Y-120273327D01*
X174787002Y-119828696D01*
X174960489Y-119409861D01*
X175212354Y-119032918D01*
X175532918Y-118712354D01*
X175747264Y-118569133D01*
X175909859Y-118460490D01*
X175909861Y-118460489D01*
X176328696Y-118287002D01*
X176773327Y-118198560D01*
X177226673Y-118198560D01*
X177671304Y-118287002D01*
G37*
G36*
X187375256Y-118891298D02*
G01*
X187481579Y-118912447D01*
X187665679Y-118988704D01*
X187772422Y-119032918D01*
X187782042Y-119036903D01*
X188052451Y-119217585D01*
X188282415Y-119447549D01*
X188463097Y-119717958D01*
X188587553Y-120018421D01*
X188651000Y-120337391D01*
X188651000Y-120662609D01*
X188587553Y-120981579D01*
X188463097Y-121282042D01*
X188282415Y-121552451D01*
X188052451Y-121782415D01*
X187782042Y-121963097D01*
X187782041Y-121963098D01*
X187782040Y-121963098D01*
X187772419Y-121967083D01*
X187481579Y-122087553D01*
X187375256Y-122108702D01*
X187162611Y-122151000D01*
X186837389Y-122151000D01*
X186624744Y-122108702D01*
X186518421Y-122087553D01*
X186227581Y-121967083D01*
X186217960Y-121963098D01*
X186217959Y-121963098D01*
X186217958Y-121963097D01*
X185947549Y-121782415D01*
X185717585Y-121552451D01*
X185536903Y-121282042D01*
X185412447Y-120981579D01*
X185349000Y-120662609D01*
X185349000Y-120337391D01*
X185412447Y-120018421D01*
X185536903Y-119717958D01*
X185717585Y-119447549D01*
X185947549Y-119217585D01*
X186217958Y-119036903D01*
X186227579Y-119032918D01*
X186334321Y-118988704D01*
X186518421Y-118912447D01*
X186624744Y-118891298D01*
X186837389Y-118849000D01*
X187162611Y-118849000D01*
X187375256Y-118891298D01*
G37*
G36*
X167302585Y-116478802D02*
G01*
X167452410Y-116508604D01*
X167734674Y-116625521D01*
X167988705Y-116795259D01*
X168204741Y-117011295D01*
X168374479Y-117265326D01*
X168491396Y-117547590D01*
X168521198Y-117697415D01*
X168551000Y-117847239D01*
X168551000Y-118152761D01*
X168550152Y-118157023D01*
X168491396Y-118452410D01*
X168374479Y-118734674D01*
X168204741Y-118988705D01*
X167988705Y-119204741D01*
X167734674Y-119374479D01*
X167452410Y-119491396D01*
X167302585Y-119521198D01*
X167152761Y-119551000D01*
X166847239Y-119551000D01*
X166697415Y-119521198D01*
X166547590Y-119491396D01*
X166265326Y-119374479D01*
X166011295Y-119204741D01*
X165795259Y-118988705D01*
X165625521Y-118734674D01*
X165508604Y-118452410D01*
X165449848Y-118157023D01*
X165449000Y-118152761D01*
X165449000Y-117847239D01*
X165478802Y-117697415D01*
X165508604Y-117547590D01*
X165625521Y-117265326D01*
X165795259Y-117011295D01*
X166011295Y-116795259D01*
X166265326Y-116625521D01*
X166547590Y-116508604D01*
X166697415Y-116478802D01*
X166847239Y-116449000D01*
X167152761Y-116449000D01*
X167302585Y-116478802D01*
G37*
G36*
X221338571Y-117202863D02*
G01*
X221417023Y-117210590D01*
X221496417Y-117234674D01*
X221568013Y-117256392D01*
X221707165Y-117330771D01*
X221829133Y-117430867D01*
X221929229Y-117552835D01*
X222003608Y-117691987D01*
X222007477Y-117704741D01*
X222049410Y-117842977D01*
X222064875Y-118000000D01*
X222049410Y-118157023D01*
X222036810Y-118198560D01*
X222003608Y-118308013D01*
X221929229Y-118447165D01*
X221829133Y-118569133D01*
X221707165Y-118669229D01*
X221568013Y-118743608D01*
X221517682Y-118758875D01*
X221417023Y-118789410D01*
X221338571Y-118797137D01*
X221299346Y-118801000D01*
X220700654Y-118801000D01*
X220661429Y-118797137D01*
X220582977Y-118789410D01*
X220482318Y-118758875D01*
X220431987Y-118743608D01*
X220292835Y-118669229D01*
X220170867Y-118569133D01*
X220070771Y-118447165D01*
X219996392Y-118308013D01*
X219963190Y-118198560D01*
X219950590Y-118157023D01*
X219935125Y-118000000D01*
X219950590Y-117842977D01*
X219992523Y-117704741D01*
X219996392Y-117691987D01*
X220070771Y-117552835D01*
X220170867Y-117430867D01*
X220292835Y-117330771D01*
X220431987Y-117256392D01*
X220503583Y-117234674D01*
X220582977Y-117210590D01*
X220661429Y-117202863D01*
X220700654Y-117199000D01*
X221299346Y-117199000D01*
X221338571Y-117202863D01*
G37*
G36*
X225622585Y-114978802D02*
G01*
X225772410Y-115008604D01*
X226054674Y-115125521D01*
X226308705Y-115295259D01*
X226524741Y-115511295D01*
X226694479Y-115765326D01*
X226811396Y-116047590D01*
X226871000Y-116347240D01*
X226871000Y-116652760D01*
X226811396Y-116952410D01*
X226694479Y-117234674D01*
X226524741Y-117488705D01*
X226308705Y-117704741D01*
X226054674Y-117874479D01*
X225772410Y-117991396D01*
X225622585Y-118021198D01*
X225472761Y-118051000D01*
X225167239Y-118051000D01*
X225017415Y-118021198D01*
X224867590Y-117991396D01*
X224585326Y-117874479D01*
X224331295Y-117704741D01*
X224115259Y-117488705D01*
X223945521Y-117234674D01*
X223828604Y-116952410D01*
X223769000Y-116652760D01*
X223769000Y-116347240D01*
X223828604Y-116047590D01*
X223945521Y-115765326D01*
X224115259Y-115511295D01*
X224331295Y-115295259D01*
X224585326Y-115125521D01*
X224867590Y-115008604D01*
X225017415Y-114978802D01*
X225167239Y-114949000D01*
X225472761Y-114949000D01*
X225622585Y-114978802D01*
G37*
G36*
X221913048Y-114203122D02*
G01*
X221947387Y-114213539D01*
X221979036Y-114230456D01*
X222006778Y-114253222D01*
X222029544Y-114280964D01*
X222046461Y-114312613D01*
X222056878Y-114346952D01*
X222061000Y-114388807D01*
X222061000Y-115611193D01*
X222056878Y-115653048D01*
X222046461Y-115687387D01*
X222029544Y-115719036D01*
X222006778Y-115746778D01*
X221979036Y-115769544D01*
X221947387Y-115786461D01*
X221913048Y-115796878D01*
X221871193Y-115801000D01*
X220128807Y-115801000D01*
X220086952Y-115796878D01*
X220052613Y-115786461D01*
X220020964Y-115769544D01*
X219993222Y-115746778D01*
X219970456Y-115719036D01*
X219953539Y-115687387D01*
X219943122Y-115653048D01*
X219939000Y-115611193D01*
X219939000Y-114388807D01*
X219943122Y-114346952D01*
X219953539Y-114312613D01*
X219970456Y-114280964D01*
X219993222Y-114253222D01*
X220020964Y-114230456D01*
X220052613Y-114213539D01*
X220086952Y-114203122D01*
X220128807Y-114199000D01*
X221871193Y-114199000D01*
X221913048Y-114203122D01*
G37*
G36*
X176364903Y-104457075D02*
G01*
X176592571Y-104551378D01*
X176797466Y-104688285D01*
X176971715Y-104862534D01*
X177108622Y-105067429D01*
X177108623Y-105067431D01*
X177108679Y-105067566D01*
X177202925Y-105295097D01*
X177251000Y-105536787D01*
X177251000Y-105783213D01*
X177202925Y-106024903D01*
X177108622Y-106252571D01*
X176971715Y-106457466D01*
X176797466Y-106631715D01*
X176592571Y-106768622D01*
X176592570Y-106768623D01*
X176592569Y-106768623D01*
X176364903Y-106862925D01*
X176123214Y-106911000D01*
X175876786Y-106911000D01*
X175635097Y-106862925D01*
X175407431Y-106768623D01*
X175407430Y-106768623D01*
X175407429Y-106768622D01*
X175202534Y-106631715D01*
X175028285Y-106457466D01*
X174891378Y-106252571D01*
X174797075Y-106024903D01*
X174749000Y-105783213D01*
X174749000Y-105536787D01*
X174797075Y-105295097D01*
X174891321Y-105067566D01*
X174891377Y-105067431D01*
X174891378Y-105067429D01*
X175028285Y-104862534D01*
X175202534Y-104688285D01*
X175407429Y-104551378D01*
X175635097Y-104457075D01*
X175876786Y-104409000D01*
X176123214Y-104409000D01*
X176364903Y-104457075D01*
G37*
G36*
X169160098Y-104340362D02*
G01*
X169284941Y-104392074D01*
X169284943Y-104392075D01*
X169310273Y-104409000D01*
X169397299Y-104467149D01*
X169492851Y-104562701D01*
X169567926Y-104675059D01*
X169619638Y-104799902D01*
X169646000Y-104932434D01*
X169646000Y-105067566D01*
X169619638Y-105200098D01*
X169580288Y-105295097D01*
X169567925Y-105324943D01*
X169492851Y-105437299D01*
X169397299Y-105532851D01*
X169284943Y-105607925D01*
X169284942Y-105607926D01*
X169284941Y-105607926D01*
X169160098Y-105659638D01*
X169027566Y-105686000D01*
X168892434Y-105686000D01*
X168759902Y-105659638D01*
X168635059Y-105607926D01*
X168635058Y-105607926D01*
X168635057Y-105607925D01*
X168522701Y-105532851D01*
X168427149Y-105437299D01*
X168352075Y-105324943D01*
X168339712Y-105295097D01*
X168300362Y-105200098D01*
X168274000Y-105067566D01*
X168274000Y-104932434D01*
X168300362Y-104799902D01*
X168352074Y-104675059D01*
X168427149Y-104562701D01*
X168522701Y-104467149D01*
X168609727Y-104409000D01*
X168635057Y-104392075D01*
X168635059Y-104392074D01*
X168759902Y-104340362D01*
X168892434Y-104314000D01*
X169027566Y-104314000D01*
X169160098Y-104340362D01*
G37*
G36*
X167338571Y-101202863D02*
G01*
X167417023Y-101210590D01*
X167496417Y-101234674D01*
X167568013Y-101256392D01*
X167707165Y-101330771D01*
X167829133Y-101430867D01*
X167929229Y-101552835D01*
X168003608Y-101691987D01*
X168007477Y-101704741D01*
X168049410Y-101842977D01*
X168064875Y-102000000D01*
X168049410Y-102157023D01*
X168018875Y-102257682D01*
X168003608Y-102308013D01*
X167929229Y-102447165D01*
X167829133Y-102569133D01*
X167707165Y-102669229D01*
X167568013Y-102743608D01*
X167517682Y-102758875D01*
X167417023Y-102789410D01*
X167338571Y-102797137D01*
X167299346Y-102801000D01*
X166700654Y-102801000D01*
X166661429Y-102797137D01*
X166582977Y-102789410D01*
X166482318Y-102758875D01*
X166431987Y-102743608D01*
X166292835Y-102669229D01*
X166170867Y-102569133D01*
X166070771Y-102447165D01*
X165996392Y-102308013D01*
X165981125Y-102257682D01*
X165950590Y-102157023D01*
X165935125Y-102000000D01*
X165950590Y-101842977D01*
X165992523Y-101704741D01*
X165996392Y-101691987D01*
X166070771Y-101552835D01*
X166170867Y-101430867D01*
X166292835Y-101330771D01*
X166431987Y-101256392D01*
X166503583Y-101234674D01*
X166582977Y-101210590D01*
X166661429Y-101202863D01*
X166700654Y-101199000D01*
X167299346Y-101199000D01*
X167338571Y-101202863D01*
G37*
G36*
X221338571Y-101202863D02*
G01*
X221417023Y-101210590D01*
X221496417Y-101234674D01*
X221568013Y-101256392D01*
X221707165Y-101330771D01*
X221829133Y-101430867D01*
X221929229Y-101552835D01*
X222003608Y-101691987D01*
X222007477Y-101704741D01*
X222049410Y-101842977D01*
X222064875Y-102000000D01*
X222049410Y-102157023D01*
X222018875Y-102257682D01*
X222003608Y-102308013D01*
X221929229Y-102447165D01*
X221829133Y-102569133D01*
X221707165Y-102669229D01*
X221568013Y-102743608D01*
X221517682Y-102758875D01*
X221417023Y-102789410D01*
X221338571Y-102797137D01*
X221299346Y-102801000D01*
X220700654Y-102801000D01*
X220661429Y-102797137D01*
X220582977Y-102789410D01*
X220482318Y-102758875D01*
X220431987Y-102743608D01*
X220292835Y-102669229D01*
X220170867Y-102569133D01*
X220070771Y-102447165D01*
X219996392Y-102308013D01*
X219981125Y-102257682D01*
X219950590Y-102157023D01*
X219935125Y-102000000D01*
X219950590Y-101842977D01*
X219992523Y-101704741D01*
X219996392Y-101691987D01*
X220070771Y-101552835D01*
X220170867Y-101430867D01*
X220292835Y-101330771D01*
X220431987Y-101256392D01*
X220503583Y-101234674D01*
X220582977Y-101210590D01*
X220661429Y-101202863D01*
X220700654Y-101199000D01*
X221299346Y-101199000D01*
X221338571Y-101202863D01*
G37*
G36*
X225622585Y-98978802D02*
G01*
X225772410Y-99008604D01*
X226054674Y-99125521D01*
X226308705Y-99295259D01*
X226524741Y-99511295D01*
X226694479Y-99765326D01*
X226811396Y-100047590D01*
X226871000Y-100347240D01*
X226871000Y-100652760D01*
X226811396Y-100952410D01*
X226694479Y-101234674D01*
X226524741Y-101488705D01*
X226308705Y-101704741D01*
X226054674Y-101874479D01*
X225772410Y-101991396D01*
X225622585Y-102021198D01*
X225472761Y-102051000D01*
X225167239Y-102051000D01*
X225017415Y-102021198D01*
X224867590Y-101991396D01*
X224585326Y-101874479D01*
X224331295Y-101704741D01*
X224115259Y-101488705D01*
X223945521Y-101234674D01*
X223828604Y-100952410D01*
X223769000Y-100652760D01*
X223769000Y-100347240D01*
X223828604Y-100047590D01*
X223945521Y-99765326D01*
X224115259Y-99511295D01*
X224331295Y-99295259D01*
X224585326Y-99125521D01*
X224867590Y-99008604D01*
X225017415Y-98978802D01*
X225167239Y-98949000D01*
X225472761Y-98949000D01*
X225622585Y-98978802D01*
G37*
G36*
X202923241Y-97104760D02*
G01*
X203187305Y-97214139D01*
X203424958Y-97372934D01*
X203627066Y-97575042D01*
X203785861Y-97812695D01*
X203895240Y-98076759D01*
X203951000Y-98357088D01*
X203951000Y-98642912D01*
X203895240Y-98923241D01*
X203785861Y-99187305D01*
X203627066Y-99424958D01*
X203424958Y-99627066D01*
X203187305Y-99785861D01*
X202923241Y-99895240D01*
X202642912Y-99951000D01*
X202357088Y-99951000D01*
X202076759Y-99895240D01*
X201812695Y-99785861D01*
X201575042Y-99627066D01*
X201372934Y-99424958D01*
X201214139Y-99187305D01*
X201104760Y-98923241D01*
X201049000Y-98642912D01*
X201049000Y-98357088D01*
X201104760Y-98076759D01*
X201214139Y-97812695D01*
X201372934Y-97575042D01*
X201575042Y-97372934D01*
X201812695Y-97214139D01*
X202076759Y-97104760D01*
X202357088Y-97049000D01*
X202642912Y-97049000D01*
X202923241Y-97104760D01*
G37*
G36*
X167913048Y-98203122D02*
G01*
X167947387Y-98213539D01*
X167979036Y-98230456D01*
X168006778Y-98253222D01*
X168029544Y-98280964D01*
X168046461Y-98312613D01*
X168056878Y-98346952D01*
X168061000Y-98388807D01*
X168061000Y-99611193D01*
X168056878Y-99653048D01*
X168046461Y-99687387D01*
X168029544Y-99719036D01*
X168006778Y-99746778D01*
X167979036Y-99769544D01*
X167947387Y-99786461D01*
X167913048Y-99796878D01*
X167871193Y-99801000D01*
X166128807Y-99801000D01*
X166086952Y-99796878D01*
X166052613Y-99786461D01*
X166020964Y-99769544D01*
X165993222Y-99746778D01*
X165970456Y-99719036D01*
X165953539Y-99687387D01*
X165943122Y-99653048D01*
X165939000Y-99611193D01*
X165939000Y-98388807D01*
X165943122Y-98346952D01*
X165953539Y-98312613D01*
X165970456Y-98280964D01*
X165993222Y-98253222D01*
X166020964Y-98230456D01*
X166052613Y-98213539D01*
X166086952Y-98203122D01*
X166128807Y-98199000D01*
X167871193Y-98199000D01*
X167913048Y-98203122D01*
G37*
G36*
X221913048Y-98203122D02*
G01*
X221947387Y-98213539D01*
X221979036Y-98230456D01*
X222006778Y-98253222D01*
X222029544Y-98280964D01*
X222046461Y-98312613D01*
X222056878Y-98346952D01*
X222061000Y-98388807D01*
X222061000Y-99611193D01*
X222056878Y-99653048D01*
X222046461Y-99687387D01*
X222029544Y-99719036D01*
X222006778Y-99746778D01*
X221979036Y-99769544D01*
X221947387Y-99786461D01*
X221913048Y-99796878D01*
X221871193Y-99801000D01*
X220128807Y-99801000D01*
X220086952Y-99796878D01*
X220052613Y-99786461D01*
X220020964Y-99769544D01*
X219993222Y-99746778D01*
X219970456Y-99719036D01*
X219953539Y-99687387D01*
X219943122Y-99653048D01*
X219939000Y-99611193D01*
X219939000Y-98388807D01*
X219943122Y-98346952D01*
X219953539Y-98312613D01*
X219970456Y-98280964D01*
X219993222Y-98253222D01*
X220020964Y-98230456D01*
X220052613Y-98213539D01*
X220086952Y-98203122D01*
X220128807Y-98199000D01*
X221871193Y-98199000D01*
X221913048Y-98203122D01*
G37*
G36*
X177251000Y-96751000D02*
G01*
X174749000Y-96751000D01*
X174749000Y-94249000D01*
X177251000Y-94249000D01*
X177251000Y-96751000D01*
G37*
G36*
X169160098Y-95340362D02*
G01*
X169284941Y-95392074D01*
X169284943Y-95392075D01*
X169397299Y-95467149D01*
X169492851Y-95562701D01*
X169567926Y-95675059D01*
X169619638Y-95799902D01*
X169646000Y-95932434D01*
X169646000Y-96067566D01*
X169619638Y-96200098D01*
X169567926Y-96324941D01*
X169567925Y-96324943D01*
X169492851Y-96437299D01*
X169397299Y-96532851D01*
X169284943Y-96607925D01*
X169284942Y-96607926D01*
X169284941Y-96607926D01*
X169160098Y-96659638D01*
X169027566Y-96686000D01*
X168892434Y-96686000D01*
X168759902Y-96659638D01*
X168635059Y-96607926D01*
X168635058Y-96607926D01*
X168635057Y-96607925D01*
X168522701Y-96532851D01*
X168427149Y-96437299D01*
X168352075Y-96324943D01*
X168352074Y-96324941D01*
X168300362Y-96200098D01*
X168274000Y-96067566D01*
X168274000Y-95932434D01*
X168300362Y-95799902D01*
X168352074Y-95675059D01*
X168427149Y-95562701D01*
X168522701Y-95467149D01*
X168635057Y-95392075D01*
X168635059Y-95392074D01*
X168759902Y-95340362D01*
X168892434Y-95314000D01*
X169027566Y-95314000D01*
X169160098Y-95340362D01*
G37*
G36*
X169160098Y-90840362D02*
G01*
X169284941Y-90892074D01*
X169284943Y-90892075D01*
X169397299Y-90967149D01*
X169492851Y-91062701D01*
X169567926Y-91175059D01*
X169619638Y-91299902D01*
X169646000Y-91432434D01*
X169646000Y-91567566D01*
X169619638Y-91700098D01*
X169567926Y-91824941D01*
X169567925Y-91824943D01*
X169492851Y-91937299D01*
X169397299Y-92032851D01*
X169284943Y-92107925D01*
X169284942Y-92107926D01*
X169284941Y-92107926D01*
X169160098Y-92159638D01*
X169027566Y-92186000D01*
X168892434Y-92186000D01*
X168759902Y-92159638D01*
X168635059Y-92107926D01*
X168635058Y-92107926D01*
X168635057Y-92107925D01*
X168522701Y-92032851D01*
X168427149Y-91937299D01*
X168352075Y-91824943D01*
X168352074Y-91824941D01*
X168300362Y-91700098D01*
X168274000Y-91567566D01*
X168274000Y-91432434D01*
X168300362Y-91299902D01*
X168352074Y-91175059D01*
X168427149Y-91062701D01*
X168522701Y-90967149D01*
X168635057Y-90892075D01*
X168635059Y-90892074D01*
X168759902Y-90840362D01*
X168892434Y-90814000D01*
X169027566Y-90814000D01*
X169160098Y-90840362D01*
G37*
G36*
X176364903Y-87957075D02*
G01*
X176592571Y-88051378D01*
X176797466Y-88188285D01*
X176971715Y-88362534D01*
X176971716Y-88362536D01*
X177108623Y-88567431D01*
X177202925Y-88795097D01*
X177251000Y-89036786D01*
X177251000Y-89283214D01*
X177247462Y-89301000D01*
X177202925Y-89524903D01*
X177108622Y-89752571D01*
X176971715Y-89957466D01*
X176797466Y-90131715D01*
X176592571Y-90268622D01*
X176592570Y-90268623D01*
X176592569Y-90268623D01*
X176364903Y-90362925D01*
X176123214Y-90411000D01*
X175876786Y-90411000D01*
X175635097Y-90362925D01*
X175407431Y-90268623D01*
X175407430Y-90268623D01*
X175407429Y-90268622D01*
X175202534Y-90131715D01*
X175028285Y-89957466D01*
X174891378Y-89752571D01*
X174797075Y-89524903D01*
X174752538Y-89301000D01*
X174749000Y-89283214D01*
X174749000Y-89036786D01*
X174797075Y-88795097D01*
X174891377Y-88567431D01*
X175028284Y-88362536D01*
X175028285Y-88362534D01*
X175202534Y-88188285D01*
X175407429Y-88051378D01*
X175635097Y-87957075D01*
X175876786Y-87909000D01*
X176123214Y-87909000D01*
X176364903Y-87957075D01*
G37*
G36*
X167338571Y-87702863D02*
G01*
X167417023Y-87710590D01*
X167517682Y-87741125D01*
X167568013Y-87756392D01*
X167707165Y-87830771D01*
X167829133Y-87930867D01*
X167929229Y-88052835D01*
X168003608Y-88191987D01*
X168003608Y-88191988D01*
X168049410Y-88342977D01*
X168064875Y-88500000D01*
X168049410Y-88657023D01*
X168018875Y-88757682D01*
X168003608Y-88808013D01*
X167929229Y-88947165D01*
X167829133Y-89069133D01*
X167707165Y-89169229D01*
X167568013Y-89243608D01*
X167517682Y-89258875D01*
X167417023Y-89289410D01*
X167338571Y-89297137D01*
X167299346Y-89301000D01*
X166700654Y-89301000D01*
X166661429Y-89297137D01*
X166582977Y-89289410D01*
X166482318Y-89258875D01*
X166431987Y-89243608D01*
X166292835Y-89169229D01*
X166170867Y-89069133D01*
X166070771Y-88947165D01*
X165996392Y-88808013D01*
X165981125Y-88757682D01*
X165950590Y-88657023D01*
X165935125Y-88500000D01*
X165950590Y-88342977D01*
X165996392Y-88191988D01*
X165996392Y-88191987D01*
X166070771Y-88052835D01*
X166170867Y-87930867D01*
X166292835Y-87830771D01*
X166431987Y-87756392D01*
X166482318Y-87741125D01*
X166582977Y-87710590D01*
X166661429Y-87702863D01*
X166700654Y-87699000D01*
X167299346Y-87699000D01*
X167338571Y-87702863D01*
G37*
G36*
X221338571Y-85202863D02*
G01*
X221417023Y-85210590D01*
X221496417Y-85234674D01*
X221568013Y-85256392D01*
X221707165Y-85330771D01*
X221829133Y-85430867D01*
X221929229Y-85552835D01*
X222003608Y-85691987D01*
X222007477Y-85704741D01*
X222049410Y-85842977D01*
X222064875Y-86000000D01*
X222049410Y-86157023D01*
X222045707Y-86169229D01*
X222003608Y-86308013D01*
X221929229Y-86447165D01*
X221829133Y-86569133D01*
X221707165Y-86669229D01*
X221568013Y-86743608D01*
X221517682Y-86758875D01*
X221417023Y-86789410D01*
X221338571Y-86797137D01*
X221299346Y-86801000D01*
X220700654Y-86801000D01*
X220661429Y-86797137D01*
X220582977Y-86789410D01*
X220482318Y-86758875D01*
X220431987Y-86743608D01*
X220292835Y-86669229D01*
X220170867Y-86569133D01*
X220070771Y-86447165D01*
X219996392Y-86308013D01*
X219954293Y-86169229D01*
X219950590Y-86157023D01*
X219935125Y-86000000D01*
X219950590Y-85842977D01*
X219992523Y-85704741D01*
X219996392Y-85691987D01*
X220070771Y-85552835D01*
X220170867Y-85430867D01*
X220292835Y-85330771D01*
X220431987Y-85256392D01*
X220503583Y-85234674D01*
X220582977Y-85210590D01*
X220661429Y-85202863D01*
X220700654Y-85199000D01*
X221299346Y-85199000D01*
X221338571Y-85202863D01*
G37*
G36*
X167338571Y-84702863D02*
G01*
X167417023Y-84710590D01*
X167517682Y-84741125D01*
X167568013Y-84756392D01*
X167707165Y-84830771D01*
X167829133Y-84930867D01*
X167929229Y-85052835D01*
X168003608Y-85191987D01*
X168003608Y-85191988D01*
X168049410Y-85342977D01*
X168064875Y-85500000D01*
X168049410Y-85657023D01*
X168038803Y-85691988D01*
X168003608Y-85808013D01*
X167929229Y-85947165D01*
X167829133Y-86069133D01*
X167707165Y-86169229D01*
X167568013Y-86243608D01*
X167517682Y-86258875D01*
X167417023Y-86289410D01*
X167338571Y-86297137D01*
X167299346Y-86301000D01*
X166700654Y-86301000D01*
X166661429Y-86297137D01*
X166582977Y-86289410D01*
X166482318Y-86258875D01*
X166431987Y-86243608D01*
X166292835Y-86169229D01*
X166170867Y-86069133D01*
X166070771Y-85947165D01*
X165996392Y-85808013D01*
X165961197Y-85691988D01*
X165950590Y-85657023D01*
X165935125Y-85500000D01*
X165950590Y-85342977D01*
X165996392Y-85191988D01*
X165996392Y-85191987D01*
X166070771Y-85052835D01*
X166170867Y-84930867D01*
X166292835Y-84830771D01*
X166431987Y-84756392D01*
X166482318Y-84741125D01*
X166582977Y-84710590D01*
X166661429Y-84702863D01*
X166700654Y-84699000D01*
X167299346Y-84699000D01*
X167338571Y-84702863D01*
G37*
G36*
X225622585Y-82978802D02*
G01*
X225772410Y-83008604D01*
X226054674Y-83125521D01*
X226308705Y-83295259D01*
X226524741Y-83511295D01*
X226694479Y-83765326D01*
X226811396Y-84047590D01*
X226871000Y-84347240D01*
X226871000Y-84652760D01*
X226811396Y-84952410D01*
X226694479Y-85234674D01*
X226524741Y-85488705D01*
X226308705Y-85704741D01*
X226054674Y-85874479D01*
X225772410Y-85991396D01*
X225622585Y-86021198D01*
X225472761Y-86051000D01*
X225167239Y-86051000D01*
X225017415Y-86021198D01*
X224867590Y-85991396D01*
X224585326Y-85874479D01*
X224331295Y-85704741D01*
X224115259Y-85488705D01*
X223945521Y-85234674D01*
X223828604Y-84952410D01*
X223769000Y-84652760D01*
X223769000Y-84347240D01*
X223828604Y-84047590D01*
X223945521Y-83765326D01*
X224115259Y-83511295D01*
X224331295Y-83295259D01*
X224585326Y-83125521D01*
X224867590Y-83008604D01*
X225017415Y-82978802D01*
X225167239Y-82949000D01*
X225472761Y-82949000D01*
X225622585Y-82978802D01*
G37*
G36*
X221913048Y-82203122D02*
G01*
X221947387Y-82213539D01*
X221979036Y-82230456D01*
X222006778Y-82253222D01*
X222029544Y-82280964D01*
X222046461Y-82312613D01*
X222056878Y-82346952D01*
X222061000Y-82388807D01*
X222061000Y-83611193D01*
X222056878Y-83653048D01*
X222046461Y-83687387D01*
X222029544Y-83719036D01*
X222006778Y-83746778D01*
X221979036Y-83769544D01*
X221947387Y-83786461D01*
X221913048Y-83796878D01*
X221871193Y-83801000D01*
X220128807Y-83801000D01*
X220086952Y-83796878D01*
X220052613Y-83786461D01*
X220020964Y-83769544D01*
X219993222Y-83746778D01*
X219970456Y-83719036D01*
X219953539Y-83687387D01*
X219943122Y-83653048D01*
X219939000Y-83611193D01*
X219939000Y-82388807D01*
X219943122Y-82346952D01*
X219953539Y-82312613D01*
X219970456Y-82280964D01*
X219993222Y-82253222D01*
X220020964Y-82230456D01*
X220052613Y-82213539D01*
X220086952Y-82203122D01*
X220128807Y-82199000D01*
X221871193Y-82199000D01*
X221913048Y-82203122D01*
G37*
G36*
X202923241Y-80604760D02*
G01*
X203187305Y-80714139D01*
X203424958Y-80872934D01*
X203627066Y-81075042D01*
X203785861Y-81312695D01*
X203895240Y-81576759D01*
X203951000Y-81857088D01*
X203951000Y-82142912D01*
X203895240Y-82423241D01*
X203785861Y-82687305D01*
X203627066Y-82924958D01*
X203424958Y-83127066D01*
X203187305Y-83285861D01*
X202923241Y-83395240D01*
X202642912Y-83451000D01*
X202357088Y-83451000D01*
X202076759Y-83395240D01*
X201812695Y-83285861D01*
X201575042Y-83127066D01*
X201372934Y-82924958D01*
X201214139Y-82687305D01*
X201104760Y-82423241D01*
X201049000Y-82142912D01*
X201049000Y-81857088D01*
X201104760Y-81576759D01*
X201214139Y-81312695D01*
X201372934Y-81075042D01*
X201575042Y-80872934D01*
X201812695Y-80714139D01*
X202076759Y-80604760D01*
X202357088Y-80549000D01*
X202642912Y-80549000D01*
X202923241Y-80604760D01*
G37*
G36*
X167338571Y-81702863D02*
G01*
X167417023Y-81710590D01*
X167517682Y-81741125D01*
X167568013Y-81756392D01*
X167707165Y-81830771D01*
X167829133Y-81930867D01*
X167929229Y-82052835D01*
X168003608Y-82191987D01*
X168011900Y-82219324D01*
X168049410Y-82342977D01*
X168064875Y-82500000D01*
X168049410Y-82657023D01*
X168018875Y-82757682D01*
X168003608Y-82808013D01*
X167929229Y-82947165D01*
X167829133Y-83069133D01*
X167707165Y-83169229D01*
X167568013Y-83243608D01*
X167517682Y-83258875D01*
X167417023Y-83289410D01*
X167338571Y-83297137D01*
X167299346Y-83301000D01*
X166700654Y-83301000D01*
X166661429Y-83297137D01*
X166582977Y-83289410D01*
X166482318Y-83258875D01*
X166431987Y-83243608D01*
X166292835Y-83169229D01*
X166170867Y-83069133D01*
X166070771Y-82947165D01*
X165996392Y-82808013D01*
X165981125Y-82757682D01*
X165950590Y-82657023D01*
X165935125Y-82500000D01*
X165950590Y-82342977D01*
X165988100Y-82219324D01*
X165996392Y-82191987D01*
X166070771Y-82052835D01*
X166170867Y-81930867D01*
X166292835Y-81830771D01*
X166431987Y-81756392D01*
X166482318Y-81741125D01*
X166582977Y-81710590D01*
X166661429Y-81702863D01*
X166700654Y-81699000D01*
X167299346Y-81699000D01*
X167338571Y-81702863D01*
G37*
G36*
X167913048Y-78703122D02*
G01*
X167947387Y-78713539D01*
X167979036Y-78730456D01*
X168006778Y-78753222D01*
X168029544Y-78780964D01*
X168046461Y-78812613D01*
X168056878Y-78846952D01*
X168061000Y-78888807D01*
X168061000Y-80111193D01*
X168056878Y-80153048D01*
X168046461Y-80187387D01*
X168029544Y-80219036D01*
X168006778Y-80246778D01*
X167979036Y-80269544D01*
X167947387Y-80286461D01*
X167913048Y-80296878D01*
X167871193Y-80301000D01*
X166128807Y-80301000D01*
X166086952Y-80296878D01*
X166052613Y-80286461D01*
X166020964Y-80269544D01*
X165993222Y-80246778D01*
X165970456Y-80219036D01*
X165953539Y-80187387D01*
X165943122Y-80153048D01*
X165939000Y-80111193D01*
X165939000Y-78888807D01*
X165943122Y-78846952D01*
X165953539Y-78812613D01*
X165970456Y-78780964D01*
X165993222Y-78753222D01*
X166020964Y-78730456D01*
X166052613Y-78713539D01*
X166086952Y-78703122D01*
X166128807Y-78699000D01*
X167871193Y-78699000D01*
X167913048Y-78703122D01*
G37*
G36*
X177251000Y-80251000D02*
G01*
X174749000Y-80251000D01*
X174749000Y-77749000D01*
X177251000Y-77749000D01*
X177251000Y-80251000D01*
G37*
G36*
X169160098Y-75840362D02*
G01*
X169284941Y-75892074D01*
X169284943Y-75892075D01*
X169397299Y-75967149D01*
X169492851Y-76062701D01*
X169567926Y-76175059D01*
X169619638Y-76299902D01*
X169646000Y-76432434D01*
X169646000Y-76567566D01*
X169619638Y-76700098D01*
X169567926Y-76824941D01*
X169567925Y-76824943D01*
X169492851Y-76937299D01*
X169397299Y-77032851D01*
X169284943Y-77107925D01*
X169284942Y-77107926D01*
X169284941Y-77107926D01*
X169160098Y-77159638D01*
X169027566Y-77186000D01*
X168892434Y-77186000D01*
X168759902Y-77159638D01*
X168635059Y-77107926D01*
X168635058Y-77107926D01*
X168635057Y-77107925D01*
X168522701Y-77032851D01*
X168427149Y-76937299D01*
X168352075Y-76824943D01*
X168352074Y-76824941D01*
X168300362Y-76700098D01*
X168274000Y-76567566D01*
X168274000Y-76432434D01*
X168300362Y-76299902D01*
X168352074Y-76175059D01*
X168427149Y-76062701D01*
X168522701Y-75967149D01*
X168635057Y-75892075D01*
X168635059Y-75892074D01*
X168759902Y-75840362D01*
X168892434Y-75814000D01*
X169027566Y-75814000D01*
X169160098Y-75840362D01*
G37*
G36*
X183423241Y-70604760D02*
G01*
X183687305Y-70714139D01*
X183924958Y-70872934D01*
X184127066Y-71075042D01*
X184285861Y-71312695D01*
X184395240Y-71576759D01*
X184451000Y-71857088D01*
X184451000Y-72142912D01*
X184395240Y-72423241D01*
X184285861Y-72687305D01*
X184127066Y-72924958D01*
X183924958Y-73127066D01*
X183687305Y-73285861D01*
X183423241Y-73395240D01*
X183142912Y-73451000D01*
X182857088Y-73451000D01*
X182576759Y-73395240D01*
X182312695Y-73285861D01*
X182075042Y-73127066D01*
X181872934Y-72924958D01*
X181714139Y-72687305D01*
X181604760Y-72423241D01*
X181549000Y-72142912D01*
X181549000Y-71857088D01*
X181604760Y-71576759D01*
X181714139Y-71312695D01*
X181872934Y-71075042D01*
X182075042Y-70872934D01*
X182312695Y-70714139D01*
X182576759Y-70604760D01*
X182857088Y-70549000D01*
X183142912Y-70549000D01*
X183423241Y-70604760D01*
G37*
G36*
X203423241Y-70604760D02*
G01*
X203687305Y-70714139D01*
X203924958Y-70872934D01*
X204127066Y-71075042D01*
X204285861Y-71312695D01*
X204395240Y-71576759D01*
X204451000Y-71857088D01*
X204451000Y-72142912D01*
X204395240Y-72423241D01*
X204285861Y-72687305D01*
X204127066Y-72924958D01*
X203924958Y-73127066D01*
X203687305Y-73285861D01*
X203423241Y-73395240D01*
X203142912Y-73451000D01*
X202857088Y-73451000D01*
X202576759Y-73395240D01*
X202312695Y-73285861D01*
X202075042Y-73127066D01*
X201872934Y-72924958D01*
X201714139Y-72687305D01*
X201604760Y-72423241D01*
X201549000Y-72142912D01*
X201549000Y-71857088D01*
X201604760Y-71576759D01*
X201714139Y-71312695D01*
X201872934Y-71075042D01*
X202075042Y-70872934D01*
X202312695Y-70714139D01*
X202576759Y-70604760D01*
X202857088Y-70549000D01*
X203142912Y-70549000D01*
X203423241Y-70604760D01*
G37*
G36*
X227302585Y-69478802D02*
G01*
X227452410Y-69508604D01*
X227734674Y-69625521D01*
X227988705Y-69795259D01*
X228204741Y-70011295D01*
X228374479Y-70265326D01*
X228491396Y-70547590D01*
X228551000Y-70847240D01*
X228551000Y-71152760D01*
X228491396Y-71452410D01*
X228374479Y-71734674D01*
X228204741Y-71988705D01*
X227988705Y-72204741D01*
X227734674Y-72374479D01*
X227452410Y-72491396D01*
X227302585Y-72521198D01*
X227152761Y-72551000D01*
X226847239Y-72551000D01*
X226697415Y-72521198D01*
X226547590Y-72491396D01*
X226265326Y-72374479D01*
X226011295Y-72204741D01*
X225795259Y-71988705D01*
X225625521Y-71734674D01*
X225508604Y-71452410D01*
X225449000Y-71152760D01*
X225449000Y-70847240D01*
X225508604Y-70547590D01*
X225625521Y-70265326D01*
X225795259Y-70011295D01*
X226011295Y-69795259D01*
X226265326Y-69625521D01*
X226547590Y-69508604D01*
X226697415Y-69478802D01*
X226847239Y-69449000D01*
X227152761Y-69449000D01*
X227302585Y-69478802D01*
G37*
G36*
X167302585Y-69478802D02*
G01*
X167452410Y-69508604D01*
X167734674Y-69625521D01*
X167988705Y-69795259D01*
X168204741Y-70011295D01*
X168374479Y-70265326D01*
X168491396Y-70547590D01*
X168551000Y-70847240D01*
X168551000Y-71152760D01*
X168491396Y-71452410D01*
X168374479Y-71734674D01*
X168204741Y-71988705D01*
X167988705Y-72204741D01*
X167734674Y-72374479D01*
X167452410Y-72491396D01*
X167302585Y-72521198D01*
X167152761Y-72551000D01*
X166847239Y-72551000D01*
X166697415Y-72521198D01*
X166547590Y-72491396D01*
X166265326Y-72374479D01*
X166011295Y-72204741D01*
X165795259Y-71988705D01*
X165625521Y-71734674D01*
X165508604Y-71452410D01*
X165449000Y-71152760D01*
X165449000Y-70847240D01*
X165508604Y-70547590D01*
X165625521Y-70265326D01*
X165795259Y-70011295D01*
X166011295Y-69795259D01*
X166265326Y-69625521D01*
X166547590Y-69508604D01*
X166697415Y-69478802D01*
X166847239Y-69449000D01*
X167152761Y-69449000D01*
X167302585Y-69478802D01*
G37*
M02*
