G04 #@! TF.GenerationSoftware,KiCad,Pcbnew,5.1.5-52549c5~84~ubuntu18.04.1*
G04 #@! TF.CreationDate,2020-02-01T01:55:07-06:00*
G04 #@! TF.ProjectId,ContactorDriver,436f6e74-6163-4746-9f72-447269766572,rev?*
G04 #@! TF.SameCoordinates,Original*
G04 #@! TF.FileFunction,Legend,Bot*
G04 #@! TF.FilePolarity,Positive*
%FSLAX46Y46*%
G04 Gerber Fmt 4.6, Leading zero omitted, Abs format (unit mm)*
G04 Created by KiCad (PCBNEW 5.1.5-52549c5~84~ubuntu18.04.1) date 2020-02-01 01:55:07*
%MOMM*%
%LPD*%
G04 APERTURE LIST*
%ADD10C,0.150000*%
%ADD11C,0.100000*%
%ADD12C,0.120000*%
%ADD13C,0.010000*%
G04 APERTURE END LIST*
D10*
X167809523Y-75202380D02*
X167809523Y-74202380D01*
X167476190Y-74916666D01*
X167142857Y-74202380D01*
X167142857Y-75202380D01*
X166761904Y-74202380D02*
X166142857Y-74202380D01*
X166476190Y-74583333D01*
X166333333Y-74583333D01*
X166238095Y-74630952D01*
X166190476Y-74678571D01*
X166142857Y-74773809D01*
X166142857Y-75011904D01*
X166190476Y-75107142D01*
X166238095Y-75154761D01*
X166333333Y-75202380D01*
X166619047Y-75202380D01*
X166714285Y-75154761D01*
X166761904Y-75107142D01*
D11*
G36*
X165000000Y-71500000D02*
G01*
X164500000Y-71500000D01*
X164750000Y-71000000D01*
X165000000Y-71500000D01*
G37*
X165000000Y-71500000D02*
X164500000Y-71500000D01*
X164750000Y-71000000D01*
X165000000Y-71500000D01*
D12*
X164500000Y-71000000D02*
X165000000Y-71000000D01*
X164750000Y-93500000D02*
X164750000Y-71500000D01*
X164750000Y-120500000D02*
X164750000Y-98500000D01*
D10*
X165547619Y-97571428D02*
X165547619Y-98047619D01*
X165071428Y-98095238D01*
X165119047Y-98047619D01*
X165166666Y-97952380D01*
X165166666Y-97714285D01*
X165119047Y-97619047D01*
X165071428Y-97571428D01*
X164976190Y-97523809D01*
X164738095Y-97523809D01*
X164642857Y-97571428D01*
X164595238Y-97619047D01*
X164547619Y-97714285D01*
X164547619Y-97952380D01*
X164595238Y-98047619D01*
X164642857Y-98095238D01*
X165547619Y-96904761D02*
X165547619Y-96809523D01*
X165500000Y-96714285D01*
X165452380Y-96666666D01*
X165357142Y-96619047D01*
X165166666Y-96571428D01*
X164928571Y-96571428D01*
X164738095Y-96619047D01*
X164642857Y-96666666D01*
X164595238Y-96714285D01*
X164547619Y-96809523D01*
X164547619Y-96904761D01*
X164595238Y-97000000D01*
X164642857Y-97047619D01*
X164738095Y-97095238D01*
X164928571Y-97142857D01*
X165166666Y-97142857D01*
X165357142Y-97095238D01*
X165452380Y-97047619D01*
X165500000Y-97000000D01*
X165547619Y-96904761D01*
X164547619Y-96142857D02*
X165214285Y-96142857D01*
X165119047Y-96142857D02*
X165166666Y-96095238D01*
X165214285Y-96000000D01*
X165214285Y-95857142D01*
X165166666Y-95761904D01*
X165071428Y-95714285D01*
X164547619Y-95714285D01*
X165071428Y-95714285D02*
X165166666Y-95666666D01*
X165214285Y-95571428D01*
X165214285Y-95428571D01*
X165166666Y-95333333D01*
X165071428Y-95285714D01*
X164547619Y-95285714D01*
X164547619Y-94809523D02*
X165214285Y-94809523D01*
X165119047Y-94809523D02*
X165166666Y-94761904D01*
X165214285Y-94666666D01*
X165214285Y-94523809D01*
X165166666Y-94428571D01*
X165071428Y-94380952D01*
X164547619Y-94380952D01*
X165071428Y-94380952D02*
X165166666Y-94333333D01*
X165214285Y-94238095D01*
X165214285Y-94095238D01*
X165166666Y-94000000D01*
X165071428Y-93952380D01*
X164547619Y-93952380D01*
D12*
X164750000Y-140500000D02*
X164750000Y-121500000D01*
X164750000Y-164500000D02*
X164750000Y-145500000D01*
D10*
X165214285Y-144619047D02*
X164547619Y-144619047D01*
X165595238Y-144857142D02*
X164880952Y-145095238D01*
X164880952Y-144476190D01*
X165214285Y-143666666D02*
X164547619Y-143666666D01*
X165595238Y-143904761D02*
X164880952Y-144142857D01*
X164880952Y-143523809D01*
X164547619Y-143142857D02*
X165214285Y-143142857D01*
X165119047Y-143142857D02*
X165166666Y-143095238D01*
X165214285Y-143000000D01*
X165214285Y-142857142D01*
X165166666Y-142761904D01*
X165071428Y-142714285D01*
X164547619Y-142714285D01*
X165071428Y-142714285D02*
X165166666Y-142666666D01*
X165214285Y-142571428D01*
X165214285Y-142428571D01*
X165166666Y-142333333D01*
X165071428Y-142285714D01*
X164547619Y-142285714D01*
X164547619Y-141809523D02*
X165214285Y-141809523D01*
X165119047Y-141809523D02*
X165166666Y-141761904D01*
X165214285Y-141666666D01*
X165214285Y-141523809D01*
X165166666Y-141428571D01*
X165071428Y-141380952D01*
X164547619Y-141380952D01*
X165071428Y-141380952D02*
X165166666Y-141333333D01*
X165214285Y-141238095D01*
X165214285Y-141095238D01*
X165166666Y-141000000D01*
X165071428Y-140952380D01*
X164547619Y-140952380D01*
D12*
X165000000Y-121000000D02*
X164500000Y-121000000D01*
D11*
G36*
X164750000Y-121000000D02*
G01*
X164500000Y-120500000D01*
X165000000Y-120500000D01*
X164750000Y-121000000D01*
G37*
X164750000Y-121000000D02*
X164500000Y-120500000D01*
X165000000Y-120500000D01*
X164750000Y-121000000D01*
G36*
X165000000Y-121500000D02*
G01*
X164500000Y-121500000D01*
X164750000Y-121000000D01*
X165000000Y-121500000D01*
G37*
X165000000Y-121500000D02*
X164500000Y-121500000D01*
X164750000Y-121000000D01*
X165000000Y-121500000D01*
G36*
X164750000Y-165000000D02*
G01*
X164500000Y-164500000D01*
X165000000Y-164500000D01*
X164750000Y-165000000D01*
G37*
X164750000Y-165000000D02*
X164500000Y-164500000D01*
X165000000Y-164500000D01*
X164750000Y-165000000D01*
D12*
X165000000Y-165000000D02*
X164500000Y-165000000D01*
D10*
X206000000Y-150452380D02*
X206000000Y-149452380D01*
X205761904Y-149452380D01*
X205619047Y-149500000D01*
X205523809Y-149595238D01*
X205476190Y-149690476D01*
X205428571Y-149880952D01*
X205428571Y-150023809D01*
X205476190Y-150214285D01*
X205523809Y-150309523D01*
X205619047Y-150404761D01*
X205761904Y-150452380D01*
X206000000Y-150452380D01*
X205000000Y-150452380D02*
X205000000Y-149785714D01*
X205000000Y-149976190D02*
X204952380Y-149880952D01*
X204904761Y-149833333D01*
X204809523Y-149785714D01*
X204714285Y-149785714D01*
X204380952Y-150357142D02*
X204333333Y-150404761D01*
X204380952Y-150452380D01*
X204428571Y-150404761D01*
X204380952Y-150357142D01*
X204380952Y-150452380D01*
X202619047Y-149500000D02*
X202714285Y-149452380D01*
X202857142Y-149452380D01*
X203000000Y-149500000D01*
X203095238Y-149595238D01*
X203142857Y-149690476D01*
X203190476Y-149880952D01*
X203190476Y-150023809D01*
X203142857Y-150214285D01*
X203095238Y-150309523D01*
X203000000Y-150404761D01*
X202857142Y-150452380D01*
X202761904Y-150452380D01*
X202619047Y-150404761D01*
X202571428Y-150357142D01*
X202571428Y-150023809D01*
X202761904Y-150023809D01*
X201714285Y-150452380D02*
X201714285Y-149928571D01*
X201761904Y-149833333D01*
X201857142Y-149785714D01*
X202047619Y-149785714D01*
X202142857Y-149833333D01*
X201714285Y-150404761D02*
X201809523Y-150452380D01*
X202047619Y-150452380D01*
X202142857Y-150404761D01*
X202190476Y-150309523D01*
X202190476Y-150214285D01*
X202142857Y-150119047D01*
X202047619Y-150071428D01*
X201809523Y-150071428D01*
X201714285Y-150023809D01*
X201238095Y-150452380D02*
X201238095Y-149785714D01*
X201238095Y-149976190D02*
X201190476Y-149880952D01*
X201142857Y-149833333D01*
X201047619Y-149785714D01*
X200952380Y-149785714D01*
X200714285Y-149785714D02*
X200476190Y-150452380D01*
X200238095Y-149785714D02*
X200476190Y-150452380D01*
X200571428Y-150690476D01*
X200619047Y-150738095D01*
X200714285Y-150785714D01*
X199095238Y-150452380D02*
X199095238Y-149452380D01*
X199095238Y-149928571D02*
X198523809Y-149928571D01*
X198523809Y-150452380D02*
X198523809Y-149452380D01*
X197619047Y-150452380D02*
X197619047Y-149928571D01*
X197666666Y-149833333D01*
X197761904Y-149785714D01*
X197952380Y-149785714D01*
X198047619Y-149833333D01*
X197619047Y-150404761D02*
X197714285Y-150452380D01*
X197952380Y-150452380D01*
X198047619Y-150404761D01*
X198095238Y-150309523D01*
X198095238Y-150214285D01*
X198047619Y-150119047D01*
X197952380Y-150071428D01*
X197714285Y-150071428D01*
X197619047Y-150023809D01*
X197000000Y-150452380D02*
X197095238Y-150404761D01*
X197142857Y-150309523D01*
X197142857Y-149452380D01*
X196476190Y-150452380D02*
X196571428Y-150404761D01*
X196619047Y-150309523D01*
X196619047Y-149452380D01*
X195952380Y-150452380D02*
X196047619Y-150404761D01*
X196095238Y-150357142D01*
X196142857Y-150261904D01*
X196142857Y-149976190D01*
X196095238Y-149880952D01*
X196047619Y-149833333D01*
X195952380Y-149785714D01*
X195809523Y-149785714D01*
X195714285Y-149833333D01*
X195666666Y-149880952D01*
X195619047Y-149976190D01*
X195619047Y-150261904D01*
X195666666Y-150357142D01*
X195714285Y-150404761D01*
X195809523Y-150452380D01*
X195952380Y-150452380D01*
X194761904Y-150404761D02*
X194857142Y-150452380D01*
X195047619Y-150452380D01*
X195142857Y-150404761D01*
X195190476Y-150357142D01*
X195238095Y-150261904D01*
X195238095Y-149976190D01*
X195190476Y-149880952D01*
X195142857Y-149833333D01*
X195047619Y-149785714D01*
X194857142Y-149785714D01*
X194761904Y-149833333D01*
X194333333Y-150452380D02*
X194333333Y-149452380D01*
X194238095Y-150071428D02*
X193952380Y-150452380D01*
X193952380Y-149785714D02*
X194333333Y-150166666D01*
D11*
G36*
X167500000Y-167500000D02*
G01*
X167000000Y-167250000D01*
X167500000Y-167000000D01*
X167500000Y-167500000D01*
G37*
X167500000Y-167500000D02*
X167000000Y-167250000D01*
X167500000Y-167000000D01*
X167500000Y-167500000D01*
D12*
X167000000Y-167000000D02*
X167000000Y-167500000D01*
D10*
X199119047Y-166452380D02*
X199309523Y-166452380D01*
X199404761Y-166500000D01*
X199452380Y-166547619D01*
X199547619Y-166690476D01*
X199595238Y-166880952D01*
X199595238Y-167261904D01*
X199547619Y-167357142D01*
X199500000Y-167404761D01*
X199404761Y-167452380D01*
X199214285Y-167452380D01*
X199119047Y-167404761D01*
X199071428Y-167357142D01*
X199023809Y-167261904D01*
X199023809Y-167023809D01*
X199071428Y-166928571D01*
X199119047Y-166880952D01*
X199214285Y-166833333D01*
X199404761Y-166833333D01*
X199500000Y-166880952D01*
X199547619Y-166928571D01*
X199595238Y-167023809D01*
X198404761Y-166452380D02*
X198309523Y-166452380D01*
X198214285Y-166500000D01*
X198166666Y-166547619D01*
X198119047Y-166642857D01*
X198071428Y-166833333D01*
X198071428Y-167071428D01*
X198119047Y-167261904D01*
X198166666Y-167357142D01*
X198214285Y-167404761D01*
X198309523Y-167452380D01*
X198404761Y-167452380D01*
X198500000Y-167404761D01*
X198547619Y-167357142D01*
X198595238Y-167261904D01*
X198642857Y-167071428D01*
X198642857Y-166833333D01*
X198595238Y-166642857D01*
X198547619Y-166547619D01*
X198500000Y-166500000D01*
X198404761Y-166452380D01*
X197642857Y-167452380D02*
X197642857Y-166785714D01*
X197642857Y-166880952D02*
X197595238Y-166833333D01*
X197500000Y-166785714D01*
X197357142Y-166785714D01*
X197261904Y-166833333D01*
X197214285Y-166928571D01*
X197214285Y-167452380D01*
X197214285Y-166928571D02*
X197166666Y-166833333D01*
X197071428Y-166785714D01*
X196928571Y-166785714D01*
X196833333Y-166833333D01*
X196785714Y-166928571D01*
X196785714Y-167452380D01*
X196309523Y-167452380D02*
X196309523Y-166785714D01*
X196309523Y-166880952D02*
X196261904Y-166833333D01*
X196166666Y-166785714D01*
X196023809Y-166785714D01*
X195928571Y-166833333D01*
X195880952Y-166928571D01*
X195880952Y-167452380D01*
X195880952Y-166928571D02*
X195833333Y-166833333D01*
X195738095Y-166785714D01*
X195595238Y-166785714D01*
X195500000Y-166833333D01*
X195452380Y-166928571D01*
X195452380Y-167452380D01*
D12*
X167000000Y-167250000D02*
X195000000Y-167250000D01*
X226500000Y-167250000D02*
X200000000Y-167250000D01*
D11*
G36*
X227000000Y-167250000D02*
G01*
X226500000Y-167500000D01*
X226500000Y-167000000D01*
X227000000Y-167250000D01*
G37*
X227000000Y-167250000D02*
X226500000Y-167500000D01*
X226500000Y-167000000D01*
X227000000Y-167250000D01*
D12*
X227000000Y-167500000D02*
X227000000Y-167000000D01*
D13*
G36*
X191885624Y-125481559D02*
G01*
X191775592Y-125756611D01*
X191723716Y-126185435D01*
X191718667Y-126417512D01*
X191734394Y-126765866D01*
X191779634Y-126958929D01*
X191851479Y-126992885D01*
X191947018Y-126863916D01*
X191988749Y-126771834D01*
X192040575Y-126555563D01*
X192069037Y-126252822D01*
X192070680Y-126052167D01*
X192068604Y-125776423D01*
X192092047Y-125629914D01*
X192153648Y-125573033D01*
X192226027Y-125565334D01*
X192367797Y-125524514D01*
X192384949Y-125439282D01*
X192290167Y-125374502D01*
X192056315Y-125355711D01*
X191885624Y-125481559D01*
G37*
X191885624Y-125481559D02*
X191775592Y-125756611D01*
X191723716Y-126185435D01*
X191718667Y-126417512D01*
X191734394Y-126765866D01*
X191779634Y-126958929D01*
X191851479Y-126992885D01*
X191947018Y-126863916D01*
X191988749Y-126771834D01*
X192040575Y-126555563D01*
X192069037Y-126252822D01*
X192070680Y-126052167D01*
X192068604Y-125776423D01*
X192092047Y-125629914D01*
X192153648Y-125573033D01*
X192226027Y-125565334D01*
X192367797Y-125524514D01*
X192384949Y-125439282D01*
X192290167Y-125374502D01*
X192056315Y-125355711D01*
X191885624Y-125481559D01*
G36*
X193009191Y-126800656D02*
G01*
X192845260Y-126916380D01*
X192704213Y-127046473D01*
X192650000Y-127134965D01*
X192652652Y-127161681D01*
X192690088Y-127157841D01*
X192806532Y-127110196D01*
X192967500Y-127039851D01*
X193156908Y-126929882D01*
X193241072Y-126826746D01*
X193202915Y-126760529D01*
X193131632Y-126750667D01*
X193009191Y-126800656D01*
G37*
X193009191Y-126800656D02*
X192845260Y-126916380D01*
X192704213Y-127046473D01*
X192650000Y-127134965D01*
X192652652Y-127161681D01*
X192690088Y-127157841D01*
X192806532Y-127110196D01*
X192967500Y-127039851D01*
X193156908Y-126929882D01*
X193241072Y-126826746D01*
X193202915Y-126760529D01*
X193131632Y-126750667D01*
X193009191Y-126800656D01*
G36*
X194209596Y-127060024D02*
G01*
X194197023Y-127110500D01*
X194185076Y-127326534D01*
X194197023Y-127406834D01*
X194231350Y-127510640D01*
X194274484Y-127457309D01*
X194296956Y-127406834D01*
X194320477Y-127204325D01*
X194296956Y-127110500D01*
X194242272Y-127006694D01*
X194209596Y-127060024D01*
G37*
X194209596Y-127060024D02*
X194197023Y-127110500D01*
X194185076Y-127326534D01*
X194197023Y-127406834D01*
X194231350Y-127510640D01*
X194274484Y-127457309D01*
X194296956Y-127406834D01*
X194320477Y-127204325D01*
X194296956Y-127110500D01*
X194242272Y-127006694D01*
X194209596Y-127060024D01*
G36*
X192365785Y-127223399D02*
G01*
X192248365Y-127343044D01*
X192226667Y-127437059D01*
X192238670Y-127568897D01*
X192294579Y-127571498D01*
X192424246Y-127443516D01*
X192438804Y-127427481D01*
X192543482Y-127271114D01*
X192515046Y-127197652D01*
X192365785Y-127223399D01*
G37*
X192365785Y-127223399D02*
X192248365Y-127343044D01*
X192226667Y-127437059D01*
X192238670Y-127568897D01*
X192294579Y-127571498D01*
X192424246Y-127443516D01*
X192438804Y-127427481D01*
X192543482Y-127271114D01*
X192515046Y-127197652D01*
X192365785Y-127223399D01*
G36*
X194258667Y-127809000D02*
G01*
X194301000Y-127851334D01*
X194343334Y-127809000D01*
X194301000Y-127766667D01*
X194258667Y-127809000D01*
G37*
X194258667Y-127809000D02*
X194301000Y-127851334D01*
X194343334Y-127809000D01*
X194301000Y-127766667D01*
X194258667Y-127809000D01*
G36*
X192762889Y-128133556D02*
G01*
X192774512Y-128183890D01*
X192819334Y-128190000D01*
X192889024Y-128159022D01*
X192875778Y-128133556D01*
X192775299Y-128123423D01*
X192762889Y-128133556D01*
G37*
X192762889Y-128133556D02*
X192774512Y-128183890D01*
X192819334Y-128190000D01*
X192889024Y-128159022D01*
X192875778Y-128133556D01*
X192775299Y-128123423D01*
X192762889Y-128133556D01*
G36*
X193112954Y-128448070D02*
G01*
X193093087Y-128567972D01*
X193111108Y-128605956D01*
X193218342Y-128676436D01*
X193368620Y-128695855D01*
X193480506Y-128660466D01*
X193496667Y-128623700D01*
X193438671Y-128513891D01*
X193366079Y-128441022D01*
X193224267Y-128392611D01*
X193112954Y-128448070D01*
G37*
X193112954Y-128448070D02*
X193093087Y-128567972D01*
X193111108Y-128605956D01*
X193218342Y-128676436D01*
X193368620Y-128695855D01*
X193480506Y-128660466D01*
X193496667Y-128623700D01*
X193438671Y-128513891D01*
X193366079Y-128441022D01*
X193224267Y-128392611D01*
X193112954Y-128448070D01*
G36*
X193656512Y-129798530D02*
G01*
X193632079Y-129807153D01*
X193436082Y-129899518D01*
X193332296Y-129990331D01*
X193327334Y-130008503D01*
X193379981Y-130158142D01*
X193505289Y-130355009D01*
X193654314Y-130528496D01*
X193729794Y-130589064D01*
X193856280Y-130720128D01*
X193927792Y-130843064D01*
X193987563Y-130971516D01*
X193992625Y-130942999D01*
X193972649Y-130835834D01*
X193964622Y-130688582D01*
X193991427Y-130645334D01*
X194037185Y-130573701D01*
X194070560Y-130352084D01*
X194091220Y-130018878D01*
X194053260Y-129821552D01*
X193911399Y-129749505D01*
X193656512Y-129798530D01*
G37*
X193656512Y-129798530D02*
X193632079Y-129807153D01*
X193436082Y-129899518D01*
X193332296Y-129990331D01*
X193327334Y-130008503D01*
X193379981Y-130158142D01*
X193505289Y-130355009D01*
X193654314Y-130528496D01*
X193729794Y-130589064D01*
X193856280Y-130720128D01*
X193927792Y-130843064D01*
X193987563Y-130971516D01*
X193992625Y-130942999D01*
X193972649Y-130835834D01*
X193964622Y-130688582D01*
X193991427Y-130645334D01*
X194037185Y-130573701D01*
X194070560Y-130352084D01*
X194091220Y-130018878D01*
X194053260Y-129821552D01*
X193911399Y-129749505D01*
X193656512Y-129798530D01*
G36*
X194682000Y-131280334D02*
G01*
X194724334Y-131322667D01*
X194766667Y-131280334D01*
X194724334Y-131238000D01*
X194682000Y-131280334D01*
G37*
X194682000Y-131280334D02*
X194724334Y-131322667D01*
X194766667Y-131280334D01*
X194724334Y-131238000D01*
X194682000Y-131280334D01*
G36*
X194029539Y-131148640D02*
G01*
X194018511Y-131297979D01*
X194014684Y-131428500D01*
X194024809Y-131662808D01*
X194061810Y-131807773D01*
X194089334Y-131830667D01*
X194156213Y-131761448D01*
X194163983Y-131682500D01*
X194136073Y-131493357D01*
X194089334Y-131280334D01*
X194050759Y-131147498D01*
X194029539Y-131148640D01*
G37*
X194029539Y-131148640D02*
X194018511Y-131297979D01*
X194014684Y-131428500D01*
X194024809Y-131662808D01*
X194061810Y-131807773D01*
X194089334Y-131830667D01*
X194156213Y-131761448D01*
X194163983Y-131682500D01*
X194136073Y-131493357D01*
X194089334Y-131280334D01*
X194050759Y-131147498D01*
X194029539Y-131148640D01*
G36*
X195233392Y-131944641D02*
G01*
X195251226Y-132038823D01*
X195274712Y-132084750D01*
X195408039Y-132223683D01*
X195560745Y-132246219D01*
X195652051Y-132175184D01*
X195636170Y-132071553D01*
X195492025Y-131980036D01*
X195335233Y-131939033D01*
X195233392Y-131944641D01*
G37*
X195233392Y-131944641D02*
X195251226Y-132038823D01*
X195274712Y-132084750D01*
X195408039Y-132223683D01*
X195560745Y-132246219D01*
X195652051Y-132175184D01*
X195636170Y-132071553D01*
X195492025Y-131980036D01*
X195335233Y-131939033D01*
X195233392Y-131944641D01*
G36*
X194010821Y-132003542D02*
G01*
X194072415Y-132134981D01*
X194128974Y-132216651D01*
X194224839Y-132309242D01*
X194255974Y-132269119D01*
X194202970Y-132121730D01*
X194131667Y-132030238D01*
X194030723Y-131958147D01*
X194010821Y-132003542D01*
G37*
X194010821Y-132003542D02*
X194072415Y-132134981D01*
X194128974Y-132216651D01*
X194224839Y-132309242D01*
X194255974Y-132269119D01*
X194202970Y-132121730D01*
X194131667Y-132030238D01*
X194030723Y-131958147D01*
X194010821Y-132003542D01*
G36*
X195822147Y-132934845D02*
G01*
X195832121Y-132961691D01*
X195908267Y-133065730D01*
X195998441Y-133109819D01*
X196036667Y-133068700D01*
X195980499Y-132995734D01*
X195907729Y-132929725D01*
X195815938Y-132867951D01*
X195822147Y-132934845D01*
G37*
X195822147Y-132934845D02*
X195832121Y-132961691D01*
X195908267Y-133065730D01*
X195998441Y-133109819D01*
X196036667Y-133068700D01*
X195980499Y-132995734D01*
X195907729Y-132929725D01*
X195815938Y-132867951D01*
X195822147Y-132934845D01*
G36*
X196064889Y-133213556D02*
G01*
X196076512Y-133263890D01*
X196121334Y-133270000D01*
X196191024Y-133239022D01*
X196177778Y-133213556D01*
X196077299Y-133203423D01*
X196064889Y-133213556D01*
G37*
X196064889Y-133213556D02*
X196076512Y-133263890D01*
X196121334Y-133270000D01*
X196191024Y-133239022D01*
X196177778Y-133213556D01*
X196077299Y-133203423D01*
X196064889Y-133213556D01*
G36*
X196036667Y-133989667D02*
G01*
X196079000Y-134032000D01*
X196121334Y-133989667D01*
X196079000Y-133947334D01*
X196036667Y-133989667D01*
G37*
X196036667Y-133989667D02*
X196079000Y-134032000D01*
X196121334Y-133989667D01*
X196079000Y-133947334D01*
X196036667Y-133989667D01*
G36*
X200428719Y-133481211D02*
G01*
X200305639Y-133577815D01*
X200179834Y-133743793D01*
X200087574Y-133919597D01*
X200065130Y-134045682D01*
X200074676Y-134062453D01*
X200165806Y-134110823D01*
X200289473Y-134069771D01*
X200485322Y-133924290D01*
X200523270Y-133892623D01*
X200686042Y-133740283D01*
X200728309Y-133640066D01*
X200671798Y-133550845D01*
X200516880Y-133474248D01*
X200428719Y-133481211D01*
G37*
X200428719Y-133481211D02*
X200305639Y-133577815D01*
X200179834Y-133743793D01*
X200087574Y-133919597D01*
X200065130Y-134045682D01*
X200074676Y-134062453D01*
X200165806Y-134110823D01*
X200289473Y-134069771D01*
X200485322Y-133924290D01*
X200523270Y-133892623D01*
X200686042Y-133740283D01*
X200728309Y-133640066D01*
X200671798Y-133550845D01*
X200516880Y-133474248D01*
X200428719Y-133481211D01*
G36*
X194682000Y-134243667D02*
G01*
X194724334Y-134286000D01*
X194766667Y-134243667D01*
X194724334Y-134201334D01*
X194682000Y-134243667D01*
G37*
X194682000Y-134243667D02*
X194724334Y-134286000D01*
X194766667Y-134243667D01*
X194724334Y-134201334D01*
X194682000Y-134243667D01*
G36*
X196714018Y-134695221D02*
G01*
X196714000Y-134696617D01*
X196781395Y-134798644D01*
X196939112Y-134919863D01*
X197120457Y-135016077D01*
X197240188Y-135045307D01*
X197269678Y-135003738D01*
X197179667Y-134912104D01*
X196937567Y-134743628D01*
X196774751Y-134667817D01*
X196714018Y-134695221D01*
G37*
X196714018Y-134695221D02*
X196714000Y-134696617D01*
X196781395Y-134798644D01*
X196939112Y-134919863D01*
X197120457Y-135016077D01*
X197240188Y-135045307D01*
X197269678Y-135003738D01*
X197179667Y-134912104D01*
X196937567Y-134743628D01*
X196774751Y-134667817D01*
X196714018Y-134695221D01*
G36*
X193441104Y-135777203D02*
G01*
X193454334Y-135810000D01*
X193530416Y-135890771D01*
X193543997Y-135894667D01*
X193580363Y-135829161D01*
X193581334Y-135810000D01*
X193516246Y-135728587D01*
X193491670Y-135725334D01*
X193441104Y-135777203D01*
G37*
X193441104Y-135777203D02*
X193454334Y-135810000D01*
X193530416Y-135890771D01*
X193543997Y-135894667D01*
X193580363Y-135829161D01*
X193581334Y-135810000D01*
X193516246Y-135728587D01*
X193491670Y-135725334D01*
X193441104Y-135777203D01*
G36*
X197899334Y-136614334D02*
G01*
X197941667Y-136656667D01*
X197984000Y-136614334D01*
X197941667Y-136572000D01*
X197899334Y-136614334D01*
G37*
X197899334Y-136614334D02*
X197941667Y-136656667D01*
X197984000Y-136614334D01*
X197941667Y-136572000D01*
X197899334Y-136614334D01*
G36*
X198068667Y-136699000D02*
G01*
X198111000Y-136741334D01*
X198153334Y-136699000D01*
X198111000Y-136656667D01*
X198068667Y-136699000D01*
G37*
X198068667Y-136699000D02*
X198111000Y-136741334D01*
X198153334Y-136699000D01*
X198111000Y-136656667D01*
X198068667Y-136699000D01*
G36*
X187108533Y-139316318D02*
G01*
X186950619Y-139372376D01*
X186892667Y-139452280D01*
X186963594Y-139519765D01*
X187062000Y-139535334D01*
X187199518Y-139496133D01*
X187231334Y-139441608D01*
X187294041Y-139387450D01*
X187379500Y-139404291D01*
X187474937Y-139427775D01*
X187430967Y-139363250D01*
X187428033Y-139360282D01*
X187292601Y-139308003D01*
X187108533Y-139316318D01*
G37*
X187108533Y-139316318D02*
X186950619Y-139372376D01*
X186892667Y-139452280D01*
X186963594Y-139519765D01*
X187062000Y-139535334D01*
X187199518Y-139496133D01*
X187231334Y-139441608D01*
X187294041Y-139387450D01*
X187379500Y-139404291D01*
X187474937Y-139427775D01*
X187430967Y-139363250D01*
X187428033Y-139360282D01*
X187292601Y-139308003D01*
X187108533Y-139316318D01*
G36*
X186642113Y-139596794D02*
G01*
X186638667Y-139620000D01*
X186667554Y-139702466D01*
X186676004Y-139704667D01*
X186748290Y-139645338D01*
X186765667Y-139620000D01*
X186758954Y-139541981D01*
X186728331Y-139535334D01*
X186642113Y-139596794D01*
G37*
X186642113Y-139596794D02*
X186638667Y-139620000D01*
X186667554Y-139702466D01*
X186676004Y-139704667D01*
X186748290Y-139645338D01*
X186765667Y-139620000D01*
X186758954Y-139541981D01*
X186728331Y-139535334D01*
X186642113Y-139596794D01*
G36*
X187604369Y-139576379D02*
G01*
X187612334Y-139620000D01*
X187720577Y-139701437D01*
X187744331Y-139704667D01*
X187821720Y-139640088D01*
X187824000Y-139620000D01*
X187755085Y-139545696D01*
X187692004Y-139535334D01*
X187604369Y-139576379D01*
G37*
X187604369Y-139576379D02*
X187612334Y-139620000D01*
X187720577Y-139701437D01*
X187744331Y-139704667D01*
X187821720Y-139640088D01*
X187824000Y-139620000D01*
X187755085Y-139545696D01*
X187692004Y-139535334D01*
X187604369Y-139576379D01*
G36*
X187146667Y-139645917D02*
G01*
X186971648Y-139727626D01*
X186893000Y-139795264D01*
X186892667Y-139798286D01*
X186966105Y-139848701D01*
X187143097Y-139891531D01*
X187146667Y-139892060D01*
X187326092Y-139900031D01*
X187393317Y-139829837D01*
X187400667Y-139739691D01*
X187385786Y-139615099D01*
X187308589Y-139593190D01*
X187146667Y-139645917D01*
G37*
X187146667Y-139645917D02*
X186971648Y-139727626D01*
X186893000Y-139795264D01*
X186892667Y-139798286D01*
X186966105Y-139848701D01*
X187143097Y-139891531D01*
X187146667Y-139892060D01*
X187326092Y-139900031D01*
X187393317Y-139829837D01*
X187400667Y-139739691D01*
X187385786Y-139615099D01*
X187308589Y-139593190D01*
X187146667Y-139645917D01*
G36*
X197885387Y-116497891D02*
G01*
X197440694Y-116545539D01*
X196981214Y-116624268D01*
X196556107Y-116728299D01*
X196437111Y-116765407D01*
X195689415Y-117087188D01*
X194963083Y-117536703D01*
X194318000Y-118076791D01*
X194308114Y-118086510D01*
X193975121Y-118440288D01*
X193689822Y-118791780D01*
X193473968Y-119110212D01*
X193349308Y-119364809D01*
X193327334Y-119474278D01*
X193271557Y-119590398D01*
X193120617Y-119795003D01*
X192899098Y-120056851D01*
X192690779Y-120283202D01*
X192359606Y-120654447D01*
X192101450Y-121009745D01*
X191910278Y-121374954D01*
X191780059Y-121775933D01*
X191704761Y-122238539D01*
X191678351Y-122788630D01*
X191694797Y-123452064D01*
X191748067Y-124254700D01*
X191752204Y-124306618D01*
X191817655Y-125122236D01*
X192155083Y-125126893D01*
X192366989Y-125151294D01*
X192568453Y-125234749D01*
X192809576Y-125402315D01*
X192973423Y-125536186D01*
X193324660Y-125833570D01*
X193569939Y-126048843D01*
X193733874Y-126207710D01*
X193841079Y-126335878D01*
X193916167Y-126459054D01*
X193974154Y-126581334D01*
X194062962Y-126764991D01*
X194119155Y-126809519D01*
X194174204Y-126732528D01*
X194189030Y-126701577D01*
X194319988Y-126533792D01*
X194514023Y-126382334D01*
X194699903Y-126232944D01*
X194809055Y-126073137D01*
X194809554Y-126071590D01*
X194926101Y-125940394D01*
X195118789Y-125906744D01*
X195321967Y-125975620D01*
X195386418Y-126027847D01*
X195475505Y-126178169D01*
X195568168Y-126427524D01*
X195614900Y-126599347D01*
X195817764Y-127253406D01*
X196090925Y-127758258D01*
X196444295Y-128122895D01*
X196887787Y-128356312D01*
X197431314Y-128467500D01*
X197687667Y-128479872D01*
X198251007Y-128467680D01*
X198682826Y-128411715D01*
X199017147Y-128303837D01*
X199287990Y-128135908D01*
X199351790Y-128081782D01*
X199537752Y-127886485D01*
X199752223Y-127618576D01*
X199968157Y-127317815D01*
X200158507Y-127023959D01*
X200296228Y-126776764D01*
X200354274Y-126615989D01*
X200354667Y-126607562D01*
X200409951Y-126416821D01*
X200541944Y-126224492D01*
X200699856Y-126094763D01*
X200777371Y-126073334D01*
X200903904Y-126097741D01*
X201007213Y-126189016D01*
X201102795Y-126374235D01*
X201206148Y-126680475D01*
X201286227Y-126962334D01*
X201388348Y-127310423D01*
X201491541Y-127620784D01*
X201576536Y-127836272D01*
X201590415Y-127864397D01*
X201702410Y-128211839D01*
X201668297Y-128513690D01*
X201509517Y-128748866D01*
X201247515Y-128896280D01*
X200903731Y-128934845D01*
X200569469Y-128868368D01*
X200311318Y-128811579D01*
X200053105Y-128833887D01*
X199883742Y-128878025D01*
X199667845Y-128960247D01*
X199547061Y-129042821D01*
X199536922Y-129076558D01*
X199581083Y-129129363D01*
X199689067Y-129150576D01*
X199897010Y-129142210D01*
X200185334Y-129112665D01*
X200481667Y-129079000D01*
X200473794Y-129446492D01*
X200475535Y-129674021D01*
X200513852Y-129774438D01*
X200618771Y-129789835D01*
X200710355Y-129778109D01*
X200899168Y-129773914D01*
X200998392Y-129812783D01*
X201110144Y-129872980D01*
X201197272Y-129883334D01*
X201352843Y-129944027D01*
X201401285Y-130010333D01*
X201514436Y-130122964D01*
X201579677Y-130137334D01*
X201695009Y-130185159D01*
X201692640Y-130302428D01*
X201584663Y-130449826D01*
X201452803Y-130549828D01*
X201339576Y-130608458D01*
X201205604Y-130648866D01*
X201021755Y-130673193D01*
X200758900Y-130683581D01*
X200387907Y-130682171D01*
X199879646Y-130671103D01*
X199822970Y-130669622D01*
X199346164Y-130658107D01*
X198919512Y-130649780D01*
X198575954Y-130645130D01*
X198348431Y-130644649D01*
X198280334Y-130646640D01*
X198050254Y-130663848D01*
X197952812Y-130670745D01*
X197806476Y-130753931D01*
X197675427Y-130940439D01*
X197592633Y-131165184D01*
X197591060Y-131363080D01*
X197595544Y-131376098D01*
X197657258Y-131474116D01*
X197723118Y-131418470D01*
X197848049Y-131296763D01*
X197993730Y-131205079D01*
X198169806Y-131148954D01*
X198348272Y-131192360D01*
X198449667Y-131244700D01*
X198639665Y-131324095D01*
X198910175Y-131405996D01*
X199212441Y-131479697D01*
X199497708Y-131534491D01*
X199717222Y-131559673D01*
X199821043Y-131545846D01*
X199831560Y-131449705D01*
X199745421Y-131364979D01*
X199632627Y-131354195D01*
X199497881Y-131344754D01*
X199395316Y-131251702D01*
X199370029Y-131134287D01*
X199417854Y-131072053D01*
X199606172Y-131017751D01*
X199880697Y-131001379D01*
X200162803Y-131022094D01*
X200373864Y-131079053D01*
X200380283Y-131082376D01*
X200600781Y-131163515D01*
X200752133Y-131193287D01*
X200976739Y-131260553D01*
X201086409Y-131372772D01*
X201076875Y-131487993D01*
X200943873Y-131564268D01*
X200790771Y-131573196D01*
X200437654Y-131563746D01*
X200214000Y-131587080D01*
X200136287Y-131640956D01*
X200143000Y-131661334D01*
X200122895Y-131733063D01*
X200058334Y-131746000D01*
X199966886Y-131785824D01*
X199973667Y-131830667D01*
X200087114Y-131889332D01*
X200288837Y-131914041D01*
X200296164Y-131914037D01*
X200464227Y-131901973D01*
X200480072Y-131861931D01*
X200439334Y-131830667D01*
X200372202Y-131768686D01*
X200456055Y-131748185D01*
X200500177Y-131747297D01*
X200635796Y-131777723D01*
X200637951Y-131891240D01*
X200636953Y-131894167D01*
X200613885Y-131984334D01*
X200663778Y-131940948D01*
X200712033Y-131880410D01*
X200861041Y-131774281D01*
X201003560Y-131786385D01*
X201080665Y-131901799D01*
X201079984Y-131973596D01*
X200998521Y-132092326D01*
X200875040Y-132100512D01*
X200723912Y-132125453D01*
X200693334Y-132206345D01*
X200621646Y-132315041D01*
X200509501Y-132338667D01*
X200302362Y-132394285D01*
X200168833Y-132480600D01*
X200025717Y-132570934D01*
X199915389Y-132525885D01*
X199912400Y-132522933D01*
X199737020Y-132423485D01*
X199571629Y-132437106D01*
X199467551Y-132541947D01*
X199473577Y-132709750D01*
X199582102Y-132824251D01*
X199800342Y-132962360D01*
X200075863Y-133098897D01*
X200356227Y-133208681D01*
X200588999Y-133266533D01*
X200640246Y-133270000D01*
X200992871Y-133323778D01*
X201232610Y-133469715D01*
X201343925Y-133684719D01*
X201311275Y-133945694D01*
X201212222Y-134120048D01*
X201092041Y-134299532D01*
X201032763Y-134421239D01*
X201031465Y-134430738D01*
X200964848Y-134513442D01*
X200802637Y-134627244D01*
X200777465Y-134641896D01*
X200605472Y-134717405D01*
X200525550Y-134705436D01*
X200524000Y-134695521D01*
X200457263Y-134639975D01*
X200361002Y-134647542D01*
X200242071Y-134649168D01*
X200241700Y-134551584D01*
X200220987Y-134524434D01*
X200119405Y-134610179D01*
X200039019Y-134698002D01*
X199847409Y-134885861D01*
X199653472Y-134968193D01*
X199417488Y-134985585D01*
X199131016Y-134977463D01*
X198881252Y-134954062D01*
X198830667Y-134945480D01*
X198588821Y-134869561D01*
X198327353Y-134747539D01*
X198094310Y-134607325D01*
X197937739Y-134476829D01*
X197899334Y-134404452D01*
X197828669Y-134308892D01*
X197727343Y-134286000D01*
X197564538Y-134230829D01*
X197506618Y-134159000D01*
X197381449Y-134062779D01*
X197133272Y-134032000D01*
X196908443Y-134008554D01*
X196762867Y-133950551D01*
X196748249Y-133934252D01*
X196738270Y-133876315D01*
X196785585Y-133896915D01*
X196872590Y-133900318D01*
X196883334Y-133865006D01*
X196814568Y-133761787D01*
X196735167Y-133718019D01*
X196576656Y-133625373D01*
X196527026Y-133573217D01*
X196435745Y-133532675D01*
X196369559Y-133580575D01*
X196349180Y-133664450D01*
X196424613Y-133803216D01*
X196609810Y-134018493D01*
X196737865Y-134151367D01*
X196974701Y-134376170D01*
X197180321Y-134543142D01*
X197316782Y-134622094D01*
X197332777Y-134624667D01*
X197464070Y-134671028D01*
X197490112Y-134708052D01*
X197582065Y-134766239D01*
X197792547Y-134833287D01*
X198026334Y-134884866D01*
X198329033Y-134946503D01*
X198583929Y-135008803D01*
X198703667Y-135046525D01*
X199183846Y-135225293D01*
X199576278Y-135341452D01*
X199851540Y-135386404D01*
X199867792Y-135386667D01*
X200084397Y-135419996D01*
X200328061Y-135503202D01*
X200543486Y-135611116D01*
X200675374Y-135718568D01*
X200692776Y-135762181D01*
X200649104Y-135889387D01*
X200543586Y-136077560D01*
X200532409Y-136094732D01*
X200441507Y-136302513D01*
X200382512Y-136572251D01*
X200357272Y-136856968D01*
X200367637Y-137109685D01*
X200415458Y-137283422D01*
X200483617Y-137334000D01*
X200584639Y-137361455D01*
X200594071Y-137463751D01*
X200511492Y-137670783D01*
X200477901Y-137739444D01*
X200397410Y-137945039D01*
X200412959Y-138095291D01*
X200455934Y-138175785D01*
X200583790Y-138327718D01*
X200688999Y-138320957D01*
X200741254Y-138256294D01*
X200817687Y-138217651D01*
X200871954Y-138277461D01*
X200926577Y-138318682D01*
X200946904Y-138202545D01*
X200947334Y-138180667D01*
X200961208Y-138044350D01*
X201008248Y-138060619D01*
X201033297Y-138096000D01*
X201113226Y-138180376D01*
X201191330Y-138114695D01*
X201204475Y-138096000D01*
X201252082Y-138068108D01*
X201256777Y-138167666D01*
X201225233Y-138360216D01*
X201164121Y-138611296D01*
X201080114Y-138886447D01*
X201018514Y-139056443D01*
X200906052Y-139306820D01*
X200787625Y-139512697D01*
X200685094Y-139643787D01*
X200620321Y-139669805D01*
X200618411Y-139662334D01*
X200439334Y-139662334D01*
X200397000Y-139704667D01*
X200354667Y-139662334D01*
X200397000Y-139620000D01*
X200439334Y-139662334D01*
X200618411Y-139662334D01*
X200608667Y-139624233D01*
X200539433Y-139527331D01*
X200376995Y-139427685D01*
X200158169Y-139306971D01*
X200010507Y-139196667D01*
X199725124Y-138942597D01*
X199495265Y-138766834D01*
X199348770Y-138690305D01*
X199334650Y-138688667D01*
X199174346Y-138643027D01*
X198930860Y-138525561D01*
X198656917Y-138365449D01*
X198405244Y-138191874D01*
X198333973Y-138134854D01*
X198143663Y-137985455D01*
X198059065Y-137942053D01*
X198068738Y-137988379D01*
X198161239Y-138108167D01*
X198325125Y-138285149D01*
X198548955Y-138503056D01*
X198671804Y-138615159D01*
X198978277Y-138889347D01*
X199276170Y-139156227D01*
X199516058Y-139371505D01*
X199581971Y-139430789D01*
X199818511Y-139621606D01*
X200049995Y-139774299D01*
X200121834Y-139811290D01*
X200286433Y-139901250D01*
X200354667Y-139971052D01*
X200425629Y-140033983D01*
X200598057Y-140111509D01*
X200614044Y-140117188D01*
X200789372Y-140164828D01*
X200889664Y-140123702D01*
X200976012Y-139961635D01*
X200995044Y-139916523D01*
X201075974Y-139693408D01*
X201115806Y-139525881D01*
X201116667Y-139510113D01*
X201152415Y-139389052D01*
X201248757Y-139155239D01*
X201389344Y-138846763D01*
X201498471Y-138620680D01*
X201670702Y-138265940D01*
X201778870Y-138012555D01*
X201834751Y-137810479D01*
X201850117Y-137609665D01*
X201836745Y-137360066D01*
X201825551Y-137230453D01*
X201788364Y-136905302D01*
X201742379Y-136633408D01*
X201697226Y-136471140D01*
X201695043Y-136466681D01*
X201664774Y-136295634D01*
X201669569Y-136011718D01*
X201702643Y-135666142D01*
X201757210Y-135310117D01*
X201826484Y-134994853D01*
X201903679Y-134771560D01*
X201924601Y-134734289D01*
X202047732Y-134534496D01*
X202199578Y-134272953D01*
X202253463Y-134176683D01*
X202673742Y-133409824D01*
X203016008Y-132767760D01*
X203289057Y-132229895D01*
X203501682Y-131775634D01*
X203662678Y-131384383D01*
X203780842Y-131035546D01*
X203864966Y-130708527D01*
X203923847Y-130382733D01*
X203946909Y-130211070D01*
X204019784Y-129851645D01*
X204144495Y-129611929D01*
X204205483Y-129546093D01*
X204346926Y-129348590D01*
X204468626Y-129071383D01*
X204503359Y-128951893D01*
X204582827Y-128696065D01*
X204609959Y-128655667D01*
X203572000Y-128655667D01*
X203529667Y-128698000D01*
X203487334Y-128655667D01*
X203529667Y-128613334D01*
X203572000Y-128655667D01*
X204609959Y-128655667D01*
X204702071Y-128518522D01*
X204909958Y-128355443D01*
X205007822Y-128293003D01*
X205215617Y-128152076D01*
X205363733Y-128007828D01*
X205484888Y-127814553D01*
X205611801Y-127526544D01*
X205678799Y-127355697D01*
X205798846Y-127031509D01*
X205890318Y-126759939D01*
X205938640Y-126585241D01*
X205942667Y-126554435D01*
X205989564Y-126422147D01*
X206109151Y-126214785D01*
X206196667Y-126086770D01*
X206399446Y-125714663D01*
X206450667Y-125440680D01*
X206449739Y-125431278D01*
X195098650Y-125431278D01*
X195083083Y-125541092D01*
X195054181Y-125542403D01*
X195035620Y-125438334D01*
X194089334Y-125438334D01*
X194047000Y-125480667D01*
X194004667Y-125438334D01*
X194047000Y-125396000D01*
X194089334Y-125438334D01*
X195035620Y-125438334D01*
X195033970Y-125429086D01*
X195047497Y-125380125D01*
X195085092Y-125348055D01*
X195098650Y-125431278D01*
X206449739Y-125431278D01*
X206430154Y-125232962D01*
X206341680Y-125131829D01*
X206217834Y-125092098D01*
X205767918Y-124986039D01*
X205461227Y-124903759D01*
X205274739Y-124836845D01*
X205185434Y-124776887D01*
X205170291Y-124715470D01*
X205171713Y-124709817D01*
X205213024Y-124565517D01*
X205283002Y-124322760D01*
X205334773Y-124143715D01*
X205387011Y-123928458D01*
X203567000Y-123928458D01*
X203540590Y-124057375D01*
X203464420Y-124161009D01*
X203131405Y-124381815D01*
X202740062Y-124464622D01*
X202730900Y-124464667D01*
X202550095Y-124483476D01*
X202471443Y-124528924D01*
X202471334Y-124530849D01*
X202397815Y-124591521D01*
X202211217Y-124670401D01*
X202090334Y-124709528D01*
X201865988Y-124789111D01*
X201729076Y-124863397D01*
X201709334Y-124891137D01*
X201663706Y-124957485D01*
X201513104Y-125003253D01*
X201236949Y-125031820D01*
X200814665Y-125046565D01*
X200756834Y-125047512D01*
X200395872Y-125041700D01*
X200171882Y-125012893D01*
X200100667Y-124966961D01*
X200034967Y-124914947D01*
X199935341Y-124929062D01*
X199812542Y-124939157D01*
X199799389Y-124829926D01*
X199802375Y-124813503D01*
X199795769Y-124708390D01*
X199702721Y-124634834D01*
X199487694Y-124569671D01*
X199396201Y-124548763D01*
X199017526Y-124475482D01*
X198572935Y-124404773D01*
X198119864Y-124344276D01*
X197715749Y-124301635D01*
X197418026Y-124284491D01*
X197409616Y-124284445D01*
X197121481Y-124350189D01*
X196986283Y-124459098D01*
X196820193Y-124581843D01*
X196530065Y-124689067D01*
X196099928Y-124785478D01*
X195621815Y-124861120D01*
X195396221Y-124884319D01*
X195306163Y-124865158D01*
X195321646Y-124796958D01*
X195323101Y-124794608D01*
X195398755Y-124621998D01*
X195460864Y-124392368D01*
X195502795Y-124152376D01*
X195517915Y-123948681D01*
X195499590Y-123827940D01*
X195461853Y-123818634D01*
X195415123Y-123798188D01*
X195422414Y-123679833D01*
X195472289Y-123521830D01*
X195545591Y-123392001D01*
X195558608Y-123275512D01*
X195496468Y-123222346D01*
X195453556Y-123172866D01*
X195420116Y-123064935D01*
X195394538Y-122878423D01*
X195375212Y-122593199D01*
X195360529Y-122189133D01*
X195348880Y-121646096D01*
X195343606Y-121310423D01*
X195337687Y-120772262D01*
X195335999Y-120295673D01*
X195338335Y-119905045D01*
X195344486Y-119624766D01*
X195354245Y-119479223D01*
X195359334Y-119464144D01*
X195461559Y-119453566D01*
X195673290Y-119432373D01*
X195805101Y-119419322D01*
X196100358Y-119376886D01*
X196361190Y-119317756D01*
X196430677Y-119295054D01*
X196614096Y-119250681D01*
X196709939Y-119271889D01*
X196685806Y-119343337D01*
X196626882Y-119387974D01*
X196563268Y-119447719D01*
X196652023Y-119467385D01*
X196687837Y-119468037D01*
X196858683Y-119503730D01*
X196925667Y-119554000D01*
X196905562Y-119625729D01*
X196841000Y-119638667D01*
X196751205Y-119680891D01*
X196759901Y-119729106D01*
X196875453Y-119784406D01*
X196936152Y-119773359D01*
X197078225Y-119793615D01*
X197225442Y-119896108D01*
X197432692Y-120044242D01*
X197755493Y-120181845D01*
X198211989Y-120315283D01*
X198788334Y-120444459D01*
X199388254Y-120578769D01*
X199832409Y-120707679D01*
X200134089Y-120835462D01*
X200255614Y-120916166D01*
X200400050Y-121011736D01*
X200646258Y-121151263D01*
X200943128Y-121305899D01*
X200968171Y-121318374D01*
X201306955Y-121505847D01*
X201569638Y-121708991D01*
X201818433Y-121980831D01*
X201961544Y-122165040D01*
X202178330Y-122463788D01*
X202368630Y-122744124D01*
X202497221Y-122953772D01*
X202512627Y-122983000D01*
X202680134Y-123280118D01*
X202836210Y-123448757D01*
X203021127Y-123521685D01*
X203189042Y-123533334D01*
X203394790Y-123545219D01*
X203471739Y-123597296D01*
X203462802Y-123702667D01*
X203458053Y-123837675D01*
X203495260Y-123872000D01*
X203567000Y-123928458D01*
X205387011Y-123928458D01*
X205388605Y-123921892D01*
X205418713Y-123686585D01*
X205426333Y-123397975D01*
X205412706Y-123016246D01*
X205383814Y-122567371D01*
X205349222Y-122107130D01*
X205315751Y-121775731D01*
X205273508Y-121533040D01*
X205212601Y-121338925D01*
X205123136Y-121153251D01*
X204995221Y-120935886D01*
X204972466Y-120898656D01*
X204318312Y-119935000D01*
X197560667Y-119935000D01*
X197518334Y-119977334D01*
X197476000Y-119935000D01*
X197518334Y-119892667D01*
X197560667Y-119935000D01*
X204318312Y-119935000D01*
X204243947Y-119825451D01*
X203900626Y-119408936D01*
X199409686Y-119408936D01*
X199389085Y-119456252D01*
X199303835Y-119547145D01*
X199254825Y-119528500D01*
X199254000Y-119516664D01*
X199314137Y-119445051D01*
X199351749Y-119418915D01*
X199409686Y-119408936D01*
X203900626Y-119408936D01*
X203720297Y-119190163D01*
X199455137Y-119190163D01*
X199338667Y-119201965D01*
X199218472Y-119188660D01*
X199232834Y-119159260D01*
X199406176Y-119148078D01*
X199444500Y-119159260D01*
X199455137Y-119190163D01*
X203720297Y-119190163D01*
X203554941Y-118989556D01*
X200411112Y-118989556D01*
X200399489Y-119039890D01*
X200354667Y-119046000D01*
X200284977Y-119015022D01*
X200298223Y-118989556D01*
X200398702Y-118979423D01*
X200411112Y-118989556D01*
X203554941Y-118989556D01*
X203498083Y-118920576D01*
X200049143Y-118920576D01*
X200027875Y-118942278D01*
X199853153Y-118952130D01*
X199825500Y-118952894D01*
X199621542Y-118938408D01*
X199513289Y-118891911D01*
X199508000Y-118876667D01*
X199560668Y-118808889D01*
X199731084Y-118820720D01*
X199931334Y-118876667D01*
X200049143Y-118920576D01*
X203498083Y-118920576D01*
X203446975Y-118858574D01*
X200706486Y-118858574D01*
X200596678Y-118849536D01*
X200402056Y-118796791D01*
X200270000Y-118749667D01*
X200106220Y-118674213D01*
X200102383Y-118636669D01*
X200143000Y-118632927D01*
X200339507Y-118665859D01*
X200566334Y-118746609D01*
X200705149Y-118824174D01*
X200706486Y-118858574D01*
X203446975Y-118858574D01*
X203433443Y-118842158D01*
X203162157Y-118554026D01*
X202889167Y-118283623D01*
X202756254Y-118168652D01*
X200141085Y-118168652D01*
X200100667Y-118199334D01*
X200007259Y-118255658D01*
X199922329Y-118272760D01*
X199792628Y-118246562D01*
X199564909Y-118172982D01*
X199508000Y-118153922D01*
X199304410Y-118082580D01*
X199255612Y-118054012D01*
X199354348Y-118061864D01*
X199412750Y-118070540D01*
X199704774Y-118103102D01*
X199963084Y-118115963D01*
X200128172Y-118128111D01*
X200141085Y-118168652D01*
X202756254Y-118168652D01*
X202646314Y-118073554D01*
X202390184Y-117894438D01*
X202355820Y-117874934D01*
X200846209Y-117874934D01*
X200823604Y-117916155D01*
X200735667Y-117953926D01*
X200515067Y-117990948D01*
X200397000Y-117977981D01*
X200205286Y-117929089D01*
X199946209Y-117864242D01*
X199889000Y-117850061D01*
X199655427Y-117778553D01*
X199492926Y-117704192D01*
X199469900Y-117686478D01*
X199411563Y-117659611D01*
X198503750Y-117659611D01*
X198391293Y-117674269D01*
X198365000Y-117674828D01*
X198220405Y-117665676D01*
X198207674Y-117639172D01*
X198215222Y-117635798D01*
X198383302Y-117619049D01*
X198469222Y-117632660D01*
X198503750Y-117659611D01*
X199411563Y-117659611D01*
X199329122Y-117621643D01*
X199173567Y-117597600D01*
X199088801Y-117581420D01*
X199166614Y-117545497D01*
X199320985Y-117507261D01*
X199628387Y-117469126D01*
X199916118Y-117519103D01*
X200055312Y-117567680D01*
X200297351Y-117639397D01*
X200482480Y-117657683D01*
X200530576Y-117644936D01*
X200595581Y-117628652D01*
X200578186Y-117672156D01*
X200601727Y-117763512D01*
X200713271Y-117824765D01*
X200846209Y-117874934D01*
X202355820Y-117874934D01*
X202077361Y-117716893D01*
X201664430Y-117511535D01*
X201520238Y-117442812D01*
X200872517Y-117151789D01*
X200845414Y-117141000D01*
X198238000Y-117141000D01*
X198195667Y-117183334D01*
X198153334Y-117141000D01*
X198195667Y-117098667D01*
X198238000Y-117141000D01*
X200845414Y-117141000D01*
X200270967Y-116912330D01*
X199741289Y-116733223D01*
X199309184Y-116623260D01*
X199028631Y-116590667D01*
X198760241Y-116566094D01*
X198533775Y-116518952D01*
X198266133Y-116487103D01*
X197885387Y-116497891D01*
G37*
X197885387Y-116497891D02*
X197440694Y-116545539D01*
X196981214Y-116624268D01*
X196556107Y-116728299D01*
X196437111Y-116765407D01*
X195689415Y-117087188D01*
X194963083Y-117536703D01*
X194318000Y-118076791D01*
X194308114Y-118086510D01*
X193975121Y-118440288D01*
X193689822Y-118791780D01*
X193473968Y-119110212D01*
X193349308Y-119364809D01*
X193327334Y-119474278D01*
X193271557Y-119590398D01*
X193120617Y-119795003D01*
X192899098Y-120056851D01*
X192690779Y-120283202D01*
X192359606Y-120654447D01*
X192101450Y-121009745D01*
X191910278Y-121374954D01*
X191780059Y-121775933D01*
X191704761Y-122238539D01*
X191678351Y-122788630D01*
X191694797Y-123452064D01*
X191748067Y-124254700D01*
X191752204Y-124306618D01*
X191817655Y-125122236D01*
X192155083Y-125126893D01*
X192366989Y-125151294D01*
X192568453Y-125234749D01*
X192809576Y-125402315D01*
X192973423Y-125536186D01*
X193324660Y-125833570D01*
X193569939Y-126048843D01*
X193733874Y-126207710D01*
X193841079Y-126335878D01*
X193916167Y-126459054D01*
X193974154Y-126581334D01*
X194062962Y-126764991D01*
X194119155Y-126809519D01*
X194174204Y-126732528D01*
X194189030Y-126701577D01*
X194319988Y-126533792D01*
X194514023Y-126382334D01*
X194699903Y-126232944D01*
X194809055Y-126073137D01*
X194809554Y-126071590D01*
X194926101Y-125940394D01*
X195118789Y-125906744D01*
X195321967Y-125975620D01*
X195386418Y-126027847D01*
X195475505Y-126178169D01*
X195568168Y-126427524D01*
X195614900Y-126599347D01*
X195817764Y-127253406D01*
X196090925Y-127758258D01*
X196444295Y-128122895D01*
X196887787Y-128356312D01*
X197431314Y-128467500D01*
X197687667Y-128479872D01*
X198251007Y-128467680D01*
X198682826Y-128411715D01*
X199017147Y-128303837D01*
X199287990Y-128135908D01*
X199351790Y-128081782D01*
X199537752Y-127886485D01*
X199752223Y-127618576D01*
X199968157Y-127317815D01*
X200158507Y-127023959D01*
X200296228Y-126776764D01*
X200354274Y-126615989D01*
X200354667Y-126607562D01*
X200409951Y-126416821D01*
X200541944Y-126224492D01*
X200699856Y-126094763D01*
X200777371Y-126073334D01*
X200903904Y-126097741D01*
X201007213Y-126189016D01*
X201102795Y-126374235D01*
X201206148Y-126680475D01*
X201286227Y-126962334D01*
X201388348Y-127310423D01*
X201491541Y-127620784D01*
X201576536Y-127836272D01*
X201590415Y-127864397D01*
X201702410Y-128211839D01*
X201668297Y-128513690D01*
X201509517Y-128748866D01*
X201247515Y-128896280D01*
X200903731Y-128934845D01*
X200569469Y-128868368D01*
X200311318Y-128811579D01*
X200053105Y-128833887D01*
X199883742Y-128878025D01*
X199667845Y-128960247D01*
X199547061Y-129042821D01*
X199536922Y-129076558D01*
X199581083Y-129129363D01*
X199689067Y-129150576D01*
X199897010Y-129142210D01*
X200185334Y-129112665D01*
X200481667Y-129079000D01*
X200473794Y-129446492D01*
X200475535Y-129674021D01*
X200513852Y-129774438D01*
X200618771Y-129789835D01*
X200710355Y-129778109D01*
X200899168Y-129773914D01*
X200998392Y-129812783D01*
X201110144Y-129872980D01*
X201197272Y-129883334D01*
X201352843Y-129944027D01*
X201401285Y-130010333D01*
X201514436Y-130122964D01*
X201579677Y-130137334D01*
X201695009Y-130185159D01*
X201692640Y-130302428D01*
X201584663Y-130449826D01*
X201452803Y-130549828D01*
X201339576Y-130608458D01*
X201205604Y-130648866D01*
X201021755Y-130673193D01*
X200758900Y-130683581D01*
X200387907Y-130682171D01*
X199879646Y-130671103D01*
X199822970Y-130669622D01*
X199346164Y-130658107D01*
X198919512Y-130649780D01*
X198575954Y-130645130D01*
X198348431Y-130644649D01*
X198280334Y-130646640D01*
X198050254Y-130663848D01*
X197952812Y-130670745D01*
X197806476Y-130753931D01*
X197675427Y-130940439D01*
X197592633Y-131165184D01*
X197591060Y-131363080D01*
X197595544Y-131376098D01*
X197657258Y-131474116D01*
X197723118Y-131418470D01*
X197848049Y-131296763D01*
X197993730Y-131205079D01*
X198169806Y-131148954D01*
X198348272Y-131192360D01*
X198449667Y-131244700D01*
X198639665Y-131324095D01*
X198910175Y-131405996D01*
X199212441Y-131479697D01*
X199497708Y-131534491D01*
X199717222Y-131559673D01*
X199821043Y-131545846D01*
X199831560Y-131449705D01*
X199745421Y-131364979D01*
X199632627Y-131354195D01*
X199497881Y-131344754D01*
X199395316Y-131251702D01*
X199370029Y-131134287D01*
X199417854Y-131072053D01*
X199606172Y-131017751D01*
X199880697Y-131001379D01*
X200162803Y-131022094D01*
X200373864Y-131079053D01*
X200380283Y-131082376D01*
X200600781Y-131163515D01*
X200752133Y-131193287D01*
X200976739Y-131260553D01*
X201086409Y-131372772D01*
X201076875Y-131487993D01*
X200943873Y-131564268D01*
X200790771Y-131573196D01*
X200437654Y-131563746D01*
X200214000Y-131587080D01*
X200136287Y-131640956D01*
X200143000Y-131661334D01*
X200122895Y-131733063D01*
X200058334Y-131746000D01*
X199966886Y-131785824D01*
X199973667Y-131830667D01*
X200087114Y-131889332D01*
X200288837Y-131914041D01*
X200296164Y-131914037D01*
X200464227Y-131901973D01*
X200480072Y-131861931D01*
X200439334Y-131830667D01*
X200372202Y-131768686D01*
X200456055Y-131748185D01*
X200500177Y-131747297D01*
X200635796Y-131777723D01*
X200637951Y-131891240D01*
X200636953Y-131894167D01*
X200613885Y-131984334D01*
X200663778Y-131940948D01*
X200712033Y-131880410D01*
X200861041Y-131774281D01*
X201003560Y-131786385D01*
X201080665Y-131901799D01*
X201079984Y-131973596D01*
X200998521Y-132092326D01*
X200875040Y-132100512D01*
X200723912Y-132125453D01*
X200693334Y-132206345D01*
X200621646Y-132315041D01*
X200509501Y-132338667D01*
X200302362Y-132394285D01*
X200168833Y-132480600D01*
X200025717Y-132570934D01*
X199915389Y-132525885D01*
X199912400Y-132522933D01*
X199737020Y-132423485D01*
X199571629Y-132437106D01*
X199467551Y-132541947D01*
X199473577Y-132709750D01*
X199582102Y-132824251D01*
X199800342Y-132962360D01*
X200075863Y-133098897D01*
X200356227Y-133208681D01*
X200588999Y-133266533D01*
X200640246Y-133270000D01*
X200992871Y-133323778D01*
X201232610Y-133469715D01*
X201343925Y-133684719D01*
X201311275Y-133945694D01*
X201212222Y-134120048D01*
X201092041Y-134299532D01*
X201032763Y-134421239D01*
X201031465Y-134430738D01*
X200964848Y-134513442D01*
X200802637Y-134627244D01*
X200777465Y-134641896D01*
X200605472Y-134717405D01*
X200525550Y-134705436D01*
X200524000Y-134695521D01*
X200457263Y-134639975D01*
X200361002Y-134647542D01*
X200242071Y-134649168D01*
X200241700Y-134551584D01*
X200220987Y-134524434D01*
X200119405Y-134610179D01*
X200039019Y-134698002D01*
X199847409Y-134885861D01*
X199653472Y-134968193D01*
X199417488Y-134985585D01*
X199131016Y-134977463D01*
X198881252Y-134954062D01*
X198830667Y-134945480D01*
X198588821Y-134869561D01*
X198327353Y-134747539D01*
X198094310Y-134607325D01*
X197937739Y-134476829D01*
X197899334Y-134404452D01*
X197828669Y-134308892D01*
X197727343Y-134286000D01*
X197564538Y-134230829D01*
X197506618Y-134159000D01*
X197381449Y-134062779D01*
X197133272Y-134032000D01*
X196908443Y-134008554D01*
X196762867Y-133950551D01*
X196748249Y-133934252D01*
X196738270Y-133876315D01*
X196785585Y-133896915D01*
X196872590Y-133900318D01*
X196883334Y-133865006D01*
X196814568Y-133761787D01*
X196735167Y-133718019D01*
X196576656Y-133625373D01*
X196527026Y-133573217D01*
X196435745Y-133532675D01*
X196369559Y-133580575D01*
X196349180Y-133664450D01*
X196424613Y-133803216D01*
X196609810Y-134018493D01*
X196737865Y-134151367D01*
X196974701Y-134376170D01*
X197180321Y-134543142D01*
X197316782Y-134622094D01*
X197332777Y-134624667D01*
X197464070Y-134671028D01*
X197490112Y-134708052D01*
X197582065Y-134766239D01*
X197792547Y-134833287D01*
X198026334Y-134884866D01*
X198329033Y-134946503D01*
X198583929Y-135008803D01*
X198703667Y-135046525D01*
X199183846Y-135225293D01*
X199576278Y-135341452D01*
X199851540Y-135386404D01*
X199867792Y-135386667D01*
X200084397Y-135419996D01*
X200328061Y-135503202D01*
X200543486Y-135611116D01*
X200675374Y-135718568D01*
X200692776Y-135762181D01*
X200649104Y-135889387D01*
X200543586Y-136077560D01*
X200532409Y-136094732D01*
X200441507Y-136302513D01*
X200382512Y-136572251D01*
X200357272Y-136856968D01*
X200367637Y-137109685D01*
X200415458Y-137283422D01*
X200483617Y-137334000D01*
X200584639Y-137361455D01*
X200594071Y-137463751D01*
X200511492Y-137670783D01*
X200477901Y-137739444D01*
X200397410Y-137945039D01*
X200412959Y-138095291D01*
X200455934Y-138175785D01*
X200583790Y-138327718D01*
X200688999Y-138320957D01*
X200741254Y-138256294D01*
X200817687Y-138217651D01*
X200871954Y-138277461D01*
X200926577Y-138318682D01*
X200946904Y-138202545D01*
X200947334Y-138180667D01*
X200961208Y-138044350D01*
X201008248Y-138060619D01*
X201033297Y-138096000D01*
X201113226Y-138180376D01*
X201191330Y-138114695D01*
X201204475Y-138096000D01*
X201252082Y-138068108D01*
X201256777Y-138167666D01*
X201225233Y-138360216D01*
X201164121Y-138611296D01*
X201080114Y-138886447D01*
X201018514Y-139056443D01*
X200906052Y-139306820D01*
X200787625Y-139512697D01*
X200685094Y-139643787D01*
X200620321Y-139669805D01*
X200618411Y-139662334D01*
X200439334Y-139662334D01*
X200397000Y-139704667D01*
X200354667Y-139662334D01*
X200397000Y-139620000D01*
X200439334Y-139662334D01*
X200618411Y-139662334D01*
X200608667Y-139624233D01*
X200539433Y-139527331D01*
X200376995Y-139427685D01*
X200158169Y-139306971D01*
X200010507Y-139196667D01*
X199725124Y-138942597D01*
X199495265Y-138766834D01*
X199348770Y-138690305D01*
X199334650Y-138688667D01*
X199174346Y-138643027D01*
X198930860Y-138525561D01*
X198656917Y-138365449D01*
X198405244Y-138191874D01*
X198333973Y-138134854D01*
X198143663Y-137985455D01*
X198059065Y-137942053D01*
X198068738Y-137988379D01*
X198161239Y-138108167D01*
X198325125Y-138285149D01*
X198548955Y-138503056D01*
X198671804Y-138615159D01*
X198978277Y-138889347D01*
X199276170Y-139156227D01*
X199516058Y-139371505D01*
X199581971Y-139430789D01*
X199818511Y-139621606D01*
X200049995Y-139774299D01*
X200121834Y-139811290D01*
X200286433Y-139901250D01*
X200354667Y-139971052D01*
X200425629Y-140033983D01*
X200598057Y-140111509D01*
X200614044Y-140117188D01*
X200789372Y-140164828D01*
X200889664Y-140123702D01*
X200976012Y-139961635D01*
X200995044Y-139916523D01*
X201075974Y-139693408D01*
X201115806Y-139525881D01*
X201116667Y-139510113D01*
X201152415Y-139389052D01*
X201248757Y-139155239D01*
X201389344Y-138846763D01*
X201498471Y-138620680D01*
X201670702Y-138265940D01*
X201778870Y-138012555D01*
X201834751Y-137810479D01*
X201850117Y-137609665D01*
X201836745Y-137360066D01*
X201825551Y-137230453D01*
X201788364Y-136905302D01*
X201742379Y-136633408D01*
X201697226Y-136471140D01*
X201695043Y-136466681D01*
X201664774Y-136295634D01*
X201669569Y-136011718D01*
X201702643Y-135666142D01*
X201757210Y-135310117D01*
X201826484Y-134994853D01*
X201903679Y-134771560D01*
X201924601Y-134734289D01*
X202047732Y-134534496D01*
X202199578Y-134272953D01*
X202253463Y-134176683D01*
X202673742Y-133409824D01*
X203016008Y-132767760D01*
X203289057Y-132229895D01*
X203501682Y-131775634D01*
X203662678Y-131384383D01*
X203780842Y-131035546D01*
X203864966Y-130708527D01*
X203923847Y-130382733D01*
X203946909Y-130211070D01*
X204019784Y-129851645D01*
X204144495Y-129611929D01*
X204205483Y-129546093D01*
X204346926Y-129348590D01*
X204468626Y-129071383D01*
X204503359Y-128951893D01*
X204582827Y-128696065D01*
X204609959Y-128655667D01*
X203572000Y-128655667D01*
X203529667Y-128698000D01*
X203487334Y-128655667D01*
X203529667Y-128613334D01*
X203572000Y-128655667D01*
X204609959Y-128655667D01*
X204702071Y-128518522D01*
X204909958Y-128355443D01*
X205007822Y-128293003D01*
X205215617Y-128152076D01*
X205363733Y-128007828D01*
X205484888Y-127814553D01*
X205611801Y-127526544D01*
X205678799Y-127355697D01*
X205798846Y-127031509D01*
X205890318Y-126759939D01*
X205938640Y-126585241D01*
X205942667Y-126554435D01*
X205989564Y-126422147D01*
X206109151Y-126214785D01*
X206196667Y-126086770D01*
X206399446Y-125714663D01*
X206450667Y-125440680D01*
X206449739Y-125431278D01*
X195098650Y-125431278D01*
X195083083Y-125541092D01*
X195054181Y-125542403D01*
X195035620Y-125438334D01*
X194089334Y-125438334D01*
X194047000Y-125480667D01*
X194004667Y-125438334D01*
X194047000Y-125396000D01*
X194089334Y-125438334D01*
X195035620Y-125438334D01*
X195033970Y-125429086D01*
X195047497Y-125380125D01*
X195085092Y-125348055D01*
X195098650Y-125431278D01*
X206449739Y-125431278D01*
X206430154Y-125232962D01*
X206341680Y-125131829D01*
X206217834Y-125092098D01*
X205767918Y-124986039D01*
X205461227Y-124903759D01*
X205274739Y-124836845D01*
X205185434Y-124776887D01*
X205170291Y-124715470D01*
X205171713Y-124709817D01*
X205213024Y-124565517D01*
X205283002Y-124322760D01*
X205334773Y-124143715D01*
X205387011Y-123928458D01*
X203567000Y-123928458D01*
X203540590Y-124057375D01*
X203464420Y-124161009D01*
X203131405Y-124381815D01*
X202740062Y-124464622D01*
X202730900Y-124464667D01*
X202550095Y-124483476D01*
X202471443Y-124528924D01*
X202471334Y-124530849D01*
X202397815Y-124591521D01*
X202211217Y-124670401D01*
X202090334Y-124709528D01*
X201865988Y-124789111D01*
X201729076Y-124863397D01*
X201709334Y-124891137D01*
X201663706Y-124957485D01*
X201513104Y-125003253D01*
X201236949Y-125031820D01*
X200814665Y-125046565D01*
X200756834Y-125047512D01*
X200395872Y-125041700D01*
X200171882Y-125012893D01*
X200100667Y-124966961D01*
X200034967Y-124914947D01*
X199935341Y-124929062D01*
X199812542Y-124939157D01*
X199799389Y-124829926D01*
X199802375Y-124813503D01*
X199795769Y-124708390D01*
X199702721Y-124634834D01*
X199487694Y-124569671D01*
X199396201Y-124548763D01*
X199017526Y-124475482D01*
X198572935Y-124404773D01*
X198119864Y-124344276D01*
X197715749Y-124301635D01*
X197418026Y-124284491D01*
X197409616Y-124284445D01*
X197121481Y-124350189D01*
X196986283Y-124459098D01*
X196820193Y-124581843D01*
X196530065Y-124689067D01*
X196099928Y-124785478D01*
X195621815Y-124861120D01*
X195396221Y-124884319D01*
X195306163Y-124865158D01*
X195321646Y-124796958D01*
X195323101Y-124794608D01*
X195398755Y-124621998D01*
X195460864Y-124392368D01*
X195502795Y-124152376D01*
X195517915Y-123948681D01*
X195499590Y-123827940D01*
X195461853Y-123818634D01*
X195415123Y-123798188D01*
X195422414Y-123679833D01*
X195472289Y-123521830D01*
X195545591Y-123392001D01*
X195558608Y-123275512D01*
X195496468Y-123222346D01*
X195453556Y-123172866D01*
X195420116Y-123064935D01*
X195394538Y-122878423D01*
X195375212Y-122593199D01*
X195360529Y-122189133D01*
X195348880Y-121646096D01*
X195343606Y-121310423D01*
X195337687Y-120772262D01*
X195335999Y-120295673D01*
X195338335Y-119905045D01*
X195344486Y-119624766D01*
X195354245Y-119479223D01*
X195359334Y-119464144D01*
X195461559Y-119453566D01*
X195673290Y-119432373D01*
X195805101Y-119419322D01*
X196100358Y-119376886D01*
X196361190Y-119317756D01*
X196430677Y-119295054D01*
X196614096Y-119250681D01*
X196709939Y-119271889D01*
X196685806Y-119343337D01*
X196626882Y-119387974D01*
X196563268Y-119447719D01*
X196652023Y-119467385D01*
X196687837Y-119468037D01*
X196858683Y-119503730D01*
X196925667Y-119554000D01*
X196905562Y-119625729D01*
X196841000Y-119638667D01*
X196751205Y-119680891D01*
X196759901Y-119729106D01*
X196875453Y-119784406D01*
X196936152Y-119773359D01*
X197078225Y-119793615D01*
X197225442Y-119896108D01*
X197432692Y-120044242D01*
X197755493Y-120181845D01*
X198211989Y-120315283D01*
X198788334Y-120444459D01*
X199388254Y-120578769D01*
X199832409Y-120707679D01*
X200134089Y-120835462D01*
X200255614Y-120916166D01*
X200400050Y-121011736D01*
X200646258Y-121151263D01*
X200943128Y-121305899D01*
X200968171Y-121318374D01*
X201306955Y-121505847D01*
X201569638Y-121708991D01*
X201818433Y-121980831D01*
X201961544Y-122165040D01*
X202178330Y-122463788D01*
X202368630Y-122744124D01*
X202497221Y-122953772D01*
X202512627Y-122983000D01*
X202680134Y-123280118D01*
X202836210Y-123448757D01*
X203021127Y-123521685D01*
X203189042Y-123533334D01*
X203394790Y-123545219D01*
X203471739Y-123597296D01*
X203462802Y-123702667D01*
X203458053Y-123837675D01*
X203495260Y-123872000D01*
X203567000Y-123928458D01*
X205387011Y-123928458D01*
X205388605Y-123921892D01*
X205418713Y-123686585D01*
X205426333Y-123397975D01*
X205412706Y-123016246D01*
X205383814Y-122567371D01*
X205349222Y-122107130D01*
X205315751Y-121775731D01*
X205273508Y-121533040D01*
X205212601Y-121338925D01*
X205123136Y-121153251D01*
X204995221Y-120935886D01*
X204972466Y-120898656D01*
X204318312Y-119935000D01*
X197560667Y-119935000D01*
X197518334Y-119977334D01*
X197476000Y-119935000D01*
X197518334Y-119892667D01*
X197560667Y-119935000D01*
X204318312Y-119935000D01*
X204243947Y-119825451D01*
X203900626Y-119408936D01*
X199409686Y-119408936D01*
X199389085Y-119456252D01*
X199303835Y-119547145D01*
X199254825Y-119528500D01*
X199254000Y-119516664D01*
X199314137Y-119445051D01*
X199351749Y-119418915D01*
X199409686Y-119408936D01*
X203900626Y-119408936D01*
X203720297Y-119190163D01*
X199455137Y-119190163D01*
X199338667Y-119201965D01*
X199218472Y-119188660D01*
X199232834Y-119159260D01*
X199406176Y-119148078D01*
X199444500Y-119159260D01*
X199455137Y-119190163D01*
X203720297Y-119190163D01*
X203554941Y-118989556D01*
X200411112Y-118989556D01*
X200399489Y-119039890D01*
X200354667Y-119046000D01*
X200284977Y-119015022D01*
X200298223Y-118989556D01*
X200398702Y-118979423D01*
X200411112Y-118989556D01*
X203554941Y-118989556D01*
X203498083Y-118920576D01*
X200049143Y-118920576D01*
X200027875Y-118942278D01*
X199853153Y-118952130D01*
X199825500Y-118952894D01*
X199621542Y-118938408D01*
X199513289Y-118891911D01*
X199508000Y-118876667D01*
X199560668Y-118808889D01*
X199731084Y-118820720D01*
X199931334Y-118876667D01*
X200049143Y-118920576D01*
X203498083Y-118920576D01*
X203446975Y-118858574D01*
X200706486Y-118858574D01*
X200596678Y-118849536D01*
X200402056Y-118796791D01*
X200270000Y-118749667D01*
X200106220Y-118674213D01*
X200102383Y-118636669D01*
X200143000Y-118632927D01*
X200339507Y-118665859D01*
X200566334Y-118746609D01*
X200705149Y-118824174D01*
X200706486Y-118858574D01*
X203446975Y-118858574D01*
X203433443Y-118842158D01*
X203162157Y-118554026D01*
X202889167Y-118283623D01*
X202756254Y-118168652D01*
X200141085Y-118168652D01*
X200100667Y-118199334D01*
X200007259Y-118255658D01*
X199922329Y-118272760D01*
X199792628Y-118246562D01*
X199564909Y-118172982D01*
X199508000Y-118153922D01*
X199304410Y-118082580D01*
X199255612Y-118054012D01*
X199354348Y-118061864D01*
X199412750Y-118070540D01*
X199704774Y-118103102D01*
X199963084Y-118115963D01*
X200128172Y-118128111D01*
X200141085Y-118168652D01*
X202756254Y-118168652D01*
X202646314Y-118073554D01*
X202390184Y-117894438D01*
X202355820Y-117874934D01*
X200846209Y-117874934D01*
X200823604Y-117916155D01*
X200735667Y-117953926D01*
X200515067Y-117990948D01*
X200397000Y-117977981D01*
X200205286Y-117929089D01*
X199946209Y-117864242D01*
X199889000Y-117850061D01*
X199655427Y-117778553D01*
X199492926Y-117704192D01*
X199469900Y-117686478D01*
X199411563Y-117659611D01*
X198503750Y-117659611D01*
X198391293Y-117674269D01*
X198365000Y-117674828D01*
X198220405Y-117665676D01*
X198207674Y-117639172D01*
X198215222Y-117635798D01*
X198383302Y-117619049D01*
X198469222Y-117632660D01*
X198503750Y-117659611D01*
X199411563Y-117659611D01*
X199329122Y-117621643D01*
X199173567Y-117597600D01*
X199088801Y-117581420D01*
X199166614Y-117545497D01*
X199320985Y-117507261D01*
X199628387Y-117469126D01*
X199916118Y-117519103D01*
X200055312Y-117567680D01*
X200297351Y-117639397D01*
X200482480Y-117657683D01*
X200530576Y-117644936D01*
X200595581Y-117628652D01*
X200578186Y-117672156D01*
X200601727Y-117763512D01*
X200713271Y-117824765D01*
X200846209Y-117874934D01*
X202355820Y-117874934D01*
X202077361Y-117716893D01*
X201664430Y-117511535D01*
X201520238Y-117442812D01*
X200872517Y-117151789D01*
X200845414Y-117141000D01*
X198238000Y-117141000D01*
X198195667Y-117183334D01*
X198153334Y-117141000D01*
X198195667Y-117098667D01*
X198238000Y-117141000D01*
X200845414Y-117141000D01*
X200270967Y-116912330D01*
X199741289Y-116733223D01*
X199309184Y-116623260D01*
X199028631Y-116590667D01*
X198760241Y-116566094D01*
X198533775Y-116518952D01*
X198266133Y-116487103D01*
X197885387Y-116497891D01*
G36*
X185825350Y-140043378D02*
G01*
X185707334Y-140098357D01*
X185508521Y-140214517D01*
X185468202Y-140279637D01*
X185581509Y-140287249D01*
X185813167Y-140238971D01*
X185938969Y-140151993D01*
X185961334Y-140085948D01*
X185933856Y-140021023D01*
X185825350Y-140043378D01*
G37*
X185825350Y-140043378D02*
X185707334Y-140098357D01*
X185508521Y-140214517D01*
X185468202Y-140279637D01*
X185581509Y-140287249D01*
X185813167Y-140238971D01*
X185938969Y-140151993D01*
X185961334Y-140085948D01*
X185933856Y-140021023D01*
X185825350Y-140043378D01*
G36*
X186236046Y-139799271D02*
G01*
X186230705Y-139802949D01*
X186117247Y-139939062D01*
X186139383Y-140106834D01*
X186226120Y-140246090D01*
X186323854Y-140300470D01*
X186382143Y-140247181D01*
X186384667Y-140217664D01*
X186323050Y-140103203D01*
X186298619Y-140084813D01*
X186241945Y-139996372D01*
X186305874Y-139923732D01*
X186443944Y-139910320D01*
X186476459Y-139918595D01*
X186608467Y-139922995D01*
X186638667Y-139877048D01*
X186572673Y-139763643D01*
X186417207Y-139733856D01*
X186236046Y-139799271D01*
G37*
X186236046Y-139799271D02*
X186230705Y-139802949D01*
X186117247Y-139939062D01*
X186139383Y-140106834D01*
X186226120Y-140246090D01*
X186323854Y-140300470D01*
X186382143Y-140247181D01*
X186384667Y-140217664D01*
X186323050Y-140103203D01*
X186298619Y-140084813D01*
X186241945Y-139996372D01*
X186305874Y-139923732D01*
X186443944Y-139910320D01*
X186476459Y-139918595D01*
X186608467Y-139922995D01*
X186638667Y-139877048D01*
X186572673Y-139763643D01*
X186417207Y-139733856D01*
X186236046Y-139799271D01*
G36*
X186490532Y-140431229D02*
G01*
X186488737Y-140482542D01*
X186573009Y-140594350D01*
X186674463Y-140608566D01*
X186723334Y-140516056D01*
X186655164Y-140399424D01*
X186589278Y-140382000D01*
X186490532Y-140431229D01*
G37*
X186490532Y-140431229D02*
X186488737Y-140482542D01*
X186573009Y-140594350D01*
X186674463Y-140608566D01*
X186723334Y-140516056D01*
X186655164Y-140399424D01*
X186589278Y-140382000D01*
X186490532Y-140431229D01*
G36*
X200722104Y-140603499D02*
G01*
X200735667Y-140636000D01*
X200847826Y-140717506D01*
X200872661Y-140720667D01*
X200918564Y-140668501D01*
X200905000Y-140636000D01*
X200792841Y-140554494D01*
X200768007Y-140551334D01*
X200722104Y-140603499D01*
G37*
X200722104Y-140603499D02*
X200735667Y-140636000D01*
X200847826Y-140717506D01*
X200872661Y-140720667D01*
X200918564Y-140668501D01*
X200905000Y-140636000D01*
X200792841Y-140554494D01*
X200768007Y-140551334D01*
X200722104Y-140603499D01*
G36*
X185622667Y-140678334D02*
G01*
X185541897Y-140754416D01*
X185538000Y-140767997D01*
X185603506Y-140804363D01*
X185622667Y-140805334D01*
X185704080Y-140740246D01*
X185707334Y-140715670D01*
X185655464Y-140665104D01*
X185622667Y-140678334D01*
G37*
X185622667Y-140678334D02*
X185541897Y-140754416D01*
X185538000Y-140767997D01*
X185603506Y-140804363D01*
X185622667Y-140805334D01*
X185704080Y-140740246D01*
X185707334Y-140715670D01*
X185655464Y-140665104D01*
X185622667Y-140678334D01*
G36*
X185340316Y-140395716D02*
G01*
X185243246Y-140439841D01*
X185250560Y-140481055D01*
X185254661Y-140544655D01*
X185171093Y-140526124D01*
X185010374Y-140532186D01*
X184788610Y-140616891D01*
X184733871Y-140647099D01*
X184514476Y-140791247D01*
X184437783Y-140874138D01*
X184503804Y-140886062D01*
X184712552Y-140817312D01*
X184733667Y-140808754D01*
X184944708Y-140771677D01*
X185139614Y-140783711D01*
X185313175Y-140792101D01*
X185351971Y-140721196D01*
X185351280Y-140717977D01*
X185407623Y-140624167D01*
X185592353Y-140550152D01*
X185605797Y-140547119D01*
X185849544Y-140480884D01*
X185924812Y-140428154D01*
X185832068Y-140393635D01*
X185589448Y-140382000D01*
X185340316Y-140395716D01*
G37*
X185340316Y-140395716D02*
X185243246Y-140439841D01*
X185250560Y-140481055D01*
X185254661Y-140544655D01*
X185171093Y-140526124D01*
X185010374Y-140532186D01*
X184788610Y-140616891D01*
X184733871Y-140647099D01*
X184514476Y-140791247D01*
X184437783Y-140874138D01*
X184503804Y-140886062D01*
X184712552Y-140817312D01*
X184733667Y-140808754D01*
X184944708Y-140771677D01*
X185139614Y-140783711D01*
X185313175Y-140792101D01*
X185351971Y-140721196D01*
X185351280Y-140717977D01*
X185407623Y-140624167D01*
X185592353Y-140550152D01*
X185605797Y-140547119D01*
X185849544Y-140480884D01*
X185924812Y-140428154D01*
X185832068Y-140393635D01*
X185589448Y-140382000D01*
X185340316Y-140395716D01*
G36*
X201482960Y-140495485D02*
G01*
X201484947Y-140593491D01*
X201530709Y-140667138D01*
X201662117Y-140770995D01*
X201818707Y-140834281D01*
X201937015Y-140837601D01*
X201963334Y-140799359D01*
X201900972Y-140702796D01*
X201757593Y-140591471D01*
X201598758Y-140506856D01*
X201490025Y-140490422D01*
X201482960Y-140495485D01*
G37*
X201482960Y-140495485D02*
X201484947Y-140593491D01*
X201530709Y-140667138D01*
X201662117Y-140770995D01*
X201818707Y-140834281D01*
X201937015Y-140837601D01*
X201963334Y-140799359D01*
X201900972Y-140702796D01*
X201757593Y-140591471D01*
X201598758Y-140506856D01*
X201490025Y-140490422D01*
X201482960Y-140495485D01*
G36*
X185538000Y-141017000D02*
G01*
X185580334Y-141059334D01*
X185622667Y-141017000D01*
X185580334Y-140974667D01*
X185538000Y-141017000D01*
G37*
X185538000Y-141017000D02*
X185580334Y-141059334D01*
X185622667Y-141017000D01*
X185580334Y-140974667D01*
X185538000Y-141017000D01*
G36*
X185876667Y-141017000D02*
G01*
X185919000Y-141059334D01*
X185961334Y-141017000D01*
X185919000Y-140974667D01*
X185876667Y-141017000D01*
G37*
X185876667Y-141017000D02*
X185919000Y-141059334D01*
X185961334Y-141017000D01*
X185919000Y-140974667D01*
X185876667Y-141017000D01*
G36*
X202132667Y-141186334D02*
G01*
X202175000Y-141228667D01*
X202217334Y-141186334D01*
X202175000Y-141144000D01*
X202132667Y-141186334D01*
G37*
X202132667Y-141186334D02*
X202175000Y-141228667D01*
X202217334Y-141186334D01*
X202175000Y-141144000D01*
X202132667Y-141186334D01*
G36*
X185622667Y-141271000D02*
G01*
X185665000Y-141313334D01*
X185707334Y-141271000D01*
X185665000Y-141228667D01*
X185622667Y-141271000D01*
G37*
X185622667Y-141271000D02*
X185665000Y-141313334D01*
X185707334Y-141271000D01*
X185665000Y-141228667D01*
X185622667Y-141271000D01*
G36*
X184745501Y-141003452D02*
G01*
X184741910Y-141072670D01*
X184739137Y-141136720D01*
X184619907Y-141122930D01*
X184477274Y-141119025D01*
X184437355Y-141231884D01*
X184437334Y-141236593D01*
X184446540Y-141365811D01*
X184458500Y-141389357D01*
X184544825Y-141360364D01*
X184727142Y-141301179D01*
X184749936Y-141293847D01*
X184962362Y-141195845D01*
X185064804Y-141090433D01*
X185043895Y-141006949D01*
X184895346Y-140974667D01*
X184745501Y-141003452D01*
G37*
X184745501Y-141003452D02*
X184741910Y-141072670D01*
X184739137Y-141136720D01*
X184619907Y-141122930D01*
X184477274Y-141119025D01*
X184437355Y-141231884D01*
X184437334Y-141236593D01*
X184446540Y-141365811D01*
X184458500Y-141389357D01*
X184544825Y-141360364D01*
X184727142Y-141301179D01*
X184749936Y-141293847D01*
X184962362Y-141195845D01*
X185064804Y-141090433D01*
X185043895Y-141006949D01*
X184895346Y-140974667D01*
X184745501Y-141003452D01*
G36*
X185903230Y-141283357D02*
G01*
X185919000Y-141313334D01*
X185998775Y-141394190D01*
X186013661Y-141398000D01*
X186019437Y-141343310D01*
X186003667Y-141313334D01*
X185923893Y-141232477D01*
X185909007Y-141228667D01*
X185903230Y-141283357D01*
G37*
X185903230Y-141283357D02*
X185919000Y-141313334D01*
X185998775Y-141394190D01*
X186013661Y-141398000D01*
X186019437Y-141343310D01*
X186003667Y-141313334D01*
X185923893Y-141232477D01*
X185909007Y-141228667D01*
X185903230Y-141283357D01*
G36*
X184294304Y-141165167D02*
G01*
X184281137Y-141379901D01*
X184294304Y-141461500D01*
X184318845Y-141487851D01*
X184332205Y-141370778D01*
X184333024Y-141313334D01*
X184324197Y-141159298D01*
X184302220Y-141141144D01*
X184294304Y-141165167D01*
G37*
X184294304Y-141165167D02*
X184281137Y-141379901D01*
X184294304Y-141461500D01*
X184318845Y-141487851D01*
X184332205Y-141370778D01*
X184333024Y-141313334D01*
X184324197Y-141159298D01*
X184302220Y-141141144D01*
X184294304Y-141165167D01*
G36*
X184465556Y-141849556D02*
G01*
X184477178Y-141899890D01*
X184522000Y-141906000D01*
X184591691Y-141875022D01*
X184578445Y-141849556D01*
X184477965Y-141839423D01*
X184465556Y-141849556D01*
G37*
X184465556Y-141849556D02*
X184477178Y-141899890D01*
X184522000Y-141906000D01*
X184591691Y-141875022D01*
X184578445Y-141849556D01*
X184477965Y-141839423D01*
X184465556Y-141849556D01*
G36*
X184268697Y-142023890D02*
G01*
X184268000Y-142064967D01*
X184318557Y-142210951D01*
X184395000Y-142244667D01*
X184507751Y-142204459D01*
X184522000Y-142170367D01*
X184464075Y-142060025D01*
X184395000Y-141990667D01*
X184297687Y-141936133D01*
X184268697Y-142023890D01*
G37*
X184268697Y-142023890D02*
X184268000Y-142064967D01*
X184318557Y-142210951D01*
X184395000Y-142244667D01*
X184507751Y-142204459D01*
X184522000Y-142170367D01*
X184464075Y-142060025D01*
X184395000Y-141990667D01*
X184297687Y-141936133D01*
X184268697Y-142023890D01*
G36*
X184465556Y-142696222D02*
G01*
X184477178Y-142746557D01*
X184522000Y-142752667D01*
X184591691Y-142721689D01*
X184578445Y-142696222D01*
X184477965Y-142686089D01*
X184465556Y-142696222D01*
G37*
X184465556Y-142696222D02*
X184477178Y-142746557D01*
X184522000Y-142752667D01*
X184591691Y-142721689D01*
X184578445Y-142696222D01*
X184477965Y-142686089D01*
X184465556Y-142696222D01*
G36*
X202391077Y-141437339D02*
G01*
X202386667Y-141477413D01*
X202405199Y-141598319D01*
X202454159Y-141839126D01*
X202523598Y-142155286D01*
X202603567Y-142502251D01*
X202684113Y-142835474D01*
X202731791Y-143022551D01*
X202868993Y-143308630D01*
X203065841Y-143460561D01*
X203242807Y-143533527D01*
X203312709Y-143513222D01*
X203318000Y-143479394D01*
X203289793Y-143344586D01*
X203215152Y-143094903D01*
X203109048Y-142773278D01*
X202986451Y-142422646D01*
X202862332Y-142085939D01*
X202751661Y-141806091D01*
X202676244Y-141638935D01*
X202560211Y-141470021D01*
X202453093Y-141396094D01*
X202391077Y-141437339D01*
G37*
X202391077Y-141437339D02*
X202386667Y-141477413D01*
X202405199Y-141598319D01*
X202454159Y-141839126D01*
X202523598Y-142155286D01*
X202603567Y-142502251D01*
X202684113Y-142835474D01*
X202731791Y-143022551D01*
X202868993Y-143308630D01*
X203065841Y-143460561D01*
X203242807Y-143533527D01*
X203312709Y-143513222D01*
X203318000Y-143479394D01*
X203289793Y-143344586D01*
X203215152Y-143094903D01*
X203109048Y-142773278D01*
X202986451Y-142422646D01*
X202862332Y-142085939D01*
X202751661Y-141806091D01*
X202676244Y-141638935D01*
X202560211Y-141470021D01*
X202453093Y-141396094D01*
X202391077Y-141437339D01*
G36*
X200339924Y-141773633D02*
G01*
X200233988Y-141957657D01*
X200111088Y-142222334D01*
X200101672Y-142244667D01*
X199871259Y-142795000D01*
X200065852Y-143176000D01*
X200244879Y-143492309D01*
X200423037Y-143749522D01*
X200578454Y-143921361D01*
X200689256Y-143981549D01*
X200720518Y-143962513D01*
X200729929Y-143835908D01*
X200693509Y-143610672D01*
X200655256Y-143461615D01*
X200532441Y-142903643D01*
X200508204Y-142379157D01*
X200511233Y-142316093D01*
X200547163Y-142155163D01*
X200649513Y-142125444D01*
X200682600Y-142132661D01*
X200825410Y-142204520D01*
X201064235Y-142359362D01*
X201365156Y-142571587D01*
X201694251Y-142815595D01*
X202017599Y-143065785D01*
X202301280Y-143296558D01*
X202511373Y-143482313D01*
X202605512Y-143583888D01*
X202746126Y-143723175D01*
X202859839Y-143768667D01*
X202932449Y-143718947D01*
X202888946Y-143585105D01*
X202744378Y-143390117D01*
X202513795Y-143156959D01*
X202386667Y-143046279D01*
X202180777Y-142885723D01*
X201897749Y-142679564D01*
X201570045Y-142449731D01*
X201230129Y-142218152D01*
X200910463Y-142006757D01*
X200643510Y-141837475D01*
X200461734Y-141732234D01*
X200406876Y-141708916D01*
X200339924Y-141773633D01*
G37*
X200339924Y-141773633D02*
X200233988Y-141957657D01*
X200111088Y-142222334D01*
X200101672Y-142244667D01*
X199871259Y-142795000D01*
X200065852Y-143176000D01*
X200244879Y-143492309D01*
X200423037Y-143749522D01*
X200578454Y-143921361D01*
X200689256Y-143981549D01*
X200720518Y-143962513D01*
X200729929Y-143835908D01*
X200693509Y-143610672D01*
X200655256Y-143461615D01*
X200532441Y-142903643D01*
X200508204Y-142379157D01*
X200511233Y-142316093D01*
X200547163Y-142155163D01*
X200649513Y-142125444D01*
X200682600Y-142132661D01*
X200825410Y-142204520D01*
X201064235Y-142359362D01*
X201365156Y-142571587D01*
X201694251Y-142815595D01*
X202017599Y-143065785D01*
X202301280Y-143296558D01*
X202511373Y-143482313D01*
X202605512Y-143583888D01*
X202746126Y-143723175D01*
X202859839Y-143768667D01*
X202932449Y-143718947D01*
X202888946Y-143585105D01*
X202744378Y-143390117D01*
X202513795Y-143156959D01*
X202386667Y-143046279D01*
X202180777Y-142885723D01*
X201897749Y-142679564D01*
X201570045Y-142449731D01*
X201230129Y-142218152D01*
X200910463Y-142006757D01*
X200643510Y-141837475D01*
X200461734Y-141732234D01*
X200406876Y-141708916D01*
X200339924Y-141773633D01*
G36*
X202570010Y-143927550D02*
G01*
X202523405Y-143991817D01*
X202631397Y-144045625D01*
X202654677Y-144052098D01*
X202863693Y-144098693D01*
X202957008Y-144081016D01*
X202979281Y-143989197D01*
X202979334Y-143980334D01*
X202913151Y-143879685D01*
X202755743Y-143859691D01*
X202570010Y-143927550D01*
G37*
X202570010Y-143927550D02*
X202523405Y-143991817D01*
X202631397Y-144045625D01*
X202654677Y-144052098D01*
X202863693Y-144098693D01*
X202957008Y-144081016D01*
X202979281Y-143989197D01*
X202979334Y-143980334D01*
X202913151Y-143879685D01*
X202755743Y-143859691D01*
X202570010Y-143927550D01*
G36*
X202936487Y-144356375D02*
G01*
X202944580Y-144541018D01*
X202947010Y-144555591D01*
X203009569Y-144830897D01*
X203079297Y-145054723D01*
X203125312Y-145247452D01*
X203113108Y-145366373D01*
X203120661Y-145479779D01*
X203147286Y-145503480D01*
X203220346Y-145624057D01*
X203233334Y-145716000D01*
X203270395Y-145876119D01*
X203351881Y-145927157D01*
X203433240Y-145842841D01*
X203436129Y-145835589D01*
X203482444Y-145618299D01*
X203457926Y-145353804D01*
X203356919Y-144998929D01*
X203308651Y-144862330D01*
X203187132Y-144576477D01*
X203073864Y-144387762D01*
X202984948Y-144309842D01*
X202936487Y-144356375D01*
G37*
X202936487Y-144356375D02*
X202944580Y-144541018D01*
X202947010Y-144555591D01*
X203009569Y-144830897D01*
X203079297Y-145054723D01*
X203125312Y-145247452D01*
X203113108Y-145366373D01*
X203120661Y-145479779D01*
X203147286Y-145503480D01*
X203220346Y-145624057D01*
X203233334Y-145716000D01*
X203270395Y-145876119D01*
X203351881Y-145927157D01*
X203433240Y-145842841D01*
X203436129Y-145835589D01*
X203482444Y-145618299D01*
X203457926Y-145353804D01*
X203356919Y-144998929D01*
X203308651Y-144862330D01*
X203187132Y-144576477D01*
X203073864Y-144387762D01*
X202984948Y-144309842D01*
X202936487Y-144356375D01*
G36*
X201901847Y-144017322D02*
G01*
X201734805Y-144218753D01*
X201548132Y-144514353D01*
X201377094Y-144845292D01*
X201229527Y-145111417D01*
X201023905Y-145424338D01*
X200866908Y-145636062D01*
X200656079Y-145929572D01*
X200540677Y-146150143D01*
X200528394Y-146279343D01*
X200587500Y-146305454D01*
X200668346Y-146240008D01*
X200805882Y-146076043D01*
X200901885Y-145945620D01*
X201067062Y-145703516D01*
X201268083Y-145398064D01*
X201485216Y-145060652D01*
X201698729Y-144722671D01*
X201888889Y-144415509D01*
X202035965Y-144170556D01*
X202120225Y-144019200D01*
X202132667Y-143987727D01*
X202065434Y-143943516D01*
X202026834Y-143941262D01*
X201901847Y-144017322D01*
G37*
X201901847Y-144017322D02*
X201734805Y-144218753D01*
X201548132Y-144514353D01*
X201377094Y-144845292D01*
X201229527Y-145111417D01*
X201023905Y-145424338D01*
X200866908Y-145636062D01*
X200656079Y-145929572D01*
X200540677Y-146150143D01*
X200528394Y-146279343D01*
X200587500Y-146305454D01*
X200668346Y-146240008D01*
X200805882Y-146076043D01*
X200901885Y-145945620D01*
X201067062Y-145703516D01*
X201268083Y-145398064D01*
X201485216Y-145060652D01*
X201698729Y-144722671D01*
X201888889Y-144415509D01*
X202035965Y-144170556D01*
X202120225Y-144019200D01*
X202132667Y-143987727D01*
X202065434Y-143943516D01*
X202026834Y-143941262D01*
X201901847Y-144017322D01*
G36*
X204006777Y-146356786D02*
G01*
X204000627Y-146362402D01*
X203933332Y-146513997D01*
X203934302Y-146658735D01*
X203965433Y-146759710D01*
X203983804Y-146717758D01*
X204022330Y-146513596D01*
X204050128Y-146421425D01*
X204071993Y-146319966D01*
X204006777Y-146356786D01*
G37*
X204006777Y-146356786D02*
X204000627Y-146362402D01*
X203933332Y-146513997D01*
X203934302Y-146658735D01*
X203965433Y-146759710D01*
X203983804Y-146717758D01*
X204022330Y-146513596D01*
X204050128Y-146421425D01*
X204071993Y-146319966D01*
X204006777Y-146356786D01*
G36*
X193259939Y-134483783D02*
G01*
X193100142Y-134666847D01*
X192911413Y-134926011D01*
X192754573Y-135170657D01*
X192399133Y-135740830D01*
X192106189Y-136172486D01*
X191864494Y-136479541D01*
X191662801Y-136675912D01*
X191489864Y-136775515D01*
X191448110Y-136787303D01*
X191164003Y-136899040D01*
X190814328Y-137112277D01*
X190445495Y-137398262D01*
X190206936Y-137595054D01*
X189943557Y-137799314D01*
X189693197Y-137983333D01*
X189493694Y-138119403D01*
X189382886Y-138179815D01*
X189377083Y-138180667D01*
X189272227Y-138224674D01*
X189075507Y-138338799D01*
X188881204Y-138464118D01*
X188588019Y-138641867D01*
X188292371Y-138791412D01*
X188140721Y-138851941D01*
X187952319Y-138934424D01*
X187867939Y-139013825D01*
X187870551Y-139034157D01*
X187835279Y-139090220D01*
X187691630Y-139112000D01*
X187539463Y-139125477D01*
X187530059Y-139184605D01*
X187572595Y-139242126D01*
X187725246Y-139345474D01*
X187815795Y-139359377D01*
X188118455Y-139352808D01*
X188283263Y-139410205D01*
X188332000Y-139535334D01*
X188276392Y-139675360D01*
X188198953Y-139704667D01*
X188025981Y-139760998D01*
X187957663Y-139812909D01*
X187892540Y-139925816D01*
X187960137Y-140024576D01*
X188101083Y-140114460D01*
X188159094Y-140128000D01*
X188225418Y-140200434D01*
X188247334Y-140339667D01*
X188201030Y-140512661D01*
X188111275Y-140551334D01*
X188014916Y-140498772D01*
X188022297Y-140428645D01*
X188018540Y-140342736D01*
X187946689Y-140353037D01*
X187842576Y-140335059D01*
X187824000Y-140257003D01*
X187775091Y-140152809D01*
X187718167Y-140149167D01*
X187621100Y-140253105D01*
X187612334Y-140303230D01*
X187551659Y-140412712D01*
X187425670Y-140450347D01*
X187318417Y-140399880D01*
X187301973Y-140363243D01*
X187249665Y-140310540D01*
X187134390Y-140391987D01*
X187112129Y-140414115D01*
X187004059Y-140530407D01*
X187020978Y-140556281D01*
X187133296Y-140530298D01*
X187275394Y-140519195D01*
X187316000Y-140552335D01*
X187339875Y-140685246D01*
X187366321Y-140777242D01*
X187391149Y-140877708D01*
X187342274Y-140828653D01*
X187325284Y-140805334D01*
X187249783Y-140735114D01*
X187232630Y-140784167D01*
X187163670Y-140879407D01*
X187111389Y-140890000D01*
X186978151Y-140826405D01*
X186952639Y-140784167D01*
X186894798Y-140724951D01*
X186797417Y-140794750D01*
X186727233Y-140897779D01*
X186786834Y-140949972D01*
X186883627Y-141051962D01*
X186861377Y-141186377D01*
X186772239Y-141256763D01*
X186689389Y-141366601D01*
X186694949Y-141467932D01*
X186694100Y-141618563D01*
X186630059Y-141694265D01*
X186548355Y-141657595D01*
X186523196Y-141609181D01*
X186410838Y-141509528D01*
X186239057Y-141485808D01*
X186101336Y-141548359D01*
X186091950Y-141561483D01*
X186102567Y-141670223D01*
X186129286Y-141693480D01*
X186213248Y-141803556D01*
X186151382Y-141890552D01*
X186064817Y-141906000D01*
X185897913Y-141845489D01*
X185769312Y-141736667D01*
X185624854Y-141608627D01*
X185524071Y-141567334D01*
X185507109Y-141618999D01*
X185593299Y-141746496D01*
X185622354Y-141778666D01*
X185740167Y-141934349D01*
X185768986Y-142039252D01*
X185763778Y-142047111D01*
X185671401Y-142034239D01*
X185669635Y-142033000D01*
X185368667Y-142033000D01*
X185326334Y-142075334D01*
X185284000Y-142033000D01*
X185326334Y-141990667D01*
X185368667Y-142033000D01*
X185669635Y-142033000D01*
X185519726Y-141927886D01*
X185495333Y-141905687D01*
X185357093Y-141801269D01*
X185286454Y-141797923D01*
X185284000Y-141811572D01*
X185234663Y-141875976D01*
X185199508Y-141863774D01*
X185079944Y-141869813D01*
X184897229Y-141944539D01*
X184719264Y-142051692D01*
X184613948Y-142155012D01*
X184606667Y-142180372D01*
X184679893Y-142242507D01*
X184857152Y-142298944D01*
X184867496Y-142301066D01*
X185032370Y-142350923D01*
X185040603Y-142408793D01*
X185015663Y-142428521D01*
X184989110Y-142470380D01*
X185116335Y-142454343D01*
X185128497Y-142451568D01*
X185360666Y-142457205D01*
X185527840Y-142573173D01*
X185701687Y-142747020D01*
X185528959Y-142868004D01*
X185420395Y-142982789D01*
X185450824Y-143047449D01*
X185589109Y-143051766D01*
X185655858Y-143014255D01*
X185776775Y-142977675D01*
X185893271Y-143070466D01*
X186002714Y-143212244D01*
X186087395Y-143344184D01*
X186122011Y-143422346D01*
X186088531Y-143409568D01*
X185973536Y-143399239D01*
X185916355Y-143432195D01*
X185758238Y-143476996D01*
X185733000Y-143472334D01*
X185368667Y-143472334D01*
X185326334Y-143514667D01*
X185284000Y-143472334D01*
X185326334Y-143430000D01*
X185368667Y-143472334D01*
X185733000Y-143472334D01*
X185660756Y-143458989D01*
X185556479Y-143407717D01*
X185606775Y-143362720D01*
X185671191Y-143336479D01*
X185763163Y-143289750D01*
X185707116Y-143265711D01*
X185601500Y-143256034D01*
X185407274Y-143236428D01*
X185305167Y-143217527D01*
X185181168Y-143176145D01*
X185051167Y-143133569D01*
X184903673Y-143057985D01*
X184860667Y-142996792D01*
X184912883Y-142925767D01*
X185033895Y-142967860D01*
X185088178Y-143014044D01*
X185191682Y-143056242D01*
X185245046Y-143001200D01*
X185237944Y-142881126D01*
X185124318Y-142762247D01*
X184960900Y-142690722D01*
X184862305Y-142689789D01*
X184761768Y-142780900D01*
X184755952Y-142850275D01*
X184715974Y-143012650D01*
X184653528Y-143087576D01*
X184563464Y-143141008D01*
X184555224Y-143057524D01*
X184562882Y-143014204D01*
X184547264Y-142868216D01*
X184481861Y-142837334D01*
X184349071Y-142770986D01*
X184325205Y-142731500D01*
X184315117Y-142787097D01*
X184305470Y-142993343D01*
X184296604Y-143331553D01*
X184288856Y-143783045D01*
X184282565Y-144329133D01*
X184278070Y-144951134D01*
X184276121Y-145440834D01*
X184268611Y-148256000D01*
X185432472Y-148257949D01*
X185782760Y-148258883D01*
X186275543Y-148260696D01*
X186883987Y-148263265D01*
X187581258Y-148266466D01*
X188340521Y-148270176D01*
X189134941Y-148274270D01*
X189937684Y-148278626D01*
X190025334Y-148279116D01*
X190946781Y-148283101D01*
X191966253Y-148285468D01*
X193036056Y-148286240D01*
X194108496Y-148285439D01*
X195135877Y-148283086D01*
X196070505Y-148279203D01*
X196571206Y-148276118D01*
X199688079Y-148253903D01*
X199650419Y-148129000D01*
X186046000Y-148129000D01*
X186003667Y-148171334D01*
X185961334Y-148129000D01*
X186003667Y-148086667D01*
X186046000Y-148129000D01*
X199650419Y-148129000D01*
X199630956Y-148064451D01*
X199555793Y-147846187D01*
X199467678Y-147621000D01*
X199397220Y-147451667D01*
X185538000Y-147451667D01*
X185495667Y-147494000D01*
X185453334Y-147451667D01*
X185495667Y-147409334D01*
X185538000Y-147451667D01*
X199397220Y-147451667D01*
X199296789Y-147210299D01*
X185453334Y-147210299D01*
X185407009Y-147289228D01*
X185312316Y-147409431D01*
X185235676Y-147487692D01*
X185229457Y-147490780D01*
X185224486Y-147421259D01*
X185229457Y-147293134D01*
X185275065Y-147148063D01*
X185347500Y-147132859D01*
X185445159Y-147193001D01*
X185453334Y-147210299D01*
X199296789Y-147210299D01*
X199157962Y-146876655D01*
X185418890Y-146876655D01*
X185407385Y-146907184D01*
X185325651Y-146982258D01*
X185285657Y-146896751D01*
X185284000Y-146854003D01*
X185325657Y-146766801D01*
X185370048Y-146775187D01*
X185418890Y-146876655D01*
X199157962Y-146876655D01*
X199133523Y-146817923D01*
X199098223Y-146732000D01*
X185114667Y-146732000D01*
X185083689Y-146801690D01*
X185058223Y-146788445D01*
X185048090Y-146687965D01*
X185058223Y-146675556D01*
X185108557Y-146687178D01*
X185114667Y-146732000D01*
X199098223Y-146732000D01*
X198863017Y-146159499D01*
X198667601Y-145673667D01*
X184691334Y-145673667D01*
X184649000Y-145716000D01*
X184606667Y-145673667D01*
X184649000Y-145631334D01*
X184691334Y-145673667D01*
X198667601Y-145673667D01*
X198652115Y-145635167D01*
X198617815Y-145546667D01*
X186723334Y-145546667D01*
X186692356Y-145616357D01*
X186666889Y-145603111D01*
X186656756Y-145502632D01*
X186666889Y-145490222D01*
X186717224Y-145501845D01*
X186723334Y-145546667D01*
X198617815Y-145546667D01*
X198522712Y-145301286D01*
X184491950Y-145301286D01*
X184462995Y-145428715D01*
X184411036Y-145540494D01*
X184381871Y-145495198D01*
X184368851Y-145434207D01*
X184365892Y-145279629D01*
X184387516Y-145229596D01*
X184465383Y-145207173D01*
X184491950Y-145301286D01*
X198522712Y-145301286D01*
X198496774Y-145234363D01*
X198408371Y-144989278D01*
X184430650Y-144989278D01*
X184415083Y-145099092D01*
X184386181Y-145100403D01*
X184365970Y-144987086D01*
X184379497Y-144938125D01*
X184417092Y-144906055D01*
X184430650Y-144989278D01*
X198408371Y-144989278D01*
X198392950Y-144946527D01*
X198336598Y-144761097D01*
X198323674Y-144667512D01*
X198331043Y-144652491D01*
X198341516Y-144558889D01*
X186864445Y-144558889D01*
X186852823Y-144609223D01*
X186808000Y-144615334D01*
X186738310Y-144584355D01*
X186751556Y-144558889D01*
X186852036Y-144548756D01*
X186864445Y-144558889D01*
X198341516Y-144558889D01*
X198341910Y-144555373D01*
X198328133Y-144525670D01*
X186300000Y-144525670D01*
X186238540Y-144611888D01*
X186215334Y-144615334D01*
X186132868Y-144586447D01*
X186130667Y-144577997D01*
X186189996Y-144505711D01*
X186215334Y-144488334D01*
X186293353Y-144495046D01*
X186300000Y-144525670D01*
X198328133Y-144525670D01*
X198264996Y-144389556D01*
X185933112Y-144389556D01*
X185921489Y-144439890D01*
X185876667Y-144446000D01*
X185806977Y-144415022D01*
X185820223Y-144389556D01*
X185920702Y-144379423D01*
X185933112Y-144389556D01*
X198264996Y-144389556D01*
X198254442Y-144366804D01*
X198135853Y-144192000D01*
X187062000Y-144192000D01*
X187031022Y-144261690D01*
X187005556Y-144248445D01*
X186995423Y-144147965D01*
X187005556Y-144135556D01*
X187055890Y-144147178D01*
X187062000Y-144192000D01*
X198135853Y-144192000D01*
X198086191Y-144118798D01*
X198057454Y-144083420D01*
X186666149Y-144083420D01*
X186665608Y-144159250D01*
X186576653Y-144251330D01*
X186456885Y-144274847D01*
X186386122Y-144217688D01*
X186384667Y-144201875D01*
X186454915Y-144122092D01*
X186547666Y-144084458D01*
X186666149Y-144083420D01*
X198057454Y-144083420D01*
X197939328Y-143938000D01*
X197917806Y-143907371D01*
X186376454Y-143907371D01*
X186294834Y-144037012D01*
X186272427Y-144063470D01*
X186103452Y-144228068D01*
X186000690Y-144269066D01*
X185980786Y-144180284D01*
X185982500Y-144171140D01*
X186079385Y-144012832D01*
X186250846Y-143886017D01*
X186357094Y-143856026D01*
X186376454Y-143907371D01*
X197917806Y-143907371D01*
X197809192Y-143752800D01*
X197733945Y-143623603D01*
X186709686Y-143623603D01*
X186689085Y-143670918D01*
X186603835Y-143761812D01*
X186554825Y-143743166D01*
X186554000Y-143731330D01*
X186614137Y-143659718D01*
X186651749Y-143633582D01*
X186709686Y-143623603D01*
X197733945Y-143623603D01*
X197646948Y-143474232D01*
X197614941Y-143411693D01*
X186494420Y-143411693D01*
X186400215Y-143496087D01*
X186374502Y-143514667D01*
X186202124Y-143655910D01*
X185990073Y-143851103D01*
X185931637Y-143908540D01*
X185719848Y-144103940D01*
X185596671Y-144180313D01*
X185570788Y-144133189D01*
X185586536Y-144086167D01*
X185674428Y-143979265D01*
X185854746Y-143816495D01*
X185968212Y-143726334D01*
X185622667Y-143726334D01*
X185580334Y-143768667D01*
X185538000Y-143726334D01*
X185580334Y-143684000D01*
X185622667Y-143726334D01*
X185968212Y-143726334D01*
X186009675Y-143693388D01*
X186222258Y-143527425D01*
X186318312Y-143422161D01*
X186317647Y-143337865D01*
X186240071Y-143234808D01*
X186238963Y-143233535D01*
X186088334Y-143060628D01*
X186319532Y-143224148D01*
X186470982Y-143339315D01*
X186494420Y-143411693D01*
X197614941Y-143411693D01*
X197494314Y-143176000D01*
X197453934Y-143091334D01*
X192297965Y-143091334D01*
X192284660Y-143211529D01*
X192255261Y-143197167D01*
X192244078Y-143023825D01*
X192252168Y-142996097D01*
X186024001Y-142996097D01*
X185961979Y-142955517D01*
X185950828Y-142944578D01*
X185883951Y-142833570D01*
X185893019Y-142792760D01*
X185956000Y-142818168D01*
X185998224Y-142897182D01*
X186024001Y-142996097D01*
X192252168Y-142996097D01*
X192255261Y-142985500D01*
X192286163Y-142974864D01*
X192297965Y-143091334D01*
X197453934Y-143091334D01*
X197265487Y-142696222D01*
X194823112Y-142696222D01*
X194811489Y-142746557D01*
X194766667Y-142752667D01*
X194696977Y-142721689D01*
X194710223Y-142696222D01*
X194810702Y-142686089D01*
X194823112Y-142696222D01*
X197265487Y-142696222D01*
X197162023Y-142479293D01*
X197137516Y-142428320D01*
X185961334Y-142428320D01*
X185904445Y-142439959D01*
X185766614Y-142361174D01*
X185757504Y-142354453D01*
X185638837Y-142241155D01*
X185629988Y-142174619D01*
X185633350Y-142173162D01*
X185760749Y-142199157D01*
X185897185Y-142305087D01*
X185961331Y-142427684D01*
X185961334Y-142428320D01*
X197137516Y-142428320D01*
X197069568Y-142287000D01*
X186977334Y-142287000D01*
X186935000Y-142329334D01*
X186892667Y-142287000D01*
X186935000Y-142244667D01*
X186977334Y-142287000D01*
X197069568Y-142287000D01*
X196888969Y-141911384D01*
X196662747Y-141447640D01*
X196659100Y-141440334D01*
X187316000Y-141440334D01*
X187273667Y-141482667D01*
X187231334Y-141440334D01*
X187273667Y-141398000D01*
X187316000Y-141440334D01*
X196659100Y-141440334D01*
X196595704Y-141313334D01*
X187104334Y-141313334D01*
X187097621Y-141391352D01*
X187066997Y-141398000D01*
X186980779Y-141336540D01*
X186977334Y-141313334D01*
X187006221Y-141230868D01*
X187014670Y-141228667D01*
X187086956Y-141287996D01*
X187104334Y-141313334D01*
X196595704Y-141313334D01*
X196470954Y-141063427D01*
X196356088Y-140840611D01*
X192304650Y-140840611D01*
X192289083Y-140950425D01*
X192260181Y-140951736D01*
X192239970Y-140838419D01*
X192253497Y-140789459D01*
X192291092Y-140757388D01*
X192304650Y-140840611D01*
X196356088Y-140840611D01*
X196327466Y-140785091D01*
X193798612Y-140785091D01*
X193715389Y-140798649D01*
X193605575Y-140783083D01*
X193604264Y-140754181D01*
X193717581Y-140733969D01*
X193766542Y-140747497D01*
X193798612Y-140785091D01*
X196327466Y-140785091D01*
X196301185Y-140734112D01*
X196141036Y-140435063D01*
X196088063Y-140339667D01*
X194851334Y-140339667D01*
X194809000Y-140382000D01*
X194766667Y-140339667D01*
X194809000Y-140297334D01*
X194851334Y-140339667D01*
X196088063Y-140339667D01*
X195978101Y-140141644D01*
X195946315Y-140085667D01*
X194851334Y-140085667D01*
X194809000Y-140128000D01*
X194766667Y-140085667D01*
X192734667Y-140085667D01*
X192692334Y-140128000D01*
X192650000Y-140085667D01*
X192692334Y-140043334D01*
X192734667Y-140085667D01*
X194766667Y-140085667D01*
X194809000Y-140043334D01*
X194851334Y-140085667D01*
X195946315Y-140085667D01*
X195874198Y-139958667D01*
X195802009Y-139831667D01*
X194766667Y-139831667D01*
X194724334Y-139874000D01*
X194682000Y-139831667D01*
X194724334Y-139789334D01*
X194766667Y-139831667D01*
X195802009Y-139831667D01*
X195671275Y-139601671D01*
X195614167Y-139500056D01*
X193412000Y-139500056D01*
X193362647Y-139592774D01*
X193261097Y-139577989D01*
X193177403Y-139466542D01*
X193202237Y-139408334D01*
X192565334Y-139408334D01*
X192523000Y-139450667D01*
X192480667Y-139408334D01*
X192523000Y-139366000D01*
X192565334Y-139408334D01*
X193202237Y-139408334D01*
X193214252Y-139380175D01*
X193277945Y-139366000D01*
X193394577Y-139434170D01*
X193412000Y-139500056D01*
X195614167Y-139500056D01*
X195575033Y-139430425D01*
X194645279Y-139430425D01*
X194562056Y-139443983D01*
X194452242Y-139428416D01*
X194451332Y-139408334D01*
X194174000Y-139408334D01*
X194131667Y-139450667D01*
X194089334Y-139408334D01*
X194131667Y-139366000D01*
X194174000Y-139408334D01*
X194451332Y-139408334D01*
X194450931Y-139399514D01*
X194564248Y-139379303D01*
X194613209Y-139392830D01*
X194645279Y-139430425D01*
X195575033Y-139430425D01*
X195512480Y-139319122D01*
X192812563Y-139319122D01*
X192723879Y-139329648D01*
X192692334Y-139321010D01*
X192641193Y-139304881D01*
X192035139Y-139304881D01*
X192019560Y-139358623D01*
X191935811Y-139445521D01*
X191915453Y-139408334D01*
X188840000Y-139408334D01*
X188797667Y-139450667D01*
X188755334Y-139408334D01*
X188797667Y-139366000D01*
X188840000Y-139408334D01*
X191915453Y-139408334D01*
X191893541Y-139368312D01*
X191889909Y-139300194D01*
X188670667Y-139300194D01*
X188650299Y-139401579D01*
X188558949Y-139380607D01*
X188501334Y-139346351D01*
X188369887Y-139247119D01*
X188332000Y-139194443D01*
X188403190Y-139156887D01*
X188501334Y-139148286D01*
X188644126Y-139208734D01*
X188670667Y-139300194D01*
X191889909Y-139300194D01*
X191888000Y-139264400D01*
X191908743Y-139141567D01*
X191980258Y-139170405D01*
X191982223Y-139172356D01*
X192035139Y-139304881D01*
X192641193Y-139304881D01*
X192495440Y-139258913D01*
X192424176Y-139236225D01*
X192335239Y-139169604D01*
X192371861Y-139102273D01*
X192503943Y-139064456D01*
X192640018Y-139125415D01*
X192781646Y-139239965D01*
X192812563Y-139319122D01*
X195512480Y-139319122D01*
X195496438Y-139290579D01*
X195467931Y-139239000D01*
X194512667Y-139239000D01*
X194470334Y-139281334D01*
X194428000Y-139239000D01*
X194470334Y-139196667D01*
X194512667Y-139239000D01*
X195467931Y-139239000D01*
X195433109Y-139175996D01*
X193108963Y-139175996D01*
X193057516Y-139177283D01*
X192937389Y-139073686D01*
X192929070Y-139055556D01*
X189489112Y-139055556D01*
X189477489Y-139105890D01*
X189432667Y-139112000D01*
X189362977Y-139081022D01*
X189376223Y-139055556D01*
X189476702Y-139045423D01*
X189489112Y-139055556D01*
X192929070Y-139055556D01*
X192923403Y-139043209D01*
X192928460Y-138985000D01*
X191888000Y-138985000D01*
X191845667Y-139027334D01*
X191803334Y-138985000D01*
X191845667Y-138942667D01*
X188586000Y-138942667D01*
X188517085Y-139016971D01*
X188454004Y-139027334D01*
X188366369Y-138986288D01*
X188374334Y-138942667D01*
X188482577Y-138861230D01*
X188506331Y-138858000D01*
X188583720Y-138922579D01*
X188586000Y-138942667D01*
X191845667Y-138942667D01*
X191888000Y-138985000D01*
X192928460Y-138985000D01*
X192931272Y-138952640D01*
X193008534Y-138957883D01*
X193093427Y-139047637D01*
X193106666Y-139076742D01*
X193108963Y-139175996D01*
X195433109Y-139175996D01*
X195374341Y-139069667D01*
X194089334Y-139069667D01*
X194047000Y-139112000D01*
X194004667Y-139069667D01*
X194047000Y-139027334D01*
X194089334Y-139069667D01*
X195374341Y-139069667D01*
X195368589Y-139059261D01*
X195307132Y-138942667D01*
X195289982Y-138909574D01*
X193570943Y-138909574D01*
X193549923Y-139026668D01*
X193524889Y-139055556D01*
X193400966Y-139109487D01*
X193330173Y-139021365D01*
X193327334Y-138985000D01*
X193395107Y-138872752D01*
X193454334Y-138858000D01*
X193570943Y-138909574D01*
X195289982Y-138909574D01*
X195244540Y-138821890D01*
X195187886Y-138716889D01*
X194569112Y-138716889D01*
X194557489Y-138767223D01*
X194512667Y-138773334D01*
X194442977Y-138742355D01*
X194456223Y-138716889D01*
X194556702Y-138706756D01*
X194569112Y-138716889D01*
X195187886Y-138716889D01*
X195117900Y-138587180D01*
X195094760Y-138544896D01*
X194213477Y-138544896D01*
X194194640Y-138575582D01*
X194125945Y-138658824D01*
X194136136Y-138695898D01*
X194160811Y-138770086D01*
X194099398Y-138742545D01*
X194046349Y-138688667D01*
X193115667Y-138688667D01*
X193111797Y-138766810D01*
X193083327Y-138773334D01*
X192963636Y-138711548D01*
X192946334Y-138688667D01*
X192948430Y-138646334D01*
X192734667Y-138646334D01*
X192692334Y-138688667D01*
X192650000Y-138646334D01*
X192664112Y-138632222D01*
X192367778Y-138632222D01*
X192356156Y-138682557D01*
X192311334Y-138688667D01*
X192241644Y-138657689D01*
X192254889Y-138632222D01*
X192355369Y-138622089D01*
X192367778Y-138632222D01*
X192664112Y-138632222D01*
X192692334Y-138604000D01*
X192734667Y-138646334D01*
X192948430Y-138646334D01*
X192950204Y-138610523D01*
X192978674Y-138604000D01*
X193098365Y-138665786D01*
X193115667Y-138688667D01*
X194046349Y-138688667D01*
X194004667Y-138646334D01*
X193951603Y-138552733D01*
X193967256Y-138547556D01*
X193807112Y-138547556D01*
X193795489Y-138597890D01*
X193750667Y-138604000D01*
X193680977Y-138573022D01*
X193694223Y-138547556D01*
X193794702Y-138537423D01*
X193807112Y-138547556D01*
X193967256Y-138547556D01*
X194034386Y-138525355D01*
X194100134Y-138526018D01*
X194213477Y-138544896D01*
X195094760Y-138544896D01*
X195027082Y-138421230D01*
X193802547Y-138421230D01*
X193678021Y-138412975D01*
X193636295Y-138403068D01*
X193473800Y-138382623D01*
X193411621Y-138411887D01*
X193336788Y-138458804D01*
X193153354Y-138489660D01*
X193115288Y-138492148D01*
X192919886Y-138482446D01*
X192825458Y-138440541D01*
X192474783Y-138440541D01*
X192424354Y-138516714D01*
X192396000Y-138519334D01*
X192330421Y-138447625D01*
X192328481Y-138434667D01*
X192142000Y-138434667D01*
X192111022Y-138504357D01*
X192085556Y-138491111D01*
X192084666Y-138482279D01*
X191874920Y-138482279D01*
X191853986Y-138586120D01*
X191790253Y-138585529D01*
X191763680Y-138561667D01*
X189178667Y-138561667D01*
X189136334Y-138604000D01*
X189094000Y-138561667D01*
X189136334Y-138519334D01*
X189178667Y-138561667D01*
X191763680Y-138561667D01*
X191686148Y-138492046D01*
X191676334Y-138448778D01*
X191706023Y-138386636D01*
X190693694Y-138386636D01*
X190644420Y-138426754D01*
X190528337Y-138434667D01*
X190410292Y-138403408D01*
X190404049Y-138353698D01*
X190514191Y-138307573D01*
X190578379Y-138320423D01*
X190693694Y-138386636D01*
X191706023Y-138386636D01*
X191721853Y-138353504D01*
X191811854Y-138371370D01*
X191874920Y-138482279D01*
X192084666Y-138482279D01*
X192075423Y-138390632D01*
X192085556Y-138378222D01*
X192135890Y-138389845D01*
X192142000Y-138434667D01*
X192328481Y-138434667D01*
X192312630Y-138328834D01*
X192324065Y-138223000D01*
X190110000Y-138223000D01*
X190067667Y-138265334D01*
X190025334Y-138223000D01*
X190067667Y-138180667D01*
X190110000Y-138223000D01*
X192324065Y-138223000D01*
X192325998Y-138205119D01*
X192375800Y-138235535D01*
X192396000Y-138265334D01*
X192474783Y-138440541D01*
X192825458Y-138440541D01*
X192821969Y-138438993D01*
X192819334Y-138428648D01*
X192885827Y-138354728D01*
X192920183Y-138350000D01*
X192940966Y-138309518D01*
X192856683Y-138225693D01*
X192758130Y-138140841D01*
X192788307Y-138106482D01*
X192964843Y-138098693D01*
X193149185Y-138114504D01*
X193198922Y-138179651D01*
X193186329Y-138228965D01*
X193178529Y-138312635D01*
X193270997Y-138330411D01*
X193433290Y-138306029D01*
X193689140Y-138292895D01*
X193795933Y-138354745D01*
X193802547Y-138421230D01*
X195027082Y-138421230D01*
X194957209Y-138293556D01*
X194230445Y-138293556D01*
X194218823Y-138343890D01*
X194174000Y-138350000D01*
X194104310Y-138319022D01*
X194117556Y-138293556D01*
X194218036Y-138283423D01*
X194230445Y-138293556D01*
X194957209Y-138293556D01*
X194945671Y-138272475D01*
X194789996Y-137990748D01*
X194295138Y-137990748D01*
X194185565Y-138085539D01*
X193997727Y-138150673D01*
X193835334Y-138163897D01*
X193539000Y-138153567D01*
X193661748Y-138138334D01*
X193496667Y-138138334D01*
X193454334Y-138180667D01*
X193412000Y-138138334D01*
X193454334Y-138096000D01*
X193496667Y-138138334D01*
X193661748Y-138138334D01*
X193814167Y-138119419D01*
X194016880Y-138059973D01*
X194089334Y-137963636D01*
X194093472Y-137954889D01*
X193553112Y-137954889D01*
X193541489Y-138005223D01*
X193496667Y-138011334D01*
X193426977Y-137980355D01*
X193430409Y-137973756D01*
X193140438Y-137973756D01*
X193038674Y-137987786D01*
X192946334Y-137989982D01*
X192772083Y-137983167D01*
X192727108Y-137963980D01*
X192754847Y-137953161D01*
X192958168Y-137937390D01*
X193093513Y-137951452D01*
X193140438Y-137973756D01*
X193430409Y-137973756D01*
X193440223Y-137954889D01*
X193540702Y-137944756D01*
X193553112Y-137954889D01*
X194093472Y-137954889D01*
X194133532Y-137870222D01*
X193807112Y-137870222D01*
X193795489Y-137920557D01*
X193750667Y-137926667D01*
X193680977Y-137895689D01*
X193694223Y-137870222D01*
X193794702Y-137860089D01*
X193807112Y-137870222D01*
X194133532Y-137870222D01*
X194142509Y-137851251D01*
X194259206Y-137873454D01*
X194281800Y-137893355D01*
X194295138Y-137990748D01*
X194789996Y-137990748D01*
X194748040Y-137914820D01*
X194682837Y-137799667D01*
X194428000Y-137799667D01*
X194385667Y-137842000D01*
X194365425Y-137821758D01*
X193375279Y-137821758D01*
X193292056Y-137835316D01*
X193182242Y-137819749D01*
X193181719Y-137808204D01*
X192520170Y-137808204D01*
X192458833Y-137832252D01*
X192311334Y-137842000D01*
X192131803Y-137856168D01*
X192105102Y-137884988D01*
X192184334Y-137926667D01*
X192296553Y-137982586D01*
X192255268Y-138002388D01*
X192200504Y-138005383D01*
X192097321Y-138046709D01*
X192099667Y-138096000D01*
X192109701Y-138171705D01*
X192027544Y-138164419D01*
X191905445Y-138079533D01*
X191901408Y-138075541D01*
X191797348Y-138015623D01*
X191724608Y-138086388D01*
X191623146Y-138163975D01*
X191537328Y-138105136D01*
X191505267Y-137941283D01*
X191506302Y-137926667D01*
X190321667Y-137926667D01*
X190317797Y-138004810D01*
X190289327Y-138011334D01*
X190169636Y-137949548D01*
X190152334Y-137926667D01*
X190156204Y-137848523D01*
X190184674Y-137842000D01*
X190304365Y-137903786D01*
X190321667Y-137926667D01*
X191506302Y-137926667D01*
X191507655Y-137907586D01*
X191529642Y-137656117D01*
X191531382Y-137630334D01*
X190533334Y-137630334D01*
X190491000Y-137672667D01*
X190448667Y-137630334D01*
X190491000Y-137588000D01*
X190533334Y-137630334D01*
X191531382Y-137630334D01*
X191538528Y-137524500D01*
X191558117Y-137461000D01*
X190787334Y-137461000D01*
X190745000Y-137503334D01*
X190702667Y-137461000D01*
X190745000Y-137418667D01*
X190787334Y-137461000D01*
X191558117Y-137461000D01*
X191587513Y-137365712D01*
X191700279Y-137357854D01*
X191865455Y-137500116D01*
X191907175Y-137550814D01*
X192050520Y-137689844D01*
X192167461Y-137733589D01*
X192173361Y-137731864D01*
X192324367Y-137731283D01*
X192438334Y-137763099D01*
X192520170Y-137808204D01*
X193181719Y-137808204D01*
X193180931Y-137790847D01*
X193294248Y-137770636D01*
X193343209Y-137784163D01*
X193375279Y-137821758D01*
X194365425Y-137821758D01*
X194343334Y-137799667D01*
X194385667Y-137757334D01*
X194428000Y-137799667D01*
X194682837Y-137799667D01*
X194539013Y-137545667D01*
X193412000Y-137545667D01*
X193369667Y-137588000D01*
X193327334Y-137545667D01*
X193369667Y-137503334D01*
X193412000Y-137545667D01*
X194539013Y-137545667D01*
X194530278Y-137530242D01*
X194487403Y-137461000D01*
X194089334Y-137461000D01*
X194047000Y-137503334D01*
X194004667Y-137461000D01*
X194047000Y-137418667D01*
X194089334Y-137461000D01*
X194487403Y-137461000D01*
X194434976Y-137376334D01*
X193835334Y-137376334D01*
X193793000Y-137418667D01*
X193750667Y-137376334D01*
X193793000Y-137334000D01*
X193835334Y-137376334D01*
X194434976Y-137376334D01*
X194390777Y-137304956D01*
X193342347Y-137304956D01*
X193284777Y-137387658D01*
X193257480Y-137417965D01*
X193028858Y-137544242D01*
X192777000Y-137568930D01*
X192438334Y-137563971D01*
X192777000Y-137503334D01*
X192951722Y-137463816D01*
X192967644Y-137437774D01*
X192911056Y-137430681D01*
X192760063Y-137409856D01*
X192774161Y-137376575D01*
X192949763Y-137333282D01*
X193088146Y-137310005D01*
X193285549Y-137284647D01*
X193342347Y-137304956D01*
X194390777Y-137304956D01*
X194371504Y-137273832D01*
X194286361Y-137164667D01*
X193031000Y-137164667D01*
X193005077Y-137231307D01*
X192908997Y-137249334D01*
X192768726Y-137214790D01*
X192734667Y-137164667D01*
X192802882Y-137088728D01*
X192856670Y-137080000D01*
X193000819Y-137131600D01*
X193031000Y-137164667D01*
X194286361Y-137164667D01*
X194253787Y-137122904D01*
X194159196Y-137054769D01*
X194069798Y-137046743D01*
X194062839Y-137047925D01*
X193959954Y-137056251D01*
X193983500Y-137031550D01*
X194084667Y-136923128D01*
X194045724Y-136798761D01*
X193882769Y-136707876D01*
X193877667Y-136706566D01*
X193829616Y-136684889D01*
X193214445Y-136684889D01*
X193202823Y-136735223D01*
X193158000Y-136741334D01*
X193088310Y-136710355D01*
X193094216Y-136699000D01*
X192819334Y-136699000D01*
X192777000Y-136741334D01*
X192734667Y-136699000D01*
X192777000Y-136656667D01*
X192819334Y-136699000D01*
X193094216Y-136699000D01*
X193101556Y-136684889D01*
X193202036Y-136674756D01*
X193214445Y-136684889D01*
X193829616Y-136684889D01*
X193718996Y-136634986D01*
X193704397Y-136614334D01*
X192480667Y-136614334D01*
X192438334Y-136656667D01*
X192396000Y-136614334D01*
X192438334Y-136572000D01*
X192480667Y-136614334D01*
X193704397Y-136614334D01*
X193666000Y-136560020D01*
X193698797Y-136529667D01*
X192734667Y-136529667D01*
X192692334Y-136572000D01*
X192650000Y-136529667D01*
X192692334Y-136487334D01*
X192734667Y-136529667D01*
X193698797Y-136529667D01*
X193710541Y-136518799D01*
X193793000Y-136572000D01*
X193893340Y-136633682D01*
X193917401Y-136566270D01*
X193917308Y-136561200D01*
X193863257Y-136394973D01*
X193744858Y-136233545D01*
X193617714Y-136149997D01*
X193603438Y-136148667D01*
X193511822Y-136082753D01*
X193423831Y-135928272D01*
X193364187Y-135750115D01*
X193357612Y-135613170D01*
X193386283Y-135578684D01*
X193443398Y-135484603D01*
X193435720Y-135383560D01*
X193368186Y-135272295D01*
X193310818Y-135269874D01*
X193255407Y-135246138D01*
X193254831Y-135163088D01*
X193243865Y-134973590D01*
X193213989Y-134899184D01*
X193212856Y-134757473D01*
X193279602Y-134660303D01*
X193386532Y-134515567D01*
X193412000Y-134436164D01*
X193370621Y-134399371D01*
X193259939Y-134483783D01*
G37*
X193259939Y-134483783D02*
X193100142Y-134666847D01*
X192911413Y-134926011D01*
X192754573Y-135170657D01*
X192399133Y-135740830D01*
X192106189Y-136172486D01*
X191864494Y-136479541D01*
X191662801Y-136675912D01*
X191489864Y-136775515D01*
X191448110Y-136787303D01*
X191164003Y-136899040D01*
X190814328Y-137112277D01*
X190445495Y-137398262D01*
X190206936Y-137595054D01*
X189943557Y-137799314D01*
X189693197Y-137983333D01*
X189493694Y-138119403D01*
X189382886Y-138179815D01*
X189377083Y-138180667D01*
X189272227Y-138224674D01*
X189075507Y-138338799D01*
X188881204Y-138464118D01*
X188588019Y-138641867D01*
X188292371Y-138791412D01*
X188140721Y-138851941D01*
X187952319Y-138934424D01*
X187867939Y-139013825D01*
X187870551Y-139034157D01*
X187835279Y-139090220D01*
X187691630Y-139112000D01*
X187539463Y-139125477D01*
X187530059Y-139184605D01*
X187572595Y-139242126D01*
X187725246Y-139345474D01*
X187815795Y-139359377D01*
X188118455Y-139352808D01*
X188283263Y-139410205D01*
X188332000Y-139535334D01*
X188276392Y-139675360D01*
X188198953Y-139704667D01*
X188025981Y-139760998D01*
X187957663Y-139812909D01*
X187892540Y-139925816D01*
X187960137Y-140024576D01*
X188101083Y-140114460D01*
X188159094Y-140128000D01*
X188225418Y-140200434D01*
X188247334Y-140339667D01*
X188201030Y-140512661D01*
X188111275Y-140551334D01*
X188014916Y-140498772D01*
X188022297Y-140428645D01*
X188018540Y-140342736D01*
X187946689Y-140353037D01*
X187842576Y-140335059D01*
X187824000Y-140257003D01*
X187775091Y-140152809D01*
X187718167Y-140149167D01*
X187621100Y-140253105D01*
X187612334Y-140303230D01*
X187551659Y-140412712D01*
X187425670Y-140450347D01*
X187318417Y-140399880D01*
X187301973Y-140363243D01*
X187249665Y-140310540D01*
X187134390Y-140391987D01*
X187112129Y-140414115D01*
X187004059Y-140530407D01*
X187020978Y-140556281D01*
X187133296Y-140530298D01*
X187275394Y-140519195D01*
X187316000Y-140552335D01*
X187339875Y-140685246D01*
X187366321Y-140777242D01*
X187391149Y-140877708D01*
X187342274Y-140828653D01*
X187325284Y-140805334D01*
X187249783Y-140735114D01*
X187232630Y-140784167D01*
X187163670Y-140879407D01*
X187111389Y-140890000D01*
X186978151Y-140826405D01*
X186952639Y-140784167D01*
X186894798Y-140724951D01*
X186797417Y-140794750D01*
X186727233Y-140897779D01*
X186786834Y-140949972D01*
X186883627Y-141051962D01*
X186861377Y-141186377D01*
X186772239Y-141256763D01*
X186689389Y-141366601D01*
X186694949Y-141467932D01*
X186694100Y-141618563D01*
X186630059Y-141694265D01*
X186548355Y-141657595D01*
X186523196Y-141609181D01*
X186410838Y-141509528D01*
X186239057Y-141485808D01*
X186101336Y-141548359D01*
X186091950Y-141561483D01*
X186102567Y-141670223D01*
X186129286Y-141693480D01*
X186213248Y-141803556D01*
X186151382Y-141890552D01*
X186064817Y-141906000D01*
X185897913Y-141845489D01*
X185769312Y-141736667D01*
X185624854Y-141608627D01*
X185524071Y-141567334D01*
X185507109Y-141618999D01*
X185593299Y-141746496D01*
X185622354Y-141778666D01*
X185740167Y-141934349D01*
X185768986Y-142039252D01*
X185763778Y-142047111D01*
X185671401Y-142034239D01*
X185669635Y-142033000D01*
X185368667Y-142033000D01*
X185326334Y-142075334D01*
X185284000Y-142033000D01*
X185326334Y-141990667D01*
X185368667Y-142033000D01*
X185669635Y-142033000D01*
X185519726Y-141927886D01*
X185495333Y-141905687D01*
X185357093Y-141801269D01*
X185286454Y-141797923D01*
X185284000Y-141811572D01*
X185234663Y-141875976D01*
X185199508Y-141863774D01*
X185079944Y-141869813D01*
X184897229Y-141944539D01*
X184719264Y-142051692D01*
X184613948Y-142155012D01*
X184606667Y-142180372D01*
X184679893Y-142242507D01*
X184857152Y-142298944D01*
X184867496Y-142301066D01*
X185032370Y-142350923D01*
X185040603Y-142408793D01*
X185015663Y-142428521D01*
X184989110Y-142470380D01*
X185116335Y-142454343D01*
X185128497Y-142451568D01*
X185360666Y-142457205D01*
X185527840Y-142573173D01*
X185701687Y-142747020D01*
X185528959Y-142868004D01*
X185420395Y-142982789D01*
X185450824Y-143047449D01*
X185589109Y-143051766D01*
X185655858Y-143014255D01*
X185776775Y-142977675D01*
X185893271Y-143070466D01*
X186002714Y-143212244D01*
X186087395Y-143344184D01*
X186122011Y-143422346D01*
X186088531Y-143409568D01*
X185973536Y-143399239D01*
X185916355Y-143432195D01*
X185758238Y-143476996D01*
X185733000Y-143472334D01*
X185368667Y-143472334D01*
X185326334Y-143514667D01*
X185284000Y-143472334D01*
X185326334Y-143430000D01*
X185368667Y-143472334D01*
X185733000Y-143472334D01*
X185660756Y-143458989D01*
X185556479Y-143407717D01*
X185606775Y-143362720D01*
X185671191Y-143336479D01*
X185763163Y-143289750D01*
X185707116Y-143265711D01*
X185601500Y-143256034D01*
X185407274Y-143236428D01*
X185305167Y-143217527D01*
X185181168Y-143176145D01*
X185051167Y-143133569D01*
X184903673Y-143057985D01*
X184860667Y-142996792D01*
X184912883Y-142925767D01*
X185033895Y-142967860D01*
X185088178Y-143014044D01*
X185191682Y-143056242D01*
X185245046Y-143001200D01*
X185237944Y-142881126D01*
X185124318Y-142762247D01*
X184960900Y-142690722D01*
X184862305Y-142689789D01*
X184761768Y-142780900D01*
X184755952Y-142850275D01*
X184715974Y-143012650D01*
X184653528Y-143087576D01*
X184563464Y-143141008D01*
X184555224Y-143057524D01*
X184562882Y-143014204D01*
X184547264Y-142868216D01*
X184481861Y-142837334D01*
X184349071Y-142770986D01*
X184325205Y-142731500D01*
X184315117Y-142787097D01*
X184305470Y-142993343D01*
X184296604Y-143331553D01*
X184288856Y-143783045D01*
X184282565Y-144329133D01*
X184278070Y-144951134D01*
X184276121Y-145440834D01*
X184268611Y-148256000D01*
X185432472Y-148257949D01*
X185782760Y-148258883D01*
X186275543Y-148260696D01*
X186883987Y-148263265D01*
X187581258Y-148266466D01*
X188340521Y-148270176D01*
X189134941Y-148274270D01*
X189937684Y-148278626D01*
X190025334Y-148279116D01*
X190946781Y-148283101D01*
X191966253Y-148285468D01*
X193036056Y-148286240D01*
X194108496Y-148285439D01*
X195135877Y-148283086D01*
X196070505Y-148279203D01*
X196571206Y-148276118D01*
X199688079Y-148253903D01*
X199650419Y-148129000D01*
X186046000Y-148129000D01*
X186003667Y-148171334D01*
X185961334Y-148129000D01*
X186003667Y-148086667D01*
X186046000Y-148129000D01*
X199650419Y-148129000D01*
X199630956Y-148064451D01*
X199555793Y-147846187D01*
X199467678Y-147621000D01*
X199397220Y-147451667D01*
X185538000Y-147451667D01*
X185495667Y-147494000D01*
X185453334Y-147451667D01*
X185495667Y-147409334D01*
X185538000Y-147451667D01*
X199397220Y-147451667D01*
X199296789Y-147210299D01*
X185453334Y-147210299D01*
X185407009Y-147289228D01*
X185312316Y-147409431D01*
X185235676Y-147487692D01*
X185229457Y-147490780D01*
X185224486Y-147421259D01*
X185229457Y-147293134D01*
X185275065Y-147148063D01*
X185347500Y-147132859D01*
X185445159Y-147193001D01*
X185453334Y-147210299D01*
X199296789Y-147210299D01*
X199157962Y-146876655D01*
X185418890Y-146876655D01*
X185407385Y-146907184D01*
X185325651Y-146982258D01*
X185285657Y-146896751D01*
X185284000Y-146854003D01*
X185325657Y-146766801D01*
X185370048Y-146775187D01*
X185418890Y-146876655D01*
X199157962Y-146876655D01*
X199133523Y-146817923D01*
X199098223Y-146732000D01*
X185114667Y-146732000D01*
X185083689Y-146801690D01*
X185058223Y-146788445D01*
X185048090Y-146687965D01*
X185058223Y-146675556D01*
X185108557Y-146687178D01*
X185114667Y-146732000D01*
X199098223Y-146732000D01*
X198863017Y-146159499D01*
X198667601Y-145673667D01*
X184691334Y-145673667D01*
X184649000Y-145716000D01*
X184606667Y-145673667D01*
X184649000Y-145631334D01*
X184691334Y-145673667D01*
X198667601Y-145673667D01*
X198652115Y-145635167D01*
X198617815Y-145546667D01*
X186723334Y-145546667D01*
X186692356Y-145616357D01*
X186666889Y-145603111D01*
X186656756Y-145502632D01*
X186666889Y-145490222D01*
X186717224Y-145501845D01*
X186723334Y-145546667D01*
X198617815Y-145546667D01*
X198522712Y-145301286D01*
X184491950Y-145301286D01*
X184462995Y-145428715D01*
X184411036Y-145540494D01*
X184381871Y-145495198D01*
X184368851Y-145434207D01*
X184365892Y-145279629D01*
X184387516Y-145229596D01*
X184465383Y-145207173D01*
X184491950Y-145301286D01*
X198522712Y-145301286D01*
X198496774Y-145234363D01*
X198408371Y-144989278D01*
X184430650Y-144989278D01*
X184415083Y-145099092D01*
X184386181Y-145100403D01*
X184365970Y-144987086D01*
X184379497Y-144938125D01*
X184417092Y-144906055D01*
X184430650Y-144989278D01*
X198408371Y-144989278D01*
X198392950Y-144946527D01*
X198336598Y-144761097D01*
X198323674Y-144667512D01*
X198331043Y-144652491D01*
X198341516Y-144558889D01*
X186864445Y-144558889D01*
X186852823Y-144609223D01*
X186808000Y-144615334D01*
X186738310Y-144584355D01*
X186751556Y-144558889D01*
X186852036Y-144548756D01*
X186864445Y-144558889D01*
X198341516Y-144558889D01*
X198341910Y-144555373D01*
X198328133Y-144525670D01*
X186300000Y-144525670D01*
X186238540Y-144611888D01*
X186215334Y-144615334D01*
X186132868Y-144586447D01*
X186130667Y-144577997D01*
X186189996Y-144505711D01*
X186215334Y-144488334D01*
X186293353Y-144495046D01*
X186300000Y-144525670D01*
X198328133Y-144525670D01*
X198264996Y-144389556D01*
X185933112Y-144389556D01*
X185921489Y-144439890D01*
X185876667Y-144446000D01*
X185806977Y-144415022D01*
X185820223Y-144389556D01*
X185920702Y-144379423D01*
X185933112Y-144389556D01*
X198264996Y-144389556D01*
X198254442Y-144366804D01*
X198135853Y-144192000D01*
X187062000Y-144192000D01*
X187031022Y-144261690D01*
X187005556Y-144248445D01*
X186995423Y-144147965D01*
X187005556Y-144135556D01*
X187055890Y-144147178D01*
X187062000Y-144192000D01*
X198135853Y-144192000D01*
X198086191Y-144118798D01*
X198057454Y-144083420D01*
X186666149Y-144083420D01*
X186665608Y-144159250D01*
X186576653Y-144251330D01*
X186456885Y-144274847D01*
X186386122Y-144217688D01*
X186384667Y-144201875D01*
X186454915Y-144122092D01*
X186547666Y-144084458D01*
X186666149Y-144083420D01*
X198057454Y-144083420D01*
X197939328Y-143938000D01*
X197917806Y-143907371D01*
X186376454Y-143907371D01*
X186294834Y-144037012D01*
X186272427Y-144063470D01*
X186103452Y-144228068D01*
X186000690Y-144269066D01*
X185980786Y-144180284D01*
X185982500Y-144171140D01*
X186079385Y-144012832D01*
X186250846Y-143886017D01*
X186357094Y-143856026D01*
X186376454Y-143907371D01*
X197917806Y-143907371D01*
X197809192Y-143752800D01*
X197733945Y-143623603D01*
X186709686Y-143623603D01*
X186689085Y-143670918D01*
X186603835Y-143761812D01*
X186554825Y-143743166D01*
X186554000Y-143731330D01*
X186614137Y-143659718D01*
X186651749Y-143633582D01*
X186709686Y-143623603D01*
X197733945Y-143623603D01*
X197646948Y-143474232D01*
X197614941Y-143411693D01*
X186494420Y-143411693D01*
X186400215Y-143496087D01*
X186374502Y-143514667D01*
X186202124Y-143655910D01*
X185990073Y-143851103D01*
X185931637Y-143908540D01*
X185719848Y-144103940D01*
X185596671Y-144180313D01*
X185570788Y-144133189D01*
X185586536Y-144086167D01*
X185674428Y-143979265D01*
X185854746Y-143816495D01*
X185968212Y-143726334D01*
X185622667Y-143726334D01*
X185580334Y-143768667D01*
X185538000Y-143726334D01*
X185580334Y-143684000D01*
X185622667Y-143726334D01*
X185968212Y-143726334D01*
X186009675Y-143693388D01*
X186222258Y-143527425D01*
X186318312Y-143422161D01*
X186317647Y-143337865D01*
X186240071Y-143234808D01*
X186238963Y-143233535D01*
X186088334Y-143060628D01*
X186319532Y-143224148D01*
X186470982Y-143339315D01*
X186494420Y-143411693D01*
X197614941Y-143411693D01*
X197494314Y-143176000D01*
X197453934Y-143091334D01*
X192297965Y-143091334D01*
X192284660Y-143211529D01*
X192255261Y-143197167D01*
X192244078Y-143023825D01*
X192252168Y-142996097D01*
X186024001Y-142996097D01*
X185961979Y-142955517D01*
X185950828Y-142944578D01*
X185883951Y-142833570D01*
X185893019Y-142792760D01*
X185956000Y-142818168D01*
X185998224Y-142897182D01*
X186024001Y-142996097D01*
X192252168Y-142996097D01*
X192255261Y-142985500D01*
X192286163Y-142974864D01*
X192297965Y-143091334D01*
X197453934Y-143091334D01*
X197265487Y-142696222D01*
X194823112Y-142696222D01*
X194811489Y-142746557D01*
X194766667Y-142752667D01*
X194696977Y-142721689D01*
X194710223Y-142696222D01*
X194810702Y-142686089D01*
X194823112Y-142696222D01*
X197265487Y-142696222D01*
X197162023Y-142479293D01*
X197137516Y-142428320D01*
X185961334Y-142428320D01*
X185904445Y-142439959D01*
X185766614Y-142361174D01*
X185757504Y-142354453D01*
X185638837Y-142241155D01*
X185629988Y-142174619D01*
X185633350Y-142173162D01*
X185760749Y-142199157D01*
X185897185Y-142305087D01*
X185961331Y-142427684D01*
X185961334Y-142428320D01*
X197137516Y-142428320D01*
X197069568Y-142287000D01*
X186977334Y-142287000D01*
X186935000Y-142329334D01*
X186892667Y-142287000D01*
X186935000Y-142244667D01*
X186977334Y-142287000D01*
X197069568Y-142287000D01*
X196888969Y-141911384D01*
X196662747Y-141447640D01*
X196659100Y-141440334D01*
X187316000Y-141440334D01*
X187273667Y-141482667D01*
X187231334Y-141440334D01*
X187273667Y-141398000D01*
X187316000Y-141440334D01*
X196659100Y-141440334D01*
X196595704Y-141313334D01*
X187104334Y-141313334D01*
X187097621Y-141391352D01*
X187066997Y-141398000D01*
X186980779Y-141336540D01*
X186977334Y-141313334D01*
X187006221Y-141230868D01*
X187014670Y-141228667D01*
X187086956Y-141287996D01*
X187104334Y-141313334D01*
X196595704Y-141313334D01*
X196470954Y-141063427D01*
X196356088Y-140840611D01*
X192304650Y-140840611D01*
X192289083Y-140950425D01*
X192260181Y-140951736D01*
X192239970Y-140838419D01*
X192253497Y-140789459D01*
X192291092Y-140757388D01*
X192304650Y-140840611D01*
X196356088Y-140840611D01*
X196327466Y-140785091D01*
X193798612Y-140785091D01*
X193715389Y-140798649D01*
X193605575Y-140783083D01*
X193604264Y-140754181D01*
X193717581Y-140733969D01*
X193766542Y-140747497D01*
X193798612Y-140785091D01*
X196327466Y-140785091D01*
X196301185Y-140734112D01*
X196141036Y-140435063D01*
X196088063Y-140339667D01*
X194851334Y-140339667D01*
X194809000Y-140382000D01*
X194766667Y-140339667D01*
X194809000Y-140297334D01*
X194851334Y-140339667D01*
X196088063Y-140339667D01*
X195978101Y-140141644D01*
X195946315Y-140085667D01*
X194851334Y-140085667D01*
X194809000Y-140128000D01*
X194766667Y-140085667D01*
X192734667Y-140085667D01*
X192692334Y-140128000D01*
X192650000Y-140085667D01*
X192692334Y-140043334D01*
X192734667Y-140085667D01*
X194766667Y-140085667D01*
X194809000Y-140043334D01*
X194851334Y-140085667D01*
X195946315Y-140085667D01*
X195874198Y-139958667D01*
X195802009Y-139831667D01*
X194766667Y-139831667D01*
X194724334Y-139874000D01*
X194682000Y-139831667D01*
X194724334Y-139789334D01*
X194766667Y-139831667D01*
X195802009Y-139831667D01*
X195671275Y-139601671D01*
X195614167Y-139500056D01*
X193412000Y-139500056D01*
X193362647Y-139592774D01*
X193261097Y-139577989D01*
X193177403Y-139466542D01*
X193202237Y-139408334D01*
X192565334Y-139408334D01*
X192523000Y-139450667D01*
X192480667Y-139408334D01*
X192523000Y-139366000D01*
X192565334Y-139408334D01*
X193202237Y-139408334D01*
X193214252Y-139380175D01*
X193277945Y-139366000D01*
X193394577Y-139434170D01*
X193412000Y-139500056D01*
X195614167Y-139500056D01*
X195575033Y-139430425D01*
X194645279Y-139430425D01*
X194562056Y-139443983D01*
X194452242Y-139428416D01*
X194451332Y-139408334D01*
X194174000Y-139408334D01*
X194131667Y-139450667D01*
X194089334Y-139408334D01*
X194131667Y-139366000D01*
X194174000Y-139408334D01*
X194451332Y-139408334D01*
X194450931Y-139399514D01*
X194564248Y-139379303D01*
X194613209Y-139392830D01*
X194645279Y-139430425D01*
X195575033Y-139430425D01*
X195512480Y-139319122D01*
X192812563Y-139319122D01*
X192723879Y-139329648D01*
X192692334Y-139321010D01*
X192641193Y-139304881D01*
X192035139Y-139304881D01*
X192019560Y-139358623D01*
X191935811Y-139445521D01*
X191915453Y-139408334D01*
X188840000Y-139408334D01*
X188797667Y-139450667D01*
X188755334Y-139408334D01*
X188797667Y-139366000D01*
X188840000Y-139408334D01*
X191915453Y-139408334D01*
X191893541Y-139368312D01*
X191889909Y-139300194D01*
X188670667Y-139300194D01*
X188650299Y-139401579D01*
X188558949Y-139380607D01*
X188501334Y-139346351D01*
X188369887Y-139247119D01*
X188332000Y-139194443D01*
X188403190Y-139156887D01*
X188501334Y-139148286D01*
X188644126Y-139208734D01*
X188670667Y-139300194D01*
X191889909Y-139300194D01*
X191888000Y-139264400D01*
X191908743Y-139141567D01*
X191980258Y-139170405D01*
X191982223Y-139172356D01*
X192035139Y-139304881D01*
X192641193Y-139304881D01*
X192495440Y-139258913D01*
X192424176Y-139236225D01*
X192335239Y-139169604D01*
X192371861Y-139102273D01*
X192503943Y-139064456D01*
X192640018Y-139125415D01*
X192781646Y-139239965D01*
X192812563Y-139319122D01*
X195512480Y-139319122D01*
X195496438Y-139290579D01*
X195467931Y-139239000D01*
X194512667Y-139239000D01*
X194470334Y-139281334D01*
X194428000Y-139239000D01*
X194470334Y-139196667D01*
X194512667Y-139239000D01*
X195467931Y-139239000D01*
X195433109Y-139175996D01*
X193108963Y-139175996D01*
X193057516Y-139177283D01*
X192937389Y-139073686D01*
X192929070Y-139055556D01*
X189489112Y-139055556D01*
X189477489Y-139105890D01*
X189432667Y-139112000D01*
X189362977Y-139081022D01*
X189376223Y-139055556D01*
X189476702Y-139045423D01*
X189489112Y-139055556D01*
X192929070Y-139055556D01*
X192923403Y-139043209D01*
X192928460Y-138985000D01*
X191888000Y-138985000D01*
X191845667Y-139027334D01*
X191803334Y-138985000D01*
X191845667Y-138942667D01*
X188586000Y-138942667D01*
X188517085Y-139016971D01*
X188454004Y-139027334D01*
X188366369Y-138986288D01*
X188374334Y-138942667D01*
X188482577Y-138861230D01*
X188506331Y-138858000D01*
X188583720Y-138922579D01*
X188586000Y-138942667D01*
X191845667Y-138942667D01*
X191888000Y-138985000D01*
X192928460Y-138985000D01*
X192931272Y-138952640D01*
X193008534Y-138957883D01*
X193093427Y-139047637D01*
X193106666Y-139076742D01*
X193108963Y-139175996D01*
X195433109Y-139175996D01*
X195374341Y-139069667D01*
X194089334Y-139069667D01*
X194047000Y-139112000D01*
X194004667Y-139069667D01*
X194047000Y-139027334D01*
X194089334Y-139069667D01*
X195374341Y-139069667D01*
X195368589Y-139059261D01*
X195307132Y-138942667D01*
X195289982Y-138909574D01*
X193570943Y-138909574D01*
X193549923Y-139026668D01*
X193524889Y-139055556D01*
X193400966Y-139109487D01*
X193330173Y-139021365D01*
X193327334Y-138985000D01*
X193395107Y-138872752D01*
X193454334Y-138858000D01*
X193570943Y-138909574D01*
X195289982Y-138909574D01*
X195244540Y-138821890D01*
X195187886Y-138716889D01*
X194569112Y-138716889D01*
X194557489Y-138767223D01*
X194512667Y-138773334D01*
X194442977Y-138742355D01*
X194456223Y-138716889D01*
X194556702Y-138706756D01*
X194569112Y-138716889D01*
X195187886Y-138716889D01*
X195117900Y-138587180D01*
X195094760Y-138544896D01*
X194213477Y-138544896D01*
X194194640Y-138575582D01*
X194125945Y-138658824D01*
X194136136Y-138695898D01*
X194160811Y-138770086D01*
X194099398Y-138742545D01*
X194046349Y-138688667D01*
X193115667Y-138688667D01*
X193111797Y-138766810D01*
X193083327Y-138773334D01*
X192963636Y-138711548D01*
X192946334Y-138688667D01*
X192948430Y-138646334D01*
X192734667Y-138646334D01*
X192692334Y-138688667D01*
X192650000Y-138646334D01*
X192664112Y-138632222D01*
X192367778Y-138632222D01*
X192356156Y-138682557D01*
X192311334Y-138688667D01*
X192241644Y-138657689D01*
X192254889Y-138632222D01*
X192355369Y-138622089D01*
X192367778Y-138632222D01*
X192664112Y-138632222D01*
X192692334Y-138604000D01*
X192734667Y-138646334D01*
X192948430Y-138646334D01*
X192950204Y-138610523D01*
X192978674Y-138604000D01*
X193098365Y-138665786D01*
X193115667Y-138688667D01*
X194046349Y-138688667D01*
X194004667Y-138646334D01*
X193951603Y-138552733D01*
X193967256Y-138547556D01*
X193807112Y-138547556D01*
X193795489Y-138597890D01*
X193750667Y-138604000D01*
X193680977Y-138573022D01*
X193694223Y-138547556D01*
X193794702Y-138537423D01*
X193807112Y-138547556D01*
X193967256Y-138547556D01*
X194034386Y-138525355D01*
X194100134Y-138526018D01*
X194213477Y-138544896D01*
X195094760Y-138544896D01*
X195027082Y-138421230D01*
X193802547Y-138421230D01*
X193678021Y-138412975D01*
X193636295Y-138403068D01*
X193473800Y-138382623D01*
X193411621Y-138411887D01*
X193336788Y-138458804D01*
X193153354Y-138489660D01*
X193115288Y-138492148D01*
X192919886Y-138482446D01*
X192825458Y-138440541D01*
X192474783Y-138440541D01*
X192424354Y-138516714D01*
X192396000Y-138519334D01*
X192330421Y-138447625D01*
X192328481Y-138434667D01*
X192142000Y-138434667D01*
X192111022Y-138504357D01*
X192085556Y-138491111D01*
X192084666Y-138482279D01*
X191874920Y-138482279D01*
X191853986Y-138586120D01*
X191790253Y-138585529D01*
X191763680Y-138561667D01*
X189178667Y-138561667D01*
X189136334Y-138604000D01*
X189094000Y-138561667D01*
X189136334Y-138519334D01*
X189178667Y-138561667D01*
X191763680Y-138561667D01*
X191686148Y-138492046D01*
X191676334Y-138448778D01*
X191706023Y-138386636D01*
X190693694Y-138386636D01*
X190644420Y-138426754D01*
X190528337Y-138434667D01*
X190410292Y-138403408D01*
X190404049Y-138353698D01*
X190514191Y-138307573D01*
X190578379Y-138320423D01*
X190693694Y-138386636D01*
X191706023Y-138386636D01*
X191721853Y-138353504D01*
X191811854Y-138371370D01*
X191874920Y-138482279D01*
X192084666Y-138482279D01*
X192075423Y-138390632D01*
X192085556Y-138378222D01*
X192135890Y-138389845D01*
X192142000Y-138434667D01*
X192328481Y-138434667D01*
X192312630Y-138328834D01*
X192324065Y-138223000D01*
X190110000Y-138223000D01*
X190067667Y-138265334D01*
X190025334Y-138223000D01*
X190067667Y-138180667D01*
X190110000Y-138223000D01*
X192324065Y-138223000D01*
X192325998Y-138205119D01*
X192375800Y-138235535D01*
X192396000Y-138265334D01*
X192474783Y-138440541D01*
X192825458Y-138440541D01*
X192821969Y-138438993D01*
X192819334Y-138428648D01*
X192885827Y-138354728D01*
X192920183Y-138350000D01*
X192940966Y-138309518D01*
X192856683Y-138225693D01*
X192758130Y-138140841D01*
X192788307Y-138106482D01*
X192964843Y-138098693D01*
X193149185Y-138114504D01*
X193198922Y-138179651D01*
X193186329Y-138228965D01*
X193178529Y-138312635D01*
X193270997Y-138330411D01*
X193433290Y-138306029D01*
X193689140Y-138292895D01*
X193795933Y-138354745D01*
X193802547Y-138421230D01*
X195027082Y-138421230D01*
X194957209Y-138293556D01*
X194230445Y-138293556D01*
X194218823Y-138343890D01*
X194174000Y-138350000D01*
X194104310Y-138319022D01*
X194117556Y-138293556D01*
X194218036Y-138283423D01*
X194230445Y-138293556D01*
X194957209Y-138293556D01*
X194945671Y-138272475D01*
X194789996Y-137990748D01*
X194295138Y-137990748D01*
X194185565Y-138085539D01*
X193997727Y-138150673D01*
X193835334Y-138163897D01*
X193539000Y-138153567D01*
X193661748Y-138138334D01*
X193496667Y-138138334D01*
X193454334Y-138180667D01*
X193412000Y-138138334D01*
X193454334Y-138096000D01*
X193496667Y-138138334D01*
X193661748Y-138138334D01*
X193814167Y-138119419D01*
X194016880Y-138059973D01*
X194089334Y-137963636D01*
X194093472Y-137954889D01*
X193553112Y-137954889D01*
X193541489Y-138005223D01*
X193496667Y-138011334D01*
X193426977Y-137980355D01*
X193430409Y-137973756D01*
X193140438Y-137973756D01*
X193038674Y-137987786D01*
X192946334Y-137989982D01*
X192772083Y-137983167D01*
X192727108Y-137963980D01*
X192754847Y-137953161D01*
X192958168Y-137937390D01*
X193093513Y-137951452D01*
X193140438Y-137973756D01*
X193430409Y-137973756D01*
X193440223Y-137954889D01*
X193540702Y-137944756D01*
X193553112Y-137954889D01*
X194093472Y-137954889D01*
X194133532Y-137870222D01*
X193807112Y-137870222D01*
X193795489Y-137920557D01*
X193750667Y-137926667D01*
X193680977Y-137895689D01*
X193694223Y-137870222D01*
X193794702Y-137860089D01*
X193807112Y-137870222D01*
X194133532Y-137870222D01*
X194142509Y-137851251D01*
X194259206Y-137873454D01*
X194281800Y-137893355D01*
X194295138Y-137990748D01*
X194789996Y-137990748D01*
X194748040Y-137914820D01*
X194682837Y-137799667D01*
X194428000Y-137799667D01*
X194385667Y-137842000D01*
X194365425Y-137821758D01*
X193375279Y-137821758D01*
X193292056Y-137835316D01*
X193182242Y-137819749D01*
X193181719Y-137808204D01*
X192520170Y-137808204D01*
X192458833Y-137832252D01*
X192311334Y-137842000D01*
X192131803Y-137856168D01*
X192105102Y-137884988D01*
X192184334Y-137926667D01*
X192296553Y-137982586D01*
X192255268Y-138002388D01*
X192200504Y-138005383D01*
X192097321Y-138046709D01*
X192099667Y-138096000D01*
X192109701Y-138171705D01*
X192027544Y-138164419D01*
X191905445Y-138079533D01*
X191901408Y-138075541D01*
X191797348Y-138015623D01*
X191724608Y-138086388D01*
X191623146Y-138163975D01*
X191537328Y-138105136D01*
X191505267Y-137941283D01*
X191506302Y-137926667D01*
X190321667Y-137926667D01*
X190317797Y-138004810D01*
X190289327Y-138011334D01*
X190169636Y-137949548D01*
X190152334Y-137926667D01*
X190156204Y-137848523D01*
X190184674Y-137842000D01*
X190304365Y-137903786D01*
X190321667Y-137926667D01*
X191506302Y-137926667D01*
X191507655Y-137907586D01*
X191529642Y-137656117D01*
X191531382Y-137630334D01*
X190533334Y-137630334D01*
X190491000Y-137672667D01*
X190448667Y-137630334D01*
X190491000Y-137588000D01*
X190533334Y-137630334D01*
X191531382Y-137630334D01*
X191538528Y-137524500D01*
X191558117Y-137461000D01*
X190787334Y-137461000D01*
X190745000Y-137503334D01*
X190702667Y-137461000D01*
X190745000Y-137418667D01*
X190787334Y-137461000D01*
X191558117Y-137461000D01*
X191587513Y-137365712D01*
X191700279Y-137357854D01*
X191865455Y-137500116D01*
X191907175Y-137550814D01*
X192050520Y-137689844D01*
X192167461Y-137733589D01*
X192173361Y-137731864D01*
X192324367Y-137731283D01*
X192438334Y-137763099D01*
X192520170Y-137808204D01*
X193181719Y-137808204D01*
X193180931Y-137790847D01*
X193294248Y-137770636D01*
X193343209Y-137784163D01*
X193375279Y-137821758D01*
X194365425Y-137821758D01*
X194343334Y-137799667D01*
X194385667Y-137757334D01*
X194428000Y-137799667D01*
X194682837Y-137799667D01*
X194539013Y-137545667D01*
X193412000Y-137545667D01*
X193369667Y-137588000D01*
X193327334Y-137545667D01*
X193369667Y-137503334D01*
X193412000Y-137545667D01*
X194539013Y-137545667D01*
X194530278Y-137530242D01*
X194487403Y-137461000D01*
X194089334Y-137461000D01*
X194047000Y-137503334D01*
X194004667Y-137461000D01*
X194047000Y-137418667D01*
X194089334Y-137461000D01*
X194487403Y-137461000D01*
X194434976Y-137376334D01*
X193835334Y-137376334D01*
X193793000Y-137418667D01*
X193750667Y-137376334D01*
X193793000Y-137334000D01*
X193835334Y-137376334D01*
X194434976Y-137376334D01*
X194390777Y-137304956D01*
X193342347Y-137304956D01*
X193284777Y-137387658D01*
X193257480Y-137417965D01*
X193028858Y-137544242D01*
X192777000Y-137568930D01*
X192438334Y-137563971D01*
X192777000Y-137503334D01*
X192951722Y-137463816D01*
X192967644Y-137437774D01*
X192911056Y-137430681D01*
X192760063Y-137409856D01*
X192774161Y-137376575D01*
X192949763Y-137333282D01*
X193088146Y-137310005D01*
X193285549Y-137284647D01*
X193342347Y-137304956D01*
X194390777Y-137304956D01*
X194371504Y-137273832D01*
X194286361Y-137164667D01*
X193031000Y-137164667D01*
X193005077Y-137231307D01*
X192908997Y-137249334D01*
X192768726Y-137214790D01*
X192734667Y-137164667D01*
X192802882Y-137088728D01*
X192856670Y-137080000D01*
X193000819Y-137131600D01*
X193031000Y-137164667D01*
X194286361Y-137164667D01*
X194253787Y-137122904D01*
X194159196Y-137054769D01*
X194069798Y-137046743D01*
X194062839Y-137047925D01*
X193959954Y-137056251D01*
X193983500Y-137031550D01*
X194084667Y-136923128D01*
X194045724Y-136798761D01*
X193882769Y-136707876D01*
X193877667Y-136706566D01*
X193829616Y-136684889D01*
X193214445Y-136684889D01*
X193202823Y-136735223D01*
X193158000Y-136741334D01*
X193088310Y-136710355D01*
X193094216Y-136699000D01*
X192819334Y-136699000D01*
X192777000Y-136741334D01*
X192734667Y-136699000D01*
X192777000Y-136656667D01*
X192819334Y-136699000D01*
X193094216Y-136699000D01*
X193101556Y-136684889D01*
X193202036Y-136674756D01*
X193214445Y-136684889D01*
X193829616Y-136684889D01*
X193718996Y-136634986D01*
X193704397Y-136614334D01*
X192480667Y-136614334D01*
X192438334Y-136656667D01*
X192396000Y-136614334D01*
X192438334Y-136572000D01*
X192480667Y-136614334D01*
X193704397Y-136614334D01*
X193666000Y-136560020D01*
X193698797Y-136529667D01*
X192734667Y-136529667D01*
X192692334Y-136572000D01*
X192650000Y-136529667D01*
X192692334Y-136487334D01*
X192734667Y-136529667D01*
X193698797Y-136529667D01*
X193710541Y-136518799D01*
X193793000Y-136572000D01*
X193893340Y-136633682D01*
X193917401Y-136566270D01*
X193917308Y-136561200D01*
X193863257Y-136394973D01*
X193744858Y-136233545D01*
X193617714Y-136149997D01*
X193603438Y-136148667D01*
X193511822Y-136082753D01*
X193423831Y-135928272D01*
X193364187Y-135750115D01*
X193357612Y-135613170D01*
X193386283Y-135578684D01*
X193443398Y-135484603D01*
X193435720Y-135383560D01*
X193368186Y-135272295D01*
X193310818Y-135269874D01*
X193255407Y-135246138D01*
X193254831Y-135163088D01*
X193243865Y-134973590D01*
X193213989Y-134899184D01*
X193212856Y-134757473D01*
X193279602Y-134660303D01*
X193386532Y-134515567D01*
X193412000Y-134436164D01*
X193370621Y-134399371D01*
X193259939Y-134483783D01*
G36*
X202408236Y-137646283D02*
G01*
X202410449Y-137835303D01*
X202421069Y-137905500D01*
X202475438Y-138190914D01*
X202563850Y-138609212D01*
X202679170Y-139129027D01*
X202814263Y-139718994D01*
X202961995Y-140347744D01*
X203115230Y-140983912D01*
X203196230Y-141313334D01*
X203318189Y-141805772D01*
X203443005Y-142310249D01*
X203556319Y-142768702D01*
X203643771Y-143123064D01*
X203646383Y-143133667D01*
X203745205Y-143565689D01*
X203842304Y-144040847D01*
X203914915Y-144446000D01*
X203975044Y-144766205D01*
X204068531Y-145198305D01*
X204183687Y-145690960D01*
X204308825Y-146192833D01*
X204338970Y-146308667D01*
X204458124Y-146768954D01*
X204565723Y-147196784D01*
X204652206Y-147553246D01*
X204708009Y-147799433D01*
X204718963Y-147854769D01*
X204774559Y-148072705D01*
X204839076Y-148208032D01*
X204852273Y-148220015D01*
X204950651Y-148230782D01*
X205195230Y-148241237D01*
X205562876Y-148251181D01*
X206030457Y-148260419D01*
X206574839Y-148268753D01*
X207172890Y-148275986D01*
X207801476Y-148281920D01*
X208437465Y-148286359D01*
X209057723Y-148289105D01*
X209639119Y-148289961D01*
X210158518Y-148288730D01*
X210592787Y-148285214D01*
X210918795Y-148279217D01*
X211076561Y-148273075D01*
X211511455Y-148247817D01*
X211350882Y-147553409D01*
X211275011Y-147219974D01*
X211174504Y-146770675D01*
X211060387Y-146255183D01*
X210943686Y-145723169D01*
X210896029Y-145504334D01*
X210657820Y-144441287D01*
X210436813Y-143530892D01*
X210227617Y-142757984D01*
X210024834Y-142107395D01*
X209823073Y-141563959D01*
X209616937Y-141112510D01*
X209401034Y-140737882D01*
X209169969Y-140424908D01*
X209036246Y-140275420D01*
X208855444Y-140099376D01*
X208671531Y-139959323D01*
X208448535Y-139836855D01*
X208150484Y-139713568D01*
X207741408Y-139571055D01*
X207514092Y-139496583D01*
X207168040Y-139378016D01*
X206700898Y-139208644D01*
X206148262Y-139001879D01*
X205545727Y-138771134D01*
X204928888Y-138529822D01*
X204584253Y-138392575D01*
X204034763Y-138173780D01*
X203534475Y-137977614D01*
X203105636Y-137812555D01*
X202770496Y-137687082D01*
X202551303Y-137609675D01*
X202473034Y-137588000D01*
X202408236Y-137646283D01*
G37*
X202408236Y-137646283D02*
X202410449Y-137835303D01*
X202421069Y-137905500D01*
X202475438Y-138190914D01*
X202563850Y-138609212D01*
X202679170Y-139129027D01*
X202814263Y-139718994D01*
X202961995Y-140347744D01*
X203115230Y-140983912D01*
X203196230Y-141313334D01*
X203318189Y-141805772D01*
X203443005Y-142310249D01*
X203556319Y-142768702D01*
X203643771Y-143123064D01*
X203646383Y-143133667D01*
X203745205Y-143565689D01*
X203842304Y-144040847D01*
X203914915Y-144446000D01*
X203975044Y-144766205D01*
X204068531Y-145198305D01*
X204183687Y-145690960D01*
X204308825Y-146192833D01*
X204338970Y-146308667D01*
X204458124Y-146768954D01*
X204565723Y-147196784D01*
X204652206Y-147553246D01*
X204708009Y-147799433D01*
X204718963Y-147854769D01*
X204774559Y-148072705D01*
X204839076Y-148208032D01*
X204852273Y-148220015D01*
X204950651Y-148230782D01*
X205195230Y-148241237D01*
X205562876Y-148251181D01*
X206030457Y-148260419D01*
X206574839Y-148268753D01*
X207172890Y-148275986D01*
X207801476Y-148281920D01*
X208437465Y-148286359D01*
X209057723Y-148289105D01*
X209639119Y-148289961D01*
X210158518Y-148288730D01*
X210592787Y-148285214D01*
X210918795Y-148279217D01*
X211076561Y-148273075D01*
X211511455Y-148247817D01*
X211350882Y-147553409D01*
X211275011Y-147219974D01*
X211174504Y-146770675D01*
X211060387Y-146255183D01*
X210943686Y-145723169D01*
X210896029Y-145504334D01*
X210657820Y-144441287D01*
X210436813Y-143530892D01*
X210227617Y-142757984D01*
X210024834Y-142107395D01*
X209823073Y-141563959D01*
X209616937Y-141112510D01*
X209401034Y-140737882D01*
X209169969Y-140424908D01*
X209036246Y-140275420D01*
X208855444Y-140099376D01*
X208671531Y-139959323D01*
X208448535Y-139836855D01*
X208150484Y-139713568D01*
X207741408Y-139571055D01*
X207514092Y-139496583D01*
X207168040Y-139378016D01*
X206700898Y-139208644D01*
X206148262Y-139001879D01*
X205545727Y-138771134D01*
X204928888Y-138529822D01*
X204584253Y-138392575D01*
X204034763Y-138173780D01*
X203534475Y-137977614D01*
X203105636Y-137812555D01*
X202770496Y-137687082D01*
X202551303Y-137609675D01*
X202473034Y-137588000D01*
X202408236Y-137646283D01*
M02*
