%TF.GenerationSoftware,KiCad,Pcbnew,(5.0.0)*%
%TF.CreationDate,2019-02-19T13:25:25-06:00*%
%TF.ProjectId,USBBreakout,555342427265616B6F75742E6B696361,rev?*%
%TF.SameCoordinates,Original*%
%TF.FileFunction,Soldermask,Bot*%
%TF.FilePolarity,Negative*%
%FSLAX46Y46*%
G04 Gerber Fmt 4.6, Leading zero omitted, Abs format (unit mm)*
G04 Created by KiCad (PCBNEW (5.0.0)) date 02/19/19 13:25:25*
%MOMM*%
%LPD*%
G01*
G04 APERTURE LIST*
%ADD10R,2.100000X2.100000*%
%ADD11O,2.100000X2.100000*%
%ADD12C,0.100000*%
%ADD13C,1.375000*%
%ADD14R,1.800000X1.600000*%
%ADD15R,1.800000X1.400000*%
%ADD16C,1.850000*%
%ADD17O,2.300000X1.600000*%
G04 APERTURE END LIST*
D10*
X160528000Y-95821500D03*
D11*
X160528000Y-98361500D03*
X157988000Y-95821500D03*
X157988000Y-98361500D03*
X155448000Y-95821500D03*
X155448000Y-98361500D03*
X152908000Y-95821500D03*
X152908000Y-98361500D03*
X150368000Y-95821500D03*
X150368000Y-98361500D03*
D12*
G36*
X153434443Y-85737655D02*
X153467812Y-85742605D01*
X153500535Y-85750802D01*
X153532297Y-85762166D01*
X153562793Y-85776590D01*
X153591727Y-85793932D01*
X153618823Y-85814028D01*
X153643818Y-85836682D01*
X153666472Y-85861677D01*
X153686568Y-85888773D01*
X153703910Y-85917707D01*
X153718334Y-85948203D01*
X153729698Y-85979965D01*
X153737895Y-86012688D01*
X153742845Y-86046057D01*
X153744500Y-86079750D01*
X153744500Y-86767250D01*
X153742845Y-86800943D01*
X153737895Y-86834312D01*
X153729698Y-86867035D01*
X153718334Y-86898797D01*
X153703910Y-86929293D01*
X153686568Y-86958227D01*
X153666472Y-86985323D01*
X153643818Y-87010318D01*
X153618823Y-87032972D01*
X153591727Y-87053068D01*
X153562793Y-87070410D01*
X153532297Y-87084834D01*
X153500535Y-87096198D01*
X153467812Y-87104395D01*
X153434443Y-87109345D01*
X153400750Y-87111000D01*
X152288250Y-87111000D01*
X152254557Y-87109345D01*
X152221188Y-87104395D01*
X152188465Y-87096198D01*
X152156703Y-87084834D01*
X152126207Y-87070410D01*
X152097273Y-87053068D01*
X152070177Y-87032972D01*
X152045182Y-87010318D01*
X152022528Y-86985323D01*
X152002432Y-86958227D01*
X151985090Y-86929293D01*
X151970666Y-86898797D01*
X151959302Y-86867035D01*
X151951105Y-86834312D01*
X151946155Y-86800943D01*
X151944500Y-86767250D01*
X151944500Y-86079750D01*
X151946155Y-86046057D01*
X151951105Y-86012688D01*
X151959302Y-85979965D01*
X151970666Y-85948203D01*
X151985090Y-85917707D01*
X152002432Y-85888773D01*
X152022528Y-85861677D01*
X152045182Y-85836682D01*
X152070177Y-85814028D01*
X152097273Y-85793932D01*
X152126207Y-85776590D01*
X152156703Y-85762166D01*
X152188465Y-85750802D01*
X152221188Y-85742605D01*
X152254557Y-85737655D01*
X152288250Y-85736000D01*
X153400750Y-85736000D01*
X153434443Y-85737655D01*
X153434443Y-85737655D01*
G37*
D13*
X152844500Y-86423500D03*
D12*
G36*
X153434443Y-87612655D02*
X153467812Y-87617605D01*
X153500535Y-87625802D01*
X153532297Y-87637166D01*
X153562793Y-87651590D01*
X153591727Y-87668932D01*
X153618823Y-87689028D01*
X153643818Y-87711682D01*
X153666472Y-87736677D01*
X153686568Y-87763773D01*
X153703910Y-87792707D01*
X153718334Y-87823203D01*
X153729698Y-87854965D01*
X153737895Y-87887688D01*
X153742845Y-87921057D01*
X153744500Y-87954750D01*
X153744500Y-88642250D01*
X153742845Y-88675943D01*
X153737895Y-88709312D01*
X153729698Y-88742035D01*
X153718334Y-88773797D01*
X153703910Y-88804293D01*
X153686568Y-88833227D01*
X153666472Y-88860323D01*
X153643818Y-88885318D01*
X153618823Y-88907972D01*
X153591727Y-88928068D01*
X153562793Y-88945410D01*
X153532297Y-88959834D01*
X153500535Y-88971198D01*
X153467812Y-88979395D01*
X153434443Y-88984345D01*
X153400750Y-88986000D01*
X152288250Y-88986000D01*
X152254557Y-88984345D01*
X152221188Y-88979395D01*
X152188465Y-88971198D01*
X152156703Y-88959834D01*
X152126207Y-88945410D01*
X152097273Y-88928068D01*
X152070177Y-88907972D01*
X152045182Y-88885318D01*
X152022528Y-88860323D01*
X152002432Y-88833227D01*
X151985090Y-88804293D01*
X151970666Y-88773797D01*
X151959302Y-88742035D01*
X151951105Y-88709312D01*
X151946155Y-88675943D01*
X151944500Y-88642250D01*
X151944500Y-87954750D01*
X151946155Y-87921057D01*
X151951105Y-87887688D01*
X151959302Y-87854965D01*
X151970666Y-87823203D01*
X151985090Y-87792707D01*
X152002432Y-87763773D01*
X152022528Y-87736677D01*
X152045182Y-87711682D01*
X152070177Y-87689028D01*
X152097273Y-87668932D01*
X152126207Y-87651590D01*
X152156703Y-87637166D01*
X152188465Y-87625802D01*
X152221188Y-87617605D01*
X152254557Y-87612655D01*
X152288250Y-87611000D01*
X153400750Y-87611000D01*
X153434443Y-87612655D01*
X153434443Y-87612655D01*
G37*
D13*
X152844500Y-88298500D03*
D12*
G36*
X151585943Y-83366155D02*
X151619312Y-83371105D01*
X151652035Y-83379302D01*
X151683797Y-83390666D01*
X151714293Y-83405090D01*
X151743227Y-83422432D01*
X151770323Y-83442528D01*
X151795318Y-83465182D01*
X151817972Y-83490177D01*
X151838068Y-83517273D01*
X151855410Y-83546207D01*
X151869834Y-83576703D01*
X151881198Y-83608465D01*
X151889395Y-83641188D01*
X151894345Y-83674557D01*
X151896000Y-83708250D01*
X151896000Y-84820750D01*
X151894345Y-84854443D01*
X151889395Y-84887812D01*
X151881198Y-84920535D01*
X151869834Y-84952297D01*
X151855410Y-84982793D01*
X151838068Y-85011727D01*
X151817972Y-85038823D01*
X151795318Y-85063818D01*
X151770323Y-85086472D01*
X151743227Y-85106568D01*
X151714293Y-85123910D01*
X151683797Y-85138334D01*
X151652035Y-85149698D01*
X151619312Y-85157895D01*
X151585943Y-85162845D01*
X151552250Y-85164500D01*
X150864750Y-85164500D01*
X150831057Y-85162845D01*
X150797688Y-85157895D01*
X150764965Y-85149698D01*
X150733203Y-85138334D01*
X150702707Y-85123910D01*
X150673773Y-85106568D01*
X150646677Y-85086472D01*
X150621682Y-85063818D01*
X150599028Y-85038823D01*
X150578932Y-85011727D01*
X150561590Y-84982793D01*
X150547166Y-84952297D01*
X150535802Y-84920535D01*
X150527605Y-84887812D01*
X150522655Y-84854443D01*
X150521000Y-84820750D01*
X150521000Y-83708250D01*
X150522655Y-83674557D01*
X150527605Y-83641188D01*
X150535802Y-83608465D01*
X150547166Y-83576703D01*
X150561590Y-83546207D01*
X150578932Y-83517273D01*
X150599028Y-83490177D01*
X150621682Y-83465182D01*
X150646677Y-83442528D01*
X150673773Y-83422432D01*
X150702707Y-83405090D01*
X150733203Y-83390666D01*
X150764965Y-83379302D01*
X150797688Y-83371105D01*
X150831057Y-83366155D01*
X150864750Y-83364500D01*
X151552250Y-83364500D01*
X151585943Y-83366155D01*
X151585943Y-83366155D01*
G37*
D13*
X151208500Y-84264500D03*
D12*
G36*
X153460943Y-83366155D02*
X153494312Y-83371105D01*
X153527035Y-83379302D01*
X153558797Y-83390666D01*
X153589293Y-83405090D01*
X153618227Y-83422432D01*
X153645323Y-83442528D01*
X153670318Y-83465182D01*
X153692972Y-83490177D01*
X153713068Y-83517273D01*
X153730410Y-83546207D01*
X153744834Y-83576703D01*
X153756198Y-83608465D01*
X153764395Y-83641188D01*
X153769345Y-83674557D01*
X153771000Y-83708250D01*
X153771000Y-84820750D01*
X153769345Y-84854443D01*
X153764395Y-84887812D01*
X153756198Y-84920535D01*
X153744834Y-84952297D01*
X153730410Y-84982793D01*
X153713068Y-85011727D01*
X153692972Y-85038823D01*
X153670318Y-85063818D01*
X153645323Y-85086472D01*
X153618227Y-85106568D01*
X153589293Y-85123910D01*
X153558797Y-85138334D01*
X153527035Y-85149698D01*
X153494312Y-85157895D01*
X153460943Y-85162845D01*
X153427250Y-85164500D01*
X152739750Y-85164500D01*
X152706057Y-85162845D01*
X152672688Y-85157895D01*
X152639965Y-85149698D01*
X152608203Y-85138334D01*
X152577707Y-85123910D01*
X152548773Y-85106568D01*
X152521677Y-85086472D01*
X152496682Y-85063818D01*
X152474028Y-85038823D01*
X152453932Y-85011727D01*
X152436590Y-84982793D01*
X152422166Y-84952297D01*
X152410802Y-84920535D01*
X152402605Y-84887812D01*
X152397655Y-84854443D01*
X152396000Y-84820750D01*
X152396000Y-83708250D01*
X152397655Y-83674557D01*
X152402605Y-83641188D01*
X152410802Y-83608465D01*
X152422166Y-83576703D01*
X152436590Y-83546207D01*
X152453932Y-83517273D01*
X152474028Y-83490177D01*
X152496682Y-83465182D01*
X152521677Y-83442528D01*
X152548773Y-83422432D01*
X152577707Y-83405090D01*
X152608203Y-83390666D01*
X152639965Y-83379302D01*
X152672688Y-83371105D01*
X152706057Y-83366155D01*
X152739750Y-83364500D01*
X153427250Y-83364500D01*
X153460943Y-83366155D01*
X153460943Y-83366155D01*
G37*
D13*
X153083500Y-84264500D03*
D14*
X160950000Y-86349500D03*
D15*
X160950000Y-88069500D03*
X158750000Y-88069500D03*
X158750000Y-86169500D03*
D16*
X157097000Y-89622000D03*
X157097000Y-84622000D03*
D17*
X159797000Y-90622000D03*
X159797000Y-83622000D03*
D12*
G36*
X145052443Y-89895155D02*
X145085812Y-89900105D01*
X145118535Y-89908302D01*
X145150297Y-89919666D01*
X145180793Y-89934090D01*
X145209727Y-89951432D01*
X145236823Y-89971528D01*
X145261818Y-89994182D01*
X145284472Y-90019177D01*
X145304568Y-90046273D01*
X145321910Y-90075207D01*
X145336334Y-90105703D01*
X145347698Y-90137465D01*
X145355895Y-90170188D01*
X145360845Y-90203557D01*
X145362500Y-90237250D01*
X145362500Y-90924750D01*
X145360845Y-90958443D01*
X145355895Y-90991812D01*
X145347698Y-91024535D01*
X145336334Y-91056297D01*
X145321910Y-91086793D01*
X145304568Y-91115727D01*
X145284472Y-91142823D01*
X145261818Y-91167818D01*
X145236823Y-91190472D01*
X145209727Y-91210568D01*
X145180793Y-91227910D01*
X145150297Y-91242334D01*
X145118535Y-91253698D01*
X145085812Y-91261895D01*
X145052443Y-91266845D01*
X145018750Y-91268500D01*
X143906250Y-91268500D01*
X143872557Y-91266845D01*
X143839188Y-91261895D01*
X143806465Y-91253698D01*
X143774703Y-91242334D01*
X143744207Y-91227910D01*
X143715273Y-91210568D01*
X143688177Y-91190472D01*
X143663182Y-91167818D01*
X143640528Y-91142823D01*
X143620432Y-91115727D01*
X143603090Y-91086793D01*
X143588666Y-91056297D01*
X143577302Y-91024535D01*
X143569105Y-90991812D01*
X143564155Y-90958443D01*
X143562500Y-90924750D01*
X143562500Y-90237250D01*
X143564155Y-90203557D01*
X143569105Y-90170188D01*
X143577302Y-90137465D01*
X143588666Y-90105703D01*
X143603090Y-90075207D01*
X143620432Y-90046273D01*
X143640528Y-90019177D01*
X143663182Y-89994182D01*
X143688177Y-89971528D01*
X143715273Y-89951432D01*
X143744207Y-89934090D01*
X143774703Y-89919666D01*
X143806465Y-89908302D01*
X143839188Y-89900105D01*
X143872557Y-89895155D01*
X143906250Y-89893500D01*
X145018750Y-89893500D01*
X145052443Y-89895155D01*
X145052443Y-89895155D01*
G37*
D13*
X144462500Y-90581000D03*
D12*
G36*
X145052443Y-91770155D02*
X145085812Y-91775105D01*
X145118535Y-91783302D01*
X145150297Y-91794666D01*
X145180793Y-91809090D01*
X145209727Y-91826432D01*
X145236823Y-91846528D01*
X145261818Y-91869182D01*
X145284472Y-91894177D01*
X145304568Y-91921273D01*
X145321910Y-91950207D01*
X145336334Y-91980703D01*
X145347698Y-92012465D01*
X145355895Y-92045188D01*
X145360845Y-92078557D01*
X145362500Y-92112250D01*
X145362500Y-92799750D01*
X145360845Y-92833443D01*
X145355895Y-92866812D01*
X145347698Y-92899535D01*
X145336334Y-92931297D01*
X145321910Y-92961793D01*
X145304568Y-92990727D01*
X145284472Y-93017823D01*
X145261818Y-93042818D01*
X145236823Y-93065472D01*
X145209727Y-93085568D01*
X145180793Y-93102910D01*
X145150297Y-93117334D01*
X145118535Y-93128698D01*
X145085812Y-93136895D01*
X145052443Y-93141845D01*
X145018750Y-93143500D01*
X143906250Y-93143500D01*
X143872557Y-93141845D01*
X143839188Y-93136895D01*
X143806465Y-93128698D01*
X143774703Y-93117334D01*
X143744207Y-93102910D01*
X143715273Y-93085568D01*
X143688177Y-93065472D01*
X143663182Y-93042818D01*
X143640528Y-93017823D01*
X143620432Y-92990727D01*
X143603090Y-92961793D01*
X143588666Y-92931297D01*
X143577302Y-92899535D01*
X143569105Y-92866812D01*
X143564155Y-92833443D01*
X143562500Y-92799750D01*
X143562500Y-92112250D01*
X143564155Y-92078557D01*
X143569105Y-92045188D01*
X143577302Y-92012465D01*
X143588666Y-91980703D01*
X143603090Y-91950207D01*
X143620432Y-91921273D01*
X143640528Y-91894177D01*
X143663182Y-91869182D01*
X143688177Y-91846528D01*
X143715273Y-91826432D01*
X143744207Y-91809090D01*
X143774703Y-91794666D01*
X143806465Y-91783302D01*
X143839188Y-91775105D01*
X143872557Y-91770155D01*
X143906250Y-91768500D01*
X145018750Y-91768500D01*
X145052443Y-91770155D01*
X145052443Y-91770155D01*
G37*
D13*
X144462500Y-92456000D03*
D12*
G36*
X142766443Y-91770155D02*
X142799812Y-91775105D01*
X142832535Y-91783302D01*
X142864297Y-91794666D01*
X142894793Y-91809090D01*
X142923727Y-91826432D01*
X142950823Y-91846528D01*
X142975818Y-91869182D01*
X142998472Y-91894177D01*
X143018568Y-91921273D01*
X143035910Y-91950207D01*
X143050334Y-91980703D01*
X143061698Y-92012465D01*
X143069895Y-92045188D01*
X143074845Y-92078557D01*
X143076500Y-92112250D01*
X143076500Y-92799750D01*
X143074845Y-92833443D01*
X143069895Y-92866812D01*
X143061698Y-92899535D01*
X143050334Y-92931297D01*
X143035910Y-92961793D01*
X143018568Y-92990727D01*
X142998472Y-93017823D01*
X142975818Y-93042818D01*
X142950823Y-93065472D01*
X142923727Y-93085568D01*
X142894793Y-93102910D01*
X142864297Y-93117334D01*
X142832535Y-93128698D01*
X142799812Y-93136895D01*
X142766443Y-93141845D01*
X142732750Y-93143500D01*
X141620250Y-93143500D01*
X141586557Y-93141845D01*
X141553188Y-93136895D01*
X141520465Y-93128698D01*
X141488703Y-93117334D01*
X141458207Y-93102910D01*
X141429273Y-93085568D01*
X141402177Y-93065472D01*
X141377182Y-93042818D01*
X141354528Y-93017823D01*
X141334432Y-92990727D01*
X141317090Y-92961793D01*
X141302666Y-92931297D01*
X141291302Y-92899535D01*
X141283105Y-92866812D01*
X141278155Y-92833443D01*
X141276500Y-92799750D01*
X141276500Y-92112250D01*
X141278155Y-92078557D01*
X141283105Y-92045188D01*
X141291302Y-92012465D01*
X141302666Y-91980703D01*
X141317090Y-91950207D01*
X141334432Y-91921273D01*
X141354528Y-91894177D01*
X141377182Y-91869182D01*
X141402177Y-91846528D01*
X141429273Y-91826432D01*
X141458207Y-91809090D01*
X141488703Y-91794666D01*
X141520465Y-91783302D01*
X141553188Y-91775105D01*
X141586557Y-91770155D01*
X141620250Y-91768500D01*
X142732750Y-91768500D01*
X142766443Y-91770155D01*
X142766443Y-91770155D01*
G37*
D13*
X142176500Y-92456000D03*
D12*
G36*
X142766443Y-89895155D02*
X142799812Y-89900105D01*
X142832535Y-89908302D01*
X142864297Y-89919666D01*
X142894793Y-89934090D01*
X142923727Y-89951432D01*
X142950823Y-89971528D01*
X142975818Y-89994182D01*
X142998472Y-90019177D01*
X143018568Y-90046273D01*
X143035910Y-90075207D01*
X143050334Y-90105703D01*
X143061698Y-90137465D01*
X143069895Y-90170188D01*
X143074845Y-90203557D01*
X143076500Y-90237250D01*
X143076500Y-90924750D01*
X143074845Y-90958443D01*
X143069895Y-90991812D01*
X143061698Y-91024535D01*
X143050334Y-91056297D01*
X143035910Y-91086793D01*
X143018568Y-91115727D01*
X142998472Y-91142823D01*
X142975818Y-91167818D01*
X142950823Y-91190472D01*
X142923727Y-91210568D01*
X142894793Y-91227910D01*
X142864297Y-91242334D01*
X142832535Y-91253698D01*
X142799812Y-91261895D01*
X142766443Y-91266845D01*
X142732750Y-91268500D01*
X141620250Y-91268500D01*
X141586557Y-91266845D01*
X141553188Y-91261895D01*
X141520465Y-91253698D01*
X141488703Y-91242334D01*
X141458207Y-91227910D01*
X141429273Y-91210568D01*
X141402177Y-91190472D01*
X141377182Y-91167818D01*
X141354528Y-91142823D01*
X141334432Y-91115727D01*
X141317090Y-91086793D01*
X141302666Y-91056297D01*
X141291302Y-91024535D01*
X141283105Y-90991812D01*
X141278155Y-90958443D01*
X141276500Y-90924750D01*
X141276500Y-90237250D01*
X141278155Y-90203557D01*
X141283105Y-90170188D01*
X141291302Y-90137465D01*
X141302666Y-90105703D01*
X141317090Y-90075207D01*
X141334432Y-90046273D01*
X141354528Y-90019177D01*
X141377182Y-89994182D01*
X141402177Y-89971528D01*
X141429273Y-89951432D01*
X141458207Y-89934090D01*
X141488703Y-89919666D01*
X141520465Y-89908302D01*
X141553188Y-89900105D01*
X141586557Y-89895155D01*
X141620250Y-89893500D01*
X142732750Y-89893500D01*
X142766443Y-89895155D01*
X142766443Y-89895155D01*
G37*
D13*
X142176500Y-90581000D03*
M02*
