%TF.GenerationSoftware,KiCad,Pcbnew,(5.0.0)*%
%TF.CreationDate,2019-02-19T13:25:25-06:00*%
%TF.ProjectId,USBBreakout,555342427265616B6F75742E6B696361,rev?*%
%TF.SameCoordinates,Original*%
%TF.FileFunction,Soldermask,Top*%
%TF.FilePolarity,Negative*%
%FSLAX46Y46*%
G04 Gerber Fmt 4.6, Leading zero omitted, Abs format (unit mm)*
G04 Created by KiCad (PCBNEW (5.0.0)) date 02/19/19 13:25:25*
%MOMM*%
%LPD*%
G01*
G04 APERTURE LIST*
%ADD10R,2.100000X2.100000*%
%ADD11O,2.100000X2.100000*%
%ADD12R,2.300000X1.900000*%
%ADD13C,1.850000*%
%ADD14R,1.750000X0.800000*%
%ADD15O,2.300000X1.600000*%
%ADD16R,2.300000X1.600000*%
%ADD17C,0.100000*%
%ADD18C,1.375000*%
%ADD19C,3.000000*%
%ADD20C,0.650000*%
%ADD21R,4.200000X2.400000*%
%ADD22R,1.900000X2.400000*%
G04 APERTURE END LIST*
D10*
X160528000Y-95821500D03*
D11*
X160528000Y-98361500D03*
X157988000Y-95821500D03*
X157988000Y-98361500D03*
X155448000Y-95821500D03*
X155448000Y-98361500D03*
X152908000Y-95821500D03*
X152908000Y-98361500D03*
X150368000Y-95821500D03*
X150368000Y-98361500D03*
D12*
X159797000Y-86122000D03*
D13*
X157097000Y-89622000D03*
D14*
X157097000Y-87772000D03*
X157097000Y-88422000D03*
X157097000Y-85822000D03*
X157097000Y-86472000D03*
X157097000Y-87122000D03*
D13*
X157097000Y-84622000D03*
D12*
X159797000Y-88122000D03*
D15*
X159797000Y-90622000D03*
X159797000Y-83622000D03*
D16*
X159797000Y-84222000D03*
X159797000Y-90022000D03*
D17*
G36*
X154936443Y-90668655D02*
X154969812Y-90673605D01*
X155002535Y-90681802D01*
X155034297Y-90693166D01*
X155064793Y-90707590D01*
X155093727Y-90724932D01*
X155120823Y-90745028D01*
X155145818Y-90767682D01*
X155168472Y-90792677D01*
X155188568Y-90819773D01*
X155205910Y-90848707D01*
X155220334Y-90879203D01*
X155231698Y-90910965D01*
X155239895Y-90943688D01*
X155244845Y-90977057D01*
X155246500Y-91010750D01*
X155246500Y-92123250D01*
X155244845Y-92156943D01*
X155239895Y-92190312D01*
X155231698Y-92223035D01*
X155220334Y-92254797D01*
X155205910Y-92285293D01*
X155188568Y-92314227D01*
X155168472Y-92341323D01*
X155145818Y-92366318D01*
X155120823Y-92388972D01*
X155093727Y-92409068D01*
X155064793Y-92426410D01*
X155034297Y-92440834D01*
X155002535Y-92452198D01*
X154969812Y-92460395D01*
X154936443Y-92465345D01*
X154902750Y-92467000D01*
X154215250Y-92467000D01*
X154181557Y-92465345D01*
X154148188Y-92460395D01*
X154115465Y-92452198D01*
X154083703Y-92440834D01*
X154053207Y-92426410D01*
X154024273Y-92409068D01*
X153997177Y-92388972D01*
X153972182Y-92366318D01*
X153949528Y-92341323D01*
X153929432Y-92314227D01*
X153912090Y-92285293D01*
X153897666Y-92254797D01*
X153886302Y-92223035D01*
X153878105Y-92190312D01*
X153873155Y-92156943D01*
X153871500Y-92123250D01*
X153871500Y-91010750D01*
X153873155Y-90977057D01*
X153878105Y-90943688D01*
X153886302Y-90910965D01*
X153897666Y-90879203D01*
X153912090Y-90848707D01*
X153929432Y-90819773D01*
X153949528Y-90792677D01*
X153972182Y-90767682D01*
X153997177Y-90745028D01*
X154024273Y-90724932D01*
X154053207Y-90707590D01*
X154083703Y-90693166D01*
X154115465Y-90681802D01*
X154148188Y-90673605D01*
X154181557Y-90668655D01*
X154215250Y-90667000D01*
X154902750Y-90667000D01*
X154936443Y-90668655D01*
X154936443Y-90668655D01*
G37*
D18*
X154559000Y-91567000D03*
D17*
G36*
X153061443Y-90668655D02*
X153094812Y-90673605D01*
X153127535Y-90681802D01*
X153159297Y-90693166D01*
X153189793Y-90707590D01*
X153218727Y-90724932D01*
X153245823Y-90745028D01*
X153270818Y-90767682D01*
X153293472Y-90792677D01*
X153313568Y-90819773D01*
X153330910Y-90848707D01*
X153345334Y-90879203D01*
X153356698Y-90910965D01*
X153364895Y-90943688D01*
X153369845Y-90977057D01*
X153371500Y-91010750D01*
X153371500Y-92123250D01*
X153369845Y-92156943D01*
X153364895Y-92190312D01*
X153356698Y-92223035D01*
X153345334Y-92254797D01*
X153330910Y-92285293D01*
X153313568Y-92314227D01*
X153293472Y-92341323D01*
X153270818Y-92366318D01*
X153245823Y-92388972D01*
X153218727Y-92409068D01*
X153189793Y-92426410D01*
X153159297Y-92440834D01*
X153127535Y-92452198D01*
X153094812Y-92460395D01*
X153061443Y-92465345D01*
X153027750Y-92467000D01*
X152340250Y-92467000D01*
X152306557Y-92465345D01*
X152273188Y-92460395D01*
X152240465Y-92452198D01*
X152208703Y-92440834D01*
X152178207Y-92426410D01*
X152149273Y-92409068D01*
X152122177Y-92388972D01*
X152097182Y-92366318D01*
X152074528Y-92341323D01*
X152054432Y-92314227D01*
X152037090Y-92285293D01*
X152022666Y-92254797D01*
X152011302Y-92223035D01*
X152003105Y-92190312D01*
X151998155Y-92156943D01*
X151996500Y-92123250D01*
X151996500Y-91010750D01*
X151998155Y-90977057D01*
X152003105Y-90943688D01*
X152011302Y-90910965D01*
X152022666Y-90879203D01*
X152037090Y-90848707D01*
X152054432Y-90819773D01*
X152074528Y-90792677D01*
X152097182Y-90767682D01*
X152122177Y-90745028D01*
X152149273Y-90724932D01*
X152178207Y-90707590D01*
X152208703Y-90693166D01*
X152240465Y-90681802D01*
X152273188Y-90673605D01*
X152306557Y-90668655D01*
X152340250Y-90667000D01*
X153027750Y-90667000D01*
X153061443Y-90668655D01*
X153061443Y-90668655D01*
G37*
D18*
X152684000Y-91567000D03*
D17*
G36*
X152926443Y-83134155D02*
X152959812Y-83139105D01*
X152992535Y-83147302D01*
X153024297Y-83158666D01*
X153054793Y-83173090D01*
X153083727Y-83190432D01*
X153110823Y-83210528D01*
X153135818Y-83233182D01*
X153158472Y-83258177D01*
X153178568Y-83285273D01*
X153195910Y-83314207D01*
X153210334Y-83344703D01*
X153221698Y-83376465D01*
X153229895Y-83409188D01*
X153234845Y-83442557D01*
X153236500Y-83476250D01*
X153236500Y-84163750D01*
X153234845Y-84197443D01*
X153229895Y-84230812D01*
X153221698Y-84263535D01*
X153210334Y-84295297D01*
X153195910Y-84325793D01*
X153178568Y-84354727D01*
X153158472Y-84381823D01*
X153135818Y-84406818D01*
X153110823Y-84429472D01*
X153083727Y-84449568D01*
X153054793Y-84466910D01*
X153024297Y-84481334D01*
X152992535Y-84492698D01*
X152959812Y-84500895D01*
X152926443Y-84505845D01*
X152892750Y-84507500D01*
X151780250Y-84507500D01*
X151746557Y-84505845D01*
X151713188Y-84500895D01*
X151680465Y-84492698D01*
X151648703Y-84481334D01*
X151618207Y-84466910D01*
X151589273Y-84449568D01*
X151562177Y-84429472D01*
X151537182Y-84406818D01*
X151514528Y-84381823D01*
X151494432Y-84354727D01*
X151477090Y-84325793D01*
X151462666Y-84295297D01*
X151451302Y-84263535D01*
X151443105Y-84230812D01*
X151438155Y-84197443D01*
X151436500Y-84163750D01*
X151436500Y-83476250D01*
X151438155Y-83442557D01*
X151443105Y-83409188D01*
X151451302Y-83376465D01*
X151462666Y-83344703D01*
X151477090Y-83314207D01*
X151494432Y-83285273D01*
X151514528Y-83258177D01*
X151537182Y-83233182D01*
X151562177Y-83210528D01*
X151589273Y-83190432D01*
X151618207Y-83173090D01*
X151648703Y-83158666D01*
X151680465Y-83147302D01*
X151713188Y-83139105D01*
X151746557Y-83134155D01*
X151780250Y-83132500D01*
X152892750Y-83132500D01*
X152926443Y-83134155D01*
X152926443Y-83134155D01*
G37*
D18*
X152336500Y-83820000D03*
D17*
G36*
X152926443Y-81259155D02*
X152959812Y-81264105D01*
X152992535Y-81272302D01*
X153024297Y-81283666D01*
X153054793Y-81298090D01*
X153083727Y-81315432D01*
X153110823Y-81335528D01*
X153135818Y-81358182D01*
X153158472Y-81383177D01*
X153178568Y-81410273D01*
X153195910Y-81439207D01*
X153210334Y-81469703D01*
X153221698Y-81501465D01*
X153229895Y-81534188D01*
X153234845Y-81567557D01*
X153236500Y-81601250D01*
X153236500Y-82288750D01*
X153234845Y-82322443D01*
X153229895Y-82355812D01*
X153221698Y-82388535D01*
X153210334Y-82420297D01*
X153195910Y-82450793D01*
X153178568Y-82479727D01*
X153158472Y-82506823D01*
X153135818Y-82531818D01*
X153110823Y-82554472D01*
X153083727Y-82574568D01*
X153054793Y-82591910D01*
X153024297Y-82606334D01*
X152992535Y-82617698D01*
X152959812Y-82625895D01*
X152926443Y-82630845D01*
X152892750Y-82632500D01*
X151780250Y-82632500D01*
X151746557Y-82630845D01*
X151713188Y-82625895D01*
X151680465Y-82617698D01*
X151648703Y-82606334D01*
X151618207Y-82591910D01*
X151589273Y-82574568D01*
X151562177Y-82554472D01*
X151537182Y-82531818D01*
X151514528Y-82506823D01*
X151494432Y-82479727D01*
X151477090Y-82450793D01*
X151462666Y-82420297D01*
X151451302Y-82388535D01*
X151443105Y-82355812D01*
X151438155Y-82322443D01*
X151436500Y-82288750D01*
X151436500Y-81601250D01*
X151438155Y-81567557D01*
X151443105Y-81534188D01*
X151451302Y-81501465D01*
X151462666Y-81469703D01*
X151477090Y-81439207D01*
X151494432Y-81410273D01*
X151514528Y-81383177D01*
X151537182Y-81358182D01*
X151562177Y-81335528D01*
X151589273Y-81315432D01*
X151618207Y-81298090D01*
X151648703Y-81283666D01*
X151680465Y-81272302D01*
X151713188Y-81264105D01*
X151746557Y-81259155D01*
X151780250Y-81257500D01*
X152892750Y-81257500D01*
X152926443Y-81259155D01*
X152926443Y-81259155D01*
G37*
D18*
X152336500Y-81945000D03*
D17*
G36*
X150703943Y-81259155D02*
X150737312Y-81264105D01*
X150770035Y-81272302D01*
X150801797Y-81283666D01*
X150832293Y-81298090D01*
X150861227Y-81315432D01*
X150888323Y-81335528D01*
X150913318Y-81358182D01*
X150935972Y-81383177D01*
X150956068Y-81410273D01*
X150973410Y-81439207D01*
X150987834Y-81469703D01*
X150999198Y-81501465D01*
X151007395Y-81534188D01*
X151012345Y-81567557D01*
X151014000Y-81601250D01*
X151014000Y-82288750D01*
X151012345Y-82322443D01*
X151007395Y-82355812D01*
X150999198Y-82388535D01*
X150987834Y-82420297D01*
X150973410Y-82450793D01*
X150956068Y-82479727D01*
X150935972Y-82506823D01*
X150913318Y-82531818D01*
X150888323Y-82554472D01*
X150861227Y-82574568D01*
X150832293Y-82591910D01*
X150801797Y-82606334D01*
X150770035Y-82617698D01*
X150737312Y-82625895D01*
X150703943Y-82630845D01*
X150670250Y-82632500D01*
X149557750Y-82632500D01*
X149524057Y-82630845D01*
X149490688Y-82625895D01*
X149457965Y-82617698D01*
X149426203Y-82606334D01*
X149395707Y-82591910D01*
X149366773Y-82574568D01*
X149339677Y-82554472D01*
X149314682Y-82531818D01*
X149292028Y-82506823D01*
X149271932Y-82479727D01*
X149254590Y-82450793D01*
X149240166Y-82420297D01*
X149228802Y-82388535D01*
X149220605Y-82355812D01*
X149215655Y-82322443D01*
X149214000Y-82288750D01*
X149214000Y-81601250D01*
X149215655Y-81567557D01*
X149220605Y-81534188D01*
X149228802Y-81501465D01*
X149240166Y-81469703D01*
X149254590Y-81439207D01*
X149271932Y-81410273D01*
X149292028Y-81383177D01*
X149314682Y-81358182D01*
X149339677Y-81335528D01*
X149366773Y-81315432D01*
X149395707Y-81298090D01*
X149426203Y-81283666D01*
X149457965Y-81272302D01*
X149490688Y-81264105D01*
X149524057Y-81259155D01*
X149557750Y-81257500D01*
X150670250Y-81257500D01*
X150703943Y-81259155D01*
X150703943Y-81259155D01*
G37*
D18*
X150114000Y-81945000D03*
D17*
G36*
X150703943Y-83134155D02*
X150737312Y-83139105D01*
X150770035Y-83147302D01*
X150801797Y-83158666D01*
X150832293Y-83173090D01*
X150861227Y-83190432D01*
X150888323Y-83210528D01*
X150913318Y-83233182D01*
X150935972Y-83258177D01*
X150956068Y-83285273D01*
X150973410Y-83314207D01*
X150987834Y-83344703D01*
X150999198Y-83376465D01*
X151007395Y-83409188D01*
X151012345Y-83442557D01*
X151014000Y-83476250D01*
X151014000Y-84163750D01*
X151012345Y-84197443D01*
X151007395Y-84230812D01*
X150999198Y-84263535D01*
X150987834Y-84295297D01*
X150973410Y-84325793D01*
X150956068Y-84354727D01*
X150935972Y-84381823D01*
X150913318Y-84406818D01*
X150888323Y-84429472D01*
X150861227Y-84449568D01*
X150832293Y-84466910D01*
X150801797Y-84481334D01*
X150770035Y-84492698D01*
X150737312Y-84500895D01*
X150703943Y-84505845D01*
X150670250Y-84507500D01*
X149557750Y-84507500D01*
X149524057Y-84505845D01*
X149490688Y-84500895D01*
X149457965Y-84492698D01*
X149426203Y-84481334D01*
X149395707Y-84466910D01*
X149366773Y-84449568D01*
X149339677Y-84429472D01*
X149314682Y-84406818D01*
X149292028Y-84381823D01*
X149271932Y-84354727D01*
X149254590Y-84325793D01*
X149240166Y-84295297D01*
X149228802Y-84263535D01*
X149220605Y-84230812D01*
X149215655Y-84197443D01*
X149214000Y-84163750D01*
X149214000Y-83476250D01*
X149215655Y-83442557D01*
X149220605Y-83409188D01*
X149228802Y-83376465D01*
X149240166Y-83344703D01*
X149254590Y-83314207D01*
X149271932Y-83285273D01*
X149292028Y-83258177D01*
X149314682Y-83233182D01*
X149339677Y-83210528D01*
X149366773Y-83190432D01*
X149395707Y-83173090D01*
X149426203Y-83158666D01*
X149457965Y-83147302D01*
X149490688Y-83139105D01*
X149524057Y-83134155D01*
X149557750Y-83132500D01*
X150670250Y-83132500D01*
X150703943Y-83134155D01*
X150703943Y-83134155D01*
G37*
D18*
X150114000Y-83820000D03*
D17*
G36*
X152814312Y-86004389D02*
X152842314Y-86008543D01*
X152869774Y-86015421D01*
X152896428Y-86024958D01*
X152922018Y-86037061D01*
X152946299Y-86051615D01*
X152969036Y-86068478D01*
X152990011Y-86087489D01*
X153009022Y-86108464D01*
X153025885Y-86131201D01*
X153040439Y-86155482D01*
X153052542Y-86181072D01*
X153062079Y-86207726D01*
X153068957Y-86235186D01*
X153073111Y-86263188D01*
X153074500Y-86291462D01*
X153074500Y-88714538D01*
X153073111Y-88742812D01*
X153068957Y-88770814D01*
X153062079Y-88798274D01*
X153052542Y-88824928D01*
X153040439Y-88850518D01*
X153025885Y-88874799D01*
X153009022Y-88897536D01*
X152990011Y-88918511D01*
X152969036Y-88937522D01*
X152946299Y-88954385D01*
X152922018Y-88968939D01*
X152896428Y-88981042D01*
X152869774Y-88990579D01*
X152842314Y-88997457D01*
X152814312Y-89001611D01*
X152786038Y-89003000D01*
X150362962Y-89003000D01*
X150334688Y-89001611D01*
X150306686Y-88997457D01*
X150279226Y-88990579D01*
X150252572Y-88981042D01*
X150226982Y-88968939D01*
X150202701Y-88954385D01*
X150179964Y-88937522D01*
X150158989Y-88918511D01*
X150139978Y-88897536D01*
X150123115Y-88874799D01*
X150108561Y-88850518D01*
X150096458Y-88824928D01*
X150086921Y-88798274D01*
X150080043Y-88770814D01*
X150075889Y-88742812D01*
X150074500Y-88714538D01*
X150074500Y-86291462D01*
X150075889Y-86263188D01*
X150080043Y-86235186D01*
X150086921Y-86207726D01*
X150096458Y-86181072D01*
X150108561Y-86155482D01*
X150123115Y-86131201D01*
X150139978Y-86108464D01*
X150158989Y-86087489D01*
X150179964Y-86068478D01*
X150202701Y-86051615D01*
X150226982Y-86037061D01*
X150252572Y-86024958D01*
X150279226Y-86015421D01*
X150306686Y-86008543D01*
X150334688Y-86004389D01*
X150362962Y-86003000D01*
X152786038Y-86003000D01*
X152814312Y-86004389D01*
X152814312Y-86004389D01*
G37*
D19*
X151574500Y-87503000D03*
D17*
G36*
X153977928Y-88428782D02*
X153993702Y-88431122D01*
X154009171Y-88434997D01*
X154024186Y-88440370D01*
X154038602Y-88447188D01*
X154052280Y-88455386D01*
X154065089Y-88464886D01*
X154076905Y-88475595D01*
X154087614Y-88487411D01*
X154097114Y-88500220D01*
X154105312Y-88513898D01*
X154112130Y-88528314D01*
X154117503Y-88543329D01*
X154121378Y-88558798D01*
X154123718Y-88574572D01*
X154124500Y-88590500D01*
X154124500Y-88915500D01*
X154123718Y-88931428D01*
X154121378Y-88947202D01*
X154117503Y-88962671D01*
X154112130Y-88977686D01*
X154105312Y-88992102D01*
X154097114Y-89005780D01*
X154087614Y-89018589D01*
X154076905Y-89030405D01*
X154065089Y-89041114D01*
X154052280Y-89050614D01*
X154038602Y-89058812D01*
X154024186Y-89065630D01*
X154009171Y-89071003D01*
X153993702Y-89074878D01*
X153977928Y-89077218D01*
X153962000Y-89078000D01*
X153062000Y-89078000D01*
X153046072Y-89077218D01*
X153030298Y-89074878D01*
X153014829Y-89071003D01*
X152999814Y-89065630D01*
X152985398Y-89058812D01*
X152971720Y-89050614D01*
X152958911Y-89041114D01*
X152947095Y-89030405D01*
X152936386Y-89018589D01*
X152926886Y-89005780D01*
X152918688Y-88992102D01*
X152911870Y-88977686D01*
X152906497Y-88962671D01*
X152902622Y-88947202D01*
X152900282Y-88931428D01*
X152899500Y-88915500D01*
X152899500Y-88590500D01*
X152900282Y-88574572D01*
X152902622Y-88558798D01*
X152906497Y-88543329D01*
X152911870Y-88528314D01*
X152918688Y-88513898D01*
X152926886Y-88500220D01*
X152936386Y-88487411D01*
X152947095Y-88475595D01*
X152958911Y-88464886D01*
X152971720Y-88455386D01*
X152985398Y-88447188D01*
X152999814Y-88440370D01*
X153014829Y-88434997D01*
X153030298Y-88431122D01*
X153046072Y-88428782D01*
X153062000Y-88428000D01*
X153962000Y-88428000D01*
X153977928Y-88428782D01*
X153977928Y-88428782D01*
G37*
D20*
X153512000Y-88753000D03*
D17*
G36*
X153977928Y-87928782D02*
X153993702Y-87931122D01*
X154009171Y-87934997D01*
X154024186Y-87940370D01*
X154038602Y-87947188D01*
X154052280Y-87955386D01*
X154065089Y-87964886D01*
X154076905Y-87975595D01*
X154087614Y-87987411D01*
X154097114Y-88000220D01*
X154105312Y-88013898D01*
X154112130Y-88028314D01*
X154117503Y-88043329D01*
X154121378Y-88058798D01*
X154123718Y-88074572D01*
X154124500Y-88090500D01*
X154124500Y-88415500D01*
X154123718Y-88431428D01*
X154121378Y-88447202D01*
X154117503Y-88462671D01*
X154112130Y-88477686D01*
X154105312Y-88492102D01*
X154097114Y-88505780D01*
X154087614Y-88518589D01*
X154076905Y-88530405D01*
X154065089Y-88541114D01*
X154052280Y-88550614D01*
X154038602Y-88558812D01*
X154024186Y-88565630D01*
X154009171Y-88571003D01*
X153993702Y-88574878D01*
X153977928Y-88577218D01*
X153962000Y-88578000D01*
X153062000Y-88578000D01*
X153046072Y-88577218D01*
X153030298Y-88574878D01*
X153014829Y-88571003D01*
X152999814Y-88565630D01*
X152985398Y-88558812D01*
X152971720Y-88550614D01*
X152958911Y-88541114D01*
X152947095Y-88530405D01*
X152936386Y-88518589D01*
X152926886Y-88505780D01*
X152918688Y-88492102D01*
X152911870Y-88477686D01*
X152906497Y-88462671D01*
X152902622Y-88447202D01*
X152900282Y-88431428D01*
X152899500Y-88415500D01*
X152899500Y-88090500D01*
X152900282Y-88074572D01*
X152902622Y-88058798D01*
X152906497Y-88043329D01*
X152911870Y-88028314D01*
X152918688Y-88013898D01*
X152926886Y-88000220D01*
X152936386Y-87987411D01*
X152947095Y-87975595D01*
X152958911Y-87964886D01*
X152971720Y-87955386D01*
X152985398Y-87947188D01*
X152999814Y-87940370D01*
X153014829Y-87934997D01*
X153030298Y-87931122D01*
X153046072Y-87928782D01*
X153062000Y-87928000D01*
X153962000Y-87928000D01*
X153977928Y-87928782D01*
X153977928Y-87928782D01*
G37*
D20*
X153512000Y-88253000D03*
D17*
G36*
X153977928Y-87428782D02*
X153993702Y-87431122D01*
X154009171Y-87434997D01*
X154024186Y-87440370D01*
X154038602Y-87447188D01*
X154052280Y-87455386D01*
X154065089Y-87464886D01*
X154076905Y-87475595D01*
X154087614Y-87487411D01*
X154097114Y-87500220D01*
X154105312Y-87513898D01*
X154112130Y-87528314D01*
X154117503Y-87543329D01*
X154121378Y-87558798D01*
X154123718Y-87574572D01*
X154124500Y-87590500D01*
X154124500Y-87915500D01*
X154123718Y-87931428D01*
X154121378Y-87947202D01*
X154117503Y-87962671D01*
X154112130Y-87977686D01*
X154105312Y-87992102D01*
X154097114Y-88005780D01*
X154087614Y-88018589D01*
X154076905Y-88030405D01*
X154065089Y-88041114D01*
X154052280Y-88050614D01*
X154038602Y-88058812D01*
X154024186Y-88065630D01*
X154009171Y-88071003D01*
X153993702Y-88074878D01*
X153977928Y-88077218D01*
X153962000Y-88078000D01*
X153062000Y-88078000D01*
X153046072Y-88077218D01*
X153030298Y-88074878D01*
X153014829Y-88071003D01*
X152999814Y-88065630D01*
X152985398Y-88058812D01*
X152971720Y-88050614D01*
X152958911Y-88041114D01*
X152947095Y-88030405D01*
X152936386Y-88018589D01*
X152926886Y-88005780D01*
X152918688Y-87992102D01*
X152911870Y-87977686D01*
X152906497Y-87962671D01*
X152902622Y-87947202D01*
X152900282Y-87931428D01*
X152899500Y-87915500D01*
X152899500Y-87590500D01*
X152900282Y-87574572D01*
X152902622Y-87558798D01*
X152906497Y-87543329D01*
X152911870Y-87528314D01*
X152918688Y-87513898D01*
X152926886Y-87500220D01*
X152936386Y-87487411D01*
X152947095Y-87475595D01*
X152958911Y-87464886D01*
X152971720Y-87455386D01*
X152985398Y-87447188D01*
X152999814Y-87440370D01*
X153014829Y-87434997D01*
X153030298Y-87431122D01*
X153046072Y-87428782D01*
X153062000Y-87428000D01*
X153962000Y-87428000D01*
X153977928Y-87428782D01*
X153977928Y-87428782D01*
G37*
D20*
X153512000Y-87753000D03*
D17*
G36*
X153977928Y-86928782D02*
X153993702Y-86931122D01*
X154009171Y-86934997D01*
X154024186Y-86940370D01*
X154038602Y-86947188D01*
X154052280Y-86955386D01*
X154065089Y-86964886D01*
X154076905Y-86975595D01*
X154087614Y-86987411D01*
X154097114Y-87000220D01*
X154105312Y-87013898D01*
X154112130Y-87028314D01*
X154117503Y-87043329D01*
X154121378Y-87058798D01*
X154123718Y-87074572D01*
X154124500Y-87090500D01*
X154124500Y-87415500D01*
X154123718Y-87431428D01*
X154121378Y-87447202D01*
X154117503Y-87462671D01*
X154112130Y-87477686D01*
X154105312Y-87492102D01*
X154097114Y-87505780D01*
X154087614Y-87518589D01*
X154076905Y-87530405D01*
X154065089Y-87541114D01*
X154052280Y-87550614D01*
X154038602Y-87558812D01*
X154024186Y-87565630D01*
X154009171Y-87571003D01*
X153993702Y-87574878D01*
X153977928Y-87577218D01*
X153962000Y-87578000D01*
X153062000Y-87578000D01*
X153046072Y-87577218D01*
X153030298Y-87574878D01*
X153014829Y-87571003D01*
X152999814Y-87565630D01*
X152985398Y-87558812D01*
X152971720Y-87550614D01*
X152958911Y-87541114D01*
X152947095Y-87530405D01*
X152936386Y-87518589D01*
X152926886Y-87505780D01*
X152918688Y-87492102D01*
X152911870Y-87477686D01*
X152906497Y-87462671D01*
X152902622Y-87447202D01*
X152900282Y-87431428D01*
X152899500Y-87415500D01*
X152899500Y-87090500D01*
X152900282Y-87074572D01*
X152902622Y-87058798D01*
X152906497Y-87043329D01*
X152911870Y-87028314D01*
X152918688Y-87013898D01*
X152926886Y-87000220D01*
X152936386Y-86987411D01*
X152947095Y-86975595D01*
X152958911Y-86964886D01*
X152971720Y-86955386D01*
X152985398Y-86947188D01*
X152999814Y-86940370D01*
X153014829Y-86934997D01*
X153030298Y-86931122D01*
X153046072Y-86928782D01*
X153062000Y-86928000D01*
X153962000Y-86928000D01*
X153977928Y-86928782D01*
X153977928Y-86928782D01*
G37*
D20*
X153512000Y-87253000D03*
D17*
G36*
X153977928Y-86428782D02*
X153993702Y-86431122D01*
X154009171Y-86434997D01*
X154024186Y-86440370D01*
X154038602Y-86447188D01*
X154052280Y-86455386D01*
X154065089Y-86464886D01*
X154076905Y-86475595D01*
X154087614Y-86487411D01*
X154097114Y-86500220D01*
X154105312Y-86513898D01*
X154112130Y-86528314D01*
X154117503Y-86543329D01*
X154121378Y-86558798D01*
X154123718Y-86574572D01*
X154124500Y-86590500D01*
X154124500Y-86915500D01*
X154123718Y-86931428D01*
X154121378Y-86947202D01*
X154117503Y-86962671D01*
X154112130Y-86977686D01*
X154105312Y-86992102D01*
X154097114Y-87005780D01*
X154087614Y-87018589D01*
X154076905Y-87030405D01*
X154065089Y-87041114D01*
X154052280Y-87050614D01*
X154038602Y-87058812D01*
X154024186Y-87065630D01*
X154009171Y-87071003D01*
X153993702Y-87074878D01*
X153977928Y-87077218D01*
X153962000Y-87078000D01*
X153062000Y-87078000D01*
X153046072Y-87077218D01*
X153030298Y-87074878D01*
X153014829Y-87071003D01*
X152999814Y-87065630D01*
X152985398Y-87058812D01*
X152971720Y-87050614D01*
X152958911Y-87041114D01*
X152947095Y-87030405D01*
X152936386Y-87018589D01*
X152926886Y-87005780D01*
X152918688Y-86992102D01*
X152911870Y-86977686D01*
X152906497Y-86962671D01*
X152902622Y-86947202D01*
X152900282Y-86931428D01*
X152899500Y-86915500D01*
X152899500Y-86590500D01*
X152900282Y-86574572D01*
X152902622Y-86558798D01*
X152906497Y-86543329D01*
X152911870Y-86528314D01*
X152918688Y-86513898D01*
X152926886Y-86500220D01*
X152936386Y-86487411D01*
X152947095Y-86475595D01*
X152958911Y-86464886D01*
X152971720Y-86455386D01*
X152985398Y-86447188D01*
X152999814Y-86440370D01*
X153014829Y-86434997D01*
X153030298Y-86431122D01*
X153046072Y-86428782D01*
X153062000Y-86428000D01*
X153962000Y-86428000D01*
X153977928Y-86428782D01*
X153977928Y-86428782D01*
G37*
D20*
X153512000Y-86753000D03*
D17*
G36*
X153977928Y-85928782D02*
X153993702Y-85931122D01*
X154009171Y-85934997D01*
X154024186Y-85940370D01*
X154038602Y-85947188D01*
X154052280Y-85955386D01*
X154065089Y-85964886D01*
X154076905Y-85975595D01*
X154087614Y-85987411D01*
X154097114Y-86000220D01*
X154105312Y-86013898D01*
X154112130Y-86028314D01*
X154117503Y-86043329D01*
X154121378Y-86058798D01*
X154123718Y-86074572D01*
X154124500Y-86090500D01*
X154124500Y-86415500D01*
X154123718Y-86431428D01*
X154121378Y-86447202D01*
X154117503Y-86462671D01*
X154112130Y-86477686D01*
X154105312Y-86492102D01*
X154097114Y-86505780D01*
X154087614Y-86518589D01*
X154076905Y-86530405D01*
X154065089Y-86541114D01*
X154052280Y-86550614D01*
X154038602Y-86558812D01*
X154024186Y-86565630D01*
X154009171Y-86571003D01*
X153993702Y-86574878D01*
X153977928Y-86577218D01*
X153962000Y-86578000D01*
X153062000Y-86578000D01*
X153046072Y-86577218D01*
X153030298Y-86574878D01*
X153014829Y-86571003D01*
X152999814Y-86565630D01*
X152985398Y-86558812D01*
X152971720Y-86550614D01*
X152958911Y-86541114D01*
X152947095Y-86530405D01*
X152936386Y-86518589D01*
X152926886Y-86505780D01*
X152918688Y-86492102D01*
X152911870Y-86477686D01*
X152906497Y-86462671D01*
X152902622Y-86447202D01*
X152900282Y-86431428D01*
X152899500Y-86415500D01*
X152899500Y-86090500D01*
X152900282Y-86074572D01*
X152902622Y-86058798D01*
X152906497Y-86043329D01*
X152911870Y-86028314D01*
X152918688Y-86013898D01*
X152926886Y-86000220D01*
X152936386Y-85987411D01*
X152947095Y-85975595D01*
X152958911Y-85964886D01*
X152971720Y-85955386D01*
X152985398Y-85947188D01*
X152999814Y-85940370D01*
X153014829Y-85934997D01*
X153030298Y-85931122D01*
X153046072Y-85928782D01*
X153062000Y-85928000D01*
X153962000Y-85928000D01*
X153977928Y-85928782D01*
X153977928Y-85928782D01*
G37*
D20*
X153512000Y-86253000D03*
D17*
G36*
X153002928Y-84953782D02*
X153018702Y-84956122D01*
X153034171Y-84959997D01*
X153049186Y-84965370D01*
X153063602Y-84972188D01*
X153077280Y-84980386D01*
X153090089Y-84989886D01*
X153101905Y-85000595D01*
X153112614Y-85012411D01*
X153122114Y-85025220D01*
X153130312Y-85038898D01*
X153137130Y-85053314D01*
X153142503Y-85068329D01*
X153146378Y-85083798D01*
X153148718Y-85099572D01*
X153149500Y-85115500D01*
X153149500Y-86015500D01*
X153148718Y-86031428D01*
X153146378Y-86047202D01*
X153142503Y-86062671D01*
X153137130Y-86077686D01*
X153130312Y-86092102D01*
X153122114Y-86105780D01*
X153112614Y-86118589D01*
X153101905Y-86130405D01*
X153090089Y-86141114D01*
X153077280Y-86150614D01*
X153063602Y-86158812D01*
X153049186Y-86165630D01*
X153034171Y-86171003D01*
X153018702Y-86174878D01*
X153002928Y-86177218D01*
X152987000Y-86178000D01*
X152662000Y-86178000D01*
X152646072Y-86177218D01*
X152630298Y-86174878D01*
X152614829Y-86171003D01*
X152599814Y-86165630D01*
X152585398Y-86158812D01*
X152571720Y-86150614D01*
X152558911Y-86141114D01*
X152547095Y-86130405D01*
X152536386Y-86118589D01*
X152526886Y-86105780D01*
X152518688Y-86092102D01*
X152511870Y-86077686D01*
X152506497Y-86062671D01*
X152502622Y-86047202D01*
X152500282Y-86031428D01*
X152499500Y-86015500D01*
X152499500Y-85115500D01*
X152500282Y-85099572D01*
X152502622Y-85083798D01*
X152506497Y-85068329D01*
X152511870Y-85053314D01*
X152518688Y-85038898D01*
X152526886Y-85025220D01*
X152536386Y-85012411D01*
X152547095Y-85000595D01*
X152558911Y-84989886D01*
X152571720Y-84980386D01*
X152585398Y-84972188D01*
X152599814Y-84965370D01*
X152614829Y-84959997D01*
X152630298Y-84956122D01*
X152646072Y-84953782D01*
X152662000Y-84953000D01*
X152987000Y-84953000D01*
X153002928Y-84953782D01*
X153002928Y-84953782D01*
G37*
D20*
X152824500Y-85565500D03*
D17*
G36*
X152502928Y-84953782D02*
X152518702Y-84956122D01*
X152534171Y-84959997D01*
X152549186Y-84965370D01*
X152563602Y-84972188D01*
X152577280Y-84980386D01*
X152590089Y-84989886D01*
X152601905Y-85000595D01*
X152612614Y-85012411D01*
X152622114Y-85025220D01*
X152630312Y-85038898D01*
X152637130Y-85053314D01*
X152642503Y-85068329D01*
X152646378Y-85083798D01*
X152648718Y-85099572D01*
X152649500Y-85115500D01*
X152649500Y-86015500D01*
X152648718Y-86031428D01*
X152646378Y-86047202D01*
X152642503Y-86062671D01*
X152637130Y-86077686D01*
X152630312Y-86092102D01*
X152622114Y-86105780D01*
X152612614Y-86118589D01*
X152601905Y-86130405D01*
X152590089Y-86141114D01*
X152577280Y-86150614D01*
X152563602Y-86158812D01*
X152549186Y-86165630D01*
X152534171Y-86171003D01*
X152518702Y-86174878D01*
X152502928Y-86177218D01*
X152487000Y-86178000D01*
X152162000Y-86178000D01*
X152146072Y-86177218D01*
X152130298Y-86174878D01*
X152114829Y-86171003D01*
X152099814Y-86165630D01*
X152085398Y-86158812D01*
X152071720Y-86150614D01*
X152058911Y-86141114D01*
X152047095Y-86130405D01*
X152036386Y-86118589D01*
X152026886Y-86105780D01*
X152018688Y-86092102D01*
X152011870Y-86077686D01*
X152006497Y-86062671D01*
X152002622Y-86047202D01*
X152000282Y-86031428D01*
X151999500Y-86015500D01*
X151999500Y-85115500D01*
X152000282Y-85099572D01*
X152002622Y-85083798D01*
X152006497Y-85068329D01*
X152011870Y-85053314D01*
X152018688Y-85038898D01*
X152026886Y-85025220D01*
X152036386Y-85012411D01*
X152047095Y-85000595D01*
X152058911Y-84989886D01*
X152071720Y-84980386D01*
X152085398Y-84972188D01*
X152099814Y-84965370D01*
X152114829Y-84959997D01*
X152130298Y-84956122D01*
X152146072Y-84953782D01*
X152162000Y-84953000D01*
X152487000Y-84953000D01*
X152502928Y-84953782D01*
X152502928Y-84953782D01*
G37*
D20*
X152324500Y-85565500D03*
D17*
G36*
X152002928Y-84953782D02*
X152018702Y-84956122D01*
X152034171Y-84959997D01*
X152049186Y-84965370D01*
X152063602Y-84972188D01*
X152077280Y-84980386D01*
X152090089Y-84989886D01*
X152101905Y-85000595D01*
X152112614Y-85012411D01*
X152122114Y-85025220D01*
X152130312Y-85038898D01*
X152137130Y-85053314D01*
X152142503Y-85068329D01*
X152146378Y-85083798D01*
X152148718Y-85099572D01*
X152149500Y-85115500D01*
X152149500Y-86015500D01*
X152148718Y-86031428D01*
X152146378Y-86047202D01*
X152142503Y-86062671D01*
X152137130Y-86077686D01*
X152130312Y-86092102D01*
X152122114Y-86105780D01*
X152112614Y-86118589D01*
X152101905Y-86130405D01*
X152090089Y-86141114D01*
X152077280Y-86150614D01*
X152063602Y-86158812D01*
X152049186Y-86165630D01*
X152034171Y-86171003D01*
X152018702Y-86174878D01*
X152002928Y-86177218D01*
X151987000Y-86178000D01*
X151662000Y-86178000D01*
X151646072Y-86177218D01*
X151630298Y-86174878D01*
X151614829Y-86171003D01*
X151599814Y-86165630D01*
X151585398Y-86158812D01*
X151571720Y-86150614D01*
X151558911Y-86141114D01*
X151547095Y-86130405D01*
X151536386Y-86118589D01*
X151526886Y-86105780D01*
X151518688Y-86092102D01*
X151511870Y-86077686D01*
X151506497Y-86062671D01*
X151502622Y-86047202D01*
X151500282Y-86031428D01*
X151499500Y-86015500D01*
X151499500Y-85115500D01*
X151500282Y-85099572D01*
X151502622Y-85083798D01*
X151506497Y-85068329D01*
X151511870Y-85053314D01*
X151518688Y-85038898D01*
X151526886Y-85025220D01*
X151536386Y-85012411D01*
X151547095Y-85000595D01*
X151558911Y-84989886D01*
X151571720Y-84980386D01*
X151585398Y-84972188D01*
X151599814Y-84965370D01*
X151614829Y-84959997D01*
X151630298Y-84956122D01*
X151646072Y-84953782D01*
X151662000Y-84953000D01*
X151987000Y-84953000D01*
X152002928Y-84953782D01*
X152002928Y-84953782D01*
G37*
D20*
X151824500Y-85565500D03*
D17*
G36*
X151502928Y-84953782D02*
X151518702Y-84956122D01*
X151534171Y-84959997D01*
X151549186Y-84965370D01*
X151563602Y-84972188D01*
X151577280Y-84980386D01*
X151590089Y-84989886D01*
X151601905Y-85000595D01*
X151612614Y-85012411D01*
X151622114Y-85025220D01*
X151630312Y-85038898D01*
X151637130Y-85053314D01*
X151642503Y-85068329D01*
X151646378Y-85083798D01*
X151648718Y-85099572D01*
X151649500Y-85115500D01*
X151649500Y-86015500D01*
X151648718Y-86031428D01*
X151646378Y-86047202D01*
X151642503Y-86062671D01*
X151637130Y-86077686D01*
X151630312Y-86092102D01*
X151622114Y-86105780D01*
X151612614Y-86118589D01*
X151601905Y-86130405D01*
X151590089Y-86141114D01*
X151577280Y-86150614D01*
X151563602Y-86158812D01*
X151549186Y-86165630D01*
X151534171Y-86171003D01*
X151518702Y-86174878D01*
X151502928Y-86177218D01*
X151487000Y-86178000D01*
X151162000Y-86178000D01*
X151146072Y-86177218D01*
X151130298Y-86174878D01*
X151114829Y-86171003D01*
X151099814Y-86165630D01*
X151085398Y-86158812D01*
X151071720Y-86150614D01*
X151058911Y-86141114D01*
X151047095Y-86130405D01*
X151036386Y-86118589D01*
X151026886Y-86105780D01*
X151018688Y-86092102D01*
X151011870Y-86077686D01*
X151006497Y-86062671D01*
X151002622Y-86047202D01*
X151000282Y-86031428D01*
X150999500Y-86015500D01*
X150999500Y-85115500D01*
X151000282Y-85099572D01*
X151002622Y-85083798D01*
X151006497Y-85068329D01*
X151011870Y-85053314D01*
X151018688Y-85038898D01*
X151026886Y-85025220D01*
X151036386Y-85012411D01*
X151047095Y-85000595D01*
X151058911Y-84989886D01*
X151071720Y-84980386D01*
X151085398Y-84972188D01*
X151099814Y-84965370D01*
X151114829Y-84959997D01*
X151130298Y-84956122D01*
X151146072Y-84953782D01*
X151162000Y-84953000D01*
X151487000Y-84953000D01*
X151502928Y-84953782D01*
X151502928Y-84953782D01*
G37*
D20*
X151324500Y-85565500D03*
D17*
G36*
X151002928Y-84953782D02*
X151018702Y-84956122D01*
X151034171Y-84959997D01*
X151049186Y-84965370D01*
X151063602Y-84972188D01*
X151077280Y-84980386D01*
X151090089Y-84989886D01*
X151101905Y-85000595D01*
X151112614Y-85012411D01*
X151122114Y-85025220D01*
X151130312Y-85038898D01*
X151137130Y-85053314D01*
X151142503Y-85068329D01*
X151146378Y-85083798D01*
X151148718Y-85099572D01*
X151149500Y-85115500D01*
X151149500Y-86015500D01*
X151148718Y-86031428D01*
X151146378Y-86047202D01*
X151142503Y-86062671D01*
X151137130Y-86077686D01*
X151130312Y-86092102D01*
X151122114Y-86105780D01*
X151112614Y-86118589D01*
X151101905Y-86130405D01*
X151090089Y-86141114D01*
X151077280Y-86150614D01*
X151063602Y-86158812D01*
X151049186Y-86165630D01*
X151034171Y-86171003D01*
X151018702Y-86174878D01*
X151002928Y-86177218D01*
X150987000Y-86178000D01*
X150662000Y-86178000D01*
X150646072Y-86177218D01*
X150630298Y-86174878D01*
X150614829Y-86171003D01*
X150599814Y-86165630D01*
X150585398Y-86158812D01*
X150571720Y-86150614D01*
X150558911Y-86141114D01*
X150547095Y-86130405D01*
X150536386Y-86118589D01*
X150526886Y-86105780D01*
X150518688Y-86092102D01*
X150511870Y-86077686D01*
X150506497Y-86062671D01*
X150502622Y-86047202D01*
X150500282Y-86031428D01*
X150499500Y-86015500D01*
X150499500Y-85115500D01*
X150500282Y-85099572D01*
X150502622Y-85083798D01*
X150506497Y-85068329D01*
X150511870Y-85053314D01*
X150518688Y-85038898D01*
X150526886Y-85025220D01*
X150536386Y-85012411D01*
X150547095Y-85000595D01*
X150558911Y-84989886D01*
X150571720Y-84980386D01*
X150585398Y-84972188D01*
X150599814Y-84965370D01*
X150614829Y-84959997D01*
X150630298Y-84956122D01*
X150646072Y-84953782D01*
X150662000Y-84953000D01*
X150987000Y-84953000D01*
X151002928Y-84953782D01*
X151002928Y-84953782D01*
G37*
D20*
X150824500Y-85565500D03*
D17*
G36*
X150502928Y-84953782D02*
X150518702Y-84956122D01*
X150534171Y-84959997D01*
X150549186Y-84965370D01*
X150563602Y-84972188D01*
X150577280Y-84980386D01*
X150590089Y-84989886D01*
X150601905Y-85000595D01*
X150612614Y-85012411D01*
X150622114Y-85025220D01*
X150630312Y-85038898D01*
X150637130Y-85053314D01*
X150642503Y-85068329D01*
X150646378Y-85083798D01*
X150648718Y-85099572D01*
X150649500Y-85115500D01*
X150649500Y-86015500D01*
X150648718Y-86031428D01*
X150646378Y-86047202D01*
X150642503Y-86062671D01*
X150637130Y-86077686D01*
X150630312Y-86092102D01*
X150622114Y-86105780D01*
X150612614Y-86118589D01*
X150601905Y-86130405D01*
X150590089Y-86141114D01*
X150577280Y-86150614D01*
X150563602Y-86158812D01*
X150549186Y-86165630D01*
X150534171Y-86171003D01*
X150518702Y-86174878D01*
X150502928Y-86177218D01*
X150487000Y-86178000D01*
X150162000Y-86178000D01*
X150146072Y-86177218D01*
X150130298Y-86174878D01*
X150114829Y-86171003D01*
X150099814Y-86165630D01*
X150085398Y-86158812D01*
X150071720Y-86150614D01*
X150058911Y-86141114D01*
X150047095Y-86130405D01*
X150036386Y-86118589D01*
X150026886Y-86105780D01*
X150018688Y-86092102D01*
X150011870Y-86077686D01*
X150006497Y-86062671D01*
X150002622Y-86047202D01*
X150000282Y-86031428D01*
X149999500Y-86015500D01*
X149999500Y-85115500D01*
X150000282Y-85099572D01*
X150002622Y-85083798D01*
X150006497Y-85068329D01*
X150011870Y-85053314D01*
X150018688Y-85038898D01*
X150026886Y-85025220D01*
X150036386Y-85012411D01*
X150047095Y-85000595D01*
X150058911Y-84989886D01*
X150071720Y-84980386D01*
X150085398Y-84972188D01*
X150099814Y-84965370D01*
X150114829Y-84959997D01*
X150130298Y-84956122D01*
X150146072Y-84953782D01*
X150162000Y-84953000D01*
X150487000Y-84953000D01*
X150502928Y-84953782D01*
X150502928Y-84953782D01*
G37*
D20*
X150324500Y-85565500D03*
D17*
G36*
X150102928Y-85928782D02*
X150118702Y-85931122D01*
X150134171Y-85934997D01*
X150149186Y-85940370D01*
X150163602Y-85947188D01*
X150177280Y-85955386D01*
X150190089Y-85964886D01*
X150201905Y-85975595D01*
X150212614Y-85987411D01*
X150222114Y-86000220D01*
X150230312Y-86013898D01*
X150237130Y-86028314D01*
X150242503Y-86043329D01*
X150246378Y-86058798D01*
X150248718Y-86074572D01*
X150249500Y-86090500D01*
X150249500Y-86415500D01*
X150248718Y-86431428D01*
X150246378Y-86447202D01*
X150242503Y-86462671D01*
X150237130Y-86477686D01*
X150230312Y-86492102D01*
X150222114Y-86505780D01*
X150212614Y-86518589D01*
X150201905Y-86530405D01*
X150190089Y-86541114D01*
X150177280Y-86550614D01*
X150163602Y-86558812D01*
X150149186Y-86565630D01*
X150134171Y-86571003D01*
X150118702Y-86574878D01*
X150102928Y-86577218D01*
X150087000Y-86578000D01*
X149187000Y-86578000D01*
X149171072Y-86577218D01*
X149155298Y-86574878D01*
X149139829Y-86571003D01*
X149124814Y-86565630D01*
X149110398Y-86558812D01*
X149096720Y-86550614D01*
X149083911Y-86541114D01*
X149072095Y-86530405D01*
X149061386Y-86518589D01*
X149051886Y-86505780D01*
X149043688Y-86492102D01*
X149036870Y-86477686D01*
X149031497Y-86462671D01*
X149027622Y-86447202D01*
X149025282Y-86431428D01*
X149024500Y-86415500D01*
X149024500Y-86090500D01*
X149025282Y-86074572D01*
X149027622Y-86058798D01*
X149031497Y-86043329D01*
X149036870Y-86028314D01*
X149043688Y-86013898D01*
X149051886Y-86000220D01*
X149061386Y-85987411D01*
X149072095Y-85975595D01*
X149083911Y-85964886D01*
X149096720Y-85955386D01*
X149110398Y-85947188D01*
X149124814Y-85940370D01*
X149139829Y-85934997D01*
X149155298Y-85931122D01*
X149171072Y-85928782D01*
X149187000Y-85928000D01*
X150087000Y-85928000D01*
X150102928Y-85928782D01*
X150102928Y-85928782D01*
G37*
D20*
X149637000Y-86253000D03*
D17*
G36*
X150102928Y-86428782D02*
X150118702Y-86431122D01*
X150134171Y-86434997D01*
X150149186Y-86440370D01*
X150163602Y-86447188D01*
X150177280Y-86455386D01*
X150190089Y-86464886D01*
X150201905Y-86475595D01*
X150212614Y-86487411D01*
X150222114Y-86500220D01*
X150230312Y-86513898D01*
X150237130Y-86528314D01*
X150242503Y-86543329D01*
X150246378Y-86558798D01*
X150248718Y-86574572D01*
X150249500Y-86590500D01*
X150249500Y-86915500D01*
X150248718Y-86931428D01*
X150246378Y-86947202D01*
X150242503Y-86962671D01*
X150237130Y-86977686D01*
X150230312Y-86992102D01*
X150222114Y-87005780D01*
X150212614Y-87018589D01*
X150201905Y-87030405D01*
X150190089Y-87041114D01*
X150177280Y-87050614D01*
X150163602Y-87058812D01*
X150149186Y-87065630D01*
X150134171Y-87071003D01*
X150118702Y-87074878D01*
X150102928Y-87077218D01*
X150087000Y-87078000D01*
X149187000Y-87078000D01*
X149171072Y-87077218D01*
X149155298Y-87074878D01*
X149139829Y-87071003D01*
X149124814Y-87065630D01*
X149110398Y-87058812D01*
X149096720Y-87050614D01*
X149083911Y-87041114D01*
X149072095Y-87030405D01*
X149061386Y-87018589D01*
X149051886Y-87005780D01*
X149043688Y-86992102D01*
X149036870Y-86977686D01*
X149031497Y-86962671D01*
X149027622Y-86947202D01*
X149025282Y-86931428D01*
X149024500Y-86915500D01*
X149024500Y-86590500D01*
X149025282Y-86574572D01*
X149027622Y-86558798D01*
X149031497Y-86543329D01*
X149036870Y-86528314D01*
X149043688Y-86513898D01*
X149051886Y-86500220D01*
X149061386Y-86487411D01*
X149072095Y-86475595D01*
X149083911Y-86464886D01*
X149096720Y-86455386D01*
X149110398Y-86447188D01*
X149124814Y-86440370D01*
X149139829Y-86434997D01*
X149155298Y-86431122D01*
X149171072Y-86428782D01*
X149187000Y-86428000D01*
X150087000Y-86428000D01*
X150102928Y-86428782D01*
X150102928Y-86428782D01*
G37*
D20*
X149637000Y-86753000D03*
D17*
G36*
X150102928Y-86928782D02*
X150118702Y-86931122D01*
X150134171Y-86934997D01*
X150149186Y-86940370D01*
X150163602Y-86947188D01*
X150177280Y-86955386D01*
X150190089Y-86964886D01*
X150201905Y-86975595D01*
X150212614Y-86987411D01*
X150222114Y-87000220D01*
X150230312Y-87013898D01*
X150237130Y-87028314D01*
X150242503Y-87043329D01*
X150246378Y-87058798D01*
X150248718Y-87074572D01*
X150249500Y-87090500D01*
X150249500Y-87415500D01*
X150248718Y-87431428D01*
X150246378Y-87447202D01*
X150242503Y-87462671D01*
X150237130Y-87477686D01*
X150230312Y-87492102D01*
X150222114Y-87505780D01*
X150212614Y-87518589D01*
X150201905Y-87530405D01*
X150190089Y-87541114D01*
X150177280Y-87550614D01*
X150163602Y-87558812D01*
X150149186Y-87565630D01*
X150134171Y-87571003D01*
X150118702Y-87574878D01*
X150102928Y-87577218D01*
X150087000Y-87578000D01*
X149187000Y-87578000D01*
X149171072Y-87577218D01*
X149155298Y-87574878D01*
X149139829Y-87571003D01*
X149124814Y-87565630D01*
X149110398Y-87558812D01*
X149096720Y-87550614D01*
X149083911Y-87541114D01*
X149072095Y-87530405D01*
X149061386Y-87518589D01*
X149051886Y-87505780D01*
X149043688Y-87492102D01*
X149036870Y-87477686D01*
X149031497Y-87462671D01*
X149027622Y-87447202D01*
X149025282Y-87431428D01*
X149024500Y-87415500D01*
X149024500Y-87090500D01*
X149025282Y-87074572D01*
X149027622Y-87058798D01*
X149031497Y-87043329D01*
X149036870Y-87028314D01*
X149043688Y-87013898D01*
X149051886Y-87000220D01*
X149061386Y-86987411D01*
X149072095Y-86975595D01*
X149083911Y-86964886D01*
X149096720Y-86955386D01*
X149110398Y-86947188D01*
X149124814Y-86940370D01*
X149139829Y-86934997D01*
X149155298Y-86931122D01*
X149171072Y-86928782D01*
X149187000Y-86928000D01*
X150087000Y-86928000D01*
X150102928Y-86928782D01*
X150102928Y-86928782D01*
G37*
D20*
X149637000Y-87253000D03*
D17*
G36*
X150102928Y-87428782D02*
X150118702Y-87431122D01*
X150134171Y-87434997D01*
X150149186Y-87440370D01*
X150163602Y-87447188D01*
X150177280Y-87455386D01*
X150190089Y-87464886D01*
X150201905Y-87475595D01*
X150212614Y-87487411D01*
X150222114Y-87500220D01*
X150230312Y-87513898D01*
X150237130Y-87528314D01*
X150242503Y-87543329D01*
X150246378Y-87558798D01*
X150248718Y-87574572D01*
X150249500Y-87590500D01*
X150249500Y-87915500D01*
X150248718Y-87931428D01*
X150246378Y-87947202D01*
X150242503Y-87962671D01*
X150237130Y-87977686D01*
X150230312Y-87992102D01*
X150222114Y-88005780D01*
X150212614Y-88018589D01*
X150201905Y-88030405D01*
X150190089Y-88041114D01*
X150177280Y-88050614D01*
X150163602Y-88058812D01*
X150149186Y-88065630D01*
X150134171Y-88071003D01*
X150118702Y-88074878D01*
X150102928Y-88077218D01*
X150087000Y-88078000D01*
X149187000Y-88078000D01*
X149171072Y-88077218D01*
X149155298Y-88074878D01*
X149139829Y-88071003D01*
X149124814Y-88065630D01*
X149110398Y-88058812D01*
X149096720Y-88050614D01*
X149083911Y-88041114D01*
X149072095Y-88030405D01*
X149061386Y-88018589D01*
X149051886Y-88005780D01*
X149043688Y-87992102D01*
X149036870Y-87977686D01*
X149031497Y-87962671D01*
X149027622Y-87947202D01*
X149025282Y-87931428D01*
X149024500Y-87915500D01*
X149024500Y-87590500D01*
X149025282Y-87574572D01*
X149027622Y-87558798D01*
X149031497Y-87543329D01*
X149036870Y-87528314D01*
X149043688Y-87513898D01*
X149051886Y-87500220D01*
X149061386Y-87487411D01*
X149072095Y-87475595D01*
X149083911Y-87464886D01*
X149096720Y-87455386D01*
X149110398Y-87447188D01*
X149124814Y-87440370D01*
X149139829Y-87434997D01*
X149155298Y-87431122D01*
X149171072Y-87428782D01*
X149187000Y-87428000D01*
X150087000Y-87428000D01*
X150102928Y-87428782D01*
X150102928Y-87428782D01*
G37*
D20*
X149637000Y-87753000D03*
D17*
G36*
X150102928Y-87928782D02*
X150118702Y-87931122D01*
X150134171Y-87934997D01*
X150149186Y-87940370D01*
X150163602Y-87947188D01*
X150177280Y-87955386D01*
X150190089Y-87964886D01*
X150201905Y-87975595D01*
X150212614Y-87987411D01*
X150222114Y-88000220D01*
X150230312Y-88013898D01*
X150237130Y-88028314D01*
X150242503Y-88043329D01*
X150246378Y-88058798D01*
X150248718Y-88074572D01*
X150249500Y-88090500D01*
X150249500Y-88415500D01*
X150248718Y-88431428D01*
X150246378Y-88447202D01*
X150242503Y-88462671D01*
X150237130Y-88477686D01*
X150230312Y-88492102D01*
X150222114Y-88505780D01*
X150212614Y-88518589D01*
X150201905Y-88530405D01*
X150190089Y-88541114D01*
X150177280Y-88550614D01*
X150163602Y-88558812D01*
X150149186Y-88565630D01*
X150134171Y-88571003D01*
X150118702Y-88574878D01*
X150102928Y-88577218D01*
X150087000Y-88578000D01*
X149187000Y-88578000D01*
X149171072Y-88577218D01*
X149155298Y-88574878D01*
X149139829Y-88571003D01*
X149124814Y-88565630D01*
X149110398Y-88558812D01*
X149096720Y-88550614D01*
X149083911Y-88541114D01*
X149072095Y-88530405D01*
X149061386Y-88518589D01*
X149051886Y-88505780D01*
X149043688Y-88492102D01*
X149036870Y-88477686D01*
X149031497Y-88462671D01*
X149027622Y-88447202D01*
X149025282Y-88431428D01*
X149024500Y-88415500D01*
X149024500Y-88090500D01*
X149025282Y-88074572D01*
X149027622Y-88058798D01*
X149031497Y-88043329D01*
X149036870Y-88028314D01*
X149043688Y-88013898D01*
X149051886Y-88000220D01*
X149061386Y-87987411D01*
X149072095Y-87975595D01*
X149083911Y-87964886D01*
X149096720Y-87955386D01*
X149110398Y-87947188D01*
X149124814Y-87940370D01*
X149139829Y-87934997D01*
X149155298Y-87931122D01*
X149171072Y-87928782D01*
X149187000Y-87928000D01*
X150087000Y-87928000D01*
X150102928Y-87928782D01*
X150102928Y-87928782D01*
G37*
D20*
X149637000Y-88253000D03*
D17*
G36*
X150102928Y-88428782D02*
X150118702Y-88431122D01*
X150134171Y-88434997D01*
X150149186Y-88440370D01*
X150163602Y-88447188D01*
X150177280Y-88455386D01*
X150190089Y-88464886D01*
X150201905Y-88475595D01*
X150212614Y-88487411D01*
X150222114Y-88500220D01*
X150230312Y-88513898D01*
X150237130Y-88528314D01*
X150242503Y-88543329D01*
X150246378Y-88558798D01*
X150248718Y-88574572D01*
X150249500Y-88590500D01*
X150249500Y-88915500D01*
X150248718Y-88931428D01*
X150246378Y-88947202D01*
X150242503Y-88962671D01*
X150237130Y-88977686D01*
X150230312Y-88992102D01*
X150222114Y-89005780D01*
X150212614Y-89018589D01*
X150201905Y-89030405D01*
X150190089Y-89041114D01*
X150177280Y-89050614D01*
X150163602Y-89058812D01*
X150149186Y-89065630D01*
X150134171Y-89071003D01*
X150118702Y-89074878D01*
X150102928Y-89077218D01*
X150087000Y-89078000D01*
X149187000Y-89078000D01*
X149171072Y-89077218D01*
X149155298Y-89074878D01*
X149139829Y-89071003D01*
X149124814Y-89065630D01*
X149110398Y-89058812D01*
X149096720Y-89050614D01*
X149083911Y-89041114D01*
X149072095Y-89030405D01*
X149061386Y-89018589D01*
X149051886Y-89005780D01*
X149043688Y-88992102D01*
X149036870Y-88977686D01*
X149031497Y-88962671D01*
X149027622Y-88947202D01*
X149025282Y-88931428D01*
X149024500Y-88915500D01*
X149024500Y-88590500D01*
X149025282Y-88574572D01*
X149027622Y-88558798D01*
X149031497Y-88543329D01*
X149036870Y-88528314D01*
X149043688Y-88513898D01*
X149051886Y-88500220D01*
X149061386Y-88487411D01*
X149072095Y-88475595D01*
X149083911Y-88464886D01*
X149096720Y-88455386D01*
X149110398Y-88447188D01*
X149124814Y-88440370D01*
X149139829Y-88434997D01*
X149155298Y-88431122D01*
X149171072Y-88428782D01*
X149187000Y-88428000D01*
X150087000Y-88428000D01*
X150102928Y-88428782D01*
X150102928Y-88428782D01*
G37*
D20*
X149637000Y-88753000D03*
D17*
G36*
X150502928Y-88828782D02*
X150518702Y-88831122D01*
X150534171Y-88834997D01*
X150549186Y-88840370D01*
X150563602Y-88847188D01*
X150577280Y-88855386D01*
X150590089Y-88864886D01*
X150601905Y-88875595D01*
X150612614Y-88887411D01*
X150622114Y-88900220D01*
X150630312Y-88913898D01*
X150637130Y-88928314D01*
X150642503Y-88943329D01*
X150646378Y-88958798D01*
X150648718Y-88974572D01*
X150649500Y-88990500D01*
X150649500Y-89890500D01*
X150648718Y-89906428D01*
X150646378Y-89922202D01*
X150642503Y-89937671D01*
X150637130Y-89952686D01*
X150630312Y-89967102D01*
X150622114Y-89980780D01*
X150612614Y-89993589D01*
X150601905Y-90005405D01*
X150590089Y-90016114D01*
X150577280Y-90025614D01*
X150563602Y-90033812D01*
X150549186Y-90040630D01*
X150534171Y-90046003D01*
X150518702Y-90049878D01*
X150502928Y-90052218D01*
X150487000Y-90053000D01*
X150162000Y-90053000D01*
X150146072Y-90052218D01*
X150130298Y-90049878D01*
X150114829Y-90046003D01*
X150099814Y-90040630D01*
X150085398Y-90033812D01*
X150071720Y-90025614D01*
X150058911Y-90016114D01*
X150047095Y-90005405D01*
X150036386Y-89993589D01*
X150026886Y-89980780D01*
X150018688Y-89967102D01*
X150011870Y-89952686D01*
X150006497Y-89937671D01*
X150002622Y-89922202D01*
X150000282Y-89906428D01*
X149999500Y-89890500D01*
X149999500Y-88990500D01*
X150000282Y-88974572D01*
X150002622Y-88958798D01*
X150006497Y-88943329D01*
X150011870Y-88928314D01*
X150018688Y-88913898D01*
X150026886Y-88900220D01*
X150036386Y-88887411D01*
X150047095Y-88875595D01*
X150058911Y-88864886D01*
X150071720Y-88855386D01*
X150085398Y-88847188D01*
X150099814Y-88840370D01*
X150114829Y-88834997D01*
X150130298Y-88831122D01*
X150146072Y-88828782D01*
X150162000Y-88828000D01*
X150487000Y-88828000D01*
X150502928Y-88828782D01*
X150502928Y-88828782D01*
G37*
D20*
X150324500Y-89440500D03*
D17*
G36*
X151002928Y-88828782D02*
X151018702Y-88831122D01*
X151034171Y-88834997D01*
X151049186Y-88840370D01*
X151063602Y-88847188D01*
X151077280Y-88855386D01*
X151090089Y-88864886D01*
X151101905Y-88875595D01*
X151112614Y-88887411D01*
X151122114Y-88900220D01*
X151130312Y-88913898D01*
X151137130Y-88928314D01*
X151142503Y-88943329D01*
X151146378Y-88958798D01*
X151148718Y-88974572D01*
X151149500Y-88990500D01*
X151149500Y-89890500D01*
X151148718Y-89906428D01*
X151146378Y-89922202D01*
X151142503Y-89937671D01*
X151137130Y-89952686D01*
X151130312Y-89967102D01*
X151122114Y-89980780D01*
X151112614Y-89993589D01*
X151101905Y-90005405D01*
X151090089Y-90016114D01*
X151077280Y-90025614D01*
X151063602Y-90033812D01*
X151049186Y-90040630D01*
X151034171Y-90046003D01*
X151018702Y-90049878D01*
X151002928Y-90052218D01*
X150987000Y-90053000D01*
X150662000Y-90053000D01*
X150646072Y-90052218D01*
X150630298Y-90049878D01*
X150614829Y-90046003D01*
X150599814Y-90040630D01*
X150585398Y-90033812D01*
X150571720Y-90025614D01*
X150558911Y-90016114D01*
X150547095Y-90005405D01*
X150536386Y-89993589D01*
X150526886Y-89980780D01*
X150518688Y-89967102D01*
X150511870Y-89952686D01*
X150506497Y-89937671D01*
X150502622Y-89922202D01*
X150500282Y-89906428D01*
X150499500Y-89890500D01*
X150499500Y-88990500D01*
X150500282Y-88974572D01*
X150502622Y-88958798D01*
X150506497Y-88943329D01*
X150511870Y-88928314D01*
X150518688Y-88913898D01*
X150526886Y-88900220D01*
X150536386Y-88887411D01*
X150547095Y-88875595D01*
X150558911Y-88864886D01*
X150571720Y-88855386D01*
X150585398Y-88847188D01*
X150599814Y-88840370D01*
X150614829Y-88834997D01*
X150630298Y-88831122D01*
X150646072Y-88828782D01*
X150662000Y-88828000D01*
X150987000Y-88828000D01*
X151002928Y-88828782D01*
X151002928Y-88828782D01*
G37*
D20*
X150824500Y-89440500D03*
D17*
G36*
X151502928Y-88828782D02*
X151518702Y-88831122D01*
X151534171Y-88834997D01*
X151549186Y-88840370D01*
X151563602Y-88847188D01*
X151577280Y-88855386D01*
X151590089Y-88864886D01*
X151601905Y-88875595D01*
X151612614Y-88887411D01*
X151622114Y-88900220D01*
X151630312Y-88913898D01*
X151637130Y-88928314D01*
X151642503Y-88943329D01*
X151646378Y-88958798D01*
X151648718Y-88974572D01*
X151649500Y-88990500D01*
X151649500Y-89890500D01*
X151648718Y-89906428D01*
X151646378Y-89922202D01*
X151642503Y-89937671D01*
X151637130Y-89952686D01*
X151630312Y-89967102D01*
X151622114Y-89980780D01*
X151612614Y-89993589D01*
X151601905Y-90005405D01*
X151590089Y-90016114D01*
X151577280Y-90025614D01*
X151563602Y-90033812D01*
X151549186Y-90040630D01*
X151534171Y-90046003D01*
X151518702Y-90049878D01*
X151502928Y-90052218D01*
X151487000Y-90053000D01*
X151162000Y-90053000D01*
X151146072Y-90052218D01*
X151130298Y-90049878D01*
X151114829Y-90046003D01*
X151099814Y-90040630D01*
X151085398Y-90033812D01*
X151071720Y-90025614D01*
X151058911Y-90016114D01*
X151047095Y-90005405D01*
X151036386Y-89993589D01*
X151026886Y-89980780D01*
X151018688Y-89967102D01*
X151011870Y-89952686D01*
X151006497Y-89937671D01*
X151002622Y-89922202D01*
X151000282Y-89906428D01*
X150999500Y-89890500D01*
X150999500Y-88990500D01*
X151000282Y-88974572D01*
X151002622Y-88958798D01*
X151006497Y-88943329D01*
X151011870Y-88928314D01*
X151018688Y-88913898D01*
X151026886Y-88900220D01*
X151036386Y-88887411D01*
X151047095Y-88875595D01*
X151058911Y-88864886D01*
X151071720Y-88855386D01*
X151085398Y-88847188D01*
X151099814Y-88840370D01*
X151114829Y-88834997D01*
X151130298Y-88831122D01*
X151146072Y-88828782D01*
X151162000Y-88828000D01*
X151487000Y-88828000D01*
X151502928Y-88828782D01*
X151502928Y-88828782D01*
G37*
D20*
X151324500Y-89440500D03*
D17*
G36*
X152002928Y-88828782D02*
X152018702Y-88831122D01*
X152034171Y-88834997D01*
X152049186Y-88840370D01*
X152063602Y-88847188D01*
X152077280Y-88855386D01*
X152090089Y-88864886D01*
X152101905Y-88875595D01*
X152112614Y-88887411D01*
X152122114Y-88900220D01*
X152130312Y-88913898D01*
X152137130Y-88928314D01*
X152142503Y-88943329D01*
X152146378Y-88958798D01*
X152148718Y-88974572D01*
X152149500Y-88990500D01*
X152149500Y-89890500D01*
X152148718Y-89906428D01*
X152146378Y-89922202D01*
X152142503Y-89937671D01*
X152137130Y-89952686D01*
X152130312Y-89967102D01*
X152122114Y-89980780D01*
X152112614Y-89993589D01*
X152101905Y-90005405D01*
X152090089Y-90016114D01*
X152077280Y-90025614D01*
X152063602Y-90033812D01*
X152049186Y-90040630D01*
X152034171Y-90046003D01*
X152018702Y-90049878D01*
X152002928Y-90052218D01*
X151987000Y-90053000D01*
X151662000Y-90053000D01*
X151646072Y-90052218D01*
X151630298Y-90049878D01*
X151614829Y-90046003D01*
X151599814Y-90040630D01*
X151585398Y-90033812D01*
X151571720Y-90025614D01*
X151558911Y-90016114D01*
X151547095Y-90005405D01*
X151536386Y-89993589D01*
X151526886Y-89980780D01*
X151518688Y-89967102D01*
X151511870Y-89952686D01*
X151506497Y-89937671D01*
X151502622Y-89922202D01*
X151500282Y-89906428D01*
X151499500Y-89890500D01*
X151499500Y-88990500D01*
X151500282Y-88974572D01*
X151502622Y-88958798D01*
X151506497Y-88943329D01*
X151511870Y-88928314D01*
X151518688Y-88913898D01*
X151526886Y-88900220D01*
X151536386Y-88887411D01*
X151547095Y-88875595D01*
X151558911Y-88864886D01*
X151571720Y-88855386D01*
X151585398Y-88847188D01*
X151599814Y-88840370D01*
X151614829Y-88834997D01*
X151630298Y-88831122D01*
X151646072Y-88828782D01*
X151662000Y-88828000D01*
X151987000Y-88828000D01*
X152002928Y-88828782D01*
X152002928Y-88828782D01*
G37*
D20*
X151824500Y-89440500D03*
D17*
G36*
X152502928Y-88828782D02*
X152518702Y-88831122D01*
X152534171Y-88834997D01*
X152549186Y-88840370D01*
X152563602Y-88847188D01*
X152577280Y-88855386D01*
X152590089Y-88864886D01*
X152601905Y-88875595D01*
X152612614Y-88887411D01*
X152622114Y-88900220D01*
X152630312Y-88913898D01*
X152637130Y-88928314D01*
X152642503Y-88943329D01*
X152646378Y-88958798D01*
X152648718Y-88974572D01*
X152649500Y-88990500D01*
X152649500Y-89890500D01*
X152648718Y-89906428D01*
X152646378Y-89922202D01*
X152642503Y-89937671D01*
X152637130Y-89952686D01*
X152630312Y-89967102D01*
X152622114Y-89980780D01*
X152612614Y-89993589D01*
X152601905Y-90005405D01*
X152590089Y-90016114D01*
X152577280Y-90025614D01*
X152563602Y-90033812D01*
X152549186Y-90040630D01*
X152534171Y-90046003D01*
X152518702Y-90049878D01*
X152502928Y-90052218D01*
X152487000Y-90053000D01*
X152162000Y-90053000D01*
X152146072Y-90052218D01*
X152130298Y-90049878D01*
X152114829Y-90046003D01*
X152099814Y-90040630D01*
X152085398Y-90033812D01*
X152071720Y-90025614D01*
X152058911Y-90016114D01*
X152047095Y-90005405D01*
X152036386Y-89993589D01*
X152026886Y-89980780D01*
X152018688Y-89967102D01*
X152011870Y-89952686D01*
X152006497Y-89937671D01*
X152002622Y-89922202D01*
X152000282Y-89906428D01*
X151999500Y-89890500D01*
X151999500Y-88990500D01*
X152000282Y-88974572D01*
X152002622Y-88958798D01*
X152006497Y-88943329D01*
X152011870Y-88928314D01*
X152018688Y-88913898D01*
X152026886Y-88900220D01*
X152036386Y-88887411D01*
X152047095Y-88875595D01*
X152058911Y-88864886D01*
X152071720Y-88855386D01*
X152085398Y-88847188D01*
X152099814Y-88840370D01*
X152114829Y-88834997D01*
X152130298Y-88831122D01*
X152146072Y-88828782D01*
X152162000Y-88828000D01*
X152487000Y-88828000D01*
X152502928Y-88828782D01*
X152502928Y-88828782D01*
G37*
D20*
X152324500Y-89440500D03*
D17*
G36*
X153002928Y-88828782D02*
X153018702Y-88831122D01*
X153034171Y-88834997D01*
X153049186Y-88840370D01*
X153063602Y-88847188D01*
X153077280Y-88855386D01*
X153090089Y-88864886D01*
X153101905Y-88875595D01*
X153112614Y-88887411D01*
X153122114Y-88900220D01*
X153130312Y-88913898D01*
X153137130Y-88928314D01*
X153142503Y-88943329D01*
X153146378Y-88958798D01*
X153148718Y-88974572D01*
X153149500Y-88990500D01*
X153149500Y-89890500D01*
X153148718Y-89906428D01*
X153146378Y-89922202D01*
X153142503Y-89937671D01*
X153137130Y-89952686D01*
X153130312Y-89967102D01*
X153122114Y-89980780D01*
X153112614Y-89993589D01*
X153101905Y-90005405D01*
X153090089Y-90016114D01*
X153077280Y-90025614D01*
X153063602Y-90033812D01*
X153049186Y-90040630D01*
X153034171Y-90046003D01*
X153018702Y-90049878D01*
X153002928Y-90052218D01*
X152987000Y-90053000D01*
X152662000Y-90053000D01*
X152646072Y-90052218D01*
X152630298Y-90049878D01*
X152614829Y-90046003D01*
X152599814Y-90040630D01*
X152585398Y-90033812D01*
X152571720Y-90025614D01*
X152558911Y-90016114D01*
X152547095Y-90005405D01*
X152536386Y-89993589D01*
X152526886Y-89980780D01*
X152518688Y-89967102D01*
X152511870Y-89952686D01*
X152506497Y-89937671D01*
X152502622Y-89922202D01*
X152500282Y-89906428D01*
X152499500Y-89890500D01*
X152499500Y-88990500D01*
X152500282Y-88974572D01*
X152502622Y-88958798D01*
X152506497Y-88943329D01*
X152511870Y-88928314D01*
X152518688Y-88913898D01*
X152526886Y-88900220D01*
X152536386Y-88887411D01*
X152547095Y-88875595D01*
X152558911Y-88864886D01*
X152571720Y-88855386D01*
X152585398Y-88847188D01*
X152599814Y-88840370D01*
X152614829Y-88834997D01*
X152630298Y-88831122D01*
X152646072Y-88828782D01*
X152662000Y-88828000D01*
X152987000Y-88828000D01*
X153002928Y-88828782D01*
X153002928Y-88828782D01*
G37*
D20*
X152824500Y-89440500D03*
D21*
X144462500Y-96812500D03*
D22*
X144462500Y-90512500D03*
X142162500Y-90512500D03*
X146762500Y-90512500D03*
D17*
G36*
X144428943Y-82286655D02*
X144462312Y-82291605D01*
X144495035Y-82299802D01*
X144526797Y-82311166D01*
X144557293Y-82325590D01*
X144586227Y-82342932D01*
X144613323Y-82363028D01*
X144638318Y-82385682D01*
X144660972Y-82410677D01*
X144681068Y-82437773D01*
X144698410Y-82466707D01*
X144712834Y-82497203D01*
X144724198Y-82528965D01*
X144732395Y-82561688D01*
X144737345Y-82595057D01*
X144739000Y-82628750D01*
X144739000Y-83741250D01*
X144737345Y-83774943D01*
X144732395Y-83808312D01*
X144724198Y-83841035D01*
X144712834Y-83872797D01*
X144698410Y-83903293D01*
X144681068Y-83932227D01*
X144660972Y-83959323D01*
X144638318Y-83984318D01*
X144613323Y-84006972D01*
X144586227Y-84027068D01*
X144557293Y-84044410D01*
X144526797Y-84058834D01*
X144495035Y-84070198D01*
X144462312Y-84078395D01*
X144428943Y-84083345D01*
X144395250Y-84085000D01*
X143707750Y-84085000D01*
X143674057Y-84083345D01*
X143640688Y-84078395D01*
X143607965Y-84070198D01*
X143576203Y-84058834D01*
X143545707Y-84044410D01*
X143516773Y-84027068D01*
X143489677Y-84006972D01*
X143464682Y-83984318D01*
X143442028Y-83959323D01*
X143421932Y-83932227D01*
X143404590Y-83903293D01*
X143390166Y-83872797D01*
X143378802Y-83841035D01*
X143370605Y-83808312D01*
X143365655Y-83774943D01*
X143364000Y-83741250D01*
X143364000Y-82628750D01*
X143365655Y-82595057D01*
X143370605Y-82561688D01*
X143378802Y-82528965D01*
X143390166Y-82497203D01*
X143404590Y-82466707D01*
X143421932Y-82437773D01*
X143442028Y-82410677D01*
X143464682Y-82385682D01*
X143489677Y-82363028D01*
X143516773Y-82342932D01*
X143545707Y-82325590D01*
X143576203Y-82311166D01*
X143607965Y-82299802D01*
X143640688Y-82291605D01*
X143674057Y-82286655D01*
X143707750Y-82285000D01*
X144395250Y-82285000D01*
X144428943Y-82286655D01*
X144428943Y-82286655D01*
G37*
D18*
X144051500Y-83185000D03*
D17*
G36*
X142553943Y-82286655D02*
X142587312Y-82291605D01*
X142620035Y-82299802D01*
X142651797Y-82311166D01*
X142682293Y-82325590D01*
X142711227Y-82342932D01*
X142738323Y-82363028D01*
X142763318Y-82385682D01*
X142785972Y-82410677D01*
X142806068Y-82437773D01*
X142823410Y-82466707D01*
X142837834Y-82497203D01*
X142849198Y-82528965D01*
X142857395Y-82561688D01*
X142862345Y-82595057D01*
X142864000Y-82628750D01*
X142864000Y-83741250D01*
X142862345Y-83774943D01*
X142857395Y-83808312D01*
X142849198Y-83841035D01*
X142837834Y-83872797D01*
X142823410Y-83903293D01*
X142806068Y-83932227D01*
X142785972Y-83959323D01*
X142763318Y-83984318D01*
X142738323Y-84006972D01*
X142711227Y-84027068D01*
X142682293Y-84044410D01*
X142651797Y-84058834D01*
X142620035Y-84070198D01*
X142587312Y-84078395D01*
X142553943Y-84083345D01*
X142520250Y-84085000D01*
X141832750Y-84085000D01*
X141799057Y-84083345D01*
X141765688Y-84078395D01*
X141732965Y-84070198D01*
X141701203Y-84058834D01*
X141670707Y-84044410D01*
X141641773Y-84027068D01*
X141614677Y-84006972D01*
X141589682Y-83984318D01*
X141567028Y-83959323D01*
X141546932Y-83932227D01*
X141529590Y-83903293D01*
X141515166Y-83872797D01*
X141503802Y-83841035D01*
X141495605Y-83808312D01*
X141490655Y-83774943D01*
X141489000Y-83741250D01*
X141489000Y-82628750D01*
X141490655Y-82595057D01*
X141495605Y-82561688D01*
X141503802Y-82528965D01*
X141515166Y-82497203D01*
X141529590Y-82466707D01*
X141546932Y-82437773D01*
X141567028Y-82410677D01*
X141589682Y-82385682D01*
X141614677Y-82363028D01*
X141641773Y-82342932D01*
X141670707Y-82325590D01*
X141701203Y-82311166D01*
X141732965Y-82299802D01*
X141765688Y-82291605D01*
X141799057Y-82286655D01*
X141832750Y-82285000D01*
X142520250Y-82285000D01*
X142553943Y-82286655D01*
X142553943Y-82286655D01*
G37*
D18*
X142176500Y-83185000D03*
D17*
G36*
X142766443Y-87261655D02*
X142799812Y-87266605D01*
X142832535Y-87274802D01*
X142864297Y-87286166D01*
X142894793Y-87300590D01*
X142923727Y-87317932D01*
X142950823Y-87338028D01*
X142975818Y-87360682D01*
X142998472Y-87385677D01*
X143018568Y-87412773D01*
X143035910Y-87441707D01*
X143050334Y-87472203D01*
X143061698Y-87503965D01*
X143069895Y-87536688D01*
X143074845Y-87570057D01*
X143076500Y-87603750D01*
X143076500Y-88291250D01*
X143074845Y-88324943D01*
X143069895Y-88358312D01*
X143061698Y-88391035D01*
X143050334Y-88422797D01*
X143035910Y-88453293D01*
X143018568Y-88482227D01*
X142998472Y-88509323D01*
X142975818Y-88534318D01*
X142950823Y-88556972D01*
X142923727Y-88577068D01*
X142894793Y-88594410D01*
X142864297Y-88608834D01*
X142832535Y-88620198D01*
X142799812Y-88628395D01*
X142766443Y-88633345D01*
X142732750Y-88635000D01*
X141620250Y-88635000D01*
X141586557Y-88633345D01*
X141553188Y-88628395D01*
X141520465Y-88620198D01*
X141488703Y-88608834D01*
X141458207Y-88594410D01*
X141429273Y-88577068D01*
X141402177Y-88556972D01*
X141377182Y-88534318D01*
X141354528Y-88509323D01*
X141334432Y-88482227D01*
X141317090Y-88453293D01*
X141302666Y-88422797D01*
X141291302Y-88391035D01*
X141283105Y-88358312D01*
X141278155Y-88324943D01*
X141276500Y-88291250D01*
X141276500Y-87603750D01*
X141278155Y-87570057D01*
X141283105Y-87536688D01*
X141291302Y-87503965D01*
X141302666Y-87472203D01*
X141317090Y-87441707D01*
X141334432Y-87412773D01*
X141354528Y-87385677D01*
X141377182Y-87360682D01*
X141402177Y-87338028D01*
X141429273Y-87317932D01*
X141458207Y-87300590D01*
X141488703Y-87286166D01*
X141520465Y-87274802D01*
X141553188Y-87266605D01*
X141586557Y-87261655D01*
X141620250Y-87260000D01*
X142732750Y-87260000D01*
X142766443Y-87261655D01*
X142766443Y-87261655D01*
G37*
D18*
X142176500Y-87947500D03*
D17*
G36*
X142766443Y-85386655D02*
X142799812Y-85391605D01*
X142832535Y-85399802D01*
X142864297Y-85411166D01*
X142894793Y-85425590D01*
X142923727Y-85442932D01*
X142950823Y-85463028D01*
X142975818Y-85485682D01*
X142998472Y-85510677D01*
X143018568Y-85537773D01*
X143035910Y-85566707D01*
X143050334Y-85597203D01*
X143061698Y-85628965D01*
X143069895Y-85661688D01*
X143074845Y-85695057D01*
X143076500Y-85728750D01*
X143076500Y-86416250D01*
X143074845Y-86449943D01*
X143069895Y-86483312D01*
X143061698Y-86516035D01*
X143050334Y-86547797D01*
X143035910Y-86578293D01*
X143018568Y-86607227D01*
X142998472Y-86634323D01*
X142975818Y-86659318D01*
X142950823Y-86681972D01*
X142923727Y-86702068D01*
X142894793Y-86719410D01*
X142864297Y-86733834D01*
X142832535Y-86745198D01*
X142799812Y-86753395D01*
X142766443Y-86758345D01*
X142732750Y-86760000D01*
X141620250Y-86760000D01*
X141586557Y-86758345D01*
X141553188Y-86753395D01*
X141520465Y-86745198D01*
X141488703Y-86733834D01*
X141458207Y-86719410D01*
X141429273Y-86702068D01*
X141402177Y-86681972D01*
X141377182Y-86659318D01*
X141354528Y-86634323D01*
X141334432Y-86607227D01*
X141317090Y-86578293D01*
X141302666Y-86547797D01*
X141291302Y-86516035D01*
X141283105Y-86483312D01*
X141278155Y-86449943D01*
X141276500Y-86416250D01*
X141276500Y-85728750D01*
X141278155Y-85695057D01*
X141283105Y-85661688D01*
X141291302Y-85628965D01*
X141302666Y-85597203D01*
X141317090Y-85566707D01*
X141334432Y-85537773D01*
X141354528Y-85510677D01*
X141377182Y-85485682D01*
X141402177Y-85463028D01*
X141429273Y-85442932D01*
X141458207Y-85425590D01*
X141488703Y-85411166D01*
X141520465Y-85399802D01*
X141553188Y-85391605D01*
X141586557Y-85386655D01*
X141620250Y-85385000D01*
X142732750Y-85385000D01*
X142766443Y-85386655D01*
X142766443Y-85386655D01*
G37*
D18*
X142176500Y-86072500D03*
M02*
