M48
; DRILL file {KiCad 5.1.5-52549c5~84~ubuntu18.04.1} date Fri 31 Jan 2020 04:24:42 PM CST
; FORMAT={-:-/ absolute / inch / decimal}
; #@! TF.CreationDate,2020-01-31T16:24:42-06:00
; #@! TF.GenerationSoftware,Kicad,Pcbnew,5.1.5-52549c5~84~ubuntu18.04.1
FMAT,2
INCH
T1C0.0150
T2C0.0236
T3C0.0250
T4C0.0335
T5C0.0394
T6C0.0402
T7C0.0630
T8C0.0394
T9C0.0500
T10C0.1181
%
G90
G05
T1
X4.4094Y-3.2579
X4.6122Y-3.5167
X4.6841Y-3.4705
X4.9715Y-3.6516
X5.2421Y-4.3898
X5.3169Y-4.3307
X5.3839Y-4.3307
X5.497Y-4.0876
X5.5118Y-4.2717
X5.6102Y-4.5177
X5.6496Y-4.4882
X5.6496Y-4.7343
X5.7087Y-4.7343
X5.7677Y-3.6811
X5.7835Y-4.2795
X5.7835Y-4.5512
X5.7835Y-4.6024
X5.7933Y-3.5866
X5.8248Y-4.4961
X5.8307Y-4.2795
X5.8406Y-3.3799
X5.8465Y-3.9961
X5.8563Y-3.8976
X5.8878Y-5.5768
X5.9055Y-3.4035
X5.9193Y-5.4783
X6.0039Y-3.7618
X6.0177Y-5.0256
X6.0394Y-4.2795
X6.0433Y-3.9921
X6.0433Y-4.0394
X6.0433Y-4.0866
X6.0433Y-4.1339
X6.0433Y-4.8957
X6.0591Y-4.5906
X6.0866Y-4.2795
X6.1024Y-4.3386
X6.1024Y-4.3819
X6.1063Y-4.5906
X6.1575Y-4.8937
X6.1929Y-4.9114
X6.1929Y-5.1058
X6.2126Y-4.9803
X6.2283Y-4.8937
X6.2795Y-3.8583
X6.2795Y-4.252
X6.2913Y-3.815
X6.3543Y-3.7756
X6.3583Y-3.8976
X6.3583Y-3.937
X6.5354Y-3.5728
X6.5748Y-3.3095
X6.5748Y-3.3834
X6.5965Y-4.9154
X6.5965Y-5.1083
X6.685Y-5.1417
X6.685Y-5.2047
X6.6988Y-5.0709
X6.7126Y-5.1083
X6.752Y-3.3071
X6.7618Y-3.6319
X6.811Y-3.3834
X6.9291Y-3.3095
X7.1831Y-3.6752
X7.2441Y-3.7795
X7.2933Y-3.7795
X7.3696Y-3.4646
X7.3819Y-4.2343
X7.3839Y-3.8268
X7.437Y-3.5571
X7.437Y-3.7067
X7.4803Y-3.1791
X7.5394Y-4.2323
X7.5728Y-3.5945
X7.5728Y-3.6693
X7.6063Y-4.9606
X7.6969Y-4.2323
T3
X4.8917Y-3.6516
T4
X7.6983Y-3.5236
X7.6983Y-3.7205
X4.6398Y-3.7575
X4.6398Y-3.8575
X4.6398Y-3.9575
X4.6398Y-4.0575
T5
X7.2598Y-5.7126
X7.3598Y-5.7126
X6.7094Y-5.6299
X6.8094Y-5.6299
X6.9094Y-5.6299
X5.7244Y-5.378
X5.7244Y-5.478
X5.7244Y-5.578
X5.7244Y-5.678
X4.0748Y-4.4862
X4.0748Y-4.6043
X4.0748Y-4.7224
X4.0748Y-4.8406
X4.1929Y-4.4862
X4.1929Y-4.6043
X4.1929Y-4.7224
X4.1929Y-4.8406
X4.0748Y-5.1496
X4.0748Y-5.2677
X4.0748Y-5.3858
X4.0748Y-5.5039
X4.1929Y-5.1496
X4.1929Y-5.2677
X4.1929Y-5.3858
X4.1929Y-5.5039
X5.58Y-5.04
X5.68Y-5.04
X5.78Y-5.04
X5.88Y-5.04
T6
X4.6358Y-3.1102
X4.7539Y-3.1102
X5.4331Y-3.1102
X5.5512Y-3.1102
X5.6693Y-3.1102
X5.7874Y-3.1102
X7.7165Y-5.0197
X7.7165Y-5.1378
X7.7165Y-5.2559
X7.7165Y-5.374
X6.2205Y-5.748
X6.3386Y-5.748
X6.4567Y-3.1102
X6.5748Y-3.1102
X6.6929Y-3.1102
X6.811Y-3.1102
X4.0945Y-3.7697
X4.0945Y-3.8878
T7
X4.311Y-3.2874
X4.5177Y-4.5374
X4.0945Y-4.1732
X4.0945Y-3.4843
X7.0669Y-5.7087
X7.5472Y-5.7087
X4.9606Y-4.5374
X5.6496Y-3.7894
X5.0689Y-4.2402
T8
X4.2299Y-4.3681
X4.2299Y-4.9587
X4.2299Y-5.0315
X4.2299Y-5.622
T9
X6.1024Y-5.8252
X6.4567Y-5.8252
X6.3386Y-3.0331
X6.9291Y-3.0331
X4.0173Y-3.6516
X4.0173Y-4.0059
X4.5177Y-3.0331
X4.872Y-3.0331
X5.315Y-3.0331
X5.9055Y-3.0331
X7.7937Y-4.9016
X7.7937Y-5.4921
T10
X7.7559Y-3.0709
X7.7559Y-5.7874
X4.0551Y-5.7874
X4.0551Y-3.0709
T2
G00X7.7908Y-3.4843
M15
G01X7.8184Y-3.4843
M16
G05
G00X7.8184Y-3.7598
M15
G01X7.7908Y-3.7598
M16
G05
T0
M30
