G04 #@! TF.GenerationSoftware,KiCad,Pcbnew,5.1.5-52549c5~84~ubuntu18.04.1*
G04 #@! TF.CreationDate,2020-01-31T16:24:44-06:00*
G04 #@! TF.ProjectId,BPSMaster,4250534d-6173-4746-9572-2e6b69636164,rev?*
G04 #@! TF.SameCoordinates,Original*
G04 #@! TF.FileFunction,Soldermask,Bot*
G04 #@! TF.FilePolarity,Negative*
%FSLAX46Y46*%
G04 Gerber Fmt 4.6, Leading zero omitted, Abs format (unit mm)*
G04 Created by KiCad (PCBNEW 5.1.5-52549c5~84~ubuntu18.04.1) date 2020-01-31 16:24:44*
%MOMM*%
%LPD*%
G04 APERTURE LIST*
%ADD10O,1.801600X1.801600*%
%ADD11R,1.801600X1.801600*%
%ADD12C,0.100000*%
%ADD13C,2.901600*%
%ADD14C,1.371600*%
%ADD15C,1.801600*%
%ADD16O,1.901600X1.101600*%
%ADD17R,0.701600X0.551600*%
%ADD18C,1.601600*%
%ADD19R,1.601600X1.601600*%
%ADD20C,1.101600*%
%ADD21C,1.551600*%
%ADD22O,2.001600X1.301600*%
%ADD23C,3.101600*%
%ADD24R,1.001600X0.901600*%
G04 APERTURE END LIST*
D10*
X170420000Y-143000000D03*
X172960000Y-143000000D03*
D11*
X175500000Y-143000000D03*
D12*
G36*
X107458031Y-95775496D02*
G01*
X107484159Y-95779372D01*
X107509780Y-95785790D01*
X107534649Y-95794688D01*
X107558526Y-95805981D01*
X107581182Y-95819560D01*
X107602397Y-95835294D01*
X107621968Y-95853032D01*
X107639706Y-95872603D01*
X107655440Y-95893818D01*
X107669019Y-95916474D01*
X107680312Y-95940351D01*
X107689210Y-95965220D01*
X107695628Y-95990841D01*
X107699504Y-96016969D01*
X107700800Y-96043350D01*
X107700800Y-96581650D01*
X107699504Y-96608031D01*
X107695628Y-96634159D01*
X107689210Y-96659780D01*
X107680312Y-96684649D01*
X107669019Y-96708526D01*
X107655440Y-96731182D01*
X107639706Y-96752397D01*
X107621968Y-96771968D01*
X107602397Y-96789706D01*
X107581182Y-96805440D01*
X107558526Y-96819019D01*
X107534649Y-96830312D01*
X107509780Y-96839210D01*
X107484159Y-96845628D01*
X107458031Y-96849504D01*
X107431650Y-96850800D01*
X106468350Y-96850800D01*
X106441969Y-96849504D01*
X106415841Y-96845628D01*
X106390220Y-96839210D01*
X106365351Y-96830312D01*
X106341474Y-96819019D01*
X106318818Y-96805440D01*
X106297603Y-96789706D01*
X106278032Y-96771968D01*
X106260294Y-96752397D01*
X106244560Y-96731182D01*
X106230981Y-96708526D01*
X106219688Y-96684649D01*
X106210790Y-96659780D01*
X106204372Y-96634159D01*
X106200496Y-96608031D01*
X106199200Y-96581650D01*
X106199200Y-96043350D01*
X106200496Y-96016969D01*
X106204372Y-95990841D01*
X106210790Y-95965220D01*
X106219688Y-95940351D01*
X106230981Y-95916474D01*
X106244560Y-95893818D01*
X106260294Y-95872603D01*
X106278032Y-95853032D01*
X106297603Y-95835294D01*
X106318818Y-95819560D01*
X106341474Y-95805981D01*
X106365351Y-95794688D01*
X106390220Y-95785790D01*
X106415841Y-95779372D01*
X106441969Y-95775496D01*
X106468350Y-95774200D01*
X107431650Y-95774200D01*
X107458031Y-95775496D01*
G37*
G36*
X107458031Y-97650496D02*
G01*
X107484159Y-97654372D01*
X107509780Y-97660790D01*
X107534649Y-97669688D01*
X107558526Y-97680981D01*
X107581182Y-97694560D01*
X107602397Y-97710294D01*
X107621968Y-97728032D01*
X107639706Y-97747603D01*
X107655440Y-97768818D01*
X107669019Y-97791474D01*
X107680312Y-97815351D01*
X107689210Y-97840220D01*
X107695628Y-97865841D01*
X107699504Y-97891969D01*
X107700800Y-97918350D01*
X107700800Y-98456650D01*
X107699504Y-98483031D01*
X107695628Y-98509159D01*
X107689210Y-98534780D01*
X107680312Y-98559649D01*
X107669019Y-98583526D01*
X107655440Y-98606182D01*
X107639706Y-98627397D01*
X107621968Y-98646968D01*
X107602397Y-98664706D01*
X107581182Y-98680440D01*
X107558526Y-98694019D01*
X107534649Y-98705312D01*
X107509780Y-98714210D01*
X107484159Y-98720628D01*
X107458031Y-98724504D01*
X107431650Y-98725800D01*
X106468350Y-98725800D01*
X106441969Y-98724504D01*
X106415841Y-98720628D01*
X106390220Y-98714210D01*
X106365351Y-98705312D01*
X106341474Y-98694019D01*
X106318818Y-98680440D01*
X106297603Y-98664706D01*
X106278032Y-98646968D01*
X106260294Y-98627397D01*
X106244560Y-98606182D01*
X106230981Y-98583526D01*
X106219688Y-98559649D01*
X106210790Y-98534780D01*
X106204372Y-98509159D01*
X106200496Y-98483031D01*
X106199200Y-98456650D01*
X106199200Y-97918350D01*
X106200496Y-97891969D01*
X106204372Y-97865841D01*
X106210790Y-97840220D01*
X106219688Y-97815351D01*
X106230981Y-97791474D01*
X106244560Y-97768818D01*
X106260294Y-97747603D01*
X106278032Y-97728032D01*
X106297603Y-97710294D01*
X106318818Y-97694560D01*
X106341474Y-97680981D01*
X106365351Y-97669688D01*
X106390220Y-97660790D01*
X106415841Y-97654372D01*
X106441969Y-97650496D01*
X106468350Y-97649200D01*
X107431650Y-97649200D01*
X107458031Y-97650496D01*
G37*
D13*
X104000000Y-106000000D03*
D14*
X102040000Y-101750000D03*
D15*
X104000000Y-95750000D03*
X104000000Y-98750000D03*
D14*
X102040000Y-92750000D03*
D13*
X104000000Y-88500000D03*
D16*
X117850000Y-95440000D03*
X117850000Y-97980000D03*
X117850000Y-100520000D03*
X117850000Y-103060000D03*
D13*
X128750000Y-107700000D03*
X126000000Y-115250000D03*
X114750000Y-115250000D03*
D12*
G36*
X125362576Y-102150472D02*
G01*
X125388215Y-102154275D01*
X125413356Y-102160573D01*
X125437760Y-102169304D01*
X125461190Y-102180386D01*
X125483421Y-102193711D01*
X125504239Y-102209150D01*
X125523444Y-102226556D01*
X125540850Y-102245761D01*
X125556289Y-102266579D01*
X125569614Y-102288810D01*
X125580696Y-102312240D01*
X125589427Y-102336644D01*
X125595725Y-102361785D01*
X125599528Y-102387424D01*
X125600800Y-102413311D01*
X125600800Y-103786689D01*
X125599528Y-103812576D01*
X125595725Y-103838215D01*
X125589427Y-103863356D01*
X125580696Y-103887760D01*
X125569614Y-103911190D01*
X125556289Y-103933421D01*
X125540850Y-103954239D01*
X125523444Y-103973444D01*
X125504239Y-103990850D01*
X125483421Y-104006289D01*
X125461190Y-104019614D01*
X125437760Y-104030696D01*
X125413356Y-104039427D01*
X125388215Y-104045725D01*
X125362576Y-104049528D01*
X125336689Y-104050800D01*
X120363311Y-104050800D01*
X120337424Y-104049528D01*
X120311785Y-104045725D01*
X120286644Y-104039427D01*
X120262240Y-104030696D01*
X120238810Y-104019614D01*
X120216579Y-104006289D01*
X120195761Y-103990850D01*
X120176556Y-103973444D01*
X120159150Y-103954239D01*
X120143711Y-103933421D01*
X120130386Y-103911190D01*
X120119304Y-103887760D01*
X120110573Y-103863356D01*
X120104275Y-103838215D01*
X120100472Y-103812576D01*
X120099200Y-103786689D01*
X120099200Y-102413311D01*
X120100472Y-102387424D01*
X120104275Y-102361785D01*
X120110573Y-102336644D01*
X120119304Y-102312240D01*
X120130386Y-102288810D01*
X120143711Y-102266579D01*
X120159150Y-102245761D01*
X120176556Y-102226556D01*
X120195761Y-102209150D01*
X120216579Y-102193711D01*
X120238810Y-102180386D01*
X120262240Y-102169304D01*
X120286644Y-102160573D01*
X120311785Y-102154275D01*
X120337424Y-102150472D01*
X120363311Y-102149200D01*
X125336689Y-102149200D01*
X125362576Y-102150472D01*
G37*
G36*
X125362576Y-97050472D02*
G01*
X125388215Y-97054275D01*
X125413356Y-97060573D01*
X125437760Y-97069304D01*
X125461190Y-97080386D01*
X125483421Y-97093711D01*
X125504239Y-97109150D01*
X125523444Y-97126556D01*
X125540850Y-97145761D01*
X125556289Y-97166579D01*
X125569614Y-97188810D01*
X125580696Y-97212240D01*
X125589427Y-97236644D01*
X125595725Y-97261785D01*
X125599528Y-97287424D01*
X125600800Y-97313311D01*
X125600800Y-98686689D01*
X125599528Y-98712576D01*
X125595725Y-98738215D01*
X125589427Y-98763356D01*
X125580696Y-98787760D01*
X125569614Y-98811190D01*
X125556289Y-98833421D01*
X125540850Y-98854239D01*
X125523444Y-98873444D01*
X125504239Y-98890850D01*
X125483421Y-98906289D01*
X125461190Y-98919614D01*
X125437760Y-98930696D01*
X125413356Y-98939427D01*
X125388215Y-98945725D01*
X125362576Y-98949528D01*
X125336689Y-98950800D01*
X120363311Y-98950800D01*
X120337424Y-98949528D01*
X120311785Y-98945725D01*
X120286644Y-98939427D01*
X120262240Y-98930696D01*
X120238810Y-98919614D01*
X120216579Y-98906289D01*
X120195761Y-98890850D01*
X120176556Y-98873444D01*
X120159150Y-98854239D01*
X120143711Y-98833421D01*
X120130386Y-98811190D01*
X120119304Y-98787760D01*
X120110573Y-98763356D01*
X120104275Y-98738215D01*
X120100472Y-98712576D01*
X120099200Y-98686689D01*
X120099200Y-97313311D01*
X120100472Y-97287424D01*
X120104275Y-97261785D01*
X120110573Y-97236644D01*
X120119304Y-97212240D01*
X120130386Y-97188810D01*
X120143711Y-97166579D01*
X120159150Y-97145761D01*
X120176556Y-97126556D01*
X120195761Y-97109150D01*
X120216579Y-97093711D01*
X120238810Y-97080386D01*
X120262240Y-97069304D01*
X120286644Y-97060573D01*
X120311785Y-97054275D01*
X120337424Y-97050472D01*
X120363311Y-97049200D01*
X125336689Y-97049200D01*
X125362576Y-97050472D01*
G37*
G36*
X153358031Y-106300496D02*
G01*
X153384159Y-106304372D01*
X153409780Y-106310790D01*
X153434649Y-106319688D01*
X153458526Y-106330981D01*
X153481182Y-106344560D01*
X153502397Y-106360294D01*
X153521968Y-106378032D01*
X153539706Y-106397603D01*
X153555440Y-106418818D01*
X153569019Y-106441474D01*
X153580312Y-106465351D01*
X153589210Y-106490220D01*
X153595628Y-106515841D01*
X153599504Y-106541969D01*
X153600800Y-106568350D01*
X153600800Y-107531650D01*
X153599504Y-107558031D01*
X153595628Y-107584159D01*
X153589210Y-107609780D01*
X153580312Y-107634649D01*
X153569019Y-107658526D01*
X153555440Y-107681182D01*
X153539706Y-107702397D01*
X153521968Y-107721968D01*
X153502397Y-107739706D01*
X153481182Y-107755440D01*
X153458526Y-107769019D01*
X153434649Y-107780312D01*
X153409780Y-107789210D01*
X153384159Y-107795628D01*
X153358031Y-107799504D01*
X153331650Y-107800800D01*
X152793350Y-107800800D01*
X152766969Y-107799504D01*
X152740841Y-107795628D01*
X152715220Y-107789210D01*
X152690351Y-107780312D01*
X152666474Y-107769019D01*
X152643818Y-107755440D01*
X152622603Y-107739706D01*
X152603032Y-107721968D01*
X152585294Y-107702397D01*
X152569560Y-107681182D01*
X152555981Y-107658526D01*
X152544688Y-107634649D01*
X152535790Y-107609780D01*
X152529372Y-107584159D01*
X152525496Y-107558031D01*
X152524200Y-107531650D01*
X152524200Y-106568350D01*
X152525496Y-106541969D01*
X152529372Y-106515841D01*
X152535790Y-106490220D01*
X152544688Y-106465351D01*
X152555981Y-106441474D01*
X152569560Y-106418818D01*
X152585294Y-106397603D01*
X152603032Y-106378032D01*
X152622603Y-106360294D01*
X152643818Y-106344560D01*
X152666474Y-106330981D01*
X152690351Y-106319688D01*
X152715220Y-106310790D01*
X152740841Y-106304372D01*
X152766969Y-106300496D01*
X152793350Y-106299200D01*
X153331650Y-106299200D01*
X153358031Y-106300496D01*
G37*
G36*
X155233031Y-106300496D02*
G01*
X155259159Y-106304372D01*
X155284780Y-106310790D01*
X155309649Y-106319688D01*
X155333526Y-106330981D01*
X155356182Y-106344560D01*
X155377397Y-106360294D01*
X155396968Y-106378032D01*
X155414706Y-106397603D01*
X155430440Y-106418818D01*
X155444019Y-106441474D01*
X155455312Y-106465351D01*
X155464210Y-106490220D01*
X155470628Y-106515841D01*
X155474504Y-106541969D01*
X155475800Y-106568350D01*
X155475800Y-107531650D01*
X155474504Y-107558031D01*
X155470628Y-107584159D01*
X155464210Y-107609780D01*
X155455312Y-107634649D01*
X155444019Y-107658526D01*
X155430440Y-107681182D01*
X155414706Y-107702397D01*
X155396968Y-107721968D01*
X155377397Y-107739706D01*
X155356182Y-107755440D01*
X155333526Y-107769019D01*
X155309649Y-107780312D01*
X155284780Y-107789210D01*
X155259159Y-107795628D01*
X155233031Y-107799504D01*
X155206650Y-107800800D01*
X154668350Y-107800800D01*
X154641969Y-107799504D01*
X154615841Y-107795628D01*
X154590220Y-107789210D01*
X154565351Y-107780312D01*
X154541474Y-107769019D01*
X154518818Y-107755440D01*
X154497603Y-107739706D01*
X154478032Y-107721968D01*
X154460294Y-107702397D01*
X154444560Y-107681182D01*
X154430981Y-107658526D01*
X154419688Y-107634649D01*
X154410790Y-107609780D01*
X154404372Y-107584159D01*
X154400496Y-107558031D01*
X154399200Y-107531650D01*
X154399200Y-106568350D01*
X154400496Y-106541969D01*
X154404372Y-106515841D01*
X154410790Y-106490220D01*
X154419688Y-106465351D01*
X154430981Y-106441474D01*
X154444560Y-106418818D01*
X154460294Y-106397603D01*
X154478032Y-106378032D01*
X154497603Y-106360294D01*
X154518818Y-106344560D01*
X154541474Y-106330981D01*
X154565351Y-106319688D01*
X154590220Y-106310790D01*
X154615841Y-106304372D01*
X154641969Y-106300496D01*
X154668350Y-106299200D01*
X155206650Y-106299200D01*
X155233031Y-106300496D01*
G37*
G36*
X148733031Y-106300496D02*
G01*
X148759159Y-106304372D01*
X148784780Y-106310790D01*
X148809649Y-106319688D01*
X148833526Y-106330981D01*
X148856182Y-106344560D01*
X148877397Y-106360294D01*
X148896968Y-106378032D01*
X148914706Y-106397603D01*
X148930440Y-106418818D01*
X148944019Y-106441474D01*
X148955312Y-106465351D01*
X148964210Y-106490220D01*
X148970628Y-106515841D01*
X148974504Y-106541969D01*
X148975800Y-106568350D01*
X148975800Y-107531650D01*
X148974504Y-107558031D01*
X148970628Y-107584159D01*
X148964210Y-107609780D01*
X148955312Y-107634649D01*
X148944019Y-107658526D01*
X148930440Y-107681182D01*
X148914706Y-107702397D01*
X148896968Y-107721968D01*
X148877397Y-107739706D01*
X148856182Y-107755440D01*
X148833526Y-107769019D01*
X148809649Y-107780312D01*
X148784780Y-107789210D01*
X148759159Y-107795628D01*
X148733031Y-107799504D01*
X148706650Y-107800800D01*
X148168350Y-107800800D01*
X148141969Y-107799504D01*
X148115841Y-107795628D01*
X148090220Y-107789210D01*
X148065351Y-107780312D01*
X148041474Y-107769019D01*
X148018818Y-107755440D01*
X147997603Y-107739706D01*
X147978032Y-107721968D01*
X147960294Y-107702397D01*
X147944560Y-107681182D01*
X147930981Y-107658526D01*
X147919688Y-107634649D01*
X147910790Y-107609780D01*
X147904372Y-107584159D01*
X147900496Y-107558031D01*
X147899200Y-107531650D01*
X147899200Y-106568350D01*
X147900496Y-106541969D01*
X147904372Y-106515841D01*
X147910790Y-106490220D01*
X147919688Y-106465351D01*
X147930981Y-106441474D01*
X147944560Y-106418818D01*
X147960294Y-106397603D01*
X147978032Y-106378032D01*
X147997603Y-106360294D01*
X148018818Y-106344560D01*
X148041474Y-106330981D01*
X148065351Y-106319688D01*
X148090220Y-106310790D01*
X148115841Y-106304372D01*
X148141969Y-106300496D01*
X148168350Y-106299200D01*
X148706650Y-106299200D01*
X148733031Y-106300496D01*
G37*
G36*
X146858031Y-106300496D02*
G01*
X146884159Y-106304372D01*
X146909780Y-106310790D01*
X146934649Y-106319688D01*
X146958526Y-106330981D01*
X146981182Y-106344560D01*
X147002397Y-106360294D01*
X147021968Y-106378032D01*
X147039706Y-106397603D01*
X147055440Y-106418818D01*
X147069019Y-106441474D01*
X147080312Y-106465351D01*
X147089210Y-106490220D01*
X147095628Y-106515841D01*
X147099504Y-106541969D01*
X147100800Y-106568350D01*
X147100800Y-107531650D01*
X147099504Y-107558031D01*
X147095628Y-107584159D01*
X147089210Y-107609780D01*
X147080312Y-107634649D01*
X147069019Y-107658526D01*
X147055440Y-107681182D01*
X147039706Y-107702397D01*
X147021968Y-107721968D01*
X147002397Y-107739706D01*
X146981182Y-107755440D01*
X146958526Y-107769019D01*
X146934649Y-107780312D01*
X146909780Y-107789210D01*
X146884159Y-107795628D01*
X146858031Y-107799504D01*
X146831650Y-107800800D01*
X146293350Y-107800800D01*
X146266969Y-107799504D01*
X146240841Y-107795628D01*
X146215220Y-107789210D01*
X146190351Y-107780312D01*
X146166474Y-107769019D01*
X146143818Y-107755440D01*
X146122603Y-107739706D01*
X146103032Y-107721968D01*
X146085294Y-107702397D01*
X146069560Y-107681182D01*
X146055981Y-107658526D01*
X146044688Y-107634649D01*
X146035790Y-107609780D01*
X146029372Y-107584159D01*
X146025496Y-107558031D01*
X146024200Y-107531650D01*
X146024200Y-106568350D01*
X146025496Y-106541969D01*
X146029372Y-106515841D01*
X146035790Y-106490220D01*
X146044688Y-106465351D01*
X146055981Y-106441474D01*
X146069560Y-106418818D01*
X146085294Y-106397603D01*
X146103032Y-106378032D01*
X146122603Y-106360294D01*
X146143818Y-106344560D01*
X146166474Y-106330981D01*
X146190351Y-106319688D01*
X146215220Y-106310790D01*
X146240841Y-106304372D01*
X146266969Y-106300496D01*
X146293350Y-106299200D01*
X146831650Y-106299200D01*
X146858031Y-106300496D01*
G37*
G36*
X145808031Y-116650496D02*
G01*
X145834159Y-116654372D01*
X145859780Y-116660790D01*
X145884649Y-116669688D01*
X145908526Y-116680981D01*
X145931182Y-116694560D01*
X145952397Y-116710294D01*
X145971968Y-116728032D01*
X145989706Y-116747603D01*
X146005440Y-116768818D01*
X146019019Y-116791474D01*
X146030312Y-116815351D01*
X146039210Y-116840220D01*
X146045628Y-116865841D01*
X146049504Y-116891969D01*
X146050800Y-116918350D01*
X146050800Y-117456650D01*
X146049504Y-117483031D01*
X146045628Y-117509159D01*
X146039210Y-117534780D01*
X146030312Y-117559649D01*
X146019019Y-117583526D01*
X146005440Y-117606182D01*
X145989706Y-117627397D01*
X145971968Y-117646968D01*
X145952397Y-117664706D01*
X145931182Y-117680440D01*
X145908526Y-117694019D01*
X145884649Y-117705312D01*
X145859780Y-117714210D01*
X145834159Y-117720628D01*
X145808031Y-117724504D01*
X145781650Y-117725800D01*
X144818350Y-117725800D01*
X144791969Y-117724504D01*
X144765841Y-117720628D01*
X144740220Y-117714210D01*
X144715351Y-117705312D01*
X144691474Y-117694019D01*
X144668818Y-117680440D01*
X144647603Y-117664706D01*
X144628032Y-117646968D01*
X144610294Y-117627397D01*
X144594560Y-117606182D01*
X144580981Y-117583526D01*
X144569688Y-117559649D01*
X144560790Y-117534780D01*
X144554372Y-117509159D01*
X144550496Y-117483031D01*
X144549200Y-117456650D01*
X144549200Y-116918350D01*
X144550496Y-116891969D01*
X144554372Y-116865841D01*
X144560790Y-116840220D01*
X144569688Y-116815351D01*
X144580981Y-116791474D01*
X144594560Y-116768818D01*
X144610294Y-116747603D01*
X144628032Y-116728032D01*
X144647603Y-116710294D01*
X144668818Y-116694560D01*
X144691474Y-116680981D01*
X144715351Y-116669688D01*
X144740220Y-116660790D01*
X144765841Y-116654372D01*
X144791969Y-116650496D01*
X144818350Y-116649200D01*
X145781650Y-116649200D01*
X145808031Y-116650496D01*
G37*
G36*
X145808031Y-114775496D02*
G01*
X145834159Y-114779372D01*
X145859780Y-114785790D01*
X145884649Y-114794688D01*
X145908526Y-114805981D01*
X145931182Y-114819560D01*
X145952397Y-114835294D01*
X145971968Y-114853032D01*
X145989706Y-114872603D01*
X146005440Y-114893818D01*
X146019019Y-114916474D01*
X146030312Y-114940351D01*
X146039210Y-114965220D01*
X146045628Y-114990841D01*
X146049504Y-115016969D01*
X146050800Y-115043350D01*
X146050800Y-115581650D01*
X146049504Y-115608031D01*
X146045628Y-115634159D01*
X146039210Y-115659780D01*
X146030312Y-115684649D01*
X146019019Y-115708526D01*
X146005440Y-115731182D01*
X145989706Y-115752397D01*
X145971968Y-115771968D01*
X145952397Y-115789706D01*
X145931182Y-115805440D01*
X145908526Y-115819019D01*
X145884649Y-115830312D01*
X145859780Y-115839210D01*
X145834159Y-115845628D01*
X145808031Y-115849504D01*
X145781650Y-115850800D01*
X144818350Y-115850800D01*
X144791969Y-115849504D01*
X144765841Y-115845628D01*
X144740220Y-115839210D01*
X144715351Y-115830312D01*
X144691474Y-115819019D01*
X144668818Y-115805440D01*
X144647603Y-115789706D01*
X144628032Y-115771968D01*
X144610294Y-115752397D01*
X144594560Y-115731182D01*
X144580981Y-115708526D01*
X144569688Y-115684649D01*
X144560790Y-115659780D01*
X144554372Y-115634159D01*
X144550496Y-115608031D01*
X144549200Y-115581650D01*
X144549200Y-115043350D01*
X144550496Y-115016969D01*
X144554372Y-114990841D01*
X144560790Y-114965220D01*
X144569688Y-114940351D01*
X144580981Y-114916474D01*
X144594560Y-114893818D01*
X144610294Y-114872603D01*
X144628032Y-114853032D01*
X144647603Y-114835294D01*
X144668818Y-114819560D01*
X144691474Y-114805981D01*
X144715351Y-114794688D01*
X144740220Y-114785790D01*
X144765841Y-114779372D01*
X144791969Y-114775496D01*
X144818350Y-114774200D01*
X145781650Y-114774200D01*
X145808031Y-114775496D01*
G37*
G36*
X153858031Y-117700496D02*
G01*
X153884159Y-117704372D01*
X153909780Y-117710790D01*
X153934649Y-117719688D01*
X153958526Y-117730981D01*
X153981182Y-117744560D01*
X154002397Y-117760294D01*
X154021968Y-117778032D01*
X154039706Y-117797603D01*
X154055440Y-117818818D01*
X154069019Y-117841474D01*
X154080312Y-117865351D01*
X154089210Y-117890220D01*
X154095628Y-117915841D01*
X154099504Y-117941969D01*
X154100800Y-117968350D01*
X154100800Y-118931650D01*
X154099504Y-118958031D01*
X154095628Y-118984159D01*
X154089210Y-119009780D01*
X154080312Y-119034649D01*
X154069019Y-119058526D01*
X154055440Y-119081182D01*
X154039706Y-119102397D01*
X154021968Y-119121968D01*
X154002397Y-119139706D01*
X153981182Y-119155440D01*
X153958526Y-119169019D01*
X153934649Y-119180312D01*
X153909780Y-119189210D01*
X153884159Y-119195628D01*
X153858031Y-119199504D01*
X153831650Y-119200800D01*
X153293350Y-119200800D01*
X153266969Y-119199504D01*
X153240841Y-119195628D01*
X153215220Y-119189210D01*
X153190351Y-119180312D01*
X153166474Y-119169019D01*
X153143818Y-119155440D01*
X153122603Y-119139706D01*
X153103032Y-119121968D01*
X153085294Y-119102397D01*
X153069560Y-119081182D01*
X153055981Y-119058526D01*
X153044688Y-119034649D01*
X153035790Y-119009780D01*
X153029372Y-118984159D01*
X153025496Y-118958031D01*
X153024200Y-118931650D01*
X153024200Y-117968350D01*
X153025496Y-117941969D01*
X153029372Y-117915841D01*
X153035790Y-117890220D01*
X153044688Y-117865351D01*
X153055981Y-117841474D01*
X153069560Y-117818818D01*
X153085294Y-117797603D01*
X153103032Y-117778032D01*
X153122603Y-117760294D01*
X153143818Y-117744560D01*
X153166474Y-117730981D01*
X153190351Y-117719688D01*
X153215220Y-117710790D01*
X153240841Y-117704372D01*
X153266969Y-117700496D01*
X153293350Y-117699200D01*
X153831650Y-117699200D01*
X153858031Y-117700496D01*
G37*
G36*
X155733031Y-117700496D02*
G01*
X155759159Y-117704372D01*
X155784780Y-117710790D01*
X155809649Y-117719688D01*
X155833526Y-117730981D01*
X155856182Y-117744560D01*
X155877397Y-117760294D01*
X155896968Y-117778032D01*
X155914706Y-117797603D01*
X155930440Y-117818818D01*
X155944019Y-117841474D01*
X155955312Y-117865351D01*
X155964210Y-117890220D01*
X155970628Y-117915841D01*
X155974504Y-117941969D01*
X155975800Y-117968350D01*
X155975800Y-118931650D01*
X155974504Y-118958031D01*
X155970628Y-118984159D01*
X155964210Y-119009780D01*
X155955312Y-119034649D01*
X155944019Y-119058526D01*
X155930440Y-119081182D01*
X155914706Y-119102397D01*
X155896968Y-119121968D01*
X155877397Y-119139706D01*
X155856182Y-119155440D01*
X155833526Y-119169019D01*
X155809649Y-119180312D01*
X155784780Y-119189210D01*
X155759159Y-119195628D01*
X155733031Y-119199504D01*
X155706650Y-119200800D01*
X155168350Y-119200800D01*
X155141969Y-119199504D01*
X155115841Y-119195628D01*
X155090220Y-119189210D01*
X155065351Y-119180312D01*
X155041474Y-119169019D01*
X155018818Y-119155440D01*
X154997603Y-119139706D01*
X154978032Y-119121968D01*
X154960294Y-119102397D01*
X154944560Y-119081182D01*
X154930981Y-119058526D01*
X154919688Y-119034649D01*
X154910790Y-119009780D01*
X154904372Y-118984159D01*
X154900496Y-118958031D01*
X154899200Y-118931650D01*
X154899200Y-117968350D01*
X154900496Y-117941969D01*
X154904372Y-117915841D01*
X154910790Y-117890220D01*
X154919688Y-117865351D01*
X154930981Y-117841474D01*
X154944560Y-117818818D01*
X154960294Y-117797603D01*
X154978032Y-117778032D01*
X154997603Y-117760294D01*
X155018818Y-117744560D01*
X155041474Y-117730981D01*
X155065351Y-117719688D01*
X155090220Y-117710790D01*
X155115841Y-117704372D01*
X155141969Y-117700496D01*
X155168350Y-117699200D01*
X155706650Y-117699200D01*
X155733031Y-117700496D01*
G37*
G36*
X155733031Y-119850496D02*
G01*
X155759159Y-119854372D01*
X155784780Y-119860790D01*
X155809649Y-119869688D01*
X155833526Y-119880981D01*
X155856182Y-119894560D01*
X155877397Y-119910294D01*
X155896968Y-119928032D01*
X155914706Y-119947603D01*
X155930440Y-119968818D01*
X155944019Y-119991474D01*
X155955312Y-120015351D01*
X155964210Y-120040220D01*
X155970628Y-120065841D01*
X155974504Y-120091969D01*
X155975800Y-120118350D01*
X155975800Y-121081650D01*
X155974504Y-121108031D01*
X155970628Y-121134159D01*
X155964210Y-121159780D01*
X155955312Y-121184649D01*
X155944019Y-121208526D01*
X155930440Y-121231182D01*
X155914706Y-121252397D01*
X155896968Y-121271968D01*
X155877397Y-121289706D01*
X155856182Y-121305440D01*
X155833526Y-121319019D01*
X155809649Y-121330312D01*
X155784780Y-121339210D01*
X155759159Y-121345628D01*
X155733031Y-121349504D01*
X155706650Y-121350800D01*
X155168350Y-121350800D01*
X155141969Y-121349504D01*
X155115841Y-121345628D01*
X155090220Y-121339210D01*
X155065351Y-121330312D01*
X155041474Y-121319019D01*
X155018818Y-121305440D01*
X154997603Y-121289706D01*
X154978032Y-121271968D01*
X154960294Y-121252397D01*
X154944560Y-121231182D01*
X154930981Y-121208526D01*
X154919688Y-121184649D01*
X154910790Y-121159780D01*
X154904372Y-121134159D01*
X154900496Y-121108031D01*
X154899200Y-121081650D01*
X154899200Y-120118350D01*
X154900496Y-120091969D01*
X154904372Y-120065841D01*
X154910790Y-120040220D01*
X154919688Y-120015351D01*
X154930981Y-119991474D01*
X154944560Y-119968818D01*
X154960294Y-119947603D01*
X154978032Y-119928032D01*
X154997603Y-119910294D01*
X155018818Y-119894560D01*
X155041474Y-119880981D01*
X155065351Y-119869688D01*
X155090220Y-119860790D01*
X155115841Y-119854372D01*
X155141969Y-119850496D01*
X155168350Y-119849200D01*
X155706650Y-119849200D01*
X155733031Y-119850496D01*
G37*
G36*
X153858031Y-119850496D02*
G01*
X153884159Y-119854372D01*
X153909780Y-119860790D01*
X153934649Y-119869688D01*
X153958526Y-119880981D01*
X153981182Y-119894560D01*
X154002397Y-119910294D01*
X154021968Y-119928032D01*
X154039706Y-119947603D01*
X154055440Y-119968818D01*
X154069019Y-119991474D01*
X154080312Y-120015351D01*
X154089210Y-120040220D01*
X154095628Y-120065841D01*
X154099504Y-120091969D01*
X154100800Y-120118350D01*
X154100800Y-121081650D01*
X154099504Y-121108031D01*
X154095628Y-121134159D01*
X154089210Y-121159780D01*
X154080312Y-121184649D01*
X154069019Y-121208526D01*
X154055440Y-121231182D01*
X154039706Y-121252397D01*
X154021968Y-121271968D01*
X154002397Y-121289706D01*
X153981182Y-121305440D01*
X153958526Y-121319019D01*
X153934649Y-121330312D01*
X153909780Y-121339210D01*
X153884159Y-121345628D01*
X153858031Y-121349504D01*
X153831650Y-121350800D01*
X153293350Y-121350800D01*
X153266969Y-121349504D01*
X153240841Y-121345628D01*
X153215220Y-121339210D01*
X153190351Y-121330312D01*
X153166474Y-121319019D01*
X153143818Y-121305440D01*
X153122603Y-121289706D01*
X153103032Y-121271968D01*
X153085294Y-121252397D01*
X153069560Y-121231182D01*
X153055981Y-121208526D01*
X153044688Y-121184649D01*
X153035790Y-121159780D01*
X153029372Y-121134159D01*
X153025496Y-121108031D01*
X153024200Y-121081650D01*
X153024200Y-120118350D01*
X153025496Y-120091969D01*
X153029372Y-120065841D01*
X153035790Y-120040220D01*
X153044688Y-120015351D01*
X153055981Y-119991474D01*
X153069560Y-119968818D01*
X153085294Y-119947603D01*
X153103032Y-119928032D01*
X153122603Y-119910294D01*
X153143818Y-119894560D01*
X153166474Y-119880981D01*
X153190351Y-119869688D01*
X153215220Y-119860790D01*
X153240841Y-119854372D01*
X153266969Y-119850496D01*
X153293350Y-119849200D01*
X153831650Y-119849200D01*
X153858031Y-119850496D01*
G37*
G36*
X159308031Y-111150496D02*
G01*
X159334159Y-111154372D01*
X159359780Y-111160790D01*
X159384649Y-111169688D01*
X159408526Y-111180981D01*
X159431182Y-111194560D01*
X159452397Y-111210294D01*
X159471968Y-111228032D01*
X159489706Y-111247603D01*
X159505440Y-111268818D01*
X159519019Y-111291474D01*
X159530312Y-111315351D01*
X159539210Y-111340220D01*
X159545628Y-111365841D01*
X159549504Y-111391969D01*
X159550800Y-111418350D01*
X159550800Y-111956650D01*
X159549504Y-111983031D01*
X159545628Y-112009159D01*
X159539210Y-112034780D01*
X159530312Y-112059649D01*
X159519019Y-112083526D01*
X159505440Y-112106182D01*
X159489706Y-112127397D01*
X159471968Y-112146968D01*
X159452397Y-112164706D01*
X159431182Y-112180440D01*
X159408526Y-112194019D01*
X159384649Y-112205312D01*
X159359780Y-112214210D01*
X159334159Y-112220628D01*
X159308031Y-112224504D01*
X159281650Y-112225800D01*
X158318350Y-112225800D01*
X158291969Y-112224504D01*
X158265841Y-112220628D01*
X158240220Y-112214210D01*
X158215351Y-112205312D01*
X158191474Y-112194019D01*
X158168818Y-112180440D01*
X158147603Y-112164706D01*
X158128032Y-112146968D01*
X158110294Y-112127397D01*
X158094560Y-112106182D01*
X158080981Y-112083526D01*
X158069688Y-112059649D01*
X158060790Y-112034780D01*
X158054372Y-112009159D01*
X158050496Y-111983031D01*
X158049200Y-111956650D01*
X158049200Y-111418350D01*
X158050496Y-111391969D01*
X158054372Y-111365841D01*
X158060790Y-111340220D01*
X158069688Y-111315351D01*
X158080981Y-111291474D01*
X158094560Y-111268818D01*
X158110294Y-111247603D01*
X158128032Y-111228032D01*
X158147603Y-111210294D01*
X158168818Y-111194560D01*
X158191474Y-111180981D01*
X158215351Y-111169688D01*
X158240220Y-111160790D01*
X158265841Y-111154372D01*
X158291969Y-111150496D01*
X158318350Y-111149200D01*
X159281650Y-111149200D01*
X159308031Y-111150496D01*
G37*
G36*
X159308031Y-109275496D02*
G01*
X159334159Y-109279372D01*
X159359780Y-109285790D01*
X159384649Y-109294688D01*
X159408526Y-109305981D01*
X159431182Y-109319560D01*
X159452397Y-109335294D01*
X159471968Y-109353032D01*
X159489706Y-109372603D01*
X159505440Y-109393818D01*
X159519019Y-109416474D01*
X159530312Y-109440351D01*
X159539210Y-109465220D01*
X159545628Y-109490841D01*
X159549504Y-109516969D01*
X159550800Y-109543350D01*
X159550800Y-110081650D01*
X159549504Y-110108031D01*
X159545628Y-110134159D01*
X159539210Y-110159780D01*
X159530312Y-110184649D01*
X159519019Y-110208526D01*
X159505440Y-110231182D01*
X159489706Y-110252397D01*
X159471968Y-110271968D01*
X159452397Y-110289706D01*
X159431182Y-110305440D01*
X159408526Y-110319019D01*
X159384649Y-110330312D01*
X159359780Y-110339210D01*
X159334159Y-110345628D01*
X159308031Y-110349504D01*
X159281650Y-110350800D01*
X158318350Y-110350800D01*
X158291969Y-110349504D01*
X158265841Y-110345628D01*
X158240220Y-110339210D01*
X158215351Y-110330312D01*
X158191474Y-110319019D01*
X158168818Y-110305440D01*
X158147603Y-110289706D01*
X158128032Y-110271968D01*
X158110294Y-110252397D01*
X158094560Y-110231182D01*
X158080981Y-110208526D01*
X158069688Y-110184649D01*
X158060790Y-110159780D01*
X158054372Y-110134159D01*
X158050496Y-110108031D01*
X158049200Y-110081650D01*
X158049200Y-109543350D01*
X158050496Y-109516969D01*
X158054372Y-109490841D01*
X158060790Y-109465220D01*
X158069688Y-109440351D01*
X158080981Y-109416474D01*
X158094560Y-109393818D01*
X158110294Y-109372603D01*
X158128032Y-109353032D01*
X158147603Y-109335294D01*
X158168818Y-109319560D01*
X158191474Y-109305981D01*
X158215351Y-109294688D01*
X158240220Y-109285790D01*
X158265841Y-109279372D01*
X158291969Y-109275496D01*
X158318350Y-109274200D01*
X159281650Y-109274200D01*
X159308031Y-109275496D01*
G37*
G36*
X157208031Y-109275496D02*
G01*
X157234159Y-109279372D01*
X157259780Y-109285790D01*
X157284649Y-109294688D01*
X157308526Y-109305981D01*
X157331182Y-109319560D01*
X157352397Y-109335294D01*
X157371968Y-109353032D01*
X157389706Y-109372603D01*
X157405440Y-109393818D01*
X157419019Y-109416474D01*
X157430312Y-109440351D01*
X157439210Y-109465220D01*
X157445628Y-109490841D01*
X157449504Y-109516969D01*
X157450800Y-109543350D01*
X157450800Y-110081650D01*
X157449504Y-110108031D01*
X157445628Y-110134159D01*
X157439210Y-110159780D01*
X157430312Y-110184649D01*
X157419019Y-110208526D01*
X157405440Y-110231182D01*
X157389706Y-110252397D01*
X157371968Y-110271968D01*
X157352397Y-110289706D01*
X157331182Y-110305440D01*
X157308526Y-110319019D01*
X157284649Y-110330312D01*
X157259780Y-110339210D01*
X157234159Y-110345628D01*
X157208031Y-110349504D01*
X157181650Y-110350800D01*
X156218350Y-110350800D01*
X156191969Y-110349504D01*
X156165841Y-110345628D01*
X156140220Y-110339210D01*
X156115351Y-110330312D01*
X156091474Y-110319019D01*
X156068818Y-110305440D01*
X156047603Y-110289706D01*
X156028032Y-110271968D01*
X156010294Y-110252397D01*
X155994560Y-110231182D01*
X155980981Y-110208526D01*
X155969688Y-110184649D01*
X155960790Y-110159780D01*
X155954372Y-110134159D01*
X155950496Y-110108031D01*
X155949200Y-110081650D01*
X155949200Y-109543350D01*
X155950496Y-109516969D01*
X155954372Y-109490841D01*
X155960790Y-109465220D01*
X155969688Y-109440351D01*
X155980981Y-109416474D01*
X155994560Y-109393818D01*
X156010294Y-109372603D01*
X156028032Y-109353032D01*
X156047603Y-109335294D01*
X156068818Y-109319560D01*
X156091474Y-109305981D01*
X156115351Y-109294688D01*
X156140220Y-109285790D01*
X156165841Y-109279372D01*
X156191969Y-109275496D01*
X156218350Y-109274200D01*
X157181650Y-109274200D01*
X157208031Y-109275496D01*
G37*
G36*
X157208031Y-111150496D02*
G01*
X157234159Y-111154372D01*
X157259780Y-111160790D01*
X157284649Y-111169688D01*
X157308526Y-111180981D01*
X157331182Y-111194560D01*
X157352397Y-111210294D01*
X157371968Y-111228032D01*
X157389706Y-111247603D01*
X157405440Y-111268818D01*
X157419019Y-111291474D01*
X157430312Y-111315351D01*
X157439210Y-111340220D01*
X157445628Y-111365841D01*
X157449504Y-111391969D01*
X157450800Y-111418350D01*
X157450800Y-111956650D01*
X157449504Y-111983031D01*
X157445628Y-112009159D01*
X157439210Y-112034780D01*
X157430312Y-112059649D01*
X157419019Y-112083526D01*
X157405440Y-112106182D01*
X157389706Y-112127397D01*
X157371968Y-112146968D01*
X157352397Y-112164706D01*
X157331182Y-112180440D01*
X157308526Y-112194019D01*
X157284649Y-112205312D01*
X157259780Y-112214210D01*
X157234159Y-112220628D01*
X157208031Y-112224504D01*
X157181650Y-112225800D01*
X156218350Y-112225800D01*
X156191969Y-112224504D01*
X156165841Y-112220628D01*
X156140220Y-112214210D01*
X156115351Y-112205312D01*
X156091474Y-112194019D01*
X156068818Y-112180440D01*
X156047603Y-112164706D01*
X156028032Y-112146968D01*
X156010294Y-112127397D01*
X155994560Y-112106182D01*
X155980981Y-112083526D01*
X155969688Y-112059649D01*
X155960790Y-112034780D01*
X155954372Y-112009159D01*
X155950496Y-111983031D01*
X155949200Y-111956650D01*
X155949200Y-111418350D01*
X155950496Y-111391969D01*
X155954372Y-111365841D01*
X155960790Y-111340220D01*
X155969688Y-111315351D01*
X155980981Y-111291474D01*
X155994560Y-111268818D01*
X156010294Y-111247603D01*
X156028032Y-111228032D01*
X156047603Y-111210294D01*
X156068818Y-111194560D01*
X156091474Y-111180981D01*
X156115351Y-111169688D01*
X156140220Y-111160790D01*
X156165841Y-111154372D01*
X156191969Y-111150496D01*
X156218350Y-111149200D01*
X157181650Y-111149200D01*
X157208031Y-111150496D01*
G37*
G36*
X138383031Y-105150496D02*
G01*
X138409159Y-105154372D01*
X138434780Y-105160790D01*
X138459649Y-105169688D01*
X138483526Y-105180981D01*
X138506182Y-105194560D01*
X138527397Y-105210294D01*
X138546968Y-105228032D01*
X138564706Y-105247603D01*
X138580440Y-105268818D01*
X138594019Y-105291474D01*
X138605312Y-105315351D01*
X138614210Y-105340220D01*
X138620628Y-105365841D01*
X138624504Y-105391969D01*
X138625800Y-105418350D01*
X138625800Y-106381650D01*
X138624504Y-106408031D01*
X138620628Y-106434159D01*
X138614210Y-106459780D01*
X138605312Y-106484649D01*
X138594019Y-106508526D01*
X138580440Y-106531182D01*
X138564706Y-106552397D01*
X138546968Y-106571968D01*
X138527397Y-106589706D01*
X138506182Y-106605440D01*
X138483526Y-106619019D01*
X138459649Y-106630312D01*
X138434780Y-106639210D01*
X138409159Y-106645628D01*
X138383031Y-106649504D01*
X138356650Y-106650800D01*
X137818350Y-106650800D01*
X137791969Y-106649504D01*
X137765841Y-106645628D01*
X137740220Y-106639210D01*
X137715351Y-106630312D01*
X137691474Y-106619019D01*
X137668818Y-106605440D01*
X137647603Y-106589706D01*
X137628032Y-106571968D01*
X137610294Y-106552397D01*
X137594560Y-106531182D01*
X137580981Y-106508526D01*
X137569688Y-106484649D01*
X137560790Y-106459780D01*
X137554372Y-106434159D01*
X137550496Y-106408031D01*
X137549200Y-106381650D01*
X137549200Y-105418350D01*
X137550496Y-105391969D01*
X137554372Y-105365841D01*
X137560790Y-105340220D01*
X137569688Y-105315351D01*
X137580981Y-105291474D01*
X137594560Y-105268818D01*
X137610294Y-105247603D01*
X137628032Y-105228032D01*
X137647603Y-105210294D01*
X137668818Y-105194560D01*
X137691474Y-105180981D01*
X137715351Y-105169688D01*
X137740220Y-105160790D01*
X137765841Y-105154372D01*
X137791969Y-105150496D01*
X137818350Y-105149200D01*
X138356650Y-105149200D01*
X138383031Y-105150496D01*
G37*
G36*
X136508031Y-105150496D02*
G01*
X136534159Y-105154372D01*
X136559780Y-105160790D01*
X136584649Y-105169688D01*
X136608526Y-105180981D01*
X136631182Y-105194560D01*
X136652397Y-105210294D01*
X136671968Y-105228032D01*
X136689706Y-105247603D01*
X136705440Y-105268818D01*
X136719019Y-105291474D01*
X136730312Y-105315351D01*
X136739210Y-105340220D01*
X136745628Y-105365841D01*
X136749504Y-105391969D01*
X136750800Y-105418350D01*
X136750800Y-106381650D01*
X136749504Y-106408031D01*
X136745628Y-106434159D01*
X136739210Y-106459780D01*
X136730312Y-106484649D01*
X136719019Y-106508526D01*
X136705440Y-106531182D01*
X136689706Y-106552397D01*
X136671968Y-106571968D01*
X136652397Y-106589706D01*
X136631182Y-106605440D01*
X136608526Y-106619019D01*
X136584649Y-106630312D01*
X136559780Y-106639210D01*
X136534159Y-106645628D01*
X136508031Y-106649504D01*
X136481650Y-106650800D01*
X135943350Y-106650800D01*
X135916969Y-106649504D01*
X135890841Y-106645628D01*
X135865220Y-106639210D01*
X135840351Y-106630312D01*
X135816474Y-106619019D01*
X135793818Y-106605440D01*
X135772603Y-106589706D01*
X135753032Y-106571968D01*
X135735294Y-106552397D01*
X135719560Y-106531182D01*
X135705981Y-106508526D01*
X135694688Y-106484649D01*
X135685790Y-106459780D01*
X135679372Y-106434159D01*
X135675496Y-106408031D01*
X135674200Y-106381650D01*
X135674200Y-105418350D01*
X135675496Y-105391969D01*
X135679372Y-105365841D01*
X135685790Y-105340220D01*
X135694688Y-105315351D01*
X135705981Y-105291474D01*
X135719560Y-105268818D01*
X135735294Y-105247603D01*
X135753032Y-105228032D01*
X135772603Y-105210294D01*
X135793818Y-105194560D01*
X135816474Y-105180981D01*
X135840351Y-105169688D01*
X135865220Y-105160790D01*
X135890841Y-105154372D01*
X135916969Y-105150496D01*
X135943350Y-105149200D01*
X136481650Y-105149200D01*
X136508031Y-105150496D01*
G37*
G36*
X157808031Y-129150496D02*
G01*
X157834159Y-129154372D01*
X157859780Y-129160790D01*
X157884649Y-129169688D01*
X157908526Y-129180981D01*
X157931182Y-129194560D01*
X157952397Y-129210294D01*
X157971968Y-129228032D01*
X157989706Y-129247603D01*
X158005440Y-129268818D01*
X158019019Y-129291474D01*
X158030312Y-129315351D01*
X158039210Y-129340220D01*
X158045628Y-129365841D01*
X158049504Y-129391969D01*
X158050800Y-129418350D01*
X158050800Y-129956650D01*
X158049504Y-129983031D01*
X158045628Y-130009159D01*
X158039210Y-130034780D01*
X158030312Y-130059649D01*
X158019019Y-130083526D01*
X158005440Y-130106182D01*
X157989706Y-130127397D01*
X157971968Y-130146968D01*
X157952397Y-130164706D01*
X157931182Y-130180440D01*
X157908526Y-130194019D01*
X157884649Y-130205312D01*
X157859780Y-130214210D01*
X157834159Y-130220628D01*
X157808031Y-130224504D01*
X157781650Y-130225800D01*
X156818350Y-130225800D01*
X156791969Y-130224504D01*
X156765841Y-130220628D01*
X156740220Y-130214210D01*
X156715351Y-130205312D01*
X156691474Y-130194019D01*
X156668818Y-130180440D01*
X156647603Y-130164706D01*
X156628032Y-130146968D01*
X156610294Y-130127397D01*
X156594560Y-130106182D01*
X156580981Y-130083526D01*
X156569688Y-130059649D01*
X156560790Y-130034780D01*
X156554372Y-130009159D01*
X156550496Y-129983031D01*
X156549200Y-129956650D01*
X156549200Y-129418350D01*
X156550496Y-129391969D01*
X156554372Y-129365841D01*
X156560790Y-129340220D01*
X156569688Y-129315351D01*
X156580981Y-129291474D01*
X156594560Y-129268818D01*
X156610294Y-129247603D01*
X156628032Y-129228032D01*
X156647603Y-129210294D01*
X156668818Y-129194560D01*
X156691474Y-129180981D01*
X156715351Y-129169688D01*
X156740220Y-129160790D01*
X156765841Y-129154372D01*
X156791969Y-129150496D01*
X156818350Y-129149200D01*
X157781650Y-129149200D01*
X157808031Y-129150496D01*
G37*
G36*
X157808031Y-127275496D02*
G01*
X157834159Y-127279372D01*
X157859780Y-127285790D01*
X157884649Y-127294688D01*
X157908526Y-127305981D01*
X157931182Y-127319560D01*
X157952397Y-127335294D01*
X157971968Y-127353032D01*
X157989706Y-127372603D01*
X158005440Y-127393818D01*
X158019019Y-127416474D01*
X158030312Y-127440351D01*
X158039210Y-127465220D01*
X158045628Y-127490841D01*
X158049504Y-127516969D01*
X158050800Y-127543350D01*
X158050800Y-128081650D01*
X158049504Y-128108031D01*
X158045628Y-128134159D01*
X158039210Y-128159780D01*
X158030312Y-128184649D01*
X158019019Y-128208526D01*
X158005440Y-128231182D01*
X157989706Y-128252397D01*
X157971968Y-128271968D01*
X157952397Y-128289706D01*
X157931182Y-128305440D01*
X157908526Y-128319019D01*
X157884649Y-128330312D01*
X157859780Y-128339210D01*
X157834159Y-128345628D01*
X157808031Y-128349504D01*
X157781650Y-128350800D01*
X156818350Y-128350800D01*
X156791969Y-128349504D01*
X156765841Y-128345628D01*
X156740220Y-128339210D01*
X156715351Y-128330312D01*
X156691474Y-128319019D01*
X156668818Y-128305440D01*
X156647603Y-128289706D01*
X156628032Y-128271968D01*
X156610294Y-128252397D01*
X156594560Y-128231182D01*
X156580981Y-128208526D01*
X156569688Y-128184649D01*
X156560790Y-128159780D01*
X156554372Y-128134159D01*
X156550496Y-128108031D01*
X156549200Y-128081650D01*
X156549200Y-127543350D01*
X156550496Y-127516969D01*
X156554372Y-127490841D01*
X156560790Y-127465220D01*
X156569688Y-127440351D01*
X156580981Y-127416474D01*
X156594560Y-127393818D01*
X156610294Y-127372603D01*
X156628032Y-127353032D01*
X156647603Y-127335294D01*
X156668818Y-127319560D01*
X156691474Y-127305981D01*
X156715351Y-127294688D01*
X156740220Y-127285790D01*
X156765841Y-127279372D01*
X156791969Y-127275496D01*
X156818350Y-127274200D01*
X157781650Y-127274200D01*
X157808031Y-127275496D01*
G37*
G36*
X159958031Y-127275496D02*
G01*
X159984159Y-127279372D01*
X160009780Y-127285790D01*
X160034649Y-127294688D01*
X160058526Y-127305981D01*
X160081182Y-127319560D01*
X160102397Y-127335294D01*
X160121968Y-127353032D01*
X160139706Y-127372603D01*
X160155440Y-127393818D01*
X160169019Y-127416474D01*
X160180312Y-127440351D01*
X160189210Y-127465220D01*
X160195628Y-127490841D01*
X160199504Y-127516969D01*
X160200800Y-127543350D01*
X160200800Y-128081650D01*
X160199504Y-128108031D01*
X160195628Y-128134159D01*
X160189210Y-128159780D01*
X160180312Y-128184649D01*
X160169019Y-128208526D01*
X160155440Y-128231182D01*
X160139706Y-128252397D01*
X160121968Y-128271968D01*
X160102397Y-128289706D01*
X160081182Y-128305440D01*
X160058526Y-128319019D01*
X160034649Y-128330312D01*
X160009780Y-128339210D01*
X159984159Y-128345628D01*
X159958031Y-128349504D01*
X159931650Y-128350800D01*
X158968350Y-128350800D01*
X158941969Y-128349504D01*
X158915841Y-128345628D01*
X158890220Y-128339210D01*
X158865351Y-128330312D01*
X158841474Y-128319019D01*
X158818818Y-128305440D01*
X158797603Y-128289706D01*
X158778032Y-128271968D01*
X158760294Y-128252397D01*
X158744560Y-128231182D01*
X158730981Y-128208526D01*
X158719688Y-128184649D01*
X158710790Y-128159780D01*
X158704372Y-128134159D01*
X158700496Y-128108031D01*
X158699200Y-128081650D01*
X158699200Y-127543350D01*
X158700496Y-127516969D01*
X158704372Y-127490841D01*
X158710790Y-127465220D01*
X158719688Y-127440351D01*
X158730981Y-127416474D01*
X158744560Y-127393818D01*
X158760294Y-127372603D01*
X158778032Y-127353032D01*
X158797603Y-127335294D01*
X158818818Y-127319560D01*
X158841474Y-127305981D01*
X158865351Y-127294688D01*
X158890220Y-127285790D01*
X158915841Y-127279372D01*
X158941969Y-127275496D01*
X158968350Y-127274200D01*
X159931650Y-127274200D01*
X159958031Y-127275496D01*
G37*
G36*
X159958031Y-129150496D02*
G01*
X159984159Y-129154372D01*
X160009780Y-129160790D01*
X160034649Y-129169688D01*
X160058526Y-129180981D01*
X160081182Y-129194560D01*
X160102397Y-129210294D01*
X160121968Y-129228032D01*
X160139706Y-129247603D01*
X160155440Y-129268818D01*
X160169019Y-129291474D01*
X160180312Y-129315351D01*
X160189210Y-129340220D01*
X160195628Y-129365841D01*
X160199504Y-129391969D01*
X160200800Y-129418350D01*
X160200800Y-129956650D01*
X160199504Y-129983031D01*
X160195628Y-130009159D01*
X160189210Y-130034780D01*
X160180312Y-130059649D01*
X160169019Y-130083526D01*
X160155440Y-130106182D01*
X160139706Y-130127397D01*
X160121968Y-130146968D01*
X160102397Y-130164706D01*
X160081182Y-130180440D01*
X160058526Y-130194019D01*
X160034649Y-130205312D01*
X160009780Y-130214210D01*
X159984159Y-130220628D01*
X159958031Y-130224504D01*
X159931650Y-130225800D01*
X158968350Y-130225800D01*
X158941969Y-130224504D01*
X158915841Y-130220628D01*
X158890220Y-130214210D01*
X158865351Y-130205312D01*
X158841474Y-130194019D01*
X158818818Y-130180440D01*
X158797603Y-130164706D01*
X158778032Y-130146968D01*
X158760294Y-130127397D01*
X158744560Y-130106182D01*
X158730981Y-130083526D01*
X158719688Y-130059649D01*
X158710790Y-130034780D01*
X158704372Y-130009159D01*
X158700496Y-129983031D01*
X158699200Y-129956650D01*
X158699200Y-129418350D01*
X158700496Y-129391969D01*
X158704372Y-129365841D01*
X158710790Y-129340220D01*
X158719688Y-129315351D01*
X158730981Y-129291474D01*
X158744560Y-129268818D01*
X158760294Y-129247603D01*
X158778032Y-129228032D01*
X158797603Y-129210294D01*
X158818818Y-129194560D01*
X158841474Y-129180981D01*
X158865351Y-129169688D01*
X158890220Y-129160790D01*
X158915841Y-129154372D01*
X158941969Y-129150496D01*
X158968350Y-129149200D01*
X159931650Y-129149200D01*
X159958031Y-129150496D01*
G37*
G36*
X142008031Y-87150496D02*
G01*
X142034159Y-87154372D01*
X142059780Y-87160790D01*
X142084649Y-87169688D01*
X142108526Y-87180981D01*
X142131182Y-87194560D01*
X142152397Y-87210294D01*
X142171968Y-87228032D01*
X142189706Y-87247603D01*
X142205440Y-87268818D01*
X142219019Y-87291474D01*
X142230312Y-87315351D01*
X142239210Y-87340220D01*
X142245628Y-87365841D01*
X142249504Y-87391969D01*
X142250800Y-87418350D01*
X142250800Y-87956650D01*
X142249504Y-87983031D01*
X142245628Y-88009159D01*
X142239210Y-88034780D01*
X142230312Y-88059649D01*
X142219019Y-88083526D01*
X142205440Y-88106182D01*
X142189706Y-88127397D01*
X142171968Y-88146968D01*
X142152397Y-88164706D01*
X142131182Y-88180440D01*
X142108526Y-88194019D01*
X142084649Y-88205312D01*
X142059780Y-88214210D01*
X142034159Y-88220628D01*
X142008031Y-88224504D01*
X141981650Y-88225800D01*
X141018350Y-88225800D01*
X140991969Y-88224504D01*
X140965841Y-88220628D01*
X140940220Y-88214210D01*
X140915351Y-88205312D01*
X140891474Y-88194019D01*
X140868818Y-88180440D01*
X140847603Y-88164706D01*
X140828032Y-88146968D01*
X140810294Y-88127397D01*
X140794560Y-88106182D01*
X140780981Y-88083526D01*
X140769688Y-88059649D01*
X140760790Y-88034780D01*
X140754372Y-88009159D01*
X140750496Y-87983031D01*
X140749200Y-87956650D01*
X140749200Y-87418350D01*
X140750496Y-87391969D01*
X140754372Y-87365841D01*
X140760790Y-87340220D01*
X140769688Y-87315351D01*
X140780981Y-87291474D01*
X140794560Y-87268818D01*
X140810294Y-87247603D01*
X140828032Y-87228032D01*
X140847603Y-87210294D01*
X140868818Y-87194560D01*
X140891474Y-87180981D01*
X140915351Y-87169688D01*
X140940220Y-87160790D01*
X140965841Y-87154372D01*
X140991969Y-87150496D01*
X141018350Y-87149200D01*
X141981650Y-87149200D01*
X142008031Y-87150496D01*
G37*
G36*
X142008031Y-85275496D02*
G01*
X142034159Y-85279372D01*
X142059780Y-85285790D01*
X142084649Y-85294688D01*
X142108526Y-85305981D01*
X142131182Y-85319560D01*
X142152397Y-85335294D01*
X142171968Y-85353032D01*
X142189706Y-85372603D01*
X142205440Y-85393818D01*
X142219019Y-85416474D01*
X142230312Y-85440351D01*
X142239210Y-85465220D01*
X142245628Y-85490841D01*
X142249504Y-85516969D01*
X142250800Y-85543350D01*
X142250800Y-86081650D01*
X142249504Y-86108031D01*
X142245628Y-86134159D01*
X142239210Y-86159780D01*
X142230312Y-86184649D01*
X142219019Y-86208526D01*
X142205440Y-86231182D01*
X142189706Y-86252397D01*
X142171968Y-86271968D01*
X142152397Y-86289706D01*
X142131182Y-86305440D01*
X142108526Y-86319019D01*
X142084649Y-86330312D01*
X142059780Y-86339210D01*
X142034159Y-86345628D01*
X142008031Y-86349504D01*
X141981650Y-86350800D01*
X141018350Y-86350800D01*
X140991969Y-86349504D01*
X140965841Y-86345628D01*
X140940220Y-86339210D01*
X140915351Y-86330312D01*
X140891474Y-86319019D01*
X140868818Y-86305440D01*
X140847603Y-86289706D01*
X140828032Y-86271968D01*
X140810294Y-86252397D01*
X140794560Y-86231182D01*
X140780981Y-86208526D01*
X140769688Y-86184649D01*
X140760790Y-86159780D01*
X140754372Y-86134159D01*
X140750496Y-86108031D01*
X140749200Y-86081650D01*
X140749200Y-85543350D01*
X140750496Y-85516969D01*
X140754372Y-85490841D01*
X140760790Y-85465220D01*
X140769688Y-85440351D01*
X140780981Y-85416474D01*
X140794560Y-85393818D01*
X140810294Y-85372603D01*
X140828032Y-85353032D01*
X140847603Y-85335294D01*
X140868818Y-85319560D01*
X140891474Y-85305981D01*
X140915351Y-85294688D01*
X140940220Y-85285790D01*
X140965841Y-85279372D01*
X140991969Y-85275496D01*
X141018350Y-85274200D01*
X141981650Y-85274200D01*
X142008031Y-85275496D01*
G37*
G36*
X144508031Y-86775496D02*
G01*
X144534159Y-86779372D01*
X144559780Y-86785790D01*
X144584649Y-86794688D01*
X144608526Y-86805981D01*
X144631182Y-86819560D01*
X144652397Y-86835294D01*
X144671968Y-86853032D01*
X144689706Y-86872603D01*
X144705440Y-86893818D01*
X144719019Y-86916474D01*
X144730312Y-86940351D01*
X144739210Y-86965220D01*
X144745628Y-86990841D01*
X144749504Y-87016969D01*
X144750800Y-87043350D01*
X144750800Y-87581650D01*
X144749504Y-87608031D01*
X144745628Y-87634159D01*
X144739210Y-87659780D01*
X144730312Y-87684649D01*
X144719019Y-87708526D01*
X144705440Y-87731182D01*
X144689706Y-87752397D01*
X144671968Y-87771968D01*
X144652397Y-87789706D01*
X144631182Y-87805440D01*
X144608526Y-87819019D01*
X144584649Y-87830312D01*
X144559780Y-87839210D01*
X144534159Y-87845628D01*
X144508031Y-87849504D01*
X144481650Y-87850800D01*
X143518350Y-87850800D01*
X143491969Y-87849504D01*
X143465841Y-87845628D01*
X143440220Y-87839210D01*
X143415351Y-87830312D01*
X143391474Y-87819019D01*
X143368818Y-87805440D01*
X143347603Y-87789706D01*
X143328032Y-87771968D01*
X143310294Y-87752397D01*
X143294560Y-87731182D01*
X143280981Y-87708526D01*
X143269688Y-87684649D01*
X143260790Y-87659780D01*
X143254372Y-87634159D01*
X143250496Y-87608031D01*
X143249200Y-87581650D01*
X143249200Y-87043350D01*
X143250496Y-87016969D01*
X143254372Y-86990841D01*
X143260790Y-86965220D01*
X143269688Y-86940351D01*
X143280981Y-86916474D01*
X143294560Y-86893818D01*
X143310294Y-86872603D01*
X143328032Y-86853032D01*
X143347603Y-86835294D01*
X143368818Y-86819560D01*
X143391474Y-86805981D01*
X143415351Y-86794688D01*
X143440220Y-86785790D01*
X143465841Y-86779372D01*
X143491969Y-86775496D01*
X143518350Y-86774200D01*
X144481650Y-86774200D01*
X144508031Y-86775496D01*
G37*
G36*
X144508031Y-88650496D02*
G01*
X144534159Y-88654372D01*
X144559780Y-88660790D01*
X144584649Y-88669688D01*
X144608526Y-88680981D01*
X144631182Y-88694560D01*
X144652397Y-88710294D01*
X144671968Y-88728032D01*
X144689706Y-88747603D01*
X144705440Y-88768818D01*
X144719019Y-88791474D01*
X144730312Y-88815351D01*
X144739210Y-88840220D01*
X144745628Y-88865841D01*
X144749504Y-88891969D01*
X144750800Y-88918350D01*
X144750800Y-89456650D01*
X144749504Y-89483031D01*
X144745628Y-89509159D01*
X144739210Y-89534780D01*
X144730312Y-89559649D01*
X144719019Y-89583526D01*
X144705440Y-89606182D01*
X144689706Y-89627397D01*
X144671968Y-89646968D01*
X144652397Y-89664706D01*
X144631182Y-89680440D01*
X144608526Y-89694019D01*
X144584649Y-89705312D01*
X144559780Y-89714210D01*
X144534159Y-89720628D01*
X144508031Y-89724504D01*
X144481650Y-89725800D01*
X143518350Y-89725800D01*
X143491969Y-89724504D01*
X143465841Y-89720628D01*
X143440220Y-89714210D01*
X143415351Y-89705312D01*
X143391474Y-89694019D01*
X143368818Y-89680440D01*
X143347603Y-89664706D01*
X143328032Y-89646968D01*
X143310294Y-89627397D01*
X143294560Y-89606182D01*
X143280981Y-89583526D01*
X143269688Y-89559649D01*
X143260790Y-89534780D01*
X143254372Y-89509159D01*
X143250496Y-89483031D01*
X143249200Y-89456650D01*
X143249200Y-88918350D01*
X143250496Y-88891969D01*
X143254372Y-88865841D01*
X143260790Y-88840220D01*
X143269688Y-88815351D01*
X143280981Y-88791474D01*
X143294560Y-88768818D01*
X143310294Y-88747603D01*
X143328032Y-88728032D01*
X143347603Y-88710294D01*
X143368818Y-88694560D01*
X143391474Y-88680981D01*
X143415351Y-88669688D01*
X143440220Y-88660790D01*
X143465841Y-88654372D01*
X143491969Y-88650496D01*
X143518350Y-88649200D01*
X144481650Y-88649200D01*
X144508031Y-88650496D01*
G37*
G36*
X147008031Y-86775496D02*
G01*
X147034159Y-86779372D01*
X147059780Y-86785790D01*
X147084649Y-86794688D01*
X147108526Y-86805981D01*
X147131182Y-86819560D01*
X147152397Y-86835294D01*
X147171968Y-86853032D01*
X147189706Y-86872603D01*
X147205440Y-86893818D01*
X147219019Y-86916474D01*
X147230312Y-86940351D01*
X147239210Y-86965220D01*
X147245628Y-86990841D01*
X147249504Y-87016969D01*
X147250800Y-87043350D01*
X147250800Y-87581650D01*
X147249504Y-87608031D01*
X147245628Y-87634159D01*
X147239210Y-87659780D01*
X147230312Y-87684649D01*
X147219019Y-87708526D01*
X147205440Y-87731182D01*
X147189706Y-87752397D01*
X147171968Y-87771968D01*
X147152397Y-87789706D01*
X147131182Y-87805440D01*
X147108526Y-87819019D01*
X147084649Y-87830312D01*
X147059780Y-87839210D01*
X147034159Y-87845628D01*
X147008031Y-87849504D01*
X146981650Y-87850800D01*
X146018350Y-87850800D01*
X145991969Y-87849504D01*
X145965841Y-87845628D01*
X145940220Y-87839210D01*
X145915351Y-87830312D01*
X145891474Y-87819019D01*
X145868818Y-87805440D01*
X145847603Y-87789706D01*
X145828032Y-87771968D01*
X145810294Y-87752397D01*
X145794560Y-87731182D01*
X145780981Y-87708526D01*
X145769688Y-87684649D01*
X145760790Y-87659780D01*
X145754372Y-87634159D01*
X145750496Y-87608031D01*
X145749200Y-87581650D01*
X145749200Y-87043350D01*
X145750496Y-87016969D01*
X145754372Y-86990841D01*
X145760790Y-86965220D01*
X145769688Y-86940351D01*
X145780981Y-86916474D01*
X145794560Y-86893818D01*
X145810294Y-86872603D01*
X145828032Y-86853032D01*
X145847603Y-86835294D01*
X145868818Y-86819560D01*
X145891474Y-86805981D01*
X145915351Y-86794688D01*
X145940220Y-86785790D01*
X145965841Y-86779372D01*
X145991969Y-86775496D01*
X146018350Y-86774200D01*
X146981650Y-86774200D01*
X147008031Y-86775496D01*
G37*
G36*
X147008031Y-88650496D02*
G01*
X147034159Y-88654372D01*
X147059780Y-88660790D01*
X147084649Y-88669688D01*
X147108526Y-88680981D01*
X147131182Y-88694560D01*
X147152397Y-88710294D01*
X147171968Y-88728032D01*
X147189706Y-88747603D01*
X147205440Y-88768818D01*
X147219019Y-88791474D01*
X147230312Y-88815351D01*
X147239210Y-88840220D01*
X147245628Y-88865841D01*
X147249504Y-88891969D01*
X147250800Y-88918350D01*
X147250800Y-89456650D01*
X147249504Y-89483031D01*
X147245628Y-89509159D01*
X147239210Y-89534780D01*
X147230312Y-89559649D01*
X147219019Y-89583526D01*
X147205440Y-89606182D01*
X147189706Y-89627397D01*
X147171968Y-89646968D01*
X147152397Y-89664706D01*
X147131182Y-89680440D01*
X147108526Y-89694019D01*
X147084649Y-89705312D01*
X147059780Y-89714210D01*
X147034159Y-89720628D01*
X147008031Y-89724504D01*
X146981650Y-89725800D01*
X146018350Y-89725800D01*
X145991969Y-89724504D01*
X145965841Y-89720628D01*
X145940220Y-89714210D01*
X145915351Y-89705312D01*
X145891474Y-89694019D01*
X145868818Y-89680440D01*
X145847603Y-89664706D01*
X145828032Y-89646968D01*
X145810294Y-89627397D01*
X145794560Y-89606182D01*
X145780981Y-89583526D01*
X145769688Y-89559649D01*
X145760790Y-89534780D01*
X145754372Y-89509159D01*
X145750496Y-89483031D01*
X145749200Y-89456650D01*
X145749200Y-88918350D01*
X145750496Y-88891969D01*
X145754372Y-88865841D01*
X145760790Y-88840220D01*
X145769688Y-88815351D01*
X145780981Y-88791474D01*
X145794560Y-88768818D01*
X145810294Y-88747603D01*
X145828032Y-88728032D01*
X145847603Y-88710294D01*
X145868818Y-88694560D01*
X145891474Y-88680981D01*
X145915351Y-88669688D01*
X145940220Y-88660790D01*
X145965841Y-88654372D01*
X145991969Y-88650496D01*
X146018350Y-88649200D01*
X146981650Y-88649200D01*
X147008031Y-88650496D01*
G37*
G36*
X153233031Y-88000496D02*
G01*
X153259159Y-88004372D01*
X153284780Y-88010790D01*
X153309649Y-88019688D01*
X153333526Y-88030981D01*
X153356182Y-88044560D01*
X153377397Y-88060294D01*
X153396968Y-88078032D01*
X153414706Y-88097603D01*
X153430440Y-88118818D01*
X153444019Y-88141474D01*
X153455312Y-88165351D01*
X153464210Y-88190220D01*
X153470628Y-88215841D01*
X153474504Y-88241969D01*
X153475800Y-88268350D01*
X153475800Y-89231650D01*
X153474504Y-89258031D01*
X153470628Y-89284159D01*
X153464210Y-89309780D01*
X153455312Y-89334649D01*
X153444019Y-89358526D01*
X153430440Y-89381182D01*
X153414706Y-89402397D01*
X153396968Y-89421968D01*
X153377397Y-89439706D01*
X153356182Y-89455440D01*
X153333526Y-89469019D01*
X153309649Y-89480312D01*
X153284780Y-89489210D01*
X153259159Y-89495628D01*
X153233031Y-89499504D01*
X153206650Y-89500800D01*
X152668350Y-89500800D01*
X152641969Y-89499504D01*
X152615841Y-89495628D01*
X152590220Y-89489210D01*
X152565351Y-89480312D01*
X152541474Y-89469019D01*
X152518818Y-89455440D01*
X152497603Y-89439706D01*
X152478032Y-89421968D01*
X152460294Y-89402397D01*
X152444560Y-89381182D01*
X152430981Y-89358526D01*
X152419688Y-89334649D01*
X152410790Y-89309780D01*
X152404372Y-89284159D01*
X152400496Y-89258031D01*
X152399200Y-89231650D01*
X152399200Y-88268350D01*
X152400496Y-88241969D01*
X152404372Y-88215841D01*
X152410790Y-88190220D01*
X152419688Y-88165351D01*
X152430981Y-88141474D01*
X152444560Y-88118818D01*
X152460294Y-88097603D01*
X152478032Y-88078032D01*
X152497603Y-88060294D01*
X152518818Y-88044560D01*
X152541474Y-88030981D01*
X152565351Y-88019688D01*
X152590220Y-88010790D01*
X152615841Y-88004372D01*
X152641969Y-88000496D01*
X152668350Y-87999200D01*
X153206650Y-87999200D01*
X153233031Y-88000496D01*
G37*
G36*
X151358031Y-88000496D02*
G01*
X151384159Y-88004372D01*
X151409780Y-88010790D01*
X151434649Y-88019688D01*
X151458526Y-88030981D01*
X151481182Y-88044560D01*
X151502397Y-88060294D01*
X151521968Y-88078032D01*
X151539706Y-88097603D01*
X151555440Y-88118818D01*
X151569019Y-88141474D01*
X151580312Y-88165351D01*
X151589210Y-88190220D01*
X151595628Y-88215841D01*
X151599504Y-88241969D01*
X151600800Y-88268350D01*
X151600800Y-89231650D01*
X151599504Y-89258031D01*
X151595628Y-89284159D01*
X151589210Y-89309780D01*
X151580312Y-89334649D01*
X151569019Y-89358526D01*
X151555440Y-89381182D01*
X151539706Y-89402397D01*
X151521968Y-89421968D01*
X151502397Y-89439706D01*
X151481182Y-89455440D01*
X151458526Y-89469019D01*
X151434649Y-89480312D01*
X151409780Y-89489210D01*
X151384159Y-89495628D01*
X151358031Y-89499504D01*
X151331650Y-89500800D01*
X150793350Y-89500800D01*
X150766969Y-89499504D01*
X150740841Y-89495628D01*
X150715220Y-89489210D01*
X150690351Y-89480312D01*
X150666474Y-89469019D01*
X150643818Y-89455440D01*
X150622603Y-89439706D01*
X150603032Y-89421968D01*
X150585294Y-89402397D01*
X150569560Y-89381182D01*
X150555981Y-89358526D01*
X150544688Y-89334649D01*
X150535790Y-89309780D01*
X150529372Y-89284159D01*
X150525496Y-89258031D01*
X150524200Y-89231650D01*
X150524200Y-88268350D01*
X150525496Y-88241969D01*
X150529372Y-88215841D01*
X150535790Y-88190220D01*
X150544688Y-88165351D01*
X150555981Y-88141474D01*
X150569560Y-88118818D01*
X150585294Y-88097603D01*
X150603032Y-88078032D01*
X150622603Y-88060294D01*
X150643818Y-88044560D01*
X150666474Y-88030981D01*
X150690351Y-88019688D01*
X150715220Y-88010790D01*
X150740841Y-88004372D01*
X150766969Y-88000496D01*
X150793350Y-87999200D01*
X151331650Y-87999200D01*
X151358031Y-88000496D01*
G37*
G36*
X175008031Y-128000496D02*
G01*
X175034159Y-128004372D01*
X175059780Y-128010790D01*
X175084649Y-128019688D01*
X175108526Y-128030981D01*
X175131182Y-128044560D01*
X175152397Y-128060294D01*
X175171968Y-128078032D01*
X175189706Y-128097603D01*
X175205440Y-128118818D01*
X175219019Y-128141474D01*
X175230312Y-128165351D01*
X175239210Y-128190220D01*
X175245628Y-128215841D01*
X175249504Y-128241969D01*
X175250800Y-128268350D01*
X175250800Y-128806650D01*
X175249504Y-128833031D01*
X175245628Y-128859159D01*
X175239210Y-128884780D01*
X175230312Y-128909649D01*
X175219019Y-128933526D01*
X175205440Y-128956182D01*
X175189706Y-128977397D01*
X175171968Y-128996968D01*
X175152397Y-129014706D01*
X175131182Y-129030440D01*
X175108526Y-129044019D01*
X175084649Y-129055312D01*
X175059780Y-129064210D01*
X175034159Y-129070628D01*
X175008031Y-129074504D01*
X174981650Y-129075800D01*
X174018350Y-129075800D01*
X173991969Y-129074504D01*
X173965841Y-129070628D01*
X173940220Y-129064210D01*
X173915351Y-129055312D01*
X173891474Y-129044019D01*
X173868818Y-129030440D01*
X173847603Y-129014706D01*
X173828032Y-128996968D01*
X173810294Y-128977397D01*
X173794560Y-128956182D01*
X173780981Y-128933526D01*
X173769688Y-128909649D01*
X173760790Y-128884780D01*
X173754372Y-128859159D01*
X173750496Y-128833031D01*
X173749200Y-128806650D01*
X173749200Y-128268350D01*
X173750496Y-128241969D01*
X173754372Y-128215841D01*
X173760790Y-128190220D01*
X173769688Y-128165351D01*
X173780981Y-128141474D01*
X173794560Y-128118818D01*
X173810294Y-128097603D01*
X173828032Y-128078032D01*
X173847603Y-128060294D01*
X173868818Y-128044560D01*
X173891474Y-128030981D01*
X173915351Y-128019688D01*
X173940220Y-128010790D01*
X173965841Y-128004372D01*
X173991969Y-128000496D01*
X174018350Y-127999200D01*
X174981650Y-127999200D01*
X175008031Y-128000496D01*
G37*
G36*
X175008031Y-126125496D02*
G01*
X175034159Y-126129372D01*
X175059780Y-126135790D01*
X175084649Y-126144688D01*
X175108526Y-126155981D01*
X175131182Y-126169560D01*
X175152397Y-126185294D01*
X175171968Y-126203032D01*
X175189706Y-126222603D01*
X175205440Y-126243818D01*
X175219019Y-126266474D01*
X175230312Y-126290351D01*
X175239210Y-126315220D01*
X175245628Y-126340841D01*
X175249504Y-126366969D01*
X175250800Y-126393350D01*
X175250800Y-126931650D01*
X175249504Y-126958031D01*
X175245628Y-126984159D01*
X175239210Y-127009780D01*
X175230312Y-127034649D01*
X175219019Y-127058526D01*
X175205440Y-127081182D01*
X175189706Y-127102397D01*
X175171968Y-127121968D01*
X175152397Y-127139706D01*
X175131182Y-127155440D01*
X175108526Y-127169019D01*
X175084649Y-127180312D01*
X175059780Y-127189210D01*
X175034159Y-127195628D01*
X175008031Y-127199504D01*
X174981650Y-127200800D01*
X174018350Y-127200800D01*
X173991969Y-127199504D01*
X173965841Y-127195628D01*
X173940220Y-127189210D01*
X173915351Y-127180312D01*
X173891474Y-127169019D01*
X173868818Y-127155440D01*
X173847603Y-127139706D01*
X173828032Y-127121968D01*
X173810294Y-127102397D01*
X173794560Y-127081182D01*
X173780981Y-127058526D01*
X173769688Y-127034649D01*
X173760790Y-127009780D01*
X173754372Y-126984159D01*
X173750496Y-126958031D01*
X173749200Y-126931650D01*
X173749200Y-126393350D01*
X173750496Y-126366969D01*
X173754372Y-126340841D01*
X173760790Y-126315220D01*
X173769688Y-126290351D01*
X173780981Y-126266474D01*
X173794560Y-126243818D01*
X173810294Y-126222603D01*
X173828032Y-126203032D01*
X173847603Y-126185294D01*
X173868818Y-126169560D01*
X173891474Y-126155981D01*
X173915351Y-126144688D01*
X173940220Y-126135790D01*
X173965841Y-126129372D01*
X173991969Y-126125496D01*
X174018350Y-126124200D01*
X174981650Y-126124200D01*
X175008031Y-126125496D01*
G37*
G36*
X172808031Y-126125496D02*
G01*
X172834159Y-126129372D01*
X172859780Y-126135790D01*
X172884649Y-126144688D01*
X172908526Y-126155981D01*
X172931182Y-126169560D01*
X172952397Y-126185294D01*
X172971968Y-126203032D01*
X172989706Y-126222603D01*
X173005440Y-126243818D01*
X173019019Y-126266474D01*
X173030312Y-126290351D01*
X173039210Y-126315220D01*
X173045628Y-126340841D01*
X173049504Y-126366969D01*
X173050800Y-126393350D01*
X173050800Y-126931650D01*
X173049504Y-126958031D01*
X173045628Y-126984159D01*
X173039210Y-127009780D01*
X173030312Y-127034649D01*
X173019019Y-127058526D01*
X173005440Y-127081182D01*
X172989706Y-127102397D01*
X172971968Y-127121968D01*
X172952397Y-127139706D01*
X172931182Y-127155440D01*
X172908526Y-127169019D01*
X172884649Y-127180312D01*
X172859780Y-127189210D01*
X172834159Y-127195628D01*
X172808031Y-127199504D01*
X172781650Y-127200800D01*
X171818350Y-127200800D01*
X171791969Y-127199504D01*
X171765841Y-127195628D01*
X171740220Y-127189210D01*
X171715351Y-127180312D01*
X171691474Y-127169019D01*
X171668818Y-127155440D01*
X171647603Y-127139706D01*
X171628032Y-127121968D01*
X171610294Y-127102397D01*
X171594560Y-127081182D01*
X171580981Y-127058526D01*
X171569688Y-127034649D01*
X171560790Y-127009780D01*
X171554372Y-126984159D01*
X171550496Y-126958031D01*
X171549200Y-126931650D01*
X171549200Y-126393350D01*
X171550496Y-126366969D01*
X171554372Y-126340841D01*
X171560790Y-126315220D01*
X171569688Y-126290351D01*
X171580981Y-126266474D01*
X171594560Y-126243818D01*
X171610294Y-126222603D01*
X171628032Y-126203032D01*
X171647603Y-126185294D01*
X171668818Y-126169560D01*
X171691474Y-126155981D01*
X171715351Y-126144688D01*
X171740220Y-126135790D01*
X171765841Y-126129372D01*
X171791969Y-126125496D01*
X171818350Y-126124200D01*
X172781650Y-126124200D01*
X172808031Y-126125496D01*
G37*
G36*
X172808031Y-128000496D02*
G01*
X172834159Y-128004372D01*
X172859780Y-128010790D01*
X172884649Y-128019688D01*
X172908526Y-128030981D01*
X172931182Y-128044560D01*
X172952397Y-128060294D01*
X172971968Y-128078032D01*
X172989706Y-128097603D01*
X173005440Y-128118818D01*
X173019019Y-128141474D01*
X173030312Y-128165351D01*
X173039210Y-128190220D01*
X173045628Y-128215841D01*
X173049504Y-128241969D01*
X173050800Y-128268350D01*
X173050800Y-128806650D01*
X173049504Y-128833031D01*
X173045628Y-128859159D01*
X173039210Y-128884780D01*
X173030312Y-128909649D01*
X173019019Y-128933526D01*
X173005440Y-128956182D01*
X172989706Y-128977397D01*
X172971968Y-128996968D01*
X172952397Y-129014706D01*
X172931182Y-129030440D01*
X172908526Y-129044019D01*
X172884649Y-129055312D01*
X172859780Y-129064210D01*
X172834159Y-129070628D01*
X172808031Y-129074504D01*
X172781650Y-129075800D01*
X171818350Y-129075800D01*
X171791969Y-129074504D01*
X171765841Y-129070628D01*
X171740220Y-129064210D01*
X171715351Y-129055312D01*
X171691474Y-129044019D01*
X171668818Y-129030440D01*
X171647603Y-129014706D01*
X171628032Y-128996968D01*
X171610294Y-128977397D01*
X171594560Y-128956182D01*
X171580981Y-128933526D01*
X171569688Y-128909649D01*
X171560790Y-128884780D01*
X171554372Y-128859159D01*
X171550496Y-128833031D01*
X171549200Y-128806650D01*
X171549200Y-128268350D01*
X171550496Y-128241969D01*
X171554372Y-128215841D01*
X171560790Y-128190220D01*
X171569688Y-128165351D01*
X171580981Y-128141474D01*
X171594560Y-128118818D01*
X171610294Y-128097603D01*
X171628032Y-128078032D01*
X171647603Y-128060294D01*
X171668818Y-128044560D01*
X171691474Y-128030981D01*
X171715351Y-128019688D01*
X171740220Y-128010790D01*
X171765841Y-128004372D01*
X171791969Y-128000496D01*
X171818350Y-127999200D01*
X172781650Y-127999200D01*
X172808031Y-128000496D01*
G37*
G36*
X172808031Y-129825496D02*
G01*
X172834159Y-129829372D01*
X172859780Y-129835790D01*
X172884649Y-129844688D01*
X172908526Y-129855981D01*
X172931182Y-129869560D01*
X172952397Y-129885294D01*
X172971968Y-129903032D01*
X172989706Y-129922603D01*
X173005440Y-129943818D01*
X173019019Y-129966474D01*
X173030312Y-129990351D01*
X173039210Y-130015220D01*
X173045628Y-130040841D01*
X173049504Y-130066969D01*
X173050800Y-130093350D01*
X173050800Y-130631650D01*
X173049504Y-130658031D01*
X173045628Y-130684159D01*
X173039210Y-130709780D01*
X173030312Y-130734649D01*
X173019019Y-130758526D01*
X173005440Y-130781182D01*
X172989706Y-130802397D01*
X172971968Y-130821968D01*
X172952397Y-130839706D01*
X172931182Y-130855440D01*
X172908526Y-130869019D01*
X172884649Y-130880312D01*
X172859780Y-130889210D01*
X172834159Y-130895628D01*
X172808031Y-130899504D01*
X172781650Y-130900800D01*
X171818350Y-130900800D01*
X171791969Y-130899504D01*
X171765841Y-130895628D01*
X171740220Y-130889210D01*
X171715351Y-130880312D01*
X171691474Y-130869019D01*
X171668818Y-130855440D01*
X171647603Y-130839706D01*
X171628032Y-130821968D01*
X171610294Y-130802397D01*
X171594560Y-130781182D01*
X171580981Y-130758526D01*
X171569688Y-130734649D01*
X171560790Y-130709780D01*
X171554372Y-130684159D01*
X171550496Y-130658031D01*
X171549200Y-130631650D01*
X171549200Y-130093350D01*
X171550496Y-130066969D01*
X171554372Y-130040841D01*
X171560790Y-130015220D01*
X171569688Y-129990351D01*
X171580981Y-129966474D01*
X171594560Y-129943818D01*
X171610294Y-129922603D01*
X171628032Y-129903032D01*
X171647603Y-129885294D01*
X171668818Y-129869560D01*
X171691474Y-129855981D01*
X171715351Y-129844688D01*
X171740220Y-129835790D01*
X171765841Y-129829372D01*
X171791969Y-129825496D01*
X171818350Y-129824200D01*
X172781650Y-129824200D01*
X172808031Y-129825496D01*
G37*
G36*
X172808031Y-131700496D02*
G01*
X172834159Y-131704372D01*
X172859780Y-131710790D01*
X172884649Y-131719688D01*
X172908526Y-131730981D01*
X172931182Y-131744560D01*
X172952397Y-131760294D01*
X172971968Y-131778032D01*
X172989706Y-131797603D01*
X173005440Y-131818818D01*
X173019019Y-131841474D01*
X173030312Y-131865351D01*
X173039210Y-131890220D01*
X173045628Y-131915841D01*
X173049504Y-131941969D01*
X173050800Y-131968350D01*
X173050800Y-132506650D01*
X173049504Y-132533031D01*
X173045628Y-132559159D01*
X173039210Y-132584780D01*
X173030312Y-132609649D01*
X173019019Y-132633526D01*
X173005440Y-132656182D01*
X172989706Y-132677397D01*
X172971968Y-132696968D01*
X172952397Y-132714706D01*
X172931182Y-132730440D01*
X172908526Y-132744019D01*
X172884649Y-132755312D01*
X172859780Y-132764210D01*
X172834159Y-132770628D01*
X172808031Y-132774504D01*
X172781650Y-132775800D01*
X171818350Y-132775800D01*
X171791969Y-132774504D01*
X171765841Y-132770628D01*
X171740220Y-132764210D01*
X171715351Y-132755312D01*
X171691474Y-132744019D01*
X171668818Y-132730440D01*
X171647603Y-132714706D01*
X171628032Y-132696968D01*
X171610294Y-132677397D01*
X171594560Y-132656182D01*
X171580981Y-132633526D01*
X171569688Y-132609649D01*
X171560790Y-132584780D01*
X171554372Y-132559159D01*
X171550496Y-132533031D01*
X171549200Y-132506650D01*
X171549200Y-131968350D01*
X171550496Y-131941969D01*
X171554372Y-131915841D01*
X171560790Y-131890220D01*
X171569688Y-131865351D01*
X171580981Y-131841474D01*
X171594560Y-131818818D01*
X171610294Y-131797603D01*
X171628032Y-131778032D01*
X171647603Y-131760294D01*
X171668818Y-131744560D01*
X171691474Y-131730981D01*
X171715351Y-131719688D01*
X171740220Y-131710790D01*
X171765841Y-131704372D01*
X171791969Y-131700496D01*
X171818350Y-131699200D01*
X172781650Y-131699200D01*
X172808031Y-131700496D01*
G37*
G36*
X175008031Y-131700496D02*
G01*
X175034159Y-131704372D01*
X175059780Y-131710790D01*
X175084649Y-131719688D01*
X175108526Y-131730981D01*
X175131182Y-131744560D01*
X175152397Y-131760294D01*
X175171968Y-131778032D01*
X175189706Y-131797603D01*
X175205440Y-131818818D01*
X175219019Y-131841474D01*
X175230312Y-131865351D01*
X175239210Y-131890220D01*
X175245628Y-131915841D01*
X175249504Y-131941969D01*
X175250800Y-131968350D01*
X175250800Y-132506650D01*
X175249504Y-132533031D01*
X175245628Y-132559159D01*
X175239210Y-132584780D01*
X175230312Y-132609649D01*
X175219019Y-132633526D01*
X175205440Y-132656182D01*
X175189706Y-132677397D01*
X175171968Y-132696968D01*
X175152397Y-132714706D01*
X175131182Y-132730440D01*
X175108526Y-132744019D01*
X175084649Y-132755312D01*
X175059780Y-132764210D01*
X175034159Y-132770628D01*
X175008031Y-132774504D01*
X174981650Y-132775800D01*
X174018350Y-132775800D01*
X173991969Y-132774504D01*
X173965841Y-132770628D01*
X173940220Y-132764210D01*
X173915351Y-132755312D01*
X173891474Y-132744019D01*
X173868818Y-132730440D01*
X173847603Y-132714706D01*
X173828032Y-132696968D01*
X173810294Y-132677397D01*
X173794560Y-132656182D01*
X173780981Y-132633526D01*
X173769688Y-132609649D01*
X173760790Y-132584780D01*
X173754372Y-132559159D01*
X173750496Y-132533031D01*
X173749200Y-132506650D01*
X173749200Y-131968350D01*
X173750496Y-131941969D01*
X173754372Y-131915841D01*
X173760790Y-131890220D01*
X173769688Y-131865351D01*
X173780981Y-131841474D01*
X173794560Y-131818818D01*
X173810294Y-131797603D01*
X173828032Y-131778032D01*
X173847603Y-131760294D01*
X173868818Y-131744560D01*
X173891474Y-131730981D01*
X173915351Y-131719688D01*
X173940220Y-131710790D01*
X173965841Y-131704372D01*
X173991969Y-131700496D01*
X174018350Y-131699200D01*
X174981650Y-131699200D01*
X175008031Y-131700496D01*
G37*
G36*
X175008031Y-129825496D02*
G01*
X175034159Y-129829372D01*
X175059780Y-129835790D01*
X175084649Y-129844688D01*
X175108526Y-129855981D01*
X175131182Y-129869560D01*
X175152397Y-129885294D01*
X175171968Y-129903032D01*
X175189706Y-129922603D01*
X175205440Y-129943818D01*
X175219019Y-129966474D01*
X175230312Y-129990351D01*
X175239210Y-130015220D01*
X175245628Y-130040841D01*
X175249504Y-130066969D01*
X175250800Y-130093350D01*
X175250800Y-130631650D01*
X175249504Y-130658031D01*
X175245628Y-130684159D01*
X175239210Y-130709780D01*
X175230312Y-130734649D01*
X175219019Y-130758526D01*
X175205440Y-130781182D01*
X175189706Y-130802397D01*
X175171968Y-130821968D01*
X175152397Y-130839706D01*
X175131182Y-130855440D01*
X175108526Y-130869019D01*
X175084649Y-130880312D01*
X175059780Y-130889210D01*
X175034159Y-130895628D01*
X175008031Y-130899504D01*
X174981650Y-130900800D01*
X174018350Y-130900800D01*
X173991969Y-130899504D01*
X173965841Y-130895628D01*
X173940220Y-130889210D01*
X173915351Y-130880312D01*
X173891474Y-130869019D01*
X173868818Y-130855440D01*
X173847603Y-130839706D01*
X173828032Y-130821968D01*
X173810294Y-130802397D01*
X173794560Y-130781182D01*
X173780981Y-130758526D01*
X173769688Y-130734649D01*
X173760790Y-130709780D01*
X173754372Y-130684159D01*
X173750496Y-130658031D01*
X173749200Y-130631650D01*
X173749200Y-130093350D01*
X173750496Y-130066969D01*
X173754372Y-130040841D01*
X173760790Y-130015220D01*
X173769688Y-129990351D01*
X173780981Y-129966474D01*
X173794560Y-129943818D01*
X173810294Y-129922603D01*
X173828032Y-129903032D01*
X173847603Y-129885294D01*
X173868818Y-129869560D01*
X173891474Y-129855981D01*
X173915351Y-129844688D01*
X173940220Y-129835790D01*
X173965841Y-129829372D01*
X173991969Y-129825496D01*
X174018350Y-129824200D01*
X174981650Y-129824200D01*
X175008031Y-129825496D01*
G37*
G36*
X116258031Y-82900496D02*
G01*
X116284159Y-82904372D01*
X116309780Y-82910790D01*
X116334649Y-82919688D01*
X116358526Y-82930981D01*
X116381182Y-82944560D01*
X116402397Y-82960294D01*
X116421968Y-82978032D01*
X116439706Y-82997603D01*
X116455440Y-83018818D01*
X116469019Y-83041474D01*
X116480312Y-83065351D01*
X116489210Y-83090220D01*
X116495628Y-83115841D01*
X116499504Y-83141969D01*
X116500800Y-83168350D01*
X116500800Y-83706650D01*
X116499504Y-83733031D01*
X116495628Y-83759159D01*
X116489210Y-83784780D01*
X116480312Y-83809649D01*
X116469019Y-83833526D01*
X116455440Y-83856182D01*
X116439706Y-83877397D01*
X116421968Y-83896968D01*
X116402397Y-83914706D01*
X116381182Y-83930440D01*
X116358526Y-83944019D01*
X116334649Y-83955312D01*
X116309780Y-83964210D01*
X116284159Y-83970628D01*
X116258031Y-83974504D01*
X116231650Y-83975800D01*
X115268350Y-83975800D01*
X115241969Y-83974504D01*
X115215841Y-83970628D01*
X115190220Y-83964210D01*
X115165351Y-83955312D01*
X115141474Y-83944019D01*
X115118818Y-83930440D01*
X115097603Y-83914706D01*
X115078032Y-83896968D01*
X115060294Y-83877397D01*
X115044560Y-83856182D01*
X115030981Y-83833526D01*
X115019688Y-83809649D01*
X115010790Y-83784780D01*
X115004372Y-83759159D01*
X115000496Y-83733031D01*
X114999200Y-83706650D01*
X114999200Y-83168350D01*
X115000496Y-83141969D01*
X115004372Y-83115841D01*
X115010790Y-83090220D01*
X115019688Y-83065351D01*
X115030981Y-83041474D01*
X115044560Y-83018818D01*
X115060294Y-82997603D01*
X115078032Y-82978032D01*
X115097603Y-82960294D01*
X115118818Y-82944560D01*
X115141474Y-82930981D01*
X115165351Y-82919688D01*
X115190220Y-82910790D01*
X115215841Y-82904372D01*
X115241969Y-82900496D01*
X115268350Y-82899200D01*
X116231650Y-82899200D01*
X116258031Y-82900496D01*
G37*
G36*
X116258031Y-81025496D02*
G01*
X116284159Y-81029372D01*
X116309780Y-81035790D01*
X116334649Y-81044688D01*
X116358526Y-81055981D01*
X116381182Y-81069560D01*
X116402397Y-81085294D01*
X116421968Y-81103032D01*
X116439706Y-81122603D01*
X116455440Y-81143818D01*
X116469019Y-81166474D01*
X116480312Y-81190351D01*
X116489210Y-81215220D01*
X116495628Y-81240841D01*
X116499504Y-81266969D01*
X116500800Y-81293350D01*
X116500800Y-81831650D01*
X116499504Y-81858031D01*
X116495628Y-81884159D01*
X116489210Y-81909780D01*
X116480312Y-81934649D01*
X116469019Y-81958526D01*
X116455440Y-81981182D01*
X116439706Y-82002397D01*
X116421968Y-82021968D01*
X116402397Y-82039706D01*
X116381182Y-82055440D01*
X116358526Y-82069019D01*
X116334649Y-82080312D01*
X116309780Y-82089210D01*
X116284159Y-82095628D01*
X116258031Y-82099504D01*
X116231650Y-82100800D01*
X115268350Y-82100800D01*
X115241969Y-82099504D01*
X115215841Y-82095628D01*
X115190220Y-82089210D01*
X115165351Y-82080312D01*
X115141474Y-82069019D01*
X115118818Y-82055440D01*
X115097603Y-82039706D01*
X115078032Y-82021968D01*
X115060294Y-82002397D01*
X115044560Y-81981182D01*
X115030981Y-81958526D01*
X115019688Y-81934649D01*
X115010790Y-81909780D01*
X115004372Y-81884159D01*
X115000496Y-81858031D01*
X114999200Y-81831650D01*
X114999200Y-81293350D01*
X115000496Y-81266969D01*
X115004372Y-81240841D01*
X115010790Y-81215220D01*
X115019688Y-81190351D01*
X115030981Y-81166474D01*
X115044560Y-81143818D01*
X115060294Y-81122603D01*
X115078032Y-81103032D01*
X115097603Y-81085294D01*
X115118818Y-81069560D01*
X115141474Y-81055981D01*
X115165351Y-81044688D01*
X115190220Y-81035790D01*
X115215841Y-81029372D01*
X115241969Y-81025496D01*
X115268350Y-81024200D01*
X116231650Y-81024200D01*
X116258031Y-81025496D01*
G37*
G36*
X120108031Y-85750496D02*
G01*
X120134159Y-85754372D01*
X120159780Y-85760790D01*
X120184649Y-85769688D01*
X120208526Y-85780981D01*
X120231182Y-85794560D01*
X120252397Y-85810294D01*
X120271968Y-85828032D01*
X120289706Y-85847603D01*
X120305440Y-85868818D01*
X120319019Y-85891474D01*
X120330312Y-85915351D01*
X120339210Y-85940220D01*
X120345628Y-85965841D01*
X120349504Y-85991969D01*
X120350800Y-86018350D01*
X120350800Y-86981650D01*
X120349504Y-87008031D01*
X120345628Y-87034159D01*
X120339210Y-87059780D01*
X120330312Y-87084649D01*
X120319019Y-87108526D01*
X120305440Y-87131182D01*
X120289706Y-87152397D01*
X120271968Y-87171968D01*
X120252397Y-87189706D01*
X120231182Y-87205440D01*
X120208526Y-87219019D01*
X120184649Y-87230312D01*
X120159780Y-87239210D01*
X120134159Y-87245628D01*
X120108031Y-87249504D01*
X120081650Y-87250800D01*
X119543350Y-87250800D01*
X119516969Y-87249504D01*
X119490841Y-87245628D01*
X119465220Y-87239210D01*
X119440351Y-87230312D01*
X119416474Y-87219019D01*
X119393818Y-87205440D01*
X119372603Y-87189706D01*
X119353032Y-87171968D01*
X119335294Y-87152397D01*
X119319560Y-87131182D01*
X119305981Y-87108526D01*
X119294688Y-87084649D01*
X119285790Y-87059780D01*
X119279372Y-87034159D01*
X119275496Y-87008031D01*
X119274200Y-86981650D01*
X119274200Y-86018350D01*
X119275496Y-85991969D01*
X119279372Y-85965841D01*
X119285790Y-85940220D01*
X119294688Y-85915351D01*
X119305981Y-85891474D01*
X119319560Y-85868818D01*
X119335294Y-85847603D01*
X119353032Y-85828032D01*
X119372603Y-85810294D01*
X119393818Y-85794560D01*
X119416474Y-85780981D01*
X119440351Y-85769688D01*
X119465220Y-85760790D01*
X119490841Y-85754372D01*
X119516969Y-85750496D01*
X119543350Y-85749200D01*
X120081650Y-85749200D01*
X120108031Y-85750496D01*
G37*
G36*
X121983031Y-85750496D02*
G01*
X122009159Y-85754372D01*
X122034780Y-85760790D01*
X122059649Y-85769688D01*
X122083526Y-85780981D01*
X122106182Y-85794560D01*
X122127397Y-85810294D01*
X122146968Y-85828032D01*
X122164706Y-85847603D01*
X122180440Y-85868818D01*
X122194019Y-85891474D01*
X122205312Y-85915351D01*
X122214210Y-85940220D01*
X122220628Y-85965841D01*
X122224504Y-85991969D01*
X122225800Y-86018350D01*
X122225800Y-86981650D01*
X122224504Y-87008031D01*
X122220628Y-87034159D01*
X122214210Y-87059780D01*
X122205312Y-87084649D01*
X122194019Y-87108526D01*
X122180440Y-87131182D01*
X122164706Y-87152397D01*
X122146968Y-87171968D01*
X122127397Y-87189706D01*
X122106182Y-87205440D01*
X122083526Y-87219019D01*
X122059649Y-87230312D01*
X122034780Y-87239210D01*
X122009159Y-87245628D01*
X121983031Y-87249504D01*
X121956650Y-87250800D01*
X121418350Y-87250800D01*
X121391969Y-87249504D01*
X121365841Y-87245628D01*
X121340220Y-87239210D01*
X121315351Y-87230312D01*
X121291474Y-87219019D01*
X121268818Y-87205440D01*
X121247603Y-87189706D01*
X121228032Y-87171968D01*
X121210294Y-87152397D01*
X121194560Y-87131182D01*
X121180981Y-87108526D01*
X121169688Y-87084649D01*
X121160790Y-87059780D01*
X121154372Y-87034159D01*
X121150496Y-87008031D01*
X121149200Y-86981650D01*
X121149200Y-86018350D01*
X121150496Y-85991969D01*
X121154372Y-85965841D01*
X121160790Y-85940220D01*
X121169688Y-85915351D01*
X121180981Y-85891474D01*
X121194560Y-85868818D01*
X121210294Y-85847603D01*
X121228032Y-85828032D01*
X121247603Y-85810294D01*
X121268818Y-85794560D01*
X121291474Y-85780981D01*
X121315351Y-85769688D01*
X121340220Y-85760790D01*
X121365841Y-85754372D01*
X121391969Y-85750496D01*
X121418350Y-85749200D01*
X121956650Y-85749200D01*
X121983031Y-85750496D01*
G37*
G36*
X121983031Y-83250496D02*
G01*
X122009159Y-83254372D01*
X122034780Y-83260790D01*
X122059649Y-83269688D01*
X122083526Y-83280981D01*
X122106182Y-83294560D01*
X122127397Y-83310294D01*
X122146968Y-83328032D01*
X122164706Y-83347603D01*
X122180440Y-83368818D01*
X122194019Y-83391474D01*
X122205312Y-83415351D01*
X122214210Y-83440220D01*
X122220628Y-83465841D01*
X122224504Y-83491969D01*
X122225800Y-83518350D01*
X122225800Y-84481650D01*
X122224504Y-84508031D01*
X122220628Y-84534159D01*
X122214210Y-84559780D01*
X122205312Y-84584649D01*
X122194019Y-84608526D01*
X122180440Y-84631182D01*
X122164706Y-84652397D01*
X122146968Y-84671968D01*
X122127397Y-84689706D01*
X122106182Y-84705440D01*
X122083526Y-84719019D01*
X122059649Y-84730312D01*
X122034780Y-84739210D01*
X122009159Y-84745628D01*
X121983031Y-84749504D01*
X121956650Y-84750800D01*
X121418350Y-84750800D01*
X121391969Y-84749504D01*
X121365841Y-84745628D01*
X121340220Y-84739210D01*
X121315351Y-84730312D01*
X121291474Y-84719019D01*
X121268818Y-84705440D01*
X121247603Y-84689706D01*
X121228032Y-84671968D01*
X121210294Y-84652397D01*
X121194560Y-84631182D01*
X121180981Y-84608526D01*
X121169688Y-84584649D01*
X121160790Y-84559780D01*
X121154372Y-84534159D01*
X121150496Y-84508031D01*
X121149200Y-84481650D01*
X121149200Y-83518350D01*
X121150496Y-83491969D01*
X121154372Y-83465841D01*
X121160790Y-83440220D01*
X121169688Y-83415351D01*
X121180981Y-83391474D01*
X121194560Y-83368818D01*
X121210294Y-83347603D01*
X121228032Y-83328032D01*
X121247603Y-83310294D01*
X121268818Y-83294560D01*
X121291474Y-83280981D01*
X121315351Y-83269688D01*
X121340220Y-83260790D01*
X121365841Y-83254372D01*
X121391969Y-83250496D01*
X121418350Y-83249200D01*
X121956650Y-83249200D01*
X121983031Y-83250496D01*
G37*
G36*
X120108031Y-83250496D02*
G01*
X120134159Y-83254372D01*
X120159780Y-83260790D01*
X120184649Y-83269688D01*
X120208526Y-83280981D01*
X120231182Y-83294560D01*
X120252397Y-83310294D01*
X120271968Y-83328032D01*
X120289706Y-83347603D01*
X120305440Y-83368818D01*
X120319019Y-83391474D01*
X120330312Y-83415351D01*
X120339210Y-83440220D01*
X120345628Y-83465841D01*
X120349504Y-83491969D01*
X120350800Y-83518350D01*
X120350800Y-84481650D01*
X120349504Y-84508031D01*
X120345628Y-84534159D01*
X120339210Y-84559780D01*
X120330312Y-84584649D01*
X120319019Y-84608526D01*
X120305440Y-84631182D01*
X120289706Y-84652397D01*
X120271968Y-84671968D01*
X120252397Y-84689706D01*
X120231182Y-84705440D01*
X120208526Y-84719019D01*
X120184649Y-84730312D01*
X120159780Y-84739210D01*
X120134159Y-84745628D01*
X120108031Y-84749504D01*
X120081650Y-84750800D01*
X119543350Y-84750800D01*
X119516969Y-84749504D01*
X119490841Y-84745628D01*
X119465220Y-84739210D01*
X119440351Y-84730312D01*
X119416474Y-84719019D01*
X119393818Y-84705440D01*
X119372603Y-84689706D01*
X119353032Y-84671968D01*
X119335294Y-84652397D01*
X119319560Y-84631182D01*
X119305981Y-84608526D01*
X119294688Y-84584649D01*
X119285790Y-84559780D01*
X119279372Y-84534159D01*
X119275496Y-84508031D01*
X119274200Y-84481650D01*
X119274200Y-83518350D01*
X119275496Y-83491969D01*
X119279372Y-83465841D01*
X119285790Y-83440220D01*
X119294688Y-83415351D01*
X119305981Y-83391474D01*
X119319560Y-83368818D01*
X119335294Y-83347603D01*
X119353032Y-83328032D01*
X119372603Y-83310294D01*
X119393818Y-83294560D01*
X119416474Y-83280981D01*
X119440351Y-83269688D01*
X119465220Y-83260790D01*
X119490841Y-83254372D01*
X119516969Y-83250496D01*
X119543350Y-83249200D01*
X120081650Y-83249200D01*
X120108031Y-83250496D01*
G37*
G36*
X166733031Y-81250496D02*
G01*
X166759159Y-81254372D01*
X166784780Y-81260790D01*
X166809649Y-81269688D01*
X166833526Y-81280981D01*
X166856182Y-81294560D01*
X166877397Y-81310294D01*
X166896968Y-81328032D01*
X166914706Y-81347603D01*
X166930440Y-81368818D01*
X166944019Y-81391474D01*
X166955312Y-81415351D01*
X166964210Y-81440220D01*
X166970628Y-81465841D01*
X166974504Y-81491969D01*
X166975800Y-81518350D01*
X166975800Y-82481650D01*
X166974504Y-82508031D01*
X166970628Y-82534159D01*
X166964210Y-82559780D01*
X166955312Y-82584649D01*
X166944019Y-82608526D01*
X166930440Y-82631182D01*
X166914706Y-82652397D01*
X166896968Y-82671968D01*
X166877397Y-82689706D01*
X166856182Y-82705440D01*
X166833526Y-82719019D01*
X166809649Y-82730312D01*
X166784780Y-82739210D01*
X166759159Y-82745628D01*
X166733031Y-82749504D01*
X166706650Y-82750800D01*
X166168350Y-82750800D01*
X166141969Y-82749504D01*
X166115841Y-82745628D01*
X166090220Y-82739210D01*
X166065351Y-82730312D01*
X166041474Y-82719019D01*
X166018818Y-82705440D01*
X165997603Y-82689706D01*
X165978032Y-82671968D01*
X165960294Y-82652397D01*
X165944560Y-82631182D01*
X165930981Y-82608526D01*
X165919688Y-82584649D01*
X165910790Y-82559780D01*
X165904372Y-82534159D01*
X165900496Y-82508031D01*
X165899200Y-82481650D01*
X165899200Y-81518350D01*
X165900496Y-81491969D01*
X165904372Y-81465841D01*
X165910790Y-81440220D01*
X165919688Y-81415351D01*
X165930981Y-81391474D01*
X165944560Y-81368818D01*
X165960294Y-81347603D01*
X165978032Y-81328032D01*
X165997603Y-81310294D01*
X166018818Y-81294560D01*
X166041474Y-81280981D01*
X166065351Y-81269688D01*
X166090220Y-81260790D01*
X166115841Y-81254372D01*
X166141969Y-81250496D01*
X166168350Y-81249200D01*
X166706650Y-81249200D01*
X166733031Y-81250496D01*
G37*
G36*
X164858031Y-81250496D02*
G01*
X164884159Y-81254372D01*
X164909780Y-81260790D01*
X164934649Y-81269688D01*
X164958526Y-81280981D01*
X164981182Y-81294560D01*
X165002397Y-81310294D01*
X165021968Y-81328032D01*
X165039706Y-81347603D01*
X165055440Y-81368818D01*
X165069019Y-81391474D01*
X165080312Y-81415351D01*
X165089210Y-81440220D01*
X165095628Y-81465841D01*
X165099504Y-81491969D01*
X165100800Y-81518350D01*
X165100800Y-82481650D01*
X165099504Y-82508031D01*
X165095628Y-82534159D01*
X165089210Y-82559780D01*
X165080312Y-82584649D01*
X165069019Y-82608526D01*
X165055440Y-82631182D01*
X165039706Y-82652397D01*
X165021968Y-82671968D01*
X165002397Y-82689706D01*
X164981182Y-82705440D01*
X164958526Y-82719019D01*
X164934649Y-82730312D01*
X164909780Y-82739210D01*
X164884159Y-82745628D01*
X164858031Y-82749504D01*
X164831650Y-82750800D01*
X164293350Y-82750800D01*
X164266969Y-82749504D01*
X164240841Y-82745628D01*
X164215220Y-82739210D01*
X164190351Y-82730312D01*
X164166474Y-82719019D01*
X164143818Y-82705440D01*
X164122603Y-82689706D01*
X164103032Y-82671968D01*
X164085294Y-82652397D01*
X164069560Y-82631182D01*
X164055981Y-82608526D01*
X164044688Y-82584649D01*
X164035790Y-82559780D01*
X164029372Y-82534159D01*
X164025496Y-82508031D01*
X164024200Y-82481650D01*
X164024200Y-81518350D01*
X164025496Y-81491969D01*
X164029372Y-81465841D01*
X164035790Y-81440220D01*
X164044688Y-81415351D01*
X164055981Y-81391474D01*
X164069560Y-81368818D01*
X164085294Y-81347603D01*
X164103032Y-81328032D01*
X164122603Y-81310294D01*
X164143818Y-81294560D01*
X164166474Y-81280981D01*
X164190351Y-81269688D01*
X164215220Y-81260790D01*
X164240841Y-81254372D01*
X164266969Y-81250496D01*
X164293350Y-81249200D01*
X164831650Y-81249200D01*
X164858031Y-81250496D01*
G37*
G36*
X188008031Y-92650496D02*
G01*
X188034159Y-92654372D01*
X188059780Y-92660790D01*
X188084649Y-92669688D01*
X188108526Y-92680981D01*
X188131182Y-92694560D01*
X188152397Y-92710294D01*
X188171968Y-92728032D01*
X188189706Y-92747603D01*
X188205440Y-92768818D01*
X188219019Y-92791474D01*
X188230312Y-92815351D01*
X188239210Y-92840220D01*
X188245628Y-92865841D01*
X188249504Y-92891969D01*
X188250800Y-92918350D01*
X188250800Y-93456650D01*
X188249504Y-93483031D01*
X188245628Y-93509159D01*
X188239210Y-93534780D01*
X188230312Y-93559649D01*
X188219019Y-93583526D01*
X188205440Y-93606182D01*
X188189706Y-93627397D01*
X188171968Y-93646968D01*
X188152397Y-93664706D01*
X188131182Y-93680440D01*
X188108526Y-93694019D01*
X188084649Y-93705312D01*
X188059780Y-93714210D01*
X188034159Y-93720628D01*
X188008031Y-93724504D01*
X187981650Y-93725800D01*
X187018350Y-93725800D01*
X186991969Y-93724504D01*
X186965841Y-93720628D01*
X186940220Y-93714210D01*
X186915351Y-93705312D01*
X186891474Y-93694019D01*
X186868818Y-93680440D01*
X186847603Y-93664706D01*
X186828032Y-93646968D01*
X186810294Y-93627397D01*
X186794560Y-93606182D01*
X186780981Y-93583526D01*
X186769688Y-93559649D01*
X186760790Y-93534780D01*
X186754372Y-93509159D01*
X186750496Y-93483031D01*
X186749200Y-93456650D01*
X186749200Y-92918350D01*
X186750496Y-92891969D01*
X186754372Y-92865841D01*
X186760790Y-92840220D01*
X186769688Y-92815351D01*
X186780981Y-92791474D01*
X186794560Y-92768818D01*
X186810294Y-92747603D01*
X186828032Y-92728032D01*
X186847603Y-92710294D01*
X186868818Y-92694560D01*
X186891474Y-92680981D01*
X186915351Y-92669688D01*
X186940220Y-92660790D01*
X186965841Y-92654372D01*
X186991969Y-92650496D01*
X187018350Y-92649200D01*
X187981650Y-92649200D01*
X188008031Y-92650496D01*
G37*
G36*
X188008031Y-90775496D02*
G01*
X188034159Y-90779372D01*
X188059780Y-90785790D01*
X188084649Y-90794688D01*
X188108526Y-90805981D01*
X188131182Y-90819560D01*
X188152397Y-90835294D01*
X188171968Y-90853032D01*
X188189706Y-90872603D01*
X188205440Y-90893818D01*
X188219019Y-90916474D01*
X188230312Y-90940351D01*
X188239210Y-90965220D01*
X188245628Y-90990841D01*
X188249504Y-91016969D01*
X188250800Y-91043350D01*
X188250800Y-91581650D01*
X188249504Y-91608031D01*
X188245628Y-91634159D01*
X188239210Y-91659780D01*
X188230312Y-91684649D01*
X188219019Y-91708526D01*
X188205440Y-91731182D01*
X188189706Y-91752397D01*
X188171968Y-91771968D01*
X188152397Y-91789706D01*
X188131182Y-91805440D01*
X188108526Y-91819019D01*
X188084649Y-91830312D01*
X188059780Y-91839210D01*
X188034159Y-91845628D01*
X188008031Y-91849504D01*
X187981650Y-91850800D01*
X187018350Y-91850800D01*
X186991969Y-91849504D01*
X186965841Y-91845628D01*
X186940220Y-91839210D01*
X186915351Y-91830312D01*
X186891474Y-91819019D01*
X186868818Y-91805440D01*
X186847603Y-91789706D01*
X186828032Y-91771968D01*
X186810294Y-91752397D01*
X186794560Y-91731182D01*
X186780981Y-91708526D01*
X186769688Y-91684649D01*
X186760790Y-91659780D01*
X186754372Y-91634159D01*
X186750496Y-91608031D01*
X186749200Y-91581650D01*
X186749200Y-91043350D01*
X186750496Y-91016969D01*
X186754372Y-90990841D01*
X186760790Y-90965220D01*
X186769688Y-90940351D01*
X186780981Y-90916474D01*
X186794560Y-90893818D01*
X186810294Y-90872603D01*
X186828032Y-90853032D01*
X186847603Y-90835294D01*
X186868818Y-90819560D01*
X186891474Y-90805981D01*
X186915351Y-90794688D01*
X186940220Y-90785790D01*
X186965841Y-90779372D01*
X186991969Y-90775496D01*
X187018350Y-90774200D01*
X187981650Y-90774200D01*
X188008031Y-90775496D01*
G37*
G36*
X185508031Y-90775496D02*
G01*
X185534159Y-90779372D01*
X185559780Y-90785790D01*
X185584649Y-90794688D01*
X185608526Y-90805981D01*
X185631182Y-90819560D01*
X185652397Y-90835294D01*
X185671968Y-90853032D01*
X185689706Y-90872603D01*
X185705440Y-90893818D01*
X185719019Y-90916474D01*
X185730312Y-90940351D01*
X185739210Y-90965220D01*
X185745628Y-90990841D01*
X185749504Y-91016969D01*
X185750800Y-91043350D01*
X185750800Y-91581650D01*
X185749504Y-91608031D01*
X185745628Y-91634159D01*
X185739210Y-91659780D01*
X185730312Y-91684649D01*
X185719019Y-91708526D01*
X185705440Y-91731182D01*
X185689706Y-91752397D01*
X185671968Y-91771968D01*
X185652397Y-91789706D01*
X185631182Y-91805440D01*
X185608526Y-91819019D01*
X185584649Y-91830312D01*
X185559780Y-91839210D01*
X185534159Y-91845628D01*
X185508031Y-91849504D01*
X185481650Y-91850800D01*
X184518350Y-91850800D01*
X184491969Y-91849504D01*
X184465841Y-91845628D01*
X184440220Y-91839210D01*
X184415351Y-91830312D01*
X184391474Y-91819019D01*
X184368818Y-91805440D01*
X184347603Y-91789706D01*
X184328032Y-91771968D01*
X184310294Y-91752397D01*
X184294560Y-91731182D01*
X184280981Y-91708526D01*
X184269688Y-91684649D01*
X184260790Y-91659780D01*
X184254372Y-91634159D01*
X184250496Y-91608031D01*
X184249200Y-91581650D01*
X184249200Y-91043350D01*
X184250496Y-91016969D01*
X184254372Y-90990841D01*
X184260790Y-90965220D01*
X184269688Y-90940351D01*
X184280981Y-90916474D01*
X184294560Y-90893818D01*
X184310294Y-90872603D01*
X184328032Y-90853032D01*
X184347603Y-90835294D01*
X184368818Y-90819560D01*
X184391474Y-90805981D01*
X184415351Y-90794688D01*
X184440220Y-90785790D01*
X184465841Y-90779372D01*
X184491969Y-90775496D01*
X184518350Y-90774200D01*
X185481650Y-90774200D01*
X185508031Y-90775496D01*
G37*
G36*
X185508031Y-92650496D02*
G01*
X185534159Y-92654372D01*
X185559780Y-92660790D01*
X185584649Y-92669688D01*
X185608526Y-92680981D01*
X185631182Y-92694560D01*
X185652397Y-92710294D01*
X185671968Y-92728032D01*
X185689706Y-92747603D01*
X185705440Y-92768818D01*
X185719019Y-92791474D01*
X185730312Y-92815351D01*
X185739210Y-92840220D01*
X185745628Y-92865841D01*
X185749504Y-92891969D01*
X185750800Y-92918350D01*
X185750800Y-93456650D01*
X185749504Y-93483031D01*
X185745628Y-93509159D01*
X185739210Y-93534780D01*
X185730312Y-93559649D01*
X185719019Y-93583526D01*
X185705440Y-93606182D01*
X185689706Y-93627397D01*
X185671968Y-93646968D01*
X185652397Y-93664706D01*
X185631182Y-93680440D01*
X185608526Y-93694019D01*
X185584649Y-93705312D01*
X185559780Y-93714210D01*
X185534159Y-93720628D01*
X185508031Y-93724504D01*
X185481650Y-93725800D01*
X184518350Y-93725800D01*
X184491969Y-93724504D01*
X184465841Y-93720628D01*
X184440220Y-93714210D01*
X184415351Y-93705312D01*
X184391474Y-93694019D01*
X184368818Y-93680440D01*
X184347603Y-93664706D01*
X184328032Y-93646968D01*
X184310294Y-93627397D01*
X184294560Y-93606182D01*
X184280981Y-93583526D01*
X184269688Y-93559649D01*
X184260790Y-93534780D01*
X184254372Y-93509159D01*
X184250496Y-93483031D01*
X184249200Y-93456650D01*
X184249200Y-92918350D01*
X184250496Y-92891969D01*
X184254372Y-92865841D01*
X184260790Y-92840220D01*
X184269688Y-92815351D01*
X184280981Y-92791474D01*
X184294560Y-92768818D01*
X184310294Y-92747603D01*
X184328032Y-92728032D01*
X184347603Y-92710294D01*
X184368818Y-92694560D01*
X184391474Y-92680981D01*
X184415351Y-92669688D01*
X184440220Y-92660790D01*
X184465841Y-92654372D01*
X184491969Y-92650496D01*
X184518350Y-92649200D01*
X185481650Y-92649200D01*
X185508031Y-92650496D01*
G37*
D17*
X138450000Y-81750000D03*
X140550000Y-81750000D03*
X120300000Y-81500000D03*
X118200000Y-81500000D03*
D11*
X149352000Y-128016000D03*
D10*
X146812000Y-128016000D03*
X144272000Y-128016000D03*
X141732000Y-128016000D03*
D18*
X106500000Y-130800000D03*
X106500000Y-133800000D03*
X106500000Y-136800000D03*
X106500000Y-139800000D03*
X103500000Y-130800000D03*
X103500000Y-133800000D03*
X103500000Y-136800000D03*
D19*
X103500000Y-139800000D03*
D20*
X107440000Y-127800000D03*
X107440000Y-142800000D03*
D18*
X106500000Y-113950000D03*
X106500000Y-116950000D03*
X106500000Y-119950000D03*
X106500000Y-122950000D03*
X103500000Y-113950000D03*
X103500000Y-116950000D03*
X103500000Y-119950000D03*
D19*
X103500000Y-122950000D03*
D20*
X107440000Y-110950000D03*
X107440000Y-125950000D03*
D14*
X155000000Y-147960000D03*
D15*
X161000000Y-146000000D03*
X158000000Y-146000000D03*
D14*
X164000000Y-147960000D03*
D15*
X147000000Y-79000000D03*
D14*
X150000000Y-77040000D03*
D15*
X138000000Y-79000000D03*
X141000000Y-79000000D03*
X144000000Y-79000000D03*
D14*
X135000000Y-77040000D03*
D15*
X196000000Y-136500000D03*
D14*
X197960000Y-139500000D03*
D15*
X196000000Y-127500000D03*
X196000000Y-130500000D03*
X196000000Y-133500000D03*
D14*
X197960000Y-124500000D03*
X123750000Y-77040000D03*
D15*
X117750000Y-79000000D03*
X120750000Y-79000000D03*
D14*
X114750000Y-77040000D03*
X161000000Y-77040000D03*
D15*
X170000000Y-79000000D03*
X167000000Y-79000000D03*
X164000000Y-79000000D03*
D14*
X176000000Y-77040000D03*
D15*
X173000000Y-79000000D03*
D21*
X195537500Y-94500000D03*
X195537500Y-89500000D03*
D22*
X198237500Y-95500000D03*
X198237500Y-88500000D03*
D11*
X184400000Y-145100000D03*
D10*
X186940000Y-145100000D03*
D23*
X197000000Y-147000000D03*
X103000000Y-78000000D03*
X197000000Y-78000000D03*
X103000000Y-147000000D03*
D12*
G36*
X149258031Y-83400496D02*
G01*
X149284159Y-83404372D01*
X149309780Y-83410790D01*
X149334649Y-83419688D01*
X149358526Y-83430981D01*
X149381182Y-83444560D01*
X149402397Y-83460294D01*
X149421968Y-83478032D01*
X149439706Y-83497603D01*
X149455440Y-83518818D01*
X149469019Y-83541474D01*
X149480312Y-83565351D01*
X149489210Y-83590220D01*
X149495628Y-83615841D01*
X149499504Y-83641969D01*
X149500800Y-83668350D01*
X149500800Y-84206650D01*
X149499504Y-84233031D01*
X149495628Y-84259159D01*
X149489210Y-84284780D01*
X149480312Y-84309649D01*
X149469019Y-84333526D01*
X149455440Y-84356182D01*
X149439706Y-84377397D01*
X149421968Y-84396968D01*
X149402397Y-84414706D01*
X149381182Y-84430440D01*
X149358526Y-84444019D01*
X149334649Y-84455312D01*
X149309780Y-84464210D01*
X149284159Y-84470628D01*
X149258031Y-84474504D01*
X149231650Y-84475800D01*
X148268350Y-84475800D01*
X148241969Y-84474504D01*
X148215841Y-84470628D01*
X148190220Y-84464210D01*
X148165351Y-84455312D01*
X148141474Y-84444019D01*
X148118818Y-84430440D01*
X148097603Y-84414706D01*
X148078032Y-84396968D01*
X148060294Y-84377397D01*
X148044560Y-84356182D01*
X148030981Y-84333526D01*
X148019688Y-84309649D01*
X148010790Y-84284780D01*
X148004372Y-84259159D01*
X148000496Y-84233031D01*
X147999200Y-84206650D01*
X147999200Y-83668350D01*
X148000496Y-83641969D01*
X148004372Y-83615841D01*
X148010790Y-83590220D01*
X148019688Y-83565351D01*
X148030981Y-83541474D01*
X148044560Y-83518818D01*
X148060294Y-83497603D01*
X148078032Y-83478032D01*
X148097603Y-83460294D01*
X148118818Y-83444560D01*
X148141474Y-83430981D01*
X148165351Y-83419688D01*
X148190220Y-83410790D01*
X148215841Y-83404372D01*
X148241969Y-83400496D01*
X148268350Y-83399200D01*
X149231650Y-83399200D01*
X149258031Y-83400496D01*
G37*
G36*
X149258031Y-81525496D02*
G01*
X149284159Y-81529372D01*
X149309780Y-81535790D01*
X149334649Y-81544688D01*
X149358526Y-81555981D01*
X149381182Y-81569560D01*
X149402397Y-81585294D01*
X149421968Y-81603032D01*
X149439706Y-81622603D01*
X149455440Y-81643818D01*
X149469019Y-81666474D01*
X149480312Y-81690351D01*
X149489210Y-81715220D01*
X149495628Y-81740841D01*
X149499504Y-81766969D01*
X149500800Y-81793350D01*
X149500800Y-82331650D01*
X149499504Y-82358031D01*
X149495628Y-82384159D01*
X149489210Y-82409780D01*
X149480312Y-82434649D01*
X149469019Y-82458526D01*
X149455440Y-82481182D01*
X149439706Y-82502397D01*
X149421968Y-82521968D01*
X149402397Y-82539706D01*
X149381182Y-82555440D01*
X149358526Y-82569019D01*
X149334649Y-82580312D01*
X149309780Y-82589210D01*
X149284159Y-82595628D01*
X149258031Y-82599504D01*
X149231650Y-82600800D01*
X148268350Y-82600800D01*
X148241969Y-82599504D01*
X148215841Y-82595628D01*
X148190220Y-82589210D01*
X148165351Y-82580312D01*
X148141474Y-82569019D01*
X148118818Y-82555440D01*
X148097603Y-82539706D01*
X148078032Y-82521968D01*
X148060294Y-82502397D01*
X148044560Y-82481182D01*
X148030981Y-82458526D01*
X148019688Y-82434649D01*
X148010790Y-82409780D01*
X148004372Y-82384159D01*
X148000496Y-82358031D01*
X147999200Y-82331650D01*
X147999200Y-81793350D01*
X148000496Y-81766969D01*
X148004372Y-81740841D01*
X148010790Y-81715220D01*
X148019688Y-81690351D01*
X148030981Y-81666474D01*
X148044560Y-81643818D01*
X148060294Y-81622603D01*
X148078032Y-81603032D01*
X148097603Y-81585294D01*
X148118818Y-81569560D01*
X148141474Y-81555981D01*
X148165351Y-81544688D01*
X148190220Y-81535790D01*
X148215841Y-81529372D01*
X148241969Y-81525496D01*
X148268350Y-81524200D01*
X149231650Y-81524200D01*
X149258031Y-81525496D01*
G37*
G36*
X153233031Y-81500496D02*
G01*
X153259159Y-81504372D01*
X153284780Y-81510790D01*
X153309649Y-81519688D01*
X153333526Y-81530981D01*
X153356182Y-81544560D01*
X153377397Y-81560294D01*
X153396968Y-81578032D01*
X153414706Y-81597603D01*
X153430440Y-81618818D01*
X153444019Y-81641474D01*
X153455312Y-81665351D01*
X153464210Y-81690220D01*
X153470628Y-81715841D01*
X153474504Y-81741969D01*
X153475800Y-81768350D01*
X153475800Y-82731650D01*
X153474504Y-82758031D01*
X153470628Y-82784159D01*
X153464210Y-82809780D01*
X153455312Y-82834649D01*
X153444019Y-82858526D01*
X153430440Y-82881182D01*
X153414706Y-82902397D01*
X153396968Y-82921968D01*
X153377397Y-82939706D01*
X153356182Y-82955440D01*
X153333526Y-82969019D01*
X153309649Y-82980312D01*
X153284780Y-82989210D01*
X153259159Y-82995628D01*
X153233031Y-82999504D01*
X153206650Y-83000800D01*
X152668350Y-83000800D01*
X152641969Y-82999504D01*
X152615841Y-82995628D01*
X152590220Y-82989210D01*
X152565351Y-82980312D01*
X152541474Y-82969019D01*
X152518818Y-82955440D01*
X152497603Y-82939706D01*
X152478032Y-82921968D01*
X152460294Y-82902397D01*
X152444560Y-82881182D01*
X152430981Y-82858526D01*
X152419688Y-82834649D01*
X152410790Y-82809780D01*
X152404372Y-82784159D01*
X152400496Y-82758031D01*
X152399200Y-82731650D01*
X152399200Y-81768350D01*
X152400496Y-81741969D01*
X152404372Y-81715841D01*
X152410790Y-81690220D01*
X152419688Y-81665351D01*
X152430981Y-81641474D01*
X152444560Y-81618818D01*
X152460294Y-81597603D01*
X152478032Y-81578032D01*
X152497603Y-81560294D01*
X152518818Y-81544560D01*
X152541474Y-81530981D01*
X152565351Y-81519688D01*
X152590220Y-81510790D01*
X152615841Y-81504372D01*
X152641969Y-81500496D01*
X152668350Y-81499200D01*
X153206650Y-81499200D01*
X153233031Y-81500496D01*
G37*
G36*
X151358031Y-81500496D02*
G01*
X151384159Y-81504372D01*
X151409780Y-81510790D01*
X151434649Y-81519688D01*
X151458526Y-81530981D01*
X151481182Y-81544560D01*
X151502397Y-81560294D01*
X151521968Y-81578032D01*
X151539706Y-81597603D01*
X151555440Y-81618818D01*
X151569019Y-81641474D01*
X151580312Y-81665351D01*
X151589210Y-81690220D01*
X151595628Y-81715841D01*
X151599504Y-81741969D01*
X151600800Y-81768350D01*
X151600800Y-82731650D01*
X151599504Y-82758031D01*
X151595628Y-82784159D01*
X151589210Y-82809780D01*
X151580312Y-82834649D01*
X151569019Y-82858526D01*
X151555440Y-82881182D01*
X151539706Y-82902397D01*
X151521968Y-82921968D01*
X151502397Y-82939706D01*
X151481182Y-82955440D01*
X151458526Y-82969019D01*
X151434649Y-82980312D01*
X151409780Y-82989210D01*
X151384159Y-82995628D01*
X151358031Y-82999504D01*
X151331650Y-83000800D01*
X150793350Y-83000800D01*
X150766969Y-82999504D01*
X150740841Y-82995628D01*
X150715220Y-82989210D01*
X150690351Y-82980312D01*
X150666474Y-82969019D01*
X150643818Y-82955440D01*
X150622603Y-82939706D01*
X150603032Y-82921968D01*
X150585294Y-82902397D01*
X150569560Y-82881182D01*
X150555981Y-82858526D01*
X150544688Y-82834649D01*
X150535790Y-82809780D01*
X150529372Y-82784159D01*
X150525496Y-82758031D01*
X150524200Y-82731650D01*
X150524200Y-81768350D01*
X150525496Y-81741969D01*
X150529372Y-81715841D01*
X150535790Y-81690220D01*
X150544688Y-81665351D01*
X150555981Y-81641474D01*
X150569560Y-81618818D01*
X150585294Y-81597603D01*
X150603032Y-81578032D01*
X150622603Y-81560294D01*
X150643818Y-81544560D01*
X150666474Y-81530981D01*
X150690351Y-81519688D01*
X150715220Y-81510790D01*
X150740841Y-81504372D01*
X150766969Y-81500496D01*
X150793350Y-81499200D01*
X151331650Y-81499200D01*
X151358031Y-81500496D01*
G37*
D13*
X143500000Y-96250000D03*
X191700000Y-145000000D03*
X179500000Y-145000000D03*
X109500000Y-83500000D03*
D24*
X153250000Y-85500000D03*
X151250000Y-84550000D03*
X151250000Y-86450000D03*
D11*
X145400000Y-136600000D03*
D10*
X145400000Y-139140000D03*
X145400000Y-141680000D03*
X145400000Y-144220000D03*
M02*
