G04 #@! TF.GenerationSoftware,KiCad,Pcbnew,(5.0.2)-1*
G04 #@! TF.CreationDate,2019-03-03T22:50:42-06:00*
G04 #@! TF.ProjectId,Dashboard,44617368-626f-4617-9264-2e6b69636164,rev?*
G04 #@! TF.SameCoordinates,Original*
G04 #@! TF.FileFunction,Legend,Bot*
G04 #@! TF.FilePolarity,Positive*
%FSLAX46Y46*%
G04 Gerber Fmt 4.6, Leading zero omitted, Abs format (unit mm)*
G04 Created by KiCad (PCBNEW (5.0.2)-1) date 3/3/2019 10:50:42 PM*
%MOMM*%
%LPD*%
G01*
G04 APERTURE LIST*
%ADD10C,0.300000*%
%ADD11C,0.120000*%
%ADD12C,0.200000*%
%ADD13C,0.254000*%
%ADD14C,0.150000*%
G04 APERTURE END LIST*
D10*
X141714285Y-54928571D02*
X141714285Y-53428571D01*
X141357142Y-53428571D01*
X141142857Y-53500000D01*
X141000000Y-53642857D01*
X140928571Y-53785714D01*
X140857142Y-54071428D01*
X140857142Y-54285714D01*
X140928571Y-54571428D01*
X141000000Y-54714285D01*
X141142857Y-54857142D01*
X141357142Y-54928571D01*
X141714285Y-54928571D01*
X139571428Y-54928571D02*
X139571428Y-54142857D01*
X139642857Y-54000000D01*
X139785714Y-53928571D01*
X140071428Y-53928571D01*
X140214285Y-54000000D01*
X139571428Y-54857142D02*
X139714285Y-54928571D01*
X140071428Y-54928571D01*
X140214285Y-54857142D01*
X140285714Y-54714285D01*
X140285714Y-54571428D01*
X140214285Y-54428571D01*
X140071428Y-54357142D01*
X139714285Y-54357142D01*
X139571428Y-54285714D01*
X138928571Y-54857142D02*
X138785714Y-54928571D01*
X138500000Y-54928571D01*
X138357142Y-54857142D01*
X138285714Y-54714285D01*
X138285714Y-54642857D01*
X138357142Y-54500000D01*
X138500000Y-54428571D01*
X138714285Y-54428571D01*
X138857142Y-54357142D01*
X138928571Y-54214285D01*
X138928571Y-54142857D01*
X138857142Y-54000000D01*
X138714285Y-53928571D01*
X138500000Y-53928571D01*
X138357142Y-54000000D01*
X137642857Y-54928571D02*
X137642857Y-53428571D01*
X137000000Y-54928571D02*
X137000000Y-54142857D01*
X137071428Y-54000000D01*
X137214285Y-53928571D01*
X137428571Y-53928571D01*
X137571428Y-54000000D01*
X137642857Y-54071428D01*
X136285714Y-54928571D02*
X136285714Y-53428571D01*
X136285714Y-54000000D02*
X136142857Y-53928571D01*
X135857142Y-53928571D01*
X135714285Y-54000000D01*
X135642857Y-54071428D01*
X135571428Y-54214285D01*
X135571428Y-54642857D01*
X135642857Y-54785714D01*
X135714285Y-54857142D01*
X135857142Y-54928571D01*
X136142857Y-54928571D01*
X136285714Y-54857142D01*
X134714285Y-54928571D02*
X134857142Y-54857142D01*
X134928571Y-54785714D01*
X135000000Y-54642857D01*
X135000000Y-54214285D01*
X134928571Y-54071428D01*
X134857142Y-54000000D01*
X134714285Y-53928571D01*
X134500000Y-53928571D01*
X134357142Y-54000000D01*
X134285714Y-54071428D01*
X134214285Y-54214285D01*
X134214285Y-54642857D01*
X134285714Y-54785714D01*
X134357142Y-54857142D01*
X134500000Y-54928571D01*
X134714285Y-54928571D01*
X132928571Y-54928571D02*
X132928571Y-54142857D01*
X133000000Y-54000000D01*
X133142857Y-53928571D01*
X133428571Y-53928571D01*
X133571428Y-54000000D01*
X132928571Y-54857142D02*
X133071428Y-54928571D01*
X133428571Y-54928571D01*
X133571428Y-54857142D01*
X133642857Y-54714285D01*
X133642857Y-54571428D01*
X133571428Y-54428571D01*
X133428571Y-54357142D01*
X133071428Y-54357142D01*
X132928571Y-54285714D01*
X132214285Y-54928571D02*
X132214285Y-53928571D01*
X132214285Y-54214285D02*
X132142857Y-54071428D01*
X132071428Y-54000000D01*
X131928571Y-53928571D01*
X131785714Y-53928571D01*
X130642857Y-54928571D02*
X130642857Y-53428571D01*
X130642857Y-54857142D02*
X130785714Y-54928571D01*
X131071428Y-54928571D01*
X131214285Y-54857142D01*
X131285714Y-54785714D01*
X131357142Y-54642857D01*
X131357142Y-54214285D01*
X131285714Y-54071428D01*
X131214285Y-54000000D01*
X131071428Y-53928571D01*
X130785714Y-53928571D01*
X130642857Y-54000000D01*
X129000000Y-53428571D02*
X128500000Y-54928571D01*
X128000000Y-53428571D01*
X126714285Y-54928571D02*
X127571428Y-54928571D01*
X127142857Y-54928571D02*
X127142857Y-53428571D01*
X127285714Y-53642857D01*
X127428571Y-53785714D01*
X127571428Y-53857142D01*
D11*
G04 #@! TO.C,C7*
X178078025Y-75617883D02*
X178443709Y-75252199D01*
X179082117Y-76621975D02*
X179447801Y-76256291D01*
G04 #@! TO.C,C9*
X180519204Y-78047801D02*
X180884888Y-77682117D01*
X179515112Y-77043709D02*
X179880796Y-76678025D01*
G04 #@! TO.C,C4*
X156967612Y-89158514D02*
X157484768Y-89158514D01*
X156967612Y-87738514D02*
X157484768Y-87738514D01*
G04 #@! TO.C,C5*
X159153690Y-87252436D02*
X159153690Y-87769592D01*
X160573690Y-87252436D02*
X160573690Y-87769592D01*
G04 #@! TO.C,C6*
X157484768Y-87258514D02*
X156967612Y-87258514D01*
X157484768Y-85838514D02*
X156967612Y-85838514D01*
G04 #@! TO.C,C16*
X199757868Y-64757816D02*
X199757868Y-67589312D01*
X204977868Y-64757816D02*
X204977868Y-67589312D01*
G04 #@! TO.C,C18*
X134717448Y-81325162D02*
X134200292Y-81325162D01*
X134717448Y-79905162D02*
X134200292Y-79905162D01*
G04 #@! TO.C,C19*
X134717448Y-77905162D02*
X134200292Y-77905162D01*
X134717448Y-79325162D02*
X134200292Y-79325162D01*
G04 #@! TO.C,C20*
X137637792Y-79905162D02*
X138154948Y-79905162D01*
X137637792Y-81325162D02*
X138154948Y-81325162D01*
G04 #@! TO.C,C21*
X137637792Y-79325162D02*
X138154948Y-79325162D01*
X137637792Y-77905162D02*
X138154948Y-77905162D01*
G04 #@! TO.C,C42*
X184758578Y-65490000D02*
X184241422Y-65490000D01*
X184758578Y-66910000D02*
X184241422Y-66910000D01*
G04 #@! TO.C,C43*
X155758578Y-66710000D02*
X155241422Y-66710000D01*
X155758578Y-65290000D02*
X155241422Y-65290000D01*
D12*
G04 #@! TO.C,L4*
X210117868Y-60323564D02*
X210117868Y-69523564D01*
X216117868Y-69523564D02*
X216117868Y-60323564D01*
D13*
X211855868Y-59437564D02*
G75*
G03X211855868Y-59437564I-91000J0D01*
G01*
D11*
G04 #@! TO.C,R3*
X133762792Y-70825162D02*
X134279948Y-70825162D01*
X133762792Y-69405162D02*
X134279948Y-69405162D01*
G04 #@! TO.C,R4*
X132248870Y-66873740D02*
X132248870Y-66356584D01*
X133668870Y-66873740D02*
X133668870Y-66356584D01*
G04 #@! TO.C,U5*
X137283870Y-69225162D02*
X137283870Y-68315162D01*
X137283870Y-66915162D02*
X137283870Y-66005162D01*
X134708870Y-69225162D02*
X137283870Y-69225162D01*
X135133870Y-66005162D02*
X137283870Y-66005162D01*
G04 #@! TO.C,C7*
D14*
X180300028Y-77238500D02*
X180367371Y-77238500D01*
X180502058Y-77171156D01*
X180569402Y-77103813D01*
X180636745Y-76969125D01*
X180636745Y-76834438D01*
X180603074Y-76733423D01*
X180502058Y-76565064D01*
X180401043Y-76464049D01*
X180232684Y-76363034D01*
X180131669Y-76329362D01*
X179996982Y-76329362D01*
X179862295Y-76396706D01*
X179794951Y-76464049D01*
X179727608Y-76598736D01*
X179727608Y-76666080D01*
X179424562Y-76834438D02*
X178953158Y-77305843D01*
X179963310Y-77709904D01*
G04 #@! TO.C,C9*
X181737115Y-78664326D02*
X181804458Y-78664326D01*
X181939145Y-78596982D01*
X182006489Y-78529639D01*
X182073832Y-78394951D01*
X182073832Y-78260264D01*
X182040161Y-78159249D01*
X181939145Y-77990890D01*
X181838130Y-77889875D01*
X181669771Y-77788860D01*
X181568756Y-77755188D01*
X181434069Y-77755188D01*
X181299382Y-77822532D01*
X181232038Y-77889875D01*
X181164695Y-78024562D01*
X181164695Y-78091906D01*
X181467741Y-79068387D02*
X181333054Y-79203074D01*
X181232038Y-79236745D01*
X181164695Y-79236745D01*
X180996336Y-79203074D01*
X180827977Y-79102058D01*
X180558603Y-78832684D01*
X180524932Y-78731669D01*
X180524932Y-78664326D01*
X180558603Y-78563310D01*
X180693290Y-78428623D01*
X180794306Y-78394951D01*
X180861649Y-78394951D01*
X180962664Y-78428623D01*
X181131023Y-78596982D01*
X181164695Y-78697997D01*
X181164695Y-78765341D01*
X181131023Y-78866356D01*
X180996336Y-79001043D01*
X180895321Y-79034715D01*
X180827977Y-79034715D01*
X180726962Y-79001043D01*
G04 #@! TO.C,C4*
X157392856Y-90455656D02*
X157440475Y-90503275D01*
X157583332Y-90550894D01*
X157678570Y-90550894D01*
X157821428Y-90503275D01*
X157916666Y-90408037D01*
X157964285Y-90312799D01*
X158011904Y-90122323D01*
X158011904Y-89979466D01*
X157964285Y-89788990D01*
X157916666Y-89693752D01*
X157821428Y-89598514D01*
X157678570Y-89550894D01*
X157583332Y-89550894D01*
X157440475Y-89598514D01*
X157392856Y-89646133D01*
X156535713Y-89884228D02*
X156535713Y-90550894D01*
X156773809Y-89503275D02*
X157011904Y-90217561D01*
X156392856Y-90217561D01*
G04 #@! TO.C,C5*
X158570832Y-87344347D02*
X158618451Y-87296728D01*
X158666070Y-87153871D01*
X158666070Y-87058633D01*
X158618451Y-86915775D01*
X158523213Y-86820537D01*
X158427975Y-86772918D01*
X158237499Y-86725299D01*
X158094642Y-86725299D01*
X157904166Y-86772918D01*
X157808928Y-86820537D01*
X157713690Y-86915775D01*
X157666070Y-87058633D01*
X157666070Y-87153871D01*
X157713690Y-87296728D01*
X157761309Y-87344347D01*
X157666070Y-88249109D02*
X157666070Y-87772918D01*
X158142261Y-87725299D01*
X158094642Y-87772918D01*
X158047023Y-87868156D01*
X158047023Y-88106252D01*
X158094642Y-88201490D01*
X158142261Y-88249109D01*
X158237499Y-88296728D01*
X158475594Y-88296728D01*
X158570832Y-88249109D01*
X158618451Y-88201490D01*
X158666070Y-88106252D01*
X158666070Y-87868156D01*
X158618451Y-87772918D01*
X158570832Y-87725299D01*
G04 #@! TO.C,C6*
X157392856Y-85255656D02*
X157440475Y-85303275D01*
X157583332Y-85350894D01*
X157678570Y-85350894D01*
X157821428Y-85303275D01*
X157916666Y-85208037D01*
X157964285Y-85112799D01*
X158011904Y-84922323D01*
X158011904Y-84779466D01*
X157964285Y-84588990D01*
X157916666Y-84493752D01*
X157821428Y-84398514D01*
X157678570Y-84350894D01*
X157583332Y-84350894D01*
X157440475Y-84398514D01*
X157392856Y-84446133D01*
X156535713Y-84350894D02*
X156726190Y-84350894D01*
X156821428Y-84398514D01*
X156869047Y-84446133D01*
X156964285Y-84588990D01*
X157011904Y-84779466D01*
X157011904Y-85160418D01*
X156964285Y-85255656D01*
X156916666Y-85303275D01*
X156821428Y-85350894D01*
X156630951Y-85350894D01*
X156535713Y-85303275D01*
X156488094Y-85255656D01*
X156440475Y-85160418D01*
X156440475Y-84922323D01*
X156488094Y-84827085D01*
X156535713Y-84779466D01*
X156630951Y-84731847D01*
X156821428Y-84731847D01*
X156916666Y-84779466D01*
X156964285Y-84827085D01*
X157011904Y-84922323D01*
G04 #@! TO.C,C16*
X199075010Y-65530706D02*
X199122629Y-65483087D01*
X199170248Y-65340230D01*
X199170248Y-65244992D01*
X199122629Y-65102135D01*
X199027391Y-65006897D01*
X198932153Y-64959278D01*
X198741677Y-64911659D01*
X198598820Y-64911659D01*
X198408344Y-64959278D01*
X198313106Y-65006897D01*
X198217868Y-65102135D01*
X198170248Y-65244992D01*
X198170248Y-65340230D01*
X198217868Y-65483087D01*
X198265487Y-65530706D01*
X199170248Y-66483087D02*
X199170248Y-65911659D01*
X199170248Y-66197373D02*
X198170248Y-66197373D01*
X198313106Y-66102135D01*
X198408344Y-66006897D01*
X198455963Y-65911659D01*
X198170248Y-67340230D02*
X198170248Y-67149754D01*
X198217868Y-67054516D01*
X198265487Y-67006897D01*
X198408344Y-66911659D01*
X198598820Y-66864040D01*
X198979772Y-66864040D01*
X199075010Y-66911659D01*
X199122629Y-66959278D01*
X199170248Y-67054516D01*
X199170248Y-67244992D01*
X199122629Y-67340230D01*
X199075010Y-67387849D01*
X198979772Y-67435468D01*
X198741677Y-67435468D01*
X198646439Y-67387849D01*
X198598820Y-67340230D01*
X198551201Y-67244992D01*
X198551201Y-67054516D01*
X198598820Y-66959278D01*
X198646439Y-66911659D01*
X198741677Y-66864040D01*
G04 #@! TO.C,C18*
X135101727Y-79322304D02*
X135149346Y-79369923D01*
X135292203Y-79417542D01*
X135387441Y-79417542D01*
X135530298Y-79369923D01*
X135625536Y-79274685D01*
X135673155Y-79179447D01*
X135720774Y-78988971D01*
X135720774Y-78846114D01*
X135673155Y-78655638D01*
X135625536Y-78560400D01*
X135530298Y-78465162D01*
X135387441Y-78417542D01*
X135292203Y-78417542D01*
X135149346Y-78465162D01*
X135101727Y-78512781D01*
X134149346Y-79417542D02*
X134720774Y-79417542D01*
X134435060Y-79417542D02*
X134435060Y-78417542D01*
X134530298Y-78560400D01*
X134625536Y-78655638D01*
X134720774Y-78703257D01*
X133577917Y-78846114D02*
X133673155Y-78798495D01*
X133720774Y-78750876D01*
X133768393Y-78655638D01*
X133768393Y-78608019D01*
X133720774Y-78512781D01*
X133673155Y-78465162D01*
X133577917Y-78417542D01*
X133387441Y-78417542D01*
X133292203Y-78465162D01*
X133244584Y-78512781D01*
X133196965Y-78608019D01*
X133196965Y-78655638D01*
X133244584Y-78750876D01*
X133292203Y-78798495D01*
X133387441Y-78846114D01*
X133577917Y-78846114D01*
X133673155Y-78893733D01*
X133720774Y-78941352D01*
X133768393Y-79036590D01*
X133768393Y-79227066D01*
X133720774Y-79322304D01*
X133673155Y-79369923D01*
X133577917Y-79417542D01*
X133387441Y-79417542D01*
X133292203Y-79369923D01*
X133244584Y-79322304D01*
X133196965Y-79227066D01*
X133196965Y-79036590D01*
X133244584Y-78941352D01*
X133292203Y-78893733D01*
X133387441Y-78846114D01*
G04 #@! TO.C,C19*
X135101727Y-77322304D02*
X135149346Y-77369923D01*
X135292203Y-77417542D01*
X135387441Y-77417542D01*
X135530298Y-77369923D01*
X135625536Y-77274685D01*
X135673155Y-77179447D01*
X135720774Y-76988971D01*
X135720774Y-76846114D01*
X135673155Y-76655638D01*
X135625536Y-76560400D01*
X135530298Y-76465162D01*
X135387441Y-76417542D01*
X135292203Y-76417542D01*
X135149346Y-76465162D01*
X135101727Y-76512781D01*
X134149346Y-77417542D02*
X134720774Y-77417542D01*
X134435060Y-77417542D02*
X134435060Y-76417542D01*
X134530298Y-76560400D01*
X134625536Y-76655638D01*
X134720774Y-76703257D01*
X133673155Y-77417542D02*
X133482679Y-77417542D01*
X133387441Y-77369923D01*
X133339822Y-77322304D01*
X133244584Y-77179447D01*
X133196965Y-76988971D01*
X133196965Y-76608019D01*
X133244584Y-76512781D01*
X133292203Y-76465162D01*
X133387441Y-76417542D01*
X133577917Y-76417542D01*
X133673155Y-76465162D01*
X133720774Y-76512781D01*
X133768393Y-76608019D01*
X133768393Y-76846114D01*
X133720774Y-76941352D01*
X133673155Y-76988971D01*
X133577917Y-77036590D01*
X133387441Y-77036590D01*
X133292203Y-76988971D01*
X133244584Y-76941352D01*
X133196965Y-76846114D01*
G04 #@! TO.C,C20*
X138539227Y-82622304D02*
X138586846Y-82669923D01*
X138729703Y-82717542D01*
X138824941Y-82717542D01*
X138967798Y-82669923D01*
X139063036Y-82574685D01*
X139110655Y-82479447D01*
X139158274Y-82288971D01*
X139158274Y-82146114D01*
X139110655Y-81955638D01*
X139063036Y-81860400D01*
X138967798Y-81765162D01*
X138824941Y-81717542D01*
X138729703Y-81717542D01*
X138586846Y-81765162D01*
X138539227Y-81812781D01*
X138158274Y-81812781D02*
X138110655Y-81765162D01*
X138015417Y-81717542D01*
X137777322Y-81717542D01*
X137682084Y-81765162D01*
X137634465Y-81812781D01*
X137586846Y-81908019D01*
X137586846Y-82003257D01*
X137634465Y-82146114D01*
X138205893Y-82717542D01*
X137586846Y-82717542D01*
X136967798Y-81717542D02*
X136872560Y-81717542D01*
X136777322Y-81765162D01*
X136729703Y-81812781D01*
X136682084Y-81908019D01*
X136634465Y-82098495D01*
X136634465Y-82336590D01*
X136682084Y-82527066D01*
X136729703Y-82622304D01*
X136777322Y-82669923D01*
X136872560Y-82717542D01*
X136967798Y-82717542D01*
X137063036Y-82669923D01*
X137110655Y-82622304D01*
X137158274Y-82527066D01*
X137205893Y-82336590D01*
X137205893Y-82098495D01*
X137158274Y-81908019D01*
X137110655Y-81812781D01*
X137063036Y-81765162D01*
X136967798Y-81717542D01*
G04 #@! TO.C,C21*
X138539227Y-80622304D02*
X138586846Y-80669923D01*
X138729703Y-80717542D01*
X138824941Y-80717542D01*
X138967798Y-80669923D01*
X139063036Y-80574685D01*
X139110655Y-80479447D01*
X139158274Y-80288971D01*
X139158274Y-80146114D01*
X139110655Y-79955638D01*
X139063036Y-79860400D01*
X138967798Y-79765162D01*
X138824941Y-79717542D01*
X138729703Y-79717542D01*
X138586846Y-79765162D01*
X138539227Y-79812781D01*
X138158274Y-79812781D02*
X138110655Y-79765162D01*
X138015417Y-79717542D01*
X137777322Y-79717542D01*
X137682084Y-79765162D01*
X137634465Y-79812781D01*
X137586846Y-79908019D01*
X137586846Y-80003257D01*
X137634465Y-80146114D01*
X138205893Y-80717542D01*
X137586846Y-80717542D01*
X136634465Y-80717542D02*
X137205893Y-80717542D01*
X136920179Y-80717542D02*
X136920179Y-79717542D01*
X137015417Y-79860400D01*
X137110655Y-79955638D01*
X137205893Y-80003257D01*
G04 #@! TO.C,C42*
X185142857Y-64907142D02*
X185190476Y-64954761D01*
X185333333Y-65002380D01*
X185428571Y-65002380D01*
X185571428Y-64954761D01*
X185666666Y-64859523D01*
X185714285Y-64764285D01*
X185761904Y-64573809D01*
X185761904Y-64430952D01*
X185714285Y-64240476D01*
X185666666Y-64145238D01*
X185571428Y-64050000D01*
X185428571Y-64002380D01*
X185333333Y-64002380D01*
X185190476Y-64050000D01*
X185142857Y-64097619D01*
X184285714Y-64335714D02*
X184285714Y-65002380D01*
X184523809Y-63954761D02*
X184761904Y-64669047D01*
X184142857Y-64669047D01*
X183809523Y-64097619D02*
X183761904Y-64050000D01*
X183666666Y-64002380D01*
X183428571Y-64002380D01*
X183333333Y-64050000D01*
X183285714Y-64097619D01*
X183238095Y-64192857D01*
X183238095Y-64288095D01*
X183285714Y-64430952D01*
X183857142Y-65002380D01*
X183238095Y-65002380D01*
G04 #@! TO.C,C43*
X156142857Y-64707142D02*
X156190476Y-64754761D01*
X156333333Y-64802380D01*
X156428571Y-64802380D01*
X156571428Y-64754761D01*
X156666666Y-64659523D01*
X156714285Y-64564285D01*
X156761904Y-64373809D01*
X156761904Y-64230952D01*
X156714285Y-64040476D01*
X156666666Y-63945238D01*
X156571428Y-63850000D01*
X156428571Y-63802380D01*
X156333333Y-63802380D01*
X156190476Y-63850000D01*
X156142857Y-63897619D01*
X155285714Y-64135714D02*
X155285714Y-64802380D01*
X155523809Y-63754761D02*
X155761904Y-64469047D01*
X155142857Y-64469047D01*
X154857142Y-63802380D02*
X154238095Y-63802380D01*
X154571428Y-64183333D01*
X154428571Y-64183333D01*
X154333333Y-64230952D01*
X154285714Y-64278571D01*
X154238095Y-64373809D01*
X154238095Y-64611904D01*
X154285714Y-64707142D01*
X154333333Y-64754761D01*
X154428571Y-64802380D01*
X154714285Y-64802380D01*
X154809523Y-64754761D01*
X154857142Y-64707142D01*
G04 #@! TO.C,L4*
D13*
X213860391Y-65838897D02*
X213860391Y-65234135D01*
X212590391Y-65234135D01*
X213013725Y-66806516D02*
X213860391Y-66806516D01*
X212529915Y-66504135D02*
X213437058Y-66201754D01*
X213437058Y-66987944D01*
G04 #@! TO.C,R3*
D14*
X134188036Y-72217542D02*
X134521370Y-71741352D01*
X134759465Y-72217542D02*
X134759465Y-71217542D01*
X134378512Y-71217542D01*
X134283274Y-71265162D01*
X134235655Y-71312781D01*
X134188036Y-71408019D01*
X134188036Y-71550876D01*
X134235655Y-71646114D01*
X134283274Y-71693733D01*
X134378512Y-71741352D01*
X134759465Y-71741352D01*
X133854703Y-71217542D02*
X133235655Y-71217542D01*
X133568989Y-71598495D01*
X133426131Y-71598495D01*
X133330893Y-71646114D01*
X133283274Y-71693733D01*
X133235655Y-71788971D01*
X133235655Y-72027066D01*
X133283274Y-72122304D01*
X133330893Y-72169923D01*
X133426131Y-72217542D01*
X133711846Y-72217542D01*
X133807084Y-72169923D01*
X133854703Y-72122304D01*
G04 #@! TO.C,R4*
X135061250Y-66448495D02*
X134585060Y-66115162D01*
X135061250Y-65877066D02*
X134061250Y-65877066D01*
X134061250Y-66258019D01*
X134108870Y-66353257D01*
X134156489Y-66400876D01*
X134251727Y-66448495D01*
X134394584Y-66448495D01*
X134489822Y-66400876D01*
X134537441Y-66353257D01*
X134585060Y-66258019D01*
X134585060Y-65877066D01*
X134394584Y-67305638D02*
X135061250Y-67305638D01*
X134013631Y-67067542D02*
X134727917Y-66829447D01*
X134727917Y-67448495D01*
G04 #@! TO.C,U5*
X136970774Y-69567542D02*
X136970774Y-70377066D01*
X136923155Y-70472304D01*
X136875536Y-70519923D01*
X136780298Y-70567542D01*
X136589822Y-70567542D01*
X136494584Y-70519923D01*
X136446965Y-70472304D01*
X136399346Y-70377066D01*
X136399346Y-69567542D01*
X135446965Y-69567542D02*
X135923155Y-69567542D01*
X135970774Y-70043733D01*
X135923155Y-69996114D01*
X135827917Y-69948495D01*
X135589822Y-69948495D01*
X135494584Y-69996114D01*
X135446965Y-70043733D01*
X135399346Y-70138971D01*
X135399346Y-70377066D01*
X135446965Y-70472304D01*
X135494584Y-70519923D01*
X135589822Y-70567542D01*
X135827917Y-70567542D01*
X135923155Y-70519923D01*
X135970774Y-70472304D01*
G04 #@! TD*
M02*
