G04 #@! TF.GenerationSoftware,KiCad,Pcbnew,(5.1.4)-1*
G04 #@! TF.CreationDate,2019-11-16T11:33:37-06:00*
G04 #@! TF.ProjectId,TestBoard,54657374-426f-4617-9264-2e6b69636164,rev?*
G04 #@! TF.SameCoordinates,Original*
G04 #@! TF.FileFunction,Soldermask,Bot*
G04 #@! TF.FilePolarity,Negative*
%FSLAX46Y46*%
G04 Gerber Fmt 4.6, Leading zero omitted, Abs format (unit mm)*
G04 Created by KiCad (PCBNEW (5.1.4)-1) date 2019-11-16 11:33:37*
%MOMM*%
%LPD*%
G04 APERTURE LIST*
%ADD10C,0.100000*%
G04 APERTURE END LIST*
D10*
G36*
X199302585Y-108978802D02*
G01*
X199452410Y-109008604D01*
X199734674Y-109125521D01*
X199988705Y-109295259D01*
X200204741Y-109511295D01*
X200374479Y-109765326D01*
X200491396Y-110047590D01*
X200551000Y-110347240D01*
X200551000Y-110652760D01*
X200491396Y-110952410D01*
X200374479Y-111234674D01*
X200204741Y-111488705D01*
X199988705Y-111704741D01*
X199734674Y-111874479D01*
X199452410Y-111991396D01*
X199302585Y-112021198D01*
X199152761Y-112051000D01*
X198847239Y-112051000D01*
X198697415Y-112021198D01*
X198547590Y-111991396D01*
X198265326Y-111874479D01*
X198011295Y-111704741D01*
X197795259Y-111488705D01*
X197625521Y-111234674D01*
X197508604Y-110952410D01*
X197449000Y-110652760D01*
X197449000Y-110347240D01*
X197508604Y-110047590D01*
X197625521Y-109765326D01*
X197795259Y-109511295D01*
X198011295Y-109295259D01*
X198265326Y-109125521D01*
X198547590Y-109008604D01*
X198697415Y-108978802D01*
X198847239Y-108949000D01*
X199152761Y-108949000D01*
X199302585Y-108978802D01*
X199302585Y-108978802D01*
G37*
G36*
X134802585Y-108978802D02*
G01*
X134952410Y-109008604D01*
X135234674Y-109125521D01*
X135488705Y-109295259D01*
X135704741Y-109511295D01*
X135874479Y-109765326D01*
X135991396Y-110047590D01*
X136051000Y-110347240D01*
X136051000Y-110652760D01*
X135991396Y-110952410D01*
X135874479Y-111234674D01*
X135704741Y-111488705D01*
X135488705Y-111704741D01*
X135234674Y-111874479D01*
X134952410Y-111991396D01*
X134802585Y-112021198D01*
X134652761Y-112051000D01*
X134347239Y-112051000D01*
X134197415Y-112021198D01*
X134047590Y-111991396D01*
X133765326Y-111874479D01*
X133511295Y-111704741D01*
X133295259Y-111488705D01*
X133125521Y-111234674D01*
X133008604Y-110952410D01*
X132949000Y-110652760D01*
X132949000Y-110347240D01*
X133008604Y-110047590D01*
X133125521Y-109765326D01*
X133295259Y-109511295D01*
X133511295Y-109295259D01*
X133765326Y-109125521D01*
X134047590Y-109008604D01*
X134197415Y-108978802D01*
X134347239Y-108949000D01*
X134652761Y-108949000D01*
X134802585Y-108978802D01*
X134802585Y-108978802D01*
G37*
G36*
X143401000Y-110841000D02*
G01*
X141599000Y-110841000D01*
X141599000Y-109039000D01*
X143401000Y-109039000D01*
X143401000Y-110841000D01*
X143401000Y-110841000D01*
G37*
G36*
X140070442Y-109045518D02*
G01*
X140136627Y-109052037D01*
X140306466Y-109103557D01*
X140462991Y-109187222D01*
X140498729Y-109216552D01*
X140600186Y-109299814D01*
X140683448Y-109401271D01*
X140712778Y-109437009D01*
X140796443Y-109593534D01*
X140847963Y-109763373D01*
X140865359Y-109940000D01*
X140847963Y-110116627D01*
X140796443Y-110286466D01*
X140712778Y-110442991D01*
X140683448Y-110478729D01*
X140600186Y-110580186D01*
X140511753Y-110652760D01*
X140462991Y-110692778D01*
X140306466Y-110776443D01*
X140136627Y-110827963D01*
X140070443Y-110834481D01*
X140004260Y-110841000D01*
X139915740Y-110841000D01*
X139849557Y-110834481D01*
X139783373Y-110827963D01*
X139613534Y-110776443D01*
X139457009Y-110692778D01*
X139408247Y-110652760D01*
X139319814Y-110580186D01*
X139236552Y-110478729D01*
X139207222Y-110442991D01*
X139123557Y-110286466D01*
X139072037Y-110116627D01*
X139054641Y-109940000D01*
X139072037Y-109763373D01*
X139123557Y-109593534D01*
X139207222Y-109437009D01*
X139236552Y-109401271D01*
X139319814Y-109299814D01*
X139421271Y-109216552D01*
X139457009Y-109187222D01*
X139613534Y-109103557D01*
X139783373Y-109052037D01*
X139849558Y-109045518D01*
X139915740Y-109039000D01*
X140004260Y-109039000D01*
X140070442Y-109045518D01*
X140070442Y-109045518D01*
G37*
G36*
X146211958Y-107797240D02*
G01*
X146356153Y-107825922D01*
X146448194Y-107864047D01*
X146578359Y-107917963D01*
X146778342Y-108051587D01*
X146948413Y-108221658D01*
X147082037Y-108421641D01*
X147135953Y-108551806D01*
X147174078Y-108643847D01*
X147182199Y-108684674D01*
X147221000Y-108879741D01*
X147221000Y-109120259D01*
X147174078Y-109356152D01*
X147082037Y-109578359D01*
X146948413Y-109778342D01*
X146778342Y-109948413D01*
X146578359Y-110082037D01*
X146494856Y-110116625D01*
X146356153Y-110174078D01*
X146238205Y-110197539D01*
X146120259Y-110221000D01*
X145879741Y-110221000D01*
X145761795Y-110197539D01*
X145643847Y-110174078D01*
X145505144Y-110116625D01*
X145421641Y-110082037D01*
X145221658Y-109948413D01*
X145051587Y-109778342D01*
X144917963Y-109578359D01*
X144825922Y-109356152D01*
X144779000Y-109120259D01*
X144779000Y-108879741D01*
X144817801Y-108684674D01*
X144825922Y-108643847D01*
X144864047Y-108551806D01*
X144917963Y-108421641D01*
X145051587Y-108221658D01*
X145221658Y-108051587D01*
X145421641Y-107917963D01*
X145551806Y-107864047D01*
X145643847Y-107825922D01*
X145788042Y-107797240D01*
X145879741Y-107779000D01*
X146120259Y-107779000D01*
X146211958Y-107797240D01*
X146211958Y-107797240D01*
G37*
G36*
X186992585Y-106428802D02*
G01*
X187142410Y-106458604D01*
X187424674Y-106575521D01*
X187678705Y-106745259D01*
X187894741Y-106961295D01*
X188064479Y-107215326D01*
X188181396Y-107497590D01*
X188211198Y-107647415D01*
X188241000Y-107797239D01*
X188241000Y-108102761D01*
X188217350Y-108221658D01*
X188181396Y-108402410D01*
X188064479Y-108684674D01*
X187894741Y-108938705D01*
X187678705Y-109154741D01*
X187424674Y-109324479D01*
X187142410Y-109441396D01*
X186992585Y-109471198D01*
X186842761Y-109501000D01*
X186537239Y-109501000D01*
X186387415Y-109471198D01*
X186237590Y-109441396D01*
X185955326Y-109324479D01*
X185701295Y-109154741D01*
X185485259Y-108938705D01*
X185315521Y-108684674D01*
X185198604Y-108402410D01*
X185162650Y-108221658D01*
X185139000Y-108102761D01*
X185139000Y-107797239D01*
X185168802Y-107647415D01*
X185198604Y-107497590D01*
X185315521Y-107215326D01*
X185485259Y-106961295D01*
X185701295Y-106745259D01*
X185955326Y-106575521D01*
X186237590Y-106458604D01*
X186387415Y-106428802D01*
X186537239Y-106399000D01*
X186842761Y-106399000D01*
X186992585Y-106428802D01*
X186992585Y-106428802D01*
G37*
G36*
X175562585Y-105158802D02*
G01*
X175712410Y-105188604D01*
X175994674Y-105305521D01*
X176248705Y-105475259D01*
X176464741Y-105691295D01*
X176634479Y-105945326D01*
X176751396Y-106227590D01*
X176781198Y-106377415D01*
X176797348Y-106458604D01*
X176811000Y-106527240D01*
X176811000Y-106832760D01*
X176751396Y-107132410D01*
X176634479Y-107414674D01*
X176464741Y-107668705D01*
X176248705Y-107884741D01*
X175994674Y-108054479D01*
X175712410Y-108171396D01*
X175562585Y-108201198D01*
X175412761Y-108231000D01*
X175107239Y-108231000D01*
X174957415Y-108201198D01*
X174807590Y-108171396D01*
X174525326Y-108054479D01*
X174271295Y-107884741D01*
X174055259Y-107668705D01*
X173885521Y-107414674D01*
X173768604Y-107132410D01*
X173709000Y-106832760D01*
X173709000Y-106527240D01*
X173722653Y-106458604D01*
X173738802Y-106377415D01*
X173768604Y-106227590D01*
X173885521Y-105945326D01*
X174055259Y-105691295D01*
X174271295Y-105475259D01*
X174525326Y-105305521D01*
X174807590Y-105188604D01*
X174957415Y-105158802D01*
X175107239Y-105129000D01*
X175412761Y-105129000D01*
X175562585Y-105158802D01*
X175562585Y-105158802D01*
G37*
G36*
X156238205Y-105302461D02*
G01*
X156356153Y-105325922D01*
X156448194Y-105364047D01*
X156578359Y-105417963D01*
X156778342Y-105551587D01*
X156948413Y-105721658D01*
X157082037Y-105921641D01*
X157091848Y-105945328D01*
X157174078Y-106143847D01*
X157221000Y-106379742D01*
X157221000Y-106620258D01*
X157174078Y-106856153D01*
X157135953Y-106948194D01*
X157082037Y-107078359D01*
X156948413Y-107278342D01*
X156778342Y-107448413D01*
X156578359Y-107582037D01*
X156448194Y-107635953D01*
X156356153Y-107674078D01*
X156120259Y-107721000D01*
X155879741Y-107721000D01*
X155643847Y-107674078D01*
X155551806Y-107635953D01*
X155421641Y-107582037D01*
X155221658Y-107448413D01*
X155051587Y-107278342D01*
X154917963Y-107078359D01*
X154864047Y-106948194D01*
X154825922Y-106856153D01*
X154779000Y-106620258D01*
X154779000Y-106379742D01*
X154825922Y-106143847D01*
X154908152Y-105945328D01*
X154917963Y-105921641D01*
X155051587Y-105721658D01*
X155221658Y-105551587D01*
X155421641Y-105417963D01*
X155551806Y-105364047D01*
X155643847Y-105325922D01*
X155761795Y-105302461D01*
X155879741Y-105279000D01*
X156120259Y-105279000D01*
X156238205Y-105302461D01*
X156238205Y-105302461D01*
G37*
G36*
X181720443Y-105785519D02*
G01*
X181786627Y-105792037D01*
X181956466Y-105843557D01*
X182112991Y-105927222D01*
X182135053Y-105945328D01*
X182250186Y-106039814D01*
X182333448Y-106141271D01*
X182362778Y-106177009D01*
X182446443Y-106333534D01*
X182497963Y-106503373D01*
X182515359Y-106680000D01*
X182497963Y-106856627D01*
X182446443Y-107026466D01*
X182362778Y-107182991D01*
X182333448Y-107218729D01*
X182250186Y-107320186D01*
X182148729Y-107403448D01*
X182112991Y-107432778D01*
X181956466Y-107516443D01*
X181786627Y-107567963D01*
X181720443Y-107574481D01*
X181654260Y-107581000D01*
X181565740Y-107581000D01*
X181499557Y-107574481D01*
X181433373Y-107567963D01*
X181263534Y-107516443D01*
X181107009Y-107432778D01*
X181071271Y-107403448D01*
X180969814Y-107320186D01*
X180886552Y-107218729D01*
X180857222Y-107182991D01*
X180773557Y-107026466D01*
X180722037Y-106856627D01*
X180704641Y-106680000D01*
X180722037Y-106503373D01*
X180773557Y-106333534D01*
X180857222Y-106177009D01*
X180886552Y-106141271D01*
X180969814Y-106039814D01*
X181084947Y-105945328D01*
X181107009Y-105927222D01*
X181263534Y-105843557D01*
X181433373Y-105792037D01*
X181499557Y-105785519D01*
X181565740Y-105779000D01*
X181654260Y-105779000D01*
X181720443Y-105785519D01*
X181720443Y-105785519D01*
G37*
G36*
X179971000Y-107581000D02*
G01*
X178169000Y-107581000D01*
X178169000Y-105779000D01*
X179971000Y-105779000D01*
X179971000Y-107581000D01*
X179971000Y-107581000D01*
G37*
G36*
X146238205Y-102802461D02*
G01*
X146356153Y-102825922D01*
X146448194Y-102864047D01*
X146578359Y-102917963D01*
X146778342Y-103051587D01*
X146948413Y-103221658D01*
X147082037Y-103421641D01*
X147174078Y-103643848D01*
X147221000Y-103879741D01*
X147221000Y-104120259D01*
X147174078Y-104356152D01*
X147082037Y-104578359D01*
X146948413Y-104778342D01*
X146778342Y-104948413D01*
X146578359Y-105082037D01*
X146464980Y-105129000D01*
X146356153Y-105174078D01*
X146283125Y-105188604D01*
X146120259Y-105221000D01*
X145879741Y-105221000D01*
X145716875Y-105188604D01*
X145643847Y-105174078D01*
X145535020Y-105129000D01*
X145421641Y-105082037D01*
X145221658Y-104948413D01*
X145051587Y-104778342D01*
X144917963Y-104578359D01*
X144825922Y-104356152D01*
X144779000Y-104120259D01*
X144779000Y-103879741D01*
X144825922Y-103643848D01*
X144917963Y-103421641D01*
X145051587Y-103221658D01*
X145221658Y-103051587D01*
X145421641Y-102917963D01*
X145551806Y-102864047D01*
X145643847Y-102825922D01*
X145761795Y-102802461D01*
X145879741Y-102779000D01*
X146120259Y-102779000D01*
X146238205Y-102802461D01*
X146238205Y-102802461D01*
G37*
G36*
X160376153Y-101695922D02*
G01*
X160468194Y-101734047D01*
X160598359Y-101787963D01*
X160798342Y-101921587D01*
X160968413Y-102091658D01*
X161102037Y-102291641D01*
X161194078Y-102513848D01*
X161241000Y-102749741D01*
X161241000Y-102990259D01*
X161194078Y-103226152D01*
X161102037Y-103448359D01*
X160968413Y-103648342D01*
X160798342Y-103818413D01*
X160598359Y-103952037D01*
X160468194Y-104005953D01*
X160376153Y-104044078D01*
X160258205Y-104067539D01*
X160140259Y-104091000D01*
X159899741Y-104091000D01*
X159781795Y-104067539D01*
X159663847Y-104044078D01*
X159571806Y-104005953D01*
X159441641Y-103952037D01*
X159241658Y-103818413D01*
X159071587Y-103648342D01*
X158937963Y-103448359D01*
X158845922Y-103226152D01*
X158799000Y-102990259D01*
X158799000Y-102749741D01*
X158845922Y-102513848D01*
X158937963Y-102291641D01*
X159071587Y-102091658D01*
X159241658Y-101921587D01*
X159441641Y-101787963D01*
X159571806Y-101734047D01*
X159663847Y-101695922D01*
X159781795Y-101672461D01*
X159899741Y-101649000D01*
X160140259Y-101649000D01*
X160376153Y-101695922D01*
X160376153Y-101695922D01*
G37*
G36*
X175562585Y-98808802D02*
G01*
X175712410Y-98838604D01*
X175994674Y-98955521D01*
X176248705Y-99125259D01*
X176464741Y-99341295D01*
X176634479Y-99595326D01*
X176751396Y-99877590D01*
X176778499Y-100013847D01*
X176811000Y-100177239D01*
X176811000Y-100482761D01*
X176806253Y-100506625D01*
X176751396Y-100782410D01*
X176634479Y-101064674D01*
X176464741Y-101318705D01*
X176248705Y-101534741D01*
X175994674Y-101704479D01*
X175712410Y-101821396D01*
X175562585Y-101851198D01*
X175412761Y-101881000D01*
X175107239Y-101881000D01*
X174957415Y-101851198D01*
X174807590Y-101821396D01*
X174525326Y-101704479D01*
X174271295Y-101534741D01*
X174055259Y-101318705D01*
X173885521Y-101064674D01*
X173768604Y-100782410D01*
X173713747Y-100506625D01*
X173709000Y-100482761D01*
X173709000Y-100177239D01*
X173741501Y-100013847D01*
X173768604Y-99877590D01*
X173885521Y-99595326D01*
X174055259Y-99341295D01*
X174271295Y-99125259D01*
X174525326Y-98955521D01*
X174807590Y-98838604D01*
X174957415Y-98808802D01*
X175107239Y-98779000D01*
X175412761Y-98779000D01*
X175562585Y-98808802D01*
X175562585Y-98808802D01*
G37*
G36*
X170258205Y-99172461D02*
G01*
X170376153Y-99195922D01*
X170468194Y-99234047D01*
X170598359Y-99287963D01*
X170798342Y-99421587D01*
X170968413Y-99591658D01*
X171102037Y-99791641D01*
X171194078Y-100013848D01*
X171241000Y-100249741D01*
X171241000Y-100490259D01*
X171194078Y-100726152D01*
X171102037Y-100948359D01*
X170968413Y-101148342D01*
X170798342Y-101318413D01*
X170598359Y-101452037D01*
X170468194Y-101505953D01*
X170376153Y-101544078D01*
X170258205Y-101567539D01*
X170140259Y-101591000D01*
X169899741Y-101591000D01*
X169781795Y-101567539D01*
X169663847Y-101544078D01*
X169571806Y-101505953D01*
X169441641Y-101452037D01*
X169241658Y-101318413D01*
X169071587Y-101148342D01*
X168937963Y-100948359D01*
X168845922Y-100726152D01*
X168799000Y-100490259D01*
X168799000Y-100249741D01*
X168845922Y-100013848D01*
X168937963Y-99791641D01*
X169071587Y-99591658D01*
X169241658Y-99421587D01*
X169441641Y-99287963D01*
X169571806Y-99234047D01*
X169663847Y-99195922D01*
X169781795Y-99172461D01*
X169899741Y-99149000D01*
X170140259Y-99149000D01*
X170258205Y-99172461D01*
X170258205Y-99172461D01*
G37*
G36*
X179971000Y-101231000D02*
G01*
X178169000Y-101231000D01*
X178169000Y-99429000D01*
X179971000Y-99429000D01*
X179971000Y-101231000D01*
X179971000Y-101231000D01*
G37*
G36*
X181720443Y-99435519D02*
G01*
X181786627Y-99442037D01*
X181956466Y-99493557D01*
X182112991Y-99577222D01*
X182135053Y-99595328D01*
X182250186Y-99689814D01*
X182333448Y-99791271D01*
X182362778Y-99827009D01*
X182446443Y-99983534D01*
X182497963Y-100153373D01*
X182515359Y-100330000D01*
X182497963Y-100506627D01*
X182446443Y-100676466D01*
X182362778Y-100832991D01*
X182333448Y-100868729D01*
X182250186Y-100970186D01*
X182148729Y-101053448D01*
X182112991Y-101082778D01*
X181956466Y-101166443D01*
X181786627Y-101217963D01*
X181720443Y-101224481D01*
X181654260Y-101231000D01*
X181565740Y-101231000D01*
X181499558Y-101224482D01*
X181433373Y-101217963D01*
X181263534Y-101166443D01*
X181107009Y-101082778D01*
X181071271Y-101053448D01*
X180969814Y-100970186D01*
X180886552Y-100868729D01*
X180857222Y-100832991D01*
X180773557Y-100676466D01*
X180722037Y-100506627D01*
X180704641Y-100330000D01*
X180722037Y-100153373D01*
X180773557Y-99983534D01*
X180857222Y-99827009D01*
X180886552Y-99791271D01*
X180969814Y-99689814D01*
X181084947Y-99595328D01*
X181107009Y-99577222D01*
X181263534Y-99493557D01*
X181433373Y-99442037D01*
X181499558Y-99435518D01*
X181565740Y-99429000D01*
X181654260Y-99429000D01*
X181720443Y-99435519D01*
X181720443Y-99435519D01*
G37*
G36*
X160376153Y-96695922D02*
G01*
X160468194Y-96734047D01*
X160598359Y-96787963D01*
X160798342Y-96921587D01*
X160968413Y-97091658D01*
X161102037Y-97291641D01*
X161194078Y-97513848D01*
X161241000Y-97749741D01*
X161241000Y-97990259D01*
X161194078Y-98226152D01*
X161102037Y-98448359D01*
X160968413Y-98648342D01*
X160798342Y-98818413D01*
X160598359Y-98952037D01*
X160468194Y-99005953D01*
X160376153Y-99044078D01*
X160140259Y-99091000D01*
X159899741Y-99091000D01*
X159663847Y-99044078D01*
X159571806Y-99005953D01*
X159441641Y-98952037D01*
X159241658Y-98818413D01*
X159071587Y-98648342D01*
X158937963Y-98448359D01*
X158845922Y-98226152D01*
X158799000Y-97990259D01*
X158799000Y-97749741D01*
X158845922Y-97513848D01*
X158937963Y-97291641D01*
X159071587Y-97091658D01*
X159241658Y-96921587D01*
X159441641Y-96787963D01*
X159571806Y-96734047D01*
X159663847Y-96695922D01*
X159781795Y-96672461D01*
X159899741Y-96649000D01*
X160140259Y-96649000D01*
X160376153Y-96695922D01*
X160376153Y-96695922D01*
G37*
G36*
X146238205Y-94052461D02*
G01*
X146356153Y-94075922D01*
X146448194Y-94114047D01*
X146578359Y-94167963D01*
X146778342Y-94301587D01*
X146948413Y-94471658D01*
X147082037Y-94671641D01*
X147174078Y-94893848D01*
X147221000Y-95129741D01*
X147221000Y-95370259D01*
X147174078Y-95606152D01*
X147082037Y-95828359D01*
X146948413Y-96028342D01*
X146778342Y-96198413D01*
X146578359Y-96332037D01*
X146448194Y-96385953D01*
X146356153Y-96424078D01*
X146238205Y-96447539D01*
X146120259Y-96471000D01*
X145879741Y-96471000D01*
X145761795Y-96447539D01*
X145643847Y-96424078D01*
X145551806Y-96385953D01*
X145421641Y-96332037D01*
X145221658Y-96198413D01*
X145051587Y-96028342D01*
X144917963Y-95828359D01*
X144825922Y-95606152D01*
X144779000Y-95370259D01*
X144779000Y-95129741D01*
X144825922Y-94893848D01*
X144917963Y-94671641D01*
X145051587Y-94471658D01*
X145221658Y-94301587D01*
X145421641Y-94167963D01*
X145551806Y-94114047D01*
X145643847Y-94075922D01*
X145761795Y-94052461D01*
X145879741Y-94029000D01*
X146120259Y-94029000D01*
X146238205Y-94052461D01*
X146238205Y-94052461D01*
G37*
G36*
X175515368Y-91179410D02*
G01*
X175712410Y-91218604D01*
X175994674Y-91335521D01*
X176248705Y-91505259D01*
X176464741Y-91721295D01*
X176634479Y-91975326D01*
X176751396Y-92257590D01*
X176778499Y-92393847D01*
X176811000Y-92557239D01*
X176811000Y-92862761D01*
X176806253Y-92886625D01*
X176751396Y-93162410D01*
X176634479Y-93444674D01*
X176464741Y-93698705D01*
X176248705Y-93914741D01*
X175994674Y-94084479D01*
X175712410Y-94201396D01*
X175562585Y-94231198D01*
X175412761Y-94261000D01*
X175107239Y-94261000D01*
X174957415Y-94231198D01*
X174807590Y-94201396D01*
X174525326Y-94084479D01*
X174271295Y-93914741D01*
X174055259Y-93698705D01*
X173885521Y-93444674D01*
X173768604Y-93162410D01*
X173713747Y-92886625D01*
X173709000Y-92862761D01*
X173709000Y-92557239D01*
X173741501Y-92393847D01*
X173768604Y-92257590D01*
X173885521Y-91975326D01*
X174055259Y-91721295D01*
X174271295Y-91505259D01*
X174525326Y-91335521D01*
X174807590Y-91218604D01*
X175004632Y-91179410D01*
X175107239Y-91159000D01*
X175412761Y-91159000D01*
X175515368Y-91179410D01*
X175515368Y-91179410D01*
G37*
G36*
X156356153Y-91575922D02*
G01*
X156448194Y-91614047D01*
X156578359Y-91667963D01*
X156778342Y-91801587D01*
X156948413Y-91971658D01*
X157082037Y-92171641D01*
X157174078Y-92393848D01*
X157221000Y-92629741D01*
X157221000Y-92870259D01*
X157174078Y-93106152D01*
X157082037Y-93328359D01*
X156948413Y-93528342D01*
X156778342Y-93698413D01*
X156578359Y-93832037D01*
X156448194Y-93885953D01*
X156356153Y-93924078D01*
X156238205Y-93947539D01*
X156120259Y-93971000D01*
X155879741Y-93971000D01*
X155761795Y-93947539D01*
X155643847Y-93924078D01*
X155551806Y-93885953D01*
X155421641Y-93832037D01*
X155221658Y-93698413D01*
X155051587Y-93528342D01*
X154917963Y-93328359D01*
X154825922Y-93106152D01*
X154779000Y-92870259D01*
X154779000Y-92629741D01*
X154825922Y-92393848D01*
X154917963Y-92171641D01*
X155051587Y-91971658D01*
X155221658Y-91801587D01*
X155421641Y-91667963D01*
X155551806Y-91614047D01*
X155643847Y-91575922D01*
X155761795Y-91552461D01*
X155879741Y-91529000D01*
X156120259Y-91529000D01*
X156356153Y-91575922D01*
X156356153Y-91575922D01*
G37*
G36*
X179971000Y-93611000D02*
G01*
X178169000Y-93611000D01*
X178169000Y-91809000D01*
X179971000Y-91809000D01*
X179971000Y-93611000D01*
X179971000Y-93611000D01*
G37*
G36*
X181720442Y-91815518D02*
G01*
X181786627Y-91822037D01*
X181956466Y-91873557D01*
X182112991Y-91957222D01*
X182135053Y-91975328D01*
X182250186Y-92069814D01*
X182333448Y-92171271D01*
X182362778Y-92207009D01*
X182446443Y-92363534D01*
X182497963Y-92533373D01*
X182515359Y-92710000D01*
X182497963Y-92886627D01*
X182446443Y-93056466D01*
X182362778Y-93212991D01*
X182333448Y-93248729D01*
X182250186Y-93350186D01*
X182148729Y-93433448D01*
X182112991Y-93462778D01*
X181956466Y-93546443D01*
X181786627Y-93597963D01*
X181720442Y-93604482D01*
X181654260Y-93611000D01*
X181565740Y-93611000D01*
X181499557Y-93604481D01*
X181433373Y-93597963D01*
X181263534Y-93546443D01*
X181107009Y-93462778D01*
X181071271Y-93433448D01*
X180969814Y-93350186D01*
X180886552Y-93248729D01*
X180857222Y-93212991D01*
X180773557Y-93056466D01*
X180722037Y-92886627D01*
X180704641Y-92710000D01*
X180722037Y-92533373D01*
X180773557Y-92363534D01*
X180857222Y-92207009D01*
X180886552Y-92171271D01*
X180969814Y-92069814D01*
X181084947Y-91975328D01*
X181107009Y-91957222D01*
X181263534Y-91873557D01*
X181433373Y-91822037D01*
X181499558Y-91815518D01*
X181565740Y-91809000D01*
X181654260Y-91809000D01*
X181720442Y-91815518D01*
X181720442Y-91815518D01*
G37*
G36*
X146238205Y-89052461D02*
G01*
X146356153Y-89075922D01*
X146448194Y-89114047D01*
X146578359Y-89167963D01*
X146778342Y-89301587D01*
X146948413Y-89471658D01*
X147082037Y-89671641D01*
X147102387Y-89720771D01*
X147174078Y-89893847D01*
X147221000Y-90129742D01*
X147221000Y-90370258D01*
X147185840Y-90547023D01*
X147174078Y-90606152D01*
X147082037Y-90828359D01*
X146948413Y-91028342D01*
X146778342Y-91198413D01*
X146578359Y-91332037D01*
X146448194Y-91385953D01*
X146356153Y-91424078D01*
X146120259Y-91471000D01*
X145879741Y-91471000D01*
X145761795Y-91447539D01*
X145643847Y-91424078D01*
X145551806Y-91385953D01*
X145421641Y-91332037D01*
X145221658Y-91198413D01*
X145051587Y-91028342D01*
X144917963Y-90828359D01*
X144825922Y-90606152D01*
X144814161Y-90547023D01*
X144779000Y-90370258D01*
X144779000Y-90129742D01*
X144825922Y-89893847D01*
X144897613Y-89720771D01*
X144917963Y-89671641D01*
X145051587Y-89471658D01*
X145221658Y-89301587D01*
X145421641Y-89167963D01*
X145551806Y-89114047D01*
X145643847Y-89075922D01*
X145879741Y-89029000D01*
X146120259Y-89029000D01*
X146238205Y-89052461D01*
X146238205Y-89052461D01*
G37*
G36*
X193378571Y-89592863D02*
G01*
X193457023Y-89600590D01*
X193557682Y-89631125D01*
X193608013Y-89646392D01*
X193747165Y-89720771D01*
X193869133Y-89820867D01*
X193969229Y-89942835D01*
X194043608Y-90081987D01*
X194043608Y-90081988D01*
X194089410Y-90232977D01*
X194104875Y-90390000D01*
X194089410Y-90547023D01*
X194071473Y-90606152D01*
X194043608Y-90698013D01*
X193969229Y-90837165D01*
X193869133Y-90959133D01*
X193747165Y-91059229D01*
X193608013Y-91133608D01*
X193557682Y-91148875D01*
X193457023Y-91179410D01*
X193378571Y-91187137D01*
X193339346Y-91191000D01*
X192740654Y-91191000D01*
X192701429Y-91187137D01*
X192622977Y-91179410D01*
X192522318Y-91148875D01*
X192471987Y-91133608D01*
X192332835Y-91059229D01*
X192210867Y-90959133D01*
X192110771Y-90837165D01*
X192036392Y-90698013D01*
X192008527Y-90606152D01*
X191990590Y-90547023D01*
X191975125Y-90390000D01*
X191990590Y-90232977D01*
X192036392Y-90081988D01*
X192036392Y-90081987D01*
X192110771Y-89942835D01*
X192210867Y-89820867D01*
X192332835Y-89720771D01*
X192471987Y-89646392D01*
X192522318Y-89631125D01*
X192622977Y-89600590D01*
X192701429Y-89592863D01*
X192740654Y-89589000D01*
X193339346Y-89589000D01*
X193378571Y-89592863D01*
X193378571Y-89592863D01*
G37*
G36*
X160235839Y-87698012D02*
G01*
X160376153Y-87725922D01*
X160468194Y-87764047D01*
X160598359Y-87817963D01*
X160798342Y-87951587D01*
X160968413Y-88121658D01*
X161102037Y-88321641D01*
X161194078Y-88543848D01*
X161241000Y-88779741D01*
X161241000Y-89020259D01*
X161194078Y-89256152D01*
X161102037Y-89478359D01*
X160968413Y-89678342D01*
X160798342Y-89848413D01*
X160598359Y-89982037D01*
X160468194Y-90035953D01*
X160376153Y-90074078D01*
X160336391Y-90081987D01*
X160140259Y-90121000D01*
X159899741Y-90121000D01*
X159703609Y-90081987D01*
X159663847Y-90074078D01*
X159571806Y-90035953D01*
X159441641Y-89982037D01*
X159241658Y-89848413D01*
X159071587Y-89678342D01*
X158937963Y-89478359D01*
X158845922Y-89256152D01*
X158799000Y-89020259D01*
X158799000Y-88779741D01*
X158845922Y-88543848D01*
X158937963Y-88321641D01*
X159071587Y-88121658D01*
X159241658Y-87951587D01*
X159441641Y-87817963D01*
X159571806Y-87764047D01*
X159663847Y-87725922D01*
X159804161Y-87698012D01*
X159899741Y-87679000D01*
X160140259Y-87679000D01*
X160235839Y-87698012D01*
X160235839Y-87698012D01*
G37*
G36*
X197600568Y-86706466D02*
G01*
X197812410Y-86748604D01*
X198094674Y-86865521D01*
X198348705Y-87035259D01*
X198564741Y-87251295D01*
X198734479Y-87505326D01*
X198851396Y-87787590D01*
X198911000Y-88087240D01*
X198911000Y-88392760D01*
X198851396Y-88692410D01*
X198734479Y-88974674D01*
X198564741Y-89228705D01*
X198348705Y-89444741D01*
X198094674Y-89614479D01*
X197812410Y-89731396D01*
X197662585Y-89761198D01*
X197512761Y-89791000D01*
X197207239Y-89791000D01*
X197057415Y-89761198D01*
X196907590Y-89731396D01*
X196625326Y-89614479D01*
X196371295Y-89444741D01*
X196155259Y-89228705D01*
X195985521Y-88974674D01*
X195868604Y-88692410D01*
X195809000Y-88392760D01*
X195809000Y-88087240D01*
X195868604Y-87787590D01*
X195985521Y-87505326D01*
X196155259Y-87251295D01*
X196371295Y-87035259D01*
X196625326Y-86865521D01*
X196907590Y-86748604D01*
X197119432Y-86706466D01*
X197207239Y-86689000D01*
X197512761Y-86689000D01*
X197600568Y-86706466D01*
X197600568Y-86706466D01*
G37*
G36*
X193378571Y-86592863D02*
G01*
X193457023Y-86600590D01*
X193557682Y-86631125D01*
X193608013Y-86646392D01*
X193747165Y-86720771D01*
X193869133Y-86820867D01*
X193969229Y-86942835D01*
X194043608Y-87081987D01*
X194043608Y-87081988D01*
X194089410Y-87232977D01*
X194104875Y-87390000D01*
X194089410Y-87547023D01*
X194084035Y-87564741D01*
X194043608Y-87698013D01*
X193969229Y-87837165D01*
X193869133Y-87959133D01*
X193747165Y-88059229D01*
X193608013Y-88133608D01*
X193557682Y-88148875D01*
X193457023Y-88179410D01*
X193378571Y-88187137D01*
X193339346Y-88191000D01*
X192740654Y-88191000D01*
X192701429Y-88187137D01*
X192622977Y-88179410D01*
X192522318Y-88148875D01*
X192471987Y-88133608D01*
X192332835Y-88059229D01*
X192210867Y-87959133D01*
X192110771Y-87837165D01*
X192036392Y-87698013D01*
X191995965Y-87564741D01*
X191990590Y-87547023D01*
X191975125Y-87390000D01*
X191990590Y-87232977D01*
X192036392Y-87081988D01*
X192036392Y-87081987D01*
X192110771Y-86942835D01*
X192210867Y-86820867D01*
X192332835Y-86720771D01*
X192471987Y-86646392D01*
X192522318Y-86631125D01*
X192622977Y-86600590D01*
X192701429Y-86592863D01*
X192740654Y-86589000D01*
X193339346Y-86589000D01*
X193378571Y-86592863D01*
X193378571Y-86592863D01*
G37*
G36*
X175554355Y-84837165D02*
G01*
X175712410Y-84868604D01*
X175994674Y-84985521D01*
X176248705Y-85155259D01*
X176464741Y-85371295D01*
X176634479Y-85625326D01*
X176751396Y-85907590D01*
X176778499Y-86043847D01*
X176811000Y-86207239D01*
X176811000Y-86512761D01*
X176806253Y-86536625D01*
X176751396Y-86812410D01*
X176634479Y-87094674D01*
X176464741Y-87348705D01*
X176248705Y-87564741D01*
X175994674Y-87734479D01*
X175712410Y-87851396D01*
X175562585Y-87881198D01*
X175412761Y-87911000D01*
X175107239Y-87911000D01*
X174957415Y-87881198D01*
X174807590Y-87851396D01*
X174525326Y-87734479D01*
X174271295Y-87564741D01*
X174055259Y-87348705D01*
X173885521Y-87094674D01*
X173768604Y-86812410D01*
X173713747Y-86536625D01*
X173709000Y-86512761D01*
X173709000Y-86207239D01*
X173741501Y-86043847D01*
X173768604Y-85907590D01*
X173885521Y-85625326D01*
X174055259Y-85371295D01*
X174271295Y-85155259D01*
X174525326Y-84985521D01*
X174807590Y-84868604D01*
X174965645Y-84837165D01*
X175107239Y-84809000D01*
X175412761Y-84809000D01*
X175554355Y-84837165D01*
X175554355Y-84837165D01*
G37*
G36*
X170200587Y-85191000D02*
G01*
X170376153Y-85225922D01*
X170468194Y-85264047D01*
X170598359Y-85317963D01*
X170798342Y-85451587D01*
X170968413Y-85621658D01*
X171102037Y-85821641D01*
X171194078Y-86043848D01*
X171241000Y-86279741D01*
X171241000Y-86520259D01*
X171225021Y-86600590D01*
X171195580Y-86748604D01*
X171194078Y-86756152D01*
X171102037Y-86978359D01*
X170968413Y-87178342D01*
X170798342Y-87348413D01*
X170598359Y-87482037D01*
X170542129Y-87505328D01*
X170376153Y-87574078D01*
X170258205Y-87597539D01*
X170140259Y-87621000D01*
X169899741Y-87621000D01*
X169781795Y-87597539D01*
X169663847Y-87574078D01*
X169497871Y-87505328D01*
X169441641Y-87482037D01*
X169241658Y-87348413D01*
X169071587Y-87178342D01*
X168937963Y-86978359D01*
X168845922Y-86756152D01*
X168844421Y-86748604D01*
X168814979Y-86600590D01*
X168799000Y-86520259D01*
X168799000Y-86279741D01*
X168845922Y-86043848D01*
X168937963Y-85821641D01*
X169071587Y-85621658D01*
X169241658Y-85451587D01*
X169441641Y-85317963D01*
X169571806Y-85264047D01*
X169663847Y-85225922D01*
X169839413Y-85191000D01*
X169899741Y-85179000D01*
X170140259Y-85179000D01*
X170200587Y-85191000D01*
X170200587Y-85191000D01*
G37*
G36*
X179971000Y-87261000D02*
G01*
X178169000Y-87261000D01*
X178169000Y-85459000D01*
X179971000Y-85459000D01*
X179971000Y-87261000D01*
X179971000Y-87261000D01*
G37*
G36*
X181720442Y-85465518D02*
G01*
X181786627Y-85472037D01*
X181956466Y-85523557D01*
X182112991Y-85607222D01*
X182135053Y-85625328D01*
X182250186Y-85719814D01*
X182333448Y-85821271D01*
X182362778Y-85857009D01*
X182446443Y-86013534D01*
X182497963Y-86183373D01*
X182515359Y-86360000D01*
X182497963Y-86536627D01*
X182446443Y-86706466D01*
X182362778Y-86862991D01*
X182333448Y-86898729D01*
X182250186Y-87000186D01*
X182150510Y-87081987D01*
X182112991Y-87112778D01*
X181956466Y-87196443D01*
X181786627Y-87247963D01*
X181720442Y-87254482D01*
X181654260Y-87261000D01*
X181565740Y-87261000D01*
X181499558Y-87254482D01*
X181433373Y-87247963D01*
X181263534Y-87196443D01*
X181107009Y-87112778D01*
X181069490Y-87081987D01*
X180969814Y-87000186D01*
X180886552Y-86898729D01*
X180857222Y-86862991D01*
X180773557Y-86706466D01*
X180722037Y-86536627D01*
X180704641Y-86360000D01*
X180722037Y-86183373D01*
X180773557Y-86013534D01*
X180857222Y-85857009D01*
X180886552Y-85821271D01*
X180969814Y-85719814D01*
X181084947Y-85625328D01*
X181107009Y-85607222D01*
X181263534Y-85523557D01*
X181433373Y-85472037D01*
X181499558Y-85465518D01*
X181565740Y-85459000D01*
X181654260Y-85459000D01*
X181720442Y-85465518D01*
X181720442Y-85465518D01*
G37*
G36*
X193378571Y-83592863D02*
G01*
X193457023Y-83600590D01*
X193557682Y-83631125D01*
X193608013Y-83646392D01*
X193747165Y-83720771D01*
X193869133Y-83820867D01*
X193969229Y-83942835D01*
X194043608Y-84081987D01*
X194043608Y-84081988D01*
X194089410Y-84232977D01*
X194104875Y-84390000D01*
X194089410Y-84547023D01*
X194058875Y-84647682D01*
X194043608Y-84698013D01*
X193969229Y-84837165D01*
X193869133Y-84959133D01*
X193747165Y-85059229D01*
X193608013Y-85133608D01*
X193557682Y-85148875D01*
X193457023Y-85179410D01*
X193378571Y-85187137D01*
X193339346Y-85191000D01*
X192740654Y-85191000D01*
X192701429Y-85187137D01*
X192622977Y-85179410D01*
X192522318Y-85148875D01*
X192471987Y-85133608D01*
X192332835Y-85059229D01*
X192210867Y-84959133D01*
X192110771Y-84837165D01*
X192036392Y-84698013D01*
X192021125Y-84647682D01*
X191990590Y-84547023D01*
X191975125Y-84390000D01*
X191990590Y-84232977D01*
X192036392Y-84081988D01*
X192036392Y-84081987D01*
X192110771Y-83942835D01*
X192210867Y-83820867D01*
X192332835Y-83720771D01*
X192471987Y-83646392D01*
X192522318Y-83631125D01*
X192622977Y-83600590D01*
X192701429Y-83592863D01*
X192740654Y-83589000D01*
X193339346Y-83589000D01*
X193378571Y-83592863D01*
X193378571Y-83592863D01*
G37*
G36*
X160376153Y-82725922D02*
G01*
X160468194Y-82764047D01*
X160598359Y-82817963D01*
X160798342Y-82951587D01*
X160968413Y-83121658D01*
X161102037Y-83321641D01*
X161194078Y-83543848D01*
X161241000Y-83779741D01*
X161241000Y-84020259D01*
X161228721Y-84081988D01*
X161198688Y-84232979D01*
X161194078Y-84256152D01*
X161102037Y-84478359D01*
X160968413Y-84678342D01*
X160798342Y-84848413D01*
X160598359Y-84982037D01*
X160468194Y-85035953D01*
X160376153Y-85074078D01*
X160140259Y-85121000D01*
X159899741Y-85121000D01*
X159663847Y-85074078D01*
X159571806Y-85035953D01*
X159441641Y-84982037D01*
X159241658Y-84848413D01*
X159071587Y-84678342D01*
X158937963Y-84478359D01*
X158845922Y-84256152D01*
X158841313Y-84232979D01*
X158811279Y-84081988D01*
X158799000Y-84020259D01*
X158799000Y-83779741D01*
X158845922Y-83543848D01*
X158937963Y-83321641D01*
X159071587Y-83121658D01*
X159241658Y-82951587D01*
X159441641Y-82817963D01*
X159571806Y-82764047D01*
X159663847Y-82725922D01*
X159899741Y-82679000D01*
X160140259Y-82679000D01*
X160376153Y-82725922D01*
X160376153Y-82725922D01*
G37*
G36*
X146406153Y-80105922D02*
G01*
X146498194Y-80144047D01*
X146628359Y-80197963D01*
X146828342Y-80331587D01*
X146998413Y-80501658D01*
X147132037Y-80701641D01*
X147181422Y-80820867D01*
X147224078Y-80923847D01*
X147271000Y-81159742D01*
X147271000Y-81400258D01*
X147224078Y-81636153D01*
X147185953Y-81728194D01*
X147132037Y-81858359D01*
X146998413Y-82058342D01*
X146828342Y-82228413D01*
X146628359Y-82362037D01*
X146498194Y-82415953D01*
X146406153Y-82454078D01*
X146288205Y-82477539D01*
X146170259Y-82501000D01*
X145929741Y-82501000D01*
X145811795Y-82477539D01*
X145693847Y-82454078D01*
X145601806Y-82415953D01*
X145471641Y-82362037D01*
X145271658Y-82228413D01*
X145101587Y-82058342D01*
X144967963Y-81858359D01*
X144914047Y-81728194D01*
X144875922Y-81636153D01*
X144829000Y-81400258D01*
X144829000Y-81159742D01*
X144875922Y-80923847D01*
X144918578Y-80820867D01*
X144967963Y-80701641D01*
X145101587Y-80501658D01*
X145271658Y-80331587D01*
X145471641Y-80197963D01*
X145601806Y-80144047D01*
X145693847Y-80105922D01*
X145811795Y-80082461D01*
X145929741Y-80059000D01*
X146170259Y-80059000D01*
X146406153Y-80105922D01*
X146406153Y-80105922D01*
G37*
G36*
X193378571Y-80592863D02*
G01*
X193457023Y-80600590D01*
X193557682Y-80631125D01*
X193608013Y-80646392D01*
X193747165Y-80720771D01*
X193869133Y-80820867D01*
X193969229Y-80942835D01*
X194043608Y-81081987D01*
X194043608Y-81081988D01*
X194089410Y-81232977D01*
X194104875Y-81390000D01*
X194089410Y-81547023D01*
X194062373Y-81636152D01*
X194043608Y-81698013D01*
X193969229Y-81837165D01*
X193869133Y-81959133D01*
X193747165Y-82059229D01*
X193608013Y-82133608D01*
X193557682Y-82148875D01*
X193457023Y-82179410D01*
X193378571Y-82187137D01*
X193339346Y-82191000D01*
X192740654Y-82191000D01*
X192701429Y-82187137D01*
X192622977Y-82179410D01*
X192522318Y-82148875D01*
X192471987Y-82133608D01*
X192332835Y-82059229D01*
X192210867Y-81959133D01*
X192110771Y-81837165D01*
X192036392Y-81698013D01*
X192017627Y-81636152D01*
X191990590Y-81547023D01*
X191975125Y-81390000D01*
X191990590Y-81232977D01*
X192036392Y-81081988D01*
X192036392Y-81081987D01*
X192110771Y-80942835D01*
X192210867Y-80820867D01*
X192332835Y-80720771D01*
X192471987Y-80646392D01*
X192522318Y-80631125D01*
X192622977Y-80600590D01*
X192701429Y-80592863D01*
X192740654Y-80589000D01*
X193339346Y-80589000D01*
X193378571Y-80592863D01*
X193378571Y-80592863D01*
G37*
G36*
X175562585Y-77218802D02*
G01*
X175712410Y-77248604D01*
X175994674Y-77365521D01*
X176248705Y-77535259D01*
X176464741Y-77751295D01*
X176634479Y-78005326D01*
X176751396Y-78287590D01*
X176778499Y-78423847D01*
X176811000Y-78587239D01*
X176811000Y-78892761D01*
X176806253Y-78916625D01*
X176751396Y-79192410D01*
X176634479Y-79474674D01*
X176464741Y-79728705D01*
X176248705Y-79944741D01*
X175994674Y-80114479D01*
X175712410Y-80231396D01*
X175562585Y-80261198D01*
X175412761Y-80291000D01*
X175107239Y-80291000D01*
X174957415Y-80261198D01*
X174807590Y-80231396D01*
X174525326Y-80114479D01*
X174271295Y-79944741D01*
X174055259Y-79728705D01*
X173885521Y-79474674D01*
X173768604Y-79192410D01*
X173713747Y-78916625D01*
X173709000Y-78892761D01*
X173709000Y-78587239D01*
X173741501Y-78423847D01*
X173768604Y-78287590D01*
X173885521Y-78005326D01*
X174055259Y-77751295D01*
X174271295Y-77535259D01*
X174525326Y-77365521D01*
X174807590Y-77248604D01*
X174957415Y-77218802D01*
X175107239Y-77189000D01*
X175412761Y-77189000D01*
X175562585Y-77218802D01*
X175562585Y-77218802D01*
G37*
G36*
X156406153Y-77605922D02*
G01*
X156498194Y-77644047D01*
X156628359Y-77697963D01*
X156828342Y-77831587D01*
X156998413Y-78001658D01*
X157132037Y-78201641D01*
X157224078Y-78423848D01*
X157271000Y-78659741D01*
X157271000Y-78900259D01*
X157224078Y-79136152D01*
X157132037Y-79358359D01*
X156998413Y-79558342D01*
X156828342Y-79728413D01*
X156628359Y-79862037D01*
X156498194Y-79915953D01*
X156406153Y-79954078D01*
X156170259Y-80001000D01*
X155929741Y-80001000D01*
X155693847Y-79954078D01*
X155601806Y-79915953D01*
X155471641Y-79862037D01*
X155271658Y-79728413D01*
X155101587Y-79558342D01*
X154967963Y-79358359D01*
X154875922Y-79136152D01*
X154829000Y-78900259D01*
X154829000Y-78659741D01*
X154875922Y-78423848D01*
X154967963Y-78201641D01*
X155101587Y-78001658D01*
X155271658Y-77831587D01*
X155471641Y-77697963D01*
X155601806Y-77644047D01*
X155693847Y-77605922D01*
X155929741Y-77559000D01*
X156170259Y-77559000D01*
X156406153Y-77605922D01*
X156406153Y-77605922D01*
G37*
G36*
X179971000Y-79641000D02*
G01*
X178169000Y-79641000D01*
X178169000Y-77839000D01*
X179971000Y-77839000D01*
X179971000Y-79641000D01*
X179971000Y-79641000D01*
G37*
G36*
X181720443Y-77845519D02*
G01*
X181786627Y-77852037D01*
X181956466Y-77903557D01*
X182112991Y-77987222D01*
X182135053Y-78005328D01*
X182250186Y-78099814D01*
X182333448Y-78201271D01*
X182362778Y-78237009D01*
X182446443Y-78393534D01*
X182497963Y-78563373D01*
X182515359Y-78740000D01*
X182497963Y-78916627D01*
X182446443Y-79086466D01*
X182362778Y-79242991D01*
X182333448Y-79278729D01*
X182250186Y-79380186D01*
X182148729Y-79463448D01*
X182112991Y-79492778D01*
X181956466Y-79576443D01*
X181786627Y-79627963D01*
X181720442Y-79634482D01*
X181654260Y-79641000D01*
X181565740Y-79641000D01*
X181499558Y-79634482D01*
X181433373Y-79627963D01*
X181263534Y-79576443D01*
X181107009Y-79492778D01*
X181071271Y-79463448D01*
X180969814Y-79380186D01*
X180886552Y-79278729D01*
X180857222Y-79242991D01*
X180773557Y-79086466D01*
X180722037Y-78916627D01*
X180704641Y-78740000D01*
X180722037Y-78563373D01*
X180773557Y-78393534D01*
X180857222Y-78237009D01*
X180886552Y-78201271D01*
X180969814Y-78099814D01*
X181084947Y-78005328D01*
X181107009Y-77987222D01*
X181263534Y-77903557D01*
X181433373Y-77852037D01*
X181499557Y-77845519D01*
X181565740Y-77839000D01*
X181654260Y-77839000D01*
X181720443Y-77845519D01*
X181720443Y-77845519D01*
G37*
G36*
X193378571Y-77592863D02*
G01*
X193457023Y-77600590D01*
X193557682Y-77631125D01*
X193608013Y-77646392D01*
X193747165Y-77720771D01*
X193869133Y-77820867D01*
X193969229Y-77942835D01*
X194043608Y-78081987D01*
X194049016Y-78099815D01*
X194089410Y-78232977D01*
X194104875Y-78390000D01*
X194089410Y-78547023D01*
X194077210Y-78587240D01*
X194043608Y-78698013D01*
X193969229Y-78837165D01*
X193869133Y-78959133D01*
X193747165Y-79059229D01*
X193608013Y-79133608D01*
X193557682Y-79148875D01*
X193457023Y-79179410D01*
X193378571Y-79187137D01*
X193339346Y-79191000D01*
X192740654Y-79191000D01*
X192701429Y-79187137D01*
X192622977Y-79179410D01*
X192522318Y-79148875D01*
X192471987Y-79133608D01*
X192332835Y-79059229D01*
X192210867Y-78959133D01*
X192110771Y-78837165D01*
X192036392Y-78698013D01*
X192002790Y-78587240D01*
X191990590Y-78547023D01*
X191975125Y-78390000D01*
X191990590Y-78232977D01*
X192030984Y-78099815D01*
X192036392Y-78081987D01*
X192110771Y-77942835D01*
X192210867Y-77820867D01*
X192332835Y-77720771D01*
X192471987Y-77646392D01*
X192522318Y-77631125D01*
X192622977Y-77600590D01*
X192701429Y-77592863D01*
X192740654Y-77589000D01*
X193339346Y-77589000D01*
X193378571Y-77592863D01*
X193378571Y-77592863D01*
G37*
G36*
X146285823Y-75081987D02*
G01*
X146406153Y-75105922D01*
X146498194Y-75144047D01*
X146628359Y-75197963D01*
X146828342Y-75331587D01*
X146998413Y-75501658D01*
X147132037Y-75701641D01*
X147185953Y-75831806D01*
X147220198Y-75914479D01*
X147224078Y-75923848D01*
X147271000Y-76159741D01*
X147271000Y-76400259D01*
X147224078Y-76636152D01*
X147132037Y-76858359D01*
X146998413Y-77058342D01*
X146828342Y-77228413D01*
X146628359Y-77362037D01*
X146498194Y-77415953D01*
X146406153Y-77454078D01*
X146288205Y-77477539D01*
X146170259Y-77501000D01*
X145929741Y-77501000D01*
X145811795Y-77477539D01*
X145693847Y-77454078D01*
X145601806Y-77415953D01*
X145471641Y-77362037D01*
X145271658Y-77228413D01*
X145101587Y-77058342D01*
X144967963Y-76858359D01*
X144875922Y-76636152D01*
X144829000Y-76400259D01*
X144829000Y-76159741D01*
X144875922Y-75923848D01*
X144879803Y-75914479D01*
X144914047Y-75831806D01*
X144967963Y-75701641D01*
X145101587Y-75501658D01*
X145271658Y-75331587D01*
X145471641Y-75197963D01*
X145601806Y-75144047D01*
X145693847Y-75105922D01*
X145814177Y-75081987D01*
X145929741Y-75059000D01*
X146170259Y-75059000D01*
X146285823Y-75081987D01*
X146285823Y-75081987D01*
G37*
G36*
X193378571Y-74592863D02*
G01*
X193457023Y-74600590D01*
X193557682Y-74631125D01*
X193608013Y-74646392D01*
X193747165Y-74720771D01*
X193869133Y-74820867D01*
X193969229Y-74942835D01*
X194043608Y-75081987D01*
X194043608Y-75081988D01*
X194089410Y-75232977D01*
X194104875Y-75390000D01*
X194089410Y-75547023D01*
X194058875Y-75647682D01*
X194043608Y-75698013D01*
X193969229Y-75837165D01*
X193869133Y-75959133D01*
X193747165Y-76059229D01*
X193608013Y-76133608D01*
X193557682Y-76148875D01*
X193457023Y-76179410D01*
X193378571Y-76187137D01*
X193339346Y-76191000D01*
X192740654Y-76191000D01*
X192701429Y-76187137D01*
X192622977Y-76179410D01*
X192522318Y-76148875D01*
X192471987Y-76133608D01*
X192332835Y-76059229D01*
X192210867Y-75959133D01*
X192110771Y-75837165D01*
X192036392Y-75698013D01*
X192021125Y-75647682D01*
X191990590Y-75547023D01*
X191975125Y-75390000D01*
X191990590Y-75232977D01*
X192036392Y-75081988D01*
X192036392Y-75081987D01*
X192110771Y-74942835D01*
X192210867Y-74820867D01*
X192332835Y-74720771D01*
X192471987Y-74646392D01*
X192522318Y-74631125D01*
X192622977Y-74600590D01*
X192701429Y-74592863D01*
X192740654Y-74589000D01*
X193339346Y-74589000D01*
X193378571Y-74592863D01*
X193378571Y-74592863D01*
G37*
G36*
X160258205Y-73732461D02*
G01*
X160376153Y-73755922D01*
X160468194Y-73794047D01*
X160598359Y-73847963D01*
X160798342Y-73981587D01*
X160968413Y-74151658D01*
X161102037Y-74351641D01*
X161194078Y-74573848D01*
X161241000Y-74809741D01*
X161241000Y-75050259D01*
X161194078Y-75286152D01*
X161102037Y-75508359D01*
X160968413Y-75708342D01*
X160798342Y-75878413D01*
X160598359Y-76012037D01*
X160484427Y-76059229D01*
X160376153Y-76104078D01*
X160140259Y-76151000D01*
X159899741Y-76151000D01*
X159663847Y-76104078D01*
X159555573Y-76059229D01*
X159441641Y-76012037D01*
X159241658Y-75878413D01*
X159071587Y-75708342D01*
X158937963Y-75508359D01*
X158845922Y-75286152D01*
X158799000Y-75050259D01*
X158799000Y-74809741D01*
X158845922Y-74573848D01*
X158937963Y-74351641D01*
X159071587Y-74151658D01*
X159241658Y-73981587D01*
X159441641Y-73847963D01*
X159571806Y-73794047D01*
X159663847Y-73755922D01*
X159781795Y-73732461D01*
X159899741Y-73709000D01*
X160140259Y-73709000D01*
X160258205Y-73732461D01*
X160258205Y-73732461D01*
G37*
G36*
X197662585Y-73018802D02*
G01*
X197812410Y-73048604D01*
X198094674Y-73165521D01*
X198348705Y-73335259D01*
X198564741Y-73551295D01*
X198734479Y-73805326D01*
X198851396Y-74087590D01*
X198911000Y-74387240D01*
X198911000Y-74692760D01*
X198851396Y-74992410D01*
X198734479Y-75274674D01*
X198564741Y-75528705D01*
X198348705Y-75744741D01*
X198094674Y-75914479D01*
X197812410Y-76031396D01*
X197672484Y-76059229D01*
X197512761Y-76091000D01*
X197207239Y-76091000D01*
X197047516Y-76059229D01*
X196907590Y-76031396D01*
X196625326Y-75914479D01*
X196371295Y-75744741D01*
X196155259Y-75528705D01*
X195985521Y-75274674D01*
X195868604Y-74992410D01*
X195809000Y-74692760D01*
X195809000Y-74387240D01*
X195868604Y-74087590D01*
X195985521Y-73805326D01*
X196155259Y-73551295D01*
X196371295Y-73335259D01*
X196625326Y-73165521D01*
X196907590Y-73048604D01*
X197057415Y-73018802D01*
X197207239Y-72989000D01*
X197512761Y-72989000D01*
X197662585Y-73018802D01*
X197662585Y-73018802D01*
G37*
G36*
X175613385Y-70868802D02*
G01*
X175763210Y-70898604D01*
X176045474Y-71015521D01*
X176299505Y-71185259D01*
X176515541Y-71401295D01*
X176685279Y-71655326D01*
X176802196Y-71937590D01*
X176829299Y-72073847D01*
X176861800Y-72237239D01*
X176861800Y-72542761D01*
X176857053Y-72566625D01*
X176802196Y-72842410D01*
X176685279Y-73124674D01*
X176515541Y-73378705D01*
X176299505Y-73594741D01*
X176045474Y-73764479D01*
X175763210Y-73881396D01*
X175613385Y-73911198D01*
X175463561Y-73941000D01*
X175158039Y-73941000D01*
X175008215Y-73911198D01*
X174858390Y-73881396D01*
X174576126Y-73764479D01*
X174322095Y-73594741D01*
X174106059Y-73378705D01*
X173936321Y-73124674D01*
X173819404Y-72842410D01*
X173764547Y-72566625D01*
X173759800Y-72542761D01*
X173759800Y-72237239D01*
X173792301Y-72073847D01*
X173819404Y-71937590D01*
X173936321Y-71655326D01*
X174106059Y-71401295D01*
X174322095Y-71185259D01*
X174576126Y-71015521D01*
X174858390Y-70898604D01*
X175008215Y-70868802D01*
X175158039Y-70839000D01*
X175463561Y-70839000D01*
X175613385Y-70868802D01*
X175613385Y-70868802D01*
G37*
G36*
X170376153Y-71255922D02*
G01*
X170468194Y-71294047D01*
X170598359Y-71347963D01*
X170798342Y-71481587D01*
X170968413Y-71651658D01*
X171102037Y-71851641D01*
X171194078Y-72073848D01*
X171241000Y-72309741D01*
X171241000Y-72550259D01*
X171194078Y-72786152D01*
X171102037Y-73008359D01*
X170968413Y-73208342D01*
X170798342Y-73378413D01*
X170598359Y-73512037D01*
X170503579Y-73551296D01*
X170376153Y-73604078D01*
X170258205Y-73627539D01*
X170140259Y-73651000D01*
X169899741Y-73651000D01*
X169781795Y-73627539D01*
X169663847Y-73604078D01*
X169536421Y-73551296D01*
X169441641Y-73512037D01*
X169241658Y-73378413D01*
X169071587Y-73208342D01*
X168937963Y-73008359D01*
X168845922Y-72786152D01*
X168799000Y-72550259D01*
X168799000Y-72309741D01*
X168845922Y-72073848D01*
X168937963Y-71851641D01*
X169071587Y-71651658D01*
X169241658Y-71481587D01*
X169441641Y-71347963D01*
X169571806Y-71294047D01*
X169663847Y-71255922D01*
X169899741Y-71209000D01*
X170140259Y-71209000D01*
X170376153Y-71255922D01*
X170376153Y-71255922D01*
G37*
G36*
X180021800Y-73291000D02*
G01*
X178219800Y-73291000D01*
X178219800Y-71489000D01*
X180021800Y-71489000D01*
X180021800Y-73291000D01*
X180021800Y-73291000D01*
G37*
G36*
X181771243Y-71495519D02*
G01*
X181837427Y-71502037D01*
X182007266Y-71553557D01*
X182163791Y-71637222D01*
X182185853Y-71655328D01*
X182300986Y-71749814D01*
X182384248Y-71851271D01*
X182413578Y-71887009D01*
X182497243Y-72043534D01*
X182548763Y-72213373D01*
X182566159Y-72390000D01*
X182548763Y-72566627D01*
X182497243Y-72736466D01*
X182413578Y-72892991D01*
X182388129Y-72924000D01*
X182300986Y-73030186D01*
X182200321Y-73112798D01*
X182163791Y-73142778D01*
X182007266Y-73226443D01*
X181837427Y-73277963D01*
X181771243Y-73284481D01*
X181705060Y-73291000D01*
X181616540Y-73291000D01*
X181550357Y-73284481D01*
X181484173Y-73277963D01*
X181314334Y-73226443D01*
X181157809Y-73142778D01*
X181121279Y-73112798D01*
X181020614Y-73030186D01*
X180933471Y-72924000D01*
X180908022Y-72892991D01*
X180824357Y-72736466D01*
X180772837Y-72566627D01*
X180755441Y-72390000D01*
X180772837Y-72213373D01*
X180824357Y-72043534D01*
X180908022Y-71887009D01*
X180937352Y-71851271D01*
X181020614Y-71749814D01*
X181135747Y-71655328D01*
X181157809Y-71637222D01*
X181314334Y-71553557D01*
X181484173Y-71502037D01*
X181550357Y-71495519D01*
X181616540Y-71489000D01*
X181705060Y-71489000D01*
X181771243Y-71495519D01*
X181771243Y-71495519D01*
G37*
G36*
X193953048Y-71593122D02*
G01*
X193987387Y-71603539D01*
X194019036Y-71620456D01*
X194046778Y-71643222D01*
X194069544Y-71670964D01*
X194086461Y-71702613D01*
X194096878Y-71736952D01*
X194101000Y-71778807D01*
X194101000Y-73001193D01*
X194096878Y-73043048D01*
X194086461Y-73077387D01*
X194069544Y-73109036D01*
X194046778Y-73136778D01*
X194019036Y-73159544D01*
X193987387Y-73176461D01*
X193953048Y-73186878D01*
X193911193Y-73191000D01*
X192168807Y-73191000D01*
X192126952Y-73186878D01*
X192092613Y-73176461D01*
X192060964Y-73159544D01*
X192033222Y-73136778D01*
X192010456Y-73109036D01*
X191993539Y-73077387D01*
X191983122Y-73043048D01*
X191979000Y-73001193D01*
X191979000Y-71778807D01*
X191983122Y-71736952D01*
X191993539Y-71702613D01*
X192010456Y-71670964D01*
X192033222Y-71643222D01*
X192060964Y-71620456D01*
X192092613Y-71603539D01*
X192126952Y-71593122D01*
X192168807Y-71589000D01*
X193911193Y-71589000D01*
X193953048Y-71593122D01*
X193953048Y-71593122D01*
G37*
G36*
X136901000Y-71401000D02*
G01*
X135099000Y-71401000D01*
X135099000Y-69599000D01*
X136901000Y-69599000D01*
X136901000Y-71401000D01*
X136901000Y-71401000D01*
G37*
G36*
X160258205Y-68732461D02*
G01*
X160376153Y-68755922D01*
X160468194Y-68794047D01*
X160598359Y-68847963D01*
X160798342Y-68981587D01*
X160968413Y-69151658D01*
X161102037Y-69351641D01*
X161194078Y-69573848D01*
X161241000Y-69809741D01*
X161241000Y-70050259D01*
X161194078Y-70286152D01*
X161102037Y-70508359D01*
X160968413Y-70708342D01*
X160798342Y-70878413D01*
X160598359Y-71012037D01*
X160468194Y-71065953D01*
X160376153Y-71104078D01*
X160258205Y-71127539D01*
X160140259Y-71151000D01*
X159899741Y-71151000D01*
X159781795Y-71127539D01*
X159663847Y-71104078D01*
X159571806Y-71065953D01*
X159441641Y-71012037D01*
X159241658Y-70878413D01*
X159071587Y-70708342D01*
X158937963Y-70508359D01*
X158845922Y-70286152D01*
X158799000Y-70050259D01*
X158799000Y-69809741D01*
X158845922Y-69573848D01*
X158937963Y-69351641D01*
X159071587Y-69151658D01*
X159241658Y-68981587D01*
X159441641Y-68847963D01*
X159571806Y-68794047D01*
X159663847Y-68755922D01*
X159781795Y-68732461D01*
X159899741Y-68709000D01*
X160140259Y-68709000D01*
X160258205Y-68732461D01*
X160258205Y-68732461D01*
G37*
G36*
X136110442Y-67065518D02*
G01*
X136176627Y-67072037D01*
X136346466Y-67123557D01*
X136502991Y-67207222D01*
X136538729Y-67236552D01*
X136640186Y-67319814D01*
X136723448Y-67421271D01*
X136752778Y-67457009D01*
X136836443Y-67613534D01*
X136887963Y-67783373D01*
X136905359Y-67960000D01*
X136887963Y-68136627D01*
X136836443Y-68306466D01*
X136752778Y-68462991D01*
X136735472Y-68484078D01*
X136640186Y-68600186D01*
X136538729Y-68683448D01*
X136502991Y-68712778D01*
X136346466Y-68796443D01*
X136176627Y-68847963D01*
X136110442Y-68854482D01*
X136044260Y-68861000D01*
X135955740Y-68861000D01*
X135889558Y-68854482D01*
X135823373Y-68847963D01*
X135653534Y-68796443D01*
X135497009Y-68712778D01*
X135461271Y-68683448D01*
X135359814Y-68600186D01*
X135264528Y-68484078D01*
X135247222Y-68462991D01*
X135163557Y-68306466D01*
X135112037Y-68136627D01*
X135094641Y-67960000D01*
X135112037Y-67783373D01*
X135163557Y-67613534D01*
X135247222Y-67457009D01*
X135276552Y-67421271D01*
X135359814Y-67319814D01*
X135461271Y-67236552D01*
X135497009Y-67207222D01*
X135653534Y-67123557D01*
X135823373Y-67072037D01*
X135889558Y-67065518D01*
X135955740Y-67059000D01*
X136044260Y-67059000D01*
X136110442Y-67065518D01*
X136110442Y-67065518D01*
G37*
G36*
X146406153Y-66135922D02*
G01*
X146445207Y-66152099D01*
X146628359Y-66227963D01*
X146828342Y-66361587D01*
X146998413Y-66531658D01*
X147132037Y-66731641D01*
X147224078Y-66953848D01*
X147271000Y-67189741D01*
X147271000Y-67430259D01*
X147224078Y-67666152D01*
X147132037Y-67888359D01*
X146998413Y-68088342D01*
X146828342Y-68258413D01*
X146628359Y-68392037D01*
X146498194Y-68445953D01*
X146406153Y-68484078D01*
X146288205Y-68507539D01*
X146170259Y-68531000D01*
X145929741Y-68531000D01*
X145811795Y-68507539D01*
X145693847Y-68484078D01*
X145601806Y-68445953D01*
X145471641Y-68392037D01*
X145271658Y-68258413D01*
X145101587Y-68088342D01*
X144967963Y-67888359D01*
X144875922Y-67666152D01*
X144829000Y-67430259D01*
X144829000Y-67189741D01*
X144875922Y-66953848D01*
X144967963Y-66731641D01*
X145101587Y-66531658D01*
X145271658Y-66361587D01*
X145471641Y-66227963D01*
X145654793Y-66152099D01*
X145693847Y-66135922D01*
X145929741Y-66089000D01*
X146170259Y-66089000D01*
X146406153Y-66135922D01*
X146406153Y-66135922D01*
G37*
G36*
X175537185Y-63256422D02*
G01*
X175687010Y-63286224D01*
X175969274Y-63403141D01*
X176223305Y-63572879D01*
X176439341Y-63788915D01*
X176609079Y-64042946D01*
X176725996Y-64325210D01*
X176785600Y-64624860D01*
X176785600Y-64930380D01*
X176725996Y-65230030D01*
X176609079Y-65512294D01*
X176439341Y-65766325D01*
X176223305Y-65982361D01*
X175969274Y-66152099D01*
X175687010Y-66269016D01*
X175537185Y-66298818D01*
X175387361Y-66328620D01*
X175081839Y-66328620D01*
X174932015Y-66298818D01*
X174782190Y-66269016D01*
X174499926Y-66152099D01*
X174245895Y-65982361D01*
X174029859Y-65766325D01*
X173860121Y-65512294D01*
X173743204Y-65230030D01*
X173683600Y-64930380D01*
X173683600Y-64624860D01*
X173743204Y-64325210D01*
X173860121Y-64042946D01*
X174029859Y-63788915D01*
X174245895Y-63572879D01*
X174499926Y-63403141D01*
X174782190Y-63286224D01*
X174932015Y-63256422D01*
X175081839Y-63226620D01*
X175387361Y-63226620D01*
X175537185Y-63256422D01*
X175537185Y-63256422D01*
G37*
G36*
X156406153Y-63635922D02*
G01*
X156498194Y-63674047D01*
X156628359Y-63727963D01*
X156828342Y-63861587D01*
X156998413Y-64031658D01*
X157132037Y-64231641D01*
X157149843Y-64274629D01*
X157224078Y-64453847D01*
X157271000Y-64689742D01*
X157271000Y-64930258D01*
X157232446Y-65124086D01*
X157224078Y-65166152D01*
X157132037Y-65388359D01*
X156998413Y-65588342D01*
X156828342Y-65758413D01*
X156628359Y-65892037D01*
X156498194Y-65945953D01*
X156406153Y-65984078D01*
X156288205Y-66007539D01*
X156170259Y-66031000D01*
X155929741Y-66031000D01*
X155811795Y-66007539D01*
X155693847Y-65984078D01*
X155601806Y-65945953D01*
X155471641Y-65892037D01*
X155271658Y-65758413D01*
X155101587Y-65588342D01*
X154967963Y-65388359D01*
X154875922Y-65166152D01*
X154867555Y-65124086D01*
X154829000Y-64930258D01*
X154829000Y-64689742D01*
X154875922Y-64453847D01*
X154950157Y-64274629D01*
X154967963Y-64231641D01*
X155101587Y-64031658D01*
X155271658Y-63861587D01*
X155471641Y-63727963D01*
X155601806Y-63674047D01*
X155693847Y-63635922D01*
X155929741Y-63589000D01*
X156170259Y-63589000D01*
X156406153Y-63635922D01*
X156406153Y-63635922D01*
G37*
G36*
X179945600Y-65678620D02*
G01*
X178143600Y-65678620D01*
X178143600Y-63876620D01*
X179945600Y-63876620D01*
X179945600Y-65678620D01*
X179945600Y-65678620D01*
G37*
G36*
X181695042Y-63883138D02*
G01*
X181761227Y-63889657D01*
X181931066Y-63941177D01*
X181931068Y-63941178D01*
X182009328Y-63983009D01*
X182087591Y-64024842D01*
X182109653Y-64042948D01*
X182224786Y-64137434D01*
X182308048Y-64238891D01*
X182337378Y-64274629D01*
X182421043Y-64431154D01*
X182472563Y-64600993D01*
X182489959Y-64777620D01*
X182472563Y-64954247D01*
X182421043Y-65124086D01*
X182337378Y-65280611D01*
X182308048Y-65316349D01*
X182224786Y-65417806D01*
X182123329Y-65501068D01*
X182087591Y-65530398D01*
X181931066Y-65614063D01*
X181761227Y-65665583D01*
X181695043Y-65672101D01*
X181628860Y-65678620D01*
X181540340Y-65678620D01*
X181474157Y-65672101D01*
X181407973Y-65665583D01*
X181238134Y-65614063D01*
X181081609Y-65530398D01*
X181045871Y-65501068D01*
X180944414Y-65417806D01*
X180861152Y-65316349D01*
X180831822Y-65280611D01*
X180748157Y-65124086D01*
X180696637Y-64954247D01*
X180679241Y-64777620D01*
X180696637Y-64600993D01*
X180748157Y-64431154D01*
X180831822Y-64274629D01*
X180861152Y-64238891D01*
X180944414Y-64137434D01*
X181059547Y-64042948D01*
X181081609Y-64024842D01*
X181159872Y-63983009D01*
X181238132Y-63941178D01*
X181238134Y-63941177D01*
X181407973Y-63889657D01*
X181474158Y-63883138D01*
X181540340Y-63876620D01*
X181628860Y-63876620D01*
X181695042Y-63883138D01*
X181695042Y-63883138D01*
G37*
G36*
X193378571Y-63622863D02*
G01*
X193457023Y-63630590D01*
X193557682Y-63661125D01*
X193608013Y-63676392D01*
X193747165Y-63750771D01*
X193869133Y-63850867D01*
X193969229Y-63972835D01*
X194043608Y-64111987D01*
X194043608Y-64111988D01*
X194089410Y-64262977D01*
X194104875Y-64420000D01*
X194089410Y-64577023D01*
X194058875Y-64677682D01*
X194043608Y-64728013D01*
X193969229Y-64867165D01*
X193869133Y-64989133D01*
X193747165Y-65089229D01*
X193608013Y-65163608D01*
X193557682Y-65178875D01*
X193457023Y-65209410D01*
X193378571Y-65217137D01*
X193339346Y-65221000D01*
X192740654Y-65221000D01*
X192701429Y-65217137D01*
X192622977Y-65209410D01*
X192522318Y-65178875D01*
X192471987Y-65163608D01*
X192332835Y-65089229D01*
X192210867Y-64989133D01*
X192110771Y-64867165D01*
X192036392Y-64728013D01*
X192021125Y-64677682D01*
X191990590Y-64577023D01*
X191975125Y-64420000D01*
X191990590Y-64262977D01*
X192036392Y-64111988D01*
X192036392Y-64111987D01*
X192110771Y-63972835D01*
X192210867Y-63850867D01*
X192332835Y-63750771D01*
X192471987Y-63676392D01*
X192522318Y-63661125D01*
X192622977Y-63630590D01*
X192701429Y-63622863D01*
X192740654Y-63619000D01*
X193339346Y-63619000D01*
X193378571Y-63622863D01*
X193378571Y-63622863D01*
G37*
G36*
X197662585Y-60748802D02*
G01*
X197812410Y-60778604D01*
X198094674Y-60895521D01*
X198348705Y-61065259D01*
X198564741Y-61281295D01*
X198734479Y-61535326D01*
X198851396Y-61817590D01*
X198851396Y-61817591D01*
X198911000Y-62117239D01*
X198911000Y-62422761D01*
X198881198Y-62572585D01*
X198851396Y-62722410D01*
X198734479Y-63004674D01*
X198564741Y-63258705D01*
X198348705Y-63474741D01*
X198094674Y-63644479D01*
X197812410Y-63761396D01*
X197674062Y-63788915D01*
X197512761Y-63821000D01*
X197207239Y-63821000D01*
X197045938Y-63788915D01*
X196907590Y-63761396D01*
X196625326Y-63644479D01*
X196371295Y-63474741D01*
X196155259Y-63258705D01*
X195985521Y-63004674D01*
X195868604Y-62722410D01*
X195838802Y-62572585D01*
X195809000Y-62422761D01*
X195809000Y-62117239D01*
X195868604Y-61817591D01*
X195868604Y-61817590D01*
X195985521Y-61535326D01*
X196155259Y-61281295D01*
X196371295Y-61065259D01*
X196625326Y-60895521D01*
X196907590Y-60778604D01*
X197057415Y-60748802D01*
X197207239Y-60719000D01*
X197512761Y-60719000D01*
X197662585Y-60748802D01*
X197662585Y-60748802D01*
G37*
G36*
X146285823Y-61111987D02*
G01*
X146406153Y-61135922D01*
X146498194Y-61174047D01*
X146628359Y-61227963D01*
X146828342Y-61361587D01*
X146998413Y-61531658D01*
X147132037Y-61731641D01*
X147224078Y-61953848D01*
X147271000Y-62189741D01*
X147271000Y-62430259D01*
X147224078Y-62666152D01*
X147132037Y-62888359D01*
X146998413Y-63088342D01*
X146828342Y-63258413D01*
X146628359Y-63392037D01*
X146498194Y-63445953D01*
X146406153Y-63484078D01*
X146288205Y-63507539D01*
X146170259Y-63531000D01*
X145929741Y-63531000D01*
X145811795Y-63507539D01*
X145693847Y-63484078D01*
X145601806Y-63445953D01*
X145471641Y-63392037D01*
X145271658Y-63258413D01*
X145101587Y-63088342D01*
X144967963Y-62888359D01*
X144875922Y-62666152D01*
X144829000Y-62430259D01*
X144829000Y-62189741D01*
X144875922Y-61953848D01*
X144967963Y-61731641D01*
X145101587Y-61531658D01*
X145271658Y-61361587D01*
X145471641Y-61227963D01*
X145601806Y-61174047D01*
X145693847Y-61135922D01*
X145814177Y-61111987D01*
X145929741Y-61089000D01*
X146170259Y-61089000D01*
X146285823Y-61111987D01*
X146285823Y-61111987D01*
G37*
G36*
X193378571Y-60622863D02*
G01*
X193457023Y-60630590D01*
X193557682Y-60661125D01*
X193608013Y-60676392D01*
X193747165Y-60750771D01*
X193869133Y-60850867D01*
X193969229Y-60972835D01*
X194043608Y-61111987D01*
X194043608Y-61111988D01*
X194089410Y-61262977D01*
X194104875Y-61420000D01*
X194089410Y-61577023D01*
X194058875Y-61677682D01*
X194043608Y-61728013D01*
X193969229Y-61867165D01*
X193869133Y-61989133D01*
X193747165Y-62089229D01*
X193608013Y-62163608D01*
X193557682Y-62178875D01*
X193457023Y-62209410D01*
X193378571Y-62217137D01*
X193339346Y-62221000D01*
X192740654Y-62221000D01*
X192701429Y-62217137D01*
X192622977Y-62209410D01*
X192522318Y-62178875D01*
X192471987Y-62163608D01*
X192332835Y-62089229D01*
X192210867Y-61989133D01*
X192110771Y-61867165D01*
X192036392Y-61728013D01*
X192021125Y-61677682D01*
X191990590Y-61577023D01*
X191975125Y-61420000D01*
X191990590Y-61262977D01*
X192036392Y-61111988D01*
X192036392Y-61111987D01*
X192110771Y-60972835D01*
X192210867Y-60850867D01*
X192332835Y-60750771D01*
X192471987Y-60676392D01*
X192522318Y-60661125D01*
X192622977Y-60630590D01*
X192701429Y-60622863D01*
X192740654Y-60619000D01*
X193339346Y-60619000D01*
X193378571Y-60622863D01*
X193378571Y-60622863D01*
G37*
G36*
X160376153Y-59785922D02*
G01*
X160468194Y-59824047D01*
X160598359Y-59877963D01*
X160798342Y-60011587D01*
X160968413Y-60181658D01*
X161102037Y-60381641D01*
X161155953Y-60511806D01*
X161194078Y-60603847D01*
X161241000Y-60839742D01*
X161241000Y-61080258D01*
X161201012Y-61281295D01*
X161194078Y-61316152D01*
X161102037Y-61538359D01*
X160968413Y-61738342D01*
X160798342Y-61908413D01*
X160598359Y-62042037D01*
X160484427Y-62089229D01*
X160376153Y-62134078D01*
X160140259Y-62181000D01*
X159899741Y-62181000D01*
X159663847Y-62134078D01*
X159555573Y-62089229D01*
X159441641Y-62042037D01*
X159241658Y-61908413D01*
X159071587Y-61738342D01*
X158937963Y-61538359D01*
X158845922Y-61316152D01*
X158838989Y-61281295D01*
X158799000Y-61080258D01*
X158799000Y-60839742D01*
X158845922Y-60603847D01*
X158884047Y-60511806D01*
X158937963Y-60381641D01*
X159071587Y-60181658D01*
X159241658Y-60011587D01*
X159441641Y-59877963D01*
X159571806Y-59824047D01*
X159663847Y-59785922D01*
X159899741Y-59739000D01*
X160140259Y-59739000D01*
X160376153Y-59785922D01*
X160376153Y-59785922D01*
G37*
G36*
X175562585Y-56898802D02*
G01*
X175712410Y-56928604D01*
X175994674Y-57045521D01*
X176248705Y-57215259D01*
X176464741Y-57431295D01*
X176634479Y-57685326D01*
X176751396Y-57967590D01*
X176781198Y-58117415D01*
X176811000Y-58267239D01*
X176811000Y-58572761D01*
X176806253Y-58596625D01*
X176751396Y-58872410D01*
X176634479Y-59154674D01*
X176464741Y-59408705D01*
X176248705Y-59624741D01*
X175994674Y-59794479D01*
X175712410Y-59911396D01*
X175562585Y-59941198D01*
X175412761Y-59971000D01*
X175107239Y-59971000D01*
X174957415Y-59941198D01*
X174807590Y-59911396D01*
X174525326Y-59794479D01*
X174271295Y-59624741D01*
X174055259Y-59408705D01*
X173885521Y-59154674D01*
X173768604Y-58872410D01*
X173713747Y-58596625D01*
X173709000Y-58572761D01*
X173709000Y-58267239D01*
X173738802Y-58117415D01*
X173768604Y-57967590D01*
X173885521Y-57685326D01*
X174055259Y-57431295D01*
X174271295Y-57215259D01*
X174525326Y-57045521D01*
X174807590Y-56928604D01*
X174957415Y-56898802D01*
X175107239Y-56869000D01*
X175412761Y-56869000D01*
X175562585Y-56898802D01*
X175562585Y-56898802D01*
G37*
G36*
X170258205Y-57262461D02*
G01*
X170376153Y-57285922D01*
X170468194Y-57324047D01*
X170598359Y-57377963D01*
X170798342Y-57511587D01*
X170968413Y-57681658D01*
X171102037Y-57881641D01*
X171194078Y-58103848D01*
X171241000Y-58339741D01*
X171241000Y-58580259D01*
X171194078Y-58816152D01*
X171102037Y-59038359D01*
X170968413Y-59238342D01*
X170798342Y-59408413D01*
X170598359Y-59542037D01*
X170468194Y-59595953D01*
X170376153Y-59634078D01*
X170258205Y-59657539D01*
X170140259Y-59681000D01*
X169899741Y-59681000D01*
X169781795Y-59657539D01*
X169663847Y-59634078D01*
X169571806Y-59595953D01*
X169441641Y-59542037D01*
X169241658Y-59408413D01*
X169071587Y-59238342D01*
X168937963Y-59038359D01*
X168845922Y-58816152D01*
X168799000Y-58580259D01*
X168799000Y-58339741D01*
X168845922Y-58103848D01*
X168937963Y-57881641D01*
X169071587Y-57681658D01*
X169241658Y-57511587D01*
X169441641Y-57377963D01*
X169571806Y-57324047D01*
X169663847Y-57285922D01*
X169781795Y-57262461D01*
X169899741Y-57239000D01*
X170140259Y-57239000D01*
X170258205Y-57262461D01*
X170258205Y-57262461D01*
G37*
G36*
X179971000Y-59321000D02*
G01*
X178169000Y-59321000D01*
X178169000Y-57519000D01*
X179971000Y-57519000D01*
X179971000Y-59321000D01*
X179971000Y-59321000D01*
G37*
G36*
X181720443Y-57525519D02*
G01*
X181786627Y-57532037D01*
X181956466Y-57583557D01*
X182112991Y-57667222D01*
X182135053Y-57685328D01*
X182250186Y-57779814D01*
X182333448Y-57881271D01*
X182362778Y-57917009D01*
X182446443Y-58073534D01*
X182497963Y-58243373D01*
X182515359Y-58420000D01*
X182497963Y-58596627D01*
X182446443Y-58766466D01*
X182362778Y-58922991D01*
X182333448Y-58958729D01*
X182250186Y-59060186D01*
X182148729Y-59143448D01*
X182112991Y-59172778D01*
X181956466Y-59256443D01*
X181786627Y-59307963D01*
X181720442Y-59314482D01*
X181654260Y-59321000D01*
X181565740Y-59321000D01*
X181499558Y-59314482D01*
X181433373Y-59307963D01*
X181263534Y-59256443D01*
X181107009Y-59172778D01*
X181071271Y-59143448D01*
X180969814Y-59060186D01*
X180886552Y-58958729D01*
X180857222Y-58922991D01*
X180773557Y-58766466D01*
X180722037Y-58596627D01*
X180704641Y-58420000D01*
X180722037Y-58243373D01*
X180773557Y-58073534D01*
X180857222Y-57917009D01*
X180886552Y-57881271D01*
X180969814Y-57779814D01*
X181084947Y-57685328D01*
X181107009Y-57667222D01*
X181263534Y-57583557D01*
X181433373Y-57532037D01*
X181499557Y-57525519D01*
X181565740Y-57519000D01*
X181654260Y-57519000D01*
X181720443Y-57525519D01*
X181720443Y-57525519D01*
G37*
G36*
X193378571Y-57622863D02*
G01*
X193457023Y-57630590D01*
X193557682Y-57661125D01*
X193608013Y-57676392D01*
X193747165Y-57750771D01*
X193869133Y-57850867D01*
X193969229Y-57972835D01*
X194043608Y-58111987D01*
X194043608Y-58111988D01*
X194089410Y-58262977D01*
X194104875Y-58420000D01*
X194089410Y-58577023D01*
X194083463Y-58596627D01*
X194043608Y-58728013D01*
X193969229Y-58867165D01*
X193869133Y-58989133D01*
X193747165Y-59089229D01*
X193608013Y-59163608D01*
X193557682Y-59178875D01*
X193457023Y-59209410D01*
X193378571Y-59217137D01*
X193339346Y-59221000D01*
X192740654Y-59221000D01*
X192701429Y-59217137D01*
X192622977Y-59209410D01*
X192522318Y-59178875D01*
X192471987Y-59163608D01*
X192332835Y-59089229D01*
X192210867Y-58989133D01*
X192110771Y-58867165D01*
X192036392Y-58728013D01*
X191996537Y-58596627D01*
X191990590Y-58577023D01*
X191975125Y-58420000D01*
X191990590Y-58262977D01*
X192036392Y-58111988D01*
X192036392Y-58111987D01*
X192110771Y-57972835D01*
X192210867Y-57850867D01*
X192332835Y-57750771D01*
X192471987Y-57676392D01*
X192522318Y-57661125D01*
X192622977Y-57630590D01*
X192701429Y-57622863D01*
X192740654Y-57619000D01*
X193339346Y-57619000D01*
X193378571Y-57622863D01*
X193378571Y-57622863D01*
G37*
G36*
X160376153Y-54785922D02*
G01*
X160468194Y-54824047D01*
X160598359Y-54877963D01*
X160798342Y-55011587D01*
X160968413Y-55181658D01*
X161102037Y-55381641D01*
X161194078Y-55603848D01*
X161241000Y-55839741D01*
X161241000Y-56080259D01*
X161194078Y-56316152D01*
X161102037Y-56538359D01*
X160968413Y-56738342D01*
X160798342Y-56908413D01*
X160598359Y-57042037D01*
X160468194Y-57095953D01*
X160376153Y-57134078D01*
X160258205Y-57157539D01*
X160140259Y-57181000D01*
X159899741Y-57181000D01*
X159781795Y-57157539D01*
X159663847Y-57134078D01*
X159571806Y-57095953D01*
X159441641Y-57042037D01*
X159241658Y-56908413D01*
X159071587Y-56738342D01*
X158937963Y-56538359D01*
X158845922Y-56316152D01*
X158799000Y-56080259D01*
X158799000Y-55839741D01*
X158845922Y-55603848D01*
X158937963Y-55381641D01*
X159071587Y-55181658D01*
X159241658Y-55011587D01*
X159441641Y-54877963D01*
X159571806Y-54824047D01*
X159663847Y-54785922D01*
X159899741Y-54739000D01*
X160140259Y-54739000D01*
X160376153Y-54785922D01*
X160376153Y-54785922D01*
G37*
G36*
X193378571Y-54622863D02*
G01*
X193457023Y-54630590D01*
X193557682Y-54661125D01*
X193608013Y-54676392D01*
X193747165Y-54750771D01*
X193869133Y-54850867D01*
X193969229Y-54972835D01*
X194043608Y-55111987D01*
X194043608Y-55111988D01*
X194089410Y-55262977D01*
X194104875Y-55420000D01*
X194089410Y-55577023D01*
X194058875Y-55677682D01*
X194043608Y-55728013D01*
X193969229Y-55867165D01*
X193869133Y-55989133D01*
X193747165Y-56089229D01*
X193608013Y-56163608D01*
X193557682Y-56178875D01*
X193457023Y-56209410D01*
X193378571Y-56217137D01*
X193339346Y-56221000D01*
X192740654Y-56221000D01*
X192701429Y-56217137D01*
X192622977Y-56209410D01*
X192522318Y-56178875D01*
X192471987Y-56163608D01*
X192332835Y-56089229D01*
X192210867Y-55989133D01*
X192110771Y-55867165D01*
X192036392Y-55728013D01*
X192021125Y-55677682D01*
X191990590Y-55577023D01*
X191975125Y-55420000D01*
X191990590Y-55262977D01*
X192036392Y-55111988D01*
X192036392Y-55111987D01*
X192110771Y-54972835D01*
X192210867Y-54850867D01*
X192332835Y-54750771D01*
X192471987Y-54676392D01*
X192522318Y-54661125D01*
X192622977Y-54630590D01*
X192701429Y-54622863D01*
X192740654Y-54619000D01*
X193339346Y-54619000D01*
X193378571Y-54622863D01*
X193378571Y-54622863D01*
G37*
G36*
X146288205Y-52142461D02*
G01*
X146406153Y-52165922D01*
X146498194Y-52204047D01*
X146628359Y-52257963D01*
X146828342Y-52391587D01*
X146998413Y-52561658D01*
X147132037Y-52761641D01*
X147224078Y-52983848D01*
X147271000Y-53219741D01*
X147271000Y-53460259D01*
X147224078Y-53696152D01*
X147132037Y-53918359D01*
X146998413Y-54118342D01*
X146828342Y-54288413D01*
X146628359Y-54422037D01*
X146498194Y-54475953D01*
X146406153Y-54514078D01*
X146288205Y-54537539D01*
X146170259Y-54561000D01*
X145929741Y-54561000D01*
X145811795Y-54537539D01*
X145693847Y-54514078D01*
X145601806Y-54475953D01*
X145471641Y-54422037D01*
X145271658Y-54288413D01*
X145101587Y-54118342D01*
X144967963Y-53918359D01*
X144875922Y-53696152D01*
X144829000Y-53460259D01*
X144829000Y-53219741D01*
X144875922Y-52983848D01*
X144967963Y-52761641D01*
X145101587Y-52561658D01*
X145271658Y-52391587D01*
X145471641Y-52257963D01*
X145601806Y-52204047D01*
X145693847Y-52165922D01*
X145811795Y-52142461D01*
X145929741Y-52119000D01*
X146170259Y-52119000D01*
X146288205Y-52142461D01*
X146288205Y-52142461D01*
G37*
G36*
X193378571Y-51622863D02*
G01*
X193457023Y-51630590D01*
X193557682Y-51661125D01*
X193608013Y-51676392D01*
X193747165Y-51750771D01*
X193869133Y-51850867D01*
X193969229Y-51972835D01*
X194043608Y-52111987D01*
X194043608Y-52111988D01*
X194089410Y-52262977D01*
X194104875Y-52420000D01*
X194089410Y-52577023D01*
X194058875Y-52677682D01*
X194043608Y-52728013D01*
X193969229Y-52867165D01*
X193869133Y-52989133D01*
X193747165Y-53089229D01*
X193608013Y-53163608D01*
X193557682Y-53178875D01*
X193457023Y-53209410D01*
X193378571Y-53217137D01*
X193339346Y-53221000D01*
X192740654Y-53221000D01*
X192701429Y-53217137D01*
X192622977Y-53209410D01*
X192522318Y-53178875D01*
X192471987Y-53163608D01*
X192332835Y-53089229D01*
X192210867Y-52989133D01*
X192110771Y-52867165D01*
X192036392Y-52728013D01*
X192021125Y-52677682D01*
X191990590Y-52577023D01*
X191975125Y-52420000D01*
X191990590Y-52262977D01*
X192036392Y-52111988D01*
X192036392Y-52111987D01*
X192110771Y-51972835D01*
X192210867Y-51850867D01*
X192332835Y-51750771D01*
X192471987Y-51676392D01*
X192522318Y-51661125D01*
X192622977Y-51630590D01*
X192701429Y-51622863D01*
X192740654Y-51619000D01*
X193339346Y-51619000D01*
X193378571Y-51622863D01*
X193378571Y-51622863D01*
G37*
G36*
X175562585Y-49278802D02*
G01*
X175712410Y-49308604D01*
X175994674Y-49425521D01*
X176248705Y-49595259D01*
X176464741Y-49811295D01*
X176634479Y-50065326D01*
X176751396Y-50347590D01*
X176778499Y-50483847D01*
X176811000Y-50647239D01*
X176811000Y-50952761D01*
X176806253Y-50976625D01*
X176751396Y-51252410D01*
X176634479Y-51534674D01*
X176464741Y-51788705D01*
X176248705Y-52004741D01*
X175994674Y-52174479D01*
X175712410Y-52291396D01*
X175562585Y-52321198D01*
X175412761Y-52351000D01*
X175107239Y-52351000D01*
X174957415Y-52321198D01*
X174807590Y-52291396D01*
X174525326Y-52174479D01*
X174271295Y-52004741D01*
X174055259Y-51788705D01*
X173885521Y-51534674D01*
X173768604Y-51252410D01*
X173713747Y-50976625D01*
X173709000Y-50952761D01*
X173709000Y-50647239D01*
X173741501Y-50483847D01*
X173768604Y-50347590D01*
X173885521Y-50065326D01*
X174055259Y-49811295D01*
X174271295Y-49595259D01*
X174525326Y-49425521D01*
X174807590Y-49308604D01*
X174957415Y-49278802D01*
X175107239Y-49249000D01*
X175412761Y-49249000D01*
X175562585Y-49278802D01*
X175562585Y-49278802D01*
G37*
G36*
X156406153Y-49665922D02*
G01*
X156498194Y-49704047D01*
X156628359Y-49757963D01*
X156828342Y-49891587D01*
X156998413Y-50061658D01*
X157132037Y-50261641D01*
X157224078Y-50483848D01*
X157271000Y-50719741D01*
X157271000Y-50960259D01*
X157224078Y-51196152D01*
X157132037Y-51418359D01*
X156998413Y-51618342D01*
X156828342Y-51788413D01*
X156628359Y-51922037D01*
X156498194Y-51975953D01*
X156406153Y-52014078D01*
X156288205Y-52037539D01*
X156170259Y-52061000D01*
X155929741Y-52061000D01*
X155811795Y-52037539D01*
X155693847Y-52014078D01*
X155601806Y-51975953D01*
X155471641Y-51922037D01*
X155271658Y-51788413D01*
X155101587Y-51618342D01*
X154967963Y-51418359D01*
X154875922Y-51196152D01*
X154829000Y-50960259D01*
X154829000Y-50719741D01*
X154875922Y-50483848D01*
X154967963Y-50261641D01*
X155101587Y-50061658D01*
X155271658Y-49891587D01*
X155471641Y-49757963D01*
X155601806Y-49704047D01*
X155693847Y-49665922D01*
X155811795Y-49642461D01*
X155929741Y-49619000D01*
X156170259Y-49619000D01*
X156406153Y-49665922D01*
X156406153Y-49665922D01*
G37*
G36*
X181720442Y-49905518D02*
G01*
X181786627Y-49912037D01*
X181956466Y-49963557D01*
X182112991Y-50047222D01*
X182135053Y-50065328D01*
X182250186Y-50159814D01*
X182300399Y-50221000D01*
X182362778Y-50297009D01*
X182446443Y-50453534D01*
X182497963Y-50623373D01*
X182515359Y-50800000D01*
X182497963Y-50976627D01*
X182446443Y-51146466D01*
X182362778Y-51302991D01*
X182333448Y-51338729D01*
X182250186Y-51440186D01*
X182148729Y-51523448D01*
X182112991Y-51552778D01*
X181956466Y-51636443D01*
X181786627Y-51687963D01*
X181720442Y-51694482D01*
X181654260Y-51701000D01*
X181565740Y-51701000D01*
X181499558Y-51694482D01*
X181433373Y-51687963D01*
X181263534Y-51636443D01*
X181107009Y-51552778D01*
X181071271Y-51523448D01*
X180969814Y-51440186D01*
X180886552Y-51338729D01*
X180857222Y-51302991D01*
X180773557Y-51146466D01*
X180722037Y-50976627D01*
X180704641Y-50800000D01*
X180722037Y-50623373D01*
X180773557Y-50453534D01*
X180857222Y-50297009D01*
X180919601Y-50221000D01*
X180969814Y-50159814D01*
X181084947Y-50065328D01*
X181107009Y-50047222D01*
X181263534Y-49963557D01*
X181433373Y-49912037D01*
X181499557Y-49905519D01*
X181565740Y-49899000D01*
X181654260Y-49899000D01*
X181720442Y-49905518D01*
X181720442Y-49905518D01*
G37*
G36*
X179971000Y-51701000D02*
G01*
X178169000Y-51701000D01*
X178169000Y-49899000D01*
X179971000Y-49899000D01*
X179971000Y-51701000D01*
X179971000Y-51701000D01*
G37*
G36*
X193378571Y-48622863D02*
G01*
X193457023Y-48630590D01*
X193557682Y-48661125D01*
X193608013Y-48676392D01*
X193747165Y-48750771D01*
X193869133Y-48850867D01*
X193969229Y-48972835D01*
X194043608Y-49111987D01*
X194058875Y-49162318D01*
X194089410Y-49262977D01*
X194104875Y-49420000D01*
X194089410Y-49577023D01*
X194076676Y-49619000D01*
X194043608Y-49728013D01*
X193969229Y-49867165D01*
X193869133Y-49989133D01*
X193747165Y-50089229D01*
X193608013Y-50163608D01*
X193557682Y-50178875D01*
X193457023Y-50209410D01*
X193378571Y-50217137D01*
X193339346Y-50221000D01*
X192740654Y-50221000D01*
X192701429Y-50217137D01*
X192622977Y-50209410D01*
X192522318Y-50178875D01*
X192471987Y-50163608D01*
X192332835Y-50089229D01*
X192210867Y-49989133D01*
X192110771Y-49867165D01*
X192036392Y-49728013D01*
X192003324Y-49619000D01*
X191990590Y-49577023D01*
X191975125Y-49420000D01*
X191990590Y-49262977D01*
X192021125Y-49162318D01*
X192036392Y-49111987D01*
X192110771Y-48972835D01*
X192210867Y-48850867D01*
X192332835Y-48750771D01*
X192471987Y-48676392D01*
X192522318Y-48661125D01*
X192622977Y-48630590D01*
X192701429Y-48622863D01*
X192740654Y-48619000D01*
X193339346Y-48619000D01*
X193378571Y-48622863D01*
X193378571Y-48622863D01*
G37*
G36*
X197662585Y-47048802D02*
G01*
X197812410Y-47078604D01*
X198094674Y-47195521D01*
X198348705Y-47365259D01*
X198564741Y-47581295D01*
X198734479Y-47835326D01*
X198851396Y-48117590D01*
X198911000Y-48417240D01*
X198911000Y-48722760D01*
X198851396Y-49022410D01*
X198734479Y-49304674D01*
X198564741Y-49558705D01*
X198348705Y-49774741D01*
X198094674Y-49944479D01*
X197812410Y-50061396D01*
X197792642Y-50065328D01*
X197512761Y-50121000D01*
X197207239Y-50121000D01*
X196927358Y-50065328D01*
X196907590Y-50061396D01*
X196625326Y-49944479D01*
X196371295Y-49774741D01*
X196155259Y-49558705D01*
X195985521Y-49304674D01*
X195868604Y-49022410D01*
X195809000Y-48722760D01*
X195809000Y-48417240D01*
X195868604Y-48117590D01*
X195985521Y-47835326D01*
X196155259Y-47581295D01*
X196371295Y-47365259D01*
X196625326Y-47195521D01*
X196907590Y-47078604D01*
X197057415Y-47048802D01*
X197207239Y-47019000D01*
X197512761Y-47019000D01*
X197662585Y-47048802D01*
X197662585Y-47048802D01*
G37*
G36*
X146270987Y-47139036D02*
G01*
X146406153Y-47165922D01*
X146490056Y-47200676D01*
X146628359Y-47257963D01*
X146828342Y-47391587D01*
X146998413Y-47561658D01*
X147132037Y-47761641D01*
X147162558Y-47835326D01*
X147224078Y-47983847D01*
X147271000Y-48219742D01*
X147271000Y-48460258D01*
X147224078Y-48696153D01*
X147201454Y-48750771D01*
X147132037Y-48918359D01*
X146998413Y-49118342D01*
X146828342Y-49288413D01*
X146628359Y-49422037D01*
X146498194Y-49475953D01*
X146406153Y-49514078D01*
X146170259Y-49561000D01*
X145929741Y-49561000D01*
X145811795Y-49537539D01*
X145693847Y-49514078D01*
X145601806Y-49475953D01*
X145471641Y-49422037D01*
X145271658Y-49288413D01*
X145101587Y-49118342D01*
X144967963Y-48918359D01*
X144898546Y-48750771D01*
X144875922Y-48696153D01*
X144829000Y-48460258D01*
X144829000Y-48219742D01*
X144875922Y-47983847D01*
X144937442Y-47835326D01*
X144967963Y-47761641D01*
X145101587Y-47561658D01*
X145271658Y-47391587D01*
X145471641Y-47257963D01*
X145609944Y-47200676D01*
X145693847Y-47165922D01*
X145829013Y-47139036D01*
X145929741Y-47119000D01*
X146170259Y-47119000D01*
X146270987Y-47139036D01*
X146270987Y-47139036D01*
G37*
G36*
X160214784Y-45783824D02*
G01*
X160376153Y-45815922D01*
X160468194Y-45854047D01*
X160598359Y-45907963D01*
X160798342Y-46041587D01*
X160968413Y-46211658D01*
X161102037Y-46411641D01*
X161194078Y-46633848D01*
X161241000Y-46869741D01*
X161241000Y-47110259D01*
X161229928Y-47165922D01*
X161194078Y-47346153D01*
X161175258Y-47391587D01*
X161102037Y-47568359D01*
X160968413Y-47768342D01*
X160798342Y-47938413D01*
X160598359Y-48072037D01*
X160488384Y-48117590D01*
X160376153Y-48164078D01*
X160140259Y-48211000D01*
X159899741Y-48211000D01*
X159663847Y-48164078D01*
X159551616Y-48117590D01*
X159441641Y-48072037D01*
X159241658Y-47938413D01*
X159071587Y-47768342D01*
X158937963Y-47568359D01*
X158864742Y-47391587D01*
X158845922Y-47346153D01*
X158810072Y-47165922D01*
X158799000Y-47110259D01*
X158799000Y-46869741D01*
X158845922Y-46633848D01*
X158937963Y-46411641D01*
X159071587Y-46211658D01*
X159241658Y-46041587D01*
X159441641Y-45907963D01*
X159571806Y-45854047D01*
X159663847Y-45815922D01*
X159825216Y-45783824D01*
X159899741Y-45769000D01*
X160140259Y-45769000D01*
X160214784Y-45783824D01*
X160214784Y-45783824D01*
G37*
G36*
X193953048Y-45623122D02*
G01*
X193987387Y-45633539D01*
X194019036Y-45650456D01*
X194046778Y-45673222D01*
X194069544Y-45700964D01*
X194086461Y-45732613D01*
X194096878Y-45766952D01*
X194101000Y-45808807D01*
X194101000Y-47031193D01*
X194096878Y-47073048D01*
X194086461Y-47107387D01*
X194069544Y-47139036D01*
X194046778Y-47166778D01*
X194019036Y-47189544D01*
X193987387Y-47206461D01*
X193953048Y-47216878D01*
X193911193Y-47221000D01*
X192168807Y-47221000D01*
X192126952Y-47216878D01*
X192092613Y-47206461D01*
X192060964Y-47189544D01*
X192033222Y-47166778D01*
X192010456Y-47139036D01*
X191993539Y-47107387D01*
X191983122Y-47073048D01*
X191979000Y-47031193D01*
X191979000Y-45808807D01*
X191983122Y-45766952D01*
X191993539Y-45732613D01*
X192010456Y-45700964D01*
X192033222Y-45673222D01*
X192060964Y-45650456D01*
X192092613Y-45633539D01*
X192126952Y-45623122D01*
X192168807Y-45619000D01*
X193911193Y-45619000D01*
X193953048Y-45623122D01*
X193953048Y-45623122D01*
G37*
G36*
X175562585Y-42928802D02*
G01*
X175712410Y-42958604D01*
X175994674Y-43075521D01*
X176248705Y-43245259D01*
X176464741Y-43461295D01*
X176634479Y-43715326D01*
X176751396Y-43997590D01*
X176778499Y-44133847D01*
X176811000Y-44297239D01*
X176811000Y-44602761D01*
X176806253Y-44626625D01*
X176751396Y-44902410D01*
X176634479Y-45184674D01*
X176464741Y-45438705D01*
X176248705Y-45654741D01*
X175994674Y-45824479D01*
X175712410Y-45941396D01*
X175562585Y-45971198D01*
X175412761Y-46001000D01*
X175107239Y-46001000D01*
X174957415Y-45971198D01*
X174807590Y-45941396D01*
X174525326Y-45824479D01*
X174271295Y-45654741D01*
X174055259Y-45438705D01*
X173885521Y-45184674D01*
X173768604Y-44902410D01*
X173713747Y-44626625D01*
X173709000Y-44602761D01*
X173709000Y-44297239D01*
X173741501Y-44133847D01*
X173768604Y-43997590D01*
X173885521Y-43715326D01*
X174055259Y-43461295D01*
X174271295Y-43245259D01*
X174525326Y-43075521D01*
X174807590Y-42958604D01*
X174957415Y-42928802D01*
X175107239Y-42899000D01*
X175412761Y-42899000D01*
X175562585Y-42928802D01*
X175562585Y-42928802D01*
G37*
G36*
X170258205Y-43292461D02*
G01*
X170376153Y-43315922D01*
X170468194Y-43354047D01*
X170598359Y-43407963D01*
X170798342Y-43541587D01*
X170968413Y-43711658D01*
X171102037Y-43911641D01*
X171194078Y-44133848D01*
X171241000Y-44369741D01*
X171241000Y-44610259D01*
X171194078Y-44846152D01*
X171102037Y-45068359D01*
X170968413Y-45268342D01*
X170798342Y-45438413D01*
X170598359Y-45572037D01*
X170484980Y-45619000D01*
X170376153Y-45664078D01*
X170258205Y-45687539D01*
X170140259Y-45711000D01*
X169899741Y-45711000D01*
X169663847Y-45664078D01*
X169555020Y-45619000D01*
X169441641Y-45572037D01*
X169241658Y-45438413D01*
X169071587Y-45268342D01*
X168937963Y-45068359D01*
X168845922Y-44846152D01*
X168799000Y-44610259D01*
X168799000Y-44369741D01*
X168845922Y-44133848D01*
X168937963Y-43911641D01*
X169071587Y-43711658D01*
X169241658Y-43541587D01*
X169441641Y-43407963D01*
X169571806Y-43354047D01*
X169663847Y-43315922D01*
X169899741Y-43269000D01*
X170140259Y-43269000D01*
X170258205Y-43292461D01*
X170258205Y-43292461D01*
G37*
G36*
X179971000Y-45351000D02*
G01*
X178169000Y-45351000D01*
X178169000Y-43549000D01*
X179971000Y-43549000D01*
X179971000Y-45351000D01*
X179971000Y-45351000D01*
G37*
G36*
X181720443Y-43555519D02*
G01*
X181786627Y-43562037D01*
X181956466Y-43613557D01*
X182112991Y-43697222D01*
X182135053Y-43715328D01*
X182250186Y-43809814D01*
X182333448Y-43911271D01*
X182362778Y-43947009D01*
X182446443Y-44103534D01*
X182497963Y-44273373D01*
X182515359Y-44450000D01*
X182497963Y-44626627D01*
X182446443Y-44796466D01*
X182362778Y-44952991D01*
X182333448Y-44988729D01*
X182250186Y-45090186D01*
X182148729Y-45173448D01*
X182112991Y-45202778D01*
X181956466Y-45286443D01*
X181786627Y-45337963D01*
X181720442Y-45344482D01*
X181654260Y-45351000D01*
X181565740Y-45351000D01*
X181499558Y-45344482D01*
X181433373Y-45337963D01*
X181263534Y-45286443D01*
X181107009Y-45202778D01*
X181071271Y-45173448D01*
X180969814Y-45090186D01*
X180886552Y-44988729D01*
X180857222Y-44952991D01*
X180773557Y-44796466D01*
X180722037Y-44626627D01*
X180704641Y-44450000D01*
X180722037Y-44273373D01*
X180773557Y-44103534D01*
X180857222Y-43947009D01*
X180886552Y-43911271D01*
X180969814Y-43809814D01*
X181084947Y-43715328D01*
X181107009Y-43697222D01*
X181263534Y-43613557D01*
X181433373Y-43562037D01*
X181499558Y-43555518D01*
X181565740Y-43549000D01*
X181654260Y-43549000D01*
X181720443Y-43555519D01*
X181720443Y-43555519D01*
G37*
G36*
X160376153Y-40815922D02*
G01*
X160468194Y-40854047D01*
X160598359Y-40907963D01*
X160798342Y-41041587D01*
X160968413Y-41211658D01*
X161102037Y-41411641D01*
X161194078Y-41633848D01*
X161241000Y-41869741D01*
X161241000Y-42110259D01*
X161194078Y-42346152D01*
X161102037Y-42568359D01*
X160968413Y-42768342D01*
X160798342Y-42938413D01*
X160598359Y-43072037D01*
X160468194Y-43125953D01*
X160376153Y-43164078D01*
X160258205Y-43187539D01*
X160140259Y-43211000D01*
X159899741Y-43211000D01*
X159781795Y-43187539D01*
X159663847Y-43164078D01*
X159571806Y-43125953D01*
X159441641Y-43072037D01*
X159241658Y-42938413D01*
X159071587Y-42768342D01*
X158937963Y-42568359D01*
X158845922Y-42346152D01*
X158799000Y-42110259D01*
X158799000Y-41869741D01*
X158845922Y-41633848D01*
X158937963Y-41411641D01*
X159071587Y-41211658D01*
X159241658Y-41041587D01*
X159441641Y-40907963D01*
X159571806Y-40854047D01*
X159663847Y-40815922D01*
X159899741Y-40769000D01*
X160140259Y-40769000D01*
X160376153Y-40815922D01*
X160376153Y-40815922D01*
G37*
G36*
X146406153Y-38195922D02*
G01*
X146498194Y-38234047D01*
X146628359Y-38287963D01*
X146828342Y-38421587D01*
X146998413Y-38591658D01*
X147132037Y-38791641D01*
X147224078Y-39013848D01*
X147271000Y-39249741D01*
X147271000Y-39490259D01*
X147224078Y-39726152D01*
X147132037Y-39948359D01*
X146998413Y-40148342D01*
X146828342Y-40318413D01*
X146628359Y-40452037D01*
X146498194Y-40505953D01*
X146406153Y-40544078D01*
X146288205Y-40567539D01*
X146170259Y-40591000D01*
X145929741Y-40591000D01*
X145693847Y-40544078D01*
X145601806Y-40505953D01*
X145471641Y-40452037D01*
X145271658Y-40318413D01*
X145101587Y-40148342D01*
X144967963Y-39948359D01*
X144875922Y-39726152D01*
X144829000Y-39490259D01*
X144829000Y-39249741D01*
X144875922Y-39013848D01*
X144967963Y-38791641D01*
X145101587Y-38591658D01*
X145271658Y-38421587D01*
X145471641Y-38287963D01*
X145601806Y-38234047D01*
X145693847Y-38195922D01*
X145929741Y-38149000D01*
X146170259Y-38149000D01*
X146406153Y-38195922D01*
X146406153Y-38195922D01*
G37*
G36*
X175181585Y-35308802D02*
G01*
X175331410Y-35338604D01*
X175613674Y-35455521D01*
X175867705Y-35625259D01*
X176083741Y-35841295D01*
X176253479Y-36095326D01*
X176370396Y-36377590D01*
X176397499Y-36513847D01*
X176430000Y-36677239D01*
X176430000Y-36982761D01*
X176425253Y-37006625D01*
X176370396Y-37282410D01*
X176253479Y-37564674D01*
X176083741Y-37818705D01*
X175867705Y-38034741D01*
X175613674Y-38204479D01*
X175331410Y-38321396D01*
X175181585Y-38351198D01*
X175031761Y-38381000D01*
X174726239Y-38381000D01*
X174576415Y-38351198D01*
X174426590Y-38321396D01*
X174144326Y-38204479D01*
X173890295Y-38034741D01*
X173674259Y-37818705D01*
X173504521Y-37564674D01*
X173387604Y-37282410D01*
X173332747Y-37006625D01*
X173328000Y-36982761D01*
X173328000Y-36677239D01*
X173360501Y-36513847D01*
X173387604Y-36377590D01*
X173504521Y-36095326D01*
X173674259Y-35841295D01*
X173890295Y-35625259D01*
X174144326Y-35455521D01*
X174426590Y-35338604D01*
X174576415Y-35308802D01*
X174726239Y-35279000D01*
X175031761Y-35279000D01*
X175181585Y-35308802D01*
X175181585Y-35308802D01*
G37*
G36*
X156406153Y-35695922D02*
G01*
X156498194Y-35734047D01*
X156628359Y-35787963D01*
X156828342Y-35921587D01*
X156998413Y-36091658D01*
X157132037Y-36291641D01*
X157224078Y-36513848D01*
X157271000Y-36749741D01*
X157271000Y-36990259D01*
X157224078Y-37226152D01*
X157132037Y-37448359D01*
X156998413Y-37648342D01*
X156828342Y-37818413D01*
X156628359Y-37952037D01*
X156498194Y-38005953D01*
X156406153Y-38044078D01*
X156288205Y-38067539D01*
X156170259Y-38091000D01*
X155929741Y-38091000D01*
X155811795Y-38067539D01*
X155693847Y-38044078D01*
X155601806Y-38005953D01*
X155471641Y-37952037D01*
X155271658Y-37818413D01*
X155101587Y-37648342D01*
X154967963Y-37448359D01*
X154875922Y-37226152D01*
X154829000Y-36990259D01*
X154829000Y-36749741D01*
X154875922Y-36513848D01*
X154967963Y-36291641D01*
X155101587Y-36091658D01*
X155271658Y-35921587D01*
X155471641Y-35787963D01*
X155601806Y-35734047D01*
X155693847Y-35695922D01*
X155929741Y-35649000D01*
X156170259Y-35649000D01*
X156406153Y-35695922D01*
X156406153Y-35695922D01*
G37*
G36*
X181720442Y-35935518D02*
G01*
X181786627Y-35942037D01*
X181956466Y-35993557D01*
X182112991Y-36077222D01*
X182135053Y-36095328D01*
X182250186Y-36189814D01*
X182301858Y-36252778D01*
X182362778Y-36327009D01*
X182446443Y-36483534D01*
X182497963Y-36653373D01*
X182515359Y-36830000D01*
X182497963Y-37006627D01*
X182446443Y-37176466D01*
X182362778Y-37332991D01*
X182333448Y-37368729D01*
X182250186Y-37470186D01*
X182148729Y-37553448D01*
X182112991Y-37582778D01*
X181956466Y-37666443D01*
X181786627Y-37717963D01*
X181720443Y-37724481D01*
X181654260Y-37731000D01*
X181565740Y-37731000D01*
X181499557Y-37724481D01*
X181433373Y-37717963D01*
X181263534Y-37666443D01*
X181107009Y-37582778D01*
X181071271Y-37553448D01*
X180969814Y-37470186D01*
X180886552Y-37368729D01*
X180857222Y-37332991D01*
X180773557Y-37176466D01*
X180722037Y-37006627D01*
X180704641Y-36830000D01*
X180722037Y-36653373D01*
X180773557Y-36483534D01*
X180857222Y-36327009D01*
X180918142Y-36252778D01*
X180969814Y-36189814D01*
X181084947Y-36095328D01*
X181107009Y-36077222D01*
X181263534Y-35993557D01*
X181433373Y-35942037D01*
X181499557Y-35935519D01*
X181565740Y-35929000D01*
X181654260Y-35929000D01*
X181720442Y-35935518D01*
X181720442Y-35935518D01*
G37*
G36*
X179971000Y-37731000D02*
G01*
X178169000Y-37731000D01*
X178169000Y-35929000D01*
X179971000Y-35929000D01*
X179971000Y-37731000D01*
X179971000Y-37731000D01*
G37*
G36*
X140901000Y-36401000D02*
G01*
X139099000Y-36401000D01*
X139099000Y-34599000D01*
X140901000Y-34599000D01*
X140901000Y-36401000D01*
X140901000Y-36401000D01*
G37*
G36*
X142650442Y-34605518D02*
G01*
X142716627Y-34612037D01*
X142886466Y-34663557D01*
X143042991Y-34747222D01*
X143078729Y-34776552D01*
X143180186Y-34859814D01*
X143252852Y-34948359D01*
X143292778Y-34997009D01*
X143376443Y-35153534D01*
X143427963Y-35323373D01*
X143445359Y-35500000D01*
X143427963Y-35676627D01*
X143376443Y-35846466D01*
X143292778Y-36002991D01*
X143263448Y-36038729D01*
X143180186Y-36140186D01*
X143078729Y-36223448D01*
X143042991Y-36252778D01*
X142886466Y-36336443D01*
X142716627Y-36387963D01*
X142650442Y-36394482D01*
X142584260Y-36401000D01*
X142495740Y-36401000D01*
X142429558Y-36394482D01*
X142363373Y-36387963D01*
X142193534Y-36336443D01*
X142037009Y-36252778D01*
X142001271Y-36223448D01*
X141899814Y-36140186D01*
X141816552Y-36038729D01*
X141787222Y-36002991D01*
X141703557Y-35846466D01*
X141652037Y-35676627D01*
X141634641Y-35500000D01*
X141652037Y-35323373D01*
X141703557Y-35153534D01*
X141787222Y-34997009D01*
X141827148Y-34948359D01*
X141899814Y-34859814D01*
X142001271Y-34776552D01*
X142037009Y-34747222D01*
X142193534Y-34663557D01*
X142363373Y-34612037D01*
X142429558Y-34605518D01*
X142495740Y-34599000D01*
X142584260Y-34599000D01*
X142650442Y-34605518D01*
X142650442Y-34605518D01*
G37*
G36*
X146406153Y-33195922D02*
G01*
X146498194Y-33234047D01*
X146628359Y-33287963D01*
X146828342Y-33421587D01*
X146998413Y-33591658D01*
X147132037Y-33791641D01*
X147224078Y-34013848D01*
X147271000Y-34249741D01*
X147271000Y-34490259D01*
X147224078Y-34726152D01*
X147132037Y-34948359D01*
X146998413Y-35148342D01*
X146828342Y-35318413D01*
X146628359Y-35452037D01*
X146512566Y-35500000D01*
X146406153Y-35544078D01*
X146170259Y-35591000D01*
X145929741Y-35591000D01*
X145811795Y-35567539D01*
X145693847Y-35544078D01*
X145587434Y-35500000D01*
X145471641Y-35452037D01*
X145271658Y-35318413D01*
X145101587Y-35148342D01*
X144967963Y-34948359D01*
X144875922Y-34726152D01*
X144829000Y-34490259D01*
X144829000Y-34249741D01*
X144875922Y-34013848D01*
X144967963Y-33791641D01*
X145101587Y-33591658D01*
X145271658Y-33421587D01*
X145471641Y-33287963D01*
X145601806Y-33234047D01*
X145693847Y-33195922D01*
X145811795Y-33172461D01*
X145929741Y-33149000D01*
X146170259Y-33149000D01*
X146406153Y-33195922D01*
X146406153Y-33195922D01*
G37*
G36*
X175174845Y-28952409D02*
G01*
X175356810Y-28988604D01*
X175639074Y-29105521D01*
X175893105Y-29275259D01*
X176109141Y-29491295D01*
X176278879Y-29745326D01*
X176395796Y-30027590D01*
X176455400Y-30327240D01*
X176455400Y-30632760D01*
X176395796Y-30932410D01*
X176278879Y-31214674D01*
X176109141Y-31468705D01*
X175893105Y-31684741D01*
X175639074Y-31854479D01*
X175356810Y-31971396D01*
X175206985Y-32001198D01*
X175057161Y-32031000D01*
X174751639Y-32031000D01*
X174601815Y-32001198D01*
X174451990Y-31971396D01*
X174169726Y-31854479D01*
X173915695Y-31684741D01*
X173699659Y-31468705D01*
X173529921Y-31214674D01*
X173413004Y-30932410D01*
X173353400Y-30632760D01*
X173353400Y-30327240D01*
X173413004Y-30027590D01*
X173529921Y-29745326D01*
X173699659Y-29491295D01*
X173915695Y-29275259D01*
X174169726Y-29105521D01*
X174451990Y-28988604D01*
X174633955Y-28952409D01*
X174751639Y-28929000D01*
X175057161Y-28929000D01*
X175174845Y-28952409D01*
X175174845Y-28952409D01*
G37*
G36*
X181974443Y-29585519D02*
G01*
X182040627Y-29592037D01*
X182210466Y-29643557D01*
X182366991Y-29727222D01*
X182389053Y-29745328D01*
X182504186Y-29839814D01*
X182587448Y-29941271D01*
X182616778Y-29977009D01*
X182700443Y-30133534D01*
X182751963Y-30303373D01*
X182769359Y-30480000D01*
X182751963Y-30656627D01*
X182700443Y-30826466D01*
X182616778Y-30982991D01*
X182587448Y-31018729D01*
X182504186Y-31120186D01*
X182402729Y-31203448D01*
X182366991Y-31232778D01*
X182210466Y-31316443D01*
X182040627Y-31367963D01*
X181974443Y-31374481D01*
X181908260Y-31381000D01*
X181819740Y-31381000D01*
X181753557Y-31374481D01*
X181687373Y-31367963D01*
X181517534Y-31316443D01*
X181361009Y-31232778D01*
X181325271Y-31203448D01*
X181223814Y-31120186D01*
X181140552Y-31018729D01*
X181111222Y-30982991D01*
X181027557Y-30826466D01*
X180976037Y-30656627D01*
X180958641Y-30480000D01*
X180976037Y-30303373D01*
X181027557Y-30133534D01*
X181111222Y-29977009D01*
X181140552Y-29941271D01*
X181223814Y-29839814D01*
X181338947Y-29745328D01*
X181361009Y-29727222D01*
X181517534Y-29643557D01*
X181687373Y-29592037D01*
X181753557Y-29585519D01*
X181819740Y-29579000D01*
X181908260Y-29579000D01*
X181974443Y-29585519D01*
X181974443Y-29585519D01*
G37*
G36*
X180225000Y-31381000D02*
G01*
X178423000Y-31381000D01*
X178423000Y-29579000D01*
X180225000Y-29579000D01*
X180225000Y-31381000D01*
X180225000Y-31381000D01*
G37*
G36*
X199302585Y-26978802D02*
G01*
X199452410Y-27008604D01*
X199734674Y-27125521D01*
X199988705Y-27295259D01*
X200204741Y-27511295D01*
X200374479Y-27765326D01*
X200491396Y-28047590D01*
X200551000Y-28347240D01*
X200551000Y-28652760D01*
X200491396Y-28952410D01*
X200374479Y-29234674D01*
X200204741Y-29488705D01*
X199988705Y-29704741D01*
X199734674Y-29874479D01*
X199452410Y-29991396D01*
X199302585Y-30021198D01*
X199152761Y-30051000D01*
X198847239Y-30051000D01*
X198697415Y-30021198D01*
X198547590Y-29991396D01*
X198265326Y-29874479D01*
X198011295Y-29704741D01*
X197795259Y-29488705D01*
X197625521Y-29234674D01*
X197508604Y-28952410D01*
X197449000Y-28652760D01*
X197449000Y-28347240D01*
X197508604Y-28047590D01*
X197625521Y-27765326D01*
X197795259Y-27511295D01*
X198011295Y-27295259D01*
X198265326Y-27125521D01*
X198547590Y-27008604D01*
X198697415Y-26978802D01*
X198847239Y-26949000D01*
X199152761Y-26949000D01*
X199302585Y-26978802D01*
X199302585Y-26978802D01*
G37*
G36*
X134802585Y-26978802D02*
G01*
X134952410Y-27008604D01*
X135234674Y-27125521D01*
X135488705Y-27295259D01*
X135704741Y-27511295D01*
X135874479Y-27765326D01*
X135991396Y-28047590D01*
X136051000Y-28347240D01*
X136051000Y-28652760D01*
X135991396Y-28952410D01*
X135874479Y-29234674D01*
X135704741Y-29488705D01*
X135488705Y-29704741D01*
X135234674Y-29874479D01*
X134952410Y-29991396D01*
X134802585Y-30021198D01*
X134652761Y-30051000D01*
X134347239Y-30051000D01*
X134197415Y-30021198D01*
X134047590Y-29991396D01*
X133765326Y-29874479D01*
X133511295Y-29704741D01*
X133295259Y-29488705D01*
X133125521Y-29234674D01*
X133008604Y-28952410D01*
X132949000Y-28652760D01*
X132949000Y-28347240D01*
X133008604Y-28047590D01*
X133125521Y-27765326D01*
X133295259Y-27511295D01*
X133511295Y-27295259D01*
X133765326Y-27125521D01*
X134047590Y-27008604D01*
X134197415Y-26978802D01*
X134347239Y-26949000D01*
X134652761Y-26949000D01*
X134802585Y-26978802D01*
X134802585Y-26978802D01*
G37*
M02*
