G04 #@! TF.GenerationSoftware,KiCad,Pcbnew,(5.1.4)-1*
G04 #@! TF.CreationDate,2019-11-16T16:56:25-06:00*
G04 #@! TF.ProjectId,ScrutineeringBoard,53637275-7469-46e6-9565-72696e67426f,rev?*
G04 #@! TF.SameCoordinates,Original*
G04 #@! TF.FileFunction,Legend,Top*
G04 #@! TF.FilePolarity,Positive*
%FSLAX46Y46*%
G04 Gerber Fmt 4.6, Leading zero omitted, Abs format (unit mm)*
G04 Created by KiCad (PCBNEW (5.1.4)-1) date 2019-11-16 16:56:25*
%MOMM*%
%LPD*%
G04 APERTURE LIST*
%ADD10C,0.150000*%
%ADD11C,0.010000*%
%ADD12C,0.120000*%
G04 APERTURE END LIST*
D10*
X138190476Y-147802380D02*
X138190476Y-148611904D01*
X138238095Y-148707142D01*
X138285714Y-148754761D01*
X138380952Y-148802380D01*
X138571428Y-148802380D01*
X138666666Y-148754761D01*
X138714285Y-148707142D01*
X138761904Y-148611904D01*
X138761904Y-147802380D01*
X139095238Y-147802380D02*
X139666666Y-147802380D01*
X139380952Y-148802380D02*
X139380952Y-147802380D01*
X139952380Y-148754761D02*
X140095238Y-148802380D01*
X140333333Y-148802380D01*
X140428571Y-148754761D01*
X140476190Y-148707142D01*
X140523809Y-148611904D01*
X140523809Y-148516666D01*
X140476190Y-148421428D01*
X140428571Y-148373809D01*
X140333333Y-148326190D01*
X140142857Y-148278571D01*
X140047619Y-148230952D01*
X140000000Y-148183333D01*
X139952380Y-148088095D01*
X139952380Y-147992857D01*
X140000000Y-147897619D01*
X140047619Y-147850000D01*
X140142857Y-147802380D01*
X140380952Y-147802380D01*
X140523809Y-147850000D01*
X140809523Y-147802380D02*
X141142857Y-148802380D01*
X141476190Y-147802380D01*
X141666666Y-147802380D02*
X142238095Y-147802380D01*
X141952380Y-148802380D02*
X141952380Y-147802380D01*
X143333333Y-148421428D02*
X144095238Y-148421428D01*
X145666666Y-148278571D02*
X145809523Y-148326190D01*
X145857142Y-148373809D01*
X145904761Y-148469047D01*
X145904761Y-148611904D01*
X145857142Y-148707142D01*
X145809523Y-148754761D01*
X145714285Y-148802380D01*
X145333333Y-148802380D01*
X145333333Y-147802380D01*
X145666666Y-147802380D01*
X145761904Y-147850000D01*
X145809523Y-147897619D01*
X145857142Y-147992857D01*
X145857142Y-148088095D01*
X145809523Y-148183333D01*
X145761904Y-148230952D01*
X145666666Y-148278571D01*
X145333333Y-148278571D01*
X146333333Y-148802380D02*
X146333333Y-147802380D01*
X146714285Y-147802380D01*
X146809523Y-147850000D01*
X146857142Y-147897619D01*
X146904761Y-147992857D01*
X146904761Y-148135714D01*
X146857142Y-148230952D01*
X146809523Y-148278571D01*
X146714285Y-148326190D01*
X146333333Y-148326190D01*
X147285714Y-148754761D02*
X147428571Y-148802380D01*
X147666666Y-148802380D01*
X147761904Y-148754761D01*
X147809523Y-148707142D01*
X147857142Y-148611904D01*
X147857142Y-148516666D01*
X147809523Y-148421428D01*
X147761904Y-148373809D01*
X147666666Y-148326190D01*
X147476190Y-148278571D01*
X147380952Y-148230952D01*
X147333333Y-148183333D01*
X147285714Y-148088095D01*
X147285714Y-147992857D01*
X147333333Y-147897619D01*
X147380952Y-147850000D01*
X147476190Y-147802380D01*
X147714285Y-147802380D01*
X147857142Y-147850000D01*
X134238095Y-149452380D02*
X134809523Y-149452380D01*
X134523809Y-150452380D02*
X134523809Y-149452380D01*
X135523809Y-150404761D02*
X135428571Y-150452380D01*
X135238095Y-150452380D01*
X135142857Y-150404761D01*
X135095238Y-150309523D01*
X135095238Y-149928571D01*
X135142857Y-149833333D01*
X135238095Y-149785714D01*
X135428571Y-149785714D01*
X135523809Y-149833333D01*
X135571428Y-149928571D01*
X135571428Y-150023809D01*
X135095238Y-150119047D01*
X135904761Y-150452380D02*
X136428571Y-149785714D01*
X135904761Y-149785714D02*
X136428571Y-150452380D01*
X136761904Y-150404761D02*
X136857142Y-150452380D01*
X137047619Y-150452380D01*
X137142857Y-150404761D01*
X137190476Y-150309523D01*
X137190476Y-150261904D01*
X137142857Y-150166666D01*
X137047619Y-150119047D01*
X136904761Y-150119047D01*
X136809523Y-150071428D01*
X136761904Y-149976190D01*
X136761904Y-149928571D01*
X136809523Y-149833333D01*
X136904761Y-149785714D01*
X137047619Y-149785714D01*
X137142857Y-149833333D01*
X138047619Y-149785714D02*
X138047619Y-150452380D01*
X137619047Y-149785714D02*
X137619047Y-150309523D01*
X137666666Y-150404761D01*
X137761904Y-150452380D01*
X137904761Y-150452380D01*
X138000000Y-150404761D01*
X138047619Y-150357142D01*
X138523809Y-149785714D02*
X138523809Y-150452380D01*
X138523809Y-149880952D02*
X138571428Y-149833333D01*
X138666666Y-149785714D01*
X138809523Y-149785714D01*
X138904761Y-149833333D01*
X138952380Y-149928571D01*
X138952380Y-150452380D01*
X140047619Y-149452380D02*
X140380952Y-150452380D01*
X140714285Y-149452380D01*
X141190476Y-150452380D02*
X141095238Y-150404761D01*
X141047619Y-150357142D01*
X141000000Y-150261904D01*
X141000000Y-149976190D01*
X141047619Y-149880952D01*
X141095238Y-149833333D01*
X141190476Y-149785714D01*
X141333333Y-149785714D01*
X141428571Y-149833333D01*
X141476190Y-149880952D01*
X141523809Y-149976190D01*
X141523809Y-150261904D01*
X141476190Y-150357142D01*
X141428571Y-150404761D01*
X141333333Y-150452380D01*
X141190476Y-150452380D01*
X142095238Y-150452380D02*
X142000000Y-150404761D01*
X141952380Y-150309523D01*
X141952380Y-149452380D01*
X142333333Y-149785714D02*
X142714285Y-149785714D01*
X142476190Y-149452380D02*
X142476190Y-150309523D01*
X142523809Y-150404761D01*
X142619047Y-150452380D01*
X142714285Y-150452380D01*
X143476190Y-150452380D02*
X143476190Y-149928571D01*
X143428571Y-149833333D01*
X143333333Y-149785714D01*
X143142857Y-149785714D01*
X143047619Y-149833333D01*
X143476190Y-150404761D02*
X143380952Y-150452380D01*
X143142857Y-150452380D01*
X143047619Y-150404761D01*
X143000000Y-150309523D01*
X143000000Y-150214285D01*
X143047619Y-150119047D01*
X143142857Y-150071428D01*
X143380952Y-150071428D01*
X143476190Y-150023809D01*
X144380952Y-149785714D02*
X144380952Y-150595238D01*
X144333333Y-150690476D01*
X144285714Y-150738095D01*
X144190476Y-150785714D01*
X144047619Y-150785714D01*
X143952380Y-150738095D01*
X144380952Y-150404761D02*
X144285714Y-150452380D01*
X144095238Y-150452380D01*
X144000000Y-150404761D01*
X143952380Y-150357142D01*
X143904761Y-150261904D01*
X143904761Y-149976190D01*
X143952380Y-149880952D01*
X144000000Y-149833333D01*
X144095238Y-149785714D01*
X144285714Y-149785714D01*
X144380952Y-149833333D01*
X145238095Y-150404761D02*
X145142857Y-150452380D01*
X144952380Y-150452380D01*
X144857142Y-150404761D01*
X144809523Y-150309523D01*
X144809523Y-149928571D01*
X144857142Y-149833333D01*
X144952380Y-149785714D01*
X145142857Y-149785714D01*
X145238095Y-149833333D01*
X145285714Y-149928571D01*
X145285714Y-150023809D01*
X144809523Y-150119047D01*
X146428571Y-150166666D02*
X146904761Y-150166666D01*
X146333333Y-150452380D02*
X146666666Y-149452380D01*
X147000000Y-150452380D01*
X147761904Y-150452380D02*
X147761904Y-149452380D01*
X147761904Y-150404761D02*
X147666666Y-150452380D01*
X147476190Y-150452380D01*
X147380952Y-150404761D01*
X147333333Y-150357142D01*
X147285714Y-150261904D01*
X147285714Y-149976190D01*
X147333333Y-149880952D01*
X147380952Y-149833333D01*
X147476190Y-149785714D01*
X147666666Y-149785714D01*
X147761904Y-149833333D01*
X148666666Y-150452380D02*
X148666666Y-149928571D01*
X148619047Y-149833333D01*
X148523809Y-149785714D01*
X148333333Y-149785714D01*
X148238095Y-149833333D01*
X148666666Y-150404761D02*
X148571428Y-150452380D01*
X148333333Y-150452380D01*
X148238095Y-150404761D01*
X148190476Y-150309523D01*
X148190476Y-150214285D01*
X148238095Y-150119047D01*
X148333333Y-150071428D01*
X148571428Y-150071428D01*
X148666666Y-150023809D01*
X149142857Y-149785714D02*
X149142857Y-150785714D01*
X149142857Y-149833333D02*
X149238095Y-149785714D01*
X149428571Y-149785714D01*
X149523809Y-149833333D01*
X149571428Y-149880952D01*
X149619047Y-149976190D01*
X149619047Y-150261904D01*
X149571428Y-150357142D01*
X149523809Y-150404761D01*
X149428571Y-150452380D01*
X149238095Y-150452380D01*
X149142857Y-150404761D01*
X149904761Y-149785714D02*
X150285714Y-149785714D01*
X150047619Y-149452380D02*
X150047619Y-150309523D01*
X150095238Y-150404761D01*
X150190476Y-150452380D01*
X150285714Y-150452380D01*
X151000000Y-150404761D02*
X150904761Y-150452380D01*
X150714285Y-150452380D01*
X150619047Y-150404761D01*
X150571428Y-150309523D01*
X150571428Y-149928571D01*
X150619047Y-149833333D01*
X150714285Y-149785714D01*
X150904761Y-149785714D01*
X151000000Y-149833333D01*
X151047619Y-149928571D01*
X151047619Y-150023809D01*
X150571428Y-150119047D01*
X151476190Y-150452380D02*
X151476190Y-149785714D01*
X151476190Y-149976190D02*
X151523809Y-149880952D01*
X151571428Y-149833333D01*
X151666666Y-149785714D01*
X151761904Y-149785714D01*
X139880952Y-151578571D02*
X139547619Y-151578571D01*
X139547619Y-152102380D02*
X139547619Y-151102380D01*
X140023809Y-151102380D01*
X140833333Y-152102380D02*
X140833333Y-151578571D01*
X140785714Y-151483333D01*
X140690476Y-151435714D01*
X140500000Y-151435714D01*
X140404761Y-151483333D01*
X140833333Y-152054761D02*
X140738095Y-152102380D01*
X140500000Y-152102380D01*
X140404761Y-152054761D01*
X140357142Y-151959523D01*
X140357142Y-151864285D01*
X140404761Y-151769047D01*
X140500000Y-151721428D01*
X140738095Y-151721428D01*
X140833333Y-151673809D01*
X141452380Y-152102380D02*
X141357142Y-152054761D01*
X141309523Y-151959523D01*
X141309523Y-151102380D01*
X141976190Y-152102380D02*
X141880952Y-152054761D01*
X141833333Y-151959523D01*
X141833333Y-151102380D01*
X143071428Y-151197619D02*
X143119047Y-151150000D01*
X143214285Y-151102380D01*
X143452380Y-151102380D01*
X143547619Y-151150000D01*
X143595238Y-151197619D01*
X143642857Y-151292857D01*
X143642857Y-151388095D01*
X143595238Y-151530952D01*
X143023809Y-152102380D01*
X143642857Y-152102380D01*
X144261904Y-151102380D02*
X144357142Y-151102380D01*
X144452380Y-151150000D01*
X144500000Y-151197619D01*
X144547619Y-151292857D01*
X144595238Y-151483333D01*
X144595238Y-151721428D01*
X144547619Y-151911904D01*
X144500000Y-152007142D01*
X144452380Y-152054761D01*
X144357142Y-152102380D01*
X144261904Y-152102380D01*
X144166666Y-152054761D01*
X144119047Y-152007142D01*
X144071428Y-151911904D01*
X144023809Y-151721428D01*
X144023809Y-151483333D01*
X144071428Y-151292857D01*
X144119047Y-151197619D01*
X144166666Y-151150000D01*
X144261904Y-151102380D01*
X145547619Y-152102380D02*
X144976190Y-152102380D01*
X145261904Y-152102380D02*
X145261904Y-151102380D01*
X145166666Y-151245238D01*
X145071428Y-151340476D01*
X144976190Y-151388095D01*
X146023809Y-152102380D02*
X146214285Y-152102380D01*
X146309523Y-152054761D01*
X146357142Y-152007142D01*
X146452380Y-151864285D01*
X146500000Y-151673809D01*
X146500000Y-151292857D01*
X146452380Y-151197619D01*
X146404761Y-151150000D01*
X146309523Y-151102380D01*
X146119047Y-151102380D01*
X146023809Y-151150000D01*
X145976190Y-151197619D01*
X145928571Y-151292857D01*
X145928571Y-151530952D01*
X145976190Y-151626190D01*
X146023809Y-151673809D01*
X146119047Y-151721428D01*
X146309523Y-151721428D01*
X146404761Y-151673809D01*
X146452380Y-151626190D01*
X146500000Y-151530952D01*
D11*
G36*
X140724978Y-94382961D02*
G01*
X140417332Y-94300682D01*
X139790758Y-94026518D01*
X139186490Y-93606725D01*
X138637655Y-93064659D01*
X138598230Y-93018025D01*
X138385568Y-92752679D01*
X138215188Y-92520775D01*
X138107457Y-92352147D01*
X138082740Y-92276630D01*
X138091521Y-92275698D01*
X138162702Y-92329013D01*
X138331084Y-92465961D01*
X138564831Y-92660521D01*
X138650441Y-92732558D01*
X139362867Y-93261127D01*
X140080105Y-93641567D01*
X140816574Y-93875162D01*
X141586691Y-93963193D01*
X142404873Y-93906943D01*
X143285537Y-93707692D01*
X144243103Y-93366724D01*
X144509686Y-93253600D01*
X144878483Y-93098627D01*
X145103585Y-93017443D01*
X145191145Y-93004977D01*
X145147317Y-93056158D01*
X144978254Y-93165915D01*
X144690110Y-93329176D01*
X144289038Y-93540870D01*
X143957666Y-93708542D01*
X143178536Y-94065397D01*
X142492342Y-94306811D01*
X141872445Y-94437240D01*
X141292203Y-94461137D01*
X140724978Y-94382961D01*
X140724978Y-94382961D01*
G37*
X140724978Y-94382961D02*
X140417332Y-94300682D01*
X139790758Y-94026518D01*
X139186490Y-93606725D01*
X138637655Y-93064659D01*
X138598230Y-93018025D01*
X138385568Y-92752679D01*
X138215188Y-92520775D01*
X138107457Y-92352147D01*
X138082740Y-92276630D01*
X138091521Y-92275698D01*
X138162702Y-92329013D01*
X138331084Y-92465961D01*
X138564831Y-92660521D01*
X138650441Y-92732558D01*
X139362867Y-93261127D01*
X140080105Y-93641567D01*
X140816574Y-93875162D01*
X141586691Y-93963193D01*
X142404873Y-93906943D01*
X143285537Y-93707692D01*
X144243103Y-93366724D01*
X144509686Y-93253600D01*
X144878483Y-93098627D01*
X145103585Y-93017443D01*
X145191145Y-93004977D01*
X145147317Y-93056158D01*
X144978254Y-93165915D01*
X144690110Y-93329176D01*
X144289038Y-93540870D01*
X143957666Y-93708542D01*
X143178536Y-94065397D01*
X142492342Y-94306811D01*
X141872445Y-94437240D01*
X141292203Y-94461137D01*
X140724978Y-94382961D01*
G36*
X144612000Y-90991829D02*
G01*
X144421456Y-90964776D01*
X144357025Y-90915027D01*
X144359409Y-90894166D01*
X144462111Y-90798153D01*
X144578132Y-90761278D01*
X144721636Y-90689184D01*
X144763156Y-90507278D01*
X144792487Y-90192413D01*
X144868927Y-89978708D01*
X144980568Y-89899337D01*
X144981425Y-89899333D01*
X145041787Y-89924380D01*
X145063041Y-90019582D01*
X145044963Y-90215027D01*
X144987327Y-90540807D01*
X144976225Y-90597833D01*
X145008456Y-90722258D01*
X145101537Y-90746000D01*
X145247642Y-90791185D01*
X145287716Y-90841483D01*
X145338831Y-90821473D01*
X145443855Y-90679724D01*
X145581098Y-90446016D01*
X145596070Y-90418149D01*
X145749682Y-90159194D01*
X145889732Y-89973240D01*
X145986620Y-89899407D01*
X145988624Y-89899333D01*
X146078170Y-89976085D01*
X146178572Y-90180704D01*
X146237659Y-90356864D01*
X146326341Y-90679149D01*
X146361640Y-90872498D01*
X146343933Y-90968551D01*
X146273594Y-90998946D01*
X146245280Y-91000000D01*
X146138358Y-90927057D01*
X146068875Y-90767166D01*
X146002079Y-90497002D01*
X145942903Y-90385964D01*
X145871520Y-90426086D01*
X145768103Y-90609401D01*
X145752833Y-90640166D01*
X145575306Y-91000000D01*
X144949931Y-91000000D01*
X144612000Y-90991829D01*
X144612000Y-90991829D01*
G37*
X144612000Y-90991829D02*
X144421456Y-90964776D01*
X144357025Y-90915027D01*
X144359409Y-90894166D01*
X144462111Y-90798153D01*
X144578132Y-90761278D01*
X144721636Y-90689184D01*
X144763156Y-90507278D01*
X144792487Y-90192413D01*
X144868927Y-89978708D01*
X144980568Y-89899337D01*
X144981425Y-89899333D01*
X145041787Y-89924380D01*
X145063041Y-90019582D01*
X145044963Y-90215027D01*
X144987327Y-90540807D01*
X144976225Y-90597833D01*
X145008456Y-90722258D01*
X145101537Y-90746000D01*
X145247642Y-90791185D01*
X145287716Y-90841483D01*
X145338831Y-90821473D01*
X145443855Y-90679724D01*
X145581098Y-90446016D01*
X145596070Y-90418149D01*
X145749682Y-90159194D01*
X145889732Y-89973240D01*
X145986620Y-89899407D01*
X145988624Y-89899333D01*
X146078170Y-89976085D01*
X146178572Y-90180704D01*
X146237659Y-90356864D01*
X146326341Y-90679149D01*
X146361640Y-90872498D01*
X146343933Y-90968551D01*
X146273594Y-90998946D01*
X146245280Y-91000000D01*
X146138358Y-90927057D01*
X146068875Y-90767166D01*
X146002079Y-90497002D01*
X145942903Y-90385964D01*
X145871520Y-90426086D01*
X145768103Y-90609401D01*
X145752833Y-90640166D01*
X145575306Y-91000000D01*
X144949931Y-91000000D01*
X144612000Y-90991829D01*
G36*
X147543781Y-90986404D02*
G01*
X147413756Y-90939332D01*
X147386666Y-90873000D01*
X147456950Y-90769491D01*
X147553084Y-90746000D01*
X147658805Y-90714825D01*
X147725004Y-90595324D01*
X147772166Y-90348535D01*
X147775658Y-90322666D01*
X147835134Y-90036825D01*
X147918818Y-89908790D01*
X147955852Y-89899333D01*
X148026747Y-89931302D01*
X148047907Y-90051782D01*
X148025064Y-90297634D01*
X148021666Y-90322666D01*
X147995050Y-90576799D01*
X148010819Y-90704493D01*
X148076074Y-90744924D01*
X148098388Y-90746000D01*
X148215657Y-90810356D01*
X148233333Y-90873000D01*
X148188014Y-90952865D01*
X148031106Y-90991873D01*
X147810000Y-91000000D01*
X147543781Y-90986404D01*
X147543781Y-90986404D01*
G37*
X147543781Y-90986404D02*
X147413756Y-90939332D01*
X147386666Y-90873000D01*
X147456950Y-90769491D01*
X147553084Y-90746000D01*
X147658805Y-90714825D01*
X147725004Y-90595324D01*
X147772166Y-90348535D01*
X147775658Y-90322666D01*
X147835134Y-90036825D01*
X147918818Y-89908790D01*
X147955852Y-89899333D01*
X148026747Y-89931302D01*
X148047907Y-90051782D01*
X148025064Y-90297634D01*
X148021666Y-90322666D01*
X147995050Y-90576799D01*
X148010819Y-90704493D01*
X148076074Y-90744924D01*
X148098388Y-90746000D01*
X148215657Y-90810356D01*
X148233333Y-90873000D01*
X148188014Y-90952865D01*
X148031106Y-90991873D01*
X147810000Y-91000000D01*
X147543781Y-90986404D01*
G36*
X146582865Y-90956304D02*
G01*
X146561588Y-90894166D01*
X146664029Y-90811381D01*
X146794000Y-90788333D01*
X146976081Y-90748018D01*
X147010729Y-90651573D01*
X146892099Y-90535753D01*
X146838526Y-90508404D01*
X146664391Y-90360681D01*
X146639657Y-90171510D01*
X146766231Y-89982628D01*
X146812839Y-89946467D01*
X147023917Y-89832456D01*
X147195081Y-89840730D01*
X147291680Y-89891164D01*
X147372317Y-89992553D01*
X147317074Y-90072590D01*
X147159008Y-90098335D01*
X147092354Y-90089775D01*
X146924282Y-90099369D01*
X146878118Y-90184831D01*
X146957770Y-90300580D01*
X147068672Y-90366090D01*
X147244951Y-90515060D01*
X147287567Y-90715689D01*
X147213958Y-90877067D01*
X147085162Y-90955228D01*
X146898073Y-90995509D01*
X146711153Y-90996379D01*
X146582865Y-90956304D01*
X146582865Y-90956304D01*
G37*
X146582865Y-90956304D02*
X146561588Y-90894166D01*
X146664029Y-90811381D01*
X146794000Y-90788333D01*
X146976081Y-90748018D01*
X147010729Y-90651573D01*
X146892099Y-90535753D01*
X146838526Y-90508404D01*
X146664391Y-90360681D01*
X146639657Y-90171510D01*
X146766231Y-89982628D01*
X146812839Y-89946467D01*
X147023917Y-89832456D01*
X147195081Y-89840730D01*
X147291680Y-89891164D01*
X147372317Y-89992553D01*
X147317074Y-90072590D01*
X147159008Y-90098335D01*
X147092354Y-90089775D01*
X146924282Y-90099369D01*
X146878118Y-90184831D01*
X146957770Y-90300580D01*
X147068672Y-90366090D01*
X147244951Y-90515060D01*
X147287567Y-90715689D01*
X147213958Y-90877067D01*
X147085162Y-90955228D01*
X146898073Y-90995509D01*
X146711153Y-90996379D01*
X146582865Y-90956304D01*
G36*
X148421383Y-90930685D02*
G01*
X148404686Y-90851833D01*
X148428444Y-90637206D01*
X148483594Y-90377529D01*
X148552892Y-90139877D01*
X148619093Y-89991324D01*
X148628918Y-89979639D01*
X148818991Y-89884999D01*
X149067669Y-89856323D01*
X149270500Y-89904068D01*
X149369141Y-90039415D01*
X149419599Y-90263188D01*
X149424653Y-90523189D01*
X149387081Y-90767218D01*
X149309665Y-90943077D01*
X149212142Y-91000000D01*
X149152474Y-90941891D01*
X149135290Y-90753907D01*
X149147627Y-90526991D01*
X149165826Y-90259211D01*
X149153735Y-90121552D01*
X149097317Y-90075585D01*
X148985260Y-90082491D01*
X148861007Y-90124717D01*
X148782779Y-90236238D01*
X148725202Y-90460387D01*
X148708259Y-90555500D01*
X148638605Y-90841845D01*
X148554235Y-90986310D01*
X148517759Y-91000000D01*
X148421383Y-90930685D01*
X148421383Y-90930685D01*
G37*
X148421383Y-90930685D02*
X148404686Y-90851833D01*
X148428444Y-90637206D01*
X148483594Y-90377529D01*
X148552892Y-90139877D01*
X148619093Y-89991324D01*
X148628918Y-89979639D01*
X148818991Y-89884999D01*
X149067669Y-89856323D01*
X149270500Y-89904068D01*
X149369141Y-90039415D01*
X149419599Y-90263188D01*
X149424653Y-90523189D01*
X149387081Y-90767218D01*
X149309665Y-90943077D01*
X149212142Y-91000000D01*
X149152474Y-90941891D01*
X149135290Y-90753907D01*
X149147627Y-90526991D01*
X149165826Y-90259211D01*
X149153735Y-90121552D01*
X149097317Y-90075585D01*
X148985260Y-90082491D01*
X148861007Y-90124717D01*
X148782779Y-90236238D01*
X148725202Y-90460387D01*
X148708259Y-90555500D01*
X148638605Y-90841845D01*
X148554235Y-90986310D01*
X148517759Y-91000000D01*
X148421383Y-90930685D01*
G36*
X144996057Y-92244338D02*
G01*
X143381699Y-92190163D01*
X141613779Y-92104187D01*
X139693471Y-91986327D01*
X139428000Y-91968337D01*
X138775054Y-91922320D01*
X138084444Y-91871398D01*
X137406667Y-91819447D01*
X136792222Y-91770345D01*
X136291607Y-91727970D01*
X136253000Y-91724542D01*
X134983000Y-91611199D01*
X136888000Y-91665433D01*
X137704920Y-91685268D01*
X138590947Y-91700676D01*
X139526118Y-91711766D01*
X140490473Y-91718643D01*
X141464050Y-91721415D01*
X142426887Y-91720189D01*
X143359022Y-91715073D01*
X144240493Y-91706172D01*
X145051340Y-91693596D01*
X145771599Y-91677449D01*
X146381310Y-91657841D01*
X146860511Y-91634877D01*
X147175000Y-91610233D01*
X148149560Y-91490575D01*
X148962254Y-91357796D01*
X149620220Y-91209356D01*
X150130594Y-91042717D01*
X150500513Y-90855339D01*
X150737114Y-90644682D01*
X150847533Y-90408207D01*
X150858000Y-90299811D01*
X150808075Y-90057176D01*
X150687500Y-89813113D01*
X150682901Y-89806570D01*
X150584737Y-89654446D01*
X150574275Y-89586366D01*
X150664724Y-89604997D01*
X150869295Y-89713003D01*
X151196666Y-89910255D01*
X151625374Y-90200062D01*
X151989208Y-90494818D01*
X152261715Y-90770068D01*
X152416441Y-91001357D01*
X152435108Y-91055122D01*
X152421021Y-91314430D01*
X152241618Y-91542760D01*
X151898074Y-91740032D01*
X151391565Y-91906161D01*
X150723266Y-92041066D01*
X149894353Y-92144664D01*
X148906000Y-92216873D01*
X147759382Y-92257610D01*
X146455677Y-92266792D01*
X144996057Y-92244338D01*
X144996057Y-92244338D01*
G37*
X144996057Y-92244338D02*
X143381699Y-92190163D01*
X141613779Y-92104187D01*
X139693471Y-91986327D01*
X139428000Y-91968337D01*
X138775054Y-91922320D01*
X138084444Y-91871398D01*
X137406667Y-91819447D01*
X136792222Y-91770345D01*
X136291607Y-91727970D01*
X136253000Y-91724542D01*
X134983000Y-91611199D01*
X136888000Y-91665433D01*
X137704920Y-91685268D01*
X138590947Y-91700676D01*
X139526118Y-91711766D01*
X140490473Y-91718643D01*
X141464050Y-91721415D01*
X142426887Y-91720189D01*
X143359022Y-91715073D01*
X144240493Y-91706172D01*
X145051340Y-91693596D01*
X145771599Y-91677449D01*
X146381310Y-91657841D01*
X146860511Y-91634877D01*
X147175000Y-91610233D01*
X148149560Y-91490575D01*
X148962254Y-91357796D01*
X149620220Y-91209356D01*
X150130594Y-91042717D01*
X150500513Y-90855339D01*
X150737114Y-90644682D01*
X150847533Y-90408207D01*
X150858000Y-90299811D01*
X150808075Y-90057176D01*
X150687500Y-89813113D01*
X150682901Y-89806570D01*
X150584737Y-89654446D01*
X150574275Y-89586366D01*
X150664724Y-89604997D01*
X150869295Y-89713003D01*
X151196666Y-89910255D01*
X151625374Y-90200062D01*
X151989208Y-90494818D01*
X152261715Y-90770068D01*
X152416441Y-91001357D01*
X152435108Y-91055122D01*
X152421021Y-91314430D01*
X152241618Y-91542760D01*
X151898074Y-91740032D01*
X151391565Y-91906161D01*
X150723266Y-92041066D01*
X149894353Y-92144664D01*
X148906000Y-92216873D01*
X147759382Y-92257610D01*
X146455677Y-92266792D01*
X144996057Y-92244338D01*
G36*
X139773384Y-91405116D02*
G01*
X139006905Y-91323301D01*
X138335679Y-91178861D01*
X138200333Y-91137011D01*
X137563721Y-90880027D01*
X137068334Y-90582025D01*
X136718625Y-90251636D01*
X136519048Y-89897489D01*
X136474056Y-89528214D01*
X136588103Y-89152440D01*
X136865643Y-88778797D01*
X136943941Y-88702499D01*
X137403294Y-88380200D01*
X137985672Y-88138255D01*
X138661566Y-87983482D01*
X139401469Y-87922695D01*
X140156278Y-87960423D01*
X140548741Y-88024381D01*
X140954886Y-88119850D01*
X141226958Y-88205274D01*
X141595756Y-88369092D01*
X141997258Y-88588415D01*
X142380836Y-88831706D01*
X142695862Y-89067430D01*
X142857000Y-89220642D01*
X143026333Y-89414499D01*
X142772333Y-89285314D01*
X142117245Y-89022588D01*
X141373870Y-88842697D01*
X140584552Y-88747421D01*
X139791634Y-88738541D01*
X139037458Y-88817837D01*
X138364368Y-88987091D01*
X138107861Y-89089130D01*
X137681482Y-89331941D01*
X137419786Y-89591775D01*
X137319991Y-89860575D01*
X137379314Y-90130283D01*
X137594973Y-90392840D01*
X137964185Y-90640190D01*
X138484169Y-90864274D01*
X138750666Y-90950650D01*
X139566797Y-91124771D01*
X140469602Y-91197257D01*
X141411306Y-91169413D01*
X142344134Y-91042547D01*
X143185111Y-90829399D01*
X143517390Y-90726047D01*
X143782869Y-90650087D01*
X143945026Y-90611618D01*
X143977242Y-90610353D01*
X143934995Y-90664550D01*
X143761425Y-90751263D01*
X143488765Y-90859156D01*
X143149248Y-90976889D01*
X142775106Y-91093124D01*
X142398572Y-91196522D01*
X142133343Y-91258966D01*
X141387703Y-91374533D01*
X140584017Y-91422721D01*
X139773384Y-91405116D01*
X139773384Y-91405116D01*
G37*
X139773384Y-91405116D02*
X139006905Y-91323301D01*
X138335679Y-91178861D01*
X138200333Y-91137011D01*
X137563721Y-90880027D01*
X137068334Y-90582025D01*
X136718625Y-90251636D01*
X136519048Y-89897489D01*
X136474056Y-89528214D01*
X136588103Y-89152440D01*
X136865643Y-88778797D01*
X136943941Y-88702499D01*
X137403294Y-88380200D01*
X137985672Y-88138255D01*
X138661566Y-87983482D01*
X139401469Y-87922695D01*
X140156278Y-87960423D01*
X140548741Y-88024381D01*
X140954886Y-88119850D01*
X141226958Y-88205274D01*
X141595756Y-88369092D01*
X141997258Y-88588415D01*
X142380836Y-88831706D01*
X142695862Y-89067430D01*
X142857000Y-89220642D01*
X143026333Y-89414499D01*
X142772333Y-89285314D01*
X142117245Y-89022588D01*
X141373870Y-88842697D01*
X140584552Y-88747421D01*
X139791634Y-88738541D01*
X139037458Y-88817837D01*
X138364368Y-88987091D01*
X138107861Y-89089130D01*
X137681482Y-89331941D01*
X137419786Y-89591775D01*
X137319991Y-89860575D01*
X137379314Y-90130283D01*
X137594973Y-90392840D01*
X137964185Y-90640190D01*
X138484169Y-90864274D01*
X138750666Y-90950650D01*
X139566797Y-91124771D01*
X140469602Y-91197257D01*
X141411306Y-91169413D01*
X142344134Y-91042547D01*
X143185111Y-90829399D01*
X143517390Y-90726047D01*
X143782869Y-90650087D01*
X143945026Y-90611618D01*
X143977242Y-90610353D01*
X143934995Y-90664550D01*
X143761425Y-90751263D01*
X143488765Y-90859156D01*
X143149248Y-90976889D01*
X142775106Y-91093124D01*
X142398572Y-91196522D01*
X142133343Y-91258966D01*
X141387703Y-91374533D01*
X140584017Y-91422721D01*
X139773384Y-91405116D01*
G36*
X143051583Y-90040687D02*
G01*
X143235010Y-89906373D01*
X143505292Y-89721952D01*
X143833442Y-89506240D01*
X144190474Y-89278052D01*
X144547401Y-89056205D01*
X144875235Y-88859514D01*
X145112379Y-88724511D01*
X145859592Y-88357360D01*
X146589034Y-88078962D01*
X147277050Y-87894856D01*
X147899988Y-87810576D01*
X148434193Y-87831661D01*
X148679657Y-87889531D01*
X149163131Y-88135723D01*
X149564541Y-88527795D01*
X149850449Y-88999571D01*
X149965497Y-89266580D01*
X150048173Y-89502155D01*
X150094075Y-89681027D01*
X150098801Y-89777926D01*
X150057950Y-89767582D01*
X149967121Y-89624726D01*
X149955551Y-89603000D01*
X149622360Y-89139158D01*
X149173612Y-88765070D01*
X149037666Y-88685079D01*
X148864575Y-88603552D01*
X148679985Y-88550582D01*
X148442995Y-88520624D01*
X148112704Y-88508131D01*
X147725333Y-88507113D01*
X147263087Y-88514930D01*
X146907723Y-88539486D01*
X146596941Y-88590339D01*
X146268442Y-88677045D01*
X145947333Y-88779875D01*
X145554308Y-88925216D01*
X145072265Y-89125059D01*
X144561207Y-89353489D01*
X144081137Y-89584592D01*
X144063500Y-89593488D01*
X143679660Y-89785329D01*
X143355966Y-89942972D01*
X143119073Y-90053760D01*
X142995636Y-90105036D01*
X142984000Y-90106077D01*
X143051583Y-90040687D01*
X143051583Y-90040687D01*
G37*
X143051583Y-90040687D02*
X143235010Y-89906373D01*
X143505292Y-89721952D01*
X143833442Y-89506240D01*
X144190474Y-89278052D01*
X144547401Y-89056205D01*
X144875235Y-88859514D01*
X145112379Y-88724511D01*
X145859592Y-88357360D01*
X146589034Y-88078962D01*
X147277050Y-87894856D01*
X147899988Y-87810576D01*
X148434193Y-87831661D01*
X148679657Y-87889531D01*
X149163131Y-88135723D01*
X149564541Y-88527795D01*
X149850449Y-88999571D01*
X149965497Y-89266580D01*
X150048173Y-89502155D01*
X150094075Y-89681027D01*
X150098801Y-89777926D01*
X150057950Y-89767582D01*
X149967121Y-89624726D01*
X149955551Y-89603000D01*
X149622360Y-89139158D01*
X149173612Y-88765070D01*
X149037666Y-88685079D01*
X148864575Y-88603552D01*
X148679985Y-88550582D01*
X148442995Y-88520624D01*
X148112704Y-88508131D01*
X147725333Y-88507113D01*
X147263087Y-88514930D01*
X146907723Y-88539486D01*
X146596941Y-88590339D01*
X146268442Y-88677045D01*
X145947333Y-88779875D01*
X145554308Y-88925216D01*
X145072265Y-89125059D01*
X144561207Y-89353489D01*
X144081137Y-89584592D01*
X144063500Y-89593488D01*
X143679660Y-89785329D01*
X143355966Y-89942972D01*
X143119073Y-90053760D01*
X142995636Y-90105036D01*
X142984000Y-90106077D01*
X143051583Y-90040687D01*
G36*
X125215119Y-131414634D02*
G01*
X125337223Y-131668304D01*
X125308460Y-131744626D01*
X125104126Y-131932311D01*
X125004140Y-131718543D01*
X125000000Y-131611675D01*
X125104140Y-131393668D01*
X125215119Y-131414634D01*
X125215119Y-131414634D01*
G37*
X125215119Y-131414634D02*
X125337223Y-131668304D01*
X125308460Y-131744626D01*
X125104126Y-131932311D01*
X125004140Y-131718543D01*
X125000000Y-131611675D01*
X125104140Y-131393668D01*
X125215119Y-131414634D01*
G36*
X125706946Y-133309317D02*
G01*
X125937742Y-133409234D01*
X125934661Y-133452197D01*
X125662097Y-133584661D01*
X125211666Y-133635000D01*
X124734315Y-133577854D01*
X124488672Y-133452197D01*
X124600973Y-133338498D01*
X125018364Y-133274526D01*
X125211666Y-133269394D01*
X125706946Y-133309317D01*
X125706946Y-133309317D01*
G37*
X125706946Y-133309317D02*
X125937742Y-133409234D01*
X125934661Y-133452197D01*
X125662097Y-133584661D01*
X125211666Y-133635000D01*
X124734315Y-133577854D01*
X124488672Y-133452197D01*
X124600973Y-133338498D01*
X125018364Y-133274526D01*
X125211666Y-133269394D01*
X125706946Y-133309317D01*
G36*
X126107914Y-129598487D02*
G01*
X126735500Y-130065681D01*
X127185506Y-130786404D01*
X127392432Y-131720329D01*
X127378361Y-132315391D01*
X127430229Y-133349520D01*
X127623285Y-133934880D01*
X127829253Y-134611636D01*
X127947818Y-135500416D01*
X127963333Y-135942405D01*
X127948378Y-136658797D01*
X127882494Y-137048446D01*
X127734151Y-137207500D01*
X127540000Y-137233333D01*
X127196047Y-137096150D01*
X127138509Y-136804581D01*
X127394154Y-136538602D01*
X127434166Y-136521789D01*
X127649671Y-136237624D01*
X127734726Y-135699121D01*
X127681071Y-135057257D01*
X127540000Y-134587500D01*
X127422368Y-134391699D01*
X127362976Y-134545533D01*
X127343210Y-134971832D01*
X127240392Y-135791369D01*
X126990193Y-136358813D01*
X126629186Y-136595803D01*
X126584085Y-136598333D01*
X126309021Y-136778891D01*
X126145252Y-137127500D01*
X125940768Y-137524783D01*
X125705395Y-137656667D01*
X125490327Y-137568278D01*
X125502708Y-137487810D01*
X125493943Y-137187453D01*
X125409361Y-137011560D01*
X125241319Y-136852245D01*
X125114923Y-137064923D01*
X125081140Y-137180417D01*
X124864801Y-137551646D01*
X124645321Y-137656667D01*
X124447390Y-137545311D01*
X124473630Y-137440474D01*
X124408307Y-137187256D01*
X124091863Y-136786614D01*
X123851122Y-136554860D01*
X123332968Y-136003010D01*
X123250690Y-135808438D01*
X123582755Y-135808438D01*
X123708237Y-136042668D01*
X123730000Y-136069167D01*
X124082494Y-136243959D01*
X124702681Y-136357162D01*
X125438056Y-136398626D01*
X126136113Y-136358202D01*
X126570188Y-136258187D01*
X126866665Y-136037894D01*
X126840967Y-135822957D01*
X126587500Y-135751667D01*
X126337475Y-135565887D01*
X126270000Y-135105069D01*
X126259725Y-134915583D01*
X126707658Y-134915583D01*
X126728140Y-135378074D01*
X126790965Y-135458575D01*
X126937475Y-135198426D01*
X126954752Y-135162677D01*
X127079280Y-134705266D01*
X126940427Y-134432427D01*
X126774699Y-134360239D01*
X126709880Y-134627584D01*
X126707658Y-134915583D01*
X126259725Y-134915583D01*
X126248954Y-134716985D01*
X126111356Y-134536106D01*
X125745512Y-134497767D01*
X125264583Y-134522986D01*
X124651258Y-134585439D01*
X124342175Y-134717341D01*
X124218247Y-134990493D01*
X124192190Y-135169583D01*
X124031651Y-135625273D01*
X123795856Y-135751667D01*
X123582755Y-135808438D01*
X123250690Y-135808438D01*
X123105116Y-135464185D01*
X123070658Y-135130637D01*
X123063382Y-134905000D01*
X123518333Y-134905000D01*
X123574696Y-135335259D01*
X123719925Y-135439782D01*
X123730000Y-135434167D01*
X123909663Y-135134739D01*
X123941666Y-134905000D01*
X123841564Y-134505013D01*
X123730000Y-134375833D01*
X123580837Y-134459388D01*
X123518529Y-134873709D01*
X123518333Y-134905000D01*
X123063382Y-134905000D01*
X123046317Y-134375833D01*
X122884374Y-135218417D01*
X122798865Y-136013405D01*
X122903443Y-136480884D01*
X123117645Y-136598333D01*
X123283196Y-136771125D01*
X123306666Y-136931353D01*
X123148883Y-137184596D01*
X122936250Y-137193880D01*
X122693558Y-136952329D01*
X122538520Y-136417124D01*
X122477638Y-135710097D01*
X122517415Y-134953074D01*
X122664352Y-134267887D01*
X122766658Y-134016470D01*
X122959274Y-133401915D01*
X123051687Y-132746000D01*
X123518333Y-132746000D01*
X123568409Y-133399991D01*
X123695211Y-133890712D01*
X123772333Y-134016000D01*
X124183706Y-134195648D01*
X124844350Y-134271026D01*
X125594603Y-134247334D01*
X126274800Y-134129771D01*
X126725279Y-133923537D01*
X126729583Y-133919694D01*
X126993952Y-133487392D01*
X127116380Y-132900495D01*
X127092545Y-132317491D01*
X126918126Y-131896867D01*
X126787317Y-131801997D01*
X126400643Y-131852792D01*
X126038238Y-132126140D01*
X125472951Y-132517621D01*
X124911477Y-132488211D01*
X124470833Y-132153333D01*
X124022049Y-131770194D01*
X123718475Y-131780031D01*
X123554028Y-132186628D01*
X123518333Y-132746000D01*
X123051687Y-132746000D01*
X123076010Y-132573368D01*
X123095000Y-132099646D01*
X123117580Y-131395745D01*
X124598004Y-131395745D01*
X124658907Y-131850679D01*
X124955608Y-132098960D01*
X125263637Y-132115262D01*
X125641953Y-131932537D01*
X125740833Y-131518333D01*
X125624499Y-131082296D01*
X125263637Y-130921404D01*
X124811483Y-131019794D01*
X124598004Y-131395745D01*
X123117580Y-131395745D01*
X123118819Y-131357141D01*
X123194949Y-131026063D01*
X123518333Y-131026063D01*
X123652704Y-131275493D01*
X123981923Y-131248675D01*
X124395151Y-130962218D01*
X124470833Y-130883333D01*
X124899720Y-130561812D01*
X125246544Y-130460000D01*
X125677162Y-130611822D01*
X126001612Y-130883333D01*
X126408417Y-131223806D01*
X126742631Y-131281599D01*
X126902360Y-131044774D01*
X126905000Y-130989167D01*
X126713860Y-130485606D01*
X126222490Y-130075257D01*
X125553960Y-129846192D01*
X125278225Y-129825000D01*
X124611429Y-129953667D01*
X124011534Y-130279693D01*
X123610361Y-130713111D01*
X123518333Y-131026063D01*
X123194949Y-131026063D01*
X123231433Y-130867404D01*
X123494575Y-130460735D01*
X123814666Y-130121333D01*
X124581998Y-129585988D01*
X125368247Y-129425148D01*
X126107914Y-129598487D01*
X126107914Y-129598487D01*
G37*
X126107914Y-129598487D02*
X126735500Y-130065681D01*
X127185506Y-130786404D01*
X127392432Y-131720329D01*
X127378361Y-132315391D01*
X127430229Y-133349520D01*
X127623285Y-133934880D01*
X127829253Y-134611636D01*
X127947818Y-135500416D01*
X127963333Y-135942405D01*
X127948378Y-136658797D01*
X127882494Y-137048446D01*
X127734151Y-137207500D01*
X127540000Y-137233333D01*
X127196047Y-137096150D01*
X127138509Y-136804581D01*
X127394154Y-136538602D01*
X127434166Y-136521789D01*
X127649671Y-136237624D01*
X127734726Y-135699121D01*
X127681071Y-135057257D01*
X127540000Y-134587500D01*
X127422368Y-134391699D01*
X127362976Y-134545533D01*
X127343210Y-134971832D01*
X127240392Y-135791369D01*
X126990193Y-136358813D01*
X126629186Y-136595803D01*
X126584085Y-136598333D01*
X126309021Y-136778891D01*
X126145252Y-137127500D01*
X125940768Y-137524783D01*
X125705395Y-137656667D01*
X125490327Y-137568278D01*
X125502708Y-137487810D01*
X125493943Y-137187453D01*
X125409361Y-137011560D01*
X125241319Y-136852245D01*
X125114923Y-137064923D01*
X125081140Y-137180417D01*
X124864801Y-137551646D01*
X124645321Y-137656667D01*
X124447390Y-137545311D01*
X124473630Y-137440474D01*
X124408307Y-137187256D01*
X124091863Y-136786614D01*
X123851122Y-136554860D01*
X123332968Y-136003010D01*
X123250690Y-135808438D01*
X123582755Y-135808438D01*
X123708237Y-136042668D01*
X123730000Y-136069167D01*
X124082494Y-136243959D01*
X124702681Y-136357162D01*
X125438056Y-136398626D01*
X126136113Y-136358202D01*
X126570188Y-136258187D01*
X126866665Y-136037894D01*
X126840967Y-135822957D01*
X126587500Y-135751667D01*
X126337475Y-135565887D01*
X126270000Y-135105069D01*
X126259725Y-134915583D01*
X126707658Y-134915583D01*
X126728140Y-135378074D01*
X126790965Y-135458575D01*
X126937475Y-135198426D01*
X126954752Y-135162677D01*
X127079280Y-134705266D01*
X126940427Y-134432427D01*
X126774699Y-134360239D01*
X126709880Y-134627584D01*
X126707658Y-134915583D01*
X126259725Y-134915583D01*
X126248954Y-134716985D01*
X126111356Y-134536106D01*
X125745512Y-134497767D01*
X125264583Y-134522986D01*
X124651258Y-134585439D01*
X124342175Y-134717341D01*
X124218247Y-134990493D01*
X124192190Y-135169583D01*
X124031651Y-135625273D01*
X123795856Y-135751667D01*
X123582755Y-135808438D01*
X123250690Y-135808438D01*
X123105116Y-135464185D01*
X123070658Y-135130637D01*
X123063382Y-134905000D01*
X123518333Y-134905000D01*
X123574696Y-135335259D01*
X123719925Y-135439782D01*
X123730000Y-135434167D01*
X123909663Y-135134739D01*
X123941666Y-134905000D01*
X123841564Y-134505013D01*
X123730000Y-134375833D01*
X123580837Y-134459388D01*
X123518529Y-134873709D01*
X123518333Y-134905000D01*
X123063382Y-134905000D01*
X123046317Y-134375833D01*
X122884374Y-135218417D01*
X122798865Y-136013405D01*
X122903443Y-136480884D01*
X123117645Y-136598333D01*
X123283196Y-136771125D01*
X123306666Y-136931353D01*
X123148883Y-137184596D01*
X122936250Y-137193880D01*
X122693558Y-136952329D01*
X122538520Y-136417124D01*
X122477638Y-135710097D01*
X122517415Y-134953074D01*
X122664352Y-134267887D01*
X122766658Y-134016470D01*
X122959274Y-133401915D01*
X123051687Y-132746000D01*
X123518333Y-132746000D01*
X123568409Y-133399991D01*
X123695211Y-133890712D01*
X123772333Y-134016000D01*
X124183706Y-134195648D01*
X124844350Y-134271026D01*
X125594603Y-134247334D01*
X126274800Y-134129771D01*
X126725279Y-133923537D01*
X126729583Y-133919694D01*
X126993952Y-133487392D01*
X127116380Y-132900495D01*
X127092545Y-132317491D01*
X126918126Y-131896867D01*
X126787317Y-131801997D01*
X126400643Y-131852792D01*
X126038238Y-132126140D01*
X125472951Y-132517621D01*
X124911477Y-132488211D01*
X124470833Y-132153333D01*
X124022049Y-131770194D01*
X123718475Y-131780031D01*
X123554028Y-132186628D01*
X123518333Y-132746000D01*
X123051687Y-132746000D01*
X123076010Y-132573368D01*
X123095000Y-132099646D01*
X123117580Y-131395745D01*
X124598004Y-131395745D01*
X124658907Y-131850679D01*
X124955608Y-132098960D01*
X125263637Y-132115262D01*
X125641953Y-131932537D01*
X125740833Y-131518333D01*
X125624499Y-131082296D01*
X125263637Y-130921404D01*
X124811483Y-131019794D01*
X124598004Y-131395745D01*
X123117580Y-131395745D01*
X123118819Y-131357141D01*
X123194949Y-131026063D01*
X123518333Y-131026063D01*
X123652704Y-131275493D01*
X123981923Y-131248675D01*
X124395151Y-130962218D01*
X124470833Y-130883333D01*
X124899720Y-130561812D01*
X125246544Y-130460000D01*
X125677162Y-130611822D01*
X126001612Y-130883333D01*
X126408417Y-131223806D01*
X126742631Y-131281599D01*
X126902360Y-131044774D01*
X126905000Y-130989167D01*
X126713860Y-130485606D01*
X126222490Y-130075257D01*
X125553960Y-129846192D01*
X125278225Y-129825000D01*
X124611429Y-129953667D01*
X124011534Y-130279693D01*
X123610361Y-130713111D01*
X123518333Y-131026063D01*
X123194949Y-131026063D01*
X123231433Y-130867404D01*
X123494575Y-130460735D01*
X123814666Y-130121333D01*
X124581998Y-129585988D01*
X125368247Y-129425148D01*
X126107914Y-129598487D01*
D12*
X153230000Y-125230000D02*
X154500000Y-125230000D01*
X153230000Y-126500000D02*
X153230000Y-125230000D01*
X155542929Y-142120000D02*
X155940000Y-142120000D01*
X155542929Y-141360000D02*
X155940000Y-141360000D01*
X164600000Y-142120000D02*
X158600000Y-142120000D01*
X164600000Y-141360000D02*
X164600000Y-142120000D01*
X158600000Y-141360000D02*
X164600000Y-141360000D01*
X155940000Y-140470000D02*
X158600000Y-140470000D01*
X155542929Y-139580000D02*
X155940000Y-139580000D01*
X155542929Y-138820000D02*
X155940000Y-138820000D01*
X164600000Y-139580000D02*
X158600000Y-139580000D01*
X164600000Y-138820000D02*
X164600000Y-139580000D01*
X158600000Y-138820000D02*
X164600000Y-138820000D01*
X155940000Y-137930000D02*
X158600000Y-137930000D01*
X155542929Y-137040000D02*
X155940000Y-137040000D01*
X155542929Y-136280000D02*
X155940000Y-136280000D01*
X164600000Y-137040000D02*
X158600000Y-137040000D01*
X164600000Y-136280000D02*
X164600000Y-137040000D01*
X158600000Y-136280000D02*
X164600000Y-136280000D01*
X155940000Y-135390000D02*
X158600000Y-135390000D01*
X155542929Y-134500000D02*
X155940000Y-134500000D01*
X155542929Y-133740000D02*
X155940000Y-133740000D01*
X164600000Y-134500000D02*
X158600000Y-134500000D01*
X164600000Y-133740000D02*
X164600000Y-134500000D01*
X158600000Y-133740000D02*
X164600000Y-133740000D01*
X155940000Y-132850000D02*
X158600000Y-132850000D01*
X155542929Y-131960000D02*
X155940000Y-131960000D01*
X155542929Y-131200000D02*
X155940000Y-131200000D01*
X164600000Y-131960000D02*
X158600000Y-131960000D01*
X164600000Y-131200000D02*
X164600000Y-131960000D01*
X158600000Y-131200000D02*
X164600000Y-131200000D01*
X155940000Y-130310000D02*
X158600000Y-130310000D01*
X155542929Y-129420000D02*
X155940000Y-129420000D01*
X155542929Y-128660000D02*
X155940000Y-128660000D01*
X164600000Y-129420000D02*
X158600000Y-129420000D01*
X164600000Y-128660000D02*
X164600000Y-129420000D01*
X158600000Y-128660000D02*
X164600000Y-128660000D01*
X155940000Y-127770000D02*
X158600000Y-127770000D01*
X155610000Y-126880000D02*
X155940000Y-126880000D01*
X155610000Y-126120000D02*
X155940000Y-126120000D01*
X158600000Y-126780000D02*
X164600000Y-126780000D01*
X158600000Y-126660000D02*
X164600000Y-126660000D01*
X158600000Y-126540000D02*
X164600000Y-126540000D01*
X158600000Y-126420000D02*
X164600000Y-126420000D01*
X158600000Y-126300000D02*
X164600000Y-126300000D01*
X158600000Y-126180000D02*
X164600000Y-126180000D01*
X164600000Y-126880000D02*
X158600000Y-126880000D01*
X164600000Y-126120000D02*
X164600000Y-126880000D01*
X158600000Y-126120000D02*
X164600000Y-126120000D01*
X158600000Y-125170000D02*
X155940000Y-125170000D01*
X158600000Y-143070000D02*
X158600000Y-125170000D01*
X155940000Y-143070000D02*
X158600000Y-143070000D01*
X155940000Y-125170000D02*
X155940000Y-143070000D01*
X153300000Y-100730000D02*
X154570000Y-100730000D01*
X153300000Y-102000000D02*
X153300000Y-100730000D01*
X155612929Y-115080000D02*
X156010000Y-115080000D01*
X155612929Y-114320000D02*
X156010000Y-114320000D01*
X164670000Y-115080000D02*
X158670000Y-115080000D01*
X164670000Y-114320000D02*
X164670000Y-115080000D01*
X158670000Y-114320000D02*
X164670000Y-114320000D01*
X156010000Y-113430000D02*
X158670000Y-113430000D01*
X155612929Y-112540000D02*
X156010000Y-112540000D01*
X155612929Y-111780000D02*
X156010000Y-111780000D01*
X164670000Y-112540000D02*
X158670000Y-112540000D01*
X164670000Y-111780000D02*
X164670000Y-112540000D01*
X158670000Y-111780000D02*
X164670000Y-111780000D01*
X156010000Y-110890000D02*
X158670000Y-110890000D01*
X155612929Y-110000000D02*
X156010000Y-110000000D01*
X155612929Y-109240000D02*
X156010000Y-109240000D01*
X164670000Y-110000000D02*
X158670000Y-110000000D01*
X164670000Y-109240000D02*
X164670000Y-110000000D01*
X158670000Y-109240000D02*
X164670000Y-109240000D01*
X156010000Y-108350000D02*
X158670000Y-108350000D01*
X155612929Y-107460000D02*
X156010000Y-107460000D01*
X155612929Y-106700000D02*
X156010000Y-106700000D01*
X164670000Y-107460000D02*
X158670000Y-107460000D01*
X164670000Y-106700000D02*
X164670000Y-107460000D01*
X158670000Y-106700000D02*
X164670000Y-106700000D01*
X156010000Y-105810000D02*
X158670000Y-105810000D01*
X155612929Y-104920000D02*
X156010000Y-104920000D01*
X155612929Y-104160000D02*
X156010000Y-104160000D01*
X164670000Y-104920000D02*
X158670000Y-104920000D01*
X164670000Y-104160000D02*
X164670000Y-104920000D01*
X158670000Y-104160000D02*
X164670000Y-104160000D01*
X156010000Y-103270000D02*
X158670000Y-103270000D01*
X155680000Y-102380000D02*
X156010000Y-102380000D01*
X155680000Y-101620000D02*
X156010000Y-101620000D01*
X158670000Y-102280000D02*
X164670000Y-102280000D01*
X158670000Y-102160000D02*
X164670000Y-102160000D01*
X158670000Y-102040000D02*
X164670000Y-102040000D01*
X158670000Y-101920000D02*
X164670000Y-101920000D01*
X158670000Y-101800000D02*
X164670000Y-101800000D01*
X158670000Y-101680000D02*
X164670000Y-101680000D01*
X164670000Y-102380000D02*
X158670000Y-102380000D01*
X164670000Y-101620000D02*
X164670000Y-102380000D01*
X158670000Y-101620000D02*
X164670000Y-101620000D01*
X158670000Y-100670000D02*
X156010000Y-100670000D01*
X158670000Y-116030000D02*
X158670000Y-100670000D01*
X156010000Y-116030000D02*
X158670000Y-116030000D01*
X156010000Y-100670000D02*
X156010000Y-116030000D01*
X131090000Y-127348233D02*
X131090000Y-125651767D01*
X131090000Y-130348233D02*
X131090000Y-128651767D01*
X131090000Y-133348233D02*
X131090000Y-131651767D01*
X131090000Y-136348233D02*
X131090000Y-134651767D01*
X131090000Y-139348233D02*
X131090000Y-137651767D01*
X131090000Y-141990000D02*
X131090000Y-140651767D01*
X131090000Y-121565000D02*
X131090000Y-124348233D01*
X131090000Y-146435000D02*
X131090000Y-144010000D01*
X121970000Y-121565000D02*
X131090000Y-121565000D01*
X120970000Y-122565000D02*
X121970000Y-121565000D01*
X120970000Y-145435000D02*
X120970000Y-122565000D01*
X121970000Y-146435000D02*
X120970000Y-145435000D01*
X131090000Y-146435000D02*
X121970000Y-146435000D01*
X131090000Y-100348233D02*
X131090000Y-98651767D01*
X131090000Y-103348233D02*
X131090000Y-101651767D01*
X131090000Y-106348233D02*
X131090000Y-104651767D01*
X131090000Y-109348233D02*
X131090000Y-107651767D01*
X131090000Y-112348233D02*
X131090000Y-110651767D01*
X131090000Y-114990000D02*
X131090000Y-113651767D01*
X131090000Y-94565000D02*
X131090000Y-97348233D01*
X131090000Y-119435000D02*
X131090000Y-117010000D01*
X121970000Y-94565000D02*
X131090000Y-94565000D01*
X120970000Y-95565000D02*
X121970000Y-94565000D01*
X120970000Y-118435000D02*
X120970000Y-95565000D01*
X121970000Y-119435000D02*
X120970000Y-118435000D01*
X131090000Y-119435000D02*
X121970000Y-119435000D01*
D10*
X158666666Y-144452380D02*
X158666666Y-145166666D01*
X158619047Y-145309523D01*
X158523809Y-145404761D01*
X158380952Y-145452380D01*
X158285714Y-145452380D01*
X159571428Y-144785714D02*
X159571428Y-145452380D01*
X159333333Y-144404761D02*
X159095238Y-145119047D01*
X159714285Y-145119047D01*
X158666666Y-98452380D02*
X158666666Y-99166666D01*
X158619047Y-99309523D01*
X158523809Y-99404761D01*
X158380952Y-99452380D01*
X158285714Y-99452380D01*
X159047619Y-98452380D02*
X159666666Y-98452380D01*
X159333333Y-98833333D01*
X159476190Y-98833333D01*
X159571428Y-98880952D01*
X159619047Y-98928571D01*
X159666666Y-99023809D01*
X159666666Y-99261904D01*
X159619047Y-99357142D01*
X159571428Y-99404761D01*
X159476190Y-99452380D01*
X159190476Y-99452380D01*
X159095238Y-99404761D01*
X159047619Y-99357142D01*
X125666666Y-147452380D02*
X125666666Y-148166666D01*
X125619047Y-148309523D01*
X125523809Y-148404761D01*
X125380952Y-148452380D01*
X125285714Y-148452380D01*
X126095238Y-147547619D02*
X126142857Y-147500000D01*
X126238095Y-147452380D01*
X126476190Y-147452380D01*
X126571428Y-147500000D01*
X126619047Y-147547619D01*
X126666666Y-147642857D01*
X126666666Y-147738095D01*
X126619047Y-147880952D01*
X126047619Y-148452380D01*
X126666666Y-148452380D01*
X126346666Y-92802380D02*
X126346666Y-93516666D01*
X126299047Y-93659523D01*
X126203809Y-93754761D01*
X126060952Y-93802380D01*
X125965714Y-93802380D01*
X127346666Y-93802380D02*
X126775238Y-93802380D01*
X127060952Y-93802380D02*
X127060952Y-92802380D01*
X126965714Y-92945238D01*
X126870476Y-93040476D01*
X126775238Y-93088095D01*
M02*
